<svg xmlns="http://www.w3.org/2000/svg" width="51" height="22" viewBox="2 22 48 22">
  <defs>
    <style type="text/css">
        #overwatch{
            fill: #333;
        }
        #league{
            fill: #ff8900;
        }
    </style>
  </defs>
  <g>
      <path id="overwatch" d="M28.91,27.78v-1c0-.51-.39-.82-1-.82h-3.8v4h1.37V27h2.15s0,0,0,0v.6H26.06v.81L27.74,30h1.88L27.9,28.5C28.38,28.48,28.91,28.25,28.91,27.78ZM19.22,27v3h4.25V29H20.59v-.5h1.94v-.92H20.59v-.48h2.88V26H19.92Zm-6.58-.94a1.63,1.63,0,0,0-.47-.06h-3c-.69,0-1.13.35-1.13.91V29.1a.83.83,0,0,0,.47.76l.06,0L9.37,29v-2h2.56V29H10.05L9,30h3.17c.67,0,1.13-.37,1.13-.91V27l-.63-.95ZM17.78,26l-1.53,2.44L14.75,26H13.2l2.53,4h.94l2.63-4ZM35,26l-.86,2-.9-2h-.94l-.89,2-.85-2H29.16l1.77,4h.9l.91-2,.89,2h1l1.75-4Zm14.37,0h-3l-.12.18h0l-.75,1.14V29.1c0,.54.46.91,1.12.91h2.74a1,1,0,0,0,1.13-.91v-.69H49.15V29H46.89v-1.9h2.26v.47h1.37v-.61C50.52,26.36,50.08,26,49.39,26Zm8.4,0h-.12l-.13.36L57.4,26h-.12l-.09.59h.12l.06-.36.14.36h.07l.14-.37.06.37h.13Zm-1,.11h.11v.48h.12v-.48h.11V26h-.35ZM40.56,26v1.05H42.3v3h1.37v-3h1.38l.7-1.05ZM38,26l-2.69,4h1.49l1.67-2.58L40.08,30h1.53L39,26Zm17,1.41H52.47V26H51.09v4h1.37V28.46h2.46V30h1.36V26H54.92Z" transform="translate(-6)"></path>
      <path id="league" d="M9.9,32H8v6h6.29V36.44H9.9Zm16.38,0-4,6h2.22L27,34.14,29.45,38h2.29l-3.91-6Zm-9,3.65h2.9V34.29h-2.9v-.71h4.3V32H15.22v6h6l1.09-1.57h-5Zm34.5.78v-.82h2.62V34.16H51.76V33.5h4.5V32H49.9v6h6.42V36.44Zm-12.88-3,1-1.49h-6C32.7,32,32,32.25,32,33.56v2.87c0,.09,0,.18,0,.26l.81,1.18a3.3,3.3,0,0,0,1,.12h4.19c1.17,0,1.85-.26,1.85-1.56V34.18H36.29l-1,1.45h2.62v.82H34v-3Zm7.85,2.95H43V32H41.14v4.43c0,1.3.63,1.55,1.72,1.55h4c1.1,0,1.73-.25,1.73-1.55V32H46.73Z" transform="translate(-6)"></path>
  </g>
</svg>