<?xml version="1.0" encoding="utf-8"?>
<!-- Generator: Adobe Illustrator 16.0.0, SVG Export Plug-In . SVG Version: 6.00 Build 0)  -->
<!DOCTYPE svg PUBLIC "-//W3C//DTD SVG 1.1//EN" "http://www.w3.org/Graphics/SVG/1.1/DTD/svg11.dtd">
<svg version="1.1" id="Layer_1" xmlns="http://www.w3.org/2000/svg" xmlns:xlink="http://www.w3.org/1999/xlink" x="0px" y="0px"
	 width="35.5px" height="22px" viewBox="0 0 35.5 22" enable-background="new 0 0 35.5 22" xml:space="preserve">
<g>
	<path id="bg-orange" fill="#FF8900" d="M32.684,19.546H6.091c-1.898,0-3.438-1.539-3.438-3.438V5.878
		c0-1.898,1.539-3.438,3.438-3.438h26.593c1.883,0,0.688-1.21,0.688,0.688v15.771C33.357,20.756,34.566,19.546,32.684,19.546z"/>
	<path id="bg-gray" fill="#333333" d="M30.896,18.995l-0.336-0.563l-1.851-1.938l-3.589-2.358l-4.606-2.798l-3.52-4.393
		l-0.688-2.146l0.495-1.644l0.578-0.688H3.458C3.023,2.472,2.671,2.823,2.667,3.259v15.489c0,0.438,0.353,0.794,0.791,0.798h27.349
		L30.896,18.995z"/>
	<path id="bg-white" fill="#FFFFFF" d="M32.561,1.396H3.458c-1.02,0.004-1.846,0.83-1.85,1.85v15.503
		c0,1.022,0.827,1.853,1.85,1.856h29.103c1.018-0.013,1.836-0.84,1.836-1.856V3.245C34.393,2.23,33.574,1.407,32.561,1.396z
		 M2.667,18.748V3.245c0-0.438,0.353-0.794,0.791-0.798h13.661c-0.071,0.178-0.213,0.317-0.392,0.386
		c-0.156,0.06-0.317,0.105-0.481,0.137c-0.14,0.031-0.277,0.07-0.413,0.117c-0.136,0.043-0.263,0.108-0.378,0.192
		c-0.064,0.054-0.122,0.113-0.172,0.179c-0.04,0.053-0.077,0.107-0.11,0.165l-0.076,0.104c0.08-0.249,0.117-0.509,0.11-0.771
		c0,0.138-0.357,0.447-0.543,0.612c-0.22,0.158-0.346,0.416-0.337,0.688c-0.036,0.009-0.07,0.022-0.103,0.041
		c-0.151,0.11-0.22,0.172-0.392,0.131c-0.055-0.019-0.107-0.042-0.158-0.069h-0.062c0.091,0.155,0.222,0.283,0.378,0.371
		c0.035,0.018,0.066,0.044,0.089,0.076l-0.131,0.281c-0.07,0.127-0.07,0.28,0,0.406l0.186,0.31l0.055,0.055
		c-0.012-0.096-0.012-0.192,0-0.288c0.01-0.124,0.086-0.232,0.199-0.282c0,0,0,0.075,0,0.138c-0.014,0.063-0.014,0.129,0,0.192
		c0.016,0.035,0.035,0.069,0.055,0.103c0.054,0.084,0.054,0.191,0,0.275c-0.027,0.041-0.06,0.078-0.096,0.109
		c-0.035,0-0.055,0.042-0.069,0.083c0.029,0.022,0.062,0.041,0.096,0.056l0.145,0.055c0.062,0,0.151,0.062,0.151,0.131
		c-0.003,0.031-0.021,0.059-0.048,0.075l-0.206,0.103L14.3,6.669l-0.192,0.048c-0.306,0.062-0.616,0.099-0.928,0.11
		c-0.108,0.009-0.216-0.016-0.309-0.068c-0.267-0.164-0.575-0.245-0.887-0.234c-0.262,0.032-0.521,0.092-0.77,0.179
		c-0.175,0.058-0.359,0.085-0.543,0.083c-0.086,0.007-0.172-0.013-0.248-0.056c0,0-0.048-0.041-0.254,0
		c-0.087-0.005-0.174-0.005-0.261,0L9.852,6.813c-0.03-0.011-0.058-0.028-0.083-0.048c-0.11-0.068-0.242-0.098-0.371-0.082
		c-0.052,0.008-0.105,0.008-0.158,0c0.02-0.065,0.033-0.132,0.042-0.199c0.016-0.035,0.016-0.075,0-0.11l-0.11-0.172
		c0,0,0,0-0.062-0.041C9.053,6.146,9.001,6.116,8.958,6.077C8.886,6.009,8.79,5.972,8.69,5.975c-0.042,0.02-0.089,0.02-0.131,0
		c-0.072-0.042-0.161-0.042-0.233,0C8.229,6.019,8.122,6.038,8.016,6.03L6.009,6.077c-0.038-0.002-0.072-0.02-0.096-0.048
		c-0.041-0.032-0.098-0.032-0.138,0V6.29H5.521c0,0-0.055-0.13-0.234-0.055c0,0.063,0,0.09,0,0.09l0,0
		c-0.037-0.004-0.073-0.004-0.11,0c-0.007,0.101-0.007,0.201,0,0.303h0.11V6.82c0.051,0.069,0.133,0.11,0.22,0.11
		c0.076,0,0.172,0,0.234,0.082C5.85,7.187,5.974,7.349,6.112,7.501c0.083,0.075,0.199,0.227,0.88,0.357
		C7.219,7.899,7.449,7.921,7.68,7.926c0.035,0.035,0.268,0.303,0.268,0.303s0,0.076,0.192,0.104c0.292,0.07,0.589,0.125,0.887,0.164
		c0.096,0,0.13,0,0.22-0.048c0.069-0.044,0.118-0.113,0.138-0.192v-0.09h0.034C9.572,8.073,9.71,7.958,9.831,7.823
		c0.011,0.031,0.025,0.062,0.042,0.09c0,0,0,0.068,0.172,0.068c0.254-0.002,0.506,0.055,0.735,0.166
		c0.112,0.054,0.214,0.125,0.303,0.213c0.185,0.182,0.429,0.291,0.688,0.309l0.873,0.076c0.125,0.021,0.253,0.006,0.371-0.041
		c0.096-0.024,0.166-0.107,0.172-0.207c0-0.055,0-0.145,0-0.164V8.264c0.034-0.011,0.07-0.011,0.103,0l0.9,0.316
		c0,0,0.083,0,0.055-0.145c-0.028-0.144-0.035-0.22-0.035-0.22c-0.008-0.037,0.016-0.074,0.053-0.082c0.003,0,0.006,0,0.009,0
		c0.102,0,0.204,0.015,0.302,0.041c0.176,0.027,0.354,0.027,0.53,0l0.165-0.049l0,0c0.124-0.041,0.138-0.062,0.172-0.034
		c0.039,0.099,0.055,0.204,0.048,0.31c0.001,0.082,0.033,0.16,0.089,0.22l0.557,0.585l0.179,0.192
		c0.06,0.065,0.144,0.105,0.233,0.11l0.22,0.047c0.093,0.034,0.195,0.034,0.289,0c0.087-0.039,0.188-0.039,0.275,0l0.812,0.18
		l0.041,0.096V9.88c0,0,0.048,0.145,0.075,0.191l0.206,0.393c0,0-0.145,0.076-0.48,0.22c-1.271,0.563-2.392,1.416-3.273,2.489l0,0
		l0,0c-0.202,0.229-0.344,0.507-0.413,0.806c0.011,0.097,0.052,0.188,0.117,0.261c0.103,0.13,0.192,0.269,0.302,0.315
		c0.11,0.047,0.069,0.063,0.467,0.068h0.502c0.148,0.002,0.297-0.018,0.44-0.055l0.454-0.117c0.083,0,0.179-0.049,0.433-0.145
		c0.733-0.281,1.519-0.399,2.304-0.352l0.047,0.068c0,0,0,0.049,0.152,0.076c0.318,0.09,0.628,0.215,0.921,0.37
		c0.1,0.063,0.19,0.14,0.269,0.228c0.075,0.097,0.199,0.207,0.377,0.427c0.076,0.093,0.147,0.188,0.214,0.289
		c0.062,0.087,0.128,0.169,0.199,0.247c0.036,0.037,0.061,0.086,0.069,0.138c0.008,0.073,0.042,0.142,0.096,0.192
		c0.068,0.068,0.131,0.15,0.227,0.041c0.097-0.109,0,0,0-0.309c0-0.311,0-0.33,0.041-0.371c0.06-0.064,0.092-0.148,0.09-0.234
		c0.001-0.087-0.051-0.166-0.131-0.199c0.027-0.113,0.01-0.234-0.048-0.337c-0.031-0.036-0.075-0.06-0.124-0.062
		c-0.035-0.123-0.123-0.226-0.24-0.275c-0.104-0.063-0.165-0.09-0.316-0.371c0,0-0.068-0.145-0.096-0.248s0.096-0.082,0.089-0.393
		l0.274,0.151l0.605,0.304c0.48,0.244,0.988,0.434,1.513,0.563l0.255,0.055c0.057,0.006,0.109,0.03,0.15,0.069
		c0.127,0.11,0.26,0.215,0.398,0.31c0.176,0.1,0.366,0.166,0.564,0.198c0.177,0.019,0.35,0.066,0.509,0.146
		c0,0,0.825,0.427,1.128,0.563c0.416,0.204,0.82,0.435,1.209,0.688l0.435,0.268c0,0,0.117,0.09,0.281,0.24l0.481,0.434l0.056,0.068
		h-0.117v0.214c0,0,0.336,0.233,0.592,0.419c0.22,0.172,0.424,0.363,0.611,0.57l0.487,0.453l0,0c0,0,0.149,0.146,0.104,0.193
		c-0.111,0.102-0.186,0.235-0.207,0.385H3.458C3.028,19.521,2.679,19.178,2.667,18.748z M16.809,3.671L16.809,3.671z M8.477,7.858
		L8.271,7.817C8.218,7.808,8.169,7.78,8.133,7.741C8.059,7.692,8.003,7.62,7.975,7.535L7.92,7.343c0.052-0.01,0.106-0.01,0.158,0
		h0.083c0.018,0.056,0.043,0.108,0.076,0.158C8.281,7.546,8.316,7.6,8.339,7.659c0.01,0.037,0.032,0.071,0.062,0.096
		c0.034,0.02,0.053,0.058,0.048,0.096L8.477,7.858z M19.89,12.891c-0.049,0.049-0.069,0.084-0.138,0.158
		c-0.368,0.023-0.738,0.023-1.106,0c0-0.068,0.055-0.068,0.158-0.097c0.336-0.117,0.662-0.263,0.976-0.433
		c0.068-0.049,0.14-0.092,0.213-0.131l0.089,0.041v0.041l-0.055,0.075c-0.043,0.044-0.067,0.104-0.068,0.165
		C19.964,12.777,19.938,12.845,19.89,12.891z M33.352,18.748c-0.004,0.436-0.355,0.787-0.791,0.791h-1.308
		c0.062-0.027,0.108-0.073,0.14-0.131c0.065-0.176,0.112-0.357,0.137-0.543c-0.006-0.063-0.035-0.118-0.082-0.158
		c-0.139-0.082-0.256-0.198-0.338-0.337l-0.15-0.248c0.073-0.09,0.104-0.208,0.082-0.322c-0.016-0.096-0.044-0.188-0.082-0.274
		c-0.061-0.228-0.168-0.438-0.316-0.619c-0.029-0.028-0.054-0.063-0.067-0.104c0,0,0,0-0.076-0.068
		c-0.076-0.045-0.164-0.069-0.254-0.068l-0.132,0.158h-0.157c-0.034,0-0.067,0-0.172,0.048l-0.104,0.062L29.625,16.9
		c-0.268-0.211-0.52-0.44-0.756-0.688c-0.551-0.537-1.018-1.107-1.018-1.107c-0.164-0.221-0.347-0.428-0.543-0.619
		c-0.271-0.225-0.57-0.406-0.896-0.543c-0.377-0.139-0.773-0.219-1.176-0.239c-0.18-0.06-0.34-0.162-0.467-0.304
		c-0.221-0.227-0.866-0.688-1.237-1.059l-0.846-0.729c-0.688-0.578-1.024-0.813-1.024-0.813c-0.173-0.193-0.287-0.433-0.33-0.688
		c-0.076-0.252-0.203-0.485-0.371-0.688c-0.218-0.224-0.471-0.409-0.75-0.55c-0.12-0.063-0.23-0.141-0.33-0.234
		c0.008-0.068,0.008-0.137,0-0.206c0-0.151-0.041-0.446-0.055-0.481l-0.164-0.103V7.68l0.116-0.097c0,0,0.062,0,0.056-0.158
		c-0.008-0.158,0-0.268,0-0.268s0-0.083-0.098-0.213L19.05,6.016l-0.096-0.179c-0.037-0.047-0.092-0.076-0.15-0.082l-0.221-0.069
		c-0.047-0.017-0.098-0.017-0.145,0c-0.049,0.021-0.103,0.021-0.15,0l-0.241-0.062l-0.151-0.199
		c-0.023-0.032-0.055-0.059-0.09-0.076l-0.213-0.137l-0.474,0.137h-0.055h-0.048l-0.062-0.323l0.261-0.199
		c0.096-0.07,0.188-0.146,0.275-0.227l0.151-0.145c-0.169,0.017-0.339,0.017-0.509,0h-0.041l0.055-0.062
		c0.584-0.571,0.64-0.915,0.687-1.018c-0.125,0.111-0.28,0.186-0.446,0.213l-0.302,0.055c0.281-0.322,0.437-0.734,0.44-1.162h15.036
		c0.436,0.004,0.787,0.355,0.791,0.791V18.748z"/>
</g>
</svg>
