<?xml version="1.0" encoding="utf-8"?>
<!-- Generator: Adobe Illustrator 16.0.0, SVG Export Plug-In . SVG Version: 6.00 Build 0)  -->
<!DOCTYPE svg PUBLIC "-//W3C//DTD SVG 1.1//EN" "http://www.w3.org/Graphics/SVG/1.1/DTD/svg11.dtd">
<svg version="1.1" id="Layer_1" xmlns="http://www.w3.org/2000/svg" xmlns:xlink="http://www.w3.org/1999/xlink" x="0px" y="0px"
	 width="273px" height="273px" viewBox="0 0 273 273" enable-background="new 0 0 273 273" xml:space="preserve">
<path fill-rule="evenodd" clip-rule="evenodd" fill="#FFFFFF" d="M99.766,204.963c-1.396,1.918-2.742,3.777-4.097,5.633
	c-1.489,2.049-2.997,4.08-4.463,6.145c-1.247,1.775-2.915,2.57-5.074,2.404c-4.422-0.34-8.773-1.104-13.087-2.09
	c-8.287-1.883-16.281-4.584-23.878-8.404c-7.23-3.645-13.818-8.174-19.083-14.398c-1.756-2.074-3.251-4.381-4.736-6.672
	c-0.456-0.715-0.688-1.723-0.665-2.588c0.185-5.408,0.311-10.832,0.744-16.221c1.514-18.791,5.495-37.109,10.962-55.117
	c2.688-8.85,5.816-17.551,9.68-25.961c1.953-4.256,4.066-8.417,6.731-12.292c1.75-2.552,4.142-4.339,6.659-6.012
	c7.211-4.803,15.094-8.156,23.349-10.673c6.708-2.048,13.526-3.564,20.49-4.427c1.275-0.157,2.557-0.369,3.839-0.421
	c2.185-0.095,3.745,0.961,4.629,2.92c0.57,1.257,0.98,2.586,1.492,3.977c-1.758,0.331-3.438,0.623-5.105,0.973
	c-12.162,2.546-23.836,6.433-34.681,12.606c-0.961,0.551-1.928,1.104-2.867,1.696c-1.829,1.158-2.669,2.844-2.332,4.975
	c0.315,1.994,1.537,3.318,3.49,3.875c1.104,0.315,2.227,0.267,3.252-0.267c1.116-0.58,2.191-1.257,3.295-1.875
	c7.699-4.352,15.896-7.472,24.425-9.74c6.458-1.721,13.004-2.939,19.644-3.687c4.934-0.557,9.878-0.932,14.84-0.885
	c5.679,0.06,11.318,0.56,16.939,1.343c6.741,0.932,13.383,2.338,19.895,4.31c8.156,2.462,15.954,5.755,23.254,10.202
	c2.997,1.829,6.572,0.302,7.35-3.016c0.474-2.029-0.393-4.084-2.322-5.246c-1.84-1.11-3.704-2.191-5.603-3.193
	c-8.207-4.362-16.892-7.485-25.896-9.711c-3.549-0.878-7.157-1.537-10.735-2.297c-0.102-0.017-0.197-0.047-0.423-0.105
	c0.599-1.508,1.05-3.045,1.793-4.434c1.044-1.944,2.854-2.647,5.002-2.413c7.781,0.857,15.432,2.348,22.936,4.573
	c6.872,2.036,13.514,4.653,19.759,8.214c3.12,1.781,6.226,3.626,8.789,6.174c2.156,2.142,3.675,4.766,5.122,7.406
	c4.119,7.51,7.325,15.421,10.174,23.48c3.94,11.13,7.169,22.464,9.545,34.028c1.395,6.802,2.616,13.65,3.59,20.518
	c0.795,5.557,1.17,11.17,1.597,16.77c0.251,3.199,0.213,6.422,0.333,9.631c0.047,1.268-0.333,2.369-0.974,3.443
	c-4.144,6.934-9.905,12.244-16.625,16.576c-8.499,5.475-17.813,9.041-27.552,11.576c-5.14,1.34-10.345,2.313-15.641,2.842
	c-2.563,0.262-4.499-0.49-6.006-2.654c-2.539-3.654-5.224-7.215-7.842-10.813c-0.146-0.201-0.283-0.41-0.475-0.688
	c0.459-0.137,0.856-0.268,1.26-0.375c8.907-2.404,17.503-5.645,25.526-10.238c3.26-1.863,6.334-4.07,9.444-6.195
	c1.495-1.021,2.379-2.459,2.29-4.363c-0.095-1.887-0.985-3.295-2.646-4.125c-1.661-0.838-3.395-0.785-4.886,0.346
	c-2.907,2.199-5.934,4.217-9.128,5.98c-6.938,3.822-14.264,6.678-21.866,8.85c-6.303,1.805-12.718,3.027-19.224,3.836
	c-7.177,0.895-14.376,1.199-21.593,1.002c-12.398-0.338-24.566-2.154-36.39-5.965c-8.427-2.727-16.482-6.264-23.842-11.26
	c-1.11-0.748-2.154-1.596-3.246-2.375c-2.073-1.488-4.927-1.168-6.518,0.707c-1.639,1.941-1.668,4.832,0.254,6.518
	c1.972,1.729,4.132,3.264,6.346,4.676c9.283,5.918,19.415,9.889,30.008,12.75C99.225,204.785,99.458,204.863,99.766,204.963z
	 M121.891,146.371c-0.141-5.816-1.928-10.792-5.952-14.893c-5.637-5.733-14.707-6.238-20.875-1.104
	c-4.012,3.34-6.273,7.667-6.938,12.808c-0.878,6.784,0.849,12.778,5.668,17.753c5.621,5.811,14.719,6.297,20.916,1.117
	C119.636,157.934,121.709,152.496,121.891,146.371z M185.104,146.375c-0.143-5.827-1.935-10.824-5.994-14.932
	c-5.627-5.698-14.678-6.191-20.816-1.087c-4.019,3.343-6.286,7.664-6.955,12.803c-0.891,6.815,0.854,12.833,5.698,17.819
	c5.608,5.764,14.707,6.238,20.862,1.09C182.829,157.949,184.913,152.52,185.104,146.375z"/>
</svg>
