<?xml version="1.0" encoding="utf-8"?>
<!-- Generator: Adobe Illustrator 16.0.0, SVG Export Plug-In . SVG Version: 6.00 Build 0)  -->
<!DOCTYPE svg PUBLIC "-//W3C//DTD SVG 1.1//EN" "http://www.w3.org/Graphics/SVG/1.1/DTD/svg11.dtd">
<svg version="1.1" id="Layer_1" xmlns="http://www.w3.org/2000/svg" xmlns:xlink="http://www.w3.org/1999/xlink" x="0px" y="0px"
	 width="273px" height="273px" viewBox="0 0 273 273" enable-background="new 0 0 273 273" xml:space="preserve">
<path fill-rule="evenodd" clip-rule="evenodd" fill="#FFFFFF" d="M152.527,135.759c0,36.591,0,72.372,0,108.576
	c-14.971,0-29.673,0-45.075,0c0-35.957,0-71.965,0-108.436c-7.445,0-14.209,0-21.405,0c0-12.995,0-25.528,0-38.649
	c6.819,0,13.718,0,21.268,0c0-7.671-0.181-14.783,0.058-21.882c0.185-5.468,0.308-11.049,1.48-16.354
	c3.928-17.764,16.063-29.704,34.287-31.485c14.137-1.382,28.518-0.275,43.073-0.275c0,12.01,0,24.083,0,36.763
	c-7.351,0-14.618-0.018-21.888,0.004c-8.64,0.025-11.744,3.085-11.803,11.698c-0.048,6.951-0.01,13.903-0.01,21.35
	c11.555,0,22.632,0,34.439,0c-0.982,10.096-1.785,19.646-2.871,29.166c-1.09,9.539-1.213,9.524-11.076,9.524
	C166.375,135.759,159.744,135.759,152.527,135.759z"/>
</svg>
