<?xml version="1.0" encoding="utf-8"?>
<!-- Generator: Adobe Illustrator 16.0.0, SVG Export Plug-In . SVG Version: 6.00 Build 0)  -->
<!DOCTYPE svg PUBLIC "-//W3C//DTD SVG 1.1//EN" "http://www.w3.org/Graphics/SVG/1.1/DTD/svg11.dtd">
<svg version="1.1" id="Layer_1" xmlns="http://www.w3.org/2000/svg" xmlns:xlink="http://www.w3.org/1999/xlink" x="0px" y="0px"
	 width="595.275px" height="595.28px" viewBox="0 0 595.275 595.28" enable-background="new 0 0 595.275 595.28"
	 xml:space="preserve">
<path fill-rule="evenodd" clip-rule="evenodd" fill="#FFFFFF" d="M381.1,404.37c0.256-29.868,9.763-57.153,23.853-82.987
	c11.94-21.895,24.862-43.257,36.604-65.253c5.109-9.571,9.463-19.859,12.117-30.339c2.554-10.085-3.122-19.594-11.161-23.325
	c-7.603-3.53-17.822-1.408-24.213,7.095c-7.748,10.305-15.209,21.142-20.759,32.725c-19.746,41.209-38.5,82.895-57.9,124.273
	c-8.45,18.024-18.876,34.874-33.238,48.917c-10.352,10.124-22.834,12.932-36.569,8.95c-12.815-3.714-20.252-13.62-17.615-26.597
	c2.993-14.724,7.854-29.178,13.077-43.316c10.656-28.85,22.573-57.241,32.931-86.192c3.125-8.736,3.6-18.673,3.878-28.103
	c0.303-10.159-5.604-17.267-14.351-19.891c-10.115-3.037-18.597-0.692-24.223,8.542c-4.917,8.071-8.652,16.945-12.207,25.748
	c-16.277,40.306-32.792,80.527-48.175,121.175c-5.759,15.217-8.586,31.537-12.941,47.304c-1.427,5.163-3.187,10.274-5.258,15.216
	c-6.714,16.016-18.113,25.911-35.765,29.076c-18.917,3.393-37.428,4.357-55.462-3.392c-21.309-9.155-32.863-25.06-33.95-48.653
	c-0.845-18.307,1.335-36.145,6.294-53.661c8.512-30.07,16.143-60.46,26.268-89.987c12.503-36.463,26.659-72.395,41.228-108.096
	c4.344-10.645,11.627-20.441,19.028-29.417c19.104-23.173,43.837-30.504,72.371-21.307c13.15,4.24,25.809,10.436,38.063,16.927
	c21.669,11.478,34.872,10.377,53.203-6.061c3.645-3.269,7.125-6.724,10.82-9.932c18.41-15.995,38.219-17.089,58.33-3.137
	c5.223,3.623,10.209,7.593,15.257,11.464c8.246,6.325,16.769,7.408,26.808,3.724c21.607-7.93,43.899-9.819,66.274-3.441
	c21.715,6.188,33.219,21.284,34.609,43.866c1.514,24.58-5.092,47.633-14.536,69.731c-13.437,31.444-28.407,62.231-42.238,93.512
	c-9.202,20.813-17.196,42.149-18.955,65.135c-0.479,6.253-0.181,12.797,1.141,18.908c3.004,13.886,12.851,20.752,26.303,23.056
	c9.148,1.568,18.627,2.004,27.396,4.739c7.446,2.325,15.111,6.078,20.878,11.219c11.028,9.834,10.287,22.815-2.121,30.942
	c-8.123,5.32-17.927,9.745-27.44,10.969c-30.268,3.892-58.395-4.135-83.598-20.836C390.655,457.426,380.833,433.189,381.1,404.37z"
	/>
</svg>
