<?xml version="1.0" encoding="utf-8"?>
<!-- Generator: Adobe Illustrator 16.0.0, SVG Export Plug-In . SVG Version: 6.00 Build 0)  -->
<!DOCTYPE svg PUBLIC "-//W3C//DTD SVG 1.1//EN" "http://www.w3.org/Graphics/SVG/1.1/DTD/svg11.dtd">
<svg version="1.1" id="Layer_1" xmlns="http://www.w3.org/2000/svg" xmlns:xlink="http://www.w3.org/1999/xlink" x="0px" y="0px"
	 width="595.276px" height="595.28px" viewBox="0 0 595.276 595.28" enable-background="new 0 0 595.276 595.28"
	 xml:space="preserve">
<path fill-rule="evenodd" clip-rule="evenodd" fill="#FFFFFF" d="M204.454,408.689c-25.357-1.208-46.547-9.647-64.418-25.948
	c-13.053-11.907-23.697-28.784-26.477-40.958c6.944,0,14.042,0.317,21.097-0.09c6.971-0.402,13.899-1.536,20.895-2.866
	c-26.891-7.106-48.07-21.766-62.733-45.334c-9.8-15.752-14.664-32.962-14.487-52.45c13.744,6.582,27.528,11.318,43.966,11.702
	c-21.574-15.675-35.314-35.23-40.78-59.998c-5.46-24.741-1.966-48.328,10.75-70.963c53.3,62.652,120.545,97.068,202.774,102.807
	c-0.619-5.831-1.491-11.164-1.706-16.525c-1.593-39.778,14.768-70.216,48.514-91.032c35.933-22.166,86.146-16.525,116.406,12.832
	c3.653,3.544,6.7,4.592,11.812,3.294c17.819-4.525,34.861-10.833,50.922-19.787c1.215-0.677,2.479-1.267,4.717-2.404
	c-7.611,22.989-21.489,39.896-40.65,52.82c0.158,0.41,0.317,0.818,0.476,1.228c8.862-1.873,17.836-3.34,26.556-5.734
	c8.685-2.385,17.113-5.698,26.75-8.977c-4.193,5.572-7.356,10.928-11.607,15.199c-10.889,10.943-22.156,21.52-33.525,31.968
	c-2.524,2.319-3.648,4.314-3.659,7.847c-0.328,101.224-40.301,182.618-122.928,241.755c-34.907,24.983-74.71,38.524-117.276,44.024
	c-39.906,5.157-79.167,2.438-117.937-8.443c-21.202-5.95-53.048-20.067-72.271-33.063c26.721,2.451,51.815,0.582,76.445-6.32
	C160.731,436.365,183.148,425.075,204.454,408.689z"/>
</svg>
