<?xml version="1.0" standalone="no"?>
<!DOCTYPE svg PUBLIC "-//W3C//DTD SVG 1.1//EN" "http://www.w3.org/Graphics/SVG/1.1/DTD/svg11.dtd" >
<svg xmlns="http://www.w3.org/2000/svg" xmlns:xlink="http://www.w3.org/1999/xlink" version="1.1">
<metadata>
Created by FontForge 20170731 at Wed Dec 13 19:43:00 2017
 By Aleksey,,,
Copyright (c) 2013, Natanael Gama (www.ndiscovered.com . info(at)ndiscovered.com), with Reserved Font Name Exo. This Font Software is licensed under the SIL Open Font License, Version 1.1.
</metadata>
<defs>
<font id="Exo2-Light" horiz-adv-x="666" >
  <font-face 
    font-family="Exo 2 Light"
    font-weight="300"
    font-stretch="normal"
    units-per-em="1000"
    panose-1="0 0 4 0 0 0 0 0 0 0"
    ascent="800"
    descent="-200"
    x-height="484"
    cap-height="690"
    bbox="-457.209 -269 1204 1032"
    underline-thickness="50"
    underline-position="-200"
    unicode-range="U+0020-FB02"
  />
<missing-glyph horiz-adv-x="635" 
d="M533 690v-690h-430v690h430zM492 41v608h-348v-608h348z" />
    <glyph glyph-name="fi" unicode="fi" horiz-adv-x="586" 
d="M498 484v-484h-63v433h-253v-433h-64v433h-87v46l87 5v86q0 73 31.5 109.5t104.5 36.5q62 0 108 -6v-47h-86q-52 0 -73 -22t-21 -77v-80h316zM481 688q21 0 21 -21v-58q0 -21 -21 -21h-30q-21 0 -21 21v58q0 21 21 21h30z" />
    <glyph glyph-name="fl" unicode="fl" horiz-adv-x="649" 
d="M633 43l7 -41q-28 -10 -80 -10t-82.5 29t-30.5 81v561h-171q-53 1 -74 -21.5t-21 -77.5v-80h154v-51h-154v-433h-63v433h-88v46l88 5v86q0 73 31.5 109.5t104.5 36.5q187 0 257 -10v-592q0 -71 70 -71h52z" />
    <glyph glyph-name="f_f" unicode="ff" horiz-adv-x="692" 
d="M597 663q-52 0 -73 -20.5t-21 -71.5v-87h163v-50h-163v-434h-64v434h-257v-434h-64v434h-87v45l87 5v77q0 140 136 140q70 0 121 -6l-4 -47h-95q-52 0 -73 -20t-21 -73v-71h257v93q0 69 31.5 104t104.5 35q75 0 130 -6l-4 -47h-104z" />
    <glyph glyph-name="f_f_i" unicode="ffi" horiz-adv-x="901" 
d="M814 484v-484h-63v433h-253v-433h-64v433l-257 1v-434h-63v434h-83v45l83 5v77q0 140 135 140q70 0 121 -6l-4 -47h-95q-52 0 -73 -20t-21 -73v-71h257v86q0 73 31.5 109.5t104.5 36.5q67 0 119 -6v-47h-97q-52 0 -73 -22t-21 -77v-80h316zM797 688q21 0 21 -21v-58
q0 -21 -21 -21h-29q-21 0 -21 21v58q0 21 21 21h29z" />
    <glyph glyph-name="f_f_l" unicode="ffl" horiz-adv-x="971" 
d="M954 43l7 -41q-28 -10 -80 -10t-82.5 29t-30.5 81v561h-171q-52 1 -73 -21t-21 -78v-80h158v-50h-158v-434h-64v434h-257v-434h-64v434h-87v45l87 5v77q0 140 136 140q70 0 121 -6l-4 -47h-95q-52 0 -73 -20t-21 -73v-71h257v86q0 73 31.5 109.5t104.5 36.5
q187 0 257 -10v-592q0 -71 71 -71h51z" />
    <glyph glyph-name=".notdef" horiz-adv-x="635" 
d="M533 690v-690h-430v690h430zM492 41v608h-348v-608h348z" />
    <glyph glyph-name=".null" horiz-adv-x="0" 
 />
    <glyph glyph-name="nonmarkingreturn" horiz-adv-x="333" 
 />
    <glyph glyph-name="space" unicode=" " horiz-adv-x="226" 
 />
    <glyph glyph-name="exclam" unicode="!" horiz-adv-x="266" 
d="M165 695v-318l-6 -169h-51l-7 169v318h64zM142 107q25 0 25 -25v-57q0 -25 -25 -25h-17q-25 0 -25 25v57q0 25 25 25h17z" />
    <glyph glyph-name="quotedbl" unicode="&#x22;" horiz-adv-x="344" 
d="M130 690l-4 -212h-45l-4 212h53zM268 690l-5 -212h-44l-4 212h53z" />
    <glyph glyph-name="numbersign" unicode="#" horiz-adv-x="678" 
d="M620 456h-110l-34 -195h110l-8 -43h-109l-38 -218h-52l38 218h-199l-38 -218h-52l38 218h-116l8 43h115l34 195h-115l8 43h115l33 191h52l-33 -191h199l33 191h52l-33 -191h110zM424 261l34 195h-199l-34 -195h199z" />
    <glyph glyph-name="dollar" unicode="$" horiz-adv-x="562" 
d="M367 363q76 -15 107.5 -59.5t31.5 -129.5q0 -60 -12.5 -97t-42.5 -56t-68 -25.5t-100 -6.5h-6l-8 -119h-37l8 119q-80 2 -168 15l5 51q81 -4 167 -6l19 272l-66 14q-73 15 -104.5 59.5t-31.5 127.5q0 60 12.5 96.5t42.5 54.5t66 23.5t98 4.5h12l7 100h36l-6 -101
q74 -2 149 -15l-5 -48q-125 6 -148 6l-17 -268zM127 520q0 -62 22 -89.5t74 -37.5l48 -10l17 260h-6q-39 0 -59 -1.5t-42 -7.5t-31.5 -19t-16 -36t-6.5 -59zM285 49q91 1 123 24.5t32 101.5q0 65 -21.5 92t-75.5 37l-43 9l-19 -264h4z" />
    <glyph glyph-name="percent" unicode="%" horiz-adv-x="890" 
d="M209 702q87 0 122 -47t35 -157t-35 -157t-122 -47t-122 47t-35 157t35 157t122 47zM697 690l-459 -690h-48l459 690h48zM208 661q-59 0 -82.5 -37t-23.5 -126q0 -90 23.5 -126.5t82.5 -36.5q61 0 84 36.5t23 126.5q0 89 -23.5 126t-83.5 37zM681 401q86 0 121.5 -47.5
t35.5 -157.5t-35 -157t-122 -47t-122 47t-35 157t35.5 157.5t121.5 47.5zM680 359q-59 0 -82.5 -37t-22.5 -126q-1 -89 22.5 -126t82.5 -37q60 0 83.5 36.5t23.5 126.5t-23.5 126.5t-83.5 36.5z" />
    <glyph glyph-name="ampersand" unicode="&#x26;" horiz-adv-x="776" 
d="M718 48l7 -46q-48 -10 -98 -10q-106 0 -117 91q-46 -50 -101 -71t-137 -21q-110 0 -155 40t-45 143q0 84 31 130t105 52v4q-63 5 -89.5 44.5t-26.5 116.5q0 59 14 95t49 54t78 23.5t118 5.5q90 0 159 -9l-8 -49q-36 3 -153 3q-113 0 -152 -24t-39 -107q0 -77 32 -103.5
t117 -26.5h203l7 138h52v-138h131l-1 -51h-130v-213q0 -37 17 -54t53 -17h79zM285 48q142 0 224 92v192h-205q-92 0 -128 -31.5t-36 -116.5q0 -78 31.5 -107t113.5 -29z" />
    <glyph glyph-name="quotesingle" unicode="'" horiz-adv-x="206" 
d="M130 690l-4 -212h-45l-4 212h53z" />
    <glyph glyph-name="parenleft" unicode="(" horiz-adv-x="358" 
d="M313 790l8 -33q-103 -51 -151 -160t-48 -284q0 -172 48 -281.5t151 -163.5l-8 -33q-131 55 -192.5 170.5t-61.5 306.5q0 192 61.5 308t192.5 170z" />
    <glyph glyph-name="parenright" unicode=")" horiz-adv-x="358" 
d="M45 790q131 -54 192.5 -170t61.5 -308q0 -191 -61.5 -306.5t-192.5 -170.5l-8 33q103 54 151 163.5t48 281.5q0 175 -48 284t-151 160z" />
    <glyph glyph-name="asterisk" unicode="*" horiz-adv-x="451" 
d="M247 690l-7 -157l98 -129l-33 -25l-80 125l-79 -124l-34 25l98 128l-5 157h42zM74 598l120 -45l-1 -18l-8 -12l-125 36zM378 597l13 -40l-125 -34l-9 12v18z" />
    <glyph glyph-name="plus" unicode="+" horiz-adv-x="552" 
d="M491 323v-49h-191v-181h-49v181h-191v49h190v180h51v-180h190z" />
    <glyph glyph-name="comma" unicode="," horiz-adv-x="221" 
d="M121 107q24 0 24 -25v-64q-2 -80 -29 -144l-30 9q8 64 8 117q-20 0 -18 21v61q1 25 25 25h20z" />
    <glyph glyph-name="hyphen" unicode="-" horiz-adv-x="461" 
d="M384 277v-50h-307v50h307z" />
    <glyph glyph-name="period" unicode="." horiz-adv-x="221" 
d="M121 107q25 0 25 -25v-57q0 -25 -25 -25h-22q-24 0 -24 25v57q0 25 24 25h22z" />
    <glyph glyph-name="slash" unicode="/" horiz-adv-x="509" 
d="M478 690l-393 -753h-54l393 753h54z" />
    <glyph glyph-name="zero" unicode="0" horiz-adv-x="596" 
d="M298 702q126 0 178 -83.5t52 -273.5t-52 -273.5t-178 -83.5t-177.5 83.5t-51.5 273.5t51.5 273.5t177.5 83.5zM298 645q-92 0 -128.5 -69t-36.5 -231t36.5 -231t128.5 -69t128.5 69t36.5 231t-36.5 231t-128.5 69z" />
    <glyph glyph-name="one" unicode="1" horiz-adv-x="391" 
d="M274 690v-690h-66v572q0 31 4 55l-175 -56l-9 47l180 72h66z" />
    <glyph glyph-name="two" unicode="2" horiz-adv-x="560" 
d="M269 702q107 0 157.5 -29.5t50.5 -115.5q0 -65 -29 -122t-100 -137l-210 -238q37 2 115 2h251v-62h-446v40q0 19 10 30l214 244q69 77 99 133.5t29 109.5q-2 54 -36 70.5t-108 16.5q-95 0 -197 -19l-6 51q112 26 206 26z" />
    <glyph glyph-name="three" unicode="3" horiz-adv-x="555" 
d="M254 702q116 0 163.5 -35t47.5 -124q0 -153 -105 -174v-4q66 -11 93.5 -54.5t29.5 -118.5q2 -106 -47 -155t-167 -49q-86 0 -214 17l6 52q117 -11 194 -11q88 0 125.5 34.5t37.5 117.5q0 67 -31 103t-118 37h-128v51l128 1q43 1 71.5 13t41 34t16.5 43t4 50
q-1 69 -33.5 91.5t-121.5 22.5q-91 0 -174 -9l-7 50q104 17 188 17z" />
    <glyph glyph-name="four" unicode="4" horiz-adv-x="608" 
d="M560 233v-47l-86 -6v-180h-63v179h-301q-38 0 -57 30.5t-2 65.5l206 415h65l-204 -414q-9 -19 -1 -31t27 -12h267v211l13 115h50v-326h86z" />
    <glyph glyph-name="five" unicode="5" horiz-adv-x="533" 
d="M452 690l-3 -56h-297l-11 -215l68 -4q146 -8 205 -51.5t58 -158.5q0 -36 -4.5 -64.5t-18 -58.5t-37 -49.5t-63.5 -32t-95 -12.5q-87 0 -197 26l8 52q103 -20 175 -20q100 0 133.5 38.5t34.5 120.5q0 31 -4.5 53.5t-12.5 39t-26 27.5t-35 17.5t-50 10.5t-60.5 5.5
t-76.5 3.5l-34 3q-12 0 -19.5 8.5t-6.5 21.5l15 295h354z" />
    <glyph glyph-name="six" unicode="6" horiz-adv-x="569" 
d="M321 447q108 0 148.5 -50.5t40.5 -179.5q0 -58 -8 -96t-29.5 -70t-65 -47.5t-110.5 -15.5q-72 0 -115.5 15.5t-68 57t-33 100t-8.5 157.5q0 124 14 200.5t49 117t79.5 53.5t119.5 13q79 0 132 -14l-8 -48q-42 6 -124 6q-75 0 -113.5 -20t-59.5 -80.5t-23 -180.5
q38 46 79 64t104 18zM298 44q92 0 120.5 40.5t28.5 133.5q0 97 -29.5 136t-111.5 39q-49 0 -86.5 -16t-82.5 -60v-2q0 -67 2.5 -106.5t11.5 -75.5t27 -53t47 -26.5t73 -9.5z" />
    <glyph glyph-name="seven" unicode="7" horiz-adv-x="510" 
d="M428 690q57 0 40 -54l-219 -636h-66l203 588q2 6 18 46h-359l-3 56h386z" />
    <glyph glyph-name="eight" unicode="8" horiz-adv-x="609" 
d="M305 699q124 0 169 -41.5t45 -139.5q0 -147 -98 -158v-4q62 -7 87.5 -52t25.5 -132q0 -100 -47.5 -140.5t-181.5 -40.5q-133 0 -181.5 41t-48.5 140q0 87 25.5 132.5t87.5 51.5v4q-98 11 -98 158q0 98 45.5 139.5t169.5 41.5zM305 645q-92 0 -123.5 -28t-31.5 -104
q0 -79 30.5 -103.5t125.5 -24.5q96 0 124 24t28 104q0 76 -30.5 104t-122.5 28zM306 331q-104 -1 -136.5 -28.5t-32.5 -118.5q0 -77 34.5 -106.5t133.5 -29.5t132.5 29t33.5 107q0 92 -32 119.5t-133 27.5z" />
    <glyph glyph-name="nine" unicode="9" horiz-adv-x="570" 
d="M274 702q60 0 99.5 -12t64 -33.5t37 -67t16.5 -97t4 -138.5q0 -94 -10 -158t-28 -105.5t-51.5 -64t-73 -30.5t-99.5 -8q-82 0 -140 14l8 48q56 -5 132 -5t115.5 21t60 82t22.5 179q-40 -47 -81.5 -65.5t-104.5 -18.5q-100 0 -143 58t-43 167q0 120 48 177t167 57z
M261 296q49 0 86.5 16.5t83.5 60.5q0 59 -1.5 93t-6.5 69.5t-15 53t-28 32.5t-43.5 20t-63.5 5q-88 0 -119.5 -43.5t-31.5 -135.5q0 -87 30.5 -129t108.5 -42z" />
    <glyph glyph-name="colon" unicode=":" horiz-adv-x="225" 
d="M121 437q25 0 25 -25v-57q0 -25 -25 -25h-22q-24 0 -24 25v57q0 25 24 25h22zM121 107q25 0 25 -25v-57q0 -25 -25 -25h-22q-24 0 -24 25v57q0 25 24 25h22z" />
    <glyph glyph-name="semicolon" unicode=";" horiz-adv-x="227" 
d="M124 437q25 0 25 -25v-57q0 -25 -25 -25h-22q-24 0 -24 25v57q0 25 24 25h22zM124 107q24 0 24 -25v-64q-2 -80 -29 -144l-30 9q8 64 8 117q-20 0 -18 21v61q1 25 25 25h20z" />
    <glyph glyph-name="less" unicode="&#x3c;" horiz-adv-x="534" 
d="M459 500v-52l-346 -151l346 -147v-52l-402 173v51z" />
    <glyph glyph-name="equal" unicode="=" horiz-adv-x="587" 
d="M509 422v-49h-431v49h431zM509 211v-49h-431v49h431z" />
    <glyph glyph-name="greater" unicode="&#x3e;" horiz-adv-x="534" 
d="M75 500l401 -178v-51l-401 -173v52l345 147l-345 151v52z" />
    <glyph glyph-name="question" unicode="?" horiz-adv-x="506" 
d="M257 712q200 0 200 -155q0 -41 -18.5 -76.5t-45.5 -62.5t-54 -54.5t-46 -67.5t-20 -88h-56q-1 52 16.5 95t43 71.5t51.5 54.5t44 56t19 63q1 56 -34 83t-111 27q-83 0 -198 -12l-5 46q8 1 35.5 6t37.5 6t34 3.5t49 3.5t58 1zM253 107q25 0 25 -25v-57q0 -25 -25 -25h-18
q-24 0 -24 25v57q0 25 24 25h18z" />
    <glyph glyph-name="at" unicode="@" horiz-adv-x="709" 
d="M489 578q70 0 106.5 -31.5t36.5 -101.5v-314h-47l-7 77q-33 -32 -92 -58t-118 -26q-60 0 -94.5 29.5t-34.5 84.5v52q0 48 30 74.5t85 26.5h219v52q0 42 -21 62t-74 20h-131q-38 0 -60.5 -1t-47 -5t-37 -10.5t-25.5 -21t-18 -31.5t-10 -46t-6 -62t-1 -82q0 -51 1 -85
t6.5 -64t11 -47.5t20.5 -32t29 -21t42.5 -11t54 -5t70.5 -0.5h252v-48q-125 -6 -251 -6q-71 -1 -114.5 2t-80 16.5t-54 32.5t-29.5 58.5t-15 86t-3 123.5q0 75 2.5 119.5t13.5 83.5t26.5 57.5t47.5 32t71 17t103 3.5h143zM573 352l-200 -4q-74 -3 -74 -65v-35q0 -72 79 -72
q47 -1 102.5 19.5t92.5 52.5v104z" />
    <glyph glyph-name="A" unicode="A" horiz-adv-x="615" 
d="M534 0l-76 228h-301l-76 -228h-68l231 671q6 19 26 19h75q20 0 26 -19l231 -671h-68zM176 285h263l-99 297q-2 5 -8.5 25t-9.5 31h-28q-15 -47 -19 -56z" />
    <glyph glyph-name="B" unicode="B" horiz-adv-x="617" 
d="M416 356q75 -7 106.5 -52.5t31.5 -131.5q0 -104 -48.5 -142t-169.5 -38q-157 0 -243 8v690q75 8 213 8q128 0 177.5 -37.5t49.5 -142.5q0 -75 -28 -113.5t-89 -44.5v-4zM469 511q0 78 -35.5 104.5t-129.5 26.5q-110 0 -147 -1v-258h163q85 1 117 27t32 101zM328 48
q91 0 125 27t34 106q0 87 -36 118t-131 33h-163v-283q42 -1 171 -1z" />
    <glyph glyph-name="C" unicode="C" horiz-adv-x="567" 
d="M331 702q109 0 184 -19l-8 -49q-76 9 -176 9q-110 0 -153 -65t-43 -233t43 -233t153 -65q114 0 190 11l8 -49q-78 -21 -198 -21q-146 0 -205 80t-59 277t59 277t205 80z" />
    <glyph glyph-name="D" unicode="D" horiz-adv-x="662" 
d="M332 699q146 0 204.5 -78.5t58.5 -275.5t-58.5 -275.5t-204.5 -78.5q-113 0 -239 9v690q124 9 239 9zM332 49q109 0 151.5 65t42.5 231t-42.5 231.5t-151.5 65.5q-70 0 -174 -2v-589q100 -2 174 -2z" />
    <glyph glyph-name="E" unicode="E" horiz-adv-x="557" 
d="M220 55h280l4 -50q-94 -6 -295 -6q-55 0 -88.5 31t-33.5 83v464q0 52 33.5 83t88.5 31q201 0 295 -6l-4 -50h-280q-67 0 -67 -73v-169h308v-53h-308v-213q0 -72 67 -72z" />
    <glyph glyph-name="F" unicode="F" horiz-adv-x="536" 
d="M228 635q-72 0 -72 -73v-177h300v-53l-300 -1v-331h-66v574q0 54 33.5 85.5t88.5 31.5q195 0 287 -6l-4 -50h-267z" />
    <glyph glyph-name="G" unicode="G" horiz-adv-x="626" 
d="M489 399h64v-399h-47l-9 77q-89 -89 -209 -89q-118 0 -169.5 85t-51.5 273q0 201 61 278.5t216 77.5q114 0 194 -19l-8 -49q-90 10 -182 10q-82 0 -126 -25t-65 -89.5t-21 -186.5q0 -162 38 -230t131 -68q37 0 73 13t57.5 27t53.5 39v275z" />
    <glyph glyph-name="H" unicode="H" horiz-adv-x="664" 
d="M506 690h65v-690h-65v341h-348v-341h-65v690h65v-293h348v293z" />
    <glyph glyph-name="I" unicode="I" horiz-adv-x="251" 
d="M158 690v-690h-65v690h65z" />
    <glyph glyph-name="J" unicode="J" horiz-adv-x="334" 
d="M245 690v-556q0 -142 -130 -142q-40 0 -82 10l7 46h53q86 0 86 84v558h66z" />
    <glyph glyph-name="K" unicode="K" horiz-adv-x="581" 
d="M483 0l-235 333h-96q6 -41 6 -78v-255h-65v690h65v-223q0 -41 -6 -80h97l220 303h73l-212 -293q-11 -17 -32 -36v-3q21 -19 35 -39l224 -319h-74z" />
    <glyph glyph-name="L" unicode="L" horiz-adv-x="511" 
d="M156 690v-562q0 -73 72 -73h257l2 -50q-106 -6 -270 -6q-63 0 -95 33t-32 87v571h66z" />
    <glyph glyph-name="M" unicode="M" horiz-adv-x="869" 
d="M732 690q29 0 29 -29l29 -661h-65l-27 635h-22l-179 -541q-7 -22 -30 -22h-66q-23 0 -30 22l-180 541h-21l-26 -635h-65l28 661q0 29 29 29h79q21 0 29 -23l151 -450q16 -50 28 -94h22q6 22 29 95l151 449q6 23 29 23h78z" />
    <glyph glyph-name="N" unicode="N" horiz-adv-x="699" 
d="M606 690v-662q0 -28 -27 -28h-70q-22 0 -32 22l-263 524q-37 77 -39 83h-19q2 -27 2 -83v-546h-65v662q0 28 27 28h68q22 0 32 -22l257 -512l46 -93h21q-3 49 -3 99v528h65z" />
    <glyph glyph-name="O" unicode="O" 
d="M333 702q148 0 207 -78.5t59 -278.5t-59 -278.5t-207 -78.5t-207 78.5t-59 278.5t59 278.5t207 78.5zM333 644q-111 0 -154.5 -65.5t-43.5 -233.5t43.5 -233.5t154.5 -65.5t154 65.5t43 233.5t-43 233.5t-154 65.5z" />
    <glyph glyph-name="P" unicode="P" horiz-adv-x="587" 
d="M324 698q121 0 167.5 -44.5t46.5 -166.5t-45.5 -166.5t-161.5 -44.5q-87 0 -173 8v-284h-65v690q83 8 231 8zM323 333q84 1 116 32.5t32 121.5q0 91 -32 123t-116 32q-125 0 -165 -1v-308h165z" />
    <glyph glyph-name="Q" unicode="Q" horiz-adv-x="667" 
d="M333 702q148 0 207.5 -78.5t59.5 -278.5t-59.5 -278.5t-207.5 -78.5t-207 78.5t-59 278.5t59 278.5t207 78.5zM333 644q-111 0 -154 -65.5t-43 -233.5t43 -233.5t154 -65.5t154.5 65.5t43.5 233.5t-43.5 233.5t-154.5 65.5zM295 -46q107 -54 251 -75l-21 -66
q-135 25 -250 102z" />
    <glyph glyph-name="R" unicode="R" horiz-adv-x="614" 
d="M494 219l70 -219h-70l-66 217q-28 79 -99 79q-91 0 -171 2v-298h-65v690q83 8 231 8q119 0 167 -41.5t48 -155.5q0 -87 -29.5 -128.5t-97.5 -51.5v-4q27 -8 49 -33.5t33 -64.5zM324 353q84 1 116.5 31.5t32.5 113.5q0 84 -32.5 114t-116.5 30q-86 0 -166 -2v-287h166z
" />
    <glyph glyph-name="S" unicode="S" horiz-adv-x="559" 
d="M277 701q111 0 199 -16l-5 -48q-118 6 -191 6q-49 0 -72 -2.5t-45.5 -14.5t-30 -37t-7.5 -69q0 -62 21.5 -89.5t73.5 -37.5l144 -30q77 -15 108.5 -59.5t31.5 -129.5q0 -60 -13 -97t-43 -56t-68 -25.5t-100 -6.5q-114 0 -210 15l4 49q124 -6 208 -6q91 1 123 25t32 103
q0 65 -21.5 92t-74.5 37l-147 31q-73 15 -104 59.5t-31 127.5q0 60 12 96.5t42 54.5t66 23.5t98 4.5z" />
    <glyph glyph-name="T" unicode="T" horiz-adv-x="575" 
d="M550 690v-58h-230v-632h-66v632h-229v58h525z" />
    <glyph glyph-name="U" unicode="U" horiz-adv-x="667" 
d="M579 690v-429q0 -149 -55 -211t-188 -62q-136 0 -192 62t-56 211v429h65v-429q0 -119 40.5 -167t140.5 -48q99 0 139 48t40 167v429h66z" />
    <glyph glyph-name="V" unicode="V" horiz-adv-x="603" 
d="M583 690l-219 -671q-7 -19 -26 -19h-73q-21 0 -26 19l-219 671h68l178 -563q8 -25 22 -75h27q14 50 22 75l178 563h68z" />
    <glyph glyph-name="W" unicode="W" horiz-adv-x="941" 
d="M910 690l-156 -670q-5 -20 -27 -20h-79q-23 0 -28 21l-121 541q-13 57 -17 77h-22l-18 -77l-121 -541q-5 -21 -27 -21h-80q-22 0 -27 20l-155 670h69l126 -559q8 -33 16 -80h25q8 43 16 79l122 537q5 23 27 23h75q22 0 27 -23l122 -537q5 -21 16 -79h26q2 9 4.5 25t5 29
t5.5 24l127 561h69z" />
    <glyph glyph-name="X" unicode="X" horiz-adv-x="605" 
d="M502 0l-186 334h-27l-187 -334h-72l203 358l-190 332h71l173 -305h31l172 305h72l-190 -332l203 -358h-73z" />
    <glyph glyph-name="Y" unicode="Y" horiz-adv-x="559" 
d="M543 690l-231 -442v-248h-65v248l-232 442h70l158 -306q13 -26 33 -74h7q13 31 33 73l158 307h69z" />
    <glyph glyph-name="Z" unicode="Z" horiz-adv-x="563" 
d="M123 56h392v-56h-465v56l386 578h-382v56h455v-56z" />
    <glyph glyph-name="bracketleft" unicode="[" horiz-adv-x="323" 
d="M278 768v-44h-107q-14 0 -14 -14v-817q0 -14 14 -14h107v-44h-136q-20 0 -32.5 12t-12.5 34v841q0 20 12.5 33t32.5 13h136z" />
    <glyph glyph-name="backslash" unicode="\" horiz-adv-x="510" 
d="M86 690l393 -753h-55l-393 753h55z" />
    <glyph glyph-name="bracketright" unicode="]" horiz-adv-x="323" 
d="M180 768q20 0 33 -13t13 -33v-841q0 -20 -13 -33t-33 -13h-136v44h108q14 0 14 14v817q0 14 -14 14h-108v44h136z" />
    <glyph glyph-name="asciicircum" unicode="^" horiz-adv-x="414" 
d="M230 591l154 -205l-26 -19l-147 177h-8l-146 -177l-27 19l154 205h46z" />
    <glyph glyph-name="underscore" unicode="_" horiz-adv-x="435" 
d="M435 0v-50h-435v50h435z" />
    <glyph glyph-name="grave" unicode="`" horiz-adv-x="301" 
d="M79 718l164 -146l-24 -30l-178 128z" />
    <glyph glyph-name="a" unicode="a" horiz-adv-x="545" 
d="M310 497q78 0 116.5 -34.5t38.5 -114.5v-348h-50l-8 85q-36 -36 -93 -64.5t-119 -28.5q-64 0 -101 34t-37 97v56q0 56 33 87t94 31h217v51q0 48 -22.5 71t-80.5 23q-86 0 -215 -14l-6 47q145 22 233 22zM206 48q43 -1 97.5 21.5t97.5 59.5v119l-207 -2q-73 -3 -73 -75
v-42q0 -81 85 -81z" />
    <glyph glyph-name="b" unicode="b" horiz-adv-x="566" 
d="M330 497q93 0 134.5 -59t41.5 -195q0 -133 -46.5 -194t-161.5 -61q-111 0 -216 33v679h63v-194q0 -70 -7 -104q97 95 192 95zM297 43q78 0 110.5 45t32.5 155q0 111 -27.5 154.5t-100.5 43.5q-39 0 -74.5 -19t-92.5 -63v-297q74 -21 152 -19z" />
    <glyph glyph-name="c" unicode="c" horiz-adv-x="485" 
d="M287 497q89 0 149 -22l-10 -41q-53 8 -129 8q-96 0 -133.5 -42.5t-37.5 -157.5t37.5 -157t133.5 -42q84 0 141 11l7 -44q-74 -22 -158 -22q-125 0 -176 57t-51 197t51 197.5t176 57.5z" />
    <glyph glyph-name="d" unicode="d" horiz-adv-x="569" 
d="M421 700h63v-700h-49l-6 74q-101 -86 -195 -86q-92 0 -132.5 61t-40.5 194q0 138 43 196t138 58q89 0 183 -47q-4 33 -4 95v155zM127 244q0 -113 28 -156.5t97 -43.5q41 0 76.5 17t92.5 59v286q-103 35 -166 35q-71 0 -99.5 -42.5t-28.5 -154.5z" />
    <glyph glyph-name="e" unicode="e" horiz-adv-x="534" 
d="M294 43q75 0 167 12l7 -43q-61 -24 -183 -24t-173.5 58.5t-51.5 197.5q0 140 50 196.5t167 56.5q103 0 152 -37.5t50 -113.5q2 -135 -111 -135h-241q5 -96 43 -132t124 -36zM280 442q-84 0 -118 -39.5t-36 -141.5h227q64 0 62 84q-1 51 -33 74t-102 23z" />
    <glyph glyph-name="f" unicode="f" horiz-adv-x="371" 
d="M276 663q-52 0 -73 -21t-21 -71v-87h163v-50h-163v-434h-64v434h-87v45l87 5v93q0 69 31.5 104t104.5 35q74 0 130 -6l-4 -47h-104z" />
    <glyph glyph-name="g" unicode="g" horiz-adv-x="553" 
d="M529 484l-4 -36l-81 -5q28 -35 28 -100q0 -79 -46 -115t-156 -36q-70 0 -110 13q-15 -19 -18 -39.5t10.5 -38t44.5 -22.5l186 -31q66 -10 91.5 -41t25.5 -92q0 -82 -49.5 -114t-175.5 -32q-128 0 -178 31.5t-50 112.5q0 48 18 76.5t64 51.5q-43 27 -41.5 75.5t39.5 76.5
q-60 33 -60 124q0 81 46 117.5t157 36.5q69 0 109 -13h150zM270 241q78 0 110 24t32 78q0 56 -32 80t-110 24q-79 0 -111.5 -24t-32.5 -80q0 -54 33 -78t111 -24zM438 -57q0 42 -16.5 58.5t-68.5 24.5l-181 28l-4 -3q-33 -23 -46 -46t-13 -62q0 -55 35 -74.5t131 -19.5
q94 0 128.5 20t34.5 74z" />
    <glyph glyph-name="h" unicode="h" horiz-adv-x="577" 
d="M365 497q64 0 97.5 -34t33.5 -99v-364h-64v347q0 51 -19.5 73t-64.5 22q-44 0 -89 -19.5t-112 -64.5v-358h-63v700h63l2 -201q0 -59 -7 -95q126 93 223 93z" />
    <glyph glyph-name="i" unicode="i" horiz-adv-x="238" 
d="M134 688q21 0 21 -21v-58q0 -21 -21 -21h-29q-21 0 -21 21v58q0 21 21 21h29zM151 484v-484h-63v484h63z" />
    <glyph glyph-name="j" unicode="j" horiz-adv-x="239" 
d="M135 688q21 0 21 -21v-58q0 -21 -21 -21h-30q-20 0 -20 21v58q0 21 20 21h30zM152 484v-508q0 -110 -84 -182l-35 28q55 70 55 154v508h64z" />
    <glyph glyph-name="k" unicode="k" horiz-adv-x="497" 
d="M399 0l-183 251h-73q4 -37 4 -81v-170h-63v700h63l2 -318q0 -42 -6 -83h72l167 185h75l-162 -181q-15 -19 -30 -28v-2q15 -11 30 -34l178 -239h-74z" />
    <glyph glyph-name="l" unicode="l" horiz-adv-x="287" 
d="M148 700v-580q0 -70 71 -70h51l7 -48q-27 -10 -80 -10q-52 0 -82 30.5t-30 85.5v592h63z" />
    <glyph glyph-name="m" unicode="m" horiz-adv-x="877" 
d="M669 497q62 0 95 -34t33 -99v-364h-63v347q-1 50 -21.5 72.5t-64.5 22.5q-40 0 -76.5 -18.5t-100.5 -66.5v-357h-61v347q0 50 -21 72.5t-65 22.5q-39 0 -76.5 -18.5t-100.5 -65.5v-358h-63v484h52l4 -81q105 94 204 94q103 0 123 -92q104 92 202 92z" />
    <glyph glyph-name="n" unicode="n" horiz-adv-x="577" 
d="M366 497q130 0 130 -133v-364h-63v347q0 51 -19.5 73t-64.5 22q-44 0 -88.5 -19.5t-113.5 -64.5l1 -358h-64v484h53l4 -80q121 93 225 93z" />
    <glyph glyph-name="o" unicode="o" horiz-adv-x="565" 
d="M283 497q122 0 172 -57.5t50 -197.5t-50 -197t-172 -57t-172.5 57.5t-50.5 196.5q0 140 50.5 197.5t172.5 57.5zM283 442q-88 0 -122 -43t-34 -157t34 -157t122 -43t122 43t34 157t-34 157t-122 43z" />
    <glyph glyph-name="p" unicode="p" horiz-adv-x="573" 
d="M342 497q90 0 130 -62t40 -195q0 -137 -42.5 -194.5t-137.5 -57.5q-96 0 -187 51q4 -41 2 -96v-147h-63v688h52l6 -80q93 93 200 93zM318 44q71 0 100 42.5t29 154.5q0 110 -28 155t-95 45q-41 0 -81.5 -19.5t-95.5 -64.5v-277q110 -36 171 -36z" />
    <glyph glyph-name="q" unicode="q" horiz-adv-x="566" 
d="M272 497q108 0 212 -34v-667h-63l-1 178q0 62 7 99q-104 -85 -201 -85q-86 0 -126 60.5t-40 192.5q0 135 47 195.5t165 60.5zM126 237q0 -104 26.5 -148.5t93.5 -44.5q43 0 81 17.5t94 57.5v303q-78 22 -148 20q-82 -1 -114.5 -44.5t-32.5 -160.5z" />
    <glyph glyph-name="r" unicode="r" horiz-adv-x="394" 
d="M354 497h21l-8 -60h-24q-42 0 -84.5 -17.5t-110.5 -56.5v-363h-64v484h49l7 -81q118 94 214 94z" />
    <glyph glyph-name="s" unicode="s" horiz-adv-x="505" 
d="M240 497q110 -2 198 -15l-6 -46q-120 6 -184 6q-80 1 -106 -11.5t-26 -65.5q0 -41 17 -57t57 -24l149 -28q58 -12 85 -41.5t27 -88.5q0 -85 -45.5 -111t-155.5 -26q-99 0 -185 13l5 47q79 -7 169 -6q89 1 119.5 16.5t30.5 66.5q0 39 -19 55t-60 24l-148 28
q-57 11 -82.5 41.5t-25.5 90.5q0 82 41.5 107.5t144.5 24.5z" />
    <glyph glyph-name="t" unicode="t" horiz-adv-x="369" 
d="M344 434h-164v-314q0 -70 71 -70h79l8 -48q-50 -10 -101 -10q-120 0 -120 121v321h-88v45l88 5v147h63v-147h164v-50z" />
    <glyph glyph-name="u" unicode="u" horiz-adv-x="567" 
d="M419 484h63v-484h-50l-5 76q-112 -88 -215 -88q-131 0 -131 132v364h63v-347q0 -50 21 -72t68 -22q41 0 82.5 18.5t103.5 60.5v362z" />
    <glyph glyph-name="v" unicode="v" horiz-adv-x="522" 
d="M499 484l-185 -468q-6 -16 -24 -16h-59q-18 0 -24 16l-185 468h68l132 -350q6 -15 16.5 -45t15.5 -42h13l33 88l132 349h67z" />
    <glyph glyph-name="w" unicode="w" horiz-adv-x="820" 
d="M792 484l-151 -465q-6 -19 -26 -19h-59q-21 0 -26 21l-96 347q-3 12 -9 37t-10 38h-11q-3 -12 -9.5 -37t-9.5 -38l-95 -347q-5 -21 -27 -21h-58q-21 0 -26 19l-151 465h66l114 -371q5 -17 19 -70h13q3 13 9.5 36.5t9.5 33.5l97 351q5 20 25 20h58q20 0 25 -21l97 -350
l18 -70h14q15 58 18 70l115 371h66z" />
    <glyph glyph-name="x" unicode="x" horiz-adv-x="520" 
d="M422 0l-151 227h-22l-151 -227h-70l169 251l-157 233h70l137 -206h26l137 206h70l-157 -233l170 -251h-71z" />
    <glyph glyph-name="y" unicode="y" horiz-adv-x="521" 
d="M430 484h68l-204 -518q-29 -74 -73 -119.5t-119 -53.5l-8 41q57 19 89 53t52 86l12 27h-16q-19 0 -25 17l-184 467h68l143 -378q16 -42 20 -56h14q2 6 6.5 18t8 21.5t6.5 17.5z" />
    <glyph glyph-name="z" unicode="z" horiz-adv-x="506" 
d="M123 53h333v-53h-406v53l330 379h-326v52h398v-52z" />
    <glyph glyph-name="braceleft" unicode="{" horiz-adv-x="312" 
d="M266 768v-41q-54 0 -74.5 -21.5t-20.5 -71.5v-189q1 -60 -16 -83t-68 -34q52 -17 70 -39t18 -74v-246q0 -50 20.5 -71.5t74.5 -21.5v-41q-82 -4 -119 28t-37 102v262q0 20 -2.5 31.5t-13.5 20.5t-18 12t-31 12v50q25 8 31.5 10.5t16.5 11.5t11.5 21.5t1.5 36.5v205
q0 70 37 102t119 28z" />
    <glyph glyph-name="bar" unicode="|" horiz-adv-x="242" 
d="M145 781v-950h-48v950h48z" />
    <glyph glyph-name="braceright" unicode="}" horiz-adv-x="312" 
d="M46 768q82 4 119 -28t37 -102v-205q0 -45 10 -56t51 -24v-50q-44 -17 -53 -28q-12 -14 -12 -48v-262q0 -70 -37 -102t-119 -28v41q54 0 74.5 21.5t20.5 71.5v246q0 52 18 74t70 39q-51 11 -68 34t-16 83v189q0 50 -20.5 71.5t-74.5 21.5v41z" />
    <glyph glyph-name="asciitilde" unicode="~" horiz-adv-x="528" 
d="M157 341q39 -2 106 -30.5t101 -31.5q28 -2 39 11t11 46h34q5 -53 -16 -80.5t-60 -24.5q-47 2 -113 30.5t-95 30.5q-27 3 -38 -11t-11 -48h-35q-4 54 17.5 82t59.5 26z" />
    <glyph glyph-name="uni00A0" unicode="&#xa0;" horiz-adv-x="226" 
 />
    <glyph glyph-name="exclamdown" unicode="&#xa1;" horiz-adv-x="248" 
d="M133 488q25 0 25 -24v-58q0 -24 -25 -24h-17q-25 0 -25 24v58q0 24 25 24h17zM150 280l6 -168v-311h-64v311l6 168h52z" />
    <glyph glyph-name="cent" unicode="&#xa2;" horiz-adv-x="506" 
d="M445 117q-74 -22 -159 -22h-2l-8 -95h-36l8 96q-103 8 -146 66.5t-43 187.5q0 139 51.5 196.5t175.5 57.5h2l8 86h37l-8 -87q67 -6 110 -20l-9 -44q-43 8 -106 10l-31 -399h8q82 0 141 11zM123 350q0 -102 29 -146t101 -52l31 397q-90 -2 -125.5 -45t-35.5 -154z" />
    <glyph glyph-name="sterling" unicode="&#xa3;" horiz-adv-x="566" 
d="M201 56h311v-56h-447v56q49 28 66.5 77t13.5 123l-5 86h-80l-1 42h79l-7 139q-3 57 8 93.5t38.5 54.5t59 24t80.5 6q75 0 171 -10l-4 -51q-70 5 -176 5q-67 0 -92 -27t-21 -95l7 -139h226l-2 -42h-222l5 -86q3 -74 -12.5 -122t-59.5 -80q21 2 64 2z" />
    <glyph glyph-name="currency" unicode="&#xa4;" horiz-adv-x="597" 
d="M491 352q0 -69 -43 -122l75 -74l-30 -29l-74 74q-53 -43 -121 -43q-67 0 -122 42l-73 -73l-31 31l73 73q-42 53 -42 121q0 70 44 122l-73 72l29 30l73 -73q53 43 122 43q70 0 122 -44l74 74l29 -30l-74 -72q42 -55 42 -122zM298 198q62 -1 107 44.5t45 109.5t-45 109
t-107 45q-64 0 -109 -45t-45 -109t45 -109.5t109 -44.5z" />
    <glyph glyph-name="yen" unicode="&#xa5;" horiz-adv-x="612" 
d="M570 690l-206 -373h160v-40h-182l-3 -6v-66h185v-40h-185v-165h-66v165h-180v40h180v66l-3 6h-177l-1 40h156l-206 373h69l156 -285q19 -39 36 -75h7q26 57 35 74l156 286h69z" />
    <glyph glyph-name="brokenbar" unicode="&#xa6;" horiz-adv-x="244" 
d="M146 781v-400h-48v400h48zM146 231v-400h-48v400h48z" />
    <glyph glyph-name="section" unicode="&#xa7;" horiz-adv-x="544" 
d="M257 702q123 -2 217 -12l-5 -49q-92 6 -198 7q-29 0 -46 -0.5t-36.5 -4t-30 -10.5t-17.5 -20.5t-7 -32.5q-1 -36 17 -59.5t53 -43.5l173 -97q66 -36 83.5 -89.5t3.5 -140.5h-48q6 68 -9 110t-59 67l-179 102q-55 32 -79 65t-24 87q0 73 46 97.5t145 23.5zM129 398
q-7 -69 7.5 -109t60.5 -66l179 -102q53 -30 77.5 -64.5t24.5 -88.5q0 -33 -9.5 -56.5t-24.5 -36.5t-41.5 -20t-51.5 -8.5t-63 -1.5q-122 2 -217 12l5 49q100 -6 199 -7q29 0 45 0.5t36 4t30 10.5t17.5 21t7.5 35q1 64 -70 103l-172 97q-67 36 -84.5 88.5t-3.5 139.5h48z" />
    <glyph glyph-name="dieresis" unicode="&#xa8;" horiz-adv-x="407" 
d="M126 686q19 0 19 -20v-55q0 -19 -19 -19h-22q-18 0 -18 19v55q0 20 18 20h22zM303 686q19 0 19 -20v-55q0 -19 -19 -19h-21q-19 0 -19 19v55q0 20 19 20h21z" />
    <glyph glyph-name="copyright" unicode="&#xa9;" horiz-adv-x="844" 
d="M422 702q151 0 254.5 -101.5t103.5 -255.5t-103.5 -255.5t-254.5 -101.5q-150 0 -254 101.5t-104 255.5t104 255.5t254 101.5zM422 665q-134 0 -227.5 -91.5t-93.5 -228.5t93.5 -228.5t227.5 -91.5t227 91.5t93 228.5t-93 228.5t-227 91.5zM427 572q82 0 134 -13l-7 -37
q-54 5 -128 5q-80 0 -111.5 -39.5t-31.5 -139.5q0 -101 31.5 -140.5t111.5 -39.5q92 0 140 6l5 -37q-62 -14 -144 -14q-108 0 -151.5 50.5t-43.5 174.5q0 123 43.5 173.5t151.5 50.5z" />
    <glyph glyph-name="ordfeminine" unicode="&#xaa;" horiz-adv-x="442" 
d="M255 605q53 0 80.5 -24t27.5 -79v-231h-39l-6 63q-26 -26 -67.5 -47t-85.5 -21q-45 0 -70.5 22t-25.5 63v39q0 38 23.5 58.5t66.5 20.5h155v34q0 60 -68 60q-63 0 -157 -9l-5 36q101 15 171 15zM179 309q31 -1 69 15t66 39v77l-141 -6q-55 -3 -55 -47v-27q0 -51 61 -51z
" />
    <glyph glyph-name="guillemotleft" unicode="&#xab;" horiz-adv-x="473" 
d="M208 457l33 -22l-134 -184l135 -187l-33 -22l-162 201v16zM381 457l33 -22l-134 -184l135 -187l-33 -22l-162 201v16z" />
    <glyph glyph-name="logicalnot" unicode="&#xac;" horiz-adv-x="591" 
d="M78 322h431v-191h-51v141h-380v50z" />
    <glyph glyph-name="uni00AD" unicode="&#xad;" horiz-adv-x="460" 
d="M384 277v-50h-307v50h307z" />
    <glyph glyph-name="registered" unicode="&#xae;" horiz-adv-x="563" 
d="M282 701q92 0 157 -65t65 -157q0 -93 -65 -158t-157 -65q-93 0 -158 65t-65 158q0 92 65 157t158 65zM282 281q80 0 138 58t58 140t-57.5 140t-138.5 58t-138.5 -58t-57.5 -140t57.5 -140t138.5 -58zM333 469q29 -5 39 -39l33 -84h-34l-31 82q-12 31 -46 31q-61 0 -80 1
v-114h-32v267q35 3 110 3q56 0 79 -16.5t23 -59.5q0 -33 -14 -49t-47 -20v-2zM291 483q40 1 55.5 12.5t15.5 41.5q0 31 -15.5 42t-55.5 11h-77v-107h77z" />
    <glyph glyph-name="macron" unicode="&#xaf;" horiz-adv-x="400" 
d="M336 664v-49h-272v49h272z" />
    <glyph glyph-name="degree" unicode="&#xb0;" horiz-adv-x="370" 
d="M185 702q52 0 90 -37t38 -88q0 -52 -38 -89.5t-90 -37.5t-89.5 37.5t-37.5 89.5t37 88.5t90 36.5zM185 662q-36 0 -60.5 -24.5t-24.5 -60.5q0 -35 25 -60.5t60 -25.5t60.5 25.5t25.5 60.5q0 36 -25 60.5t-61 24.5z" />
    <glyph glyph-name="plusminus" unicode="&#xb1;" horiz-adv-x="592" 
d="M321 379h190v-49h-191v-138h-49v138h-190v49h190v138h50v-138zM81 78v49h430v-49h-430z" />
    <glyph glyph-name="uni00B2" unicode="&#xb2;" horiz-adv-x="396" 
d="M197 766q69 0 102 -20t33 -72q0 -36 -20 -69.5t-64 -79.5l-122 -124q24 1 65 1h159v-45h-293v26q0 13 8 21l133 136q43 43 60 70.5t17 57.5q0 31 -19.5 42.5t-59.5 11.5q-58 0 -129 -12l-4 40q71 16 134 16z" />
    <glyph glyph-name="uni00B3" unicode="&#xb3;" horiz-adv-x="400" 
d="M187 767q74 0 105 -20.5t31 -72.5q0 -87 -66 -102v-2q41 -8 58 -32.5t18 -68.5q2 -62 -30.5 -91t-107.5 -29q-63 0 -138 15l5 38q62 -9 123 -9q52 0 73.5 18t21.5 63q0 35 -17.5 54t-68.5 19l-84 1v38l84 1q26 1 42.5 8t23.5 19t9.5 23t2.5 26q-1 36 -20 48.5t-71 12.5
q-57 0 -113 -10l-5 38q68 15 124 15z" />
    <glyph glyph-name="acute" unicode="&#xb4;" horiz-adv-x="301" 
d="M217 723l38 -48l-178 -128l-24 30z" />
    <glyph glyph-name="uni00B5" unicode="&#xb5;" horiz-adv-x="575" 
d="M552 41l5 -39q-35 -10 -66 -10q-64 0 -64 88v36q-28 -59 -81.5 -93.5t-115.5 -34.5q-50 0 -84 19v-93l-9 -118h-53v688h63v-341q0 -53 22 -75t69 -22q74 0 129.5 58t56.5 138v242h63v-382q0 -31 5.5 -46t25.5 -15h34z" />
    <glyph glyph-name="paragraph" unicode="&#xb6;" horiz-adv-x="595" 
d="M348 702q87 0 146 -17v-685h-51v652q-60 6 -117 6v-868h-51v411q-123 11 -176.5 69t-53.5 180q0 138 69.5 195t233.5 57z" />
    <glyph glyph-name="periodcentered" unicode="&#xb7;" horiz-adv-x="225" 
d="M123 311q25 0 25 -25v-57q0 -25 -25 -25h-22q-24 0 -24 25v57q0 25 24 25h22z" />
    <glyph glyph-name="cedilla" unicode="&#xb8;" horiz-adv-x="228" 
d="M95 -45q52 5 76 -9.5t23 -55.5q-2 -60 -45.5 -92.5t-111.5 -23.5l10 35q44 -1 71.5 21t28.5 56q0 21 -12.5 29t-46.5 9z" />
    <glyph glyph-name="uni00B9" unicode="&#xb9;" horiz-adv-x="292" 
d="M195 760v-403h-51v323q0 16 3 34l-109 -32l-7 36l113 42h51z" />
    <glyph glyph-name="ordmasculine" unicode="&#xba;" horiz-adv-x="446" 
d="M223 605q87 0 122.5 -38.5t35.5 -132.5t-35.5 -132.5t-122.5 -38.5t-122.5 38.5t-35.5 132.5t35.5 132.5t122.5 38.5zM223 564q-60 0 -83.5 -28t-23.5 -102t23.5 -101.5t83.5 -27.5t83 27.5t23 101.5t-23 102t-83 28z" />
    <glyph glyph-name="guillemotright" unicode="&#xbb;" horiz-adv-x="473" 
d="M92 457l161 -198v-16l-162 -201l-33 22l135 187l-134 184zM265 457l161 -198v-16l-162 -201l-33 22l135 187l-134 184z" />
    <glyph glyph-name="onequarter" unicode="&#xbc;" horiz-adv-x="855" 
d="M164 608q0 24 3 36l-117 -32l-6 35l120 43h50v-414h-50v332zM592 690h48l-459 -690h-48zM809 144v-35l-47 -4v-105h-48v104h-206q-25 0 -37 17t0 42l134 251h50l-131 -245q-5 -10 0.5 -17.5t17.5 -7.5h172v123l10 68h38v-191h47z" />
    <glyph glyph-name="onehalf" unicode="&#xbd;" horiz-adv-x="881" 
d="M214 690v-414h-50v332q0 24 3 36l-117 -32l-6 35l120 43h50zM636 690l-459 -690h-48l459 690h48zM665 421q77 0 111 -18.5t34 -72.5q0 -36 -20 -70t-66 -80l-136 -136q49 2 73 1h167v-45h-305v28q0 12 8 23l140 138q84 85 84 138q0 31 -22.5 41t-69.5 10q-59 0 -132 -10
l-4 38q74 15 138 15z" />
    <glyph glyph-name="threequarters" unicode="&#xbe;" horiz-adv-x="946" 
d="M352 389q2 -64 -32 -93t-115 -29q-53 0 -145 10l4 38q67 -6 130 -6q58 0 82 19t24 66q0 36 -20.5 57t-75.5 21l-86 1v35l86 2q28 1 47 8t27 20t10.5 24t2.5 26q0 38 -21.5 51.5t-79.5 13.5q-66 0 -118 -5l-4 37q64 10 128 10q81 0 113 -20.5t32 -74.5q0 -92 -76 -105v-2
q47 -6 66.5 -32t20.5 -72zM694 690h48l-459 -690h-48zM900 144v-35l-53 -4v-105h-47v104h-202q-25 0 -37 17.5t0 41.5l135 251h50l-132 -245q-5 -10 0.5 -17.5t17.5 -7.5h168v123l9 68h38v-191h53z" />
    <glyph glyph-name="questiondown" unicode="&#xbf;" horiz-adv-x="502" 
d="M269 496q24 0 24 -25v-57q0 -25 -24 -25h-18q-25 0 -25 25v57q0 25 25 25h18zM286 288q1 -52 -16.5 -95t-43 -71.5t-51 -54.5t-43.5 -56t-19 -63q-1 -56 34.5 -82.5t110.5 -26.5q92 0 197 11l5 -46q-7 -1 -35 -6t-37.5 -6t-33.5 -3.5t-49 -3.5t-59 -1q-200 0 -200 155
q0 41 18.5 76.5t45.5 62.5t54 54.5t46.5 67.5t20.5 88h55z" />
    <glyph glyph-name="Agrave" unicode="&#xc0;" horiz-adv-x="615" 
d="M359 757l-24 -30l-178 128l38 48zM534 0l-76 228h-301l-76 -228h-68l231 671q6 19 26 19h75q20 0 26 -19l231 -671h-68zM176 285h263l-99 297q-2 5 -8.5 25t-9.5 31h-28q-15 -47 -19 -56z" />
    <glyph glyph-name="Aacute" unicode="&#xc1;" horiz-adv-x="615" 
d="M447 860l-178 -128l-24 30l164 146zM534 0l-76 228h-301l-76 -228h-68l231 671q6 19 26 19h75q20 0 26 -19l231 -671h-68zM176 285h263l-99 297q-2 5 -8.5 25t-9.5 31h-28q-15 -47 -19 -56z" />
    <glyph glyph-name="Acircumflex" unicode="&#xc2;" horiz-adv-x="615" 
d="M303 834l-129 -99l-23 28l133 124h47l133 -124l-23 -28l-130 99h-8zM534 0l-76 228h-301l-76 -228h-68l231 671q6 19 26 19h75q20 0 26 -19l231 -671h-68zM176 285h263l-99 297q-2 5 -8.5 25t-9.5 31h-28q-15 -47 -19 -56z" />
    <glyph glyph-name="Atilde" unicode="&#xc3;" horiz-adv-x="615" 
d="M186 766h-32q-4 53 17.5 80.5t59.5 24.5q31 -3 74.5 -30t71.5 -30q29 -3 40.5 10t11.5 45h32q4 -51 -17.5 -78t-59.5 -24q-37 3 -81 31t-66 30q-28 3 -39.5 -11.5t-11.5 -47.5zM534 0l-76 228h-301l-76 -228h-68l231 671q6 19 26 19h75q20 0 26 -19l231 -671h-68z
M176 285h263l-99 297q-2 5 -8.5 25t-9.5 31h-28q-15 -47 -19 -56z" />
    <glyph glyph-name="Adieresis" unicode="&#xc4;" horiz-adv-x="615" 
d="M208 767q-18 0 -18 19v55q0 20 18 20h22q19 0 19 -20v-55q0 -19 -19 -19h-22zM386 767q-19 0 -19 19v55q0 20 19 20h21q19 0 19 -20v-55q0 -19 -19 -19h-21zM534 0l-76 228h-301l-76 -228h-68l231 671q6 19 26 19h75q20 0 26 -19l231 -671h-68zM176 285h263l-99 297
q-2 5 -8.5 25t-9.5 31h-28q-15 -47 -19 -56z" />
    <glyph glyph-name="Aring" unicode="&#xc5;" horiz-adv-x="615" 
d="M308 717q-43 0 -73 29t-30 72q0 42 30 71.5t73 29.5q42 0 72.5 -29.5t30.5 -71.5q0 -41 -30 -71t-73 -30zM308 884q-29 0 -47 -18.5t-18 -47.5q0 -30 18.5 -48t46.5 -18t46.5 18.5t18.5 47.5t-19 47.5t-46 18.5zM534 0l-76 228h-301l-76 -228h-68l231 671q6 19 26 19h75
q20 0 26 -19l231 -671h-68zM176 285h263l-99 297q-2 5 -8.5 25t-9.5 31h-28q-15 -47 -19 -56z" />
    <glyph glyph-name="AE" unicode="&#xc6;" horiz-adv-x="910" 
d="M594 55h261l2 -50q-94 -6 -287 -6q-49 0 -79.5 32t-30.5 82v129h-240l-147 -242h-70l363 590q35 59 80 79.5t124 20.5q183 0 287 -5l-2 -51h-261q-32 0 -52 -20t-20 -54v-166l292 -1v-53l-292 -1v-211q0 -73 72 -73zM253 297h207v271q0 22 10.5 43.5t24.5 30.5h-8
q-34 -18 -64 -66z" />
    <glyph glyph-name="Ccedilla" unicode="&#xc7;" horiz-adv-x="567" 
d="M331 702q109 0 184 -19l-8 -49q-76 9 -176 9q-110 0 -153 -65t-43 -233t43 -233t153 -65q114 0 190 11l8 -49q-78 -21 -198 -21q-146 0 -205 80t-59 277t59 277t205 80zM290 -57q52 5 76 -9.5t23 -55.5q-2 -60 -45.5 -92.5t-111.5 -23.5l10 35q44 -1 71.5 21t28.5 56
q0 21 -12.5 29t-46.5 9z" />
    <glyph glyph-name="Egrave" unicode="&#xc8;" horiz-adv-x="557" 
d="M361 779l-24 -30l-178 128l38 48zM220 55h280l4 -50q-94 -6 -295 -6q-55 0 -88.5 31t-33.5 83v464q0 52 33.5 83t88.5 31q201 0 295 -6l-4 -50h-280q-67 0 -67 -73v-169h308v-53h-308v-213q0 -72 67 -72z" />
    <glyph glyph-name="Eacute" unicode="&#xc9;" horiz-adv-x="557" 
d="M449 882l-178 -128l-24 30l164 146zM220 55h280l4 -50q-94 -6 -295 -6q-55 0 -88.5 31t-33.5 83v464q0 52 33.5 83t88.5 31q201 0 295 -6l-4 -50h-280q-67 0 -67 -73v-169h308v-53h-308v-213q0 -72 67 -72z" />
    <glyph glyph-name="Ecircumflex" unicode="&#xca;" horiz-adv-x="557" 
d="M305 856l-129 -99l-23 28l133 124h47l133 -124l-23 -28l-130 99h-8zM220 55h280l4 -50q-94 -6 -295 -6q-55 0 -88.5 31t-33.5 83v464q0 52 33.5 83t88.5 31q201 0 295 -6l-4 -50h-280q-67 0 -67 -73v-169h308v-53h-308v-213q0 -72 67 -72z" />
    <glyph glyph-name="Edieresis" unicode="&#xcb;" horiz-adv-x="557" 
d="M210 789q-18 0 -18 19v55q0 20 18 20h22q19 0 19 -20v-55q0 -19 -19 -19h-22zM388 789q-19 0 -19 19v55q0 20 19 20h21q19 0 19 -20v-55q0 -19 -19 -19h-21zM220 55h280l4 -50q-94 -6 -295 -6q-55 0 -88.5 31t-33.5 83v464q0 52 33.5 83t88.5 31q201 0 295 -6l-4 -50
h-280q-67 0 -67 -73v-169h308v-53h-308v-213q0 -72 67 -72z" />
    <glyph glyph-name="Igrave" unicode="&#xcc;" horiz-adv-x="251" 
d="M12 907l164 -146l-24 -30l-178 128zM158 690v-690h-65v690h65z" />
    <glyph glyph-name="Iacute" unicode="&#xcd;" horiz-adv-x="251" 
d="M226 912l38 -48l-178 -128l-24 30zM158 690v-690h-65v690h65z" />
    <glyph glyph-name="Icircumflex" unicode="&#xce;" horiz-adv-x="251" 
d="M148 891l133 -124l-23 -28l-130 99h-8l-129 -99l-23 28l133 124h47zM158 690v-690h-65v690h65z" />
    <glyph glyph-name="Idieresis" unicode="&#xcf;" horiz-adv-x="251" 
d="M47 865q19 0 19 -20v-55q0 -19 -19 -19h-22q-18 0 -18 19v55q0 20 18 20h22zM224 865q19 0 19 -20v-55q0 -19 -19 -19h-21q-19 0 -19 19v55q0 20 19 20h21zM158 690v-690h-65v690h65z" />
    <glyph glyph-name="Eth" unicode="&#xd0;" 
d="M336 699q146 0 204.5 -78.5t58.5 -275.5t-58.5 -275.5t-204.5 -78.5q-113 0 -239 9v349h-73v39h73v302q124 9 239 9zM336 49q109 0 151.5 65t42.5 231t-42.5 231.5t-151.5 65.5q-70 0 -174 -2v-252h163v-39h-163v-298q100 -2 174 -2z" />
    <glyph glyph-name="Ntilde" unicode="&#xd1;" horiz-adv-x="699" 
d="M285 875q31 -3 74.5 -30t71.5 -30q29 -3 40.5 10t11.5 45h32q4 -51 -17.5 -78t-59.5 -24q-37 3 -81 31t-66 30q-28 3 -39.5 -11.5t-11.5 -47.5h-32q-4 53 17.5 80.5t59.5 24.5zM606 690v-662q0 -28 -27 -28h-70q-22 0 -32 22l-263 524q-37 77 -39 83h-19q2 -27 2 -83
v-546h-65v662q0 28 27 28h68q22 0 32 -22l257 -512l46 -93h21q-3 49 -3 99v528h65z" />
    <glyph glyph-name="Ograve" unicode="&#xd2;" 
d="M221 907l164 -146l-24 -30l-178 128zM333 702q148 0 207 -78.5t59 -278.5t-59 -278.5t-207 -78.5t-207 78.5t-59 278.5t59 278.5t207 78.5zM333 644q-111 0 -154.5 -65.5t-43.5 -233.5t43.5 -233.5t154.5 -65.5t154 65.5t43 233.5t-43 233.5t-154 65.5z" />
    <glyph glyph-name="Oacute" unicode="&#xd3;" 
d="M435 912l38 -48l-178 -128l-24 30zM333 702q148 0 207 -78.5t59 -278.5t-59 -278.5t-207 -78.5t-207 78.5t-59 278.5t59 278.5t207 78.5zM333 644q-111 0 -154.5 -65.5t-43.5 -233.5t43.5 -233.5t154.5 -65.5t154 65.5t43 233.5t-43 233.5t-154 65.5z" />
    <glyph glyph-name="Ocircumflex" unicode="&#xd4;" 
d="M357 891l133 -124l-23 -28l-130 99h-8l-129 -99l-23 28l133 124h47zM333 702q148 0 207 -78.5t59 -278.5t-59 -278.5t-207 -78.5t-207 78.5t-59 278.5t59 278.5t207 78.5zM333 644q-111 0 -154.5 -65.5t-43.5 -233.5t43.5 -233.5t154.5 -65.5t154 65.5t43 233.5
t-43 233.5t-154 65.5z" />
    <glyph glyph-name="Otilde" unicode="&#xd5;" 
d="M257 875q31 -3 74.5 -30t71.5 -30q29 -3 40.5 10t11.5 45h32q4 -51 -17.5 -78t-59.5 -24q-37 3 -81 31t-66 30q-28 3 -39.5 -11.5t-11.5 -47.5h-32q-4 53 17.5 80.5t59.5 24.5zM333 702q148 0 207 -78.5t59 -278.5t-59 -278.5t-207 -78.5t-207 78.5t-59 278.5t59 278.5
t207 78.5zM333 644q-111 0 -154.5 -65.5t-43.5 -233.5t43.5 -233.5t154.5 -65.5t154 65.5t43 233.5t-43 233.5t-154 65.5z" />
    <glyph glyph-name="Odieresis" unicode="&#xd6;" 
d="M256 865q19 0 19 -20v-55q0 -19 -19 -19h-22q-18 0 -18 19v55q0 20 18 20h22zM433 865q19 0 19 -20v-55q0 -19 -19 -19h-21q-19 0 -19 19v55q0 20 19 20h21zM333 702q148 0 207 -78.5t59 -278.5t-59 -278.5t-207 -78.5t-207 78.5t-59 278.5t59 278.5t207 78.5zM333 644
q-111 0 -154.5 -65.5t-43.5 -233.5t43.5 -233.5t154.5 -65.5t154 65.5t43 233.5t-43 233.5t-154 65.5z" />
    <glyph glyph-name="multiply" unicode="&#xd7;" horiz-adv-x="486" 
d="M438 429l-155 -140l155 -140l-31 -38l-161 145l-161 -145l-32 38l156 140l-156 139l32 39l161 -145l161 145z" />
    <glyph glyph-name="Oslash" unicode="&#xd8;" 
d="M499 663q53 -36 76.5 -112t23.5 -206q0 -200 -59 -278.5t-207 -78.5q-88 0 -139 24l-32 -67l-37 16l34 72q-49 38 -70.5 112.5t-21.5 199.5q0 200 59 278.5t207 78.5q80 0 130 -20l31 65l37 -16zM135 345q0 -184 54 -248l247 527q-39 20 -103 20q-111 0 -154.5 -65.5
t-43.5 -233.5zM333 46q111 0 154 65.5t43 233.5q0 194 -60 255l-249 -529q40 -25 112 -25z" />
    <glyph glyph-name="Ugrave" unicode="&#xd9;" horiz-adv-x="667" 
d="M222 907l164 -146l-24 -30l-178 128zM579 690v-429q0 -149 -55 -211t-188 -62q-136 0 -192 62t-56 211v429h65v-429q0 -119 40.5 -167t140.5 -48q99 0 139 48t40 167v429h66z" />
    <glyph glyph-name="Uacute" unicode="&#xda;" horiz-adv-x="667" 
d="M436 912l38 -48l-178 -128l-24 30zM579 690v-429q0 -149 -55 -211t-188 -62q-136 0 -192 62t-56 211v429h65v-429q0 -119 40.5 -167t140.5 -48q99 0 139 48t40 167v429h66z" />
    <glyph glyph-name="Ucircumflex" unicode="&#xdb;" horiz-adv-x="667" 
d="M358 891l133 -124l-23 -28l-130 99h-8l-129 -99l-23 28l133 124h47zM579 690v-429q0 -149 -55 -211t-188 -62q-136 0 -192 62t-56 211v429h65v-429q0 -119 40.5 -167t140.5 -48q99 0 139 48t40 167v429h66z" />
    <glyph glyph-name="Udieresis" unicode="&#xdc;" horiz-adv-x="667" 
d="M257 865q19 0 19 -20v-55q0 -19 -19 -19h-22q-18 0 -18 19v55q0 20 18 20h22zM434 865q19 0 19 -20v-55q0 -19 -19 -19h-21q-19 0 -19 19v55q0 20 19 20h21zM579 690v-429q0 -149 -55 -211t-188 -62q-136 0 -192 62t-56 211v429h65v-429q0 -119 40.5 -167t140.5 -48
q99 0 139 48t40 167v429h66z" />
    <glyph glyph-name="Yacute" unicode="&#xdd;" horiz-adv-x="559" 
d="M419 858l-178 -128l-24 30l164 146zM543 690l-231 -442v-248h-65v248l-232 442h70l158 -306q13 -26 33 -74h7q13 31 33 73l158 307h69z" />
    <glyph glyph-name="Thorn" unicode="&#xde;" horiz-adv-x="589" 
d="M324 563q121 0 167.5 -44.5t46.5 -168.5t-45.5 -168t-161.5 -44q-98 0 -173 7v-145h-65v690h65v-130q45 3 166 3zM323 195q84 1 116 32.5t32 122.5q0 92 -32 124t-116 32q-125 0 -165 -1v-310h165z" />
    <glyph glyph-name="germandbls" unicode="&#xdf;" horiz-adv-x="667" 
d="M534 252q48 -20 69 -47.5t21 -79.5q0 -82 -40.5 -109t-129.5 -27q-81 0 -162 11l4 48q65 -6 147 -6q68 1 93.5 16.5t25.5 68.5q0 37 -16 53t-54 31l-115 45q-84 32 -84 109q0 15 3 27.5t6.5 21.5t13 18.5t15 14.5t20.5 13.5t21.5 11.5t26.5 12t27 12q41 19 56 39t15 57
q0 39 -36.5 56t-121.5 17q-92 0 -124.5 -26.5t-32.5 -105.5v-533h-64v433h-87v49l87 2v55q0 58 14.5 95t46 55t67 23.5t91.5 5.5q116 0 167.5 -27.5t51.5 -97.5q0 -49 -19.5 -77t-72.5 -54q-12 -6 -32.5 -15t-28.5 -13t-20.5 -11.5t-17 -14t-8 -17.5t-3.5 -25q0 -28 15 -42
t50 -29z" />
    <glyph glyph-name="agrave" unicode="&#xe0;" horiz-adv-x="545" 
d="M322 580l-24 -30l-178 128l38 48zM310 497q78 0 116.5 -34.5t38.5 -114.5v-348h-50l-8 85q-36 -36 -93 -64.5t-119 -28.5q-64 0 -101 34t-37 97v56q0 56 33 87t94 31h217v51q0 48 -22.5 71t-80.5 23q-86 0 -215 -14l-6 47q145 22 233 22zM206 48q43 -1 97.5 21.5
t97.5 59.5v119l-207 -2q-73 -3 -73 -75v-42q0 -81 85 -81z" />
    <glyph glyph-name="aacute" unicode="&#xe1;" horiz-adv-x="545" 
d="M410 683l-178 -128l-24 30l164 146zM310 497q78 0 116.5 -34.5t38.5 -114.5v-348h-50l-8 85q-36 -36 -93 -64.5t-119 -28.5q-64 0 -101 34t-37 97v56q0 56 33 87t94 31h217v51q0 48 -22.5 71t-80.5 23q-86 0 -215 -14l-6 47q145 22 233 22zM206 48q43 -1 97.5 21.5
t97.5 59.5v119l-207 -2q-73 -3 -73 -75v-42q0 -81 85 -81z" />
    <glyph glyph-name="acircumflex" unicode="&#xe2;" horiz-adv-x="545" 
d="M266 657l-129 -99l-23 28l133 124h47l133 -124l-23 -28l-130 99h-8zM310 497q78 0 116.5 -34.5t38.5 -114.5v-348h-50l-8 85q-36 -36 -93 -64.5t-119 -28.5q-64 0 -101 34t-37 97v56q0 56 33 87t94 31h217v51q0 48 -22.5 71t-80.5 23q-86 0 -215 -14l-6 47q145 22 233 22
zM206 48q43 -1 97.5 21.5t97.5 59.5v119l-207 -2q-73 -3 -73 -75v-42q0 -81 85 -81z" />
    <glyph glyph-name="atilde" unicode="&#xe3;" horiz-adv-x="545" 
d="M149 589h-32q-4 53 17.5 80.5t59.5 24.5q31 -3 74.5 -30t71.5 -30q29 -3 40.5 10t11.5 45h32q4 -51 -17.5 -78t-59.5 -24q-37 3 -81 31t-66 30q-28 3 -39.5 -11.5t-11.5 -47.5zM310 497q78 0 116.5 -34.5t38.5 -114.5v-348h-50l-8 85q-36 -36 -93 -64.5t-119 -28.5
q-64 0 -101 34t-37 97v56q0 56 33 87t94 31h217v51q0 48 -22.5 71t-80.5 23q-86 0 -215 -14l-6 47q145 22 233 22zM206 48q43 -1 97.5 21.5t97.5 59.5v119l-207 -2q-73 -3 -73 -75v-42q0 -81 85 -81z" />
    <glyph glyph-name="adieresis" unicode="&#xe4;" horiz-adv-x="545" 
d="M171 590q-18 0 -18 19v55q0 20 18 20h22q19 0 19 -20v-55q0 -19 -19 -19h-22zM349 590q-19 0 -19 19v55q0 20 19 20h21q19 0 19 -20v-55q0 -19 -19 -19h-21zM310 497q78 0 116.5 -34.5t38.5 -114.5v-348h-50l-8 85q-36 -36 -93 -64.5t-119 -28.5q-64 0 -101 34t-37 97v56
q0 56 33 87t94 31h217v51q0 48 -22.5 71t-80.5 23q-86 0 -215 -14l-6 47q145 22 233 22zM206 48q43 -1 97.5 21.5t97.5 59.5v119l-207 -2q-73 -3 -73 -75v-42q0 -81 85 -81z" />
    <glyph glyph-name="aring" unicode="&#xe5;" horiz-adv-x="545" 
d="M271 540q-43 0 -73 29t-30 72q0 42 30 71.5t73 29.5q42 0 72.5 -29.5t30.5 -71.5q0 -41 -30 -71t-73 -30zM271 707q-29 0 -47 -18.5t-18 -47.5q0 -30 18.5 -48t46.5 -18t46.5 18.5t18.5 47.5t-19 47.5t-46 18.5zM310 497q78 0 116.5 -34.5t38.5 -114.5v-348h-50l-8 85
q-36 -36 -93 -64.5t-119 -28.5q-64 0 -101 34t-37 97v56q0 56 33 87t94 31h217v51q0 48 -22.5 71t-80.5 23q-86 0 -215 -14l-6 47q145 22 233 22zM206 48q43 -1 97.5 21.5t97.5 59.5v119l-207 -2q-73 -3 -73 -75v-42q0 -81 85 -81z" />
    <glyph glyph-name="ae" unicode="&#xe6;" horiz-adv-x="874" 
d="M635 43q77 0 167 12l7 -43q-61 -24 -182 -24q-83 0 -132 25.5t-72 82.5q-36 -39 -98 -71.5t-130 -32.5q-64 0 -101 34t-37 97v56q0 56 33 87t94 31h217v51q0 48 -22.5 71t-80.5 23q-86 0 -215 -14l-6 47q145 22 233 22q104 0 137 -62q49 62 171 62q103 0 152 -37.5
t50 -113.5q1 -70 -30.5 -102.5t-101.5 -32.5h-220q5 -96 43 -132t124 -36zM621 442q-84 0 -118 -39.5t-36 -141.5h207q46 0 64.5 21.5t17.5 62.5q-1 50 -33 73.5t-102 23.5zM206 48q46 -1 103.5 23t101.5 64q-10 48 -10 100v13l-207 -2q-73 -3 -73 -75v-42q0 -81 85 -81z
" />
    <glyph glyph-name="ccedilla" unicode="&#xe7;" horiz-adv-x="485" 
d="M287 497q89 0 149 -22l-10 -41q-53 8 -129 8q-96 0 -133.5 -42.5t-37.5 -157.5t37.5 -157t133.5 -42q84 0 141 11l7 -44q-74 -22 -158 -22q-125 0 -176 57t-51 197t51 197.5t176 57.5zM244 -57q52 5 76 -9.5t23 -55.5q-2 -60 -45.5 -92.5t-111.5 -23.5l10 35
q44 -1 71.5 21t28.5 56q0 21 -12.5 29t-46.5 9z" />
    <glyph glyph-name="egrave" unicode="&#xe8;" horiz-adv-x="534" 
d="M331 580l-24 -30l-178 128l38 48zM294 43q75 0 167 12l7 -43q-61 -24 -183 -24t-173.5 58.5t-51.5 197.5q0 140 50 196.5t167 56.5q103 0 152 -37.5t50 -113.5q2 -135 -111 -135h-241q5 -96 43 -132t124 -36zM280 442q-84 0 -118 -39.5t-36 -141.5h227q64 0 62 84
q-1 51 -33 74t-102 23z" />
    <glyph glyph-name="eacute" unicode="&#xe9;" horiz-adv-x="534" 
d="M419 683l-178 -128l-24 30l164 146zM294 43q75 0 167 12l7 -43q-61 -24 -183 -24t-173.5 58.5t-51.5 197.5q0 140 50 196.5t167 56.5q103 0 152 -37.5t50 -113.5q2 -135 -111 -135h-241q5 -96 43 -132t124 -36zM280 442q-84 0 -118 -39.5t-36 -141.5h227q64 0 62 84
q-1 51 -33 74t-102 23z" />
    <glyph glyph-name="ecircumflex" unicode="&#xea;" horiz-adv-x="534" 
d="M275 657l-129 -99l-23 28l133 124h47l133 -124l-23 -28l-130 99h-8zM294 43q75 0 167 12l7 -43q-61 -24 -183 -24t-173.5 58.5t-51.5 197.5q0 140 50 196.5t167 56.5q103 0 152 -37.5t50 -113.5q2 -135 -111 -135h-241q5 -96 43 -132t124 -36zM280 442q-84 0 -118 -39.5
t-36 -141.5h227q64 0 62 84q-1 51 -33 74t-102 23z" />
    <glyph glyph-name="edieresis" unicode="&#xeb;" horiz-adv-x="534" 
d="M180 590q-18 0 -18 19v55q0 20 18 20h22q19 0 19 -20v-55q0 -19 -19 -19h-22zM358 590q-19 0 -19 19v55q0 20 19 20h21q19 0 19 -20v-55q0 -19 -19 -19h-21zM294 43q75 0 167 12l7 -43q-61 -24 -183 -24t-173.5 58.5t-51.5 197.5q0 140 50 196.5t167 56.5
q103 0 152 -37.5t50 -113.5q2 -135 -111 -135h-241q5 -96 43 -132t124 -36zM280 442q-84 0 -118 -39.5t-36 -141.5h227q64 0 62 84q-1 51 -33 74t-102 23z" />
    <glyph glyph-name="igrave" unicode="&#xec;" horiz-adv-x="239" 
d="M6 727l164 -146l-24 -30l-178 128zM151 484v-484h-63v484h63z" />
    <glyph glyph-name="iacute" unicode="&#xed;" horiz-adv-x="239" 
d="M220 732l38 -48l-178 -128l-24 30zM151 484v-484h-63v484h63z" />
    <glyph glyph-name="icircumflex" unicode="&#xee;" horiz-adv-x="239" 
d="M142 711l133 -124l-23 -28l-130 99h-8l-129 -99l-23 28l133 124h47zM151 484v-484h-63v484h63z" />
    <glyph glyph-name="idieresis" unicode="&#xef;" horiz-adv-x="239" 
d="M41 685q19 0 19 -20v-55q0 -19 -19 -19h-22q-18 0 -18 19v55q0 20 18 20h22zM218 685q19 0 19 -20v-55q0 -19 -19 -19h-21q-19 0 -19 19v55q0 20 19 20h21zM151 484v-484h-63v484h63z" />
    <glyph glyph-name="eth" unicode="&#xf0;" horiz-adv-x="555" 
d="M365 623q120 -106 120 -342q0 -69 -8 -117t-29.5 -90.5t-65 -64t-109.5 -21.5q-110 0 -161 55.5t-51 176.5q0 112 47 169.5t155 57.5q82 0 148 -42q-22 123 -91 185l-83 -62l-23 30l74 55q-66 41 -170 39l8 46q119 5 207 -51l80 60l24 -31zM274 42q89 0 117.5 58
t28.5 187q0 40 -3 73q-69 33 -147 33t-110.5 -44.5t-32.5 -128.5q0 -96 35 -137t112 -41z" />
    <glyph glyph-name="ntilde" unicode="&#xf1;" horiz-adv-x="577" 
d="M178 589h-32q-4 53 17.5 80.5t59.5 24.5q31 -3 74.5 -30t71.5 -30q29 -3 40.5 10t11.5 45h32q4 -51 -17.5 -78t-59.5 -24q-37 3 -81 31t-66 30q-28 3 -39.5 -11.5t-11.5 -47.5zM366 497q130 0 130 -133v-364h-63v347q0 51 -19.5 73t-64.5 22q-44 0 -88.5 -19.5
t-113.5 -64.5l1 -358h-64v484h53l4 -80q121 93 225 93z" />
    <glyph glyph-name="ograve" unicode="&#xf2;" horiz-adv-x="565" 
d="M170 724l164 -146l-24 -30l-178 128zM283 497q122 0 172 -57.5t50 -197.5t-50 -197t-172 -57t-172.5 57.5t-50.5 196.5q0 140 50.5 197.5t172.5 57.5zM283 442q-88 0 -122 -43t-34 -157t34 -157t122 -43t122 43t34 157t-34 157t-122 43z" />
    <glyph glyph-name="oacute" unicode="&#xf3;" horiz-adv-x="565" 
d="M384 729l38 -48l-178 -128l-24 30zM283 497q122 0 172 -57.5t50 -197.5t-50 -197t-172 -57t-172.5 57.5t-50.5 196.5q0 140 50.5 197.5t172.5 57.5zM283 442q-88 0 -122 -43t-34 -157t34 -157t122 -43t122 43t34 157t-34 157t-122 43z" />
    <glyph glyph-name="ocircumflex" unicode="&#xf4;" horiz-adv-x="565" 
d="M306 708l133 -124l-23 -28l-130 99h-8l-129 -99l-23 28l133 124h47zM283 497q122 0 172 -57.5t50 -197.5t-50 -197t-172 -57t-172.5 57.5t-50.5 196.5q0 140 50.5 197.5t172.5 57.5zM283 442q-88 0 -122 -43t-34 -157t34 -157t122 -43t122 43t34 157t-34 157t-122 43z
" />
    <glyph glyph-name="otilde" unicode="&#xf5;" horiz-adv-x="565" 
d="M206 692q31 -3 74.5 -30t71.5 -30q29 -3 40.5 10t11.5 45h32q4 -51 -17.5 -78t-59.5 -24q-37 3 -81 31t-66 30q-28 3 -39.5 -11.5t-11.5 -47.5h-32q-4 53 17.5 80.5t59.5 24.5zM283 497q122 0 172 -57.5t50 -197.5t-50 -197t-172 -57t-172.5 57.5t-50.5 196.5
q0 140 50.5 197.5t172.5 57.5zM283 442q-88 0 -122 -43t-34 -157t34 -157t122 -43t122 43t34 157t-34 157t-122 43z" />
    <glyph glyph-name="odieresis" unicode="&#xf6;" horiz-adv-x="565" 
d="M205 682q19 0 19 -20v-55q0 -19 -19 -19h-22q-18 0 -18 19v55q0 20 18 20h22zM382 682q19 0 19 -20v-55q0 -19 -19 -19h-21q-19 0 -19 19v55q0 20 19 20h21zM283 497q122 0 172 -57.5t50 -197.5t-50 -197t-172 -57t-172.5 57.5t-50.5 196.5q0 140 50.5 197.5t172.5 57.5z
M283 442q-88 0 -122 -43t-34 -157t34 -157t122 -43t122 43t34 157t-34 157t-122 43z" />
    <glyph glyph-name="divide" unicode="&#xf7;" horiz-adv-x="577" 
d="M296 517q25 0 25 -25v-54q0 -24 -25 -24h-18q-14 0 -19 5t-5 19v54q0 25 24 25h18zM504 320v-49h-431v49h431zM296 176q25 0 25 -25v-53q0 -24 -25 -24h-18q-14 0 -19 5t-5 19v53q0 25 24 25h18z" />
    <glyph glyph-name="oslash" unicode="&#xf8;" horiz-adv-x="565" 
d="M408 475q51 -24 74 -80.5t23 -152.5q0 -140 -50 -197t-172 -57q-55 0 -97 11l-32 -69l-33 15l31 68q-48 25 -70 80t-22 149q0 140 50.5 197.5t172.5 57.5q54 0 90 -10l31 66l33 -16zM127 242q0 -135 51 -174l171 367q-27 7 -66 7q-88 0 -122 -43t-34 -157zM283 42
q88 0 122 43t34 157q0 140 -57 178l-171 -369q29 -9 72 -9z" />
    <glyph glyph-name="ugrave" unicode="&#xf9;" horiz-adv-x="567" 
d="M334 583l-24 -30l-178 128l38 48zM419 484h63v-484h-50l-5 76q-112 -88 -215 -88q-131 0 -131 132v364h63v-347q0 -50 21 -72t68 -22q41 0 82.5 18.5t103.5 60.5v362z" />
    <glyph glyph-name="uacute" unicode="&#xfa;" horiz-adv-x="567" 
d="M422 686l-178 -128l-24 30l164 146zM419 484h63v-484h-50l-5 76q-112 -88 -215 -88q-131 0 -131 132v364h63v-347q0 -50 21 -72t68 -22q41 0 82.5 18.5t103.5 60.5v362z" />
    <glyph glyph-name="ucircumflex" unicode="&#xfb;" horiz-adv-x="567" 
d="M278 660l-129 -99l-23 28l133 124h47l133 -124l-23 -28l-130 99h-8zM419 484h63v-484h-50l-5 76q-112 -88 -215 -88q-131 0 -131 132v364h63v-347q0 -50 21 -72t68 -22q41 0 82.5 18.5t103.5 60.5v362z" />
    <glyph glyph-name="udieresis" unicode="&#xfc;" horiz-adv-x="567" 
d="M183 593q-18 0 -18 19v55q0 20 18 20h22q19 0 19 -20v-55q0 -19 -19 -19h-22zM361 593q-19 0 -19 19v55q0 20 19 20h21q19 0 19 -20v-55q0 -19 -19 -19h-21zM419 484h63v-484h-50l-5 76q-112 -88 -215 -88q-131 0 -131 132v364h63v-347q0 -50 21 -72t68 -22
q41 0 82.5 18.5t103.5 60.5v362z" />
    <glyph glyph-name="yacute" unicode="&#xfd;" horiz-adv-x="521" 
d="M402 684l-178 -128l-24 30l164 146zM430 484h68l-204 -518q-29 -74 -73 -119.5t-119 -53.5l-8 41q57 19 89 53t52 86l12 27h-16q-19 0 -25 17l-184 467h68l143 -378q16 -42 20 -56h14q2 6 6.5 18t8 21.5t6.5 17.5z" />
    <glyph glyph-name="thorn" unicode="&#xfe;" horiz-adv-x="570" 
d="M332 496q95 0 135 -59.5t40 -196.5q0 -139 -40.5 -195.5t-135.5 -56.5t-186 47q3 -32 3 -92v-147h-64v904h64v-182q0 -63 -3 -97q93 75 187 75zM313 41q70 0 99.5 44t29.5 155q0 112 -28.5 156.5t-97.5 44.5q-70 0 -168 -74v-286q104 -40 165 -40z" />
    <glyph glyph-name="ydieresis" unicode="&#xff;" horiz-adv-x="521" 
d="M163 591q-18 0 -18 19v55q0 20 18 20h22q19 0 19 -20v-55q0 -19 -19 -19h-22zM341 591q-19 0 -19 19v55q0 20 19 20h21q19 0 19 -20v-55q0 -19 -19 -19h-21zM430 484h68l-204 -518q-29 -74 -73 -119.5t-119 -53.5l-8 41q57 19 89 53t52 86l12 27h-16q-19 0 -25 17
l-184 467h68l143 -378q16 -42 20 -56h14q2 6 6.5 18t8 21.5t6.5 17.5z" />
    <glyph glyph-name="Amacron" unicode="&#x100;" horiz-adv-x="615" 
d="M444 837v-49h-272v49h272zM534 0l-76 228h-301l-76 -228h-68l231 671q6 19 26 19h75q20 0 26 -19l231 -671h-68zM176 285h263l-99 297q-2 5 -8.5 25t-9.5 31h-28q-15 -47 -19 -56z" />
    <glyph glyph-name="amacron" unicode="&#x101;" horiz-adv-x="545" 
d="M407 660v-49h-272v49h272zM310 497q78 0 116.5 -34.5t38.5 -114.5v-348h-50l-8 85q-36 -36 -93 -64.5t-119 -28.5q-64 0 -101 34t-37 97v56q0 56 33 87t94 31h217v51q0 48 -22.5 71t-80.5 23q-86 0 -215 -14l-6 47q145 22 233 22zM206 48q43 -1 97.5 21.5t97.5 59.5v119
l-207 -2q-73 -3 -73 -75v-42q0 -81 85 -81z" />
    <glyph glyph-name="Abreve" unicode="&#x102;" horiz-adv-x="615" 
d="M308 745q-69 0 -108.5 34.5t-36.5 90.5l34 6q0 -39 29.5 -60.5t82.5 -21.5q51 0 80 21.5t29 60.5l35 -6q2 -57 -37 -91t-108 -34zM534 0l-76 228h-301l-76 -228h-68l231 671q6 19 26 19h75q20 0 26 -19l231 -671h-68zM176 285h263l-99 297q-2 5 -8.5 25t-9.5 31h-28
q-15 -47 -19 -56z" />
    <glyph glyph-name="abreve" unicode="&#x103;" horiz-adv-x="545" 
d="M271 568q-69 0 -108.5 34.5t-36.5 90.5l34 6q0 -39 29.5 -60.5t82.5 -21.5q51 0 80 21.5t29 60.5l35 -6q2 -57 -37 -91t-108 -34zM310 497q78 0 116.5 -34.5t38.5 -114.5v-348h-50l-8 85q-36 -36 -93 -64.5t-119 -28.5q-64 0 -101 34t-37 97v56q0 56 33 87t94 31h217v51
q0 48 -22.5 71t-80.5 23q-86 0 -215 -14l-6 47q145 22 233 22zM206 48q43 -1 97.5 21.5t97.5 59.5v119l-207 -2q-73 -3 -73 -75v-42q0 -81 85 -81z" />
    <glyph glyph-name="Aogonek" unicode="&#x104;" horiz-adv-x="615" 
d="M606 -166l8 -28q-87 -33 -122.5 -7.5t-14.5 81.5q20 61 92 120h-35l-76 228h-301l-76 -228h-68l231 671q6 19 26 19h75q20 0 26 -19l231 -671q-58 -64 -79 -118q-16 -40 8.5 -53t74.5 5zM176 285h263l-99 297q-2 5 -8.5 25t-9.5 31h-28q-15 -47 -19 -56z" />
    <glyph glyph-name="aogonek" unicode="&#x105;" horiz-adv-x="545" 
d="M468 -166l8 -28q-87 -33 -122.5 -7.5t-14.5 81.5q20 61 92 120h-16l-8 85q-36 -36 -93 -64.5t-119 -28.5q-64 0 -101 34t-37 97v56q0 56 33 87t94 31h217v51q0 48 -22.5 71t-80.5 23q-86 0 -215 -14l-6 47q145 22 233 22q78 0 116.5 -34.5t38.5 -114.5v-348h-1
q-58 -64 -79 -118q-16 -40 8.5 -53t74.5 5zM206 48q43 -1 97.5 21.5t97.5 59.5v119l-207 -2q-73 -3 -73 -75v-42q0 -81 85 -81z" />
    <glyph glyph-name="Cacute" unicode="&#x106;" horiz-adv-x="567" 
d="M422 912l38 -48l-178 -128l-24 30zM331 702q109 0 184 -19l-8 -49q-76 9 -176 9q-110 0 -153 -65t-43 -233t43 -233t153 -65q114 0 190 11l8 -49q-78 -21 -198 -21q-146 0 -205 80t-59 277t59 277t205 80z" />
    <glyph glyph-name="cacute" unicode="&#x107;" horiz-adv-x="485" 
d="M371 732l38 -48l-178 -128l-24 30zM287 497q89 0 149 -22l-10 -41q-53 8 -129 8q-96 0 -133.5 -42.5t-37.5 -157.5t37.5 -157t133.5 -42q84 0 141 11l7 -44q-74 -22 -158 -22q-125 0 -176 57t-51 197t51 197.5t176 57.5z" />
    <glyph glyph-name="Ccircumflex" unicode="&#x108;" horiz-adv-x="567" 
d="M344 891l133 -124l-23 -28l-130 99h-8l-129 -99l-23 28l133 124h47zM331 702q109 0 184 -19l-8 -49q-76 9 -176 9q-110 0 -153 -65t-43 -233t43 -233t153 -65q114 0 190 11l8 -49q-78 -21 -198 -21q-146 0 -205 80t-59 277t59 277t205 80z" />
    <glyph glyph-name="ccircumflex" unicode="&#x109;" horiz-adv-x="485" 
d="M293 711l133 -124l-23 -28l-130 99h-8l-129 -99l-23 28l133 124h47zM287 497q89 0 149 -22l-10 -41q-53 8 -129 8q-96 0 -133.5 -42.5t-37.5 -157.5t37.5 -157t133.5 -42q84 0 141 11l7 -44q-74 -22 -158 -22q-125 0 -176 57t-51 197t51 197.5t176 57.5z" />
    <glyph glyph-name="Cdotaccent" unicode="&#x10a;" horiz-adv-x="567" 
d="M331 864q21 0 21 -21v-59q0 -20 -21 -20h-21q-21 0 -21 20v59q0 21 21 21h21zM331 702q109 0 184 -19l-8 -49q-76 9 -176 9q-110 0 -153 -65t-43 -233t43 -233t153 -65q114 0 190 11l8 -49q-78 -21 -198 -21q-146 0 -205 80t-59 277t59 277t205 80z" />
    <glyph glyph-name="cdotaccent" unicode="&#x10b;" horiz-adv-x="485" 
d="M280 684q21 0 21 -21v-59q0 -20 -21 -20h-21q-21 0 -21 20v59q0 21 21 21h21zM287 497q89 0 149 -22l-10 -41q-53 8 -129 8q-96 0 -133.5 -42.5t-37.5 -157.5t37.5 -157t133.5 -42q84 0 141 11l7 -44q-74 -22 -158 -22q-125 0 -176 57t-51 197t51 197.5t176 57.5z" />
    <glyph glyph-name="Ccaron" unicode="&#x10c;" horiz-adv-x="567" 
d="M456 900l24 -28l-142 -123h-32l-140 123l23 28l129 -92h8zM331 702q109 0 184 -19l-8 -49q-76 9 -176 9q-110 0 -153 -65t-43 -233t43 -233t153 -65q114 0 190 11l8 -49q-78 -21 -198 -21q-146 0 -205 80t-59 277t59 277t205 80z" />
    <glyph glyph-name="ccaron" unicode="&#x10d;" horiz-adv-x="485" 
d="M405 720l24 -28l-142 -123h-32l-140 123l23 28l129 -92h8zM287 497q89 0 149 -22l-10 -41q-53 8 -129 8q-96 0 -133.5 -42.5t-37.5 -157.5t37.5 -157t133.5 -42q84 0 141 11l7 -44q-74 -22 -158 -22q-125 0 -176 57t-51 197t51 197.5t176 57.5z" />
    <glyph glyph-name="Dcaron" unicode="&#x10e;" horiz-adv-x="662" 
d="M337 749h-32l-140 123l23 28l129 -92h8l130 92l24 -28zM332 699q146 0 204.5 -78.5t58.5 -275.5t-58.5 -275.5t-204.5 -78.5q-113 0 -239 9v690q124 9 239 9zM332 49q109 0 151.5 65t42.5 231t-42.5 231.5t-151.5 65.5q-70 0 -174 -2v-589q100 -2 174 -2z" />
    <glyph glyph-name="dcaron" unicode="&#x10f;" horiz-adv-x="569" 
d="M577 704q13 0 17.5 -5t4.5 -16v-54q0 -62 -26 -122l-27 7q8 56 8 100q-18 0 -16 17v52q0 21 22 21h17zM421 545v155h63v-700h-49l-6 74q-101 -86 -195 -86q-92 0 -132.5 61t-40.5 194q0 138 43 196t138 58q89 0 183 -47q-4 33 -4 95zM127 244q0 -113 28 -156.5t97 -43.5
q41 0 76.5 17t92.5 59v286q-103 35 -166 35q-71 0 -99.5 -42.5t-28.5 -154.5z" />
    <glyph glyph-name="Dcroat" unicode="&#x110;" 
d="M336 699q146 0 204.5 -78.5t58.5 -275.5t-58.5 -275.5t-204.5 -78.5q-113 0 -239 9v349h-73v39h73v302q124 9 239 9zM336 49q109 0 151.5 65t42.5 231t-42.5 231.5t-151.5 65.5q-70 0 -174 -2v-252h163v-39h-163v-298q100 -2 174 -2z" />
    <glyph glyph-name="dcroat" unicode="&#x111;" horiz-adv-x="562" 
d="M554 618v-39h-70v-579h-49l-6 74q-101 -86 -195 -86q-92 0 -132.5 61t-40.5 194q0 138 43 196t138 58q89 0 183 -47q-4 33 -4 95v34h-162v39h162v82h63v-82h70zM127 244q0 -113 28 -156.5t97 -43.5q41 0 76.5 17t92.5 59v286q-103 35 -166 35q-71 0 -99.5 -42.5
t-28.5 -154.5z" />
    <glyph glyph-name="Emacron" unicode="&#x112;" horiz-adv-x="557" 
d="M446 859v-49h-272v49h272zM220 55h280l4 -50q-94 -6 -295 -6q-55 0 -88.5 31t-33.5 83v464q0 52 33.5 83t88.5 31q201 0 295 -6l-4 -50h-280q-67 0 -67 -73v-169h308v-53h-308v-213q0 -72 67 -72z" />
    <glyph glyph-name="emacron" unicode="&#x113;" horiz-adv-x="534" 
d="M416 660v-49h-272v49h272zM294 43q75 0 167 12l7 -43q-61 -24 -183 -24t-173.5 58.5t-51.5 197.5q0 140 50 196.5t167 56.5q103 0 152 -37.5t50 -113.5q2 -135 -111 -135h-241q5 -96 43 -132t124 -36zM280 442q-84 0 -118 -39.5t-36 -141.5h227q64 0 62 84q-1 51 -33 74
t-102 23z" />
    <glyph glyph-name="Ebreve" unicode="&#x114;" horiz-adv-x="557" 
d="M310 767q-69 0 -108.5 34.5t-36.5 90.5l34 6q0 -39 29.5 -60.5t82.5 -21.5q51 0 80 21.5t29 60.5l35 -6q2 -57 -37 -91t-108 -34zM220 55h280l4 -50q-94 -6 -295 -6q-55 0 -88.5 31t-33.5 83v464q0 52 33.5 83t88.5 31q201 0 295 -6l-4 -50h-280q-67 0 -67 -73v-169h308
v-53h-308v-213q0 -72 67 -72z" />
    <glyph glyph-name="ebreve" unicode="&#x115;" horiz-adv-x="534" 
d="M280 568q-69 0 -108.5 34.5t-36.5 90.5l34 6q0 -39 29.5 -60.5t82.5 -21.5q51 0 80 21.5t29 60.5l35 -6q2 -57 -37 -91t-108 -34zM294 43q75 0 167 12l7 -43q-61 -24 -183 -24t-173.5 58.5t-51.5 197.5q0 140 50 196.5t167 56.5q103 0 152 -37.5t50 -113.5
q2 -135 -111 -135h-241q5 -96 43 -132t124 -36zM280 442q-84 0 -118 -39.5t-36 -141.5h227q64 0 62 84q-1 51 -33 74t-102 23z" />
    <glyph glyph-name="Edotaccent" unicode="&#x116;" horiz-adv-x="557" 
d="M299 782q-21 0 -21 20v59q0 21 21 21h21q21 0 21 -21v-59q0 -20 -21 -20h-21zM220 55h280l4 -50q-94 -6 -295 -6q-55 0 -88.5 31t-33.5 83v464q0 52 33.5 83t88.5 31q201 0 295 -6l-4 -50h-280q-67 0 -67 -73v-169h308v-53h-308v-213q0 -72 67 -72z" />
    <glyph glyph-name="edotaccent" unicode="&#x117;" horiz-adv-x="534" 
d="M269 583q-21 0 -21 20v59q0 21 21 21h21q21 0 21 -21v-59q0 -20 -21 -20h-21zM294 43q75 0 167 12l7 -43q-61 -24 -183 -24t-173.5 58.5t-51.5 197.5q0 140 50 196.5t167 56.5q103 0 152 -37.5t50 -113.5q2 -135 -111 -135h-241q5 -96 43 -132t124 -36zM280 442
q-84 0 -118 -39.5t-36 -141.5h227q64 0 62 84q-1 51 -33 74t-102 23z" />
    <glyph glyph-name="Eogonek" unicode="&#x118;" horiz-adv-x="557" 
d="M508 -161l8 -28q-87 -33 -122.5 -7.5t-14.5 81.5q20 61 89 118q-84 -4 -259 -4q-55 0 -88.5 31t-33.5 83v464q0 52 33.5 83t88.5 31q201 0 295 -6l-4 -50h-280q-67 0 -67 -73v-169h308v-53h-308v-213q0 -72 67 -72h280l4 -50q-58 -64 -79 -118q-16 -40 8.5 -53t74.5 5z
" />
    <glyph glyph-name="eogonek" unicode="&#x119;" horiz-adv-x="534" 
d="M472 -153l8 -28q-87 -33 -122.5 -7.5t-14.5 81.5q18 55 76 106q-68 -11 -134 -11q-122 0 -173.5 58.5t-51.5 197.5q0 140 50 196.5t167 56.5q103 0 152 -37.5t50 -113.5q2 -135 -111 -135h-241q5 -96 43 -132t124 -36q75 0 167 12l7 -42v-1q-1 0 -1 -1q-56 -59 -78 -116
q-16 -40 8.5 -53t74.5 5zM280 442q-84 0 -118 -39.5t-36 -141.5h227q64 0 62 84q-1 51 -33 74t-102 23z" />
    <glyph glyph-name="Ecaron" unicode="&#x11a;" horiz-adv-x="557" 
d="M327 767h-32l-140 123l23 28l129 -92h8l130 92l24 -28zM220 55h280l4 -50q-94 -6 -295 -6q-55 0 -88.5 31t-33.5 83v464q0 52 33.5 83t88.5 31q201 0 295 -6l-4 -50h-280q-67 0 -67 -73v-169h308v-53h-308v-213q0 -72 67 -72z" />
    <glyph glyph-name="ecaron" unicode="&#x11b;" horiz-adv-x="534" 
d="M297 568h-32l-140 123l23 28l129 -92h8l130 92l24 -28zM294 43q75 0 167 12l7 -43q-61 -24 -183 -24t-173.5 58.5t-51.5 197.5q0 140 50 196.5t167 56.5q103 0 152 -37.5t50 -113.5q2 -135 -111 -135h-241q5 -96 43 -132t124 -36zM280 442q-84 0 -118 -39.5t-36 -141.5
h227q64 0 62 84q-1 51 -33 74t-102 23z" />
    <glyph glyph-name="Gcircumflex" unicode="&#x11c;" horiz-adv-x="626" 
d="M321 843l-129 -99l-23 28l133 124h47l133 -124l-23 -28l-130 99h-8zM489 399h64v-399h-47l-9 77q-89 -89 -209 -89q-118 0 -169.5 85t-51.5 273q0 201 61 278.5t216 77.5q114 0 194 -19l-8 -49q-90 10 -182 10q-82 0 -126 -25t-65 -89.5t-21 -186.5q0 -162 38 -230
t131 -68q37 0 73 13t57.5 27t53.5 39v275z" />
    <glyph glyph-name="gcircumflex" unicode="&#x11d;" horiz-adv-x="553" 
d="M266 658l-129 -99l-23 28l133 124h47l133 -124l-23 -28l-130 99h-8zM529 484l-4 -36l-81 -5q28 -35 28 -100q0 -79 -46 -115t-156 -36q-70 0 -110 13q-15 -19 -18 -39.5t10.5 -38t44.5 -22.5l186 -31q66 -10 91.5 -41t25.5 -92q0 -82 -49.5 -114t-175.5 -32
q-128 0 -178 31.5t-50 112.5q0 48 18 76.5t64 51.5q-43 27 -41.5 75.5t39.5 76.5q-60 33 -60 124q0 81 46 117.5t157 36.5q69 0 109 -13h150zM270 241q78 0 110 24t32 78q0 56 -32 80t-110 24q-79 0 -111.5 -24t-32.5 -80q0 -54 33 -78t111 -24zM438 -57q0 42 -16.5 58.5
t-68.5 24.5l-181 28l-4 -3q-33 -23 -46 -46t-13 -62q0 -55 35 -74.5t131 -19.5q94 0 128.5 20t34.5 74z" />
    <glyph glyph-name="Gbreve" unicode="&#x11e;" horiz-adv-x="626" 
d="M326 754q-69 0 -108.5 34.5t-36.5 90.5l34 6q0 -39 29.5 -60.5t82.5 -21.5q51 0 80 21.5t29 60.5l35 -6q2 -57 -37 -91t-108 -34zM489 399h64v-399h-47l-9 77q-89 -89 -209 -89q-118 0 -169.5 85t-51.5 273q0 201 61 278.5t216 77.5q114 0 194 -19l-8 -49q-90 10 -182 10
q-82 0 -126 -25t-65 -89.5t-21 -186.5q0 -162 38 -230t131 -68q37 0 73 13t57.5 27t53.5 39v275z" />
    <glyph glyph-name="gbreve" unicode="&#x11f;" horiz-adv-x="553" 
d="M271 569q-69 0 -108.5 34.5t-36.5 90.5l34 6q0 -39 29.5 -60.5t82.5 -21.5q51 0 80 21.5t29 60.5l35 -6q2 -57 -37 -91t-108 -34zM529 484l-4 -36l-81 -5q28 -35 28 -100q0 -79 -46 -115t-156 -36q-70 0 -110 13q-15 -19 -18 -39.5t10.5 -38t44.5 -22.5l186 -31
q66 -10 91.5 -41t25.5 -92q0 -82 -49.5 -114t-175.5 -32q-128 0 -178 31.5t-50 112.5q0 48 18 76.5t64 51.5q-43 27 -41.5 75.5t39.5 76.5q-60 33 -60 124q0 81 46 117.5t157 36.5q69 0 109 -13h150zM270 241q78 0 110 24t32 78q0 56 -32 80t-110 24q-79 0 -111.5 -24
t-32.5 -80q0 -54 33 -78t111 -24zM438 -57q0 42 -16.5 58.5t-68.5 24.5l-181 28l-4 -3q-33 -23 -46 -46t-13 -62q0 -55 35 -74.5t131 -19.5q94 0 128.5 20t34.5 74z" />
    <glyph glyph-name="Gdotaccent" unicode="&#x120;" horiz-adv-x="626" 
d="M315 769q-21 0 -21 20v59q0 21 21 21h21q21 0 21 -21v-59q0 -20 -21 -20h-21zM489 399h64v-399h-47l-9 77q-89 -89 -209 -89q-118 0 -169.5 85t-51.5 273q0 201 61 278.5t216 77.5q114 0 194 -19l-8 -49q-90 10 -182 10q-82 0 -126 -25t-65 -89.5t-21 -186.5
q0 -162 38 -230t131 -68q37 0 73 13t57.5 27t53.5 39v275z" />
    <glyph glyph-name="gdotaccent" unicode="&#x121;" horiz-adv-x="553" 
d="M260 584q-21 0 -21 20v59q0 21 21 21h21q21 0 21 -21v-59q0 -20 -21 -20h-21zM529 484l-4 -36l-81 -5q28 -35 28 -100q0 -79 -46 -115t-156 -36q-70 0 -110 13q-15 -19 -18 -39.5t10.5 -38t44.5 -22.5l186 -31q66 -10 91.5 -41t25.5 -92q0 -82 -49.5 -114t-175.5 -32
q-128 0 -178 31.5t-50 112.5q0 48 18 76.5t64 51.5q-43 27 -41.5 75.5t39.5 76.5q-60 33 -60 124q0 81 46 117.5t157 36.5q69 0 109 -13h150zM270 241q78 0 110 24t32 78q0 56 -32 80t-110 24q-79 0 -111.5 -24t-32.5 -80q0 -54 33 -78t111 -24zM438 -57q0 42 -16.5 58.5
t-68.5 24.5l-181 28l-4 -3q-33 -23 -46 -46t-13 -62q0 -55 35 -74.5t131 -19.5q94 0 128.5 20t34.5 74z" />
    <glyph glyph-name="Gcommaaccent" unicode="&#x122;" horiz-adv-x="626" 
d="M489 399h64v-399h-47l-9 77q-89 -89 -209 -89q-118 0 -169.5 85t-51.5 273q0 201 61 278.5t216 77.5q114 0 194 -19l-8 -49q-90 10 -182 10q-82 0 -126 -25t-65 -89.5t-21 -186.5q0 -162 38 -230t131 -68q37 0 73 13t57.5 27t53.5 39v275zM333 -60q22 0 22 -22v-56
q-2 -72 -27 -126l-27 8q7 49 7 102q-18 0 -16 18v54q1 22 23 22h18z" />
    <glyph glyph-name="gcommaaccent" unicode="&#x123;" horiz-adv-x="553" 
d="M271 559q-22 0 -22 22v56q2 72 27 126l27 -8q-7 -49 -7 -102q18 0 16 -18v-54q-1 -22 -23 -22h-18zM529 484l-4 -36l-81 -5q28 -35 28 -100q0 -79 -46 -115t-156 -36q-70 0 -110 13q-15 -19 -18 -39.5t10.5 -38t44.5 -22.5l186 -31q66 -10 91.5 -41t25.5 -92
q0 -82 -49.5 -114t-175.5 -32q-128 0 -178 31.5t-50 112.5q0 48 18 76.5t64 51.5q-43 27 -41.5 75.5t39.5 76.5q-60 33 -60 124q0 81 46 117.5t157 36.5q69 0 109 -13h150zM270 241q78 0 110 24t32 78q0 56 -32 80t-110 24q-79 0 -111.5 -24t-32.5 -80q0 -54 33 -78t111 -24
zM438 -57q0 42 -16.5 58.5t-68.5 24.5l-181 28l-4 -3q-33 -23 -46 -46t-13 -62q0 -55 35 -74.5t131 -19.5q94 0 128.5 20t34.5 74z" />
    <glyph glyph-name="Hcircumflex" unicode="&#x124;" horiz-adv-x="664" 
d="M328 845l-129 -99l-23 28l133 124h47l133 -124l-23 -28l-130 99h-8zM506 690h65v-690h-65v341h-348v-341h-65v690h65v-293h348v293z" />
    <glyph glyph-name="hcircumflex" unicode="&#x125;" horiz-adv-x="577" 
d="M117 807h-8l-129 -99l-23 28l133 124h47l133 -124l-23 -28zM365 497q64 0 97.5 -34t33.5 -99v-364h-64v347q0 51 -19.5 73t-64.5 22q-44 0 -89 -19.5t-112 -64.5v-358h-63v700h63l2 -201q0 -59 -7 -95q126 93 223 93z" />
    <glyph glyph-name="Hbar" unicode="&#x126;" horiz-adv-x="672" 
d="M649 559v-38h-74v-521h-65v341h-348v-341h-65v521h-74v38h74v131h65v-131h348v131h65v-131h74zM510 397v124h-348v-124h348z" />
    <glyph glyph-name="hbar" unicode="&#x127;" horiz-adv-x="581" 
d="M369 497q64 0 97.5 -34t33.5 -99v-364h-64v347q0 51 -19.5 73t-64.5 22q-44 0 -89 -19.5t-112 -64.5v-358h-63v579h-79v39h79v82h63l1 -82h152v-39h-152l1 -80q0 -59 -7 -95q126 93 223 93z" />
    <glyph glyph-name="Itilde" unicode="&#x128;" horiz-adv-x="251" 
d="M48 875q31 -3 74.5 -30t71.5 -30q29 -3 40.5 10t11.5 45h32q4 -51 -17.5 -78t-59.5 -24q-37 3 -81 31t-66 30q-28 3 -39.5 -11.5t-11.5 -47.5h-32q-4 53 17.5 80.5t59.5 24.5zM158 690v-690h-65v690h65z" />
    <glyph glyph-name="itilde" unicode="&#x129;" horiz-adv-x="239" 
d="M42 695q31 -3 74.5 -30t71.5 -30q29 -3 40.5 10t11.5 45h32q4 -51 -17.5 -78t-59.5 -24q-37 3 -81 31t-66 30q-28 3 -39.5 -11.5t-11.5 -47.5h-32q-4 53 17.5 80.5t59.5 24.5zM151 484v-484h-63v484h63z" />
    <glyph glyph-name="Imacron" unicode="&#x12a;" horiz-adv-x="251" 
d="M261 841v-49h-272v49h272zM158 690v-690h-65v690h65z" />
    <glyph glyph-name="imacron" unicode="&#x12b;" horiz-adv-x="239" 
d="M255 661v-49h-272v49h272zM151 484v-484h-63v484h63z" />
    <glyph glyph-name="Ibreve" unicode="&#x12c;" horiz-adv-x="251" 
d="M235 880l35 -6q2 -57 -37 -91t-108 -34t-108.5 34.5t-36.5 90.5l34 6q0 -39 29.5 -60.5t82.5 -21.5q51 0 80 21.5t29 60.5zM158 690v-690h-65v690h65z" />
    <glyph glyph-name="ibreve" unicode="&#x12d;" horiz-adv-x="239" 
d="M229 700l35 -6q2 -57 -37 -91t-108 -34t-108.5 34.5t-36.5 90.5l34 6q0 -39 29.5 -60.5t82.5 -21.5q51 0 80 21.5t29 60.5zM151 484v-484h-63v484h63z" />
    <glyph glyph-name="Iogonek" unicode="&#x12e;" horiz-adv-x="251" 
d="M156 -166l8 -28q-87 -33 -122.5 -7.5t-14.5 81.5q20 61 92 120h-26v690h65v-690h-6q-58 -64 -79 -118q-16 -40 8.5 -53t74.5 5z" />
    <glyph glyph-name="iogonek" unicode="&#x12f;" horiz-adv-x="239" 
d="M108 584q-21 0 -21 20v59q0 21 21 21h21q21 0 21 -21v-59q0 -20 -21 -20h-21zM151 -166l8 -28q-87 -33 -122.5 -7.5t-14.5 81.5q20 61 92 120h-26v484h63v-484h-4q-58 -64 -79 -118q-16 -40 8.5 -53t74.5 5z" />
    <glyph glyph-name="Idotaccent" unicode="&#x130;" horiz-adv-x="251" 
d="M135 864q21 0 21 -21v-59q0 -20 -21 -20h-21q-21 0 -21 20v59q0 21 21 21h21zM158 690v-690h-65v690h65z" />
    <glyph glyph-name="dotlessi" unicode="&#x131;" horiz-adv-x="239" 
d="M151 484v-484h-63v484h63z" />
    <glyph glyph-name="IJ" unicode="&#x132;" horiz-adv-x="585" 
d="M158 690v-690h-65v690h65zM496 690v-556q0 -142 -130 -142q-40 0 -82 10l7 46h53q86 0 86 84v558h66z" />
    <glyph glyph-name="ij" unicode="&#x133;" horiz-adv-x="477" 
d="M134 688q21 0 21 -21v-58q0 -21 -21 -21h-29q-21 0 -21 21v58q0 21 21 21h29zM373 688q21 0 21 -21v-58q0 -21 -21 -21h-30q-20 0 -20 21v58q0 21 20 21h30zM151 484v-484h-63v484h63zM390 484v-508q0 -110 -84 -182l-35 28q55 70 55 154v508h64z" />
    <glyph glyph-name="Jcircumflex" unicode="&#x134;" horiz-adv-x="334" 
d="M233 894l133 -124l-23 -28l-130 99h-8l-129 -99l-23 28l133 124h47zM245 690v-556q0 -142 -130 -142q-40 0 -82 10l7 46h53q86 0 86 84v558h66z" />
    <glyph glyph-name="jcircumflex" unicode="&#x135;" horiz-adv-x="239" 
d="M142 711l133 -124l-23 -28l-130 99h-8l-129 -99l-23 28l133 124h47zM152 484v-508q0 -110 -84 -182l-35 28q55 70 55 154v508h64z" />
    <glyph glyph-name="Kcommaaccent" unicode="&#x136;" horiz-adv-x="581" 
d="M333 319l224 -319h-74l-235 333h-96q6 -41 6 -78v-255h-65v690h65v-223q0 -41 -6 -80h97l220 303h73l-212 -293q-11 -17 -32 -36v-3q21 -19 35 -39zM320 -60q22 0 22 -22v-56q-2 -72 -27 -126l-27 8q7 49 7 102q-18 0 -16 18v54q1 22 23 22h18z" />
    <glyph glyph-name="kcommaaccent" unicode="&#x137;" horiz-adv-x="497" 
d="M295 239l178 -239h-74l-183 251h-73q4 -37 4 -81v-170h-63v700h63l2 -318q0 -42 -6 -83h72l167 185h75l-162 -181q-15 -19 -30 -28v-2q15 -11 30 -34zM280 -60q22 0 22 -22v-56q-2 -72 -27 -126l-27 8q7 49 7 102q-18 0 -16 18v54q1 22 23 22h18z" />
    <glyph glyph-name="kgreenlandic" unicode="&#x138;" horiz-adv-x="497" 
d="M399 0l-182 227h-74q4 -37 4 -82v-145h-63v484h63l2 -127q0 -41 -6 -83h70l169 210h75l-164 -197q-14 -19 -30 -29v-2q8 -7 30 -34l180 -222h-74z" />
    <glyph glyph-name="Lacute" unicode="&#x139;" horiz-adv-x="511" 
d="M226 915l38 -48l-178 -128l-24 30zM156 690v-562q0 -73 72 -73h257l2 -50q-106 -6 -270 -6q-63 0 -95 33t-32 87v571h66z" />
    <glyph glyph-name="lacute" unicode="&#x13a;" horiz-adv-x="287" 
d="M218 931l38 -48l-178 -128l-24 30zM148 700v-580q0 -70 71 -70h51l7 -48q-27 -10 -80 -10q-52 0 -82 30.5t-30 85.5v592h63z" />
    <glyph glyph-name="Lcommaaccent" unicode="&#x13b;" horiz-adv-x="511" 
d="M156 690v-562q0 -73 72 -73h257l2 -50q-106 -6 -270 -6q-63 0 -95 33t-32 87v571h66zM307 -65q22 0 22 -22v-56q-2 -72 -27 -126l-27 8q7 49 7 102q-18 0 -16 18v54q1 22 23 22h18z" />
    <glyph glyph-name="lcommaaccent" unicode="&#x13c;" horiz-adv-x="287" 
d="M148 700v-580q0 -70 71 -70h51l7 -48q-27 -10 -80 -10q-52 0 -82 30.5t-30 85.5v592h63zM180 -65q22 0 22 -22v-56q-2 -72 -27 -126l-27 8q7 49 7 102q-18 0 -16 18v54q1 22 23 22h18z" />
    <glyph glyph-name="Lcaron" unicode="&#x13d;" horiz-adv-x="511" 
d="M156 690v-562q0 -73 72 -73h257l2 -50q-106 -6 -270 -6q-63 0 -95 33t-32 87v571h66zM331 690q13 0 17.5 -5t4.5 -16v-54q0 -62 -26 -122l-27 7q8 56 8 100q-18 0 -16 17v52q0 21 22 21h17z" />
    <glyph glyph-name="lcaron" unicode="&#x13e;" horiz-adv-x="287" 
d="M254 703q12 0 17 -4.5t5 -16.5v-54q0 -62 -26 -122l-27 7q8 56 8 100q-18 0 -16 17v52q0 21 22 21h17zM148 700v-580q0 -70 71 -70h51l7 -48q-27 -10 -80 -10q-52 0 -82 30.5t-30 85.5v592h63z" />
    <glyph glyph-name="Ldot" unicode="&#x13f;" horiz-adv-x="511" 
d="M156 690v-562q0 -73 72 -73h257l2 -50q-106 -6 -270 -6q-63 0 -95 33t-32 87v571h66zM289 -128q-21 0 -21 21v59q0 20 21 20h21q21 0 21 -20v-59q0 -21 -21 -21h-21z" />
    <glyph glyph-name="ldot" unicode="&#x140;" horiz-adv-x="309" 
d="M148 700v-580q0 -70 71 -70h51l7 -48q-27 -10 -80 -10q-52 0 -82 30.5t-30 85.5v592h63zM257 340q-21 0 -21 21v59q0 20 21 20h21q21 0 21 -20v-59q0 -21 -21 -21h-21z" />
    <glyph glyph-name="Lslash" unicode="&#x141;" horiz-adv-x="517" 
d="M490 55l2 -50q-106 -6 -270 -6q-63 0 -95 33t-32 87v224l-72 -31v42l72 31v305h66v-277l121 51v-42l-121 -51v-243q0 -73 72 -73h257z" />
    <glyph glyph-name="lslash" unicode="&#x142;" horiz-adv-x="318" 
d="M293 50l7 -48q-27 -10 -80 -10q-52 0 -82 30.5t-30 85.5v237l-84 -36v43l84 36v312h63v-286l112 48v-43l-112 -48v-251q0 -70 71 -70h51z" />
    <glyph glyph-name="Nacute" unicode="&#x143;" horiz-adv-x="699" 
d="M463 912l38 -48l-178 -128l-24 30zM606 690v-662q0 -28 -27 -28h-70q-22 0 -32 22l-263 524q-37 77 -39 83h-19q2 -27 2 -83v-546h-65v662q0 28 27 28h68q22 0 32 -22l257 -512l46 -93h21q-3 49 -3 99v528h65z" />
    <glyph glyph-name="nacute" unicode="&#x144;" horiz-adv-x="577" 
d="M439 683l-178 -128l-24 30l164 146zM366 497q130 0 130 -133v-364h-63v347q0 51 -19.5 73t-64.5 22q-44 0 -88.5 -19.5t-113.5 -64.5l1 -358h-64v484h53l4 -80q121 93 225 93z" />
    <glyph glyph-name="Ncommaaccent" unicode="&#x145;" horiz-adv-x="699" 
d="M606 690v-662q0 -28 -27 -28h-70q-22 0 -32 22l-263 524q-37 77 -39 83h-19q2 -27 2 -83v-546h-65v662q0 28 27 28h68q22 0 32 -22l257 -512l46 -93h21q-3 49 -3 99v528h65zM345 -60q22 0 22 -22v-56q-2 -72 -27 -126l-27 8q7 49 7 102q-18 0 -16 18v54q1 22 23 22h18z
" />
    <glyph glyph-name="ncommaaccent" unicode="&#x146;" horiz-adv-x="577" 
d="M366 497q130 0 130 -133v-364h-63v347q0 51 -19.5 73t-64.5 22q-44 0 -88.5 -19.5t-113.5 -64.5l1 -358h-64v484h53l4 -80q121 93 225 93zM300 -60q22 0 22 -22v-56q-2 -72 -27 -126l-27 8q7 49 7 102q-18 0 -16 18v54q1 22 23 22h18z" />
    <glyph glyph-name="Ncaron" unicode="&#x147;" horiz-adv-x="699" 
d="M497 900l24 -28l-142 -123h-32l-140 123l23 28l129 -92h8zM606 690v-662q0 -28 -27 -28h-70q-22 0 -32 22l-263 524q-37 77 -39 83h-19q2 -27 2 -83v-546h-65v662q0 28 27 28h68q22 0 32 -22l257 -512l46 -93h21q-3 49 -3 99v528h65z" />
    <glyph glyph-name="ncaron" unicode="&#x148;" horiz-adv-x="577" 
d="M317 568h-32l-140 123l23 28l129 -92h8l130 92l24 -28zM366 497q130 0 130 -133v-364h-63v347q0 51 -19.5 73t-64.5 22q-44 0 -88.5 -19.5t-113.5 -64.5l1 -358h-64v484h53l4 -80q121 93 225 93z" />
    <glyph glyph-name="Eng" unicode="&#x14a;" horiz-adv-x="699" 
d="M606 690v-777q0 -64 -34 -98t-96 -33q-43 0 -80 10l7 41h53q88 0 88 85v82h-34q-13 0 -24 20l-273 517q-19 38 -39 83h-18q2 -28 2 -85v-535h-65v662q0 28 27 28h58q20 0 32 -22l266 -502q12 -22 46 -94h21q-2 66 -2 98v520h65z" />
    <glyph glyph-name="eng" unicode="&#x14b;" horiz-adv-x="577" 
d="M365 497q131 0 131 -133v-439q0 -65 -30 -99t-89 -33q-33 0 -74 11l7 40h45q78 0 78 85v418q0 48 -20 69.5t-66 21.5q-73 0 -200 -81l1 -357h-64v484h49l6 -83q120 96 226 96z" />
    <glyph glyph-name="Omacron" unicode="&#x14c;" 
d="M470 841v-49h-272v49h272zM333 702q148 0 207 -78.5t59 -278.5t-59 -278.5t-207 -78.5t-207 78.5t-59 278.5t59 278.5t207 78.5zM333 644q-111 0 -154.5 -65.5t-43.5 -233.5t43.5 -233.5t154.5 -65.5t154 65.5t43 233.5t-43 233.5t-154 65.5z" />
    <glyph glyph-name="omacron" unicode="&#x14d;" horiz-adv-x="565" 
d="M419 658v-49h-272v49h272zM283 497q122 0 172 -57.5t50 -197.5t-50 -197t-172 -57t-172.5 57.5t-50.5 196.5q0 140 50.5 197.5t172.5 57.5zM283 442q-88 0 -122 -43t-34 -157t34 -157t122 -43t122 43t34 157t-34 157t-122 43z" />
    <glyph glyph-name="Obreve" unicode="&#x14e;" 
d="M444 880l35 -6q2 -57 -37 -91t-108 -34t-108.5 34.5t-36.5 90.5l34 6q0 -39 29.5 -60.5t82.5 -21.5q51 0 80 21.5t29 60.5zM333 702q148 0 207 -78.5t59 -278.5t-59 -278.5t-207 -78.5t-207 78.5t-59 278.5t59 278.5t207 78.5zM333 644q-111 0 -154.5 -65.5t-43.5 -233.5
t43.5 -233.5t154.5 -65.5t154 65.5t43 233.5t-43 233.5t-154 65.5z" />
    <glyph glyph-name="obreve" unicode="&#x14f;" horiz-adv-x="565" 
d="M393 697l35 -6q2 -57 -37 -91t-108 -34t-108.5 34.5t-36.5 90.5l34 6q0 -39 29.5 -60.5t82.5 -21.5q51 0 80 21.5t29 60.5zM283 497q122 0 172 -57.5t50 -197.5t-50 -197t-172 -57t-172.5 57.5t-50.5 196.5q0 140 50.5 197.5t172.5 57.5zM283 442q-88 0 -122 -43
t-34 -157t34 -157t122 -43t122 43t34 157t-34 157t-122 43z" />
    <glyph glyph-name="Ohungarumlaut" unicode="&#x150;" 
d="M321 921l48 -33l-129 -157l-30 22zM476 921l48 -33l-128 -157l-30 22zM333 702q148 0 207 -78.5t59 -278.5t-59 -278.5t-207 -78.5t-207 78.5t-59 278.5t59 278.5t207 78.5zM333 644q-111 0 -154.5 -65.5t-43.5 -233.5t43.5 -233.5t154.5 -65.5t154 65.5t43 233.5
t-43 233.5t-154 65.5z" />
    <glyph glyph-name="ohungarumlaut" unicode="&#x151;" horiz-adv-x="565" 
d="M270 738l48 -33l-129 -157l-30 22zM425 738l48 -33l-128 -157l-30 22zM283 497q122 0 172 -57.5t50 -197.5t-50 -197t-172 -57t-172.5 57.5t-50.5 196.5q0 140 50.5 197.5t172.5 57.5zM283 442q-88 0 -122 -43t-34 -157t34 -157t122 -43t122 43t34 157t-34 157t-122 43z
" />
    <glyph glyph-name="OE" unicode="&#x152;" horiz-adv-x="905" 
d="M588 55h261l2 -50q-92 -6 -288 -6q-39 0 -67 22q-73 -33 -163 -33q-148 0 -207 78.5t-59 278.5t59 278.5t207 78.5q90 0 165 -32q28 21 69 21q193 0 284 -6l-2 -50h-261q-72 0 -72 -73v-168l292 -1v-53l-292 -1v-212q0 -72 72 -72zM135 345q0 -168 43.5 -233.5
t154.5 -65.5q73 0 127 20q-10 27 -10 53v452q0 29 11 53q-60 20 -128 20q-111 0 -154.5 -64.5t-43.5 -234.5z" />
    <glyph glyph-name="oe" unicode="&#x153;" horiz-adv-x="913" 
d="M674 43q74 0 166 12l7 -43q-61 -24 -183 -24q-143 0 -191 83q-46 -83 -190 -83q-122 0 -172.5 57.5t-50.5 196.5q0 140 50.5 197.5t172.5 57.5q141 0 188 -81q46 81 182 81q204 0 206 -145q1 -78 -33 -108.5t-116 -30.5h-204q5 -98 43 -134t125 -36zM283 42q88 0 122 43
t34 157t-34 157t-122 43t-122 -43t-34 -157t34 -157t122 -43zM655 442q-81 0 -114.5 -40t-35.5 -140h202q50 0 69.5 20t18.5 69q-4 91 -140 91z" />
    <glyph glyph-name="Racute" unicode="&#x154;" horiz-adv-x="614" 
d="M442 864l-178 -128l-24 30l164 146zM494 219l70 -219h-70l-66 217q-28 79 -99 79q-91 0 -171 2v-298h-65v690q83 8 231 8q119 0 167 -41.5t48 -155.5q0 -87 -29.5 -128.5t-97.5 -51.5v-4q27 -8 49 -33.5t33 -64.5zM324 353q84 1 116.5 31.5t32.5 113.5q0 84 -32.5 114
t-116.5 30q-86 0 -166 -2v-287h166z" />
    <glyph glyph-name="racute" unicode="&#x155;" horiz-adv-x="394" 
d="M360 684l-178 -128l-24 30l164 146zM354 497h21l-8 -60h-24q-42 0 -84.5 -17.5t-110.5 -56.5v-363h-64v484h49l7 -81q118 94 214 94z" />
    <glyph glyph-name="Rcommaaccent" unicode="&#x156;" horiz-adv-x="614" 
d="M494 219l70 -219h-70l-66 217q-28 79 -99 79q-91 0 -171 2v-298h-65v690q83 8 231 8q119 0 167 -41.5t48 -155.5q0 -87 -29.5 -128.5t-97.5 -51.5v-4q27 -8 49 -33.5t33 -64.5zM324 353q84 1 116.5 31.5t32.5 113.5q0 84 -32.5 114t-116.5 30q-86 0 -166 -2v-287h166z
M337 -60q22 0 22 -22v-56q-2 -72 -27 -126l-27 8q7 49 7 102q-18 0 -16 18v54q1 22 23 22h18z" />
    <glyph glyph-name="rcommaaccent" unicode="&#x157;" horiz-adv-x="394" 
d="M354 497h21l-8 -60h-24q-42 0 -84.5 -17.5t-110.5 -56.5v-363h-64v484h49l7 -81q118 94 214 94zM118 -60q22 0 22 -22v-56q-2 -72 -27 -126l-27 8q7 49 7 102q-18 0 -16 18v54q1 22 23 22h18z" />
    <glyph glyph-name="Rcaron" unicode="&#x158;" horiz-adv-x="614" 
d="M320 749h-32l-140 123l23 28l129 -92h8l130 92l24 -28zM494 219l70 -219h-70l-66 217q-28 79 -99 79q-91 0 -171 2v-298h-65v690q83 8 231 8q119 0 167 -41.5t48 -155.5q0 -87 -29.5 -128.5t-97.5 -51.5v-4q27 -8 49 -33.5t33 -64.5zM324 353q84 1 116.5 31.5t32.5 113.5
q0 84 -32.5 114t-116.5 30q-86 0 -166 -2v-287h166z" />
    <glyph glyph-name="rcaron" unicode="&#x159;" horiz-adv-x="394" 
d="M238 569h-32l-140 123l23 28l129 -92h8l130 92l24 -28zM140 403q118 94 214 94h21l-8 -60h-24q-42 0 -84.5 -17.5t-110.5 -56.5v-363h-64v484h49z" />
    <glyph glyph-name="Sacute" unicode="&#x15a;" horiz-adv-x="559" 
d="M384 912l38 -48l-178 -128l-24 30zM277 701q111 0 199 -16l-5 -48q-118 6 -191 6q-49 0 -72 -2.5t-45.5 -14.5t-30 -37t-7.5 -69q0 -62 21.5 -89.5t73.5 -37.5l144 -30q77 -15 108.5 -59.5t31.5 -129.5q0 -60 -13 -97t-43 -56t-68 -25.5t-100 -6.5q-114 0 -210 15l4 49
q124 -6 208 -6q91 1 123 25t32 103q0 65 -21.5 92t-74.5 37l-147 31q-73 15 -104 59.5t-31 127.5q0 60 12 96.5t42 54.5t66 23.5t98 4.5z" />
    <glyph glyph-name="sacute" unicode="&#x15b;" horiz-adv-x="505" 
d="M357 732l38 -48l-178 -128l-24 30zM240 497q110 -2 198 -15l-6 -46q-120 6 -184 6q-80 1 -106 -11.5t-26 -65.5q0 -41 17 -57t57 -24l149 -28q58 -12 85 -41.5t27 -88.5q0 -85 -45.5 -111t-155.5 -26q-99 0 -185 13l5 47q79 -7 169 -6q89 1 119.5 16.5t30.5 66.5
q0 39 -19 55t-60 24l-148 28q-57 11 -82.5 41.5t-25.5 90.5q0 82 41.5 107.5t144.5 24.5z" />
    <glyph glyph-name="Scircumflex" unicode="&#x15c;" horiz-adv-x="559" 
d="M306 891l133 -124l-23 -28l-130 99h-8l-129 -99l-23 28l133 124h47zM277 701q111 0 199 -16l-5 -48q-118 6 -191 6q-49 0 -72 -2.5t-45.5 -14.5t-30 -37t-7.5 -69q0 -62 21.5 -89.5t73.5 -37.5l144 -30q77 -15 108.5 -59.5t31.5 -129.5q0 -60 -13 -97t-43 -56t-68 -25.5
t-100 -6.5q-114 0 -210 15l4 49q124 -6 208 -6q91 1 123 25t32 103q0 65 -21.5 92t-74.5 37l-147 31q-73 15 -104 59.5t-31 127.5q0 60 12 96.5t42 54.5t66 23.5t98 4.5z" />
    <glyph glyph-name="scircumflex" unicode="&#x15d;" horiz-adv-x="505" 
d="M279 711l133 -124l-23 -28l-130 99h-8l-129 -99l-23 28l133 124h47zM240 497q110 -2 198 -15l-6 -46q-120 6 -184 6q-80 1 -106 -11.5t-26 -65.5q0 -41 17 -57t57 -24l149 -28q58 -12 85 -41.5t27 -88.5q0 -85 -45.5 -111t-155.5 -26q-99 0 -185 13l5 47q79 -7 169 -6
q89 1 119.5 16.5t30.5 66.5q0 39 -19 55t-60 24l-148 28q-57 11 -82.5 41.5t-25.5 90.5q0 82 41.5 107.5t144.5 24.5z" />
    <glyph glyph-name="Scedilla" unicode="&#x15e;" horiz-adv-x="559" 
d="M277 701q111 0 199 -16l-5 -48q-118 6 -191 6q-49 0 -72 -2.5t-45.5 -14.5t-30 -37t-7.5 -69q0 -62 21.5 -89.5t73.5 -37.5l144 -30q77 -15 108.5 -59.5t31.5 -129.5q0 -60 -13 -97t-43 -56t-68 -25.5t-100 -6.5q-114 0 -210 15l4 49q124 -6 208 -6q91 1 123 25t32 103
q0 65 -21.5 92t-74.5 37l-147 31q-73 15 -104 59.5t-31 127.5q0 60 12 96.5t42 54.5t66 23.5t98 4.5zM246 -56q52 5 76 -9.5t23 -55.5q-2 -60 -45.5 -92.5t-111.5 -23.5l10 35q44 -1 71.5 21t28.5 56q0 21 -12.5 29t-46.5 9z" />
    <glyph glyph-name="scedilla" unicode="&#x15f;" horiz-adv-x="505" 
d="M240 497q110 -2 198 -15l-6 -46q-120 6 -184 6q-80 1 -106 -11.5t-26 -65.5q0 -41 17 -57t57 -24l149 -28q58 -12 85 -41.5t27 -88.5q0 -85 -45.5 -111t-155.5 -26q-99 0 -185 13l5 47q79 -7 169 -6q89 1 119.5 16.5t30.5 66.5q0 39 -19 55t-60 24l-148 28
q-57 11 -82.5 41.5t-25.5 90.5q0 82 41.5 107.5t144.5 24.5zM211 -56q52 5 76 -9.5t23 -55.5q-2 -60 -45.5 -92.5t-111.5 -23.5l10 35q44 -1 71.5 21t28.5 56q0 21 -12.5 29t-46.5 9z" />
    <glyph glyph-name="Scaron" unicode="&#x160;" horiz-adv-x="559" 
d="M418 900l24 -28l-142 -123h-32l-140 123l23 28l129 -92h8zM277 701q111 0 199 -16l-5 -48q-118 6 -191 6q-49 0 -72 -2.5t-45.5 -14.5t-30 -37t-7.5 -69q0 -62 21.5 -89.5t73.5 -37.5l144 -30q77 -15 108.5 -59.5t31.5 -129.5q0 -60 -13 -97t-43 -56t-68 -25.5t-100 -6.5
q-114 0 -210 15l4 49q124 -6 208 -6q91 1 123 25t32 103q0 65 -21.5 92t-74.5 37l-147 31q-73 15 -104 59.5t-31 127.5q0 60 12 96.5t42 54.5t66 23.5t98 4.5z" />
    <glyph glyph-name="scaron" unicode="&#x161;" horiz-adv-x="505" 
d="M391 720l24 -28l-142 -123h-32l-140 123l23 28l129 -92h8zM240 497q110 -2 198 -15l-6 -46q-120 6 -184 6q-80 1 -106 -11.5t-26 -65.5q0 -41 17 -57t57 -24l149 -28q58 -12 85 -41.5t27 -88.5q0 -85 -45.5 -111t-155.5 -26q-99 0 -185 13l5 47q79 -7 169 -6
q89 1 119.5 16.5t30.5 66.5q0 39 -19 55t-60 24l-148 28q-57 11 -82.5 41.5t-25.5 90.5q0 82 41.5 107.5t144.5 24.5z" />
    <glyph glyph-name="uni0162" unicode="&#x162;" horiz-adv-x="575" 
d="M550 690v-58h-230v-632h-66v632h-229v58h525zM250 -45q52 5 76 -9.5t23 -55.5q-2 -60 -45.5 -92.5t-111.5 -23.5l10 35q44 -1 71.5 21t28.5 56q0 21 -12.5 29t-46.5 9z" />
    <glyph glyph-name="uni0163" unicode="&#x163;" horiz-adv-x="369" 
d="M344 434h-164v-314q0 -70 71 -70h79l8 -48q-50 -10 -101 -10q-120 0 -120 121v321h-88v45l88 5v147h63v-147h164v-50zM204 -53q52 5 76 -9.5t23 -55.5q-2 -60 -45.5 -92.5t-111.5 -23.5l10 35q44 -1 71.5 21t28.5 56q0 21 -12.5 29t-46.5 9z" />
    <glyph glyph-name="Tcaron" unicode="&#x164;" horiz-adv-x="575" 
d="M305 749h-32l-140 123l23 28l129 -92h8l130 92l24 -28zM550 690v-58h-230v-632h-66v632h-229v58h525z" />
    <glyph glyph-name="tcaron" unicode="&#x165;" horiz-adv-x="369" 
d="M282 665q-18 0 -16 17v52q0 21 22 21h17q13 0 17.5 -4.5t4.5 -16.5v-54q0 -62 -26 -122l-27 7q8 56 8 100zM344 434h-164v-314q0 -70 71 -70h79l8 -48q-50 -10 -101 -10q-120 0 -120 121v321h-88v45l88 5v147h63v-147h164v-50z" />
    <glyph glyph-name="Tbar" unicode="&#x166;" horiz-adv-x="575" 
d="M550 632h-230v-230h143v-39h-143v-363h-66v363h-146v39h146v230h-229v58h525v-58z" />
    <glyph glyph-name="tbar" unicode="&#x167;" horiz-adv-x="369" 
d="M344 434h-164v-124h140v-38h-140v-152q0 -70 71 -70h79l8 -48q-50 -10 -101 -10q-120 0 -120 121v159h-68v38h68v124h-88v45l88 5v147h63v-147h164v-50z" />
    <glyph glyph-name="Utilde" unicode="&#x168;" horiz-adv-x="667" 
d="M258 875q31 -3 74.5 -30t71.5 -30q29 -3 40.5 10t11.5 45h32q4 -51 -17.5 -78t-59.5 -24q-37 3 -81 31t-66 30q-28 3 -39.5 -11.5t-11.5 -47.5h-32q-4 53 17.5 80.5t59.5 24.5zM579 690v-429q0 -149 -55 -211t-188 -62q-136 0 -192 62t-56 211v429h65v-429
q0 -119 40.5 -167t140.5 -48q99 0 139 48t40 167v429h66z" />
    <glyph glyph-name="utilde" unicode="&#x169;" horiz-adv-x="567" 
d="M161 592h-32q-4 53 17.5 80.5t59.5 24.5q31 -3 74.5 -30t71.5 -30q29 -3 40.5 10t11.5 45h32q4 -51 -17.5 -78t-59.5 -24q-37 3 -81 31t-66 30q-28 3 -39.5 -11.5t-11.5 -47.5zM419 484h63v-484h-50l-5 76q-112 -88 -215 -88q-131 0 -131 132v364h63v-347q0 -50 21 -72
t68 -22q41 0 82.5 18.5t103.5 60.5v362z" />
    <glyph glyph-name="Umacron" unicode="&#x16a;" horiz-adv-x="667" 
d="M471 841v-49h-272v49h272zM579 690v-429q0 -149 -55 -211t-188 -62q-136 0 -192 62t-56 211v429h65v-429q0 -119 40.5 -167t140.5 -48q99 0 139 48t40 167v429h66z" />
    <glyph glyph-name="umacron" unicode="&#x16b;" horiz-adv-x="567" 
d="M419 663v-49h-272v49h272zM419 484h63v-484h-50l-5 76q-112 -88 -215 -88q-131 0 -131 132v364h63v-347q0 -50 21 -72t68 -22q41 0 82.5 18.5t103.5 60.5v362z" />
    <glyph glyph-name="Ubreve" unicode="&#x16c;" horiz-adv-x="667" 
d="M445 880l35 -6q2 -57 -37 -91t-108 -34t-108.5 34.5t-36.5 90.5l34 6q0 -39 29.5 -60.5t82.5 -21.5q51 0 80 21.5t29 60.5zM579 690v-429q0 -149 -55 -211t-188 -62q-136 0 -192 62t-56 211v429h65v-429q0 -119 40.5 -167t140.5 -48q99 0 139 48t40 167v429h66z" />
    <glyph glyph-name="ubreve" unicode="&#x16d;" horiz-adv-x="567" 
d="M283 571q-69 0 -108.5 34.5t-36.5 90.5l34 6q0 -39 29.5 -60.5t82.5 -21.5q51 0 80 21.5t29 60.5l35 -6q2 -57 -37 -91t-108 -34zM419 484h63v-484h-50l-5 76q-112 -88 -215 -88q-131 0 -131 132v364h63v-347q0 -50 21 -72t68 -22q41 0 82.5 18.5t103.5 60.5v362z" />
    <glyph glyph-name="Uring" unicode="&#x16e;" horiz-adv-x="667" 
d="M335 923q42 0 72.5 -29.5t30.5 -71.5q0 -41 -30 -71t-73 -30t-73 29t-30 72q0 42 30 71.5t73 29.5zM335 888q-29 0 -47 -18.5t-18 -47.5q0 -30 18.5 -48t46.5 -18t46.5 18.5t18.5 47.5t-19 47.5t-46 18.5zM579 690v-429q0 -149 -55 -211t-188 -62q-136 0 -192 62t-56 211
v429h65v-429q0 -119 40.5 -167t140.5 -48q99 0 139 48t40 167v429h66z" />
    <glyph glyph-name="uring" unicode="&#x16f;" horiz-adv-x="567" 
d="M283 543q-43 0 -73 29t-30 72q0 42 30 71.5t73 29.5q42 0 72.5 -29.5t30.5 -71.5q0 -41 -30 -71t-73 -30zM283 710q-29 0 -47 -18.5t-18 -47.5q0 -30 18.5 -48t46.5 -18t46.5 18.5t18.5 47.5t-19 47.5t-46 18.5zM419 484h63v-484h-50l-5 76q-112 -88 -215 -88
q-131 0 -131 132v364h63v-347q0 -50 21 -72t68 -22q41 0 82.5 18.5t103.5 60.5v362z" />
    <glyph glyph-name="Uhungarumlaut" unicode="&#x170;" horiz-adv-x="667" 
d="M322 921l48 -33l-129 -157l-30 22zM477 921l48 -33l-128 -157l-30 22zM579 690v-429q0 -149 -55 -211t-188 -62q-136 0 -192 62t-56 211v429h65v-429q0 -119 40.5 -167t140.5 -48q99 0 139 48t40 167v429h66z" />
    <glyph glyph-name="uhungarumlaut" unicode="&#x171;" horiz-adv-x="567" 
d="M318 710l-129 -157l-30 22l111 168zM345 553l-30 22l110 168l48 -33zM419 484h63v-484h-50l-5 76q-112 -88 -215 -88q-131 0 -131 132v364h63v-347q0 -50 21 -72t68 -22q41 0 82.5 18.5t103.5 60.5v362z" />
    <glyph glyph-name="Uogonek" unicode="&#x172;" horiz-adv-x="667" 
d="M513 690h66v-429q0 -139 -47 -202t-160 -70q-55 -61 -77 -116q-16 -40 8.5 -53t74.5 5l8 -28q-87 -33 -122.5 -7.5t-14.5 81.5q20 59 88 117h-1q-136 0 -192 62t-56 211v429h65v-429q0 -119 40.5 -167t140.5 -48q99 0 139 48t40 167v429z" />
    <glyph glyph-name="uogonek" unicode="&#x173;" horiz-adv-x="567" 
d="M488 -166l8 -28q-87 -33 -122.5 -7.5t-14.5 81.5q20 61 92 120h-19l-5 76q-112 -88 -215 -88q-131 0 -131 132v364h63v-347q0 -50 21 -72t68 -22q41 0 82.5 18.5t103.5 60.5v362h63v-484h2q-58 -64 -79 -118q-16 -40 8.5 -53t74.5 5z" />
    <glyph glyph-name="Wcircumflex" unicode="&#x174;" horiz-adv-x="941" 
d="M495 891l133 -124l-23 -28l-130 99h-8l-129 -99l-23 28l133 124h47zM910 690l-156 -670q-5 -20 -27 -20h-79q-23 0 -28 21l-121 541q-13 57 -17 77h-22l-18 -77l-121 -541q-5 -21 -27 -21h-80q-22 0 -27 20l-155 670h69l126 -559q8 -33 16 -80h25q8 43 16 79l122 537
q5 23 27 23h75q22 0 27 -23l122 -537q5 -21 16 -79h26q2 9 4.5 25t5 29t5.5 24l127 561h69z" />
    <glyph glyph-name="wcircumflex" unicode="&#x175;" horiz-adv-x="820" 
d="M433 711l133 -124l-23 -28l-130 99h-8l-129 -99l-23 28l133 124h47zM792 484l-151 -465q-6 -19 -26 -19h-59q-21 0 -26 21l-96 347q-3 12 -9 37t-10 38h-11q-3 -12 -9.5 -37t-9.5 -38l-95 -347q-5 -21 -27 -21h-58q-21 0 -26 19l-151 465h66l114 -371q5 -17 19 -70h13
q3 13 9.5 36.5t9.5 33.5l97 351q5 20 25 20h58q20 0 25 -21l97 -350l18 -70h14q15 58 18 70l115 371h66z" />
    <glyph glyph-name="Ycircumflex" unicode="&#x176;" horiz-adv-x="559" 
d="M275 832l-129 -99l-23 28l133 124h47l133 -124l-23 -28l-130 99h-8zM543 690l-231 -442v-248h-65v248l-232 442h70l158 -306q13 -26 33 -74h7q13 31 33 73l158 307h69z" />
    <glyph glyph-name="ycircumflex" unicode="&#x177;" horiz-adv-x="521" 
d="M258 658l-129 -99l-23 28l133 124h47l133 -124l-23 -28l-130 99h-8zM430 484h68l-204 -518q-29 -74 -73 -119.5t-119 -53.5l-8 41q57 19 89 53t52 86l12 27h-16q-19 0 -25 17l-184 467h68l143 -378q16 -42 20 -56h14q2 6 6.5 18t8 21.5t6.5 17.5z" />
    <glyph glyph-name="Ydieresis" unicode="&#x178;" horiz-adv-x="559" 
d="M180 765q-18 0 -18 19v55q0 20 18 20h22q19 0 19 -20v-55q0 -19 -19 -19h-22zM358 765q-19 0 -19 19v55q0 20 19 20h21q19 0 19 -20v-55q0 -19 -19 -19h-21zM543 690l-231 -442v-248h-65v248l-232 442h70l158 -306q13 -26 33 -74h7q13 31 33 73l158 307h69z" />
    <glyph glyph-name="Zacute" unicode="&#x179;" horiz-adv-x="563" 
d="M419 864l-178 -128l-24 30l164 146zM123 56h392v-56h-465v56l386 578h-382v56h455v-56z" />
    <glyph glyph-name="zacute" unicode="&#x17a;" horiz-adv-x="506" 
d="M390 684l-178 -128l-24 30l164 146zM123 53h333v-53h-406v53l330 379h-326v52h398v-52z" />
    <glyph glyph-name="Zdotaccent" unicode="&#x17b;" horiz-adv-x="563" 
d="M269 764q-21 0 -21 20v59q0 21 21 21h21q21 0 21 -21v-59q0 -20 -21 -20h-21zM123 56h392v-56h-465v56l386 578h-382v56h455v-56z" />
    <glyph glyph-name="zdotaccent" unicode="&#x17c;" horiz-adv-x="506" 
d="M240 584q-21 0 -21 20v59q0 21 21 21h21q21 0 21 -21v-59q0 -20 -21 -20h-21zM123 53h333v-53h-406v53l330 379h-326v52h398v-52z" />
    <glyph glyph-name="Zcaron" unicode="&#x17d;" horiz-adv-x="563" 
d="M297 749h-32l-140 123l23 28l129 -92h8l130 92l24 -28zM123 56h392v-56h-465v56l386 578h-382v56h455v-56z" />
    <glyph glyph-name="zcaron" unicode="&#x17e;" horiz-adv-x="506" 
d="M268 569h-32l-140 123l23 28l129 -92h8l130 92l24 -28zM123 53h333v-53h-406v53l330 379h-326v52h398v-52z" />
    <glyph glyph-name="uni018F" unicode="&#x18f;" horiz-adv-x="630" 
d="M300 702q152 0 208 -83.5t56 -275.5q0 -191 -55.5 -273t-201.5 -82q-126 0 -185 56.5t-61 153.5q-2 182 165 182h268q-4 143 -47 203t-152 60q-90 0 -209 -17l-9 45q96 31 223 31zM303 47q106 0 148 64.5t44 208.5h-269q-50 0 -74 -33.5t-23 -88.5q3 -151 174 -151z" />
    <glyph glyph-name="florin" unicode="&#x192;" horiz-adv-x="428" 
d="M335 646q-51 0 -73.5 -19.5t-26.5 -71.5l-15 -162h151l-5 -51h-151l-33 -343q-6 -70 -39 -104.5t-102 -34.5q-62 0 -93 6l7 47h69q48 0 69 20.5t26 71.5l32 337h-97l3 47l99 4l16 168q12 139 148 139q56 0 93 -6l-7 -48h-71z" />
    <glyph glyph-name="Ohorn" unicode="&#x1a0;" 
d="M660 719q-2 -47 -30.5 -80.5t-71.5 -44.5q41 -81 41 -249q0 -200 -59 -278.5t-207 -78.5t-207 78.5t-59 278.5q0 199 59 278t207 79q147 0 206 -77q66 17 73 99zM333 46q111 0 154 65.5t43 233.5t-43 233.5t-154 65.5t-154.5 -65.5t-43.5 -233.5t43.5 -233.5t154.5 -65.5
z" />
    <glyph glyph-name="ohorn" unicode="&#x1a1;" horiz-adv-x="573" 
d="M574 541q-2 -47 -30.5 -80.5t-71.5 -45.5q33 -57 33 -173q0 -140 -50 -197t-172 -57t-172.5 57.5t-50.5 196.5q0 140 50.5 197.5t172.5 57.5q116 0 166 -51q33 7 53.5 34t23.5 66zM283 42q88 0 122 43t34 157t-34 157t-122 43t-122 -43t-34 -157t34 -157t122 -43z" />
    <glyph glyph-name="Uhorn" unicode="&#x1af;" horiz-adv-x="685" 
d="M702 719q-2 -53 -37.5 -88.5t-85.5 -40.5v-329q0 -149 -55 -211t-188 -62q-136 0 -192 62t-56 211v429h65v-429q0 -119 40.5 -167t140.5 -48q99 0 139 48t40 167v429h66v-66q33 8 52.5 34.5t22.5 65.5z" />
    <glyph glyph-name="uhorn" unicode="&#x1b0;" horiz-adv-x="584" 
d="M604 540q-2 -53 -37 -88.5t-85 -40.5v-411h-50l-5 76q-112 -88 -215 -88q-131 0 -131 132v364h63v-347q0 -50 21 -72t68 -22q41 0 82.5 18.5t103.5 60.5v362h63v-38q67 16 74 99z" />
    <glyph glyph-name="uni01C4" unicode="&#x1c4;" horiz-adv-x="1218" 
d="M952 749h-32l-140 123l23 28l129 -92h8l130 92l24 -28zM332 699q146 0 204.5 -78.5t58.5 -275.5t-58.5 -275.5t-204.5 -78.5q-113 0 -239 9v690q124 9 239 9zM778 56h392v-56h-465v56l386 578h-382v56h455v-56zM332 49q109 0 151.5 65t42.5 231t-42.5 231.5t-151.5 65.5
q-70 0 -174 -2v-589q100 -2 174 -2z" />
    <glyph glyph-name="uni01C5" unicode="&#x1c5;" horiz-adv-x="1168" 
d="M930 569h-32l-140 123l23 28l129 -92h8l130 92l24 -28zM332 699q146 0 204.5 -78.5t58.5 -275.5t-58.5 -275.5t-204.5 -78.5q-113 0 -239 9v690q124 9 239 9zM332 49q109 0 151.5 65t42.5 231t-42.5 231.5t-151.5 65.5q-70 0 -174 -2v-589q100 -2 174 -2zM785 53h333v-53
h-406v53l330 379h-326v52h398v-52z" />
    <glyph glyph-name="uni01C6" unicode="&#x1c6;" horiz-adv-x="1075" 
d="M837 569h-32l-140 123l23 28l129 -92h8l130 92l24 -28zM421 545v155h63v-700h-49l-6 74q-101 -86 -195 -86q-92 0 -132.5 61t-40.5 194q0 138 43 196t138 58q89 0 183 -47q-4 33 -4 95zM692 53h333v-53h-406v53l330 379h-326v52h398v-52zM127 244q0 -113 28 -156.5
t97 -43.5q41 0 76.5 17t92.5 59v286q-103 35 -166 35q-71 0 -99.5 -42.5t-28.5 -154.5z" />
    <glyph glyph-name="uni01C7" unicode="&#x1c7;" horiz-adv-x="845" 
d="M156 690v-562q0 -73 72 -73h257l2 -50q-106 -6 -270 -6q-63 0 -95 33t-32 87v571h66zM756 690v-556q0 -142 -130 -142q-40 0 -82 10l7 46h53q86 0 86 84v558h66z" />
    <glyph glyph-name="uni01C8" unicode="&#x1c8;" horiz-adv-x="750" 
d="M156 690v-562q0 -73 72 -73h257l2 -50q-106 -6 -270 -6q-63 0 -95 33t-32 87v571h66zM646 688q21 0 21 -21v-58q0 -21 -21 -21h-30q-20 0 -20 21v58q0 21 20 21h30zM663 484v-508q0 -110 -84 -182l-35 28q55 70 55 154v508h64z" />
    <glyph glyph-name="uni01C9" unicode="&#x1c9;" horiz-adv-x="526" 
d="M148 700v-580q0 -70 71 -70h51l7 -48q-27 -10 -80 -10q-52 0 -82 30.5t-30 85.5v592h63zM422 688q21 0 21 -21v-58q0 -21 -21 -21h-30q-20 0 -20 21v58q0 21 20 21h30zM439 484v-508q0 -110 -84 -182l-35 28q55 70 55 154v508h64z" />
    <glyph glyph-name="uni01CA" unicode="&#x1ca;" horiz-adv-x="1033" 
d="M606 690v-662q0 -28 -27 -28h-70q-22 0 -32 22l-263 524q-37 77 -39 83h-19q2 -27 2 -83v-546h-65v662q0 28 27 28h68q22 0 32 -22l257 -512l46 -93h21q-3 49 -3 99v528h65zM944 690v-556q0 -142 -130 -142q-40 0 -82 10l7 46h53q86 0 86 84v558h66z" />
    <glyph glyph-name="uni01CB" unicode="&#x1cb;" horiz-adv-x="938" 
d="M606 690v-662q0 -28 -27 -28h-70q-22 0 -32 22l-263 524q-37 77 -39 83h-19q2 -27 2 -83v-546h-65v662q0 28 27 28h68q22 0 32 -22l257 -512l46 -93h21q-3 49 -3 99v528h65zM834 688q21 0 21 -21v-58q0 -21 -21 -21h-30q-20 0 -20 21v58q0 21 20 21h30zM851 484v-508
q0 -110 -84 -182l-35 28q55 70 55 154v508h64z" />
    <glyph glyph-name="uni01CC" unicode="&#x1cc;" horiz-adv-x="816" 
d="M712 688q21 0 21 -21v-58q0 -21 -21 -21h-30q-20 0 -20 21v58q0 21 20 21h30zM366 497q130 0 130 -133v-364h-63v347q0 51 -19.5 73t-64.5 22q-44 0 -88.5 -19.5t-113.5 -64.5l1 -358h-64v484h53l4 -80q121 93 225 93zM665 -24v508h64v-508q0 -110 -84 -182l-35 28
q55 70 55 154z" />
    <glyph glyph-name="Gcaron" unicode="&#x1e6;" horiz-adv-x="626" 
d="M343 754h-32l-140 123l23 28l129 -92h8l130 92l24 -28zM489 399h64v-399h-47l-9 77q-89 -89 -209 -89q-118 0 -169.5 85t-51.5 273q0 201 61 278.5t216 77.5q114 0 194 -19l-8 -49q-90 10 -182 10q-82 0 -126 -25t-65 -89.5t-21 -186.5q0 -162 38 -230t131 -68
q37 0 73 13t57.5 27t53.5 39v275z" />
    <glyph glyph-name="gcaron" unicode="&#x1e7;" horiz-adv-x="553" 
d="M288 569h-32l-140 123l23 28l129 -92h8l130 92l24 -28zM529 484l-4 -36l-81 -5q28 -35 28 -100q0 -79 -46 -115t-156 -36q-70 0 -110 13q-15 -19 -18 -39.5t10.5 -38t44.5 -22.5l186 -31q66 -10 91.5 -41t25.5 -92q0 -82 -49.5 -114t-175.5 -32q-128 0 -178 31.5
t-50 112.5q0 48 18 76.5t64 51.5q-43 27 -41.5 75.5t39.5 76.5q-60 33 -60 124q0 81 46 117.5t157 36.5q69 0 109 -13h150zM270 241q78 0 110 24t32 78q0 56 -32 80t-110 24q-79 0 -111.5 -24t-32.5 -80q0 -54 33 -78t111 -24zM438 -57q0 42 -16.5 58.5t-68.5 24.5l-181 28
l-4 -3q-33 -23 -46 -46t-13 -62q0 -55 35 -74.5t131 -19.5q94 0 128.5 20t34.5 74z" />
    <glyph glyph-name="uni01EA" unicode="&#x1ea;" 
d="M358 -11q-50 -57 -69 -107q-16 -40 8.5 -53t74.5 5l8 -28q-87 -33 -122.5 -7.5t-14.5 81.5q17 54 78 108q-141 3 -197.5 82t-56.5 275q0 200 59 278.5t207 78.5t207 -78.5t59 -278.5q0 -192 -53.5 -271.5t-187.5 -84.5zM135 345q0 -168 43.5 -233.5t154.5 -65.5t154 65.5
t43 233.5t-43 233.5t-154 65.5t-154.5 -65.5t-43.5 -233.5z" />
    <glyph glyph-name="uni01EB" unicode="&#x1eb;" horiz-adv-x="565" 
d="M309 -11q-47 -54 -67 -105q-16 -40 8.5 -53t74.5 5l8 -28q-87 -33 -122.5 -7.5t-14.5 81.5q18 53 76 106q-116 2 -164 59.5t-48 194.5q0 140 50.5 197.5t172.5 57.5t172 -57.5t50 -197.5q0 -132 -44.5 -190t-151.5 -63zM127 242q0 -114 34 -157t122 -43t122 43t34 157
t-34 157t-122 43t-122 -43t-34 -157z" />
    <glyph glyph-name="Aringacute" unicode="&#x1fa;" horiz-adv-x="615" 
d="M411 952l-153 -88l-21 30l140 106zM310 653q-43 0 -73 29t-30 72q0 42 30 71.5t73 29.5q42 0 72.5 -29.5t30.5 -71.5q0 -41 -30 -71t-73 -30zM310 820q-29 0 -47 -18.5t-18 -47.5q0 -30 18.5 -48t46.5 -18t46.5 18.5t18.5 47.5t-19 47.5t-46 18.5zM534 0l-67 181h-319
l-67 -181h-68l231 611q8 19 26 19h75q18 0 26 -19l231 -611h-68zM169 238h277l-106 284q-10 27 -18 56h-28q-17 -52 -19 -56z" />
    <glyph glyph-name="aringacute" unicode="&#x1fb;" horiz-adv-x="545" 
d="M381 845l-159 -93l-20 29l145 112zM271 532q-43 0 -73 29t-30 72q0 42 30 71.5t73 29.5q42 0 72.5 -29.5t30.5 -71.5q0 -41 -30 -71t-73 -30zM271 699q-29 0 -47 -18.5t-18 -47.5q0 -30 18.5 -48t46.5 -18t46.5 18.5t18.5 47.5t-19 47.5t-46 18.5zM310 497
q78 0 116.5 -34.5t38.5 -114.5v-348h-50l-8 85q-36 -36 -93 -64.5t-119 -28.5q-64 0 -101 34t-37 97v56q0 56 33 87t94 31h217v51q0 48 -22.5 71t-80.5 23q-86 0 -215 -14l-6 47q145 22 233 22zM206 48q43 -1 97.5 21.5t97.5 59.5v119l-207 -2q-73 -3 -73 -75v-42
q0 -81 85 -81z" />
    <glyph glyph-name="AEacute" unicode="&#x1fc;" horiz-adv-x="910" 
d="M708 868l-178 -128l-24 30l164 146zM594 55h261l2 -50q-94 -6 -287 -6q-49 0 -79.5 32t-30.5 82v129h-240l-147 -242h-70l363 590q35 59 80 79.5t124 20.5q183 0 287 -5l-2 -51h-261q-32 0 -52 -20t-20 -54v-166l292 -1v-53l-292 -1v-211q0 -73 72 -73zM253 297h207v271
q0 22 10.5 43.5t24.5 30.5h-8q-34 -18 -64 -66z" />
    <glyph glyph-name="aeacute" unicode="&#x1fd;" horiz-adv-x="874" 
d="M601 678l-178 -128l-24 30l164 146zM635 43q77 0 167 12l7 -43q-61 -24 -182 -24q-83 0 -132 25.5t-72 82.5q-36 -39 -98 -71.5t-130 -32.5q-64 0 -101 34t-37 97v56q0 56 33 87t94 31h217v51q0 48 -22.5 71t-80.5 23q-86 0 -215 -14l-6 47q145 22 233 22q104 0 137 -62
q49 62 171 62q103 0 152 -37.5t50 -113.5q1 -70 -30.5 -102.5t-101.5 -32.5h-220q5 -96 43 -132t124 -36zM621 442q-84 0 -118 -39.5t-36 -141.5h207q46 0 64.5 21.5t17.5 62.5q-1 50 -33 73.5t-102 23.5zM206 48q46 -1 103.5 23t101.5 64q-10 48 -10 100v13l-207 -2
q-73 -3 -73 -75v-42q0 -81 85 -81z" />
    <glyph glyph-name="Oslashacute" unicode="&#x1fe;" 
d="M474 859l-178 -128l-24 30l164 146zM499 663q53 -36 76.5 -112t23.5 -206q0 -200 -59 -278.5t-207 -78.5q-88 0 -139 24l-32 -67l-37 16l34 72q-49 38 -70.5 112.5t-21.5 199.5q0 200 59 278.5t207 78.5q80 0 130 -20l31 65l37 -16zM135 345q0 -184 54 -248l247 527
q-39 20 -103 20q-111 0 -154.5 -65.5t-43.5 -233.5zM333 46q111 0 154 65.5t43 233.5q0 194 -60 255l-249 -529q40 -25 112 -25z" />
    <glyph glyph-name="oslashacute" unicode="&#x1ff;" horiz-adv-x="565" 
d="M426 676l-178 -128l-24 30l164 146zM408 475q51 -24 74 -80.5t23 -152.5q0 -140 -50 -197t-172 -57q-55 0 -97 11l-32 -69l-33 15l31 68q-48 25 -70 80t-22 149q0 140 50.5 197.5t172.5 57.5q54 0 90 -10l31 66l33 -16zM127 242q0 -135 51 -174l171 367q-27 7 -66 7
q-88 0 -122 -43t-34 -157zM283 42q88 0 122 43t34 157q0 140 -57 178l-171 -369q29 -9 72 -9z" />
    <glyph glyph-name="uni0200" unicode="&#x200;" horiz-adv-x="615" 
d="M267 749l-29 -22l-129 157l48 33zM423 749l-30 -22l-128 157l48 33zM534 0l-76 228h-301l-76 -228h-68l231 671q6 19 26 19h75q20 0 26 -19l231 -671h-68zM176 285h263l-99 297q-2 5 -8.5 25t-9.5 31h-28q-15 -47 -19 -56z" />
    <glyph glyph-name="uni0201" unicode="&#x201;" horiz-adv-x="545" 
d="M230 572l-29 -22l-129 157l48 33zM386 572l-30 -22l-128 157l48 33zM310 497q78 0 116.5 -34.5t38.5 -114.5v-348h-50l-8 85q-36 -36 -93 -64.5t-119 -28.5q-64 0 -101 34t-37 97v56q0 56 33 87t94 31h217v51q0 48 -22.5 71t-80.5 23q-86 0 -215 -14l-6 47q145 22 233 22
zM206 48q43 -1 97.5 21.5t97.5 59.5v119l-207 -2q-73 -3 -73 -75v-42q0 -81 85 -81z" />
    <glyph glyph-name="uni0202" unicode="&#x202;" horiz-adv-x="615" 
d="M196 750l-35 6q-2 56 37 90.5t107 34.5q69 0 108.5 -34t37.5 -91l-34 -6q0 39 -29.5 60t-82.5 21q-51 0 -80 -21t-29 -60zM534 0l-76 228h-301l-76 -228h-68l231 671q6 19 26 19h75q20 0 26 -19l231 -671h-68zM176 285h263l-99 297q-2 5 -8.5 25t-9.5 31h-28
q-15 -47 -19 -56z" />
    <glyph glyph-name="uni0203" unicode="&#x203;" horiz-adv-x="545" 
d="M159 573l-35 6q-2 56 37 90.5t107 34.5q69 0 108.5 -34t37.5 -91l-34 -6q0 39 -29.5 60t-82.5 21q-51 0 -80 -21t-29 -60zM310 497q78 0 116.5 -34.5t38.5 -114.5v-348h-50l-8 85q-36 -36 -93 -64.5t-119 -28.5q-64 0 -101 34t-37 97v56q0 56 33 87t94 31h217v51
q0 48 -22.5 71t-80.5 23q-86 0 -215 -14l-6 47q145 22 233 22zM206 48q43 -1 97.5 21.5t97.5 59.5v119l-207 -2q-73 -3 -73 -75v-42q0 -81 85 -81z" />
    <glyph glyph-name="uni0204" unicode="&#x204;" horiz-adv-x="557" 
d="M269 771l-29 -22l-129 157l48 33zM425 771l-30 -22l-128 157l48 33zM220 55h280l4 -50q-94 -6 -295 -6q-55 0 -88.5 31t-33.5 83v464q0 52 33.5 83t88.5 31q201 0 295 -6l-4 -50h-280q-67 0 -67 -73v-169h308v-53h-308v-213q0 -72 67 -72z" />
    <glyph glyph-name="uni0205" unicode="&#x205;" horiz-adv-x="534" 
d="M239 572l-29 -22l-129 157l48 33zM395 572l-30 -22l-128 157l48 33zM294 43q75 0 167 12l7 -43q-61 -24 -183 -24t-173.5 58.5t-51.5 197.5q0 140 50 196.5t167 56.5q103 0 152 -37.5t50 -113.5q2 -135 -111 -135h-241q5 -96 43 -132t124 -36zM280 442q-84 0 -118 -39.5
t-36 -141.5h227q64 0 62 84q-1 51 -33 74t-102 23z" />
    <glyph glyph-name="uni0206" unicode="&#x206;" horiz-adv-x="557" 
d="M198 772l-35 6q-2 56 37 90.5t107 34.5q69 0 108.5 -34t37.5 -91l-34 -6q0 39 -29.5 60t-82.5 21q-51 0 -80 -21t-29 -60zM220 55h280l4 -50q-94 -6 -295 -6q-55 0 -88.5 31t-33.5 83v464q0 52 33.5 83t88.5 31q201 0 295 -6l-4 -50h-280q-67 0 -67 -73v-169h308v-53
h-308v-213q0 -72 67 -72z" />
    <glyph glyph-name="uni0207" unicode="&#x207;" horiz-adv-x="534" 
d="M168 573l-35 6q-2 56 37 90.5t107 34.5q69 0 108.5 -34t37.5 -91l-34 -6q0 39 -29.5 60t-82.5 21q-51 0 -80 -21t-29 -60zM294 43q75 0 167 12l7 -43q-61 -24 -183 -24t-173.5 58.5t-51.5 197.5q0 140 50 196.5t167 56.5q103 0 152 -37.5t50 -113.5q2 -135 -111 -135
h-241q5 -96 43 -132t124 -36zM280 442q-84 0 -118 -39.5t-36 -141.5h227q64 0 62 84q-1 51 -33 74t-102 23z" />
    <glyph glyph-name="uni0208" unicode="&#x208;" horiz-adv-x="251" 
d="M-26 921l110 -168l-29 -22l-129 157zM130 921l110 -168l-30 -22l-128 157zM158 690v-690h-65v690h65z" />
    <glyph glyph-name="uni0209" unicode="&#x209;" horiz-adv-x="239" 
d="M-32 741l110 -168l-29 -22l-129 157zM124 741l110 -168l-30 -22l-128 157zM151 484v-484h-63v484h63z" />
    <glyph glyph-name="uni020A" unicode="&#x20a;" horiz-adv-x="251" 
d="M13 754l-35 6q-2 56 37 90.5t107 34.5q69 0 108.5 -34t37.5 -91l-34 -6q0 39 -29.5 60t-82.5 21q-51 0 -80 -21t-29 -60zM158 690v-690h-65v690h65z" />
    <glyph glyph-name="uni020B" unicode="&#x20b;" horiz-adv-x="239" 
d="M7 574l-35 6q-2 56 37 90.5t107 34.5q69 0 108.5 -34t37.5 -91l-34 -6q0 39 -29.5 60t-82.5 21q-51 0 -80 -21t-29 -60zM151 484v-484h-63v484h63z" />
    <glyph glyph-name="uni020C" unicode="&#x20c;" 
d="M183 921l110 -168l-29 -22l-129 157zM339 921l110 -168l-30 -22l-128 157zM333 702q148 0 207 -78.5t59 -278.5t-59 -278.5t-207 -78.5t-207 78.5t-59 278.5t59 278.5t207 78.5zM333 644q-111 0 -154.5 -65.5t-43.5 -233.5t43.5 -233.5t154.5 -65.5t154 65.5t43 233.5
t-43 233.5t-154 65.5z" />
    <glyph glyph-name="uni020D" unicode="&#x20d;" horiz-adv-x="565" 
d="M132 738l110 -168l-29 -22l-129 157zM288 738l110 -168l-30 -22l-128 157zM283 497q122 0 172 -57.5t50 -197.5t-50 -197t-172 -57t-172.5 57.5t-50.5 196.5q0 140 50.5 197.5t172.5 57.5zM283 442q-88 0 -122 -43t-34 -157t34 -157t122 -43t122 43t34 157t-34 157
t-122 43z" />
    <glyph glyph-name="uni020E" unicode="&#x20e;" 
d="M222 754l-35 6q-2 56 37 90.5t107 34.5q69 0 108.5 -34t37.5 -91l-34 -6q0 39 -29.5 60t-82.5 21q-51 0 -80 -21t-29 -60zM333 702q148 0 207 -78.5t59 -278.5t-59 -278.5t-207 -78.5t-207 78.5t-59 278.5t59 278.5t207 78.5zM333 644q-111 0 -154.5 -65.5t-43.5 -233.5
t43.5 -233.5t154.5 -65.5t154 65.5t43 233.5t-43 233.5t-154 65.5z" />
    <glyph glyph-name="uni020F" unicode="&#x20f;" horiz-adv-x="565" 
d="M171 571l-35 6q-2 56 37 90.5t107 34.5q69 0 108.5 -34t37.5 -91l-34 -6q0 39 -29.5 60t-82.5 21q-51 0 -80 -21t-29 -60zM283 497q122 0 172 -57.5t50 -197.5t-50 -197t-172 -57t-172.5 57.5t-50.5 196.5q0 140 50.5 197.5t172.5 57.5zM283 442q-88 0 -122 -43t-34 -157
t34 -157t122 -43t122 43t34 157t-34 157t-122 43z" />
    <glyph glyph-name="uni0210" unicode="&#x210;" horiz-adv-x="614" 
d="M262 753l-29 -22l-129 157l48 33zM418 753l-30 -22l-128 157l48 33zM494 219l70 -219h-70l-66 217q-28 79 -99 79q-91 0 -171 2v-298h-65v690q83 8 231 8q119 0 167 -41.5t48 -155.5q0 -87 -29.5 -128.5t-97.5 -51.5v-4q27 -8 49 -33.5t33 -64.5zM324 353
q84 1 116.5 31.5t32.5 113.5q0 84 -32.5 114t-116.5 30q-86 0 -166 -2v-287h166z" />
    <glyph glyph-name="uni0211" unicode="&#x211;" horiz-adv-x="394" 
d="M180 573l-29 -22l-129 157l48 33zM336 573l-30 -22l-128 157l48 33zM354 497h21l-8 -60h-24q-42 0 -84.5 -17.5t-110.5 -56.5v-363h-64v484h49l7 -81q118 94 214 94z" />
    <glyph glyph-name="uni0212" unicode="&#x212;" horiz-adv-x="614" 
d="M191 754l-35 6q-2 56 37 90.5t107 34.5q69 0 108.5 -34t37.5 -91l-34 -6q0 39 -29.5 60t-82.5 21q-51 0 -80 -21t-29 -60zM494 219l70 -219h-70l-66 217q-28 79 -99 79q-91 0 -171 2v-298h-65v690q83 8 231 8q119 0 167 -41.5t48 -155.5q0 -87 -29.5 -128.5t-97.5 -51.5
v-4q27 -8 49 -33.5t33 -64.5zM324 353q84 1 116.5 31.5t32.5 113.5q0 84 -32.5 114t-116.5 30q-86 0 -166 -2v-287h166z" />
    <glyph glyph-name="uni0213" unicode="&#x213;" horiz-adv-x="394" 
d="M218 655q-51 0 -80 -21t-29 -60l-35 6q-2 56 37 90.5t107 34.5q69 0 108.5 -34t37.5 -91l-34 -6q0 39 -29.5 60t-82.5 21zM354 497h21l-8 -60h-24q-42 0 -84.5 -17.5t-110.5 -56.5v-363h-64v484h49l7 -81q118 94 214 94z" />
    <glyph glyph-name="uni0214" unicode="&#x214;" horiz-adv-x="667" 
d="M183 930l110 -167l-29 -22l-128 156zM339 930l110 -167l-30 -22l-128 156zM579 690v-429q0 -149 -55 -211t-188 -62q-136 0 -192 62t-56 211v429h65v-429q0 -119 40.5 -167t140.5 -48q99 0 139 48t40 167v429h66z" />
    <glyph glyph-name="uni0215" unicode="&#x215;" horiz-adv-x="567" 
d="M242 575l-29 -22l-129 157l48 33zM398 575l-30 -22l-128 157l48 33zM419 484h63v-484h-50l-5 76q-112 -88 -215 -88q-131 0 -131 132v364h63v-347q0 -50 21 -72t68 -22q41 0 82.5 18.5t103.5 60.5v362z" />
    <glyph glyph-name="uni0216" unicode="&#x216;" horiz-adv-x="667" 
d="M223 754l-35 6q-2 56 37 90.5t107 34.5q69 0 108.5 -34t37.5 -91l-34 -6q0 39 -29.5 60t-82.5 21q-51 0 -80 -21t-29 -60zM579 690v-429q0 -149 -55 -211t-188 -62q-136 0 -192 62t-56 211v429h65v-429q0 -119 40.5 -167t140.5 -48q99 0 139 48t40 167v429h66z" />
    <glyph glyph-name="uni0217" unicode="&#x217;" horiz-adv-x="567" 
d="M171 576l-35 6q-2 56 37 90.5t107 34.5q69 0 108.5 -34t37.5 -91l-34 -6q0 39 -29.5 60t-82.5 21q-51 0 -80 -21t-29 -60zM419 484h63v-484h-50l-5 76q-112 -88 -215 -88q-131 0 -131 132v364h63v-347q0 -50 21 -72t68 -22q41 0 82.5 18.5t103.5 60.5v362z" />
    <glyph glyph-name="Scommaaccent" unicode="&#x218;" horiz-adv-x="559" 
d="M277 701q111 0 199 -16l-5 -48q-118 6 -191 6q-49 0 -72 -2.5t-45.5 -14.5t-30 -37t-7.5 -69q0 -62 21.5 -89.5t73.5 -37.5l144 -30q77 -15 108.5 -59.5t31.5 -129.5q0 -60 -13 -97t-43 -56t-68 -25.5t-100 -6.5q-114 0 -210 15l4 49q124 -6 208 -6q91 1 123 25t32 103
q0 65 -21.5 92t-74.5 37l-147 31q-73 15 -104 59.5t-31 127.5q0 60 12 96.5t42 54.5t66 23.5t98 4.5zM297 -60q22 0 22 -22v-56q-2 -72 -27 -126l-27 8q7 49 7 102q-18 0 -16 18v54q1 22 23 22h18z" />
    <glyph glyph-name="scommaaccent" unicode="&#x219;" horiz-adv-x="505" 
d="M240 497q110 -2 198 -15l-6 -46q-120 6 -184 6q-80 1 -106 -11.5t-26 -65.5q0 -41 17 -57t57 -24l149 -28q58 -12 85 -41.5t27 -88.5q0 -85 -45.5 -111t-155.5 -26q-99 0 -185 13l5 47q79 -7 169 -6q89 1 119.5 16.5t30.5 66.5q0 39 -19 55t-60 24l-148 28
q-57 11 -82.5 41.5t-25.5 90.5q0 82 41.5 107.5t144.5 24.5zM270 -60q22 0 22 -22v-56q-2 -72 -27 -126l-27 8q7 49 7 102q-18 0 -16 18v54q1 22 23 22h18z" />
    <glyph glyph-name="uni021A" unicode="&#x21a;" horiz-adv-x="575" 
d="M550 690v-58h-230v-632h-66v632h-229v58h525zM286 -60q22 0 22 -22v-56q-2 -72 -27 -126l-27 8q7 49 7 102q-18 0 -16 18v54q1 22 23 22h18z" />
    <glyph glyph-name="uni021B" unicode="&#x21b;" horiz-adv-x="369" 
d="M344 434h-164v-314q0 -70 71 -70h79l8 -48q-50 -10 -101 -10q-120 0 -120 121v321h-88v45l88 5v147h63v-147h164v-50zM244 -60q22 0 22 -22v-56q-2 -72 -27 -126l-27 8q7 49 7 102q-18 0 -16 18v54q1 22 23 22h18z" />
    <glyph glyph-name="uni022A" unicode="&#x22a;" 
d="M210 952h247v-44h-247v44zM263 853q17 0 17 -18v-50q0 -17 -17 -17h-19q-18 0 -18 17v50q0 18 18 18h19zM424 853q18 0 18 -18v-50q0 -17 -18 -17h-19q-18 0 -18 17v50q0 18 18 18h19zM333 702q148 0 207 -78.5t59 -278.5t-59 -278.5t-207 -78.5t-207 78.5t-59 278.5
t59 278.5t207 78.5zM333 644q-111 0 -154.5 -65.5t-43.5 -233.5t43.5 -233.5t154.5 -65.5t154 65.5t43 233.5t-43 233.5t-154 65.5z" />
    <glyph glyph-name="uni022B" unicode="&#x22b;" horiz-adv-x="565" 
d="M159 769h247v-44h-247v44zM212 670q17 0 17 -18v-50q0 -17 -17 -17h-19q-18 0 -18 17v50q0 18 18 18h19zM373 670q18 0 18 -18v-50q0 -17 -18 -17h-19q-18 0 -18 17v50q0 18 18 18h19zM283 497q122 0 172 -57.5t50 -197.5t-50 -197t-172 -57t-172.5 57.5t-50.5 196.5
q0 140 50.5 197.5t172.5 57.5zM283 442q-88 0 -122 -43t-34 -157t34 -157t122 -43t122 43t34 157t-34 157t-122 43z" />
    <glyph glyph-name="uni022C" unicode="&#x22c;" 
d="M210 917v44h247v-44h-247zM410 757q-37 3 -81 31t-66 30q-28 3 -39.5 -11.5t-11.5 -47.5h-32q-4 53 17.5 80.5t59.5 24.5q31 -3 74.5 -30t71.5 -30q29 -3 40.5 10t11.5 45h32q4 -51 -17.5 -78t-59.5 -24zM333 702q148 0 207 -78.5t59 -278.5t-59 -278.5t-207 -78.5
t-207 78.5t-59 278.5t59 278.5t207 78.5zM333 644q-111 0 -154.5 -65.5t-43.5 -233.5t43.5 -233.5t154.5 -65.5t154 65.5t43 233.5t-43 233.5t-154 65.5z" />
    <glyph glyph-name="uni022D" unicode="&#x22d;" horiz-adv-x="565" 
d="M159 734v44h247v-44h-247zM359 574q-37 3 -81 31t-66 30q-28 3 -39.5 -11.5t-11.5 -47.5h-32q-4 53 17.5 80.5t59.5 24.5q31 -3 74.5 -30t71.5 -30q29 -3 40.5 10t11.5 45h32q4 -51 -17.5 -78t-59.5 -24zM283 497q122 0 172 -57.5t50 -197.5t-50 -197t-172 -57
t-172.5 57.5t-50.5 196.5q0 140 50.5 197.5t172.5 57.5zM283 442q-88 0 -122 -43t-34 -157t34 -157t122 -43t122 43t34 157t-34 157t-122 43z" />
    <glyph glyph-name="uni0230" unicode="&#x230;" 
d="M335 952l122 -11l-125 -33l-122 11zM343 856q19 0 19 -19v-54q0 -19 -19 -19h-19q-19 0 -19 19v54q0 19 19 19h19zM333 702q148 0 207 -78.5t59 -278.5t-59 -278.5t-207 -78.5t-207 78.5t-59 278.5t59 278.5t207 78.5zM333 644q-111 0 -154.5 -65.5t-43.5 -233.5
t43.5 -233.5t154.5 -65.5t154 65.5t43 233.5t-43 233.5t-154 65.5z" />
    <glyph glyph-name="uni0231" unicode="&#x231;" horiz-adv-x="565" 
d="M284 769l122 -11l-125 -33l-122 11zM292 673q19 0 19 -19v-54q0 -19 -19 -19h-19q-19 0 -19 19v54q0 19 19 19h19zM283 497q122 0 172 -57.5t50 -197.5t-50 -197t-172 -57t-172.5 57.5t-50.5 196.5q0 140 50.5 197.5t172.5 57.5zM283 442q-88 0 -122 -43t-34 -157
t34 -157t122 -43t122 43t34 157t-34 157t-122 43z" />
    <glyph glyph-name="uni0232" unicode="&#x232;" horiz-adv-x="559" 
d="M416 835v-49h-272v49h272zM543 690l-231 -442v-248h-65v248l-232 442h70l158 -306q13 -26 33 -74h7q13 31 33 73l158 307h69z" />
    <glyph glyph-name="uni0233" unicode="&#x233;" horiz-adv-x="521" 
d="M399 661v-49h-272v49h272zM430 484h68l-204 -518q-29 -74 -73 -119.5t-119 -53.5l-8 41q57 19 89 53t52 86l12 27h-16q-19 0 -25 17l-184 467h68l143 -378q16 -42 20 -56h14q2 6 6.5 18t8 21.5t6.5 17.5z" />
    <glyph glyph-name="uni0237" unicode="&#x237;" horiz-adv-x="239" 
d="M152 484v-508q0 -110 -84 -182l-35 28q55 70 55 154v508h64z" />
    <glyph glyph-name="uni0259" unicode="&#x259;" horiz-adv-x="533" 
d="M248 497q122 0 173.5 -58.5t51.5 -197.5q0 -140 -50 -196.5t-167 -56.5q-103 0 -152 37.5t-50 113.5q-2 135 111 135h242q-5 96 -43.5 132t-123.5 36q-76 0 -168 -12l-7 43q62 24 183 24zM253 43q85 0 119 39t36 141h-228q-64 0 -62 -83q1 -52 32.5 -74.5t102.5 -22.5z
" />
    <glyph glyph-name="uni02B9" unicode="&#x2b9;" horiz-adv-x="251" 
d="M186 751l-61 -212h-44l52 212h53z" />
    <glyph glyph-name="uni02BA" unicode="&#x2ba;" horiz-adv-x="370" 
d="M187 751l-61 -212h-45l53 212h53zM306 751l-61 -212h-45l53 212h53z" />
    <glyph glyph-name="uni02BB" unicode="&#x2bb;" horiz-adv-x="221" 
d="M100 541q-14 0 -19 5.5t-5 18.5v64q0 76 29 145l30 -10q-8 -64 -8 -117q18 0 18 -21l-1 -61q0 -24 -25 -24h-19z" />
    <glyph glyph-name="uni02BE" unicode="&#x2be;" horiz-adv-x="184" 
d="M100 642q0 29 -18 47.5t-47 18.5v35q43 0 73 -29.5t30 -71.5q0 -43 -29.5 -72t-73.5 -29v35q28 0 46.5 18t18.5 48z" />
    <glyph glyph-name="uni02BF" unicode="&#x2bf;" horiz-adv-x="184" 
d="M149 708q-29 0 -47 -18.5t-18 -47.5q0 -30 18.5 -48t46.5 -18v-35q-43 0 -73 29t-30 72q0 42 30 71.5t73 29.5v-35z" />
    <glyph glyph-name="circumflex" unicode="&#x2c6;" horiz-adv-x="410" 
d="M229 710l133 -124l-23 -28l-130 99h-8l-129 -99l-23 28l133 124h47z" />
    <glyph glyph-name="caron" unicode="&#x2c7;" horiz-adv-x="410" 
d="M339 717l24 -28l-142 -123h-32l-140 123l23 28l129 -92h8z" />
    <glyph glyph-name="uni02C8" unicode="&#x2c8;" horiz-adv-x="193" 
d="M71 693h50v-114h-50v114z" />
    <glyph glyph-name="uni02C9" unicode="&#x2c9;" horiz-adv-x="400" 
d="M336 664v-49h-272v49h272z" />
    <glyph glyph-name="uni02CA" unicode="&#x2ca;" horiz-adv-x="301" 
d="M217 723l38 -48l-178 -128l-24 30z" />
    <glyph glyph-name="uni02CB" unicode="&#x2cb;" horiz-adv-x="301" 
d="M79 718l164 -146l-24 -30l-178 128z" />
    <glyph glyph-name="uni02CC" unicode="&#x2cc;" horiz-adv-x="193" 
d="M71 -56h50v-114h-50v114z" />
    <glyph glyph-name="breve" unicode="&#x2d8;" horiz-adv-x="368" 
d="M295 693l35 -6q2 -57 -37 -91t-108 -34t-108.5 34.5t-36.5 90.5l34 6q0 -39 29.5 -60.5t82.5 -21.5q51 0 80 21.5t29 60.5z" />
    <glyph glyph-name="dotaccent" unicode="&#x2d9;" horiz-adv-x="215" 
d="M118 682q21 0 21 -21v-59q0 -20 -21 -20h-21q-21 0 -21 20v59q0 21 21 21h21z" />
    <glyph glyph-name="ring" unicode="&#x2da;" horiz-adv-x="297" 
d="M149 743q42 0 72.5 -29.5t30.5 -71.5q0 -41 -30 -71t-73 -30t-73 29t-30 72q0 42 30 71.5t73 29.5zM149 708q-29 0 -47 -18.5t-18 -47.5q0 -30 18.5 -48t46.5 -18t46.5 18.5t18.5 47.5t-19 47.5t-46 18.5z" />
    <glyph glyph-name="ogonek" unicode="&#x2db;" horiz-adv-x="252" 
d="M145 2l31 -2q-58 -64 -79 -118q-16 -40 8.5 -53t74.5 5l8 -28q-87 -33 -122.5 -7.5t-14.5 81.5q20 61 94 122z" />
    <glyph glyph-name="tilde" unicode="&#x2dc;" horiz-adv-x="412" 
d="M130 695q31 -3 74.5 -30t71.5 -30q29 -3 40.5 10t11.5 45h32q4 -51 -17.5 -78t-59.5 -24q-37 3 -81 31t-66 30q-28 3 -39.5 -11.5t-11.5 -47.5h-32q-4 53 17.5 80.5t59.5 24.5z" />
    <glyph glyph-name="hungarumlaut" unicode="&#x2dd;" horiz-adv-x="439" 
d="M165 732l48 -33l-129 -157l-30 22zM320 732l48 -33l-128 -157l-30 22z" />
    <glyph glyph-name="acutecomb" unicode="&#x301;" horiz-adv-x="0" 
d="M-124 718l38 -48l-178 -128l-24 30z" />
    <glyph glyph-name="uni0302" unicode="&#x302;" horiz-adv-x="0" 
d="M-189 710l133 -124l-23 -28l-130 99h-8l-129 -99l-23 28l133 124h47z" />
    <glyph glyph-name="tildecomb" unicode="&#x303;" horiz-adv-x="0" 
d="M-294 695q31 -3 74.5 -30t71.5 -30q29 -3 40.5 10t11.5 45h32q4 -51 -17.5 -78t-59.5 -24q-36 3 -80.5 31t-66.5 30q-28 3 -39.5 -11.5t-11.5 -47.5h-32q-4 53 17.5 80.5t59.5 24.5z" />
    <glyph glyph-name="uni0304" unicode="&#x304;" horiz-adv-x="0" 
d="M-67 664v-49h-272v49h272z" />
    <glyph glyph-name="uni0306" unicode="&#x306;" horiz-adv-x="0" 
d="M-94 693l34 -6q3 -56 -36 -90.5t-108 -34.5t-108.5 34.5t-37.5 90.5l35 6q0 -39 29 -60.5t82 -21.5q52 0 81 21.5t29 60.5z" />
    <glyph glyph-name="uni0307" unicode="&#x307;" horiz-adv-x="0" 
d="M-144 682q21 0 21 -21v-59q0 -20 -21 -20h-21q-21 0 -21 20v59q0 21 21 21h21z" />
    <glyph glyph-name="uni0308" unicode="&#x308;" horiz-adv-x="0" 
d="M-299 686q19 0 19 -20v-55q0 -19 -19 -19h-22q-18 0 -18 19v55q0 20 18 20h22zM-122 686q19 0 19 -20v-55q0 -19 -19 -19h-21q-19 0 -19 19v55q0 20 19 20h21z" />
    <glyph glyph-name="hookabovecomb" unicode="&#x309;" horiz-adv-x="0" 
d="M-168 600q62 20 62 73q0 30 -23 40.5t-63 1.5l-7 36q60 17 99 -3.5t39 -72.5q0 -39 -25.5 -68t-73.5 -40z" />
    <glyph glyph-name="uni030A" unicode="&#x30a;" horiz-adv-x="0" 
d="M-161 739q42 0 72.5 -30t30.5 -72q0 -41 -30 -71t-73 -30t-73 29t-30 72t30 72.5t73 29.5zM-161 704q-28 0 -46.5 -19t-18.5 -48q0 -30 18.5 -48t46.5 -18t46.5 18.5t18.5 47.5t-19 48t-46 19z" />
    <glyph glyph-name="uni030B" unicode="&#x30b;" horiz-adv-x="0" 
d="M-272 727l47 -33l-128 -156l-30 21zM-117 727l48 -33l-128 -156l-30 21z" />
    <glyph glyph-name="uni030C" unicode="&#x30c;" horiz-adv-x="0" 
d="M-78 717l23 -28l-141 -123h-32l-141 123l24 28l129 -92h8z" />
    <glyph glyph-name="uni030F" unicode="&#x30f;" horiz-adv-x="0" 
d="M-350 741l110 -167l-29 -22l-128 156zM-194 741l110 -167l-30 -22l-128 156z" />
    <glyph glyph-name="uni0311" unicode="&#x311;" horiz-adv-x="0" 
d="M-323 567l-35 6q-2 56 37 90.5t107 34.5q69 0 108.5 -34t37.5 -91l-34 -6q0 39 -29.5 60t-82.5 21q-51 0 -80 -21t-29 -60z" />
    <glyph glyph-name="uni0312" unicode="&#x312;" horiz-adv-x="0" 
d="M-147 550q-18 0 -18 19v47q2 59 21 107l22 -7q-5 -50 -5 -87q12 0 12 -15v-45q0 -19 -18 -19h-14z" />
    <glyph glyph-name="uni031B" unicode="&#x31b;" horiz-adv-x="0" 
d="M-246 410l-4 33q39 3 63.5 31t27.5 71l48 -5q-2 -56 -42 -92.5t-93 -37.5z" />
    <glyph glyph-name="dotbelowcomb" unicode="&#x323;" horiz-adv-x="0" 
d="M-102 -56q21 0 21 -21v-59q0 -21 -21 -21h-21q-21 0 -21 21v59q0 21 21 21h21z" />
    <glyph glyph-name="uni0324" unicode="&#x324;" horiz-adv-x="0" 
d="M-288 -59q18 0 18 -20v-55q0 -19 -18 -19h-22q-19 0 -19 19v55q0 20 19 20h22zM-111 -59q19 0 19 -20v-55q0 -19 -19 -19h-22q-19 0 -19 19v55q0 20 19 20h22z" />
    <glyph glyph-name="uni0327" unicode="&#x327;" horiz-adv-x="0" 
d="M-136 -45q53 5 76.5 -9.5t22.5 -55.5q-2 -60 -45.5 -92.5t-111.5 -23.5l10 35q44 -1 71.5 21t28.5 56q0 21 -12.5 29t-46.5 9z" />
    <glyph glyph-name="uni0328" unicode="&#x328;" horiz-adv-x="0" 
d="M-123 2l31 -2q-60 -67 -79 -118q-15 -40 9 -53t75 5l8 -28q-87 -33 -123 -7.5t-15 81.5q22 63 94 122z" />
    <glyph glyph-name="uni032E" unicode="&#x32e;" horiz-adv-x="0" 
d="M-99 -43l35 -5q2 -57 -37 -91.5t-107 -34.5q-70 0 -109.5 34.5t-36.5 91.5l34 5q0 -39 29.5 -60t82.5 -21q51 0 80 21t29 60z" />
    <glyph glyph-name="uni0331" unicode="&#x331;" horiz-adv-x="0" 
d="M-81 -81v-49h-273v49h273z" />
    <glyph glyph-name="uni0394" unicode="&#x394;" horiz-adv-x="622" 
d="M345 690l248 -658v-32h-564v32l248 658h68zM311 625l-24 -75l-183 -496h413l-182 497q-5 14 -13.5 40.5t-10.5 33.5z" />
    <glyph glyph-name="uni03A9" unicode="&#x3a9;" horiz-adv-x="718" 
d="M359 702q145 0 211 -83t66 -253q0 -114 -35 -185t-116 -127q46 4 65 4h115v-58h-242l-1 55q81 55 113.5 124.5t33.5 179.5q-1 149 -50.5 217t-159.5 68q-113 0 -161 -67.5t-48 -219.5q0 -114 33 -178.5t113 -123.5v-55h-243v58h115q36 0 65 -4q-81 57 -116 129t-35 184
q0 170 65.5 252.5t211.5 82.5z" />
    <glyph glyph-name="uni03BC" unicode="&#x3bc;" horiz-adv-x="596" 
d="M573 41l5 -39q-37 -10 -70 -10q-73 0 -73 88v36q-27 -58 -84 -93t-120 -35q-50 0 -84 19v-93l-10 -111h-53v681h63v-337q0 -55 21 -78t71 -23q76 0 134 58t59 138v242h63v-382q0 -32 7 -46.5t29 -14.5h42z" />
    <glyph glyph-name="pi" unicode="&#x3c0;" horiz-adv-x="642" 
d="M613 484v-51h-100v-433h-63v433h-258v-433h-63v433h-100v51h584z" />
    <glyph glyph-name="uni0400" unicode="&#x400;" horiz-adv-x="557" 
d="M356 761l-24 -30l-178 128l38 48zM220 55h280l3 -50q-94 -6 -295 -6q-55 0 -88 31t-33 83v464q0 52 33 83t88 31q201 0 295 -6l-3 -50h-280q-68 0 -68 -73v-169h308v-53h-308v-213q0 -72 68 -72z" />
    <glyph glyph-name="uni0401" unicode="&#x401;" horiz-adv-x="557" 
d="M205 771q-18 0 -18 19v55q0 20 18 20h22q19 0 19 -20v-55q0 -19 -19 -19h-22zM383 771q-19 0 -19 19v55q0 20 19 20h21q19 0 19 -20v-55q0 -19 -19 -19h-21zM220 55h280l3 -50q-94 -6 -295 -6q-55 0 -88 31t-33 83v464q0 52 33 83t88 31q201 0 295 -6l-3 -50h-280
q-68 0 -68 -73v-169h308v-53h-308v-213q0 -72 68 -72z" />
    <glyph glyph-name="uni0402" unicode="&#x402;" horiz-adv-x="751" 
d="M529 439q39 0 67.5 -8.5t54 -30t38.5 -63.5t13 -103q0 -130 -64.5 -185t-190.5 -51l-6 47q104 7 149.5 44.5t45.5 138.5q0 92 -30.5 122.5t-95.5 30.5q-87 0 -190 -62v-319h-66v632h-229v58h525v-58h-230v-260q103 67 209 67z" />
    <glyph glyph-name="uni0403" unicode="&#x403;" horiz-adv-x="516" 
d="M397 912l38 -48l-178 -128l-24 30zM208 691q193 0 286 -6l-4 -50h-262q-72 0 -72 -75v-560h-66v571q0 52 33.5 86t84.5 34z" />
    <glyph glyph-name="uni0404" unicode="&#x404;" horiz-adv-x="574" 
d="M524 59l8 -50q-77 -21 -192 -21q-151 0 -212 80t-61 277t61 277t212 80q110 0 185 -19l-8 -50q-84 10 -178 10q-106 0 -152 -55.5t-52 -193.5l303 -1v-51l-304 -1q1 -165 46 -229.5t159 -64.5q113 0 185 12z" />
    <glyph glyph-name="uni0405" unicode="&#x405;" horiz-adv-x="559" 
d="M277 701q111 0 199 -16l-5 -48q-118 6 -191 6q-49 0 -72 -2.5t-45.5 -14.5t-30 -37t-7.5 -69q0 -62 21.5 -89.5t73.5 -37.5l144 -30q77 -15 108.5 -59.5t31.5 -129.5q0 -60 -13 -97t-43 -56t-68 -25.5t-100 -6.5q-114 0 -210 15l4 49q124 -6 208 -6q91 1 123 25t32 103
q0 65 -21.5 92t-74.5 37l-147 31q-73 15 -104 59.5t-31 127.5q0 60 12 96.5t42 54.5t66 23.5t98 4.5z" />
    <glyph glyph-name="uni0406" unicode="&#x406;" horiz-adv-x="251" 
d="M158 690v-690h-65v690h65z" />
    <glyph glyph-name="uni0407" unicode="&#x407;" horiz-adv-x="251" 
d="M47 865q19 0 19 -20v-55q0 -19 -19 -19h-22q-18 0 -18 19v55q0 20 18 20h22zM224 865q19 0 19 -20v-55q0 -19 -19 -19h-21q-19 0 -19 19v55q0 20 19 20h21zM158 690v-690h-65v690h65z" />
    <glyph glyph-name="uni0408" unicode="&#x408;" horiz-adv-x="334" 
d="M245 690v-556q0 -142 -130 -142q-40 0 -82 10l7 46h53q86 0 86 84v558h66z" />
    <glyph glyph-name="uni0409" unicode="&#x409;" horiz-adv-x="968" 
d="M698 402q124 0 172 -46t48 -160q0 -118 -47.5 -161t-163.5 -43q-148 0 -231 8v636h-144q-67 0 -73 -75q-19 -217 -31.5 -294.5t-45.5 -142.5q-28 -57 -64 -88t-88 -37l-7 45q58 25 98 99q32 60 44 128.5t26 236.5q3 40 5 62q9 120 130 120h215v-288h157zM698 50
q89 0 121 29.5t32 117.5q0 85 -31.5 117t-121.5 32h-157v-295q38 -1 157 -1z" />
    <glyph glyph-name="uni040A" unicode="&#x40a;" horiz-adv-x="980" 
d="M710 400q124 0 172 -45.5t48 -158.5q0 -118 -47.5 -161t-164.5 -43q-147 0 -230 8v345h-330v-345h-65v690h65v-290h330v290h65v-290h157zM710 50q89 0 121 29.5t32 116.5q0 84 -31.5 116.5t-121.5 32.5h-157v-294q38 -1 157 -1z" />
    <glyph glyph-name="uni040B" unicode="&#x40b;" horiz-adv-x="781" 
d="M567 439q153 0 153 -152v-287h-65v274q0 57 -25 81.5t-84 24.5q-60 0 -110 -14t-116 -49v-317h-66v632h-229v58h525v-58h-230v-261q121 68 247 68z" />
    <glyph glyph-name="uni040C" unicode="&#x40c;" horiz-adv-x="590" 
d="M437 864l-178 -128l-24 30l164 146zM307 359q55 -5 98.5 -51t65 -93.5t63.5 -159.5q14 -36 21 -55h-69q-63 168 -82 206q-49 98 -115 119q-23 8 -50 8h-87q6 -41 6 -78v-255h-65v690h65v-223q0 -41 -6 -80h86q35 1 64.5 17t50 38.5t42 64t35 74.5t34.5 90q5 13 7 19h66
q-22 -61 -33 -88.5t-30.5 -73.5t-34 -67.5t-36 -47.5t-45 -37.5t-51.5 -14.5v-2z" />
    <glyph glyph-name="uni040D" unicode="&#x40d;" horiz-adv-x="686" 
d="M233 907l164 -146l-24 -30l-178 128zM594 690v-690h-64v531q0 37 3 76h-3q-24 -49 -36 -70l-335 -537h-66v690h63v-527q0 -39 -3 -78h3q13 26 39 72l332 533h67z" />
    <glyph glyph-name="uni040E" unicode="&#x40e;" horiz-adv-x="553" 
d="M279 748q-69 0 -109 37t-37 95h50q0 -45 25.5 -70t70.5 -25q43 0 68 25t25 70h51q2 -58 -37.5 -95t-106.5 -37zM471 690h67l-192 -523q-11 -31 -19.5 -51.5t-22 -45t-27.5 -39t-33 -25.5t-42 -12q-58 -5 -115 13l8 47q36 -4 56 -5.5t39.5 3t28.5 9.5t21.5 22.5t19.5 33.5
t21 51l13 34h-41q-45 0 -62 43l-164 445h67l150 -414q7 -18 26 -18h43z" />
    <glyph glyph-name="uni040F" unicode="&#x40f;" horiz-adv-x="671" 
d="M513 690h66v-690h-215l-4 -151h-45l-5 151h-217v690h65v-636h355v636z" />
    <glyph glyph-name="uni0410" unicode="&#x410;" horiz-adv-x="615" 
d="M534 0l-76 228h-301l-76 -228h-68l231 671q6 19 26 19h75q20 0 26 -19l231 -671h-68zM176 285h263l-99 297q-2 5 -8.5 25t-9.5 31h-28q-15 -47 -19 -56z" />
    <glyph glyph-name="uni0411" unicode="&#x411;" horiz-adv-x="596" 
d="M322 385q124 0 171.5 -44t47.5 -154q0 -62 -13 -101t-43.5 -59.5t-69.5 -27.5t-103 -7q-132 0 -218 8h-1v690q115 5 209 5q91 0 203 -5l-5 -54h-341v-251h163zM322 48q89 0 121 28t32 113q0 82 -31 112.5t-122 30.5h-163l-1 -283q40 -1 164 -1z" />
    <glyph glyph-name="uni0412" unicode="&#x412;" horiz-adv-x="617" 
d="M416 356q75 -7 106.5 -52.5t31.5 -131.5q0 -104 -48.5 -142t-169.5 -38q-157 0 -243 8v690q75 8 213 8q128 0 177.5 -37.5t49.5 -142.5q0 -75 -28 -113.5t-89 -44.5v-4zM469 511q0 78 -35.5 104.5t-129.5 26.5q-110 0 -147 -1v-258h163q85 1 117 27t32 101zM328 48
q91 0 125 27t34 106q0 87 -36 118t-131 33h-163v-283q42 -1 171 -1z" />
    <glyph glyph-name="uni0413" unicode="&#x413;" horiz-adv-x="516" 
d="M208 691q193 0 286 -6l-4 -50h-262q-72 0 -72 -75v-560h-66v571q0 52 33.5 86t84.5 34z" />
    <glyph glyph-name="uni0414" unicode="&#x414;" horiz-adv-x="679" 
d="M561 54h84v-205h-45l-8 151h-515l-8 -151h-46v205h64q93 188 106 516q2 57 35 88.5t92 31.5h241v-636zM151 54h345v582h-165q-38 0 -56 -17.5t-19 -56.5q-8 -164 -30.5 -285t-74.5 -223z" />
    <glyph glyph-name="uni0415" unicode="&#x415;" horiz-adv-x="557" 
d="M220 55h280l3 -50q-94 -6 -295 -6q-55 0 -88 31t-33 83v464q0 52 33 83t88 31q201 0 295 -6l-3 -50h-280q-68 0 -68 -73v-169h308v-53h-308v-213q0 -72 68 -72z" />
    <glyph glyph-name="uni0416" unicode="&#x416;" horiz-adv-x="897" 
d="M614 359q35 -3 64.5 -22t49 -39.5t44 -71.5t36 -80t38.5 -103q11 -28 16 -43h-70q-7 17 -19 50q-18 48 -27 70.5t-24.5 59t-26.5 54t-28 40.5t-33 33t-37.5 18t-46.5 8h-73q6 -41 6 -78v-255h-63v255q0 37 6 78h-80q-34 0 -62 -15.5t-46.5 -33t-41.5 -62.5t-34.5 -73
t-37.5 -97q-13 -34 -20 -52h-69q66 179 89 224q54 107 125 129q16 5 33 6v2q-32 3 -60.5 22t-48 42.5t-41 67.5t-34.5 76.5t-34 90.5q-7 20 -11 30h67q59 -154 86 -201q59 -102 141 -102h79q-6 39 -6 80v223h63v-223q0 -47 -5 -80h71q40 0 72.5 21.5t57.5 62.5t45 86.5
t44 107.5l3 9t3 7.5t3 8.5h67q-60 -161 -86 -210q-60 -111 -144 -119v-2z" />
    <glyph glyph-name="uni0417" unicode="&#x417;" horiz-adv-x="548" 
d="M238 698q127 0 176 -37.5t49 -142.5q0 -75 -27.5 -113.5t-88.5 -44.5v-4q74 -7 105 -52.5t31 -131.5q0 -104 -47.5 -142t-167.5 -38q-138 0 -229 19l7 48q129 -12 212 -12q90 0 124 27t34 107q0 87 -36 118.5t-130 31.5h-110v53h110q83 0 115 26.5t32 100.5
q0 79 -34.5 105.5t-127.5 26.5q-17 0 -174 -9l-7 49q83 15 184 15z" />
    <glyph glyph-name="uni0418" unicode="&#x418;" horiz-adv-x="686" 
d="M594 690v-690h-64v531q0 37 3 76h-3q-24 -49 -36 -70l-335 -537h-66v690h63v-527q0 -39 -3 -78h3q13 26 39 72l332 533h67z" />
    <glyph glyph-name="uni0419" unicode="&#x419;" horiz-adv-x="686" 
d="M440 880h51q2 -58 -37.5 -95t-106.5 -37q-69 0 -109 37t-37 95h50q0 -45 25.5 -70t70.5 -25q43 0 68 25t25 70zM594 690v-690h-64v531q0 37 3 76h-3q-24 -49 -36 -70l-335 -537h-66v690h63v-527q0 -39 -3 -78h3q13 26 39 72l332 533h67z" />
    <glyph glyph-name="uni041A" unicode="&#x41a;" horiz-adv-x="590" 
d="M307 359q55 -5 98.5 -51t65 -93.5t63.5 -159.5q14 -36 21 -55h-69q-63 168 -82 206q-49 98 -115 119q-23 8 -50 8h-87q6 -41 6 -78v-255h-65v690h65v-223q0 -41 -6 -80h86q35 1 64.5 17t50 38.5t42 64t35 74.5t34.5 90q5 13 7 19h66q-22 -61 -33 -88.5t-30.5 -73.5
t-34 -67.5t-36 -47.5t-45 -37.5t-51.5 -14.5v-2z" />
    <glyph glyph-name="uni041B" unicode="&#x41b;" horiz-adv-x="644" 
d="M552 690v-690h-66v636h-158q-72 0 -78 -75q-19 -216 -31.5 -294.5t-46.5 -142.5q-55 -115 -154 -125l-6 51q63 24 99 93q32 63 44.5 137.5t30.5 291.5q11 118 126 118h240z" />
    <glyph glyph-name="uni041C" unicode="&#x41c;" horiz-adv-x="869" 
d="M732 690q29 0 29 -29l29 -661h-65l-27 635h-22l-179 -541q-7 -22 -30 -22h-66q-23 0 -30 22l-180 541h-21l-26 -635h-65l28 661q0 29 29 29h79q21 0 29 -23l151 -450q16 -50 28 -94h22q6 22 29 95l151 449q6 23 29 23h78z" />
    <glyph glyph-name="uni041D" unicode="&#x41d;" horiz-adv-x="664" 
d="M505 690h66v-690h-66v341h-347v-341h-65v690h65v-293h347v293z" />
    <glyph glyph-name="uni041E" unicode="&#x41e;" 
d="M333 702q148 0 207 -78.5t59 -278.5t-59 -278.5t-207 -78.5t-207 78.5t-59 278.5t59 278.5t207 78.5zM333 644q-111 0 -154.5 -65.5t-43.5 -233.5t43.5 -233.5t154.5 -65.5t154 65.5t43 233.5t-43 233.5t-154 65.5z" />
    <glyph glyph-name="uni041F" unicode="&#x41f;" 
d="M574 690v-690h-66v636h-350v-636h-65v690h481z" />
    <glyph glyph-name="uni0420" unicode="&#x420;" horiz-adv-x="587" 
d="M324 698q121 0 167.5 -44.5t46.5 -166.5t-45.5 -166.5t-161.5 -44.5q-86 0 -172 8v-284h-66v690q83 8 231 8zM323 333q84 1 116 32.5t32 121.5q0 91 -32 123t-116 32q-124 0 -164 -1v-308h164z" />
    <glyph glyph-name="uni0421" unicode="&#x421;" horiz-adv-x="567" 
d="M331 702q109 0 184 -19l-8 -49q-76 9 -176 9q-110 0 -153 -65t-43 -233t43 -233t153 -65q114 0 190 11l8 -49q-78 -21 -198 -21q-146 0 -205 80t-59 277t59 277t205 80z" />
    <glyph glyph-name="uni0422" unicode="&#x422;" horiz-adv-x="575" 
d="M550 690v-58h-230v-632h-66v632h-229v58h525z" />
    <glyph glyph-name="uni0423" unicode="&#x423;" horiz-adv-x="553" 
d="M471 690h67l-192 -523q-11 -31 -19.5 -51.5t-22 -45t-27.5 -39t-33 -25.5t-42 -12q-58 -5 -115 13l8 47q36 -4 56 -5.5t39.5 3t28.5 9.5t21.5 22.5t19.5 33.5t21 51l13 34h-41q-45 0 -62 43l-164 445h67l150 -414q7 -18 26 -18h43z" />
    <glyph glyph-name="uni0424" unicode="&#x424;" horiz-adv-x="821" 
d="M762 353q0 -157 -71.5 -223t-246.5 -71v-100h-66v100q-176 5 -247.5 70.5t-71.5 223.5q0 160 71.5 226.5t247.5 71.5v99h65l1 -99q175 -5 246.5 -71.5t71.5 -226.5zM127 353q0 -132 55 -183.5t198 -55.5v481q-143 -4 -198 -55.5t-55 -186.5zM441 114q143 5 198 56t56 183
q-1 134 -56 185.5t-198 56.5v-481z" />
    <glyph glyph-name="uni0425" unicode="&#x425;" horiz-adv-x="608" 
d="M504 0l-187 334h-27l-187 -334h-72l203 358l-190 332h72l172 -305h31l172 305h73l-191 -332l204 -358h-73z" />
    <glyph glyph-name="uni0426" unicode="&#x426;" horiz-adv-x="684" 
d="M566 54h83v-205h-45l-8 151h-503v690h65v-636h342v636h66v-636z" />
    <glyph glyph-name="uni0427" unicode="&#x427;" horiz-adv-x="618" 
d="M460 690h66v-690h-66v328q-119 -71 -248 -71q-148 0 -148 152v281h65v-268q0 -56 25 -81t80 -25q60 0 110.5 14t115.5 50v310z" />
    <glyph glyph-name="uni0428" unicode="&#x428;" horiz-adv-x="919" 
d="M762 690h65v-690h-734v690h64v-636h271v636h64v-636h270v636z" />
    <glyph glyph-name="uni0429" unicode="&#x429;" horiz-adv-x="936" 
d="M819 54h83v-205h-45l-8 151h-756v690h64v-636h267v636h64v-636h267v636h64v-636z" />
    <glyph glyph-name="uni042A" unicode="&#x42a;" horiz-adv-x="746" 
d="M476 402q124 0 172 -46t48 -160q0 -118 -47.5 -161t-163.5 -43q-151 0 -236 8v632h-224v58h290v-288h161zM476 50q89 0 121 29.5t32 116.5q0 85 -31.5 117.5t-121.5 32.5h-161v-295q39 -1 161 -1z" />
    <glyph glyph-name="uni042B" unicode="&#x42b;" horiz-adv-x="833" 
d="M321 402q124 0 172 -46t48 -160q0 -118 -47.5 -161t-163.5 -43q-151 0 -236 8h-1v690h65v-288h163zM675 690h65v-690h-65v690zM321 50q89 0 121 29.5t32 116.5q0 85 -31.5 117.5t-121.5 32.5h-163v-295q40 -1 163 -1z" />
    <glyph glyph-name="uni042C" unicode="&#x42c;" horiz-adv-x="591" 
d="M321 402q124 0 172 -46t48 -160q0 -118 -47.5 -161t-163.5 -43q-151 0 -236 8h-1v690h65v-288h163zM321 50q89 0 121 29.5t32 116.5q0 85 -31.5 117.5t-121.5 32.5h-163v-295q40 -1 163 -1z" />
    <glyph glyph-name="uni042D" unicode="&#x42d;" horiz-adv-x="574" 
d="M235 702q151 0 212 -80t61 -277t-61 -277t-212 -80q-115 0 -193 21l9 50q71 -12 184 -12q114 0 159 64.5t46 229.5l-304 1v51l303 1q-6 138 -52 193.5t-152 55.5q-94 0 -177 -10l-9 50q76 19 186 19z" />
    <glyph glyph-name="uni042E" unicode="&#x42e;" horiz-adv-x="915" 
d="M581 702q148 0 207.5 -78.5t59.5 -278.5t-59.5 -278.5t-207.5 -78.5q-139 0 -196 76t-58 268h-168v-332h-65v690h65v-304h169q4 175 61.5 245.5t191.5 70.5zM581 46q111 0 154 65.5t44 233.5q-1 168 -44 233.5t-154 65.5q-106 0 -147.5 -65.5t-41.5 -233.5t41.5 -233.5
t147.5 -65.5z" />
    <glyph glyph-name="uni042F" unicode="&#x42f;" horiz-adv-x="609" 
d="M290 698q145 0 226 -8v-690h-65v289q-80 -2 -170 -2q-73 0 -99 -79l-65 -208h-70l68 211q25 80 88 96l-1 6q-63 9 -93.5 57.5t-30.5 125.5q0 110 49.5 156t162.5 46zM282 344h169v297q-39 1 -160 1q-80 0 -113 -32t-34 -117q0 -149 138 -149z" />
    <glyph glyph-name="uni0430" unicode="&#x430;" horiz-adv-x="547" 
d="M311 497q78 0 116.5 -34.5t38.5 -114.5v-348h-50l-8 85q-35 -36 -92.5 -64.5t-119.5 -28.5q-64 0 -101 34t-37 97v56q0 56 33 87t94 31h217v51q0 48 -22.5 71t-80.5 23q-86 0 -215 -14l-6 47q145 22 233 22zM207 48q44 -1 98.5 21.5t96.5 60.5v118l-207 -2
q-73 -3 -73 -75v-42q0 -81 85 -81z" />
    <glyph glyph-name="uni0431" unicode="&#x431;" horiz-adv-x="569" 
d="M466 736l16 -49q-27 -18 -55 -29.5t-46.5 -16.5t-49 -11t-47.5 -11q-79 -23 -110.5 -69t-40.5 -120q-6 -32 -8 -70h2q8 22 19 38.5t31 34.5t55.5 27.5t83.5 9.5q106 0 148.5 -53.5t42.5 -182.5q0 -124 -45.5 -185t-169.5 -61q-50 0 -86.5 9.5t-59.5 30.5t-37.5 45
t-21.5 63t-9 73t-2 86q0 70 3.5 117t15 92t32 74t54.5 52t83 38q20 6 62.5 14.5t73.5 20t66 33.5zM300 415q-94 0 -126 -43.5t-32 -136.5q0 -108 34 -150t117 -42t115.5 41.5t32.5 150.5q0 103 -30.5 141.5t-110.5 38.5z" />
    <glyph glyph-name="uni0432" unicode="&#x432;" horiz-adv-x="551" 
d="M370 248q66 -5 94 -36.5t28 -91.5q0 -73 -42.5 -99.5t-149.5 -26.5q-136 0 -216 6v483q71 6 189 6q114 0 158 -27t44 -102q0 -52 -25 -79t-80 -31v-2zM271 439h-127v-166h141q73 0 101 17t28 65q0 49 -31 66.5t-112 17.5zM291 45q78 0 107.5 17.5t29.5 68.5
q0 54 -31.5 74.5t-111.5 20.5h-141v-181h147z" />
    <glyph glyph-name="uni0433" unicode="&#x433;" horiz-adv-x="454" 
d="M184 486q166 0 245 -6l-2 -46h-218q-64 0 -64 -65v-369h-63v384q0 50 26 76t76 26z" />
    <glyph glyph-name="uni0434" unicode="&#x434;" horiz-adv-x="573" 
d="M468 52h62v-197h-42l-7 145h-403l-6 -145h-43v197h53q67 124 80 328q6 104 113 104h193v-432zM140 52h267v382h-122q-60 0 -65 -63q-12 -200 -80 -319z" />
    <glyph glyph-name="uni0435" unicode="&#x435;" horiz-adv-x="535" 
d="M294 43q76 0 168 12l7 -43q-61 -24 -183 -24t-173.5 58.5t-51.5 197.5q0 140 50 196.5t167 56.5q103 0 152 -37.5t50 -113.5q2 -135 -111 -135h-242q5 -96 43.5 -132t123.5 -36zM281 442q-84 0 -118.5 -39.5t-36.5 -141.5h228q64 0 62 84q-1 51 -33 74t-102 23z" />
    <glyph glyph-name="uni0436" unicode="&#x436;" horiz-adv-x="778" 
d="M547 252q25 -2 45 -10t38 -27t29 -33.5t28 -51.5t25 -57.5t28 -72.5h-65q-54 130 -74 161q-40 64 -104 67h-5h-76q4 -24 4 -52v-176h-57v176q0 22 5 52h-82q-32 0 -54.5 -10.5t-45 -45t-32.5 -56t-38 -88.5q-8 -18 -12 -28h-66q54 139 80 178q43 67 114 74v2
q-28 3 -51 16.5t-38.5 29.5t-33.5 51.5t-27.5 58.5t-29.5 74h65q18 -46 28 -68.5t27.5 -54.5t32.5 -46.5t36.5 -26t47.5 -11.5h78q-4 25 -4 57v150h57v-150q0 -38 -4 -57h73q32 0 56.5 13.5t46 47.5t34.5 61.5t36 84.5h65q-20 -51 -29.5 -74t-27.5 -58.5t-33.5 -51.5
t-38.5 -29.5t-51 -16.5v-2z" />
    <glyph glyph-name="uni0437" unicode="&#x437;" horiz-adv-x="488" 
d="M203 492q121 0 167 -26t46 -102q0 -55 -23 -82t-80 -32v-2q63 -5 91 -36t28 -93q0 -71 -45.5 -99t-157.5 -28q-101 0 -183 13l6 49q99 -8 173 -8q80 0 110.5 19t30.5 67q0 52 -30.5 71.5t-108.5 20.5h-108v47l107 1q74 0 100.5 17.5t26.5 66.5q0 50 -31.5 66t-120.5 16
q-85 0 -136 -8l-6 48q61 14 144 14z" />
    <glyph glyph-name="uni0438" unicode="&#x438;" horiz-adv-x="585" 
d="M500 484v-484h-58v348q0 18 2 60h-2q-10 -21 -32 -51l-273 -357h-52v484h57v-346q0 -40 -1 -62h2q19 34 33 52l272 356h52z" />
    <glyph glyph-name="uni0439" unicode="&#x439;" horiz-adv-x="585" 
d="M381 700h51q2 -58 -37.5 -95t-106.5 -37q-69 0 -109 37t-37 95h50q0 -45 25.5 -70t70.5 -25q43 0 68 25t25 70zM500 484v-484h-58v348q0 18 2 60h-2q-10 -21 -32 -51l-273 -357h-52v484h57v-346q0 -40 -1 -62h2q19 34 33 52l272 356h52z" />
    <glyph glyph-name="uni043A" unicode="&#x43a;" horiz-adv-x="529" 
d="M287 251q20 -2 37 -6.5t32 -15.5t26 -20t24.5 -30t21 -33.5t21 -43.5t20 -46.5t22.5 -55.5h-67q-25 60 -34.5 82t-30 59t-36 50t-40.5 24.5t-57 11.5h-82q4 -24 4 -51v-176h-63v484h63v-150q0 -32 -4 -57h79q30 0 54.5 11.5t41 26t35 46.5t28.5 54.5t29 68.5h66
q-18 -44 -26 -62.5t-24.5 -51.5t-28 -47.5t-29 -32.5t-38 -26t-44.5 -11v-2z" />
    <glyph glyph-name="uni043B" unicode="&#x43b;" horiz-adv-x="553" 
d="M468 484v-484h-64v434h-123q-32 0 -47 -15t-19 -49q-1 -7 -4 -34t-4.5 -37.5t-4.5 -35t-5.5 -37t-6.5 -33.5t-7.5 -35t-8.5 -30.5t-11 -29.5q-36 -94 -135 -103l-7 50q36 11 55.5 28.5t30.5 44.5q6 14 12 32t10 39.5t7.5 39t6.5 43t4.5 38.5t4 38.5t3.5 30.5
q7 54 34.5 79.5t82.5 25.5h196z" />
    <glyph glyph-name="uni043C" unicode="&#x43c;" horiz-adv-x="738" 
d="M616 484q26 0 26 -25l22 -459h-59l-21 435h-18l-144 -364q-8 -21 -26 -21h-55q-19 0 -27 21l-143 364h-18l-20 -435h-59l22 459q0 25 26 25h70q18 0 26 -21l118 -301q14 -34 24 -69h17q19 56 24 69l118 301q7 21 27 21h70z" />
    <glyph glyph-name="uni043D" unicode="&#x43d;" horiz-adv-x="576" 
d="M429 484h63v-484h-63v233h-282v-233h-62v484h62v-201h282v201z" />
    <glyph glyph-name="uni043E" unicode="&#x43e;" horiz-adv-x="567" 
d="M284 497q122 0 172 -57.5t50 -197.5t-50 -197t-172 -57t-172.5 57.5t-50.5 196.5q0 140 50.5 197.5t172.5 57.5zM284 442q-88 0 -122.5 -43t-34.5 -157t34.5 -157t122.5 -43t122 43t34 157t-34 157t-122 43z" />
    <glyph glyph-name="uni043F" unicode="&#x43f;" horiz-adv-x="571" 
d="M486 484v-484h-62v433h-277v-433h-62v484h401z" />
    <glyph glyph-name="uni0440" unicode="&#x440;" horiz-adv-x="575" 
d="M343 497q90 0 130 -62t40 -195q0 -137 -42.5 -194.5t-138.5 -57.5q-94 0 -186 51q4 -41 2 -96v-147h-63v688h52l6 -80q93 93 200 93zM319 44q71 0 100 42.5t29 154.5q0 110 -28 155t-95 45q-41 0 -81.5 -19.5t-95.5 -64.5v-277q110 -36 171 -36z" />
    <glyph glyph-name="uni0441" unicode="&#x441;" horiz-adv-x="487" 
d="M288 497q89 0 149 -22l-10 -41q-53 8 -129 8q-96 0 -133.5 -42.5t-37.5 -157.5t37.5 -157t133.5 -42q84 0 141 11l7 -44q-74 -22 -158 -22q-125 0 -176 57t-51 197t51 197.5t176 57.5z" />
    <glyph glyph-name="uni0442" unicode="&#x442;" horiz-adv-x="483" 
d="M456 484v-52h-183v-432h-63v432h-182v52h428z" />
    <glyph glyph-name="uni0443" unicode="&#x443;" horiz-adv-x="522" 
d="M431 484h68l-204 -518q-38 -99 -89 -138q-62 -46 -163 -31l6 43q76 -4 118 26q39 31 69 107l12 27h-16q-19 0 -25 17l-184 467h68l143 -378q12 -32 20 -56h14q2 6 6.5 18t8 21.5t6.5 17.5z" />
    <glyph glyph-name="uni0444" unicode="&#x444;" horiz-adv-x="711" 
d="M651 242q0 -132 -61 -190.5t-205 -63.5v-192h-59v192q-144 5 -205 64t-61 190q0 132 61 191t205 64v203h59v-203q144 -5 205 -64t61 -191zM122 242q0 -107 46 -151t160 -48v399q-114 -4 -160 -48t-46 -152zM384 43q114 5 159.5 48.5t45.5 150.5t-45.5 151t-159.5 49v-399
z" />
    <glyph glyph-name="uni0445" unicode="&#x445;" horiz-adv-x="522" 
d="M423 0l-151 227h-22l-151 -227h-71l170 251l-157 233h70l137 -206h26l137 206h70l-157 -233l169 -251h-70z" />
    <glyph glyph-name="uni0446" unicode="&#x446;" horiz-adv-x="584" 
d="M479 52h62v-195h-43l-8 143h-405v484h63v-432h268v432h63v-432z" />
    <glyph glyph-name="uni0447" unicode="&#x447;" horiz-adv-x="522" 
d="M374 484h63v-484h-63v216q-98 -42 -201 -42q-115 0 -115 105v205h63v-186q0 -38 17 -54.5t55 -16.5q89 0 181 40v217z" />
    <glyph glyph-name="uni0448" unicode="&#x448;" horiz-adv-x="797" 
d="M651 484h61v-484h-627v484h62v-432h222v432h58v-432h224v432z" />
    <glyph glyph-name="uni0449" unicode="&#x449;" horiz-adv-x="819" 
d="M713 52h62v-195h-43l-7 143h-640v484h62v-432h223v432h57v-432h225v432h61v-432z" />
    <glyph glyph-name="uni044A" unicode="&#x44a;" horiz-adv-x="629" 
d="M394 287q107 0 147.5 -32.5t40.5 -114.5q0 -84 -40.5 -115t-138.5 -31q-126 0 -200 6v433h-176v51h238v-197h129zM394 45q70 0 96.5 20t26.5 78q0 55 -26 75.5t-97 20.5h-129v-193q33 -1 129 -1z" />
    <glyph glyph-name="uni044B" unicode="&#x44b;" horiz-adv-x="705" 
d="M277 287q101 0 139 -32.5t38 -114.5q0 -84 -37.5 -115t-130.5 -31q-126 0 -200 6h-1v484h61v-197h131zM556 484h63v-484h-63v484zM277 45q63 0 87.5 20t24.5 78q0 55 -23.5 75.5t-88.5 20.5h-131v-193q33 -1 131 -1z" />
    <glyph glyph-name="uni044C" unicode="&#x44c;" horiz-adv-x="512" 
d="M277 287q107 0 147.5 -32.5t40.5 -114.5q0 -84 -40.5 -115t-138.5 -31q-126 0 -200 6h-1v484h61v-197h131zM277 45q70 0 96.5 20t26.5 78q0 55 -26 75.5t-97 20.5h-131v-193q33 -1 131 -1z" />
    <glyph glyph-name="uni044D" unicode="&#x44d;" horiz-adv-x="498" 
d="M206 490q128 0 179.5 -55.5t51.5 -194.5q0 -138 -51.5 -193.5t-179.5 -55.5q-96 0 -163 17l8 45q64 -7 155 -7t127.5 38t38.5 139h-250v48l249 1q-4 92 -40.5 128t-124.5 36q-80 0 -150 -7l-7 45q58 16 157 16z" />
    <glyph glyph-name="uni044E" unicode="&#x44e;" horiz-adv-x="785" 
d="M498 497q126 0 176 -55t50 -199q0 -142 -50 -196.5t-176 -54.5q-117 0 -164.5 50.5t-50.5 182.5h-135v-225h-63v484h63v-209h136q4 125 52 173.5t162 48.5zM497 46q91 0 125.5 42.5t35.5 155.5q-1 113 -35.5 155.5t-125.5 42.5q-86 0 -119 -42.5t-33 -155.5
q0 -112 33 -155t119 -43z" />
    <glyph glyph-name="uni044F" unicode="&#x44f;" horiz-adv-x="537" 
d="M243 489q135 0 209 -7v-482h-62v186h-141q-83 0 -99 -57l-38 -129h-66l45 143q16 54 95 64v3q-115 10 -115 139q0 67 39.5 103.5t132.5 36.5zM252 234h138v201q-35 1 -146 1q-62 0 -86 -23.5t-24 -73.5q0 -55 26 -80t92 -25z" />
    <glyph glyph-name="uni0450" unicode="&#x450;" horiz-adv-x="535" 
d="M330 581l-24 -30l-178 128l38 48zM294 43q76 0 168 12l7 -43q-61 -24 -183 -24t-173.5 58.5t-51.5 197.5q0 140 50 196.5t167 56.5q103 0 152 -37.5t50 -113.5q2 -135 -111 -135h-242q5 -96 43.5 -132t123.5 -36zM281 442q-84 0 -118.5 -39.5t-36.5 -141.5h228
q64 0 62 84q-1 51 -33 74t-102 23z" />
    <glyph glyph-name="uni0451" unicode="&#x451;" horiz-adv-x="535" 
d="M180 590q-19 0 -19 20v55q0 19 19 19h22q18 0 18 -19v-55q0 -20 -18 -20h-22zM357 590q-19 0 -19 20v55q0 19 19 19h22q19 0 19 -19v-55q0 -20 -19 -20h-22zM294 43q76 0 168 12l7 -43q-61 -24 -183 -24t-173.5 58.5t-51.5 197.5q0 140 50 196.5t167 56.5
q103 0 152 -37.5t50 -113.5q2 -135 -111 -135h-242q5 -96 43.5 -132t123.5 -36zM281 442q-84 0 -118.5 -39.5t-36.5 -141.5h228q64 0 62 84q-1 51 -33 74t-102 23z" />
    <glyph glyph-name="uni0452" unicode="&#x452;" horiz-adv-x="578" 
d="M387 399q130 0 132 -133v-290q0 -110 -84 -182l-35 28q55 68 55 154v274q0 48 -22 69.5t-71 21.5q-43 0 -86 -18t-106 -58v-265h-64v495h-77v44h77v161h65v-161h197v-44h-197v-94q0 -46 -5 -88q121 86 221 86z" />
    <glyph glyph-name="uni0453" unicode="&#x453;" horiz-adv-x="454" 
d="M365 732l38 -48l-178 -128l-24 30zM184 486q166 0 245 -6l-2 -46h-218q-64 0 -64 -65v-369h-63v384q0 50 26 76t76 26z" />
    <glyph glyph-name="uni0454" unicode="&#x454;" horiz-adv-x="499" 
d="M448 53l7 -45q-65 -17 -163 -17q-127 0 -178.5 56t-51.5 193q0 139 51 194.5t179 55.5q100 0 158 -16l-8 -45q-69 7 -150 7q-87 0 -124 -36t-41 -128l250 -1v-48h-251q2 -100 39 -138.5t127 -38.5q92 0 156 7z" />
    <glyph glyph-name="uni0455" unicode="&#x455;" horiz-adv-x="507" 
d="M241 497q110 -2 198 -15l-6 -46q-120 6 -184 6q-80 1 -106 -11.5t-26 -65.5q0 -41 17 -57t57 -24l149 -28q58 -12 85 -41.5t27 -88.5q0 -85 -45.5 -111t-155.5 -26q-99 0 -185 13l5 47q79 -7 169 -6q89 1 119.5 16.5t30.5 66.5q0 39 -19 55t-60 24l-148 28
q-57 11 -82.5 41.5t-25.5 90.5q0 82 41.5 107.5t144.5 24.5z" />
    <glyph glyph-name="uni0456" unicode="&#x456;" horiz-adv-x="240" 
d="M135 688q21 0 21 -21v-58q0 -21 -21 -21h-30q-20 0 -20 21v58q0 21 20 21h30zM152 484v-484h-63v484h63z" />
    <glyph glyph-name="uni0457" unicode="&#x457;" horiz-adv-x="240" 
d="M42 684q18 0 18 -19v-55q0 -20 -18 -20h-22q-19 0 -19 20v55q0 19 19 19h22zM219 684q19 0 19 -19v-55q0 -20 -19 -20h-22q-19 0 -19 20v55q0 19 19 19h22zM152 484v-484h-63v484h63z" />
    <glyph glyph-name="uni0458" unicode="&#x458;" horiz-adv-x="241" 
d="M135 688q21 0 21 -21v-58q0 -21 -21 -21h-29q-21 0 -21 21v58q0 21 21 21h29zM152 484v-508q0 -111 -84 -182l-34 28q55 70 55 154v508h63z" />
    <glyph glyph-name="uni0459" unicode="&#x459;" horiz-adv-x="791" 
d="M562 293q103 0 142.5 -33t39.5 -117q0 -91 -41.5 -120t-144.5 -29q-106 0 -176 6v436h-98q-29 0 -43 -12t-17 -40q-14 -137 -24 -191t-34 -101q-38 -84 -130 -94l-7 45q55 24 79 66q34 59 54 253q1 7 1.5 11t1 10.5t1.5 11.5q9 89 104 89h173v-191h119zM548 45
q76 0 103.5 18.5t27.5 81.5q0 56 -25 78.5t-92 22.5h-119v-200q30 -1 105 -1z" />
    <glyph glyph-name="uni045A" unicode="&#x45a;" horiz-adv-x="801" 
d="M573 292q102 0 141 -32.5t39 -115.5q0 -86 -38.5 -118t-133.5 -32q-118 0 -189 6v244h-248v-244h-59v484h59v-193h248v193h60v-192h121zM573 45q66 0 91 20t25 80q0 56 -24.5 78t-91.5 22h-121v-199q31 -1 121 -1z" />
    <glyph glyph-name="uni045B" unicode="&#x45b;" horiz-adv-x="578" 
d="M387 399q132 0 132 -133v-266h-64v250q0 49 -21.5 70t-71.5 21q-43 0 -86 -18t-106 -58v-265h-64v495h-77v44h77v161h65v-161h197v-44h-197v-94q0 -46 -5 -88q121 86 221 86z" />
    <glyph glyph-name="uni045C" unicode="&#x45c;" horiz-adv-x="529" 
d="M416 684l-178 -128l-24 30l164 146zM287 251q20 -2 37 -6.5t32 -15.5t26 -20t24.5 -30t21 -33.5t21 -43.5t20 -46.5t22.5 -55.5h-67q-25 60 -34.5 82t-30 59t-36 50t-40.5 24.5t-57 11.5h-82q4 -24 4 -51v-176h-63v484h63v-150q0 -32 -4 -57h79q30 0 54.5 11.5t41 26
t35 46.5t28.5 54.5t29 68.5h66q-18 -44 -26 -62.5t-24.5 -51.5t-28 -47.5t-29 -32.5t-38 -26t-44.5 -11v-2z" />
    <glyph glyph-name="uni045D" unicode="&#x45d;" horiz-adv-x="585" 
d="M174 727l164 -146l-24 -30l-178 128zM500 484v-484h-58v348q0 18 2 60h-2q-10 -21 -32 -51l-273 -357h-52v484h57v-346q0 -40 -1 -62h2q19 34 33 52l272 356h52z" />
    <glyph glyph-name="uni045E" unicode="&#x45e;" horiz-adv-x="522" 
d="M259 568q-69 0 -109 37t-37 95h50q0 -45 25.5 -70t70.5 -25q43 0 68 25t25 70h51q2 -58 -37.5 -95t-106.5 -37zM431 484h68l-204 -518q-38 -99 -89 -138q-62 -46 -163 -31l6 43q76 -4 118 26q39 31 69 107l12 27h-16q-19 0 -25 17l-184 467h68l143 -378q12 -32 20 -56h14
q2 6 6.5 18t8 21.5t6.5 17.5z" />
    <glyph glyph-name="uni045F" unicode="&#x45f;" horiz-adv-x="574" 
d="M426 484h63v-484h-174l-6 -166h-43l-7 166h-174v484h63l1 -432h276z" />
    <glyph glyph-name="uni0462" unicode="&#x462;" horiz-adv-x="621" 
d="M361 402q124 0 172 -46t48 -160q0 -118 -47.5 -161t-163.5 -43q-151 0 -236 8h-1v554h-118v50h118v126h65v-126h244v-50h-244v-152h163zM361 50q89 0 121 29.5t32 116.5q0 85 -31.5 117.5t-121.5 32.5h-163v-295q40 -1 163 -1z" />
    <glyph glyph-name="uni0463" unicode="&#x463;" horiz-adv-x="526" 
d="M292 287q107 0 147 -32t40 -115q0 -84 -40 -115t-138 -31q-126 0 -200 6h-2v460h-95v43h95v187h62v-187h176v-43h-176v-173h131zM292 45q69 0 95.5 20t26.5 78q0 55 -25.5 75.5t-96.5 20.5h-131v-193q33 -1 131 -1z" />
    <glyph glyph-name="uni046A" unicode="&#x46a;" horiz-adv-x="851" 
d="M14 0q76 189 107 241q50 84 120 110q52 18 134 18v4l-280 282q-11 11 -6 23t21 12h626q16 0 21 -12t-6 -23l-274 -282v-4q40 0 71 -3.5t58 -14t46.5 -22t39 -35t33.5 -45.5t33 -62t33 -74.5t38 -92.5q5 -13 8 -20h-69q-31 81 -50.5 128t-43 88t-41 59t-46.5 31.5
t-57.5 16t-75.5 2.5q3 -42 3 -77v-248h-63v248q0 12 1.5 41t1.5 36q-47 0 -75.5 -2.5t-57.5 -16t-46.5 -31.5t-41 -59t-43 -88t-50.5 -128h-69zM426 397l235 242h-478z" />
    <glyph glyph-name="uni046B" unicode="&#x46b;" horiz-adv-x="679" 
d="M14 0q62 143 87 181q40 58 107 72q31 7 77 8v3l-208 189q-10 10 -5.5 21t17.5 11h497q13 0 17.5 -10.5t-4.5 -20.5l-205 -190v-3q49 -1 81.5 -9t57 -24t44 -45t38.5 -69t45 -99l6 -15h-68q-24 57 -38.5 88.5t-32 60t-30 41t-33.5 21.5t-41.5 11t-54.5 2q2 -40 2 -54v-170
h-61v170q0 14 2 54q-51 0 -76.5 -5t-52.5 -31.5t-46 -65t-55 -122.5h-67zM339 282l172 156h-346z" />
    <glyph glyph-name="uni0472" unicode="&#x472;" 
d="M333 702q148 0 207 -78.5t59 -278.5t-59 -278.5t-207 -78.5t-207 78.5t-59 278.5t59 278.5t207 78.5zM333 644q-106 0 -150 -59.5t-48 -209.5h395q-4 150 -47.5 209.5t-149.5 59.5zM333 46q107 0 151 61t46 216h-395q2 -155 46 -216t152 -61z" />
    <glyph glyph-name="uni0473" unicode="&#x473;" horiz-adv-x="567" 
d="M284 497q122 0 172 -57.5t50 -197.5t-50 -197t-172 -57t-172.5 57.5t-50.5 196.5q0 140 50.5 197.5t172.5 57.5zM284 442q-83 0 -118 -37.5t-39 -135.5h313q-4 98 -38.5 135.5t-117.5 37.5zM284 42q86 0 120.5 40.5t35.5 146.5h-313q1 -106 36 -146.5t121 -40.5z" />
    <glyph glyph-name="uni0474" unicode="&#x474;" horiz-adv-x="641" 
d="M265 0q-21 0 -26 19l-219 671h68l178 -563q8 -25 22 -75h27q3 13 9 32t13 43l127 473q27 104 133 104q19 0 39 -3v-49l-23 1q-37 0 -55.5 -14.5t-30.5 -56.5l-163 -563q-7 -19 -26 -19h-73z" />
    <glyph glyph-name="uni0475" unicode="&#x475;" horiz-adv-x="545" 
d="M228 0q-17 0 -24 17l-182 469h68l142 -385q10 -25 18 -53h22q1 4 6.5 19t11.5 34l101 313q13 39 38 60.5t74 21.5q19 0 38 -3v-48q-6 1 -19 1q-32 0 -47.5 -10.5t-25.5 -40.5l-129 -378q-5 -17 -25 -17h-67z" />
    <glyph glyph-name="uni048A" unicode="&#x48a;" horiz-adv-x="704" 
d="M347 748q-69 0 -109 37t-37 95h50q0 -45 25.5 -70t70.5 -25q43 0 68 25t25 70h51q2 -58 -37.5 -95t-106.5 -37zM594 31l60 -69l-10 -42l-8 9h-75l17 71h-48v531q0 37 3 76h-3q-24 -49 -36 -70l-335 -537h-66v690h63v-527q0 -39 -3 -78h3q13 26 39 72l332 533h67v-659z
" />
    <glyph glyph-name="uni048B" unicode="&#x48b;" horiz-adv-x="600" 
d="M288 568q-69 0 -109 37t-37 95h50q0 -45 25.5 -70t70.5 -25q43 0 68 25t25 70h51q2 -58 -37.5 -95t-106.5 -37zM500 26l50 -65l-10 -37l-8 8h-67l16 68h-39v348q0 18 2 60h-2q-10 -21 -32 -51l-273 -357h-52v484h57v-346q0 -40 -1 -62h2q19 34 33 52l272 356h52v-458z
" />
    <glyph glyph-name="uni048C" unicode="&#x48c;" horiz-adv-x="621" 
d="M362 402q124 0 172 -46t48 -160q0 -118 -47.5 -161t-163.5 -43q-151 0 -236 8h-1v520h-118v50h118v120h65v-120h244v-50h-244v-118h163zM362 50q89 0 121 29.5t32 116.5q0 85 -31.5 117.5t-121.5 32.5h-163v-295q40 -1 163 -1z" />
    <glyph glyph-name="uni048D" unicode="&#x48d;" horiz-adv-x="526" 
d="M292 287q107 0 147 -32t40 -115q0 -84 -40 -115t-138 -31q-126 0 -200 6h-2v460h-95v43h95v187h62v-187h176v-43h-176v-173h131zM292 45q69 0 95.5 20t26.5 78q0 55 -25.5 75.5t-96.5 20.5h-131v-193q33 -1 131 -1z" />
    <glyph glyph-name="uni048E" unicode="&#x48e;" horiz-adv-x="610" 
d="M581 250l-28 -29l-81 81q-44 -26 -137 -26q-86 0 -172 8v-284h-66v690q85 8 232 8q120 0 166.5 -44.5t46.5 -166.5q0 -112 -39 -160zM328 333q63 0 96 17l-83 83l27 29l85 -85q23 35 23 110q0 91 -32 123t-116 32q-124 0 -165 -1v-308h165z" />
    <glyph glyph-name="uni048F" unicode="&#x48f;" horiz-adv-x="573" 
d="M517 -70l-33 -23l-67 96q-36 -15 -85 -15q-96 0 -187 51q4 -41 2 -96v-147h-63v688h52l6 -80q93 93 200 93q90 0 130 -62t40 -195q0 -161 -62 -216zM318 44q39 0 62 11l-68 97l32 23l68 -96q35 42 35 162q0 110 -28 155t-95 45q-41 0 -81.5 -19.5t-95.5 -64.5v-277
q110 -36 171 -36z" />
    <glyph glyph-name="uni0490" unicode="&#x490;" horiz-adv-x="520" 
d="M453 841h43v-161l-3 -45h-265q-72 0 -72 -75v-560h-66v571q0 52 33.5 86t84.5 34q160 0 237 -6z" />
    <glyph glyph-name="uni0491" unicode="&#x491;" horiz-adv-x="455" 
d="M387 631h43v-151l-3 -46h-218q-33 0 -48 -15.5t-15 -49.5v-369h-63v384q0 102 102 102q130 0 194 -3z" />
    <glyph glyph-name="uni0492" unicode="&#x492;" horiz-adv-x="537" 
d="M264 635q-72 0 -72 -75v-198h220v-50h-220v-312h-66v312h-113v50h113v209q0 52 33.5 86t84.5 34q193 0 286 -6l-4 -50h-262z" />
    <glyph glyph-name="uni0493" unicode="&#x493;" horiz-adv-x="454" 
d="M209 434q-64 0 -64 -65v-127h167v-43h-167v-199h-63v199h-84v43h84v142q0 50 26 76t76 26q166 0 245 -6l-2 -46h-218z" />
    <glyph glyph-name="uni0494" unicode="&#x494;" horiz-adv-x="585" 
d="M360 439q40 0 69.5 -11.5t55.5 -39.5t39.5 -84.5t13.5 -138.5q0 -90 -17 -152.5t-52 -98t-77.5 -52t-102.5 -22.5l-12 46q52 8 84.5 21.5t59.5 43t39 81.5t12 132q0 69 -8.5 113t-27 66.5t-40 30t-55.5 7.5q-85 0 -185 -62v-319h-66v571q0 52 33.5 86t84.5 34
q185 0 273 -6l-3 -50h-250q-72 0 -72 -75v-188q101 67 204 67z" />
    <glyph glyph-name="uni0495" unicode="&#x495;" horiz-adv-x="527" 
d="M316 289q37 0 64.5 -9t52.5 -31.5t38 -66.5t13 -109q0 -145 -61 -208t-180 -74l-11 46q99 13 143.5 64.5t44.5 169.5q0 97 -30.5 130t-90.5 33q-42 0 -75.5 -12t-78.5 -40v-182h-63v384q0 50 26 76t76 26q149 0 220 -6l-2 -46h-193q-64 0 -64 -65v-139q83 59 171 59z" />
    <glyph glyph-name="uni0496" unicode="&#x496;" horiz-adv-x="928" 
d="M841 46h77v-126h-74v9h-16l-3 71h-38q-7 17 -19 50q-18 48 -27 70.5t-24.5 59t-26.5 54t-28 40.5t-33 33t-37.5 18t-46.5 8h-73q6 -41 6 -78v-255h-63v255q0 37 6 78h-80q-34 0 -62 -15.5t-46.5 -33t-41.5 -62.5t-34.5 -73t-37.5 -97q-13 -34 -20 -52h-69q66 179 89 224
q54 107 125 129q16 5 33 6v2q-32 3 -60.5 22t-48 42.5t-41 67.5t-34.5 76.5t-34 90.5q-7 20 -11 30h67q59 -154 86 -201q59 -102 141 -102h79q-6 39 -6 80v223h63v-223q0 -47 -5 -80h71q40 0 72.5 21.5t57.5 62.5t45 86.5t44 107.5l3 9t3 7.5t3 8.5h67q-60 -161 -86 -210
q-60 -111 -144 -119v-2q29 -2 53.5 -13t46 -35t36.5 -45t34 -65t29.5 -71.5t32.5 -86.5v3z" />
    <glyph glyph-name="uni0497" unicode="&#x497;" horiz-adv-x="797" 
d="M720 52h65v-195h-42l-8 143h-60q-54 130 -74 161q-40 64 -104 67h-5h-76q4 -24 4 -52v-176h-57v176q0 22 5 52h-82q-32 0 -54.5 -10.5t-45 -45t-32.5 -56t-38 -88.5q-8 -18 -12 -28h-66q54 139 80 178q43 67 114 74v2q-28 3 -51 16.5t-38.5 29.5t-33.5 51.5t-27.5 58.5
t-29.5 74h65q18 -46 28 -68.5t27.5 -54.5t32.5 -46.5t36.5 -26t47.5 -11.5h78q-4 25 -4 57v150h57v-150q0 -38 -4 -57h73q32 0 56.5 13.5t46 47.5t34.5 61.5t36 84.5h65q-20 -51 -29.5 -74t-27.5 -58.5t-33.5 -51.5t-38.5 -29.5t-51 -16.5v-2q63 -6 97.5 -51t75.5 -149z" />
    <glyph glyph-name="uni0498" unicode="&#x498;" horiz-adv-x="548" 
d="M238 698q127 0 176 -37.5t49 -142.5q0 -75 -27.5 -113.5t-88.5 -44.5v-4q74 -7 105 -52.5t31 -131.5q0 -104 -47.5 -142t-167.5 -38q-138 0 -229 19l7 48q129 -12 212 -12q90 0 124 27t34 107q0 87 -36 118.5t-130 31.5h-110v53h110q83 0 115 26.5t32 100.5
q0 79 -34.5 105.5t-127.5 26.5q-17 0 -174 -9l-7 49q83 15 184 15zM229 -45q52 5 76 -9.5t23 -55.5q-2 -60 -45.5 -92.5t-111.5 -23.5l10 35q44 -1 71.5 21t28.5 56q0 21 -12.5 29t-46.5 9z" />
    <glyph glyph-name="uni0499" unicode="&#x499;" horiz-adv-x="488" 
d="M432 119q0 -66 -39 -94.5t-131 -31.5l-6 -159h-43l-6 158q-91 2 -161 13l6 49q99 -8 173 -8q80 0 110.5 19t30.5 67q0 52 -30.5 71.5t-108.5 20.5h-108v47l107 1q74 0 100.5 17.5t26.5 66.5q0 50 -31.5 66t-120.5 16q-85 0 -136 -8l-6 48q61 14 144 14q121 0 167 -26
t46 -102q0 -55 -23 -82t-80 -32v-2q63 -5 91 -36t28 -93z" />
    <glyph glyph-name="uni049A" unicode="&#x49a;" horiz-adv-x="629" 
d="M538 46h82v-126h-85v9h-4l-4 71h-41q-63 168 -82 206q-49 98 -115 119q-23 8 -50 8h-87q6 -41 6 -78v-255h-65v690h65v-223q0 -41 -6 -80h86q35 1 64.5 17t50 38.5t42 64t35 74.5t34.5 90q5 13 7 19h66q-22 -61 -33 -88.5t-30.5 -73.5t-34 -67.5t-36 -47.5t-45 -37.5
t-51.5 -14.5v-2q22 -2 41 -8t36.5 -21t30 -26.5t28 -39t24 -43t24.5 -54t22.5 -56t24.5 -65.5z" />
    <glyph glyph-name="uni049B" unicode="&#x49b;" horiz-adv-x="541" 
d="M470 52h64v-195h-42l-8 143h-60q-25 60 -34.5 82t-30 59t-36 50t-40.5 24.5t-57 11.5h-82q4 -24 4 -51v-176h-63v484h63v-150q0 -32 -4 -57h79q30 0 54.5 11.5t41 26t35 46.5t28.5 54.5t29 68.5h66q-18 -44 -26 -62.5t-24.5 -51.5t-28 -47.5t-29 -32.5t-38 -26t-44.5 -11
v-2q66 -6 103.5 -51t79.5 -148z" />
    <glyph glyph-name="uni049C" unicode="&#x49c;" horiz-adv-x="583" 
d="M307 359q55 -5 98.5 -51t65 -93.5t63.5 -159.5q14 -36 21 -55h-69q-7 17 -21.5 55.5t-20.5 54t-18.5 46.5t-19.5 44.5t-19.5 36t-22.5 33.5t-23.5 24.5t-28 21t-30.5 11.5v-161h-44v167h-86q6 -41 6 -78v-255h-65v690h65v-223q0 -41 -6 -80h86v166h44v-159
q32 11 58.5 36.5t48 65t38.5 80t38 97.5q2 5 3.5 9t2.5 8h66q-22 -61 -33 -88.5t-30.5 -73.5t-34 -67.5t-36 -47.5t-45 -37.5t-51.5 -14.5v-2z" />
    <glyph glyph-name="uni049D" unicode="&#x49d;" horiz-adv-x="529" 
d="M287 251q20 -2 37 -6.5t32 -15.5t26 -20t24.5 -30t21 -33.5t21 -43.5t20 -46.5t22.5 -55.5h-67q-53 127 -78 162q-34 50 -83 61v-112h-39v116h-80q4 -24 4 -51v-176h-63v484h63v-150q0 -32 -4 -57h79h1v116h39v-111q26 8 47 24.5t39.5 48t30 56t31.5 73.5h66
q-18 -44 -26 -62.5t-24.5 -51.5t-28 -47.5t-29 -32.5t-38 -26t-44.5 -11v-2z" />
    <glyph glyph-name="uni049E" unicode="&#x49e;" horiz-adv-x="630" 
d="M355 359q55 -5 98.5 -51t65 -93.5t63.5 -159.5q14 -36 21 -55h-69q-63 168 -82 206q-49 98 -115 119q-23 8 -50 8h-87q6 -41 6 -78v-255h-65v527h-127v50h127v113h65v-113h126v-50h-126v-60q0 -41 -6 -80h86q35 1 64.5 17t50 38.5t42 64t35 74.5t34.5 90q5 13 7 19h66
q-22 -61 -33 -88.5t-30.5 -73.5t-34 -67.5t-36 -47.5t-45 -37.5t-51.5 -14.5v-2z" />
    <glyph glyph-name="uni049F" unicode="&#x49f;" horiz-adv-x="530" 
d="M287 251q20 -2 37 -6.5t32 -15.5t26 -20t24.5 -30t21 -33.5t21 -43.5t20 -46.5t22.5 -55.5h-67q-25 60 -34.5 82t-30 59t-36 50t-40.5 24.5t-57 11.5h-82q4 -24 4 -51v-176h-63v550h-78v44h78v96h63v-96h183v-44h-183v-216q0 -32 -4 -57h79q30 0 54.5 11.5t41 26t35 46.5
t28.5 54.5t29 68.5h66q-18 -44 -26 -62.5t-24.5 -51.5t-28 -47.5t-29 -32.5t-38 -26t-44.5 -11v-2z" />
    <glyph glyph-name="uni04A0" unicode="&#x4a0;" horiz-adv-x="728" 
d="M452 359q55 -5 98.5 -51t65 -93.5t63.5 -159.5q14 -36 21 -55h-69q-63 168 -82 206q-49 98 -115 119q-23 8 -50 8h-87q6 -41 6 -78v-255h-65v690h65v-223q0 -41 -6 -80h86q35 1 64.5 17t50 38.5t42 64t35 74.5t34.5 90q5 13 7 19h66q-22 -61 -33 -88.5t-30.5 -73.5
t-34 -67.5t-36 -47.5t-45 -37.5t-51.5 -14.5v-2zM146 643v35h11v-35h-11z" />
    <glyph glyph-name="uni04A1" unicode="&#x4a1;" horiz-adv-x="621" 
d="M378 251q23 -2 42.5 -10t34 -16t30.5 -29.5t24.5 -34t24.5 -47t23 -51.5t26 -63h-68q-53 128 -78 164q-45 62 -119 63h-83q4 -24 4 -51v-176h-63v433h-176v51h239v-150q0 -32 -4 -57h79q30 0 54.5 11.5t41 26t35 46.5t29 54.5t29.5 68.5h65q-20 -50 -31 -74t-29.5 -58.5
t-35 -51t-41 -30.5t-53.5 -17v-2z" />
    <glyph glyph-name="uni04A2" unicode="&#x4a2;" horiz-adv-x="684" 
d="M576 46h81v-126h-102l-2 80h-43v341h-347v-341h-65v690h65v-293h347v293h66v-644z" />
    <glyph glyph-name="uni04A3" unicode="&#x4a3;" horiz-adv-x="581" 
d="M492 52h61v-195h-43l-8 143h-73v233h-282v-233h-62v484h62v-201h282v201h63v-432z" />
    <glyph glyph-name="uni04A4" unicode="&#x4a4;" horiz-adv-x="867" 
d="M598 691q167 0 246 -6l-3 -50h-222q-73 0 -73 -75v-560h-65v341h-323v-341h-65v690h65v-293h323v174q0 52 33 86t84 34z" />
    <glyph glyph-name="uni04A5" unicode="&#x4a5;" horiz-adv-x="761" 
d="M516 486q150 0 221 -6l-2 -46h-194q-64 0 -64 -65v-369h-63v233h-267v-233h-62v484h62v-201h267v101q0 50 26 76t76 26z" />
    <glyph glyph-name="uni04A6" unicode="&#x4a6;" horiz-adv-x="1003" 
d="M779 439q40 0 69.5 -11.5t55 -39.5t39 -84.5t13.5 -138.5q0 -89 -17 -150.5t-51.5 -96.5t-77.5 -51.5t-103 -22.5l-11 47q52 7 85 20.5t59.5 43t38.5 80.5t12 129q0 69 -8.5 113t-27 66t-40.5 30t-55 8q-88 0 -186 -62v-319h-66v636h-350v-636h-65v690h481v-318
q101 67 205 67z" />
    <glyph glyph-name="uni04A7" unicode="&#x4a7;" horiz-adv-x="880" 
d="M673 346q173 0 173 -232q0 -301 -249 -323l-11 47q99 13 147.5 77t48.5 198q0 100 -32.5 138t-95.5 38q-75 0 -168 -62v-227h-62v433h-277v-433h-62v484h401v-204q91 66 187 66z" />
    <glyph glyph-name="uni04A8" unicode="&#x4a8;" horiz-adv-x="854" 
d="M833 15q-54 -27 -147 -27q-78 0 -146 31q-74 -31 -162 -31q-311 0 -311 356q0 197 62 279t200 82v-57q-105 0 -149.5 -67.5t-44.5 -240.5q0 -156 65.5 -226t190.5 -70q51 0 92 11q-132 105 -132 348q0 156 49 226.5t154 70.5t154 -69t49 -218q0 -251 -152 -359
q39 -11 84 -11q79 0 136 15zM419 397q0 -235 128 -317q142 80 142 325q0 125 -32 180.5t-103 55.5q-70 0 -102.5 -57.5t-32.5 -186.5z" />
    <glyph glyph-name="uni04A9" unicode="&#x4a9;" horiz-adv-x="688" 
d="M688 26q-45 -34 -131 -34q-63 0 -117 24q-62 -24 -133 -24q-127 0 -187 65t-60 202q0 129 51 183t164 54v-48q-79 0 -115 -44t-36 -145q0 -115 47 -167t147 -52q39 0 71 7q-101 81 -101 245q0 205 165 205t165 -203q0 -168 -121 -249q32 -8 62 -8q73 0 119 22zM350 291
q0 -161 97 -223q111 57 111 225q0 82 -25 118.5t-79 36.5t-79 -38t-25 -119z" />
    <glyph glyph-name="uni04AA" unicode="&#x4aa;" horiz-adv-x="567" 
d="M529 9q-76 -20 -171 -21l-3 -139h-46l-4 140q-131 6 -184.5 86.5t-53.5 269.5q0 197 59 277t205 80q109 0 184 -19l-8 -49q-76 9 -176 9q-110 0 -153 -65t-43 -233t43 -233t153 -65q114 0 190 11z" />
    <glyph glyph-name="uni04AB" unicode="&#x4ab;" horiz-adv-x="485" 
d="M445 10q-68 -20 -144 -22l-5 -154h-43l-6 156q-102 7 -144.5 65t-42.5 187q0 140 51 197.5t176 57.5q89 0 149 -22l-10 -41q-53 8 -129 8q-96 0 -133.5 -42.5t-37.5 -157.5t37.5 -157t133.5 -42q84 0 141 11z" />
    <glyph glyph-name="uni04AC" unicode="&#x4ac;" horiz-adv-x="575" 
d="M550 632h-230v-586h81v-126h-103l-2 80h-42v632h-229v58h525v-58z" />
    <glyph glyph-name="uni04AD" unicode="&#x4ad;" horiz-adv-x="480" 
d="M460 434h-189v-382h61v-195h-42l-8 143h-75v434h-187v50h440v-50z" />
    <glyph glyph-name="uni04AE" unicode="&#x4ae;" horiz-adv-x="559" 
d="M543 690l-231 -442v-248h-65v248l-232 442h70l158 -306q13 -26 33 -74h7q13 31 33 73l158 307h69z" />
    <glyph glyph-name="uni04AF" unicode="&#x4af;" horiz-adv-x="573" 
d="M550 484l-230 -438v-250h-66v248l-232 440h70l158 -304q1 -1 34 -74h6q18 42 33 73l158 305h69z" />
    <glyph glyph-name="uni04B0" unicode="&#x4b0;" horiz-adv-x="548" 
d="M546 690l-219 -419h146v-41h-158v-230h-65v230h-151v41h139l-220 419h70l158 -306q13 -26 33 -74h7q13 31 33 73l158 307h69z" />
    <glyph glyph-name="uni04B1" unicode="&#x4b1;" horiz-adv-x="573" 
d="M550 484l-219 -417h143v-44h-154v-227h-66v227h-155v44h143l-220 417h70l158 -304q1 -1 34 -74h6q18 42 33 73l158 305h69z" />
    <glyph glyph-name="uni04B2" unicode="&#x4b2;" horiz-adv-x="645" 
d="M549 46h87v-126h-102l-2 80h-30l-186 334h-27l-187 -334h-72l203 358l-190 332h71l173 -305h31l172 305h72l-190 -332z" />
    <glyph glyph-name="uni04B3" unicode="&#x4b3;" horiz-adv-x="522" 
d="M458 52h58v-195h-42l-8 143h-44l-151 227h-22l-151 -227h-70l169 251l-157 233h70l137 -206h26l137 206h70l-157 -233z" />
    <glyph glyph-name="uni04B4" unicode="&#x4b4;" horiz-adv-x="815" 
d="M707 54h83v-205h-45l-8 151h-509v632h-203v58h501v-58h-232v-578h347v636h66v-636z" />
    <glyph glyph-name="uni04B5" unicode="&#x4b5;" horiz-adv-x="693" 
d="M428 484v-50h-413v50h413zM541 0v484h64v-484h-64zM453 296v-54h10v-242h-265v242h38v54h217zM611 7h53v-155h-45z" />
    <glyph glyph-name="uni04B6" unicode="&#x4b6;" horiz-adv-x="634" 
d="M607 47v-47h-12l7 -67l-36 -84l-9 74l34 77h-134v324q-116 -67 -243 -67q-153 0 -153 152v281h66v-268q-1 -56 25 -81.5t83 -25.5q59 0 108.5 14t113.5 50v311h66v-643h84z" />
    <glyph glyph-name="uni04B7" unicode="&#x4b7;" horiz-adv-x="534" 
d="M437 52h62v-195h-42l-8 143h-75v216q-98 -42 -201 -42q-115 0 -115 105v205h63v-186q0 -38 17 -54.5t55 -16.5q89 0 181 40v217h64z" />
    <glyph glyph-name="uni04B8" unicode="&#x4b8;" horiz-adv-x="615" 
d="M457 690h65v-690h-65v328q-66 -40 -142 -58v-150h-44v141q-29 -4 -62 -4q-148 0 -148 152v281h65v-268q0 -56 25 -81t80 -25q14 0 40 2v189h44v-183q58 12 142 56v310z" />
    <glyph glyph-name="uni04B9" unicode="&#x4b9;" horiz-adv-x="522" 
d="M374 484h63v-484h-63v216q-53 -23 -106 -32v-114h-39v108q-27 -4 -56 -4q-115 0 -115 105v205h63v-186q0 -38 17 -54.5t55 -16.5q24 0 36 1v142h39v-137q45 8 106 34v217z" />
    <glyph glyph-name="uni04BA" unicode="&#x4ba;" horiz-adv-x="608" 
d="M401 433q154 0 154 -152v-281h-66v268q1 56 -25 81.5t-84 25.5q-109 0 -222 -64v-311h-65v690h65v-323q117 66 243 66z" />
    <glyph glyph-name="uni04BB" unicode="&#x4bb;" horiz-adv-x="577" 
d="M365 497q64 0 97.5 -34t33.5 -99v-364h-64v347q0 51 -19.5 73t-64.5 22q-44 0 -89 -19.5t-112 -64.5v-358h-63v700h63l2 -201q0 -59 -7 -95q126 93 223 93z" />
    <glyph glyph-name="uni04BC" unicode="&#x4bc;" horiz-adv-x="720" 
d="M467 47q99 0 179 15l7 -48q-70 -26 -203 -26q-157 0 -218 76t-64 260h-11q-78 0 -111.5 37.5t-23.5 124.5h53q-18 -109 81 -109h12q4 182 64 253.5t205 71.5q120 0 178.5 -51.5t58.5 -157.5q0 -86 -40.5 -127.5t-139.5 -41.5h-257q2 -112 25.5 -172t70.5 -82.5t134 -22.5
zM435 645q-106 0 -150 -58.5t-48 -209.5h244q68 0 96.5 29.5t28.5 88.5q0 78 -42 114t-129 36z" />
    <glyph glyph-name="uni04BD" unicode="&#x4bd;" horiz-adv-x="610" 
d="M370 43q77 0 167 12l7 -43q-61 -24 -182 -24q-115 0 -167.5 51.5t-57.5 171.5q-74 2 -106 38t-21 117h49q-8 -56 9.5 -79.5t67.5 -25.5q3 130 53 183t164 53q103 0 152 -37.5t50 -113.5q2 -135 -111 -135h-241q5 -96 43 -132t124 -36zM356 442q-84 0 -118 -39.5
t-36 -141.5h228q63 0 61 84q-1 51 -33 74t-102 23z" />
    <glyph glyph-name="uni04BE" unicode="&#x4be;" horiz-adv-x="720" 
d="M646 62l7 -48q-65 -24 -189 -26l-3 -139h-45l-4 140q-135 9 -188.5 85.5t-55.5 249.5h-11q-78 0 -111.5 37.5t-23.5 124.5h53q-18 -109 81 -109h12q4 182 64 253.5t205 71.5q120 0 178.5 -51.5t58.5 -157.5q0 -86 -40.5 -127.5t-139.5 -41.5h-257q2 -112 25.5 -172
t70.5 -82.5t134 -22.5q99 0 179 15zM435 645q-106 0 -150 -58.5t-48 -209.5h244q68 0 96.5 29.5t28.5 88.5q0 78 -42 114t-129 36z" />
    <glyph glyph-name="uni04BF" unicode="&#x4bf;" horiz-adv-x="610" 
d="M537 55l7 -43q-51 -20 -161 -24l-5 -154h-43l-6 155q-97 7 -142 58.5t-50 163.5q-74 2 -106 38t-21 117h49q-8 -56 9.5 -79.5t67.5 -25.5q3 130 53 183t164 53q103 0 152 -37.5t50 -113.5q2 -135 -111 -135h-241q5 -96 43 -132t124 -36q77 0 167 12zM356 442
q-84 0 -118 -39.5t-36 -141.5h228q63 0 61 84q-1 51 -33 74t-102 23z" />
    <glyph glyph-name="uni04C0" unicode="&#x4c0;" horiz-adv-x="260" 
d="M163 690v-690h-66v690h66z" />
    <glyph glyph-name="uni04C1" unicode="&#x4c1;" horiz-adv-x="897" 
d="M451 748q-69 0 -109 37t-37 95h50q0 -45 25.5 -70t70.5 -25q43 0 68 25t25 70h51q2 -58 -37.5 -95t-106.5 -37zM614 359q35 -3 64.5 -22t49 -39.5t44 -71.5t36 -80t38.5 -103q11 -28 16 -43h-70q-7 17 -19 50q-18 48 -27 70.5t-24.5 59t-26.5 54t-28 40.5t-33 33
t-37.5 18t-46.5 8h-73q6 -41 6 -78v-255h-63v255q0 37 6 78h-80q-34 0 -62 -15.5t-46.5 -33t-41.5 -62.5t-34.5 -73t-37.5 -97q-13 -34 -20 -52h-69q66 179 89 224q54 107 125 129q16 5 33 6v2q-32 3 -60.5 22t-48 42.5t-41 67.5t-34.5 76.5t-34 90.5q-7 20 -11 30h67
q59 -154 86 -201q59 -102 141 -102h79q-6 39 -6 80v223h63v-223q0 -47 -5 -80h71q40 0 72.5 21.5t57.5 62.5t45 86.5t44 107.5l3 9t3 7.5t3 8.5h67q-60 -161 -86 -210q-60 -111 -144 -119v-2z" />
    <glyph glyph-name="uni04C2" unicode="&#x4c2;" horiz-adv-x="778" 
d="M390 568q-69 0 -109 37t-37 95h50q0 -45 25.5 -70t70.5 -25q43 0 68 25t25 70h51q2 -58 -37.5 -95t-106.5 -37zM547 252q25 -2 45 -10t38 -27t29 -33.5t28 -51.5t25 -57.5t28 -72.5h-65q-54 130 -74 161q-40 64 -104 67h-5h-76q4 -24 4 -52v-176h-57v176q0 22 5 52h-82
q-32 0 -54.5 -10.5t-45 -45t-32.5 -56t-38 -88.5q-8 -18 -12 -28h-66q54 139 80 178q43 67 114 74v2q-28 3 -51 16.5t-38.5 29.5t-33.5 51.5t-27.5 58.5t-29.5 74h65q18 -46 28 -68.5t27.5 -54.5t32.5 -46.5t36.5 -26t47.5 -11.5h78q-4 25 -4 57v150h57v-150q0 -38 -4 -57
h73q32 0 56.5 13.5t46 47.5t34.5 61.5t36 84.5h65q-20 -51 -29.5 -74t-27.5 -58.5t-33.5 -51.5t-38.5 -29.5t-51 -16.5v-2z" />
    <glyph glyph-name="uni04C3" unicode="&#x4c3;" horiz-adv-x="589" 
d="M305 360q109 -6 169.5 -86.5t60.5 -174.5q0 -127 -58.5 -195t-183.5 -65v48q94 4 133.5 56t39.5 151q0 107 -62.5 172.5t-167.5 65.5h-85q7 -61 7 -77v-255h-65v690h65v-223q0 -41 -6 -80h84q36 0 65.5 15.5t52 41.5t42.5 64t36.5 79.5t34.5 90.5q1 4 2 6.5t2 5.5h66
q-21 -57 -33 -88t-31 -74.5t-34.5 -66.5t-36.5 -47.5t-45 -36t-52 -14.5v-3z" />
    <glyph glyph-name="uni04C4" unicode="&#x4c4;" horiz-adv-x="531" 
d="M287 251q80 -6 137.5 -57.5t57.5 -147.5q0 -93 -54 -148t-169 -54v46q90 3 123 43.5t33 112.5q0 84 -54 132t-134 49h-83q4 -24 4 -51v-176h-63v484h63v-150q0 -32 -4 -57h79q30 0 54.5 11.5t41 26t35 46.5t28.5 54.5t29 68.5h66q-18 -44 -26 -62.5t-24.5 -51.5
t-28 -47.5t-29 -32.5t-38 -26t-44.5 -11v-2z" />
    <glyph glyph-name="uni04C5" unicode="&#x4c5;" horiz-adv-x="648" 
d="M547 0h-66v636h-158q-72 0 -78 -75q-19 -216 -31.5 -294.5t-46.5 -142.5q-55 -115 -154 -125l-6 51q63 24 99 93q32 63 44.5 137.5t30.5 291.5q11 118 126 118h240v-690zM608 42l-34 -42l-4 -9l-61 -71l-10 42zM550 -59l20 50l10 11l-19 -61h-11z" />
    <glyph glyph-name="uni04C6" unicode="&#x4c6;" horiz-adv-x="563" 
d="M468 0h-64v434h-123q-32 0 -47 -15t-19 -49q-1 -7 -4 -34t-4.5 -37.5t-4.5 -35t-5.5 -37t-6.5 -33.5t-7.5 -35t-8.5 -30.5t-11 -29.5q-36 -94 -135 -103l-7 50q36 11 55.5 28.5t30.5 44.5q6 14 12 32t10 39.5t7.5 39t6.5 43t4.5 38.5t4 38.5t3.5 30.5q7 54 34.5 79.5
t82.5 25.5h196v-484zM423 -35l100 75l-23 -40l-19 -46l15 47l-63 -77z" />
    <glyph glyph-name="uni04C7" unicode="&#x4c7;" horiz-adv-x="668" 
d="M505 690h66v-643q0 -232 -223 -209v48q92 0 124.5 36t32.5 126v293h-347v-341h-65v690h65v-293h347v293z" />
    <glyph glyph-name="uni04C8" unicode="&#x4c8;" horiz-adv-x="576" 
d="M429 484h63v-441q0 -113 -49.5 -165t-150.5 -40v43q81 0 109 36t28 126v190h-282v-233h-62v484h62v-201h282v201z" />
    <glyph glyph-name="uni04C9" unicode="&#x4c9;" horiz-adv-x="679" 
d="M571 0h-66v341h-347v-341h-65v690h65v-293h347v293h66v-690zM633 42l-34 -42l-4 -9l-61 -71l-10 42zM575 -59l20 50l10 11l-19 -61h-11z" />
    <glyph glyph-name="uni04CA" unicode="&#x4ca;" horiz-adv-x="587" 
d="M492 1l55 41l-23 -42l-19 -46l15 47l-63 -77l-10 43l44 33h-62v233h-282v-233h-62v484h62v-201h282v201h63v-483z" />
    <glyph glyph-name="uni04CB" unicode="&#x4cb;" horiz-adv-x="613" 
d="M450 690h66v-690h-66v328q-119 -71 -248 -71q-148 0 -148 152v281h65v-268q0 -56 25 -81t80 -25q60 0 110.5 14t115.5 50v310zM446 3l-10 -12l38 -29l-10 -42l-53 39l-24 -30l-36 12l30 41l-30 22l13 42l41 -31z" />
    <glyph glyph-name="uni04CC" unicode="&#x4cc;" horiz-adv-x="522" 
d="M374 484h63v-484h-74l-8 -143h-43v195h62v164q-98 -42 -201 -42q-115 0 -115 105v205h63v-186q0 -38 17 -54.5t55 -16.5q89 0 181 40v217z" />
    <glyph glyph-name="uni04CD" unicode="&#x4cd;" horiz-adv-x="885" 
d="M789 26l58 -64l-10 -42l-8 9h-70l16 71h-50l-27 635h-22l-179 -541q-7 -22 -30 -22h-66q-23 0 -30 22l-180 541h-21l-26 -635h-65l28 661q0 29 29 29h79q21 0 29 -23l151 -450q16 -50 28 -94h22q6 22 29 95l151 449q6 23 29 23h78q29 0 29 -29z" />
    <glyph glyph-name="uni04CE" unicode="&#x4ce;" horiz-adv-x="743" 
d="M664 1l52 41l-23 -42l-24 -57l20 58l-59 -77l-10 43l42 33h-57l-21 435h-18l-144 -364q-8 -21 -26 -21h-55q-19 0 -27 21l-143 364h-18l-20 -435h-59l22 459q0 25 26 25h70q18 0 26 -21l118 -301q14 -34 24 -69h17q19 56 24 69l118 301q7 21 27 21h70q26 0 26 -25z" />
    <glyph glyph-name="uni04CF" unicode="&#x4cf;" horiz-adv-x="239" 
d="M151 690v-690h-63v690h63z" />
    <glyph glyph-name="uni04D0" unicode="&#x4d0;" horiz-adv-x="615" 
d="M311 749q-69 0 -109 37t-37 95h50q0 -45 25.5 -70t70.5 -25q43 0 68 25t25 70h51q2 -58 -37.5 -95t-106.5 -37zM534 0l-76 228h-301l-76 -228h-68l231 671q6 19 26 19h75q20 0 26 -19l231 -671h-68zM176 285h263l-99 297q-2 5 -8.5 25t-9.5 31h-28q-15 -47 -19 -56z" />
    <glyph glyph-name="uni04D1" unicode="&#x4d1;" horiz-adv-x="547" 
d="M273 570q-69 0 -109 37t-37 95h50q0 -45 25.5 -70t70.5 -25q43 0 68 25t25 70h51q2 -58 -37.5 -95t-106.5 -37zM311 497q78 0 116.5 -34.5t38.5 -114.5v-348h-50l-8 85q-35 -36 -92.5 -64.5t-119.5 -28.5q-64 0 -101 34t-37 97v56q0 56 33 87t94 31h217v51q0 48 -22.5 71
t-80.5 23q-86 0 -215 -14l-6 47q145 22 233 22zM207 48q44 -1 98.5 21.5t96.5 60.5v118l-207 -2q-73 -3 -73 -75v-42q0 -81 85 -81z" />
    <glyph glyph-name="uni04D2" unicode="&#x4d2;" horiz-adv-x="615" 
d="M210 772q-18 0 -18 19v55q0 20 18 20h22q19 0 19 -20v-55q0 -19 -19 -19h-22zM388 772q-19 0 -19 19v55q0 20 19 20h21q19 0 19 -20v-55q0 -19 -19 -19h-21zM534 0l-76 228h-301l-76 -228h-68l231 671q6 19 26 19h75q20 0 26 -19l231 -671h-68zM176 285h263l-99 297
q-2 5 -8.5 25t-9.5 31h-28q-15 -47 -19 -56z" />
    <glyph glyph-name="uni04D3" unicode="&#x4d3;" horiz-adv-x="547" 
d="M172 593q-18 0 -18 19v55q0 20 18 20h22q19 0 19 -20v-55q0 -19 -19 -19h-22zM350 593q-19 0 -19 19v55q0 20 19 20h21q19 0 19 -20v-55q0 -19 -19 -19h-21zM311 497q78 0 116.5 -34.5t38.5 -114.5v-348h-50l-8 85q-35 -36 -92.5 -64.5t-119.5 -28.5q-64 0 -101 34
t-37 97v56q0 56 33 87t94 31h217v51q0 48 -22.5 71t-80.5 23q-86 0 -215 -14l-6 47q145 22 233 22zM207 48q44 -1 98.5 21.5t96.5 60.5v118l-207 -2q-73 -3 -73 -75v-42q0 -81 85 -81z" />
    <glyph glyph-name="uni04D4" unicode="&#x4d4;" horiz-adv-x="910" 
d="M594 55h261l2 -50q-94 -6 -287 -6q-49 0 -79.5 32t-30.5 82v129h-240l-147 -242h-70l363 590q35 59 80 79.5t124 20.5q183 0 287 -5l-2 -51h-261q-32 0 -52 -20t-20 -54v-166l292 -1v-53l-292 -1v-211q0 -73 72 -73zM253 297h207v271q0 22 10.5 43.5t24.5 30.5h-8
q-34 -18 -64 -66z" />
    <glyph glyph-name="uni04D5" unicode="&#x4d5;" horiz-adv-x="874" 
d="M635 43q77 0 167 12l7 -43q-61 -24 -182 -24q-83 0 -132 25.5t-72 82.5q-36 -39 -98 -71.5t-130 -32.5q-64 0 -101 34t-37 97v56q0 56 33 87t94 31h217v51q0 48 -22.5 71t-80.5 23q-86 0 -215 -14l-6 47q145 22 233 22q104 0 137 -62q49 62 171 62q103 0 152 -37.5
t50 -113.5q1 -70 -30.5 -102.5t-101.5 -32.5h-220q5 -96 43 -132t124 -36zM621 442q-84 0 -118 -39.5t-36 -141.5h207q46 0 64.5 21.5t17.5 62.5q-1 50 -33 73.5t-102 23.5zM206 48q46 -1 103.5 23t101.5 64q-10 48 -10 100v13l-207 -2q-73 -3 -73 -75v-42q0 -81 85 -81z
" />
    <glyph glyph-name="uni04D6" unicode="&#x4d6;" horiz-adv-x="557" 
d="M306 748q-69 0 -109 37t-37 95h50q0 -45 25.5 -70t70.5 -25q43 0 68 25t25 70h51q2 -58 -37.5 -95t-106.5 -37zM220 55h280l3 -50q-94 -6 -295 -6q-55 0 -88 31t-33 83v464q0 52 33 83t88 31q201 0 295 -6l-3 -50h-280q-68 0 -68 -73v-169h308v-53h-308v-213
q0 -72 68 -72z" />
    <glyph glyph-name="uni04D7" unicode="&#x4d7;" horiz-adv-x="535" 
d="M280 568q-69 0 -109 37t-37 95h50q0 -45 25.5 -70t70.5 -25q43 0 68 25t25 70h51q2 -58 -37.5 -95t-106.5 -37zM294 43q76 0 168 12l7 -43q-61 -24 -183 -24t-173.5 58.5t-51.5 197.5q0 140 50 196.5t167 56.5q103 0 152 -37.5t50 -113.5q2 -135 -111 -135h-242
q5 -96 43.5 -132t123.5 -36zM281 442q-84 0 -118.5 -39.5t-36.5 -141.5h228q64 0 62 84q-1 51 -33 74t-102 23z" />
    <glyph glyph-name="uni04D8" unicode="&#x4d8;" horiz-adv-x="621" 
d="M271 702q161 0 221.5 -80t60.5 -276q0 -202 -59 -280t-210 -78q-237 0 -237 229q0 86 41.5 132t139.5 46h255q-6 147 -55.5 198t-173.5 51q-99 0 -178 -16l-7 48q70 26 202 26zM287 46q110 0 153.5 64t43.5 232h-243q-69 0 -97 -33.5t-28 -94.5q0 -88 42 -128t129 -40z
" />
    <glyph glyph-name="uni04D9" unicode="&#x4d9;" horiz-adv-x="536" 
d="M250 497q122 0 174 -58.5t52 -197.5q0 -140 -50 -196.5t-167 -56.5q-103 0 -152 38.5t-50 115.5q-2 142 121 142h230q-7 90 -44.5 124t-121.5 34q-77 0 -167 -12l-7 43q62 24 182 24zM256 43q87 0 120 41t34 149h-218q-73 0 -71 -91q1 -52 32.5 -75.5t102.5 -23.5z" />
    <glyph glyph-name="uni04DA" unicode="&#x4da;" horiz-adv-x="621" 
d="M200 773q-18 0 -18 19v55q0 20 18 20h22q19 0 19 -20v-55q0 -19 -19 -19h-22zM378 773q-19 0 -19 19v55q0 20 19 20h21q19 0 19 -20v-55q0 -19 -19 -19h-21zM271 702q161 0 221.5 -80t60.5 -276q0 -202 -59 -280t-210 -78q-237 0 -237 229q0 86 41.5 132t139.5 46h255
q-6 147 -55.5 198t-173.5 51q-99 0 -178 -16l-7 48q70 26 202 26zM287 46q110 0 153.5 64t43.5 232h-243q-69 0 -97 -33.5t-28 -94.5q0 -88 42 -128t129 -40z" />
    <glyph glyph-name="uni04DB" unicode="&#x4db;" horiz-adv-x="536" 
d="M170 591q-18 0 -18 19v55q0 20 18 20h22q19 0 19 -20v-55q0 -19 -19 -19h-22zM348 591q-19 0 -19 19v55q0 20 19 20h21q19 0 19 -20v-55q0 -19 -19 -19h-21zM250 497q122 0 174 -58.5t52 -197.5q0 -140 -50 -196.5t-167 -56.5q-103 0 -152 38.5t-50 115.5q-2 142 121 142
h230q-7 90 -44.5 124t-121.5 34q-77 0 -167 -12l-7 43q62 24 182 24zM256 43q87 0 120 41t34 149h-218q-73 0 -71 -91q1 -52 32.5 -75.5t102.5 -23.5z" />
    <glyph glyph-name="uni04DC" unicode="&#x4dc;" horiz-adv-x="897" 
d="M350 771q-18 0 -18 19v55q0 20 18 20h22q19 0 19 -20v-55q0 -19 -19 -19h-22zM528 771q-19 0 -19 19v55q0 20 19 20h21q19 0 19 -20v-55q0 -19 -19 -19h-21zM614 359q35 -3 64.5 -22t49 -39.5t44 -71.5t36 -80t38.5 -103q11 -28 16 -43h-70q-7 17 -19 50q-18 48 -27 70.5
t-24.5 59t-26.5 54t-28 40.5t-33 33t-37.5 18t-46.5 8h-73q6 -41 6 -78v-255h-63v255q0 37 6 78h-80q-34 0 -62 -15.5t-46.5 -33t-41.5 -62.5t-34.5 -73t-37.5 -97q-13 -34 -20 -52h-69q66 179 89 224q54 107 125 129q16 5 33 6v2q-32 3 -60.5 22t-48 42.5t-41 67.5
t-34.5 76.5t-34 90.5q-7 20 -11 30h67q59 -154 86 -201q59 -102 141 -102h79q-6 39 -6 80v223h63v-223q0 -47 -5 -80h71q40 0 72.5 21.5t57.5 62.5t45 86.5t44 107.5l3 9t3 7.5t3 8.5h67q-60 -161 -86 -210q-60 -111 -144 -119v-2z" />
    <glyph glyph-name="uni04DD" unicode="&#x4dd;" horiz-adv-x="778" 
d="M289 591q-18 0 -18 19v55q0 20 18 20h22q19 0 19 -20v-55q0 -19 -19 -19h-22zM467 591q-19 0 -19 19v55q0 20 19 20h21q19 0 19 -20v-55q0 -19 -19 -19h-21zM547 252q25 -2 45 -10t38 -27t29 -33.5t28 -51.5t25 -57.5t28 -72.5h-65q-54 130 -74 161q-40 64 -104 67h-5
h-76q4 -24 4 -52v-176h-57v176q0 22 5 52h-82q-32 0 -54.5 -10.5t-45 -45t-32.5 -56t-38 -88.5q-8 -18 -12 -28h-66q54 139 80 178q43 67 114 74v2q-28 3 -51 16.5t-38.5 29.5t-33.5 51.5t-27.5 58.5t-29.5 74h65q18 -46 28 -68.5t27.5 -54.5t32.5 -46.5t36.5 -26
t47.5 -11.5h78q-4 25 -4 57v150h57v-150q0 -38 -4 -57h73q32 0 56.5 13.5t46 47.5t34.5 61.5t36 84.5h65q-20 -51 -29.5 -74t-27.5 -58.5t-33.5 -51.5t-38.5 -29.5t-51 -16.5v-2z" />
    <glyph glyph-name="uni04DE" unicode="&#x4de;" horiz-adv-x="548" 
d="M180 865q19 0 19 -20v-55q0 -19 -19 -19h-22q-18 0 -18 19v55q0 20 18 20h22zM357 865q19 0 19 -20v-55q0 -19 -19 -19h-21q-19 0 -19 19v55q0 20 19 20h21zM238 698q127 0 176 -37.5t49 -142.5q0 -75 -27.5 -113.5t-88.5 -44.5v-4q74 -7 105 -52.5t31 -131.5
q0 -104 -47.5 -142t-167.5 -38q-138 0 -229 19l7 48q129 -12 212 -12q90 0 124 27t34 107q0 87 -36 118.5t-130 31.5h-110v53h110q83 0 115 26.5t32 100.5q0 79 -34.5 105.5t-127.5 26.5q-17 0 -174 -9l-7 49q83 15 184 15z" />
    <glyph glyph-name="uni04DF" unicode="&#x4df;" horiz-adv-x="488" 
d="M160 685q19 0 19 -20v-55q0 -19 -19 -19h-22q-18 0 -18 19v55q0 20 18 20h22zM337 685q19 0 19 -20v-55q0 -19 -19 -19h-21q-19 0 -19 19v55q0 20 19 20h21zM203 492q121 0 167 -26t46 -102q0 -55 -23 -82t-80 -32v-2q63 -5 91 -36t28 -93q0 -71 -45.5 -99t-157.5 -28
q-101 0 -183 13l6 49q99 -8 173 -8q80 0 110.5 19t30.5 67q0 52 -30.5 71.5t-108.5 20.5h-108v47l107 1q74 0 100.5 17.5t26.5 66.5q0 50 -31.5 66t-120.5 16q-85 0 -136 -8l-6 48q61 14 144 14z" />
    <glyph glyph-name="uni04E0" unicode="&#x4e0;" horiz-adv-x="513" 
d="M224 397q126 0 184.5 -45.5t58.5 -153.5q0 -106 -52.5 -156t-185.5 -50q-116 0 -206 19l6 48q102 -12 199 -12q93 0 132 37.5t39 111.5q0 84 -39.5 119.5t-135.5 35.5h-113v43l254 243h-332v53h400q9 0 9 -9v-38l-260 -246h42z" />
    <glyph glyph-name="uni04E1" unicode="&#x4e1;" horiz-adv-x="485" 
d="M220 191q115 0 168.5 -45t53.5 -153q0 -107 -48.5 -157t-171.5 -50q-110 0 -191 19l5 48q102 -12 183 -12q86 0 121 37.5t35 112.5q0 83 -36 118.5t-122 35.5h-106v43l234 243h-305v53h371q8 0 8 -9v-37l-240 -247h41z" />
    <glyph glyph-name="uni04E2" unicode="&#x4e2;" horiz-adv-x="686" 
d="M482 841v-49h-272v49h272zM594 690v-690h-64v531q0 37 3 76h-3q-24 -49 -36 -70l-335 -537h-66v690h63v-527q0 -39 -3 -78h3q13 26 39 72l332 533h67z" />
    <glyph glyph-name="uni04E3" unicode="&#x4e3;" horiz-adv-x="585" 
d="M423 661v-49h-272v49h272zM500 484v-484h-58v348q0 18 2 60h-2q-10 -21 -32 -51l-273 -357h-52v484h57v-346q0 -40 -1 -62h2q19 34 33 52l272 356h52z" />
    <glyph glyph-name="uni04E4" unicode="&#x4e4;" horiz-adv-x="686" 
d="M268 865q19 0 19 -20v-55q0 -19 -19 -19h-22q-18 0 -18 19v55q0 20 18 20h22zM445 865q19 0 19 -20v-55q0 -19 -19 -19h-21q-19 0 -19 19v55q0 20 19 20h21zM594 690v-690h-64v531q0 37 3 76h-3q-24 -49 -36 -70l-335 -537h-66v690h63v-527q0 -39 -3 -78h3q13 26 39 72
l332 533h67z" />
    <glyph glyph-name="uni04E5" unicode="&#x4e5;" horiz-adv-x="585" 
d="M209 685q19 0 19 -20v-55q0 -19 -19 -19h-22q-18 0 -18 19v55q0 20 18 20h22zM386 685q19 0 19 -20v-55q0 -19 -19 -19h-21q-19 0 -19 19v55q0 20 19 20h21zM500 484v-484h-58v348q0 18 2 60h-2q-10 -21 -32 -51l-273 -357h-52v484h57v-346q0 -40 -1 -62h2q19 34 33 52
l272 356h52z" />
    <glyph glyph-name="uni04E6" unicode="&#x4e6;" 
d="M254 865q19 0 19 -20v-55q0 -19 -19 -19h-22q-18 0 -18 19v55q0 20 18 20h22zM431 865q19 0 19 -20v-55q0 -19 -19 -19h-21q-19 0 -19 19v55q0 20 19 20h21zM333 702q148 0 207 -78.5t59 -278.5t-59 -278.5t-207 -78.5t-207 78.5t-59 278.5t59 278.5t207 78.5zM333 644
q-111 0 -154.5 -65.5t-43.5 -233.5t43.5 -233.5t154.5 -65.5t154 65.5t43 233.5t-43 233.5t-154 65.5z" />
    <glyph glyph-name="uni04E7" unicode="&#x4e7;" horiz-adv-x="567" 
d="M204 685q19 0 19 -20v-55q0 -19 -19 -19h-22q-18 0 -18 19v55q0 20 18 20h22zM381 685q19 0 19 -20v-55q0 -19 -19 -19h-21q-19 0 -19 19v55q0 20 19 20h21zM284 497q122 0 172 -57.5t50 -197.5t-50 -197t-172 -57t-172.5 57.5t-50.5 196.5q0 140 50.5 197.5t172.5 57.5z
M284 442q-88 0 -122.5 -43t-34.5 -157t34.5 -157t122.5 -43t122 43t34 157t-34 157t-122 43z" />
    <glyph glyph-name="uni04E8" unicode="&#x4e8;" horiz-adv-x="659" 
d="M327 702q148 0 207 -78.5t59 -278.5t-59 -278.5t-207 -78.5t-207 78.5t-59 278.5t59 278.5t207 78.5zM327 644q-108 0 -152 -61.5t-46 -216.5h395q-2 156 -45.5 217t-151.5 61zM327 46q107 0 150.5 60t46.5 213h-395q3 -152 47 -212.5t151 -60.5z" />
    <glyph glyph-name="uni04E9" unicode="&#x4e9;" horiz-adv-x="565" 
d="M283 497q122 0 172 -57.5t50 -197.5t-50 -197t-172 -57t-172.5 57.5t-50.5 196.5q0 140 50.5 197.5t172.5 57.5zM283 442q-82 0 -116.5 -37t-38.5 -133h310q-4 96 -38.5 133t-116.5 37zM283 42q86 0 120.5 40.5t35.5 146.5h-312q1 -106 35.5 -146.5t120.5 -40.5z" />
    <glyph glyph-name="uni04EA" unicode="&#x4ea;" horiz-adv-x="659" 
d="M226 771q-18 0 -18 19v55q0 20 18 20h22q19 0 19 -20v-55q0 -19 -19 -19h-22zM404 771q-19 0 -19 19v55q0 20 19 20h21q19 0 19 -20v-55q0 -19 -19 -19h-21zM327 702q148 0 207 -78.5t59 -278.5t-59 -278.5t-207 -78.5t-207 78.5t-59 278.5t59 278.5t207 78.5zM327 644
q-108 0 -152 -61.5t-46 -216.5h395q-2 156 -45.5 217t-151.5 61zM327 46q107 0 150.5 60t46.5 213h-395q3 -152 47 -212.5t151 -60.5z" />
    <glyph glyph-name="uni04EB" unicode="&#x4eb;" horiz-adv-x="565" 
d="M180 591q-18 0 -18 19v55q0 20 18 20h22q19 0 19 -20v-55q0 -19 -19 -19h-22zM358 591q-19 0 -19 19v55q0 20 19 20h21q19 0 19 -20v-55q0 -19 -19 -19h-21zM283 497q122 0 172 -57.5t50 -197.5t-50 -197t-172 -57t-172.5 57.5t-50.5 196.5q0 140 50.5 197.5t172.5 57.5z
M283 442q-82 0 -116.5 -37t-38.5 -133h310q-4 96 -38.5 133t-116.5 37zM283 42q86 0 120.5 40.5t35.5 146.5h-312q1 -106 35.5 -146.5t120.5 -40.5z" />
    <glyph glyph-name="uni04EC" unicode="&#x4ec;" horiz-adv-x="574" 
d="M152 771q-18 0 -18 19v55q0 20 18 20h22q19 0 19 -20v-55q0 -19 -19 -19h-22zM330 771q-19 0 -19 19v55q0 20 19 20h21q19 0 19 -20v-55q0 -19 -19 -19h-21zM235 702q151 0 212 -80t61 -277t-61 -277t-212 -80q-115 0 -193 21l9 50q71 -12 184 -12q114 0 159 64.5
t46 229.5l-304 1v51l303 1q-6 138 -52 193.5t-152 55.5q-94 0 -177 -10l-9 50q76 19 186 19z" />
    <glyph glyph-name="uni04ED" unicode="&#x4ed;" horiz-adv-x="498" 
d="M138 591q-18 0 -18 19v55q0 20 18 20h22q19 0 19 -20v-55q0 -19 -19 -19h-22zM316 591q-19 0 -19 19v55q0 20 19 20h21q19 0 19 -20v-55q0 -19 -19 -19h-21zM206 490q128 0 179.5 -55.5t51.5 -194.5q0 -138 -51.5 -193.5t-179.5 -55.5q-96 0 -163 17l8 45q64 -7 155 -7
t127.5 38t38.5 139h-250v48l249 1q-4 92 -40.5 128t-124.5 36q-80 0 -150 -7l-7 45q58 16 157 16z" />
    <glyph glyph-name="uni04EE" unicode="&#x4ee;" horiz-adv-x="553" 
d="M414 841v-49h-272v49h272zM471 690h67l-192 -523q-11 -31 -19.5 -51.5t-22 -45t-27.5 -39t-33 -25.5t-42 -12q-58 -5 -115 13l8 47q36 -4 56 -5.5t39.5 3t28.5 9.5t21.5 22.5t19.5 33.5t21 51l13 34h-41q-45 0 -62 43l-164 445h67l150 -414q7 -18 26 -18h43z" />
    <glyph glyph-name="uni04EF" unicode="&#x4ef;" horiz-adv-x="522" 
d="M394 661v-49h-272v49h272zM431 484h68l-204 -518q-38 -99 -89 -138q-62 -46 -163 -31l6 43q76 -4 118 26q39 31 69 107l12 27h-16q-19 0 -25 17l-184 467h68l143 -378q12 -32 20 -56h14q2 6 6.5 18t8 21.5t6.5 17.5z" />
    <glyph glyph-name="uni04F0" unicode="&#x4f0;" horiz-adv-x="553" 
d="M178 771q-18 0 -18 19v55q0 20 18 20h22q19 0 19 -20v-55q0 -19 -19 -19h-22zM356 771q-19 0 -19 19v55q0 20 19 20h21q19 0 19 -20v-55q0 -19 -19 -19h-21zM471 690h67l-192 -523q-11 -31 -19.5 -51.5t-22 -45t-27.5 -39t-33 -25.5t-42 -12q-58 -5 -115 13l8 47
q36 -4 56 -5.5t39.5 3t28.5 9.5t21.5 22.5t19.5 33.5t21 51l13 34h-41q-45 0 -62 43l-164 445h67l150 -414q7 -18 26 -18h43z" />
    <glyph glyph-name="uni04F1" unicode="&#x4f1;" horiz-adv-x="522" 
d="M158 591q-18 0 -18 19v55q0 20 18 20h22q19 0 19 -20v-55q0 -19 -19 -19h-22zM336 591q-19 0 -19 19v55q0 20 19 20h21q19 0 19 -20v-55q0 -19 -19 -19h-21zM431 484h68l-204 -518q-38 -99 -89 -138q-62 -46 -163 -31l6 43q76 -4 118 26q39 31 69 107l12 27h-16
q-19 0 -25 17l-184 467h68l143 -378q12 -32 20 -56h14q2 6 6.5 18t8 21.5t6.5 17.5z" />
    <glyph glyph-name="uni04F2" unicode="&#x4f2;" horiz-adv-x="553" 
d="M313 888l-129 -157l-30 22l111 168zM340 731l-30 22l110 168l48 -33zM471 690h67l-192 -523q-11 -31 -19.5 -51.5t-22 -45t-27.5 -39t-33 -25.5t-42 -12q-58 -5 -115 13l8 47q36 -4 56 -5.5t39.5 3t28.5 9.5t21.5 22.5t19.5 33.5t21 51l13 34h-41q-45 0 -62 43l-164 445
h67l150 -414q7 -18 26 -18h43z" />
    <glyph glyph-name="uni04F3" unicode="&#x4f3;" horiz-adv-x="522" 
d="M293 708l-129 -157l-30 22l111 168zM320 551l-30 22l110 168l48 -33zM431 484h68l-204 -518q-38 -99 -89 -138q-62 -46 -163 -31l6 43q76 -4 118 26q39 31 69 107l12 27h-16q-19 0 -25 17l-184 467h68l143 -378q12 -32 20 -56h14q2 6 6.5 18t8 21.5t6.5 17.5z" />
    <glyph glyph-name="uni04F4" unicode="&#x4f4;" horiz-adv-x="618" 
d="M198 771q-18 0 -18 19v55q0 20 18 20h22q19 0 19 -20v-55q0 -19 -19 -19h-22zM376 771q-19 0 -19 19v55q0 20 19 20h21q19 0 19 -20v-55q0 -19 -19 -19h-21zM460 690h66v-690h-66v328q-119 -71 -248 -71q-148 0 -148 152v281h65v-268q0 -56 25 -81t80 -25q60 0 110.5 14
t115.5 50v310z" />
    <glyph glyph-name="uni04F5" unicode="&#x4f5;" horiz-adv-x="522" 
d="M155 591q-18 0 -18 19v55q0 20 18 20h22q19 0 19 -20v-55q0 -19 -19 -19h-22zM333 591q-19 0 -19 19v55q0 20 19 20h21q19 0 19 -20v-55q0 -19 -19 -19h-21zM374 484h63v-484h-63v216q-98 -42 -201 -42q-115 0 -115 105v205h63v-186q0 -38 17 -54.5t55 -16.5q89 0 181 40
v217z" />
    <glyph glyph-name="uni04F6" unicode="&#x4f6;" horiz-adv-x="501" 
d="M228 635q-72 0 -72 -75v-514h81v-126h-102l-3 80h-42v571q0 52 33.5 86t84.5 34q193 0 286 -6l-4 -50h-262z" />
    <glyph glyph-name="uni04F7" unicode="&#x4f7;" horiz-adv-x="454" 
d="M184 486q166 0 245 -6l-2 -46h-218q-64 0 -64 -65v-317h61v-195h-42l-8 143h-74v384q0 50 26 76t76 26z" />
    <glyph glyph-name="uni04F8" unicode="&#x4f8;" horiz-adv-x="833" 
d="M313 771q-18 0 -18 19v55q0 20 18 20h22q19 0 19 -20v-55q0 -19 -19 -19h-22zM491 771q-19 0 -19 19v55q0 20 19 20h21q19 0 19 -20v-55q0 -19 -19 -19h-21zM321 402q124 0 172 -46t48 -160q0 -118 -47.5 -161t-163.5 -43q-151 0 -236 8h-1v690h65v-288h163zM675 690h65
v-690h-65v690zM321 50q89 0 121 29.5t32 116.5q0 85 -31.5 117.5t-121.5 32.5h-163v-295q40 -1 163 -1z" />
    <glyph glyph-name="uni04F9" unicode="&#x4f9;" horiz-adv-x="705" 
d="M252 591q-18 0 -18 19v55q0 20 18 20h22q19 0 19 -20v-55q0 -19 -19 -19h-22zM451 685q19 0 19 -20v-55q0 -19 -19 -19h-21q-19 0 -19 19v55q0 20 19 20h21zM277 287q101 0 139 -32.5t38 -114.5q0 -84 -37.5 -115t-130.5 -31q-126 0 -200 6h-1v484h61v-197h131zM556 484
h63v-484h-63v484zM277 45q63 0 87.5 20t24.5 78q0 55 -23.5 75.5t-88.5 20.5h-131v-193q33 -1 131 -1z" />
    <glyph glyph-name="uni04FA" unicode="&#x4fa;" horiz-adv-x="537" 
d="M264 635q-72 0 -72 -75v-198h220v-50h-220v-256h78v-80q0 -65 -39 -100t-117 -35v52q100 0 100 81v26h-88v312h-113v50h113v209q0 52 33.5 86t84.5 34q193 0 286 -6l-4 -50h-262z" />
    <glyph glyph-name="uni04FB" unicode="&#x4fb;" horiz-adv-x="454" 
d="M209 434q-64 0 -64 -65v-127h167v-43h-167v-153h80v-70q0 -65 -35.5 -100t-105.5 -35v47q86 0 86 86v26h-88v199h-84v43h84v142q0 50 26 76t76 26q166 0 245 -6l-2 -46h-218z" />
    <glyph glyph-name="uni04FC" unicode="&#x4fc;" horiz-adv-x="592" 
d="M562 690l-188 -329q121 -168 148 -218q39 -70 39 -123q0 -83 -56 -133.5t-186 -49.5v48q175 4 175 136q0 52 -38 116.5t-120 176.5q-5 6 -8.5 10.5t-6.5 9.5h-32l-187 -334h-72l203 358l-190 332h71l173 -305h31l172 305h72z" />
    <glyph glyph-name="uni04FD" unicode="&#x4fd;" horiz-adv-x="502" 
d="M476 484l-158 -230q67 -84 90 -115t44.5 -72t21.5 -73q0 -167 -205 -160v40q76 1 110.5 30.5t34.5 89.5q0 29 -23 71.5t-43.5 69t-77.5 97.5h-28l-153 -232h-65l169 252l-158 232h64l142 -211h27l143 211h65z" />
    <glyph glyph-name="uni04FE" unicode="&#x4fe;" horiz-adv-x="587" 
d="M494 0l-185 332h-31l-185 -332h-72l188 332h-115v50h116l-176 308h72l172 -305h31l172 305h73l-177 -308h115v-50h-114l189 -332h-73z" />
    <glyph glyph-name="uni04FF" unicode="&#x4ff;" horiz-adv-x="522" 
d="M423 0l-151 227h-22l-151 -227h-71l156 230h-114v44h113l-142 210h70l137 -206h26l137 206h70l-142 -210h114v-44h-115l155 -230h-70z" />
    <glyph glyph-name="uni0510" unicode="&#x510;" horiz-adv-x="548" 
d="M310 698q101 0 184 -15l-7 -49q-158 9 -174 9q-93 0 -127.5 -26.5t-34.5 -105.5q0 -74 32 -100.5t115 -26.5h110v-53h-110q-94 0 -130 -31.5t-36 -118.5q0 -80 34 -107t124 -27q83 0 212 12l7 -48q-91 -19 -229 -19q-120 0 -167.5 38t-47.5 142q0 86 31 131.5t105 52.5v4
q-61 6 -88.5 44.5t-27.5 113.5q0 105 49 142.5t176 37.5z" />
    <glyph glyph-name="uni0511" unicode="&#x511;" horiz-adv-x="488" 
d="M285 492q83 0 144 -14l-6 -48q-51 8 -136 8q-89 0 -120.5 -16t-31.5 -66q0 -49 26.5 -66.5t100.5 -17.5l107 -1v-47h-108q-78 -1 -108.5 -20.5t-30.5 -71.5q0 -48 30.5 -67t110.5 -19q74 0 173 8l6 -49q-82 -13 -183 -13q-112 0 -157.5 28t-45.5 99q0 62 28 93t91 36v2
q-57 5 -80 32t-23 82q0 76 46 102t167 26z" />
    <glyph glyph-name="uni0512" unicode="&#x512;" horiz-adv-x="643" 
d="M546 690v-643q0 -232 -223 -209v48q92 0 125 36.5t33 125.5v588h-158q-72 0 -78 -75q-19 -216 -31.5 -294.5t-46.5 -142.5q-57 -115 -154 -125l-6 51q62 23 99 93q32 63 44.5 137.5t30.5 291.5q11 118 126 118h239z" />
    <glyph glyph-name="uni0513" unicode="&#x513;" horiz-adv-x="585" 
d="M468 484v-441q0 -113 -49.5 -165t-149.5 -40v43q80 0 108 36t28 126v391h-124q-32 0 -47 -15t-19 -49q-1 -7 -4 -34t-4.5 -37.5t-4.5 -35t-5.5 -37t-6.5 -33.5t-7.5 -35t-8.5 -30.5t-11 -29.5q-36 -94 -135 -103l-7 50q36 11 55.5 28.5t30.5 44.5q6 14 12 32t10 39.5
t7.5 39t6.5 43t4.5 38.5t4 38.5t3.5 30.5q7 54 34.5 79.5t82.5 25.5h196z" />
    <glyph glyph-name="uni051A" unicode="&#x51a;" horiz-adv-x="667" 
d="M333 702q148 0 207.5 -78.5t59.5 -278.5t-59.5 -278.5t-207.5 -78.5t-207 78.5t-59 278.5t59 278.5t207 78.5zM333 644q-111 0 -154 -65.5t-43 -233.5t43 -233.5t154 -65.5t154.5 65.5t43.5 233.5t-43.5 233.5t-154.5 65.5zM295 -46q107 -54 251 -75l-21 -66
q-135 25 -250 102z" />
    <glyph glyph-name="uni051B" unicode="&#x51b;" horiz-adv-x="566" 
d="M272 497q108 0 212 -34v-667h-63l-1 178q0 62 7 99q-104 -85 -201 -85q-86 0 -126 60.5t-40 192.5q0 135 47 195.5t165 60.5zM126 237q0 -104 26.5 -148.5t93.5 -44.5q43 0 81 17.5t94 57.5v303q-78 22 -148 20q-82 -1 -114.5 -44.5t-32.5 -160.5z" />
    <glyph glyph-name="uni051C" unicode="&#x51c;" horiz-adv-x="941" 
d="M910 690l-156 -670q-5 -20 -27 -20h-79q-23 0 -28 21l-121 541q-13 57 -17 77h-22l-18 -77l-121 -541q-5 -21 -27 -21h-80q-22 0 -27 20l-155 670h69l126 -559q8 -33 16 -80h25q8 43 16 79l122 537q5 23 27 23h75q22 0 27 -23l122 -537q5 -21 16 -79h26q2 9 4.5 25t5 29
t5.5 24l127 561h69z" />
    <glyph glyph-name="uni051D" unicode="&#x51d;" horiz-adv-x="820" 
d="M792 484l-151 -465q-6 -19 -26 -19h-59q-21 0 -26 21l-96 347q-3 12 -9 37t-10 38h-11q-3 -12 -9.5 -37t-9.5 -38l-95 -347q-5 -21 -27 -21h-58q-21 0 -26 19l-151 465h66l114 -371q5 -17 19 -70h13q3 13 9.5 36.5t9.5 33.5l97 351q5 20 25 20h58q20 0 25 -21l97 -350
l18 -70h14q15 58 18 70l115 371h66z" />
    <glyph glyph-name="uni0524" unicode="&#x524;" horiz-adv-x="682" 
d="M574 46h81v-126h-102l-3 80h-42v636h-350v-636h-65v690h481v-644z" />
    <glyph glyph-name="uni0525" unicode="&#x525;" horiz-adv-x="576" 
d="M486 52h62v-195h-42l-8 143h-74v433h-277v-433h-62v484h401v-432z" />
    <glyph glyph-name="uni0526" unicode="&#x526;" horiz-adv-x="650" 
d="M555 46h76v-126h-103l-2 80h-37v268q1 56 -25 81.5t-84 25.5q-109 0 -222 -64v-311h-65v690h65v-323q117 66 243 66q154 0 154 -152v-235z" />
    <glyph glyph-name="uni0527" unicode="&#x527;" horiz-adv-x="585" 
d="M496 52h62v-195h-43l-7 143h-76v347q0 51 -19.5 73t-64.5 22q-44 0 -89 -19.5t-112 -64.5v-358h-63v700h63l2 -201q0 -59 -7 -95q126 93 223 93q64 0 97.5 -34t33.5 -99v-312z" />
    <glyph glyph-name="uni0528" unicode="&#x528;" horiz-adv-x="751" 
d="M592 690h66v-690h-66v341h-347v-330q0 -142 -130 -142q-43 0 -82 11l7 46h53q86 0 86 84v680h66v-293h347v293z" />
    <glyph glyph-name="uni0529" unicode="&#x529;" horiz-adv-x="600" 
d="M429 484h63v-484h-63v233h-282v-190q0 -113 -49 -165t-150 -40v43q81 0 109 36t28 126v441h62v-201h282v201z" />
    <glyph glyph-name="uni052E" unicode="&#x52e;" horiz-adv-x="667" 
d="M552 46h80v-126h-98l-2 80h-46v636h-158q-72 0 -78 -75q-19 -216 -31.5 -294.5t-46.5 -142.5q-55 -115 -154 -125l-6 51q63 24 99 93q32 63 44.5 137.5t30.5 291.5q11 118 126 118h240v-644z" />
    <glyph glyph-name="uni052F" unicode="&#x52f;" horiz-adv-x="553" 
d="M468 51h68v-195h-42l-8 143h-42v1h-40v434h-123q-32 0 -47 -15t-19 -49q-1 -7 -4 -34t-4.5 -37.5t-4.5 -35t-5.5 -37t-6.5 -33.5t-7.5 -35t-8.5 -30.5t-11 -29.5q-36 -94 -135 -103l-7 50q36 11 55.5 28.5t30.5 44.5q6 14 12 32t10 39.5t7.5 39t6.5 43t4.5 38.5t4 38.5
t3.5 30.5q7 54 34.5 79.5t82.5 25.5h196v-433z" />
    <glyph glyph-name="uni1E08" unicode="&#x1e08;" horiz-adv-x="567" 
d="M426 907l38 -48l-178 -128l-24 30zM331 702q109 0 184 -19l-8 -49q-76 9 -176 9q-110 0 -153 -65t-43 -233t43 -233t153 -65q114 0 190 11l8 -49q-78 -21 -198 -21q-146 0 -205 80t-59 277t59 277t205 80zM289 -57q53 5 76.5 -9.5t22.5 -55.5q-2 -60 -45.5 -92.5
t-111.5 -23.5l10 35q44 -1 71.5 21t28.5 56q0 21 -12.5 29t-46.5 9z" />
    <glyph glyph-name="uni1E09" unicode="&#x1e09;" horiz-adv-x="485" 
d="M375 727l38 -48l-178 -128l-24 30zM287 497q89 0 149 -22l-10 -41q-53 8 -129 8q-96 0 -133.5 -42.5t-37.5 -157.5t37.5 -157t133.5 -42q84 0 141 11l7 -44q-74 -22 -158 -22q-125 0 -176 57t-51 197t51 197.5t176 57.5zM243 -57q53 5 76.5 -9.5t22.5 -55.5
q-2 -60 -45.5 -92.5t-111.5 -23.5l10 35q44 -1 71.5 21t28.5 56q0 21 -12.5 29t-46.5 9z" />
    <glyph glyph-name="uni1E0C" unicode="&#x1e0c;" horiz-adv-x="662" 
d="M332 699q146 0 204.5 -78.5t58.5 -275.5t-58.5 -275.5t-204.5 -78.5q-113 0 -239 9v690q124 9 239 9zM332 49q109 0 151.5 65t42.5 231t-42.5 231.5t-151.5 65.5q-70 0 -174 -2v-589q100 -2 174 -2zM334 -68q21 0 21 -21v-59q0 -21 -21 -21h-21q-21 0 -21 21v59
q0 21 21 21h21z" />
    <glyph glyph-name="uni1E0D" unicode="&#x1e0d;" horiz-adv-x="569" 
d="M421 700h63v-700h-49l-6 74q-101 -86 -195 -86q-92 0 -132.5 61t-40.5 194q0 138 43 196t138 58q89 0 183 -47q-4 33 -4 95v155zM127 244q0 -113 28 -156.5t97 -43.5q41 0 76.5 17t92.5 59v286q-103 35 -166 35q-71 0 -99.5 -42.5t-28.5 -154.5zM303 -68q21 0 21 -21v-59
q0 -21 -21 -21h-21q-21 0 -21 21v59q0 21 21 21h21z" />
    <glyph glyph-name="uni1E0E" unicode="&#x1e0e;" horiz-adv-x="662" 
d="M332 699q146 0 204.5 -78.5t58.5 -275.5t-58.5 -275.5t-204.5 -78.5q-113 0 -239 9v690q124 9 239 9zM332 49q109 0 151.5 65t42.5 231t-42.5 231.5t-151.5 65.5q-70 0 -174 -2v-589q100 -2 174 -2zM185 -142v49h273v-49h-273z" />
    <glyph glyph-name="uni1E0F" unicode="&#x1e0f;" horiz-adv-x="569" 
d="M421 700h63v-700h-49l-6 74q-101 -86 -195 -86q-92 0 -132.5 61t-40.5 194q0 138 43 196t138 58q89 0 183 -47q-4 33 -4 95v155zM127 244q0 -113 28 -156.5t97 -43.5q41 0 76.5 17t92.5 59v286q-103 35 -166 35q-71 0 -99.5 -42.5t-28.5 -154.5zM154 -142v49h273v-49
h-273z" />
    <glyph glyph-name="uni1E14" unicode="&#x1e14;" horiz-adv-x="557" 
d="M368 902l-24 -27l-123 94l39 43zM446 845v-49h-272v49h272zM220 55h280l4 -50q-94 -6 -295 -6q-55 0 -88.5 31t-33.5 83v464q0 52 33.5 83t88.5 31q201 0 295 -6l-4 -50h-280q-67 0 -67 -73v-169h308v-53h-308v-213q0 -72 67 -72z" />
    <glyph glyph-name="uni1E15" unicode="&#x1e15;" horiz-adv-x="534" 
d="M338 703l-24 -27l-123 94l39 43zM416 646v-49h-272v49h272zM294 43q75 0 167 12l7 -43q-61 -24 -183 -24t-173.5 58.5t-51.5 197.5q0 140 50 196.5t167 56.5q103 0 152 -37.5t50 -113.5q2 -135 -111 -135h-241q5 -96 43 -132t124 -36zM280 442q-84 0 -118 -39.5
t-36 -141.5h227q64 0 62 84q-1 51 -33 74t-102 23z" />
    <glyph glyph-name="uni1E16" unicode="&#x1e16;" horiz-adv-x="557" 
d="M399 969l-123 -94l-24 27l108 110zM446 845v-49h-272v49h272zM220 55h280l4 -50q-94 -6 -295 -6q-55 0 -88.5 31t-33.5 83v464q0 52 33.5 83t88.5 31q201 0 295 -6l-4 -50h-280q-67 0 -67 -73v-169h308v-53h-308v-213q0 -72 67 -72z" />
    <glyph glyph-name="uni1E17" unicode="&#x1e17;" horiz-adv-x="534" 
d="M369 770l-123 -94l-24 27l108 110zM416 646v-49h-272v49h272zM294 43q75 0 167 12l7 -43q-61 -24 -183 -24t-173.5 58.5t-51.5 197.5q0 140 50 196.5t167 56.5q103 0 152 -37.5t50 -113.5q2 -135 -111 -135h-241q5 -96 43 -132t124 -36zM280 442q-84 0 -118 -39.5
t-36 -141.5h227q64 0 62 84q-1 51 -33 74t-102 23z" />
    <glyph glyph-name="uni1E1C" unicode="&#x1e1c;" horiz-adv-x="557" 
d="M310 766q-69 0 -108.5 34.5t-37.5 90.5l35 6q0 -39 29 -60.5t82 -21.5q52 0 81 21.5t29 60.5l34 -6q3 -56 -36 -90.5t-108 -34.5zM220 55h280l4 -50q-94 -6 -295 -6q-55 0 -88.5 31t-33.5 83v464q0 52 33.5 83t88.5 31q201 0 295 -6l-4 -50h-280q-67 0 -67 -73v-169h308
v-53h-308v-213q0 -72 67 -72zM261 -45q53 5 76.5 -9.5t22.5 -55.5q-2 -60 -45.5 -92.5t-111.5 -23.5l10 35q44 -1 71.5 21t28.5 56q0 21 -12.5 29t-46.5 9z" />
    <glyph glyph-name="uni1E1D" unicode="&#x1e1d;" horiz-adv-x="534" 
d="M279 568q-69 0 -108.5 34.5t-37.5 90.5l35 6q0 -39 29 -60.5t82 -21.5q52 0 81 21.5t29 60.5l34 -6q3 -56 -36 -90.5t-108 -34.5zM294 43q75 0 167 12l7 -43q-61 -24 -183 -24t-173.5 58.5t-51.5 197.5q0 140 50 196.5t167 56.5q103 0 152 -37.5t50 -113.5
q2 -135 -111 -135h-241q5 -96 43 -132t124 -36zM280 442q-84 0 -118 -39.5t-36 -141.5h227q64 0 62 84q-1 51 -33 74t-102 23zM229 -51q53 5 76.5 -9.5t22.5 -55.5q-2 -60 -45.5 -92.5t-111.5 -23.5l10 35q44 -1 71.5 21t28.5 56q0 21 -12.5 29t-46.5 9z" />
    <glyph glyph-name="uni1E20" unicode="&#x1e20;" horiz-adv-x="626" 
d="M462 846v-49h-272v49h272zM489 399h64v-399h-47l-9 77q-89 -89 -209 -89q-118 0 -169.5 85t-51.5 273q0 201 61 278.5t216 77.5q114 0 194 -19l-8 -49q-90 10 -182 10q-82 0 -126 -25t-65 -89.5t-21 -186.5q0 -162 38 -230t131 -68q37 0 73 13t57.5 27t53.5 39v275z" />
    <glyph glyph-name="uni1E21" unicode="&#x1e21;" horiz-adv-x="553" 
d="M407 661v-49h-272v49h272zM529 484l-4 -36l-81 -5q28 -35 28 -100q0 -79 -46 -115t-156 -36q-70 0 -110 13q-15 -19 -18 -39.5t10.5 -38t44.5 -22.5l186 -31q66 -10 91.5 -41t25.5 -92q0 -82 -49.5 -114t-175.5 -32q-128 0 -178 31.5t-50 112.5q0 48 18 76.5t64 51.5
q-43 27 -41.5 75.5t39.5 76.5q-60 33 -60 124q0 81 46 117.5t157 36.5q69 0 109 -13h150zM270 241q78 0 110 24t32 78q0 56 -32 80t-110 24q-79 0 -111.5 -24t-32.5 -80q0 -54 33 -78t111 -24zM438 -57q0 42 -16.5 58.5t-68.5 24.5l-181 28l-4 -3q-33 -23 -46 -46t-13 -62
q0 -55 35 -74.5t131 -19.5q94 0 128.5 20t34.5 74z" />
    <glyph glyph-name="uni1E24" unicode="&#x1e24;" horiz-adv-x="664" 
d="M506 690h65v-690h-65v341h-348v-341h-65v690h65v-293h348v293zM345 -56q21 0 21 -21v-59q0 -21 -21 -21h-21q-21 0 -21 21v59q0 21 21 21h21z" />
    <glyph glyph-name="uni1E25" unicode="&#x1e25;" horiz-adv-x="577" 
d="M365 497q64 0 97.5 -34t33.5 -99v-364h-64v347q0 51 -19.5 73t-64.5 22q-44 0 -89 -19.5t-112 -64.5v-358h-63v700h63l2 -201q0 -59 -7 -95q126 93 223 93zM307 -62q21 0 21 -21v-59q0 -21 -21 -21h-21q-21 0 -21 21v59q0 21 21 21h21z" />
    <glyph glyph-name="uni1E2A" unicode="&#x1e2a;" horiz-adv-x="664" 
d="M506 690h65v-690h-65v341h-348v-341h-65v690h65v-293h348v293zM443 -43l35 -5q2 -57 -37 -91.5t-107 -34.5q-70 0 -109.5 34.5t-36.5 91.5l34 5q0 -39 29.5 -60t82.5 -21q51 0 80 21t29 60z" />
    </font>
</defs>
</svg>
