<?xml version="1.0" standalone="no"?>
<!DOCTYPE svg PUBLIC "-//W3C//DTD SVG 1.1//EN" "http://www.w3.org/Graphics/SVG/1.1/DTD/svg11.dtd" >
<svg xmlns="http://www.w3.org/2000/svg" xmlns:xlink="http://www.w3.org/1999/xlink" version="1.1">
<metadata>
Created by FontForge 20170731 at Sat Nov  8 21:22:29 2014
 By Aleksey,,,
Copyright (c) 2014, Natanael Gama (www.ndiscovered.com . info(at)ndiscovered.com)
</metadata>
<defs>
<font id="Exo2-ExtraLightCondensed" horiz-adv-x="533" >
  <font-face 
    font-family="Exo 2 Extra Light Condensed"
    font-weight="250"
    font-stretch="condensed"
    units-per-em="1000"
    panose-1="0 0 3 6 0 0 0 0 0 0"
    ascent="800"
    descent="-200"
    x-height="482"
    cap-height="690"
    bbox="-140 -263 959 923"
    underline-thickness="50"
    underline-position="-200"
    unicode-range="U+0020-FB02"
  />
<missing-glyph horiz-adv-x="481" 
 />
    <glyph glyph-name="fi" unicode="fi" horiz-adv-x="460" 
d="M387 482v-482h-41v447h-209v-447h-41v447h-71v30l71 5v95q0 70 24.5 104t81.5 34q54 0 84 -5v-30h-70q-44 0 -61.5 -23.5t-17.5 -82.5v-92h250zM357 683h19q15 0 15 -16v-60q0 -16 -15 -16h-19q-14 0 -14 16v60q0 16 14 16z" />
    <glyph glyph-name="fl" unicode="fl" horiz-adv-x="513" 
d="M501 27l4 -26q-19 -8 -60 -8q-40 0 -64 27.5t-24 77.5v583h-141q-43 1 -60.5 -23t-17.5 -84v-92h126v-35h-126v-447h-42v447h-70v30l70 5v95q0 70 25 104t82 34q132 0 196 -8v-604q0 -76 58 -76h44z" />
    <glyph glyph-name="f_f" unicode="ff" horiz-adv-x="546" 
d="M554 680h-85q-44 0 -61.5 -23t-17.5 -80v-95h135v-34h-135v-448h-41v448h-212v-448h-41v448h-71v29l71 5v79q0 68 25 102t81 34q51 0 96 -5l-2 -30h-80q-44 0 -61.5 -22.5t-17.5 -80.5v-77h212v97q0 69 24.5 102.5t81.5 33.5q65 0 101 -5z" />
    <glyph glyph-name="f_f_i" unicode="ffi" horiz-adv-x="711" 
d="M638 482v-482h-41v447h-210v-447h-41v447l-212 1v-448h-41v448h-68v29l68 5v79q0 136 106 136q50 0 97 -5l-3 -30h-79q-44 0 -62 -22.5t-18 -80.5v-77h212v95q0 70 24.5 104t81.5 34q61 0 95 -5v-30h-80q-44 0 -62 -23.5t-18 -82.5v-92h251zM608 683h19q14 0 14 -16v-60
q0 -16 -14 -16h-19q-15 0 -15 16v60q0 16 15 16z" />
    <glyph glyph-name="f_f_l" unicode="ffl" horiz-adv-x="766" 
d="M753 27l5 -26q-21 -8 -60 -8q-41 0 -64.5 27.5t-23.5 77.5v583h-141q-43 1 -61 -23.5t-18 -83.5v-92h132v-34h-132v-448h-41v448h-212v-448h-41v448h-71v29l71 5v79q0 68 25 102t81 34q51 0 96 -5l-2 -30h-80q-44 0 -61.5 -22.5t-17.5 -80.5v-77h212v95q0 70 24.5 104
t81.5 34q134 0 196 -8v-604q0 -76 59 -76h43z" />
    <glyph glyph-name=".notdef" horiz-adv-x="481" 
 />
    <glyph glyph-name=".null" horiz-adv-x="0" 
 />
    <glyph glyph-name="nonmarkingreturn" horiz-adv-x="333" 
 />
    <glyph glyph-name="space" unicode=" " horiz-adv-x="182" 
 />
    <glyph glyph-name="exclam" unicode="!" horiz-adv-x="210" 
d="M125 363l-3 -158h-34l-4 158v332h41v-332zM99 94h12q17 0 17 -17v-60q0 -17 -17 -17h-12q-17 0 -17 17v60q0 17 17 17z" />
    <glyph glyph-name="quotedbl" unicode="&#x22;" horiz-adv-x="271" 
d="M96 480h-29l-3 210h35zM205 480h-31l-3 210h36z" />
    <glyph glyph-name="numbersign" unicode="#" horiz-adv-x="541" 
d="M406 464l-30 -209h88l-5 -31h-87l-31 -224h-35l31 224h-166l-31 -224h-36l31 224h-93l6 31h91l30 209h-93l6 31h91l27 195h36l-27 -195h166l27 195h35l-27 -195h88l-5 -31h-87zM370 464h-166l-29 -209h166z" />
    <glyph glyph-name="dollar" unicode="$" horiz-adv-x="450" 
d="M243 365l49 -10q61 -11 86 -53t25 -131q0 -60 -10 -97t-34.5 -55.5t-53.5 -24t-78 -5.5h-5l-6 -122h-26l6 122q-70 2 -136 13l3 31q91 -6 135 -6l16 304l-55 11q-58 11 -83 54t-25 127q0 61 9.5 97.5t33.5 54t52 22.5t78 4h10l5 102h25l-5 -103q67 -3 121 -13l-4 -30
q-15 1 -55.5 3.5t-63.5 3.5zM94 522q0 -70 18.5 -101.5t61.5 -40.5l44 -9l14 293h-7q-28 0 -42.5 -1t-32.5 -5t-26 -13t-16 -24.5t-11 -39.5t-3 -59zM224 27h5q77 1 104 27.5t27 116.5q0 75 -18 106t-63 40l-39 8z" />
    <glyph glyph-name="percent" unicode="%" horiz-adv-x="712" 
d="M168 702q68 0 96 -47.5t28 -156.5t-28 -156.5t-96 -47.5t-96 48t-28 156t28 156t96 48zM184 0h-32l373 690h32zM167 674q-50 0 -70 -40.5t-20 -135.5t20 -135.5t70 -40.5q51 0 71 40.5t20 135.5t-20 135.5t-71 40.5zM544 401q68 0 96 -48t28 -156q0 -109 -28 -157
t-96 -48t-96 48t-28 157q0 108 28 156t96 48zM544 373q-51 0 -71 -40.5t-20 -135.5t20 -136t71 -41q50 0 70 41t20 136t-20 135.5t-70 40.5z" />
    <glyph glyph-name="ampersand" unicode="&#x26;" horiz-adv-x="625" 
d="M577 29l5 -28q-37 -8 -75 -8q-89 0 -94 95q-37 -53 -82 -75t-110 -22q-88 0 -124.5 40t-36.5 143q0 84 24.5 130t84.5 52v4q-50 5 -71.5 45t-21.5 116q0 59 11 95t39.5 54t62.5 23.5t94 5.5q73 0 128 -9l-6 -30q-27 3 -123 3t-129 -27t-33 -119q0 -85 27 -114t98 -29h168
l7 149h33v-149h108l-2 -33h-106v-236q0 -76 59 -76h65zM227 28q64 0 108 25t78 79v209h-169q-78 0 -109 -34.5t-31 -128.5q0 -85 27 -117.5t96 -32.5z" />
    <glyph glyph-name="quotesingle" unicode="'" horiz-adv-x="163" 
d="M96 480h-29l-3 210h35z" />
    <glyph glyph-name="parenleft" unicode="(" horiz-adv-x="287" 
d="M249 790l6 -24q-84 -54 -123.5 -164.5t-39.5 -288.5q0 -175 39.5 -286t123.5 -168l-6 -24q-103 56 -151 172t-48 305q0 191 48 307t151 171z" />
    <glyph glyph-name="parenright" unicode=")" horiz-adv-x="287" 
d="M32 766l5 24q103 -55 151 -171t48 -307q0 -189 -48 -305t-151 -172l-5 24q84 57 123.5 168t39.5 286q0 178 -39.5 288.5t-123.5 164.5z" />
    <glyph glyph-name="asterisk" unicode="*" horiz-adv-x="363" 
d="M191 535l77 -129l-22 -17l-65 124l-64 -123l-24 17l78 128l-4 155h29zM158 550l-1 -13l-6 -9l-100 37l10 29zM312 564l-101 -36l-6 9v13l97 43z" />
    <glyph glyph-name="plus" unicode="+" horiz-adv-x="442" 
d="M392 281h-155v-184h-32v184h-155v33h154v184h33v-184h155v-33z" />
    <glyph glyph-name="comma" unicode="," horiz-adv-x="174" 
d="M82 94h13q15 0 16 -17l-1 -64q-2 -77 -20 -134l-20 7q6 60 6 114q-14 0 -12 15v62q1 17 18 17z" />
    <glyph glyph-name="hyphen" unicode="-" horiz-adv-x="375" 
d="M311 235h-247v33h247v-33z" />
    <glyph glyph-name="period" unicode="." horiz-adv-x="174" 
d="M80 94h14q17 0 17 -17v-60q0 -17 -17 -17h-14q-17 0 -17 17v60q0 17 17 17z" />
    <glyph glyph-name="slash" unicode="/" horiz-adv-x="404" 
d="M63 -61h-37l315 751h36z" />
    <glyph glyph-name="zero" unicode="0" horiz-adv-x="475" 
d="M237 702q99 0 140 -84.5t41 -272.5t-41 -272.5t-140 -84.5t-139.5 84.5t-40.5 272.5t40.5 272.5t139.5 84.5zM237 665q-76 0 -107 -75t-31 -245t31 -245t107 -75q77 0 108 75t31 245t-31 245t-108 75z" />
    <glyph glyph-name="one" unicode="1" horiz-adv-x="314" 
d="M217 0h-42v600q0 17 2 49l-143 -60l-6 29l147 72h42v-690z" />
    <glyph glyph-name="two" unicode="2" horiz-adv-x="448" 
d="M214 702q86 0 125.5 -28.5t39.5 -112.5q0 -66 -24.5 -124.5t-82.5 -143.5l-175 -256q30 1 96 1h209v-38h-355v25q0 8 7 20l178 264q56 82 80.5 141t23.5 116q-2 62 -31 80.5t-91 18.5q-72 0 -157 -21l-5 31q89 27 162 27z" />
    <glyph glyph-name="three" unicode="3" horiz-adv-x="444" 
d="M202 702q93 0 130.5 -34.5t37.5 -124.5q0 -152 -85 -174v-4q97 -19 100 -173q2 -105 -37 -154.5t-132 -49.5q-70 0 -170 17l5 32q100 -12 156 -12q73 0 104.5 38.5t31.5 130.5q0 71 -26.5 112t-98.5 42l-103 1v31l103 2q112 3 110 155q-1 75 -28.5 101.5t-101.5 26.5
q-70 0 -138 -11l-6 31q82 17 148 17z" />
    <glyph glyph-name="four" unicode="4" horiz-adv-x="485" 
d="M444 194l-67 -4v-190h-42v189h-248q-28 0 -42.5 27.5t-1.5 58.5l170 415h42l-169 -419q-7 -19 0 -33t22 -14h227v219l9 116h33v-335h67v-30z" />
    <glyph glyph-name="five" unicode="5" horiz-adv-x="425" 
d="M357 654h-241l-9 -245l50 -1q62 -2 99.5 -10.5t66.5 -30.5t40.5 -61t11.5 -102q0 -47 -6 -81t-23 -67t-53 -50.5t-91 -17.5q-70 0 -154 27l6 32q81 -23 140 -23q82 0 110.5 44.5t29.5 135.5q0 48 -8.5 78.5t-22.5 48.5t-45 27t-61.5 11.5t-87.5 3.5l-23 1q-18 2 -18 21
l13 295h278z" />
    <glyph glyph-name="six" unicode="6" horiz-adv-x="455" 
d="M255 443q86 0 118.5 -51t32.5 -182q0 -56 -6 -93t-23.5 -68.5t-52 -46t-87.5 -14.5q-109 0 -143 67.5t-34 253.5q0 102 8 172t22.5 114t41.5 67.5t58 31.5t78 8q61 0 102 -13l-6 -30q-33 7 -96 7q-64 0 -96 -22t-50 -88.5t-20 -198.5q33 48 67.5 67t85.5 19zM238 24
q78 0 102 44.5t24 144.5q0 109 -24.5 152.5t-93.5 43.5q-42 0 -74 -18.5t-70 -67.5v-17q0 -68 2.5 -108.5t10 -78t22.5 -56t39.5 -29t61.5 -10.5z" />
    <glyph glyph-name="seven" unicode="7" horiz-adv-x="391" 
d="M17 690h307q43 0 30 -46l-177 -644h-43l167 613q3 16 13 41h-294z" />
    <glyph glyph-name="eight" unicode="8" horiz-adv-x="488" 
d="M244 699q99 0 135 -41.5t36 -139.5q0 -147 -80 -158v-4q50 -7 70.5 -51t20.5 -133q0 -100 -37.5 -140t-144.5 -41q-105 -1 -143.5 40t-38.5 141q0 89 20.5 133t70.5 51v4q-79 11 -79 158q0 98 36 139.5t134 41.5zM244 663q-78 0 -104 -31.5t-26 -115.5q0 -89 25 -115
t106 -26q82 0 105.5 26t23.5 115q0 85 -25.5 116t-104.5 31zM245 341q-88 -1 -115 -31t-27 -133q0 -83 29 -115.5t112 -32.5q84 0 112 32t28 116q0 105 -26.5 134.5t-112.5 29.5z" />
    <glyph glyph-name="nine" unicode="9" horiz-adv-x="455" 
d="M218 702q40 0 68 -7t48 -25.5t31.5 -42t17.5 -66.5t8 -88.5t2 -118.5q0 -95 -8 -159.5t-22.5 -105.5t-41 -63t-57.5 -30t-79 -8q-64 0 -108 13l6 30q42 -6 102 -6q64 0 97 21.5t50.5 88.5t18.5 200q-33 -49 -67.5 -68.5t-85.5 -19.5q-81 0 -115 56.5t-34 168.5
q0 116 37.5 173t131.5 57zM207 281q42 0 73.5 18t70.5 68q0 77 -2 119t-9 82.5t-21.5 58.5t-38.5 28.5t-62 10.5q-74 0 -101 -48t-27 -148q0 -96 26 -142.5t91 -46.5z" />
    <glyph glyph-name="colon" unicode=":" horiz-adv-x="176" 
d="M80 433h14q17 0 17 -17v-61q0 -17 -17 -17h-14q-17 0 -17 17v61q0 17 17 17zM80 94h14q17 0 17 -17v-60q0 -17 -17 -17h-14q-17 0 -17 17v60q0 17 17 17z" />
    <glyph glyph-name="semicolon" unicode=";" horiz-adv-x="178" 
d="M82 433h14q17 0 17 -17v-61q0 -17 -17 -17h-14q-17 0 -17 17v61q0 17 17 17zM84 94h13q16 0 16 -17v-64q-2 -73 -21 -134l-20 7q6 60 6 114q-12 0 -12 15v62q1 17 18 17z" />
    <glyph glyph-name="less" unicode="&#x3c;" horiz-adv-x="430" 
d="M368 459l-283 -163l283 -159v-34l-320 176v34l320 180v-34z" />
    <glyph glyph-name="equal" unicode="=" horiz-adv-x="470" 
d="M406 380h-342v33h342v-33zM406 168h-342v33h342v-33z" />
    <glyph glyph-name="greater" unicode="&#x3e;" horiz-adv-x="430" 
d="M382 313v-34l-320 -176v34l283 159l-283 163v34z" />
    <glyph glyph-name="question" unicode="?" horiz-adv-x="406" 
d="M205 712q160 0 160 -155q0 -42 -15 -77.5t-37 -62.5t-44 -55t-37.5 -68t-15.5 -89h-37q0 53 14.5 96t35.5 71.5t42 54.5t36 57.5t15 68.5q1 64 -29 94t-94 30q-70 0 -158 -13l-4 29q6 1 20.5 4.5t20.5 4.5t18.5 3t21.5 3t23 2t29.5 1.5t34.5 0.5zM190 94h13q16 0 16 -17
v-60q0 -17 -16 -17h-13q-17 0 -17 17v60q0 17 17 17z" />
    <glyph glyph-name="at" unicode="@" horiz-adv-x="564" 
d="M275 572h113q113 0 113 -124v-318h-30l-6 79q-27 -32 -76 -58.5t-97 -26.5t-75 28.5t-27 80.5v53q0 47 23.5 73t67.5 26h181v62q0 44 -17.5 67.5t-61.5 22.5h-107q-42 0 -64.5 -2t-44.5 -12t-31 -25.5t-17 -48.5t-9.5 -74.5t-1.5 -109.5q0 -71 1.5 -113t10.5 -76.5
t19 -50t35 -26t50.5 -12.5t73.5 -2h200v-31q-132 -4 -199 -4q-56 -1 -89.5 2t-62 16t-42 31.5t-23 58t-12 85.5t-2.5 122q0 73 2 117t10.5 82t21 56t37.5 31t55.5 16.5t80.5 4.5zM462 359l-170 -4q-63 -3 -63 -72v-46q0 -77 68 -79q40 -1 87 22.5t78 57.5v121z" />
    <glyph glyph-name="A" unicode="A" horiz-adv-x="490" 
d="M367 243h-244l-66 -243h-45l190 677q2 13 17 13h52q14 0 17 -13l190 -677h-45zM357 279l-87 321l-15 56h-20l-15 -56l-87 -321h224z" />
    <glyph glyph-name="B" unicode="B" horiz-adv-x="494" 
d="M330 360v-4q60 -7 85.5 -52.5t25.5 -131.5q0 -104 -38 -142t-135 -38q-122 0 -191 8v690q59 8 166 8q102 0 141.5 -37.5t39.5 -142.5q0 -75 -22 -113.5t-72 -44.5zM383 515q0 88 -30.5 117.5t-110.5 29.5q-94 0 -123 -1v-287h137q72 1 99.5 29.5t27.5 111.5zM263 28
q77 0 105.5 30t28.5 118q0 95 -30.5 129t-109.5 36h-138v-311q66 -2 144 -2z" />
    <glyph glyph-name="C" unicode="C" horiz-adv-x="459" 
d="M266 702q84 0 144 -18l-6 -30q-63 11 -138 11q-93 0 -129.5 -70.5t-36.5 -249.5t36.5 -249.5t129.5 -70.5q87 0 149 13l7 -31q-66 -19 -156 -19q-117 0 -163.5 79.5t-46.5 277.5t46.5 277.5t163.5 79.5z" />
    <glyph glyph-name="D" unicode="D" horiz-adv-x="531" 
d="M267 699q115 0 161.5 -79t46.5 -275t-46.5 -275t-161.5 -79q-89 0 -190 9v690q99 9 190 9zM267 28q91 0 127 70t36 247t-36 247t-127 70q-59 0 -147 -2v-630q86 -2 147 -2z" />
    <glyph glyph-name="E" unicode="E" horiz-adv-x="446" 
d="M400 35l1 -31q-76 -4 -236 -4q-42 0 -67.5 29.5t-25.5 76.5v478q0 47 26 76.5t67 29.5q160 0 236 -4l-1 -31h-227q-27 0 -42.5 -21t-15.5 -57v-191l252 -1v-33l-252 -1v-238q0 -36 15.5 -57t42.5 -21h227z" />
    <glyph glyph-name="F" unicode="F" horiz-adv-x="428" 
d="M395 655h-218q-28 0 -44 -21.5t-16 -56.5v-197h246v-34h-246v-346h-43v583q0 48 26 77.5t67 29.5q155 0 231 -5z" />
    <glyph glyph-name="G" unicode="G" horiz-adv-x="501" 
d="M441 400v-400h-31l-7 81q-69 -93 -168 -93q-95 0 -137 84.5t-42 273.5q0 199 48 277.5t170 78.5q90 0 155 -18l-6 -30q-69 11 -148 11q-98 0 -136.5 -69t-38.5 -252q0 -171 33 -245t111 -74q32 0 62.5 15t47.5 30.5t45 45.5v284h42z" />
    <glyph glyph-name="H" unicode="H" horiz-adv-x="532" 
d="M455 690v-690h-43v352h-292v-352h-43v690h43v-302h292v302h43z" />
    <glyph glyph-name="I" unicode="I" horiz-adv-x="197" 
d="M120 0h-43v690h43v-690z" />
    <glyph glyph-name="J" unicode="J" horiz-adv-x="266" 
d="M191 690v-567q0 -130 -102 -130q-29 0 -61 8l5 28h44q72 0 72 94v567h42z" />
    <glyph glyph-name="K" unicode="K" horiz-adv-x="461" 
d="M195 343h-79q3 -43 3 -83v-260h-42v690h42v-231q0 -45 -4 -82h80l185 313h47l-176 -298q-11 -21 -23 -31v-2q17 -17 25 -32l187 -327h-48z" />
    <glyph glyph-name="L" unicode="L" horiz-adv-x="409" 
d="M117 690v-577q0 -36 16 -57t44 -21h210l1 -30q-72 -5 -218 -5q-46 0 -71 30t-25 79v581h43z" />
    <glyph glyph-name="M" unicode="M" horiz-adv-x="693" 
d="M529 690h55q20 0 20 -21l24 -669h-42l-22 655h-19l-155 -576q-5 -14 -19 -14h-49q-15 0 -20 14l-154 576h-19l-22 -655h-42l24 669q0 21 19 21h56q14 0 19 -14l130 -484l24 -93h18q20 72 26 95l129 482q3 14 19 14z" />
    <glyph glyph-name="N" unicode="N" horiz-adv-x="558" 
d="M481 690v-670q0 -20 -18 -20h-54q-17 0 -22 15l-223 564q-5 12 -30 74h-15q1 -25 1 -75v-578h-43v670q0 20 19 20h51q18 0 23 -15l217 -551q20 -49 34 -86h19q-1 32 -1 94v558h42z" />
    <glyph glyph-name="O" unicode="O" 
d="M267 702q116 0 163 -79.5t47 -277.5t-47 -277.5t-163 -79.5q-118 0 -164.5 79t-46.5 278t46.5 278t164.5 79zM267 665q-93 0 -130 -71t-37 -249t37 -249t130 -71q92 0 129 71t37 249t-37 249t-129 71z" />
    <glyph glyph-name="P" unicode="P" horiz-adv-x="469" 
d="M261 698q94 0 130.5 -43.5t36.5 -162.5q0 -120 -35.5 -163t-128.5 -43q-87 0 -144 5v-291h-43v690q67 8 184 8zM120 322h139q71 0 98.5 35.5t27.5 134.5t-27.5 134.5t-98.5 35.5q-107 0 -139 -2v-338z" />
    <glyph glyph-name="Q" unicode="Q" 
d="M267 702q116 0 163 -79.5t47 -277.5t-47 -277.5t-163 -79.5q-118 0 -164.5 79t-46.5 278t46.5 278t164.5 79zM267 665q-93 0 -130 -71t-37 -249t37 -249t130 -71q92 0 129 71t37 249t-37 249t-129 71zM223 -73l14 24q80 -59 194 -81l-13 -41q-109 20 -195 98z" />
    <glyph glyph-name="R" unicode="R" horiz-adv-x="491" 
d="M448 0h-45l-55 217q-12 47 -32 67t-51 20q-97 0 -145 3v-307h-43v690q67 8 184 8q93 0 130 -41t37 -154q0 -91 -23 -132t-78 -50v-5q44 -16 64 -96zM120 341h140q71 2 98.5 35.5t27.5 125.5q0 93 -27.5 126.5t-98.5 33.5q-76 0 -140 -2v-319z" />
    <glyph glyph-name="S" unicode="S" horiz-adv-x="447" 
d="M222 701q86 -2 156 -14l-3 -30q-112 7 -151 7q-28 0 -42.5 -1t-33 -5t-26.5 -13t-16 -24.5t-11 -39.5t-3 -59q0 -70 18.5 -101.5t61.5 -40.5l118 -25q61 -11 86 -53t25 -131q0 -60 -10 -97t-34.5 -55.5t-53 -24t-77.5 -5.5q-91 0 -168 13l4 31q102 -8 165 -7q40 1 62 6
t39 20t23.5 43.5t6.5 75.5q0 75 -18 106t-63 40l-120 25q-58 11 -83 54t-25 127q0 61 9.5 97.5t33.5 54t52 22.5t78 4z" />
    <glyph glyph-name="T" unicode="T" horiz-adv-x="457" 
d="M437 654h-187v-654h-43v654h-187v36h417v-36z" />
    <glyph glyph-name="U" unicode="U" horiz-adv-x="535" 
d="M462 690v-433q0 -146 -44 -207.5t-149 -61.5q-107 0 -151.5 61.5t-44.5 207.5v433h43v-433q0 -128 34 -180t118 -52q83 0 117 52t34 180v433h43z" />
    <glyph glyph-name="V" unicode="V" horiz-adv-x="481" 
d="M464 690l-180 -677q-6 -13 -18 -13h-50q-14 0 -18 13l-180 677h45l149 -582q9 -31 19 -74h20q5 25 19 75l149 581h45z" />
    <glyph glyph-name="W" unicode="W" horiz-adv-x="752" 
d="M727 690l-132 -676q-5 -14 -19 -14h-55q-16 0 -19 15l-102 564l-15 78h-18q-10 -52 -14 -78l-103 -564q-3 -15 -19 -15h-56q-15 0 -18 14l-131 676h44l110 -583q6 -27 13 -73h21q2 13 6.5 37t6.5 35l104 568q3 16 18 16h53q16 0 19 -16l104 -567q2 -13 6.5 -37.5
t6.5 -35.5h21q8 48 13 72l110 584h45z" />
    <glyph glyph-name="X" unicode="X" horiz-adv-x="482" 
d="M253 343h-24l-157 -343h-46l166 359l-156 331h46l146 -313h26l145 313h47l-157 -331l167 -359h-47z" />
    <glyph glyph-name="Y" unicode="Y" horiz-adv-x="443" 
d="M243 253v-253h-43v253l-187 437h47l131 -317l28 -71h5l28 70l132 318h45z" />
    <glyph glyph-name="Z" unicode="Z" horiz-adv-x="450" 
d="M411 36v-36h-371v36l322 618h-318v36h362v-36l-321 -618h326z" />
    <glyph glyph-name="bracketleft" unicode="[" horiz-adv-x="256" 
d="M219 737h-90q-10 0 -10 -13v-845q0 -13 10 -13h90v-31h-107q-14 0 -23 10t-9 27v859q0 16 9 26.5t23 10.5h107v-31z" />
    <glyph glyph-name="backslash" unicode="\" horiz-adv-x="404" 
d="M378 -61h-37l-315 751h37z" />
    <glyph glyph-name="bracketright" unicode="]" horiz-adv-x="256" 
d="M37 768h106q15 0 24 -10t9 -27v-859q0 -17 -9 -27t-24 -10h-106v31h89q11 0 11 13v845q0 13 -11 13h-89v31z" />
    <glyph glyph-name="asciicircum" unicode="^" horiz-adv-x="326" 
d="M302 381l-17 -14l-118 179h-6l-119 -179l-18 14l124 201h30z" />
    <glyph glyph-name="underscore" unicode="_" horiz-adv-x="348" 
d="M348 -33h-348v33h348v-33z" />
    <glyph glyph-name="grave" unicode="`" horiz-adv-x="236" 
d="M186 567l-16 -20l-137 136l25 29z" />
    <glyph glyph-name="a" unicode="a" horiz-adv-x="435" 
d="M249 494q59 0 89 -33t30 -107v-354h-31l-7 87q-28 -36 -76.5 -65t-98.5 -29t-78.5 33t-28.5 92v60q0 55 26 85t73 30h180v61q-1 50 -19.5 77t-64.5 27q-65 0 -176 -15l-4 30q124 21 186 21zM161 30q37 -1 83.5 24t82.5 65v142l-175 -3q-62 -1 -62 -83v-54q0 -90 71 -91z
" />
    <glyph glyph-name="b" unicode="b" horiz-adv-x="452" 
d="M261 494q75 0 108 -58.5t33 -194.5t-37 -194.5t-127 -58.5q-82 0 -170 32v680h41v-208q0 -64 -4 -95q83 97 156 97zM238 24q66 0 93.5 49t27.5 168q0 120 -24 168.5t-84 48.5q-33 0 -65 -22t-77 -71v-320q63 -23 129 -21z" />
    <glyph glyph-name="c" unicode="c" horiz-adv-x="387" 
d="M231 494q70 0 116 -19l-7 -27q-44 10 -103 10q-81 0 -112.5 -46.5t-31.5 -170.5t31.5 -170.5t112.5 -46.5q67 0 113 11l5 -28q-59 -19 -124 -19q-99 0 -140 57t-41 196t41 196t140 57z" />
    <glyph glyph-name="d" unicode="d" horiz-adv-x="454" 
d="M384 700v-700h-32l-5 79q-80 -91 -157 -91q-75 0 -107 59t-32 194q0 137 33.5 195t109.5 58q70 0 151 -47q-2 21 -2 92v161h41zM200 24q34 0 65.5 19.5t77.5 67.5v304q-86 43 -141 43q-59 0 -83.5 -48t-24.5 -168t24 -169t82 -49z" />
    <glyph glyph-name="e" unicode="e" horiz-adv-x="427" 
d="M233 24q66 0 134 12l4 -28q-50 -20 -143 -20q-96 0 -137 58.5t-41 196.5t39.5 194.5t132.5 56.5q157 0 159 -142q0 -66 -20.5 -98.5t-67.5 -32.5h-200q3 -110 35.5 -153.5t104.5 -43.5zM224 458q-72 0 -101 -45t-30 -159h193q55 0 53 96q-1 57 -28.5 82.5t-86.5 25.5z
" />
    <glyph glyph-name="f" unicode="f" horiz-adv-x="293" 
d="M301 680h-85q-44 0 -61.5 -23t-17.5 -80v-95h135v-34h-135v-448h-41v448h-71v29l71 5v97q0 69 24.5 102.5t81.5 33.5q65 0 101 -5z" />
    <glyph glyph-name="g" unicode="g" horiz-adv-x="441" 
d="M418 456l-74 -4q32 -36 32 -109q0 -77 -37 -113t-122 -36q-58 0 -93 16q-22 -32 -15.5 -69.5t47.5 -46.5l151 -33q50 -10 70.5 -39t20.5 -88q0 -80 -39 -111.5t-139 -31.5q-101 0 -140.5 32t-39.5 114q0 45 13.5 75t48.5 52l11 7q-40 21 -41 71t30 80q-46 36 -46 121
q0 78 37 114.5t124 36.5q49 0 82 -12h122zM217 227q65 0 92 27.5t27 88.5t-27 89.5t-92 28.5q-66 0 -94 -28.5t-28 -89.5q0 -60 28 -88t94 -28zM357 -63q0 44 -14.5 64t-54.5 29l-146 31l-15 -12q-27 -21 -36.5 -46t-9.5 -63q0 -65 28.5 -89.5t108.5 -24.5t109.5 24t29.5 87
z" />
    <glyph glyph-name="h" unicode="h" horiz-adv-x="460" 
d="M288 494q105 0 105 -132v-362h-41v354q0 55 -18 79.5t-57 24.5q-37 0 -74 -21.5t-93 -70.5v-366h-41v700h41l1 -209q0 -57 -4 -92q103 95 181 95z" />
    <glyph glyph-name="i" unicode="i" horiz-adv-x="188" 
d="M84 683h19q15 0 15 -16v-60q0 -16 -15 -16h-19q-14 0 -14 16v60q0 16 14 16zM114 0h-41v482h41v-482z" />
    <glyph glyph-name="j" unicode="j" horiz-adv-x="188" 
d="M84 683h20q14 0 14 -16v-60q0 -16 -14 -16h-20q-14 0 -14 16v60q0 16 14 16zM114 482v-519q0 -99 -62 -171l-23 17q44 68 44 154v519h41z" />
    <glyph glyph-name="k" unicode="k" horiz-adv-x="392" 
d="M168 259h-60q2 -29 2 -85v-174h-41v700h41l1 -327q0 -40 -3 -82h59l143 191h48l-135 -184q-2 -4 -22 -23v-2q19 -23 22 -29l148 -244h-47z" />
    <glyph glyph-name="l" unicode="l" horiz-adv-x="226" 
d="M111 700v-594q0 -76 59 -76h43l5 -29q-19 -8 -60 -8q-40 0 -64 28t-24 79v600h41z" />
    <glyph glyph-name="m" unicode="m" horiz-adv-x="704" 
d="M535 494q102 0 102 -132v-362h-41v354q-1 104 -73 104q-34 0 -65.5 -20t-83.5 -70v-6v-362h-41v354q0 104 -73 104q-33 0 -65 -20.5t-84 -69.5v-368h-41v482h33l4 -84q87 96 165 96q84 0 99 -94q85 94 164 94z" />
    <glyph glyph-name="n" unicode="n" horiz-adv-x="461" 
d="M289 494q105 0 105 -132v-362h-42v354q0 54 -18 79t-56 25q-37 0 -74 -21.5t-93 -70.5v-366h-41v482h34l3 -84q96 96 182 96z" />
    <glyph glyph-name="o" unicode="o" horiz-adv-x="451" 
d="M226 494q97 0 136 -57t39 -196q0 -140 -39 -196.5t-136 -56.5t-136.5 57t-39.5 196t39.5 196t136.5 57zM226 458q-74 0 -103.5 -47t-29.5 -170t29.5 -170.5t103.5 -47.5t103 47.5t29 170.5t-28.5 170t-103.5 47z" />
    <glyph glyph-name="p" unicode="p" horiz-adv-x="457" 
d="M268 494q73 0 105 -59.5t32 -194.5q0 -136 -33.5 -194t-109.5 -58q-75 0 -154 52q3 -26 3 -93v-155h-41v690h33l5 -84q75 96 160 96zM254 24q59 0 84 48.5t25 167.5t-24 168.5t-81 49.5q-34 0 -68 -21t-79 -70v-299q86 -44 143 -44z" />
    <glyph glyph-name="q" unicode="q" horiz-adv-x="453" 
d="M217 494q77 0 167 -32v-670h-41l-1 192q0 63 5 94q-85 -90 -163 -90q-70 0 -102 61t-32 192q0 137 37 195t130 58zM195 24q36 0 68 19.5t80 65.5v327q-61 22 -125 22q-69 0 -97 -48t-28 -172q0 -115 23 -164.5t79 -49.5z" />
    <glyph glyph-name="r" unicode="r" horiz-adv-x="313" 
d="M297 494l-6 -38h-18q-35 0 -69.5 -20.5t-92.5 -67.5v-368h-41v482h32l5 -84q96 96 174 96h16z" />
    <glyph glyph-name="s" unicode="s" horiz-adv-x="403" 
d="M192 494q89 -2 156 -13l-4 -29q-94 6 -148 7q-66 2 -88 -13.5t-22 -80.5q0 -47 14.5 -67t46.5 -26l122 -23q45 -9 67 -38.5t22 -86.5q0 -85 -35.5 -110t-123.5 -25q-77 0 -145 12l4 29q66 -7 136 -6q73 1 98.5 19.5t25.5 80.5q0 45 -16.5 64.5t-48.5 26.5l-122 23
q-45 8 -65.5 37.5t-20.5 89.5q0 84 32.5 107.5t114.5 21.5z" />
    <glyph glyph-name="t" unicode="t" horiz-adv-x="290" 
d="M136 448v-342q0 -76 59 -76h65l5 -29q-37 -8 -77 -8q-93 0 -93 109v346h-71v29l71 5v149h41v-149h134v-34h-134z" />
    <glyph glyph-name="u" unicode="u" horiz-adv-x="453" 
d="M383 482v-482h-33l-4 81q-93 -93 -174 -93q-105 0 -105 132v362h41v-354q0 -104 76 -104q35 0 70 21t88 69v368h41z" />
    <glyph glyph-name="v" unicode="v" horiz-adv-x="416" 
d="M395 482l-151 -471q-6 -11 -17 -11h-39q-13 0 -16 11l-152 471h44l111 -361q6 -17 15.5 -49t11.5 -40h10q20 60 29 90l110 360h44z" />
    <glyph glyph-name="w" unicode="w" horiz-adv-x="655" 
d="M632 482l-126 -469q-3 -13 -17 -13h-40q-15 0 -18 14l-83 365q-10 48 -17 73h-8q-3 -14 -8.5 -38.5t-7.5 -34.5l-84 -365q-2 -14 -17 -14h-39q-15 0 -18 13l-125 469h43l97 -385q5 -17 16 -67h11l15 68l84 370q4 14 18 14h39q15 0 17 -14l84 -370q7 -28 16 -68h12
q14 65 15 68l97 384h44z" />
    <glyph glyph-name="x" unicode="x" horiz-adv-x="413" 
d="M215 235h-17l-128 -235h-46l139 250l-129 232h45l117 -214h21l116 214h46l-130 -232l140 -250h-46z" />
    <glyph glyph-name="y" unicode="y" horiz-adv-x="414" 
d="M394 482l-167 -524q-23 -69 -56 -111t-89 -56l-6 25q45 20 70 57t43 93l12 34h-13q-12 0 -18 12l-150 470h44l122 -395q2 -9 7.5 -27t8.5 -27h10q16 47 18 55l120 394h44z" />
    <glyph glyph-name="z" unicode="z" horiz-adv-x="405" 
d="M364 34v-34h-323v34l277 413h-275v35h318v-35l-276 -413h279z" />
    <glyph glyph-name="braceleft" unicode="{" horiz-adv-x="247" 
d="M209 768v-27q-43 0 -60.5 -24.5t-17.5 -77.5v-199q1 -59 -12 -80t-53 -32q42 -17 55 -37t13 -71v-256q0 -53 17.5 -77.5t60.5 -24.5v-27q-62 -1 -90 29.5t-28 98.5v268q0 27 -6.5 41.5t-14.5 20t-31 16.5v38q20 8 25.5 10.5t13.5 11.5t9 22t1 38v211q0 68 27.5 98.5
t90.5 29.5z" />
    <glyph glyph-name="bar" unicode="|" horiz-adv-x="192" 
d="M112 -169h-32v950h32v-950z" />
    <glyph glyph-name="braceright" unicode="}" horiz-adv-x="247" 
d="M38 741v27q62 1 90 -29.5t28 -98.5v-211q0 -46 8 -57.5t41 -24.5v-38q-24 -11 -32 -16.5t-14.5 -20t-6.5 -41.5v-268q0 -68 -27.5 -98.5t-89.5 -29.5v27q43 0 60.5 24.5t17.5 77.5v256q0 51 13 71t55 37q-40 11 -53 32t-12 80v199q0 53 -17 77.5t-61 24.5z" />
    <glyph glyph-name="asciitilde" unicode="~" horiz-adv-x="424" 
d="M127 335q32 -3 84.5 -33.5t82.5 -32.5q23 -2 32.5 12t9.5 49h23q3 -47 -14 -71.5t-47 -22.5q-40 3 -91 33t-76 33q-23 2 -32.5 -13t-9.5 -51h-23q-3 48 14 73.5t47 23.5z" />
    <glyph glyph-name="uni00A0" unicode="&#xa0;" horiz-adv-x="182" 
 />
    <glyph glyph-name="exclamdown" unicode="&#xa1;" horiz-adv-x="195" 
d="M92 483h12q16 0 16 -17v-60q0 -17 -16 -17h-12q-17 0 -17 17v60q0 17 17 17zM118 120v-323h-41v323l3 158h34z" />
    <glyph glyph-name="cent" unicode="&#xa2;" horiz-adv-x="407" 
d="M350 144l5 -28q-59 -19 -125 -19h-5l-7 -97h-25l7 98q-82 8 -116 66t-34 186q0 139 41 196t139 57l7 87h25l-5 -88q56 -4 89 -18l-6 -28q-32 9 -87 11l-25 -435h9q62 0 113 12zM92 350q0 -111 25 -159.5t86 -56.5l24 433q-75 -2 -105 -49t-30 -168z" />
    <glyph glyph-name="sterling" unicode="&#xa3;" horiz-adv-x="452" 
d="M408 36v-36h-354v36q71 53 64 212l-4 101h-65v28h64l-6 148q-2 58 7 94t31 53.5t46.5 23t63.5 5.5q57 0 133 -10l-3 -31q-57 5 -141 5q-56 0 -77 -31.5t-19 -106.5l6 -150h188l-2 -28h-184l4 -101q2 -78 -10 -129.5t-48 -83.5q16 1 50 1h256z" />
    <glyph glyph-name="currency" unicode="&#xa4;" horiz-adv-x="480" 
d="M398 132l-59 73q-43 -45 -100 -45t-99 45l-58 -73l-21 21l61 74q-37 55 -37 125q0 72 37 125l-60 74l20 21l58 -73q42 45 99 45q58 0 101 -45l58 73l20 -21l-60 -74q36 -56 36 -125q0 -70 -37 -125l62 -75zM239 189q52 0 89 47.5t37 115.5t-37 116t-89 48t-89.5 -48
t-37.5 -116q0 -67 37 -115t90 -48z" />
    <glyph glyph-name="yen" unicode="&#xa5;" horiz-adv-x="488" 
d="M278 310h139v-28h-151l-1 -1v-81h152v-28h-152v-172h-42v172h-148v28h148v81l-1 1h-147v28h135l-174 380h45l130 -296q1 -2 31 -71h5q11 27 29 70l130 297h45z" />
    <glyph glyph-name="brokenbar" unicode="&#xa6;" horiz-adv-x="194" 
d="M113 381h-32v400h32v-400zM113 -169h-32v400h32v-400z" />
    <glyph glyph-name="section" unicode="&#xa7;" horiz-adv-x="437" 
d="M205 702q98 -2 173 -12l-3 -30q-75 6 -163 7q-30 0 -46.5 -1.5t-34 -8.5t-25 -24t-7.5 -45q-1 -70 59 -114l143 -104q51 -36 65 -88t4 -137h-32q6 71 -6 116.5t-48 70.5l-146 107q-45 33 -64 66.5t-19 82.5q0 69 36 92t114 22zM66 409h32q-6 -72 5.5 -115t47.5 -69
l149 -106q43 -32 62 -66.5t19 -84.5q0 -41 -10 -65.5t-33.5 -35t-45 -13.5t-60.5 -3q-83 2 -174 12l4 31q102 -7 163 -8q31 0 46.5 1.5t33.5 8.5t25.5 25t7.5 48q1 71 -58 114l-144 104q-52 35 -66 86t-4 136z" />
    <glyph glyph-name="dieresis" unicode="&#xa8;" horiz-adv-x="325" 
d="M84 678h15q13 0 13 -14v-56q0 -14 -13 -14h-15q-13 0 -13 14v56q0 14 13 14zM226 678h15q13 0 13 -14v-56q0 -14 -13 -14h-15q-13 0 -13 14v56q0 14 13 14z" />
    <glyph glyph-name="copyright" unicode="&#xa9;" horiz-adv-x="680" 
d="M340 702q121 0 204 -101.5t83 -255.5t-83 -255.5t-204 -101.5t-204 101.5t-83 255.5t83 255.5t204 101.5zM340 675q-109 0 -185 -94.5t-76 -235.5t76 -235.5t185 -94.5t185 94.5t76 235.5t-76 235.5t-185 94.5zM344 577q67 0 107 -13l-5 -23q-42 5 -102 5
q-69 0 -96 -43.5t-27 -154.5t27 -155t96 -44q75 0 112 7l4 -24q-48 -13 -116 -13q-86 0 -121 51.5t-35 177.5t35 177.5t121 51.5z" />
    <glyph glyph-name="ordfeminine" unicode="&#xaa;" horiz-adv-x="355" 
d="M205 602q85 0 85 -96v-235h-26l-5 60q-21 -25 -55.5 -45t-70.5 -20q-35 0 -55 21.5t-20 61.5v41q0 36 18.5 56.5t52.5 20.5h128v39q0 67 -57 67q-54 0 -126 -9l-4 24q86 14 135 14zM142 295q27 -1 59.5 16t55.5 42v92l-120 -4q-46 -1 -46 -53v-34q0 -58 51 -59z" />
    <glyph glyph-name="guillemotleft" unicode="&#xab;" horiz-adv-x="375" 
d="M189 440l-111 -189l112 -192l-21 -15l-131 201v12l130 198zM324 440l-110 -189l111 -192l-21 -15l-130 201v12l129 198z" />
    <glyph glyph-name="logicalnot" unicode="&#xac;" horiz-adv-x="474" 
d="M406 313v-183h-33v150h-309v33h342z" />
    <glyph glyph-name="softhyphen" unicode="&#xad;" horiz-adv-x="375" 
d="M311 235h-247v33h247v-33z" />
    <glyph glyph-name="registered" unicode="&#xae;" horiz-adv-x="456" 
d="M228 701q74 0 126 -65t52 -157q0 -93 -52 -158t-126 -65t-126 65t-52 158q0 92 52 157t126 65zM228 276q66 0 112.5 59.5t46.5 143.5t-47 143.5t-112 59.5q-66 0 -112.5 -59.5t-46.5 -143.5q0 -85 46.5 -144t112.5 -59zM328 340h-24l-26 86q-11 34 -39 34q-54 0 -69 1
v-121h-22v277q28 3 88 3q45 0 64 -17t19 -62q0 -35 -11.5 -51.5t-38.5 -20.5v-2q22 -5 31 -39zM170 478h66q34 1 47 13.5t13 47.5q0 36 -13 48.5t-47 12.5h-66v-122z" />
    <glyph glyph-name="macron" unicode="&#xaf;" horiz-adv-x="321" 
d="M268 621h-215v33h215v-33z" />
    <glyph glyph-name="degree" unicode="&#xb0;" horiz-adv-x="301" 
d="M151 702q41 0 71 -36.5t30 -87.5t-30 -88t-71 -37q-42 0 -72 37t-30 88t30 87.5t72 36.5zM151 674q-31 0 -52 -28t-21 -68q0 -39 21.5 -68t51.5 -29t51 29t21 68q0 40 -21 68t-51 28z" />
    <glyph glyph-name="plusminus" unicode="&#xb1;" horiz-adv-x="476" 
d="M409 366v-32h-154v-144h-33v144h-155v32h154v144h35v-144h153zM67 121h342v-33h-342v33z" />
    <glyph glyph-name="twosuperior" unicode="&#xb2;" horiz-adv-x="351" 
d="M166 781q60 0 87 -17.5t27 -69.5q0 -38 -16.5 -73t-54.5 -84l-115 -148q21 1 63 1l138 -1v-29h-241v19q0 5 6 15l116 152q68 90 68 149q0 36 -18.5 46.5t-59.5 10.5q-49 0 -106 -11l-3 24q58 16 109 16z" />
    <glyph glyph-name="threesuperior" unicode="&#xb3;" horiz-adv-x="337" 
d="M160 781q65 0 90 -20.5t25 -74.5q0 -92 -60 -105v-2q67 -12 69 -104q1 -64 -25.5 -93t-90.5 -29q-40 0 -114 10l3 25q59 -7 104 -7q48 0 68.5 22t20.5 75q0 87 -81 87l-69 1v24l69 1q74 2 74 89q0 42 -19 57.5t-68 15.5q-43 0 -93 -6l-3 24q50 10 100 10z" />
    <glyph glyph-name="acute" unicode="&#xb4;" horiz-adv-x="236" 
d="M199 683l-136 -136l-17 20l128 145z" />
    <glyph glyph-name="paragraph" unicode="&#xb6;" horiz-adv-x="478" 
d="M281 702q68 0 114 -17v-685h-35v664q-48 7 -102 7v-881h-35v411q-98 11 -141 69t-43 180q0 138 55 195t187 57z" />
    <glyph glyph-name="periodcentered" unicode="&#xb7;" horiz-adv-x="176" 
d="M81 304h14q17 0 17 -17v-60q0 -17 -17 -17h-14q-17 0 -17 17v60q0 17 17 17z" />
    <glyph glyph-name="cedilla" unicode="&#xb8;" horiz-adv-x="181" 
d="M73 -68l5 21q77 6 74 -65q-1 -55 -34.5 -86.5t-86.5 -23.5l7 23q36 -2 59 23t24 62q0 25 -10.5 35t-37.5 11z" />
    <glyph glyph-name="onesuperior" unicode="&#xb9;" horiz-adv-x="232" 
d="M165 360h-33v351q0 21 2 32l-95 -35l-5 22l98 44h33v-414z" />
    <glyph glyph-name="ordmasculine" unicode="&#xba;" horiz-adv-x="358" 
d="M179 602q69 0 97 -38t28 -132q0 -93 -28 -131t-97 -38t-97 38t-28 131q0 94 28 132t97 38zM179 574q-51 0 -71 -31t-20 -111t20 -110.5t71 -30.5t70.5 30.5t19.5 110.5q0 81 -19.5 111.5t-70.5 30.5z" />
    <glyph glyph-name="guillemotright" unicode="&#xbb;" horiz-adv-x="375" 
d="M201 257v-12l-130 -201l-21 15l111 192l-110 189l21 15zM336 257v-12l-130 -201l-21 15l111 192l-110 189l21 15z" />
    <glyph glyph-name="onequarter" unicode="&#xbc;" horiz-adv-x="681" 
d="M135 276v351q0 15 3 32l-96 -35l-5 22l98 44h33v-414h-33zM510 690l-373 -690h-32l373 690h32zM644 114l-38 -3v-111h-32v110h-171q-18 0 -27.5 16t-0.5 37l111 251h34l-111 -249q-4 -11 1 -19.5t15 -8.5h149v129l7 70h25v-199h38v-23z" />
    <glyph glyph-name="onehalf" unicode="&#xbd;" horiz-adv-x="704" 
d="M168 276h-33v351q0 15 3 32l-96 -35l-5 22l98 44h33v-414zM135 0h-33l373 690h33zM531 421q60 0 87 -17.5t27 -69.5q0 -38 -16.5 -73t-54.5 -84l-114 -148q22 1 61 1l139 -1v-29h-242v19q0 8 5 15l117 152q69 90 68 149q0 36 -18.5 46.5t-59.5 10.5q-49 0 -105 -11l-3 24
q58 16 109 16z" />
    <glyph glyph-name="threequarters" unicode="&#xbe;" horiz-adv-x="754" 
d="M281 389q1 -63 -26 -92.5t-90 -29.5q-41 0 -115 10l3 25q60 -7 105 -7q48 0 68 22t20 75q0 40 -17 63.5t-64 23.5l-69 1v23l69 2q74 2 74 88q0 43 -18.5 58.5t-67.5 15.5q-42 0 -94 -6l-3 24q50 10 100 10q65 0 90.5 -20.5t25.5 -74.5q0 -92 -61 -105v-2q68 -12 70 -104z
M593 690l-373 -690h-33l373 690h33zM715 114l-42 -3v-111h-32v110h-165q-19 0 -29 16.5t0 36.5l112 251h32l-109 -249q-4 -10 0.5 -19t14.5 -9h144v129l7 70h25v-199h42v-23z" />
    <glyph glyph-name="questiondown" unicode="&#xbf;" horiz-adv-x="403" 
d="M202 492h12q17 0 17 -17v-60q0 -17 -17 -17h-12q-16 0 -16 17v60q0 17 16 17zM189 287h37q0 -53 -14.5 -96t-35.5 -71.5t-42 -54.5t-36 -57.5t-15 -68.5q-1 -63 29 -93.5t93 -30.5q71 0 159 13l4 -29q-9 -2 -28.5 -6t-29 -5.5t-27 -3.5t-38 -3t-46.5 -1q-160 0 -160 155
q0 42 15 77.5t37 63t44 55.5t37.5 68t16.5 88z" />
    <glyph glyph-name="Agrave" unicode="&#xc0;" horiz-adv-x="490" 
d="M265 734l-137 136l25 29l128 -145zM367 243h-244l-66 -243h-45l190 677q2 13 17 13h52q14 0 17 -13l190 -677h-45zM357 279l-87 321l-15 56h-20l-15 -56l-87 -321h224z" />
    <glyph glyph-name="Aacute" unicode="&#xc1;" horiz-adv-x="490" 
d="M218 734l-17 20l128 145l25 -29zM367 243h-244l-66 -243h-45l190 677q2 13 17 13h52q14 0 17 -13l190 -677h-45zM357 279l-87 321l-15 56h-20l-15 -56l-87 -321h224z" />
    <glyph glyph-name="Acircumflex" unicode="&#xc2;" horiz-adv-x="490" 
d="M137 746l-16 19l108 119h30l108 -119l-16 -19l-104 101h-6zM367 243h-244l-66 -243h-45l190 677q2 13 17 13h52q14 0 17 -13l190 -677h-45zM357 279l-87 321l-15 56h-20l-15 -56l-87 -321h224z" />
    <glyph glyph-name="Atilde" unicode="&#xc3;" horiz-adv-x="490" 
d="M145 774h-22q-2 48 15.5 73t46.5 22q25 -3 59 -32.5t57 -32.5q23 -2 33 12t10 48h21q3 -46 -14 -70.5t-47 -21.5q-29 3 -63.5 33t-52.5 32q-23 4 -33 -12t-10 -51zM367 243h-244l-66 -243h-45l190 677q2 13 17 13h52q14 0 17 -13l190 -677h-45zM357 279l-87 321l-15 56
h-20l-15 -56l-87 -321h224z" />
    <glyph glyph-name="Adieresis" unicode="&#xc4;" horiz-adv-x="490" 
d="M181 775h-15q-13 0 -13 14v56q0 14 13 14h15q13 0 13 -14v-56q0 -14 -13 -14zM323 775h-15q-13 0 -13 14v56q0 14 13 14h15q13 0 13 -14v-56q0 -14 -13 -14zM367 243h-244l-66 -243h-45l190 677q2 13 17 13h52q14 0 17 -13l190 -677h-45zM357 279l-87 321l-15 56h-20
l-15 -56l-87 -321h224z" />
    <glyph glyph-name="Aring" unicode="&#xc5;" horiz-adv-x="490" 
d="M245 718q-33 0 -57 28.5t-24 69.5q0 40 24 68.5t57 28.5q34 0 57.5 -28.5t23.5 -68.5q0 -41 -23.5 -69.5t-57.5 -28.5zM245 888q-23 0 -38.5 -20.5t-15.5 -51.5q0 -32 15.5 -52t38.5 -20q24 0 39.5 20t15.5 52q0 31 -16 51.5t-39 20.5zM367 243h-244l-66 -243h-45
l190 677q2 13 17 13h52q14 0 17 -13l190 -677h-45zM357 279l-87 321l-15 56h-20l-15 -56l-87 -321h224z" />
    <glyph glyph-name="AE" unicode="&#xc6;" horiz-adv-x="729" 
d="M683 35l1 -31q-74 -4 -227 -4q-37 0 -61.5 30t-24.5 76v154h-192l-128 -260h-47l300 599q28 55 62 73t92 18q142 0 226 -4l-1 -32h-211q-27 0 -43.5 -21t-16.5 -57v-190l237 -1v-33l-237 -1v-237q0 -36 16 -57.5t44 -21.5h211zM371 295v284q0 23 8.5 46t20.5 30h-5
q-30 -17 -55 -69l-144 -291h175z" />
    <glyph glyph-name="Ccedilla" unicode="&#xc7;" horiz-adv-x="459" 
d="M266 702q84 0 144 -18l-6 -30q-63 11 -138 11q-93 0 -129.5 -70.5t-36.5 -249.5t36.5 -249.5t129.5 -70.5q87 0 149 13l7 -31q-66 -19 -156 -19q-117 0 -163.5 79.5t-46.5 277.5t46.5 277.5t163.5 79.5zM230 -80l5 21q77 6 74 -65q-1 -55 -34.5 -86.5t-86.5 -23.5l7 23
q36 -2 59 23t24 62q0 25 -10.5 35t-37.5 11z" />
    <glyph glyph-name="Egrave" unicode="&#xc8;" horiz-adv-x="446" 
d="M276 758l-137 136l25 29l128 -145zM400 35l1 -31q-76 -4 -236 -4q-42 0 -67.5 29.5t-25.5 76.5v478q0 47 26 76.5t67 29.5q160 0 236 -4l-1 -31h-227q-27 0 -42.5 -21t-15.5 -57v-191l252 -1v-33l-252 -1v-238q0 -36 15.5 -57t42.5 -21h227z" />
    <glyph glyph-name="Eacute" unicode="&#xc9;" horiz-adv-x="446" 
d="M229 758l-17 20l128 145l25 -29zM400 35l1 -31q-76 -4 -236 -4q-42 0 -67.5 29.5t-25.5 76.5v478q0 47 26 76.5t67 29.5q160 0 236 -4l-1 -31h-227q-27 0 -42.5 -21t-15.5 -57v-191l252 -1v-33l-252 -1v-238q0 -36 15.5 -57t42.5 -21h227z" />
    <glyph glyph-name="Ecircumflex" unicode="&#xca;" horiz-adv-x="446" 
d="M149 770l-16 19l108 119h30l108 -119l-16 -19l-104 101h-6zM400 35l1 -31q-76 -4 -236 -4q-42 0 -67.5 29.5t-25.5 76.5v478q0 47 26 76.5t67 29.5q160 0 236 -4l-1 -31h-227q-27 0 -42.5 -21t-15.5 -57v-191l252 -1v-33l-252 -1v-238q0 -36 15.5 -57t42.5 -21h227z" />
    <glyph glyph-name="Edieresis" unicode="&#xcb;" horiz-adv-x="446" 
d="M193 799h-15q-13 0 -13 14v56q0 14 13 14h15q13 0 13 -14v-56q0 -14 -13 -14zM335 799h-15q-13 0 -13 14v56q0 14 13 14h15q13 0 13 -14v-56q0 -14 -13 -14zM400 35l1 -31q-76 -4 -236 -4q-42 0 -67.5 29.5t-25.5 76.5v478q0 47 26 76.5t67 29.5q160 0 236 -4l-1 -31
h-227q-27 0 -42.5 -21t-15.5 -57v-191l252 -1v-33l-252 -1v-238q0 -36 15.5 -57t42.5 -21h227z" />
    <glyph glyph-name="Igrave" unicode="&#xcc;" horiz-adv-x="197" 
d="M133 754l-16 -20l-137 136l25 29zM120 0h-43v690h43v-690z" />
    <glyph glyph-name="Iacute" unicode="&#xcd;" horiz-adv-x="197" 
d="M207 870l-136 -136l-17 20l128 145zM120 0h-43v690h43v-690z" />
    <glyph glyph-name="Icircumflex" unicode="&#xce;" horiz-adv-x="197" 
d="M220 765l-16 -19l-104 101h-6l-104 -101l-16 19l108 119h30zM120 0h-43v690h43v-690z" />
    <glyph glyph-name="Idieresis" unicode="&#xcf;" horiz-adv-x="197" 
d="M19 859h15q13 0 13 -14v-56q0 -14 -13 -14h-15q-13 0 -13 14v56q0 14 13 14zM161 859h15q13 0 13 -14v-56q0 -14 -13 -14h-15q-13 0 -13 14v56q0 14 13 14zM120 0h-43v690h43v-690z" />
    <glyph glyph-name="Eth" unicode="&#xd0;" 
d="M270 699q115 0 161.5 -79t46.5 -275t-46.5 -275t-161.5 -79q-90 0 -189 9v356h-61v28h61v306q97 9 189 9zM270 28q91 0 127.5 70t36.5 247t-36.5 247t-127.5 70q-59 0 -147 -2v-276h135v-28h-135v-326q84 -2 147 -2z" />
    <glyph glyph-name="Ntilde" unicode="&#xd1;" horiz-adv-x="558" 
d="M225 869q25 -3 59 -32.5t57 -32.5q23 -2 33 12t10 48h21q3 -46 -14 -70.5t-47 -21.5q-29 3 -63.5 33t-52.5 32q-23 4 -33 -12t-10 -51h-22q-2 48 15.5 73t46.5 22zM481 690v-670q0 -20 -18 -20h-54q-17 0 -22 15l-223 564q-5 12 -30 74h-15q1 -25 1 -75v-578h-43v670
q0 20 19 20h51q18 0 23 -15l217 -551q20 -49 34 -86h19q-1 32 -1 94v558h42z" />
    <glyph glyph-name="Ograve" unicode="&#xd2;" 
d="M302 754l-16 -20l-137 136l25 29zM267 702q116 0 163 -79.5t47 -277.5t-47 -277.5t-163 -79.5q-118 0 -164.5 79t-46.5 278t46.5 278t164.5 79zM267 665q-93 0 -130 -71t-37 -249t37 -249t130 -71q92 0 129 71t37 249t-37 249t-129 71z" />
    <glyph glyph-name="Oacute" unicode="&#xd3;" 
d="M376 870l-136 -136l-17 20l128 145zM267 702q116 0 163 -79.5t47 -277.5t-47 -277.5t-163 -79.5q-118 0 -164.5 79t-46.5 278t46.5 278t164.5 79zM267 665q-93 0 -130 -71t-37 -249t37 -249t130 -71q92 0 129 71t37 249t-37 249t-129 71z" />
    <glyph glyph-name="Ocircumflex" unicode="&#xd4;" 
d="M389 765l-16 -19l-104 101h-6l-104 -101l-16 19l108 119h30zM267 702q116 0 163 -79.5t47 -277.5t-47 -277.5t-163 -79.5q-118 0 -164.5 79t-46.5 278t46.5 278t164.5 79zM267 665q-93 0 -130 -71t-37 -249t37 -249t130 -71q92 0 129 71t37 249t-37 249t-129 71z" />
    <glyph glyph-name="Otilde" unicode="&#xd5;" 
d="M207 869q25 -3 59 -32.5t57 -32.5q23 -2 33 12t10 48h21q3 -46 -14 -70.5t-47 -21.5q-29 3 -63.5 33t-52.5 32q-23 4 -33 -12t-10 -51h-22q-2 48 15.5 73t46.5 22zM267 702q116 0 163 -79.5t47 -277.5t-47 -277.5t-163 -79.5q-118 0 -164.5 79t-46.5 278t46.5 278
t164.5 79zM267 665q-93 0 -130 -71t-37 -249t37 -249t130 -71q92 0 129 71t37 249t-37 249t-129 71z" />
    <glyph glyph-name="Odieresis" unicode="&#xd6;" 
d="M188 859h15q13 0 13 -14v-56q0 -14 -13 -14h-15q-13 0 -13 14v56q0 14 13 14zM330 859h15q13 0 13 -14v-56q0 -14 -13 -14h-15q-13 0 -13 14v56q0 14 13 14zM267 702q116 0 163 -79.5t47 -277.5t-47 -277.5t-163 -79.5q-118 0 -164.5 79t-46.5 278t46.5 278t164.5 79z
M267 665q-93 0 -130 -71t-37 -249t37 -249t130 -71q92 0 129 71t37 249t-37 249t-129 71z" />
    <glyph glyph-name="multiply" unicode="&#xd7;" horiz-adv-x="390" 
d="M220 288l130 -145l-21 -26l-131 146l-131 -146l-22 26l130 145l-130 145l22 26l131 -146l131 146l21 -25z" />
    <glyph glyph-name="Oslash" unicode="&#xd8;" 
d="M422 731l-26 -68q43 -36 62 -112t19 -206q0 -198 -47 -277.5t-163 -79.5q-72 0 -115 27l-26 -68l-25 13l28 74q-73 69 -73 311q0 199 46.5 278t164.5 79q64 0 105 -22l24 63zM100 345q0 -197 46 -265l211 561q-32 24 -90 24q-93 0 -130 -71t-37 -249zM267 25q92 0 129 71
t37 249q0 210 -53 274l-213 -563q35 -31 100 -31z" />
    <glyph glyph-name="Ugrave" unicode="&#xd9;" horiz-adv-x="535" 
d="M304 754l-16 -20l-137 136l25 29zM462 690v-433q0 -146 -44 -207.5t-149 -61.5q-107 0 -151.5 61.5t-44.5 207.5v433h43v-433q0 -128 34 -180t118 -52q83 0 117 52t34 180v433h43z" />
    <glyph glyph-name="Uacute" unicode="&#xda;" horiz-adv-x="535" 
d="M377 870l-136 -136l-17 20l128 145zM462 690v-433q0 -146 -44 -207.5t-149 -61.5q-107 0 -151.5 61.5t-44.5 207.5v433h43v-433q0 -128 34 -180t118 -52q83 0 117 52t34 180v433h43z" />
    <glyph glyph-name="Ucircumflex" unicode="&#xdb;" horiz-adv-x="535" 
d="M391 765l-16 -19l-104 101h-6l-104 -101l-16 19l108 119h30zM462 690v-433q0 -146 -44 -207.5t-149 -61.5q-107 0 -151.5 61.5t-44.5 207.5v433h43v-433q0 -128 34 -180t118 -52q83 0 117 52t34 180v433h43z" />
    <glyph glyph-name="Udieresis" unicode="&#xdc;" horiz-adv-x="535" 
d="M190 859h15q13 0 13 -14v-56q0 -14 -13 -14h-15q-13 0 -13 14v56q0 14 13 14zM332 859h15q13 0 13 -14v-56q0 -14 -13 -14h-15q-13 0 -13 14v56q0 14 13 14zM462 690v-433q0 -146 -44 -207.5t-149 -61.5q-107 0 -151.5 61.5t-44.5 207.5v433h43v-433q0 -128 34 -180
t118 -52q83 0 117 52t34 180v433h43z" />
    <glyph glyph-name="Yacute" unicode="&#xdd;" horiz-adv-x="443" 
d="M194 734l-17 20l128 145l25 -29zM243 253v-253h-43v253l-187 437h47l131 -317l28 -71h5l28 70l132 318h45z" />
    <glyph glyph-name="Thorn" unicode="&#xde;" horiz-adv-x="471" 
d="M261 558q94 0 130.5 -43.5t36.5 -163.5t-36 -163.5t-128 -43.5q-76 0 -144 6v-150h-43v690h43v-136q52 4 141 4zM120 181h139q71 0 98.5 35.5t27.5 134.5q0 100 -27.5 135.5t-98.5 35.5q-107 0 -139 -2v-339z" />
    <glyph glyph-name="germandbls" unicode="&#xdf;" horiz-adv-x="530" 
d="M324 289l97 -42q38 -16 56 -43t18 -81q0 -83 -31.5 -108.5t-102.5 -25.5q-72 0 -130 11l3 30q50 -7 121 -7q28 1 44 4.5t30 13.5t19.5 30t5.5 53q0 44 -13.5 62.5t-43.5 30.5l-97 42q-34 15 -51 39t-17 67q0 18 2 32t9 25t11.5 18.5t17.5 15.5l19.5 12t25 13t26.5 13
q34 17 46.5 38t12.5 65q0 46 -31 64.5t-101 18.5q-77 0 -104.5 -29.5t-27.5 -118.5v-532h-42v448h-70v30l70 4v52q0 60 11.5 97.5t37 55t52.5 22.5t72 5q90 0 131 -25t41 -91q0 -55 -16.5 -82t-60.5 -49q-8 -4 -27.5 -13t-24.5 -12t-16.5 -11.5t-14.5 -16t-6 -19.5t-3 -29
q0 -33 12.5 -49.5t39.5 -27.5z" />
    <glyph glyph-name="agrave" unicode="&#xe0;" horiz-adv-x="435" 
d="M234 553l-137 136l25 29l128 -145zM249 494q59 0 89 -33t30 -107v-354h-31l-7 87q-28 -36 -76.5 -65t-98.5 -29t-78.5 33t-28.5 92v60q0 55 26 85t73 30h180v61q-1 50 -19.5 77t-64.5 27q-65 0 -176 -15l-4 30q124 21 186 21zM161 30q37 -1 83.5 24t82.5 65v142l-175 -3
q-62 -1 -62 -83v-54q0 -90 71 -91z" />
    <glyph glyph-name="aacute" unicode="&#xe1;" horiz-adv-x="435" 
d="M188 553l-17 20l128 145l25 -29zM249 494q59 0 89 -33t30 -107v-354h-31l-7 87q-28 -36 -76.5 -65t-98.5 -29t-78.5 33t-28.5 92v60q0 55 26 85t73 30h180v61q-1 50 -19.5 77t-64.5 27q-65 0 -176 -15l-4 30q124 21 186 21zM161 30q37 -1 83.5 24t82.5 65v142l-175 -3
q-62 -1 -62 -83v-54q0 -90 71 -91z" />
    <glyph glyph-name="acircumflex" unicode="&#xe2;" horiz-adv-x="435" 
d="M107 564l-16 19l108 119h30l108 -119l-16 -19l-104 101h-6zM249 494q59 0 89 -33t30 -107v-354h-31l-7 87q-28 -36 -76.5 -65t-98.5 -29t-78.5 33t-28.5 92v60q0 55 26 85t73 30h180v61q-1 50 -19.5 77t-64.5 27q-65 0 -176 -15l-4 30q124 21 186 21zM161 30
q37 -1 83.5 24t82.5 65v142l-175 -3q-62 -1 -62 -83v-54q0 -90 71 -91z" />
    <glyph glyph-name="atilde" unicode="&#xe3;" horiz-adv-x="435" 
d="M115 593h-22q-2 48 15.5 73t46.5 22q25 -3 59 -32.5t57 -32.5q23 -2 33 12t10 48h21q3 -46 -14 -70.5t-47 -21.5q-29 3 -63.5 33t-52.5 32q-23 4 -33 -12t-10 -51zM249 494q59 0 89 -33t30 -107v-354h-31l-7 87q-28 -36 -76.5 -65t-98.5 -29t-78.5 33t-28.5 92v60
q0 55 26 85t73 30h180v61q-1 50 -19.5 77t-64.5 27q-65 0 -176 -15l-4 30q124 21 186 21zM161 30q37 -1 83.5 24t82.5 65v142l-175 -3q-62 -1 -62 -83v-54q0 -90 71 -91z" />
    <glyph glyph-name="adieresis" unicode="&#xe4;" horiz-adv-x="435" 
d="M151 594h-15q-13 0 -13 14v56q0 14 13 14h15q13 0 13 -14v-56q0 -14 -13 -14zM293 594h-15q-13 0 -13 14v56q0 14 13 14h15q13 0 13 -14v-56q0 -14 -13 -14zM249 494q59 0 89 -33t30 -107v-354h-31l-7 87q-28 -36 -76.5 -65t-98.5 -29t-78.5 33t-28.5 92v60q0 55 26 85
t73 30h180v61q-1 50 -19.5 77t-64.5 27q-65 0 -176 -15l-4 30q124 21 186 21zM161 30q37 -1 83.5 24t82.5 65v142l-175 -3q-62 -1 -62 -83v-54q0 -90 71 -91z" />
    <glyph glyph-name="aring" unicode="&#xe5;" horiz-adv-x="435" 
d="M215 536q-33 0 -57 28.5t-24 69.5q0 40 24 68.5t57 28.5q34 0 57.5 -28.5t23.5 -68.5q0 -41 -23.5 -69.5t-57.5 -28.5zM215 706q-23 0 -38.5 -20.5t-15.5 -51.5q0 -32 15.5 -52t38.5 -20q24 0 39.5 20t15.5 52q0 31 -16 51.5t-39 20.5zM249 494q59 0 89 -33t30 -107v-354
h-31l-7 87q-28 -36 -76.5 -65t-98.5 -29t-78.5 33t-28.5 92v60q0 55 26 85t73 30h180v61q-1 50 -19.5 77t-64.5 27q-65 0 -176 -15l-4 30q124 21 186 21zM161 30q37 -1 83.5 24t82.5 65v142l-175 -3q-62 -1 -62 -83v-54q0 -90 71 -91z" />
    <glyph glyph-name="ae" unicode="&#xe6;" horiz-adv-x="703" 
d="M510 24q65 0 133 12l5 -28q-50 -20 -143 -20q-65 0 -104.5 26t-57.5 84q-29 -39 -81.5 -72t-106.5 -33q-50 0 -78.5 33t-28.5 92v60q0 55 25.5 85t73.5 30h180v61q0 104 -84 104q-65 0 -176 -15l-4 30q124 21 186 21q86 0 109 -69q39 69 140 69q159 0 159 -142
q1 -70 -24.5 -100.5t-84.5 -30.5h-179q3 -110 36 -153.5t105 -43.5zM500 458q-72 0 -101 -45t-30 -159h172q42 0 58.5 22.5t16.5 73.5q-1 108 -116 108zM161 30q39 -1 88.5 26t86.5 69q-10 47 -10 118v18l-174 -3q-62 -1 -62 -83v-54q0 -90 71 -91z" />
    <glyph glyph-name="ccedilla" unicode="&#xe7;" horiz-adv-x="387" 
d="M231 494q70 0 116 -19l-7 -27q-44 10 -103 10q-81 0 -112.5 -46.5t-31.5 -170.5t31.5 -170.5t112.5 -46.5q67 0 113 11l5 -28q-59 -19 -124 -19q-99 0 -140 57t-41 196t41 196t140 57zM193 -80l5 21q77 6 74 -65q-1 -55 -34.5 -86.5t-86.5 -23.5l7 23q36 -2 59 23t24 62
q0 25 -10.5 35t-37.5 11z" />
    <glyph glyph-name="egrave" unicode="&#xe8;" horiz-adv-x="427" 
d="M244 553l-137 136l25 29l128 -145zM233 24q66 0 134 12l4 -28q-50 -20 -143 -20q-96 0 -137 58.5t-41 196.5t39.5 194.5t132.5 56.5q157 0 159 -142q0 -66 -20.5 -98.5t-67.5 -32.5h-200q3 -110 35.5 -153.5t104.5 -43.5zM224 458q-72 0 -101 -45t-30 -159h193
q55 0 53 96q-1 57 -28.5 82.5t-86.5 25.5z" />
    <glyph glyph-name="eacute" unicode="&#xe9;" horiz-adv-x="427" 
d="M198 553l-17 20l128 145l25 -29zM233 24q66 0 134 12l4 -28q-50 -20 -143 -20q-96 0 -137 58.5t-41 196.5t39.5 194.5t132.5 56.5q157 0 159 -142q0 -66 -20.5 -98.5t-67.5 -32.5h-200q3 -110 35.5 -153.5t104.5 -43.5zM224 458q-72 0 -101 -45t-30 -159h193q55 0 53 96
q-1 57 -28.5 82.5t-86.5 25.5z" />
    <glyph glyph-name="ecircumflex" unicode="&#xea;" horiz-adv-x="427" 
d="M117 564l-16 19l108 119h30l108 -119l-16 -19l-104 101h-6zM233 24q66 0 134 12l4 -28q-50 -20 -143 -20q-96 0 -137 58.5t-41 196.5t39.5 194.5t132.5 56.5q157 0 159 -142q0 -66 -20.5 -98.5t-67.5 -32.5h-200q3 -110 35.5 -153.5t104.5 -43.5zM224 458q-72 0 -101 -45
t-30 -159h193q55 0 53 96q-1 57 -28.5 82.5t-86.5 25.5z" />
    <glyph glyph-name="edieresis" unicode="&#xeb;" horiz-adv-x="427" 
d="M161 594h-15q-13 0 -13 14v56q0 14 13 14h15q13 0 13 -14v-56q0 -14 -13 -14zM303 594h-15q-13 0 -13 14v56q0 14 13 14h15q13 0 13 -14v-56q0 -14 -13 -14zM233 24q66 0 134 12l4 -28q-50 -20 -143 -20q-96 0 -137 58.5t-41 196.5t39.5 194.5t132.5 56.5q157 0 159 -142
q0 -66 -20.5 -98.5t-67.5 -32.5h-200q3 -110 35.5 -153.5t104.5 -43.5zM224 458q-72 0 -101 -45t-30 -159h193q55 0 53 96q-1 57 -28.5 82.5t-86.5 25.5z" />
    <glyph glyph-name="igrave" unicode="&#xec;" horiz-adv-x="188" 
d="M128 573l-16 -20l-137 136l25 29zM114 0h-41v482h41v-482z" />
    <glyph glyph-name="iacute" unicode="&#xed;" horiz-adv-x="188" 
d="M202 689l-136 -136l-17 20l128 145zM114 0h-41v482h41v-482z" />
    <glyph glyph-name="icircumflex" unicode="&#xee;" horiz-adv-x="188" 
d="M215 583l-16 -19l-104 101h-6l-104 -101l-16 19l108 119h30zM114 0h-41v482h41v-482z" />
    <glyph glyph-name="idieresis" unicode="&#xef;" horiz-adv-x="188" 
d="M14 678h15q13 0 13 -14v-56q0 -14 -13 -14h-15q-13 0 -13 14v56q0 14 13 14zM156 678h15q13 0 13 -14v-56q0 -14 -13 -14h-15q-13 0 -13 14v56q0 14 13 14zM114 0h-41v482h41v-482z" />
    <glyph glyph-name="eth" unicode="&#xf0;" horiz-adv-x="443" 
d="M347 679l-60 -52q97 -104 97 -347q0 -52 -3 -91t-13.5 -79t-28 -65t-48.5 -41t-73 -16q-86 0 -126.5 55.5t-40.5 176.5q0 111 37.5 169t123.5 58q67 0 124 -47q-18 136 -76 203l-71 -62l-16 22l67 59q-55 47 -146 47l6 29q101 4 167 -52l64 56zM218 23q32 0 54.5 12.5
t36 33.5t21 56.5t10 71.5t2.5 89q0 45 -3 84q-58 42 -124 42q-121 0 -121 -192q0 -106 30 -151.5t94 -45.5z" />
    <glyph glyph-name="ntilde" unicode="&#xf1;" horiz-adv-x="461" 
d="M133 593h-22q-2 48 15.5 73t46.5 22q25 -3 59 -32.5t57 -32.5q23 -2 33 12t10 48h21q3 -46 -14 -70.5t-47 -21.5q-29 3 -63.5 33t-52.5 32q-23 4 -33 -12t-10 -51zM289 494q105 0 105 -132v-362h-42v354q0 54 -18 79t-56 25q-37 0 -74 -21.5t-93 -70.5v-366h-41v482h34
l3 -84q96 96 182 96z" />
    <glyph glyph-name="ograve" unicode="&#xf2;" horiz-adv-x="451" 
d="M262 573l-16 -20l-137 136l25 29zM226 494q97 0 136 -57t39 -196q0 -140 -39 -196.5t-136 -56.5t-136.5 57t-39.5 196t39.5 196t136.5 57zM226 458q-74 0 -103.5 -47t-29.5 -170t29.5 -170.5t103.5 -47.5t103 47.5t29 170.5t-28.5 170t-103.5 47z" />
    <glyph glyph-name="oacute" unicode="&#xf3;" horiz-adv-x="451" 
d="M336 689l-136 -136l-17 20l128 145zM226 494q97 0 136 -57t39 -196q0 -140 -39 -196.5t-136 -56.5t-136.5 57t-39.5 196t39.5 196t136.5 57zM226 458q-74 0 -103.5 -47t-29.5 -170t29.5 -170.5t103.5 -47.5t103 47.5t29 170.5t-28.5 170t-103.5 47z" />
    <glyph glyph-name="ocircumflex" unicode="&#xf4;" horiz-adv-x="451" 
d="M349 583l-16 -19l-104 101h-6l-104 -101l-16 19l108 119h30zM226 494q97 0 136 -57t39 -196q0 -140 -39 -196.5t-136 -56.5t-136.5 57t-39.5 196t39.5 196t136.5 57zM226 458q-74 0 -103.5 -47t-29.5 -170t29.5 -170.5t103.5 -47.5t103 47.5t29 170.5t-28.5 170
t-103.5 47z" />
    <glyph glyph-name="otilde" unicode="&#xf5;" horiz-adv-x="451" 
d="M167 688q25 -3 59 -32.5t57 -32.5q23 -2 33 12t10 48h21q3 -46 -14 -70.5t-47 -21.5q-29 3 -63.5 33t-52.5 32q-23 4 -33 -12t-10 -51h-22q-2 48 15.5 73t46.5 22zM226 494q97 0 136 -57t39 -196q0 -140 -39 -196.5t-136 -56.5t-136.5 57t-39.5 196t39.5 196t136.5 57z
M226 458q-74 0 -103.5 -47t-29.5 -170t29.5 -170.5t103.5 -47.5t103 47.5t29 170.5t-28.5 170t-103.5 47z" />
    <glyph glyph-name="odieresis" unicode="&#xf6;" horiz-adv-x="451" 
d="M148 678h15q13 0 13 -14v-56q0 -14 -13 -14h-15q-13 0 -13 14v56q0 14 13 14zM290 678h15q13 0 13 -14v-56q0 -14 -13 -14h-15q-13 0 -13 14v56q0 14 13 14zM226 494q97 0 136 -57t39 -196q0 -140 -39 -196.5t-136 -56.5t-136.5 57t-39.5 196t39.5 196t136.5 57zM226 458
q-74 0 -103.5 -47t-29.5 -170t29.5 -170.5t103.5 -47.5t103 47.5t29 170.5t-28.5 170t-103.5 47z" />
    <glyph glyph-name="divide" unicode="&#xf7;" horiz-adv-x="467" 
d="M226 508h12q17 0 17 -17v-59q0 -17 -17 -17h-12q-17 0 -17 17v59q0 17 17 17zM404 279h-342v33h342v-33zM226 176h12q17 0 17 -17v-59q0 -17 -17 -17h-12q-17 0 -17 17v59q0 17 17 17z" />
    <glyph glyph-name="oslash" unicode="&#xf8;" horiz-adv-x="452" 
d="M347 533l-23 -61q41 -24 59 -79.5t18 -151.5q0 -140 -39 -196.5t-136 -56.5q-46 0 -79 12l-25 -65l-23 12l24 65q-73 46 -73 229q0 139 39.5 196t136.5 57q46 0 75 -11l23 61zM93 241q0 -146 45 -190l150 397q-24 10 -62 10q-74 0 -103.5 -47t-29.5 -170zM226 23
q74 0 103 47.5t29 170.5q0 153 -48 193l-150 -398q26 -13 66 -13z" />
    <glyph glyph-name="ugrave" unicode="&#xf9;" horiz-adv-x="453" 
d="M246 554l-137 136l25 29l128 -145zM383 482v-482h-33l-4 81q-93 -93 -174 -93q-105 0 -105 132v362h41v-354q0 -104 76 -104q35 0 70 21t88 69v368h41z" />
    <glyph glyph-name="uacute" unicode="&#xfa;" horiz-adv-x="453" 
d="M200 554l-17 20l128 145l25 -29zM383 482v-482h-33l-4 81q-93 -93 -174 -93q-105 0 -105 132v362h41v-354q0 -104 76 -104q35 0 70 21t88 69v368h41z" />
    <glyph glyph-name="ucircumflex" unicode="&#xfb;" horiz-adv-x="453" 
d="M119 565l-16 19l108 119h30l108 -119l-16 -19l-104 101h-6zM383 482v-482h-33l-4 81q-93 -93 -174 -93q-105 0 -105 132v362h41v-354q0 -104 76 -104q35 0 70 21t88 69v368h41z" />
    <glyph glyph-name="udieresis" unicode="&#xfc;" horiz-adv-x="453" 
d="M163 595h-15q-13 0 -13 14v56q0 14 13 14h15q13 0 13 -14v-56q0 -14 -13 -14zM305 595h-15q-13 0 -13 14v56q0 14 13 14h15q13 0 13 -14v-56q0 -14 -13 -14zM383 482v-482h-33l-4 81q-93 -93 -174 -93q-105 0 -105 132v362h41v-354q0 -104 76 -104q35 0 70 21t88 69v368
h41z" />
    <glyph glyph-name="yacute" unicode="&#xfd;" horiz-adv-x="414" 
d="M182 553l-17 20l128 145l25 -29zM394 482l-167 -524q-23 -69 -56 -111t-89 -56l-6 25q45 20 70 57t43 93l12 34h-13q-12 0 -18 12l-150 470h44l122 -395q2 -9 7.5 -27t8.5 -27h10q16 47 18 55l120 394h44z" />
    <glyph glyph-name="thorn" unicode="&#xfe;" horiz-adv-x="453" 
d="M262 494q76 0 108.5 -58.5t32.5 -195.5t-33 -194.5t-109 -57.5q-74 0 -152 49q2 -21 2 -90v-155h-41v908h41v-195q0 -70 -2 -92q75 81 153 81zM252 23q58 0 83 49t25 168q0 120 -24.5 169t-82.5 49q-60 0 -142 -82v-308q85 -45 141 -45z" />
    <glyph glyph-name="ydieresis" unicode="&#xff;" horiz-adv-x="414" 
d="M145 594h-15q-13 0 -13 14v56q0 14 13 14h15q13 0 13 -14v-56q0 -14 -13 -14zM287 594h-15q-13 0 -13 14v56q0 14 13 14h15q13 0 13 -14v-56q0 -14 -13 -14zM394 482l-167 -524q-23 -69 -56 -111t-89 -56l-6 25q45 20 70 57t43 93l12 34h-13q-12 0 -18 12l-150 470h44
l122 -395q2 -9 7.5 -27t8.5 -27h10q16 47 18 55l120 394h44z" />
    <glyph glyph-name="Amacron" unicode="&#x100;" horiz-adv-x="490" 
d="M353 799h-215v33h215v-33zM367 243h-244l-66 -243h-45l190 677q2 13 17 13h52q14 0 17 -13l190 -677h-45zM357 279l-87 321l-15 56h-20l-15 -56l-87 -321h224z" />
    <glyph glyph-name="amacron" unicode="&#x101;" horiz-adv-x="435" 
d="M323 618h-215v33h215v-33zM249 494q59 0 89 -33t30 -107v-354h-31l-7 87q-28 -36 -76.5 -65t-98.5 -29t-78.5 33t-28.5 92v60q0 55 26 85t73 30h180v61q-1 50 -19.5 77t-64.5 27q-65 0 -176 -15l-4 30q124 21 186 21zM161 30q37 -1 83.5 24t82.5 65v142l-175 -3
q-62 -1 -62 -83v-54q0 -90 71 -91z" />
    <glyph glyph-name="Abreve" unicode="&#x102;" horiz-adv-x="490" 
d="M245 752q-54 0 -85 32t-29 87l23 4q0 -42 24 -65.5t67 -23.5q42 0 66 23.5t24 65.5l23 -4q1 -55 -29.5 -87t-83.5 -32zM367 243h-244l-66 -243h-45l190 677q2 13 17 13h52q14 0 17 -13l190 -677h-45zM357 279l-87 321l-15 56h-20l-15 -56l-87 -321h224z" />
    <glyph glyph-name="abreve" unicode="&#x103;" horiz-adv-x="435" 
d="M215 571q-54 0 -85 32t-29 87l23 4q0 -42 24 -65.5t67 -23.5q42 0 66 23.5t24 65.5l23 -4q1 -55 -29.5 -87t-83.5 -32zM249 494q59 0 89 -33t30 -107v-354h-31l-7 87q-28 -36 -76.5 -65t-98.5 -29t-78.5 33t-28.5 92v60q0 55 26 85t73 30h180v61q-1 50 -19.5 77t-64.5 27
q-65 0 -176 -15l-4 30q124 21 186 21zM161 30q37 -1 83.5 24t82.5 65v142l-175 -3q-62 -1 -62 -83v-54q0 -90 71 -91z" />
    <glyph glyph-name="Aogonek" unicode="&#x104;" horiz-adv-x="490" 
d="M482 -176l5 -18q-67 -32 -94.5 -8t-11.5 80q18 63 74 122h-22l-66 243h-244l-66 -243h-45l190 677q2 13 17 13h52q14 0 17 -13l190 -677q-47 -61 -65 -123q-13 -44 7 -58t62 5zM357 279l-87 321l-15 56h-20l-15 -56l-87 -321h224z" />
    <glyph glyph-name="aogonek" unicode="&#x105;" horiz-adv-x="435" 
d="M372 -176l5 -18q-67 -32 -94.5 -8t-11.5 80q18 63 74 122h-8l-7 87q-28 -36 -76.5 -65t-98.5 -29t-78.5 33t-28.5 92v60q0 55 26 85t73 30h180v61q-1 50 -19.5 77t-64.5 27q-65 0 -176 -15l-4 30q124 21 186 21q59 0 89 -33t30 -107v-354q-47 -61 -65 -123q-13 -44 7 -58
t62 5zM161 30q37 -1 83.5 24t82.5 65v142l-175 -3q-62 -1 -62 -83v-54q0 -90 71 -91z" />
    <glyph glyph-name="Cacute" unicode="&#x106;" horiz-adv-x="459" 
d="M368 870l-136 -136l-17 20l128 145zM266 702q84 0 144 -18l-6 -30q-63 11 -138 11q-93 0 -129.5 -70.5t-36.5 -249.5t36.5 -249.5t129.5 -70.5q87 0 149 13l7 -31q-66 -19 -156 -19q-117 0 -163.5 79.5t-46.5 277.5t46.5 277.5t163.5 79.5z" />
    <glyph glyph-name="cacute" unicode="&#x107;" horiz-adv-x="387" 
d="M326 689l-136 -136l-17 20l128 145zM231 494q70 0 116 -19l-7 -27q-44 10 -103 10q-81 0 -112.5 -46.5t-31.5 -170.5t31.5 -170.5t112.5 -46.5q67 0 113 11l5 -28q-59 -19 -124 -19q-99 0 -140 57t-41 196t41 196t140 57z" />
    <glyph glyph-name="Cdotaccent" unicode="&#x10a;" horiz-adv-x="459" 
d="M252 861h14q15 0 15 -15v-61q0 -15 -15 -15h-14q-15 0 -15 15v61q0 15 15 15zM266 702q84 0 144 -18l-6 -30q-63 11 -138 11q-93 0 -129.5 -70.5t-36.5 -249.5t36.5 -249.5t129.5 -70.5q87 0 149 13l7 -31q-66 -19 -156 -19q-117 0 -163.5 79.5t-46.5 277.5t46.5 277.5
t163.5 79.5z" />
    <glyph glyph-name="cdotaccent" unicode="&#x10b;" horiz-adv-x="387" 
d="M210 680h14q15 0 15 -15v-61q0 -15 -15 -15h-14q-15 0 -15 15v61q0 15 15 15zM231 494q70 0 116 -19l-7 -27q-44 10 -103 10q-81 0 -112.5 -46.5t-31.5 -170.5t31.5 -170.5t112.5 -46.5q67 0 113 11l5 -28q-59 -19 -124 -19q-99 0 -140 57t-41 196t41 196t140 57z" />
    <glyph glyph-name="Ccaron" unicode="&#x10c;" horiz-adv-x="459" 
d="M382 869l-111 -120h-23l-112 120l16 18l104 -98h7l104 98zM266 702q84 0 144 -18l-6 -30q-63 11 -138 11q-93 0 -129.5 -70.5t-36.5 -249.5t36.5 -249.5t129.5 -70.5q87 0 149 13l7 -31q-66 -19 -156 -19q-117 0 -163.5 79.5t-46.5 277.5t46.5 277.5t163.5 79.5z" />
    <glyph glyph-name="ccaron" unicode="&#x10d;" horiz-adv-x="387" 
d="M340 687l-111 -120h-23l-112 120l16 18l104 -98h7l104 98zM231 494q70 0 116 -19l-7 -27q-44 10 -103 10q-81 0 -112.5 -46.5t-31.5 -170.5t31.5 -170.5t112.5 -46.5q67 0 113 11l5 -28q-59 -19 -124 -19q-99 0 -140 57t-41 196t41 196t140 57z" />
    <glyph glyph-name="Dcaron" unicode="&#x10e;" horiz-adv-x="531" 
d="M256 749l-112 120l16 18l104 -98h7l104 98l15 -18l-111 -120h-23zM267 699q115 0 161.5 -79t46.5 -275t-46.5 -275t-161.5 -79q-89 0 -190 9v690q99 9 190 9zM267 28q91 0 127 70t36 247t-36 247t-127 70q-59 0 -147 -2v-630q86 -2 147 -2z" />
    <glyph glyph-name="dcaron" unicode="&#x10f;" horiz-adv-x="454" 
d="M461 703h12q14 0 14 -15v-56q-2 -66 -18 -118l-18 6q5 44 5 100q-10 0 -10 13v55q2 15 15 15zM343 700h41v-700h-32l-5 79q-80 -91 -157 -91q-75 0 -107 59t-32 194q0 137 33.5 195t109.5 58q70 0 151 -47q-2 21 -2 92v161zM200 24q34 0 65.5 19.5t77.5 67.5v304
q-86 43 -141 43q-59 0 -83.5 -48t-24.5 -168t24 -169t82 -49z" />
    <glyph glyph-name="Dcroat" unicode="&#x110;" 
d="M270 699q115 0 161.5 -79t46.5 -275t-46.5 -275t-161.5 -79q-90 0 -189 9v356h-61v28h61v306q97 9 189 9zM270 28q91 0 127.5 70t36.5 247t-36.5 247t-127.5 70q-59 0 -147 -2v-276h135v-28h-135v-326q84 -2 147 -2z" />
    <glyph glyph-name="dcroat" unicode="&#x111;" horiz-adv-x="449" 
d="M441 586h-57v-586h-32l-5 79q-80 -91 -157 -91q-75 0 -107 59t-32 194q0 137 33.5 195t109.5 58q70 0 151 -47q-2 21 -2 92v47h-134v27h134v87h41v-87h57v-27zM200 24q34 0 65.5 19.5t77.5 67.5v304q-86 43 -141 43q-59 0 -83.5 -48t-24.5 -168t24 -169t82 -49z" />
    <glyph glyph-name="Emacron" unicode="&#x112;" horiz-adv-x="446" 
d="M364 823h-215v33h215v-33zM400 35l1 -31q-76 -4 -236 -4q-42 0 -67.5 29.5t-25.5 76.5v478q0 47 26 76.5t67 29.5q160 0 236 -4l-1 -31h-227q-27 0 -42.5 -21t-15.5 -57v-191l252 -1v-33l-252 -1v-238q0 -36 15.5 -57t42.5 -21h227z" />
    <glyph glyph-name="emacron" unicode="&#x113;" horiz-adv-x="427" 
d="M333 618h-215v33h215v-33zM233 24q66 0 134 12l4 -28q-50 -20 -143 -20q-96 0 -137 58.5t-41 196.5t39.5 194.5t132.5 56.5q157 0 159 -142q0 -66 -20.5 -98.5t-67.5 -32.5h-200q3 -110 35.5 -153.5t104.5 -43.5zM224 458q-72 0 -101 -45t-30 -159h193q55 0 53 96
q-1 57 -28.5 82.5t-86.5 25.5z" />
    <glyph glyph-name="Edotaccent" unicode="&#x116;" horiz-adv-x="446" 
d="M264 794h-14q-15 0 -15 15v61q0 15 15 15h14q15 0 15 -15v-61q0 -15 -15 -15zM400 35l1 -31q-76 -4 -236 -4q-42 0 -67.5 29.5t-25.5 76.5v478q0 47 26 76.5t67 29.5q160 0 236 -4l-1 -31h-227q-27 0 -42.5 -21t-15.5 -57v-191l252 -1v-33l-252 -1v-238q0 -36 15.5 -57
t42.5 -21h227z" />
    <glyph glyph-name="edotaccent" unicode="&#x117;" horiz-adv-x="427" 
d="M232 589h-14q-15 0 -15 15v61q0 15 15 15h14q15 0 15 -15v-61q0 -15 -15 -15zM233 24q66 0 134 12l4 -28q-50 -20 -143 -20q-96 0 -137 58.5t-41 196.5t39.5 194.5t132.5 56.5q157 0 159 -142q0 -66 -20.5 -98.5t-67.5 -32.5h-200q3 -110 35.5 -153.5t104.5 -43.5z
M224 458q-72 0 -101 -45t-30 -159h193q55 0 53 96q-1 57 -28.5 82.5t-86.5 25.5z" />
    <glyph glyph-name="Eogonek" unicode="&#x118;" horiz-adv-x="446" 
d="M405 -172l5 -18q-67 -32 -94.5 -8t-11.5 80q19 62 73 121q-69 -3 -212 -3q-42 0 -67.5 29.5t-25.5 76.5v478q0 47 26 76.5t67 29.5q160 0 236 -4l-1 -31h-227q-27 0 -42.5 -21t-15.5 -57v-191l252 -1v-33l-252 -1v-238q0 -36 15.5 -57t42.5 -21h227l1 -31
q-47 -61 -65 -123q-13 -44 7 -58t62 5z" />
    <glyph glyph-name="eogonek" unicode="&#x119;" horiz-adv-x="427" 
d="M307 -115q-13 -44 7 -58t62 5l5 -18q-67 -32 -94.5 -8t-11.5 80t67 114q-51 -12 -114 -12q-96 0 -137 58.5t-41 196.5t39.5 194.5t132.5 56.5q157 0 159 -142q0 -66 -20.5 -98.5t-67.5 -32.5h-200q3 -110 35.5 -153.5t104.5 -43.5q66 0 134 12l4 -28h1q-47 -61 -65 -123z
M224 458q-72 0 -101 -45t-30 -159h193q55 0 53 96q-1 57 -28.5 82.5t-86.5 25.5z" />
    <glyph glyph-name="Ecaron" unicode="&#x11a;" horiz-adv-x="446" 
d="M246 773l-112 120l16 18l104 -98h7l104 98l15 -18l-111 -120h-23zM400 35l1 -31q-76 -4 -236 -4q-42 0 -67.5 29.5t-25.5 76.5v478q0 47 26 76.5t67 29.5q160 0 236 -4l-1 -31h-227q-27 0 -42.5 -21t-15.5 -57v-191l252 -1v-33l-252 -1v-238q0 -36 15.5 -57t42.5 -21h227
z" />
    <glyph glyph-name="ecaron" unicode="&#x11b;" horiz-adv-x="427" 
d="M214 567l-112 120l16 18l104 -98h7l104 98l15 -18l-111 -120h-23zM233 24q66 0 134 12l4 -28q-50 -20 -143 -20q-96 0 -137 58.5t-41 196.5t39.5 194.5t132.5 56.5q157 0 159 -142q0 -66 -20.5 -98.5t-67.5 -32.5h-200q3 -110 35.5 -153.5t104.5 -43.5zM224 458
q-72 0 -101 -45t-30 -159h193q55 0 53 96q-1 57 -28.5 82.5t-86.5 25.5z" />
    <glyph glyph-name="Gbreve" unicode="&#x11e;" horiz-adv-x="501" 
d="M272 752q-54 0 -85 32t-29 87l23 4q0 -42 24 -65.5t67 -23.5q42 0 66 23.5t24 65.5l23 -4q1 -55 -29.5 -87t-83.5 -32zM441 400v-400h-31l-7 81q-69 -93 -168 -93q-95 0 -137 84.5t-42 273.5q0 199 48 277.5t170 78.5q90 0 155 -18l-6 -30q-69 11 -148 11
q-98 0 -136.5 -69t-38.5 -252q0 -171 33 -245t111 -74q32 0 62.5 15t47.5 30.5t45 45.5v284h42z" />
    <glyph glyph-name="gbreve" unicode="&#x11f;" horiz-adv-x="441" 
d="M217 571q-54 0 -85 32t-29 87l23 4q0 -42 24 -65.5t67 -23.5q42 0 66 23.5t24 65.5l23 -4q1 -55 -29.5 -87t-83.5 -32zM418 456l-74 -4q32 -36 32 -109q0 -77 -37 -113t-122 -36q-58 0 -93 16q-22 -32 -15.5 -69.5t47.5 -46.5l151 -33q50 -10 70.5 -39t20.5 -88
q0 -80 -39 -111.5t-139 -31.5q-101 0 -140.5 32t-39.5 114q0 45 13.5 75t48.5 52l11 7q-40 21 -41 71t30 80q-46 36 -46 121q0 78 37 114.5t124 36.5q49 0 82 -12h122zM217 227q65 0 92 27.5t27 88.5t-27 89.5t-92 28.5q-66 0 -94 -28.5t-28 -89.5q0 -60 28 -88t94 -28z
M357 -63q0 44 -14.5 64t-54.5 29l-146 31l-15 -12q-27 -21 -36.5 -46t-9.5 -63q0 -65 28.5 -89.5t108.5 -24.5t109.5 24t29.5 87z" />
    <glyph glyph-name="Gdotaccent" unicode="&#x120;" horiz-adv-x="501" 
d="M280 770h-14q-15 0 -15 15v61q0 15 15 15h14q15 0 15 -15v-61q0 -15 -15 -15zM441 400v-400h-31l-7 81q-69 -93 -168 -93q-95 0 -137 84.5t-42 273.5q0 199 48 277.5t170 78.5q90 0 155 -18l-6 -30q-69 11 -148 11q-98 0 -136.5 -69t-38.5 -252q0 -171 33 -245t111 -74
q32 0 62.5 15t47.5 30.5t45 45.5v284h42z" />
    <glyph glyph-name="gdotaccent" unicode="&#x121;" horiz-adv-x="441" 
d="M224 589h-14q-15 0 -15 15v61q0 15 15 15h14q15 0 15 -15v-61q0 -15 -15 -15zM418 456l-74 -4q32 -36 32 -109q0 -77 -37 -113t-122 -36q-58 0 -93 16q-22 -32 -15.5 -69.5t47.5 -46.5l151 -33q50 -10 70.5 -39t20.5 -88q0 -80 -39 -111.5t-139 -31.5q-101 0 -140.5 32
t-39.5 114q0 45 13.5 75t48.5 52l11 7q-40 21 -41 71t30 80q-46 36 -46 121q0 78 37 114.5t124 36.5q49 0 82 -12h122zM217 227q65 0 92 27.5t27 88.5t-27 89.5t-92 28.5q-66 0 -94 -28.5t-28 -89.5q0 -60 28 -88t94 -28zM357 -63q0 44 -14.5 64t-54.5 29l-146 31l-15 -12
q-27 -21 -36.5 -46t-9.5 -63q0 -65 28.5 -89.5t108.5 -24.5t109.5 24t29.5 87z" />
    <glyph glyph-name="Gcommaaccent" unicode="&#x122;" horiz-adv-x="501" 
d="M441 400v-400h-31l-7 81q-69 -93 -168 -93q-95 0 -137 84.5t-42 273.5q0 199 48 277.5t170 78.5q90 0 155 -18l-6 -30q-69 11 -148 11q-98 0 -136.5 -69t-38.5 -252q0 -171 33 -245t111 -74q32 0 62.5 15t47.5 30.5t45 45.5v284h42zM254 -63h12q14 0 15 -15l-1 -57
q-2 -67 -18 -120l-18 6q5 60 5 102q-11 0 -11 13v56q1 15 16 15z" />
    <glyph glyph-name="gcommaaccent" unicode="&#x123;" horiz-adv-x="441" 
d="M228 564h-12q-14 0 -15 15l1 57q2 67 18 120l18 -6q-5 -60 -5 -102q11 0 11 -13v-56q-1 -15 -16 -15zM418 456l-74 -4q32 -36 32 -109q0 -77 -37 -113t-122 -36q-58 0 -93 16q-22 -32 -15.5 -69.5t47.5 -46.5l151 -33q50 -10 70.5 -39t20.5 -88q0 -80 -39 -111.5
t-139 -31.5q-101 0 -140.5 32t-39.5 114q0 45 13.5 75t48.5 52l11 7q-40 21 -41 71t30 80q-46 36 -46 121q0 78 37 114.5t124 36.5q49 0 82 -12h122zM217 227q65 0 92 27.5t27 88.5t-27 89.5t-92 28.5q-66 0 -94 -28.5t-28 -89.5q0 -60 28 -88t94 -28zM357 -63
q0 44 -14.5 64t-54.5 29l-146 31l-15 -12q-27 -21 -36.5 -46t-9.5 -63q0 -65 28.5 -89.5t108.5 -24.5t109.5 24t29.5 87z" />
    <glyph glyph-name="Hbar" unicode="&#x126;" horiz-adv-x="537" 
d="M517 523h-59v-523h-43v352h-292v-352h-43v523h-61v27h61v140h43v-140h292v140h43v-140h59v-27zM415 523h-292v-135h292v135z" />
    <glyph glyph-name="hbar" unicode="&#x127;" horiz-adv-x="464" 
d="M291 494q105 0 105 -132v-362h-41v354q0 55 -18 79.5t-57 24.5q-37 0 -74 -21.5t-93 -70.5v-366h-41v586h-65v27h65v87h41v-87h127v-27h-126v-95q0 -57 -4 -92q103 95 181 95z" />
    <glyph glyph-name="Imacron" unicode="&#x12a;" horiz-adv-x="197" 
d="M206 799h-215v33h215v-33zM120 0h-43v690h43v-690z" />
    <glyph glyph-name="imacron" unicode="&#x12b;" horiz-adv-x="188" 
d="M201 618h-215v33h215v-33zM114 0h-41v482h41v-482z" />
    <glyph glyph-name="Iogonek" unicode="&#x12e;" horiz-adv-x="197" 
d="M121 -176l5 -18q-67 -32 -94.5 -8t-11.5 80q18 63 74 122h-17v690h43v-690h-3q-47 -61 -65 -123q-13 -44 7 -58t62 5z" />
    <glyph glyph-name="iogonek" unicode="&#x12f;" horiz-adv-x="188" 
d="M100 589h-14q-15 0 -15 15v61q0 15 15 15h14q15 0 15 -15v-61q0 -15 -15 -15zM113 -176l5 -18q-67 -32 -94.5 -8t-11.5 80q18 63 74 122h-13v482h41v-482h-5q-47 -61 -65 -123q-13 -44 7 -58t62 5z" />
    <glyph glyph-name="Idotaccent" unicode="&#x130;" horiz-adv-x="197" 
d="M91 861h14q15 0 15 -15v-61q0 -15 -15 -15h-14q-15 0 -15 15v61q0 15 15 15zM120 0h-43v690h43v-690z" />
    <glyph glyph-name="dotlessi" unicode="&#x131;" horiz-adv-x="188" 
d="M114 0h-41v482h41v-482z" />
    <glyph glyph-name="IJ" unicode="&#x132;" horiz-adv-x="463" 
d="M120 0h-43v690h43v-690zM388 690v-567q0 -130 -102 -130q-29 0 -61 8l5 28h44q72 0 72 94v567h42z" />
    <glyph glyph-name="ij" unicode="&#x133;" horiz-adv-x="375" 
d="M84 683h19q15 0 15 -16v-60q0 -16 -15 -16h-19q-14 0 -14 16v60q0 16 14 16zM272 683h20q14 0 14 -16v-60q0 -16 -14 -16h-20q-14 0 -14 16v60q0 16 14 16zM114 0h-41v482h41v-482zM302 482v-519q0 -99 -62 -171l-23 17q44 68 44 154v519h41z" />
    <glyph glyph-name="Kcommaaccent" unicode="&#x136;" horiz-adv-x="461" 
d="M440 0h-48l-197 343h-79q3 -43 3 -83v-260h-42v690h42v-231q0 -45 -4 -82h80l185 313h47l-176 -298q-11 -21 -23 -31v-2q17 -17 25 -32zM243 -63h12q14 0 15 -15l-1 -57q-2 -67 -18 -120l-18 6q5 60 5 102q-11 0 -11 13v56q1 15 16 15z" />
    <glyph glyph-name="kcommaaccent" unicode="&#x137;" horiz-adv-x="392" 
d="M371 0h-47l-156 259h-60q2 -29 2 -85v-174h-41v700h41l1 -327q0 -40 -3 -82h59l143 191h48l-135 -184q-2 -4 -22 -23v-2q19 -23 22 -29zM209 -63h12q14 0 15 -15l-1 -57q-2 -67 -18 -120l-18 6q5 60 5 102q-11 0 -11 13v56q1 15 16 15z" />
    <glyph glyph-name="Lacute" unicode="&#x139;" horiz-adv-x="409" 
d="M205 870l-136 -136l-17 20l128 145zM117 690v-577q0 -36 16 -57t44 -21h210l1 -30q-72 -5 -218 -5q-46 0 -71 30t-25 79v581h43z" />
    <glyph glyph-name="lacute" unicode="&#x13a;" horiz-adv-x="226" 
d="M201 893l-136 -136l-17 20l128 145zM111 700v-594q0 -76 59 -76h43l5 -29q-19 -8 -60 -8q-40 0 -64 28t-24 79v600h41z" />
    <glyph glyph-name="Lcommaaccent" unicode="&#x13b;" horiz-adv-x="409" 
d="M117 690v-577q0 -36 16 -57t44 -21h210l1 -30q-72 -5 -218 -5q-46 0 -71 30t-25 79v581h43zM234 -71h12q14 0 15 -15l-1 -57q-2 -67 -18 -120l-18 6q5 60 5 102q-11 0 -11 13v56q1 15 16 15z" />
    <glyph glyph-name="lcommaaccent" unicode="&#x13c;" horiz-adv-x="226" 
d="M111 700v-594q0 -76 59 -76h43l5 -29q-19 -8 -60 -8q-40 0 -64 28t-24 79v600h41zM130 -71h12q14 0 15 -15l-1 -57q-2 -67 -18 -120l-18 6q5 60 5 102q-11 0 -11 13v56q1 15 16 15z" />
    <glyph glyph-name="Lcaron" unicode="&#x13d;" horiz-adv-x="409" 
d="M117 690v-577q0 -36 16 -57t44 -21h210l1 -30q-72 -5 -218 -5q-46 0 -71 30t-25 79v581h43zM241 690h12q14 0 15 -15l-1 -57q-2 -67 -18 -120l-18 6q5 60 5 102q-11 0 -11 13v56q1 15 16 15z" />
    <glyph glyph-name="lcaron" unicode="&#x13e;" horiz-adv-x="226" 
d="M190 703h12q14 0 14 -15v-56q-2 -66 -18 -118l-18 6q5 44 5 100q-10 0 -10 13v55q1 15 15 15zM111 700v-594q0 -76 59 -76h43l5 -29q-19 -8 -60 -8q-40 0 -64 28t-24 79v600h41z" />
    <glyph glyph-name="Ldot" unicode="&#x13f;" horiz-adv-x="409" 
d="M117 690v-577q0 -36 16 -57t44 -21h210l1 -30q-72 -5 -218 -5q-46 0 -71 30t-25 79v581h43zM310 333h-14q-15 0 -15 15v61q0 15 15 15h14q15 0 15 -15v-61q0 -15 -15 -15z" />
    <glyph glyph-name="ldot" unicode="&#x140;" horiz-adv-x="248" 
d="M111 700v-594q0 -76 59 -76h43l5 -29q-19 -8 -60 -8q-40 0 -64 28t-24 79v600h41zM217 344h-15q-14 0 -14 16v60q0 16 14 16h15q14 0 14 -16v-60q0 -16 -14 -16z" />
    <glyph glyph-name="Lslash" unicode="&#x141;" horiz-adv-x="412" 
d="M391 35l1 -30q-72 -5 -218 -5q-46 0 -71 30t-25 79v240l-60 -31v30l60 31v311h43v-288l99 51v-29l-99 -52v-259q0 -36 16 -57t44 -21h210z" />
    <glyph glyph-name="lslash" unicode="&#x142;" horiz-adv-x="251" 
d="M232 30l5 -29q-21 -8 -60 -8q-40 0 -64 28t-24 79v253l-67 -35v30l67 35v317h41v-295l91 48v-30l-91 -48v-269q0 -76 59 -76h43z" />
    <glyph glyph-name="Nacute" unicode="&#x143;" horiz-adv-x="558" 
d="M394 870l-136 -136l-17 20l128 145zM481 690v-670q0 -20 -18 -20h-54q-17 0 -22 15l-223 564q-5 12 -30 74h-15q1 -25 1 -75v-578h-43v670q0 20 19 20h51q18 0 23 -15l217 -551q20 -49 34 -86h19q-1 32 -1 94v558h42z" />
    <glyph glyph-name="nacute" unicode="&#x144;" horiz-adv-x="461" 
d="M206 553l-17 20l128 145l25 -29zM289 494q105 0 105 -132v-362h-42v354q0 54 -18 79t-56 25q-37 0 -74 -21.5t-93 -70.5v-366h-41v482h34l3 -84q96 96 182 96z" />
    <glyph glyph-name="Ncommaaccent" unicode="&#x145;" horiz-adv-x="558" 
d="M481 690v-670q0 -20 -18 -20h-54q-17 0 -22 15l-223 564q-5 12 -30 74h-15q1 -25 1 -75v-578h-43v670q0 20 19 20h51q18 0 23 -15l217 -551q20 -49 34 -86h19q-1 32 -1 94v558h42zM263 -63h12q14 0 15 -15l-1 -57q-2 -67 -18 -120l-18 6q5 60 5 102q-11 0 -11 13v56
q1 15 16 15z" />
    <glyph glyph-name="ncommaaccent" unicode="&#x146;" horiz-adv-x="461" 
d="M289 494q105 0 105 -132v-362h-42v354q0 54 -18 79t-56 25q-37 0 -74 -21.5t-93 -70.5v-366h-41v482h34l3 -84q96 96 182 96zM228 -63h11q15 0 15 -15v-58q-2 -65 -18 -120l-19 6q5 45 5 103q-12 0 -10 13v56q0 15 16 15z" />
    <glyph glyph-name="Ncaron" unicode="&#x147;" horiz-adv-x="558" 
d="M408 869l-111 -120h-23l-112 120l16 18l104 -98h7l104 98zM481 690v-670q0 -20 -18 -20h-54q-17 0 -22 15l-223 564q-5 12 -30 74h-15q1 -25 1 -75v-578h-43v670q0 20 19 20h51q18 0 23 -15l217 -551q20 -49 34 -86h19q-1 32 -1 94v558h42z" />
    <glyph glyph-name="ncaron" unicode="&#x148;" horiz-adv-x="461" 
d="M222 567l-112 120l16 18l104 -98h7l104 98l15 -18l-111 -120h-23zM289 494q105 0 105 -132v-362h-42v354q0 54 -18 79t-56 25q-37 0 -74 -21.5t-93 -70.5v-366h-41v482h34l3 -84q96 96 182 96z" />
    <glyph glyph-name="Eng" unicode="&#x14a;" horiz-adv-x="558" 
d="M481 690v-785q0 -125 -102 -125q-32 0 -60 7l4 26h44q74 0 74 94v93h-35q-14 0 -18 15l-223 561q-15 40 -29 75h-17q1 -25 1 -77v-574h-43v670q0 20 19 20h50q17 0 22 -15l217 -546q19 -48 35 -87h19v94v554h42z" />
    <glyph glyph-name="eng" unicode="&#x14b;" horiz-adv-x="461" 
d="M289 494q105 0 105 -132v-446q0 -125 -94 -125q-13 0 -55 8l5 26h37q65 0 65 94v435q0 54 -17.5 78.5t-56.5 24.5q-65 0 -167 -91v-366h-41v482h32l4 -86q98 98 183 98z" />
    <glyph glyph-name="Omacron" unicode="&#x14c;" 
d="M375 799h-215v33h215v-33zM267 702q116 0 163 -79.5t47 -277.5t-47 -277.5t-163 -79.5q-118 0 -164.5 79t-46.5 278t46.5 278t164.5 79zM267 665q-93 0 -130 -71t-37 -249t37 -249t130 -71q92 0 129 71t37 249t-37 249t-129 71z" />
    <glyph glyph-name="omacron" unicode="&#x14d;" horiz-adv-x="451" 
d="M335 618h-215v33h215v-33zM226 494q97 0 136 -57t39 -196q0 -140 -39 -196.5t-136 -56.5t-136.5 57t-39.5 196t39.5 196t136.5 57zM226 458q-74 0 -103.5 -47t-29.5 -170t29.5 -170.5t103.5 -47.5t103 47.5t29 170.5t-28.5 170t-103.5 47z" />
    <glyph glyph-name="Ohungarumlaut" unicode="&#x150;" 
d="M298 885l-100 -154l-21 15l89 161zM418 885l-99 -154l-20 15l88 161zM267 702q116 0 163 -79.5t47 -277.5t-47 -277.5t-163 -79.5q-118 0 -164.5 79t-46.5 278t46.5 278t164.5 79zM267 665q-93 0 -130 -71t-37 -249t37 -249t130 -71q92 0 129 71t37 249t-37 249t-129 71z
" />
    <glyph glyph-name="ohungarumlaut" unicode="&#x151;" horiz-adv-x="451" 
d="M258 704l-100 -154l-21 15l89 161zM378 704l-99 -154l-20 15l88 161zM226 494q97 0 136 -57t39 -196q0 -140 -39 -196.5t-136 -56.5t-136.5 57t-39.5 196t39.5 196t136.5 57zM226 458q-74 0 -103.5 -47t-29.5 -170t29.5 -170.5t103.5 -47.5t103 47.5t29 170.5t-28.5 170
t-103.5 47z" />
    <glyph glyph-name="OE" unicode="&#x152;" horiz-adv-x="722" 
d="M676 35l1 -31q-74 -4 -228 -4q-30 0 -53 21q-59 -33 -129 -33q-118 0 -164.5 79t-46.5 278t46.5 278t164.5 79q70 0 130 -32q23 20 55 20q153 0 225 -4l-1 -31h-211q-28 0 -44 -21t-16 -57v-191l238 -1v-33l-238 -1v-238q0 -36 16 -57t44 -21h211zM100 345
q0 -178 37 -249t130 -71q55 0 108 24q-13 28 -13 60v472q0 31 13 59q-50 25 -108 25q-93 0 -130 -70t-37 -250z" />
    <glyph glyph-name="oe" unicode="&#x153;" horiz-adv-x="734" 
d="M542 24q63 0 133 12l4 -28q-50 -20 -143 -20q-119 0 -155 94q-19 -50 -56 -72t-99 -22q-97 0 -136.5 57t-39.5 196t39.5 196t136.5 57q61 0 97.5 -21.5t55.5 -69.5q35 91 148 91q161 0 161 -140q1 -73 -25.5 -102.5t-91.5 -29.5h-170q3 -111 35.5 -154.5t105.5 -43.5z
M226 23q74 0 103 47.5t29 170.5t-28.5 170t-103.5 47q-74 0 -103.5 -47t-29.5 -170t29.5 -170.5t103.5 -47.5zM529 458q-70 0 -98.5 -45.5t-29.5 -158.5h168q44 0 61.5 22.5t16.5 76.5q-3 105 -118 105z" />
    <glyph glyph-name="Racute" unicode="&#x154;" horiz-adv-x="491" 
d="M230 734l-17 20l128 145l25 -29zM448 0h-45l-55 217q-12 47 -32 67t-51 20q-97 0 -145 3v-307h-43v690q67 8 184 8q93 0 130 -41t37 -154q0 -91 -23 -132t-78 -50v-5q44 -16 64 -96zM120 341h140q71 2 98.5 35.5t27.5 125.5q0 93 -27.5 126.5t-98.5 33.5q-76 0 -140 -2
v-319z" />
    <glyph glyph-name="racute" unicode="&#x155;" horiz-adv-x="313" 
d="M153 553l-17 20l128 145l25 -29zM297 494l-6 -38h-18q-35 0 -69.5 -20.5t-92.5 -67.5v-368h-41v482h32l5 -84q96 96 174 96h16z" />
    <glyph glyph-name="Rcommaaccent" unicode="&#x156;" horiz-adv-x="491" 
d="M448 0h-45l-55 217q-12 47 -32 67t-51 20q-97 0 -145 3v-307h-43v690q67 8 184 8q93 0 130 -41t37 -154q0 -91 -23 -132t-78 -50v-5q44 -16 64 -96zM120 341h140q71 2 98.5 35.5t27.5 125.5q0 93 -27.5 126.5t-98.5 33.5q-76 0 -140 -2v-319zM257 -63h12q14 0 15 -15
l-1 -57q-2 -67 -18 -120l-18 6q5 60 5 102q-11 0 -11 13v56q1 15 16 15z" />
    <glyph glyph-name="rcommaaccent" unicode="&#x157;" horiz-adv-x="313" 
d="M297 494l-6 -38h-18q-35 0 -69.5 -20.5t-92.5 -67.5v-368h-41v482h32l5 -84q96 96 174 96h16zM80 -63h12q14 0 15 -15l-1 -57q-2 -67 -18 -120l-18 6q5 60 5 102q-11 0 -11 13v56q1 15 16 15z" />
    <glyph glyph-name="Rcaron" unicode="&#x158;" horiz-adv-x="491" 
d="M247 749l-112 120l16 18l104 -98h7l104 98l15 -18l-111 -120h-23zM448 0h-45l-55 217q-12 47 -32 67t-51 20q-97 0 -145 3v-307h-43v690q67 8 184 8q93 0 130 -41t37 -154q0 -91 -23 -132t-78 -50v-5q44 -16 64 -96zM120 341h140q71 2 98.5 35.5t27.5 125.5
q0 93 -27.5 126.5t-98.5 33.5q-76 0 -140 -2v-319z" />
    <glyph glyph-name="rcaron" unicode="&#x159;" horiz-adv-x="313" 
d="M170 567l-112 120l16 18l104 -98h7l104 98l15 -18l-111 -120h-23zM102 482l5 -84q96 96 174 96h16l-6 -38h-18q-35 0 -69.5 -20.5t-92.5 -67.5v-368h-41v482h32z" />
    <glyph glyph-name="Sacute" unicode="&#x15a;" horiz-adv-x="447" 
d="M337 870l-136 -136l-17 20l128 145zM222 701q86 -2 156 -14l-3 -30q-112 7 -151 7q-28 0 -42.5 -1t-33 -5t-26.5 -13t-16 -24.5t-11 -39.5t-3 -59q0 -70 18.5 -101.5t61.5 -40.5l118 -25q61 -11 86 -53t25 -131q0 -60 -10 -97t-34.5 -55.5t-53 -24t-77.5 -5.5
q-91 0 -168 13l4 31q102 -8 165 -7q40 1 62 6t39 20t23.5 43.5t6.5 75.5q0 75 -18 106t-63 40l-120 25q-58 11 -83 54t-25 127q0 61 9.5 97.5t33.5 54t52 22.5t78 4z" />
    <glyph glyph-name="sacute" unicode="&#x15b;" horiz-adv-x="403" 
d="M316 689l-136 -136l-17 20l128 145zM192 494q89 -2 156 -13l-4 -29q-94 6 -148 7q-66 2 -88 -13.5t-22 -80.5q0 -47 14.5 -67t46.5 -26l122 -23q45 -9 67 -38.5t22 -86.5q0 -85 -35.5 -110t-123.5 -25q-77 0 -145 12l4 29q66 -7 136 -6q73 1 98.5 19.5t25.5 80.5
q0 45 -16.5 64.5t-48.5 26.5l-122 23q-45 8 -65.5 37.5t-20.5 89.5q0 84 32.5 107.5t114.5 21.5z" />
    <glyph glyph-name="Scedilla" unicode="&#x15e;" horiz-adv-x="447" 
d="M222 701q86 -2 156 -14l-3 -30q-112 7 -151 7q-28 0 -42.5 -1t-33 -5t-26.5 -13t-16 -24.5t-11 -39.5t-3 -59q0 -70 18.5 -101.5t61.5 -40.5l118 -25q61 -11 86 -53t25 -131q0 -60 -10 -97t-34.5 -55.5t-53 -24t-77.5 -5.5q-91 0 -168 13l4 31q102 -8 165 -7q40 1 62 6
t39 20t23.5 43.5t6.5 75.5q0 75 -18 106t-63 40l-120 25q-58 11 -83 54t-25 127q0 61 9.5 97.5t33.5 54t52 22.5t78 4zM194 -79l5 21q77 6 74 -65q-1 -55 -34.5 -86.5t-86.5 -23.5l7 23q36 -2 59 23t24 62q0 25 -10.5 35t-37.5 11z" />
    <glyph glyph-name="scedilla" unicode="&#x15f;" horiz-adv-x="403" 
d="M192 494q89 -2 156 -13l-4 -29q-94 6 -148 7q-66 2 -88 -13.5t-22 -80.5q0 -47 14.5 -67t46.5 -26l122 -23q45 -9 67 -38.5t22 -86.5q0 -85 -35.5 -110t-123.5 -25q-77 0 -145 12l4 29q66 -7 136 -6q73 1 98.5 19.5t25.5 80.5q0 45 -16.5 64.5t-48.5 26.5l-122 23
q-45 8 -65.5 37.5t-20.5 89.5q0 84 32.5 107.5t114.5 21.5zM165 -79l5 21q77 6 74 -65q-1 -55 -34.5 -86.5t-86.5 -23.5l7 23q36 -2 59 23t24 62q0 25 -10.5 35t-37.5 11z" />
    <glyph glyph-name="Scaron" unicode="&#x160;" horiz-adv-x="447" 
d="M352 869l-111 -120h-23l-112 120l16 18l104 -98h7l104 98zM222 701q86 -2 156 -14l-3 -30q-112 7 -151 7q-28 0 -42.5 -1t-33 -5t-26.5 -13t-16 -24.5t-11 -39.5t-3 -59q0 -70 18.5 -101.5t61.5 -40.5l118 -25q61 -11 86 -53t25 -131q0 -60 -10 -97t-34.5 -55.5t-53 -24
t-77.5 -5.5q-91 0 -168 13l4 31q102 -8 165 -7q40 1 62 6t39 20t23.5 43.5t6.5 75.5q0 75 -18 106t-63 40l-120 25q-58 11 -83 54t-25 127q0 61 9.5 97.5t33.5 54t52 22.5t78 4z" />
    <glyph glyph-name="scaron" unicode="&#x161;" horiz-adv-x="403" 
d="M331 687l-111 -120h-23l-112 120l16 18l104 -98h7l104 98zM192 494q89 -2 156 -13l-4 -29q-94 6 -148 7q-66 2 -88 -13.5t-22 -80.5q0 -47 14.5 -67t46.5 -26l122 -23q45 -9 67 -38.5t22 -86.5q0 -85 -35.5 -110t-123.5 -25q-77 0 -145 12l4 29q66 -7 136 -6
q73 1 98.5 19.5t25.5 80.5q0 45 -16.5 64.5t-48.5 26.5l-122 23q-45 8 -65.5 37.5t-20.5 89.5q0 84 32.5 107.5t114.5 21.5z" />
    <glyph glyph-name="Tcedilla" unicode="&#x162;" horiz-adv-x="457" 
d="M437 690v-36h-187v-654h-43v654h-187v36h417zM198 -68l5 21q77 6 74 -65q-1 -55 -34.5 -86.5t-86.5 -23.5l7 23q36 -2 59 23t24 62q0 25 -10.5 35t-37.5 11z" />
    <glyph glyph-name="tcedilla" unicode="&#x163;" horiz-adv-x="290" 
d="M136 448v-342q0 -76 59 -76h65l5 -29q-37 -8 -77 -8q-93 0 -93 109v346h-71v29l71 5v149h41v-149h134v-34h-134zM144 -75l5 21q77 6 74 -65q-1 -55 -34.5 -86.5t-86.5 -23.5l7 23q36 -2 59 23t24 62q0 25 -10.5 35t-37.5 11z" />
    <glyph glyph-name="Tcaron" unicode="&#x164;" horiz-adv-x="457" 
d="M218 749l-112 120l16 18l104 -98h7l104 98l15 -18l-111 -120h-23zM437 654h-187v-654h-43v654h-187v36h417v-36z" />
    <glyph glyph-name="tcaron" unicode="&#x165;" horiz-adv-x="290" 
d="M219 668q-11 0 -11 13v56q1 15 16 15h12q14 0 15 -15l-1 -57q-2 -67 -18 -120l-18 6q5 60 5 102zM136 448v-342q0 -76 59 -76h65l5 -29q-37 -8 -77 -8q-93 0 -93 109v346h-71v29l71 5v149h41v-149h134v-34h-134z" />
    <glyph glyph-name="Tbar" unicode="&#x166;" horiz-adv-x="458" 
d="M250 654v-230h116v-28h-116v-396h-43v396h-119v28h119v230h-187v36h417v-36h-187z" />
    <glyph glyph-name="tbar" unicode="&#x167;" horiz-adv-x="291" 
d="M136 448v-112h117v-27h-117v-203q0 -76 59 -76h65l5 -29q-37 -8 -77 -8q-93 0 -93 109v207h-56v27h56v112h-71v29l71 5v149h41v-149h134v-34h-134z" />
    <glyph glyph-name="Umacron" unicode="&#x16a;" horiz-adv-x="535" 
d="M376 799h-215v33h215v-33zM462 690v-433q0 -146 -44 -207.5t-149 -61.5q-107 0 -151.5 61.5t-44.5 207.5v433h43v-433q0 -128 34 -180t118 -52q83 0 117 52t34 180v433h43z" />
    <glyph glyph-name="umacron" unicode="&#x16b;" horiz-adv-x="453" 
d="M335 619h-215v33h215v-33zM383 482v-482h-33l-4 81q-93 -93 -174 -93q-105 0 -105 132v362h41v-354q0 -104 76 -104q35 0 70 21t88 69v368h41z" />
    <glyph glyph-name="Uring" unicode="&#x16e;" horiz-adv-x="535" 
d="M268 913q34 0 57.5 -28.5t23.5 -68.5q0 -41 -23.5 -69.5t-57.5 -28.5q-33 0 -57 28.5t-24 69.5q0 40 24 68.5t57 28.5zM268 888q-23 0 -38.5 -20.5t-15.5 -51.5q0 -32 15.5 -52t38.5 -20q24 0 39.5 20t15.5 52q0 31 -16 51.5t-39 20.5zM462 690v-433q0 -146 -44 -207.5
t-149 -61.5q-107 0 -151.5 61.5t-44.5 207.5v433h43v-433q0 -128 34 -180t118 -52q83 0 117 52t34 180v433h43z" />
    <glyph glyph-name="uring" unicode="&#x16f;" horiz-adv-x="453" 
d="M227 537q-33 0 -57 28.5t-24 69.5q0 40 24 68.5t57 28.5q34 0 57.5 -28.5t23.5 -68.5q0 -41 -23.5 -69.5t-57.5 -28.5zM227 707q-23 0 -38.5 -20.5t-15.5 -51.5q0 -32 15.5 -52t38.5 -20q24 0 39.5 20t15.5 52q0 31 -16 51.5t-39 20.5zM383 482v-482h-33l-4 81
q-93 -93 -174 -93q-105 0 -105 132v362h41v-354q0 -104 76 -104q35 0 70 21t88 69v368h41z" />
    <glyph glyph-name="Uhungarumlaut" unicode="&#x170;" horiz-adv-x="535" 
d="M300 885l-100 -154l-21 15l89 161zM420 885l-99 -154l-20 15l88 161zM462 690v-433q0 -146 -44 -207.5t-149 -61.5q-107 0 -151.5 61.5t-44.5 207.5v433h43v-433q0 -128 34 -180t118 -52q83 0 117 52t34 180v433h43z" />
    <glyph glyph-name="uhungarumlaut" unicode="&#x171;" horiz-adv-x="453" 
d="M158 551l-21 15l89 161l32 -22zM279 551l-20 15l88 161l31 -22zM383 482v-482h-33l-4 81q-93 -93 -174 -93q-105 0 -105 132v362h41v-354q0 -104 76 -104q35 0 70 21t88 69v368h41z" />
    <glyph glyph-name="Uogonek" unicode="&#x172;" horiz-adv-x="535" 
d="M462 690v-433q0 -135 -37 -197.5t-125 -70.5q-45 -57 -64 -121q-13 -44 7 -58t62 5l5 -18q-67 -32 -94.5 -8t-11.5 80q18 60 71 119h-6q-107 0 -151.5 61.5t-44.5 207.5v433h43v-433q0 -128 34 -180t118 -52q83 0 117 52t34 180v433h43z" />
    <glyph glyph-name="uogonek" unicode="&#x173;" horiz-adv-x="453" 
d="M387 -176l5 -18q-67 -32 -94.5 -8t-11.5 80q18 63 74 122h-10l-4 81q-93 -93 -174 -93q-105 0 -105 132v362h41v-354q0 -104 76 -104q35 0 70 21t88 69v368h41v-482q-47 -61 -65 -123q-13 -44 7 -58t62 5z" />
    <glyph glyph-name="Wcircumflex" unicode="&#x174;" horiz-adv-x="752" 
d="M500 765l-16 -19l-104 101h-6l-104 -101l-16 19l108 119h30zM727 690l-132 -676q-5 -14 -19 -14h-55q-16 0 -19 15l-102 564l-15 78h-18q-10 -52 -14 -78l-103 -564q-3 -15 -19 -15h-56q-15 0 -18 14l-131 676h44l110 -583q6 -27 13 -73h21q2 13 6.5 37t6.5 35l104 568
q3 16 18 16h53q16 0 19 -16l104 -567q2 -13 6.5 -37.5t6.5 -35.5h21q8 48 13 72l110 584h45z" />
    <glyph glyph-name="wcircumflex" unicode="&#x175;" horiz-adv-x="655" 
d="M450 583l-16 -19l-104 101h-6l-104 -101l-16 19l108 119h30zM632 482l-126 -469q-3 -13 -17 -13h-40q-15 0 -18 14l-83 365q-10 48 -17 73h-8q-3 -14 -8.5 -38.5t-7.5 -34.5l-84 -365q-2 -14 -17 -14h-39q-15 0 -18 13l-125 469h43l97 -385q5 -17 16 -67h11l15 68l84 370
q4 14 18 14h39q15 0 17 -14l84 -370q7 -28 16 -68h12q14 65 15 68l97 384h44z" />
    <glyph glyph-name="Ycircumflex" unicode="&#x176;" horiz-adv-x="443" 
d="M114 746l-16 19l108 119h30l108 -119l-16 -19l-104 101h-6zM243 253v-253h-43v253l-187 437h47l131 -317l28 -71h5l28 70l132 318h45z" />
    <glyph glyph-name="ycircumflex" unicode="&#x177;" horiz-adv-x="414" 
d="M101 564l-16 19l108 119h30l108 -119l-16 -19l-104 101h-6zM394 482l-167 -524q-23 -69 -56 -111t-89 -56l-6 25q45 20 70 57t43 93l12 34h-13q-12 0 -18 12l-150 470h44l122 -395q2 -9 7.5 -27t8.5 -27h10q16 47 18 55l120 394h44z" />
    <glyph glyph-name="Ydieresis" unicode="&#x178;" horiz-adv-x="443" 
d="M158 775h-15q-13 0 -13 14v56q0 14 13 14h15q13 0 13 -14v-56q0 -14 -13 -14zM300 775h-15q-13 0 -13 14v56q0 14 13 14h15q13 0 13 -14v-56q0 -14 -13 -14zM243 253v-253h-43v253l-187 437h47l131 -317l28 -71h5l28 70l132 318h45z" />
    <glyph glyph-name="Zacute" unicode="&#x179;" horiz-adv-x="450" 
d="M199 734l-17 20l128 145l25 -29zM411 36v-36h-371v36l322 618h-318v36h362v-36l-321 -618h326z" />
    <glyph glyph-name="zacute" unicode="&#x17a;" horiz-adv-x="405" 
d="M176 553l-17 20l128 145l25 -29zM364 34v-34h-323v34l277 413h-275v35h318v-35l-276 -413h279z" />
    <glyph glyph-name="Zdotaccent" unicode="&#x17b;" horiz-adv-x="450" 
d="M234 770h-14q-15 0 -15 15v61q0 15 15 15h14q15 0 15 -15v-61q0 -15 -15 -15zM411 36v-36h-371v36l322 618h-318v36h362v-36l-321 -618h326z" />
    <glyph glyph-name="zdotaccent" unicode="&#x17c;" horiz-adv-x="405" 
d="M211 589h-14q-15 0 -15 15v61q0 15 15 15h14q15 0 15 -15v-61q0 -15 -15 -15zM364 34v-34h-323v34l277 413h-275v35h318v-35l-276 -413h279z" />
    <glyph glyph-name="Zcaron" unicode="&#x17d;" horiz-adv-x="450" 
d="M216 749l-112 120l16 18l104 -98h7l104 98l15 -18l-111 -120h-23zM411 36v-36h-371v36l322 618h-318v36h362v-36l-321 -618h326z" />
    <glyph glyph-name="zcaron" unicode="&#x17e;" horiz-adv-x="405" 
d="M193 567l-112 120l16 18l104 -98h7l104 98l15 -18l-111 -120h-23zM364 34v-34h-323v34l277 413h-275v35h318v-35l-276 -413h279z" />
    <glyph glyph-name="florin" unicode="&#x192;" horiz-adv-x="337" 
d="M320 665h-57q-43 0 -62 -23t-23 -81l-13 -173h126l-4 -34h-125l-26 -353q-5 -68 -30.5 -101.5t-79.5 -33.5q-46 0 -70 5l4 29h56q39 0 56.5 23.5t22.5 80.5l26 350h-77l2 30l78 4l13 176q5 68 33 101.5t84 33.5q46 0 70 -4z" />
    <glyph glyph-name="Scommaaccent" unicode="&#x218;" horiz-adv-x="447" 
d="M222 701q86 -2 156 -14l-3 -30q-112 7 -151 7q-28 0 -42.5 -1t-33 -5t-26.5 -13t-16 -24.5t-11 -39.5t-3 -59q0 -70 18.5 -101.5t61.5 -40.5l118 -25q61 -11 86 -53t25 -131q0 -60 -10 -97t-34.5 -55.5t-53 -24t-77.5 -5.5q-91 0 -168 13l4 31q102 -8 165 -7q40 1 62 6
t39 20t23.5 43.5t6.5 75.5q0 75 -18 106t-63 40l-120 25q-58 11 -83 54t-25 127q0 61 9.5 97.5t33.5 54t52 22.5t78 4zM227 -63h12q14 0 15 -15l-1 -57q-2 -67 -18 -120l-18 6q5 60 5 102q-11 0 -11 13v56q1 15 16 15z" />
    <glyph glyph-name="scommaaccent" unicode="&#x219;" horiz-adv-x="403" 
d="M192 494q89 -2 156 -13l-4 -29q-94 6 -148 7q-66 2 -88 -13.5t-22 -80.5q0 -47 14.5 -67t46.5 -26l122 -23q45 -9 67 -38.5t22 -86.5q0 -85 -35.5 -110t-123.5 -25q-77 0 -145 12l4 29q66 -7 136 -6q73 1 98.5 19.5t25.5 80.5q0 45 -16.5 64.5t-48.5 26.5l-122 23
q-45 8 -65.5 37.5t-20.5 89.5q0 84 32.5 107.5t114.5 21.5zM204 -63h12q14 0 15 -15l-1 -57q-2 -67 -18 -120l-18 6q5 60 5 102q-11 0 -11 13v56q1 15 16 15z" />
    <glyph glyph-name="uni021A" unicode="&#x21a;" horiz-adv-x="457" 
d="M437 654h-187v-654h-43v654h-187v36h417v-36zM216 -63h12q14 0 15 -15l-1 -57q-2 -67 -18 -120l-18 6q5 60 5 102q-11 0 -11 13v56q1 15 16 15z" />
    <glyph glyph-name="uni021B" unicode="&#x21b;" horiz-adv-x="290" 
d="M136 448v-342q0 -76 59 -76h65l5 -29q-37 -8 -77 -8q-93 0 -93 109v346h-71v29l71 5v149h41v-149h134v-34h-134zM179 -63h12q14 0 15 -15l-1 -57q-2 -67 -18 -120l-18 6q5 60 5 102q-11 0 -11 13v56q1 15 16 15z" />
    <glyph glyph-name="circumflex" unicode="&#x2c6;" horiz-adv-x="324" 
d="M285 587l-16 -19l-104 101h-6l-104 -101l-16 19l108 119h30z" />
    <glyph glyph-name="caron" unicode="&#x2c7;" horiz-adv-x="324" 
d="M285 691l-111 -120h-23l-112 120l16 18l104 -98h7l104 98z" />
    <glyph glyph-name="breve" unicode="&#x2d8;" horiz-adv-x="292" 
d="M237 689l23 -4q1 -55 -29.5 -87t-83.5 -32q-54 0 -85 32t-29 87l23 4q0 -42 24 -65.5t67 -23.5q42 0 66 23.5t24 65.5z" />
    <glyph glyph-name="dotaccent" unicode="&#x2d9;" horiz-adv-x="170" 
d="M78 678h14q15 0 15 -15v-61q0 -15 -15 -15h-14q-15 0 -15 15v61q0 15 15 15z" />
    <glyph glyph-name="ring" unicode="&#x2da;" horiz-adv-x="237" 
d="M118 735q34 0 57.5 -28.5t23.5 -68.5q0 -41 -23.5 -69.5t-57.5 -28.5q-33 0 -57 28.5t-24 69.5q0 40 24 68.5t57 28.5zM118 710q-23 0 -38.5 -20.5t-15.5 -51.5q0 -32 15.5 -52t38.5 -20q24 0 39.5 20t15.5 52q0 31 -16 51.5t-39 20.5z" />
    <glyph glyph-name="ogonek" unicode="&#x2db;" horiz-adv-x="202" 
d="M117 2l21 -2q-47 -61 -65 -123q-13 -44 7 -58t62 5l5 -18q-67 -32 -94.5 -8t-11.5 80q18 63 76 124z" />
    <glyph glyph-name="tilde" unicode="&#x2dc;" horiz-adv-x="327" 
d="M104 690q25 -3 59 -32.5t57 -32.5q23 -2 33 12t10 48h21q3 -46 -14 -70.5t-47 -21.5q-29 3 -63.5 33t-52.5 32q-23 4 -33 -12t-10 -51h-22q-2 48 15.5 73t46.5 22z" />
    <glyph glyph-name="hungarumlaut" unicode="&#x2dd;" horiz-adv-x="344" 
d="M169 698l-100 -154l-21 15l89 161zM289 698l-99 -154l-20 15l88 161z" />
    <glyph glyph-name="Delta" unicode="&#x394;" horiz-adv-x="496" 
d="M471 26v-26h-446v26l201 664h44zM248 648q-10 -41 -19 -71l-156 -542h350l-155 543q-7 20 -20 70z" />
    <glyph glyph-name="Omega" unicode="&#x3a9;" horiz-adv-x="576" 
d="M289 702q114 0 166.5 -84.5t52.5 -256.5q0 -120 -29 -194.5t-95 -131.5q19 1 51 1h98v-36h-191v35q67 58 94.5 132t27.5 190q0 159 -42 233.5t-134 74.5q-94 0 -135 -74t-41 -236q0 -120 28 -189t94 -131v-35h-191v36h98q33 0 51 -1q-66 56 -95 132t-29 194q0 173 52 257
t169 84z" />
    <glyph glyph-name="mu" unicode="&#x3bc;" horiz-adv-x="468" 
d="M391 482v-482h-32l-5 83q-85 -95 -169 -95q-49 0 -76 29q3 -34 3 -72v-153h-37v690h41v-354q0 -102 79 -102q35 0 69.5 20t85.5 67v369h41z" />
    <glyph glyph-name="pi" unicode="&#x3c0;" horiz-adv-x="514" 
d="M490 448h-82v-448h-41v448h-220v-448h-41v448h-83v34h468z" />
    <glyph glyph-name="uni0401" unicode="&#x401;" horiz-adv-x="445" 
d="M185 799h-15q-13 0 -13 14v56q0 14 13 14h15q12 0 12 -14v-56q0 -14 -12 -14zM327 799h-15q-13 0 -13 14v56q0 14 13 14h15q12 0 12 -14v-56q0 -14 -12 -14zM399 35l2 -31q-76 -4 -236 -4q-42 0 -67.5 29.5t-25.5 76.5v478q0 47 25.5 76.5t67.5 29.5q160 0 236 -4l-2 -31
h-227q-27 0 -42 -21t-15 -57v-191l252 -1v-33l-252 -1v-238q0 -36 15 -57t42 -21h227z" />
    <glyph glyph-name="uni0402" unicode="&#x402;" horiz-adv-x="601" 
d="M425 435q66 0 100.5 -48t34.5 -160q0 -124 -53 -178t-151 -49l-4 29q84 6 124.5 47t40.5 148q0 99 -24.5 136.5t-79.5 37.5q-45 0 -80.5 -17t-82.5 -57v-324h-43v654h-187v36h417v-36h-187v-293q85 74 175 74z" />
    <glyph glyph-name="uni0403" unicode="&#x403;" horiz-adv-x="413" 
d="M353 870l-136 -136l-17 20l128 145zM165 690q154 0 229 -5l-2 -30h-215q-28 0 -44 -21.5t-16 -58.5v-575h-43v581q0 48 26 78.5t65 30.5z" />
    <glyph glyph-name="uni0404" unicode="&#x404;" horiz-adv-x="460" 
d="M419 38l6 -31q-64 -19 -153 -19q-119 0 -167.5 80t-48.5 277t48.5 277t167.5 80q87 0 147 -18l-6 -31q-63 12 -141 12q-90 0 -129 -62.5t-43 -216.5l247 -1v-32l-247 -1v-7q0 -179 38 -249.5t134 -70.5q85 0 147 13z" />
    <glyph glyph-name="uni0405" unicode="&#x405;" horiz-adv-x="447" 
d="M222 701q86 -2 156 -14l-3 -30q-112 7 -151 7q-28 0 -42.5 -1t-33 -5t-26.5 -13t-16 -24.5t-11 -39.5t-3 -59q0 -70 18.5 -101.5t61.5 -40.5l118 -25q61 -11 86 -53t25 -131q0 -60 -10 -97t-34.5 -55.5t-53 -24t-77.5 -5.5q-91 0 -168 13l4 31q102 -8 165 -7q40 1 62 6
t39 20t23.5 43.5t6.5 75.5q0 75 -18 106t-63 40l-120 25q-58 11 -83 54t-25 127q0 61 9.5 97.5t33.5 54t52 22.5t78 4z" />
    <glyph glyph-name="uni0406" unicode="&#x406;" horiz-adv-x="197" 
d="M120 0h-43v690h43v-690z" />
    <glyph glyph-name="uni0407" unicode="&#x407;" horiz-adv-x="196" 
d="M19 859h15q13 0 13 -14v-56q0 -14 -13 -14h-15q-13 0 -13 14v56q0 14 13 14zM161 859h15q13 0 13 -14v-56q0 -14 -13 -14h-15q-12 0 -12 14v56q0 14 12 14zM119 0h-42v690h42v-690z" />
    <glyph glyph-name="uni0408" unicode="&#x408;" horiz-adv-x="266" 
d="M191 690v-567q0 -130 -102 -130q-29 0 -61 8l5 28h44q72 0 72 94v567h42z" />
    <glyph glyph-name="uni0409" unicode="&#x409;" horiz-adv-x="775" 
d="M428 391h132q98 0 135.5 -45t37.5 -155q0 -115 -37.5 -157t-130.5 -42q-115 0 -180 8v655h-121q-57 0 -63 -80q-11 -172 -16 -230.5t-16 -119.5t-32 -107q-44 -105 -113 -118l-5 29q45 27 79 101q29 66 38.5 139.5t24.5 310.5q8 110 98 110h169v-299zM560 29
q74 0 101.5 32.5t27.5 130.5q0 92 -26.5 127.5t-102.5 35.5h-132v-325q31 -1 132 -1z" />
    <glyph glyph-name="uni040A" unicode="&#x40a;" horiz-adv-x="787" 
d="M439 389h132q98 0 136 -44.5t38 -153.5q0 -115 -37.5 -157t-130.5 -42q-115 0 -180 8v354h-277v-354h-43v690h43v-301h277v301h42v-301zM571 29q75 0 102.5 32.5t27.5 129.5q0 92 -27 127.5t-103 35.5h-132v-324q31 -1 132 -1z" />
    <glyph glyph-name="uni040B" unicode="&#x40b;" horiz-adv-x="628" 
d="M457 435q120 0 120 -148v-287h-42v280q0 62 -21.5 90t-69.5 28q-53 0 -96 -16.5t-98 -58.5v-323h-43v654h-187v36h417v-36h-187v-294q101 75 207 75z" />
    <glyph glyph-name="uni040C" unicode="&#x40c;" horiz-adv-x="470" 
d="M224 734l-17 20l128 145l25 -29zM239 361v-2q21 -2 39.5 -12t34.5 -32t28 -41t26.5 -58.5t23 -63.5t25 -75.5t24.5 -76.5h-46q-7 21 -19.5 62t-18.5 59.5t-17.5 52t-19 49.5t-19.5 39.5t-23 35t-25 24t-30 17t-35 4.5h-71q3 -43 3 -83v-260h-42v690h42v-231q0 -45 -4 -82
h73q34 0 62 22t49.5 65.5t37 87t35.5 105.5q2 7 3 11t3 10.5t4 11.5h43q-5 -15 -16 -50.5t-16.5 -52t-16 -47.5t-18 -47t-18.5 -39.5t-21.5 -36.5t-23 -27t-27 -20.5t-29.5 -8.5z" />
    <glyph glyph-name="uni040D" unicode="&#x40d;" horiz-adv-x="550" 
d="M313 754l-16 -20l-137 136l25 29zM472 0h-42v558q0 48 1 73h-2q-11 -30 -28 -66l-271 -565h-53v690h42v-554q0 -26 -2 -76h2q5 10 16 34.5t16 35.5l267 560h54v-690z" />
    <glyph glyph-name="uni040E" unicode="&#x40e;" horiz-adv-x="439" 
d="M221 752q-54 0 -85 32t-29 87l23 4q0 -42 24 -65.5t67 -23.5q42 0 66 23.5t24 65.5l23 -4q1 -55 -29.5 -87t-83.5 -32zM425 690l-156 -527q-33 -102 -54 -132q-26 -34 -58 -37q-45 -4 -87 12l6 29q28 -5 44.5 -7t32 3t23 11t17.5 26.5t16 39t18 58.5l12 38h-34
q-36 0 -47 38l-135 448h44l127 -430q6 -21 22 -21h35l130 451h44z" />
    <glyph glyph-name="uni040F" unicode="&#x40f;" horiz-adv-x="537" 
d="M460 690v-690h-172l-3 -151h-29l-4 151h-175v690h43v-655h297v655h43z" />
    <glyph glyph-name="uni0410" unicode="&#x410;" horiz-adv-x="490" 
d="M367 243h-244l-66 -243h-45l190 677q2 13 17 13h52q14 0 17 -13l190 -677h-45zM357 279l-87 321l-15 56h-20l-15 -56l-87 -321h224z" />
    <glyph glyph-name="uni0411" unicode="&#x411;" horiz-adv-x="478" 
d="M120 376h138q98 0 136 -43t38 -150q0 -113 -40.5 -152t-138.5 -39q-108 0 -175 8h-1v690q92 5 165 5q70 0 162 -5l-5 -34h-279v-280zM258 28q75 0 102.5 31.5t27.5 124.5q0 89 -27 123t-103 34h-138v-312q32 -1 138 -1z" />
    <glyph glyph-name="uni0412" unicode="&#x412;" horiz-adv-x="494" 
d="M330 360v-4q60 -7 85.5 -52.5t25.5 -131.5q0 -104 -38 -142t-135 -38q-122 0 -191 8v690q59 8 166 8q102 0 141.5 -37.5t39.5 -142.5q0 -75 -22 -113.5t-72 -44.5zM383 515q0 88 -30.5 117.5t-110.5 29.5q-94 0 -123 -1v-287h137q72 1 99.5 29.5t27.5 111.5zM263 28
q77 0 105.5 30t28.5 118q0 95 -30.5 129t-109.5 36h-138v-311q66 -2 144 -2z" />
    <glyph glyph-name="uni0413" unicode="&#x413;" horiz-adv-x="413" 
d="M165 690q154 0 229 -5l-2 -30h-215q-28 0 -44 -21.5t-16 -58.5v-575h-43v581q0 48 26 78.5t65 30.5z" />
    <glyph glyph-name="uni0414" unicode="&#x414;" horiz-adv-x="539" 
d="M511 35v-186h-30l-5 151h-421l-6 -151h-30v186h45q83 191 92 545q2 53 26.5 81.5t70.5 28.5h191v-655h67zM401 35v620h-142q-59 0 -62 -78q-11 -354 -91 -542h295z" />
    <glyph glyph-name="uni0415" unicode="&#x415;" horiz-adv-x="445" 
d="M399 35l2 -31q-76 -4 -236 -4q-42 0 -67.5 29.5t-25.5 76.5v478q0 47 25.5 76.5t67.5 29.5q160 0 236 -4l-2 -31h-227q-27 0 -42 -21t-15 -57v-191l252 -1v-33l-252 -1v-238q0 -36 15 -57t42 -21h227z" />
    <glyph glyph-name="uni0416" unicode="&#x416;" horiz-adv-x="714" 
d="M484 361v-2q17 -1 32 -7.5t28.5 -20.5t24 -27t22 -37.5t19.5 -42.5t19 -51t17.5 -53t18.5 -59.5t19 -60.5h-45q-7 22 -19.5 61.5t-19 59.5t-17.5 52.5t-19 49t-19.5 40t-22 35t-24.5 23.5t-29.5 17t-33.5 5h-60q5 -36 5 -83v-260h-40v260q0 44 4 83h-64q-18 0 -33.5 -5
t-29.5 -17t-25 -23.5t-22.5 -35t-19.5 -40t-19 -49t-17.5 -52.5t-19 -59.5t-19.5 -61.5h-45q7 22 19 60.5t19 59.5t18 53.5t19 50.5t19.5 42t22 37.5t24 27.5t28.5 20.5t32 7.5v2q-15 2 -29.5 8.5t-27 20.5t-23 26.5t-22 37t-18.5 39.5t-18 47.5t-16 47.5t-17 52t-16 50h43
q5 -14 16.5 -50.5t17 -51.5t16.5 -46.5t18 -46t19 -38t22 -34.5t23.5 -23.5t28 -17.5t30.5 -5h66q-4 37 -4 82v231h40v-231q0 -47 -5 -82h61q26 0 49.5 16t39.5 38.5t33.5 62.5t28.5 72.5t27 82.5q9 27 13 41h44q-5 -15 -16 -50t-17 -52t-16.5 -47.5t-18 -47t-19 -40
t-21.5 -36.5t-23 -27t-27 -20.5t-29 -8.5z" />
    <glyph glyph-name="uni0417" unicode="&#x417;" horiz-adv-x="438" 
d="M188 698q102 0 141 -37.5t39 -142.5q0 -147 -94 -158v-4q60 -6 85 -52t25 -132q0 -104 -38 -142t-134 -38q-104 0 -180 16l5 30q6 0 37 -3t65 -5t68 -2q76 0 104.5 30t28.5 118q0 95 -30.5 130t-109.5 35h-86v33h86q71 0 98 29.5t27 111.5q0 88 -30 117.5t-109 29.5
q-38 0 -87.5 -4t-50.5 -4l-4 30q67 14 144 14z" />
    <glyph glyph-name="uni0418" unicode="&#x418;" horiz-adv-x="550" 
d="M472 0h-42v558q0 48 1 73h-2q-11 -30 -28 -66l-271 -565h-53v690h42v-554q0 -26 -2 -76h2q5 10 16 34.5t16 35.5l267 560h54v-690z" />
    <glyph glyph-name="uni0419" unicode="&#x419;" horiz-adv-x="550" 
d="M357 878h33q2 -56 -29 -91t-84 -35t-84.5 35t-29.5 91h33q0 -48 21.5 -74t59.5 -26q37 0 58.5 26.5t21.5 73.5zM472 0h-42v558q0 48 1 73h-2q-11 -30 -28 -66l-271 -565h-53v690h42v-554q0 -26 -2 -76h2q5 10 16 34.5t16 35.5l267 560h54v-690z" />
    <glyph glyph-name="uni041A" unicode="&#x41a;" horiz-adv-x="470" 
d="M239 361v-2q21 -2 39.5 -12t34.5 -32t28 -41t26.5 -58.5t23 -63.5t25 -75.5t24.5 -76.5h-46q-7 21 -19.5 62t-18.5 59.5t-17.5 52t-19 49.5t-19.5 39.5t-23 35t-25 24t-30 17t-35 4.5h-71q3 -43 3 -83v-260h-42v690h42v-231q0 -45 -4 -82h73q34 0 62 22t49.5 65.5t37 87
t35.5 105.5q2 7 3 11t3 10.5t4 11.5h43q-5 -15 -16 -50.5t-16.5 -52t-16 -47.5t-18 -47t-18.5 -39.5t-21.5 -36.5t-23 -27t-27 -20.5t-29.5 -8.5z" />
    <glyph glyph-name="uni041B" unicode="&#x41b;" horiz-adv-x="514" 
d="M437 690v-690h-43v655h-136q-58 0 -64 -80q-15 -232 -25.5 -312t-39.5 -146q-45 -100 -114 -117l-5 32q48 26 79 98q28 66 38 139.5t26 311.5q8 109 96 109h188z" />
    <glyph glyph-name="uni041C" unicode="&#x41c;" horiz-adv-x="693" 
d="M529 690h55q20 0 20 -21l24 -669h-43l-22 655h-18l-155 -576q-5 -14 -19 -14h-49q-15 0 -20 14l-154 576h-18l-22 -655h-43l24 669q0 21 19 21h56q14 0 19 -14l130 -484l24 -93h18q20 72 26 95l129 482q3 14 19 14z" />
    <glyph glyph-name="uni041D" unicode="&#x41d;" horiz-adv-x="532" 
d="M455 690v-690h-43v352h-292v-352h-43v690h43v-302h292v302h43z" />
    <glyph glyph-name="uni041E" unicode="&#x41e;" 
d="M267 702q116 0 163 -79.5t47 -277.5t-47 -277.5t-163 -79.5q-118 0 -164.5 79t-46.5 278t46.5 278t164.5 79zM267 665q-93 0 -130 -71t-37 -249t37 -249t130 -71q92 0 129 71t37 249t-37 249t-129 71z" />
    <glyph glyph-name="uni041F" unicode="&#x41f;" 
d="M456 690v-690h-42v655h-294v-655h-43v690h379z" />
    <glyph glyph-name="uni0420" unicode="&#x420;" horiz-adv-x="469" 
d="M261 698q94 0 130.5 -43.5t36.5 -162.5q0 -120 -35.5 -163t-128.5 -43q-87 0 -144 5v-291h-43v690q67 8 184 8zM120 322h139q71 0 98.5 35.5t27.5 134.5t-27.5 134.5t-98.5 35.5q-107 0 -139 -2v-338z" />
    <glyph glyph-name="uni0421" unicode="&#x421;" horiz-adv-x="453" 
d="M266 702q84 0 144 -18l-6 -30q-63 11 -138 11q-93 0 -129.5 -70.5t-36.5 -249.5t36.5 -249.5t129.5 -70.5q87 0 149 13l7 -31q-66 -19 -156 -19q-117 0 -163.5 79.5t-46.5 277.5t46.5 277.5t163.5 79.5z" />
    <glyph glyph-name="uni0422" unicode="&#x422;" horiz-adv-x="457" 
d="M437 654h-187v-654h-43v654h-187v36h417v-36z" />
    <glyph glyph-name="uni0423" unicode="&#x423;" horiz-adv-x="439" 
d="M425 690l-156 -527q-33 -102 -54 -132q-26 -34 -58 -37q-45 -4 -87 12l6 29q28 -5 44.5 -7t32 3t23 11t17.5 26.5t16 39t18 58.5l12 38h-34q-36 0 -47 38l-135 448h44l127 -430q6 -21 22 -21h35l130 451h44z" />
    <glyph glyph-name="uni0424" unicode="&#x424;" horiz-adv-x="658" 
d="M607 354q0 -159 -57.5 -225t-198.5 -71v-103h-43v103q-142 4 -199.5 70.5t-57.5 225.5q0 160 57.5 226.5t199.5 70.5v104h42l1 -104q141 -5 198.5 -71t57.5 -226zM95 354q0 -144 46.5 -200t167.5 -60v522q-121 -4 -167.5 -60.5t-46.5 -201.5zM349 616v-522q120 4 167 60
t47 200q0 145 -47 201.5t-167 60.5z" />
    <glyph glyph-name="uni0425" unicode="&#x425;" horiz-adv-x="481" 
d="M252 343h-23l-157 -343h-46l166 359l-156 331h46l146 -313h25l146 313h47l-157 -331l167 -359h-47z" />
    <glyph glyph-name="uni0426" unicode="&#x426;" horiz-adv-x="546" 
d="M518 35v-186h-30l-7 151h-404v690h43v-655h288v655h43v-655h67z" />
    <glyph glyph-name="uni0427" unicode="&#x427;" horiz-adv-x="493" 
d="M416 690v-690h-43v340q-98 -76 -203 -76q-117 0 -117 147v279h43v-272q0 -61 20.5 -89t66.5 -28q51 0 93 16.5t97 57.5v315h43z" />
    <glyph glyph-name="uni0428" unicode="&#x428;" horiz-adv-x="734" 
d="M656 690v-690h-579v690h42v-655h227v655h42v-655h226v655h42z" />
    <glyph glyph-name="uni0429" unicode="&#x429;" horiz-adv-x="744" 
d="M716 35v-186h-30l-5 151h-604v690h42v-655h223v655h42v-655h223v655h42v-655h67z" />
    <glyph glyph-name="uni042A" unicode="&#x42a;" horiz-adv-x="597" 
d="M245 391h138q97 0 134.5 -45t37.5 -155q0 -115 -37 -157t-131 -42q-118 0 -185 8v654h-182v36h225v-299zM383 29q74 0 101.5 32.5t27.5 129.5q0 92 -26.5 128t-102.5 36h-138v-325q32 -1 138 -1z" />
    <glyph glyph-name="uni042B" unicode="&#x42b;" horiz-adv-x="663" 
d="M120 391h138q98 0 135.5 -45t37.5 -155q0 -115 -37.5 -157t-130.5 -42q-118 0 -185 8h-1v690h43v-299zM585 690v-690h-42v690h42zM258 29q75 0 102.5 32.5t27.5 129.5q0 92 -27 128t-103 36h-138v-325q32 -1 138 -1z" />
    <glyph glyph-name="uni042C" unicode="&#x42c;" horiz-adv-x="474" 
d="M120 391h138q98 0 135.5 -45t37.5 -155q0 -115 -37.5 -157t-130.5 -42q-118 0 -185 8h-1v690h43v-299zM258 29q75 0 102.5 32.5t27.5 129.5q0 92 -27 128t-103 36h-138v-325q32 -1 138 -1z" />
    <glyph glyph-name="uni042D" unicode="&#x42d;" horiz-adv-x="460" 
d="M187 702q120 0 168.5 -80t48.5 -277t-48.5 -277t-168.5 -80q-88 0 -152 19l6 31q62 -13 147 -13q96 0 134 70.5t38 249.5v7l-247 1v32l247 1q-4 154 -43 216.5t-129 62.5q-79 0 -142 -12l-6 31q61 18 147 18z" />
    <glyph glyph-name="uni042E" unicode="&#x42e;" horiz-adv-x="727" 
d="M460 702q118 0 164.5 -79t46.5 -278t-46.5 -278t-164.5 -79q-111 0 -156 79t-45 275h-139v-342h-43v690h43v-313h139q4 180 49 252.5t152 72.5zM460 25q94 0 130.5 70.5t36.5 249.5t-36.5 249.5t-130.5 70.5q-88 0 -123 -70.5t-35 -249.5t35 -249.5t123 -70.5z" />
    <glyph glyph-name="uni042F" unicode="&#x42f;" horiz-adv-x="487" 
d="M232 698q114 0 178 -8v-690h-43v298q-48 -3 -145 -3q-59 0 -83 -87l-53 -208h-47l57 211q22 78 68 96l-1 5q-48 9 -73 60.5t-25 122.5q0 112 39 157.5t128 45.5zM367 331v329q-31 2 -134 2q-67 0 -96 -37t-29 -132q0 -162 116 -162h143z" />
    <glyph glyph-name="uni0430" unicode="&#x430;" horiz-adv-x="436" 
d="M250 494q58 0 88 -33t30 -107v-354h-31l-7 87q-28 -36 -76.5 -65t-98.5 -29t-78.5 33t-28.5 92v60q0 55 26 85t73 30h181v61q-1 50 -20 77t-65 27q-64 0 -175 -15l-4 30q124 21 186 21zM161 30q38 -1 84.5 24.5t82.5 65.5v141l-175 -3q-63 -1 -63 -83v-54q0 -89 71 -91z
" />
    <glyph glyph-name="uni0431" unicode="&#x431;" horiz-adv-x="455" 
d="M371 734l11 -30q-21 -17 -43.5 -29.5t-35.5 -17.5t-39.5 -13.5t-34.5 -11.5q-69 -25 -95 -75t-33 -138q-3 -24 -5 -69h1q13 51 46 84.5t108 33.5q84 0 118 -53.5t34 -184.5q0 -59 -7 -100t-25 -75t-52.5 -50.5t-85.5 -16.5q-47 0 -79 15t-49.5 38t-27 66.5t-12 83
t-2.5 104.5q0 177 29 255.5t124 114.5q13 4 38 11.5t38.5 12.5t35.5 16.5t43 28.5zM240 433q-79 0 -106.5 -49.5t-27.5 -150.5q0 -117 29 -163t100 -46q70 0 97.5 45.5t27.5 164.5q0 112 -26 155.5t-94 43.5z" />
    <glyph glyph-name="uni0432" unicode="&#x432;" horiz-adv-x="441" 
d="M294 249v-2q53 -5 75.5 -36.5t22.5 -91.5q0 -72 -34 -98.5t-119 -26.5q-105 0 -169 6v481q56 6 147 6q90 0 125.5 -27t35.5 -102q0 -52 -20 -78.5t-64 -30.5zM338 356q0 58 -26.5 77.5t-95.5 19.5q-81 0 -107 -1v-189h119q63 1 86.5 19.5t23.5 73.5zM234 27q66 0 91 20
t25 78q0 62 -27 85t-95 23h-119v-205q29 -1 125 -1z" />
    <glyph glyph-name="uni0433" unicode="&#x433;" horiz-adv-x="360" 
d="M148 482q128 0 191 -4l-1 -30h-175q-54 0 -54 -71v-377h-41v385q0 46 21 71.5t59 25.5z" />
    <glyph glyph-name="uni0434" unicode="&#x434;" horiz-adv-x="454" 
d="M417 33v-178h-28l-5 145h-327l-5 -145h-28v178h36q63 130 72 352q3 97 85 97h152v-449h48zM329 33v416h-105q-51 0 -54 -68q-11 -225 -72 -348h231z" />
    <glyph glyph-name="uni0435" unicode="&#x435;" horiz-adv-x="428" 
d="M234 24q64 0 134 12l4 -28q-52 -20 -143 -20q-96 0 -137 58.5t-41 196.5t39.5 194.5t132.5 56.5q156 0 158 -142q2 -131 -87 -131h-200q3 -110 35.5 -153.5t104.5 -43.5zM224 458q-71 0 -100 -45t-30 -159h192q56 0 54 96q-1 57 -29 82.5t-87 25.5z" />
    <glyph glyph-name="uni0436" unicode="&#x436;" horiz-adv-x="620" 
d="M431 252v-1q27 -3 48.5 -19.5t38.5 -49.5t29.5 -67t30.5 -87q2 -6 3 -9.5t3 -9t3 -9.5h-42q-5 14 -15.5 43.5t-15 42t-13 36t-14 33.5t-14.5 26.5t-17 23.5t-18 15.5t-21.5 11.5t-24.5 3h-65q4 -25 4 -55v-180h-37v180q0 30 4 55h-69q-13 0 -24.5 -3t-21.5 -11.5
t-18 -15.5t-17 -23.5t-14.5 -26.5t-14 -33.5t-13 -36t-15 -42t-15.5 -43.5h-43q47 139 64 173q39 72 92 78v1q-33 4 -60 38.5t-40 66t-37 102.5q-5 15 -8 23h42q43 -124 64 -159q35 -55 81 -56h66q-3 19 -3 58v157h37v-157q0 -29 -3 -58h62q17 0 31.5 6t27.5 22.5t21.5 29
t21 42.5t17.5 44t18 51q5 13 7 20h43q-43 -127 -64 -163q-35 -61 -82 -67z" />
    <glyph glyph-name="uni0437" unicode="&#x437;" horiz-adv-x="388" 
d="M157 488q95 0 131 -26t36 -100q0 -53 -18 -80.5t-64 -32.5v-2q51 -5 73 -35.5t22 -92.5q0 -67 -36.5 -96.5t-123.5 -29.5q-85 0 -142 12l4 30q94 -7 135 -7q68 0 94 22t26 75q0 61 -25.5 83t-92.5 23l-83 1v30l83 1q63 1 85.5 20t22.5 74q0 59 -26.5 77.5t-103.5 18.5
q-68 0 -106 -6l-4 30q50 11 113 11z" />
    <glyph glyph-name="uni0438" unicode="&#x438;" horiz-adv-x="468" 
d="M398 0h-38v371q0 38 1 57h-1q0 -1 -25 -47l-220 -381h-45v482h38v-368v-61h1q5 12 27 50l217 379h45v-482z" />
    <glyph glyph-name="uni0439" unicode="&#x439;" horiz-adv-x="468" 
d="M312 697h33q2 -56 -29 -91t-84 -35t-84.5 35t-29.5 91h33q0 -48 21.5 -74t59.5 -26q37 0 58.5 26.5t21.5 73.5zM398 0h-38v371q0 38 1 57h-1q0 -1 -25 -47l-220 -381h-45v482h38v-368v-61h1q5 12 27 50l217 379h45v-482z" />
    <glyph glyph-name="uni043A" unicode="&#x43a;" horiz-adv-x="421" 
d="M223 252v-1q38 -4 68.5 -39t45 -69.5t43.5 -117.5q6 -17 9 -25h-44q-47 133 -66 167q-38 67 -99 68h-73q4 -25 4 -55v-180h-41v482h41v-157q0 -29 -3 -58h69q23 0 42.5 10.5t34 28t27.5 43t24 53t23 60.5q5 13 7 20h42q-45 -127 -68 -164q-36 -60 -86 -66z" />
    <glyph glyph-name="uni043B" unicode="&#x43b;" horiz-adv-x="439" 
d="M369 482v-482h-42v449h-105q-27 0 -39.5 -16t-16.5 -52q-1 -11 -5 -56.5t-6.5 -66t-7 -56t-11 -61.5t-14.5 -48q-27 -82 -100 -98l-5 32q49 23 69 80q10 27 18 70.5t11 73t7 79.5t5 56q5 49 26 72.5t63 23.5h153z" />
    <glyph glyph-name="uni043C" unicode="&#x43c;" horiz-adv-x="587" 
d="M441 482h49q17 0 17 -18l18 -464h-38l-18 449h-14l-123 -389q-5 -14 -18 -14h-42q-12 0 -17 14l-123 389h-15l-17 -449h-38l17 464q0 18 19 18h49q12 0 17 -14l101 -325q2 -8 10 -31t11 -36h14q13 36 21 67l102 325q5 14 18 14z" />
    <glyph glyph-name="uni043D" unicode="&#x43d;" horiz-adv-x="460" 
d="M389 482v-482h-40v241h-238v-241h-41v482h41v-209h238v209h40z" />
    <glyph glyph-name="uni043E" unicode="&#x43e;" horiz-adv-x="452" 
d="M226 494q97 0 136 -57t39 -196q0 -140 -39 -196.5t-136 -56.5q-96 0 -135.5 57t-39.5 196t39.5 196t135.5 57zM226 458q-74 0 -103 -47t-29 -170t29 -170.5t103 -47.5q75 0 104 47.5t29 170.5t-29 170t-104 47z" />
    <glyph glyph-name="uni043F" unicode="&#x43f;" horiz-adv-x="457" 
d="M386 482v-482h-40v448h-235v-448h-41v482h316z" />
    <glyph glyph-name="uni0440" unicode="&#x440;" horiz-adv-x="458" 
d="M268 494q74 0 106 -59.5t32 -194.5q0 -136 -34 -194t-110 -58q-75 0 -154 53q5 -39 3 -94v-155h-41v690h33l5 -83q78 95 160 95zM255 24q59 0 83.5 48t24.5 168q0 119 -24 168.5t-81 49.5q-34 0 -68 -21.5t-79 -70.5v-298q90 -44 144 -44z" />
    <glyph glyph-name="uni0441" unicode="&#x441;" horiz-adv-x="389" 
d="M231 494q70 0 116 -19l-6 -27q-46 10 -103 10q-81 0 -112.5 -46.5t-31.5 -170.5t31.5 -170.5t112.5 -46.5q67 0 112 11l5 -28q-59 -19 -124 -19q-99 0 -139.5 57t-40.5 196t40.5 196t139.5 57z" />
    <glyph glyph-name="uni0442" unicode="&#x442;" horiz-adv-x="385" 
d="M362 447h-149v-447h-41v447h-149v35h339v-35z" />
    <glyph glyph-name="uni0443" unicode="&#x443;" horiz-adv-x="414" 
d="M394 482l-167 -524q-30 -96 -70 -133q-48 -43 -122 -30l3 26q60 -4 94 30q31 32 57 115l12 34h-13q-12 0 -17 12l-150 470h44l121 -395q2 -6 8 -25t8 -29h10q16 47 18 55l120 394h44z" />
    <glyph glyph-name="uni0444" unicode="&#x444;" horiz-adv-x="566" 
d="M516 241q0 -132 -48.5 -190.5t-164.5 -62.5v-196h-39v196q-116 4 -165 62.5t-49 190.5t49 190.5t165 62.5v206h39v-206q116 -4 164.5 -62.5t48.5 -190.5zM90 241q0 -117 39 -165t135 -52v434q-96 -4 -135 -52t-39 -165zM302 458v-434q96 4 135 52t39 165t-39 165t-135 52
z" />
    <glyph glyph-name="uni0445" unicode="&#x445;" horiz-adv-x="415" 
d="M214 235h-13l-129 -235h-47l140 250l-130 232h46l118 -214h17l118 214h46l-129 -232l139 -250h-46z" />
    <glyph glyph-name="uni0446" unicode="&#x446;" horiz-adv-x="464" 
d="M427 33v-176h-28l-6 143h-323v482h41v-449h227v449h41v-449h48z" />
    <glyph glyph-name="uni0447" unicode="&#x447;" horiz-adv-x="415" 
d="M344 482v-482h-40v227q-81 -48 -167 -48q-88 0 -88 103v200h40v-190q0 -41 14.5 -59.5t45.5 -18.5q76 0 155 48v220h40z" />
    <glyph glyph-name="uni0448" unicode="&#x448;" horiz-adv-x="635" 
d="M565 482v-482h-495v482h41v-449h187v449h39v-449h188v449h40z" />
    <glyph glyph-name="uni0449" unicode="&#x449;" horiz-adv-x="651" 
d="M613 33v-176h-28l-5 143h-510v482h41v-449h187v449h38v-449h189v449h40v-449h48z" />
    <glyph glyph-name="uni044A" unicode="&#x44a;" horiz-adv-x="504" 
d="M206 276h111q83 0 115.5 -31.5t32.5 -109.5q0 -81 -32.5 -111t-110.5 -30q-97 0 -156 6v448h-143v34h183v-206zM317 28q59 0 82 22t23 86q0 61 -22.5 84.5t-82.5 23.5h-111v-215q26 -1 111 -1z" />
    <glyph glyph-name="uni044B" unicode="&#x44b;" horiz-adv-x="557" 
d="M111 276h111q78 0 107 -31.5t29 -109.5q0 -81 -29 -111t-101 -30q-98 0 -157 6h-1v482h41v-206zM487 482v-482h-41v482h41zM222 28q53 0 73.5 22t20.5 86q0 61 -20 84.5t-74 23.5h-111v-215q26 -1 111 -1z" />
    <glyph glyph-name="uni044C" unicode="&#x44c;" horiz-adv-x="409" 
d="M111 276h111q84 0 115.5 -31.5t31.5 -109.5q0 -81 -31.5 -111t-109.5 -30q-98 0 -157 6h-1v482h41v-206zM222 28q59 0 81.5 22t22.5 86q0 61 -21.5 84.5t-82.5 23.5h-111v-215q26 -1 111 -1z" />
    <glyph glyph-name="uni044D" unicode="&#x44d;" horiz-adv-x="396" 
d="M163 486q101 0 141.5 -55t40.5 -192t-41 -192.5t-141 -55.5q-73 0 -127 15l5 30q54 -9 122 -9q77 0 108 44.5t32 158.5l-202 1v30l202 1q-3 106 -34 147.5t-106 41.5q-62 0 -118 -7l-5 29q48 13 123 13z" />
    <glyph glyph-name="uni044E" unicode="&#x44e;" horiz-adv-x="625" 
d="M395 494q100 0 139.5 -55t39.5 -196t-39.5 -196t-139.5 -55q-93 0 -131 53t-39 188h-114v-233h-41v482h41v-217h114q3 128 41 178.5t129 50.5zM394 27q77 0 106.5 47t29.5 169t-29.5 169t-106.5 47q-73 0 -100.5 -47t-27.5 -169t27.5 -169t100.5 -47z" />
    <glyph glyph-name="uni044F" unicode="&#x44f;" horiz-adv-x="427" 
d="M192 485q106 0 165 -7v-478h-40v191h-118q-70 0 -85 -62l-32 -129h-43l37 141q14 55 76 64v3q-93 6 -93 141q0 136 133 136zM317 223v226q-28 2 -124 2q-93 0 -93 -108q0 -61 22.5 -90.5t77.5 -29.5h117z" />
    <glyph glyph-name="uni0451" unicode="&#x451;" horiz-adv-x="428" 
d="M160 594h-15q-12 0 -12 14v56q0 14 12 14h15q13 0 13 -14v-56q0 -14 -13 -14zM302 594h-15q-13 0 -13 14v56q0 14 13 14h15q13 0 13 -14v-56q0 -14 -13 -14zM234 24q64 0 134 12l4 -28q-52 -20 -143 -20q-96 0 -137 58.5t-41 196.5t39.5 194.5t132.5 56.5q156 0 158 -142
q2 -131 -87 -131h-200q3 -110 35.5 -153.5t104.5 -43.5zM224 458q-71 0 -100 -45t-30 -159h192q56 0 54 96q-1 57 -29 82.5t-87 25.5z" />
    <glyph glyph-name="uni0452" unicode="&#x452;" horiz-adv-x="461" 
d="M306 395q105 0 105 -132v-300q0 -98 -63 -171l-23 17q45 70 45 154v292q0 53 -19 78t-60 25q-36 0 -72.5 -20.5t-90.5 -67.5v-270h-41v507h-63v27h63v166h41l1 -166h164v-27h-164l1 -116q0 -46 -5 -89q101 93 181 93z" />
    <glyph glyph-name="uni0453" unicode="&#x453;" horiz-adv-x="360" 
d="M319 689l-136 -136l-17 20l128 145zM148 482q128 0 191 -4l-1 -30h-175q-54 0 -54 -71v-377h-41v385q0 46 21 71.5t59 25.5z" />
    <glyph glyph-name="uni0454" unicode="&#x454;" horiz-adv-x="397" 
d="M355 36l6 -30q-55 -15 -128 -15q-100 0 -140.5 55.5t-40.5 192.5t40 192t141 55q75 0 123 -13l-6 -29q-53 7 -117 7q-74 0 -105 -41.5t-34 -147.5l201 -1v-30l-201 -1q1 -114 31.5 -158.5t107.5 -44.5q68 0 122 9z" />
    <glyph glyph-name="uni0455" unicode="&#x455;" horiz-adv-x="404" 
d="M192 494q90 -2 156 -13l-4 -29q-91 6 -147 7q-67 2 -89 -13.5t-22 -80.5q0 -47 14.5 -67t46.5 -26l122 -23q46 -9 68 -38.5t22 -86.5q0 -85 -36 -110t-123 -25q-77 0 -146 12l4 29q67 -7 136 -6q73 1 98.5 19.5t25.5 80.5q0 45 -16.5 64.5t-48.5 26.5l-122 23
q-44 8 -64.5 37.5t-20.5 89.5q0 84 32 107.5t114 21.5z" />
    <glyph glyph-name="uni0456" unicode="&#x456;" horiz-adv-x="188" 
d="M84 683h19q15 0 15 -16v-60q0 -16 -15 -16h-19q-14 0 -14 16v60q0 16 14 16zM115 0h-41v482h41v-482z" />
    <glyph glyph-name="uni0457" unicode="&#x457;" horiz-adv-x="187" 
d="M14 678h16q12 0 12 -14v-56q0 -14 -12 -14h-16q-12 0 -12 14v56q0 14 12 14zM156 678h15q13 0 13 -14v-56q0 -14 -13 -14h-15q-12 0 -12 14v56q0 14 12 14zM114 0h-41v482h41v-482z" />
    <glyph glyph-name="uni0458" unicode="&#x458;" horiz-adv-x="188" 
d="M85 683h19q14 0 14 -16v-60q0 -16 -14 -16h-19q-15 0 -15 16v60q0 16 15 16zM115 482v-519q0 -98 -63 -171l-23 17q45 70 45 154v519h41z" />
    <glyph glyph-name="uni0459" unicode="&#x459;" horiz-adv-x="630" 
d="M348 285h101q80 0 110 -32.5t30 -113.5q0 -92 -32.5 -118.5t-115.5 -26.5q-79 0 -132 6v450h-86q-45 0 -49 -56q-12 -155 -20 -207.5t-29 -99.5q-28 -67 -96 -88l-5 29q16 11 24 17.5t19.5 20.5t19.5 32q22 48 29 95t19 207q8 82 80 82h133v-197zM433 27q67 0 90.5 20
t23.5 93q0 63 -21 88.5t-77 25.5h-101v-226q24 -1 85 -1z" />
    <glyph glyph-name="uni045A" unicode="&#x45a;" horiz-adv-x="638" 
d="M356 283h102q80 0 110 -32t30 -111q0 -84 -30.5 -115t-104.5 -31q-90 0 -146 6v251h-208v-251h-39v482h39v-200h208v200h39v-199zM458 27q55 0 76.5 23t21.5 90q0 63 -21 87.5t-77 24.5h-102v-224q24 -1 102 -1z" />
    <glyph glyph-name="uni045B" unicode="&#x45b;" horiz-adv-x="461" 
d="M306 395q105 0 105 -132v-263h-41v255q0 53 -19 78t-60 25q-36 0 -72.5 -20.5t-90.5 -67.5v-270h-41v507h-63v27h63v166h41l1 -166h164v-27h-164l1 -116q0 -46 -5 -89q101 93 181 93z" />
    <glyph glyph-name="uni045C" unicode="&#x45c;" horiz-adv-x="421" 
d="M194 553l-17 20l128 145l25 -29zM223 252v-1q38 -4 68.5 -39t45 -69.5t43.5 -117.5q6 -17 9 -25h-44q-47 133 -66 167q-38 67 -99 68h-73q4 -25 4 -55v-180h-41v482h41v-157q0 -29 -3 -58h69q23 0 42.5 10.5t34 28t27.5 43t24 53t23 60.5q5 13 7 20h42q-45 -127 -68 -164
q-36 -60 -86 -66z" />
    <glyph glyph-name="uni045D" unicode="&#x45d;" horiz-adv-x="468" 
d="M267 573l-16 -20l-137 136l25 29zM398 0h-38v371q0 38 1 57h-1q0 -1 -25 -47l-220 -381h-45v482h38v-368v-61h1q5 12 27 50l217 379h45v-482z" />
    <glyph glyph-name="uni045E" unicode="&#x45e;" horiz-adv-x="414" 
d="M209 571q-53 0 -84.5 35t-29.5 91h33q0 -48 21.5 -74t59.5 -26q37 0 58.5 26.5t21.5 73.5h33q2 -56 -29 -91t-84 -35zM394 482l-167 -524q-30 -96 -70 -133q-48 -43 -122 -30l3 26q60 -4 94 30q31 32 57 115l12 34h-13q-12 0 -17 12l-150 470h44l121 -395q2 -6 8 -25
t8 -29h10q16 47 18 55l120 394h44z" />
    <glyph glyph-name="uni045F" unicode="&#x45f;" horiz-adv-x="458" 
d="M387 482v-482h-139l-5 -167h-28l-5 167h-140v482h41l1 -449h233l1 449h41z" />
    <glyph glyph-name="uni0490" unicode="&#x490;" horiz-adv-x="415" 
d="M395 841v-157l-2 -29h-216q-28 0 -44 -21.5t-16 -58.5v-575h-43v581q0 48 26 78.5t65 30.5q131 0 196 -4l6 155h28z" />
    <glyph glyph-name="uni0491" unicode="&#x491;" horiz-adv-x="361" 
d="M340 629l-1 -151l-1 -30h-175q-28 1 -40.5 -16.5t-12.5 -54.5v-377h-41v385q0 47 20.5 72t58.5 25q105 0 158 -2l5 149h29z" />
    <glyph glyph-name="uni04B0" unicode="&#x4b0;" horiz-adv-x="455" 
d="M255 266h120v-28h-126v-238h-42v238h-126v28h120l-181 424h46l132 -322q26 -66 28 -71h5q9 27 27 70l132 323h45z" />
    <glyph glyph-name="uni04B1" unicode="&#x4b1;" horiz-adv-x="458" 
d="M257 58h119v-28h-125v-238h-43v238h-126v28h120l-180 424h46l131 -319l28 -70h5l28 70l132 319h45z" />
    <glyph glyph-name="uni04B6" unicode="&#x4b6;" horiz-adv-x="508" 
d="M479 32v-183h-29l-6 151h-70v338q-96 -74 -200 -74q-121 0 -121 147v279h43v-272q0 -61 22 -89t69 -28q50 0 91.5 16.5t95.5 57.5v315h42v-658h63z" />
    <glyph glyph-name="uni04B7" unicode="&#x4b7;" horiz-adv-x="429" 
d="M391 33v-176h-27l-6 143h-54v227q-81 -48 -167 -48q-88 0 -88 103v200h40v-190q0 -41 14.5 -59.5t45.5 -18.5q76 0 155 48v220h40v-449h47z" />
    <glyph glyph-name="uni04BA" unicode="&#x4ba;" horiz-adv-x="493" 
d="M319 426q121 0 121 -147v-279h-43v272q1 61 -21 89t-69 28q-50 0 -91.5 -16.5t-95.5 -57.5v-315h-43v690h43v-338q96 74 199 74z" />
    <glyph glyph-name="uni04C0" unicode="&#x4c0;" horiz-adv-x="197" 
d="M120 0h-43v690h43v-690z" />
    <glyph glyph-name="Wgrave" unicode="&#x1e80;" horiz-adv-x="752" 
d="M413 754l-16 -20l-137 136l25 29zM727 690l-132 -676q-5 -14 -19 -14h-55q-16 0 -19 15l-102 564l-15 78h-18q-10 -52 -14 -78l-103 -564q-3 -15 -19 -15h-56q-15 0 -18 14l-131 676h44l110 -583q6 -27 13 -73h21q2 13 6.5 37t6.5 35l104 568q3 16 18 16h53q16 0 19 -16
l104 -567q2 -13 6.5 -37.5t6.5 -35.5h21q8 48 13 72l110 584h45z" />
    <glyph glyph-name="wgrave" unicode="&#x1e81;" horiz-adv-x="655" 
d="M363 573l-16 -20l-137 136l25 29zM632 482l-126 -469q-3 -13 -17 -13h-40q-15 0 -18 14l-83 365q-10 48 -17 73h-8q-3 -14 -8.5 -38.5t-7.5 -34.5l-84 -365q-2 -14 -17 -14h-39q-15 0 -18 13l-125 469h43l97 -385q5 -17 16 -67h11l15 68l84 370q4 14 18 14h39
q15 0 17 -14l84 -370q7 -28 16 -68h12q14 65 15 68l97 384h44z" />
    <glyph glyph-name="Wacute" unicode="&#x1e82;" horiz-adv-x="752" 
d="M486 870l-136 -136l-17 20l128 145zM727 690l-132 -676q-5 -14 -19 -14h-55q-16 0 -19 15l-102 564l-15 78h-18q-10 -52 -14 -78l-103 -564q-3 -15 -19 -15h-56q-15 0 -18 14l-131 676h44l110 -583q6 -27 13 -73h21q2 13 6.5 37t6.5 35l104 568q3 16 18 16h53
q16 0 19 -16l104 -567q2 -13 6.5 -37.5t6.5 -35.5h21q8 48 13 72l110 584h45z" />
    <glyph glyph-name="wacute" unicode="&#x1e83;" horiz-adv-x="655" 
d="M436 689l-136 -136l-17 20l128 145zM632 482l-126 -469q-3 -13 -17 -13h-40q-15 0 -18 14l-83 365q-10 48 -17 73h-8q-3 -14 -8.5 -38.5t-7.5 -34.5l-84 -365q-2 -14 -17 -14h-39q-15 0 -18 13l-125 469h43l97 -385q5 -17 16 -67h11l15 68l84 370q4 14 18 14h39
q15 0 17 -14l84 -370q7 -28 16 -68h12q14 65 15 68l97 384h44z" />
    <glyph glyph-name="Wdieresis" unicode="&#x1e84;" horiz-adv-x="752" 
d="M299 859h15q13 0 13 -14v-56q0 -14 -13 -14h-15q-13 0 -13 14v56q0 14 13 14zM441 859h15q13 0 13 -14v-56q0 -14 -13 -14h-15q-13 0 -13 14v56q0 14 13 14zM727 690l-132 -676q-5 -14 -19 -14h-55q-16 0 -19 15l-102 564l-15 78h-18q-10 -52 -14 -78l-103 -564
q-3 -15 -19 -15h-56q-15 0 -18 14l-131 676h44l110 -583q6 -27 13 -73h21q2 13 6.5 37t6.5 35l104 568q3 16 18 16h53q16 0 19 -16l104 -567q2 -13 6.5 -37.5t6.5 -35.5h21q8 48 13 72l110 584h45z" />
    <glyph glyph-name="wdieresis" unicode="&#x1e85;" horiz-adv-x="655" 
d="M249 678h15q13 0 13 -14v-56q0 -14 -13 -14h-15q-13 0 -13 14v56q0 14 13 14zM391 678h15q13 0 13 -14v-56q0 -14 -13 -14h-15q-13 0 -13 14v56q0 14 13 14zM632 482l-126 -469q-3 -13 -17 -13h-40q-15 0 -18 14l-83 365q-10 48 -17 73h-8q-3 -14 -8.5 -38.5t-7.5 -34.5
l-84 -365q-2 -14 -17 -14h-39q-15 0 -18 13l-125 469h43l97 -385q5 -17 16 -67h11l15 68l84 370q4 14 18 14h39q15 0 17 -14l84 -370q7 -28 16 -68h12q14 65 15 68l97 384h44z" />
    <glyph glyph-name="Ygrave" unicode="&#x1ef2;" horiz-adv-x="443" 
d="M241 734l-137 136l25 29l128 -145zM243 253v-253h-43v253l-187 437h47l131 -317l28 -71h5l28 70l132 318h45z" />
    <glyph glyph-name="ygrave" unicode="&#x1ef3;" horiz-adv-x="414" 
d="M228 553l-137 136l25 29l128 -145zM394 482l-167 -524q-23 -69 -56 -111t-89 -56l-6 25q45 20 70 57t43 93l12 34h-13q-12 0 -18 12l-150 470h44l122 -395q2 -9 7.5 -27t8.5 -27h10q16 47 18 55l120 394h44z" />
    <glyph glyph-name="endash" unicode="&#x2013;" horiz-adv-x="488" 
d="M424 235h-360v33h360v-33z" />
    <glyph glyph-name="emdash" unicode="&#x2014;" horiz-adv-x="735" 
d="M671 235h-607v33h607v-33z" />
    <glyph glyph-name="quoteleft" unicode="&#x2018;" horiz-adv-x="165" 
d="M89 519h-13q-15 0 -15 17v63q2 71 20 132l19 -7q-5 -49 -5 -112q11 0 11 -14v-62q-1 -17 -17 -17z" />
    <glyph glyph-name="quoteright" unicode="&#x2019;" horiz-adv-x="163" 
d="M76 722h13q15 0 15 -17v-63q-2 -69 -19 -132l-20 7q5 50 5 112q-12 0 -10 14v62q0 17 16 17z" />
    <glyph glyph-name="quotesinglbase" unicode="&#x201a;" horiz-adv-x="174" 
d="M82 93h13q16 0 16 -17v-63q-2 -73 -21 -132l-20 7q6 60 6 112q-12 0 -12 14v62q1 17 18 17z" />
    <glyph glyph-name="quotedblleft" unicode="&#x201c;" horiz-adv-x="270" 
d="M89 520h-13q-15 0 -16 16l1 63q2 69 19 132l20 -7q-5 -65 -5 -112q11 0 11 -14v-62q-1 -16 -17 -16zM194 520h-13q-15 0 -16 16l1 63q2 75 19 132l20 -7q-5 -49 -5 -112q12 0 10 -14v-62q0 -16 -16 -16z" />
    <glyph glyph-name="quotedblright" unicode="&#x201d;" horiz-adv-x="268" 
d="M76 722h13q15 0 15 -17v-63q-2 -69 -19 -132l-20 7q5 50 5 112q-12 0 -10 14v62q0 17 16 17zM181 722h12q16 0 16 -17v-63q-2 -71 -20 -132l-19 7q5 50 5 112q-11 0 -11 14v62q1 17 17 17z" />
    <glyph glyph-name="quotedblbase" unicode="&#x201e;" horiz-adv-x="278" 
d="M81 93h12q15 0 16 -17l-1 -63q-2 -75 -19 -132l-19 7q5 67 5 112q-13 0 -11 14v62q0 17 17 17zM185 93h13q15 0 16 -17l-1 -63q-2 -75 -19 -132l-20 7q6 60 6 112q-13 0 -11 14v62q0 17 16 17z" />
    <glyph glyph-name="dagger" unicode="&#x2020;" horiz-adv-x="355" 
d="M197 -110h-39l1 566v21l-1 214h39l-2 -214v-21zM40 443v39h106v-33zM315 482v-39l-106 6v33h106z" />
    <glyph glyph-name="daggerdbl" unicode="&#x2021;" horiz-adv-x="383" 
d="M209 481v-379l3 -212h-40l2 212v379l-2 210h40zM160 449l-106 -6v39h106v-33zM329 443l-106 6v33h106v-39zM160 132v-33h-106v39zM329 99h-106v33l106 6v-39z" />
    <glyph glyph-name="bullet" unicode="&#x2022;" horiz-adv-x="286" 
d="M139 342h9q32 0 45 -15t13 -53v-11q0 -40 -13 -55t-45 -15h-9q-34 0 -47 15t-13 55v11q0 38 13 53t47 15z" />
    <glyph glyph-name="ellipsis" unicode="&#x2026;" horiz-adv-x="645" 
d="M80 94h14q17 0 17 -17v-60q0 -17 -17 -17h-14q-17 0 -17 17v60q0 17 17 17zM315 94h14q17 0 17 -17v-60q0 -17 -17 -17h-14q-17 0 -17 17v60q0 17 17 17zM551 94h14q17 0 17 -17v-60q0 -17 -17 -17h-14q-17 0 -17 17v60q0 17 17 17z" />
    <glyph glyph-name="perthousand" unicode="&#x2030;" horiz-adv-x="1004" 
d="M168 702q68 0 96 -47.5t28 -156.5t-28 -156.5t-96 -47.5t-96 48t-28 156t28 156t96 48zM184 0h-32l373 690h32zM167 674q-50 0 -70 -40.5t-20 -135.5t20 -135.5t70 -40.5q51 0 71 40.5t20 135.5t-20 135.5t-71 40.5zM544 401q68 0 96 -48t28 -156q0 -109 -28 -157
t-96 -48t-96 48t-28 157q0 108 28 156t96 48zM835 401q68 0 96 -48t28 -156q0 -109 -28 -157t-96 -48t-96 48t-28 157q0 108 28 156t96 48zM544 373q-51 0 -71 -40.5t-20 -135.5t20 -136t71 -41q50 0 70 41t20 136t-20 135.5t-70 40.5zM835 373q-50 0 -70 -40.5t-20 -135.5
t20 -136t70 -41q51 0 71 41t20 136t-20 135.5t-71 40.5z" />
    <glyph glyph-name="guilsinglleft" unicode="&#x2039;" horiz-adv-x="201" 
d="M173 440l-111 -189l112 -192l-21 -15l-131 201v12l130 198z" />
    <glyph glyph-name="guilsinglright" unicode="&#x203a;" horiz-adv-x="203" 
d="M180 257v-12l-131 -201l-21 15l111 192l-110 189l21 15z" />
    <glyph glyph-name="fraction" unicode="&#x2044;" horiz-adv-x="128" 
d="M-107 0h-33l373 690h33z" />
    <glyph glyph-name="Euro" unicode="&#x20ac;" horiz-adv-x="516" 
d="M464 38l6 -31q-59 -19 -137 -19q-103 0 -152.5 70t-57.5 214h-74v29h73l-1 44q0 44 2 64h-74v29h75q11 133 60 198.5t149 65.5q72 0 130 -18l-6 -31q-52 12 -126 12q-76 -1 -114.5 -57t-48.5 -170h220l-6 -29h-215q-2 -20 -2 -64l1 -44h184l-6 -29h-177q8 -125 46 -185.5
t118 -61.5q78 0 133 13z" />
    <glyph glyph-name="trademark" unicode="&#x2122;" horiz-adv-x="765" 
d="M312 696v-27h-111v-353h-32v353h-110v27h253zM700 316h-30l-13 354h-11l-90 -305q-2 -11 -13 -11h-29q-11 0 -14 11l-91 305h-10l-13 -354h-30l13 365q2 15 14 15h36q11 0 14 -11l76 -255q5 -22 14 -52h11q3 13 14 53l75 254q3 11 13 11h38q12 0 14 -15z" />
    <glyph glyph-name="partialdiff" unicode="&#x2202;" horiz-adv-x="457" 
d="M113 671v31q66 0 110.5 -7.5t83 -29.5t59 -62.5t29.5 -106.5t4 -160q-4 -79 -13.5 -136t-29 -108.5t-55 -77.5t-86.5 -26q-89 0 -128.5 65t-36.5 166q4 106 47 165t119 59q93 0 142 -95q6 133 -16.5 202.5t-74.5 95t-154 25.5zM216 24q39 0 65.5 22.5t41.5 66.5
t22.5 90.5t11.5 112.5q-56 92 -136 92q-60 0 -93.5 -50.5t-36.5 -137.5q-2 -85 28.5 -140.5t96.5 -55.5z" />
    <glyph glyph-name="emptyset" unicode="&#x2205;" horiz-adv-x="685" 
d="M343 633q121 0 206.5 -85.5t85.5 -206.5t-85.5 -207t-206.5 -86t-207 86t-86 207t86 206.5t207 85.5zM343 545q-51 0 -122 -11l3 -45q60 9 119 9q66 0 66 -46q0 -21 -15 -44.5t-33.5 -42.5t-33.5 -52t-15 -72h54q0 35 14.5 64.5t32.5 46.5t32.5 43.5t14.5 56.5
q0 93 -117 93zM359 171h-39q-7 0 -7 -8v-37q0 -7 7 -7h39q8 0 8 7v37q0 8 -8 8z" />
    <glyph glyph-name="product" unicode="&#x220f;" horiz-adv-x="582" 
d="M548 656h-91v-764h-41v764h-250v-764h-41v764h-91v34h514v-34z" />
    <glyph glyph-name="summation" unicode="&#x2211;" horiz-adv-x="469" 
d="M415 655h-316l144 -297l-155 -413h335v-35h-381v35l154 413l-144 297v35h363v-35z" />
    <glyph glyph-name="minus" unicode="&#x2212;" horiz-adv-x="470" 
d="M406 279h-342v33h342v-33z" />
    <glyph glyph-name="radical" unicode="&#x221a;" horiz-adv-x="447" 
d="M423 876l-220 -868q-3 -8 -11 -8h-47q-10 0 -10 8l-102 474h37l93 -451h11l211 845h38z" />
    <glyph glyph-name="infinity" unicode="&#x221e;" horiz-adv-x="631" 
d="M470 440q46 0 75.5 -32.5t29.5 -95.5q0 -65 -32 -101t-82 -36q-78 0 -144 104q-71 -104 -149 -104q-49 0 -81 36.5t-32 100.5q0 63 30.5 95.5t79.5 32.5q83 0 151 -107q72 107 154 107zM175 207q39 0 66 24.5t58 74.5q-22 35 -36.5 53t-39 33.5t-53.5 15.5q-78 0 -78 -96
q0 -52 22 -78.5t61 -26.5zM457 207q38 0 60 27t22 79q0 95 -75 95q-28 0 -55 -18t-41 -36.5t-35 -49.5q15 -26 27.5 -43.5t39.5 -35.5t57 -18z" />
    <glyph glyph-name="integral" unicode="&#x222b;" horiz-adv-x="305" 
d="M203 714q42 0 71 -4l-4 -29h-53q-35 0 -50 -23.5t-13 -80.5l34 -666q6 -133 -89 -133q-44 0 -68 4l3 29h53q36 0 50.5 23.5t12.5 80.5l-34 666q-6 133 87 133z" />
    <glyph glyph-name="approxequal" unicode="&#x2248;" horiz-adv-x="474" 
d="M135 437q31 0 100 -32.5t103 -32.5q21 0 30.5 11.5t9.5 48.5h30q3 -49 -13.5 -71.5t-56.5 -22.5q-36 0 -104.5 32.5t-98.5 32.5q-21 0 -30.5 -13t-9.5 -50h-29q-6 97 69 97zM135 246q31 0 100 -32t103 -33q21 0 30.5 12t9.5 48h30q3 -48 -13.5 -70.5t-56.5 -22.5
q-36 0 -104.5 32.5t-98.5 32.5q-21 0 -30.5 -13t-9.5 -51h-29q-7 99 69 97z" />
    <glyph glyph-name="notequal" unicode="&#x2260;" horiz-adv-x="470" 
d="M279 380l-89 -179h216v-33h-232l-61 -123l-17 10l56 113h-88v33h104l89 179h-193v33h209l53 107l18 -10l-48 -97h110v-33h-127z" />
    <glyph glyph-name="lessequal" unicode="&#x2264;" horiz-adv-x="464" 
d="M392 481l-282 -132l282 -118v-34l-320 135v34l320 150v-35zM402 98h-339v32h339v-32z" />
    <glyph glyph-name="greaterequal" unicode="&#x2265;" horiz-adv-x="464" 
d="M393 366v-34l-321 -135v34l283 118l-283 133v34zM401 98h-339v32h339v-32z" />
    <glyph glyph-name="lozenge" unicode="&#x25ca;" horiz-adv-x="470" 
d="M241 693l193 -340q4 -7 0 -14l-193 -342q-7 -9 -12 0l-194 342q-4 7 0 14l194 340q5 9 12 0zM71 346l164 -307l163 307l-163 305z" />
    <glyph glyph-name="c_t" horiz-adv-x="644" 
d="M490 448v-342q0 -76 59 -76h66l4 -29q-37 -8 -77 -8q-93 0 -93 109v346h-212q-80 0 -112 -45t-32 -162q0 -124 30.5 -170.5t108.5 -46.5q59 0 99 11l5 -28q-52 -19 -111 -19q-96 0 -135.5 57t-39.5 196q0 130 42 185.5t139 55.5h218v149h41v-149h134v-34h-134z" />
    <glyph glyph-name="f_f_y" horiz-adv-x="931" 
d="M912 482l-168 -524q-23 -69 -56 -111t-90 -56l-5 25q44 20 69 56.5t44 93.5l13 34h-14q-13 0 -17 12l-121 383q-18 53 -61 53h-116v-448h-41v448h-212v-448h-41v448h-71v29l71 5v79q0 68 25 102t81 34q51 0 96 -5l-2 -30h-80q-44 0 -61.5 -22.5t-17.5 -80.5v-77h212v97
q0 69 24.5 102.5t81.5 33.5q65 0 101 -5l-2 -30h-85q-44 0 -61.5 -23t-17.5 -80v-95h122q68 0 94 -76l96 -319q12 -36 17 -54h11l17 55l121 394h44z" />
    <glyph glyph-name="f_t" horiz-adv-x="551" 
d="M396 448v-342q0 -76 59 -76h66l4 -29q-37 -8 -76 -8q-94 0 -94 109v346h-218v-448h-41v448h-71v29l71 5v97q0 69 24.5 102.5t81.5 33.5q64 0 98 -5l-2 -30h-82q-44 0 -61.5 -23t-17.5 -80v-95h218v149h41v-149h135v-34h-135z" />
    <glyph glyph-name="f_y" horiz-adv-x="678" 
d="M658 482l-167 -524q-23 -69 -56 -111t-90 -56l-6 25q79 36 113 150l13 34h-14q-13 0 -17 12l-121 383q-16 53 -61 53h-115v-448h-41v448h-71v29l71 5v97q0 69 24.5 102.5t81.5 33.5q65 0 101 -5l-2 -30h-85q-44 0 -61.5 -23t-17.5 -80v-95h122q68 0 93 -76l97 -319
q2 -6 8 -25t8 -29h11l11 34l127 415h44z" />
    <glyph glyph-name="s_t" horiz-adv-x="678" 
d="M523 448v-342q0 -76 59 -76h66l5 -29q-38 -8 -77 -8q-94 0 -94 109v346h-286q-36 0 -51.5 -1.5t-32 -9t-21.5 -25t-5 -47.5q0 -47 14.5 -67t46.5 -26l122 -23q46 -9 67.5 -38.5t21.5 -86.5q0 -85 -35.5 -110t-123.5 -25q-77 0 -145 12l4 29q66 -7 136 -6q73 1 98.5 19.5
t25.5 80.5q0 45 -16.5 64.5t-48.5 26.5l-122 23q-45 8 -65.5 37.5t-20.5 89.5q0 75 32.5 96t114.5 21h290v149h41v-149h135v-34h-135z" />
    <glyph glyph-name="t_t" horiz-adv-x="554" 
d="M400 448v-342q0 -76 59 -76h66l5 -29q-37 -8 -77 -8q-93 0 -93 109v346h-224v-342q0 -76 59 -76h65l5 -29q-37 -8 -77 -8q-93 0 -93 109v346h-71v29l71 5v149h41v-149h224v149h40v-149h135v-34h-135z" />
    <glyph glyph-name="t_y" horiz-adv-x="698" 
d="M678 482l-168 -524q-22 -69 -55 -111t-89 -56l-6 25q44 20 69 56.5t44 93.5l12 34h-14q-11 0 -16 12l-122 383q-15 53 -60 53h-137v-342q0 -76 59 -76h65l5 -29q-37 -8 -77 -8q-93 0 -93 109v346h-71v29l71 5v149h41v-149h144q68 0 92 -75l97 -320q12 -36 17 -54h10
q10 30 14 43l124 406h44z" />
    <glyph glyph-name="brevecy" horiz-adv-x="292" 
d="M227 692h33q2 -56 -29 -91t-84 -35t-84.5 35t-29.5 91h33q0 -48 21.5 -74t59.5 -26q37 0 58.5 26.5t21.5 73.5z" />
    </font>
</defs>
</svg>
