<?xml version="1.0" standalone="no"?>
<!DOCTYPE svg PUBLIC "-//W3C//DTD SVG 1.1//EN" "http://www.w3.org/Graphics/SVG/1.1/DTD/svg11.dtd" >
<svg xmlns="http://www.w3.org/2000/svg" xmlns:xlink="http://www.w3.org/1999/xlink" version="1.1">
<metadata>
Created by FontForge 20170731 at Sat Nov  8 21:22:57 2014
 By Aleksey,,,
Copyright (c) 2014, Natanael Gama (www.ndiscovered.com . info(at)ndiscovered.com)
</metadata>
<defs>
<font id="Exo2-LightCondensed" horiz-adv-x="537" >
  <font-face 
    font-family="Exo 2 Light Condensed"
    font-weight="300"
    font-stretch="condensed"
    units-per-em="1000"
    panose-1="0 0 4 6 0 0 0 0 0 0"
    ascent="800"
    descent="-200"
    x-height="484"
    cap-height="690"
    bbox="-140 -270 977 929"
    underline-thickness="50"
    underline-position="-200"
    unicode-range="U+0020-FB02"
  />
<missing-glyph horiz-adv-x="483" 
 />
    <glyph glyph-name="fi" unicode="fi" horiz-adv-x="483" 
d="M416 484v-484h-63v433h-195v-433h-64v433h-71v46l71 5v86q0 73 26.5 109.5t86.5 36.5q51 0 90 -6v-47h-68q-40 0 -55.5 -22t-15.5 -77v-80h258zM369 688h30q20 0 20 -21v-58q0 -21 -20 -21h-30q-20 0 -20 21v58q0 21 20 21z" />
    <glyph glyph-name="fl" unicode="fl" horiz-adv-x="534" 
d="M520 43l7 -41q-25 -10 -70 -10q-44 0 -69.5 29t-25.5 81v561h-133q-40 1 -55.5 -21t-15.5 -78v-80h119v-51h-119v-433h-64v433h-71v46l71 5v86q0 73 26.5 109.5t86.5 36.5q154 0 220 -10v-592q0 -71 53 -71h40z" />
    <glyph glyph-name="f_f" unicode="ff" horiz-adv-x="568" 
d="M574 663h-81q-39 0 -55 -20.5t-16 -71.5v-87h127v-50h-127v-434h-64v434h-200v-434h-64v434h-71v45l71 5v77q0 140 113 140q57 0 97 -6l-4 -47h-71q-40 0 -55.5 -20t-15.5 -73v-71h200v93q0 70 26 104.5t86 34.5q62 0 109 -6z" />
    <glyph glyph-name="f_f_i" unicode="ffi" horiz-adv-x="742" 
d="M675 484v-484h-64v433h-195v-433h-64v433l-199 1v-434h-65v434h-65v45l65 4v78q0 140 113 140q57 0 99 -6l-5 -47h-71q-40 0 -55.5 -20t-15.5 -73v-71h199v86q0 73 26.5 109.5t86.5 36.5q54 0 96 -6v-47h-73q-40 0 -56 -22t-16 -77v-80h259zM628 688h29q20 0 20 -21v-58
q0 -21 -20 -21h-29q-21 0 -21 21v58q0 21 21 21z" />
    <glyph glyph-name="f_f_l" unicode="ffl" horiz-adv-x="799" 
d="M783 43l8 -41q-25 -10 -70 -10q-44 0 -69.5 29t-25.5 81v561h-133q-40 1 -55.5 -21t-15.5 -78v-80h121v-50h-121v-434h-64v434h-200v-434h-64v434h-71v45l71 5v77q0 140 113 140q57 0 97 -6l-4 -47h-71q-40 0 -55.5 -20t-15.5 -73v-71h200v86q0 73 26 109.5t86 36.5
q155 0 220 -10v-592q0 -71 53 -71h40z" />
    <glyph glyph-name=".notdef" horiz-adv-x="483" 
 />
    <glyph glyph-name=".null" horiz-adv-x="0" 
 />
    <glyph glyph-name="nonmarkingreturn" horiz-adv-x="333" 
 />
    <glyph glyph-name="space" unicode=" " horiz-adv-x="180" 
 />
    <glyph glyph-name="exclam" unicode="!" horiz-adv-x="219" 
d="M141 377l-6 -169h-52l-6 169v318h64v-318zM101 107h17q24 0 24 -25v-57q0 -25 -24 -25h-17q-24 0 -24 25v57q0 25 24 25z" />
    <glyph glyph-name="quotedbl" unicode="&#x22;" horiz-adv-x="282" 
d="M106 478h-44l-4 212h52zM220 478h-44l-4 212h53z" />
    <glyph glyph-name="numbersign" unicode="#" horiz-adv-x="550" 
d="M417 456l-27 -195h89l-9 -43h-86l-30 -218h-52l30 218h-150l-31 -218h-51l30 218h-93l8 43h91l27 195h-92l8 43h90l27 191h52l-27 -191h150l27 191h52l-27 -191h90l-9 -43h-87zM366 456h-151l-27 -195h151z" />
    <glyph glyph-name="dollar" unicode="$" horiz-adv-x="454" 
d="M251 376l48 -13q62 -15 87 -59t25 -130q0 -60 -10 -97t-34.5 -56t-56 -25.5t-83.5 -6.5h-3l-7 -119h-35l7 120q-70 2 -134 14l4 51q64 -4 134 -6l16 272l-53 14q-59 15 -84 59.5t-25 127.5q0 60 10 96.5t34.5 54.5t54 23.5t80.5 4.5h9l6 100h34l-6 -101q70 -3 121 -15
l-5 -48q-99 6 -119 6zM113 520q0 -62 16.5 -89.5t56.5 -37.5l31 -8l15 258h-3q-37 0 -54 -2.5t-34 -14.5t-22.5 -37t-5.5 -69zM228 49h1q68 1 91.5 24.5t23.5 101.5q0 65 -16 92t-56 37l-28 8z" />
    <glyph glyph-name="percent" unicode="%" horiz-adv-x="718" 
d="M167 702q71 0 100 -47t29 -157t-29 -157t-100 -47q-70 0 -99 47.5t-29 156.5t29 156.5t99 47.5zM200 0h-46l362 690h46zM167 661q-44 0 -61.5 -37t-17.5 -126q0 -90 17.5 -126.5t61.5 -36.5t61.5 36.5t17.5 126.5q0 89 -17.5 126t-61.5 37zM551 401q70 0 99 -47.5
t29 -157.5q0 -109 -29 -156.5t-99 -47.5q-71 0 -99.5 47t-28.5 157t28.5 157.5t99.5 47.5zM550 359q-44 0 -61 -36.5t-17 -126.5t17 -126.5t61 -36.5q45 0 62.5 36.5t17.5 126.5t-17.5 126.5t-62.5 36.5z" />
    <glyph glyph-name="ampersand" unicode="&#x26;" horiz-adv-x="623" 
d="M576 48l7 -46q-40 -10 -83 -10t-67.5 23t-29.5 66q-35 -49 -78.5 -69.5t-107.5 -20.5q-88 0 -125 40t-37 143q0 84 25 130t84 52v4q-50 5 -71.5 44.5t-21.5 116.5q0 60 11 95.5t39.5 53.5t63.5 23.5t96 5.5q73 0 128 -9l-8 -49q-32 3 -122 3q-83 0 -111.5 -24t-28.5 -107
q0 -77 23.5 -103.5t86.5 -26.5h154l7 138h53v-138h102l-1 -51h-101v-213q0 -38 12.5 -54.5t40.5 -16.5h60zM232 48q108 0 170 89v195h-156q-68 0 -95 -31.5t-27 -116.5q0 -78 23 -107t85 -29z" />
    <glyph glyph-name="quotesingle" unicode="'" horiz-adv-x="167" 
d="M106 478h-44l-4 212h52z" />
    <glyph glyph-name="parenleft" unicode="(" horiz-adv-x="289" 
d="M254 790l8 -33q-80 -51 -117.5 -160t-37.5 -284q0 -340 155 -445l-8 -33q-108 55 -158.5 170.5t-50.5 306.5q0 192 50.5 308t158.5 170z" />
    <glyph glyph-name="parenright" unicode=")" horiz-adv-x="289" 
d="M27 757l8 33q108 -54 159 -170t51 -308q0 -191 -51 -306.5t-159 -170.5l-8 33q155 105 155 445q0 175 -37.5 284t-117.5 160z" />
    <glyph glyph-name="asterisk" unicode="*" horiz-adv-x="363" 
d="M195 533l80 -129l-31 -25l-63 125l-62 -124l-32 25l80 128l-5 157h39zM154 553l-1 -18l-8 -12l-100 36l12 39zM318 557l-101 -34l-8 12v18l96 44z" />
    <glyph glyph-name="plus" unicode="+" horiz-adv-x="443" 
d="M397 274h-151v-181h-49v181h-151v49h150v180h50v-180h151v-49z" />
    <glyph glyph-name="comma" unicode="," horiz-adv-x="182" 
d="M82 107h19q24 0 24 -25v-64q-2 -77 -27 -144l-31 9q8 53 8 117q-18 0 -18 21v61q1 25 25 25z" />
    <glyph glyph-name="hyphen" unicode="-" horiz-adv-x="364" 
d="M305 227h-246v50h246v-50z" />
    <glyph glyph-name="period" unicode="." horiz-adv-x="183" 
d="M81 107h21q24 0 24 -25v-57q0 -25 -24 -25h-21q-24 0 -24 25v57q0 25 24 25z" />
    <glyph glyph-name="slash" unicode="/" horiz-adv-x="414" 
d="M76 -63h-54l316 753h54z" />
    <glyph glyph-name="zero" unicode="0" horiz-adv-x="484" 
d="M242 702q104 0 147 -83.5t43 -273.5t-43 -273.5t-147 -83.5t-147 83.5t-43 273.5t43 273.5t147 83.5zM241 645q-69 0 -96.5 -69t-27.5 -231t27.5 -231t96.5 -69q71 0 98.5 69t27.5 231t-27.5 231t-98.5 69z" />
    <glyph glyph-name="one" unicode="1" horiz-adv-x="328" 
d="M236 0h-66v572q0 28 3 55l-137 -56l-8 47l142 72h66v-690z" />
    <glyph glyph-name="two" unicode="2" horiz-adv-x="452" 
d="M218 702q87 0 128.5 -29.5t41.5 -115.5q0 -66 -23 -123t-79 -136l-163 -238q29 2 93 2h192v-62h-363v40q0 13 10 30l164 244q105 149 102 243q-1 54 -26.5 70.5t-80.5 16.5q-77 0 -159 -19l-5 51q90 26 168 26z" />
    <glyph glyph-name="three" unicode="3" horiz-adv-x="448" 
d="M207 702q93 0 132 -35t39 -124q0 -154 -83 -174v-4q52 -11 74 -54.5t24 -118.5q2 -106 -38.5 -155t-136.5 -49q-71 0 -175 17l5 52q99 -11 154 -11q69 0 97.5 34t28.5 118q0 66 -24 102.5t-89 37.5h-103v51l103 1q32 1 53.5 13t31 34t12 43t2.5 50q-1 69 -25 91.5
t-91 22.5q-73 0 -140 -9l-6 50q83 17 155 17z" />
    <glyph glyph-name="four" unicode="4" horiz-adv-x="494" 
d="M457 186l-70 -7v-179h-63v179h-233q-33 0 -49.5 30.5t-2.5 65.5l160 415h65l-157 -414q-7 -19 -1 -31t21 -12h197v211l12 115h51v-326h70v-47z" />
    <glyph glyph-name="five" unicode="5" horiz-adv-x="430" 
d="M366 634h-235l-8 -215l58 -4q114 -8 159 -51.5t45 -158.5q0 -46 -7 -81t-24.5 -67.5t-54.5 -50.5t-92 -18q-74 0 -164 26l8 52q83 -20 141 -20q75 0 101 38.5t27 120.5q0 36 -3.5 61t-15.5 42t-24 26.5t-38.5 15.5t-49 8t-65.5 4l-34 3q-11 0 -18.5 8.5t-7.5 21.5l13 295
h292z" />
    <glyph glyph-name="six" unicode="6" horiz-adv-x="460" 
d="M262 447q87 0 120 -50.5t33 -179.5q0 -117 -35.5 -173t-139.5 -56q-113 0 -149 68.5t-36 261.5q0 124 12 200.5t40.5 117t65 53.5t96.5 13q66 0 110 -14l-6 -48q-35 6 -104 6q-56 0 -85 -19.5t-45.5 -79t-18.5 -176.5q30 43 62 59.5t80 16.5zM241 44q68 0 89 40.5
t21 133.5q0 97 -22 136t-83 39q-36 0 -64.5 -15t-62.5 -55v-8q0 -162 21 -216.5t101 -54.5z" />
    <glyph glyph-name="seven" unicode="7" horiz-adv-x="401" 
d="M17 690h314q50 0 35 -54l-174 -636h-66l159 588q5 18 16 46h-280z" />
    <glyph glyph-name="eight" unicode="8" horiz-adv-x="489" 
d="M244 699q102 0 139 -41.5t37 -139.5q0 -147 -80 -158v-4q51 -6 71.5 -51.5t20.5 -132.5q0 -99 -38.5 -139.5t-149.5 -41.5q-108 -1 -147.5 40t-39.5 141q0 88 20.5 133t70.5 51v4q-79 11 -79 158q0 98 37 139.5t138 41.5zM245 645q-69 0 -92.5 -28t-23.5 -104
q0 -79 23 -103.5t94 -24.5t92 24t21 104q0 77 -22.5 104.5t-91.5 27.5zM246 331q-78 -1 -102.5 -28.5t-24.5 -118.5q0 -77 26 -106.5t100 -29.5q75 0 99.5 29t24.5 107q0 93 -23.5 120t-99.5 27z" />
    <glyph glyph-name="nine" unicode="9" horiz-adv-x="460" 
d="M221 702q41 0 70 -7t49.5 -25t32.5 -42t19 -67t9 -89t2 -118q0 -155 -23 -234.5t-65.5 -105.5t-124.5 -26q-70 0 -118 14l6 48q48 -5 111 -5q58 0 88 20.5t45 79.5t17 175q-30 -43 -62.5 -60t-81.5 -17q-81 0 -115.5 58t-34.5 167q0 119 40 176.5t136 57.5zM212 296
q36 0 64 15.5t63 56.5q0 61 -1 95t-5 70.5t-11 54t-20.5 33t-33 20.5t-47.5 5q-66 0 -89.5 -43.5t-23.5 -135.5q0 -87 22.5 -129t81.5 -42z" />
    <glyph glyph-name="colon" unicode=":" horiz-adv-x="187" 
d="M81 437h22q24 0 24 -25v-57q0 -25 -24 -25h-22q-24 0 -24 25v57q0 25 24 25zM81 107h22q24 0 24 -25v-57q0 -25 -24 -25h-22q-24 0 -24 25v57q0 25 24 25z" />
    <glyph glyph-name="semicolon" unicode=";" horiz-adv-x="189" 
d="M85 437h21q24 0 24 -25v-57q0 -25 -24 -25h-21q-25 0 -25 25v57q0 25 25 25zM86 107h19q13 0 18 -5.5t5 -19.5v-64q-2 -80 -26 -144l-31 9q8 64 8 117q-18 0 -18 21v61q1 25 25 25z" />
    <glyph glyph-name="less" unicode="&#x3c;" horiz-adv-x="428" 
d="M370 448l-270 -151l270 -147v-52l-326 173v51l326 178v-52z" />
    <glyph glyph-name="equal" unicode="=" horiz-adv-x="471" 
d="M411 373h-351v49h351v-49zM411 162h-351v49h351v-49z" />
    <glyph glyph-name="greater" unicode="&#x3e;" horiz-adv-x="428" 
d="M384 322v-51l-326 -173v52l270 147l-270 151v52z" />
    <glyph glyph-name="question" unicode="?" horiz-adv-x="406" 
d="M208 712q163 0 163 -155q0 -41 -15 -76.5t-36 -62.5t-42.5 -54.5t-37 -67.5t-16.5 -88h-55q-1 63 20 115t46 80t46.5 66.5t22.5 78.5q1 57 -25.5 83.5t-83.5 26.5q-65 0 -158 -12l-4 46q5 1 28.5 6t31 6t27.5 4t40.5 3.5t47.5 0.5zM188 107h17q24 0 24 -25v-57
q0 -25 -24 -25h-17q-24 0 -24 25v57q0 25 24 25z" />
    <glyph glyph-name="at" unicode="@" horiz-adv-x="575" 
d="M282 578h115q59 0 89 -31t30 -102v-314h-47l-7 77q-26 -32 -70.5 -58t-91.5 -26q-48 0 -76.5 29.5t-28.5 84.5v52q0 48 23.5 74.5t68.5 26.5h169v52q0 42 -15.5 62t-54.5 20h-104q-30 0 -47.5 -1t-36.5 -5t-28.5 -10.5t-20 -21t-14.5 -31.5t-7.5 -46t-4.5 -62t-1 -82
q0 -68 1.5 -108.5t10.5 -73.5t18.5 -47.5t34.5 -24t49 -11t72 -1.5h207v-48q-103 -6 -206 -6q-59 -1 -95.5 2t-66.5 16.5t-45 32.5t-25 58.5t-12.5 86t-2.5 123.5q0 56 1 93t5.5 72t10.5 55.5t18.5 39t27.5 27t39.5 15.5t51 9t66.5 2zM456 352l-147 -4q-29 -1 -41.5 -16.5
t-12.5 -48.5v-35q0 -72 56 -72q35 -1 76 19.5t69 52.5v104z" />
    <glyph glyph-name="A" unicode="A" horiz-adv-x="499" 
d="M364 228h-229l-58 -228h-68l180 671q5 19 25 19h71q19 0 24 -19l181 -671h-68zM349 285l-75 297q-10 38 -14 56h-21q-4 -18 -14 -56l-76 -297h200z" />
    <glyph glyph-name="B" unicode="B" horiz-adv-x="499" 
d="M340 360v-4q60 -6 85 -52t25 -132q0 -104 -39 -142t-137 -38q-131 0 -202 8v690q63 8 177 8q105 0 145 -37.5t40 -142.5q0 -147 -94 -158zM370 511q0 78 -26.5 104.5t-96.5 26.5q-81 0 -110 -1v-258h121q64 1 88 27t24 101zM264 48q69 0 94.5 27t25.5 106q0 87 -27 118
t-98 33h-122v-283q33 -1 127 -1z" />
    <glyph glyph-name="C" unicode="C" horiz-adv-x="462" 
d="M267 702q89 0 150 -19l-7 -49q-62 9 -143 9q-83 0 -115 -65t-32 -233t32 -233t115 -65q93 0 154 11l8 -49q-66 -21 -162 -21q-120 0 -168 79.5t-48 277.5t48 277.5t168 79.5z" />
    <glyph glyph-name="D" unicode="D" horiz-adv-x="535" 
d="M268 699q119 0 167.5 -78.5t48.5 -275.5t-48.5 -275.5t-167.5 -78.5q-93 0 -196 9v690q103 9 196 9zM268 49q82 0 114 65t32 231t-32 231.5t-114 65.5q-52 0 -130 -2v-589q74 -2 130 -2z" />
    <glyph glyph-name="E" unicode="E" horiz-adv-x="451" 
d="M406 55l3 -50q-74 -6 -238 -6q-48 0 -76 31t-28 83v464q0 52 28.5 83t75.5 31q164 0 238 -6l-3 -50h-224q-49 0 -49 -73v-169h242v-53h-242v-213q0 -72 49 -72h224z" />
    <glyph glyph-name="F" unicode="F" horiz-adv-x="433" 
d="M401 635h-211q-54 0 -54 -73v-177h234v-53l-234 -1v-331h-67v574q0 54 28.5 85.5t76.5 31.5q158 0 231 -6z" />
    <glyph glyph-name="G" unicode="G" horiz-adv-x="505" 
d="M449 399v-399h-48l-8 75q-66 -87 -166 -87q-93 0 -134.5 85.5t-41.5 272.5q0 201 51 278.5t179 77.5q89 0 154 -19l-7 -49q-71 10 -144 10q-64 0 -98 -25t-50 -89.5t-16 -186.5q0 -162 28 -230t96 -68q40 0 72 20t69 56v278h64z" />
    <glyph glyph-name="H" unicode="H" horiz-adv-x="538" 
d="M466 690v-690h-66v341h-262v-341h-66v690h66v-293h262v293h66z" />
    <glyph glyph-name="I" unicode="I" horiz-adv-x="209" 
d="M138 0h-66v690h66v-690z" />
    <glyph glyph-name="J" unicode="J" horiz-adv-x="272" 
d="M204 690v-556q0 -69 -27.5 -105.5t-79.5 -36.5q-36 0 -72 10l7 46h41q65 0 65 84v558h66z" />
    <glyph glyph-name="K" unicode="K" horiz-adv-x="474" 
d="M199 333h-67q5 -45 5 -78v-255h-65v690h65v-223q0 -37 -5 -80h68l174 303h72l-168 -291q-14 -24 -30 -38v-3q22 -21 34 -41l175 -317h-74z" />
    <glyph glyph-name="L" unicode="L" horiz-adv-x="413" 
d="M135 690v-562q0 -73 55 -73h202l3 -50q-85 -6 -216 -6q-56 0 -83 32.5t-27 87.5v571h66z" />
    <glyph glyph-name="M" unicode="M" horiz-adv-x="703" 
d="M517 690h76q26 0 28 -29l23 -661h-65l-20 635h-19l-128 -541q-7 -22 -29 -22h-62q-23 0 -30 22l-129 541h-18l-19 -635h-65l22 661q2 29 28 29h77q22 0 28 -23l107 -450q11 -46 22 -94h15q12 56 22 95l107 449q6 23 29 23z" />
    <glyph glyph-name="N" unicode="N" horiz-adv-x="567" 
d="M495 690v-662q0 -28 -26 -28h-73q-24 0 -29 22l-189 524q-14 45 -29 83h-12v-83l1 -546h-66v662q0 28 26 28h71q25 0 30 -22l183 -512q4 -12 9.5 -27.5t12.5 -35.5t11 -30h15q-1 33 -1 99v528h66z" />
    <glyph glyph-name="O" unicode="O" 
d="M269 702q121 0 169.5 -79t48.5 -278t-48.5 -278t-169.5 -79q-122 0 -170 78.5t-48 278.5t48 278.5t170 78.5zM269 644q-84 0 -116.5 -65.5t-32.5 -233.5t32.5 -233.5t116.5 -65.5q83 0 115.5 65.5t32.5 233.5t-32.5 233.5t-115.5 65.5z" />
    <glyph glyph-name="P" unicode="P" horiz-adv-x="474" 
d="M261 698q100 0 138 -44.5t38 -166.5t-36.5 -166.5t-131.5 -44.5q-70 0 -131 7v-283h-66v690q69 8 189 8zM138 333h122q63 0 87 32t24 122q0 91 -24 123t-87 32q-90 0 -122 -1v-308z" />
    <glyph glyph-name="Q" unicode="Q" horiz-adv-x="538" 
d="M269 702q121 0 169.5 -78.5t48.5 -278.5t-48.5 -278.5t-169.5 -78.5t-169.5 78.5t-48.5 278.5t48.5 278.5t169.5 78.5zM269 644q-84 0 -116.5 -65.5t-32.5 -233.5t32.5 -233.5t116.5 -65.5t116.5 65.5t32.5 233.5t-32.5 233.5t-116.5 65.5zM218 -85l19 39q89 -54 210 -75
l-21 -66q-111 24 -208 102z" />
    <glyph glyph-name="R" unicode="R" horiz-adv-x="497" 
d="M459 0h-70l-51 217q-19 79 -74 79q-30 0 -72 0.5t-55 0.5v-297h-65v690q69 8 190 8q98 0 137.5 -41.5t39.5 -155.5q0 -87 -23.5 -128.5t-78.5 -51.5v-4q50 -18 69 -98zM137 353h123q64 1 88.5 31t24.5 114t-24.5 114t-88.5 30q-27 0 -68 -0.5t-55 -0.5v-288z" />
    <glyph glyph-name="S" unicode="S" horiz-adv-x="452" 
d="M224 701q91 0 164 -16l-5 -48q-92 6 -155 6q-37 0 -54 -2.5t-34 -14.5t-22.5 -37t-5.5 -69q0 -62 16.5 -89.5t55.5 -37.5l113 -30q62 -15 87.5 -59.5t25.5 -129.5q0 -60 -10 -97t-35 -56t-56.5 -25.5t-83.5 -6.5q-92 0 -172 15l5 49q109 -6 169 -6q68 1 92 25t24 103
q0 65 -16.5 92t-55.5 37l-116 31q-59 15 -84.5 59.5t-25.5 127.5q0 60 10 96.5t34.5 54.5t54 23.5t80.5 4.5z" />
    <glyph glyph-name="T" unicode="T" horiz-adv-x="466" 
d="M446 632h-180v-632h-67v632h-179v58h426v-58z" />
    <glyph glyph-name="U" unicode="U" 
d="M469 690v-429q0 -149 -45 -211t-153 -62q-111 0 -157 62t-46 211v429h66v-429q0 -119 30 -167t104 -48t104.5 48t30.5 167v429h66z" />
    <glyph glyph-name="V" unicode="V" horiz-adv-x="489" 
d="M475 690l-171 -671q-5 -19 -25 -19h-68q-21 0 -26 19l-171 671h69l134 -563q11 -37 18 -75h20q5 25 17 75l134 563h69z" />
    <glyph glyph-name="W" unicode="W" horiz-adv-x="762" 
d="M736 690l-116 -670q-5 -20 -26 -20h-77q-21 0 -26 21l-89 541q-7 47 -13 77h-17q-2 -12 -6 -38t-7 -39l-88 -541q-5 -21 -27 -21h-77q-21 0 -26 20l-116 670h70l90 -559q8 -40 12 -80h19q2 15 6.5 41.5t6.5 37.5l89 537q3 23 26 23h73q22 0 27 -23l88 -537q7 -38 12 -79
h20q1 9 3.5 25t4.5 29t4 24l91 561h69z" />
    <glyph glyph-name="X" unicode="X" horiz-adv-x="490" 
d="M256 334h-22l-142 -334h-71l158 358l-148 332h71l130 -305h26l130 305h71l-148 -332l158 -358h-72z" />
    <glyph glyph-name="Y" unicode="Y" horiz-adv-x="455" 
d="M260 247v-247h-65v247l-186 443h71l119 -303q6 -13 26 -74h6q12 41 25 73l119 304h69z" />
    <glyph glyph-name="Z" unicode="Z" horiz-adv-x="455" 
d="M416 56v-56h-377v56l303 578h-298v56h367v-56l-302 -578h307z" />
    <glyph glyph-name="bracketleft" unicode="[" horiz-adv-x="263" 
d="M229 724h-83q-12 0 -12 -14v-817q0 -14 12 -14h83v-44h-113q-41 0 -41 46v841q0 20 11.5 33t29.5 13h113v-44z" />
    <glyph glyph-name="backslash" unicode="\" horiz-adv-x="414" 
d="M392 -63h-54l-316 753h54z" />
    <glyph glyph-name="bracketright" unicode="]" horiz-adv-x="263" 
d="M34 768h113q18 0 30 -13t12 -33v-841q0 -20 -12 -33t-30 -13h-113v44h82q12 0 12 14v817q0 14 -12 14h-82v44z" />
    <glyph glyph-name="asciicircum" unicode="^" horiz-adv-x="340" 
d="M316 386l-26 -19l-116 177h-7l-116 -177l-27 19l123 205h46z" />
    <glyph glyph-name="underscore" unicode="_" horiz-adv-x="352" 
d="M352 -50h-352v50h352v-50z" />
    <glyph glyph-name="grave" unicode="`" horiz-adv-x="251" 
d="M199 572l-23 -30l-151 128l37 48z" />
    <glyph glyph-name="a" unicode="a" horiz-adv-x="441" 
d="M248 497q67 0 99.5 -34t32.5 -115v-348h-50l-8 80q-28 -35 -71.5 -61.5t-92.5 -26.5q-53 0 -84 34t-31 97v56q0 56 28 87t78 31h167v51q-1 48 -18.5 71t-61.5 23q-64 0 -171 -14l-6 47q121 22 189 22zM170 48q32 -1 72 20t74 58v122l-155 -2q-53 -3 -53 -75v-42
q0 -81 62 -81z" />
    <glyph glyph-name="b" unicode="b" horiz-adv-x="458" 
d="M271 497q74 0 108 -59t34 -195q0 -134 -37.5 -194.5t-134.5 -60.5q-96 0 -178 33v679h64v-194q0 -58 -8 -103q75 94 152 94zM240 43q58 0 82.5 45t24.5 155q0 112 -20 155t-77 43q-29 0 -57 -19t-67 -61l1 -300q55 -20 113 -18z" />
    <glyph glyph-name="c" unicode="c" horiz-adv-x="392" 
d="M231 497q75 0 124 -22l-9 -41q-45 8 -105 8q-72 0 -100.5 -42.5t-28.5 -157.5t28.5 -157t100.5 -42q66 0 115 11l6 -44q-60 -22 -132 -22q-101 0 -143 57t-42 197t42 197.5t144 57.5z" />
    <glyph glyph-name="d" unicode="d" horiz-adv-x="460" 
d="M396 700v-700h-50l-6 73q-73 -85 -155 -85q-74 0 -106.5 61.5t-32.5 193.5q0 137 35.5 195.5t111.5 58.5q74 0 143 -46q-4 43 -4 94v155h64zM205 44q31 0 57 16.5t70 58.5v288q-78 34 -123 34q-54 0 -75.5 -42.5t-21.5 -154.5q0 -113 21 -156.5t72 -43.5z" />
    <glyph glyph-name="e" unicode="e" horiz-adv-x="432" 
d="M238 43q59 0 137 12l6 -43q-53 -24 -151 -24q-100 0 -142.5 58.5t-42.5 197.5q0 140 41.5 196.5t137.5 56.5q86 0 126 -37.5t40 -113.5q2 -135 -92 -135h-185q4 -96 32 -132t93 -36zM227 442q-64 0 -89 -39t-26 -142h170q46 0 44 84q0 51 -23 74t-76 23z" />
    <glyph glyph-name="f" unicode="f" horiz-adv-x="304" 
d="M310 663h-81q-39 0 -55 -20.5t-16 -71.5v-87h127v-50h-127v-434h-64v434h-71v45l71 5v93q0 69 26.5 104t86.5 35q63 0 108 -6z" />
    <glyph glyph-name="g" unicode="g" horiz-adv-x="448" 
d="M426 448l-64 -5q22 -35 22 -99q0 -80 -37.5 -116t-128.5 -36q-54 0 -84 11q-16 -28 -10 -59.5t38 -38.5l147 -31q54 -10 76 -41t22 -93q0 -82 -40.5 -113.5t-144.5 -31.5q-105 0 -146.5 31.5t-41.5 112.5q0 47 15 75t55 52q-35 26 -34.5 74.5t31.5 77.5q-50 33 -50 126
q0 80 38 116.5t129 36.5q57 0 90 -13h122zM218 241q59 0 82.5 24t23.5 79t-23.5 79t-82.5 24q-60 0 -84.5 -24t-24.5 -79t24.5 -79t84.5 -24zM345 -56q0 41 -13.5 57.5t-54.5 24.5l-131 26l-1 -1q-29 -25 -38.5 -48t-9.5 -57q0 -57 25 -77t97 -20q75 0 100.5 19.5t25.5 75.5
z" />
    <glyph glyph-name="h" unicode="h" horiz-adv-x="466" 
d="M298 497q106 0 106 -133v-364h-63v347q0 52 -14 73.5t-46 21.5q-33 0 -66.5 -19t-86.5 -63v-360h-64v700h64v-201q0 -49 -5 -94q95 92 175 92z" />
    <glyph glyph-name="i" unicode="i" horiz-adv-x="199" 
d="M84 688h30q20 0 20 -21v-58q0 -21 -20 -21h-30q-19 0 -19 21v58q0 21 19 21zM131 0h-63v484h63v-484z" />
    <glyph glyph-name="j" unicode="j" horiz-adv-x="199" 
d="M85 688h30q20 0 20 -21v-58q0 -21 -20 -21h-30q-20 0 -20 21v58q0 21 20 21zM132 484v-508q0 -111 -74 -182l-35 28q45 69 45 154v508h64z" />
    <glyph glyph-name="k" unicode="k" horiz-adv-x="407" 
d="M176 251h-52q4 -56 4 -81v-170h-64v700h64v-318q0 -47 -4 -83h52l129 185h73l-124 -181q-12 -17 -27 -28v-2q14 -12 27 -34l137 -239h-72z" />
    <glyph glyph-name="l" unicode="l" horiz-adv-x="237" 
d="M129 700l-1 -580q0 -70 54 -70h39l8 -48q-25 -10 -70 -10q-43 0 -68.5 30.5t-25.5 85.5v592h64z" />
    <glyph glyph-name="m" unicode="m" horiz-adv-x="705" 
d="M539 497q104 0 104 -133v-364h-62v347q-1 50 -15.5 72.5t-47.5 22.5q-29 0 -56 -17.5t-77 -64.5v-360h-62v347q1 50 -14.5 72.5t-48.5 22.5q-28 0 -56 -18t-76 -64v-360h-64v484h52l4 -79q83 92 161 92q83 0 100 -89q80 89 158 89z" />
    <glyph glyph-name="n" unicode="n" horiz-adv-x="466" 
d="M299 497q106 0 106 -133v-364h-64v347q0 51 -13.5 73t-45.5 22q-33 0 -67 -19.5t-87 -63.5v-359h-64v484h54l4 -79q95 92 177 92z" />
    <glyph glyph-name="o" unicode="o" horiz-adv-x="456" 
d="M228 497q100 0 141.5 -57.5t41.5 -197.5q0 -139 -41 -196.5t-142 -57.5q-100 0 -141.5 57.5t-41.5 196.5t41.5 197t141.5 58zM228 442q-66 0 -91 -43t-25 -157t25 -157t91 -43t91.5 43t25.5 157t-25.5 157t-91.5 43z" />
    <glyph glyph-name="p" unicode="p" horiz-adv-x="466" 
d="M284 497q72 0 104 -62.5t32 -194.5q0 -136 -36 -194t-113 -58q-75 0 -146 50q3 -33 3 -95v-147h-64v688h52l6 -79q33 43 76.5 67.5t85.5 24.5zM256 44q54 0 75.5 42.5t21.5 154.5q0 110 -20.5 155t-68.5 45q-57 0 -136 -83v-278q82 -36 128 -36z" />
    <glyph glyph-name="q" unicode="q" horiz-adv-x="458" 
d="M220 497q93 0 175 -34v-667h-63l-1 178q0 59 6 96q-79 -82 -157 -82q-69 0 -102 61t-33 192q0 136 38.5 196t136.5 60zM200 44q34 0 63 17t69 56v306q-59 21 -112 19q-61 -1 -85 -44.5t-24 -160.5q0 -104 19.5 -148.5t69.5 -44.5z" />
    <glyph glyph-name="r" unicode="r" horiz-adv-x="321" 
d="M306 497l-7 -60h-22q-31 0 -63.5 -17t-85.5 -57v-363h-64v484h50l6 -80q91 93 169 93h17z" />
    <glyph glyph-name="s" unicode="s" horiz-adv-x="408" 
d="M193 497q94 -2 164 -15l-6 -46q-98 6 -149 6q-61 1 -79.5 -11t-18.5 -66q0 -41 13 -57t44 -24l116 -28q47 -12 69 -41.5t22 -88.5q0 -85 -37.5 -111t-129.5 -26q-81 0 -152 13l5 47q59 -8 135 -6q70 1 93.5 16.5t23.5 66.5q0 39 -15 55t-47 24l-114 28q-48 11 -68.5 41.5
t-20.5 90.5q0 82 33.5 107.5t118.5 24.5z" />
    <glyph glyph-name="t" unicode="t" horiz-adv-x="304" 
d="M156 434v-314q0 -37 13 -53.5t41 -16.5h61l8 -48q-42 -10 -87 -10q-99 0 -99 121v321h-71v45l71 5v147h63v-147h127v-50h-127z" />
    <glyph glyph-name="u" unicode="u" horiz-adv-x="458" 
d="M394 484v-484h-51l-6 73q-88 -85 -169 -85q-106 0 -106 132v364h64v-347q-1 -50 14 -72t49 -22q31 0 62.5 18.5t79.5 60.5v362h63z" />
    <glyph glyph-name="v" unicode="v" horiz-adv-x="425" 
d="M410 484l-146 -468q-6 -16 -22 -16h-59q-17 0 -22 16l-145 468h68l99 -350l24 -87h10q16 50 26 88l99 349h68z" />
    <glyph glyph-name="w" unicode="w" horiz-adv-x="662" 
d="M641 484l-116 -465q-5 -19 -25 -19h-59q-23 0 -26 21l-66 347q-8 50 -14 75h-9q-4 -25 -14 -75l-66 -347q-2 -21 -26 -21h-58q-20 0 -25 19l-117 465h66l85 -371q3 -12 7.5 -35t6.5 -35h10q11 53 14 70l67 351q3 20 25 20h61q21 0 24 -21l66 -350q10 -46 14 -70h12
q9 54 13 70l84 371h66z" />
    <glyph glyph-name="x" unicode="x" horiz-adv-x="422" 
d="M219 227h-15l-115 -227h-70l133 251l-123 233h69l104 -206h19l104 206h69l-123 -233l132 -251h-69z" />
    <glyph glyph-name="y" unicode="y" horiz-adv-x="423" 
d="M408 484l-158 -518q-23 -73 -62.5 -119t-105.5 -54l-6 41q81 34 114 139l10 27h-17q-18 0 -24 17l-143 467h68l107 -378q13 -48 15 -56h11q10 31 17 57l105 377h69z" />
    <glyph glyph-name="z" unicode="z" horiz-adv-x="410" 
d="M370 53v-53h-330v53l259 379h-257v52h325v-52l-258 -379h261z" />
    <glyph glyph-name="braceleft" unicode="{" horiz-adv-x="256" 
d="M220 768v-41q-41 0 -57 -21.5t-16 -71.5v-189q0 -60 -14.5 -83t-56.5 -34q44 -17 58.5 -39t15.5 -74v-246q0 -50 16 -71.5t57 -21.5v-41q-71 -4 -102.5 28t-31.5 102v262q0 26 -6.5 40.5t-13.5 19t-31 16.5v50q19 8 24.5 10.5t13 11.5t8.5 21t1 37v205q0 70 32 102
t103 28z" />
    <glyph glyph-name="bar" unicode="|" horiz-adv-x="197" 
d="M122 -169h-47v950h47v-950z" />
    <glyph glyph-name="braceright" unicode="}" horiz-adv-x="256" 
d="M36 727v41q71 4 103 -28t32 -102v-205q0 -45 7.5 -56t39.5 -24v-50q-24 -12 -31 -16.5t-13.5 -19t-6.5 -40.5v-262q0 -70 -31.5 -102t-102.5 -28v41q41 0 57 21.5t16 71.5v246q1 52 15.5 74t58.5 39q-42 11 -56.5 34t-14.5 83v189q0 50 -16 71.5t-57 21.5z" />
    <glyph glyph-name="asciitilde" unicode="~" horiz-adv-x="423" 
d="M125 341q30 -2 85.5 -30.5t79.5 -31.5q22 -2 30 11t8 46h33q5 -52 -12.5 -79.5t-49.5 -25.5q-35 2 -90 30t-76 31t-29 -11t-8 -48h-34q-4 54 14 82t49 26z" />
    <glyph glyph-name="uni00A0" unicode="&#xa0;" horiz-adv-x="180" 
 />
    <glyph glyph-name="exclamdown" unicode="&#xa1;" horiz-adv-x="205" 
d="M94 488h17q24 0 24 -24v-58q0 -24 -24 -24h-17q-14 0 -19 5t-5 19v58q0 14 5 19t19 5zM134 112v-311h-64v311l6 168h52z" />
    <glyph glyph-name="cent" unicode="&#xa2;" horiz-adv-x="409" 
d="M355 161l7 -44q-60 -22 -128 -22l-7 -95h-34l7 96q-84 7 -119.5 65.5t-35.5 188.5q0 139 42 196.5t143 57.5h3l8 86h34l-6 -88q55 -6 86 -19l-9 -44q-38 7 -82 9l-25 -398h2q66 0 114 11zM109 350q0 -101 21.5 -145t74.5 -52l24 396q-67 -3 -93.5 -46t-26.5 -153z" />
    <glyph glyph-name="sterling" unicode="&#xa3;" horiz-adv-x="457" 
d="M416 56v-56h-366v56q70 49 63 200l-4 87h-63v40h62l-6 140q-2 57 7 93.5t31 54.5t47.5 24t66.5 6q62 0 143 -10l-4 -51q-54 5 -142 5q-49 0 -68 -27t-17 -95l7 -140h174l-2 -40h-170l4 -87q5 -142 -58 -202q17 2 53 2h242z" />
    <glyph glyph-name="currency" unicode="&#xa4;" horiz-adv-x="479" 
d="M396 352q0 -68 -35 -121l62 -75l-30 -29l-58 72q-41 -41 -96 -41q-54 0 -97 40l-57 -71l-30 31l60 74q-34 53 -34 120q0 68 35 121l-59 73l28 30l57 -71q43 41 97 41q55 0 97 -42l58 72l29 -30l-61 -74q34 -53 34 -120zM239 198q48 0 82.5 45.5t34.5 108.5
q0 64 -34.5 109t-82.5 45q-49 0 -83.5 -45t-34.5 -109t34.5 -109t83.5 -45z" />
    <glyph glyph-name="yen" unicode="&#xa5;" horiz-adv-x="496" 
d="M301 317h125v-40h-142l-3 -6v-66h145v-40h-145v-165h-66v165h-140l-1 40h141v66l-3 6h-137l-2 40h122l-165 373h69l119 -285q6 -14 16.5 -43.5t11.5 -31.5h6q17 51 26 74l119 286h68z" />
    <glyph glyph-name="brokenbar" unicode="&#xa6;" horiz-adv-x="199" 
d="M123 381h-47v400h47v-400zM123 -169h-47v400h47v-400z" />
    <glyph glyph-name="section" unicode="&#xa7;" horiz-adv-x="439" 
d="M209 702q85 0 174 -12l-4 -49q-73 6 -155 7q-22 0 -35.5 -0.5t-28 -4t-22.5 -10.5t-13.5 -20.5t-5.5 -32.5q-1 -62 54 -103l133 -97q55 -37 70 -94t-1 -136h-46q5 69 -7.5 110.5t-48.5 66.5l-140 102q-43 33 -62.5 66t-19.5 86q0 73 38 97.5t120 23.5zM64 398h47
q-5 -70 6.5 -109.5t48.5 -65.5l141 -102q41 -31 61 -65.5t20 -87.5q0 -78 -38 -101t-119 -22q-86 0 -176 12l6 49q96 -7 154 -7q29 0 43.5 1t31 7.5t23.5 21.5t7 41q1 63 -53 103l-133 97q-55 36 -70 92t0 136z" />
    <glyph glyph-name="dieresis" unicode="&#xa8;" horiz-adv-x="330" 
d="M83 686h22q18 0 18 -20v-55q0 -19 -18 -19h-22q-17 0 -17 19v55q0 20 17 20zM226 686h21q19 0 19 -20v-55q0 -19 -19 -19h-21q-18 0 -18 19v55q0 20 18 20z" />
    <glyph glyph-name="copyright" unicode="&#xa9;" horiz-adv-x="675" 
d="M337 702q122 0 206 -101.5t84 -255.5t-84 -255.5t-206 -101.5q-121 0 -205 101.5t-84 255.5t84 255.5t205 101.5zM337 665q-105 0 -179 -91.5t-74 -228.5t74 -228.5t179 -91.5q106 0 179.5 91.5t73.5 228.5t-73.5 228.5t-179.5 91.5zM341 572q68 0 108 -13l-5 -37
q-44 5 -103 5q-60 0 -83 -39t-23 -140t23 -140.5t83 -39.5q72 0 112 6l5 -37q-51 -14 -117 -14q-86 0 -121.5 50.5t-35.5 174.5q0 123 35.5 173.5t121.5 50.5z" />
    <glyph glyph-name="ordfeminine" unicode="&#xaa;" horiz-adv-x="355" 
d="M205 605q45 0 67.5 -24t22.5 -79v-231h-38l-7 59q-53 -64 -119 -64q-36 0 -57 22t-21 63v39q0 38 19.5 58.5t54.5 20.5h120v34q0 60 -52 60q-49 0 -125 -9l-5 36q81 15 140 15zM146 309q48 -2 101 51v80l-105 -6q-22 -1 -31.5 -12.5t-9.5 -34.5v-27q0 -51 45 -51z" />
    <glyph glyph-name="guillemotleft" unicode="&#xab;" horiz-adv-x="388" 
d="M199 435l-103 -184l104 -187l-34 -22l-130 201v16l129 198zM343 435l-103 -184l104 -187l-34 -22l-130 201v16l129 198z" />
    <glyph glyph-name="logicalnot" unicode="&#xac;" horiz-adv-x="475" 
d="M411 322v-191h-49v141h-302v50h351z" />
    <glyph glyph-name="softhyphen" unicode="&#xad;" horiz-adv-x="363" 
d="M305 227h-246v50h246v-50z" />
    <glyph glyph-name="registered" unicode="&#xae;" horiz-adv-x="447" 
d="M224 701q74 0 126 -65t52 -157q0 -93 -52 -158t-126 -65q-75 0 -127 65t-52 158q0 92 52 157t127 65zM224 281q64 0 109 58t45 140t-45 140t-109 58q-65 0 -110 -58t-45 -140t45.5 -140t109.5 -58zM323 346h-33l-23 82q-9 31 -34 31q-45 0 -59 1v-114h-31v267q28 3 88 3
q45 0 64 -16.5t19 -59.5q0 -33 -11 -49t-37 -20v-2q24 -6 31 -39zM174 483h57q30 1 41 12.5t11 41.5q0 32 -11 42.5t-41 10.5h-57v-107z" />
    <glyph glyph-name="macron" unicode="&#xaf;" horiz-adv-x="322" 
d="M273 615h-224v49h224v-49z" />
    <glyph glyph-name="degree" unicode="&#xb0;" horiz-adv-x="294" 
d="M147 702q42 0 73 -37t31 -88q0 -52 -30.5 -89.5t-73.5 -37.5t-73.5 37.5t-30.5 89.5t30.5 88.5t73.5 36.5zM147 662q-26 0 -44.5 -24.5t-18.5 -60.5q0 -35 18.5 -60.5t44.5 -25.5t44.5 25.5t18.5 60.5q0 36 -18.5 60.5t-44.5 24.5z" />
    <glyph glyph-name="plusminus" unicode="&#xb1;" horiz-adv-x="474" 
d="M413 379v-49h-152v-138h-49v138h-150v49h150v138h50v-138h151zM62 127h351v-49h-351v49z" />
    <glyph glyph-name="twosuperior" unicode="&#xb2;" horiz-adv-x="350" 
d="M165 781q64 0 92 -18t28 -73q0 -62 -67 -150l-105 -136q39 2 58 1h128v-45h-249v28q0 12 8 23l106 138q66 85 66 138q1 31 -15.5 41t-51.5 10q-48 0 -107 -10l-3 38q59 15 112 15z" />
    <glyph glyph-name="threesuperior" unicode="&#xb3;" horiz-adv-x="336" 
d="M161 781q66 0 92 -20.5t26 -74.5q0 -92 -61 -105v-2q38 -6 53.5 -32t16.5 -72q1 -64 -26.5 -93t-93.5 -29q-43 0 -119 10l3 38q55 -6 104 -6q44 0 62 19t18 67q0 36 -15 56.5t-57 20.5h-69v37l69 1q66 2 66 79q0 37 -16.5 50.5t-59.5 13.5q-53 0 -96 -5l-3 37
q53 10 106 10z" />
    <glyph glyph-name="acute" unicode="&#xb4;" horiz-adv-x="250" 
d="M218 670l-151 -128l-23 30l137 146z" />
    <glyph glyph-name="paragraph" unicode="&#xb6;" horiz-adv-x="478" 
d="M279 702q73 0 121 -17v-685h-50v653q-48 5 -83 5v-868h-49v411q-98 11 -141 69t-43 180q0 138 56 195t189 57z" />
    <glyph glyph-name="periodcentered" unicode="&#xb7;" horiz-adv-x="187" 
d="M83 311h22q24 0 24 -25v-57q0 -25 -24 -25h-22q-24 0 -24 25v57q0 25 24 25z" />
    <glyph glyph-name="cedilla" unicode="&#xb8;" horiz-adv-x="187" 
d="M67 -76l6 31q47 5 68 -9.5t20 -55.5q-2 -59 -39 -92t-94 -24l10 35q33 -1 54 21t22 56q1 21 -9 29t-38 9z" />
    <glyph glyph-name="onesuperior" unicode="&#xb9;" horiz-adv-x="236" 
d="M174 360h-50v332q0 24 2 36l-91 -32l-6 35l95 43h50v-414z" />
    <glyph glyph-name="ordmasculine" unicode="&#xba;" horiz-adv-x="358" 
d="M179 605q72 0 101 -38.5t29 -132.5t-29 -132.5t-101 -38.5t-101 38.5t-29 132.5t29 132.5t101 38.5zM179 564q-45 0 -62.5 -28t-17.5 -102t17.5 -101.5t62.5 -27.5t62 27.5t17 101.5t-17 102t-62 28z" />
    <glyph glyph-name="guillemotright" unicode="&#xbb;" horiz-adv-x="388" 
d="M208 259v-16l-130 -201l-33 22l103 187l-102 184l33 22zM352 259v-16l-130 -201l-33 22l103 187l-102 184l33 22z" />
    <glyph glyph-name="onequarter" unicode="&#xbc;" horiz-adv-x="692" 
d="M127 276v332q0 24 2 36l-91 -32l-6 35l95 43h50v-414h-50zM518 690l-362 -690h-46l362 690h46zM658 109l-38 -4v-105h-48v104h-159q-21 0 -31 17t0 42l104 251h48l-100 -245q-4 -10 0 -17.5t14 -7.5h124v123l9 68h39v-191h38v-35z" />
    <glyph glyph-name="onehalf" unicode="&#xbd;" horiz-adv-x="712" 
d="M177 276h-50v332q0 24 2 36l-91 -32l-6 35l95 43h50v-414zM151 0h-47l362 690h47zM538 421q64 0 92 -18.5t28 -72.5q0 -64 -67 -150l-105 -136q39 2 57 1h129l-1 -45h-249v28q0 12 8 23l106 138q67 85 67 138q1 31 -15.5 41t-52.5 10q-47 0 -106 -10l-3 38q59 15 112 15z
" />
    <glyph glyph-name="threequarters" unicode="&#xbe;" horiz-adv-x="765" 
d="M285 389q1 -64 -26.5 -93t-93.5 -29q-43 0 -119 10l3 38q55 -6 104 -6q44 0 62 19t18 66q0 37 -15 57.5t-57 20.5l-69 1v35l69 2q66 2 66 78q0 38 -16.5 51.5t-59.5 13.5q-53 0 -96 -5l-3 37q53 10 106 10q66 0 92 -20.5t26 -74.5q0 -92 -61 -105v-2q38 -6 53.5 -32
t16.5 -72zM599 690l-362 -690h-46l362 690h46zM731 109l-41 -4v-105h-48v104h-156q-21 0 -31.5 17t0.5 42l104 251h48l-100 -245q-4 -10 0.5 -17.5t13.5 -7.5h121v123l10 68h38v-191h41v-35z" />
    <glyph glyph-name="questiondown" unicode="&#xbf;" horiz-adv-x="403" 
d="M202 496h16q24 0 24 -25v-57q0 -25 -24 -25h-16q-25 0 -25 25v57q0 25 25 25zM182 288h54q1 -52 -12.5 -95t-33 -71.5t-39.5 -54.5t-34 -56t-15 -63q-3 -109 107 -109q74 0 159 11l4 -46q-5 -1 -28.5 -6t-31 -6t-27.5 -4t-40.5 -3.5t-47.5 -0.5q-163 0 -163 155
q0 41 15 76.5t36 62.5t42.5 54.5t37.5 67.5t17 88z" />
    <glyph glyph-name="Agrave" unicode="&#xc0;" horiz-adv-x="499" 
d="M267 731l-151 128l37 48l137 -146zM364 228h-229l-58 -228h-68l180 671q5 19 25 19h71q19 0 24 -19l181 -671h-68zM349 285l-75 297q-10 38 -14 56h-21q-4 -18 -14 -56l-76 -297h200z" />
    <glyph glyph-name="Aacute" unicode="&#xc1;" horiz-adv-x="499" 
d="M222 731l-23 30l137 146l37 -48zM364 228h-229l-58 -228h-68l180 671q5 19 25 19h71q19 0 24 -19l181 -671h-68zM349 285l-75 297q-10 38 -14 56h-21q-4 -18 -14 -56l-76 -297h200z" />
    <glyph glyph-name="Acircumflex" unicode="&#xc2;" horiz-adv-x="499" 
d="M142 739l-21 28l106 124h47l106 -124l-23 -28l-104 99h-6zM364 228h-229l-58 -228h-68l180 671q5 19 25 19h71q19 0 24 -19l181 -671h-68zM349 285l-75 297q-10 38 -14 56h-21q-4 -18 -14 -56l-76 -297h200z" />
    <glyph glyph-name="Atilde" unicode="&#xc3;" horiz-adv-x="499" 
d="M154 770h-30q-5 53 13 80.5t49 24.5q26 -3 62 -30t58 -30t30.5 10t8.5 45h31q4 -50 -13.5 -77.5t-49.5 -24.5q-29 3 -65.5 30.5t-54.5 30.5q-22 3 -30.5 -11t-8.5 -48zM364 228h-229l-58 -228h-68l180 671q5 19 25 19h71q19 0 24 -19l181 -671h-68zM349 285l-75 297
q-10 38 -14 56h-21q-4 -18 -14 -56l-76 -297h200z" />
    <glyph glyph-name="Adieresis" unicode="&#xc4;" horiz-adv-x="499" 
d="M189 771h-22q-17 0 -17 19v55q0 20 17 20h22q18 0 18 -20v-55q0 -19 -18 -19zM331 771h-21q-18 0 -18 19v55q0 20 18 20h21q19 0 19 -20v-55q0 -19 -19 -19zM364 228h-229l-58 -228h-68l180 671q5 19 25 19h71q19 0 24 -19l181 -671h-68zM349 285l-75 297q-10 38 -14 56
h-21q-4 -18 -14 -56l-76 -297h200z" />
    <glyph glyph-name="Aring" unicode="&#xc5;" horiz-adv-x="499" 
d="M250 716q-35 0 -60 29t-25 72q0 42 25 72t60 30t60.5 -29.5t25.5 -72.5t-25 -72t-61 -29zM250 884q-21 0 -35 -19t-14 -48t14 -47.5t35 -18.5t35 18t14 48q0 29 -14 48t-35 19zM364 228h-229l-58 -228h-68l180 671q5 19 25 19h71q19 0 24 -19l181 -671h-68zM349 285
l-75 297q-10 38 -14 56h-21q-4 -18 -14 -56l-76 -297h200z" />
    <glyph glyph-name="AE" unicode="&#xc6;" horiz-adv-x="734" 
d="M689 55l4 -50q-77 -6 -236 -6q-40 0 -65.5 32t-25.5 82v129h-184l-112 -242h-71l281 590q28 60 66 80t111 20q149 0 236 -5l-4 -51h-206q-25 0 -40 -20t-15 -54v-166l230 -1v-53l-230 -1v-211q0 -73 55 -73h206zM366 297v271q0 22 7.5 43.5t18.5 30.5h-7q-26 -18 -48 -66
l-129 -279h158z" />
    <glyph glyph-name="Ccedilla" unicode="&#xc7;" horiz-adv-x="462" 
d="M267 702q89 0 150 -19l-7 -49q-62 9 -143 9q-83 0 -115 -65t-32 -233t32 -233t115 -65q93 0 154 11l8 -49q-66 -21 -162 -21q-120 0 -168 79.5t-48 277.5t48 277.5t168 79.5zM222 -88l6 31q47 5 68 -9.5t20 -55.5q-2 -59 -39 -92t-94 -24l10 35q33 -1 54 21t22 56
q1 21 -9 29t-38 9z" />
    <glyph glyph-name="Egrave" unicode="&#xc8;" horiz-adv-x="451" 
d="M272 753l-151 128l37 48l137 -146zM406 55l3 -50q-74 -6 -238 -6q-48 0 -76 31t-28 83v464q0 52 28.5 83t75.5 31q164 0 238 -6l-3 -50h-224q-49 0 -49 -73v-169h242v-53h-242v-213q0 -72 49 -72h224z" />
    <glyph glyph-name="Eacute" unicode="&#xc9;" horiz-adv-x="451" 
d="M226 753l-23 30l137 146l37 -48zM406 55l3 -50q-74 -6 -238 -6q-48 0 -76 31t-28 83v464q0 52 28.5 83t75.5 31q164 0 238 -6l-3 -50h-224q-49 0 -49 -73v-169h242v-53h-242v-213q0 -72 49 -72h224z" />
    <glyph glyph-name="Ecircumflex" unicode="&#xca;" horiz-adv-x="451" 
d="M146 761l-21 28l106 124h47l106 -124l-23 -28l-104 99h-6zM406 55l3 -50q-74 -6 -238 -6q-48 0 -76 31t-28 83v464q0 52 28.5 83t75.5 31q164 0 238 -6l-3 -50h-224q-49 0 -49 -73v-169h242v-53h-242v-213q0 -72 49 -72h224z" />
    <glyph glyph-name="Edieresis" unicode="&#xcb;" horiz-adv-x="451" 
d="M194 793h-22q-17 0 -17 19v55q0 20 17 20h22q18 0 18 -20v-55q0 -19 -18 -19zM336 793h-21q-18 0 -18 19v55q0 20 18 20h21q19 0 19 -20v-55q0 -19 -19 -19zM406 55l3 -50q-74 -6 -238 -6q-48 0 -76 31t-28 83v464q0 52 28.5 83t75.5 31q164 0 238 -6l-3 -50h-224
q-49 0 -49 -73v-169h242v-53h-242v-213q0 -72 49 -72h224z" />
    <glyph glyph-name="Igrave" unicode="&#xcc;" horiz-adv-x="209" 
d="M144 761l-23 -30l-151 128l37 48zM138 0h-66v690h66v-690z" />
    <glyph glyph-name="Iacute" unicode="&#xcd;" horiz-adv-x="209" 
d="M227 859l-151 -128l-23 30l137 146zM138 0h-66v690h66v-690z" />
    <glyph glyph-name="Icircumflex" unicode="&#xce;" horiz-adv-x="209" 
d="M234 767l-23 -28l-104 99h-6l-105 -99l-21 28l106 124h47zM138 0h-66v690h66v-690z" />
    <glyph glyph-name="Idieresis" unicode="&#xcf;" horiz-adv-x="209" 
d="M22 865h22q18 0 18 -20v-55q0 -19 -18 -19h-22q-17 0 -17 19v55q0 20 17 20zM165 865h21q19 0 19 -20v-55q0 -19 -19 -19h-21q-18 0 -18 19v55q0 20 18 20zM138 0h-66v690h66v-690z" />
    <glyph glyph-name="Eth" unicode="&#xd0;" horiz-adv-x="538" 
d="M272 699q119 0 167.5 -78.5t48.5 -275.5t-48.5 -275.5t-167.5 -78.5q-93 0 -196 9v349h-57v39h57v302q103 9 196 9zM272 49q82 0 114 65t32 231t-32 231.5t-114 65.5q-52 0 -130 -2v-252h123v-39h-123v-298q74 -2 130 -2z" />
    <glyph glyph-name="Ntilde" unicode="&#xd1;" horiz-adv-x="567" 
d="M223 875q26 -3 62 -30t58 -30t30.5 10t8.5 45h31q4 -50 -13.5 -77.5t-49.5 -24.5q-29 3 -65.5 30.5t-54.5 30.5q-22 3 -30.5 -11t-8.5 -48h-30q-5 53 13 80.5t49 24.5zM495 690v-662q0 -28 -26 -28h-73q-24 0 -29 22l-189 524q-14 45 -29 83h-12v-83l1 -546h-66v662
q0 28 26 28h71q25 0 30 -22l183 -512q4 -12 9.5 -27.5t12.5 -35.5t11 -30h15q-1 33 -1 99v528h66z" />
    <glyph glyph-name="Ograve" unicode="&#xd2;" 
d="M308 761l-23 -30l-151 128l37 48zM269 702q121 0 169.5 -79t48.5 -278t-48.5 -278t-169.5 -79q-122 0 -170 78.5t-48 278.5t48 278.5t170 78.5zM269 644q-84 0 -116.5 -65.5t-32.5 -233.5t32.5 -233.5t116.5 -65.5q83 0 115.5 65.5t32.5 233.5t-32.5 233.5t-115.5 65.5z
" />
    <glyph glyph-name="Oacute" unicode="&#xd3;" 
d="M391 859l-151 -128l-23 30l137 146zM269 702q121 0 169.5 -79t48.5 -278t-48.5 -278t-169.5 -79q-122 0 -170 78.5t-48 278.5t48 278.5t170 78.5zM269 644q-84 0 -116.5 -65.5t-32.5 -233.5t32.5 -233.5t116.5 -65.5q83 0 115.5 65.5t32.5 233.5t-32.5 233.5t-115.5 65.5
z" />
    <glyph glyph-name="Ocircumflex" unicode="&#xd4;" 
d="M398 767l-23 -28l-104 99h-6l-105 -99l-21 28l106 124h47zM269 702q121 0 169.5 -79t48.5 -278t-48.5 -278t-169.5 -79q-122 0 -170 78.5t-48 278.5t48 278.5t170 78.5zM269 644q-84 0 -116.5 -65.5t-32.5 -233.5t32.5 -233.5t116.5 -65.5q83 0 115.5 65.5t32.5 233.5
t-32.5 233.5t-115.5 65.5z" />
    <glyph glyph-name="Otilde" unicode="&#xd5;" 
d="M204 875q26 -3 62 -30t58 -30t30.5 10t8.5 45h31q4 -50 -13.5 -77.5t-49.5 -24.5q-29 3 -65.5 30.5t-54.5 30.5q-22 3 -30.5 -11t-8.5 -48h-30q-5 53 13 80.5t49 24.5zM269 702q121 0 169.5 -79t48.5 -278t-48.5 -278t-169.5 -79q-122 0 -170 78.5t-48 278.5t48 278.5
t170 78.5zM269 644q-84 0 -116.5 -65.5t-32.5 -233.5t32.5 -233.5t116.5 -65.5q83 0 115.5 65.5t32.5 233.5t-32.5 233.5t-115.5 65.5z" />
    <glyph glyph-name="Odieresis" unicode="&#xd6;" 
d="M186 865h22q18 0 18 -20v-55q0 -19 -18 -19h-22q-17 0 -17 19v55q0 20 17 20zM329 865h21q19 0 19 -20v-55q0 -19 -19 -19h-21q-18 0 -18 19v55q0 20 18 20zM269 702q121 0 169.5 -79t48.5 -278t-48.5 -278t-169.5 -79q-122 0 -170 78.5t-48 278.5t48 278.5t170 78.5z
M269 644q-84 0 -116.5 -65.5t-32.5 -233.5t32.5 -233.5t116.5 -65.5q83 0 115.5 65.5t32.5 233.5t-32.5 233.5t-115.5 65.5z" />
    <glyph glyph-name="multiply" unicode="&#xd7;" horiz-adv-x="390" 
d="M231 289l125 -140l-31 -38l-127 141l-127 -141l-32 38l126 140l-126 139l32 39l127 -141l127 141l31 -38z" />
    <glyph glyph-name="Oslash" unicode="&#xd8;" 
d="M431 731l-26 -69q82 -69 82 -317q0 -199 -48.5 -278t-169.5 -79q-66 0 -110 22l-24 -65l-35 16l27 71q-41 38 -58.5 112.5t-17.5 200.5q0 200 48 278.5t170 78.5q62 0 104 -19l24 64zM120 345q0 -174 35 -238l195 515q-31 22 -81 22q-84 0 -116.5 -65.5t-32.5 -233.5z
M269 46q83 0 115.5 65.5t32.5 233.5q0 182 -39 245l-195 -518q32 -26 86 -26z" />
    <glyph glyph-name="Ugrave" unicode="&#xd9;" 
d="M309 761l-23 -30l-151 128l37 48zM469 690v-429q0 -149 -45 -211t-153 -62q-111 0 -157 62t-46 211v429h66v-429q0 -119 30 -167t104 -48t104.5 48t30.5 167v429h66z" />
    <glyph glyph-name="Uacute" unicode="&#xda;" 
d="M392 859l-151 -128l-23 30l137 146zM469 690v-429q0 -149 -45 -211t-153 -62q-111 0 -157 62t-46 211v429h66v-429q0 -119 30 -167t104 -48t104.5 48t30.5 167v429h66z" />
    <glyph glyph-name="Ucircumflex" unicode="&#xdb;" 
d="M399 767l-23 -28l-104 99h-6l-105 -99l-21 28l106 124h47zM469 690v-429q0 -149 -45 -211t-153 -62q-111 0 -157 62t-46 211v429h66v-429q0 -119 30 -167t104 -48t104.5 48t30.5 167v429h66z" />
    <glyph glyph-name="Udieresis" unicode="&#xdc;" 
d="M187 865h22q18 0 18 -20v-55q0 -19 -18 -19h-22q-17 0 -17 19v55q0 20 17 20zM330 865h21q19 0 19 -20v-55q0 -19 -19 -19h-21q-18 0 -18 19v55q0 20 18 20zM469 690v-429q0 -149 -45 -211t-153 -62q-111 0 -157 62t-46 211v429h66v-429q0 -119 30 -167t104 -48t104.5 48
t30.5 167v429h66z" />
    <glyph glyph-name="Yacute" unicode="&#xdd;" horiz-adv-x="455" 
d="M199 731l-23 30l137 146l37 -48zM260 247v-247h-65v247l-186 443h71l119 -303q6 -13 26 -74h6q12 41 25 73l119 304h69z" />
    <glyph glyph-name="Thorn" unicode="&#xde;" horiz-adv-x="476" 
d="M262 563q100 0 137.5 -44.5t37.5 -168.5t-36.5 -168t-131.5 -44q-61 0 -131 6v-144h-66v690h66v-129q33 2 124 2zM138 195h122q63 0 87 32t24 123q0 92 -24 124t-87 32q-90 0 -122 -1v-310z" />
    <glyph glyph-name="germandbls" unicode="&#xdf;" horiz-adv-x="541" 
d="M353 295l87 -43q38 -20 54 -47t16 -80q0 -82 -32.5 -109t-107.5 -27q-66 0 -130 11l5 48q49 -6 113 -6q52 1 71 16t19 69q0 37 -12 53t-42 31l-88 45q-66 33 -66 109q0 19 4.5 35.5t8 25.5t18 22t18.5 16t26.5 16.5t25.5 15.5q31 19 42 38.5t11 57.5q0 40 -25.5 56.5
t-91.5 16.5q-70 0 -94.5 -26.5t-24.5 -105.5v-533h-64v433h-71v49l71 2v55q0 59 11.5 95.5t37 54.5t55 23.5t76.5 5.5q98 0 139 -27.5t41 -97.5q0 -49 -14.5 -76.5t-56.5 -54.5q-8 -5 -24.5 -14.5t-21.5 -13t-14.5 -11.5t-12.5 -14.5t-6 -17.5t-3 -25q0 -28 12 -42t40 -29z
" />
    <glyph glyph-name="agrave" unicode="&#xe0;" horiz-adv-x="441" 
d="M234 550l-151 128l37 48l137 -146zM248 497q67 0 99.5 -34t32.5 -115v-348h-50l-8 80q-28 -35 -71.5 -61.5t-92.5 -26.5q-53 0 -84 34t-31 97v56q0 56 28 87t78 31h167v51q-1 48 -18.5 71t-61.5 23q-64 0 -171 -14l-6 47q121 22 189 22zM170 48q32 -1 72 20t74 58v122
l-155 -2q-53 -3 -53 -75v-42q0 -81 62 -81z" />
    <glyph glyph-name="aacute" unicode="&#xe1;" horiz-adv-x="441" 
d="M188 550l-23 30l137 146l37 -48zM248 497q67 0 99.5 -34t32.5 -115v-348h-50l-8 80q-28 -35 -71.5 -61.5t-92.5 -26.5q-53 0 -84 34t-31 97v56q0 56 28 87t78 31h167v51q-1 48 -18.5 71t-61.5 23q-64 0 -171 -14l-6 47q121 22 189 22zM170 48q32 -1 72 20t74 58v122
l-155 -2q-53 -3 -53 -75v-42q0 -81 62 -81z" />
    <glyph glyph-name="acircumflex" unicode="&#xe2;" horiz-adv-x="441" 
d="M108 558l-21 28l106 124h47l106 -124l-23 -28l-104 99h-6zM248 497q67 0 99.5 -34t32.5 -115v-348h-50l-8 80q-28 -35 -71.5 -61.5t-92.5 -26.5q-53 0 -84 34t-31 97v56q0 56 28 87t78 31h167v51q-1 48 -18.5 71t-61.5 23q-64 0 -171 -14l-6 47q121 22 189 22zM170 48
q32 -1 72 20t74 58v122l-155 -2q-53 -3 -53 -75v-42q0 -81 62 -81z" />
    <glyph glyph-name="atilde" unicode="&#xe3;" horiz-adv-x="441" 
d="M121 589h-30q-5 53 13 80.5t49 24.5q26 -3 62 -30t58 -30t30.5 10t8.5 45h31q4 -50 -13.5 -77.5t-49.5 -24.5q-29 3 -65.5 30.5t-54.5 30.5q-22 3 -30.5 -11t-8.5 -48zM248 497q67 0 99.5 -34t32.5 -115v-348h-50l-8 80q-28 -35 -71.5 -61.5t-92.5 -26.5q-53 0 -84 34
t-31 97v56q0 56 28 87t78 31h167v51q-1 48 -18.5 71t-61.5 23q-64 0 -171 -14l-6 47q121 22 189 22zM170 48q32 -1 72 20t74 58v122l-155 -2q-53 -3 -53 -75v-42q0 -81 62 -81z" />
    <glyph glyph-name="adieresis" unicode="&#xe4;" horiz-adv-x="441" 
d="M156 591h-22q-17 0 -17 19v55q0 20 17 20h22q18 0 18 -20v-55q0 -19 -18 -19zM298 591h-21q-18 0 -18 19v55q0 20 18 20h21q19 0 19 -20v-55q0 -19 -19 -19zM248 497q67 0 99.5 -34t32.5 -115v-348h-50l-8 80q-28 -35 -71.5 -61.5t-92.5 -26.5q-53 0 -84 34t-31 97v56
q0 56 28 87t78 31h167v51q-1 48 -18.5 71t-61.5 23q-64 0 -171 -14l-6 47q121 22 189 22zM170 48q32 -1 72 20t74 58v122l-155 -2q-53 -3 -53 -75v-42q0 -81 62 -81z" />
    <glyph glyph-name="aring" unicode="&#xe5;" horiz-adv-x="441" 
d="M217 536q-35 0 -60 29t-25 72q0 42 25 72t60 30t60.5 -29.5t25.5 -72.5t-25 -72t-61 -29zM217 704q-21 0 -35 -19t-14 -48t14 -47.5t35 -18.5t35 18t14 48q0 29 -14 48t-35 19zM248 497q67 0 99.5 -34t32.5 -115v-348h-50l-8 80q-28 -35 -71.5 -61.5t-92.5 -26.5
q-53 0 -84 34t-31 97v56q0 56 28 87t78 31h167v51q-1 48 -18.5 71t-61.5 23q-64 0 -171 -14l-6 47q121 22 189 22zM170 48q32 -1 72 20t74 58v122l-155 -2q-53 -3 -53 -75v-42q0 -81 62 -81z" />
    <glyph glyph-name="ae" unicode="&#xe6;" horiz-adv-x="702" 
d="M509 43q58 0 136 12l7 -43q-53 -24 -151 -24q-68 0 -108 25t-59 81q-28 -39 -75 -70.5t-101 -31.5q-53 0 -84 34t-31 97v56q0 56 27.5 87t78.5 31h167v51q0 48 -17.5 71t-62.5 23q-64 0 -171 -14l-6 47q121 22 189 22q82 0 112 -52q42 52 134 52q87 0 127 -37.5
t40 -113.5q1 -69 -24 -102t-79 -33h-175q4 -97 32 -132.5t94 -35.5zM497 442q-64 0 -89 -39t-26 -142h160q31 0 43 21t12 63q0 51 -23.5 74t-76.5 23zM170 48q33 -1 75.5 22.5t78.5 62.5q-9 48 -9 111v4l-154 -2q-53 -3 -53 -75v-42q0 -81 62 -81z" />
    <glyph glyph-name="ccedilla" unicode="&#xe7;" horiz-adv-x="392" 
d="M231 497q75 0 124 -22l-9 -41q-45 8 -105 8q-72 0 -100.5 -42.5t-28.5 -157.5t28.5 -157t100.5 -42q66 0 115 11l6 -44q-60 -22 -132 -22q-101 0 -143 57t-42 197t42 197.5t144 57.5zM184 -88l6 31q47 5 68 -9.5t20 -55.5q-2 -59 -39 -92t-94 -24l10 35q33 -1 54 21
t22 56q1 21 -9 29t-38 9z" />
    <glyph glyph-name="egrave" unicode="&#xe8;" horiz-adv-x="432" 
d="M241 550l-151 128l37 48l137 -146zM238 43q59 0 137 12l6 -43q-53 -24 -151 -24q-100 0 -142.5 58.5t-42.5 197.5q0 140 41.5 196.5t137.5 56.5q86 0 126 -37.5t40 -113.5q2 -135 -92 -135h-185q4 -96 32 -132t93 -36zM227 442q-64 0 -89 -39t-26 -142h170q46 0 44 84
q0 51 -23 74t-76 23z" />
    <glyph glyph-name="eacute" unicode="&#xe9;" horiz-adv-x="432" 
d="M195 550l-23 30l137 146l37 -48zM238 43q59 0 137 12l6 -43q-53 -24 -151 -24q-100 0 -142.5 58.5t-42.5 197.5q0 140 41.5 196.5t137.5 56.5q86 0 126 -37.5t40 -113.5q2 -135 -92 -135h-185q4 -96 32 -132t93 -36zM227 442q-64 0 -89 -39t-26 -142h170q46 0 44 84
q0 51 -23 74t-76 23z" />
    <glyph glyph-name="ecircumflex" unicode="&#xea;" horiz-adv-x="432" 
d="M115 558l-21 28l106 124h47l106 -124l-23 -28l-104 99h-6zM238 43q59 0 137 12l6 -43q-53 -24 -151 -24q-100 0 -142.5 58.5t-42.5 197.5q0 140 41.5 196.5t137.5 56.5q86 0 126 -37.5t40 -113.5q2 -135 -92 -135h-185q4 -96 32 -132t93 -36zM227 442q-64 0 -89 -39
t-26 -142h170q46 0 44 84q0 51 -23 74t-76 23z" />
    <glyph glyph-name="edieresis" unicode="&#xeb;" horiz-adv-x="432" 
d="M163 591h-22q-17 0 -17 19v55q0 20 17 20h22q18 0 18 -20v-55q0 -19 -18 -19zM305 591h-21q-18 0 -18 19v55q0 20 18 20h21q19 0 19 -20v-55q0 -19 -19 -19zM238 43q59 0 137 12l6 -43q-53 -24 -151 -24q-100 0 -142.5 58.5t-42.5 197.5q0 140 41.5 196.5t137.5 56.5
q86 0 126 -37.5t40 -113.5q2 -135 -92 -135h-185q4 -96 32 -132t93 -36zM227 442q-64 0 -89 -39t-26 -142h170q46 0 44 84q0 51 -23 74t-76 23z" />
    <glyph glyph-name="igrave" unicode="&#xec;" horiz-adv-x="199" 
d="M139 580l-23 -30l-151 128l37 48zM132 0h-64v484h64v-484z" />
    <glyph glyph-name="iacute" unicode="&#xed;" horiz-adv-x="199" 
d="M222 678l-151 -128l-23 30l137 146zM132 0h-64v484h64v-484z" />
    <glyph glyph-name="icircumflex" unicode="&#xee;" horiz-adv-x="199" 
d="M229 586l-23 -28l-104 99h-6l-105 -99l-21 28l106 124h47zM132 0h-64v484h64v-484z" />
    <glyph glyph-name="idieresis" unicode="&#xef;" horiz-adv-x="199" 
d="M17 685h22q18 0 18 -20v-55q0 -19 -18 -19h-22q-17 0 -17 19v55q0 20 17 20zM160 685h21q19 0 19 -20v-55q0 -19 -19 -19h-21q-18 0 -18 19v55q0 20 18 20zM132 0h-64v484h64v-484z" />
    <glyph glyph-name="eth" unicode="&#xf0;" horiz-adv-x="449" 
d="M355 676l-56 -51q97 -100 97 -344q0 -68 -7 -117t-25.5 -91t-54 -63.5t-88.5 -21.5q-91 0 -133 55t-42 177q0 112 38 169.5t125 57.5q63 0 114 -39q-15 119 -65 180l-66 -60l-24 30l62 57q-50 39 -135 37l8 46q100 3 168 -47l61 56zM221 42q28 0 48 11.5t32 30.5
t18.5 51.5t8.5 67t2 84.5q0 41 -3 77q-47 29 -108 29q-58 0 -82 -44t-24 -129q0 -97 25.5 -137.5t82.5 -40.5z" />
    <glyph glyph-name="ntilde" unicode="&#xf1;" horiz-adv-x="466" 
d="M141 589h-30q-5 53 13 80.5t49 24.5q26 -3 62 -30t58 -30t30.5 10t8.5 45h31q4 -50 -13.5 -77.5t-49.5 -24.5q-29 3 -65.5 30.5t-54.5 30.5q-22 3 -30.5 -11t-8.5 -48zM299 497q106 0 106 -133v-364h-64v347q0 51 -13.5 73t-45.5 22q-33 0 -67 -19.5t-87 -63.5v-359h-64
v484h54l4 -79q95 92 177 92z" />
    <glyph glyph-name="ograve" unicode="&#xf2;" horiz-adv-x="456" 
d="M268 580l-23 -30l-151 128l37 48zM228 497q100 0 141.5 -57.5t41.5 -197.5q0 -139 -41 -196.5t-142 -57.5q-100 0 -141.5 57.5t-41.5 196.5t41.5 197t141.5 58zM228 442q-66 0 -91 -43t-25 -157t25 -157t91 -43t91.5 43t25.5 157t-25.5 157t-91.5 43z" />
    <glyph glyph-name="oacute" unicode="&#xf3;" horiz-adv-x="456" 
d="M351 678l-151 -128l-23 30l137 146zM228 497q100 0 141.5 -57.5t41.5 -197.5q0 -139 -41 -196.5t-142 -57.5q-100 0 -141.5 57.5t-41.5 196.5t41.5 197t141.5 58zM228 442q-66 0 -91 -43t-25 -157t25 -157t91 -43t91.5 43t25.5 157t-25.5 157t-91.5 43z" />
    <glyph glyph-name="ocircumflex" unicode="&#xf4;" horiz-adv-x="456" 
d="M358 586l-23 -28l-104 99h-6l-105 -99l-21 28l106 124h47zM228 497q100 0 141.5 -57.5t41.5 -197.5q0 -139 -41 -196.5t-142 -57.5q-100 0 -141.5 57.5t-41.5 196.5t41.5 197t141.5 58zM228 442q-66 0 -91 -43t-25 -157t25 -157t91 -43t91.5 43t25.5 157t-25.5 157
t-91.5 43z" />
    <glyph glyph-name="otilde" unicode="&#xf5;" horiz-adv-x="456" 
d="M164 694q26 -3 62 -30t58 -30t30.5 10t8.5 45h31q4 -50 -13.5 -77.5t-49.5 -24.5q-29 3 -65.5 30.5t-54.5 30.5q-22 3 -30.5 -11t-8.5 -48h-30q-5 53 13 80.5t49 24.5zM228 497q100 0 141.5 -57.5t41.5 -197.5q0 -139 -41 -196.5t-142 -57.5q-100 0 -141.5 57.5
t-41.5 196.5t41.5 197t141.5 58zM228 442q-66 0 -91 -43t-25 -157t25 -157t91 -43t91.5 43t25.5 157t-25.5 157t-91.5 43z" />
    <glyph glyph-name="odieresis" unicode="&#xf6;" horiz-adv-x="456" 
d="M146 685h22q18 0 18 -20v-55q0 -19 -18 -19h-22q-17 0 -17 19v55q0 20 17 20zM289 685h21q19 0 19 -20v-55q0 -19 -19 -19h-21q-18 0 -18 19v55q0 20 18 20zM228 497q100 0 141.5 -57.5t41.5 -197.5q0 -139 -41 -196.5t-142 -57.5q-100 0 -141.5 57.5t-41.5 196.5
t41.5 197t141.5 58zM228 442q-66 0 -91 -43t-25 -157t25 -157t91 -43t91.5 43t25.5 157t-25.5 157t-91.5 43z" />
    <glyph glyph-name="divide" unicode="&#xf7;" horiz-adv-x="462" 
d="M221 517h17q24 0 24 -25v-54q0 -14 -5 -19t-19 -5h-17q-24 0 -24 24v54q0 25 24 25zM406 271h-351v49h351v-49zM221 176h17q24 0 24 -25v-53q0 -14 -5 -19t-19 -5h-17q-24 0 -24 24v53q0 25 24 25z" />
    <glyph glyph-name="oslash" unicode="&#xf8;" horiz-adv-x="457" 
d="M356 537l-24 -63q79 -47 79 -232q0 -139 -41 -196.5t-142 -57.5q-46 0 -76 10l-26 -68l-31 15l26 68q-76 48 -76 229q0 139 41.5 197t141.5 58q42 0 72 -9l25 65zM112 242q0 -127 32 -167l136 359q-24 8 -52 8q-66 0 -91 -43t-25 -157zM228 42q66 0 91.5 43t25.5 157
q0 132 -36 172l-137 -362q21 -10 56 -10z" />
    <glyph glyph-name="ugrave" unicode="&#xf9;" horiz-adv-x="458" 
d="M247 553l-151 128l37 48l137 -146zM394 484v-484h-51l-6 73q-88 -85 -169 -85q-106 0 -106 132v364h64v-347q-1 -50 14 -72t49 -22q31 0 62.5 18.5t79.5 60.5v362h63z" />
    <glyph glyph-name="uacute" unicode="&#xfa;" horiz-adv-x="458" 
d="M202 553l-23 30l137 146l37 -48zM394 484v-484h-51l-6 73q-88 -85 -169 -85q-106 0 -106 132v364h64v-347q-1 -50 14 -72t49 -22q31 0 62.5 18.5t79.5 60.5v362h63z" />
    <glyph glyph-name="ucircumflex" unicode="&#xfb;" horiz-adv-x="458" 
d="M122 560l-21 28l106 124h47l106 -124l-23 -28l-104 99h-6zM394 484v-484h-51l-6 73q-88 -85 -169 -85q-106 0 -106 132v364h64v-347q-1 -50 14 -72t49 -22q31 0 62.5 18.5t79.5 60.5v362h63z" />
    <glyph glyph-name="udieresis" unicode="&#xfc;" horiz-adv-x="458" 
d="M169 593h-22q-17 0 -17 19v55q0 20 17 20h22q18 0 18 -20v-55q0 -19 -18 -19zM311 593h-21q-18 0 -18 19v55q0 20 18 20h21q19 0 19 -20v-55q0 -19 -19 -19zM394 484v-484h-51l-6 73q-88 -85 -169 -85q-106 0 -106 132v364h64v-347q-1 -50 14 -72t49 -22q31 0 62.5 18.5
t79.5 60.5v362h63z" />
    <glyph glyph-name="yacute" unicode="&#xfd;" horiz-adv-x="423" 
d="M185 550l-23 30l137 146l37 -48zM408 484l-158 -518q-23 -73 -62.5 -119t-105.5 -54l-6 41q81 34 114 139l10 27h-17q-18 0 -24 17l-143 467h68l107 -378q13 -48 15 -56h11q10 31 17 57l105 377h69z" />
    <glyph glyph-name="thorn" unicode="&#xfe;" horiz-adv-x="459" 
d="M272 496q77 0 109.5 -59.5t32.5 -196.5q0 -138 -33.5 -195t-109.5 -57q-75 0 -146 44q3 -30 3 -89v-147h-64v904h64v-182q0 -61 -3 -93q68 71 147 71zM251 41q53 0 75 44t22 155q0 112 -21.5 156.5t-72.5 44.5q-54 0 -126 -74v-286q74 -40 123 -40z" />
    <glyph glyph-name="ydieresis" unicode="&#xff;" horiz-adv-x="423" 
d="M153 591h-22q-17 0 -17 19v55q0 20 17 20h22q18 0 18 -20v-55q0 -19 -18 -19zM295 591h-21q-18 0 -18 19v55q0 20 18 20h21q19 0 19 -20v-55q0 -19 -19 -19zM408 484l-158 -518q-23 -73 -62.5 -119t-105.5 -54l-6 41q81 34 114 139l10 27h-17q-18 0 -24 17l-143 467h68
l107 -378q13 -48 15 -56h11q10 31 17 57l105 377h69z" />
    <glyph glyph-name="Amacron" unicode="&#x100;" horiz-adv-x="499" 
d="M362 793h-224v49h224v-49zM364 228h-229l-58 -228h-68l180 671q5 19 25 19h71q19 0 24 -19l181 -671h-68zM349 285l-75 297q-10 38 -14 56h-21q-4 -18 -14 -56l-76 -297h200z" />
    <glyph glyph-name="amacron" unicode="&#x101;" horiz-adv-x="441" 
d="M329 612h-224v49h224v-49zM248 497q67 0 99.5 -34t32.5 -115v-348h-50l-8 80q-28 -35 -71.5 -61.5t-92.5 -26.5q-53 0 -84 34t-31 97v56q0 56 28 87t78 31h167v51q-1 48 -18.5 71t-61.5 23q-64 0 -171 -14l-6 47q121 22 189 22zM170 48q32 -1 72 20t74 58v122l-155 -2
q-53 -3 -53 -75v-42q0 -81 62 -81z" />
    <glyph glyph-name="Abreve" unicode="&#x102;" horiz-adv-x="499" 
d="M250 749q-58 0 -90.5 34.5t-29.5 90.5l33 6q0 -39 22.5 -60.5t64.5 -21.5q41 0 63.5 21.5t22.5 60.5l33 -6q2 -57 -30 -91t-89 -34zM364 228h-229l-58 -228h-68l180 671q5 19 25 19h71q19 0 24 -19l181 -671h-68zM349 285l-75 297q-10 38 -14 56h-21q-4 -18 -14 -56
l-76 -297h200z" />
    <glyph glyph-name="abreve" unicode="&#x103;" horiz-adv-x="441" 
d="M217 568q-58 0 -90.5 34.5t-29.5 90.5l33 6q0 -39 22.5 -60.5t64.5 -21.5q41 0 63.5 21.5t22.5 60.5l33 -6q2 -57 -30 -91t-89 -34zM248 497q67 0 99.5 -34t32.5 -115v-348h-50l-8 80q-28 -35 -71.5 -61.5t-92.5 -26.5q-53 0 -84 34t-31 97v56q0 56 28 87t78 31h167v51
q-1 48 -18.5 71t-61.5 23q-64 0 -171 -14l-6 47q121 22 189 22zM170 48q32 -1 72 20t74 58v122l-155 -2q-53 -3 -53 -75v-42q0 -81 62 -81z" />
    <glyph glyph-name="Aogonek" unicode="&#x104;" horiz-adv-x="499" 
d="M494 -166l8 -28q-36 -18 -63.5 -19t-40.5 12t-18 34t4 47q18 62 75 120h-37l-58 228h-229l-58 -228h-68l180 671q5 19 25 19h71q19 0 24 -19l181 -671q-44 -64 -60 -118q-13 -40 6 -53t58 5zM349 285l-75 297q-10 38 -14 56h-21q-4 -18 -14 -56l-76 -297h200z" />
    <glyph glyph-name="aogonek" unicode="&#x105;" horiz-adv-x="441" 
d="M384 -166l8 -28q-36 -18 -63.5 -19t-40.5 12t-18 34t4 47q18 62 75 120h-19l-8 80q-28 -35 -71.5 -61.5t-92.5 -26.5q-53 0 -84 34t-31 97v56q0 56 28 87t78 31h167v51q-1 48 -18.5 71t-61.5 23q-64 0 -171 -14l-6 47q121 22 189 22q67 0 99.5 -34t32.5 -115v-348
q-44 -64 -60 -118q-13 -40 6 -53t58 5zM170 48q32 -1 72 20t74 58v122l-155 -2q-53 -3 -53 -75v-42q0 -81 62 -81z" />
    <glyph glyph-name="Cacute" unicode="&#x106;" horiz-adv-x="462" 
d="M383 859l-151 -128l-23 30l137 146zM267 702q89 0 150 -19l-7 -49q-62 9 -143 9q-83 0 -115 -65t-32 -233t32 -233t115 -65q93 0 154 11l8 -49q-66 -21 -162 -21q-120 0 -168 79.5t-48 277.5t48 277.5t168 79.5z" />
    <glyph glyph-name="cacute" unicode="&#x107;" horiz-adv-x="392" 
d="M339 678l-151 -128l-23 30l137 146zM231 497q75 0 124 -22l-9 -41q-45 8 -105 8q-72 0 -100.5 -42.5t-28.5 -157.5t28.5 -157t100.5 -42q66 0 115 11l6 -44q-60 -22 -132 -22q-101 0 -143 57t-42 197t42 197.5t144 57.5z" />
    <glyph glyph-name="Cdotaccent" unicode="&#x10a;" horiz-adv-x="462" 
d="M251 865h21q19 0 19 -21v-59q0 -20 -19 -20h-21q-20 0 -20 20v59q0 21 20 21zM267 702q89 0 150 -19l-7 -49q-62 9 -143 9q-83 0 -115 -65t-32 -233t32 -233t115 -65q93 0 154 11l8 -49q-66 -21 -162 -21q-120 0 -168 79.5t-48 277.5t48 277.5t168 79.5z" />
    <glyph glyph-name="cdotaccent" unicode="&#x10b;" horiz-adv-x="392" 
d="M206 684h21q19 0 19 -21v-59q0 -20 -19 -20h-21q-20 0 -20 20v59q0 21 20 21zM231 497q75 0 124 -22l-9 -41q-45 8 -105 8q-72 0 -100.5 -42.5t-28.5 -157.5t28.5 -157t100.5 -42q66 0 115 11l6 -44q-60 -22 -132 -22q-101 0 -143 57t-42 197t42 197.5t144 57.5z" />
    <glyph glyph-name="Ccaron" unicode="&#x10c;" horiz-adv-x="462" 
d="M391 870l-115 -123h-30l-114 123l21 28l105 -92h6l105 92zM267 702q89 0 150 -19l-7 -49q-62 9 -143 9q-83 0 -115 -65t-32 -233t32 -233t115 -65q93 0 154 11l8 -49q-66 -21 -162 -21q-120 0 -168 79.5t-48 277.5t48 277.5t168 79.5z" />
    <glyph glyph-name="ccaron" unicode="&#x10d;" horiz-adv-x="392" 
d="M347 689l-115 -123h-30l-114 123l21 28l105 -92h6l105 92zM231 497q75 0 124 -22l-9 -41q-45 8 -105 8q-72 0 -100.5 -42.5t-28.5 -157.5t28.5 -157t100.5 -42q66 0 115 11l6 -44q-60 -22 -132 -22q-101 0 -143 57t-42 197t42 197.5t144 57.5z" />
    <glyph glyph-name="Dcaron" unicode="&#x10e;" horiz-adv-x="535" 
d="M256 747l-114 123l21 28l105 -92h6l105 92l22 -28l-115 -123h-30zM268 699q119 0 167.5 -78.5t48.5 -275.5t-48.5 -275.5t-167.5 -78.5q-93 0 -196 9v690q103 9 196 9zM268 49q82 0 114 65t32 231t-32 231.5t-114 65.5q-52 0 -130 -2v-589q74 -2 130 -2z" />
    <glyph glyph-name="dcaron" unicode="&#x10f;" horiz-adv-x="460" 
d="M467 703h17q21 0 21 -21v-53q-2 -64 -24 -120l-27 7q7 48 7 98q-18 0 -16 18v50q1 21 22 21zM332 700h64v-700h-50l-6 73q-73 -85 -155 -85q-74 0 -106.5 61.5t-32.5 193.5q0 137 35.5 195.5t111.5 58.5q74 0 143 -46q-4 43 -4 94v155zM205 44q31 0 57 16.5t70 58.5v288
q-78 34 -123 34q-54 0 -75.5 -42.5t-21.5 -154.5q0 -113 21 -156.5t72 -43.5z" />
    <glyph glyph-name="Dcroat" unicode="&#x110;" horiz-adv-x="538" 
d="M272 699q119 0 167.5 -78.5t48.5 -275.5t-48.5 -275.5t-167.5 -78.5q-93 0 -196 9v349h-57v39h57v302q103 9 196 9zM272 49q82 0 114 65t32 231t-32 231.5t-114 65.5q-52 0 -130 -2v-252h123v-39h-123v-298q74 -2 130 -2z" />
    <glyph glyph-name="dcroat" unicode="&#x111;" horiz-adv-x="456" 
d="M450 579h-54v-579h-50l-6 73q-73 -85 -155 -85q-74 0 -106.5 61.5t-32.5 193.5q0 137 35.5 195.5t111.5 58.5q74 0 143 -46q-4 43 -4 94v34h-126v39h126v82h64v-82h54v-39zM205 44q31 0 57 16.5t70 58.5v288q-78 34 -123 34q-54 0 -75.5 -42.5t-21.5 -154.5
q0 -113 21 -156.5t72 -43.5z" />
    <glyph glyph-name="Emacron" unicode="&#x112;" horiz-adv-x="451" 
d="M367 815h-224v49h224v-49zM406 55l3 -50q-74 -6 -238 -6q-48 0 -76 31t-28 83v464q0 52 28.5 83t75.5 31q164 0 238 -6l-3 -50h-224q-49 0 -49 -73v-169h242v-53h-242v-213q0 -72 49 -72h224z" />
    <glyph glyph-name="emacron" unicode="&#x113;" horiz-adv-x="432" 
d="M336 612h-224v49h224v-49zM238 43q59 0 137 12l6 -43q-53 -24 -151 -24q-100 0 -142.5 58.5t-42.5 197.5q0 140 41.5 196.5t137.5 56.5q86 0 126 -37.5t40 -113.5q2 -135 -92 -135h-185q4 -96 32 -132t93 -36zM227 442q-64 0 -89 -39t-26 -142h170q46 0 44 84
q0 51 -23 74t-76 23z" />
    <glyph glyph-name="Edotaccent" unicode="&#x116;" horiz-adv-x="451" 
d="M266 787h-21q-20 0 -20 20v59q0 21 20 21h21q19 0 19 -21v-59q0 -20 -19 -20zM406 55l3 -50q-74 -6 -238 -6q-48 0 -76 31t-28 83v464q0 52 28.5 83t75.5 31q164 0 238 -6l-3 -50h-224q-49 0 -49 -73v-169h242v-53h-242v-213q0 -72 49 -72h224z" />
    <glyph glyph-name="edotaccent" unicode="&#x117;" horiz-adv-x="432" 
d="M234 584h-21q-20 0 -20 20v59q0 21 20 21h21q19 0 19 -21v-59q0 -20 -19 -20zM238 43q59 0 137 12l6 -43q-53 -24 -151 -24q-100 0 -142.5 58.5t-42.5 197.5q0 140 41.5 196.5t137.5 56.5q86 0 126 -37.5t40 -113.5q2 -135 -92 -135h-185q4 -96 32 -132t93 -36zM227 442
q-64 0 -89 -39t-26 -142h170q46 0 44 84q0 51 -23 74t-76 23z" />
    <glyph glyph-name="Eogonek" unicode="&#x118;" horiz-adv-x="451" 
d="M413 -161l8 -28q-36 -18 -63.5 -19t-40.5 12t-18 34t4 47q18 59 73 118q-66 -4 -205 -4q-48 0 -76 31t-28 83v464q0 52 28.5 83t75.5 31q164 0 238 -6l-3 -50h-224q-49 0 -49 -73v-169h242v-53h-242v-213q0 -72 49 -72h224l3 -50q-44 -64 -60 -118q-13 -40 6 -53t58 5z
" />
    <glyph glyph-name="eogonek" unicode="&#x119;" horiz-adv-x="432" 
d="M385 -154l8 -28q-36 -18 -63.5 -19t-40.5 12t-18 34t4 47q17 55 63 107q-55 -11 -108 -11q-100 0 -142.5 58.5t-42.5 197.5q0 140 41.5 196.5t137.5 56.5q86 0 126 -37.5t40 -113.5q2 -135 -92 -135h-185q4 -96 32 -132t93 -36q59 0 137 12l6 -43q-44 -64 -60 -118
q-13 -40 6 -53t58 5zM227 442q-64 0 -89 -39t-26 -142h170q46 0 44 84q0 51 -23 74t-76 23z" />
    <glyph glyph-name="Ecaron" unicode="&#x11a;" horiz-adv-x="451" 
d="M240 769l-114 123l21 28l105 -92h6l105 92l22 -28l-115 -123h-30zM406 55l3 -50q-74 -6 -238 -6q-48 0 -76 31t-28 83v464q0 52 28.5 83t75.5 31q164 0 238 -6l-3 -50h-224q-49 0 -49 -73v-169h242v-53h-242v-213q0 -72 49 -72h224z" />
    <glyph glyph-name="ecaron" unicode="&#x11b;" horiz-adv-x="432" 
d="M209 566l-114 123l21 28l105 -92h6l105 92l22 -28l-115 -123h-30zM238 43q59 0 137 12l6 -43q-53 -24 -151 -24q-100 0 -142.5 58.5t-42.5 197.5q0 140 41.5 196.5t137.5 56.5q86 0 126 -37.5t40 -113.5q2 -135 -92 -135h-185q4 -96 32 -132t93 -36zM227 442
q-64 0 -89 -39t-26 -142h170q46 0 44 84q0 51 -23 74t-76 23z" />
    <glyph glyph-name="Gbreve" unicode="&#x11e;" horiz-adv-x="505" 
d="M271 749q-58 0 -90.5 34.5t-29.5 90.5l33 6q0 -39 22.5 -60.5t64.5 -21.5q41 0 63.5 21.5t22.5 60.5l33 -6q2 -57 -30 -91t-89 -34zM449 399v-399h-48l-8 75q-66 -87 -166 -87q-93 0 -134.5 85.5t-41.5 272.5q0 201 51 278.5t179 77.5q89 0 154 -19l-7 -49
q-71 10 -144 10q-64 0 -98 -25t-50 -89.5t-16 -186.5q0 -162 28 -230t96 -68q40 0 72 20t69 56v278h64z" />
    <glyph glyph-name="gbreve" unicode="&#x11f;" horiz-adv-x="448" 
d="M219 568q-58 0 -90.5 34.5t-29.5 90.5l33 6q0 -39 22.5 -60.5t64.5 -21.5q41 0 63.5 21.5t22.5 60.5l33 -6q2 -57 -30 -91t-89 -34zM426 448l-64 -5q22 -35 22 -99q0 -80 -37.5 -116t-128.5 -36q-54 0 -84 11q-16 -28 -10 -59.5t38 -38.5l147 -31q54 -10 76 -41t22 -93
q0 -82 -40.5 -113.5t-144.5 -31.5q-105 0 -146.5 31.5t-41.5 112.5q0 47 15 75t55 52q-35 26 -34.5 74.5t31.5 77.5q-50 33 -50 126q0 80 38 116.5t129 36.5q57 0 90 -13h122zM218 241q59 0 82.5 24t23.5 79t-23.5 79t-82.5 24q-60 0 -84.5 -24t-24.5 -79t24.5 -79t84.5 -24
zM345 -56q0 41 -13.5 57.5t-54.5 24.5l-131 26l-1 -1q-29 -25 -38.5 -48t-9.5 -57q0 -57 25 -77t97 -20q75 0 100.5 19.5t25.5 75.5z" />
    <glyph glyph-name="Gdotaccent" unicode="&#x120;" horiz-adv-x="505" 
d="M282 765h-21q-20 0 -20 20v59q0 21 20 21h21q19 0 19 -21v-59q0 -20 -19 -20zM449 399v-399h-48l-8 75q-66 -87 -166 -87q-93 0 -134.5 85.5t-41.5 272.5q0 201 51 278.5t179 77.5q89 0 154 -19l-7 -49q-71 10 -144 10q-64 0 -98 -25t-50 -89.5t-16 -186.5
q0 -162 28 -230t96 -68q40 0 72 20t69 56v278h64z" />
    <glyph glyph-name="gdotaccent" unicode="&#x121;" horiz-adv-x="448" 
d="M230 584h-21q-20 0 -20 20v59q0 21 20 21h21q19 0 19 -21v-59q0 -20 -19 -20zM426 448l-64 -5q22 -35 22 -99q0 -80 -37.5 -116t-128.5 -36q-54 0 -84 11q-16 -28 -10 -59.5t38 -38.5l147 -31q54 -10 76 -41t22 -93q0 -82 -40.5 -113.5t-144.5 -31.5q-105 0 -146.5 31.5
t-41.5 112.5q0 47 15 75t55 52q-35 26 -34.5 74.5t31.5 77.5q-50 33 -50 126q0 80 38 116.5t129 36.5q57 0 90 -13h122zM218 241q59 0 82.5 24t23.5 79t-23.5 79t-82.5 24q-60 0 -84.5 -24t-24.5 -79t24.5 -79t84.5 -24zM345 -56q0 41 -13.5 57.5t-54.5 24.5l-131 26l-1 -1
q-29 -25 -38.5 -48t-9.5 -57q0 -57 25 -77t97 -20q75 0 100.5 19.5t25.5 75.5z" />
    <glyph glyph-name="Gcommaaccent" unicode="&#x122;" horiz-adv-x="505" 
d="M449 399v-399h-48l-8 75q-66 -87 -166 -87q-93 0 -134.5 85.5t-41.5 272.5q0 201 51 278.5t179 77.5q89 0 154 -19l-7 -49q-71 10 -144 10q-64 0 -98 -25t-50 -89.5t-16 -186.5q0 -162 28 -230t96 -68q40 0 72 20t69 56v278h64zM255 -61h17q12 0 16.5 -4.5t4.5 -16.5v-56
q-2 -70 -24 -127l-28 8q7 50 7 103q-16 0 -16 19v53q1 21 23 21z" />
    <glyph glyph-name="gcommaaccent" unicode="&#x123;" horiz-adv-x="448" 
d="M236 560h-17q-12 0 -16.5 4.5t-4.5 16.5v56q2 70 24 127l28 -8q-7 -50 -7 -103q16 0 16 -19v-53q-1 -21 -23 -21zM426 448l-64 -5q22 -35 22 -99q0 -80 -37.5 -116t-128.5 -36q-54 0 -84 11q-16 -28 -10 -59.5t38 -38.5l147 -31q54 -10 76 -41t22 -93q0 -82 -40.5 -113.5
t-144.5 -31.5q-105 0 -146.5 31.5t-41.5 112.5q0 47 15 75t55 52q-35 26 -34.5 74.5t31.5 77.5q-50 33 -50 126q0 80 38 116.5t129 36.5q57 0 90 -13h122zM218 241q59 0 82.5 24t23.5 79t-23.5 79t-82.5 24q-60 0 -84.5 -24t-24.5 -79t24.5 -79t84.5 -24zM345 -56
q0 41 -13.5 57.5t-54.5 24.5l-131 26l-1 -1q-29 -25 -38.5 -48t-9.5 -57q0 -57 25 -77t97 -20q75 0 100.5 19.5t25.5 75.5z" />
    <glyph glyph-name="Hbar" unicode="&#x126;" horiz-adv-x="543" 
d="M525 521h-56v-521h-66v341h-262v-341h-66v521h-58v38h58v131h66v-131h262v131h66v-131h56v-38zM403 521h-262v-124h262v124z" />
    <glyph glyph-name="hbar" unicode="&#x127;" horiz-adv-x="469" 
d="M301 497q106 0 106 -133v-364h-63v347q0 52 -14 73.5t-46 21.5q-33 0 -66.5 -19t-86.5 -63v-360h-64v579h-62v39h62v82h64v-82h118v-39h-118v-80q0 -49 -5 -94q95 92 175 92z" />
    <glyph glyph-name="Imacron" unicode="&#x12a;" horiz-adv-x="209" 
d="M216 793h-224v49h224v-49zM138 0h-66v690h66v-690z" />
    <glyph glyph-name="imacron" unicode="&#x12b;" horiz-adv-x="199" 
d="M211 612h-224v49h224v-49zM132 0h-64v484h64v-484z" />
    <glyph glyph-name="Iogonek" unicode="&#x12e;" horiz-adv-x="209" 
d="M134 -166l8 -28q-36 -18 -63.5 -19t-40.5 12t-18 34t4 47q18 62 75 120h-27v690h66v-690h-8q-44 -64 -60 -118q-13 -40 6 -53t58 5z" />
    <glyph glyph-name="iogonek" unicode="&#x12f;" horiz-adv-x="199" 
d="M110 584h-21q-20 0 -20 20v59q0 21 20 21h21q19 0 19 -21v-59q0 -20 -19 -20zM129 -166l8 -28q-36 -18 -63.5 -19t-40.5 12t-18 34t4 47q18 62 75 120h-26v484h64v-484h-7q-44 -64 -60 -118q-13 -40 6 -53t58 5z" />
    <glyph glyph-name="Idotaccent" unicode="&#x130;" horiz-adv-x="209" 
d="M94 865h21q19 0 19 -21v-59q0 -20 -19 -20h-21q-20 0 -20 20v59q0 21 20 21zM138 0h-66v690h66v-690z" />
    <glyph glyph-name="dotlessi" unicode="&#x131;" horiz-adv-x="199" 
d="M132 0h-64v484h64v-484z" />
    <glyph glyph-name="IJ" unicode="&#x132;" horiz-adv-x="482" 
d="M138 0h-66v690h66v-690zM413 690v-556q0 -69 -27.5 -105.5t-79.5 -36.5q-36 0 -72 10l7 46h41q65 0 65 84v558h66z" />
    <glyph glyph-name="ij" unicode="&#x133;" horiz-adv-x="398" 
d="M84 688h30q20 0 20 -21v-58q0 -21 -20 -21h-30q-19 0 -19 21v58q0 21 19 21zM284 688h30q20 0 20 -21v-58q0 -21 -20 -21h-30q-20 0 -20 21v58q0 21 20 21zM131 0h-63v484h63v-484zM331 484v-508q0 -111 -74 -182l-35 28q45 69 45 154v508h64z" />
    <glyph glyph-name="Kcommaaccent" unicode="&#x136;" horiz-adv-x="474" 
d="M457 0h-74l-184 333h-67q5 -45 5 -78v-255h-65v690h65v-223q0 -37 -5 -80h68l174 303h72l-168 -291q-14 -24 -30 -38v-3q22 -21 34 -41zM244 -61h17q12 0 16.5 -4.5t4.5 -16.5v-56q-2 -70 -24 -127l-28 8q7 50 7 103q-16 0 -16 19v53q1 21 23 21z" />
    <glyph glyph-name="kcommaaccent" unicode="&#x137;" horiz-adv-x="407" 
d="M391 0h-72l-143 251h-52q4 -56 4 -81v-170h-64v700h64v-318q0 -47 -4 -83h52l129 185h73l-124 -181q-12 -17 -27 -28v-2q14 -12 27 -34zM213 -61h17q12 0 16.5 -4.5t4.5 -16.5v-56q-2 -70 -24 -127l-28 8q7 50 7 103q-16 0 -16 19v53q1 21 23 21z" />
    <glyph glyph-name="Lacute" unicode="&#x139;" horiz-adv-x="413" 
d="M226 859l-151 -128l-23 30l137 146zM135 690v-562q0 -73 55 -73h202l3 -50q-85 -6 -216 -6q-56 0 -83 32.5t-27 87.5v571h66z" />
    <glyph glyph-name="lacute" unicode="&#x13a;" horiz-adv-x="237" 
d="M220 881l-151 -128l-23 30l137 146zM129 700l-1 -580q0 -70 54 -70h39l8 -48q-25 -10 -70 -10q-43 0 -68.5 30.5t-25.5 85.5v592h64z" />
    <glyph glyph-name="Lcommaaccent" unicode="&#x13b;" horiz-adv-x="413" 
d="M135 690v-562q0 -73 55 -73h202l3 -50q-85 -6 -216 -6q-56 0 -83 32.5t-27 87.5v571h66zM230 -66h17q12 0 16.5 -4.5t4.5 -16.5v-56q-2 -70 -24 -127l-28 8q7 50 7 103q-16 0 -16 19v53q1 21 23 21z" />
    <glyph glyph-name="lcommaaccent" unicode="&#x13c;" horiz-adv-x="237" 
d="M129 700l-1 -580q0 -70 54 -70h39l8 -48q-25 -10 -70 -10q-43 0 -68.5 30.5t-25.5 85.5v592h64zM131 -66h17q12 0 16.5 -4.5t4.5 -16.5v-56q-2 -70 -24 -127l-28 8q7 50 7 103q-16 0 -16 19v53q1 21 23 21z" />
    <glyph glyph-name="Lcaron" unicode="&#x13d;" horiz-adv-x="413" 
d="M255 691h17q12 0 16.5 -4.5t4.5 -16.5v-56q-2 -70 -24 -127l-28 8q7 50 7 103q-16 0 -16 19v53q1 21 23 21zM135 690v-562q0 -73 55 -73h202l3 -50q-85 -6 -216 -6q-56 0 -83 32.5t-27 87.5v571h66z" />
    <glyph glyph-name="lcaron" unicode="&#x13e;" horiz-adv-x="237" 
d="M201 703h17q21 0 21 -21v-53q-2 -64 -24 -120l-27 7q7 48 7 98q-18 0 -16 18v50q1 21 22 21zM129 700l-1 -580q0 -70 54 -70h39l8 -48q-25 -10 -70 -10q-43 0 -68.5 30.5t-25.5 85.5v592h64z" />
    <glyph glyph-name="Ldot" unicode="&#x13f;" horiz-adv-x="413" 
d="M135 690v-562q0 -73 55 -73h202l3 -50q-85 -6 -216 -6q-56 0 -83 32.5t-27 87.5v571h66zM322 336h-21q-19 0 -19 21v59q0 20 19 20h21q20 0 20 -20v-59q0 -21 -20 -21z" />
    <glyph glyph-name="ldot" unicode="&#x140;" horiz-adv-x="257" 
d="M129 700l-1 -580q0 -70 54 -70h39l8 -48q-25 -10 -70 -10q-43 0 -68.5 30.5t-25.5 85.5v592h64zM233 339h-21q-20 0 -20 21v59q0 21 20 21h21q19 0 19 -21v-59q0 -21 -19 -21z" />
    <glyph glyph-name="Lslash" unicode="&#x141;" horiz-adv-x="417" 
d="M396 55l3 -50q-84 -6 -216 -6q-56 0 -83 32.5t-27 87.5v222l-57 -29v42l57 29v307h67v-273l94 47v-42l-94 -47v-247q0 -73 54 -73h202z" />
    <glyph glyph-name="lslash" unicode="&#x142;" horiz-adv-x="261" 
d="M239 50l8 -48q-25 -10 -70 -10q-43 0 -68.5 30.5t-25.5 85.5v234l-65 -33v43l65 33v315h64v-283l87 45v-43l-88 -45v-254q0 -70 54 -70h39z" />
    <glyph glyph-name="Nacute" unicode="&#x143;" horiz-adv-x="567" 
d="M409 859l-151 -128l-23 30l137 146zM495 690v-662q0 -28 -26 -28h-73q-24 0 -29 22l-189 524q-14 45 -29 83h-12v-83l1 -546h-66v662q0 28 26 28h71q25 0 30 -22l183 -512q4 -12 9.5 -27.5t12.5 -35.5t11 -30h15q-1 33 -1 99v528h66z" />
    <glyph glyph-name="nacute" unicode="&#x144;" horiz-adv-x="466" 
d="M209 550l-23 30l137 146l37 -48zM299 497q106 0 106 -133v-364h-64v347q0 51 -13.5 73t-45.5 22q-33 0 -67 -19.5t-87 -63.5v-359h-64v484h54l4 -79q95 92 177 92z" />
    <glyph glyph-name="Ncommaaccent" unicode="&#x145;" horiz-adv-x="567" 
d="M495 690v-662q0 -28 -26 -28h-73q-24 0 -29 22l-189 524q-14 45 -29 83h-12v-83l1 -546h-66v662q0 28 26 28h71q25 0 30 -22l183 -512q4 -12 9.5 -27.5t12.5 -35.5t11 -30h15q-1 33 -1 99v528h66zM264 -61h17q12 0 16.5 -4.5t4.5 -16.5v-56q-2 -70 -24 -127l-28 8
q7 50 7 103q-16 0 -16 19v53q1 21 23 21z" />
    <glyph glyph-name="ncommaaccent" unicode="&#x146;" horiz-adv-x="466" 
d="M299 497q106 0 106 -133v-364h-64v347q0 51 -13.5 73t-45.5 22q-33 0 -67 -19.5t-87 -63.5v-359h-64v484h54l4 -79q95 92 177 92zM226 -60h17q12 0 16.5 -5t4.5 -17v-56q0 -66 -24 -127l-28 9q7 49 7 102q-16 0 -16 19v53q1 22 23 22z" />
    <glyph glyph-name="Ncaron" unicode="&#x147;" horiz-adv-x="567" 
d="M417 870l-115 -123h-30l-114 123l21 28l105 -92h6l105 92zM495 690v-662q0 -28 -26 -28h-73q-24 0 -29 22l-189 524q-14 45 -29 83h-12v-83l1 -546h-66v662q0 28 26 28h71q25 0 30 -22l183 -512q4 -12 9.5 -27.5t12.5 -35.5t11 -30h15q-1 33 -1 99v528h66z" />
    <glyph glyph-name="ncaron" unicode="&#x148;" horiz-adv-x="466" 
d="M223 566l-114 123l21 28l105 -92h6l105 92l22 -28l-115 -123h-30zM299 497q106 0 106 -133v-364h-64v347q0 51 -13.5 73t-45.5 22q-33 0 -67 -19.5t-87 -63.5v-359h-64v484h54l4 -79q95 92 177 92z" />
    <glyph glyph-name="Eng" unicode="&#x14a;" horiz-adv-x="567" 
d="M495 690v-777q0 -64 -28 -97.5t-79 -33.5q-38 0 -70 10l7 41h41q67 0 67 85v82h-39q-14 0 -21 20l-194 520q-16 49 -29 85h-14q2 -19 2 -86v-539h-66v662q0 28 26 28h64q23 0 30 -22l188 -501q1 -3 14.5 -40t20.5 -55h15q-1 33 -1 100v518h66z" />
    <glyph glyph-name="eng" unicode="&#x14b;" horiz-adv-x="466" 
d="M298 497q107 0 107 -133v-439q0 -132 -99 -132q-33 0 -66 11l7 40h35q59 0 59 85v418q0 49 -14 70t-47 21q-58 0 -152 -81v-357h-64v484h50l6 -83q93 96 178 96z" />
    <glyph glyph-name="Omacron" unicode="&#x14c;" 
d="M380 793h-224v49h224v-49zM269 702q121 0 169.5 -79t48.5 -278t-48.5 -278t-169.5 -79q-122 0 -170 78.5t-48 278.5t48 278.5t170 78.5zM269 644q-84 0 -116.5 -65.5t-32.5 -233.5t32.5 -233.5t116.5 -65.5q83 0 115.5 65.5t32.5 233.5t-32.5 233.5t-115.5 65.5z" />
    <glyph glyph-name="omacron" unicode="&#x14d;" horiz-adv-x="456" 
d="M340 612h-224v49h224v-49zM228 497q100 0 141.5 -57.5t41.5 -197.5q0 -139 -41 -196.5t-142 -57.5q-100 0 -141.5 57.5t-41.5 196.5t41.5 197t141.5 58zM228 442q-66 0 -91 -43t-25 -157t25 -157t91 -43t91.5 43t25.5 157t-25.5 157t-91.5 43z" />
    <glyph glyph-name="Ohungarumlaut" unicode="&#x150;" 
d="M301 883l-107 -156l-29 21l89 168zM431 883l-107 -156l-28 21l88 168zM269 702q121 0 169.5 -79t48.5 -278t-48.5 -278t-169.5 -79q-122 0 -170 78.5t-48 278.5t48 278.5t170 78.5zM269 644q-84 0 -116.5 -65.5t-32.5 -233.5t32.5 -233.5t116.5 -65.5q83 0 115.5 65.5
t32.5 233.5t-32.5 233.5t-115.5 65.5z" />
    <glyph glyph-name="ohungarumlaut" unicode="&#x151;" horiz-adv-x="456" 
d="M261 702l-107 -156l-29 21l89 168zM391 702l-107 -156l-28 21l88 168zM228 497q100 0 141.5 -57.5t41.5 -197.5q0 -139 -41 -196.5t-142 -57.5q-100 0 -141.5 57.5t-41.5 196.5t41.5 197t141.5 58zM228 442q-66 0 -91 -43t-25 -157t25 -157t91 -43t91.5 43t25.5 157
t-25.5 157t-91.5 43z" />
    <glyph glyph-name="OE" unicode="&#x152;" horiz-adv-x="733" 
d="M689 55l3 -50q-75 -6 -238 -6q-31 0 -55 21q-58 -32 -130 -32q-122 0 -170 78.5t-48 278.5t48 278.5t170 78.5q74 0 133 -31q25 20 58 20q159 0 232 -6l-3 -50h-207q-55 0 -55 -73v-168l230 -1v-53l-230 -1v-212q0 -72 55 -72h207zM120 345q0 -168 32.5 -233.5
t116.5 -65.5q57 0 100 20q-9 24 -9 53v452q0 29 9 53q-46 20 -100 20q-84 0 -116.5 -64.5t-32.5 -234.5z" />
    <glyph glyph-name="oe" unicode="&#x153;" horiz-adv-x="731" 
d="M539 43q57 0 135 12l6 -43q-52 -24 -150 -24q-111 0 -152 71q-40 -71 -150 -71q-100 0 -141.5 57.5t-41.5 196.5t41.5 197t141.5 58q110 0 149 -69q38 69 142 69q171 0 171 -145q0 -78 -27.5 -108.5t-93.5 -30.5h-158q4 -98 32.5 -134t95.5 -36zM228 42q62 0 88 37
t29 133l-1 33v30q-3 94 -29 130.5t-87 36.5q-66 0 -91 -43t-25 -157t25 -157t91 -43zM521 442q-59 0 -83.5 -37t-27.5 -129v-14h155q35 0 49 20t12 69q-2 46 -27 68.5t-78 22.5z" />
    <glyph glyph-name="Racute" unicode="&#x154;" horiz-adv-x="497" 
d="M232 731l-23 30l137 146l37 -48zM459 0h-70l-51 217q-19 79 -74 79q-30 0 -72 0.5t-55 0.5v-297h-65v690q69 8 190 8q98 0 137.5 -41.5t39.5 -155.5q0 -87 -23.5 -128.5t-78.5 -51.5v-4q50 -18 69 -98zM137 353h123q64 1 88.5 31t24.5 114t-24.5 114t-88.5 30
q-27 0 -68 -0.5t-55 -0.5v-288z" />
    <glyph glyph-name="racute" unicode="&#x155;" horiz-adv-x="321" 
d="M155 550l-23 30l137 146l37 -48zM114 484l6 -80q91 93 169 93h17l-7 -60h-22q-31 0 -63.5 -17t-85.5 -57v-363h-64v484h50z" />
    <glyph glyph-name="Rcommaaccent" unicode="&#x156;" horiz-adv-x="497" 
d="M459 0h-70l-51 217q-19 79 -74 79q-30 0 -72 0.5t-55 0.5v-297h-65v690q69 8 190 8q98 0 137.5 -41.5t39.5 -155.5q0 -87 -23.5 -128.5t-78.5 -51.5v-4q50 -18 69 -98zM137 353h123q64 1 88.5 31t24.5 114t-24.5 114t-88.5 30q-27 0 -68 -0.5t-55 -0.5v-288zM256 -61h17
q12 0 16.5 -4.5t4.5 -16.5v-56q-2 -70 -24 -127l-28 8q7 50 7 103q-16 0 -16 19v53q1 21 23 21z" />
    <glyph glyph-name="rcommaaccent" unicode="&#x157;" horiz-adv-x="321" 
d="M306 497l-7 -60h-22q-31 0 -63.5 -17t-85.5 -57v-363h-64v484h50l6 -80q91 93 169 93h17zM82 -61h17q12 0 16.5 -4.5t4.5 -16.5v-56q-2 -70 -24 -127l-28 8q7 50 7 103q-16 0 -16 19v53q1 21 23 21z" />
    <glyph glyph-name="Rcaron" unicode="&#x158;" horiz-adv-x="497" 
d="M246 747l-114 123l21 28l105 -92h6l105 92l22 -28l-115 -123h-30zM459 0h-70l-51 217q-19 79 -74 79q-30 0 -72 0.5t-55 0.5v-297h-65v690q69 8 190 8q98 0 137.5 -41.5t39.5 -155.5q0 -87 -23.5 -128.5t-78.5 -51.5v-4q50 -18 69 -98zM137 353h123q64 1 88.5 31
t24.5 114t-24.5 114t-88.5 30q-27 0 -68 -0.5t-55 -0.5v-288z" />
    <glyph glyph-name="rcaron" unicode="&#x159;" horiz-adv-x="321" 
d="M169 566l-114 123l21 28l105 -92h6l105 92l22 -28l-115 -123h-30zM114 484l6 -80q91 93 169 93h17l-7 -60h-22q-31 0 -63.5 -17t-85.5 -57v-363h-64v484h50z" />
    <glyph glyph-name="Sacute" unicode="&#x15a;" horiz-adv-x="452" 
d="M353 859l-151 -128l-23 30l137 146zM224 701q91 0 164 -16l-5 -48q-92 6 -155 6q-37 0 -54 -2.5t-34 -14.5t-22.5 -37t-5.5 -69q0 -62 16.5 -89.5t55.5 -37.5l113 -30q62 -15 87.5 -59.5t25.5 -129.5q0 -60 -10 -97t-35 -56t-56.5 -25.5t-83.5 -6.5q-92 0 -172 15l5 49
q109 -6 169 -6q68 1 92 25t24 103q0 65 -16.5 92t-55.5 37l-116 31q-59 15 -84.5 59.5t-25.5 127.5q0 60 10 96.5t34.5 54.5t54 23.5t80.5 4.5z" />
    <glyph glyph-name="sacute" unicode="&#x15b;" horiz-adv-x="408" 
d="M334 678l-151 -128l-23 30l137 146zM193 497q94 -2 164 -15l-6 -46q-98 6 -149 6q-61 1 -79.5 -11t-18.5 -66q0 -41 13 -57t44 -24l116 -28q47 -12 69 -41.5t22 -88.5q0 -85 -37.5 -111t-129.5 -26q-81 0 -152 13l5 47q59 -8 135 -6q70 1 93.5 16.5t23.5 66.5
q0 39 -15 55t-47 24l-114 28q-48 11 -68.5 41.5t-20.5 90.5q0 82 33.5 107.5t118.5 24.5z" />
    <glyph glyph-name="Scedilla" unicode="&#x15e;" horiz-adv-x="452" 
d="M224 701q91 0 164 -16l-5 -48q-92 6 -155 6q-37 0 -54 -2.5t-34 -14.5t-22.5 -37t-5.5 -69q0 -62 16.5 -89.5t55.5 -37.5l113 -30q62 -15 87.5 -59.5t25.5 -129.5q0 -60 -10 -97t-35 -56t-56.5 -25.5t-83.5 -6.5q-92 0 -172 15l5 49q109 -6 169 -6q68 1 92 25t24 103
q0 65 -16.5 92t-55.5 37l-116 31q-59 15 -84.5 59.5t-25.5 127.5q0 60 10 96.5t34.5 54.5t54 23.5t80.5 4.5zM188 -87l6 31q47 5 68 -9.5t20 -55.5q-2 -59 -39 -92t-94 -24l10 35q33 -1 54 21t22 56q1 21 -9 29t-38 9z" />
    <glyph glyph-name="scedilla" unicode="&#x15f;" horiz-adv-x="408" 
d="M193 497q94 -2 164 -15l-6 -46q-98 6 -149 6q-61 1 -79.5 -11t-18.5 -66q0 -41 13 -57t44 -24l116 -28q47 -12 69 -41.5t22 -88.5q0 -85 -37.5 -111t-129.5 -26q-81 0 -152 13l5 47q59 -8 135 -6q70 1 93.5 16.5t23.5 66.5q0 39 -15 55t-47 24l-114 28q-48 11 -68.5 41.5
t-20.5 90.5q0 82 33.5 107.5t118.5 24.5zM160 -87l6 31q47 5 68 -9.5t20 -55.5q-2 -59 -39 -92t-94 -24l10 35q33 -1 54 21t22 56q1 21 -9 29t-38 9z" />
    <glyph glyph-name="Scaron" unicode="&#x160;" horiz-adv-x="452" 
d="M361 870l-115 -123h-30l-114 123l21 28l105 -92h6l105 92zM224 701q91 0 164 -16l-5 -48q-92 6 -155 6q-37 0 -54 -2.5t-34 -14.5t-22.5 -37t-5.5 -69q0 -62 16.5 -89.5t55.5 -37.5l113 -30q62 -15 87.5 -59.5t25.5 -129.5q0 -60 -10 -97t-35 -56t-56.5 -25.5t-83.5 -6.5
q-92 0 -172 15l5 49q109 -6 169 -6q68 1 92 25t24 103q0 65 -16.5 92t-55.5 37l-116 31q-59 15 -84.5 59.5t-25.5 127.5q0 60 10 96.5t34.5 54.5t54 23.5t80.5 4.5z" />
    <glyph glyph-name="scaron" unicode="&#x161;" horiz-adv-x="408" 
d="M342 689l-115 -123h-30l-114 123l21 28l105 -92h6l105 92zM193 497q94 -2 164 -15l-6 -46q-98 6 -149 6q-61 1 -79.5 -11t-18.5 -66q0 -41 13 -57t44 -24l116 -28q47 -12 69 -41.5t22 -88.5q0 -85 -37.5 -111t-129.5 -26q-81 0 -152 13l5 47q59 -8 135 -6q70 1 93.5 16.5
t23.5 66.5q0 39 -15 55t-47 24l-114 28q-48 11 -68.5 41.5t-20.5 90.5q0 82 33.5 107.5t118.5 24.5z" />
    <glyph glyph-name="Tcedilla" unicode="&#x162;" horiz-adv-x="466" 
d="M446 690v-58h-180v-632h-67v632h-179v58h426zM197 -76l6 31q47 5 68 -9.5t20 -55.5q-2 -59 -39 -92t-94 -24l10 35q33 -1 54 21t22 56q1 21 -9 29t-38 9z" />
    <glyph glyph-name="tcedilla" unicode="&#x163;" horiz-adv-x="304" 
d="M156 434v-314q0 -37 13 -53.5t41 -16.5h61l8 -48q-42 -10 -87 -10q-99 0 -99 121v321h-71v45l71 5v147h63v-147h127v-50h-127zM152 -84l6 31q47 5 68 -9.5t20 -55.5q-2 -59 -39 -92t-94 -24l10 35q33 -1 54 21t22 56q1 21 -9 29t-38 9z" />
    <glyph glyph-name="Tcaron" unicode="&#x164;" horiz-adv-x="466" 
d="M219 747l-114 123l21 28l105 -92h6l105 92l22 -28l-115 -123h-30zM446 632h-180v-632h-67v632h-179v58h426v-58z" />
    <glyph glyph-name="tcaron" unicode="&#x165;" horiz-adv-x="304" 
d="M231 669q-16 0 -16 19v53q1 21 23 21h17q12 0 16.5 -4.5t4.5 -16.5v-56q-2 -70 -24 -127l-28 8q7 50 7 103zM156 434v-314q0 -37 13 -53.5t41 -16.5h61l8 -48q-42 -10 -87 -10q-99 0 -99 121v321h-71v45l71 5v147h63v-147h127v-50h-127z" />
    <glyph glyph-name="Tbar" unicode="&#x166;" horiz-adv-x="466" 
d="M266 632v-210h113v-39h-113v-383h-67v383h-114v39h114v210h-179v58h426v-58h-180z" />
    <glyph glyph-name="tbar" unicode="&#x167;" horiz-adv-x="305" 
d="M156 434v-104h108v-38h-108v-172q0 -37 13 -53.5t41 -16.5h61l8 -48q-42 -10 -87 -10q-99 0 -99 121v179h-53v38h53v104h-71v45l71 5v147h63v-147h127v-50h-127z" />
    <glyph glyph-name="Umacron" unicode="&#x16a;" 
d="M381 793h-224v49h224v-49zM469 690v-429q0 -149 -45 -211t-153 -62q-111 0 -157 62t-46 211v429h66v-429q0 -119 30 -167t104 -48t104.5 48t30.5 167v429h66z" />
    <glyph glyph-name="umacron" unicode="&#x16b;" horiz-adv-x="458" 
d="M342 614h-224v49h224v-49zM394 484v-484h-51l-6 73q-88 -85 -169 -85q-106 0 -106 132v364h64v-347q-1 -50 14 -72t49 -22q31 0 62.5 18.5t79.5 60.5v362h63z" />
    <glyph glyph-name="Uring" unicode="&#x16e;" 
d="M269 919q35 0 60.5 -29.5t25.5 -72.5t-25 -72t-61 -29q-35 0 -60 29t-25 72q0 42 25 72t60 30zM269 884q-21 0 -35 -19t-14 -48t14 -47.5t35 -18.5t35 18t14 48q0 29 -14 48t-35 19zM469 690v-429q0 -149 -45 -211t-153 -62q-111 0 -157 62t-46 211v429h66v-429
q0 -119 30 -167t104 -48t104.5 48t30.5 167v429h66z" />
    <glyph glyph-name="uring" unicode="&#x16f;" horiz-adv-x="458" 
d="M230 538q-35 0 -60 29t-25 72q0 42 25 72t60 30t60.5 -29.5t25.5 -72.5t-25 -72t-61 -29zM230 706q-21 0 -35 -19t-14 -48t14 -47.5t35 -18.5t35 18t14 48q0 29 -14 48t-35 19zM394 484v-484h-51l-6 73q-88 -85 -169 -85q-106 0 -106 132v364h64v-347q-1 -50 14 -72
t49 -22q31 0 62.5 18.5t79.5 60.5v362h63z" />
    <glyph glyph-name="Uhungarumlaut" unicode="&#x170;" 
d="M302 883l-107 -156l-29 21l89 168zM432 883l-107 -156l-28 21l88 168zM469 690v-429q0 -149 -45 -211t-153 -62q-111 0 -157 62t-46 211v429h66v-429q0 -119 30 -167t104 -48t104.5 48t30.5 167v429h66z" />
    <glyph glyph-name="uhungarumlaut" unicode="&#x171;" horiz-adv-x="458" 
d="M156 549l-29 21l89 168l47 -33zM258 570l88 168l47 -33l-107 -156zM394 484v-484h-51l-6 73q-88 -85 -169 -85q-106 0 -106 132v364h64v-347q-1 -50 14 -72t49 -22q31 0 62.5 18.5t79.5 60.5v362h63z" />
    <glyph glyph-name="Uogonek" unicode="&#x172;" 
d="M469 690v-429q0 -139 -38.5 -202t-130.5 -70q-42 -59 -59 -116q-13 -40 6 -53t58 5l8 -28q-36 -18 -63.5 -19t-40.5 12t-18 34t4 47q18 61 72 117q-109 1 -154 63t-45 210v429h66v-429q0 -119 30 -167t104 -48t104.5 48t30.5 167v429h66z" />
    <glyph glyph-name="uogonek" unicode="&#x173;" horiz-adv-x="458" 
d="M399 -166l8 -28q-36 -18 -63.5 -19t-40.5 12t-18 34t4 47q18 62 75 120h-21l-6 73q-88 -85 -169 -85q-106 0 -106 132v364h64v-347q-1 -50 14 -72t49 -22q31 0 62.5 18.5t79.5 60.5v362h63v-484h1q-44 -64 -60 -118q-13 -40 6 -53t58 5z" />
    <glyph glyph-name="Wcircumflex" unicode="&#x174;" horiz-adv-x="762" 
d="M512 766l-23 -28l-104 99h-6l-105 -99l-21 28l106 124h47zM736 690l-116 -670q-5 -20 -26 -20h-77q-21 0 -26 21l-89 541q-7 47 -13 77h-17q-2 -12 -6 -38t-7 -39l-88 -541q-5 -21 -27 -21h-77q-21 0 -26 20l-116 670h70l90 -559q8 -40 12 -80h19q2 15 6.5 41.5t6.5 37.5
l89 537q3 23 26 23h73q22 0 27 -23l88 -537q7 -38 12 -79h20q1 9 3.5 25t4.5 29t4 24l91 561h69z" />
    <glyph glyph-name="wcircumflex" unicode="&#x175;" horiz-adv-x="662" 
d="M461 586l-23 -28l-104 99h-6l-105 -99l-21 28l106 124h47zM641 484l-116 -465q-5 -19 -25 -19h-59q-23 0 -26 21l-66 347q-8 50 -14 75h-9q-4 -25 -14 -75l-66 -347q-2 -21 -26 -21h-58q-20 0 -25 19l-117 465h66l85 -371q3 -12 7.5 -35t6.5 -35h10q11 53 14 70l67 351
q3 20 25 20h61q21 0 24 -21l66 -350q10 -46 14 -70h12q9 54 13 70l84 371h66z" />
    <glyph glyph-name="Ycircumflex" unicode="&#x176;" horiz-adv-x="455" 
d="M119 739l-21 28l106 124h47l106 -124l-23 -28l-104 99h-6zM260 247v-247h-65v247l-186 443h71l119 -303q6 -13 26 -74h6q12 41 25 73l119 304h69z" />
    <glyph glyph-name="ycircumflex" unicode="&#x177;" horiz-adv-x="423" 
d="M105 558l-21 28l106 124h47l106 -124l-23 -28l-104 99h-6zM408 484l-158 -518q-23 -73 -62.5 -119t-105.5 -54l-6 41q81 34 114 139l10 27h-17q-18 0 -24 17l-143 467h68l107 -378q13 -48 15 -56h11q10 31 17 57l105 377h69z" />
    <glyph glyph-name="Ydieresis" unicode="&#x178;" horiz-adv-x="455" 
d="M167 771h-22q-17 0 -17 19v55q0 20 17 20h22q18 0 18 -20v-55q0 -19 -18 -19zM309 771h-21q-18 0 -18 19v55q0 20 18 20h21q19 0 19 -20v-55q0 -19 -19 -19zM260 247v-247h-65v247l-186 443h71l119 -303q6 -13 26 -74h6q12 41 25 73l119 304h69z" />
    <glyph glyph-name="Zacute" unicode="&#x179;" horiz-adv-x="455" 
d="M201 731l-23 30l137 146l37 -48zM416 56v-56h-377v56l303 578h-298v56h367v-56l-302 -578h307z" />
    <glyph glyph-name="zacute" unicode="&#x17a;" horiz-adv-x="410" 
d="M178 550l-23 30l137 146l37 -48zM370 53v-53h-330v53l259 379h-257v52h325v-52l-258 -379h261z" />
    <glyph glyph-name="Zdotaccent" unicode="&#x17b;" horiz-adv-x="455" 
d="M240 765h-21q-20 0 -20 20v59q0 21 20 21h21q19 0 19 -21v-59q0 -20 -19 -20zM416 56v-56h-377v56l303 578h-298v56h367v-56l-302 -578h307z" />
    <glyph glyph-name="zdotaccent" unicode="&#x17c;" horiz-adv-x="410" 
d="M218 584h-21q-20 0 -20 20v59q0 21 20 21h21q19 0 19 -21v-59q0 -20 -19 -20zM370 53v-53h-330v53l259 379h-257v52h325v-52l-258 -379h261z" />
    <glyph glyph-name="Zcaron" unicode="&#x17d;" horiz-adv-x="455" 
d="M215 747l-114 123l21 28l105 -92h6l105 92l22 -28l-115 -123h-30zM416 56v-56h-377v56l303 578h-298v56h367v-56l-302 -578h307z" />
    <glyph glyph-name="zcaron" unicode="&#x17e;" horiz-adv-x="410" 
d="M192 566l-114 123l21 28l105 -92h6l105 92l22 -28l-115 -123h-30zM370 53v-53h-330v53l259 379h-257v52h325v-52l-258 -379h261z" />
    <glyph glyph-name="florin" unicode="&#x192;" horiz-adv-x="352" 
d="M333 646h-57q-38 0 -54.5 -19.5t-20.5 -71.5l-12 -162h118l-5 -51h-117l-25 -343q-5 -70 -33 -104.5t-85 -34.5q-54 0 -80 6l8 47h54q36 0 52 20.5t20 71.5l25 337h-79l4 47l79 4l13 168q9 139 123 139q49 0 80 -6z" />
    <glyph glyph-name="Scommaaccent" unicode="&#x218;" horiz-adv-x="452" 
d="M224 701q91 0 164 -16l-5 -48q-92 6 -155 6q-37 0 -54 -2.5t-34 -14.5t-22.5 -37t-5.5 -69q0 -62 16.5 -89.5t55.5 -37.5l113 -30q62 -15 87.5 -59.5t25.5 -129.5q0 -60 -10 -97t-35 -56t-56.5 -25.5t-83.5 -6.5q-92 0 -172 15l5 49q109 -6 169 -6q68 1 92 25t24 103
q0 65 -16.5 92t-55.5 37l-116 31q-59 15 -84.5 59.5t-25.5 127.5q0 60 10 96.5t34.5 54.5t54 23.5t80.5 4.5zM223 -61h17q12 0 16.5 -4.5t4.5 -16.5v-56q-2 -70 -24 -127l-28 8q7 50 7 103q-16 0 -16 19v53q1 21 23 21z" />
    <glyph glyph-name="scommaaccent" unicode="&#x219;" horiz-adv-x="408" 
d="M193 497q94 -2 164 -15l-6 -46q-98 6 -149 6q-61 1 -79.5 -11t-18.5 -66q0 -41 13 -57t44 -24l116 -28q47 -12 69 -41.5t22 -88.5q0 -85 -37.5 -111t-129.5 -26q-81 0 -152 13l5 47q59 -8 135 -6q70 1 93.5 16.5t23.5 66.5q0 39 -15 55t-47 24l-114 28q-48 11 -68.5 41.5
t-20.5 90.5q0 82 33.5 107.5t118.5 24.5zM202 -61h17q12 0 16.5 -4.5t4.5 -16.5v-56q-2 -70 -24 -127l-28 8q7 50 7 103q-16 0 -16 19v53q1 21 23 21z" />
    <glyph glyph-name="uni021A" unicode="&#x21a;" horiz-adv-x="466" 
d="M446 632h-180v-632h-67v632h-179v58h426v-58zM216 -61h17q12 0 16.5 -4.5t4.5 -16.5v-56q-2 -70 -24 -127l-28 8q7 50 7 103q-16 0 -16 19v53q1 21 23 21z" />
    <glyph glyph-name="uni021B" unicode="&#x21b;" horiz-adv-x="304" 
d="M156 434v-314q0 -37 13 -53.5t41 -16.5h61l8 -48q-42 -10 -87 -10q-99 0 -99 121v321h-71v45l71 5v147h63v-147h127v-50h-127zM177 -61h17q12 0 16.5 -4.5t4.5 -16.5v-56q-2 -70 -24 -127l-28 8q7 50 7 103q-16 0 -16 19v53q1 21 23 21z" />
    <glyph glyph-name="circumflex" unicode="&#x2c6;" horiz-adv-x="335" 
d="M298 586l-23 -28l-104 99h-6l-105 -99l-21 28l106 124h47z" />
    <glyph glyph-name="caron" unicode="&#x2c7;" horiz-adv-x="335" 
d="M298 689l-115 -123h-30l-114 123l21 28l105 -92h6l105 92z" />
    <glyph glyph-name="breve" unicode="&#x2d8;" horiz-adv-x="299" 
d="M237 693l33 -6q2 -57 -30 -91t-89 -34q-58 0 -90.5 34.5t-29.5 90.5l33 6q0 -39 22.5 -60.5t64.5 -21.5q41 0 63.5 21.5t22.5 60.5z" />
    <glyph glyph-name="dotaccent" unicode="&#x2d9;" horiz-adv-x="176" 
d="M78 682h21q19 0 19 -21v-59q0 -20 -19 -20h-21q-20 0 -20 20v59q0 21 20 21z" />
    <glyph glyph-name="ring" unicode="&#x2da;" horiz-adv-x="241" 
d="M120 739q35 0 60.5 -29.5t25.5 -72.5t-25 -72t-61 -29q-35 0 -60 29t-25 72q0 42 25 72t60 30zM120 704q-21 0 -35 -19t-14 -48t14 -47.5t35 -18.5t35 18t14 48q0 29 -14 48t-35 19z" />
    <glyph glyph-name="ogonek" unicode="&#x2db;" horiz-adv-x="203" 
d="M116 2l29 -2q-44 -64 -60 -118q-13 -40 6 -53t58 5l8 -28q-36 -18 -63.5 -19t-40.5 12t-18 34t4 47q18 62 77 122z" />
    <glyph glyph-name="tilde" unicode="&#x2dc;" horiz-adv-x="335" 
d="M104 695q26 -3 62 -30t58 -30t30.5 10t8.5 45h31q4 -50 -13.5 -77.5t-49.5 -24.5q-29 3 -65.5 30.5t-54.5 30.5q-22 3 -30.5 -11t-8.5 -48h-30q-5 53 13 80.5t49 24.5z" />
    <glyph glyph-name="hungarumlaut" unicode="&#x2dd;" horiz-adv-x="362" 
d="M181 694l-107 -156l-29 21l89 168zM311 694l-107 -156l-28 21l88 168z" />
    <glyph glyph-name="Delta" unicode="&#x394;" horiz-adv-x="502" 
d="M481 32v-32h-460v32l197 658h66zM252 625q-3 -12 -9.5 -37t-9.5 -38l-136 -496h308l-135 497q-7 21 -18 74z" />
    <glyph glyph-name="Omega" unicode="&#x3a9;" horiz-adv-x="578" 
d="M289 702q119 0 172.5 -83t53.5 -253q0 -114 -27.5 -185t-90.5 -127q38 4 52 4h87v-58h-200v55q61 55 85.5 124.5t24.5 179.5q0 150 -37 217.5t-120 67.5q-85 0 -121.5 -67.5t-36.5 -219.5q0 -114 25 -178.5t86 -123.5v-55h-200v58h87q28 0 52 -4q-63 57 -90.5 128.5
t-27.5 184.5q0 170 53 252.5t173 82.5z" />
    <glyph glyph-name="mu" unicode="&#x3bc;" horiz-adv-x="477" 
d="M404 484v-484h-50l-7 77q-77 -89 -158 -89q-37 0 -66 19q4 -28 4 -64v-147h-57v688h64v-347q0 -89 69 -89q31 0 61 16.5t76 55.5v364h64z" />
    <glyph glyph-name="pi" unicode="&#x3c0;" horiz-adv-x="517" 
d="M494 433h-76v-433h-64v433h-191v-433h-64v433h-77v51h473z" />
    <glyph glyph-name="uni0401" unicode="&#x401;" horiz-adv-x="450" 
d="M189 793h-22q-18 0 -18 20v55q0 19 18 19h22q17 0 17 -19v-55q0 -20 -17 -20zM331 793h-21q-19 0 -19 20v55q0 19 19 19h21q18 0 18 -19v-55q0 -20 -18 -20zM405 55l4 -50q-75 -6 -238 -6q-48 0 -76 31t-28 83v464q0 52 28 83t76 31q163 0 238 -6l-4 -50h-223
q-49 0 -49 -73v-169h241v-53h-241v-213q0 -72 49 -72h223z" />
    <glyph glyph-name="uni0402" unicode="&#x402;" horiz-adv-x="605" 
d="M431 439q65 0 101.5 -47t36.5 -162q0 -128 -53.5 -182.5t-152.5 -49.5l-6 47q76 6 111 43.5t35 135.5q0 93 -21.5 125t-71.5 32q-64 0 -144 -61v-320h-67v632h-179v58h426v-58h-180v-258q78 65 165 65z" />
    <glyph glyph-name="uni0403" unicode="&#x403;" horiz-adv-x="416" 
d="M364 859l-151 -128l-23 30l137 146zM169 691q157 0 230 -6l-3 -50h-206q-55 0 -55 -75v-560h-66v571q0 52 28 86t72 34z" />
    <glyph glyph-name="uni0404" unicode="&#x404;" horiz-adv-x="464" 
d="M423 59l7 -50q-63 -21 -158 -21q-122 0 -171.5 80t-49.5 277t49.5 277t171.5 80q92 0 153 -19l-7 -50q-69 10 -146 10q-80 0 -114 -55.5t-38 -193.5l239 -1v-51l-240 -1q0 -165 33.5 -229.5t119.5 -64.5q92 0 151 12z" />
    <glyph glyph-name="uni0405" unicode="&#x405;" horiz-adv-x="452" 
d="M224 701q91 0 164 -16l-5 -48q-92 6 -155 6q-37 0 -54 -2.5t-34 -14.5t-22.5 -37t-5.5 -69q0 -62 16.5 -89.5t55.5 -37.5l113 -30q62 -15 87.5 -59.5t25.5 -129.5q0 -60 -10 -97t-35 -56t-56.5 -25.5t-83.5 -6.5q-92 0 -172 15l5 49q109 -6 169 -6q68 1 92 25t24 103
q0 65 -16.5 92t-55.5 37l-116 31q-59 15 -84.5 59.5t-25.5 127.5q0 60 10 96.5t34.5 54.5t54 23.5t80.5 4.5z" />
    <glyph glyph-name="uni0406" unicode="&#x406;" horiz-adv-x="209" 
d="M138 0h-66v690h66v-690z" />
    <glyph glyph-name="uni0407" unicode="&#x407;" horiz-adv-x="208" 
d="M22 864h22q17 0 17 -19v-55q0 -20 -17 -20h-22q-18 0 -18 20v55q0 19 18 19zM165 864h21q18 0 18 -19v-55q0 -20 -18 -20h-21q-18 0 -18 20v55q0 19 18 19zM137 0h-65v690h65v-690z" />
    <glyph glyph-name="uni0408" unicode="&#x408;" horiz-adv-x="272" 
d="M204 690v-556q0 -69 -27.5 -105.5t-79.5 -36.5q-36 0 -72 10l7 46h41q65 0 65 84v558h66z" />
    <glyph glyph-name="uni0409" unicode="&#x409;" horiz-adv-x="780" 
d="M443 402h118q102 0 141.5 -46t39.5 -160q0 -118 -38.5 -161t-132.5 -43q-124 0 -193 8l1 5v631h-108q-50 0 -55 -75q-15 -220 -24.5 -296t-35.5 -141q-42 -114 -132 -125l-6 45q46 25 78 99q19 46 29.5 107t14 111.5t12.5 208.5q8 120 112 120h179v-288zM561 50
q67 0 90.5 29.5t23.5 117.5q0 85 -23 117t-91 32h-118v-295q31 -1 118 -1z" />
    <glyph glyph-name="uni040A" unicode="&#x40a;" horiz-adv-x="788" 
d="M452 400h117q102 0 141.5 -45.5t39.5 -158.5q0 -118 -38 -161t-133 -43q-124 0 -193 8v345h-248v-345h-66v690h66v-290h248v290h66v-290zM569 50q68 0 91 29t23 117q0 85 -23 117t-91 32h-117v-294q31 -1 117 -1z" />
    <glyph glyph-name="uni040B" unicode="&#x40b;" horiz-adv-x="625" 
d="M453 439q126 0 126 -152v-287h-65v274q0 57 -19 81.5t-64 24.5q-44 0 -80.5 -14t-84.5 -48v-318h-67v632h-179v58h426v-58h-180v-259q91 66 187 66z" />
    <glyph glyph-name="uni040C" unicode="&#x40c;" horiz-adv-x="481" 
d="M224 731l-23 30l137 146l37 -48zM258 361v-2q22 -2 40 -11.5t34 -30.5t27 -39t25 -57t22 -62.5t24 -77t25 -81.5h-70q-7 22 -19 64q-16 53 -23.5 78t-21 63t-24.5 55.5t-26.5 37.5t-34 27.5t-40.5 7.5h-64q5 -45 5 -78v-255h-65v690h65v-223q0 -37 -5 -80h63
q32 0 56.5 17t47.5 68.5t31.5 76.5t33.5 109q3 7 4 11l2.5 10t3.5 11h67q-5 -17 -16 -54.5t-16.5 -54t-15.5 -48t-17 -46.5t-18 -38t-20.5 -35t-22.5 -25t-27 -19.5t-30 -8.5z" />
    <glyph glyph-name="uni040D" unicode="&#x40d;" horiz-adv-x="556" 
d="M324 761l-23 -30l-151 128l37 48zM485 0h-65v520q0 40 3 80h-3q-15 -44 -29 -74l-238 -526h-81v690h64v-516q0 -27 -4 -83h4q13 37 30 77l237 522h82v-690z" />
    <glyph glyph-name="uni040E" unicode="&#x40e;" horiz-adv-x="450" 
d="M226 749q-58 0 -90.5 34.5t-29.5 90.5l33 6q0 -39 22.5 -60.5t64.5 -21.5q41 0 63.5 21.5t22.5 60.5l33 -6q2 -57 -30 -91t-89 -34zM440 690l-151 -523q-16 -54 -29 -85t-37.5 -58.5t-55.5 -29.5q-50 -6 -98 13l8 47q29 -4 45.5 -5.5t32 3t22.5 9t16 22.5t14.5 34
t15.5 51l11 34h-32q-42 0 -54 43l-130 445h68l116 -414q5 -18 18 -18h31l121 432h68z" />
    <glyph glyph-name="uni040F" unicode="&#x40f;" horiz-adv-x="542" 
d="M471 690v-690h-172l-3 -151h-45l-4 151h-175v690h66v-636h266v636h67z" />
    <glyph glyph-name="uni0410" unicode="&#x410;" horiz-adv-x="499" 
d="M364 228h-229l-58 -228h-68l180 671q5 19 25 19h71q19 0 24 -19l181 -671h-68zM349 285l-75 297q-10 38 -14 56h-21q-4 -18 -14 -56l-76 -297h200z" />
    <glyph glyph-name="uni0411" unicode="&#x411;" horiz-adv-x="482" 
d="M138 385h121q101 0 141 -44t40 -154q0 -62 -11 -101t-37 -59.5t-58.5 -27.5t-85.5 -7q-104 0 -175 8h-1v690q95 5 171 5q74 0 167 -5l-6 -54h-266v-251zM259 48q68 0 91 28t23 113q0 82 -23 112.5t-91 30.5h-121v-283q32 -1 121 -1z" />
    <glyph glyph-name="uni0412" unicode="&#x412;" horiz-adv-x="499" 
d="M340 360v-4q60 -6 85 -52t25 -132q0 -104 -39 -142t-137 -38q-131 0 -202 8v690q63 8 177 8q105 0 145 -37.5t40 -142.5q0 -147 -94 -158zM370 511q0 78 -26.5 104.5t-96.5 26.5q-81 0 -110 -1v-258h121q64 1 88 27t24 101zM264 48q69 0 94.5 27t25.5 106q0 87 -27 118
t-98 33h-122v-283q33 -1 127 -1z" />
    <glyph glyph-name="uni0413" unicode="&#x413;" horiz-adv-x="416" 
d="M169 691q157 0 230 -6l-3 -50h-206q-55 0 -55 -75v-560h-66v571q0 52 28 86t72 34z" />
    <glyph glyph-name="uni0414" unicode="&#x414;" horiz-adv-x="555" 
d="M529 54v-205h-46l-7 151h-405l-7 -151h-46v205h48q76 187 87 516q2 57 31 88.5t80 31.5h196v-636h69zM395 54v582h-120q-30 0 -43.5 -17.5t-15.5 -56.5q-7 -163 -25.5 -284.5t-60.5 -223.5h265z" />
    <glyph glyph-name="uni0415" unicode="&#x415;" horiz-adv-x="450" 
d="M405 55l4 -50q-75 -6 -238 -6q-48 0 -76 31t-28 83v464q0 52 28 83t76 31q163 0 238 -6l-4 -50h-223q-49 0 -49 -73v-169h241v-53h-241v-213q0 -72 49 -72h223z" />
    <glyph glyph-name="uni0416" unicode="&#x416;" horiz-adv-x="728" 
d="M505 361v-2q17 -2 32 -8t28.5 -19.5t23.5 -25t21.5 -36t18.5 -40.5t18.5 -50.5t17 -53.5t18.5 -62t19 -64h-69q-7 24 -19 63.5t-18.5 59.5t-16.5 51t-17 47t-17.5 37.5t-20 32.5t-21.5 22t-25.5 15.5t-29.5 4.5h-56q6 -54 6 -78v-255h-63v255q0 33 5 78h-60
q-16 0 -29.5 -4.5t-25.5 -15.5t-21.5 -22t-20 -32.5t-17.5 -37.5t-17 -47t-16.5 -51t-18.5 -59.5t-19 -63.5h-69q6 21 19 64t18.5 62t17 53.5t18.5 50.5t18.5 40.5t21.5 36t23 25t28 19.5t32 8v2q-16 2 -30 8.5t-26.5 19.5t-22.5 25t-20.5 35t-17.5 38.5t-17 46.5t-15.5 48
t-16.5 54t-16 54h67q4 -14 13 -42q14 -47 21.5 -70t21 -60t24 -55t25.5 -38.5t31.5 -29t36.5 -8.5h60q-5 33 -5 80v223h63v-223q0 -41 -6 -80h55q29 0 51.5 16.5t44.5 65t31.5 74.5t33.5 106q3 9 4.5 14t4 13t4.5 14h67q-51 -168 -67 -205q-46 -112 -111 -123q-2 -1 -5 -1z
" />
    <glyph glyph-name="uni0417" unicode="&#x417;" horiz-adv-x="442" 
d="M194 698q103 0 143 -37.5t40 -142.5q0 -147 -94 -158v-4q60 -6 85 -52t25 -132q0 -104 -39 -142t-135 -38q-116 0 -189 19l6 48q117 -12 172 -12q67 0 92 27t25 107q0 87 -26.5 118.5t-96.5 31.5h-92v53h92q61 0 84.5 26.5t23.5 100.5q0 79 -25.5 105.5t-93.5 26.5
q-28 0 -55 -1.5t-52.5 -4t-35.5 -3.5l-5 49q67 15 151 15z" />
    <glyph glyph-name="uni0418" unicode="&#x418;" horiz-adv-x="556" 
d="M485 0h-65v520q0 40 3 80h-3q-15 -44 -29 -74l-238 -526h-81v690h64v-516q0 -27 -4 -83h4q13 37 30 77l237 522h82v-690z" />
    <glyph glyph-name="uni0419" unicode="&#x419;" horiz-adv-x="556" 
d="M354 881h49q2 -57 -30 -94.5t-89 -37.5t-90 37.5t-30 94.5h49q0 -46 18.5 -70.5t52.5 -24.5q33 0 51.5 24.5t18.5 70.5zM485 0h-65v520q0 40 3 80h-3q-15 -44 -29 -74l-238 -526h-81v690h64v-516q0 -27 -4 -83h4q13 37 30 77l237 522h82v-690z" />
    <glyph glyph-name="uni041A" unicode="&#x41a;" horiz-adv-x="481" 
d="M258 361v-2q22 -2 40 -11.5t34 -30.5t27 -39t25 -57t22 -62.5t24 -77t25 -81.5h-70q-7 22 -19 64q-16 53 -23.5 78t-21 63t-24.5 55.5t-26.5 37.5t-34 27.5t-40.5 7.5h-64q5 -45 5 -78v-255h-65v690h65v-223q0 -37 -5 -80h63q32 0 56.5 17t47.5 68.5t31.5 76.5t33.5 109
q3 7 4 11l2.5 10t3.5 11h67q-5 -17 -16 -54.5t-16.5 -54t-15.5 -48t-17 -46.5t-18 -38t-20.5 -35t-22.5 -25t-27 -19.5t-30 -8.5z" />
    <glyph glyph-name="uni041B" unicode="&#x41b;" horiz-adv-x="523" 
d="M451 690v-690h-66v636h-116q-55 0 -59 -75q-11 -158 -15.5 -214.5t-15 -117t-29.5 -105.5q-45 -115 -135 -125l-6 51q54 23 79 93q24 65 34 142t23 287q8 118 108 118h198z" />
    <glyph glyph-name="uni041C" unicode="&#x41c;" horiz-adv-x="703" 
d="M517 690h76q26 0 28 -29l23 -661h-66l-21 635h-17l-128 -541q-7 -22 -29 -22h-62q-23 0 -30 22l-129 541h-16l-20 -635h-66l22 661q2 29 28 29h77q22 0 28 -23l107 -450q11 -46 22 -94h15q12 56 22 95l107 449q6 23 29 23z" />
    <glyph glyph-name="uni041D" unicode="&#x41d;" horiz-adv-x="538" 
d="M466 690v-690h-66v341h-262v-341h-66v690h66v-293h262v293h66z" />
    <glyph glyph-name="uni041E" unicode="&#x41e;" 
d="M269 702q121 0 169.5 -79t48.5 -278t-48.5 -278t-169.5 -79q-122 0 -170 78.5t-48 278.5t48 278.5t170 78.5zM269 644q-84 0 -116.5 -65.5t-32.5 -233.5t32.5 -233.5t116.5 -65.5q83 0 115.5 65.5t32.5 233.5t-32.5 233.5t-115.5 65.5z" />
    <glyph glyph-name="uni041F" unicode="&#x41f;" horiz-adv-x="538" 
d="M467 690v-690h-66v636h-263v-636h-66v690h395z" />
    <glyph glyph-name="uni0420" unicode="&#x420;" horiz-adv-x="474" 
d="M262 698q99 0 137 -44.5t38 -166.5t-36.5 -166.5t-131.5 -44.5q-70 0 -131 7v-283h-66v690q69 8 190 8zM138 333h122q63 0 87 32t24 122q0 91 -24 123t-87 32q-90 0 -122 -1v-308z" />
    <glyph glyph-name="uni0421" unicode="&#x421;" horiz-adv-x="458" 
d="M267 702q89 0 150 -19l-7 -49q-62 9 -143 9q-83 0 -115 -65t-32 -233t32 -233t115 -65q93 0 154 11l8 -49q-66 -21 -162 -21q-120 0 -168 79.5t-48 277.5t48 277.5t168 79.5z" />
    <glyph glyph-name="uni0422" unicode="&#x422;" horiz-adv-x="466" 
d="M446 632h-180v-632h-67v632h-179v58h426v-58z" />
    <glyph glyph-name="uni0423" unicode="&#x423;" horiz-adv-x="450" 
d="M440 690l-151 -523q-16 -54 -29 -85t-37.5 -58.5t-55.5 -29.5q-50 -6 -98 13l8 47q29 -4 45.5 -5.5t32 3t22.5 9t16 22.5t14.5 34t15.5 51l11 34h-32q-42 0 -54 43l-130 445h68l116 -414q5 -18 18 -18h31l121 432h68z" />
    <glyph glyph-name="uni0424" unicode="&#x424;" horiz-adv-x="660" 
d="M618 353q0 -156 -57 -221.5t-197 -71.5v-101h-67v101q-140 5 -197.5 71t-57.5 222q0 159 57.5 225.5t197.5 71.5v100h66l1 -100q140 -6 197 -72t57 -225zM110 353q0 -131 41 -182.5t148 -55.5v479q-108 -5 -148.5 -56.5t-40.5 -184.5zM361 594v-479q107 4 148 55.5
t41 182.5q0 133 -40.5 184.5t-148.5 56.5z" />
    <glyph glyph-name="uni0425" unicode="&#x425;" horiz-adv-x="489" 
d="M253 334h-17l-144 -334h-71l157 358l-147 332h70l133 -305h21l132 305h72l-149 -332l159 -358h-72z" />
    <glyph glyph-name="uni0426" unicode="&#x426;" horiz-adv-x="555" 
d="M529 54v-205h-46l-7 151h-404v690h66v-636h256v636h67v-636h68z" />
    <glyph glyph-name="uni0427" unicode="&#x427;" horiz-adv-x="503" 
d="M431 690v-690h-66v326q-94 -69 -193 -69q-123 0 -123 152v281h66v-268q0 -56 18.5 -81t61.5 -25q45 0 83 14t87 50v310h66z" />
    <glyph glyph-name="uni0428" unicode="&#x428;" horiz-adv-x="747" 
d="M675 690v-690h-603v690h65v-636h204v636h65v-636h204v636h65z" />
    <glyph glyph-name="uni0429" unicode="&#x429;" horiz-adv-x="763" 
d="M737 54v-205h-46l-6 151h-613v690h65v-636h201v636h65v-636h202v636h64v-636h68z" />
    <glyph glyph-name="uni042A" unicode="&#x42a;" horiz-adv-x="601" 
d="M263 402h120q101 0 140.5 -46t39.5 -160q0 -118 -38 -161t-133 -43q-125 0 -195 8v632h-178v58h244v-288zM383 50q67 0 90.5 29t23.5 117q0 85 -23 117.5t-91 32.5h-120v-295q31 -1 120 -1z" />
    <glyph glyph-name="uni042B" unicode="&#x42b;" horiz-adv-x="679" 
d="M138 402h120q102 0 142 -46t40 -160q0 -118 -38.5 -161t-133.5 -43q-125 0 -195 8h-1v690h66v-288zM607 690v-690h-65v690h65zM258 50q68 0 91.5 29t23.5 117q0 85 -23 117.5t-92 32.5h-120v-295q31 -1 120 -1z" />
    <glyph glyph-name="uni042C" unicode="&#x42c;" horiz-adv-x="478" 
d="M138 402h120q102 0 142 -46t40 -160q0 -118 -38.5 -161t-133.5 -43q-125 0 -195 8h-1v690h66v-288zM258 50q68 0 91.5 29t23.5 117q0 85 -23 117.5t-92 32.5h-120v-295q31 -1 120 -1z" />
    <glyph glyph-name="uni042D" unicode="&#x42d;" horiz-adv-x="464" 
d="M191 702q123 0 172.5 -80t49.5 -277t-49.5 -277t-172.5 -80q-94 0 -158 21l8 50q57 -12 151 -12q85 0 119 65t34 229l-240 1v51l239 1q-4 138 -38.5 193.5t-113.5 55.5q-77 0 -146 -10l-8 50q62 19 153 19z" />
    <glyph glyph-name="uni042E" unicode="&#x42e;" horiz-adv-x="742" 
d="M473 702q122 0 170 -78.5t48 -278.5t-48 -278.5t-170 -78.5q-113 0 -159.5 76t-47.5 268h-128v-332h-66v690h66v-304h128q4 175 51 245.5t156 70.5zM473 46q84 0 116.5 65.5t32.5 233.5t-32.5 233.5t-116.5 65.5q-80 0 -111 -65.5t-31 -233.5t31 -233.5t111 -65.5z" />
    <glyph glyph-name="uni042F" unicode="&#x42f;" horiz-adv-x="493" 
d="M234 698q120 0 187 -8v-690h-66v288q-13 0 -54.5 -0.5t-70.5 -0.5q-56 0 -75 -79l-49 -208h-71l52 211q21 80 75 96l-1 6q-102 18 -102 183q0 110 41 156t134 46zM355 344v297q-31 1 -120 1q-60 0 -84.5 -32t-24.5 -117q0 -149 104 -149h125z" />
    <glyph glyph-name="uni0430" unicode="&#x430;" horiz-adv-x="443" 
d="M249 497q67 0 99.5 -34t32.5 -115v-348h-50l-8 80q-28 -35 -71.5 -61.5t-92.5 -26.5q-53 0 -84.5 34t-31.5 97v56q0 56 28 87t79 31h167v51q-1 48 -18.5 71t-61.5 23q-64 0 -171 -14l-6 47q121 22 189 22zM171 48q32 -1 72 20t74 58v122l-155 -2q-53 -3 -53 -75v-42
q0 -81 62 -81z" />
    <glyph glyph-name="uni0431" unicode="&#x431;" horiz-adv-x="461" 
d="M379 736l16 -49q-28 -23 -54 -34.5t-62.5 -20.5t-50.5 -14q-59 -21 -83 -67t-32 -121q-5 -34 -7 -70h2q11 31 23.5 52t45.5 39.5t82 18.5q86 0 120.5 -53.5t34.5 -182.5q0 -123 -38 -184.5t-140 -61.5q-41 0 -71 9.5t-49.5 30.5t-31 45t-17.5 63t-7.5 73t-1.5 86
q0 175 28.5 256.5t120.5 115.5q18 6 54 15t62.5 20.5t55.5 33.5zM242 415q-70 0 -93.5 -43.5t-23.5 -136.5q0 -109 24.5 -150.5t87.5 -41.5q61 0 85.5 41.5t24.5 150.5q0 103 -22.5 141.5t-82.5 38.5z" />
    <glyph glyph-name="uni0432" unicode="&#x432;" horiz-adv-x="445" 
d="M302 250v-2q53 -5 76 -36.5t23 -91.5q0 -73 -35 -99.5t-122 -26.5q-113 0 -179 6v483q59 6 157 6q93 0 128.5 -27t35.5 -102q0 -102 -84 -110zM326 355q0 49 -23.5 66.5t-82.5 17.5h-95v-166h105q55 0 75.5 17t20.5 65zM125 45h109q58 0 80 17.5t22 68.5q0 54 -23 74.5
t-83 20.5h-105v-181z" />
    <glyph glyph-name="uni0433" unicode="&#x433;" horiz-adv-x="370" 
d="M148 486q140 0 204 -6l-2 -46h-175q-48 0 -48 -65v-369h-64v384q0 102 85 102z" />
    <glyph glyph-name="uni0434" unicode="&#x434;" horiz-adv-x="469" 
d="M438 52v-197h-42l-6 145h-319l-5 -145h-43v197h40q54 125 65 328q5 104 98 104h159v-432h53zM324 52v382h-88q-47 0 -50 -63q-10 -196 -66 -319h204z" />
    <glyph glyph-name="uni0435" unicode="&#x435;" horiz-adv-x="434" 
d="M239 43q59 0 137 12l6 -43q-54 -24 -151 -24q-100 0 -142.5 58.5t-42.5 197.5q0 140 41.5 196.5t137.5 56.5q86 0 126 -37.5t40 -113.5q2 -135 -92 -135h-185q4 -96 32 -132t93 -36zM228 442q-64 0 -89 -39t-26 -142h170q46 0 44 84q0 51 -23 74t-76 23z" />
    <glyph glyph-name="uni0436" unicode="&#x436;" horiz-adv-x="633" 
d="M450 254v-2q23 -3 41 -14.5t31.5 -29.5t26 -46t23.5 -60.5t25 -75.5q5 -17 8 -26h-65q-47 140 -61 168q-31 59 -77 60h-60q5 -30 5 -52v-176h-57v176q0 22 5 52h-63q-42 -1 -65 -39.5t-58 -144.5q-10 -28 -15 -44h-65q45 145 65 182q34 63 90 70v2q-26 3 -45 15.5t-37 48
t-25 55.5t-27 81q-7 20 -10 30h64q42 -126 61 -158q29 -49 70 -49h59q-4 25 -4 57v150h57v-150q0 -32 -4 -57h55q30 0 54 28.5t36 59t35 101.5q1 4 2 6t2 5.5t2 6.5h65q-42 -130 -59 -161q-33 -63 -85 -69z" />
    <glyph glyph-name="uni0437" unicode="&#x437;" horiz-adv-x="398" 
d="M164 492q98 0 136 -26.5t38 -101.5q0 -54 -18.5 -81.5t-63.5 -32.5v-2q51 -5 73.5 -36t22.5 -93q0 -71 -38 -99t-128 -28q-85 0 -154 13l5 49q91 -8 144 -8q60 0 82.5 19t22.5 67q0 53 -22.5 72t-81.5 20h-92v47l92 1q54 0 73.5 17.5t19.5 66.5q0 50 -23 66t-89 16
q-68 0 -114 -8l-5 48q50 14 120 14z" />
    <glyph glyph-name="uni0438" unicode="&#x438;" horiz-adv-x="472" 
d="M407 0h-58v338q0 18 2 66h-2q-7 -21 -27 -56l-192 -348h-65v484h58v-337q0 -22 -2 -66h2q5 13 27 57l192 346h65v-484z" />
    <glyph glyph-name="uni0439" unicode="&#x439;" horiz-adv-x="472" 
d="M305 700h49q2 -57 -30 -94.5t-89 -37.5t-90 37.5t-30 94.5h49q0 -46 18.5 -70.5t52.5 -24.5q33 0 51.5 24.5t18.5 70.5zM407 0h-58v338q0 18 2 66h-2q-7 -21 -27 -56l-192 -348h-65v484h58v-337q0 -22 -2 -66h2q5 13 27 57l192 346h65v-484z" />
    <glyph glyph-name="uni043A" unicode="&#x43a;" horiz-adv-x="430" 
d="M240 253v-2q39 -4 67.5 -36t42 -64.5t42.5 -121.5q2 -6 3.5 -9.5t3 -9t3.5 -10.5h-67q-45 135 -63 168q-33 58 -87 59h-61q5 -30 5 -51v-176h-64v484h64v-150q0 -32 -4 -57h57q27 0 47 13.5t35.5 40.5t27.5 58t27 76q1 4 2 6.5t2 6t2 6.5h65q-43 -128 -61 -161
q-34 -63 -89 -70z" />
    <glyph glyph-name="uni043B" unicode="&#x43b;" horiz-adv-x="450" 
d="M385 484v-484h-64v434h-89q-25 0 -36.5 -15t-14.5 -49q-1 -6 -4.5 -45.5t-5 -51.5t-5.5 -45t-7 -49.5t-7.5 -40t-10.5 -40.5q-27 -94 -118 -103l-7 50q52 20 68 73q7 20 12 45.5t9.5 60t6.5 53.5t5.5 58.5t3.5 43.5q5 53 28.5 79t70.5 26h165z" />
    <glyph glyph-name="uni043C" unicode="&#x43c;" horiz-adv-x="599" 
d="M433 484h68q25 0 25 -25l17 -459h-60l-15 435h-14l-103 -364q-6 -21 -26 -21h-53q-19 0 -25 21l-103 364h-14l-15 -435h-58l16 459q0 25 25 25h68q18 0 25 -21l84 -301q2 -8 6 -22t7 -25.5t5 -21.5h12q4 13 10 37l8 32l85 301q6 21 25 21z" />
    <glyph glyph-name="uni043D" unicode="&#x43d;" horiz-adv-x="467" 
d="M402 484v-484h-62v233h-212v-233h-63v484h63v-201h212v201h62z" />
    <glyph glyph-name="uni043E" unicode="&#x43e;" horiz-adv-x="458" 
d="M229 497q100 0 141.5 -57.5t41.5 -197.5q0 -139 -41 -196.5t-142 -57.5q-100 0 -141.5 57.5t-41.5 196.5t41.5 197t141.5 58zM229 442q-66 0 -91 -43t-25 -157t25 -157t91 -43t91.5 43t25.5 157t-25.5 157t-91.5 43z" />
    <glyph glyph-name="uni043F" unicode="&#x43f;" horiz-adv-x="462" 
d="M397 484v-484h-62v433h-207v-433h-63v484h332z" />
    <glyph glyph-name="uni0440" unicode="&#x440;" horiz-adv-x="467" 
d="M285 497q71 0 103 -62.5t32 -194.5q0 -136 -35.5 -194t-112.5 -58q-75 0 -146 50q3 -33 3 -95v-147h-64v688h52l6 -79q33 43 76.5 67.5t85.5 24.5zM257 44q54 0 75.5 42.5t21.5 154.5q0 110 -20.5 155t-68.5 45q-32 0 -63 -19.5t-73 -63.5v-278q82 -36 128 -36z" />
    <glyph glyph-name="uni0441" unicode="&#x441;" horiz-adv-x="395" 
d="M231 497q76 0 125 -22l-9 -41q-45 8 -105 8q-73 0 -101 -42.5t-28 -157.5t28 -157t101 -42q66 0 115 11l6 -44q-60 -22 -132 -22q-101 0 -143 57t-42 197t42 197.5t143 57.5z" />
    <glyph glyph-name="uni0442" unicode="&#x442;" horiz-adv-x="394" 
d="M372 432h-144v-432h-63v432h-143v52h350v-52z" />
    <glyph glyph-name="uni0443" unicode="&#x443;" horiz-adv-x="425" 
d="M409 484l-158 -518q-31 -99 -74 -138q-54 -45 -142 -31l6 43q63 -4 95 26q30 30 55 107l10 27h-17q-18 0 -24 17l-143 467h68l107 -378q13 -48 15 -56h11q10 31 17 57l105 377h69z" />
    <glyph glyph-name="uni0444" unicode="&#x444;" horiz-adv-x="576" 
d="M531 242q0 -130 -48.5 -188.5t-164.5 -64.5v-193h-59v193q-116 5 -165 64t-49 189q0 131 49 190t165 64v204h59v-204q116 -6 164.5 -64.5t48.5 -189.5zM107 242q0 -106 34 -149.5t119 -48.5v397q-85 -5 -119 -49t-34 -150zM316 441v-397q85 5 119 48.5t34 149.5t-34 150
t-119 49z" />
    <glyph glyph-name="uni0445" unicode="&#x445;" horiz-adv-x="426" 
d="M218 227h-10l-117 -227h-70l133 251l-124 233h70l106 -206h14l106 206h70l-123 -233l132 -251h-69z" />
    <glyph glyph-name="uni0446" unicode="&#x446;" horiz-adv-x="476" 
d="M444 52v-195h-42l-7 143h-330v484h63v-432h200v432h64l-1 -432h53z" />
    <glyph glyph-name="uni0447" unicode="&#x447;" horiz-adv-x="426" 
d="M361 484l-1 -484h-63v215q-78 -41 -155 -41q-97 0 -97 105v205h63v-186q0 -38 12.5 -54.5t41.5 -16.5q66 0 135 40v217h64z" />
    <glyph glyph-name="uni0448" unicode="&#x448;" horiz-adv-x="646" 
d="M581 484v-484h-516v484h62v-432h167v432h58v-432h168v432h61z" />
    <glyph glyph-name="uni0449" unicode="&#x449;" horiz-adv-x="666" 
d="M635 52v-195h-43l-7 143h-520v484h62v-432h167v432h57v-432h169v432h61v-432h54z" />
    <glyph glyph-name="uni044A" unicode="&#x44a;" horiz-adv-x="509" 
d="M222 287h95q89 0 122.5 -32.5t33.5 -114.5q0 -84 -33.5 -115t-113.5 -31q-105 0 -166 6v433h-139v51h201v-197zM317 45q51 0 70.5 20t19.5 78q0 55 -18.5 75.5t-71.5 20.5h-95v-193q25 -1 95 -1z" />
    <glyph glyph-name="uni044B" unicode="&#x44b;" horiz-adv-x="576" 
d="M127 287h96q85 0 117.5 -32.5t32.5 -114.5q0 -84 -31.5 -115t-108.5 -31q-105 0 -167 6h-1v484h62v-197zM511 484v-484h-63v484h63zM223 45q49 0 67 19.5t18 78.5q0 55 -17.5 75.5t-67.5 20.5h-96v-193q26 -1 96 -1z" />
    <glyph glyph-name="uni044C" unicode="&#x44c;" horiz-adv-x="414" 
d="M127 287h96q89 0 122.5 -32.5t33.5 -114.5q0 -84 -33 -115t-113 -31q-105 0 -167 6h-1v484h62v-197zM223 45q51 0 70.5 20t19.5 78q0 55 -18.5 75.5t-71.5 20.5h-96v-193q26 -1 96 -1z" />
    <glyph glyph-name="uni044D" unicode="&#x44d;" horiz-adv-x="406" 
d="M169 490q106 0 148.5 -55.5t42.5 -194.5q0 -137 -42.5 -193t-148.5 -56q-81 0 -135 17l6 45q53 -7 129 -7q69 0 97 38t29 139h-200v48l199 1q-3 92 -30.5 128t-94.5 36t-124 -7l-7 45q48 16 131 16z" />
    <glyph glyph-name="uni044E" unicode="&#x44e;" horiz-adv-x="638" 
d="M406 497q104 0 144.5 -55t40.5 -199q0 -142 -40.5 -196.5t-144.5 -54.5q-95 0 -134.5 51t-41.5 182h-101v-225h-64v484h64v-209h101q4 125 43.5 173.5t132.5 48.5zM405 46q68 0 94 42.5t26 155.5t-26 155.5t-94 42.5q-65 0 -89 -42.5t-24 -155.5t24.5 -155.5t88.5 -42.5z
" />
    <glyph glyph-name="uni044F" unicode="&#x44f;" horiz-adv-x="436" 
d="M199 489q114 0 172 -7v-482h-63v186h-107q-59 0 -72 -57l-30 -129h-66l36 143q13 54 76 64v3q-90 10 -90 139q0 67 32.5 103.5t111.5 36.5zM308 234v201q-28 1 -108 1q-48 0 -65 -23.5t-17 -73.5q0 -55 18 -80t68 -25h104z" />
    <glyph glyph-name="uni0451" unicode="&#x451;" horiz-adv-x="434" 
d="M165 590h-21q-18 0 -18 20v55q0 19 18 19h21q18 0 18 -19v-55q0 -20 -18 -20zM308 590h-21q-19 0 -19 20v55q0 19 19 19h21q18 0 18 -19v-55q0 -20 -18 -20zM239 43q59 0 137 12l6 -43q-54 -24 -151 -24q-100 0 -142.5 58.5t-42.5 197.5q0 140 41.5 196.5t137.5 56.5
q86 0 126 -37.5t40 -113.5q2 -135 -92 -135h-185q4 -96 32 -132t93 -36zM228 442q-64 0 -89 -39t-26 -142h170q46 0 44 84q0 51 -23 74t-76 23z" />
    <glyph glyph-name="uni0452" unicode="&#x452;" horiz-adv-x="469" 
d="M317 399q107 0 107 -133v-290q0 -111 -73 -182l-36 28q45 67 45 154v274q0 48 -16 69.5t-54 21.5q-31 0 -63.5 -17.5t-79.5 -56.5v-267h-64v500h-61v39h61v161h64l1 -161h151v-39h-151v-99q0 -44 -5 -87q93 85 174 85z" />
    <glyph glyph-name="uni0453" unicode="&#x453;" horiz-adv-x="370" 
d="M337 678l-151 -128l-23 30l137 146zM148 486q140 0 204 -6l-2 -46h-175q-48 0 -48 -65v-369h-64v384q0 102 85 102z" />
    <glyph glyph-name="uni0454" unicode="&#x454;" horiz-adv-x="406" 
d="M366 53l7 -45q-57 -17 -136 -17q-105 0 -147.5 56t-42.5 193q0 139 42.5 194.5t147.5 55.5q83 0 131 -16l-7 -45q-57 7 -124 7q-66 0 -93.5 -35.5t-30.5 -128.5l199 -1v-48h-200q2 -101 29.5 -139t95.5 -38q74 0 129 7z" />
    <glyph glyph-name="uni0455" unicode="&#x455;" horiz-adv-x="410" 
d="M194 497q94 -2 164 -15l-6 -46q-98 6 -149 6q-61 1 -79.5 -11t-18.5 -66q0 -41 13 -57t44 -24l116 -28q47 -12 69 -41.5t22 -88.5q0 -85 -37.5 -111t-129.5 -26q-80 0 -152 13l5 47q59 -8 135 -6q70 1 93.5 16.5t23.5 66.5q0 39 -15 55t-47 24l-114 28q-48 11 -68.5 41.5
t-20.5 90.5q0 83 33.5 108t118.5 24z" />
    <glyph glyph-name="uni0456" unicode="&#x456;" horiz-adv-x="201" 
d="M85 688h30q20 0 20 -21v-58q0 -21 -20 -21h-30q-20 0 -20 21v58q0 21 20 21zM132 0h-63v484h63v-484z" />
    <glyph glyph-name="uni0457" unicode="&#x457;" horiz-adv-x="200" 
d="M17 684h22q18 0 18 -19v-55q0 -20 -18 -20h-22q-17 0 -17 20v55q0 19 17 19zM160 684h21q19 0 19 -19v-55q0 -20 -19 -20h-21q-18 0 -18 20v55q0 19 18 19zM132 0h-64v484h64v-484z" />
    <glyph glyph-name="uni0458" unicode="&#x458;" horiz-adv-x="201" 
d="M85 688h31q19 0 19 -21v-58q0 -21 -19 -21h-31q-19 0 -19 21v58q0 21 19 21zM132 484v-508q0 -112 -73 -182l-35 28q45 69 45 154v508h63z" />
    <glyph glyph-name="uni0459" unicode="&#x459;" horiz-adv-x="644" 
d="M365 293h91q86 0 119 -33t33 -117q0 -91 -33.5 -120t-116.5 -29q-95 0 -154 6v436h-69q-43 0 -47 -52q-11 -139 -18.5 -192t-25.5 -100q-28 -83 -115 -94l-6 45q15 8 23.5 14.5t20 20t19.5 31.5q19 44 25.5 91.5t18.5 194.5q8 89 89 89h146v-191zM365 46l83 -1
q56 0 75.5 18.5t19.5 81.5q0 57 -18.5 79t-68.5 22h-91v-200z" />
    <glyph glyph-name="uni045A" unicode="&#x45a;" horiz-adv-x="650" 
d="M371 292h91q87 0 119.5 -32.5t32.5 -115.5q0 -86 -32 -118t-110 -32q-101 0 -161 6v244h-187v-244h-59v484h59v-193h187v193h60v-192zM371 46l91 -1q50 0 68.5 20t18.5 80q0 56 -18.5 78t-68.5 22h-91v-199z" />
    <glyph glyph-name="uni045B" unicode="&#x45b;" horiz-adv-x="469" 
d="M317 399q107 0 107 -133v-266h-64v250q0 49 -16 70t-54 21q-31 0 -63.5 -17.5t-79.5 -56.5v-267h-64v500h-61v39h61v161h64l1 -161h151v-39h-151v-99q0 -44 -5 -87q93 85 174 85z" />
    <glyph glyph-name="uni045C" unicode="&#x45c;" horiz-adv-x="430" 
d="M196 550l-23 30l137 146l37 -48zM240 253v-2q39 -4 67.5 -36t42 -64.5t42.5 -121.5q2 -6 3.5 -9.5t3 -9t3.5 -10.5h-67q-45 135 -63 168q-33 58 -87 59h-61q5 -30 5 -51v-176h-64v484h64v-150q0 -32 -4 -57h57q27 0 47 13.5t35.5 40.5t27.5 58t27 76q1 4 2 6.5t2 6t2 6.5
h65q-43 -128 -61 -161q-34 -63 -89 -70z" />
    <glyph glyph-name="uni045D" unicode="&#x45d;" horiz-adv-x="472" 
d="M275 580l-23 -30l-151 128l37 48zM407 0h-58v338q0 18 2 66h-2q-7 -21 -27 -56l-192 -348h-65v484h58v-337q0 -22 -2 -66h2q5 13 27 57l192 346h65v-484z" />
    <glyph glyph-name="uni045E" unicode="&#x45e;" horiz-adv-x="425" 
d="M213 568q-57 0 -90 37.5t-30 94.5h49q0 -46 18.5 -70.5t52.5 -24.5q33 0 51.5 24.5t18.5 70.5h49q2 -57 -30 -94.5t-89 -37.5zM409 484l-158 -518q-31 -99 -74 -138q-54 -45 -142 -31l6 43q63 -4 95 26q30 30 55 107l10 27h-17q-18 0 -24 17l-143 467h68l107 -378
q13 -48 15 -56h11q10 31 17 57l105 377h69z" />
    <glyph glyph-name="uni045F" unicode="&#x45f;" horiz-adv-x="465" 
d="M400 484v-484h-141l-5 -166h-43l-6 166h-140v484h63l2 -432h206v432h64z" />
    <glyph glyph-name="uni0490" unicode="&#x490;" horiz-adv-x="420" 
d="M402 841v-161l-3 -45h-209q-55 0 -55 -75v-560h-66v571q0 52 28 86t72 34q124 0 183 -5l7 155h43z" />
    <glyph glyph-name="uni0491" unicode="&#x491;" horiz-adv-x="372" 
d="M353 631v-151l-3 -46h-175q-48 0 -48 -65v-369h-63v384q0 102 85 102q104 0 154 -3l8 148h42z" />
    <glyph glyph-name="uni04B0" unicode="&#x4b0;" horiz-adv-x="465" 
d="M276 271h112v-41h-122v-230h-65v230h-122v41h112l-176 419h71l119 -306q7 -16 26 -74h6q10 36 25 73l119 307h69z" />
    <glyph glyph-name="uni04B1" unicode="&#x4b1;" horiz-adv-x="468" 
d="M277 67h112v-42h-122v-229h-65v229h-123v42h113l-175 417h70l119 -302q5 -12 13.5 -37.5t12.5 -36.5h5q20 61 26 74l119 302h69z" />
    <glyph glyph-name="uni04B6" unicode="&#x4b6;" horiz-adv-x="523" 
d="M497 47v-198h-46l-7 151h-79v322q-93 -65 -189 -65q-127 0 -127 152v281h67v-268q-1 -56 18.5 -81.5t63.5 -25.5t81.5 14t85.5 49v312h67v-643h65z" />
    <glyph glyph-name="uni04B7" unicode="&#x4b7;" horiz-adv-x="445" 
d="M413 52v-195h-42l-7 143h-67v215q-78 -41 -155 -41q-97 0 -97 105v205h63v-186q0 -38 12.5 -54.5t41.5 -16.5q66 0 135 40v217h64l-1 -432h53z" />
    <glyph glyph-name="uni04BA" unicode="&#x4ba;" horiz-adv-x="503" 
d="M327 433q127 0 127 -152v-281h-66v268q0 56 -19.5 81.5t-63.5 25.5q-83 0 -167 -63v-312h-66v690h66v-321q92 64 189 64z" />
    <glyph glyph-name="uni04C0" unicode="&#x4c0;" horiz-adv-x="210" 
d="M138 0h-66v690h66v-690z" />
    <glyph glyph-name="Wgrave" unicode="&#x1e80;" horiz-adv-x="762" 
d="M422 760l-23 -30l-151 128l37 48zM736 690l-116 -670q-5 -20 -26 -20h-77q-21 0 -26 21l-89 541q-7 47 -13 77h-17q-2 -12 -6 -38t-7 -39l-88 -541q-5 -21 -27 -21h-77q-21 0 -26 20l-116 670h70l90 -559q8 -40 12 -80h19q2 15 6.5 41.5t6.5 37.5l89 537q3 23 26 23h73
q22 0 27 -23l88 -537q7 -38 12 -79h20q1 9 3.5 25t4.5 29t4 24l91 561h69z" />
    <glyph glyph-name="wgrave" unicode="&#x1e81;" horiz-adv-x="662" 
d="M371 580l-23 -30l-151 128l37 48zM641 484l-116 -465q-5 -19 -25 -19h-59q-23 0 -26 21l-66 347q-8 50 -14 75h-9q-4 -25 -14 -75l-66 -347q-2 -21 -26 -21h-58q-20 0 -25 19l-117 465h66l85 -371q3 -12 7.5 -35t6.5 -35h10q11 53 14 70l67 351q3 20 25 20h61
q21 0 24 -21l66 -350q10 -46 14 -70h12q9 54 13 70l84 371h66z" />
    <glyph glyph-name="Wacute" unicode="&#x1e82;" horiz-adv-x="762" 
d="M505 858l-151 -128l-23 30l137 146zM736 690l-116 -670q-5 -20 -26 -20h-77q-21 0 -26 21l-89 541q-7 47 -13 77h-17q-2 -12 -6 -38t-7 -39l-88 -541q-5 -21 -27 -21h-77q-21 0 -26 20l-116 670h70l90 -559q8 -40 12 -80h19q2 15 6.5 41.5t6.5 37.5l89 537q3 23 26 23h73
q22 0 27 -23l88 -537q7 -38 12 -79h20q1 9 3.5 25t4.5 29t4 24l91 561h69z" />
    <glyph glyph-name="wacute" unicode="&#x1e83;" horiz-adv-x="662" 
d="M454 678l-151 -128l-23 30l137 146zM641 484l-116 -465q-5 -19 -25 -19h-59q-23 0 -26 21l-66 347q-8 50 -14 75h-9q-4 -25 -14 -75l-66 -347q-2 -21 -26 -21h-58q-20 0 -25 19l-117 465h66l85 -371q3 -12 7.5 -35t6.5 -35h10q11 53 14 70l67 351q3 20 25 20h61
q21 0 24 -21l66 -350q10 -46 14 -70h12q9 54 13 70l84 371h66z" />
    <glyph glyph-name="Wdieresis" unicode="&#x1e84;" horiz-adv-x="762" 
d="M299 865h22q18 0 18 -20v-55q0 -19 -18 -19h-22q-17 0 -17 19v55q0 20 17 20zM442 865h21q19 0 19 -20v-55q0 -19 -19 -19h-21q-18 0 -18 19v55q0 20 18 20zM736 690l-116 -670q-5 -20 -26 -20h-77q-21 0 -26 21l-89 541q-7 47 -13 77h-17q-2 -12 -6 -38t-7 -39l-88 -541
q-5 -21 -27 -21h-77q-21 0 -26 20l-116 670h70l90 -559q8 -40 12 -80h19q2 15 6.5 41.5t6.5 37.5l89 537q3 23 26 23h73q22 0 27 -23l88 -537q7 -38 12 -79h20q1 9 3.5 25t4.5 29t4 24l91 561h69z" />
    <glyph glyph-name="wdieresis" unicode="&#x1e85;" horiz-adv-x="662" 
d="M248 685h22q18 0 18 -20v-55q0 -19 -18 -19h-22q-17 0 -17 19v55q0 20 17 20zM391 685h21q19 0 19 -20v-55q0 -19 -19 -19h-21q-18 0 -18 19v55q0 20 18 20zM641 484l-116 -465q-5 -19 -25 -19h-59q-23 0 -26 21l-66 347q-8 50 -14 75h-9q-4 -25 -14 -75l-66 -347
q-2 -21 -26 -21h-58q-20 0 -25 19l-117 465h66l85 -371q3 -12 7.5 -35t6.5 -35h10q11 53 14 70l67 351q3 20 25 20h61q21 0 24 -21l66 -350q10 -46 14 -70h12q9 54 13 70l84 371h66z" />
    <glyph glyph-name="Ygrave" unicode="&#x1ef2;" horiz-adv-x="455" 
d="M244 731l-151 128l37 48l137 -146zM260 247v-247h-65v247l-186 443h71l119 -303q6 -13 26 -74h6q12 41 25 73l119 304h69z" />
    <glyph glyph-name="ygrave" unicode="&#x1ef3;" horiz-adv-x="423" 
d="M230 550l-151 128l37 48l137 -146zM408 484l-158 -518q-23 -73 -62.5 -119t-105.5 -54l-6 41q81 34 114 139l10 27h-17q-18 0 -24 17l-143 467h68l107 -378q13 -48 15 -56h11q10 31 17 57l105 377h69z" />
    <glyph glyph-name="endash" unicode="&#x2013;" horiz-adv-x="478" 
d="M419 227h-360v50h360v-50z" />
    <glyph glyph-name="emdash" unicode="&#x2014;" horiz-adv-x="724" 
d="M665 227h-606v50h606v-50z" />
    <glyph glyph-name="quoteleft" unicode="&#x2018;" horiz-adv-x="173" 
d="M96 507h-18q-23 0 -23 24v61q2 75 26 138l30 -9q-7 -53 -7 -112q8 0 13 -5.5t4 -14.5v-58q-1 -24 -25 -24z" />
    <glyph glyph-name="quoteright" unicode="&#x2019;" horiz-adv-x="171" 
d="M76 723h19q22 0 22 -24v-61q-2 -75 -25 -139l-31 9q8 52 8 112q-19 0 -17 21v58q1 24 24 24z" />
    <glyph glyph-name="quotesinglbase" unicode="&#x201a;" horiz-adv-x="183" 
d="M83 103h19q23 0 23 -24v-61q-2 -78 -27 -139l-31 9q8 52 8 112q-18 0 -18 21v58q1 24 26 24z" />
    <glyph glyph-name="quotedblleft" unicode="&#x201c;" horiz-adv-x="293" 
d="M97 508h-20q-22 0 -22 23v61q2 74 25 138l31 -9q-7 -53 -7 -112q19 0 17 -20v-58q-1 -23 -24 -23zM216 508h-19q-23 0 -23 23v61q2 75 26 138l31 -9q-7 -53 -7 -112q17 0 17 -20v-58q-1 -23 -25 -23z" />
    <glyph glyph-name="quotedblright" unicode="&#x201d;" horiz-adv-x="290" 
d="M76 723h19q22 0 22 -24v-61q-2 -75 -25 -139l-31 9q8 52 8 112q-19 0 -17 21v58q1 24 24 24zM196 723h18q13 0 18 -5.5t5 -18.5v-61q-2 -76 -26 -139l-30 9q8 62 8 112q-18 0 -18 21v58q1 24 25 24z" />
    <glyph glyph-name="quotedblbase" unicode="&#x201e;" horiz-adv-x="302" 
d="M82 103h18q13 0 18 -5.5t5 -18.5v-61q-2 -76 -26 -139l-30 9q7 55 7 112q-17 0 -17 21v58q1 24 25 24zM201 103h19q22 0 22 -24v-61q-2 -75 -25 -139l-31 9q8 52 8 112q-19 0 -17 21v58q0 24 24 24z" />
    <glyph glyph-name="dagger" unicode="&#x2020;" horiz-adv-x="364" 
d="M211 -110h-58l2 555v35l-2 211h59l-4 -211v-35zM35 427v57h106v-49zM328 484v-57l-105 8v49h105z" />
    <glyph glyph-name="daggerdbl" unicode="&#x2021;" horiz-adv-x="393" 
d="M223 483v-385l3 -208h-59l3 208v385l-3 208h59zM155 435l-105 -8v57h105v-49zM343 427l-106 8v49h106v-57zM155 146v-49h-105v57zM343 97h-106v49l106 8v-57z" />
    <glyph glyph-name="bullet" unicode="&#x2022;" horiz-adv-x="291" 
d="M142 351h10q36 0 50.5 -17t14.5 -60v-11q0 -44 -14.5 -61.5t-50.5 -17.5h-10q-39 0 -53.5 17t-14.5 62v11q0 43 14.5 60t53.5 17z" />
    <glyph glyph-name="ellipsis" unicode="&#x2026;" horiz-adv-x="675" 
d="M81 107h21q24 0 24 -25v-57q0 -25 -24 -25h-21q-24 0 -24 25v57q0 25 24 25zM327 107h21q24 0 24 -25v-57q0 -25 -24 -25h-21q-24 0 -24 25v57q0 25 24 25zM573 107h21q25 0 25 -25v-57q0 -25 -25 -25h-21q-24 0 -24 25v57q0 25 24 25z" />
    <glyph glyph-name="perthousand" unicode="&#x2030;" horiz-adv-x="1017" 
d="M167 702q71 0 100 -47t29 -157t-29 -157t-100 -47q-70 0 -99 47.5t-29 156.5t29 156.5t99 47.5zM200 0h-46l362 690h46zM167 661q-44 0 -61.5 -36.5t-17.5 -126.5t17 -126.5t62 -36.5t62 36.5t17 126.5t-17.5 126.5t-61.5 36.5zM551 401q70 0 99 -47.5t29 -157.5
q0 -109 -29 -156.5t-99 -47.5q-71 0 -99.5 47t-28.5 157t28.5 157.5t99.5 47.5zM849 401q70 0 99 -47.5t29 -157.5q0 -109 -29 -156.5t-99 -47.5q-71 0 -99.5 47t-28.5 157t28.5 157.5t99.5 47.5zM550 359q-44 0 -61 -36.5t-17 -126.5t17 -126.5t61 -36.5q45 0 62.5 36.5
t17.5 126.5t-17.5 126.5t-62.5 36.5zM848 359q-44 0 -61 -36.5t-17 -126.5t17 -126.5t61 -36.5q45 0 62.5 36.5t17.5 126.5t-17.5 126.5t-62.5 36.5z" />
    <glyph glyph-name="guilsinglleft" unicode="&#x2039;" horiz-adv-x="224" 
d="M190 435l-103 -184l104 -187l-33 -22l-130 201v16l129 198z" />
    <glyph glyph-name="guilsinglright" unicode="&#x203a;" horiz-adv-x="226" 
d="M197 259v-16l-130 -201l-34 22l104 187l-103 184l33 22z" />
    <glyph glyph-name="fraction" unicode="&#x2044;" horiz-adv-x="128" 
d="M-94 0h-46l362 690h46z" />
    <glyph glyph-name="Euro" unicode="&#x20ac;" horiz-adv-x="514" 
d="M465 59l7 -50q-60 -21 -141 -21q-106 0 -157 68.5t-61 209.5h-69v42h67v37q0 37 1 55h-68v42h71q12 132 62.5 196t153.5 64q76 0 132 -19l-7 -50q-61 13 -129 10q-66 -2 -100 -51t-43 -150h207l-5 -42h-205q-1 -18 -1 -56v-36h178l-5 -42h-171q8 -110 42 -163.5
t103 -55.5q78 -2 138 12z" />
    <glyph glyph-name="trademark" unicode="&#x2122;" horiz-adv-x="775" 
d="M315 696v-40h-107v-340h-47v340h-106v40h260zM714 316h-43l-13 343h-10l-76 -286q-4 -15 -20 -15h-36q-14 0 -19 15l-77 286h-10l-12 -343h-43l13 360q2 20 18 20h48q14 0 19 -16l64 -236q3 -10 7 -29.5t5 -23.5h10q8 36 13 54l62 235q6 16 19 16h50q19 0 19 -20z" />
    <glyph glyph-name="partialdiff" unicode="&#x2202;" horiz-adv-x="461" 
d="M107 653v49q89 1 143.5 -12t94.5 -52t54.5 -112t9.5 -190q-4 -81 -14.5 -141t-32 -108.5t-58.5 -73.5t-89 -25q-94 0 -133.5 66.5t-36.5 168.5q4 103 46.5 163.5t121.5 59.5q84 0 132 -80q6 174 -42.5 231t-195.5 56zM216 45q35 0 59.5 21t38 62.5t20 86t9.5 108.5
q-51 69 -118 69q-55 0 -84.5 -45t-31.5 -124t24 -128.5t83 -49.5z" />
    <glyph glyph-name="emptyset" unicode="&#x2205;" horiz-adv-x="685" 
d="M343 633q121 0 206.5 -85.5t85.5 -206.5t-85.5 -207t-206.5 -86t-207 86t-86 207t86 206.5t207 85.5zM343 545q-51 0 -122 -11l3 -45q60 9 119 9q66 0 66 -46q0 -21 -15 -44.5t-33.5 -42.5t-33.5 -52t-15 -72h54q0 35 14.5 64.5t32.5 46.5t32.5 43.5t14.5 56.5
q0 93 -117 93zM359 171h-39q-7 0 -7 -8v-37q0 -7 7 -7h39q8 0 8 7v37q0 8 -8 8z" />
    <glyph glyph-name="product" unicode="&#x220f;" horiz-adv-x="582" 
d="M550 636h-85v-742h-64v742h-220v-742h-64v742h-85v54h518v-54z" />
    <glyph glyph-name="summation" unicode="&#x2211;" horiz-adv-x="474" 
d="M424 636h-302l136 -283l-147 -399h321v-54h-392v54l146 399l-136 283v54h374v-54z" />
    <glyph glyph-name="minus" unicode="&#x2212;" horiz-adv-x="471" 
d="M411 271h-351v49h351v-49z" />
    <glyph glyph-name="radical" unicode="&#x221a;" horiz-adv-x="453" 
d="M434 876l-209 -868q-3 -8 -11 -8h-74q-10 0 -10 8l-102 476h55l89 -439h11l196 831h55z" />
    <glyph glyph-name="infinity" unicode="&#x221e;" horiz-adv-x="629" 
d="M470 443q47 0 78 -33.5t31 -97.5q0 -67 -34 -104.5t-85 -37.5q-76 0 -144 95q-72 -95 -148 -95q-50 0 -84 37.5t-34 104.5q0 65 32 98t83 33q82 0 150 -99q72 99 155 99zM178 218q34 0 58.5 21.5t52.5 65.5q-21 32 -33 47t-34 29t-48 14q-69 0 -69 -85q0 -45 19.5 -68.5
t53.5 -23.5zM452 218q34 0 53 23.5t19 69.5q0 84 -66 84q-26 0 -49.5 -16t-35.5 -31.5t-32 -45.5q48 -84 111 -84z" />
    <glyph glyph-name="integral" unicode="&#x222b;" horiz-adv-x="300" 
d="M194 714q42 0 78 -4l-5 -46h-52q-31 0 -44 -21t-11 -71l36 -661q4 -67 -18 -100t-75 -33q-52 0 -76 4l5 46h51q31 0 44 21t12 72l-36 660q-6 133 91 133z" />
    <glyph glyph-name="approxequal" unicode="&#x2248;" horiz-adv-x="474" 
d="M139 442q28 0 95 -30t98 -31q20 -1 27.5 10t7.5 46h44q6 -54 -13 -80.5t-64 -25.5q-32 0 -98.5 30.5t-93.5 31.5q-20 0 -28 -12t-8 -48h-44q-11 111 77 109zM139 251q28 0 95 -30t98 -31q20 -1 27.5 10.5t7.5 45.5h44q6 -54 -13 -80.5t-64 -25.5q-32 1 -98.5 31t-93.5 31
q-20 0 -28 -12t-8 -48h-44q-6 59 15 85t62 24z" />
    <glyph glyph-name="notequal" unicode="&#x2260;" horiz-adv-x="471" 
d="M279 373l-81 -162h213v-49h-238l-62 -124l-20 12l56 112h-87v49h111l81 162h-192v49h216l54 108l21 -12l-48 -96h108v-49h-132z" />
    <glyph glyph-name="lessequal" unicode="&#x2264;" horiz-adv-x="458" 
d="M393 474l-271 -119l271 -106v-52l-328 132v52l328 145v-52zM401 88h-344v48h344v-48z" />
    <glyph glyph-name="greaterequal" unicode="&#x2265;" horiz-adv-x="458" 
d="M393 381v-52l-328 -132v51l271 107l-271 119v52zM401 88h-344v48h344v-48z" />
    <glyph glyph-name="lozenge" unicode="&#x25ca;" horiz-adv-x="465" 
d="M239 692l195 -338q5 -8 0 -16l-195 -340q-7 -10 -13 0l-196 340q-4 8 0 16l196 338q6 10 13 0zM82 346l151 -284l149 284l-149 282z" />
    <glyph glyph-name="c_t" horiz-adv-x="663" 
d="M516 434v-314q0 -37 13 -53.5t41 -16.5h61l7 -48q-42 -10 -86 -10q-99 0 -99 121v321h-212q-72 0 -100.5 -41t-28.5 -151q0 -115 27.5 -157t98.5 -42q60 0 104 11l7 -44q-57 -22 -122 -22q-100 0 -141 57t-41 197q0 130 44 186t142 56h222v147h63v-147h127v-50h-127z" />
    <glyph glyph-name="f_f_y" horiz-adv-x="963" 
d="M947 484l-158 -518q-51 -158 -167 -173l-7 41q45 19 71 53t43 86l10 27h-17q-18 0 -23 17l-111 368q-15 49 -53 49h-113v-434h-64v434h-200v-434h-64v434h-71v45l71 5v77q0 140 113 140q57 0 97 -6l-4 -47h-71q-40 0 -55.5 -20t-15.5 -73v-71h200v93q0 69 26.5 104
t86.5 35q63 0 109 -6l-5 -47h-82q-39 0 -55 -20.5t-16 -71.5v-87h125q76 0 102 -83l81 -295q9 -26 15 -56h12q10 38 16 57l106 377h68z" />
    <glyph glyph-name="f_t" horiz-adv-x="571" 
d="M424 434v-314q0 -37 13 -53.5t41 -16.5h60l7 -48q-40 -10 -86 -10q-99 0 -99 121v321h-202v-434h-64v434h-71v45l71 5v93q0 69 26.5 104t86.5 35q59 0 103 -6l-5 -47h-76q-39 0 -55 -20.5t-16 -71.5v-87h202v147h64v-147h126v-50h-126z" />
    <glyph glyph-name="f_y" horiz-adv-x="699" 
d="M683 484l-159 -518q-49 -158 -167 -173l-7 41q46 19 72.5 53.5t42.5 85.5l10 27h-17q-18 0 -24 17l-111 368q-13 49 -52 49h-113v-434h-64v434h-71v45l71 5v93q0 69 26.5 104t86.5 35q63 0 108 -6l-5 -47h-81q-39 0 -55 -20.5t-16 -71.5v-87h125q76 0 101 -83l82 -295
q13 -48 15 -56h11q1 4 6 19.5t8 23.5l108 391h69z" />
    <glyph glyph-name="s_t" horiz-adv-x="690" 
d="M542 434v-314q0 -37 12.5 -53.5t41.5 -16.5h61l7 -48q-42 -10 -86 -10q-100 0 -100 121v321h-276q-61 0 -79.5 -10.5t-18.5 -58.5q0 -41 13 -57t44 -24l116 -28q48 -12 69.5 -41.5t21.5 -88.5q0 -85 -37.5 -111t-129.5 -26q-81 0 -152 13l5 47q59 -8 135 -6
q70 1 93.5 16.5t23.5 66.5q0 39 -15 55t-47 24l-114 28q-48 11 -68.5 41.5t-20.5 90.5q0 74 33.5 97t118.5 22h285v147h64v-147h127v-50h-127z" />
    <glyph glyph-name="t_t" horiz-adv-x="580" 
d="M433 434v-314q0 -37 12.5 -53.5t41.5 -16.5h61l7 -48q-42 -10 -87 -10q-99 0 -99 121v321h-213v-314q0 -37 13 -53.5t41 -16.5h61l8 -48q-42 -10 -87 -10q-99 0 -99 121v321h-71v45l71 5v147h63v-147h213v147h64v-147h126v-50h-126z" />
    <glyph glyph-name="t_y" horiz-adv-x="717" 
d="M701 484l-159 -518q-49 -158 -167 -173l-6 41q45 19 71 53t43 86l9 27h-16q-18 0 -23 17l-112 368q-13 49 -52 49h-133v-314q0 -37 13 -53.5t41 -16.5h61l8 -48q-42 -10 -87 -10q-99 0 -99 121v321h-71v45l71 5v147h63v-147h145q76 0 101 -82l81 -296q11 -34 16 -56h10
l16 49l107 385h69z" />
    <glyph glyph-name="brevecy" horiz-adv-x="299" 
d="M221 694h49q2 -57 -30 -94.5t-89 -37.5t-90 37.5t-30 94.5h49q0 -46 18.5 -70.5t52.5 -24.5q33 0 51.5 24.5t18.5 70.5z" />
    </font>
</defs>
</svg>
