<?xml version="1.0" standalone="no"?>
<!DOCTYPE svg PUBLIC "-//W3C//DTD SVG 1.1//EN" "http://www.w3.org/Graphics/SVG/1.1/DTD/svg11.dtd" >
<svg xmlns="http://www.w3.org/2000/svg" xmlns:xlink="http://www.w3.org/1999/xlink" version="1.1">
<metadata>
Created by FontForge 20170731 at Sat Nov  8 21:23:29 2014
 By Aleksey,,,
Copyright (c) 2014, Natanael Gama (www.ndiscovered.com . info(at)ndiscovered.com)
</metadata>
<defs>
<font id="Exo2-SemiBoldCondensed" horiz-adv-x="466" >
  <font-face 
    font-family="Exo 2 Semi Bold Condensed"
    font-weight="600"
    font-stretch="condensed"
    units-per-em="1000"
    panose-1="0 0 7 6 0 0 0 0 0 0"
    ascent="800"
    descent="-200"
    x-height="490"
    cap-height="690"
    bbox="-142 -285 1031 944"
    underline-thickness="50"
    underline-position="-200"
    unicode-range="U+0020-FB02"
  />
<missing-glyph horiz-adv-x="486" 
 />
    <glyph glyph-name="fi" unicode="fi" horiz-adv-x="541" 
d="M489 490v-490h-120v402h-162v-402h-120v402h-71v83l71 5v68q0 79 30.5 120t99.5 41q66 0 107 -9v-86h-64q-29 0 -41 -18t-12 -63v-53h282zM401 704h55q33 0 33 -35v-54q0 -35 -33 -35h-55q-34 0 -34 35v54q0 35 34 35z" />
    <glyph glyph-name="fl" unicode="fl" horiz-adv-x="586" 
d="M567 84l14 -78q-31 -17 -94 -17q-53 0 -83 32.5t-30 89.5v514h-116q-29 1 -40.5 -17.5t-11.5 -64.5v-53h100v-88h-100v-402h-120v402h-71v83l71 5v68q0 79 30.5 120t99.5 41q196 0 279 -16v-563q0 -56 42 -56h30z" />
    <glyph glyph-name="f_f" unicode="ff" horiz-adv-x="617" 
d="M624 624h-76q-30 0 -41.5 -15.5t-11.5 -53.5v-65h110v-88h-110v-402h-120v402h-169v-402h-119v402h-71v83l71 5v71q1 70 33.5 109t96.5 39q70 0 109 -9l-11 -86h-57q-30 0 -41 -14t-11 -55v-55h169v81q0 148 130 148q84 0 129 -9z" />
    <glyph glyph-name="f_f_i" unicode="ffi" horiz-adv-x="821" 
d="M769 490v-490h-120v402h-161v-402h-120v402h-169v-402h-120v402h-63v83l63 4v72q1 70 33.5 109t96.5 39q71 0 110 -9l-11 -86h-57q-30 0 -41 -14t-11 -55v-55h169v68q0 79 30.5 120t100.5 41q62 0 102 -9v-86h-59q-31 0 -42.5 -18t-11.5 -63v-53h281zM681 704h54
q35 0 35 -35v-54q0 -35 -35 -35h-54q-34 0 -34 35v54q0 35 34 35z" />
    <glyph glyph-name="f_f_l" unicode="ffl" horiz-adv-x="876" 
d="M857 84l14 -78q-31 -17 -94 -17q-52 0 -82 32.5t-30 89.5v514h-118q-29 1 -40.5 -17.5t-11.5 -64.5v-53h100v-88h-100v-402h-120v402h-169v-402h-119v402h-71v83l71 5v71q1 70 33.5 109t96.5 39q70 0 109 -9l-11 -86h-57q-30 0 -41 -14t-11 -55v-55h169v68q0 79 30.5 120
t99.5 41q197 0 280 -16v-563q0 -56 41 -56h31z" />
    <glyph glyph-name=".notdef" horiz-adv-x="486" 
 />
    <glyph glyph-name=".null" horiz-adv-x="0" 
 />
    <glyph glyph-name="nonmarkingreturn" horiz-adv-x="333" 
 />
    <glyph glyph-name="space" unicode=" " horiz-adv-x="176" 
 />
    <glyph glyph-name="exclam" unicode="!" horiz-adv-x="242" 
d="M180 410l-12 -194h-95l-12 194v285h119v-285zM107 137h28q24 0 33 -9.5t9 -33.5v-51q0 -24 -9 -33.5t-33 -9.5h-28q-24 0 -33 9.5t-9 33.5v51q0 24 9 33.5t33 9.5z" />
    <glyph glyph-name="quotedbl" unicode="&#x22;" horiz-adv-x="306" 
d="M125 472h-76l-7 218h91zM256 472h-75l-8 218h91z" />
    <glyph glyph-name="numbersign" unicode="#" horiz-adv-x="574" 
d="M448 435l-23 -157h90l-14 -74h-86l-29 -204h-91l29 204h-112l-29 -204h-92l29 204h-95l14 74h91l23 157h-94l14 74h90l26 181h91l-25 -181h112l25 181h92l-26 -181h91l-14 -74h-87zM356 435h-112l-22 -157h112z" />
    <glyph glyph-name="dollar" unicode="$" horiz-adv-x="469" 
d="M437 181q0 -114 -43.5 -153t-158.5 -40l-8 -112h-59l9 114q-64 4 -135 20l7 95l136 -4l15 197l-49 19q-62 24 -88.5 72t-26.5 128q0 59 11 95.5t37 56.5t60.5 26.5t91.5 6.5h1l7 95h59l-7 -97q69 -5 123 -21l-8 -89q-33 1 -123 3l-14 -193l47 -18q65 -25 90.5 -73
t25.5 -128zM160 515q0 -43 12.5 -60.5t44.5 -31.5l12 170q-41 -1 -55 -14.5t-14 -63.5zM257 275l-13 -175q41 2 54.5 18t13.5 64q0 44 -11 60.5t-40 30.5z" />
    <glyph glyph-name="percent" unicode="%" horiz-adv-x="735" 
d="M166 703q77 0 108 -46t31 -159q0 -112 -31 -158.5t-108 -46.5t-108 46.5t-31 158.5q0 113 31 159t108 46zM238 0h-78l335 690h78zM165 632q-28 0 -38.5 -28.5t-10.5 -105.5q0 -78 10 -106t39 -28q30 0 40 27.5t10 106.5q0 78 -10 106t-40 28zM568 400q77 0 108 -46
t31 -159q0 -114 -30.5 -160t-108.5 -46q-77 0 -107.5 46t-30.5 160q0 113 30.5 159t107.5 46zM567 327q-29 0 -38.5 -26.5t-9.5 -105.5t10 -106.5t38 -27.5q30 0 41 28t11 106t-11 105t-41 27z" />
    <glyph glyph-name="ampersand" unicode="&#x26;" horiz-adv-x="619" 
d="M577 92l13 -86q-43 -17 -103 -17q-85 0 -105 77q-32 -42 -71.5 -59.5t-101.5 -17.5q-90 0 -128.5 41.5t-38.5 144.5q0 169 109 181v4q-49 6 -71 45t-22 116q0 60 11 95.5t40 54.5t65.5 24.5t100.5 5.5q77 0 131 -11l-14 -91q-42 3 -120 3q-52 0 -69.5 -18t-17.5 -81
q0 -59 15.5 -80t57.5 -21h121l8 114h102v-114h87l1 -91h-88v-162q0 -32 8 -44.5t31 -12.5h49zM245 94q79 0 131 56v161h-124q-46 0 -62.5 -23.5t-16.5 -89.5q0 -61 14.5 -82.5t57.5 -21.5z" />
    <glyph glyph-name="quotesingle" unicode="'" horiz-adv-x="175" 
d="M125 472h-76l-7 218h91z" />
    <glyph glyph-name="parenleft" unicode="(" horiz-adv-x="296" 
d="M266 790l14 -54q-132 -82 -132 -423q0 -336 132 -424l-14 -54q-121 50 -178 166t-57 311q0 197 57 313t178 165z" />
    <glyph glyph-name="parenright" unicode=")" horiz-adv-x="296" 
d="M15 736l15 54q121 -49 178 -165t57 -313q0 -195 -57 -311t-178 -166l-15 54q133 87 133 424q0 171 -31.5 275.5t-101.5 147.5z" />
    <glyph glyph-name="asterisk" unicode="*" horiz-adv-x="365" 
d="M205 527l87 -129l-53 -41l-57 122l-57 -121l-54 40l88 128l-10 165h66zM144 560v-30l-15 -19l-100 31l21 65zM335 541l-100 -30l-15 19v30l94 47z" />
    <glyph glyph-name="plus" unicode="+" horiz-adv-x="439" 
d="M404 256h-140v-171h-89v171h-141v88h140v172h90v-172h140v-88z" />
    <glyph glyph-name="comma" unicode="," horiz-adv-x="199" 
d="M84 137h31q24 0 32.5 -9.5t8.5 -33.5l1 -64q-1 -92 -42 -170l-53 15q12 54 13 125q-35 0 -35 38l1 56q1 24 11 33.5t32 9.5z" />
    <glyph glyph-name="hyphen" unicode="-" horiz-adv-x="335" 
d="M289 211h-242v86h242v-86z" />
    <glyph glyph-name="period" unicode="." horiz-adv-x="202" 
d="M84 137h34q24 0 33.5 -9.5t9.5 -33.5v-51q0 -24 -9.5 -33.5t-33.5 -9.5h-34q-25 0 -34 9.5t-9 33.5v51q0 24 9 33.5t34 9.5z" />
    <glyph glyph-name="slash" unicode="/" horiz-adv-x="444" 
d="M111 -69h-96l318 759h96z" />
    <glyph glyph-name="zero" unicode="0" horiz-adv-x="509" 
d="M254 703q119 0 166.5 -81.5t47.5 -276.5t-47.5 -276.5t-166.5 -81.5q-118 0 -166 81.5t-48 276.5t48 276.5t166 81.5zM253 598q-52 0 -71.5 -54t-19.5 -199t19.5 -199t71.5 -54q54 0 74 54t20 199t-20 199t-74 54z" />
    <glyph glyph-name="one" unicode="1" horiz-adv-x="357" 
d="M281 0h-125v509q0 40 6 68l-128 -46l-15 89l137 70h125v-690z" />
    <glyph glyph-name="two" unicode="2" 
d="M228 702q93 0 139.5 -32.5t46.5 -122.5q0 -65 -18.5 -115.5t-71.5 -122.5l-139 -197q31 6 84 6h161v-118h-392v75q0 29 17 52l134 199q100 136 99 210q-1 36 -17.5 46.5t-56.5 10.5q-79 0 -167 -12l-5 96q93 25 186 25z" />
    <glyph glyph-name="three" unicode="3" horiz-adv-x="458" 
d="M219 703q98 0 140 -35t42 -125q0 -75 -18 -119t-64 -55v-4q52 -11 73.5 -53t22.5 -120q2 -108 -42 -156.5t-148 -48.5q-83 0 -191 18l5 98q104 -8 152 -8q58 0 79.5 23.5t21.5 88.5q0 57 -17.5 82.5t-66.5 24.5h-103v93h103q47 0 61 26t13 79q-1 54 -17 69t-67 15
q-70 0 -148 -6l-6 95q90 18 175 18z" />
    <glyph glyph-name="four" unicode="4" horiz-adv-x="516" 
d="M490 253v-84l-68 -12h-4v-157h-116v157h-211q-40 0 -59.5 36.5t-4.5 79.5l142 417h118l-130 -401q-13 -36 16 -36h129v192l20 112h96v-304h72z" />
    <glyph glyph-name="five" unicode="5" horiz-adv-x="445" 
d="M391 587h-226l-6 -147l79 -10q97 -12 135 -64t38 -157q0 -221 -193 -221q-86 0 -187 23l12 101q87 -15 143 -15q59 0 79.5 25.5t22.5 87.5q1 27 -1 45t-9.5 31t-14.5 20.5t-25 13t-32.5 8t-44.5 6.5l-66 7q-19 1 -30.5 15.5t-11.5 35.5l15 298h327z" />
    <glyph glyph-name="six" unicode="6" horiz-adv-x="475" 
d="M283 454q90 0 124.5 -50t34.5 -173t-40.5 -183t-153.5 -60q-124 0 -165.5 71.5t-41.5 277.5q0 94 10 159.5t27.5 105.5t47.5 62.5t64 30t83 7.5q79 0 132 -17l-6 -87q-42 2 -126 2q-61 0 -83.5 -36.5t-26.5 -157.5q44 48 120 48zM249 91q48 0 61.5 31t13.5 108
q0 72 -16 99.5t-60 27.5t-86 -38q0 -145 14 -186.5t73 -41.5z" />
    <glyph glyph-name="seven" unicode="7" horiz-adv-x="425" 
d="M17 690h334q30 0 44 -20.5t5 -51.5l-168 -618h-123l140 526q8 31 24 59h-250z" />
    <glyph glyph-name="eight" unicode="8" horiz-adv-x="497" 
d="M248 701q113 0 153 -41.5t40 -141.5q0 -147 -81 -158v-4q52 -6 73.5 -53.5t21.5 -130.5q0 -99 -43 -141t-164 -43q-118 -1 -162 42t-44 142q0 84 21 131t74 53v4q-81 11 -81 158q0 99 40 141t152 42zM250 606q-49 0 -65.5 -21t-16.5 -80q0 -60 16.5 -80t66.5 -20
q49 0 63.5 20t14.5 80t-15.5 80.5t-63.5 20.5zM250 311q-55 -1 -73 -23.5t-18 -88.5q0 -63 18 -85.5t73 -22.5q53 0 70 22t17 86q0 67 -17 89.5t-70 22.5z" />
    <glyph glyph-name="nine" unicode="9" horiz-adv-x="474" 
d="M230 702q52 0 86.5 -11t58 -33.5t35.5 -66t17 -98.5t5 -140q0 -153 -24 -232t-71 -106t-136 -27q-84 0 -143 17l7 88q45 -2 135 -2q63 0 86 40t26 156q-43 -51 -122 -51q-155 0 -155 223q-1 127 43.5 185t151.5 58zM226 332q43 0 87 40q0 143 -14 185.5t-70 42.5
q-48 0 -63 -32t-15 -108q0 -67 16 -97.5t59 -30.5z" />
    <glyph glyph-name="colon" unicode=":" horiz-adv-x="212" 
d="M85 446h34q24 0 33.5 -9t9.5 -34v-50q0 -25 -9.5 -34.5t-33.5 -9.5h-34q-25 0 -34 9.5t-9 34.5v50q0 25 9 34t34 9zM85 137h34q24 0 33.5 -9t9.5 -34v-50q0 -25 -9.5 -34.5t-33.5 -9.5h-34q-25 0 -34 9.5t-9 34.5v50q0 25 9 34t34 9z" />
    <glyph glyph-name="semicolon" unicode=";" horiz-adv-x="213" 
d="M91 446h34q24 0 33.5 -9t9.5 -34v-50q0 -25 -9.5 -34.5t-33.5 -9.5h-34q-25 0 -34 9.5t-9 34.5v50q0 25 9 34t34 9zM91 137h31q24 0 32.5 -9.5t8.5 -33.5l1 -64q-1 -92 -42 -170l-53 15q12 54 13 125q-35 0 -35 38l1 56q2 24 11 33.5t32 9.5z" />
    <glyph glyph-name="less" unicode="&#x3c;" horiz-adv-x="420" 
d="M373 421l-239 -121l239 -120v-95l-340 168v94l340 169v-95z" />
    <glyph glyph-name="equal" unicode="=" horiz-adv-x="470" 
d="M422 357h-373v88h373v-88zM422 145h-373v88h373v-88z" />
    <glyph glyph-name="greater" unicode="&#x3e;" horiz-adv-x="420" 
d="M387 347v-94l-340 -168v95l238 120l-238 121v95z" />
    <glyph glyph-name="question" unicode="?" horiz-adv-x="414" 
d="M219 712q87 0 129.5 -38t42.5 -117q0 -41 -14 -75.5t-34 -60.5t-40.5 -53t-36.5 -66t-19 -86h-99q-1 50 9.5 92.5t27 71t33.5 53.5t30 50.5t15 50.5q6 77 -73 77q-66 0 -161 -7l-4 85q7 2 27.5 6.5t27.5 5.5t25 4t31.5 4t35 2t47.5 1zM183 137h29q24 0 33 -9.5t9 -33.5
v-51q0 -24 -9 -33.5t-33 -9.5h-29q-24 0 -33 9.5t-9 33.5v51q0 24 9 33.5t33 9.5z" />
    <glyph glyph-name="at" unicode="@" horiz-adv-x="609" 
d="M301 594h121q71 0 105.5 -36t34.5 -120v-304h-89l-10 71q-23 -33 -59.5 -57t-78.5 -24q-50 0 -82.5 32.5t-32.5 92.5v49q0 50 26 78.5t74 28.5h139v30q0 37 -10.5 50t-40.5 13h-97q-37 0 -55.5 -1t-37.5 -9.5t-26.5 -21t-14 -41t-8 -63.5t-1.5 -95q0 -46 0.5 -76.5
t5.5 -57.5t8 -42t15.5 -27.5t21.5 -17.5t32.5 -8.5t40.5 -4t54 -0.5h226v-86q-118 -11 -226 -11q-69 -1 -112.5 2.5t-78.5 18t-52.5 34t-29.5 61t-15 89t-3 126.5q0 78 2.5 124.5t13 87t26 60t46.5 34t69 18t99 3.5zM449 337l-94 -4q-21 -1 -28 -11t-7 -36v-16q0 -55 35 -55
q56 0 94 54v68z" />
    <glyph glyph-name="A" unicode="A" horiz-adv-x="525" 
d="M356 195h-187l-41 -195h-127l159 657q9 33 44 33h117q35 0 43 -33l160 -657h-127zM334 298l-49 238q-12 55 -12 59h-22q-1 -13 -11 -59l-50 -238h144z" />
    <glyph glyph-name="B" unicode="B" horiz-adv-x="514" 
d="M366 360v-4q62 -7 88 -52.5t26 -131.5q0 -104 -42.5 -142t-145.5 -38q-154 0 -235 8v690q73 8 209 8q111 0 153.5 -37.5t42.5 -142.5q0 -76 -22.5 -114t-73.5 -44zM260 597h-81v-194h87q45 0 61 20t16 79q0 57 -17.5 76t-65.5 19zM179 93h91q50 0 67.5 20.5t17.5 81.5
q0 68 -18.5 92t-69.5 25h-88v-219z" />
    <glyph glyph-name="C" unicode="C" horiz-adv-x="474" 
d="M272 702q97 0 167 -22l-11 -95q-73 7 -156 7q-60 0 -81.5 -52.5t-21.5 -194.5t21.5 -194.5t81.5 -52.5q107 0 168 10l10 -94q-71 -26 -178 -26q-129 0 -181.5 80t-52.5 277t52.5 277t181.5 80z" />
    <glyph glyph-name="D" unicode="D" horiz-adv-x="549" 
d="M273 699q132 0 184.5 -76.5t52.5 -277.5t-52.5 -277.5t-184.5 -76.5q-101 0 -216 9v690q115 9 216 9zM273 96q61 0 83.5 53t22.5 196t-22.5 196.5t-83.5 53.5q-18 0 -48.5 -0.5t-43.5 -0.5v-497q28 -1 92 -1z" />
    <glyph glyph-name="E" unicode="E" 
d="M427 101l6 -95q-75 -8 -253 -8q-59 0 -93 35t-35 96v432q1 61 35 96t93 35q178 0 253 -8l-6 -96h-215q-20 0 -27 -12.5t-7 -45.5v-121h219v-96h-219v-154q0 -33 7 -45.5t27 -12.5h215z" />
    <glyph glyph-name="F" unicode="F" horiz-adv-x="448" 
d="M420 588h-197q-25 0 -34 -12.5t-9 -45.5v-133h211v-97h-211v-300h-125v556q0 65 34.5 100.5t93.5 35.5q173 0 244 -9z" />
    <glyph glyph-name="G" unicode="G" horiz-adv-x="519" 
d="M476 398v-398h-91l-11 65q-62 -78 -161 -78q-92 0 -133 86.5t-41 274.5q0 139 25 215.5t78.5 108t150.5 31.5q95 0 164 -23l-10 -93q-79 6 -149 6q-52 0 -77 -16t-38 -70t-13 -166q0 -140 18 -193t67 -53q44 0 102 45v258h119z" />
    <glyph glyph-name="H" unicode="H" horiz-adv-x="556" 
d="M499 690v-690h-124v316h-194v-316h-124v690h124v-271h194v271h124z" />
    <glyph glyph-name="I" unicode="I" horiz-adv-x="238" 
d="M181 0h-124v690h124v-690z" />
    <glyph glyph-name="J" unicode="J" horiz-adv-x="295" 
d="M241 690v-538q0 -78 -32.5 -120.5t-91.5 -42.5q-63 0 -100 17l13 88h36q51 0 51 61v535h124z" />
    <glyph glyph-name="K" unicode="K" horiz-adv-x="509" 
d="M215 311h-41q7 -40 7 -68v-243h-124v690h124v-204q0 -40 -6 -79h39l148 283h134l-147 -278q-13 -23 -43 -52v-3q36 -33 50 -59l149 -298h-138z" />
    <glyph glyph-name="L" unicode="L" horiz-adv-x="428" 
d="M179 690v-529q0 -32 9 -44.5t34 -12.5h188l7 -97q-82 -9 -227 -9q-135 0 -135 143v549h124z" />
    <glyph glyph-name="M" unicode="M" horiz-adv-x="735" 
d="M498 690h122q46 0 48 -49l22 -641h-119l-18 589h-15l-76 -459q-9 -42 -51 -42h-87q-42 0 -52 42l-77 459h-15l-15 -589h-119l20 641q2 49 47 49h124q40 0 49 -42l62 -373q12 -80 14 -95h10q7 53 13 95l62 373q9 42 51 42z" />
    <glyph glyph-name="N" unicode="N" horiz-adv-x="586" 
d="M529 690v-644q0 -46 -44 -46h-103q-39 0 -50 38l-118 414q-5 16 -30 109h-8q2 -72 2 -110v-451h-121v644q0 46 44 46h103q39 0 50 -38l115 -403l32 -115h9q-1 41 -1 119v437h120z" />
    <glyph glyph-name="O" unicode="O" horiz-adv-x="552" 
d="M276 703q133 0 185.5 -77t52.5 -281t-52.5 -281t-185.5 -77t-185.5 77t-52.5 281t52.5 281t185.5 77zM276 596q-61 0 -84 -53.5t-23 -197.5t23 -197.5t84 -53.5q62 0 84.5 53t22.5 198t-22.5 198t-84.5 53z" />
    <glyph glyph-name="P" unicode="P" horiz-adv-x="494" 
d="M267 699q116 0 159 -46t43 -176q0 -129 -40.5 -175.5t-145.5 -46.5q-54 0 -102 6v-261h-124v690q74 9 210 9zM181 357h84q46 0 63 24.5t17 95.5q0 70 -17 94.5t-63 24.5h-84v-239z" />
    <glyph glyph-name="Q" unicode="Q" horiz-adv-x="554" 
d="M277 703q133 0 185.5 -77t52.5 -281t-52.5 -281t-185.5 -77t-185.5 77t-52.5 281t52.5 281t185.5 77zM277 596q-62 0 -84.5 -53t-22.5 -198t22.5 -198t84.5 -53q61 0 84 53.5t23 197.5t-23 197.5t-84 53.5zM207 -111l29 73q109 -44 246 -66l-37 -120q-114 32 -238 113z
" />
    <glyph glyph-name="R" unicode="R" horiz-adv-x="518" 
d="M494 0h-132l-41 214q-7 34 -20.5 48t-37.5 14h-83v-276h-123v690q74 9 211 9q111 0 158 -43.5t47 -158.5q0 -80 -24 -122.5t-81 -51.5v-5q62 -18 79 -102zM180 379h86q47 1 64.5 24t17.5 86t-17 85t-65 22h-86v-217z" />
    <glyph glyph-name="S" unicode="S" horiz-adv-x="469" 
d="M235 702q108 0 183 -23l-7 -89q-69 3 -172 3q-48 0 -63.5 -13t-15.5 -65q0 -43 12 -60.5t44 -31.5l104 -41q65 -25 91 -73t26 -128q0 -115 -44.5 -154t-163.5 -39q-95 0 -187 22l7 92q151 -4 182 -4q49 0 64.5 15.5t15.5 68.5q0 44 -11 60.5t-40 30.5l-110 44
q-62 24 -88.5 72t-26.5 128q0 59 11 95.5t37 56.5t60.5 26.5t91.5 6.5z" />
    <glyph glyph-name="T" unicode="T" horiz-adv-x="486" 
d="M471 582h-165v-582h-125v582h-165v108h455v-108z" />
    <glyph glyph-name="U" unicode="U" horiz-adv-x="548" 
d="M495 690v-420q0 -155 -48.5 -219t-166.5 -64q-125 0 -176 64t-51 219v420h124v-420q0 -100 21 -138t76 -38q54 0 75.5 38.5t21.5 137.5v420h124z" />
    <glyph glyph-name="V" unicode="V" horiz-adv-x="514" 
d="M508 690l-150 -655q-4 -16 -16 -25.5t-28 -9.5h-114q-16 0 -28 9.5t-15 25.5l-151 655h128l100 -518q3 -17 13 -77h20q2 17 14 77l99 518h128z" />
    <glyph glyph-name="W" unicode="W" horiz-adv-x="787" 
d="M765 690l-84 -655q-8 -35 -44 -35h-124q-38 0 -45 36l-58 481q-1 9 -3 25.5t-3.5 30t-2.5 25.5h-15q-1 -9 -2.5 -25.5t-3 -30t-3.5 -25.5l-57 -481q-3 -16 -15.5 -26t-29.5 -10h-125q-17 0 -29 9.5t-15 25.5l-84 655h129l50 -503q1 -12 2.5 -27t3 -35t2.5 -32h15
q2 21 12 94l56 463q7 40 45 40h114q37 0 44 -40l56 -464q7 -51 11 -93h16q3 46 8 92l51 505h128z" />
    <glyph glyph-name="X" unicode="X" horiz-adv-x="516" 
d="M263 312h-10l-114 -312h-131l142 355l-131 335h129l104 -288h12l104 288h130l-133 -335l143 -355h-131z" />
    <glyph glyph-name="Y" unicode="Y" horiz-adv-x="490" 
d="M307 233v-233h-124v235l-183 455h130l91 -268q9 -26 20 -83h8q11 57 21 83l90 268h129z" />
    <glyph glyph-name="Z" unicode="Z" horiz-adv-x="470" 
d="M437 102v-102h-403v102l262 486h-256v102h391v-102l-263 -486h269z" />
    <glyph glyph-name="bracketleft" unicode="[" horiz-adv-x="281" 
d="M255 691h-66q-15 0 -15 -18v-743q0 -18 15 -18h66v-77h-131q-62 0 -62 67v799q0 29 17.5 48t44.5 19h131v-77z" />
    <glyph glyph-name="backslash" unicode="\" horiz-adv-x="444" 
d="M430 -69h-97l-318 759h96z" />
    <glyph glyph-name="bracketright" unicode="]" horiz-adv-x="281" 
d="M26 768h129q28 0 46 -19t18 -48v-799q0 -29 -18 -48t-46 -19h-129v77h65q15 0 15 18v743q0 18 -15 18h-65v77z" />
    <glyph glyph-name="asciicircum" unicode="^" horiz-adv-x="375" 
d="M350 397l-47 -28l-112 170h-7l-113 -170l-47 28l120 219h88z" />
    <glyph glyph-name="underscore" unicode="_" horiz-adv-x="360" 
d="M360 -86h-360v86h360v-86z" />
    <glyph glyph-name="grave" unicode="`" horiz-adv-x="286" 
d="M237 584l-36 -54l-185 112l59 89z" />
    <glyph glyph-name="a" unicode="a" horiz-adv-x="458" 
d="M252 504q83 0 121.5 -38t38.5 -133v-333h-95l-11 67q-57 -78 -145 -78q-58 0 -95 37.5t-37 104.5v50q0 58 32.5 90.5t91.5 32.5h139v30q-1 42 -15 56t-53 14q-57 0 -164 -10l-11 86q107 24 203 24zM193 87q48 0 99 50v84h-107q-20 -1 -27.5 -14.5t-7.5 -40.5v-19
q0 -32 10 -46t33 -14z" />
    <glyph glyph-name="b" unicode="b" horiz-adv-x="478" 
d="M299 504q76 0 111.5 -60t35.5 -196q0 -129 -41.5 -194.5t-153.5 -65.5q-49 0 -109 10t-94 27v675h121l1 -165q0 -63 -12 -110q60 79 141 79zM248 85q41 1 57 36t16 127q0 91 -13 122.5t-57 31.5q-36 0 -83 -52l1 -255q38 -12 79 -10z" />
    <glyph glyph-name="c" unicode="c" horiz-adv-x="408" 
d="M232 504q89 0 148 -28l-14 -76q-86 2 -113 2q-54 0 -74 -32.5t-20 -123.5q0 -92 20 -125t74 -33q65 0 122 10l10 -80q-61 -30 -154 -30q-110 0 -154.5 58t-44.5 200t45 200t155 58z" />
    <glyph glyph-name="d" unicode="d" horiz-adv-x="479" 
d="M430 700v-700h-96l-8 64q-61 -76 -153 -76q-140 0 -140 260q0 141 38 198.5t117 57.5q75 0 125 -40q-3 47 -3 95v141h120zM220 91q26 0 43 10t47 39v247q-52 18 -84 18q-39 0 -53.5 -30t-14.5 -126q0 -93 14 -125.5t48 -32.5z" />
    <glyph glyph-name="e" unicode="e" horiz-adv-x="450" 
d="M253 88q63 0 148 11l10 -78q-62 -33 -173 -33q-112 0 -159 59t-47 199q0 143 46.5 200.5t154.5 57.5q100 0 144.5 -42t44.5 -128q0 -140 -116 -140h-146q4 -64 24.5 -85t68.5 -21zM238 408q-45 0 -62 -26t-18 -103h114q13 0 20.5 10t8.5 20t1 27q1 40 -12.5 56t-51.5 16z
" />
    <glyph glyph-name="f" unicode="f" horiz-adv-x="329" 
d="M335 624h-75q-29 0 -40.5 -15.5t-11.5 -53.5v-65h109v-88h-109v-402h-121v402h-71v83l71 5v81q0 148 131 148q83 0 128 -9z" />
    <glyph glyph-name="g" unicode="g" horiz-adv-x="468" 
d="M450 431l-51 -7q11 -29 11 -78q0 -85 -41.5 -121.5t-145.5 -36.5q-40 0 -65 4q-7 -18 -2 -39t22 -24l143 -25q63 -10 89.5 -44.5t26.5 -101.5q0 -88 -46 -121t-162 -33q-120 0 -165 31.5t-45 112.5q0 42 14.5 66t52.5 46q-28 30 -24 79t33 73q-58 33 -58 134
q0 87 41 122.5t146 35.5q68 0 106 -14h127zM223 273q44 0 60 16t16 57t-16 56.5t-60 15.5t-60 -15.5t-16 -56.5t16.5 -57t59.5 -16zM321 -37q0 32 -12 41t-53 15l-90 14q-31 -31 -31 -70q0 -40 17 -51t72 -11q61 0 79 11.5t18 50.5z" />
    <glyph glyph-name="h" unicode="h" horiz-adv-x="484" 
d="M326 504q54 0 82.5 -35t28.5 -101v-368h-121v331q0 41 -6.5 55.5t-25.5 14.5q-42 0 -114 -57v-344h-121v700h121v-180q0 -47 -7 -94q84 78 163 78z" />
    <glyph glyph-name="i" unicode="i" horiz-adv-x="226" 
d="M85 703h55q35 0 35 -35v-55q0 -35 -35 -35h-55q-34 0 -34 35v55q0 35 34 35zM173 0h-120v490h120v-490z" />
    <glyph glyph-name="j" unicode="j" horiz-adv-x="226" 
d="M86 704h55q34 0 34 -35v-54q0 -35 -34 -35h-55q-34 0 -34 35v54q0 35 34 35zM174 490v-481q0 -65 -27.5 -121t-74.5 -88l-67 54q49 65 49 155v481h120z" />
    <glyph glyph-name="k" unicode="k" horiz-adv-x="449" 
d="M197 234h-33q6 -39 6 -74v-160h-121v700h121v-298q0 -44 -6 -86h31l103 174h135l-102 -174q-15 -26 -37 -41v-2q18 -12 37 -47l115 -226h-135z" />
    <glyph glyph-name="l" unicode="l" horiz-adv-x="265" 
d="M171 700l-1 -548q0 -56 44 -56h31l14 -90q-31 -17 -94 -17q-54 0 -84.5 35t-30.5 99v577h121z" />
    <glyph glyph-name="m" unicode="m" horiz-adv-x="710" 
d="M552 504q111 0 111 -136v-368h-119v331q-1 39 -9 54.5t-31 15.5q-14 0 -27.5 -7.5t-23 -15t-39.5 -34.5v-344h-115v331q0 39 -9.5 54.5t-31.5 15.5q-19 0 -36 -11t-53 -44v-346h-120v490h97l8 -72q74 86 150 86q82 0 103 -79q70 79 145 79z" />
    <glyph glyph-name="n" unicode="n" horiz-adv-x="484" 
d="M326 504q54 0 82.5 -35t28.5 -101v-368h-120v331q0 41 -7 55.5t-26 14.5q-38 0 -115 -58l1 -343h-121v490h100l8 -72q88 86 169 86z" />
    <glyph glyph-name="o" unicode="o" horiz-adv-x="473" 
d="M236 504q112 0 158.5 -59t46.5 -200t-46.5 -199.5t-158.5 -58.5q-111 0 -157.5 58.5t-46.5 199.5t46.5 200t157.5 59zM237 407q-46 0 -62 -33t-16 -129q0 -95 16 -128t62 -33t62 33t16 128q0 96 -16 129t-62 33z" />
    <glyph glyph-name="p" unicode="p" horiz-adv-x="487" 
d="M318 503q136 0 136 -262q0 -139 -38 -196t-117 -57q-81 0 -132 44q3 -53 2 -98v-129h-120v685h98l9 -71q25 37 70.5 60.5t91.5 23.5zM260 86q40 0 54.5 30.5t14.5 125.5q0 92 -13 126.5t-45 34.5q-43 0 -102 -61v-235q67 -21 91 -21z" />
    <glyph glyph-name="q" unicode="q" horiz-adv-x="476" 
d="M428 466v-661h-120l-1 151q0 52 9 100q-64 -69 -142 -69q-72 0 -107 62t-35 194q0 133 41.5 197t155.5 64q46 0 106 -10t94 -27zM156 237q0 -81 12.5 -113.5t50.5 -32.5q41 0 89 45v261q-39 12 -80 10t-56.5 -36.5t-15.5 -133.5z" />
    <glyph glyph-name="r" unicode="r" horiz-adv-x="343" 
d="M335 504l-12 -114h-33q-38 0 -120 -42v-348h-121v490h94l11 -71q82 85 160 85h21z" />
    <glyph glyph-name="s" unicode="s" horiz-adv-x="426" 
d="M199 504q105 -2 184 -18l-8 -84q-104 4 -153 4t-61.5 -6t-12.5 -36q0 -7 0.5 -12t2 -9t2 -7t4.5 -6t5 -4.5t7.5 -4t8 -3t10 -3.5t11.5 -4l100 -36q53 -18 75.5 -48.5t22.5 -92.5q0 -87 -40.5 -116t-143.5 -29q-94 0 -175 16l7 84q40 -3 136 -3q61 0 80.5 9t19.5 38
q0 24 -9.5 32t-38.5 18q-5 2 -8 3l-98 35q-55 18 -75.5 51t-20.5 93q0 80 37 109.5t131 29.5z" />
    <glyph glyph-name="t" unicode="t" horiz-adv-x="335" 
d="M207 402v-250q0 -32 9 -44t34 -12h50l13 -90q-45 -17 -112 -17q-55 0 -84.5 37.5t-29.5 105.5v270h-72v83l72 5v141h120v-141h109v-88h-109z" />
    <glyph glyph-name="u" unicode="u" horiz-adv-x="476" 
d="M427 490v-490h-96l-9 64q-83 -77 -163 -77q-112 0 -112 136v367h121v-331q-1 -39 7.5 -54t31.5 -15q34 0 100 51v349h120z" />
    <glyph glyph-name="v" unicode="v" horiz-adv-x="454" 
d="M448 490l-130 -461q-10 -29 -39 -29h-105q-30 0 -38 29l-130 461h127l71 -323q11 -51 17 -85h11q1 6 18 85l71 323h127z" />
    <glyph glyph-name="w" unicode="w" horiz-adv-x="683" 
d="M671 490l-97 -457q-6 -33 -42 -33h-101q-16 0 -29 10.5t-14 27.5l-33 301q-1 9 -2.5 25.5t-3 30t-3.5 25.5h-10l-9 -81l-32 -301q-2 -17 -15 -27.5t-30 -10.5h-98q-36 0 -42 33l-98 457h122l54 -337q9 -71 9 -77h10q7 44 11 77l33 301q1 16 13 26t29 10h97q17 0 29 -10
t13 -27l32 -300q1 -9 5.5 -35.5t5.5 -41.5h11q4 49 9 77l53 337h123z" />
    <glyph glyph-name="x" unicode="x" horiz-adv-x="453" 
d="M230 210h-6l-92 -210h-124l120 252l-111 238h123l82 -192h10l82 192h123l-111 -238l120 -252h-124z" />
    <glyph glyph-name="y" unicode="y" horiz-adv-x="453" 
d="M446 490l-139 -506q-23 -81 -77.5 -136.5t-143.5 -50.5l-10 76q48 17 76 44.5t43 71.5l4 11h-25q-32 0 -40 30l-128 460h128l73 -337q7 -31 12 -66h10q4 14 10 38.5t7 27.5l72 337h128z" />
    <glyph glyph-name="z" unicode="z" horiz-adv-x="424" 
d="M391 93v-93h-357v93l217 304h-214v93h350v-93l-217 -304h221z" />
    <glyph glyph-name="braceleft" unicode="{" horiz-adv-x="276" 
d="M247 768v-75q-36 0 -49 -15.5t-13 -56.5v-163q1 -64 -16.5 -92t-66.5 -38q49 -17 67 -44.5t19 -81.5v-221q0 -41 13 -56t49 -15v-75q-177 -21 -177 136v247q0 34 -8.5 44.5t-36.5 24.5v82q29 11 35.5 21t6.5 52v190q0 157 177 136z" />
    <glyph glyph-name="bar" unicode="|" horiz-adv-x="211" 
d="M148 -169h-85v950h85v-950z" />
    <glyph glyph-name="braceright" unicode="}" horiz-adv-x="277" 
d="M30 693v75q177 21 177 -136v-190q0 -42 6.5 -52t35.5 -21v-82q-21 -10 -27.5 -14.5t-12 -17.5t-5.5 -37v-247q0 -157 -177 -136v75q36 0 49 15t13 56v221q1 54 19 81.5t67 44.5q-49 10 -66.5 38.5t-16.5 91.5v163q0 41 -13 56.5t-49 15.5z" />
    <glyph glyph-name="asciitilde" unicode="~" horiz-adv-x="417" 
d="M117 357q26 -2 90 -27t75 -27q18 -3 23 7.5t5 41.5h56q9 -66 -10 -101t-55 -33q-27 1 -91 26t-75 27q-18 3 -23 -8t-5 -42h-55q-9 67 10.5 102.5t54.5 33.5z" />
    <glyph glyph-name="uni00A0" unicode="&#xa0;" horiz-adv-x="176" 
 />
    <glyph glyph-name="exclamdown" unicode="&#xa1;" horiz-adv-x="229" 
d="M101 501h28q24 0 33 -9.5t9 -33.5v-52q0 -24 -9 -33t-33 -9h-28q-24 0 -33 9t-9 33v52q0 24 9 33.5t33 9.5zM174 91v-281h-119v281l12 194h95z" />
    <glyph glyph-name="cent" unicode="&#xa2;" horiz-adv-x="419" 
d="M374 201l10 -80q-48 -24 -125 -29l-8 -92h-58l8 92q-93 7 -131.5 65.5t-38.5 191.5q0 142 45 200t155 58h11l8 83h59l-8 -89q46 -7 78 -22l-14 -79q-52 4 -73 4l-23 -313q64 2 105 10zM154 349q0 -73 13 -108t44 -45l21 308q-44 -5 -61 -39t-17 -116z" />
    <glyph glyph-name="sterling" unicode="&#xa3;" horiz-adv-x="472" 
d="M439 105v-105h-398v105q68 38 61 169l-3 56h-61l-1 67h58l-6 121q-5 110 34 147t131 37q73 0 167 -10l-6 -98q-53 3 -145 3q-35 0 -48 -17.5t-11 -65.5l7 -117h143l-3 -67h-135l3 -56q3 -64 -11.5 -101t-46.5 -74q20 6 61 6h210z" />
    <glyph glyph-name="currency" unicode="&#xa4;" horiz-adv-x="474" 
d="M401 351q0 -60 -29 -112l61 -72l-51 -51l-56 68q-42 -32 -90 -32t-88 32l-56 -67l-53 54l59 72q-26 50 -26 108q0 61 29 113l-59 72l50 51l55 -68q42 32 89 32q50 0 91 -33l56 69l50 -51l-60 -73q28 -50 28 -112zM236 223q38 0 66 38t28 91q0 54 -28 92t-66 38
q-39 0 -67 -38t-28 -92t28 -91.5t67 -37.5z" />
    <glyph glyph-name="yen" unicode="&#xa5;" horiz-adv-x="511" 
d="M354 333h101v-73h-131l-6 -16v-29h137v-72h-137v-143h-124v143h-134l-1 72h135v32l-5 13h-129l-2 73h100l-147 357h129l91 -261q2 -6 22 -83h8q9 48 21 83l90 261h128z" />
    <glyph glyph-name="brokenbar" unicode="&#xa6;" horiz-adv-x="212" 
d="M148 381h-84v400h84v-400zM148 -169h-84v400h84v-400z" />
    <glyph glyph-name="section" unicode="&#xa7;" horiz-adv-x="447" 
d="M219 703q85 0 181 -12l-8 -92q-55 5 -137 5q-48 0 -66.5 -7t-20.5 -37q-1 -27 10 -43t34 -34l109 -80q64 -39 79 -99t-9 -144h-84q2 63 -10 95.5t-51 58.5l-125 93q-19 15 -29.5 25.5t-24.5 29.5t-20.5 44t-6.5 58q0 82 42.5 110.5t136.5 28.5zM56 372h84
q-2 -63 10 -94.5t50 -58.5l126 -92q26 -22 39.5 -35.5t28 -47t14.5 -76.5q0 -84 -43 -112t-137 -28t-181 12l9 92q69 -6 137 -6q47 0 66 8t20 39q1 27 -9.5 44t-32.5 33l-109 79q-65 39 -80.5 98.5t8.5 144.5z" />
    <glyph glyph-name="dieresis" unicode="&#xa8;" horiz-adv-x="343" 
d="M80 703h39q28 0 28 -31v-55q0 -30 -28 -30h-39q-28 0 -28 30v55q0 31 28 31zM226 703h39q28 0 28 -31v-55q0 -30 -28 -30h-39q-28 0 -28 30v55q0 31 28 31z" />
    <glyph glyph-name="copyright" unicode="&#xa9;" horiz-adv-x="658" 
d="M329 703q124 0 208.5 -101.5t84.5 -256.5t-84.5 -256.5t-208.5 -101.5t-208.5 102t-84.5 256t84.5 256t208.5 102zM329 643q-97 0 -165 -85.5t-68 -212.5t68 -212.5t165 -85.5t164.5 85t67.5 213t-67.5 213t-164.5 85zM333 560q65 0 111 -14l-8 -68q-53 3 -104 3
q-39 0 -52 -28t-13 -106q0 -79 13 -106.5t52 -27.5q70 0 113 5l6 -68q-51 -17 -118 -17q-86 0 -122 48t-36 166q0 117 36 165t122 48z" />
    <glyph glyph-name="ordfeminine" unicode="&#xaa;" horiz-adv-x="354" 
d="M202 612q54 0 80.5 -27t26.5 -91v-220h-71l-8 51q-42 -59 -105 -59q-38 0 -62.5 23.5t-24.5 66.5v37q0 38 22.5 60t61.5 22h99v20q0 44 -40 44q-31 0 -121 -6l-8 63q80 16 150 16zM156 339q29 0 65 32v55l-68 -7q-17 -1 -23.5 -9.5t-6.5 -24.5v-10q0 -21 8 -28.5t25 -7.5
z" />
    <glyph glyph-name="guillemotleft" unicode="&#xab;" horiz-adv-x="421" 
d="M220 421l-84 -170l85 -174l-63 -41l-129 202v26l128 198zM388 421l-85 -170l85 -174l-63 -41l-129 202v26l128 198z" />
    <glyph glyph-name="logicalnot" unicode="&#xac;" horiz-adv-x="473" 
d="M421 344v-210h-90v121h-283v89h373z" />
    <glyph glyph-name="softhyphen" unicode="&#xad;" horiz-adv-x="334" 
d="M289 211h-242v86h242v-86z" />
    <glyph glyph-name="registered" unicode="&#xae;" horiz-adv-x="424" 
d="M213 702q74 0 126.5 -65t52.5 -157q0 -93 -52.5 -158t-126.5 -65q-76 0 -128.5 65t-52.5 158q0 92 52.5 157t128.5 65zM213 295q59 0 101 54.5t42 130.5q0 77 -42 131t-101 54q-60 0 -102.5 -54t-42.5 -131t42.5 -131t102.5 -54zM309 360h-54l-16 74q-5 23 -23 23h-33
v-97h-51v244q26 3 85 3q45 0 64.5 -15.5t19.5 -55.5q0 -53 -43 -60v-2q26 -4 32 -38zM183 494h33q20 1 27 8.5t7 28.5q0 22 -7 29t-27 7h-33v-73z" />
    <glyph glyph-name="macron" unicode="&#xaf;" horiz-adv-x="325" 
d="M284 601h-243v84h243v-84z" />
    <glyph glyph-name="degree" unicode="&#xb0;" horiz-adv-x="278" 
d="M139 703q45 0 78 -38t33 -91q0 -54 -33 -93t-78 -39t-77.5 39t-32.5 93q0 53 32 91t78 38zM139 636q-18 0 -30.5 -17.5t-12.5 -44.5q0 -28 12.5 -46t30.5 -18t30.5 18t12.5 46q0 27 -12.5 44.5t-30.5 17.5z" />
    <glyph glyph-name="plusminus" unicode="&#xb1;" 
d="M418 411v-90h-141v-125h-89v125h-140v90h140v125h90v-125h140zM48 144h370v-88h-370v88z" />
    <glyph glyph-name="twosuperior" unicode="&#xb2;" horiz-adv-x="349" 
d="M163 781q73 0 104.5 -20.5t31.5 -80.5q0 -54 -58 -130l-85 -111q18 4 48 4l105 -1v-82h-270v51q0 21 14 39l81 106q60 74 64 113q2 20 -8.5 26.5t-34.5 6.5q-49 0 -110 -5l-3 70q62 14 121 14z" />
    <glyph glyph-name="threesuperior" unicode="&#xb3;" horiz-adv-x="334" 
d="M164 782q70 0 97.5 -21t27.5 -75q0 -47 -13 -73t-49 -32v-2q40 -6 55 -31t16 -73q1 -66 -28.5 -94.5t-102.5 -28.5q-55 0 -130 11l3 69q60 -4 102 -4q36 0 49 12.5t13 47.5q0 26 -10 39.5t-40 13.5l-70 1v66h70q28 0 37 14.5t9 39.5q0 26 -10.5 35t-41.5 9q-47 0 -101 -2
l-3 67q64 11 120 11z" />
    <glyph glyph-name="acute" unicode="&#xb4;" horiz-adv-x="286" 
d="M260 642l-185 -112l-36 54l162 147z" />
    <glyph glyph-name="paragraph" unicode="&#xb6;" horiz-adv-x="485" 
d="M417 671v-671h-83v625q-32 2 -44 2v-837h-82v411q-99 11 -142 69t-43 180q0 138 59 195t198 57q83 0 138 -17z" />
    <glyph glyph-name="periodcentered" unicode="&#xb7;" horiz-adv-x="210" 
d="M88 326h35q23 0 32.5 -9t9.5 -34v-50q0 -25 -9.5 -34.5t-32.5 -9.5h-35q-24 0 -33 9.5t-9 34.5v50q0 25 9 34t33 9z" />
    <glyph glyph-name="cedilla" unicode="&#xb8;" horiz-adv-x="202" 
d="M52 -93l12 53q66 8 92.5 -4.5t24.5 -60.5q-2 -69 -48 -104.5t-113 -25.5l17 59q26 -1 45 16t20 45q1 14 -8.5 18t-41.5 4z" />
    <glyph glyph-name="onesuperior" unicode="&#xb9;" horiz-adv-x="247" 
d="M198 360h-92v288q0 30 3 46l-83 -25l-10 63l90 42h92v-414z" />
    <glyph glyph-name="ordmasculine" unicode="&#xba;" horiz-adv-x="356" 
d="M178 612q79 0 111 -39t32 -135q0 -95 -32 -133.5t-111 -38.5t-111.5 38.5t-32.5 133.5t32.5 134.5t111.5 39.5zM178 541q-30 0 -41 -21t-11 -82q0 -60 11 -81t41 -21t40.5 21t10.5 81q0 61 -10.5 82t-40.5 21z" />
    <glyph glyph-name="guillemotright" unicode="&#xbb;" horiz-adv-x="421" 
d="M224 264v-26l-129 -202l-63 41l85 174l-84 170l63 41zM392 264v-26l-129 -202l-63 41l85 174l-85 170l64 41z" />
    <glyph glyph-name="onequarter" unicode="&#xbc;" horiz-adv-x="726" 
d="M109 276v288q0 30 3 46l-81 -25l-11 63l89 42h91v-414h-91zM537 690l-336 -690h-78l336 690h78zM700 97l-40 -8v-89h-86v89h-139q-25 0 -37.5 19.5t0.5 50.5l89 255h86l-79 -237q-3 -7 0 -12.5t11 -5.5h69v109l16 66h70v-175h40v-62z" />
    <glyph glyph-name="onehalf" unicode="&#xbd;" horiz-adv-x="737" 
d="M200 276h-91v288q0 30 3 46l-81 -25l-11 63l89 42h91v-414zM195 0h-79l335 690h80zM560 421q72 0 103 -20.5t31 -80.5t-58 -133l-84 -108q19 4 49 4l104 -1v-82h-269v51q0 25 14 39l80 106q60 74 64 113q2 20 -8 26.5t-34 6.5q-50 0 -110 -5l-3 70q61 14 121 14z" />
    <glyph glyph-name="threequarters" unicode="&#xbe;" horiz-adv-x="796" 
d="M296 389q1 -66 -29 -94.5t-103 -28.5q-54 0 -129 11l3 69q60 -4 102 -4q36 0 48.5 12.5t12.5 46.5q0 27 -10 40.5t-39 13.5l-69 2v62l69 3q28 0 36 14t8 39q0 27 -9.5 36t-40.5 9q-48 0 -100 -2l-3 67q59 10 119 10q70 0 97 -20.5t27 -74.5q0 -48 -13 -73.5t-49 -31.5v-2
q40 -6 55.5 -31t16.5 -73zM613 690l-336 -690h-79l336 690h79zM771 97l-38 -7v-90h-86v89h-141q-24 0 -36.5 19.5t0.5 50.5l88 255h86l-79 -237q-5 -18 11 -18h71v109l15 66h71v-175h38v-62z" />
    <glyph glyph-name="questiondown" unicode="&#xbf;" horiz-adv-x="411" 
d="M203 505h27q24 0 33 -9.5t9 -33.5v-52q0 -24 -9 -33.5t-33 -9.5h-27q-24 0 -33.5 9.5t-9.5 33.5v52q0 24 9.5 33.5t33.5 9.5zM167 289h98q2 -50 -9 -92.5t-27.5 -71.5t-33.5 -53.5t-30 -50.5t-15 -51q-4 -76 73 -76q66 0 162 7l4 -85q-4 -1 -21 -5t-21 -4.5t-18.5 -3.5
t-21.5 -4t-21 -2.5t-26 -2t-29.5 -1t-36.5 -0.5q-87 0 -129.5 38t-42.5 117q0 41 14 75.5t34 60.5t41 53t37 66t19 86z" />
    <glyph glyph-name="Agrave" unicode="&#xc0;" horiz-adv-x="525" 
d="M283 724l-185 112l59 89l162 -147zM356 195h-187l-41 -195h-127l159 657q9 33 44 33h117q35 0 43 -33l160 -657h-127zM334 298l-49 238q-12 55 -12 59h-22q-1 -13 -11 -59l-50 -238h144z" />
    <glyph glyph-name="Aacute" unicode="&#xc1;" horiz-adv-x="525" 
d="M231 724l-36 54l162 147l59 -89zM356 195h-187l-41 -195h-127l159 657q9 33 44 33h117q35 0 43 -33l160 -657h-127zM334 298l-49 238q-12 55 -12 59h-22q-1 -13 -11 -59l-50 -238h144z" />
    <glyph glyph-name="Acircumflex" unicode="&#xc2;" horiz-adv-x="525" 
d="M149 723l-35 50l106 131h88l106 -132l-36 -49l-111 96h-6zM356 195h-187l-41 -195h-127l159 657q9 33 44 33h117q35 0 43 -33l160 -657h-127zM334 298l-49 238q-12 55 -12 59h-22q-1 -13 -11 -59l-50 -238h144z" />
    <glyph glyph-name="Atilde" unicode="&#xc3;" horiz-adv-x="525" 
d="M174 760h-52q-8 64 12.5 98.5t53.5 31.5q28 -3 69 -25t61 -25q19 -4 25 6.5t6 38.5h51q9 -62 -10.5 -97t-55.5 -32q-30 3 -72 26.5t-58 25.5q-19 4 -24.5 -7t-5.5 -41zM356 195h-187l-41 -195h-127l159 657q9 33 44 33h117q35 0 43 -33l160 -657h-127zM334 298l-49 238
q-12 55 -12 59h-22q-1 -13 -11 -59l-50 -238h144z" />
    <glyph glyph-name="Adieresis" unicode="&#xc4;" horiz-adv-x="525" 
d="M209 763h-39q-28 0 -28 30v55q0 31 28 31h39q28 0 28 -31v-55q0 -30 -28 -30zM355 763h-39q-28 0 -28 30v55q0 31 28 31h39q28 0 28 -31v-55q0 -30 -28 -30zM356 195h-187l-41 -195h-127l159 657q9 33 44 33h117q35 0 43 -33l160 -657h-127zM334 298l-49 238
q-12 55 -12 59h-22q-1 -13 -11 -59l-50 -238h144z" />
    <glyph glyph-name="Aring" unicode="&#xc5;" horiz-adv-x="525" 
d="M263 713q-40 0 -68 31.5t-28 78.5t28.5 79.5t67.5 32.5t67.5 -32.5t28.5 -79.5t-28 -78.5t-68 -31.5zM263 878q-17 0 -28 -15t-11 -40q0 -24 11.5 -38.5t27.5 -14.5q17 0 28 14.5t11 38.5q0 25 -11 40t-28 15zM356 195h-187l-41 -195h-127l159 657q9 33 44 33h117
q35 0 43 -33l160 -657h-127zM334 298l-49 238q-12 55 -12 59h-22q-1 -13 -11 -59l-50 -238h144z" />
    <glyph glyph-name="AE" unicode="&#xc6;" horiz-adv-x="752" 
d="M712 102l7 -96q-81 -8 -257 -8q-48 0 -76.5 36.5t-28.5 94.5v73h-160l-79 -202h-128l234 568q30 72 77.5 97.5t156.5 25.5q162 0 261 -7l-7 -97h-196q-20 0 -31.5 -16.5t-11.5 -44.5v-116h210v-97h-210v-153q0 -32 9.5 -45t33.5 -13h196zM357 301v240q0 45 18 68h-9
q-14 -13 -32 -56l-98 -252h121z" />
    <glyph glyph-name="Ccedilla" unicode="&#xc7;" horiz-adv-x="474" 
d="M272 702q97 0 167 -22l-11 -95q-73 7 -156 7q-60 0 -81.5 -52.5t-21.5 -194.5t21.5 -194.5t81.5 -52.5q107 0 168 10l10 -94q-71 -26 -178 -26q-129 0 -181.5 80t-52.5 277t52.5 277t181.5 80zM203 -108l12 53q66 8 92.5 -4.5t24.5 -60.5q-2 -69 -48 -104.5t-113 -25.5
l17 59q26 -1 45 16t20 45q1 14 -8.5 18t-41.5 4z" />
    <glyph glyph-name="Egrave" unicode="&#xc8;" 
d="M274 741l-185 112l59 89l162 -147zM427 101l6 -95q-75 -8 -253 -8q-59 0 -93 35t-35 96v432q1 61 35 96t93 35q178 0 253 -8l-6 -96h-215q-20 0 -27 -12.5t-7 -45.5v-121h219v-96h-219v-154q0 -33 7 -45.5t27 -12.5h215z" />
    <glyph glyph-name="Eacute" unicode="&#xc9;" 
d="M222 741l-36 54l162 147l59 -89zM427 101l6 -95q-75 -8 -253 -8q-59 0 -93 35t-35 96v432q1 61 35 96t93 35q178 0 253 -8l-6 -96h-215q-20 0 -27 -12.5t-7 -45.5v-121h219v-96h-219v-154q0 -33 7 -45.5t27 -12.5h215z" />
    <glyph glyph-name="Ecircumflex" unicode="&#xca;" 
d="M140 739l-35 50l106 131h88l106 -132l-36 -49l-111 96h-6zM427 101l6 -95q-75 -8 -253 -8q-59 0 -93 35t-35 96v432q1 61 35 96t93 35q178 0 253 -8l-6 -96h-215q-20 0 -27 -12.5t-7 -45.5v-121h219v-96h-219v-154q0 -33 7 -45.5t27 -12.5h215z" />
    <glyph glyph-name="Edieresis" unicode="&#xcb;" 
d="M200 780h-39q-28 0 -28 30v55q0 31 28 31h39q28 0 28 -31v-55q0 -30 -28 -30zM346 780h-39q-28 0 -28 30v55q0 31 28 31h39q28 0 28 -31v-55q0 -30 -28 -30zM427 101l6 -95q-75 -8 -253 -8q-59 0 -93 35t-35 96v432q1 61 35 96t93 35q178 0 253 -8l-6 -96h-215
q-20 0 -27 -12.5t-7 -45.5v-121h219v-96h-219v-154q0 -33 7 -45.5t27 -12.5h215z" />
    <glyph glyph-name="Igrave" unicode="&#xcc;" horiz-adv-x="238" 
d="M175 778l-36 -54l-185 112l59 89zM181 0h-124v690h124v-690z" />
    <glyph glyph-name="Iacute" unicode="&#xcd;" horiz-adv-x="238" 
d="M272 836l-185 -112l-36 54l162 147zM181 0h-124v690h124v-690z" />
    <glyph glyph-name="Icircumflex" unicode="&#xce;" horiz-adv-x="238" 
d="M270 772l-36 -49l-111 96h-6l-112 -96l-35 50l106 131h88zM181 0h-124v690h124v-690z" />
    <glyph glyph-name="Idieresis" unicode="&#xcf;" horiz-adv-x="238" 
d="M26 879h39q28 0 28 -31v-55q0 -30 -28 -30h-39q-28 0 -28 30v55q0 31 28 31zM172 879h39q28 0 28 -31v-55q0 -30 -28 -30h-39q-28 0 -28 30v55q0 31 28 31zM181 0h-124v690h124v-690z" />
    <glyph glyph-name="Eth" unicode="&#xd0;" horiz-adv-x="551" 
d="M277 699q132 0 184.5 -76.5t52.5 -277.5t-52.5 -277.5t-184.5 -76.5q-103 0 -216 9v331h-47v66h47v293q115 9 216 9zM277 96q61 0 83.5 53t22.5 196t-22.5 196.5t-83.5 53.5q-18 0 -48.5 -0.5t-43.5 -0.5v-197h98v-66h-98v-234q28 -1 92 -1z" />
    <glyph glyph-name="Ntilde" unicode="&#xd1;" horiz-adv-x="586" 
d="M220 890q28 -3 69 -25t61 -25q19 -4 25 6.5t6 38.5h51q9 -62 -10.5 -97t-55.5 -32q-30 3 -72 26.5t-58 25.5q-19 4 -24.5 -7t-5.5 -41h-52q-8 64 12.5 98.5t53.5 31.5zM529 690v-644q0 -46 -44 -46h-103q-39 0 -50 38l-118 414q-5 16 -30 109h-8q2 -72 2 -110v-451h-121
v644q0 46 44 46h103q39 0 50 -38l115 -403l32 -115h9q-1 41 -1 119v437h120z" />
    <glyph glyph-name="Ograve" unicode="&#xd2;" horiz-adv-x="552" 
d="M330 778l-36 -54l-185 112l59 89zM276 703q133 0 185.5 -77t52.5 -281t-52.5 -281t-185.5 -77t-185.5 77t-52.5 281t52.5 281t185.5 77zM276 596q-61 0 -84 -53.5t-23 -197.5t23 -197.5t84 -53.5q62 0 84.5 53t22.5 198t-22.5 198t-84.5 53z" />
    <glyph glyph-name="Oacute" unicode="&#xd3;" horiz-adv-x="552" 
d="M428 836l-185 -112l-36 54l162 147zM276 703q133 0 185.5 -77t52.5 -281t-52.5 -281t-185.5 -77t-185.5 77t-52.5 281t52.5 281t185.5 77zM276 596q-61 0 -84 -53.5t-23 -197.5t23 -197.5t84 -53.5q62 0 84.5 53t22.5 198t-22.5 198t-84.5 53z" />
    <glyph glyph-name="Ocircumflex" unicode="&#xd4;" horiz-adv-x="552" 
d="M425 772l-36 -49l-111 96h-6l-112 -96l-35 50l106 131h88zM276 703q133 0 185.5 -77t52.5 -281t-52.5 -281t-185.5 -77t-185.5 77t-52.5 281t52.5 281t185.5 77zM276 596q-61 0 -84 -53.5t-23 -197.5t23 -197.5t84 -53.5q62 0 84.5 53t22.5 198t-22.5 198t-84.5 53z" />
    <glyph glyph-name="Otilde" unicode="&#xd5;" horiz-adv-x="552" 
d="M200 890q28 -3 69 -25t61 -25q19 -4 25 6.5t6 38.5h51q9 -62 -10.5 -97t-55.5 -32q-30 3 -72 26.5t-58 25.5q-19 4 -24.5 -7t-5.5 -41h-52q-8 64 12.5 98.5t53.5 31.5zM276 703q133 0 185.5 -77t52.5 -281t-52.5 -281t-185.5 -77t-185.5 77t-52.5 281t52.5 281t185.5 77z
M276 596q-61 0 -84 -53.5t-23 -197.5t23 -197.5t84 -53.5q62 0 84.5 53t22.5 198t-22.5 198t-84.5 53z" />
    <glyph glyph-name="Odieresis" unicode="&#xd6;" horiz-adv-x="552" 
d="M182 879h39q28 0 28 -31v-55q0 -30 -28 -30h-39q-28 0 -28 30v55q0 31 28 31zM328 879h39q28 0 28 -31v-55q0 -30 -28 -30h-39q-28 0 -28 30v55q0 31 28 31zM276 703q133 0 185.5 -77t52.5 -281t-52.5 -281t-185.5 -77t-185.5 77t-52.5 281t52.5 281t185.5 77zM276 596
q-61 0 -84 -53.5t-23 -197.5t23 -197.5t84 -53.5q62 0 84.5 53t22.5 198t-22.5 198t-84.5 53z" />
    <glyph glyph-name="multiply" unicode="&#xd7;" horiz-adv-x="396" 
d="M260 291l115 -127l-57 -70l-118 130l-119 -130l-57 70l115 127l-115 126l57 70l119 -130l118 130l57 -70z" />
    <glyph glyph-name="Oslash" unicode="&#xd8;" horiz-adv-x="551" 
d="M455 729l-26 -68q45 -36 65 -111t20 -205q0 -204 -52.5 -281t-185.5 -77q-58 0 -98 13l-23 -62l-58 25l25 66q-45 36 -64.5 111.5t-19.5 204.5q0 204 52.5 281t185.5 77q58 0 98 -13l24 63zM169 345q0 -111 12 -162l151 398q-21 15 -56 15q-61 0 -84 -53.5t-23 -197.5z
M276 94q62 0 84.5 53t22.5 198q0 112 -12 163l-151 -399q22 -15 56 -15z" />
    <glyph glyph-name="Ugrave" unicode="&#xd9;" horiz-adv-x="548" 
d="M330 778l-36 -54l-185 112l59 89zM495 690v-420q0 -155 -48.5 -219t-166.5 -64q-125 0 -176 64t-51 219v420h124v-420q0 -100 21 -138t76 -38q54 0 75.5 38.5t21.5 137.5v420h124z" />
    <glyph glyph-name="Uacute" unicode="&#xda;" horiz-adv-x="548" 
d="M428 836l-185 -112l-36 54l162 147zM495 690v-420q0 -155 -48.5 -219t-166.5 -64q-125 0 -176 64t-51 219v420h124v-420q0 -100 21 -138t76 -38q54 0 75.5 38.5t21.5 137.5v420h124z" />
    <glyph glyph-name="Ucircumflex" unicode="&#xdb;" horiz-adv-x="548" 
d="M425 772l-36 -49l-111 96h-6l-112 -96l-35 50l106 131h88zM495 690v-420q0 -155 -48.5 -219t-166.5 -64q-125 0 -176 64t-51 219v420h124v-420q0 -100 21 -138t76 -38q54 0 75.5 38.5t21.5 137.5v420h124z" />
    <glyph glyph-name="Udieresis" unicode="&#xdc;" horiz-adv-x="548" 
d="M182 879h39q28 0 28 -31v-55q0 -30 -28 -30h-39q-28 0 -28 30v55q0 31 28 31zM328 879h39q28 0 28 -31v-55q0 -30 -28 -30h-39q-28 0 -28 30v55q0 31 28 31zM495 690v-420q0 -155 -48.5 -219t-166.5 -64q-125 0 -176 64t-51 219v420h124v-420q0 -100 21 -138t76 -38
q54 0 75.5 38.5t21.5 137.5v420h124z" />
    <glyph glyph-name="Yacute" unicode="&#xdd;" horiz-adv-x="490" 
d="M212 724l-36 54l162 147l59 -89zM307 233v-233h-124v235l-183 455h130l91 -268q9 -26 20 -83h8q11 57 21 83l90 268h129z" />
    <glyph glyph-name="Thorn" unicode="&#xde;" horiz-adv-x="492" 
d="M182 572l84 1q115 0 157.5 -47t42.5 -179q0 -130 -40 -177t-144 -47q-54 0 -100 6v-129h-125v690h125v-118zM182 226h81q46 0 62.5 24t16.5 97t-16.5 98t-62.5 25h-81v-244z" />
    <glyph glyph-name="germandbls" unicode="&#xdf;" horiz-adv-x="571" 
d="M425 309l62 -47q38 -26 51.5 -53t13.5 -79q0 -81 -34.5 -111t-121.5 -30q-60 0 -133 11l8 87q51 -3 97 -3q40 0 53 8.5t13 42.5q0 23 -10.5 35t-42.5 34l-60 46q-61 43 -61 116q0 24 8 45t14 30t27.5 30.5t25.5 26.5q22 24 30 40.5t8 39.5q0 20 -3.5 29.5t-21.5 17
t-56 7.5q-52 0 -69 -19t-17 -77v-536h-120v401h-71v89h71v59q0 107 45.5 142.5t155.5 35.5q115 0 156.5 -31t41.5 -113q0 -37 -10.5 -65.5t-44.5 -64.5q-6 -6 -16 -15.5t-14 -13.5t-10 -11.5t-8.5 -13t-4.5 -13t-2 -16.5q0 -13 7 -24t14.5 -16.5t28.5 -20.5z" />
    <glyph glyph-name="agrave" unicode="&#xe0;" horiz-adv-x="458" 
d="M246 544l-185 112l59 89l162 -147zM252 504q83 0 121.5 -38t38.5 -133v-333h-95l-11 67q-57 -78 -145 -78q-58 0 -95 37.5t-37 104.5v50q0 58 32.5 90.5t91.5 32.5h139v30q-1 42 -15 56t-53 14q-57 0 -164 -10l-11 86q107 24 203 24zM193 87q48 0 99 50v84h-107
q-20 -1 -27.5 -14.5t-7.5 -40.5v-19q0 -32 10 -46t33 -14z" />
    <glyph glyph-name="aacute" unicode="&#xe1;" horiz-adv-x="458" 
d="M194 544l-36 54l162 147l59 -89zM252 504q83 0 121.5 -38t38.5 -133v-333h-95l-11 67q-57 -78 -145 -78q-58 0 -95 37.5t-37 104.5v50q0 58 32.5 90.5t91.5 32.5h139v30q-1 42 -15 56t-53 14q-57 0 -164 -10l-11 86q107 24 203 24zM193 87q48 0 99 50v84h-107
q-20 -1 -27.5 -14.5t-7.5 -40.5v-19q0 -32 10 -46t33 -14z" />
    <glyph glyph-name="acircumflex" unicode="&#xe2;" horiz-adv-x="458" 
d="M112 543l-35 50l106 131h88l106 -132l-36 -49l-111 96h-6zM252 504q83 0 121.5 -38t38.5 -133v-333h-95l-11 67q-57 -78 -145 -78q-58 0 -95 37.5t-37 104.5v50q0 58 32.5 90.5t91.5 32.5h139v30q-1 42 -15 56t-53 14q-57 0 -164 -10l-11 86q107 24 203 24zM193 87
q48 0 99 50v84h-107q-20 -1 -27.5 -14.5t-7.5 -40.5v-19q0 -32 10 -46t33 -14z" />
    <glyph glyph-name="atilde" unicode="&#xe3;" horiz-adv-x="458" 
d="M138 580h-52q-8 64 12.5 98.5t53.5 31.5q28 -3 69 -25t61 -25q19 -4 25 6.5t6 38.5h51q9 -62 -10.5 -97t-55.5 -32q-30 3 -72 26.5t-58 25.5q-19 4 -24.5 -7t-5.5 -41zM252 504q83 0 121.5 -38t38.5 -133v-333h-95l-11 67q-57 -78 -145 -78q-58 0 -95 37.5t-37 104.5v50
q0 58 32.5 90.5t91.5 32.5h139v30q-1 42 -15 56t-53 14q-57 0 -164 -10l-11 86q107 24 203 24zM193 87q48 0 99 50v84h-107q-20 -1 -27.5 -14.5t-7.5 -40.5v-19q0 -32 10 -46t33 -14z" />
    <glyph glyph-name="adieresis" unicode="&#xe4;" horiz-adv-x="458" 
d="M173 583h-39q-28 0 -28 30v55q0 31 28 31h39q28 0 28 -31v-55q0 -30 -28 -30zM319 583h-39q-28 0 -28 30v55q0 31 28 31h39q28 0 28 -31v-55q0 -30 -28 -30zM252 504q83 0 121.5 -38t38.5 -133v-333h-95l-11 67q-57 -78 -145 -78q-58 0 -95 37.5t-37 104.5v50
q0 58 32.5 90.5t91.5 32.5h139v30q-1 42 -15 56t-53 14q-57 0 -164 -10l-11 86q107 24 203 24zM193 87q48 0 99 50v84h-107q-20 -1 -27.5 -14.5t-7.5 -40.5v-19q0 -32 10 -46t33 -14z" />
    <glyph glyph-name="aring" unicode="&#xe5;" horiz-adv-x="458" 
d="M226 533q-40 0 -68 31.5t-28 78.5t28.5 79.5t67.5 32.5t67.5 -32.5t28.5 -79.5t-28 -78.5t-68 -31.5zM226 698q-17 0 -28 -15t-11 -40q0 -24 11.5 -38.5t27.5 -14.5q17 0 28 14.5t11 38.5q0 25 -11 40t-28 15zM252 504q83 0 121.5 -38t38.5 -133v-333h-95l-11 67
q-57 -78 -145 -78q-58 0 -95 37.5t-37 104.5v50q0 58 32.5 90.5t91.5 32.5h139v30q-1 42 -15 56t-53 14q-57 0 -164 -10l-11 86q107 24 203 24zM193 87q48 0 99 50v84h-107q-20 -1 -27.5 -14.5t-7.5 -40.5v-19q0 -32 10 -46t33 -14z" />
    <glyph glyph-name="ae" unicode="&#xe6;" horiz-adv-x="706" 
d="M509 88q63 0 146 11l11 -78q-62 -33 -172 -33q-139 0 -180 94q-57 -93 -154 -93q-58 0 -94.5 37.5t-36.5 104.5v50q0 58 32.5 90.5t90.5 32.5h138v30q0 42 -14 56t-53 14q-58 0 -163 -10l-11 86q107 24 202 24q75 0 113 -31q44 31 125 31q99 0 143.5 -42.5t43.5 -127.5
q2 -140 -109 -140h-152q4 -64 24.5 -85t69.5 -21zM493 408q-46 0 -62.5 -26t-17.5 -103h119q26 0 26 57q1 40 -13 56t-52 16zM193 87q51 0 103 59q-5 30 -7 75h-105q-34 -2 -34 -55v-19q0 -32 10 -46t33 -14z" />
    <glyph glyph-name="ccedilla" unicode="&#xe7;" horiz-adv-x="408" 
d="M232 504q89 0 148 -28l-14 -76q-86 2 -113 2q-54 0 -74 -32.5t-20 -123.5q0 -92 20 -125t74 -33q65 0 122 10l10 -80q-61 -30 -154 -30q-110 0 -154.5 58t-44.5 200t45 200t155 58zM164 -106l12 53q66 8 92.5 -4.5t24.5 -60.5q-2 -69 -48 -104.5t-113 -25.5l17 59
q26 -1 45 16t20 45q1 14 -8.5 18t-41.5 4z" />
    <glyph glyph-name="egrave" unicode="&#xe8;" horiz-adv-x="450" 
d="M249 544l-185 112l59 89l162 -147zM253 88q63 0 148 11l10 -78q-62 -33 -173 -33q-112 0 -159 59t-47 199q0 143 46.5 200.5t154.5 57.5q100 0 144.5 -42t44.5 -128q0 -140 -116 -140h-146q4 -64 24.5 -85t68.5 -21zM238 408q-45 0 -62 -26t-18 -103h114q13 0 20.5 10
t8.5 20t1 27q1 40 -12.5 56t-51.5 16z" />
    <glyph glyph-name="eacute" unicode="&#xe9;" horiz-adv-x="450" 
d="M197 544l-36 54l162 147l59 -89zM253 88q63 0 148 11l10 -78q-62 -33 -173 -33q-112 0 -159 59t-47 199q0 143 46.5 200.5t154.5 57.5q100 0 144.5 -42t44.5 -128q0 -140 -116 -140h-146q4 -64 24.5 -85t68.5 -21zM238 408q-45 0 -62 -26t-18 -103h114q13 0 20.5 10
t8.5 20t1 27q1 40 -12.5 56t-51.5 16z" />
    <glyph glyph-name="ecircumflex" unicode="&#xea;" horiz-adv-x="450" 
d="M115 543l-35 50l106 131h88l106 -132l-36 -49l-111 96h-6zM253 88q63 0 148 11l10 -78q-62 -33 -173 -33q-112 0 -159 59t-47 199q0 143 46.5 200.5t154.5 57.5q100 0 144.5 -42t44.5 -128q0 -140 -116 -140h-146q4 -64 24.5 -85t68.5 -21zM238 408q-45 0 -62 -26
t-18 -103h114q13 0 20.5 10t8.5 20t1 27q1 40 -12.5 56t-51.5 16z" />
    <glyph glyph-name="edieresis" unicode="&#xeb;" horiz-adv-x="450" 
d="M176 583h-39q-28 0 -28 30v55q0 31 28 31h39q28 0 28 -31v-55q0 -30 -28 -30zM322 583h-39q-28 0 -28 30v55q0 31 28 31h39q28 0 28 -31v-55q0 -30 -28 -30zM253 88q63 0 148 11l10 -78q-62 -33 -173 -33q-112 0 -159 59t-47 199q0 143 46.5 200.5t154.5 57.5
q100 0 144.5 -42t44.5 -128q0 -140 -116 -140h-146q4 -64 24.5 -85t68.5 -21zM238 408q-45 0 -62 -26t-18 -103h114q13 0 20.5 10t8.5 20t1 27q1 40 -12.5 56t-51.5 16z" />
    <glyph glyph-name="igrave" unicode="&#xec;" horiz-adv-x="227" 
d="M169 598l-36 -54l-185 112l59 89zM174 0h-121v490h121v-490z" />
    <glyph glyph-name="iacute" unicode="&#xed;" horiz-adv-x="227" 
d="M267 656l-185 -112l-36 54l162 147zM174 0h-121v490h121v-490z" />
    <glyph glyph-name="icircumflex" unicode="&#xee;" horiz-adv-x="227" 
d="M264 592l-36 -49l-111 96h-6l-112 -96l-35 50l106 131h88zM174 0h-121v490h121v-490z" />
    <glyph glyph-name="idieresis" unicode="&#xef;" horiz-adv-x="227" 
d="M21 699h39q28 0 28 -31v-55q0 -30 -28 -30h-39q-28 0 -28 30v55q0 31 28 31zM167 699h39q28 0 28 -31v-55q0 -30 -28 -30h-39q-28 0 -28 30v55q0 31 28 31zM174 0h-121v490h121v-490z" />
    <glyph glyph-name="eth" unicode="&#xf0;" horiz-adv-x="471" 
d="M373 671l-47 -45q106 -103 106 -341q0 -150 -45.5 -224t-155.5 -74q-102 0 -150 55t-48 175q0 117 40 175t133 58q50 0 91 -19q-13 81 -45 124l-58 -55l-40 50l48 46q-42 20 -111 17l12 85q100 6 171 -33l59 57zM232 84q46 0 60.5 45.5t14.5 158.5q0 39 -1 57
q-37 8 -75 8q-40 0 -56 -31.5t-16 -102.5q0 -76 16.5 -105.5t56.5 -29.5z" />
    <glyph glyph-name="ntilde" unicode="&#xf1;" horiz-adv-x="484" 
d="M160 580h-52q-8 64 12.5 98.5t53.5 31.5q28 -3 69 -25t61 -25q19 -4 25 6.5t6 38.5h51q9 -62 -10.5 -97t-55.5 -32q-30 3 -72 26.5t-58 25.5q-19 4 -24.5 -7t-5.5 -41zM326 504q54 0 82.5 -35t28.5 -101v-368h-120v331q0 41 -7 55.5t-26 14.5q-38 0 -115 -58l1 -343h-121
v490h100l8 -72q88 86 169 86z" />
    <glyph glyph-name="ograve" unicode="&#xf2;" horiz-adv-x="473" 
d="M292 598l-36 -54l-185 112l59 89zM236 504q112 0 158.5 -59t46.5 -200t-46.5 -199.5t-158.5 -58.5q-111 0 -157.5 58.5t-46.5 199.5t46.5 200t157.5 59zM237 407q-46 0 -62 -33t-16 -129q0 -95 16 -128t62 -33t62 33t16 128q0 96 -16 129t-62 33z" />
    <glyph glyph-name="oacute" unicode="&#xf3;" horiz-adv-x="473" 
d="M389 656l-185 -112l-36 54l162 147zM236 504q112 0 158.5 -59t46.5 -200t-46.5 -199.5t-158.5 -58.5q-111 0 -157.5 58.5t-46.5 199.5t46.5 200t157.5 59zM237 407q-46 0 -62 -33t-16 -129q0 -95 16 -128t62 -33t62 33t16 128q0 96 -16 129t-62 33z" />
    <glyph glyph-name="ocircumflex" unicode="&#xf4;" horiz-adv-x="473" 
d="M387 592l-36 -49l-111 96h-6l-112 -96l-35 50l106 131h88zM236 504q112 0 158.5 -59t46.5 -200t-46.5 -199.5t-158.5 -58.5q-111 0 -157.5 58.5t-46.5 199.5t46.5 200t157.5 59zM237 407q-46 0 -62 -33t-16 -129q0 -95 16 -128t62 -33t62 33t16 128q0 96 -16 129t-62 33z
" />
    <glyph glyph-name="otilde" unicode="&#xf5;" horiz-adv-x="473" 
d="M161 710q28 -3 69 -25t61 -25q19 -4 25 6.5t6 38.5h51q9 -62 -10.5 -97t-55.5 -32q-30 3 -72 26.5t-58 25.5q-19 4 -24.5 -7t-5.5 -41h-52q-8 64 12.5 98.5t53.5 31.5zM236 504q112 0 158.5 -59t46.5 -200t-46.5 -199.5t-158.5 -58.5q-111 0 -157.5 58.5t-46.5 199.5
t46.5 200t157.5 59zM237 407q-46 0 -62 -33t-16 -129q0 -95 16 -128t62 -33t62 33t16 128q0 96 -16 129t-62 33z" />
    <glyph glyph-name="odieresis" unicode="&#xf6;" horiz-adv-x="473" 
d="M143 699h39q28 0 28 -31v-55q0 -30 -28 -30h-39q-28 0 -28 30v55q0 31 28 31zM289 699h39q28 0 28 -31v-55q0 -30 -28 -30h-39q-28 0 -28 30v55q0 31 28 31zM236 504q112 0 158.5 -59t46.5 -200t-46.5 -199.5t-158.5 -58.5q-111 0 -157.5 58.5t-46.5 199.5t46.5 200
t157.5 59zM237 407q-46 0 -62 -33t-16 -129q0 -95 16 -128t62 -33t62 33t16 128q0 96 -16 129t-62 33z" />
    <glyph glyph-name="divide" unicode="&#xf7;" horiz-adv-x="448" 
d="M209 539h29q24 0 33 -9.5t9 -34.5v-41q0 -25 -9 -34t-33 -9h-29q-25 0 -34 9t-9 34v41q0 25 9 34.5t34 9.5zM411 250h-373v88h373v-88zM209 176h29q24 0 33 -9.5t9 -34.5v-40q0 -25 -9 -34.5t-33 -9.5h-29q-25 0 -34 9.5t-9 34.5v40q0 25 9 34.5t34 9.5z" />
    <glyph glyph-name="oslash" unicode="&#xf8;" horiz-adv-x="473" 
d="M380 544l-25 -65q86 -49 86 -234q0 -141 -46.5 -199.5t-158.5 -58.5q-37 0 -67 6l-28 -74l-50 24l26 69q-45 26 -65 82t-20 151q0 141 46.5 200t157.5 59q37 0 67 -6l27 71zM159 245q0 -71 8 -104l100 262q-12 4 -30 4q-46 0 -62 -33t-16 -129zM237 84q46 0 62 33t16 128
q0 74 -8 107l-101 -264q12 -4 31 -4z" />
    <glyph glyph-name="ugrave" unicode="&#xf9;" horiz-adv-x="476" 
d="M259 550l-185 112l59 89l162 -147zM427 490v-490h-96l-9 64q-83 -77 -163 -77q-112 0 -112 136v367h121v-331q-1 -39 7.5 -54t31.5 -15q34 0 100 51v349h120z" />
    <glyph glyph-name="uacute" unicode="&#xfa;" horiz-adv-x="476" 
d="M208 550l-36 54l162 147l59 -89zM427 490v-490h-96l-9 64q-83 -77 -163 -77q-112 0 -112 136v367h121v-331q-1 -39 7.5 -54t31.5 -15q34 0 100 51v349h120z" />
    <glyph glyph-name="ucircumflex" unicode="&#xfb;" horiz-adv-x="476" 
d="M125 548l-35 50l106 131h88l106 -132l-36 -49l-111 96h-6zM427 490v-490h-96l-9 64q-83 -77 -163 -77q-112 0 -112 136v367h121v-331q-1 -39 7.5 -54t31.5 -15q34 0 100 51v349h120z" />
    <glyph glyph-name="udieresis" unicode="&#xfc;" horiz-adv-x="476" 
d="M186 589h-39q-28 0 -28 30v55q0 31 28 31h39q28 0 28 -31v-55q0 -30 -28 -30zM332 589h-39q-28 0 -28 30v55q0 31 28 31h39q28 0 28 -31v-55q0 -30 -28 -30zM427 490v-490h-96l-9 64q-83 -77 -163 -77q-112 0 -112 136v367h121v-331q-1 -39 7.5 -54t31.5 -15q34 0 100 51
v349h120z" />
    <glyph glyph-name="yacute" unicode="&#xfd;" horiz-adv-x="453" 
d="M196 544l-36 54l162 147l59 -89zM446 490l-139 -506q-23 -81 -77.5 -136.5t-143.5 -50.5l-10 76q48 17 76 44.5t43 71.5l4 11h-25q-32 0 -40 30l-128 460h128l73 -337q7 -31 12 -66h10q4 14 10 38.5t7 27.5l72 337h128z" />
    <glyph glyph-name="thorn" unicode="&#xfe;" horiz-adv-x="478" 
d="M301 502q78 0 111.5 -62.5t33.5 -198.5q0 -141 -35.5 -197.5t-113.5 -56.5q-74 0 -130 36q3 -44 3 -89v-129h-121v895h121v-149q0 -53 -3 -102q55 53 134 53zM252 81q39 0 54.5 33.5t15.5 126.5q0 94 -15 128.5t-51 34.5q-40 0 -86 -54v-242q49 -27 82 -27z" />
    <glyph glyph-name="ydieresis" unicode="&#xff;" horiz-adv-x="453" 
d="M174 583h-39q-28 0 -28 30v55q0 31 28 31h39q28 0 28 -31v-55q0 -30 -28 -30zM320 583h-39q-28 0 -28 30v55q0 31 28 31h39q28 0 28 -31v-55q0 -30 -28 -30zM446 490l-139 -506q-23 -81 -77.5 -136.5t-143.5 -50.5l-10 76q48 17 76 44.5t43 71.5l4 11h-25q-32 0 -40 30
l-128 460h128l73 -337q7 -31 12 -66h10q4 14 10 38.5t7 27.5l72 337h128z" />
    <glyph glyph-name="Amacron" unicode="&#x100;" horiz-adv-x="525" 
d="M385 778h-243v84h243v-84zM356 195h-187l-41 -195h-127l159 657q9 33 44 33h117q35 0 43 -33l160 -657h-127zM334 298l-49 238q-12 55 -12 59h-22q-1 -13 -11 -59l-50 -238h144z" />
    <glyph glyph-name="amacron" unicode="&#x101;" horiz-adv-x="458" 
d="M348 598h-243v84h243v-84zM252 504q83 0 121.5 -38t38.5 -133v-333h-95l-11 67q-57 -78 -145 -78q-58 0 -95 37.5t-37 104.5v50q0 58 32.5 90.5t91.5 32.5h139v30q-1 42 -15 56t-53 14q-57 0 -164 -10l-11 86q107 24 203 24zM193 87q48 0 99 50v84h-107
q-20 -1 -27.5 -14.5t-7.5 -40.5v-19q0 -32 10 -46t33 -14z" />
    <glyph glyph-name="Abreve" unicode="&#x102;" horiz-adv-x="525" 
d="M263 741q-66 0 -103 40.5t-31 102.5l57 8q0 -66 77 -66q75 0 75 66l57 -8q7 -61 -30 -102t-102 -41zM356 195h-187l-41 -195h-127l159 657q9 33 44 33h117q35 0 43 -33l160 -657h-127zM334 298l-49 238q-12 55 -12 59h-22q-1 -13 -11 -59l-50 -238h144z" />
    <glyph glyph-name="abreve" unicode="&#x103;" horiz-adv-x="458" 
d="M226 561q-66 0 -103 40.5t-31 102.5l57 8q0 -66 77 -66q75 0 75 66l57 -8q7 -61 -30 -102t-102 -41zM252 504q83 0 121.5 -38t38.5 -133v-333h-95l-11 67q-57 -78 -145 -78q-58 0 -95 37.5t-37 104.5v50q0 58 32.5 90.5t91.5 32.5h139v30q-1 42 -15 56t-53 14
q-57 0 -164 -10l-11 86q107 24 203 24zM193 87q48 0 99 50v84h-107q-20 -1 -27.5 -14.5t-7.5 -40.5v-19q0 -32 10 -46t33 -14z" />
    <glyph glyph-name="Aogonek" unicode="&#x104;" horiz-adv-x="525" 
d="M526 -145l12 -48q-60 -27 -95 -19.5t-47 34.5t-2 64q19 61 80 114h-77l-41 195h-187l-41 -195h-127l159 657q9 33 44 33h117q35 0 43 -33l160 -657q-31 -52 -49 -106q-11 -32 5 -42.5t46 3.5zM334 298l-49 238q-12 55 -12 59h-22q-1 -13 -11 -59l-50 -238h144z" />
    <glyph glyph-name="aogonek" unicode="&#x105;" horiz-adv-x="458" 
d="M414 -145l12 -48q-60 -27 -95 -19.5t-47 34.5t-2 64q19 61 80 114h-45l-11 67q-57 -78 -145 -78q-58 0 -95 37.5t-37 104.5v50q0 58 32.5 90.5t91.5 32.5h139v30q-1 42 -15 56t-53 14q-57 0 -164 -10l-11 86q107 24 203 24q83 0 121.5 -38t38.5 -133v-333
q-31 -52 -49 -106q-11 -32 5 -42.5t46 3.5zM193 87q48 0 99 50v84h-107q-20 -1 -27.5 -14.5t-7.5 -40.5v-19q0 -32 10 -46t33 -14z" />
    <glyph glyph-name="Cacute" unicode="&#x106;" horiz-adv-x="474" 
d="M420 836l-185 -112l-36 54l162 147zM272 702q97 0 167 -22l-11 -95q-73 7 -156 7q-60 0 -81.5 -52.5t-21.5 -194.5t21.5 -194.5t81.5 -52.5q107 0 168 10l10 -94q-71 -26 -178 -26q-129 0 -181.5 80t-52.5 277t52.5 277t181.5 80z" />
    <glyph glyph-name="cacute" unicode="&#x107;" horiz-adv-x="408" 
d="M373 656l-185 -112l-36 54l162 147zM232 504q89 0 148 -28l-14 -76q-86 2 -113 2q-54 0 -74 -32.5t-20 -123.5q0 -92 20 -125t74 -33q65 0 122 10l10 -80q-61 -30 -154 -30q-110 0 -154.5 58t-44.5 200t45 200t155 58z" />
    <glyph glyph-name="Cdotaccent" unicode="&#x10a;" horiz-adv-x="474" 
d="M249 876h37q34 0 34 -35v-54q0 -34 -34 -34h-37q-33 0 -33 34v54q0 35 33 35zM272 702q97 0 167 -22l-11 -95q-73 7 -156 7q-60 0 -81.5 -52.5t-21.5 -194.5t21.5 -194.5t81.5 -52.5q107 0 168 10l10 -94q-71 -26 -178 -26q-129 0 -181.5 80t-52.5 277t52.5 277t181.5 80
z" />
    <glyph glyph-name="cdotaccent" unicode="&#x10b;" horiz-adv-x="408" 
d="M201 696h37q34 0 34 -35v-54q0 -34 -34 -34h-37q-33 0 -33 34v54q0 35 33 35zM232 504q89 0 148 -28l-14 -76q-86 2 -113 2q-54 0 -74 -32.5t-20 -123.5q0 -92 20 -125t74 -33q65 0 122 10l10 -80q-61 -30 -154 -30q-110 0 -154.5 58t-44.5 200t45 200t155 58z" />
    <glyph glyph-name="Ccaron" unicode="&#x10c;" horiz-adv-x="474" 
d="M417 871l-123 -131h-51l-122 131l34 50l110 -81h7l109 81zM272 702q97 0 167 -22l-11 -95q-73 7 -156 7q-60 0 -81.5 -52.5t-21.5 -194.5t21.5 -194.5t81.5 -52.5q107 0 168 10l10 -94q-71 -26 -178 -26q-129 0 -181.5 80t-52.5 277t52.5 277t181.5 80z" />
    <glyph glyph-name="ccaron" unicode="&#x10d;" horiz-adv-x="408" 
d="M369 691l-123 -131h-51l-122 131l34 50l110 -81h7l109 81zM232 504q89 0 148 -28l-14 -76q-86 2 -113 2q-54 0 -74 -32.5t-20 -123.5q0 -92 20 -125t74 -33q65 0 122 10l10 -80q-61 -30 -154 -30q-110 0 -154.5 58t-44.5 200t45 200t155 58z" />
    <glyph glyph-name="Dcaron" unicode="&#x10e;" horiz-adv-x="549" 
d="M253 740l-122 131l34 50l110 -81h7l109 81l36 -50l-123 -131h-51zM273 699q132 0 184.5 -76.5t52.5 -277.5t-52.5 -277.5t-184.5 -76.5q-101 0 -216 9v690q115 9 216 9zM273 96q61 0 83.5 53t22.5 196t-22.5 196.5t-83.5 53.5q-18 0 -48.5 -0.5t-43.5 -0.5v-497
q28 -1 92 -1z" />
    <glyph glyph-name="dcaron" unicode="&#x10f;" horiz-adv-x="479" 
d="M562 670l1 -48q-1 -68 -38 -127l-47 12q11 49 11 93q-31 0 -31 28l1 42q1 18 9.5 25t29.5 7h27q21 0 29 -7t8 -25zM310 700h120v-700h-96l-8 64q-61 -76 -153 -76q-140 0 -140 260q0 141 38 198.5t117 57.5q75 0 125 -40q-3 47 -3 95v141zM220 91q26 0 43 10t47 39v247
q-52 18 -84 18q-39 0 -53.5 -30t-14.5 -126q0 -93 14 -125.5t48 -32.5z" />
    <glyph glyph-name="Dcroat" unicode="&#x110;" horiz-adv-x="551" 
d="M277 699q132 0 184.5 -76.5t52.5 -277.5t-52.5 -277.5t-184.5 -76.5q-103 0 -216 9v331h-47v66h47v293q115 9 216 9zM277 96q61 0 83.5 53t22.5 196t-22.5 196.5t-83.5 53.5q-18 0 -48.5 -0.5t-43.5 -0.5v-197h98v-66h-98v-234q28 -1 92 -1z" />
    <glyph glyph-name="dcroat" unicode="&#x111;" horiz-adv-x="477" 
d="M479 564h-49v-564h-96l-8 64q-61 -76 -153 -76q-140 0 -140 260q0 141 38 198.5t117 57.5q75 0 125 -40q-3 47 -3 95v5h-106v64h106v72h120v-72h49v-64zM220 91q26 0 43 10t47 39v247q-52 18 -84 18q-39 0 -53.5 -30t-14.5 -126q0 -93 14 -125.5t48 -32.5z" />
    <glyph glyph-name="Emacron" unicode="&#x112;" 
d="M376 794h-243v84h243v-84zM427 101l6 -95q-75 -8 -253 -8q-59 0 -93 35t-35 96v432q1 61 35 96t93 35q178 0 253 -8l-6 -96h-215q-20 0 -27 -12.5t-7 -45.5v-121h219v-96h-219v-154q0 -33 7 -45.5t27 -12.5h215z" />
    <glyph glyph-name="emacron" unicode="&#x113;" horiz-adv-x="450" 
d="M352 598h-243v84h243v-84zM253 88q63 0 148 11l10 -78q-62 -33 -173 -33q-112 0 -159 59t-47 199q0 143 46.5 200.5t154.5 57.5q100 0 144.5 -42t44.5 -128q0 -140 -116 -140h-146q4 -64 24.5 -85t68.5 -21zM238 408q-45 0 -62 -26t-18 -103h114q13 0 20.5 10t8.5 20
t1 27q1 40 -12.5 56t-51.5 16z" />
    <glyph glyph-name="Edotaccent" unicode="&#x116;" 
d="M273 770h-37q-33 0 -33 34v54q0 35 33 35h37q34 0 34 -35v-54q0 -34 -34 -34zM427 101l6 -95q-75 -8 -253 -8q-59 0 -93 35t-35 96v432q1 61 35 96t93 35q178 0 253 -8l-6 -96h-215q-20 0 -27 -12.5t-7 -45.5v-121h219v-96h-219v-154q0 -33 7 -45.5t27 -12.5h215z" />
    <glyph glyph-name="edotaccent" unicode="&#x117;" horiz-adv-x="450" 
d="M248 573h-37q-33 0 -33 34v54q0 35 33 35h37q34 0 34 -35v-54q0 -34 -34 -34zM253 88q63 0 148 11l10 -78q-62 -33 -173 -33q-112 0 -159 59t-47 199q0 143 46.5 200.5t154.5 57.5q100 0 144.5 -42t44.5 -128q0 -140 -116 -140h-146q4 -64 24.5 -85t68.5 -21zM238 408
q-45 0 -62 -26t-18 -103h114q13 0 20.5 10t8.5 20t1 27q1 40 -12.5 56t-51.5 16z" />
    <glyph glyph-name="Eogonek" unicode="&#x118;" 
d="M435 -139l12 -48q-60 -27 -95 -19.5t-47 34.5t-2 64q16 55 75 110q-63 -4 -198 -4q-59 0 -93 35t-35 96v432q1 61 35 96t93 35q178 0 253 -8l-6 -96h-215q-20 0 -27 -12.5t-7 -45.5v-121h219v-96h-219v-154q0 -33 7 -45.5t27 -12.5h215l6 -95q-31 -52 -49 -106
q-11 -32 5 -42.5t46 3.5z" />
    <glyph glyph-name="eogonek" unicode="&#x119;" horiz-adv-x="450" 
d="M413 -124l12 -48q-60 -27 -95 -19.5t-47 34.5t-2 64q14 47 55 90q-42 -9 -98 -9q-112 0 -159 59t-47 199q0 143 46.5 200.5t154.5 57.5q100 0 144.5 -42t44.5 -128q0 -140 -116 -140h-146q4 -64 24.5 -85t68.5 -21q63 0 148 11l10 -78q-31 -52 -49 -106q-11 -32 5 -42.5
t46 3.5zM238 408q-45 0 -62 -26t-18 -103h114q13 0 20.5 10t8.5 20t1 27q1 40 -12.5 56t-51.5 16z" />
    <glyph glyph-name="Ecaron" unicode="&#x11a;" 
d="M229 757l-122 131l34 50l110 -81h7l109 81l36 -50l-123 -131h-51zM427 101l6 -95q-75 -8 -253 -8q-59 0 -93 35t-35 96v432q1 61 35 96t93 35q178 0 253 -8l-6 -96h-215q-20 0 -27 -12.5t-7 -45.5v-121h219v-96h-219v-154q0 -33 7 -45.5t27 -12.5h215z" />
    <glyph glyph-name="ecaron" unicode="&#x11b;" horiz-adv-x="450" 
d="M205 560l-122 131l34 50l110 -81h7l109 81l36 -50l-123 -131h-51zM253 88q63 0 148 11l10 -78q-62 -33 -173 -33q-112 0 -159 59t-47 199q0 143 46.5 200.5t154.5 57.5q100 0 144.5 -42t44.5 -128q0 -140 -116 -140h-146q4 -64 24.5 -85t68.5 -21zM238 408q-45 0 -62 -26
t-18 -103h114q13 0 20.5 10t8.5 20t1 27q1 40 -12.5 56t-51.5 16z" />
    <glyph glyph-name="Gbreve" unicode="&#x11e;" horiz-adv-x="519" 
d="M272 741q-66 0 -103 40.5t-31 102.5l57 8q0 -66 77 -66q75 0 75 66l57 -8q7 -61 -30 -102t-102 -41zM476 398v-398h-91l-11 65q-62 -78 -161 -78q-92 0 -133 86.5t-41 274.5q0 139 25 215.5t78.5 108t150.5 31.5q95 0 164 -23l-10 -93q-79 6 -149 6q-52 0 -77 -16
t-38 -70t-13 -166q0 -140 18 -193t67 -53q44 0 102 45v258h119z" />
    <glyph glyph-name="gbreve" unicode="&#x11f;" horiz-adv-x="468" 
d="M228 561q-66 0 -103 40.5t-31 102.5l57 8q0 -66 77 -66q75 0 75 66l57 -8q7 -61 -30 -102t-102 -41zM450 431l-51 -7q11 -29 11 -78q0 -85 -41.5 -121.5t-145.5 -36.5q-40 0 -65 4q-7 -18 -2 -39t22 -24l143 -25q63 -10 89.5 -44.5t26.5 -101.5q0 -88 -46 -121t-162 -33
q-120 0 -165 31.5t-45 112.5q0 42 14.5 66t52.5 46q-28 30 -24 79t33 73q-58 33 -58 134q0 87 41 122.5t146 35.5q68 0 106 -14h127zM223 273q44 0 60 16t16 57t-16 56.5t-60 15.5t-60 -15.5t-16 -56.5t16.5 -57t59.5 -16zM321 -37q0 32 -12 41t-53 15l-90 14
q-31 -31 -31 -70q0 -40 17 -51t72 -11q61 0 79 11.5t18 50.5z" />
    <glyph glyph-name="Gdotaccent" unicode="&#x120;" horiz-adv-x="519" 
d="M290 753h-37q-33 0 -33 34v54q0 35 33 35h37q34 0 34 -35v-54q0 -34 -34 -34zM476 398v-398h-91l-11 65q-62 -78 -161 -78q-92 0 -133 86.5t-41 274.5q0 139 25 215.5t78.5 108t150.5 31.5q95 0 164 -23l-10 -93q-79 6 -149 6q-52 0 -77 -16t-38 -70t-13 -166
q0 -140 18 -193t67 -53q44 0 102 45v258h119z" />
    <glyph glyph-name="gdotaccent" unicode="&#x121;" horiz-adv-x="468" 
d="M247 573h-37q-33 0 -33 34v54q0 35 33 35h37q34 0 34 -35v-54q0 -34 -34 -34zM450 431l-51 -7q11 -29 11 -78q0 -85 -41.5 -121.5t-145.5 -36.5q-40 0 -65 4q-7 -18 -2 -39t22 -24l143 -25q63 -10 89.5 -44.5t26.5 -101.5q0 -88 -46 -121t-162 -33q-120 0 -165 31.5
t-45 112.5q0 42 14.5 66t52.5 46q-28 30 -24 79t33 73q-58 33 -58 134q0 87 41 122.5t146 35.5q68 0 106 -14h127zM223 273q44 0 60 16t16 57t-16 56.5t-60 15.5t-60 -15.5t-16 -56.5t16.5 -57t59.5 -16zM321 -37q0 32 -12 41t-53 15l-90 14q-31 -31 -31 -70q0 -40 17 -51
t72 -11q61 0 79 11.5t18 50.5z" />
    <glyph glyph-name="Gcommaaccent" unicode="&#x122;" horiz-adv-x="519" 
d="M476 398v-398h-91l-11 65q-62 -78 -161 -78q-92 0 -133 86.5t-41 274.5q0 139 25 215.5t78.5 108t150.5 31.5q95 0 164 -23l-10 -93q-79 6 -149 6q-52 0 -77 -16t-38 -70t-13 -166q0 -140 18 -193t67 -53q44 0 102 45v258h119zM258 -56h27q22 0 30 -7.5t8 -27.5l1 -53
q-1 -77 -38 -141l-49 13q12 51 12 103q-31 0 -31 32v46q1 20 10 27.5t30 7.5z" />
    <glyph glyph-name="gcommaaccent" unicode="&#x123;" horiz-adv-x="468" 
d="M252 554h-27q-22 0 -30 7.5t-8 27.5l-1 53q1 77 38 141l49 -13q-12 -51 -12 -103q31 0 31 -32v-46q-1 -20 -10 -27.5t-30 -7.5zM450 431l-51 -7q11 -29 11 -78q0 -85 -41.5 -121.5t-145.5 -36.5q-40 0 -65 4q-7 -18 -2 -39t22 -24l143 -25q63 -10 89.5 -44.5t26.5 -101.5
q0 -88 -46 -121t-162 -33q-120 0 -165 31.5t-45 112.5q0 42 14.5 66t52.5 46q-28 30 -24 79t33 73q-58 33 -58 134q0 87 41 122.5t146 35.5q68 0 106 -14h127zM223 273q44 0 60 16t16 57t-16 56.5t-60 15.5t-60 -15.5t-16 -56.5t16.5 -57t59.5 -16zM321 -37q0 32 -12 41
t-53 15l-90 14q-31 -31 -31 -70q0 -40 17 -51t72 -11q61 0 79 11.5t18 50.5z" />
    <glyph glyph-name="Hbar" unicode="&#x126;" horiz-adv-x="560" 
d="M549 516h-47v-516h-125v316h-193v-316h-125v516h-49v62h49v112h125v-112h193v112h125v-112h47v-62zM377 516h-193v-97h193v97z" />
    <glyph glyph-name="hbar" unicode="&#x127;" horiz-adv-x="486" 
d="M329 504q54 0 82.5 -35t28.5 -101v-368h-121v331q0 41 -6.5 55.5t-25.5 14.5q-42 0 -114 -57v-344h-121v564h-53v64h53v72h121v-72h101v-64h-101v-44q0 -47 -7 -94q84 78 163 78z" />
    <glyph glyph-name="Imacron" unicode="&#x12a;" horiz-adv-x="238" 
d="M241 778h-243v84h243v-84zM181 0h-124v690h124v-690z" />
    <glyph glyph-name="imacron" unicode="&#x12b;" horiz-adv-x="227" 
d="M236 598h-243v84h243v-84zM174 0h-121v490h121v-490z" />
    <glyph glyph-name="Iogonek" unicode="&#x12e;" horiz-adv-x="238" 
d="M181 0h-16q-31 -52 -49 -106q-11 -32 5 -42.5t46 3.5l12 -48q-60 -27 -95 -19.5t-47 34.5t-2 64q19 61 80 114h-58v690h124v-690z" />
    <glyph glyph-name="iogonek" unicode="&#x12f;" horiz-adv-x="227" 
d="M132 573h-37q-33 0 -33 34v54q0 35 33 35h37q34 0 34 -35v-54q0 -34 -34 -34zM164 -145l12 -48q-60 -27 -95 -19.5t-47 34.5t-2 64q19 61 80 114h-59v490h121v-490h-12q-31 -52 -49 -106q-11 -32 5 -42.5t46 3.5z" />
    <glyph glyph-name="Idotaccent" unicode="&#x130;" horiz-adv-x="238" 
d="M101 876h37q34 0 34 -35v-54q0 -34 -34 -34h-37q-33 0 -33 34v54q0 35 33 35zM181 0h-124v690h124v-690z" />
    <glyph glyph-name="dotlessi" unicode="&#x131;" horiz-adv-x="227" 
d="M174 0h-121v490h121v-490z" />
    <glyph glyph-name="IJ" unicode="&#x132;" horiz-adv-x="533" 
d="M181 0h-124v690h124v-690zM479 690v-538q0 -78 -32.5 -120.5t-91.5 -42.5q-63 0 -100 17l13 88h36q51 0 51 61v535h124z" />
    <glyph glyph-name="ij" unicode="&#x133;" horiz-adv-x="452" 
d="M312 704h55q34 0 34 -35v-54q0 -35 -34 -35h-55q-34 0 -34 35v54q0 35 34 35zM85 703h55q35 0 35 -35v-55q0 -35 -35 -35h-55q-34 0 -34 35v55q0 35 34 35zM173 0h-120v490h120v-490zM400 490v-481q0 -65 -27.5 -121t-74.5 -88l-67 54q49 65 49 155v481h120z" />
    <glyph glyph-name="Kcommaaccent" unicode="&#x136;" horiz-adv-x="509" 
d="M505 0h-138l-152 311h-41q7 -40 7 -68v-243h-124v690h124v-204q0 -40 -6 -79h39l148 283h134l-147 -278q-13 -23 -43 -52v-3q36 -33 50 -59zM252 -56h27q22 0 30 -7.5t8 -27.5l1 -53q-1 -77 -38 -141l-49 13q12 51 12 103q-31 0 -31 32v46q1 20 10 27.5t30 7.5z" />
    <glyph glyph-name="kcommaaccent" unicode="&#x137;" horiz-adv-x="449" 
d="M446 0h-135l-114 234h-33q6 -39 6 -74v-160h-121v700h121v-298q0 -44 -6 -86h31l103 174h135l-102 -174q-15 -26 -37 -41v-2q18 -12 37 -47zM224 -54h27q22 0 30 -7.5t8 -27.5l1 -53q-1 -77 -38 -141l-49 13q12 51 12 103q-31 0 -31 32v46q1 20 10 27.5t30 7.5z" />
    <glyph glyph-name="Lacute" unicode="&#x139;" horiz-adv-x="428" 
d="M273 836l-185 -112l-36 54l162 147zM179 690v-529q0 -32 9 -44.5t34 -12.5h188l7 -97q-82 -9 -227 -9q-135 0 -135 143v549h124z" />
    <glyph glyph-name="lacute" unicode="&#x13a;" horiz-adv-x="265" 
d="M266 855l-185 -112l-36 54l162 147zM171 700l-1 -548q0 -56 44 -56h31l14 -90q-31 -17 -94 -17q-54 0 -84.5 35t-30.5 99v577h121z" />
    <glyph glyph-name="Lcommaaccent" unicode="&#x13b;" horiz-adv-x="428" 
d="M179 690v-529q0 -32 9 -44.5t34 -12.5h188l7 -97q-82 -9 -227 -9q-135 0 -135 143v549h124zM224 -56h27q22 0 30 -7.5t8 -27.5l1 -53q-1 -77 -38 -141l-49 13q12 51 12 103q-31 0 -31 32v46q1 20 10 27.5t30 7.5z" />
    <glyph glyph-name="lcommaaccent" unicode="&#x13c;" horiz-adv-x="265" 
d="M171 700l-1 -548q0 -56 44 -56h31l14 -90q-31 -17 -94 -17q-54 0 -84.5 35t-30.5 99v577h121zM133 -56h27q22 0 30 -7.5t8 -27.5l1 -53q-1 -77 -38 -141l-49 13q12 51 12 103q-31 0 -31 32v46q1 20 10 27.5t30 7.5z" />
    <glyph glyph-name="Lcaron" unicode="&#x13d;" horiz-adv-x="428" 
d="M289 691h27q22 0 30 -7.5t8 -27.5l1 -53q-1 -77 -38 -141l-49 13q12 51 12 103q-31 0 -31 32v46q1 20 10 27.5t30 7.5zM179 690v-529q0 -32 9 -44.5t34 -12.5h188l7 -97q-82 -9 -227 -9q-135 0 -135 143v549h124z" />
    <glyph glyph-name="lcaron" unicode="&#x13e;" horiz-adv-x="265" 
d="M238 702h27q21 0 29 -7t8 -25l1 -48q-1 -68 -38 -127l-47 12q11 49 11 93q-31 0 -31 28l1 42q1 18 9.5 25t29.5 7zM171 700l-1 -548q0 -56 44 -56h31l14 -90q-31 -17 -94 -17q-54 0 -84.5 35t-30.5 99v577h121z" />
    <glyph glyph-name="Ldot" unicode="&#x13f;" horiz-adv-x="428" 
d="M179 690v-529q0 -32 9 -44.5t34 -12.5h188l7 -97q-82 -9 -227 -9q-135 0 -135 143v549h124zM353 341h-37q-34 0 -34 35v54q0 34 34 34h37q33 0 33 -34v-54q0 -35 -33 -35z" />
    <glyph glyph-name="ldot" unicode="&#x140;" horiz-adv-x="303" 
d="M171 700l-1 -548q0 -56 44 -56h31l14 -90q-31 -17 -94 -17q-54 0 -84.5 35t-30.5 99v577h121zM280 328h-37q-33 0 -33 35v54q0 34 33 34h37q34 0 34 -34v-54q0 -35 -34 -35z" />
    <glyph glyph-name="Lslash" unicode="&#x141;" horiz-adv-x="432" 
d="M415 104l6 -97q-81 -9 -227 -9q-134 0 -134 143v177l-49 -23v72l49 23v300h124v-242l86 41v-72l-86 -41v-215q0 -32 9 -44.5t33 -12.5h189z" />
    <glyph glyph-name="lslash" unicode="&#x142;" horiz-adv-x="289" 
d="M264 96l14 -90q-32 -17 -95 -17q-53 0 -83.5 35t-30.5 99v193l-60 -28v72l60 28v312h120v-255l78 37v-73l-78 -37v-220q0 -56 44 -56h31z" />
    <glyph glyph-name="Nacute" unicode="&#x143;" horiz-adv-x="586" 
d="M447 836l-185 -112l-36 54l162 147zM529 690v-644q0 -46 -44 -46h-103q-39 0 -50 38l-118 414q-5 16 -30 109h-8q2 -72 2 -110v-451h-121v644q0 46 44 46h103q39 0 50 -38l115 -403l32 -115h9q-1 41 -1 119v437h120z" />
    <glyph glyph-name="nacute" unicode="&#x144;" horiz-adv-x="484" 
d="M217 544l-36 54l162 147l59 -89zM326 504q54 0 82.5 -35t28.5 -101v-368h-120v331q0 41 -7 55.5t-26 14.5q-38 0 -115 -58l1 -343h-121v490h100l8 -72q88 86 169 86z" />
    <glyph glyph-name="Ncommaaccent" unicode="&#x145;" horiz-adv-x="586" 
d="M529 690v-644q0 -46 -44 -46h-103q-39 0 -50 38l-118 414q-5 16 -30 109h-8q2 -72 2 -110v-451h-121v644q0 46 44 46h103q39 0 50 -38l115 -403l32 -115h9q-1 41 -1 119v437h120zM274 -56h27q22 0 30 -7.5t8 -27.5l1 -53q-1 -77 -38 -141l-49 13q12 51 12 103
q-31 0 -31 32v46q1 20 10 27.5t30 7.5z" />
    <glyph glyph-name="ncommaaccent" unicode="&#x146;" horiz-adv-x="484" 
d="M326 504q54 0 82.5 -35t28.5 -101v-368h-120v331q0 41 -7 55.5t-26 14.5q-38 0 -115 -58l1 -343h-121v490h100l8 -72q88 86 169 86zM224 -54h28q22 0 30 -8t7 -28l1 -52q-1 -77 -38 -142l-48 13q11 46 12 104q-32 0 -32 31l1 46q1 20 10 28t29 8z" />
    <glyph glyph-name="Ncaron" unicode="&#x147;" horiz-adv-x="586" 
d="M444 871l-123 -131h-51l-122 131l34 50l110 -81h7l109 81zM529 690v-644q0 -46 -44 -46h-103q-39 0 -50 38l-118 414q-5 16 -30 109h-8q2 -72 2 -110v-451h-121v644q0 46 44 46h103q39 0 50 -38l115 -403l32 -115h9q-1 41 -1 119v437h120z" />
    <glyph glyph-name="ncaron" unicode="&#x148;" horiz-adv-x="484" 
d="M224 560l-122 131l34 50l110 -81h7l109 81l36 -50l-123 -131h-51zM326 504q54 0 82.5 -35t28.5 -101v-368h-120v331q0 41 -7 55.5t-26 14.5q-38 0 -115 -58l1 -343h-121v490h100l8 -72q88 86 169 86z" />
    <glyph glyph-name="Eng" unicode="&#x14a;" horiz-adv-x="586" 
d="M529 690v-756q0 -69 -32 -108t-84 -39q-54 0 -94 17l13 79h34q51 0 51 61v57h-42q-18 0 -29 32l-135 414q-5 15 -16 53.5l-15 52.5h-6q4 -34 4 -105v-448h-121v644q0 46 44 46h89q38 0 51 -38l127 -391q5 -14 17.5 -53t19.5 -59h7q-4 49 -4 112v429h121z" />
    <glyph glyph-name="eng" unicode="&#x14b;" horiz-adv-x="484" 
d="M325 504q112 0 112 -136v-423q0 -71 -29 -109t-84 -38q-62 0 -97 16l14 79h31q44 0 44 62v376q0 36 -7 49.5t-27 13.5q-40 0 -113 -54l1 -340h-121v490h94l11 -76q87 90 171 90z" />
    <glyph glyph-name="Omacron" unicode="&#x14c;" horiz-adv-x="552" 
d="M397 778h-243v84h243v-84zM276 703q133 0 185.5 -77t52.5 -281t-52.5 -281t-185.5 -77t-185.5 77t-52.5 281t52.5 281t185.5 77zM276 596q-61 0 -84 -53.5t-23 -197.5t23 -197.5t84 -53.5q62 0 84.5 53t22.5 198t-22.5 198t-84.5 53z" />
    <glyph glyph-name="omacron" unicode="&#x14d;" horiz-adv-x="473" 
d="M358 598h-243v84h243v-84zM236 504q112 0 158.5 -59t46.5 -200t-46.5 -199.5t-158.5 -58.5q-111 0 -157.5 58.5t-46.5 199.5t46.5 200t157.5 59zM237 407q-46 0 -62 -33t-16 -129q0 -95 16 -128t62 -33t62 33t16 128q0 96 -16 129t-62 33z" />
    <glyph glyph-name="Ohungarumlaut" unicode="&#x150;" horiz-adv-x="552" 
d="M311 881l-124 -164l-49 39l92 182zM465 881l-124 -164l-48 39l91 182zM276 703q133 0 185.5 -77t52.5 -281t-52.5 -281t-185.5 -77t-185.5 77t-52.5 281t52.5 281t185.5 77zM276 596q-61 0 -84 -53.5t-23 -197.5t23 -197.5t84 -53.5q62 0 84.5 53t22.5 198t-22.5 198
t-84.5 53z" />
    <glyph glyph-name="ohungarumlaut" unicode="&#x151;" horiz-adv-x="473" 
d="M273 701l-124 -164l-49 39l92 182zM427 701l-124 -164l-48 39l91 182zM236 504q112 0 158.5 -59t46.5 -200t-46.5 -199.5t-158.5 -58.5q-111 0 -157.5 58.5t-46.5 199.5t46.5 200t157.5 59zM237 407q-46 0 -62 -33t-16 -129q0 -95 16 -128t62 -33t62 33t16 128
q0 96 -16 129t-62 33z" />
    <glyph glyph-name="OE" unicode="&#x152;" horiz-adv-x="765" 
d="M726 101l5 -95q-76 -8 -261 -8q-36 0 -61 21q-56 -32 -134 -32q-132 0 -184.5 77.5t-52.5 280.5t52.5 280.5t184.5 77.5q79 0 141 -29q28 18 61 18q181 0 254 -8l-5 -96h-200q-24 0 -33 -12.5t-9 -45.5v-120h212v-97h-212v-154q0 -33 9 -45.5t33 -12.5h200zM169 345
q0 -144 22.5 -197.5t83.5 -53.5q50 0 87 13q-3 15 -3 34v408q0 19 3 35q-44 12 -87 12q-61 0 -83.5 -52.5t-22.5 -198.5z" />
    <glyph glyph-name="oe" unicode="&#x153;" horiz-adv-x="729" 
d="M534 87q53 0 144 12l12 -78q-63 -33 -172 -33q-94 0 -142 41q-46 -42 -141 -42q-110 0 -156.5 58.5t-46.5 199.5t46.5 200t156.5 59q94 0 139 -41q44 40 133 40q194 0 194 -158q-1 -83 -31 -114.5t-105 -31.5h-127q4 -68 24.5 -90t71.5 -22zM509 407q-40 1 -55.5 -25.5
t-16.5 -101.5h111q21 0 28.5 14.5t5.5 52.5q-2 32 -18.5 46t-54.5 14zM235 84q44 0 61 27.5t19 103.5l-1 33q0 21 1 31q-3 74 -20 101t-59 27q-46 0 -61.5 -33t-15.5 -129q0 -95 15.5 -128t60.5 -33z" />
    <glyph glyph-name="Racute" unicode="&#x154;" horiz-adv-x="518" 
d="M234 724l-36 54l162 147l59 -89zM494 0h-132l-41 214q-7 34 -20.5 48t-37.5 14h-83v-276h-123v690q74 9 211 9q111 0 158 -43.5t47 -158.5q0 -80 -24 -122.5t-81 -51.5v-5q62 -18 79 -102zM180 379h86q47 1 64.5 24t17.5 86t-17 85t-65 22h-86v-217z" />
    <glyph glyph-name="racute" unicode="&#x155;" horiz-adv-x="343" 
d="M160 544l-36 54l162 147l59 -89zM143 490l11 -71q82 85 160 85h21l-12 -114h-33q-38 0 -120 -42v-348h-121v490h94z" />
    <glyph glyph-name="Rcommaaccent" unicode="&#x156;" horiz-adv-x="518" 
d="M494 0h-132l-41 214q-7 34 -20.5 48t-37.5 14h-83v-276h-123v690q74 9 211 9q111 0 158 -43.5t47 -158.5q0 -80 -24 -122.5t-81 -51.5v-5q62 -18 79 -102zM180 379h86q47 1 64.5 24t17.5 86t-17 85t-65 22h-86v-217zM256 -56h27q22 0 30 -7.5t8 -27.5l1 -53
q-1 -77 -38 -141l-49 13q12 51 12 103q-31 0 -31 32v46q1 20 10 27.5t30 7.5z" />
    <glyph glyph-name="rcommaaccent" unicode="&#x157;" horiz-adv-x="343" 
d="M335 504l-12 -114h-33q-38 0 -120 -42v-348h-121v490h94l11 -71q82 85 160 85h21zM88 -54h27q22 0 30 -7.5t8 -27.5l1 -53q-1 -77 -38 -141l-49 13q12 51 12 103q-31 0 -31 32v46q1 20 10 27.5t30 7.5z" />
    <glyph glyph-name="Rcaron" unicode="&#x158;" horiz-adv-x="518" 
d="M241 740l-122 131l34 50l110 -81h7l109 81l36 -50l-123 -131h-51zM494 0h-132l-41 214q-7 34 -20.5 48t-37.5 14h-83v-276h-123v690q74 9 211 9q111 0 158 -43.5t47 -158.5q0 -80 -24 -122.5t-81 -51.5v-5q62 -18 79 -102zM180 379h86q47 1 64.5 24t17.5 86t-17 85
t-65 22h-86v-217z" />
    <glyph glyph-name="rcaron" unicode="&#x159;" horiz-adv-x="343" 
d="M167 560l-122 131l34 50l110 -81h7l109 81l36 -50l-123 -131h-51zM143 490l11 -71q82 85 160 85h21l-12 -114h-33q-38 0 -120 -42v-348h-121v490h94z" />
    <glyph glyph-name="Sacute" unicode="&#x15a;" horiz-adv-x="469" 
d="M392 836l-185 -112l-36 54l162 147zM235 702q108 0 183 -23l-7 -89q-69 3 -172 3q-48 0 -63.5 -13t-15.5 -65q0 -43 12 -60.5t44 -31.5l104 -41q65 -25 91 -73t26 -128q0 -115 -44.5 -154t-163.5 -39q-95 0 -187 22l7 92q151 -4 182 -4q49 0 64.5 15.5t15.5 68.5
q0 44 -11 60.5t-40 30.5l-110 44q-62 24 -88.5 72t-26.5 128q0 59 11 95.5t37 56.5t60.5 26.5t91.5 6.5z" />
    <glyph glyph-name="sacute" unicode="&#x15b;" horiz-adv-x="426" 
d="M374 656l-185 -112l-36 54l162 147zM199 504q105 -2 184 -18l-8 -84q-104 4 -153 4t-61.5 -6t-12.5 -36q0 -7 0.5 -12t2 -9t2 -7t4.5 -6t5 -4.5t7.5 -4t8 -3t10 -3.5t11.5 -4l100 -36q53 -18 75.5 -48.5t22.5 -92.5q0 -87 -40.5 -116t-143.5 -29q-94 0 -175 16l7 84
q40 -3 136 -3q61 0 80.5 9t19.5 38q0 24 -9.5 32t-38.5 18q-5 2 -8 3l-98 35q-55 18 -75.5 51t-20.5 93q0 80 37 109.5t131 29.5z" />
    <glyph glyph-name="Scedilla" unicode="&#x15e;" horiz-adv-x="469" 
d="M235 702q108 0 183 -23l-7 -89q-69 3 -172 3q-48 0 -63.5 -13t-15.5 -65q0 -43 12 -60.5t44 -31.5l104 -41q65 -25 91 -73t26 -128q0 -115 -44.5 -154t-163.5 -39q-95 0 -187 22l7 92q151 -4 182 -4q49 0 64.5 15.5t15.5 68.5q0 44 -11 60.5t-40 30.5l-110 44
q-62 24 -88.5 72t-26.5 128q0 59 11 95.5t37 56.5t60.5 26.5t91.5 6.5zM178 -108l12 53q66 8 92.5 -4.5t24.5 -60.5q-2 -69 -48 -104.5t-113 -25.5l17 59q26 -1 45 16t20 45q1 14 -8.5 18t-41.5 4z" />
    <glyph glyph-name="scedilla" unicode="&#x15f;" horiz-adv-x="426" 
d="M199 504q105 -2 184 -18l-8 -84q-104 4 -153 4t-61.5 -6t-12.5 -36q0 -7 0.5 -12t2 -9t2 -7t4.5 -6t5 -4.5t7.5 -4t8 -3t10 -3.5t11.5 -4l100 -36q53 -18 75.5 -48.5t22.5 -92.5q0 -87 -40.5 -116t-143.5 -29q-94 0 -175 16l7 84q40 -3 136 -3q61 0 80.5 9t19.5 38
q0 24 -9.5 32t-38.5 18q-5 2 -8 3l-98 35q-55 18 -75.5 51t-20.5 93q0 80 37 109.5t131 29.5zM148 -105l12 53q66 8 92.5 -4.5t24.5 -60.5q-2 -69 -48 -104.5t-113 -25.5l17 59q26 -1 45 16t20 45q1 14 -8.5 18t-41.5 4z" />
    <glyph glyph-name="Scaron" unicode="&#x160;" horiz-adv-x="469" 
d="M388 871l-123 -131h-51l-122 131l34 50l110 -81h7l109 81zM235 702q108 0 183 -23l-7 -89q-69 3 -172 3q-48 0 -63.5 -13t-15.5 -65q0 -43 12 -60.5t44 -31.5l104 -41q65 -25 91 -73t26 -128q0 -115 -44.5 -154t-163.5 -39q-95 0 -187 22l7 92q151 -4 182 -4
q49 0 64.5 15.5t15.5 68.5q0 44 -11 60.5t-40 30.5l-110 44q-62 24 -88.5 72t-26.5 128q0 59 11 95.5t37 56.5t60.5 26.5t91.5 6.5z" />
    <glyph glyph-name="scaron" unicode="&#x161;" horiz-adv-x="426" 
d="M370 691l-123 -131h-51l-122 131l34 50l110 -81h7l109 81zM199 504q105 -2 184 -18l-8 -84q-104 4 -153 4t-61.5 -6t-12.5 -36q0 -7 0.5 -12t2 -9t2 -7t4.5 -6t5 -4.5t7.5 -4t8 -3t10 -3.5t11.5 -4l100 -36q53 -18 75.5 -48.5t22.5 -92.5q0 -87 -40.5 -116t-143.5 -29
q-94 0 -175 16l7 84q40 -3 136 -3q61 0 80.5 9t19.5 38q0 24 -9.5 32t-38.5 18q-5 2 -8 3l-98 35q-55 18 -75.5 51t-20.5 93q0 80 37 109.5t131 29.5z" />
    <glyph glyph-name="Tcedilla" unicode="&#x162;" horiz-adv-x="486" 
d="M471 690v-108h-165v-582h-125v582h-165v108h455zM188 -96l12 53q66 8 92.5 -4.5t24.5 -60.5q-2 -69 -48 -104.5t-113 -25.5l17 59q26 -1 45 16t20 45q1 14 -8.5 18t-41.5 4z" />
    <glyph glyph-name="tcedilla" unicode="&#x163;" horiz-adv-x="335" 
d="M207 402v-250q0 -32 9 -44t34 -12h50l13 -90q-45 -17 -112 -17q-55 0 -84.5 37.5t-29.5 105.5v270h-72v83l72 5v141h120v-141h109v-88h-109zM153 -104l12 53q66 8 92.5 -4.5t24.5 -60.5q-2 -69 -48 -104.5t-113 -25.5l17 59q26 -1 45 16t20 45q1 14 -8.5 18t-41.5 4z" />
    <glyph glyph-name="Tcaron" unicode="&#x164;" horiz-adv-x="486" 
d="M219 740l-122 131l34 50l110 -81h7l109 81l36 -50l-123 -131h-51zM471 582h-165v-582h-125v582h-165v108h455v-108z" />
    <glyph glyph-name="tcaron" unicode="&#x165;" horiz-adv-x="335" 
d="M262 670q-31 0 -31 32v46q1 20 10 27.5t30 7.5h27q22 0 30 -7.5t8 -27.5l1 -53q-1 -77 -38 -141l-49 13q12 51 12 103zM207 490h109v-88h-109v-250q0 -32 9 -44t34 -12h50l13 -90q-45 -17 -112 -17q-55 0 -84.5 37.5t-29.5 105.5v270h-72v83l72 5v141h120v-141z" />
    <glyph glyph-name="Tbar" unicode="&#x166;" horiz-adv-x="486" 
d="M306 582v-165h104v-65h-104v-352h-125v352h-104v65h104v165h-165v108h456v-108h-166z" />
    <glyph glyph-name="tbar" unicode="&#x167;" horiz-adv-x="335" 
d="M207 402v-82h84v-63h-84v-105q0 -32 9 -44t34 -12h50l13 -90q-45 -17 -112 -17q-55 0 -84.5 37.5t-29.5 105.5v125h-48v63h48v82h-72v83l72 5v141h120v-141h109v-88h-109z" />
    <glyph glyph-name="Umacron" unicode="&#x16a;" horiz-adv-x="548" 
d="M397 778h-243v84h243v-84zM495 690v-420q0 -155 -48.5 -219t-166.5 -64q-125 0 -176 64t-51 219v420h124v-420q0 -100 21 -138t76 -38q54 0 75.5 38.5t21.5 137.5v420h124z" />
    <glyph glyph-name="umacron" unicode="&#x16b;" horiz-adv-x="476" 
d="M362 603h-243v84h243v-84zM427 490v-490h-96l-9 64q-83 -77 -163 -77q-112 0 -112 136v367h121v-331q-1 -39 7.5 -54t31.5 -15q34 0 100 51v349h120z" />
    <glyph glyph-name="Uring" unicode="&#x16e;" horiz-adv-x="548" 
d="M275 935q39 0 67.5 -32.5t28.5 -79.5t-28 -78.5t-68 -31.5t-68 31.5t-28 78.5t28.5 79.5t67.5 32.5zM275 878q-17 0 -28 -15t-11 -40q0 -24 11.5 -38.5t27.5 -14.5q17 0 28 14.5t11 38.5q0 25 -11 40t-28 15zM495 690v-420q0 -155 -48.5 -219t-166.5 -64q-125 0 -176 64
t-51 219v420h124v-420q0 -100 21 -138t76 -38q54 0 75.5 38.5t21.5 137.5v420h124z" />
    <glyph glyph-name="uring" unicode="&#x16f;" horiz-adv-x="476" 
d="M240 538q-40 0 -68 31.5t-28 78.5t28.5 79.5t67.5 32.5t67.5 -32.5t28.5 -79.5t-28 -78.5t-68 -31.5zM240 703q-17 0 -28 -15t-11 -40q0 -24 11.5 -38.5t27.5 -14.5q17 0 28 14.5t11 38.5q0 25 -11 40t-28 15zM427 490v-490h-96l-9 64q-83 -77 -163 -77q-112 0 -112 136
v367h121v-331q-1 -39 7.5 -54t31.5 -15q34 0 100 51v349h120z" />
    <glyph glyph-name="Uhungarumlaut" unicode="&#x170;" horiz-adv-x="548" 
d="M311 881l-124 -164l-49 39l92 182zM465 881l-124 -164l-48 39l91 182zM495 690v-420q0 -155 -48.5 -219t-166.5 -64q-125 0 -176 64t-51 219v420h124v-420q0 -100 21 -138t76 -38q54 0 75.5 38.5t21.5 137.5v420h124z" />
    <glyph glyph-name="uhungarumlaut" unicode="&#x171;" horiz-adv-x="476" 
d="M152 542l-49 39l92 182l81 -57zM258 581l91 182l81 -57l-124 -164zM307 490h120v-490h-96l-9 64q-83 -77 -163 -77q-112 0 -112 136v367h121v-331q-1 -39 7.5 -54t31.5 -15q34 0 100 51v349z" />
    <glyph glyph-name="Uogonek" unicode="&#x172;" horiz-adv-x="548" 
d="M495 690v-420q0 -146 -43 -211t-146 -71q-29 -49 -47 -103q-11 -32 5 -42.5t46 3.5l12 -48q-60 -27 -95 -19.5t-47 34.5t-2 64q18 59 76 111q-110 6 -155.5 70.5t-45.5 211.5v420h124v-420q0 -100 21 -138t76 -38q54 0 75.5 38.5t21.5 137.5v420h124z" />
    <glyph glyph-name="uogonek" unicode="&#x173;" horiz-adv-x="476" 
d="M431 -145l12 -48q-60 -27 -95 -19.5t-47 34.5t-2 64q19 61 80 114h-48l-9 64q-83 -77 -163 -77q-112 0 -112 136v367h121v-331q-1 -39 7.5 -54t31.5 -15q34 0 100 51v349h120v-490h2q-31 -52 -49 -106q-11 -32 5 -42.5t46 3.5z" />
    <glyph glyph-name="Wcircumflex" unicode="&#x174;" horiz-adv-x="787" 
d="M545 771l-36 -49l-111 96h-6l-112 -96l-35 50l106 131h88zM765 690l-84 -655q-8 -35 -44 -35h-124q-38 0 -45 36l-58 481q-1 9 -3 25.5t-3.5 30t-2.5 25.5h-15q-1 -9 -2.5 -25.5t-3 -30t-3.5 -25.5l-57 -481q-3 -16 -15.5 -26t-29.5 -10h-125q-17 0 -29 9.5t-15 25.5
l-84 655h129l50 -503q1 -12 2.5 -27t3 -35t2.5 -32h15q2 21 12 94l56 463q7 40 45 40h114q37 0 44 -40l56 -464q7 -51 11 -93h16q3 46 8 92l51 505h128z" />
    <glyph glyph-name="wcircumflex" unicode="&#x175;" horiz-adv-x="683" 
d="M493 592l-36 -49l-111 96h-6l-112 -96l-35 50l106 131h88zM671 490l-97 -457q-6 -33 -42 -33h-101q-16 0 -29 10.5t-14 27.5l-33 301q-1 9 -2.5 25.5t-3 30t-3.5 25.5h-10l-9 -81l-32 -301q-2 -17 -15 -27.5t-30 -10.5h-98q-36 0 -42 33l-98 457h122l54 -337q9 -71 9 -77
h10q7 44 11 77l33 301q1 16 13 26t29 10h97q17 0 29 -10t13 -27l32 -300q1 -9 5.5 -35.5t5.5 -41.5h11q4 49 9 77l53 337h123z" />
    <glyph glyph-name="Ycircumflex" unicode="&#x176;" horiz-adv-x="490" 
d="M130 723l-35 50l106 131h88l106 -132l-36 -49l-111 96h-6zM307 233v-233h-124v235l-183 455h130l91 -268q9 -26 20 -83h8q11 57 21 83l90 268h129z" />
    <glyph glyph-name="ycircumflex" unicode="&#x177;" horiz-adv-x="453" 
d="M114 543l-35 50l106 131h88l106 -132l-36 -49l-111 96h-6zM446 490l-139 -506q-23 -81 -77.5 -136.5t-143.5 -50.5l-10 76q48 17 76 44.5t43 71.5l4 11h-25q-32 0 -40 30l-128 460h128l73 -337q7 -31 12 -66h10q4 14 10 38.5t7 27.5l72 337h128z" />
    <glyph glyph-name="Ydieresis" unicode="&#x178;" horiz-adv-x="490" 
d="M191 763h-39q-28 0 -28 30v55q0 31 28 31h39q28 0 28 -31v-55q0 -30 -28 -30zM337 763h-39q-28 0 -28 30v55q0 31 28 31h39q28 0 28 -31v-55q0 -30 -28 -30zM307 233v-233h-124v235l-183 455h130l91 -268q9 -26 20 -83h8q11 57 21 83l90 268h129z" />
    <glyph glyph-name="Zacute" unicode="&#x179;" horiz-adv-x="470" 
d="M206 724l-36 54l162 147l59 -89zM437 102v-102h-403v102l262 486h-256v102h391v-102l-263 -486h269z" />
    <glyph glyph-name="zacute" unicode="&#x17a;" horiz-adv-x="424" 
d="M183 544l-36 54l162 147l59 -89zM391 93v-93h-357v93l217 304h-214v93h350v-93l-217 -304h221z" />
    <glyph glyph-name="Zdotaccent" unicode="&#x17b;" horiz-adv-x="470" 
d="M257 753h-37q-33 0 -33 34v54q0 35 33 35h37q34 0 34 -35v-54q0 -34 -34 -34zM437 102v-102h-403v102l262 486h-256v102h391v-102l-263 -486h269z" />
    <glyph glyph-name="zdotaccent" unicode="&#x17c;" horiz-adv-x="424" 
d="M233 573h-37q-33 0 -33 34v54q0 35 33 35h37q34 0 34 -35v-54q0 -34 -34 -34zM391 93v-93h-357v93l217 304h-214v93h350v-93l-217 -304h221z" />
    <glyph glyph-name="Zcaron" unicode="&#x17d;" horiz-adv-x="470" 
d="M213 740l-122 131l34 50l110 -81h7l109 81l36 -50l-123 -131h-51zM437 102v-102h-403v102l262 486h-256v102h391v-102l-263 -486h269z" />
    <glyph glyph-name="zcaron" unicode="&#x17e;" horiz-adv-x="424" 
d="M190 560l-122 131l34 50l110 -81h7l109 81l36 -50l-123 -131h-51zM391 93v-93h-357v93l217 304h-214v93h350v-93l-217 -304h221z" />
    <glyph glyph-name="florin" unicode="&#x192;" horiz-adv-x="389" 
d="M363 606h-56q-27 0 -38 -13.5t-14 -54.5l-10 -134h97l-8 -89h-95l-23 -322q-11 -149 -138 -149q-62 0 -104 9l16 87h53q27 0 39 15t14 53l23 307h-81l5 85l82 4l11 149q11 148 140 148q68 0 105 -8z" />
    <glyph glyph-name="Scommaaccent" unicode="&#x218;" horiz-adv-x="469" 
d="M235 702q108 0 183 -23l-7 -89q-69 3 -172 3q-48 0 -63.5 -13t-15.5 -65q0 -43 12 -60.5t44 -31.5l104 -41q65 -25 91 -73t26 -128q0 -115 -44.5 -154t-163.5 -39q-95 0 -187 22l7 92q151 -4 182 -4q49 0 64.5 15.5t15.5 68.5q0 44 -11 60.5t-40 30.5l-110 44
q-62 24 -88.5 72t-26.5 128q0 59 11 95.5t37 56.5t60.5 26.5t91.5 6.5zM213 -56h27q22 0 30 -7.5t8 -27.5l1 -53q-1 -77 -38 -141l-49 13q12 51 12 103q-31 0 -31 32v46q1 20 10 27.5t30 7.5z" />
    <glyph glyph-name="scommaaccent" unicode="&#x219;" horiz-adv-x="426" 
d="M199 504q105 -2 184 -18l-8 -84q-104 4 -153 4t-61.5 -6t-12.5 -36q0 -7 0.5 -12t2 -9t2 -7t4.5 -6t5 -4.5t7.5 -4t8 -3t10 -3.5t11.5 -4l100 -36q53 -18 75.5 -48.5t22.5 -92.5q0 -87 -40.5 -116t-143.5 -29q-94 0 -175 16l7 84q40 -3 136 -3q61 0 80.5 9t19.5 38
q0 24 -9.5 32t-38.5 18q-5 2 -8 3l-98 35q-55 18 -75.5 51t-20.5 93q0 80 37 109.5t131 29.5zM199 -54h27q22 0 30 -7.5t8 -27.5l1 -53q-1 -77 -38 -141l-49 13q12 51 12 103q-31 0 -31 32v46q1 20 10 27.5t30 7.5z" />
    <glyph glyph-name="uni021A" unicode="&#x21a;" horiz-adv-x="486" 
d="M471 582h-165v-582h-125v582h-165v108h455v-108zM221 -56h27q22 0 30 -7.5t8 -27.5l1 -53q-1 -77 -38 -141l-49 13q12 51 12 103q-31 0 -31 32v46q1 20 10 27.5t30 7.5z" />
    <glyph glyph-name="uni021B" unicode="&#x21b;" horiz-adv-x="335" 
d="M207 402v-250q0 -32 9 -44t34 -12h50l13 -90q-45 -17 -112 -17q-55 0 -84.5 37.5t-29.5 105.5v270h-72v83l72 5v141h120v-141h109v-88h-109zM175 -56h27q22 0 30 -7.5t8 -27.5l1 -53q-1 -77 -38 -141l-49 13q12 51 12 103q-31 0 -31 32v46q1 20 10 27.5t30 7.5z" />
    <glyph glyph-name="circumflex" unicode="&#x2c6;" horiz-adv-x="364" 
d="M333 586l-36 -49l-111 96h-6l-112 -96l-35 50l106 131h88z" />
    <glyph glyph-name="caron" unicode="&#x2c7;" horiz-adv-x="363" 
d="M331 685l-123 -131h-51l-122 131l34 50l110 -81h7l109 81z" />
    <glyph glyph-name="breve" unicode="&#x2d8;" horiz-adv-x="318" 
d="M235 702l57 -8q7 -61 -30 -102t-102 -41q-66 0 -103 40.5t-31 102.5l57 8q0 -66 77 -66q75 0 75 66z" />
    <glyph glyph-name="dotaccent" unicode="&#x2d9;" horiz-adv-x="191" 
d="M77 694h37q34 0 34 -35v-54q0 -34 -34 -34h-37q-33 0 -33 34v54q0 35 33 35z" />
    <glyph glyph-name="ring" unicode="&#x2da;" horiz-adv-x="251" 
d="M125 750q39 0 67.5 -32.5t28.5 -79.5t-28 -78.5t-68 -31.5t-68 31.5t-28 78.5t28.5 79.5t67.5 32.5zM125 693q-17 0 -28 -15t-11 -40q0 -24 11.5 -38.5t27.5 -14.5q17 0 28 14.5t11 38.5q0 25 -11 40t-28 15z" />
    <glyph glyph-name="ogonek" unicode="&#x2db;" horiz-adv-x="204" 
d="M115 2l48 -2q-31 -52 -49 -106q-11 -32 5 -42.5t46 3.5l12 -48q-60 -27 -95 -19.5t-47 34.5t-2 64q18 60 82 116z" />
    <glyph glyph-name="tilde" unicode="&#x2dc;" horiz-adv-x="356" 
d="M105 707q28 -3 69 -25t61 -25q19 -4 25 6.5t6 38.5h51q9 -62 -10.5 -97t-55.5 -32q-30 3 -72 26.5t-58 25.5q-19 4 -24.5 -7t-5.5 -41h-52q-8 64 12.5 98.5t53.5 31.5z" />
    <glyph glyph-name="hungarumlaut" unicode="&#x2dd;" horiz-adv-x="407" 
d="M211 686l-124 -164l-49 39l92 182zM365 686l-124 -164l-48 39l91 182z" />
    <glyph glyph-name="Delta" unicode="&#x394;" horiz-adv-x="528" 
d="M515 46v-46h-501v46l189 644h123zM265 570q-3 -14 -8.5 -43t-9.5 -43l-91 -386h215l-89 387q-5 15 -17 85z" />
    <glyph glyph-name="Omega" unicode="&#x3a9;" horiz-adv-x="583" 
d="M291 703q129 0 185 -78.5t56 -244.5q0 -103 -24.5 -165.5t-83.5 -118.5q33 11 56 11h64l1 -107h-224l-1 101q47 49 65 107.5t18 155.5q0 129 -25 181t-88 52t-87 -52t-24 -183q0 -101 18 -155.5t64 -105.5v-101h-224v107h65q27 0 56 -11q-59 58 -83.5 121.5t-24.5 164.5
q0 164 56 242.5t185 78.5z" />
    <glyph glyph-name="mu" unicode="&#x3bc;" horiz-adv-x="501" 
d="M440 490v-490h-94l-10 70q-72 -83 -147 -83q-19 0 -32 4q5 -30 5 -54v-132h-104v685h121v-331q-1 -60 47 -60q37 0 94 40v351h120z" />
    <glyph glyph-name="pi" unicode="&#x3c0;" horiz-adv-x="525" 
d="M507 398h-62v-398h-121v398h-123v-398h-120v398h-63v93h489v-93z" />
    <glyph glyph-name="uni0401" unicode="&#x401;" 
d="M200 780h-40q-27 0 -27 30v55q0 30 27 30h40q28 0 28 -30v-55q0 -30 -28 -30zM346 780h-39q-29 0 -29 30v55q0 30 29 30h39q28 0 28 -30v-55q0 -30 -28 -30zM426 101l6 -95q-74 -8 -253 -8q-59 0 -93 35t-34 96v432q0 61 34 96t93 35q179 0 253 -8l-6 -96h-215
q-20 0 -27 -12.5t-7 -45.5v-121h220v-96h-220v-154q0 -33 7 -45.5t27 -12.5h215z" />
    <glyph glyph-name="uni0402" unicode="&#x402;" horiz-adv-x="616" 
d="M450 447q68 0 105.5 -44t37.5 -167q0 -135 -55.5 -191.5t-158.5 -51.5l-11 90q57 8 79 36.5t22 105.5q0 75 -13 95.5t-51 20.5q-46 0 -100 -34v-307h-125v582h-164v108h454v-108h-165v-180q68 45 145 45z" />
    <glyph glyph-name="uni0403" unicode="&#x403;" horiz-adv-x="429" 
d="M392 836l-185 -112l-36 54l162 147zM175 692q171 0 243 -9l-6 -95h-189q-25 0 -34 -13.5t-9 -49.5v-525h-124v549q0 63 33.5 103t85.5 40z" />
    <glyph glyph-name="uni0404" unicode="&#x404;" horiz-adv-x="476" 
d="M438 109l11 -95q-68 -26 -173 -26q-131 0 -184.5 80t-53.5 277t53.5 277t184.5 80q98 0 169 -22l-11 -95q-79 6 -159 6q-55 0 -79.5 -39.5t-28.5 -141.5h225v-94h-226q2 -124 25.5 -170.5t83.5 -46.5q103 0 163 10z" />
    <glyph glyph-name="uni0405" unicode="&#x405;" horiz-adv-x="469" 
d="M235 702q108 0 183 -23l-7 -89q-69 3 -172 3q-48 0 -63.5 -13t-15.5 -65q0 -43 12 -60.5t44 -31.5l104 -41q65 -25 91 -73t26 -128q0 -115 -44.5 -154t-163.5 -39q-95 0 -187 22l7 92q151 -4 182 -4q49 0 64.5 15.5t15.5 68.5q0 44 -11 60.5t-40 30.5l-110 44
q-62 24 -88.5 72t-26.5 128q0 59 11 95.5t37 56.5t60.5 26.5t91.5 6.5z" />
    <glyph glyph-name="uni0406" unicode="&#x406;" horiz-adv-x="240" 
d="M182 0h-124v690h124v-690z" />
    <glyph glyph-name="uni0407" unicode="&#x407;" horiz-adv-x="239" 
d="M27 878h39q28 0 28 -30v-56q0 -30 -28 -30h-39q-28 0 -28 30v56q0 30 28 30zM173 878h39q29 0 29 -30v-56q0 -30 -29 -30h-39q-28 0 -28 30v56q0 30 28 30zM182 0h-124v690h124v-690z" />
    <glyph glyph-name="uni0408" unicode="&#x408;" horiz-adv-x="296" 
d="M241 690v-538q0 -78 -32.5 -120.5t-91.5 -42.5q-63 0 -100 17l13 88h36q51 0 51 61v535h124z" />
    <glyph glyph-name="uni0409" unicode="&#x409;" horiz-adv-x="791" 
d="M485 426h77q113 0 157.5 -47.5t44.5 -170.5q0 -124 -40.5 -170t-139.5 -46q-143 0 -221 8v593h-70q-21 0 -30.5 -15.5t-11.5 -47.5q-10 -139 -13.5 -184t-12 -104t-21.5 -102q-23 -78 -65.5 -110t-116.5 -32l-9 85q26 10 44.5 29.5t32.5 61.5t22.5 104.5t11.5 108
t8 161.5q7 142 137 142h216v-264zM485 96h77q49 0 63 22t14 93q0 69 -14 93.5t-63 24.5h-77v-233z" />
    <glyph glyph-name="uni040A" unicode="&#x40a;" horiz-adv-x="790" 
d="M485 423h79q112 0 155.5 -47t43.5 -170q0 -122 -40 -168t-137 -46q-146 0 -223 8h-1v325h-179v-325h-125v690h125v-267h179v267h123v-267zM485 96h79q48 0 61.5 21.5t13.5 90.5t-14 94t-61 25h-79v-231z" />
    <glyph glyph-name="uni040B" unicode="&#x40b;" horiz-adv-x="630" 
d="M455 448q72 0 106.5 -39.5t34.5 -122.5v-286h-124v260q0 46 -13 63t-49 17q-51 0 -105 -35v-305h-125v582h-164v108h454v-108h-165v-179q77 45 150 45z" />
    <glyph glyph-name="uni040C" unicode="&#x40c;" horiz-adv-x="515" 
d="M231 724l-36 54l162 147l59 -89zM309 362v-4q18 -2 33 -7.5t28 -16.5t22.5 -21.5t19.5 -31.5t16.5 -37t16 -48t16 -55t18.5 -66.5t21 -74.5h-131q-50 192 -59 217q-27 75 -66 89q-13 5 -30 5h-39q7 -40 7 -68v-243h-124v690h124v-204q0 -43 -7 -79h38q28 0 48 15.5
t34.5 49t26.5 75.5t28 105q2 8 3 12.5t2.5 12t3.5 13.5h126q-8 -28 -20 -72t-17.5 -65t-15.5 -53t-17.5 -46.5t-19 -34.5t-23 -29t-27.5 -17t-36 -11z" />
    <glyph glyph-name="uni040D" unicode="&#x40d;" horiz-adv-x="575" 
d="M353 778l-36 -54l-185 112l59 89zM518 0h-120v426q0 67 6 104h-5q-23 -80 -31 -101l-159 -429h-151v690h119v-420q0 -56 -6 -107h5q15 55 31 100l159 427h152v-690z" />
    <glyph glyph-name="uni040E" unicode="&#x40e;" horiz-adv-x="479" 
d="M241 741q-66 0 -103 40.5t-31 102.5l57 8q0 -66 77 -66q75 0 75 66l57 -8q7 -61 -30 -102t-102 -41zM479 690l-138 -515q-25 -87 -57 -132t-87 -51q-65 -5 -132 15l15 91q49 -7 76 -1.5t37.5 19.5t21.5 57l8 25h-30q-30 0 -46.5 14t-25.5 44l-116 434h128l88 -378
q2 -12 12 -12h22l96 390h128z" />
    <glyph glyph-name="uni040F" unicode="&#x40f;" horiz-adv-x="560" 
d="M502 690v-690h-171l-5 -151h-85l-6 151h-177v690h124v-593h195v593h125z" />
    <glyph glyph-name="uni0410" unicode="&#x410;" horiz-adv-x="525" 
d="M356 195h-187l-41 -195h-127l159 657q9 33 44 33h117q35 0 43 -33l160 -657h-127zM334 298l-49 238q-12 55 -12 59h-22q-1 -13 -11 -59l-50 -238h144z" />
    <glyph glyph-name="uni0411" unicode="&#x411;" horiz-adv-x="498" 
d="M183 404h81q115 0 160 -45.5t45 -162.5q0 -68 -12.5 -110t-43 -62.5t-65 -26.5t-94.5 -6q-106 0 -193 9h-3v690q112 7 189 7q80 0 187 -7l-10 -101h-241v-185zM182 94h82q51 0 65 19.5t14 87.5q0 66 -14.5 88.5t-64.5 22.5h-82v-218z" />
    <glyph glyph-name="uni0412" unicode="&#x412;" horiz-adv-x="515" 
d="M366 360v-4q62 -7 88 -52.5t26 -131.5q0 -104 -42.5 -142t-144.5 -38q-155 0 -235 8v690q72 8 209 8q111 0 153.5 -37.5t42.5 -142.5q0 -76 -22.5 -114t-74.5 -44zM261 597h-81v-194h87q45 0 61 20t16 79q0 57 -17.5 76t-65.5 19zM180 93h91q50 0 67.5 20.5t17.5 81.5
q0 68 -18.5 92t-69.5 25h-88v-219z" />
    <glyph glyph-name="uni0413" unicode="&#x413;" horiz-adv-x="429" 
d="M175 692q171 0 243 -9l-6 -95h-189q-25 0 -34 -13.5t-9 -49.5v-525h-124v549q0 63 33.5 103t85.5 40z" />
    <glyph glyph-name="uni0414" unicode="&#x414;" horiz-adv-x="596" 
d="M577 97v-248h-87l-10 151h-368l-10 -151h-88v248h55q60 179 76 452q5 65 41.5 103t96.5 38h221v-593h73zM381 97v496h-69q-25 0 -35.5 -13.5t-12.5 -49.5q-11 -150 -28.5 -249t-51.5 -184h197z" />
    <glyph glyph-name="uni0415" unicode="&#x415;" 
d="M426 101l6 -95q-74 -8 -253 -8q-59 0 -93 35t-34 96v432q0 61 34 96t93 35q179 0 253 -8l-6 -96h-215q-20 0 -27 -12.5t-7 -45.5v-121h220v-96h-220v-154q0 -33 7 -45.5t27 -12.5h215z" />
    <glyph glyph-name="uni0416" unicode="&#x416;" horiz-adv-x="760" 
d="M556 362v-4q69 -9 98 -65.5t72 -221.5q12 -46 19 -71h-130q-9 34 -25 92q-36 132 -56.5 175.5t-61.5 43.5h-38q6 -35 6 -68v-243h-118v243q0 28 7 68h-41q-11 0 -20.5 -3t-18 -11t-15 -17t-13.5 -26.5t-12.5 -32.5t-13.5 -42.5t-14 -49.5l-16.5 -60.5t-19.5 -68.5h-130
q6 24 18 68q16 61 23.5 88.5t20.5 68t23 57t26 36.5t34.5 28.5t42.5 11.5v4q-22 3 -39 10.5t-31.5 26t-23.5 32.5t-20.5 49t-17 56t-19 73t-21.5 81h126q6 -23 17 -65q39 -147 61 -182t52 -36h42q-7 36 -7 79v204h118v-204q0 -40 -6 -79h37q11 0 20 3.5t17.5 12t15 17.5
t13.5 26.5t12.5 31t12.5 39.5t12.5 44.5t14.5 52t15 56.5h127q-7 -27 -19 -72t-17.5 -65t-16 -52.5t-17.5 -47t-18.5 -34.5t-23 -29t-27.5 -17t-36 -11z" />
    <glyph glyph-name="uni0417" unicode="&#x417;" horiz-adv-x="455" 
d="M211 698q108 0 149.5 -37.5t41.5 -142.5q0 -75 -22 -113.5t-72 -44.5v-4q60 -7 86 -52.5t26 -131.5q0 -103 -42 -141.5t-142 -38.5q-129 0 -213 27l9 89q110 -16 180 -16q47 0 63.5 20.5t16.5 82.5q0 67 -17.5 91t-65.5 24l-107 1v93l107 1q40 0 55 20t15 77
q0 58 -16 77.5t-60 19.5q-32 0 -157 -12l-10 93q73 18 175 18z" />
    <glyph glyph-name="uni0418" unicode="&#x418;" horiz-adv-x="575" 
d="M518 0h-120v426q0 67 6 104h-5q-23 -80 -31 -101l-159 -429h-151v690h119v-420q0 -56 -6 -107h5q15 55 31 100l159 427h152v-690z" />
    <glyph glyph-name="uni0419" unicode="&#x419;" horiz-adv-x="575" 
d="M348 888h82q7 -61 -30 -104t-102 -43q-66 0 -103 42.5t-31 104.5h83q-3 -84 51 -84q52 0 50 84zM518 0h-120v426q0 67 6 104h-5q-23 -80 -31 -101l-159 -429h-151v690h119v-420q0 -56 -6 -107h5q15 55 31 100l159 427h152v-690z" />
    <glyph glyph-name="uni041A" unicode="&#x41a;" horiz-adv-x="515" 
d="M309 362v-4q18 -2 33 -7.5t28 -16.5t22.5 -21.5t19.5 -31.5t16.5 -37t16 -48t16 -55t18.5 -66.5t21 -74.5h-131q-50 192 -59 217q-27 75 -66 89q-13 5 -30 5h-39q7 -40 7 -68v-243h-124v690h124v-204q0 -43 -7 -79h38q28 0 48 15.5t34.5 49t26.5 75.5t28 105q2 8 3 12.5
t2.5 12t3.5 13.5h126q-8 -28 -20 -72t-17.5 -65t-15.5 -53t-17.5 -46.5t-19 -34.5t-23 -29t-27.5 -17t-36 -11z" />
    <glyph glyph-name="uni041B" unicode="&#x41b;" horiz-adv-x="548" 
d="M490 690v-690h-125v593h-69q-45 0 -49 -63q-10 -172 -19 -251t-29 -139q-47 -154 -186 -142l-9 97q65 17 80 79q27 103 43 376q8 140 133 140h230z" />
    <glyph glyph-name="uni041C" unicode="&#x41c;" horiz-adv-x="736" 
d="M499 690h122q46 0 48 -49l21 -641h-120l-18 589h-14l-75 -459q-11 -42 -52 -42h-87q-42 0 -52 42l-77 459h-12l-16 -589h-120l20 641q2 49 47 49h124q40 0 49 -42l62 -373q12 -80 14 -95h9q2 11 6.5 43.5t7.5 51.5l61 373q11 42 52 42z" />
    <glyph glyph-name="uni041D" unicode="&#x41d;" horiz-adv-x="558" 
d="M500 690v-690h-125v316h-193v-316h-124v690h124v-271h193v271h125z" />
    <glyph glyph-name="uni041E" unicode="&#x41e;" horiz-adv-x="552" 
d="M276 703q133 0 185.5 -77t52.5 -281t-52.5 -281t-185.5 -77t-185.5 77t-52.5 281t52.5 281t185.5 77zM276 596q-61 0 -84 -53.5t-23 -197.5t23 -197.5t84 -53.5q62 0 84.5 53t22.5 198t-22.5 198t-84.5 53z" />
    <glyph glyph-name="uni041F" unicode="&#x41f;" horiz-adv-x="557" 
d="M499 690v-690h-125v593h-192v-593h-124v690h441z" />
    <glyph glyph-name="uni0420" unicode="&#x420;" horiz-adv-x="495" 
d="M268 699q116 0 159 -46.5t43 -175.5t-40.5 -175.5t-145.5 -46.5q-54 0 -101 6v-261h-125v690q74 9 210 9zM183 357h82q47 0 63.5 24.5t16.5 95.5t-16.5 95t-63.5 24h-82v-239z" />
    <glyph glyph-name="uni0421" unicode="&#x421;" horiz-adv-x="474" 
d="M272 702q97 0 167 -22l-11 -95q-73 7 -156 7q-60 0 -81.5 -52.5t-21.5 -194.5t21.5 -194.5t81.5 -52.5q107 0 168 10l10 -94q-71 -26 -178 -26q-129 0 -181.5 80t-52.5 277t52.5 277t181.5 80z" />
    <glyph glyph-name="uni0422" unicode="&#x422;" horiz-adv-x="486" 
d="M471 582h-165v-582h-125v582h-165v108h455v-108z" />
    <glyph glyph-name="uni0423" unicode="&#x423;" horiz-adv-x="479" 
d="M479 690l-138 -515q-25 -87 -57 -132t-87 -51q-65 -5 -132 15l15 91q49 -7 76 -1.5t37.5 19.5t21.5 57l8 25h-30q-30 0 -46.5 14t-25.5 44l-116 434h128l88 -378q2 -12 12 -12h22l96 390h128z" />
    <glyph glyph-name="uni0424" unicode="&#x424;" horiz-adv-x="677" 
d="M653 352q0 -151 -56 -215t-196 -74v-94h-125v94q-139 9 -195.5 73.5t-56.5 215.5q0 154 56 220t196 76v93h124l1 -93q140 -10 196 -76t56 -220zM150 352q0 -101 27 -141t105 -47v383q-78 -8 -105 -49.5t-27 -145.5zM395 547v-383q77 8 104.5 48t27.5 140
q0 104 -27.5 145.5t-104.5 49.5z" />
    <glyph glyph-name="uni0425" unicode="&#x425;" horiz-adv-x="515" 
d="M259 312h-3l-118 -312h-130l142 355l-131 335h128l107 -288h6l107 288h130l-132 -335l142 -355h-130z" />
    <glyph glyph-name="uni0426" unicode="&#x426;" horiz-adv-x="577" 
d="M558 97v-248h-86l-10 151h-404v690h124v-593h183v593h125v-593h68z" />
    <glyph glyph-name="uni0427" unicode="&#x427;" horiz-adv-x="530" 
d="M472 690v-690h-124v295q-84 -54 -169 -54q-72 0 -106 40t-34 123v286h124v-260q-1 -43 13 -61.5t49 -18.5q56 0 123 38v302h124z" />
    <glyph glyph-name="uni0428" unicode="&#x428;" horiz-adv-x="784" 
d="M726 690v-690h-668v690h122v-593h152v593h121v-593h152v593h121z" />
    <glyph glyph-name="uni0429" unicode="&#x429;" horiz-adv-x="810" 
d="M790 97v-248h-86l-10 151h-636v690h122v-593h150v593h121v-593h151v593h121v-593h67z" />
    <glyph glyph-name="uni042A" unicode="&#x42a;" horiz-adv-x="616" 
d="M310 426h76q114 0 158 -48t44 -172q0 -122 -40.5 -168t-139.5 -46q-145 0 -223 8h-1v582h-169v108h295v-264zM310 96h76q50 0 63.5 21.5t13.5 91.5t-14 95t-63 25h-76v-233z" />
    <glyph glyph-name="uni042B" unicode="&#x42b;" horiz-adv-x="724" 
d="M183 426h78q114 0 158.5 -48t44.5 -172q0 -122 -41 -168t-140 -46q-145 0 -222 8h-3v690h125v-264zM666 690v-690h-124v690h124zM183 96h78q50 0 64 21.5t14 91.5t-14.5 95t-63.5 25h-78v-233z" />
    <glyph glyph-name="uni042C" unicode="&#x42c;" horiz-adv-x="493" 
d="M182 426h80q114 0 158.5 -48t44.5 -172q0 -122 -41 -168t-140 -46q-145 0 -223 8h-3v690h124v-264zM182 96h80q50 0 64 21.5t14 91.5t-14.5 95t-63.5 25h-80v-233z" />
    <glyph glyph-name="uni042D" unicode="&#x42d;" horiz-adv-x="476" 
d="M201 702q131 0 184.5 -80t53.5 -277t-53.5 -277t-184.5 -80q-106 0 -173 26l10 95q60 -10 164 -10q60 0 83.5 46.5t25.5 170.5h-226v94h225q-4 102 -28.5 141.5t-79.5 39.5q-81 0 -159 -6l-11 95q70 22 169 22z" />
    <glyph glyph-name="uni042E" unicode="&#x42e;" horiz-adv-x="785" 
d="M507 703q90 0 141 -32.5t74.5 -110t23.5 -215.5t-23.5 -215.5t-74.5 -110t-141 -32.5q-119 0 -169 70t-54 252h-101v-309h-125v690h125v-284h102q7 167 57 232t165 65zM507 94q62 0 85 53.5t23 197.5t-23 197.5t-85 53.5q-59 0 -80 -53t-21 -198t21 -198t80 -53z" />
    <glyph glyph-name="uni042F" unicode="&#x42f;" horiz-adv-x="512" 
d="M243 699q137 0 212 -9v-690h-125v270h-79q-24 0 -37 -14.5t-20 -48.5l-39 -207h-131l44 211q10 45 34 69t52 30v6q-60 9 -84.5 52.5t-24.5 128.5q0 109 45.5 155.5t152.5 46.5zM330 373v223h-84q-45 0 -60.5 -21.5t-15.5 -85.5t17 -90t61 -26h82z" />
    <glyph glyph-name="uni0430" unicode="&#x430;" horiz-adv-x="462" 
d="M254 504q83 0 121.5 -38t38.5 -133v-333h-95l-11 67q-59 -78 -145 -78q-58 0 -95 37.5t-37 104.5v50q0 58 32.5 90.5t91.5 32.5h138v30q-1 42 -14.5 56t-52.5 14q-58 0 -165 -10l-10 86q107 24 203 24zM195 87q46 0 98 49v85h-107q-20 -1 -27 -14.5t-7 -40.5v-19
q0 -32 10 -46t33 -14z" />
    <glyph glyph-name="uni0431" unicode="&#x431;" horiz-adv-x="480" 
d="M403 739l24 -95q-42 -30 -109.5 -41.5t-88.5 -19.5q-63 -23 -85 -126q-9 -38 -12 -72h2q24 42 56 66t89 24q91 0 129 -54.5t38 -178.5q0 -128 -45 -191t-154 -63q-56 0 -95 16.5t-60 41t-32 69t-13.5 82.5t-2.5 100q0 169 28.5 257t116.5 121q23 9 97.5 22.5t116.5 41.5z
M246 380q-47 0 -62.5 -31.5t-15.5 -108.5q0 -90 16 -122.5t59 -32.5t59.5 32.5t16.5 121.5q0 84 -15 112.5t-58 28.5z" />
    <glyph glyph-name="uni0432" unicode="&#x432;" horiz-adv-x="459" 
d="M327 254v-3q54 -5 77.5 -37t23.5 -93q0 -74 -38 -101t-128 -27q-136 0 -212 6v491q68 6 189 6q98 0 136 -27.5t38 -103.5q0 -53 -20 -80t-66 -31zM301 353q0 31 -15 42.5t-53 11.5l-69 1v-116h75q35 0 48.5 13t13.5 48zM164 83h77q38 0 52.5 13t14.5 51q0 37 -15.5 51.5
t-53.5 14.5h-75v-130z" />
    <glyph glyph-name="uni0433" unicode="&#x433;" horiz-adv-x="392" 
d="M151 495q163 0 230 -11l-6 -85h-170q-19 0 -27.5 -12t-8.5 -39v-348h-120v381q0 114 102 114z" />
    <glyph glyph-name="uni0434" unicode="&#x434;" horiz-adv-x="509" 
d="M490 93v-236h-78l-9 143h-297l-9 -143h-78v236h45q41 118 54 278q9 119 119 119h190v-397h63zM313 93v309h-49q-35 0 -40 -53q-17 -160 -57 -256h146z" />
    <glyph glyph-name="uni0435" unicode="&#x435;" horiz-adv-x="453" 
d="M423 334q0 -140 -116 -140h-146q4 -64 24.5 -85t69.5 -21q62 0 147 11l11 -78q-63 -33 -173 -33q-113 0 -160 59t-47 199q0 143 46.5 200.5t154.5 57.5q100 0 145 -42.5t44 -127.5zM159 279h114q31 0 31 57q0 40 -13.5 56t-51.5 16q-45 0 -62 -26t-18 -103z" />
    <glyph glyph-name="uni0436" unicode="&#x436;" horiz-adv-x="666" 
d="M496 258v-3q61 -10 84.5 -50.5t62.5 -182.5q4 -15 6 -22h-121q-6 20 -17 55q-30 99 -44.5 127t-44.5 29h-40q5 -25 5 -44v-167h-106v167q0 19 5 44h-43q-27 -1 -41 -27.5t-44 -123.5q-12 -38 -19 -60h-121q3 11 9 32q37 137 57 170q25 42 80 52l7 1v3q-15 2 -26.5 5
t-21.5 10.5t-17 12.5t-14.5 20l-11.5 23t-11.5 31t-11 35t-13 44.5t-14.5 50.5h119q39 -134 51 -158q19 -33 47 -34h39q-5 32 -5 57v135h106v-135q0 -25 -5 -57h36q30 0 45.5 30.5t43.5 127.5q7 22 10 34h120q-6 -20 -15 -50.5t-13 -44.5t-11 -35.5t-11.5 -30.5l-11.5 -23
t-14 -19.5t-17 -13t-21.5 -10.5t-26.5 -5z" />
    <glyph glyph-name="uni0437" unicode="&#x437;" horiz-adv-x="421" 
d="M178 501q109 0 151.5 -26.5t42.5 -106.5q0 -55 -19.5 -82t-64.5 -32v-3q53 -5 77 -36t24 -93q0 -80 -42 -106.5t-142 -26.5q-104 0 -181 18l8 89q95 -9 164 -9q42 0 55.5 11t13.5 49q0 35 -14 47.5t-55 12.5l-115 1v83l114 1q35 0 47 12t12 47q0 32 -14 41.5t-57 9.5
q-67 0 -137 -9l-8 89q57 19 140 19z" />
    <glyph glyph-name="uni0438" unicode="&#x438;" horiz-adv-x="487" 
d="M436 0h-108v265q0 39 5 89h-3q-8 -29 -31 -82l-121 -272h-127v490h107v-267q0 -55 -5 -86h3q8 25 30 78l123 275h127v-490z" />
    <glyph glyph-name="uni0439" unicode="&#x439;" horiz-adv-x="487" 
d="M297 708h82q7 -61 -30 -104t-102 -43q-66 0 -103 42.5t-31 104.5h83q-3 -84 51 -84q51 0 50 84zM436 0h-108v265q0 39 5 89h-3q-8 -29 -31 -82l-121 -272h-127v490h107v-267q0 -55 -5 -86h3q8 25 30 78l123 275h127v-490z" />
    <glyph glyph-name="uni043A" unicode="&#x43a;" horiz-adv-x="455" 
d="M284 257v-3q61 -9 84 -47.5t61 -174.5q6 -21 9 -32h-126q-39 145 -52 171q-18 36 -53 39h-6h-35q5 -25 5 -43v-167h-120v490h120v-134q0 -25 -5 -57h28q42 0 59 30.5t42 130.5q5 20 8 30h122q-6 -19 -15 -51.5t-12.5 -45t-11 -35t-11.5 -31t-11.5 -22.5t-14.5 -19.5
t-17 -12.5t-21.5 -10.5t-26.5 -5.5z" />
    <glyph glyph-name="uni043B" unicode="&#x43b;" horiz-adv-x="478" 
d="M427 490v-490h-121v401h-50q-20 0 -29 -12t-12 -43q-17 -172 -30 -235q-24 -127 -162 -116l-12 92q33 7 46.5 18.5t20.5 39.5q13 53 26 222q5 62 32.5 92.5t83.5 30.5h207z" />
    <glyph glyph-name="uni043C" unicode="&#x43c;" horiz-adv-x="633" 
d="M422 490h112q42 0 42 -43l13 -447h-110l-12 401h-11l-60 -304q-9 -38 -46 -38h-70q-37 0 -46 38l-59 304h-12l-10 -401h-109l12 447q0 43 42 43h111q36 0 45 -38l47 -244q5 -29 10 -72h9q6 48 11 72l46 244q9 38 45 38z" />
    <glyph glyph-name="uni043D" unicode="&#x43d;" horiz-adv-x="488" 
d="M437 490v-490h-119v215h-148v-215h-119v490h119v-186h148v186h119z" />
    <glyph glyph-name="uni043E" unicode="&#x43e;" horiz-adv-x="475" 
d="M238 504q112 0 158 -59t46 -200t-46 -199.5t-158 -58.5q-111 0 -157.5 58.5t-46.5 199.5t46.5 200t157.5 59zM238 407q-46 0 -62 -33.5t-16 -128.5q0 -94 16 -127.5t62 -33.5t62.5 33t16.5 128t-16.5 128.5t-62.5 33.5z" />
    <glyph glyph-name="uni043F" unicode="&#x43f;" horiz-adv-x="480" 
d="M429 491v-491h-118v398h-142v-398h-118v491h378z" />
    <glyph glyph-name="uni0440" unicode="&#x440;" horiz-adv-x="490" 
d="M320 503q136 0 136 -262q0 -139 -38 -196t-117 -57q-81 0 -132 44q3 -53 2 -98v-129h-120v685h99l8 -70q25 36 71 59.5t91 23.5zM262 86q40 0 54.5 30.5t14.5 125.5q0 92 -13 126.5t-45 34.5q-43 0 -102 -61v-235q67 -21 91 -21z" />
    <glyph glyph-name="uni0441" unicode="&#x441;" horiz-adv-x="411" 
d="M234 504q88 0 147 -28l-13 -76q-86 2 -114 2q-54 0 -74 -32.5t-20 -123.5q0 -92 20 -125t74 -33q64 0 122 10l11 -80q-61 -30 -154 -30q-110 0 -154.5 58t-44.5 200t45 200t155 58z" />
    <glyph glyph-name="uni0442" unicode="&#x442;" horiz-adv-x="416" 
d="M399 394h-131v-394h-119v394h-132v96h382v-96z" />
    <glyph glyph-name="uni0443" unicode="&#x443;" horiz-adv-x="456" 
d="M448 490l-139 -506q-36 -107 -99 -154q-60 -48 -174 -29l10 84q72 -5 101 19q31 25 51 86l3 10h-26q-31 0 -40 30l-128 460h129l72 -337q4 -14 13 -66h9q4 14 10 38.5t7 27.5l72 337h129z" />
    <glyph glyph-name="uni0444" unicode="&#x444;" horiz-adv-x="604" 
d="M571 245q0 -127 -49.5 -186t-165.5 -69v-185h-109v185q-116 10 -165 69t-49 186q0 128 49 187.5t165 69.5v198h109v-198q116 -10 165.5 -69.5t49.5 -187.5zM351 405v-319q60 7 82.5 42t22.5 117t-22.5 117.5t-82.5 42.5zM148 245q0 -81 22.5 -116.5t81.5 -42.5v319
q-59 -7 -81.5 -43t-22.5 -117z" />
    <glyph glyph-name="uni0445" unicode="&#x445;" horiz-adv-x="458" 
d="M323 0l-94 208l-94 -208h-125l120 252l-111 238h125l85 -192l85 192h125l-111 -238l120 -252h-125z" />
    <glyph glyph-name="uni0446" unicode="&#x446;" horiz-adv-x="507" 
d="M488 93v-236h-80l-10 143h-347v490h119v-397h136v397h119l-1 -397h64z" />
    <glyph glyph-name="uni0447" unicode="&#x447;" horiz-adv-x="457" 
d="M406 490l-1 -490h-120v189q-72 -28 -132 -28q-118 0 -118 110v219h119v-179q0 -31 9 -43t31 -12q45 0 91 25v209h121z" />
    <glyph glyph-name="uni0448" unicode="&#x448;" horiz-adv-x="676" 
d="M625 490v-490h-574v490h116v-397h118v397h106v-397h118v397h116z" />
    <glyph glyph-name="uni0449" unicode="&#x449;" horiz-adv-x="707" 
d="M688 93v-236h-80l-10 143h-547v490h117v-397h117v397h106v-397h117v397h117v-397h63z" />
    <glyph glyph-name="uni044A" unicode="&#x44a;" horiz-adv-x="526" 
d="M264 313h57q103 0 141.5 -34t38.5 -126q0 -90 -37 -124.5t-124 -34.5q-124 0 -191 6h-2v398h-131v92h248v-177zM264 85h57q34 0 46.5 14.5t12.5 58.5q0 42 -12 57t-47 15h-57v-145z" />
    <glyph glyph-name="uni044B" unicode="&#x44b;" horiz-adv-x="629" 
d="M168 313h58q105 0 144.5 -34t39.5 -126q0 -90 -37.5 -124.5t-125.5 -34.5q-124 0 -192 6h-4v490h117v-177zM578 490v-490h-121v490h121zM168 85h58q37 0 50 14.5t13 58.5q0 42 -13 57t-50 15h-58v-145z" />
    <glyph glyph-name="uni044C" unicode="&#x44c;" horiz-adv-x="432" 
d="M167 313h59q104 0 142.5 -34t38.5 -126q0 -91 -36.5 -125t-123.5 -34q-124 0 -192 6h-4v490h116v-177zM167 85h59q35 0 48 14.5t13 58.5q0 42 -12.5 57t-48.5 15h-59v-145z" />
    <glyph glyph-name="uni044D" unicode="&#x44d;" horiz-adv-x="433" 
d="M184 499q119 0 167 -56.5t48 -199.5q0 -140 -48 -197t-167 -57q-96 0 -157 23l10 82q73 -5 147 -5q51 0 70.5 24t21.5 95h-198v83h198q-4 63 -24.5 86t-67.5 23q-72 0 -143 -3l-10 81q57 21 153 21z" />
    <glyph glyph-name="uni044E" unicode="&#x44e;" horiz-adv-x="672" 
d="M437 504q113 0 157 -54.5t44 -204.5q0 -146 -44.5 -200t-156.5 -54q-101 0 -143.5 46.5t-46.5 169.5h-76v-207h-120v490h120v-193h76q7 119 49 163t141 44zM435 90q46 0 62 32.5t16 124.5t-16 124.5t-62 32.5t-61.5 -32t-15.5 -125t15.5 -125t61.5 -32z" />
    <glyph glyph-name="uni044F" unicode="&#x44f;" horiz-adv-x="457" 
d="M214 498q135 0 193 -7v-491h-118v173h-76q-37 0 -43 -42l-27 -131h-123l34 150q12 50 76 60v4q-48 11 -67 43t-19 91q0 81 36 115.5t134 34.5zM289 258v147h-72q-36 0 -46 -13.5t-10 -58.5t9.5 -60t44.5 -15h74z" />
    <glyph glyph-name="uni0451" unicode="&#x451;" horiz-adv-x="453" 
d="M182 583h-39q-28 0 -28 30v55q0 31 28 31h39q28 0 28 -31v-55q0 -30 -28 -30zM328 583h-39q-29 0 -29 30v55q0 31 29 31h39q28 0 28 -31v-55q0 -30 -28 -30zM423 334q0 -140 -116 -140h-146q4 -64 24.5 -85t69.5 -21q62 0 147 11l11 -78q-63 -33 -173 -33q-113 0 -160 59
t-47 199q0 143 46.5 200.5t154.5 57.5q100 0 145 -42.5t44 -127.5zM159 279h114q31 0 31 57q0 40 -13.5 56t-51.5 16q-45 0 -62 -26t-18 -103z" />
    <glyph glyph-name="uni0452" unicode="&#x452;" horiz-adv-x="491" 
d="M345 408q111 0 113 -135v-264q0 -64 -27 -120.5t-73 -88.5l-68 54q47 64 47 154v229q0 36 -10 50t-38 14q-38 0 -98 -44v-257h-121v485h-54v64h54v151h121v-151h133v-64h-133v-61q0 -46 -6 -83q80 67 160 67z" />
    <glyph glyph-name="uni0453" unicode="&#x453;" horiz-adv-x="392" 
d="M371 656l-185 -112l-36 54l162 147zM151 495q163 0 230 -11l-6 -85h-170q-19 0 -27.5 -12t-8.5 -39v-348h-120v381q0 114 102 114z" />
    <glyph glyph-name="uni0454" unicode="&#x454;" horiz-adv-x="433" 
d="M396 94l10 -82q-61 -23 -158 -23q-118 0 -166 57t-48 197q0 143 48 199.5t166 56.5q97 0 154 -21l-10 -81q-72 3 -144 3q-47 1 -67 -22t-24 -87h199v-83h-199q3 -71 22.5 -95t68.5 -24q73 0 148 5z" />
    <glyph glyph-name="uni0455" unicode="&#x455;" horiz-adv-x="428" 
d="M200 504q104 -2 185 -18l-9 -84q-104 4 -153 4q-48 0 -61 -6.5t-13 -35.5q0 -7 0.5 -12t2 -9t2 -7t4.5 -6t5 -4.5t7.5 -4t8 -3t10 -3.5t11.5 -4l101 -36q53 -18 75.5 -48.5t22.5 -92.5q0 -87 -41 -116t-144 -29q-94 0 -175 16l7 84q42 -3 136 -3q61 0 80.5 9t19.5 38
q0 6 -0.5 10.5t-1.5 8t-3.5 7t-3 5.5t-5 4.5t-6 3.5t-7.5 3.5t-8 3.5t-10 3.5t-10 3.5l-99 35q-55 18 -75.5 51t-20.5 93q0 80 37 109.5t131 29.5z" />
    <glyph glyph-name="uni0456" unicode="&#x456;" horiz-adv-x="230" 
d="M87 703h55q35 0 35 -35v-55q0 -35 -35 -35h-55q-34 0 -34 35v55q0 35 34 35zM175 0h-120v490h120v-490z" />
    <glyph glyph-name="uni0457" unicode="&#x457;" horiz-adv-x="229" 
d="M22 699h40q27 0 27 -31v-55q0 -30 -27 -30h-40q-28 0 -28 30v55q0 31 28 31zM169 699h38q29 0 29 -31v-55q0 -30 -29 -30h-38q-29 0 -29 30v55q0 31 29 31zM175 0h-120v490h120v-490z" />
    <glyph glyph-name="uni0458" unicode="&#x458;" horiz-adv-x="230" 
d="M87 704h55q34 0 34 -35v-54q0 -35 -34 -35h-55q-34 0 -34 35v54q0 35 34 35zM175 490v-481q0 -65 -27 -121t-75 -88l-66 54q48 64 48 155v481h120z" />
    <glyph glyph-name="uni0459" unicode="&#x459;" horiz-adv-x="674" 
d="M409 313h59q104 0 142.5 -34.5t38.5 -125.5t-36 -125t-122 -34q-124 0 -195 6h-1v404h-35q-20 0 -29 -9.5t-10 -34.5q-16 -184 -34 -254q-17 -63 -61 -90t-100 -20l-8 83q51 15 65 59q17 54 32 244q9 108 108 108h186v-177zM409 84h63q34 0 45.5 14t11.5 59q0 43 -12 58
t-49 15h-59v-146z" />
    <glyph glyph-name="uni045A" unicode="&#x45a;" horiz-adv-x="673" 
d="M407 310h62q103 0 141 -33.5t38 -123.5q0 -91 -36.5 -125t-122.5 -34q-124 0 -194 6h-1v227h-133v-227h-110v490h110v-180h133v180h113v-180zM407 84h62q36 0 48 14.5t12 58.5q0 41 -12 56t-48 15h-62v-144z" />
    <glyph glyph-name="uni045B" unicode="&#x45b;" horiz-adv-x="491" 
d="M345 408q113 0 113 -135v-273h-121v237q0 37 -10 50.5t-38 13.5q-38 0 -98 -44v-257h-121v485h-54v64h54v151h121v-151h133v-64h-133v-61q0 -46 -6 -83q80 67 160 67z" />
    <glyph glyph-name="uni045C" unicode="&#x45c;" horiz-adv-x="455" 
d="M203 544l-36 54l162 147l59 -89zM284 257v-3q61 -9 84 -47.5t61 -174.5q6 -21 9 -32h-126q-39 145 -52 171q-18 36 -53 39h-6h-35q5 -25 5 -43v-167h-120v490h120v-134q0 -25 -5 -57h28q42 0 59 30.5t42 130.5q5 20 8 30h122q-6 -19 -15 -51.5t-12.5 -45t-11 -35
t-11.5 -31t-11.5 -22.5t-14.5 -19.5t-17 -12.5t-21.5 -10.5t-26.5 -5.5z" />
    <glyph glyph-name="uni045D" unicode="&#x45d;" horiz-adv-x="487" 
d="M302 598l-36 -54l-185 112l59 89zM436 0h-108v265q0 39 5 89h-3q-8 -29 -31 -82l-121 -272h-127v490h107v-267q0 -55 -5 -86h3q8 25 30 78l123 275h127v-490z" />
    <glyph glyph-name="uni045E" unicode="&#x45e;" horiz-adv-x="456" 
d="M226 561q-66 0 -103.5 42.5t-30.5 104.5h83q-3 -84 51 -84q52 0 49 84h83q7 -62 -30 -104.5t-102 -42.5zM448 490l-139 -506q-36 -107 -99 -154q-60 -48 -174 -29l10 84q72 -5 101 19q31 25 51 86l3 10h-26q-31 0 -40 30l-128 460h129l72 -337q4 -14 13 -66h9
q4 14 10 38.5t7 27.5l72 337h129z" />
    <glyph glyph-name="uni045F" unicode="&#x45f;" horiz-adv-x="485" 
d="M434 490v-490h-144l-8 -164h-80l-9 164h-142v490h118l2 -397h143l1 397h119z" />
    <glyph glyph-name="uni0490" unicode="&#x490;" horiz-adv-x="435" 
d="M424 674h-1l-6 -86h-194q-25 0 -34 -13.5t-9 -49.5v-525h-124v549q0 63 33.5 103t85.5 40q105 0 156 -4l11 154h82v-168z" />
    <glyph glyph-name="uni0491" unicode="&#x491;" horiz-adv-x="394" 
d="M382 636v-152l-6 -85h-171q-36 0 -36 -51v-348h-119v381q0 114 101 114q94 0 141 -2l11 143h79z" />
    <glyph glyph-name="uni04B0" unicode="&#x4b0;" horiz-adv-x="497" 
d="M425 213h-114v-213h-124v213h-113v70h94l-164 407h130l91 -268q5 -12 21 -83h8q8 52 20 83l90 268h129l-162 -407h93z" />
    <glyph glyph-name="uni04B1" unicode="&#x4b1;" horiz-adv-x="496" 
d="M330 87h93v-75h-112v-207h-124v207h-114v75h94l-163 403h130l90 -263q6 -14 21 -84h7q10 57 21 84l90 263h129z" />
    <glyph glyph-name="uni04B6" unicode="&#x4b6;" horiz-adv-x="561" 
d="M543 85v-236h-87l-10 151h-98v290q-86 -49 -167 -49q-73 0 -107.5 39.5t-34.5 123.5v286h125v-260q-2 -44 12.5 -62.5t50.5 -18.5q55 0 121 38v303h125v-605h70z" />
    <glyph glyph-name="uni04B7" unicode="&#x4b7;" horiz-adv-x="486" 
d="M467 93v-236h-79l-10 143h-94v189q-72 -28 -131 -28q-118 0 -118 110v219h119v-179q0 -31 9 -43t31 -12q44 0 90 25v209h121l-1 -397h63z" />
    <glyph glyph-name="uni04BA" unicode="&#x4ba;" horiz-adv-x="531" 
d="M349 449q73 0 108 -40t35 -123v-286h-125v260q2 44 -12.5 62.5t-50.5 18.5q-59 0 -122 -38v-303h-124v690h124v-289q40 23 87.5 35.5t79.5 12.5z" />
    <glyph glyph-name="uni04C0" unicode="&#x4c0;" horiz-adv-x="241" 
d="M183 0h-124v690h124v-690z" />
    <glyph glyph-name="Wgrave" unicode="&#x1e80;" horiz-adv-x="787" 
d="M450 777l-36 -54l-185 112l59 89zM765 690l-84 -655q-8 -35 -44 -35h-124q-38 0 -45 36l-58 481q-1 9 -3 25.5t-3.5 30t-2.5 25.5h-15q-1 -9 -2.5 -25.5t-3 -30t-3.5 -25.5l-57 -481q-3 -16 -15.5 -26t-29.5 -10h-125q-17 0 -29 9.5t-15 25.5l-84 655h129l50 -503
q1 -12 2.5 -27t3 -35t2.5 -32h15q2 21 12 94l56 463q7 40 45 40h114q37 0 44 -40l56 -464q7 -51 11 -93h16q3 46 8 92l51 505h128z" />
    <glyph glyph-name="wgrave" unicode="&#x1e81;" horiz-adv-x="683" 
d="M398 598l-36 -54l-185 112l59 89zM671 490l-97 -457q-6 -33 -42 -33h-101q-16 0 -29 10.5t-14 27.5l-33 301q-1 9 -2.5 25.5t-3 30t-3.5 25.5h-10l-9 -81l-32 -301q-2 -17 -15 -27.5t-30 -10.5h-98q-36 0 -42 33l-98 457h122l54 -337q9 -71 9 -77h10q7 44 11 77l33 301
q1 16 13 26t29 10h97q17 0 29 -10t13 -27l32 -300q1 -9 5.5 -35.5t5.5 -41.5h11q4 49 9 77l53 337h123z" />
    <glyph glyph-name="Wacute" unicode="&#x1e82;" horiz-adv-x="787" 
d="M547 835l-185 -112l-36 54l162 147zM765 690l-84 -655q-8 -35 -44 -35h-124q-38 0 -45 36l-58 481q-1 9 -3 25.5t-3.5 30t-2.5 25.5h-15q-1 -9 -2.5 -25.5t-3 -30t-3.5 -25.5l-57 -481q-3 -16 -15.5 -26t-29.5 -10h-125q-17 0 -29 9.5t-15 25.5l-84 655h129l50 -503
q1 -12 2.5 -27t3 -35t2.5 -32h15q2 21 12 94l56 463q7 40 45 40h114q37 0 44 -40l56 -464q7 -51 11 -93h16q3 46 8 92l51 505h128z" />
    <glyph glyph-name="wacute" unicode="&#x1e83;" horiz-adv-x="683" 
d="M496 656l-185 -112l-36 54l162 147zM671 490l-97 -457q-6 -33 -42 -33h-101q-16 0 -29 10.5t-14 27.5l-33 301q-1 9 -2.5 25.5t-3 30t-3.5 25.5h-10l-9 -81l-32 -301q-2 -17 -15 -27.5t-30 -10.5h-98q-36 0 -42 33l-98 457h122l54 -337q9 -71 9 -77h10q7 44 11 77l33 301
q1 16 13 26t29 10h97q17 0 29 -10t13 -27l32 -300q1 -9 5.5 -35.5t5.5 -41.5h11q4 49 9 77l53 337h123z" />
    <glyph glyph-name="Wdieresis" unicode="&#x1e84;" horiz-adv-x="787" 
d="M301 878h39q28 0 28 -31v-55q0 -30 -28 -30h-39q-28 0 -28 30v55q0 31 28 31zM447 878h39q28 0 28 -31v-55q0 -30 -28 -30h-39q-28 0 -28 30v55q0 31 28 31zM765 690l-84 -655q-8 -35 -44 -35h-124q-38 0 -45 36l-58 481q-1 9 -3 25.5t-3.5 30t-2.5 25.5h-15
q-1 -9 -2.5 -25.5t-3 -30t-3.5 -25.5l-57 -481q-3 -16 -15.5 -26t-29.5 -10h-125q-17 0 -29 9.5t-15 25.5l-84 655h129l50 -503q1 -12 2.5 -27t3 -35t2.5 -32h15q2 21 12 94l56 463q7 40 45 40h114q37 0 44 -40l56 -464q7 -51 11 -93h16q3 46 8 92l51 505h128z" />
    <glyph glyph-name="wdieresis" unicode="&#x1e85;" horiz-adv-x="683" 
d="M250 699h39q28 0 28 -31v-55q0 -30 -28 -30h-39q-28 0 -28 30v55q0 31 28 31zM396 699h39q28 0 28 -31v-55q0 -30 -28 -30h-39q-28 0 -28 30v55q0 31 28 31zM671 490l-97 -457q-6 -33 -42 -33h-101q-16 0 -29 10.5t-14 27.5l-33 301q-1 9 -2.5 25.5t-3 30t-3.5 25.5h-10
l-9 -81l-32 -301q-2 -17 -15 -27.5t-30 -10.5h-98q-36 0 -42 33l-98 457h122l54 -337q9 -71 9 -77h10q7 44 11 77l33 301q1 16 13 26t29 10h97q17 0 29 -10t13 -27l32 -300q1 -9 5.5 -35.5t5.5 -41.5h11q4 49 9 77l53 337h123z" />
    <glyph glyph-name="Ygrave" unicode="&#x1ef2;" horiz-adv-x="490" 
d="M264 724l-185 112l59 89l162 -147zM307 233v-233h-124v235l-183 455h130l91 -268q9 -26 20 -83h8q11 57 21 83l90 268h129z" />
    <glyph glyph-name="ygrave" unicode="&#x1ef3;" horiz-adv-x="453" 
d="M248 544l-185 112l59 89l162 -147zM446 490l-139 -506q-23 -81 -77.5 -136.5t-143.5 -50.5l-10 76q48 17 76 44.5t43 71.5l4 11h-25q-32 0 -40 30l-128 460h128l73 -337q7 -31 12 -66h10q4 14 10 38.5t7 27.5l72 337h128z" />
    <glyph glyph-name="endash" unicode="&#x2013;" horiz-adv-x="454" 
d="M407 211h-360v86h360v-86z" />
    <glyph glyph-name="emdash" unicode="&#x2014;" horiz-adv-x="694" 
d="M648 211h-601v86h601v-86z" />
    <glyph glyph-name="quoteleft" unicode="&#x2018;" horiz-adv-x="186" 
d="M108 474h-30q-24 0 -32.5 8.5t-8.5 30.5l-1 58q1 85 41 155l53 -14q-12 -49 -13 -113q34 0 34 -35v-51q-2 -22 -11.5 -30.5t-31.5 -8.5z" />
    <glyph glyph-name="quoteright" unicode="&#x2019;" horiz-adv-x="183" 
d="M77 719h30q23 0 32 -8.5t8 -30.5l1 -58q-1 -85 -41 -155l-52 14q12 57 12 113q-34 0 -34 35l1 51q2 22 11.5 30.5t31.5 8.5z" />
    <glyph glyph-name="quotesinglbase" unicode="&#x201a;" horiz-adv-x="195" 
d="M84 127h30q24 0 32.5 -8t8.5 -31l1 -59q-1 -86 -41 -157l-53 14q11 49 13 115q-34 0 -34 35v52q1 22 10.5 30.5t32.5 8.5z" />
    <glyph glyph-name="quotedblleft" unicode="&#x201c;" horiz-adv-x="335" 
d="M109 474h-30q-23 0 -32 8.5t-8 30.5l-1 58q1 85 41 156l52 -15q-12 -56 -12 -113q34 0 34 -35l-1 -51q-2 -22 -11.5 -30.5t-31.5 -8.5zM266 474h-31q-23 0 -32 8.5t-8 30.5l-1 58q1 85 41 156l53 -15q-11 -47 -13 -113q34 0 34 -35l-1 -51q-1 -22 -10.5 -30.5t-31.5 -8.5
z" />
    <glyph glyph-name="quotedblright" unicode="&#x201d;" horiz-adv-x="332" 
d="M77 719h30q23 0 32 -8.5t8 -30.5l1 -58q-1 -85 -41 -155l-52 14q12 57 12 113q-34 0 -34 35l1 51q2 22 11.5 30.5t31.5 8.5zM226 719h30q24 0 32.5 -8.5t8.5 -30.5l1 -58q-1 -85 -41 -155l-53 14q12 49 13 113q-34 0 -34 35v51q2 22 11.5 30.5t31.5 8.5z" />
    <glyph glyph-name="quotedblbase" unicode="&#x201e;" horiz-adv-x="344" 
d="M84 124h30q23 0 32 -9t8 -31l1 -58q-1 -84 -41 -155l-52 15q12 56 12 113q-34 0 -34 35l1 50q1 22 10.5 31t32.5 9zM233 124h30q24 0 32.5 -8.5t7.5 -31.5l1 -58q-1 -84 -41 -155l-52 15q12 56 12 113q-34 0 -34 35l1 50q1 22 10.5 31t32.5 9z" />
    <glyph glyph-name="dagger" unicode="&#x2020;" horiz-adv-x="383" 
d="M243 -110h-103l6 529v66l-5 206h102l-5 -206v-66zM25 392v98h104v-86zM358 490v-98l-104 12v86h104z" />
    <glyph glyph-name="daggerdbl" unicode="&#x2021;" horiz-adv-x="413" 
d="M253 489v-397l5 -202h-102l5 202v397l-5 202h102zM144 404l-104 -12v98h104v-86zM373 392l-104 12v86h104v-98zM144 177v-86h-104v98zM373 91h-104v86l104 12v-98z" />
    <glyph glyph-name="bullet" unicode="&#x2022;" horiz-adv-x="302" 
d="M148 371h12q46 0 64.5 -20.5t18.5 -73.5v-14q0 -56 -18 -77.5t-65 -21.5h-12q-50 0 -69 21.5t-19 77.5v14q0 53 19 73.5t69 20.5z" />
    <glyph glyph-name="ellipsis" unicode="&#x2026;" horiz-adv-x="734" 
d="M84 137h34q24 0 33.5 -9.5t9.5 -33.5v-51q0 -24 -9.5 -33.5t-33.5 -9.5h-34q-25 0 -34 9.5t-9 33.5v51q0 24 9 33.5t34 9.5zM350 137h35q23 0 32.5 -9.5t9.5 -33.5v-51q0 -24 -9.5 -33.5t-32.5 -9.5h-35q-24 0 -33 9.5t-9 33.5v51q0 24 9 33.5t33 9.5zM616 137h35
q24 0 33 -9.5t9 -33.5v-51q0 -24 -9 -33.5t-33 -9.5h-35q-24 0 -33 9.5t-9 33.5v51q0 24 9 33.5t33 9.5z" />
    <glyph glyph-name="perthousand" unicode="&#x2030;" horiz-adv-x="1049" 
d="M166 703q77 0 108 -46t31 -159q0 -112 -31 -158.5t-108 -46.5t-108 46.5t-31 158.5q0 113 31 159t108 46zM238 0h-78l335 690h78zM165 632q-29 0 -39 -27.5t-10 -106.5t10 -106.5t39 -27.5q30 0 40 27t10 107q0 79 -10 106.5t-40 27.5zM568 400q77 0 108 -46t31 -159
q0 -114 -30.5 -160t-108.5 -46q-77 0 -107.5 46t-30.5 160q0 113 30.5 159t107.5 46zM882 400q77 0 108 -46.5t31 -158.5q0 -114 -31 -160t-108 -46t-108 46t-31 160q0 112 31 158.5t108 46.5zM567 327q-29 0 -38.5 -26.5t-9.5 -105.5t10 -106.5t38 -27.5q30 0 41 28t11 106
t-11 105t-41 27zM881 327q-29 0 -39 -27t-10 -105q0 -79 10 -106.5t39 -27.5q30 0 40.5 27.5t10.5 106.5q0 78 -10.5 105t-40.5 27z" />
    <glyph glyph-name="guilsinglleft" unicode="&#x2039;" horiz-adv-x="263" 
d="M225 421l-85 -170l85 -174l-63 -41l-129 202v26l129 198z" />
    <glyph glyph-name="guilsinglright" unicode="&#x203a;" horiz-adv-x="265" 
d="M231 264v-26l-129 -202l-64 41l85 174l-84 170l63 41z" />
    <glyph glyph-name="fraction" unicode="&#x2044;" horiz-adv-x="129" 
d="M-63 0h-79l335 690h79z" />
    <glyph glyph-name="Euro" unicode="&#x20ac;" horiz-adv-x="535" 
d="M487 108l11 -94q-66 -26 -149 -26q-118 0 -176 63t-71 198h-67v71h63v25q0 24 1 36h-63v72h67q14 129 72.5 189t173.5 60q77 0 136 -22l-11 -95q-65 13 -134 7q-46 -5 -71 -38t-34 -101h184l-7 -72h-182l-1 -36v-25h165l-7 -71h-154q8 -76 33 -112t74 -39q85 -4 147 10z
" />
    <glyph glyph-name="trademark" unicode="&#x2122;" horiz-adv-x="796" 
d="M321 696v-69h-96v-311h-83v311h-97v69h276zM747 316h-76l-12 316h-7l-44 -238q-8 -27 -33 -27h-53q-25 0 -33 27l-44 238h-8l-10 -316h-76l12 348q2 32 29 32h78q25 0 33 -27l34 -192q2 -10 4.5 -29t3.5 -25h6q2 9 4.5 27.5t4.5 27.5l34 191q6 27 32 27h80q29 0 31 -32z
" />
    <glyph glyph-name="partialdiff" unicode="&#x2202;" horiz-adv-x="475" 
d="M94 614v89q101 2 163.5 -11.5t107 -53.5t61 -112.5t12.5 -188.5q-5 -176 -59 -262.5t-161 -86.5q-56 0 -95 21t-58.5 57.5t-27 77.5t-5.5 88q4 97 47 159.5t128 61.5q70 -2 111 -51q2 126 -41 169t-183 43zM222 92q49 0 68 57t26 177q-39 29 -79 29q-44 0 -63.5 -32
t-21.5 -92q-5 -139 70 -139z" />
    <glyph glyph-name="emptyset" unicode="&#x2205;" horiz-adv-x="685" 
d="M343 633q121 0 206.5 -85.5t85.5 -206.5t-85.5 -207t-206.5 -86t-207 86t-86 207t86 206.5t207 85.5zM343 545q-51 0 -122 -11l3 -45q60 9 119 9q66 0 66 -46q0 -21 -15 -44.5t-33.5 -42.5t-33.5 -52t-15 -72h54q0 35 14.5 64.5t32.5 46.5t32.5 43.5t14.5 56.5
q0 93 -117 93zM359 171h-39q-7 0 -7 -8v-37q0 -7 7 -7h39q8 0 8 7v37q0 8 -8 8z" />
    <glyph glyph-name="product" unicode="&#x220f;" horiz-adv-x="579" 
d="M553 592h-70v-692h-120v692h-147v-692h-120v692h-71v98h528v-98z" />
    <glyph glyph-name="summation" unicode="&#x2211;" horiz-adv-x="484" 
d="M443 593h-264l115 -253l-127 -368h284v-97h-417v97l125 368l-115 253v97h399v-97z" />
    <glyph glyph-name="minus" unicode="&#x2212;" horiz-adv-x="470" 
d="M422 250h-373v88h373v-88z" />
    <glyph glyph-name="radical" unicode="&#x221a;" horiz-adv-x="469" 
d="M461 876l-181 -868q-3 -8 -11 -8h-142q-8 0 -10 8l-102 482h98l80 -411h10l160 797h98z" />
    <glyph glyph-name="infinity" unicode="&#x221e;" horiz-adv-x="623" 
d="M467 450q51 0 85.5 -35.5t34.5 -104.5q0 -71 -37.5 -111.5t-93.5 -40.5q-75 0 -144 80q-73 -80 -148 -80q-54 0 -91 40.5t-37 111.5q0 69 35.5 104.5t90.5 35.5q79 0 150 -85q76 85 155 85zM183 242q25 0 43 15t40 46q-16 24 -23.5 34t-24 19.5t-37.5 9.5q-49 0 -49 -60
q0 -64 51 -64zM441 242q50 0 50 64q0 60 -48 60q-21 0 -37.5 -11.5t-24 -21t-23.5 -35.5q35 -56 83 -56z" />
    <glyph glyph-name="integral" unicode="&#x222b;" horiz-adv-x="290" 
d="M170 714q60 0 99 -4l-7 -87h-51q-19 0 -27 -14t-7 -50l40 -648q5 -68 -19 -100.5t-85 -32.5q-71 0 -92 4l7 87h48q20 0 28 15t7 53l-39 644q-4 64 23 98.5t75 34.5z" />
    <glyph glyph-name="approxequal" unicode="&#x2248;" horiz-adv-x="472" 
d="M147 456q22 -1 84 -26.5t84 -26.5q18 -1 22.5 8t4.5 40h76q13 -68 -11.5 -103t-81.5 -33q-24 1 -86 27t-83 27q-18 1 -22.5 -9t-4.5 -41h-76q-13 72 14 106t80 31zM147 263q22 -1 84 -27t84 -27q18 -1 22.5 8.5t4.5 39.5h76q13 -67 -11.5 -102t-81.5 -33q-24 1 -86 26.5
t-83 27.5q-18 1 -22.5 -9t-4.5 -42h-76q-13 72 14 106.5t80 31.5z" />
    <glyph glyph-name="notequal" unicode="&#x2260;" horiz-adv-x="470" 
d="M284 357l-63 -124h201v-88h-246l-60 -119l-39 21l49 98h-77v88h122l63 124h-185v88h229l55 109l40 -21l-45 -88h94v-88h-138z" />
    <glyph glyph-name="lessequal" unicode="&#x2264;" horiz-adv-x="447" 
d="M396 456l-243 -86l243 -79v-95l-345 127v95l345 133v-95zM398 63h-357v89h357v-89z" />
    <glyph glyph-name="greaterequal" unicode="&#x2265;" horiz-adv-x="447" 
d="M396 418v-95l-345 -127v95l243 79l-243 86v95zM406 63h-357v89h357v-89z" />
    <glyph glyph-name="lozenge" unicode="&#x25ca;" horiz-adv-x="458" 
d="M238 691l200 -336q5 -9 0 -18l-200 -338q-10 -11 -16 0l-202 338q-4 9 0 18l202 336q6 11 16 0zM114 346l116 -228l114 228l-114 226z" />
    <glyph glyph-name="c_t" horiz-adv-x="703" 
d="M574 402v-250q0 -32 9 -44t34 -12h50l13 -90q-46 -17 -112 -17q-55 0 -84.5 37.5t-29.5 105.5v270h-201q-54 0 -74 -32.5t-20 -123.5q0 -92 20.5 -125t74.5 -33q60 0 111 10l11 -80q-57 -30 -144 -30q-110 0 -155 58t-45 200q0 132 48 188t152 56h222v141h120v-141h109
v-88h-109z" />
    <glyph glyph-name="f_f_y" horiz-adv-x="1038" 
d="M1031 490l-139 -506q-23 -81 -77.5 -136.5t-143.5 -50.5l-10 76q48 17 75.5 44.5t42.5 71.5l4 11h-24q-32 0 -40 30l-89 334q-10 38 -38 38h-96v-402h-120v402h-170v-402h-119v402h-71v83l71 5v71q1 70 33.5 109t96.5 39q70 0 109 -9l-11 -86h-57q-30 0 -41 -14t-11 -55
v-55h170v81q0 148 130 148q82 0 128 -9l-11 -86h-75q-29 0 -40.5 -15.5t-11.5 -53.5v-65h128q94 0 121 -102l47 -235q6 -22 12 -66h11q3 13 9 36.5t7 29.5l72 337h128z" />
    <glyph glyph-name="f_t" horiz-adv-x="620" 
d="M492 402v-250q0 -32 9 -44t33 -12h50l13 -90q-45 -17 -112 -17q-54 0 -84 37.5t-30 105.5v270h-163v-402h-121v402h-71v83l71 5v81q0 148 131 148q74 0 114 -9l-10 -86h-62q-29 0 -40.5 -15.5t-11.5 -53.5v-65h163v141h121v-141h109v-88h-109z" />
    <glyph glyph-name="f_y" horiz-adv-x="748" 
d="M742 490l-139 -506q-23 -81 -78 -136.5t-144 -50.5l-9 76q90 32 119 116l4 11h-26q-31 0 -40 30l-89 334q-9 38 -37 38h-95v-402h-121v402h-71v83l71 5v81q0 148 131 148q83 0 128 -9l-11 -86h-75q-29 0 -40.5 -15.5t-11.5 -53.5v-65h127q95 0 120 -102l47 -235
q8 -28 13 -66h10q12 38 18 66l70 337h129z" />
    <glyph glyph-name="s_t" horiz-adv-x="721" 
d="M592 402v-250q0 -32 9 -44t34 -12h50l13 -90q-45 -17 -112 -17q-55 0 -84.5 37.5t-29.5 105.5v270h-250q-49 0 -61.5 -5.5t-12.5 -32.5q0 -26 9 -34t42 -19l100 -36q52 -18 74 -48.5t22 -92.5q0 -87 -40.5 -116t-141.5 -29q-94 0 -175 16l7 84q40 -3 136 -3q59 0 78.5 9
t19.5 38q0 13 -2.5 21.5t-12.5 15t-14.5 8t-24.5 8.5l-98 35q-55 18 -75.5 51t-20.5 93q0 72 37 99t131 26h273v141h120v-141h110v-88h-110z" />
    <glyph glyph-name="t_t" horiz-adv-x="638" 
d="M508 402v-250q0 -32 9 -44t34 -12h50l13 -90q-45 -17 -112 -17q-55 0 -84.5 37.5t-29.5 105.5v270h-181v-250q0 -32 9 -44t34 -12h50l13 -90q-45 -17 -112 -17q-55 0 -84.5 37.5t-29.5 105.5v270h-72v83l72 5v141h120v-141h181v141h120v-141h110v-88h-110z" />
    <glyph glyph-name="t_y" horiz-adv-x="765" 
d="M758 490l-139 -506q-23 -81 -78 -136.5t-144 -50.5l-10 76q92 32 119 116l4 11h-25q-31 0 -39 30l-90 334q-9 38 -37 38h-112v-250q0 -32 9 -44t34 -12h50l13 -90q-45 -17 -112 -17q-55 0 -84.5 37.5t-29.5 105.5v270h-72v83l72 5v141h120v-141h143q94 0 121 -102
l47 -235q10 -41 12 -66h10q8 28 18 66l71 337h129z" />
    <glyph glyph-name="brevecy" horiz-adv-x="318" 
d="M210 698h82q7 -61 -30 -104t-102 -43q-66 0 -103 42.5t-31 104.5h83q-3 -84 51 -84q52 0 50 84z" />
    </font>
</defs>
</svg>
