<?xml version="1.0" standalone="no"?>
<!DOCTYPE svg PUBLIC "-//W3C//DTD SVG 1.1//EN" "http://www.w3.org/Graphics/SVG/1.1/DTD/svg11.dtd" >
<svg xmlns="http://www.w3.org/2000/svg" xmlns:xlink="http://www.w3.org/1999/xlink" version="1.1">
<metadata>
Created by FontForge 20170731 at Wed Dec 13 19:44:06 2017
 By Aleksey,,,
Copyright (c) 2013, Natanael Gama (www.ndiscovered.com . info(at)ndiscovered.com), with Reserved Font Name Exo. This Font Software is licensed under the SIL Open Font License, Version 1.1.
</metadata>
<defs>
<font id="Exo2-ExtraBoldItalic" horiz-adv-x="602" >
  <font-face 
    font-family="Exo 2 Extra Bold"
    font-weight="800"
    font-style="italic"
    font-stretch="normal"
    units-per-em="1000"
    panose-1="0 0 9 0 0 0 0 0 0 0"
    ascent="800"
    descent="-200"
    x-height="497"
    cap-height="690"
    bbox="-455 -303 1346 1122"
    underline-thickness="50"
    underline-position="-200"
    slope="-8"
    unicode-range="U+0020-FB02"
  />
<missing-glyph horiz-adv-x="571" 
d="M558 649h-1l-86 -608l-6 -41h-430l98 690h430zM430 41l86 608h-348l-86 -608h348z" />
    <glyph glyph-name="fi" unicode="fi" horiz-adv-x="694" 
d="M644 728q27 0 40.5 -15t9.5 -42l-7 -52q-4 -27 -16 -38.5t-39 -11.5h-77q-28 0 -41.5 15t-9.5 42l8 52q3 27 15.5 38.5t39.5 11.5h77zM669 497l-70 -497h-182l53 383h-180l-62 -421q-23 -155 -183 -155q-40 0 -146 13l28 113h56q34 0 49 12.5t20 48.5l57 389h-82l14 109
l85 5l10 67q12 77 54.5 117.5t128.5 40.5q93 0 152 -13l-25 -112h-64q-34 0 -49.5 -14.5t-20.5 -50.5l-5 -35h362z" />
    <glyph glyph-name="fl" unicode="fl" horiz-adv-x="740" 
d="M696 126l8 -118q-39 -21 -125 -21q-74 0 -112 37t-29 101l67 474h-128q-32 0 -49 -15.5t-21 -51.5l-5 -35h117l-16 -114h-117l-59 -421q-22 -155 -182 -155q-40 0 -146 13l27 113h56q34 0 49.5 13t20.5 48l54 389h-84l14 109l86 5l9 67q11 77 54 118t129 40
q269 0 382 -22l-71 -535q-3 -23 4.5 -31t30.5 -8h36z" />
    <glyph glyph-name="f_f" unicode="ff" horiz-adv-x="787" 
d="M755 597q-34 0 -49 -13t-20 -48l-6 -39h126l-16 -114h-127l-61 -407q-23 -155 -183 -155q-52 0 -147 13l29 113h55q36 0 51.5 12.5t20.5 47.5l55 376h-192l-63 -421q-22 -155 -182 -155q-40 0 -147 13l28 113h56q35 0 51 13t20 48l57 389h-84l14 109l86 5l9 60
q23 155 183 155q98 0 159 -13l-28 -112h-69q-34 0 -49.5 -13t-19.5 -48l-4 -29h192l10 70q23 155 183 155q108 0 174 -13l-28 -112h-84z" />
    <glyph glyph-name="f_f_i" unicode="ffi" horiz-adv-x="1064" 
d="M1014 728q27 0 40.5 -15t9.5 -42l-7 -52q-4 -27 -16 -38.5t-39 -11.5h-78q-27 0 -40.5 15t-9.5 42l8 52q3 27 15.5 38.5t39.5 11.5h77zM1039 497l-69 -497h-182l53 383h-178l-61 -407q-23 -155 -183 -155q-52 0 -147 13l29 113h55q36 0 51.5 12.5t20.5 47.5l55 376h-192
l-63 -421q-22 -155 -182 -155q-40 0 -147 13l28 113h56q35 0 51 13t20 48l57 389h-84l14 109l86 5l9 60q23 155 183 155q98 0 159 -13l-28 -112h-69q-34 0 -49.5 -13t-19.5 -48l-4 -29h192l10 70q23 155 183 155q95 0 153 -13l-29 -112h-62q-34 0 -49 -13t-20 -48l-6 -39
h359z" />
    <glyph glyph-name="f_f_l" unicode="ffl" horiz-adv-x="1117" 
d="M1072 126l8 -118q-39 -21 -125 -21q-74 0 -112 37t-29 101l67 474h-128q-32 0 -48.5 -15.5t-21.5 -51.5l-5 -35h118l-16 -114h-118l-59 -407q-22 -155 -182 -155q-52 0 -146 13l28 113h56q34 0 49 12.5t20 47.5l53 376h-190l-63 -421q-22 -155 -182 -155q-40 0 -147 13
l28 113h56q35 0 51 13t20 48l57 389h-84l14 109l86 5l9 60q23 155 183 155q98 0 159 -13l-28 -112h-69q-34 0 -49.5 -13t-19.5 -48l-4 -29h189l10 67q10 77 53 118t130 40q269 0 382 -22l-71 -535q-3 -23 4.5 -31t30.5 -8h36z" />
    <glyph glyph-name=".notdef" horiz-adv-x="571" 
d="M558 649h-1l-86 -608l-6 -41h-430l98 690h430zM430 41l86 608h-348l-86 -608h348z" />
    <glyph glyph-name=".null" horiz-adv-x="0" 
 />
    <glyph glyph-name="nonmarkingreturn" horiz-adv-x="333" 
 />
    <glyph glyph-name="space" unicode=" " horiz-adv-x="213" 
 />
    <glyph glyph-name="exclam" unicode="!" horiz-adv-x="314" 
d="M303 695l-34 -250l-50 -222h-142l12 222l34 250h180zM154 170q32 0 48 -17.5t11 -49.5l-6 -44q-7 -59 -69 -59h-36q-69 0 -60 66l5 45q9 59 70 59h37z" />
    <glyph glyph-name="quotedbl" unicode="&#x22;" horiz-adv-x="385" 
d="M226 690l-42 -225h-107l21 225h128zM397 690l-42 -225h-107l21 225h128z" />
    <glyph glyph-name="numbersign" unicode="#" horiz-adv-x="728" 
d="M698 414h-111l-37 -118h111l-37 -107h-108l-59 -189h-137l59 189h-114l-59 -189h-137l59 189h-117l37 107h114l37 118h-114l36 107h112l53 169h137l-53 -169h114l53 169h137l-53 -169h113zM413 296l37 118h-114l-37 -118h114z" />
    <glyph glyph-name="dollar" unicode="$" horiz-adv-x="578" 
d="M333 552q-44 0 -61 -8t-21 -38q-4 -22 5 -33.5t42 -25.5l115 -52q79 -36 104 -83t16 -127q-13 -112 -69 -154t-188 -44l-24 -100h-135l26 107q-79 9 -136 24l19 132q195 -5 223 -5q54 0 73.5 9.5t24.5 38.5q4 22 -4.5 33t-33.5 21l-124 58q-78 37 -103.5 86.5
t-16.5 121.5q13 105 72.5 146t183.5 44l24 89h135l-25 -95q71 -8 122 -26l-18 -122q-177 3 -226 3z" />
    <glyph glyph-name="percent" unicode="%" horiz-adv-x="914" 
d="M249 704q100 0 137.5 -47.5t21.5 -165.5q-16 -114 -58 -156.5t-138 -42.5q-98 0 -135.5 48t-21.5 165q16 114 58 156.5t136 42.5zM767 690l-492 -690h-117l493 690h116zM247 607q-30 0 -40.5 -21t-19.5 -95q-9 -65 -4 -83.5t32 -18.5q30 0 41 21t20 95q8 65 2.5 83.5
t-31.5 18.5zM714 398q100 0 137.5 -47.5t21.5 -164.5q-16 -114 -58 -156.5t-138 -42.5q-99 0 -136 47.5t-21 164.5q16 114 58 156.5t136 42.5zM712 301q-30 0 -40.5 -20.5t-19.5 -94.5q-10 -65 -4.5 -83.5t32.5 -18.5q30 0 41 20.5t20 94.5q8 65 2.5 83.5t-31.5 18.5z" />
    <glyph glyph-name="ampersand" unicode="&#x26;" horiz-adv-x="754" 
d="M750 413l-17 -118h-80q-14 -69 -40 -122q-91 -186 -356 -186q-135 0 -190.5 47.5t-43.5 148.5q9 76 48 122t110 50l1 6q-52 4 -77 52t-13 114q10 56 33.5 92t62.5 54t81 24t105 6q98 0 172 -23l-29 -124q-72 13 -137 13q-56 0 -77 -14.5t-28 -62.5q-6 -46 8 -62.5
t55 -16.5h176q2 31 4 94h152q0 -49 -3 -94h83zM470 228q15 26 26 67h-175q-46 0 -69 -19t-29 -69q-5 -42 12 -58.5t64 -16.5q121 0 171 96z" />
    <glyph glyph-name="quotesingle" unicode="'" horiz-adv-x="214" 
d="M226 690l-42 -225h-107l21 225h128z" />
    <glyph glyph-name="parenleft" unicode="(" horiz-adv-x="369" 
d="M399 791l21 -80q-164 -66 -211 -405q-25 -147 -4.5 -251.5t95.5 -141.5l-23 -74q-152 45 -211 163t-31 317q29 200 115.5 314t248.5 158z" />
    <glyph glyph-name="parenright" unicode=")" horiz-adv-x="369" 
d="M98 787q152 -44 211 -162t31 -320q-29 -199 -116 -312.5t-248 -158.5l-22 80q164 70 212 406q25 151 5 254.5t-95 137.5z" />
    <glyph glyph-name="asterisk" unicode="*" horiz-adv-x="455" 
d="M334 692l-39 -172l92 -129l-82 -58l-50 120l-84 -120l-74 58l129 128l8 173h100zM102 619l110 -51l-3 -43l-27 -25l-119 25zM439 618l19 -95l-123 -26l-22 27l9 43z" />
    <glyph glyph-name="plus" unicode="+" horiz-adv-x="527" 
d="M506 369l-19 -134h-165l-23 -162h-133l23 162h-165l20 134h164l23 163h134l-23 -163h164z" />
    <glyph glyph-name="comma" unicode="," horiz-adv-x="251" 
d="M124 170q36 0 49.5 -15.5t8.5 -51.5l-9 -64q-7 -49 -30 -104t-52 -93l-76 28q21 52 41 133q-28 -1 -39 13t-8 43l7 49q6 35 22.5 48.5t51.5 13.5h34z" />
    <glyph glyph-name="hyphen" unicode="-" horiz-adv-x="396" 
d="M348 311l-16 -110h-294l16 110h294z" />
    <glyph glyph-name="period" unicode="." horiz-adv-x="249" 
d="M123 170q33 0 49 -17.5t11 -49.5l-6 -44q-7 -59 -69 -59h-39q-68 0 -60 66l6 45q9 59 70 59h38z" />
    <glyph glyph-name="slash" unicode="/" horiz-adv-x="580" 
d="M616 690l-501 -766h-147l500 766h148z" />
    <glyph glyph-name="zero" unicode="0" horiz-adv-x="643" 
d="M292 -13q-125 0 -189 51.5t-63 174.5q1 89 8 155.5t27.5 132.5t55.5 108t94 68t140 26q125 0 188.5 -51.5t63.5 -172.5q0 -88 -6.5 -154.5t-27 -133t-55.5 -109t-94.5 -69t-141.5 -26.5zM308 129q27 0 48 12t34 36.5t21.5 52t13 69.5t6.5 76.5t3 84.5q1 54 -19.5 77.5
t-67.5 23.5q-38 0 -63.5 -26t-37.5 -77.5t-17 -102.5t-6 -126q-1 -53 19 -76.5t66 -23.5z" />
    <glyph glyph-name="one" unicode="1" horiz-adv-x="451" 
d="M425 690l-97 -690h-187l67 460q8 54 17 82l-163 -39l-14 116l195 71h182z" />
    <glyph glyph-name="two" unicode="2" horiz-adv-x="582" 
d="M328 702q120 0 176.5 -30.5t56.5 -112.5q0 -72 -32 -126.5t-98 -112.5l-192 -171q44 13 98 13h192l-22 -162h-512l14 101q8 51 31 75l179 159q8 7 25.5 23t25.5 23.5t23 21.5t22 22t18 20t16.5 20.5t11.5 18.5t8.5 18.5t2.5 16.5q0 16 -14 21t-47 5q-127 0 -222 -5l3 140
q122 22 236 22z" />
    <glyph glyph-name="three" unicode="3" horiz-adv-x="566" 
d="M318 704q115 0 169 -33.5t54 -111.5q0 -79 -35 -132t-99 -60l-1 -4q111 -15 111 -124q0 -251 -296 -253q-99 0 -222 20l13 133q123 -7 185 -5q138 3 138 118q0 46 -70 46l-140 1l15 118h136q49 0 68.5 22t19.5 75q0 24 -15.5 33.5t-59.5 9.5q-90 0 -192 -2v131
q123 18 221 18z" />
    <glyph glyph-name="four" unicode="4" horiz-adv-x="643" 
d="M541 270h75l-14 -107l-75 -18h-4l-20 -145h-171l20 145h-262q-52 0 -74 36t1 77l233 432h179l-207 -395q-15 -25 8 -25h139l24 177l45 108h143z" />
    <glyph glyph-name="five" unicode="5" horiz-adv-x="553" 
d="M553 690l-26 -138h-269l-22 -102l82 -9q102 -13 148.5 -62t46.5 -120q0 -124 -76 -194t-211 -77q-86 -5 -230 20l25 141q101 -12 169 -8q137 7 137 110q0 26 -21.5 37.5t-76.5 17.5l-105 14q-29 4 -44.5 24.5t-10.5 48.5l59 297h425z" />
    <glyph glyph-name="six" unicode="6" horiz-adv-x="595" 
d="M387 454q87 0 131.5 -38t42.5 -103q-5 -166 -69 -245.5t-216 -79.5q-78 0 -126 16t-78 56t-33 107.5t9 170.5q13 92 34.5 156.5t49 105t68.5 63t85.5 31t107.5 8.5q102 0 169 -20l-24 -116q-56 1 -161 1q-64 0 -92 -31t-46 -126q60 44 148 44zM383 271q1 26 -15.5 41
t-53.5 15q-41 0 -93 -36q0 -2 -1 -5q-14 -106 -7 -130q8 -29 52 -32h17q29 0 49.5 12t31 34.5t15 46t5.5 54.5z" />
    <glyph glyph-name="seven" unicode="7" horiz-adv-x="539" 
d="M499 690q50 0 67.5 -27t-2.5 -68l-295 -595h-185l233 470q18 37 47 71l-303 -1l12 150h426z" />
    <glyph glyph-name="eight" unicode="8" horiz-adv-x="626" 
d="M355 703q148 0 200.5 -46t37.5 -146q-20 -138 -129 -151l-1 -4q125 -14 99 -191q-14 -99 -71.5 -139t-204.5 -40q-157 0 -215.5 46.5t-46.5 146.5q19 168 150 178l1 4q-104 15 -85 164q13 96 70 137t195 41zM352 577q-52 0 -71 -17t-26 -73q-5 -42 8.5 -55.5t66.5 -13.5
q51 0 69 16t25 67q7 47 -6.5 61.5t-65.5 14.5zM310 298q-55 0 -77 -18t-29 -79q-6 -47 10.5 -63t74.5 -16q54 0 75 18t28 75q7 52 -8.5 67.5t-73.5 15.5z" />
    <glyph glyph-name="nine" unicode="9" horiz-adv-x="596" 
d="M342 701q64 0 106.5 -10.5t71.5 -34.5t41 -66.5t12 -101.5t-12 -145q-15 -108 -39 -176t-64.5 -108.5t-94 -56t-134.5 -15.5q-113 0 -204 21l14 117q58 -1 181 -1q71 1 102.5 34.5t48.5 119.5q-58 -45 -141 -45q-48 0 -83 14t-53 37t-29 52.5t-10.5 61.5t3.5 63
q12 92 39 141.5t85 74t160 24.5zM229 466q-6 -62 4.5 -84t50.5 -22q55 0 105 34q11 72 9.5 110t-16.5 49.5t-56 11.5q-51 0 -70.5 -20t-26.5 -79z" />
    <glyph glyph-name="colon" unicode=":" horiz-adv-x="267" 
d="M157 457q33 0 49 -17.5t11 -49.5l-6 -44q-7 -59 -69 -59h-39q-68 0 -60 66l6 45q9 59 70 59h38zM117 171q33 0 49 -17.5t11 -49.5l-6 -44q-7 -59 -69 -59h-39q-68 0 -60 66l6 45q9 59 70 59h38z" />
    <glyph glyph-name="semicolon" unicode=";" horiz-adv-x="267" 
d="M172 457q33 0 49 -17.5t11 -49.5l-6 -44q-7 -59 -69 -59h-39q-68 0 -60 66l6 45q9 59 70 59h38zM133 170q36 0 49.5 -15.5t8.5 -51.5l-9 -64q-7 -49 -30 -104t-52 -93l-76 28q21 52 41 133q-28 -1 -39 13t-8 43l7 49q6 35 22.5 48.5t51.5 13.5h34z" />
    <glyph glyph-name="less" unicode="&#x3c;" horiz-adv-x="508" 
d="M492 533l-19 -146l-287 -84l261 -92l-18 -139l-406 160l19 140z" />
    <glyph glyph-name="equal" unicode="=" horiz-adv-x="575" 
d="M547 471l-19 -133h-469l19 133h469zM518 259l-20 -133h-469l20 133h469z" />
    <glyph glyph-name="greater" unicode="&#x3e;" horiz-adv-x="506" 
d="M82 533l404 -161l-19 -140l-448 -161l20 145l284 92l-258 92z" />
    <glyph glyph-name="question" unicode="?" horiz-adv-x="529" 
d="M330 712q114 0 166.5 -40t41.5 -122q-6 -39 -27 -72t-49.5 -58.5t-57.5 -51t-55 -62.5t-38 -82h-144q5 55 30 105t52.5 79.5t54.5 60.5t33 50q9 29 -2.5 38.5t-48.5 9.5q-71 0 -209 -2v121q6 1 23.5 4.5t22 4.5t20 3.5t21.5 3.5t20.5 3t23.5 2.5t24 2t29 1.5t31.5 0.5
t37.5 0.5zM248 170q33 0 49 -17.5t12 -49.5l-7 -44q-7 -59 -68 -59h-37q-69 0 -61 66l7 44q7 60 69 60h36z" />
    <glyph glyph-name="at" unicode="@" horiz-adv-x="812" 
d="M429 654q84 1 138 -3t99 -17.5t67.5 -35.5t35.5 -61t12 -90t-12 -127q-10 -70 -18.5 -114t-23 -85t-33 -63.5t-47 -39.5t-66 -23.5t-90.5 -6.5q-128 0 -159 92q-63 -92 -158 -92q-179 0 -139 243q12 72 33 118t54 68.5t67.5 30t87.5 7.5q98 0 257 -28l-44 -279
q-5 -37 23 -37q45 0 60.5 37.5t37.5 176.5v3q7 40 10.5 66t1.5 49t-4 35.5t-15.5 23.5t-23.5 15t-38 7t-49.5 3.5t-65.5 0.5h-342l9 116q150 8 335 10zM232 122q28 0 51 20t52 65l21 131q-24 1 -54 1q-49 0 -70 -19.5t-34 -95.5q-9 -70 -2.5 -86t36.5 -16z" />
    <glyph glyph-name="A" unicode="A" horiz-adv-x="664" 
d="M441 0l-16 161h-211l-63 -161h-196l277 645q19 45 67 45h172q23 0 40.5 -15t19.5 -37l98 -638h-188zM270 303h140l-18 176q-3 24 -3 72h-29q-9 -37 -21 -71z" />
    <glyph glyph-name="B" unicode="B" horiz-adv-x="647" 
d="M615 511q-10 -74 -41.5 -109.5t-99.5 -41.5l-1 -5q149 -13 124 -190q-15 -101 -72 -137t-187 -36q-213 0 -319 8l97 690q94 8 268 8q138 0 191.5 -40.5t39.5 -146.5zM436 499q5 38 -7 51t-51 13h-97l-20 -146h84q47 0 65.5 16t25.5 66zM410 216q7 50 -7 66t-62 16h-97
l-24 -171h83q57 0 78 17.5t29 71.5z" />
    <glyph glyph-name="C" unicode="C" horiz-adv-x="594" 
d="M389 702q125 0 217 -26l-22 -137q-105 3 -204 3q-45 0 -68.5 -14t-40 -57.5t-28.5 -132.5q-17 -114 -3.5 -152t76.5 -38q132 0 216 8l7 -138q-97 -30 -231 -30q-168 0 -228.5 83t-32.5 281q28 203 101 276.5t241 73.5z" />
    <glyph glyph-name="D" unicode="D" horiz-adv-x="690" 
d="M381 700q116 0 181 -31.5t90 -111.5t6 -219q-16 -109 -39.5 -175.5t-66.5 -105.5t-99.5 -53t-146.5 -14q-142 0 -287 10l97 690q123 10 265 10zM461 352q17 130 1 169t-87 39h-90l-60 -428q26 -1 79 -1q49 0 76.5 16t48 64t32.5 141z" />
    <glyph glyph-name="E" unicode="E" horiz-adv-x="580" 
d="M326 547q-27 0 -39 -10t-15 -36l-11 -82h259l-16 -128h-261l-14 -104q-4 -23 5.5 -33.5t34.5 -10.5h247l-4 -136q-85 -10 -320 -10q-85 0 -125 48t-29 129l52 374q10 68 54 106.5t118 38.5q242 0 334 -12l-22 -134h-248z" />
    <glyph glyph-name="F" unicode="F" horiz-adv-x="560" 
d="M334 547q-30 0 -42.5 -9.5t-16.5 -36.5l-13 -96h251l-17 -127h-252l-39 -278h-188l76 547q10 69 55.5 107.5t115.5 38.5q237 0 327 -13l-21 -133h-236z" />
    <glyph glyph-name="G" unicode="G" horiz-adv-x="658" 
d="M422 194l28 204h179l-56 -398h-137l-7 82q-94 -96 -204 -96q-226 0 -177 366q15 108 42 176.5t73.5 107.5t105 53.5t145.5 14.5q125 0 222 -28l-22 -135q-106 3 -207 3q-80 0 -113 -41.5t-51 -164.5q-15 -113 -2 -152t68 -39q26 0 49 8.5t32.5 15t31.5 23.5z" />
    <glyph glyph-name="H" unicode="H" horiz-adv-x="695" 
d="M503 690h188l-97 -690h-188l42 297h-199l-42 -297h-188l97 690h188l-36 -255h199z" />
    <glyph glyph-name="I" unicode="I" horiz-adv-x="308" 
d="M304 690l-97 -690h-188l97 690h188z" />
    <glyph glyph-name="J" unicode="J" horiz-adv-x="381" 
d="M379 690l-77 -558q-10 -70 -56.5 -107.5t-119.5 -37.5q-38 0 -82 7t-64 18l30 119h39q63 0 69 47l74 512h187z" />
    <glyph glyph-name="K" unicode="K" horiz-adv-x="651" 
d="M430 343q29 -16 50 -66l131 -277h-204l-122 295h-44q3 -39 -1 -68l-32 -227h-189l97 690h189l-28 -196q-5 -42 -17 -73h45l184 269h211l-203 -286q-25 -39 -66 -56z" />
    <glyph glyph-name="L" unicode="L" horiz-adv-x="541" 
d="M301 690l-72 -495q-2 -24 6.5 -34.5t33.5 -10.5h232l-4 -142q-90 -11 -312 -11q-74 0 -115 44t-31 116l74 533h188z" />
    <glyph glyph-name="M" unicode="M" horiz-adv-x="930" 
d="M840 690q33 0 50 -19t13 -51l-62 -620h-172l57 547h-15l-138 -389q-17 -55 -77 -55h-105q-31 0 -48.5 16.5t-19.5 45.5l-33 382h-16l-95 -547h-172l113 627q6 33 22 48t48 15h166q29 0 46.5 -16.5t18.5 -45.5l25 -306q3 -33 1 -101h12q9 39 28 99l105 314q15 56 76 56
h172z" />
    <glyph glyph-name="N" unicode="N" horiz-adv-x="724" 
d="M720 690l-88 -628q-5 -32 -21 -47t-48 -15h-78q-27 0 -40.5 13.5t-27.5 44.5l-126 297q-18 39 -33 109h-9q1 -58 -6 -119l-50 -345h-174l88 628q9 62 69 62h78q27 0 40 -13.5t27 -44.5l124 -285q25 -57 39 -116h10q-4 55 4 115l48 344h174z" />
    <glyph glyph-name="O" unicode="O" horiz-adv-x="691" 
d="M388 704q170 0 235 -80.5t37 -285.5q-14 -105 -39.5 -173t-68 -108t-98 -55.5t-138.5 -15.5q-173 0 -235 79.5t-34 286.5q28 203 103 277.5t238 74.5zM385 560q-66 0 -93.5 -43.5t-48.5 -178.5q-18 -126 -2.5 -167t79.5 -41q67 0 95 43.5t48 178.5q18 128 2.5 168
t-80.5 40z" />
    <glyph glyph-name="P" unicode="P" horiz-adv-x="625" 
d="M383 700q151 0 206 -52t37 -186q-18 -132 -75 -177.5t-191 -45.5q-58 0 -119 8l-35 -247h-187l97 690q96 10 267 10zM441 476q7 51 -6 69t-57 18h-93l-26 -187h86q50 0 68.5 18t27.5 82z" />
    <glyph glyph-name="Q" unicode="Q" horiz-adv-x="691" 
d="M388 704q170 0 235 -80.5t37 -285.5q-14 -105 -39.5 -173t-68 -108t-98 -55.5t-138.5 -15.5q-173 0 -235 79.5t-34 286.5q28 203 103 277.5t238 74.5zM385 560q-66 0 -93.5 -43.5t-48.5 -178.5q-18 -126 -2.5 -167t79.5 -41q67 0 95 43.5t48 178.5q18 128 2.5 168
t-80.5 40zM241 -31q112 -44 306 -74l-69 -157q-174 50 -292 138z" />
    <glyph glyph-name="R" unicode="R" horiz-adv-x="656" 
d="M636 485q-9 -70 -44 -111t-111 -49l-1 -7q76 -13 87 -108l30 -210h-193l-24 211q-2 30 -12 39.5t-36 9.5h-93l-37 -260h-183l97 690q96 10 268 10q141 0 204.5 -49t47.5 -166zM449 487q6 44 -8.5 60t-59.5 16h-100l-23 -166h90q51 0 72 18t29 72z" />
    <glyph glyph-name="S" unicode="S" horiz-adv-x="591" 
d="M350 703q137 0 237 -32l-17 -122q-180 3 -229 3q-47 0 -65 -8t-23 -38q-4 -22 5.5 -33.5t43.5 -25.5l119 -52q81 -35 106.5 -82.5t16.5 -127.5q-14 -116 -74 -157t-206 -41q-129 0 -255 31l18 132q202 -5 228 -5q56 0 77.5 9.5t26.5 38.5q4 22 -4.5 32t-36.5 22l-128 58
q-79 36 -105.5 86t-17.5 122q14 110 79 150t204 40z" />
    <glyph glyph-name="T" unicode="T" horiz-adv-x="607" 
d="M650 690l-20 -145h-197l-77 -545h-188l77 545h-197l20 145h582z" />
    <glyph glyph-name="U" unicode="U" horiz-adv-x="690" 
d="M692 690l-60 -413q-23 -163 -92 -227t-224 -64t-220 70t-44 228l58 406h188l-59 -413q-13 -86 3 -116.5t77 -30.5q63 0 88 32t39 122l58 406h188z" />
    <glyph glyph-name="V" unicode="V" horiz-adv-x="650" 
d="M704 690l-267 -643q-19 -47 -67 -47h-166q-24 0 -40.5 15.5t-19.5 38.5l-87 636h189l38 -466q3 -47 2 -86h26q8 37 25 84l170 468h197z" />
    <glyph glyph-name="W" unicode="W" horiz-adv-x="982" 
d="M1015 690l-186 -643q-14 -47 -67 -47h-165q-24 0 -42.5 16t-18.5 39l-2 404q3 92 3 97h-19q-11 -58 -21 -96l-116 -412q-14 -48 -67 -48h-168q-25 0 -43.5 16t-17.5 38l-9 636h186l-15 -452q-1 -18 -3 -54.5t-3 -53.5h19q13 65 28 116l113 391q14 53 68 53h141
q25 0 41.5 -17t17.5 -43l8 -393q2 -53 0 -107h19q9 60 23 113l110 447h186z" />
    <glyph glyph-name="X" unicode="X" horiz-adv-x="657" 
d="M698 690l-208 -337l122 -353h-186l-87 300h-1l-176 -300h-202l224 353l-110 337h183l81 -280h2l165 280h193z" />
    <glyph glyph-name="Y" unicode="Y" horiz-adv-x="629" 
d="M690 690l-294 -473l-30 -217h-189l32 227l-159 463h188l64 -237q10 -45 10 -95h13q6 42 32 95l132 237h201z" />
    <glyph glyph-name="Z" unicode="Z" horiz-adv-x="589" 
d="M603 690l-19 -136l-356 -418h306l-19 -136h-522l18 136l357 418h-288l19 136h504z" />
    <glyph glyph-name="bracketleft" unicode="[" horiz-adv-x="355" 
d="M394 768l-15 -112h-64q-26 0 -30 -24l-94 -665q-1 -20 17 -20h71l-16 -112h-164q-95 0 -83 94l106 752q6 41 32 64t66 23h174z" />
    <glyph glyph-name="backslash" unicode="\" horiz-adv-x="564" 
d="M207 690l290 -766h-136l-289 766h135z" />
    <glyph glyph-name="bracketright" unicode="]" horiz-adv-x="355" 
d="M259 768q41 0 64 -27t18 -67l-106 -752q-5 -41 -31 -64t-66 -23h-174l16 112h63q26 0 29 24l94 665q3 20 -16 20h-71l16 112h164z" />
    <glyph glyph-name="asciicircum" unicode="^" horiz-adv-x="481" 
d="M357 641l116 -233l-73 -37l-112 161h-8l-160 -161l-68 37l174 233h131z" />
    <glyph glyph-name="underscore" unicode="_" horiz-adv-x="448" 
d="M413 0l-15 -111h-448l15 111h448z" />
    <glyph glyph-name="grave" unicode="`" horiz-adv-x="374" 
d="M155 742l221 -149l-59 -76l-236 110z" />
    <glyph glyph-name="a" unicode="a" horiz-adv-x="603" 
d="M335 511q52 0 130 -10t114 -21l-68 -480h-140l-1 94q-70 -99 -198 -106q-99 -5 -131 63t-11 209q11 69 31 116t43.5 73.5t63 40.5t75 17.5t92.5 3.5zM243 130q57 3 118 88l25 168q-20 1 -60 1q-53 0 -76.5 -22.5t-34.5 -101.5q-13 -86 -8 -110t36 -23z" />
    <glyph glyph-name="b" unicode="b" horiz-adv-x="605" 
d="M425 510q91 0 126 -63t14 -202q-19 -128 -80 -192.5t-197 -64.5q-64 0 -148.5 11t-126.5 29l94 672h182l-19 -145q-8 -71 -30 -127q85 82 185 82zM381 258q9 68 3 88.5t-34 20.5q-46 0 -112 -49l-30 -202q41 -3 62 -2q54 2 76 29.5t35 114.5z" />
    <glyph glyph-name="c" unicode="c" horiz-adv-x="523" 
d="M304 511q127 0 211 -36l-25 -111q-67 1 -163 1q-56 0 -79 -24t-32 -91q-10 -73 5.5 -95t70.5 -22q93 0 162 8l13 -117q-83 -36 -208 -36q-135 0 -193.5 63.5t-38.5 204.5q19 138 80.5 196.5t196.5 58.5z" />
    <glyph glyph-name="d" unicode="d" horiz-adv-x="606" 
d="M430 700h182l-99 -700h-143l-2 84q-98 -96 -195 -96q-179 0 -143 272q10 76 29.5 126.5t49 77t62 37t75.5 10.5q93 0 160 -14q0 59 7 102zM215 263q-11 -68 -6 -96.5t37 -26.5q51 2 112 52l27 202h-61q-58 0 -78 -23t-31 -108z" />
    <glyph glyph-name="e" unicode="e" horiz-adv-x="576" 
d="M323 511q141 0 193 -44.5t39 -134.5q-10 -67 -57.5 -94.5t-150.5 -35.5l-135 -10q1 -38 20 -50.5t64 -12.5q95 0 198 12l12 -113q-89 -40 -228 -40q-154 0 -210 65.5t-41 201.5q17 149 85.5 202.5t210.5 53.5zM380 350q2 24 -10 31.5t-50 6.5q-47 -1 -66 -20.5t-31 -79.5
l84 8q37 3 53.5 13.5t19.5 40.5z" />
    <glyph glyph-name="f" unicode="f" horiz-adv-x="413" 
d="M382 597q-34 0 -49.5 -13t-20.5 -48l-6 -39h126l-15 -114h-127l-62 -421q-22 -155 -182 -155q-40 0 -147 13l28 113h56q35 0 50.5 13t20.5 48l56 389h-83l14 109l86 5l10 70q23 155 182 155q107 0 175 -13l-29 -112h-83z" />
    <glyph glyph-name="g" unicode="g" horiz-adv-x="607" 
d="M292 511q174 0 291 -31l-58 -411q-10 -82 -37.5 -137.5t-71.5 -84.5t-92 -40.5t-112 -11.5q-133 0 -205 31l10 102q32 -1 133 -1q156 0 193 76q8 16 19 53t22 56q-72 -111 -211 -117q-97 -4 -130 62.5t-12 202.5q13 86 35.5 138t59 76t71.5 30.5t95 6.5zM246 130
q59 7 120 88l24 168q-21 1 -63 1q-59 0 -79 -23t-32 -101q-13 -85 -6.5 -111t36.5 -22z" />
    <glyph glyph-name="h" unicode="h" horiz-adv-x="609" 
d="M439 511q72 0 107 -37t25 -105l-52 -369h-181l45 318q3 24 -2 31.5t-23 7.5q-50 0 -125 -58l-41 -299h-182l98 700h182l-22 -163q-8 -57 -28 -120q103 94 199 94z" />
    <glyph glyph-name="i" unicode="i" horiz-adv-x="291" 
d="M238 721q58 0 52 -57l-7 -52q-7 -50 -59 -50h-74q-57 0 -50 57l7 52q4 50 59 50h72zM264 497l-69 -497h-181l69 497h181z" />
    <glyph glyph-name="j" unicode="j" horiz-adv-x="292" 
d="M238 721q58 0 51 -57l-7 -52q-6 -50 -60 -50h-72q-58 0 -51 57l7 52q6 50 61 50h71zM267 497l-66 -458q-10 -75 -54.5 -139t-112.5 -95l-100 84q74 71 87 157l64 451h182z" />
    <glyph glyph-name="k" unicode="k" horiz-adv-x="588" 
d="M411 262q33 -27 49 -66l92 -196h-188l-85 193q-35 -14 -64 -24q0 -3 -0.5 -8t-0.5 -7l-22 -154h-182l98 700h182l-39 -285q-10 -59 -40 -123q67 36 117 90.5t64 114.5h186q-36 -145 -167 -235z" />
    <glyph glyph-name="l" unicode="l" horiz-adv-x="344" 
d="M290 700l-76 -531q-4 -23 4.5 -31t37.5 -8h42l10 -122q-41 -21 -131 -21q-77 0 -117 38t-32 104l81 571h181z" />
    <glyph glyph-name="m" unicode="m" horiz-adv-x="880" 
d="M715 511q71 0 104.5 -37.5t24.5 -104.5l-52 -369h-180l44 318q5 39 -27 39q-38 0 -97 -49l-43 -308h-175l44 318q4 22 -2 30.5t-24 8.5q-38 0 -98 -46l-43 -311h-181l70 497h141l4 -79q94 93 189 93q106 0 125 -81q87 81 176 81z" />
    <glyph glyph-name="n" unicode="n" horiz-adv-x="609" 
d="M446 511q64 0 100 -37t26 -105l-52 -369h-182l44 312q4 28 -2.5 37.5t-27.5 7.5q-49 -2 -118 -57l-42 -300h-182l69 497h143l2 -93q107 107 222 107z" />
    <glyph glyph-name="o" unicode="o" 
d="M322 511q146 0 204 -62.5t37 -207.5q-20 -140 -85.5 -196.5t-207.5 -56.5q-145 0 -204.5 62t-38.5 205q20 142 85 199t210 57zM319 383q-50 0 -70 -27.5t-33 -114.5q-11 -77 0.5 -101.5t59.5 -24.5q47 0 67 28t32 112q12 78 1 103t-57 25z" />
    <glyph glyph-name="p" unicode="p" horiz-adv-x="605" 
d="M426 509q173 0 137 -272q-10 -78 -30.5 -129t-52.5 -77t-66.5 -35.5t-83.5 -9.5q-70 0 -142 13q0 -45 -7 -93l-15 -91h-182l95 682h145l-1 -91q101 103 203 103zM378 234q11 82 5 107.5t-34 25.5q-51 0 -115 -62l-25 -202h59q61 0 79.5 23t30.5 108z" />
    <glyph glyph-name="q" unicode="q" horiz-adv-x="605" 
d="M302 511q69 0 152.5 -11t125.5 -30l-93 -655h-182l18 127q8 69 26 122q-86 -76 -170 -76q-94 0 -132 62.5t-18 202.5q10 69 26 113.5t46.5 79t79.5 50t121 15.5zM214 255q-11 -65 -4.5 -90t38.5 -25q43 0 109 52l28 190q-45 3 -63 2q-54 -2 -75 -26t-33 -103z" />
    <glyph glyph-name="r" unicode="r" horiz-adv-x="439" 
d="M429 511h34l-39 -167h-42q-42 0 -147 -35l-42 -309h-183l70 497h142l4 -79q105 93 203 93z" />
    <glyph glyph-name="s" unicode="s" horiz-adv-x="537" 
d="M274 511q144 -2 241 -22l-16 -109q-130 2 -192 2q-57 0 -74 -3t-19 -15q-1 -12 9.5 -19t41.5 -17l115 -37q123 -40 109 -154q-11 -89 -69 -118.5t-179 -29.5q-118 0 -238 20l15 109q12 0 72 -0.5t91 -0.5q81 0 106.5 5t27.5 19q1 11 -9 17t-47 18l-111 38
q-123 42 -106 164q9 69 61 101t171 32z" />
    <glyph glyph-name="t" unicode="t" horiz-adv-x="426" 
d="M295 383l-31 -214q-4 -24 3 -31.5t33 -7.5h62l9 -121q-58 -22 -153 -22q-74 0 -112.5 39t-28.5 105l37 252h-87l14 109l90 5l20 134h179l-19 -134h127l-16 -114h-127z" />
    <glyph glyph-name="u" unicode="u" horiz-adv-x="601" 
d="M399 497h180l-69 -497h-142l-1 89q-107 -103 -209 -103q-74 0 -108.5 37.5t-24.5 104.5l51 369h183l-46 -318q-3 -22 4.5 -31t24.5 -9q26 0 51 12.5t64 42.5z" />
    <glyph glyph-name="v" unicode="v" horiz-adv-x="589" 
d="M590 497q-17 -109 -58 -231q-32 -94 -77 -174q-33 -55 -69.5 -73.5t-102.5 -18.5h-133q-21 0 -35.5 13t-16.5 33l-64 451h198l16 -383h10q20 0 30.5 10t26.5 45q24 52 44 132q19 76 34 196h197z" />
    <glyph glyph-name="w" unicode="w" horiz-adv-x="908" 
d="M226 498l11 -381h8q15 0 25 13.5t20 45.5q12 36 25 102q3 16 27 174q3 18 16.5 31.5t36.5 13.5h157q20 0 33.5 -12.5t14.5 -32.5l14 -335h8q8 0 14 4t11 16t6.5 18.5t7.5 27.5q14 43 32 120q18 87 28 194h182q-19 -125 -47 -226t-58 -163q-28 -60 -66.5 -84t-119.5 -24
h-76q-22 0 -36.5 14t-14.5 34l-9 340h-13q-3 -46 -22 -142q-15 -75 -32 -121q-25 -80 -66 -102.5t-118 -22.5h-96q-21 0 -35.5 13.5t-16.5 34.5l-36 450h185z" />
    <glyph glyph-name="x" unicode="x" horiz-adv-x="585" 
d="M602 497l-172 -243l110 -254h-172l-81 199l-137 -199h-189l184 254l-101 243h170l73 -187h1l130 187h184z" />
    <glyph glyph-name="y" unicode="y" 
d="M410 497h194q-18 -118 -69 -255.5t-94 -211.5q-74 -124 -165.5 -180t-212.5 -55l-15 103q4 1 26 8t26.5 8.5t23 8t25 10.5t21.5 11.5t23.5 15t20 18t21.5 22.5h-70q-24 0 -41 14.5t-21 37.5l-71 445h198l26 -367q0 -16 16 -16h32q71 154 106 383z" />
    <glyph glyph-name="z" unicode="z" horiz-adv-x="531" 
d="M504 375h1l-280 -253h247l-16 -122h-462l16 122h-1l280 253h-237l16 122h451z" />
    <glyph glyph-name="braceleft" unicode="{" horiz-adv-x="355" 
d="M383 767l-12 -110q-39 0 -55 -10t-20 -42l-20 -138q-8 -67 -34.5 -99t-94.5 -42q110 -31 94 -140l-26 -189q-4 -27 8.5 -39t50.5 -12l-6 -112q-126 -18 -183 24.5t-45 122.5l32 230q1 8 1 15t-0.5 11.5t-3.5 8.5t-4.5 6.5t-7.5 5.5t-8.5 4.5t-11 4.5t-12.5 5l14 114
q20 6 27 9t16.5 10.5t13 19t6.5 31.5l24 172q11 81 73.5 119.5t183.5 19.5z" />
    <glyph glyph-name="bar" unicode="|" horiz-adv-x="269" 
d="M267 781l-134 -950h-127l134 950h127z" />
    <glyph glyph-name="braceright" unicode="}" horiz-adv-x="355" 
d="M92 769q126 18 183.5 -25t46.5 -122l-25 -173q-2 -10 -2 -18t-0.5 -13.5t2.5 -10t3.5 -7t6.5 -5t8 -3.5t11.5 -4t13.5 -4l-15 -114q-20 -8 -26.5 -11t-17.5 -10.5t-15.5 -18t-6.5 -26.5l-33 -229q-24 -174 -256 -139l12 110q39 0 54.5 9.5t19.5 40.5l28 197q9 57 36 88
t97 49q-60 9 -80 44t-10 100l20 138q4 26 -8.5 35.5t-51.5 9.5z" />
    <glyph glyph-name="asciitilde" unicode="~" horiz-adv-x="505" 
d="M137 370q32 -1 115 -24t84 -23q26 -5 36 6.5t14 38.5l76 -7q1 -77 -24 -116t-70 -38q-34 1 -115 23.5t-86 23.5q-25 4 -35 -7t-14 -39l-76 7q-2 78 25 116.5t70 38.5z" />
    <glyph glyph-name="uni00A0" unicode="&#xa0;" horiz-adv-x="213" 
 />
    <glyph glyph-name="exclamdown" unicode="&#xa1;" horiz-adv-x="299" 
d="M194 514q32 0 48 -17t12 -49l-7 -45q-7 -59 -69 -59h-36q-69 0 -60 66l5 44q10 60 71 60h36zM220 291l-12 -222l-34 -249h-180l34 249l50 222h142z" />
    <glyph glyph-name="cent" unicode="&#xa2;" horiz-adv-x="529" 
d="M337 463q-53 0 -75 -23.5t-31 -91.5q-10 -72 4.5 -94.5t67.5 -22.5q93 0 160 8l12 -116q-70 -33 -173 -36l-22 -87h-135l25 98q-159 41 -129 257q19 134 76.5 192.5t180.5 61.5l21 81h136l-24 -91q57 -10 93 -26l-26 -110h-161z" />
    <glyph glyph-name="sterling" unicode="&#xa3;" horiz-adv-x="589" 
d="M387 557q-37 0 -53 -12t-18 -45l-4 -91h160l-17 -90h-148l-1 -28q-3 -60 -26 -92t-69 -63q32 11 78 11h246l-19 -147h-513l17 149q96 42 101 149l1 21h-75l11 90h70l7 106q9 111 60.5 149.5t167.5 38.5q102 0 223 -10l-17 -137q-39 1 -182 1z" />
    <glyph glyph-name="currency" unicode="&#xa4;" horiz-adv-x="577" 
d="M500 345q-7 -55 -39 -101l64 -70l-80 -73l-64 71q-49 -26 -105 -26q-60 0 -106 30l-70 -64l-72 80l73 66q-18 46 -11 101t41 103l-64 70l81 73l65 -72q47 25 100 25q59 0 106 -28l74 67l72 -80l-76 -70q19 -46 11 -102zM192 353q-7 -47 19.5 -76t70.5 -29q47 0 78.5 28.5
t37.5 76.5q7 48 -18.5 76.5t-70.5 28.5q-49 0 -80 -28.5t-37 -76.5z" />
    <glyph glyph-name="yen" unicode="&#xa5;" horiz-adv-x="682" 
d="M714 690l-210 -340h87l-12 -90h-131l-22 -36h148l-13 -89h-151l-19 -135h-189l19 135h-149l11 89h151v2l-11 34h-134l11 90h92l-116 340h188l64 -237q9 -41 9 -95h13q6 44 33 95l131 237h200z" />
    <glyph glyph-name="brokenbar" unicode="&#xa6;" horiz-adv-x="271" 
d="M268 781l-57 -400h-127l57 400h127zM190 231l-56 -400h-127l56 400h127z" />
    <glyph glyph-name="section" unicode="&#xa7;" horiz-adv-x="541" 
d="M314 704q135 -3 227 -12l-20 -126q-35 2 -161 2q-49 0 -68.5 -7t-21.5 -28q-4 -29 38 -54l99 -59q78 -42 90 -103t-33 -149l-127 6q9 56 0 78t-53 51l-130 85q-28 20 -44.5 37t-28 50.5t-5.5 76.5q5 38 20 65.5t35.5 44t51.5 26.5t61 13t70 3zM68 345l126 -5
q-8 -57 1 -78.5t52 -49.5l131 -81q21 -13 30 -20.5t26 -28t22 -50.5t-1 -70q-13 -89 -68.5 -120t-167.5 -31q-131 0 -229 13l20 125q135 -3 146 -3q55 0 78.5 6.5t26.5 30.5q6 27 -29 48l-107 63q-78 42 -90 103t33 148z" />
    <glyph glyph-name="dieresis" unicode="&#xa8;" horiz-adv-x="430" 
d="M222 714q33 0 29 -31l-10 -71q-4 -31 -34 -31h-69q-32 0 -29 32l11 68q4 33 37 33h65zM405 714q33 0 29 -31l-11 -70q-4 -32 -34 -32h-68q-34 0 -29 32l10 69q6 32 36 32h67z" />
    <glyph glyph-name="copyright" unicode="&#xa9;" horiz-adv-x="798" 
d="M437 704q167 0 258.5 -100.5t72.5 -265.5q-17 -159 -122.5 -255.5t-269.5 -96.5q-166 0 -258.5 99t-73.5 267q19 160 125.5 256t267.5 96zM441 622q-130 0 -213 -76.5t-96 -207.5q-11 -124 51.5 -197t188.5 -73q127 0 211.5 76t97.5 208q12 123 -51 196.5t-189 73.5z
M440 547q66 0 130 -16l-14 -95q-22 0 -61 0.5t-63 0.5q-41 0 -56 -17t-22 -73q-7 -55 2 -72.5t43 -18.5q60 -3 131 3l8 -95q-61 -19 -136 -19q-116 0 -157.5 46t-26.5 162q14 110 63 152t159 42z" />
    <glyph glyph-name="ordfeminine" unicode="&#xaa;" horiz-adv-x="448" 
d="M269 616q106 2 169 -21l-45 -317h-102l-2 59q-44 -63 -127 -67q-71 -4 -94 41.5t-10 139.5q6 46 20 77t30.5 48.5t44.5 26.5t52 11t64 2zM211 370q34 2 73 53l15 107h-37q-32 0 -46.5 -14t-21.5 -65q-8 -53 -5 -67.5t22 -13.5z" />
    <glyph glyph-name="guillemotleft" unicode="&#xab;" horiz-adv-x="535" 
d="M193 468l94 -62l-103 -155l73 -161l-94 -62l-141 204l3 39zM415 468l94 -62l-103 -155l73 -161l-94 -62l-141 204l3 39z" />
    <glyph glyph-name="logicalnot" unicode="&#xac;" horiz-adv-x="573" 
d="M59 373h471l-34 -236h-143l15 103h-328z" />
    <glyph glyph-name="uni00AD" unicode="&#xad;" horiz-adv-x="398" 
d="M348 311l-16 -110h-294l16 110h294z" />
    <glyph glyph-name="registered" unicode="&#xae;" horiz-adv-x="508" 
d="M307 703q94 0 150.5 -63t43.5 -165q-13 -99 -79 -158t-168 -59q-96 0 -152 64.5t-43 165.5q14 98 80 156.5t168 58.5zM452 488q9 77 -33.5 123.5t-114.5 46.5q-84 0 -135 -49t-61 -133q-9 -79 34 -125.5t115 -46.5q84 0 135 49.5t60 134.5zM294 598q56 0 81.5 -15.5
t19.5 -54.5q-4 -42 -51 -49l-1 -2q26 -3 31 -37l9 -64h-77l-6 65q-1 14 -16 14h-32l-11 -79h-74l30 219q32 3 97 3zM320 523q2 13 -2 17.5t-19 4.5h-34l-6 -44h29q11 1 16.5 2t10 6t5.5 14z" />
    <glyph glyph-name="macron" unicode="&#xaf;" horiz-adv-x="400" 
d="M419 704l-15 -110h-311l16 110h310z" />
    <glyph glyph-name="degree" unicode="&#xb0;" horiz-adv-x="339" 
d="M214 699q62 0 101.5 -39.5t32.5 -101.5q-8 -58 -48 -92.5t-102 -34.5t-100 40t-31 101q7 57 46 92t101 35zM210 618q-24 0 -38.5 -13.5t-16.5 -36.5q-3 -26 10.5 -41t38.5 -15q24 0 39 14t17 38t-11 39t-39 15z" />
    <glyph glyph-name="plusminus" unicode="&#xb1;" horiz-adv-x="562" 
d="M371 448h165l-20 -134h-165l-16 -112h-132l16 112h-165l19 134h164l16 113h134zM13 31l20 134h462l-19 -134h-463z" />
    <glyph glyph-name="uni00B2" unicode="&#xb2;" horiz-adv-x="432" 
d="M277 781q87 0 125 -18t38 -71q0 -70 -86 -135l-110 -86q31 7 60 7l119 -3l-18 -115h-347l10 70q5 37 28 56l97 77q93 73 93 92q0 12 -39 12q-21 0 -63.5 -0.5t-74.5 -0.5l11 102q72 13 157 13z" />
    <glyph glyph-name="uni00B3" unicode="&#xb3;" horiz-adv-x="412" 
d="M277 783q81 0 116.5 -16.5t35.5 -56.5q0 -120 -95 -129v-2q78 -10 78 -72q0 -87 -44.5 -121.5t-141.5 -34.5q-82 0 -171 12l18 99q60 -2 126 -2q42 0 57 8t15 37q0 12 -9.5 17t-37.5 6l-86 2l12 85l87 3q30 0 41 8t11 30q0 11 -10 15t-38 4h-129l10 96q83 12 155 12z" />
    <glyph glyph-name="acute" unicode="&#xb4;" horiz-adv-x="374" 
d="M327 746l61 -128l-253 -101l-42 76z" />
    <glyph glyph-name="uni00B5" unicode="&#xb5;" horiz-adv-x="629" 
d="M559 104h40l-5 -92q-76 -24 -142 -24q-48 0 -74 21.5t-25 69.5v4q-61 -87 -150 -96l-7 -52l-40 -120h-158l44 313q0 1 0.5 3t0.5 3l50 363h183l-45 -313q-6 -42 31 -42q35 0 70 40t50 133l-1 -5l26 187h183l-49 -348q-4 -24 -0.5 -34.5t18.5 -10.5z" />
    <glyph glyph-name="paragraph" unicode="&#xb6;" horiz-adv-x="593" 
d="M384 702q108 0 185 -17l-96 -685h-112l83 593q-16 1 -45 1l-113 -804h-112l58 411q-222 26 -188 256q20 135 97 190t243 55z" />
    <glyph glyph-name="periodcentered" unicode="&#xb7;" horiz-adv-x="257" 
d="M151 343q33 0 49 -17.5t11 -49.5l-6 -44q-7 -59 -69 -59h-39q-68 0 -60 66l6 45q9 59 70 59h38z" />
    <glyph glyph-name="cedilla" unicode="&#xb8;" horiz-adv-x="256" 
d="M30 -35q52 5 89.5 4t56 -19.5t11.5 -56.5q-13 -77 -77.5 -111.5t-155.5 -22.5l21 71q88 0 99 52q1 6 0 9t-7.5 5t-18.5 2.5t-34 0.5z" />
    <glyph glyph-name="uni00B9" unicode="&#xb9;" horiz-adv-x="315" 
d="M335 774l-58 -414h-139l35 249q5 34 13 56l-102 -18l-3 87l115 40h139z" />
    <glyph glyph-name="ordmasculine" unicode="&#xba;" horiz-adv-x="435" 
d="M252 619q103 0 143 -42.5t26 -141.5q-13 -94 -56 -130.5t-141 -36.5q-102 0 -142.5 42t-27.5 139q13 94 58.5 132t139.5 38zM251 527q-29 0 -41.5 -18.5t-19.5 -73.5q-6 -41 1 -58.5t35 -17.5t40 18.5t19 71.5q7 48 0 63t-34 15z" />
    <glyph glyph-name="guillemotright" unicode="&#xbb;" horiz-adv-x="537" 
d="M108 28l-94 62l103 155l-73 161l94 62l141 -204l-3 -39zM330 28l-94 62l103 155l-73 161l94 62l141 -204l-3 -39z" />
    <glyph glyph-name="onequarter" unicode="&#xbc;" horiz-adv-x="932" 
d="M160 529q6 36 13 55l-96 -21l-4 87l110 40h139l-59 -414h-138zM616 690h117l-496 -690h-118zM888 170l-11 -78l-49 -11l-12 -81h-123l11 81h-172q-33 0 -45.5 25t3.5 52l139 256h126l-118 -228q-9 -16 7 -16h72l13 94l31 68h103l-23 -162h48z" />
    <glyph glyph-name="onehalf" unicode="&#xbd;" horiz-adv-x="928" 
d="M322 690l-59 -414h-139l36 253q4 32 12 55l-95 -21l-4 87l109 40h140zM729 690l-496 -690h-117l496 690h117zM717 421q93 0 136.5 -24.5t31.5 -95.5q-8 -53 -76 -104l-118 -85q25 6 58 6l121 -3l-16 -115h-344l11 74q5 39 22 55l97 76q77 58 92 82q7 12 1 18t-23 6h-142
l-1 98q66 12 150 12z" />
    <glyph glyph-name="threequarters" unicode="&#xbe;" horiz-adv-x="994" 
d="M383 383q-7 -57 -47.5 -86.5t-133.5 -29.5q-76 0 -162 12l7 98q33 -1 132 -1q35 0 49.5 10.5t17.5 30.5q2 15 -4.5 22t-28.5 7l-96 1l11 85l94 -1q22 0 31 9t10 28q2 12 -5 17t-29 5q-77 0 -131 1l-2 96q74 11 150 11q93 0 127 -23t26 -81q-12 -89 -92 -98l-3 -3
q91 -11 79 -110zM694 690h117l-495 -690h-117zM952 172l-10 -78l-51 -12l-11 -81h-122l11 81h-172q-32 0 -45 25t3 53l139 255h126l-119 -228q-7 -15 8 -15h72l13 92l31 69h102l-23 -161h48z" />
    <glyph glyph-name="questiondown" unicode="&#xbf;" horiz-adv-x="523" 
d="M321 514q32 0 48 -17t12 -49l-7 -45q-3 -31 -19 -45t-49 -14h-37q-68 0 -60 66l6 44q9 60 69 60h37zM347 289q-5 -60 -30 -111t-52 -79t-54.5 -57.5t-34.5 -47.5q-9 -23 3 -35t50 -12q78 0 210 2l-2 -122q-6 -1 -28 -5l-27.5 -5t-24.5 -4t-27.5 -4t-27.5 -3t-34 -2.5
t-37 -1t-46 -0.5q-115 0 -167 41.5t-41 120.5q5 39 26.5 71.5t50.5 57t58.5 50t55 63t36.5 83.5h143z" />
    <glyph glyph-name="Agrave" unicode="&#xc0;" horiz-adv-x="664" 
d="M489 797l-59 -76l-236 110l74 115zM441 0l-16 161h-211l-63 -161h-196l277 645q19 45 67 45h172q23 0 40.5 -15t19.5 -37l98 -638h-188zM270 303h140l-18 176q-3 24 -3 72h-29q-9 -37 -21 -71z" />
    <glyph glyph-name="Aacute" unicode="&#xc1;" horiz-adv-x="664" 
d="M604 822l-253 -101l-42 76l234 153zM441 0l-16 161h-211l-63 -161h-196l277 645q19 45 67 45h172q23 0 40.5 -15t19.5 -37l98 -638h-188zM270 303h140l-18 176q-3 24 -3 72h-29q-9 -37 -21 -71z" />
    <glyph glyph-name="Acircumflex" unicode="&#xc2;" horiz-adv-x="664" 
d="M399 815l-161 -95l-43 65l150 135h123l129 -140l-51 -60l-139 95h-8zM441 0l-16 161h-211l-63 -161h-196l277 645q19 45 67 45h172q23 0 40.5 -15t19.5 -37l98 -638h-188zM270 303h140l-18 176q-3 24 -3 72h-29q-9 -37 -21 -71z" />
    <glyph glyph-name="Atilde" unicode="&#xc3;" horiz-adv-x="664" 
d="M288 750l-75 7q-1 77 25.5 116t71.5 37q31 -1 87 -22t68 -23q26 -6 36.5 5.5t13.5 38.5l75 -7q3 -77 -23 -115.5t-70 -37.5q-33 1 -90.5 23t-69.5 24q-25 4 -35 -7t-14 -39zM441 0l-16 161h-211l-63 -161h-196l277 645q19 45 67 45h172q23 0 40.5 -15t19.5 -37l98 -638
h-188zM270 303h140l-18 176q-3 24 -3 72h-29q-9 -37 -21 -71z" />
    <glyph glyph-name="Adieresis" unicode="&#xc4;" horiz-adv-x="664" 
d="M271 762q-32 0 -29 32l11 68q4 33 37 33h65q33 0 29 -31l-10 -71q-4 -31 -34 -31h-69zM454 762q-34 0 -29 32l10 69q6 32 36 32h67q33 0 29 -31l-11 -70q-4 -32 -34 -32h-68zM441 0l-16 161h-211l-63 -161h-196l277 645q19 45 67 45h172q23 0 40.5 -15t19.5 -37l98 -638
h-188zM270 303h140l-18 176q-3 24 -3 72h-29q-9 -37 -21 -71z" />
    <glyph glyph-name="Aring" unicode="&#xc5;" horiz-adv-x="664" 
d="M402 715q-50 0 -84.5 30.5t-34.5 77.5q0 56 36.5 91.5t93.5 35.5q51 0 85 -30t34 -78q0 -56 -36.5 -91.5t-93.5 -35.5zM409 882q-22 0 -35.5 -14t-13.5 -38q0 -20 12.5 -33t32.5 -13q22 0 36 14.5t14 37.5q0 20 -12.5 33t-33.5 13zM441 0l-16 161h-211l-63 -161h-196
l277 645q19 45 67 45h172q23 0 40.5 -15t19.5 -37l98 -638h-188zM270 303h140l-18 176q-3 24 -3 72h-29q-9 -37 -21 -71z" />
    <glyph glyph-name="AE" unicode="&#xc6;" horiz-adv-x="945" 
d="M703 549q-27 0 -39 -10t-16 -36l-13 -87h249l-15 -121h-251l-16 -109q-2 -24 6.5 -34.5t33.5 -10.5h238l-3 -134q-92 -10 -317 -10q-72 0 -109 43.5t-27 114.5l2 15h-184l-102 -170h-195l339 548q34 56 71 85.5t100 44t166 14.5q215 0 341 -10l-23 -133h-236zM326 310
h120l29 205q5 36 25 64h-10q-4 -6 -36 -55z" />
    <glyph glyph-name="Ccedilla" unicode="&#xc7;" horiz-adv-x="594" 
d="M389 702q125 0 217 -26l-22 -137q-105 3 -204 3q-45 0 -68.5 -14t-40 -57.5t-28.5 -132.5q-17 -114 -3.5 -152t76.5 -38q132 0 216 8l7 -138q-97 -30 -231 -30q-168 0 -228.5 83t-32.5 281q28 203 101 276.5t241 73.5zM205 -56q52 5 89.5 4t56 -19.5t11.5 -56.5
q-13 -77 -77.5 -111.5t-155.5 -22.5l21 71q88 0 99 52q1 6 0 9t-7.5 5t-18.5 2.5t-34 0.5z" />
    <glyph glyph-name="Egrave" unicode="&#xc8;" horiz-adv-x="580" 
d="M474 802l-59 -76l-236 110l74 115zM326 547q-27 0 -39 -10t-15 -36l-11 -82h259l-16 -128h-261l-14 -104q-4 -23 5.5 -33.5t34.5 -10.5h247l-4 -136q-85 -10 -320 -10q-85 0 -125 48t-29 129l52 374q10 68 54 106.5t118 38.5q242 0 334 -12l-22 -134h-248z" />
    <glyph glyph-name="Eacute" unicode="&#xc9;" horiz-adv-x="580" 
d="M589 827l-253 -101l-42 76l234 153zM326 547q-27 0 -39 -10t-15 -36l-11 -82h259l-16 -128h-261l-14 -104q-4 -23 5.5 -33.5t34.5 -10.5h247l-4 -136q-85 -10 -320 -10q-85 0 -125 48t-29 129l52 374q10 68 54 106.5t118 38.5q242 0 334 -12l-22 -134h-248z" />
    <glyph glyph-name="Ecircumflex" unicode="&#xca;" horiz-adv-x="580" 
d="M384 820l-161 -95l-43 65l150 135h123l129 -140l-51 -60l-139 95h-8zM326 547q-27 0 -39 -10t-15 -36l-11 -82h259l-16 -128h-261l-14 -104q-4 -23 5.5 -33.5t34.5 -10.5h247l-4 -136q-85 -10 -320 -10q-85 0 -125 48t-29 129l52 374q10 68 54 106.5t118 38.5
q242 0 334 -12l-22 -134h-248z" />
    <glyph glyph-name="Edieresis" unicode="&#xcb;" horiz-adv-x="580" 
d="M256 767q-32 0 -29 32l11 68q4 33 37 33h65q33 0 29 -31l-10 -71q-4 -31 -34 -31h-69zM439 767q-34 0 -29 32l10 69q6 32 36 32h67q33 0 29 -31l-11 -70q-4 -32 -34 -32h-68zM326 547q-27 0 -39 -10t-15 -36l-11 -82h259l-16 -128h-261l-14 -104q-4 -23 5.5 -33.5
t34.5 -10.5h247l-4 -136q-85 -10 -320 -10q-85 0 -125 48t-29 129l52 374q10 68 54 106.5t118 38.5q242 0 334 -12l-22 -134h-248z" />
    <glyph glyph-name="Igrave" unicode="&#xcc;" horiz-adv-x="308" 
d="M93 946l221 -149l-59 -76l-236 110zM304 690l-97 -690h-188l97 690h188z" />
    <glyph glyph-name="Iacute" unicode="&#xcd;" horiz-adv-x="308" 
d="M368 950l61 -128l-253 -101l-42 76zM304 690l-97 -690h-188l97 690h188z" />
    <glyph glyph-name="Icircumflex" unicode="&#xce;" horiz-adv-x="308" 
d="M293 920l129 -140l-51 -60l-139 95h-8l-161 -95l-43 65l150 135h123zM304 690l-97 -690h-188l97 690h188z" />
    <glyph glyph-name="Idieresis" unicode="&#xcf;" horiz-adv-x="308" 
d="M180 895q33 0 29 -31l-10 -71q-4 -31 -34 -31h-69q-32 0 -29 32l11 68q4 33 37 33h65zM363 895q33 0 29 -31l-11 -70q-4 -32 -34 -32h-68q-34 0 -29 32l10 69q6 32 36 32h67zM304 690l-97 -690h-188l97 690h188z" />
    <glyph glyph-name="Eth" unicode="&#xd0;" horiz-adv-x="690" 
d="M381 700q116 0 181 -31.5t90 -111.5t6 -219q-16 -109 -39.5 -175.5t-66.5 -105.5t-99.5 -53t-146.5 -14q-142 0 -287 10l45 319h-51l12 89h51l40 282q123 10 265 10zM461 352q17 130 1 169t-87 39h-90l-22 -152h104l-13 -89h-103l-26 -187q26 -1 79 -1q49 0 76.5 16
t48 64t32.5 141z" />
    <glyph glyph-name="Ntilde" unicode="&#xd1;" horiz-adv-x="724" 
d="M340 910q31 -1 87 -22t68 -23q26 -6 36.5 5.5t13.5 38.5l75 -7q3 -77 -23 -115.5t-70 -37.5q-33 1 -90.5 23t-69.5 24q-25 4 -35 -7t-14 -39l-75 7q-1 77 25.5 116t71.5 37zM720 690l-88 -628q-5 -32 -21 -47t-48 -15h-78q-27 0 -40.5 13.5t-27.5 44.5l-126 297
q-18 39 -33 109h-9q1 -58 -6 -119l-50 -345h-174l88 628q9 62 69 62h78q27 0 40 -13.5t27 -44.5l124 -285q25 -57 39 -116h10q-4 55 4 115l48 344h174z" />
    <glyph glyph-name="Ograve" unicode="&#xd2;" horiz-adv-x="691" 
d="M281 946l221 -149l-59 -76l-236 110zM388 704q170 0 235 -80.5t37 -285.5q-14 -105 -39.5 -173t-68 -108t-98 -55.5t-138.5 -15.5q-173 0 -235 79.5t-34 286.5q28 203 103 277.5t238 74.5zM385 560q-66 0 -93.5 -43.5t-48.5 -178.5q-18 -126 -2.5 -167t79.5 -41
q67 0 95 43.5t48 178.5q18 128 2.5 168t-80.5 40z" />
    <glyph glyph-name="Oacute" unicode="&#xd3;" horiz-adv-x="691" 
d="M556 950l61 -128l-253 -101l-42 76zM388 704q170 0 235 -80.5t37 -285.5q-14 -105 -39.5 -173t-68 -108t-98 -55.5t-138.5 -15.5q-173 0 -235 79.5t-34 286.5q28 203 103 277.5t238 74.5zM385 560q-66 0 -93.5 -43.5t-48.5 -178.5q-18 -126 -2.5 -167t79.5 -41
q67 0 95 43.5t48 178.5q18 128 2.5 168t-80.5 40z" />
    <glyph glyph-name="Ocircumflex" unicode="&#xd4;" horiz-adv-x="691" 
d="M481 920l129 -140l-51 -60l-139 95h-8l-161 -95l-43 65l150 135h123zM388 704q170 0 235 -80.5t37 -285.5q-14 -105 -39.5 -173t-68 -108t-98 -55.5t-138.5 -15.5q-173 0 -235 79.5t-34 286.5q28 203 103 277.5t238 74.5zM385 560q-66 0 -93.5 -43.5t-48.5 -178.5
q-18 -126 -2.5 -167t79.5 -41q67 0 95 43.5t48 178.5q18 128 2.5 168t-80.5 40z" />
    <glyph glyph-name="Otilde" unicode="&#xd5;" horiz-adv-x="691" 
d="M323 910q31 -1 87 -22t68 -23q26 -6 36.5 5.5t13.5 38.5l75 -7q3 -77 -23 -115.5t-70 -37.5q-33 1 -90.5 23t-69.5 24q-25 4 -35 -7t-14 -39l-75 7q-1 77 25.5 116t71.5 37zM388 704q170 0 235 -80.5t37 -285.5q-14 -105 -39.5 -173t-68 -108t-98 -55.5t-138.5 -15.5
q-173 0 -235 79.5t-34 286.5q28 203 103 277.5t238 74.5zM385 560q-66 0 -93.5 -43.5t-48.5 -178.5q-18 -126 -2.5 -167t79.5 -41q67 0 95 43.5t48 178.5q18 128 2.5 168t-80.5 40z" />
    <glyph glyph-name="Odieresis" unicode="&#xd6;" horiz-adv-x="691" 
d="M368 895q33 0 29 -31l-10 -71q-4 -31 -34 -31h-69q-32 0 -29 32l11 68q4 33 37 33h65zM551 895q33 0 29 -31l-11 -70q-4 -32 -34 -32h-68q-34 0 -29 32l10 69q6 32 36 32h67zM388 704q170 0 235 -80.5t37 -285.5q-14 -105 -39.5 -173t-68 -108t-98 -55.5t-138.5 -15.5
q-173 0 -235 79.5t-34 286.5q28 203 103 277.5t238 74.5zM385 560q-66 0 -93.5 -43.5t-48.5 -178.5q-18 -126 -2.5 -167t79.5 -41q67 0 95 43.5t48 178.5q18 128 2.5 168t-80.5 40z" />
    <glyph glyph-name="multiply" unicode="&#xd7;" horiz-adv-x="525" 
d="M507 404l-144 -113l113 -112l-97 -106l-128 130l-165 -130l-69 110l143 112l-109 110l96 99l124 -122l167 131z" />
    <glyph glyph-name="Oslash" unicode="&#xd8;" horiz-adv-x="691" 
d="M677 740l-63 -106q75 -83 46 -296q-14 -105 -39.5 -173t-68 -108t-98 -55.5t-138.5 -15.5q-43 0 -88 5l-60 -98l-130 67l56 91q-77 80 -47 301q28 203 103 277.5t238 74.5q54 0 93 -7l65 110zM463 352q18 128 2.5 168t-80.5 40q-66 0 -93.5 -43.5t-48.5 -178.5
q-18 -126 -2.5 -167t79.5 -41q67 0 95 43.5t48 178.5z" />
    <glyph glyph-name="Ugrave" unicode="&#xd9;" horiz-adv-x="690" 
d="M281 946l221 -149l-59 -76l-236 110zM692 690l-60 -413q-23 -163 -92 -227t-224 -64t-220 70t-44 228l58 406h188l-59 -413q-13 -86 3 -116.5t77 -30.5q63 0 88 32t39 122l58 406h188z" />
    <glyph glyph-name="Uacute" unicode="&#xda;" horiz-adv-x="690" 
d="M556 950l61 -128l-253 -101l-42 76zM692 690l-60 -413q-23 -163 -92 -227t-224 -64t-220 70t-44 228l58 406h188l-59 -413q-13 -86 3 -116.5t77 -30.5q63 0 88 32t39 122l58 406h188z" />
    <glyph glyph-name="Ucircumflex" unicode="&#xdb;" horiz-adv-x="690" 
d="M481 920l129 -140l-51 -60l-139 95h-8l-161 -95l-43 65l150 135h123zM692 690l-60 -413q-23 -163 -92 -227t-224 -64t-220 70t-44 228l58 406h188l-59 -413q-13 -86 3 -116.5t77 -30.5q63 0 88 32t39 122l58 406h188z" />
    <glyph glyph-name="Udieresis" unicode="&#xdc;" horiz-adv-x="690" 
d="M368 895q33 0 29 -31l-10 -71q-4 -31 -34 -31h-69q-32 0 -29 32l11 68q4 33 37 33h65zM551 895q33 0 29 -31l-11 -70q-4 -32 -34 -32h-68q-34 0 -29 32l10 69q6 32 36 32h67zM692 690l-60 -413q-23 -163 -92 -227t-224 -64t-220 70t-44 228l58 406h188l-59 -413
q-13 -86 3 -116.5t77 -30.5q63 0 88 32t39 122l58 406h188z" />
    <glyph glyph-name="Yacute" unicode="&#xdd;" horiz-adv-x="629" 
d="M581 822l-253 -101l-42 76l234 153zM690 690l-294 -473l-30 -217h-189l32 227l-159 463h188l64 -237q10 -45 10 -95h13q6 42 32 95l132 237h201z" />
    <glyph glyph-name="Thorn" unicode="&#xde;" horiz-adv-x="624" 
d="M364 576q149 0 205.5 -51.5t38.5 -187.5q-18 -130 -75 -176.5t-188 -46.5q-60 0 -121 8l-17 -122h-188l97 690h188l-16 -114h76zM421 351q8 53 -4 70.5t-56 17.5h-92l-27 -188h85q48 0 66.5 18.5t27.5 81.5z" />
    <glyph glyph-name="germandbls" unicode="&#xdf;" horiz-adv-x="717" 
d="M618 267q41 -38 56 -71t8 -75q-11 -72 -58.5 -102t-155.5 -30q-59 0 -169 11l16 115q19 0 56.5 -0.5t57.5 -0.5q37 0 54.5 7t18.5 28q1 14 -9.5 27.5t-47.5 46.5l-44 31q-34 30 -48.5 57.5t-9.5 64.5q3 21 15 40.5t24.5 32t45.5 44.5q32 30 43 45.5t13 33.5q3 24 -9.5 32
t-54.5 8q-58 0 -80 -15.5t-29 -60.5l-80 -574q-11 -74 -54.5 -114.5t-130.5 -40.5q-37 0 -143 13l28 113h56q34 0 48.5 12.5t20.5 48.5l55 389h-85l14 109l87 5l9 67q14 100 75 136.5t198 36.5q154 0 205.5 -38t36.5 -128q-10 -65 -66 -118q-8 -7 -23.5 -21t-22.5 -21
t-14 -17t-9 -19q-2 -14 7.5 -25.5t37.5 -35.5z" />
    <glyph glyph-name="agrave" unicode="&#xe0;" horiz-adv-x="603" 
d="M442 612l-59 -76l-236 110l74 115zM335 511q52 0 130 -10t114 -21l-68 -480h-140l-1 94q-70 -99 -198 -106q-99 -5 -131 63t-11 209q11 69 31 116t43.5 73.5t63 40.5t75 17.5t92.5 3.5zM243 130q57 3 118 88l25 168q-20 1 -60 1q-53 0 -76.5 -22.5t-34.5 -101.5
q-13 -86 -8 -110t36 -23z" />
    <glyph glyph-name="aacute" unicode="&#xe1;" horiz-adv-x="603" 
d="M557 637l-253 -101l-42 76l234 153zM335 511q52 0 130 -10t114 -21l-68 -480h-140l-1 94q-70 -99 -198 -106q-99 -5 -131 63t-11 209q11 69 31 116t43.5 73.5t63 40.5t75 17.5t92.5 3.5zM243 130q57 3 118 88l25 168q-20 1 -60 1q-53 0 -76.5 -22.5t-34.5 -101.5
q-13 -86 -8 -110t36 -23z" />
    <glyph glyph-name="acircumflex" unicode="&#xe2;" horiz-adv-x="603" 
d="M352 630l-161 -95l-43 65l150 135h123l129 -140l-51 -60l-139 95h-8zM335 511q52 0 130 -10t114 -21l-68 -480h-140l-1 94q-70 -99 -198 -106q-99 -5 -131 63t-11 209q11 69 31 116t43.5 73.5t63 40.5t75 17.5t92.5 3.5zM243 130q57 3 118 88l25 168q-20 1 -60 1
q-53 0 -76.5 -22.5t-34.5 -101.5q-13 -86 -8 -110t36 -23z" />
    <glyph glyph-name="atilde" unicode="&#xe3;" horiz-adv-x="603" 
d="M241 565l-75 7q-1 77 25.5 116t71.5 37q31 -1 87 -22t68 -23q26 -6 36.5 5.5t13.5 38.5l75 -7q3 -77 -23 -115.5t-70 -37.5q-33 1 -90.5 23t-69.5 24q-25 4 -35 -7t-14 -39zM335 511q52 0 130 -10t114 -21l-68 -480h-140l-1 94q-70 -99 -198 -106q-99 -5 -131 63t-11 209
q11 69 31 116t43.5 73.5t63 40.5t75 17.5t92.5 3.5zM243 130q57 3 118 88l25 168q-20 1 -60 1q-53 0 -76.5 -22.5t-34.5 -101.5q-13 -86 -8 -110t36 -23z" />
    <glyph glyph-name="adieresis" unicode="&#xe4;" horiz-adv-x="603" 
d="M224 577q-32 0 -29 32l11 68q4 33 37 33h65q33 0 29 -31l-10 -71q-4 -31 -34 -31h-69zM407 577q-34 0 -29 32l10 69q6 32 36 32h67q33 0 29 -31l-11 -70q-4 -32 -34 -32h-68zM335 511q52 0 130 -10t114 -21l-68 -480h-140l-1 94q-70 -99 -198 -106q-99 -5 -131 63
t-11 209q11 69 31 116t43.5 73.5t63 40.5t75 17.5t92.5 3.5zM243 130q57 3 118 88l25 168q-20 1 -60 1q-53 0 -76.5 -22.5t-34.5 -101.5q-13 -86 -8 -110t36 -23z" />
    <glyph glyph-name="aring" unicode="&#xe5;" horiz-adv-x="603" 
d="M355 530q-50 0 -84.5 30.5t-34.5 77.5q0 56 36.5 91.5t93.5 35.5q51 0 85 -30t34 -78q0 -56 -36.5 -91.5t-93.5 -35.5zM362 697q-22 0 -35.5 -14t-13.5 -38q0 -20 12.5 -33t32.5 -13q22 0 36 14.5t14 37.5q0 20 -12.5 33t-33.5 13zM335 511q52 0 130 -10t114 -21
l-68 -480h-140l-1 94q-70 -99 -198 -106q-99 -5 -131 63t-11 209q11 69 31 116t43.5 73.5t63 40.5t75 17.5t92.5 3.5zM243 130q57 3 118 88l25 168q-20 1 -60 1q-53 0 -76.5 -22.5t-34.5 -101.5q-13 -86 -8 -110t36 -23z" />
    <glyph glyph-name="ae" unicode="&#xe6;" horiz-adv-x="904" 
d="M654 511q139 0 190.5 -44.5t38.5 -134.5q-10 -67 -57 -94.5t-149 -35.5l-137 -11q1 -37 21 -49.5t66 -12.5q93 0 194 12l11 -113q-87 -40 -223 -40q-191 0 -237 112q-69 -105 -201 -112q-98 -5 -129.5 63t-11.5 209q8 58 20.5 100t32 69t39 43.5t50.5 25t58 11t69 2.5
q105 0 215 -17q55 17 140 17zM709 350q2 24 -9.5 31.5t-49.5 6.5q-49 -1 -68.5 -20.5t-30.5 -80.5l85 9q37 3 53 13.5t20 40.5zM243 130q52 3 114 84q0 20 3 41q9 78 32 131q-23 1 -68 1q-54 0 -75 -22t-33 -102q-7 -46 -9 -70t1 -39.5t11 -20t24 -3.5z" />
    <glyph glyph-name="ccedilla" unicode="&#xe7;" horiz-adv-x="523" 
d="M304 511q127 0 211 -36l-25 -111q-67 1 -163 1q-56 0 -79 -24t-32 -91q-10 -73 5.5 -95t70.5 -22q93 0 162 8l13 -117q-83 -36 -208 -36q-135 0 -193.5 63.5t-38.5 204.5q19 138 80.5 196.5t196.5 58.5zM162 -47q52 5 89.5 4t56 -19.5t11.5 -56.5q-13 -77 -77.5 -111.5
t-155.5 -22.5l21 71q88 0 99 52q1 6 0 9t-7.5 5t-18.5 2.5t-34 0.5z" />
    <glyph glyph-name="egrave" unicode="&#xe8;" horiz-adv-x="576" 
d="M435 612l-59 -76l-236 110l74 115zM323 511q141 0 193 -44.5t39 -134.5q-10 -67 -57.5 -94.5t-150.5 -35.5l-135 -10q1 -38 20 -50.5t64 -12.5q95 0 198 12l12 -113q-89 -40 -228 -40q-154 0 -210 65.5t-41 201.5q17 149 85.5 202.5t210.5 53.5zM380 350q2 24 -10 31.5
t-50 6.5q-47 -1 -66 -20.5t-31 -79.5l84 8q37 3 53.5 13.5t19.5 40.5z" />
    <glyph glyph-name="eacute" unicode="&#xe9;" horiz-adv-x="576" 
d="M550 637l-253 -101l-42 76l234 153zM323 511q141 0 193 -44.5t39 -134.5q-10 -67 -57.5 -94.5t-150.5 -35.5l-135 -10q1 -38 20 -50.5t64 -12.5q95 0 198 12l12 -113q-89 -40 -228 -40q-154 0 -210 65.5t-41 201.5q17 149 85.5 202.5t210.5 53.5zM380 350q2 24 -10 31.5
t-50 6.5q-47 -1 -66 -20.5t-31 -79.5l84 8q37 3 53.5 13.5t19.5 40.5z" />
    <glyph glyph-name="ecircumflex" unicode="&#xea;" horiz-adv-x="576" 
d="M345 630l-161 -95l-43 65l150 135h123l129 -140l-51 -60l-139 95h-8zM323 511q141 0 193 -44.5t39 -134.5q-10 -67 -57.5 -94.5t-150.5 -35.5l-135 -10q1 -38 20 -50.5t64 -12.5q95 0 198 12l12 -113q-89 -40 -228 -40q-154 0 -210 65.5t-41 201.5q17 149 85.5 202.5
t210.5 53.5zM380 350q2 24 -10 31.5t-50 6.5q-47 -1 -66 -20.5t-31 -79.5l84 8q37 3 53.5 13.5t19.5 40.5z" />
    <glyph glyph-name="edieresis" unicode="&#xeb;" horiz-adv-x="576" 
d="M217 577q-32 0 -29 32l11 68q4 33 37 33h65q33 0 29 -31l-10 -71q-4 -31 -34 -31h-69zM400 577q-34 0 -29 32l10 69q6 32 36 32h67q33 0 29 -31l-11 -70q-4 -32 -34 -32h-68zM323 511q141 0 193 -44.5t39 -134.5q-10 -67 -57.5 -94.5t-150.5 -35.5l-135 -10
q1 -38 20 -50.5t64 -12.5q95 0 198 12l12 -113q-89 -40 -228 -40q-154 0 -210 65.5t-41 201.5q17 149 85.5 202.5t210.5 53.5zM380 350q2 24 -10 31.5t-50 6.5q-47 -1 -66 -20.5t-31 -79.5l84 8q37 3 53.5 13.5t19.5 40.5z" />
    <glyph glyph-name="igrave" unicode="&#xec;" horiz-adv-x="292" 
d="M57 761l221 -149l-59 -76l-236 110zM266 497l-69 -497h-183l70 497h182z" />
    <glyph glyph-name="iacute" unicode="&#xed;" horiz-adv-x="292" 
d="M332 765l61 -128l-253 -101l-42 76zM266 497l-69 -497h-183l70 497h182z" />
    <glyph glyph-name="icircumflex" unicode="&#xee;" horiz-adv-x="292" 
d="M257 735l129 -140l-51 -60l-139 95h-8l-161 -95l-43 65l150 135h123zM266 497l-69 -497h-183l70 497h182z" />
    <glyph glyph-name="idieresis" unicode="&#xef;" horiz-adv-x="292" 
d="M144 710q33 0 29 -31l-10 -71q-4 -31 -34 -31h-69q-32 0 -29 32l11 68q4 33 37 33h65zM327 710q33 0 29 -31l-11 -70q-4 -32 -34 -32h-68q-34 0 -29 32l10 69q6 32 36 32h67zM266 497l-69 -497h-183l70 497h182z" />
    <glyph glyph-name="eth" unicode="&#xf0;" horiz-adv-x="591" 
d="M596 645l-80 -68q61 -101 37 -295q-20 -160 -90 -228t-210 -68q-126 0 -185.5 58.5t-43.5 177.5q15 118 73 174t162 56q73 0 116 -30q0 97 -44.5 132t-157.5 28l21 116q139 8 223 -32l90 79zM265 115q47 0 66.5 38t33.5 143l3 21q-30 14 -60 14q-45 0 -64.5 -25.5
t-29.5 -86.5q-9 -61 1 -82.5t50 -21.5z" />
    <glyph glyph-name="ntilde" unicode="&#xf1;" horiz-adv-x="609" 
d="M238 565l-75 7q-1 77 25.5 116t71.5 37q31 -1 87 -22t68 -23q26 -6 36.5 5.5t13.5 38.5l75 -7q3 -77 -23 -115.5t-70 -37.5q-33 1 -90.5 23t-69.5 24q-25 4 -35 -7t-14 -39zM446 511q64 0 100 -37t26 -105l-52 -369h-182l44 312q4 28 -2.5 37.5t-27.5 7.5
q-49 -2 -118 -57l-42 -300h-182l69 497h143l2 -93q107 107 222 107z" />
    <glyph glyph-name="ograve" unicode="&#xf2;" 
d="M214 761l221 -149l-59 -76l-236 110zM322 511q146 0 204 -62.5t37 -207.5q-20 -140 -85.5 -196.5t-207.5 -56.5q-145 0 -204.5 62t-38.5 205q20 142 85 199t210 57zM319 383q-50 0 -70 -27.5t-33 -114.5q-11 -77 0.5 -101.5t59.5 -24.5q47 0 67 28t32 112q12 78 1 103
t-57 25z" />
    <glyph glyph-name="oacute" unicode="&#xf3;" 
d="M489 765l61 -128l-253 -101l-42 76zM322 511q146 0 204 -62.5t37 -207.5q-20 -140 -85.5 -196.5t-207.5 -56.5q-145 0 -204.5 62t-38.5 205q20 142 85 199t210 57zM319 383q-50 0 -70 -27.5t-33 -114.5q-11 -77 0.5 -101.5t59.5 -24.5q47 0 67 28t32 112q12 78 1 103
t-57 25z" />
    <glyph glyph-name="ocircumflex" unicode="&#xf4;" 
d="M414 735l129 -140l-51 -60l-139 95h-8l-161 -95l-43 65l150 135h123zM322 511q146 0 204 -62.5t37 -207.5q-20 -140 -85.5 -196.5t-207.5 -56.5q-145 0 -204.5 62t-38.5 205q20 142 85 199t210 57zM319 383q-50 0 -70 -27.5t-33 -114.5q-11 -77 0.5 -101.5t59.5 -24.5
q47 0 67 28t32 112q12 78 1 103t-57 25z" />
    <glyph glyph-name="otilde" unicode="&#xf5;" 
d="M256 725q31 -1 87 -22t68 -23q26 -6 36.5 5.5t13.5 38.5l75 -7q3 -77 -23 -115.5t-70 -37.5q-33 1 -90.5 23t-69.5 24q-25 4 -35 -7t-14 -39l-75 7q-1 77 25.5 116t71.5 37zM322 511q146 0 204 -62.5t37 -207.5q-20 -140 -85.5 -196.5t-207.5 -56.5q-145 0 -204.5 62
t-38.5 205q20 142 85 199t210 57zM319 383q-50 0 -70 -27.5t-33 -114.5q-11 -77 0.5 -101.5t59.5 -24.5q47 0 67 28t32 112q12 78 1 103t-57 25z" />
    <glyph glyph-name="odieresis" unicode="&#xf6;" 
d="M301 710q33 0 29 -31l-10 -71q-4 -31 -34 -31h-69q-32 0 -29 32l11 68q4 33 37 33h65zM484 710q33 0 29 -31l-11 -70q-4 -32 -34 -32h-68q-34 0 -29 32l10 69q6 32 36 32h67zM322 511q146 0 204 -62.5t37 -207.5q-20 -140 -85.5 -196.5t-207.5 -56.5q-145 0 -204.5 62
t-38.5 205q20 142 85 199t210 57zM319 383q-50 0 -70 -27.5t-33 -114.5q-11 -77 0.5 -101.5t59.5 -24.5q47 0 67 28t32 112q12 78 1 103t-57 25z" />
    <glyph glyph-name="divide" unicode="&#xf7;" horiz-adv-x="537" 
d="M324 568q40 0 55 -15.5t9 -54.5l-2 -22q-6 -40 -23 -55t-56 -15h-41q-41 0 -55.5 16t-9.5 56l3 22q6 40 24 54t59 14h37zM513 359l-20 -133h-469l20 133h469zM266 176q41 0 56 -15.5t9 -55.5l-3 -23q-5 -40 -21.5 -54t-56.5 -14h-41q-41 0 -56 16t-8 56l3 22
q4 39 22.5 53.5t59.5 14.5h36z" />
    <glyph glyph-name="oslash" unicode="&#xf8;" 
d="M510 463q76 -63 53 -222q-20 -140 -85.5 -196.5t-207.5 -56.5q-18 0 -50 2l-58 -94l-114 62l43 70q-87 59 -64 227q20 142 85 199t210 57q34 0 63 -3l60 96l114 -63zM375 255q12 78 1 103t-57 25q-50 0 -70 -27.5t-33 -114.5q-11 -77 0.5 -101.5t59.5 -24.5q47 0 67 28
t32 112z" />
    <glyph glyph-name="ugrave" unicode="&#xf9;" horiz-adv-x="601" 
d="M434 621l-59 -76l-236 110l74 115zM399 497h180l-69 -497h-142l-1 89q-107 -103 -209 -103q-74 0 -108.5 37.5t-24.5 104.5l51 369h183l-46 -318q-3 -22 4.5 -31t24.5 -9q26 0 51 12.5t64 42.5z" />
    <glyph glyph-name="uacute" unicode="&#xfa;" horiz-adv-x="601" 
d="M549 646l-253 -101l-42 76l234 153zM399 497h180l-69 -497h-142l-1 89q-107 -103 -209 -103q-74 0 -108.5 37.5t-24.5 104.5l51 369h183l-46 -318q-3 -22 4.5 -31t24.5 -9q26 0 51 12.5t64 42.5z" />
    <glyph glyph-name="ucircumflex" unicode="&#xfb;" horiz-adv-x="601" 
d="M344 639l-161 -95l-43 65l150 135h123l129 -140l-51 -60l-139 95h-8zM399 497h180l-69 -497h-142l-1 89q-107 -103 -209 -103q-74 0 -108.5 37.5t-24.5 104.5l51 369h183l-46 -318q-3 -22 4.5 -31t24.5 -9q26 0 51 12.5t64 42.5z" />
    <glyph glyph-name="udieresis" unicode="&#xfc;" horiz-adv-x="601" 
d="M216 586q-32 0 -29 32l11 68q4 33 37 33h65q33 0 29 -31l-10 -71q-4 -31 -34 -31h-69zM399 586q-34 0 -29 32l10 69q6 32 36 32h67q33 0 29 -31l-11 -70q-4 -32 -34 -32h-68zM399 497h180l-69 -497h-142l-1 89q-107 -103 -209 -103q-74 0 -108.5 37.5t-24.5 104.5l51 369
h183l-46 -318q-3 -22 4.5 -31t24.5 -9q26 0 51 12.5t64 42.5z" />
    <glyph glyph-name="yacute" unicode="&#xfd;" 
d="M537 637l-253 -101l-42 76l234 153zM410 497h194q-18 -118 -69 -255.5t-94 -211.5q-74 -124 -165.5 -180t-212.5 -55l-15 103q4 1 26 8t26.5 8.5t23 8t25 10.5t21.5 11.5t23.5 15t20 18t21.5 22.5h-70q-24 0 -41 14.5t-21 37.5l-71 445h198l26 -367q0 -16 16 -16h32
q71 154 106 383z" />
    <glyph glyph-name="thorn" unicode="&#xfe;" horiz-adv-x="605" 
d="M418 509q94 0 128.5 -64.5t17.5 -207.5q-17 -137 -73 -194t-145 -57q-88 0 -156 13q-4 -54 -9 -79l-15 -105h-181l123 885h182l-16 -119q-10 -73 -26 -136l3 -7q73 71 167 71zM378 234q11 74 5.5 103.5t-36.5 29.5q-60 0 -116 -86l-24 -178h62q58 0 78 23t31 108z" />
    <glyph glyph-name="ydieresis" unicode="&#xff;" 
d="M204 577q-32 0 -29 32l11 68q4 33 37 33h65q33 0 29 -31l-10 -71q-4 -31 -34 -31h-69zM387 577q-34 0 -29 32l10 69q6 32 36 32h67q33 0 29 -31l-11 -70q-4 -32 -34 -32h-68zM410 497h194q-18 -118 -69 -255.5t-94 -211.5q-74 -124 -165.5 -180t-212.5 -55l-15 103
q4 1 26 8t26.5 8.5t23 8t25 10.5t21.5 11.5t23.5 15t20 18t21.5 22.5h-70q-24 0 -41 14.5t-21 37.5l-71 445h198l26 -367q0 -16 16 -16h32q71 154 106 383z" />
    <glyph glyph-name="Amacron" unicode="&#x100;" horiz-adv-x="664" 
d="M567 884l-15 -110h-311l16 110h310zM441 0l-16 161h-211l-63 -161h-196l277 645q19 45 67 45h172q23 0 40.5 -15t19.5 -37l98 -638h-188zM270 303h140l-18 176q-3 24 -3 72h-29q-9 -37 -21 -71z" />
    <glyph glyph-name="amacron" unicode="&#x101;" horiz-adv-x="603" 
d="M520 699l-15 -110h-311l16 110h310zM335 511q52 0 130 -10t114 -21l-68 -480h-140l-1 94q-70 -99 -198 -106q-99 -5 -131 63t-11 209q11 69 31 116t43.5 73.5t63 40.5t75 17.5t92.5 3.5zM243 130q57 3 118 88l25 168q-20 1 -60 1q-53 0 -76.5 -22.5t-34.5 -101.5
q-13 -86 -8 -110t36 -23z" />
    <glyph glyph-name="Abreve" unicode="&#x102;" horiz-adv-x="664" 
d="M400 739q-87 0 -131.5 49.5t-25.5 116.5l86 4q-4 -31 14.5 -44.5t62.5 -13.5q92 0 98 61l83 -14q1 -67 -50 -113t-137 -46zM441 0l-16 161h-211l-63 -161h-196l277 645q19 45 67 45h172q23 0 40.5 -15t19.5 -37l98 -638h-188zM270 303h140l-18 176q-3 24 -3 72h-29
q-9 -37 -21 -71z" />
    <glyph glyph-name="abreve" unicode="&#x103;" horiz-adv-x="603" 
d="M353 554q-87 0 -131.5 49.5t-25.5 116.5l86 4q-4 -31 14.5 -44.5t62.5 -13.5q92 0 98 61l83 -14q1 -67 -50 -113t-137 -46zM335 511q52 0 130 -10t114 -21l-68 -480h-140l-1 94q-70 -99 -198 -106q-99 -5 -131 63t-11 209q11 69 31 116t43.5 73.5t63 40.5t75 17.5
t92.5 3.5zM243 130q57 3 118 88l25 168q-20 1 -60 1q-53 0 -76.5 -22.5t-34.5 -101.5q-13 -86 -8 -110t36 -23z" />
    <glyph glyph-name="Aogonek" unicode="&#x104;" horiz-adv-x="664" 
d="M566 -97q-9 -21 1 -27.5t39 0.5l14 -66q-47 -17 -85 -20.5t-60 6t-36 25.5t-12 37.5t11 43.5q26 51 103 98h-100l-16 161h-211l-63 -161h-196l277 645q19 45 67 45h172q23 0 40.5 -15t19.5 -37l98 -638h1q-41 -44 -64 -97zM270 303h140l-18 176q-3 24 -3 72h-29
q-9 -37 -21 -71z" />
    <glyph glyph-name="aogonek" unicode="&#x105;" horiz-adv-x="603" 
d="M511 0q-41 -44 -64 -97q-9 -21 1 -27.5t39 0.5l14 -66q-47 -17 -85 -20.5t-60 6t-36 25.5t-12 37.5t11 43.5q26 51 103 98h-51l-1 94q-70 -99 -198 -106q-99 -5 -131 63t-11 209q11 69 31 116t43.5 73.5t63 40.5t75 17.5t92.5 3.5q52 0 130 -10t114 -21zM243 130
q57 3 118 88l25 168q-20 1 -60 1q-53 0 -76.5 -22.5t-34.5 -101.5q-13 -86 -8 -110t36 -23z" />
    <glyph glyph-name="Cacute" unicode="&#x106;" horiz-adv-x="594" 
d="M548 951l61 -128l-253 -101l-42 76zM389 702q125 0 217 -26l-22 -137q-105 3 -204 3q-45 0 -68.5 -14t-40 -57.5t-28.5 -132.5q-17 -114 -3.5 -152t76.5 -38q132 0 216 8l7 -138q-97 -30 -231 -30q-168 0 -228.5 83t-32.5 281q28 203 101 276.5t241 73.5z" />
    <glyph glyph-name="cacute" unicode="&#x107;" horiz-adv-x="523" 
d="M468 765l61 -128l-253 -101l-42 76zM304 511q127 0 211 -36l-25 -111q-67 1 -163 1q-56 0 -79 -24t-32 -91q-10 -73 5.5 -95t70.5 -22q93 0 162 8l13 -117q-83 -36 -208 -36q-135 0 -193.5 63.5t-38.5 204.5q19 138 80.5 196.5t196.5 58.5z" />
    <glyph glyph-name="Ccircumflex" unicode="&#x108;" horiz-adv-x="594" 
d="M473 921l129 -140l-51 -60l-139 95h-8l-161 -95l-43 65l150 135h123zM389 702q125 0 217 -26l-22 -137q-105 3 -204 3q-45 0 -68.5 -14t-40 -57.5t-28.5 -132.5q-17 -114 -3.5 -152t76.5 -38q132 0 216 8l7 -138q-97 -30 -231 -30q-168 0 -228.5 83t-32.5 281
q28 203 101 276.5t241 73.5z" />
    <glyph glyph-name="ccircumflex" unicode="&#x109;" horiz-adv-x="523" 
d="M393 735l129 -140l-51 -60l-139 95h-8l-161 -95l-43 65l150 135h123zM304 511q127 0 211 -36l-25 -111q-67 1 -163 1q-56 0 -79 -24t-32 -91q-10 -73 5.5 -95t70.5 -22q93 0 162 8l13 -117q-83 -36 -208 -36q-135 0 -193.5 63.5t-38.5 204.5q19 138 80.5 196.5
t196.5 58.5z" />
    <glyph glyph-name="Cdotaccent" unicode="&#x10a;" horiz-adv-x="594" 
d="M442 902q24 0 38 -13t11 -38l-5 -51q-6 -47 -53 -47h-55q-56 0 -48 54l6 49q6 46 54 46h52zM389 702q125 0 217 -26l-22 -137q-105 3 -204 3q-45 0 -68.5 -14t-40 -57.5t-28.5 -132.5q-17 -114 -3.5 -152t76.5 -38q132 0 216 8l7 -138q-97 -30 -231 -30q-168 0 -228.5 83
t-32.5 281q28 203 101 276.5t241 73.5z" />
    <glyph glyph-name="cdotaccent" unicode="&#x10b;" horiz-adv-x="523" 
d="M362 716q24 0 38 -13t11 -38l-5 -51q-6 -47 -53 -47h-55q-56 0 -48 54l6 49q6 46 54 46h52zM304 511q127 0 211 -36l-25 -111q-67 1 -163 1q-56 0 -79 -24t-32 -91q-10 -73 5.5 -95t70.5 -22q93 0 162 8l13 -117q-83 -36 -208 -36q-135 0 -193.5 63.5t-38.5 204.5
q19 138 80.5 196.5t196.5 58.5z" />
    <glyph glyph-name="Ccaron" unicode="&#x10c;" horiz-adv-x="594" 
d="M574 937l38 -67l-171 -131h-81l-150 143l54 58l138 -86h8zM389 702q125 0 217 -26l-22 -137q-105 3 -204 3q-45 0 -68.5 -14t-40 -57.5t-28.5 -132.5q-17 -114 -3.5 -152t76.5 -38q132 0 216 8l7 -138q-97 -30 -231 -30q-168 0 -228.5 83t-32.5 281q28 203 101 276.5
t241 73.5z" />
    <glyph glyph-name="ccaron" unicode="&#x10d;" horiz-adv-x="523" 
d="M494 751l38 -67l-171 -131h-81l-150 143l54 58l138 -86h8zM304 511q127 0 211 -36l-25 -111q-67 1 -163 1q-56 0 -79 -24t-32 -91q-10 -73 5.5 -95t70.5 -22q93 0 162 8l13 -117q-83 -36 -208 -36q-135 0 -193.5 63.5t-38.5 204.5q19 138 80.5 196.5t196.5 58.5z" />
    <glyph glyph-name="Dcaron" unicode="&#x10e;" horiz-adv-x="690" 
d="M435 738h-81l-150 143l54 58l138 -86h8l164 83l38 -67zM381 700q116 0 181 -31.5t90 -111.5t6 -219q-16 -109 -39.5 -175.5t-66.5 -105.5t-99.5 -53t-146.5 -14q-142 0 -287 10l97 690q123 10 265 10zM461 352q17 130 1 169t-87 39h-90l-60 -428q26 -1 79 -1
q49 0 76.5 16t48 64t32.5 141z" />
    <glyph glyph-name="dcaron" unicode="&#x10f;" horiz-adv-x="606" 
d="M413 599l17 101h182l-99 -700h-143l-2 84q-98 -96 -195 -96q-179 0 -143 272q10 76 29.5 126.5t49 77t62 37t75.5 10.5q93 0 160 -14q0 59 7 102zM747 699q29 0 40.5 -13t7.5 -43l-7 -51q-13 -87 -68 -162l-63 23q23 56 33 109q-24 -1 -34 11t-5 35l6 39q5 30 18.5 41
t42.5 11h29zM215 263q-11 -68 -6 -96.5t37 -26.5q51 2 112 52l27 202h-61q-58 0 -78 -23t-31 -108z" />
    <glyph glyph-name="Dcroat" unicode="&#x110;" horiz-adv-x="690" 
d="M381 700q116 0 181 -31.5t90 -111.5t6 -219q-16 -109 -39.5 -175.5t-66.5 -105.5t-99.5 -53t-146.5 -14q-142 0 -287 10l45 319h-51l12 89h51l40 282q123 10 265 10zM461 352q17 130 1 169t-87 39h-90l-22 -152h104l-13 -89h-103l-26 -187q26 -1 79 -1q49 0 76.5 16
t48 64t32.5 141z" />
    <glyph glyph-name="dcroat" unicode="&#x111;" horiz-adv-x="609" 
d="M668 630l-11 -76h-66l-78 -554h-143l-2 84q-98 -96 -195 -96q-179 0 -143 272q10 76 29.5 126.5t49 77t62 37t75.5 10.5q93 0 160 -14q0 37 2 57h-107l11 76h106l12 70h182l-10 -70h66zM215 263q-11 -68 -6 -96.5t37 -26.5q51 2 112 52l27 202h-61q-58 0 -78 -23
t-31 -108z" />
    <glyph glyph-name="Emacron" unicode="&#x112;" horiz-adv-x="580" 
d="M552 889l-15 -110h-311l16 110h310zM326 547q-27 0 -39 -10t-15 -36l-11 -82h259l-16 -128h-261l-14 -104q-4 -23 5.5 -33.5t34.5 -10.5h247l-4 -136q-85 -10 -320 -10q-85 0 -125 48t-29 129l52 374q10 68 54 106.5t118 38.5q242 0 334 -12l-22 -134h-248z" />
    <glyph glyph-name="emacron" unicode="&#x113;" horiz-adv-x="576" 
d="M513 699l-15 -110h-311l16 110h310zM323 511q141 0 193 -44.5t39 -134.5q-10 -67 -57.5 -94.5t-150.5 -35.5l-135 -10q1 -38 20 -50.5t64 -12.5q95 0 198 12l12 -113q-89 -40 -228 -40q-154 0 -210 65.5t-41 201.5q17 149 85.5 202.5t210.5 53.5zM380 350q2 24 -10 31.5
t-50 6.5q-47 -1 -66 -20.5t-31 -79.5l84 8q37 3 53.5 13.5t19.5 40.5z" />
    <glyph glyph-name="Ebreve" unicode="&#x114;" horiz-adv-x="580" 
d="M385 744q-87 0 -131.5 49.5t-25.5 116.5l86 4q-4 -31 14.5 -44.5t62.5 -13.5q92 0 98 61l83 -14q1 -67 -50 -113t-137 -46zM326 547q-27 0 -39 -10t-15 -36l-11 -82h259l-16 -128h-261l-14 -104q-4 -23 5.5 -33.5t34.5 -10.5h247l-4 -136q-85 -10 -320 -10q-85 0 -125 48
t-29 129l52 374q10 68 54 106.5t118 38.5q242 0 334 -12l-22 -134h-248z" />
    <glyph glyph-name="ebreve" unicode="&#x115;" horiz-adv-x="576" 
d="M346 554q-87 0 -131.5 49.5t-25.5 116.5l86 4q-4 -31 14.5 -44.5t62.5 -13.5q92 0 98 61l83 -14q1 -67 -50 -113t-137 -46zM323 511q141 0 193 -44.5t39 -134.5q-10 -67 -57.5 -94.5t-150.5 -35.5l-135 -10q1 -38 20 -50.5t64 -12.5q95 0 198 12l12 -113
q-89 -40 -228 -40q-154 0 -210 65.5t-41 201.5q17 149 85.5 202.5t210.5 53.5zM380 350q2 24 -10 31.5t-50 6.5q-47 -1 -66 -20.5t-31 -79.5l84 8q37 3 53.5 13.5t19.5 40.5z" />
    <glyph glyph-name="Edotaccent" unicode="&#x116;" horiz-adv-x="580" 
d="M358 757q-56 0 -48 54l6 49q6 46 54 46h52q24 0 38 -13t11 -38l-5 -51q-6 -47 -53 -47h-55zM326 547q-27 0 -39 -10t-15 -36l-11 -82h259l-16 -128h-261l-14 -104q-4 -23 5.5 -33.5t34.5 -10.5h247l-4 -136q-85 -10 -320 -10q-85 0 -125 48t-29 129l52 374
q10 68 54 106.5t118 38.5q242 0 334 -12l-22 -134h-248z" />
    <glyph glyph-name="edotaccent" unicode="&#x117;" horiz-adv-x="576" 
d="M319 567q-56 0 -48 54l6 49q6 46 54 46h52q24 0 38 -13t11 -38l-5 -51q-6 -47 -53 -47h-55zM323 511q141 0 193 -44.5t39 -134.5q-10 -67 -57.5 -94.5t-150.5 -35.5l-135 -10q1 -38 20 -50.5t64 -12.5q95 0 198 12l12 -113q-89 -40 -228 -40q-154 0 -210 65.5t-41 201.5
q17 149 85.5 202.5t210.5 53.5zM380 350q2 24 -10 31.5t-50 6.5q-47 -1 -66 -20.5t-31 -79.5l84 8q37 3 53.5 13.5t19.5 40.5z" />
    <glyph glyph-name="Eogonek" unicode="&#x118;" horiz-adv-x="580" 
d="M326 547q-27 0 -39 -10t-15 -36l-11 -82h259l-16 -128h-261l-14 -104q-4 -23 5.5 -33.5t34.5 -10.5h247l-4 -136q-41 -44 -64 -97q-9 -21 1 -27.5t39 0.5l14 -66q-47 -17 -85 -20.5t-60 6t-36 25.5t-12 37.5t11 43.5q24 46 92 91q-73 -3 -220 -3q-85 0 -125 48t-29 129
l52 374q10 68 54 106.5t118 38.5q242 0 334 -12l-22 -134h-248z" />
    <glyph glyph-name="eogonek" unicode="&#x119;" horiz-adv-x="576" 
d="M323 511q141 0 193 -44.5t39 -134.5q-10 -67 -57.5 -94.5t-150.5 -35.5l-135 -10q1 -38 20 -50.5t64 -12.5q95 0 198 12l12 -113l-5 -2q-41 -46 -61 -94q-9 -21 1 -27.5t39 0.5l14 -66q-47 -17 -85 -20.5t-60 6t-36 25.5t-12 37.5t11 43.5q17 32 52 62q-36 -5 -86 -5
q-154 0 -210 65.5t-41 201.5q17 149 85.5 202.5t210.5 53.5zM380 350q2 24 -10 31.5t-50 6.5q-47 -1 -66 -20.5t-31 -79.5l84 8q37 3 53.5 13.5t19.5 40.5z" />
    <glyph glyph-name="Ecaron" unicode="&#x11a;" horiz-adv-x="580" 
d="M421 743h-81l-150 143l54 58l138 -86h8l164 83l38 -67zM326 547q-27 0 -39 -10t-15 -36l-11 -82h259l-16 -128h-261l-14 -104q-4 -23 5.5 -33.5t34.5 -10.5h247l-4 -136q-85 -10 -320 -10q-85 0 -125 48t-29 129l52 374q10 68 54 106.5t118 38.5q242 0 334 -12l-22 -134
h-248z" />
    <glyph glyph-name="ecaron" unicode="&#x11b;" horiz-adv-x="576" 
d="M382 553h-81l-150 143l54 58l138 -86h8l164 83l38 -67zM323 511q141 0 193 -44.5t39 -134.5q-10 -67 -57.5 -94.5t-150.5 -35.5l-135 -10q1 -38 20 -50.5t64 -12.5q95 0 198 12l12 -113q-89 -40 -228 -40q-154 0 -210 65.5t-41 201.5q17 149 85.5 202.5t210.5 53.5z
M380 350q2 24 -10 31.5t-50 6.5q-47 -1 -66 -20.5t-31 -79.5l84 8q37 3 53.5 13.5t19.5 40.5z" />
    <glyph glyph-name="Gcircumflex" unicode="&#x11c;" horiz-adv-x="658" 
d="M412 815l-161 -95l-43 65l150 135h123l129 -140l-51 -60l-139 95h-8zM422 194l28 204h179l-56 -398h-137l-7 82q-94 -96 -204 -96q-226 0 -177 366q15 108 42 176.5t73.5 107.5t105 53.5t145.5 14.5q125 0 222 -28l-22 -135q-106 3 -207 3q-80 0 -113 -41.5t-51 -164.5
q-15 -113 -2 -152t68 -39q26 0 49 8.5t32.5 15t31.5 23.5z" />
    <glyph glyph-name="gcircumflex" unicode="&#x11d;" horiz-adv-x="607" 
d="M362 634l-161 -95l-43 65l150 135h123l129 -140l-51 -60l-139 95h-8zM292 511q174 0 291 -31l-58 -411q-10 -82 -37.5 -137.5t-71.5 -84.5t-92 -40.5t-112 -11.5q-133 0 -205 31l10 102q32 -1 133 -1q156 0 193 76q8 16 19 53t22 56q-72 -111 -211 -117q-97 -4 -130 62.5
t-12 202.5q13 86 35.5 138t59 76t71.5 30.5t95 6.5zM246 130q59 7 120 88l24 168q-21 1 -63 1q-59 0 -79 -23t-32 -101q-13 -85 -6.5 -111t36.5 -22z" />
    <glyph glyph-name="Gbreve" unicode="&#x11e;" horiz-adv-x="658" 
d="M413 739q-87 0 -131.5 49.5t-25.5 116.5l86 4q-4 -31 14.5 -44.5t62.5 -13.5q92 0 98 61l83 -14q1 -67 -50 -113t-137 -46zM422 194l28 204h179l-56 -398h-137l-7 82q-94 -96 -204 -96q-226 0 -177 366q15 108 42 176.5t73.5 107.5t105 53.5t145.5 14.5q125 0 222 -28
l-22 -135q-106 3 -207 3q-80 0 -113 -41.5t-51 -164.5q-15 -113 -2 -152t68 -39q26 0 49 8.5t32.5 15t31.5 23.5z" />
    <glyph glyph-name="gbreve" unicode="&#x11f;" horiz-adv-x="607" 
d="M363 558q-87 0 -131.5 49.5t-25.5 116.5l86 4q-4 -31 14.5 -44.5t62.5 -13.5q92 0 98 61l83 -14q1 -67 -50 -113t-137 -46zM292 511q174 0 291 -31l-58 -411q-10 -82 -37.5 -137.5t-71.5 -84.5t-92 -40.5t-112 -11.5q-133 0 -205 31l10 102q32 -1 133 -1q156 0 193 76
q8 16 19 53t22 56q-72 -111 -211 -117q-97 -4 -130 62.5t-12 202.5q13 86 35.5 138t59 76t71.5 30.5t95 6.5zM246 130q59 7 120 88l24 168q-21 1 -63 1q-59 0 -79 -23t-32 -101q-13 -85 -6.5 -111t36.5 -22z" />
    <glyph glyph-name="Gdotaccent" unicode="&#x120;" horiz-adv-x="658" 
d="M386 752q-56 0 -48 54l6 49q6 46 54 46h52q24 0 38 -13t11 -38l-5 -51q-6 -47 -53 -47h-55zM422 194l28 204h179l-56 -398h-137l-7 82q-94 -96 -204 -96q-226 0 -177 366q15 108 42 176.5t73.5 107.5t105 53.5t145.5 14.5q125 0 222 -28l-22 -135q-106 3 -207 3
q-80 0 -113 -41.5t-51 -164.5q-15 -113 -2 -152t68 -39q26 0 49 8.5t32.5 15t31.5 23.5z" />
    <glyph glyph-name="gdotaccent" unicode="&#x121;" horiz-adv-x="607" 
d="M336 571q-56 0 -48 54l6 49q6 46 54 46h52q24 0 38 -13t11 -38l-5 -51q-6 -47 -53 -47h-55zM292 511q174 0 291 -31l-58 -411q-10 -82 -37.5 -137.5t-71.5 -84.5t-92 -40.5t-112 -11.5q-133 0 -205 31l10 102q32 -1 133 -1q156 0 193 76q8 16 19 53t22 56
q-72 -111 -211 -117q-97 -4 -130 62.5t-12 202.5q13 86 35.5 138t59 76t71.5 30.5t95 6.5zM246 130q59 7 120 88l24 168q-21 1 -63 1q-59 0 -79 -23t-32 -101q-13 -85 -6.5 -111t36.5 -22z" />
    <glyph glyph-name="Gcommaaccent" unicode="&#x122;" horiz-adv-x="658" 
d="M422 194l28 204h179l-56 -398h-137l-7 82q-94 -96 -204 -96q-226 0 -177 366q15 108 42 176.5t73.5 107.5t105 53.5t145.5 14.5q125 0 222 -28l-22 -135q-106 3 -207 3q-80 0 -113 -41.5t-51 -164.5q-15 -113 -2 -152t68 -39q26 0 49 8.5t32.5 15t31.5 23.5zM331 -49
q32 0 44.5 -12.5t7.5 -39.5l-8 -50q-6 -37 -27 -80t-47 -72l-69 21q19 41 37 103q-26 0 -35.5 10.5t-7.5 33.5l7 38q5 27 20 37.5t47 10.5h31z" />
    <glyph glyph-name="gcommaaccent" unicode="&#x123;" horiz-adv-x="607" 
d="M332 549q-32 0 -44.5 12.5t-7.5 39.5l8 50q6 37 27 80t47 72l69 -21q-19 -41 -37 -103q26 0 35.5 -10.5t7.5 -33.5l-7 -38q-5 -27 -20 -37.5t-47 -10.5h-31zM292 511q174 0 291 -31l-58 -411q-10 -82 -37.5 -137.5t-71.5 -84.5t-92 -40.5t-112 -11.5q-133 0 -205 31
l10 102q32 -1 133 -1q156 0 193 76q8 16 19 53t22 56q-72 -111 -211 -117q-97 -4 -130 62.5t-12 202.5q13 86 35.5 138t59 76t71.5 30.5t95 6.5zM246 130q59 7 120 88l24 168q-21 1 -63 1q-59 0 -79 -23t-32 -101q-13 -85 -6.5 -111t36.5 -22z" />
    <glyph glyph-name="Hcircumflex" unicode="&#x124;" horiz-adv-x="695" 
d="M407 815l-161 -95l-43 65l150 135h123l129 -140l-51 -60l-139 95h-8zM503 690h188l-97 -690h-188l42 297h-199l-42 -297h-188l97 690h188l-36 -255h199z" />
    <glyph glyph-name="hcircumflex" unicode="&#x125;" horiz-adv-x="609" 
d="M207 801l-161 -95l-43 65l150 135h123l129 -140l-51 -60l-139 95h-8zM439 511q72 0 107 -37t25 -105l-52 -369h-181l45 318q3 24 -2 31.5t-23 7.5q-50 0 -125 -58l-41 -299h-182l98 700h182l-22 -163q-8 -57 -28 -120q103 94 199 94z" />
    <glyph glyph-name="Hbar" unicode="&#x126;" horiz-adv-x="695" 
d="M735 594l-12 -83h-57l-72 -511h-188l42 297h-199l-42 -297h-188l72 511h-55l12 83h55l13 96h188l-13 -96h199l13 96h188l-13 -96h57zM467 435l11 76h-199l-11 -76h199z" />
    <glyph glyph-name="hbar" unicode="&#x127;" horiz-adv-x="606" 
d="M436 511q72 0 107 -37t25 -105l-52 -369h-181l45 318q3 24 -2 31.5t-23 7.5q-50 0 -125 -58l-41 -299h-182l78 554h-55l11 76h54l10 70h182l-9 -70h119l-10 -76h-120l-2 -17q-8 -57 -28 -120q103 94 199 94z" />
    <glyph glyph-name="Itilde" unicode="&#x128;" horiz-adv-x="308" 
d="M135 910q31 -1 87 -22t68 -23q26 -6 36.5 5.5t13.5 38.5l75 -7q3 -77 -23 -115.5t-70 -37.5q-33 1 -90.5 23t-69.5 24q-25 4 -35 -7t-14 -39l-75 7q-1 77 25.5 116t71.5 37zM304 690l-97 -690h-188l97 690h188z" />
    <glyph glyph-name="itilde" unicode="&#x129;" horiz-adv-x="292" 
d="M99 725q31 -1 87 -22t68 -23q26 -6 36.5 5.5t13.5 38.5l75 -7q3 -77 -23 -115.5t-70 -37.5q-33 1 -90.5 23t-69.5 24q-25 4 -35 -7t-14 -39l-75 7q-1 77 25.5 116t71.5 37zM266 497l-69 -497h-183l70 497h182z" />
    <glyph glyph-name="Imacron" unicode="&#x12a;" horiz-adv-x="308" 
d="M392 884l-15 -110h-311l16 110h310zM304 690l-97 -690h-188l97 690h188z" />
    <glyph glyph-name="imacron" unicode="&#x12b;" horiz-adv-x="292" 
d="M356 699l-15 -110h-311l16 110h310zM266 497l-69 -497h-183l70 497h182z" />
    <glyph glyph-name="Ibreve" unicode="&#x12c;" horiz-adv-x="308" 
d="M329 912l83 -14q1 -67 -50 -113t-137 -46q-87 0 -131.5 49.5t-25.5 116.5l86 4q-4 -31 14.5 -44.5t62.5 -13.5q92 0 98 61zM304 690l-97 -690h-188l97 690h188z" />
    <glyph glyph-name="ibreve" unicode="&#x12d;" horiz-adv-x="292" 
d="M293 727l83 -14q1 -67 -50 -113t-137 -46q-87 0 -131.5 49.5t-25.5 116.5l86 4q-4 -31 14.5 -44.5t62.5 -13.5q92 0 98 61zM266 497l-69 -497h-183l70 497h182z" />
    <glyph glyph-name="Iogonek" unicode="&#x12e;" horiz-adv-x="308" 
d="M116 690h188l-97 -690h-25q-41 -44 -64 -97q-9 -21 1 -27.5t39 0.5l14 -66q-47 -17 -85 -20.5t-60 6t-36 25.5t-12 37.5t11 43.5q26 51 103 98h-74z" />
    <glyph glyph-name="iogonek" unicode="&#x12f;" horiz-adv-x="292" 
d="M226 716q24 0 38 -13t11 -38l-5 -51q-6 -47 -53 -47h-55q-56 0 -48 54l6 49q6 46 54 46h52zM14 0l70 497h182l-69 -497h-17q-41 -44 -64 -97q-9 -21 1 -27.5t39 0.5l14 -66q-47 -17 -85 -20.5t-60 6t-36 25.5t-12 37.5t11 43.5q26 51 103 98h-77z" />
    <glyph glyph-name="Idotaccent" unicode="&#x130;" horiz-adv-x="308" 
d="M262 901q24 0 38 -13t11 -38l-5 -51q-6 -47 -53 -47h-55q-56 0 -48 54l6 49q6 46 54 46h52zM304 690l-97 -690h-188l97 690h188z" />
    <glyph glyph-name="dotlessi" unicode="&#x131;" horiz-adv-x="292" 
d="M266 497l-69 -497h-183l70 497h182z" />
    <glyph glyph-name="IJ" unicode="&#x132;" horiz-adv-x="689" 
d="M304 690l-97 -690h-188l97 690h188zM687 690l-77 -558q-10 -70 -56.5 -107.5t-119.5 -37.5q-38 0 -82 7t-64 18l30 119h39q63 0 69 47l74 512h187z" />
    <glyph glyph-name="ij" unicode="&#x133;" horiz-adv-x="583" 
d="M238 721q58 0 52 -57l-7 -52q-7 -50 -59 -50h-74q-57 0 -50 57l7 52q4 50 59 50h72zM529 721q59 0 51 -57l-7 -52q-6 -50 -60 -50h-72q-58 0 -51 57l7 52q6 50 61 50h71zM264 497l-69 -497h-181l69 497h181zM558 497l-66 -458q-10 -75 -54.5 -139t-112.5 -95l-100 84
q74 71 87 157l64 451h182z" />
    <glyph glyph-name="Jcircumflex" unicode="&#x134;" horiz-adv-x="381" 
d="M362 920l129 -140l-51 -60l-139 95h-8l-161 -95l-43 65l150 135h123zM379 690l-77 -558q-10 -70 -56.5 -107.5t-119.5 -37.5q-38 0 -82 7t-64 18l30 119h39q63 0 69 47l74 512h187z" />
    <glyph glyph-name="jcircumflex" unicode="&#x135;" horiz-adv-x="292" 
d="M259 735l129 -140l-51 -60l-139 95h-8l-161 -95l-43 65l150 135h123zM267 497l-66 -458q-10 -75 -54.5 -139t-112.5 -95l-100 84q74 71 87 157l64 451h182z" />
    <glyph glyph-name="Kcommaaccent" unicode="&#x136;" horiz-adv-x="651" 
d="M430 343q29 -16 50 -66l131 -277h-204l-122 295h-44q3 -39 -1 -68l-32 -227h-189l97 690h189l-28 -196q-5 -42 -17 -73h45l184 269h211l-203 -286q-25 -39 -66 -56zM315 -49q32 0 44.5 -12.5t7.5 -39.5l-8 -50q-6 -37 -27 -80t-47 -72l-69 21q19 41 37 103
q-26 0 -35.5 10.5t-7.5 33.5l7 38q5 27 20 37.5t47 10.5h31z" />
    <glyph glyph-name="kcommaaccent" unicode="&#x137;" horiz-adv-x="588" 
d="M411 262q33 -27 49 -66l92 -196h-188l-85 193q-35 -14 -64 -24q0 -3 -0.5 -8t-0.5 -7l-22 -154h-182l98 700h182l-39 -285q-10 -59 -40 -123q67 36 117 90.5t64 114.5h186q-36 -145 -167 -235zM289 -42q32 0 44.5 -12.5t7.5 -39.5l-8 -50q-6 -37 -27 -80t-47 -72l-69 21
q19 41 37 103q-26 0 -35.5 10.5t-7.5 33.5l7 38q5 27 20 37.5t47 10.5h31z" />
    <glyph glyph-name="kgreenlandic" unicode="&#x138;" horiz-adv-x="588" 
d="M408 253q31 -25 51 -68l88 -185h-188l-81 183q-22 -9 -64 -25q0 -2 -0.5 -6.5t-0.5 -7.5l-21 -144h-182l70 497h182l-12 -92q-8 -57 -40 -122q68 35 119 92t67 122h187q-37 -151 -175 -244z" />
    <glyph glyph-name="Lacute" unicode="&#x139;" horiz-adv-x="541" 
d="M368 950l61 -128l-253 -101l-42 76zM301 690l-72 -495q-2 -24 6.5 -34.5t33.5 -10.5h232l-4 -142q-90 -11 -312 -11q-74 0 -115 44t-31 116l74 533h188z" />
    <glyph glyph-name="lacute" unicode="&#x13a;" horiz-adv-x="344" 
d="M362 960l61 -128l-253 -101l-42 76zM290 700l-76 -531q-4 -23 4.5 -31t37.5 -8h42l10 -122q-41 -21 -131 -21q-77 0 -117 38t-32 104l81 571h181z" />
    <glyph glyph-name="Lcommaaccent" unicode="&#x13b;" horiz-adv-x="541" 
d="M301 690l-72 -495q-2 -24 6.5 -34.5t33.5 -10.5h232l-4 -142q-90 -11 -312 -11q-74 0 -115 44t-31 116l74 533h188zM276 -49q32 0 44.5 -12.5t7.5 -39.5l-8 -50q-6 -37 -27 -80t-47 -72l-69 21q19 41 37 103q-26 0 -35.5 10.5t-7.5 33.5l7 38q5 27 20 37.5t47 10.5h31z
" />
    <glyph glyph-name="lcommaaccent" unicode="&#x13c;" horiz-adv-x="344" 
d="M290 700l-76 -531q-4 -23 4.5 -31t37.5 -8h42l10 -122q-41 -21 -131 -21q-77 0 -117 38t-32 104l81 571h181zM169 -46q32 0 44.5 -12.5t7.5 -39.5l-8 -50q-6 -37 -27 -80t-47 -72l-69 21q19 41 37 103q-26 0 -35.5 10.5t-7.5 33.5l7 38q5 27 20 37.5t47 10.5h31z" />
    <glyph glyph-name="Lcaron" unicode="&#x13d;" horiz-adv-x="541" 
d="M301 690l-72 -495q-2 -24 6.5 -34.5t33.5 -10.5h232l-4 -142q-90 -11 -312 -11q-74 0 -115 44t-31 116l74 533h188zM458 690q29 0 40.5 -13t7.5 -43l-7 -51q-13 -87 -68 -162l-63 23q23 56 33 109q-24 -1 -34 11t-5 35l6 39q5 30 18.5 41t42.5 11h29z" />
    <glyph glyph-name="lcaron" unicode="&#x13e;" horiz-adv-x="344" 
d="M290 700l-76 -531q-4 -23 4.5 -31t37.5 -8h42l10 -122q-41 -21 -131 -21q-77 0 -117 38t-32 104l81 571h181zM418 700q32 0 44.5 -12.5t7.5 -39.5l-8 -50q-6 -37 -27 -80t-47 -72l-69 21q19 41 37 103q-26 0 -35.5 10.5t-7.5 33.5l7 38q5 27 20 37.5t47 10.5h31z" />
    <glyph glyph-name="Ldot" unicode="&#x13f;" horiz-adv-x="541" 
d="M301 690l-72 -495q-2 -24 6.5 -34.5t33.5 -10.5h232l-4 -142q-90 -11 -312 -11q-74 0 -115 44t-31 116l74 533h188zM232 -167q-24 0 -38 13t-11 38l5 51q6 47 53 47h55q56 0 48 -54l-6 -49q-6 -46 -54 -46h-52z" />
    <glyph glyph-name="ldot" unicode="&#x140;" horiz-adv-x="462" 
d="M290 700l-76 -531q-4 -23 4.5 -31t37.5 -8h42l10 -122q-41 -21 -131 -21q-77 0 -117 38t-32 104l81 571h181zM357 298q-24 0 -38 13t-11 38l5 51q6 47 53 47h55q56 0 48 -54l-6 -49q-6 -46 -54 -46h-52z" />
    <glyph glyph-name="Lslash" unicode="&#x141;" horiz-adv-x="544" 
d="M272 150h232l-4 -142q-90 -11 -312 -11q-74 0 -115 44t-31 116l19 140l-53 -20l12 94l55 20l41 299h188l-33 -225l109 40l-13 -94l-110 -41l-25 -175q-2 -24 6.5 -34.5t33.5 -10.5z" />
    <glyph glyph-name="lslash" unicode="&#x142;" horiz-adv-x="356" 
d="M252 370l-29 -201q-4 -23 4.5 -31t37.5 -8h42l10 -122q-41 -21 -131 -21q-77 0 -117 38t-32 104l24 170l-59 -22l13 94l59 22l44 307h181l-34 -236l110 41l-13 -94z" />
    <glyph glyph-name="Nacute" unicode="&#x143;" horiz-adv-x="724" 
d="M573 950l61 -128l-253 -101l-42 76zM720 690l-88 -628q-5 -32 -21 -47t-48 -15h-78q-27 0 -40.5 13.5t-27.5 44.5l-126 297q-18 39 -33 109h-9q1 -58 -6 -119l-50 -345h-174l88 628q9 62 69 62h78q27 0 40 -13.5t27 -44.5l124 -285q25 -57 39 -116h10q-4 55 4 115l48 344
h174z" />
    <glyph glyph-name="nacute" unicode="&#x144;" horiz-adv-x="609" 
d="M554 637l-253 -101l-42 76l234 153zM446 511q64 0 100 -37t26 -105l-52 -369h-182l44 312q4 28 -2.5 37.5t-27.5 7.5q-49 -2 -118 -57l-42 -300h-182l69 497h143l2 -93q107 107 222 107z" />
    <glyph glyph-name="Ncommaaccent" unicode="&#x145;" horiz-adv-x="724" 
d="M720 690l-88 -628q-5 -32 -21 -47t-48 -15h-78q-27 0 -40.5 13.5t-27.5 44.5l-126 297q-18 39 -33 109h-9q1 -58 -6 -119l-50 -345h-174l88 628q9 62 69 62h78q27 0 40 -13.5t27 -44.5l124 -285q25 -57 39 -116h10q-4 55 4 115l48 344h174zM357 -49q32 0 44.5 -12.5
t7.5 -39.5l-8 -50q-6 -37 -27 -80t-47 -72l-69 21q19 41 37 103q-26 0 -35.5 10.5t-7.5 33.5l7 38q5 27 20 37.5t47 10.5h31z" />
    <glyph glyph-name="ncommaaccent" unicode="&#x146;" horiz-adv-x="609" 
d="M446 511q64 0 100 -37t26 -105l-52 -369h-182l44 312q4 28 -2.5 37.5t-27.5 7.5q-49 -2 -118 -57l-42 -300h-182l69 497h143l2 -93q107 107 222 107zM274 -42q32 0 44.5 -12.5t7.5 -39.5l-8 -50q-6 -37 -27 -80t-47 -72l-69 21q19 41 37 103q-26 0 -35.5 10.5t-7.5 33.5
l7 38q5 27 20 37.5t47 10.5h31z" />
    <glyph glyph-name="Ncaron" unicode="&#x147;" horiz-adv-x="724" 
d="M599 936l38 -67l-171 -131h-81l-150 143l54 58l138 -86h8zM720 690l-88 -628q-5 -32 -21 -47t-48 -15h-78q-27 0 -40.5 13.5t-27.5 44.5l-126 297q-18 39 -33 109h-9q1 -58 -6 -119l-50 -345h-174l88 628q9 62 69 62h78q27 0 40 -13.5t27 -44.5l124 -285q25 -57 39 -116
h10q-4 55 4 115l48 344h174z" />
    <glyph glyph-name="ncaron" unicode="&#x148;" horiz-adv-x="609" 
d="M386 553h-81l-150 143l54 58l138 -86h8l164 83l38 -67zM446 511q64 0 100 -37t26 -105l-52 -369h-182l44 312q4 28 -2.5 37.5t-27.5 7.5q-49 -2 -118 -57l-42 -300h-182l69 497h143l2 -93q107 107 222 107z" />
    <glyph glyph-name="Eng" unicode="&#x14a;" horiz-adv-x="728" 
d="M724 690l-104 -737q-11 -77 -52.5 -118.5t-101.5 -41.5q-80 0 -135 25l32 116h34q53 0 61 41l6 35l-10 -1q-4 0 -7.5 3t-7 9t-5.5 10.5l-6 13.5t-5 12l-132 292q-16 35 -31 110h-8q0 -59 -9 -118l-49 -341h-175l88 628q9 62 69 62h81q28 0 41.5 -13.5t25.5 -44.5
l122 -280q28 -63 39 -115h8q-1 50 8 124l48 329h175z" />
    <glyph glyph-name="eng" unicode="&#x14b;" horiz-adv-x="609" 
d="M438 511q74 0 108.5 -37t25.5 -105l-57 -401q-23 -165 -162 -165q-92 0 -140 24l31 116h32q53 0 59 42l48 333q3 22 -4 30.5t-28 6.5q-43 -1 -117 -55l-42 -300h-182l69 497h142l4 -90q111 104 213 104z" />
    <glyph glyph-name="Omacron" unicode="&#x14c;" horiz-adv-x="691" 
d="M580 884l-15 -110h-311l16 110h310zM388 704q170 0 235 -80.5t37 -285.5q-14 -105 -39.5 -173t-68 -108t-98 -55.5t-138.5 -15.5q-173 0 -235 79.5t-34 286.5q28 203 103 277.5t238 74.5zM385 560q-66 0 -93.5 -43.5t-48.5 -178.5q-18 -126 -2.5 -167t79.5 -41
q67 0 95 43.5t48 178.5q18 128 2.5 168t-80.5 40z" />
    <glyph glyph-name="omacron" unicode="&#x14d;" 
d="M513 699l-15 -110h-311l16 110h310zM322 511q146 0 204 -62.5t37 -207.5q-20 -140 -85.5 -196.5t-207.5 -56.5q-145 0 -204.5 62t-38.5 205q20 142 85 199t210 57zM319 383q-50 0 -70 -27.5t-33 -114.5q-11 -77 0.5 -101.5t59.5 -24.5q47 0 67 28t32 112q12 78 1 103
t-57 25z" />
    <glyph glyph-name="Obreve" unicode="&#x14e;" horiz-adv-x="691" 
d="M517 912l83 -14q1 -67 -50 -113t-137 -46q-87 0 -131.5 49.5t-25.5 116.5l86 4q-4 -31 14.5 -44.5t62.5 -13.5q92 0 98 61zM388 704q170 0 235 -80.5t37 -285.5q-14 -105 -39.5 -173t-68 -108t-98 -55.5t-138.5 -15.5q-173 0 -235 79.5t-34 286.5q28 203 103 277.5
t238 74.5zM385 560q-66 0 -93.5 -43.5t-48.5 -178.5q-18 -126 -2.5 -167t79.5 -41q67 0 95 43.5t48 178.5q18 128 2.5 168t-80.5 40z" />
    <glyph glyph-name="obreve" unicode="&#x14f;" 
d="M450 727l83 -14q1 -67 -50 -113t-137 -46q-87 0 -131.5 49.5t-25.5 116.5l86 4q-4 -31 14.5 -44.5t62.5 -13.5q92 0 98 61zM322 511q146 0 204 -62.5t37 -207.5q-20 -140 -85.5 -196.5t-207.5 -56.5q-145 0 -204.5 62t-38.5 205q20 142 85 199t210 57zM319 383
q-50 0 -70 -27.5t-33 -114.5q-11 -77 0.5 -101.5t59.5 -24.5q47 0 67 28t32 112q12 78 1 103t-57 25z" />
    <glyph glyph-name="Ohungarumlaut" unicode="&#x150;" horiz-adv-x="691" 
d="M370 956l105 -74l-177 -161l-73 47zM573 956l106 -74l-178 -161l-73 47zM388 704q170 0 235 -80.5t37 -285.5q-14 -105 -39.5 -173t-68 -108t-98 -55.5t-138.5 -15.5q-173 0 -235 79.5t-34 286.5q28 203 103 277.5t238 74.5zM385 560q-66 0 -93.5 -43.5t-48.5 -178.5
q-18 -126 -2.5 -167t79.5 -41q67 0 95 43.5t48 178.5q18 128 2.5 168t-80.5 40z" />
    <glyph glyph-name="ohungarumlaut" unicode="&#x151;" 
d="M303 771l105 -74l-177 -161l-73 47zM506 771l106 -74l-178 -161l-73 47zM322 511q146 0 204 -62.5t37 -207.5q-20 -140 -85.5 -196.5t-207.5 -56.5q-145 0 -204.5 62t-38.5 205q20 142 85 199t210 57zM319 383q-50 0 -70 -27.5t-33 -114.5q-11 -77 0.5 -101.5t59.5 -24.5
q47 0 67 28t32 112q12 78 1 103t-57 25z" />
    <glyph glyph-name="OE" unicode="&#x152;" horiz-adv-x="963" 
d="M713 547q-21 0 -36 -12.5t-17 -33.5l-12 -85h254l-15 -121h-256l-16 -113q-6 -39 34 -39h249l-3 -136q-85 -10 -325 -10q-54 0 -90 22q-76 -33 -169 -33q-176 0 -235 78t-29 288q29 205 103 278.5t241 73.5q100 0 174 -28q34 17 76 17q245 0 338 -12l-23 -134h-243z
M310 130q72 0 112 14q0 7 1 11l55 393q0 3 1 5q-32 7 -88 7q-67 0 -98 -46.5t-50 -175.5q-18 -125 -4.5 -166.5t71.5 -41.5z" />
    <glyph glyph-name="oe" unicode="&#x153;" horiz-adv-x="907" 
d="M657 511q139 0 190.5 -44.5t38.5 -134.5q-10 -67 -57 -94.5t-148 -35.5l-132 -10q1 -38 19.5 -50.5t61.5 -12.5q93 0 194 12l11 -113q-87 -40 -223 -40q-108 0 -171 48q-69 -48 -177 -48q-142 0 -200 62t-37 205q20 142 84 199t205 57q99 0 161 -43q69 43 180 43z
M712 350q2 24 -9.5 31.5t-49.5 6.5q-45 -1 -63 -20.5t-30 -79.5l79 8q37 3 53.5 13.5t19.5 40.5zM270 115q45 0 63.5 27.5t30.5 112.5l3 22q7 64 -3.5 85t-51.5 21q-47 0 -65.5 -27.5t-31.5 -114.5q-11 -77 -0.5 -101.5t55.5 -24.5z" />
    <glyph glyph-name="Racute" unicode="&#x154;" horiz-adv-x="656" 
d="M599 822l-253 -101l-42 76l234 153zM636 485q-9 -70 -44 -111t-111 -49l-1 -7q76 -13 87 -108l30 -210h-193l-24 211q-2 30 -12 39.5t-36 9.5h-93l-37 -260h-183l97 690q96 10 268 10q141 0 204.5 -49t47.5 -166zM449 487q6 44 -8.5 60t-59.5 16h-100l-23 -166h90
q51 0 72 18t29 72z" />
    <glyph glyph-name="racute" unicode="&#x155;" horiz-adv-x="439" 
d="M492 637l-253 -101l-42 76l234 153zM226 418q105 93 203 93h34l-39 -167h-42q-42 0 -147 -35l-42 -309h-183l70 497h142z" />
    <glyph glyph-name="Rcommaaccent" unicode="&#x156;" horiz-adv-x="656" 
d="M636 485q-9 -70 -44 -111t-111 -49l-1 -7q76 -13 87 -108l30 -210h-193l-24 211q-2 30 -12 39.5t-36 9.5h-93l-37 -260h-183l97 690q96 10 268 10q141 0 204.5 -49t47.5 -166zM449 487q6 44 -8.5 60t-59.5 16h-100l-23 -166h90q51 0 72 18t29 72zM324 -49
q32 0 44.5 -12.5t7.5 -39.5l-8 -50q-6 -37 -27 -80t-47 -72l-69 21q19 41 37 103q-26 0 -35.5 10.5t-7.5 33.5l7 38q5 27 20 37.5t47 10.5h31z" />
    <glyph glyph-name="rcommaaccent" unicode="&#x157;" horiz-adv-x="439" 
d="M429 511h34l-39 -167h-42q-42 0 -147 -35l-42 -309h-183l70 497h142l4 -79q105 93 203 93zM107 -42q32 0 44.5 -12.5t7.5 -39.5l-8 -50q-6 -37 -27 -80t-47 -72l-69 21q19 41 37 103q-26 0 -35.5 10.5t-7.5 33.5l7 38q5 27 20 37.5t47 10.5h31z" />
    <glyph glyph-name="Rcaron" unicode="&#x158;" horiz-adv-x="656" 
d="M431 738h-81l-150 143l54 58l138 -86h8l164 83l38 -67zM636 485q-9 -70 -44 -111t-111 -49l-1 -7q76 -13 87 -108l30 -210h-193l-24 211q-2 30 -12 39.5t-36 9.5h-93l-37 -260h-183l97 690q96 10 268 10q141 0 204.5 -49t47.5 -166zM449 487q6 44 -8.5 60t-59.5 16h-100
l-23 -166h90q51 0 72 18t29 72z" />
    <glyph glyph-name="rcaron" unicode="&#x159;" horiz-adv-x="439" 
d="M324 553h-81l-150 143l54 58l138 -86h8l164 83l38 -67zM226 418q105 93 203 93h34l-39 -167h-42q-42 0 -147 -35l-42 -309h-183l70 497h142z" />
    <glyph glyph-name="Sacute" unicode="&#x15a;" horiz-adv-x="591" 
d="M506 950l61 -128l-253 -101l-42 76zM350 703q137 0 237 -32l-17 -122q-180 3 -229 3q-47 0 -65 -8t-23 -38q-4 -22 5.5 -33.5t43.5 -25.5l119 -52q81 -35 106.5 -82.5t16.5 -127.5q-14 -116 -74 -157t-206 -41q-129 0 -255 31l18 132q202 -5 228 -5q56 0 77.5 9.5
t26.5 38.5q4 22 -4.5 32t-36.5 22l-128 58q-79 36 -105.5 86t-17.5 122q14 110 79 150t204 40z" />
    <glyph glyph-name="sacute" unicode="&#x15b;" horiz-adv-x="537" 
d="M458 765l61 -128l-253 -101l-42 76zM274 511q144 -2 241 -22l-16 -109q-130 2 -192 2q-57 0 -74 -3t-19 -15q-1 -12 9.5 -19t41.5 -17l115 -37q123 -40 109 -154q-11 -89 -69 -118.5t-179 -29.5q-118 0 -238 20l15 109q12 0 72 -0.5t91 -0.5q81 0 106.5 5t27.5 19
q1 11 -9 17t-47 18l-111 38q-123 42 -106 164q9 69 61 101t171 32z" />
    <glyph glyph-name="Scircumflex" unicode="&#x15c;" horiz-adv-x="591" 
d="M431 920l129 -140l-51 -60l-139 95h-8l-161 -95l-43 65l150 135h123zM350 703q137 0 237 -32l-17 -122q-180 3 -229 3q-47 0 -65 -8t-23 -38q-4 -22 5.5 -33.5t43.5 -25.5l119 -52q81 -35 106.5 -82.5t16.5 -127.5q-14 -116 -74 -157t-206 -41q-129 0 -255 31l18 132
q202 -5 228 -5q56 0 77.5 9.5t26.5 38.5q4 22 -4.5 32t-36.5 22l-128 58q-79 36 -105.5 86t-17.5 122q14 110 79 150t204 40z" />
    <glyph glyph-name="scircumflex" unicode="&#x15d;" horiz-adv-x="537" 
d="M383 735l129 -140l-51 -60l-139 95h-8l-161 -95l-43 65l150 135h123zM274 511q144 -2 241 -22l-16 -109q-130 2 -192 2q-57 0 -74 -3t-19 -15q-1 -12 9.5 -19t41.5 -17l115 -37q123 -40 109 -154q-11 -89 -69 -118.5t-179 -29.5q-118 0 -238 20l15 109q12 0 72 -0.5
t91 -0.5q81 0 106.5 5t27.5 19q1 11 -9 17t-47 18l-111 38q-123 42 -106 164q9 69 61 101t171 32z" />
    <glyph glyph-name="Scedilla" unicode="&#x15e;" horiz-adv-x="591" 
d="M350 703q137 0 237 -32l-17 -122q-180 3 -229 3q-47 0 -65 -8t-23 -38q-4 -22 5.5 -33.5t43.5 -25.5l119 -52q81 -35 106.5 -82.5t16.5 -127.5q-14 -116 -74 -157t-206 -41q-129 0 -255 31l18 132q202 -5 228 -5q56 0 77.5 9.5t26.5 38.5q4 22 -4.5 32t-36.5 22l-128 58
q-79 36 -105.5 86t-17.5 122q14 110 79 150t204 40zM177 -49q52 5 89.5 4t56 -19.5t11.5 -56.5q-13 -77 -77.5 -111.5t-155.5 -22.5l21 71q88 0 99 52q1 6 0 9t-7.5 5t-18.5 2.5t-34 0.5z" />
    <glyph glyph-name="scedilla" unicode="&#x15f;" horiz-adv-x="537" 
d="M274 511q144 -2 241 -22l-16 -109q-130 2 -192 2q-57 0 -74 -3t-19 -15q-1 -12 9.5 -19t41.5 -17l115 -37q123 -40 109 -154q-11 -89 -69 -118.5t-179 -29.5q-118 0 -238 20l15 109q12 0 72 -0.5t91 -0.5q81 0 106.5 5t27.5 19q1 11 -9 17t-47 18l-111 38
q-123 42 -106 164q9 69 61 101t171 32zM147 -50q52 5 89.5 4t56 -19.5t11.5 -56.5q-13 -77 -77.5 -111.5t-155.5 -22.5l21 71q88 0 99 52q1 6 0 9t-7.5 5t-18.5 2.5t-34 0.5z" />
    <glyph glyph-name="Scaron" unicode="&#x160;" horiz-adv-x="591" 
d="M532 936l38 -67l-171 -131h-81l-150 143l54 58l138 -86h8zM350 703q137 0 237 -32l-17 -122q-180 3 -229 3q-47 0 -65 -8t-23 -38q-4 -22 5.5 -33.5t43.5 -25.5l119 -52q81 -35 106.5 -82.5t16.5 -127.5q-14 -116 -74 -157t-206 -41q-129 0 -255 31l18 132q202 -5 228 -5
q56 0 77.5 9.5t26.5 38.5q4 22 -4.5 32t-36.5 22l-128 58q-79 36 -105.5 86t-17.5 122q14 110 79 150t204 40z" />
    <glyph glyph-name="scaron" unicode="&#x161;" horiz-adv-x="537" 
d="M484 751l38 -67l-171 -131h-81l-150 143l54 58l138 -86h8zM274 511q144 -2 241 -22l-16 -109q-130 2 -192 2q-57 0 -74 -3t-19 -15q-1 -12 9.5 -19t41.5 -17l115 -37q123 -40 109 -154q-11 -89 -69 -118.5t-179 -29.5q-118 0 -238 20l15 109q12 0 72 -0.5t91 -0.5
q81 0 106.5 5t27.5 19q1 11 -9 17t-47 18l-111 38q-123 42 -106 164q9 69 61 101t171 32z" />
    <glyph glyph-name="uni0162" unicode="&#x162;" horiz-adv-x="607" 
d="M650 690l-20 -145h-197l-77 -545h-188l77 545h-197l20 145h582zM185 -42q52 5 89.5 4t56 -19.5t11.5 -56.5q-13 -77 -77.5 -111.5t-155.5 -22.5l21 71q88 0 99 52q1 6 0 9t-7.5 5t-18.5 2.5t-34 0.5z" />
    <glyph glyph-name="uni0163" unicode="&#x163;" horiz-adv-x="426" 
d="M295 383l-31 -214q-4 -24 3 -31.5t33 -7.5h62l9 -121q-58 -22 -153 -22q-74 0 -112.5 39t-28.5 105l37 252h-87l14 109l90 5l20 134h179l-19 -134h127l-16 -114h-127zM140 -52q52 5 89.5 4t56 -19.5t11.5 -56.5q-13 -77 -77.5 -111.5t-155.5 -22.5l21 71q88 0 99 52
q1 6 0 9t-7.5 5t-18.5 2.5t-34 0.5z" />
    <glyph glyph-name="Tcaron" unicode="&#x164;" horiz-adv-x="607" 
d="M406 738h-81l-150 143l54 58l138 -86h8l164 83l38 -67zM650 690l-20 -145h-197l-77 -545h-188l77 545h-197l20 145h582z" />
    <glyph glyph-name="tcaron" unicode="&#x165;" horiz-adv-x="426" 
d="M456 807q29 0 40.5 -13t7.5 -43l-7 -51q-13 -87 -68 -162l-63 23q23 56 33 109q-24 -1 -34 11t-5 35l6 39q5 30 18.5 41t42.5 11h29zM330 631l-19 -134h127l-16 -114h-127l-31 -214q-4 -24 3 -31.5t33 -7.5h62l9 -121q-58 -22 -153 -22q-74 0 -112.5 39t-28.5 105l37 252
h-87l14 109l90 5l20 134h179z" />
    <glyph glyph-name="Tbar" unicode="&#x166;" horiz-adv-x="607" 
d="M630 545h-197l-23 -160h126l-11 -85h-127l-42 -300h-188l42 300h-117l12 85h117l23 160h-197l20 145h582z" />
    <glyph glyph-name="tbar" unicode="&#x167;" horiz-adv-x="426" 
d="M422 383h-127l-10 -70h91l-12 -84h-91l-9 -60q-4 -24 3 -31.5t33 -7.5h62l9 -121q-58 -22 -153 -22q-74 0 -112.5 39t-28.5 105l15 98h-58l12 84h58l10 70h-87l14 109l90 5l20 134h179l-19 -134h127z" />
    <glyph glyph-name="Utilde" unicode="&#x168;" horiz-adv-x="690" 
d="M323 910q31 -1 87 -22t68 -23q26 -6 36.5 5.5t13.5 38.5l75 -7q3 -77 -23 -115.5t-70 -37.5q-33 1 -90.5 23t-69.5 24q-25 4 -35 -7t-14 -39l-75 7q-1 77 25.5 116t71.5 37zM692 690l-60 -413q-23 -163 -92 -227t-224 -64t-220 70t-44 228l58 406h188l-59 -413
q-13 -86 3 -116.5t77 -30.5q63 0 88 32t39 122l58 406h188z" />
    <glyph glyph-name="utilde" unicode="&#x169;" horiz-adv-x="601" 
d="M233 574l-75 7q-1 77 25.5 116t71.5 37q31 -1 87 -22t68 -23q26 -6 36.5 5.5t13.5 38.5l75 -7q3 -77 -23 -115.5t-70 -37.5q-33 1 -90.5 23t-69.5 24q-25 4 -35 -7t-14 -39zM399 497h180l-69 -497h-142l-1 89q-107 -103 -209 -103q-74 0 -108.5 37.5t-24.5 104.5l51 369
h183l-46 -318q-3 -22 4.5 -31t24.5 -9q26 0 51 12.5t64 42.5z" />
    <glyph glyph-name="Umacron" unicode="&#x16a;" horiz-adv-x="690" 
d="M580 884l-15 -110h-311l16 110h310zM692 690l-60 -413q-23 -163 -92 -227t-224 -64t-220 70t-44 228l58 406h188l-59 -413q-13 -86 3 -116.5t77 -30.5q63 0 88 32t39 122l58 406h188z" />
    <glyph glyph-name="umacron" unicode="&#x16b;" horiz-adv-x="601" 
d="M512 708l-15 -110h-311l16 110h310zM399 497h180l-69 -497h-142l-1 89q-107 -103 -209 -103q-74 0 -108.5 37.5t-24.5 104.5l51 369h183l-46 -318q-3 -22 4.5 -31t24.5 -9q26 0 51 12.5t64 42.5z" />
    <glyph glyph-name="Ubreve" unicode="&#x16c;" horiz-adv-x="690" 
d="M517 912l83 -14q1 -67 -50 -113t-137 -46q-87 0 -131.5 49.5t-25.5 116.5l86 4q-4 -31 14.5 -44.5t62.5 -13.5q92 0 98 61zM692 690l-60 -413q-23 -163 -92 -227t-224 -64t-220 70t-44 228l58 406h188l-59 -413q-13 -86 3 -116.5t77 -30.5q63 0 88 32t39 122l58 406h188z
" />
    <glyph glyph-name="ubreve" unicode="&#x16d;" horiz-adv-x="601" 
d="M345 563q-87 0 -131.5 49.5t-25.5 116.5l86 4q-4 -31 14.5 -44.5t62.5 -13.5q92 0 98 61l83 -14q1 -67 -50 -113t-137 -46zM399 497h180l-69 -497h-142l-1 89q-107 -103 -209 -103q-74 0 -108.5 37.5t-24.5 104.5l51 369h183l-46 -318q-3 -22 4.5 -31t24.5 -9
q26 0 51 12.5t64 42.5z" />
    <glyph glyph-name="Uring" unicode="&#x16e;" horiz-adv-x="690" 
d="M426 950q51 0 85 -30t34 -78q0 -56 -36.5 -91.5t-93.5 -35.5q-50 0 -84.5 30.5t-34.5 77.5q0 56 36.5 91.5t93.5 35.5zM422 882q-22 0 -35.5 -14t-13.5 -38q0 -20 12.5 -33t32.5 -13q22 0 36 14.5t14 37.5q0 20 -12.5 33t-33.5 13zM692 690l-60 -413q-23 -163 -92 -227
t-224 -64t-220 70t-44 228l58 406h188l-59 -413q-13 -86 3 -116.5t77 -30.5q63 0 88 32t39 122l58 406h188z" />
    <glyph glyph-name="uring" unicode="&#x16f;" horiz-adv-x="601" 
d="M347 539q-50 0 -84.5 30.5t-34.5 77.5q0 56 36.5 91.5t93.5 35.5q51 0 85 -30t34 -78q0 -56 -36.5 -91.5t-93.5 -35.5zM354 706q-22 0 -35.5 -14t-13.5 -38q0 -20 12.5 -33t32.5 -13q22 0 36 14.5t14 37.5q0 20 -12.5 33t-33.5 13zM399 497h180l-69 -497h-142l-1 89
q-107 -103 -209 -103q-74 0 -108.5 37.5t-24.5 104.5l51 369h183l-46 -318q-3 -22 4.5 -31t24.5 -9q26 0 51 12.5t64 42.5z" />
    <glyph glyph-name="Uhungarumlaut" unicode="&#x170;" horiz-adv-x="690" 
d="M370 956l105 -74l-177 -161l-73 47zM573 956l106 -74l-178 -161l-73 47zM692 690l-60 -413q-23 -163 -92 -227t-224 -64t-220 70t-44 228l58 406h188l-59 -413q-13 -86 3 -116.5t77 -30.5q63 0 88 32t39 122l58 406h188z" />
    <glyph glyph-name="uhungarumlaut" unicode="&#x171;" horiz-adv-x="601" 
d="M407 706l-177 -161l-73 47l145 188zM433 545l-73 47l145 188l106 -74zM357 194l42 303h180l-69 -497h-142l-1 89q-107 -103 -209 -103q-74 0 -108.5 37.5t-24.5 104.5l51 369h183l-46 -318q-3 -22 4.5 -31t24.5 -9q26 0 51 12.5t64 42.5z" />
    <glyph glyph-name="Uogonek" unicode="&#x172;" horiz-adv-x="690" 
d="M504 690h188l-60 -413q-22 -156 -86 -221t-203 -70q-38 -41 -60 -92q-9 -21 1 -27.5t39 0.5l14 -66q-47 -17 -85 -20.5t-60 6t-36 25.5t-12 37.5t11 43.5q25 48 100 96q-121 12 -171.5 82.5t-31.5 212.5l58 406h188l-59 -413q-13 -86 3 -116.5t77 -30.5q63 0 88 32
t39 122z" />
    <glyph glyph-name="uogonek" unicode="&#x173;" horiz-adv-x="601" 
d="M510 0q-41 -44 -64 -97q-9 -21 1 -27.5t39 0.5l14 -66q-47 -17 -85 -20.5t-60 6t-36 25.5t-12 37.5t11 43.5q26 51 103 98h-53l-1 89q-107 -103 -209 -103q-74 0 -108.5 37.5t-24.5 104.5l51 369h183l-46 -318q-3 -22 4.5 -31t24.5 -9q26 0 51 12.5t64 42.5l42 303h180z
" />
    <glyph glyph-name="Wcircumflex" unicode="&#x174;" horiz-adv-x="982" 
d="M624 920l129 -140l-51 -60l-139 95h-8l-161 -95l-43 65l150 135h123zM1015 690l-186 -643q-14 -47 -67 -47h-165q-24 0 -42.5 16t-18.5 39l-2 404q3 92 3 97h-19q-11 -58 -21 -96l-116 -412q-14 -48 -67 -48h-168q-25 0 -43.5 16t-17.5 38l-9 636h186l-15 -452
q-1 -18 -3 -54.5t-3 -53.5h19q13 65 28 116l113 391q14 53 68 53h141q25 0 41.5 -17t17.5 -43l8 -393q2 -53 0 -107h19q9 60 23 113l110 447h186z" />
    <glyph glyph-name="wcircumflex" unicode="&#x175;" horiz-adv-x="908" 
d="M558 734l129 -140l-51 -60l-139 95h-8l-161 -95l-43 65l150 135h123zM226 498l11 -381h8q15 0 25 13.5t20 45.5q12 36 25 102q3 16 27 174q3 18 16.5 31.5t36.5 13.5h157q20 0 33.5 -12.5t14.5 -32.5l14 -335h8q8 0 14 4t11 16t6.5 18.5t7.5 27.5q14 43 32 120
q18 87 28 194h182q-19 -125 -47 -226t-58 -163q-28 -60 -66.5 -84t-119.5 -24h-76q-22 0 -36.5 14t-14.5 34l-9 340h-13q-3 -46 -22 -142q-15 -75 -32 -121q-25 -80 -66 -102.5t-118 -22.5h-96q-21 0 -35.5 13.5t-16.5 34.5l-36 450h185z" />
    <glyph glyph-name="Ycircumflex" unicode="&#x176;" horiz-adv-x="629" 
d="M376 815l-161 -95l-43 65l150 135h123l129 -140l-51 -60l-139 95h-8zM690 690l-294 -473l-30 -217h-189l32 227l-159 463h188l64 -237q10 -45 10 -95h13q6 42 32 95l132 237h201z" />
    <glyph glyph-name="ycircumflex" unicode="&#x177;" 
d="M332 630l-161 -95l-43 65l150 135h123l129 -140l-51 -60l-139 95h-8zM410 497h194q-18 -118 -69 -255.5t-94 -211.5q-74 -124 -165.5 -180t-212.5 -55l-15 103q4 1 26 8t26.5 8.5t23 8t25 10.5t21.5 11.5t23.5 15t20 18t21.5 22.5h-70q-24 0 -41 14.5t-21 37.5l-71 445
h198l26 -367q0 -16 16 -16h32q71 154 106 383z" />
    <glyph glyph-name="Ydieresis" unicode="&#x178;" horiz-adv-x="629" 
d="M248 762q-32 0 -29 32l11 68q4 33 37 33h65q33 0 29 -31l-10 -71q-4 -31 -34 -31h-69zM431 762q-34 0 -29 32l10 69q6 32 36 32h67q33 0 29 -31l-11 -70q-4 -32 -34 -32h-68zM690 690l-294 -473l-30 -217h-189l32 227l-159 463h188l64 -237q10 -45 10 -95h13q6 42 32 95
l132 237h201z" />
    <glyph glyph-name="Zacute" unicode="&#x179;" horiz-adv-x="589" 
d="M561 822l-253 -101l-42 76l234 153zM603 690l-19 -136l-356 -418h306l-19 -136h-522l18 136l357 418h-288l19 136h504z" />
    <glyph glyph-name="zacute" unicode="&#x17a;" horiz-adv-x="531" 
d="M514 637l-253 -101l-42 76l234 153zM504 375h1l-280 -253h247l-16 -122h-462l16 122h-1l280 253h-237l16 122h451z" />
    <glyph glyph-name="Zdotaccent" unicode="&#x17b;" horiz-adv-x="589" 
d="M330 752q-56 0 -48 54l6 49q6 46 54 46h52q24 0 38 -13t11 -38l-5 -51q-6 -47 -53 -47h-55zM603 690l-19 -136l-356 -418h306l-19 -136h-522l18 136l357 418h-288l19 136h504z" />
    <glyph glyph-name="zdotaccent" unicode="&#x17c;" horiz-adv-x="531" 
d="M283 567q-56 0 -48 54l6 49q6 46 54 46h52q24 0 38 -13t11 -38l-5 -51q-6 -47 -53 -47h-55zM504 375h1l-280 -253h247l-16 -122h-462l16 122h-1l280 253h-237l16 122h451z" />
    <glyph glyph-name="Zcaron" unicode="&#x17d;" horiz-adv-x="589" 
d="M393 738h-81l-150 143l54 58l138 -86h8l164 83l38 -67zM603 690l-19 -136l-356 -418h306l-19 -136h-522l18 136l357 418h-288l19 136h504z" />
    <glyph glyph-name="zcaron" unicode="&#x17e;" horiz-adv-x="531" 
d="M346 553h-81l-150 143l54 58l138 -86h8l164 83l38 -67zM504 375h1l-280 -253h247l-16 -122h-462l16 122h-1l280 253h-237l16 122h451z" />
    <glyph glyph-name="uni018F" unicode="&#x18f;" horiz-adv-x="677" 
d="M375 704q169 0 233.5 -80.5t37.5 -285.5q-14 -105 -39.5 -173t-68.5 -108t-99.5 -55.5t-140.5 -15.5q-158 0 -218.5 66t-42.5 183q14 89 68 128t154 48l200 16q7 79 -16.5 106t-95.5 27q-93 0 -226 -15l-17 103q121 56 271 56zM298 130q67 0 96 36t48 143l-140 -14
q-45 -5 -65.5 -24.5t-24.5 -62.5q-4 -40 18 -59t68 -19z" />
    <glyph glyph-name="florin" unicode="&#x192;" horiz-adv-x="487" 
d="M434 577q-28 0 -44.5 -14t-24.5 -46l-25 -109h105l-25 -114h-106l-70 -311q-36 -155 -194 -155q-93 0 -146 13l36 113h58q55 0 69 60l63 280h-92l22 101l96 12l32 141q38 155 196 155q92 0 147 -13l-38 -113h-59z" />
    <glyph glyph-name="Ohorn" unicode="&#x1a0;" horiz-adv-x="728" 
d="M823 703q-13 -64 -58 -105t-108 -49q21 -79 3 -211q-14 -105 -39.5 -173t-68 -108t-98 -55.5t-138.5 -15.5q-173 0 -235 79.5t-34 286.5q28 203 103 277.5t238 74.5q173 0 235 -81q34 6 58.5 33t33.5 62zM463 352q18 128 2.5 168t-80.5 40q-66 0 -93.5 -43.5
t-48.5 -178.5q-18 -126 -2.5 -167t79.5 -41q67 0 95 43.5t48 178.5z" />
    <glyph glyph-name="ohorn" unicode="&#x1a1;" horiz-adv-x="648" 
d="M714 523q-12 -61 -52.5 -101t-98.5 -51q11 -53 0 -130q-20 -140 -85.5 -196.5t-207.5 -56.5q-145 0 -204.5 62t-38.5 205q20 142 85 199t210 57q150 0 205 -65q61 21 79 92zM375 255q12 78 1 103t-57 25q-50 0 -70 -27.5t-33 -114.5q-11 -77 0.5 -101.5t59.5 -24.5
q47 0 67 28t32 112z" />
    <glyph glyph-name="Uhorn" unicode="&#x1af;" horiz-adv-x="777" 
d="M776 736l108 -15q-15 -76 -73 -118.5t-137 -37.5l-42 -288q-23 -163 -92 -227t-224 -64t-220 70t-44 228l58 406h188l-59 -413q-13 -86 3 -116.5t77 -30.5q63 0 88 32t39 122l58 406h188l-7 -49q34 6 58 33.5t33 61.5z" />
    <glyph glyph-name="uhorn" unicode="&#x1b0;" horiz-adv-x="684" 
d="M656 557l108 -15q-15 -73 -70 -115.5t-130 -40.5l-54 -386h-142l-1 89q-107 -103 -209 -103q-74 0 -108.5 37.5t-24.5 104.5l51 369h183l-46 -318q-3 -22 4.5 -31t24.5 -9q26 0 51 12.5t64 42.5l42 303h180l-4 -32q30 9 51.5 34.5t29.5 57.5z" />
    <glyph glyph-name="uni01C4" unicode="&#x1c4;" horiz-adv-x="1273" 
d="M1077 738h-81l-150 143l54 58l138 -86h8l164 83l38 -67zM381 700q116 0 181 -31.5t90 -111.5t6 -219q-16 -109 -39.5 -175.5t-66.5 -105.5t-99.5 -53t-146.5 -14q-142 0 -287 10l97 690q123 10 265 10zM1287 690l-19 -136l-356 -418h306l-19 -136h-522l18 136l357 418
h-288l19 136h504zM461 352q17 130 1 169t-87 39h-90l-60 -428q26 -1 79 -1q49 0 76.5 16t48 64t32.5 141z" />
    <glyph glyph-name="uni01C5" unicode="&#x1c5;" horiz-adv-x="1221" 
d="M1036 553h-81l-150 143l54 58l138 -86h8l164 83l38 -67zM381 700q116 0 181 -31.5t90 -111.5t6 -219q-16 -109 -39.5 -175.5t-66.5 -105.5t-99.5 -53t-146.5 -14q-142 0 -287 10l97 690q123 10 265 10zM461 352q17 130 1 169t-87 39h-90l-60 -428q26 -1 79 -1
q49 0 76.5 16t48 64t32.5 141zM1194 375h1l-280 -253h247l-16 -122h-462l16 122h-1l280 253h-237l16 122h451z" />
    <glyph glyph-name="uni01C6" unicode="&#x1c6;" horiz-adv-x="1137" 
d="M952 553h-81l-150 143l54 58l138 -86h8l164 83l38 -67zM430 700h182l-99 -700h-143l-2 84q-98 -96 -195 -96q-179 0 -143 272q10 76 29.5 126.5t49 77t62 37t75.5 10.5q93 0 160 -14q0 59 7 102zM1110 375h1l-280 -253h247l-16 -122h-462l16 122h-1l280 253h-237l16 122
h451zM215 263q-11 -68 -6 -96.5t37 -26.5q51 2 112 52l27 202h-61q-58 0 -78 -23t-31 -108z" />
    <glyph glyph-name="uni01C7" unicode="&#x1c7;" horiz-adv-x="922" 
d="M301 690l-72 -495q-2 -24 6.5 -34.5t33.5 -10.5h232l-4 -142q-90 -11 -312 -11q-74 0 -115 44t-31 116l74 533h188zM920 690l-77 -558q-10 -70 -56.5 -107.5t-119.5 -37.5q-38 0 -82 7t-64 18l30 119h39q63 0 69 47l74 512h187z" />
    <glyph glyph-name="uni01C8" unicode="&#x1c8;" horiz-adv-x="833" 
d="M779 721q59 0 51 -57l-7 -52q-6 -50 -60 -50h-72q-58 0 -51 57l7 52q6 50 61 50h71zM301 690l-72 -495q-2 -24 6.5 -34.5t33.5 -10.5h232l-4 -142q-90 -11 -312 -11q-74 0 -115 44t-31 116l74 533h188zM808 497l-66 -458q-10 -75 -54.5 -139t-112.5 -95l-100 84
q74 71 87 157l64 451h182z" />
    <glyph glyph-name="uni01C9" unicode="&#x1c9;" horiz-adv-x="636" 
d="M582 721q58 0 51 -57l-7 -52q-6 -50 -60 -50h-72q-58 0 -51 57l7 52q6 50 61 50h71zM290 700l-76 -531q-4 -23 4.5 -31t37.5 -8h42l10 -122q-41 -21 -131 -21q-77 0 -117 38t-32 104l81 571h181zM611 497l-66 -458q-10 -75 -54.5 -139t-112.5 -95l-100 84q74 71 87 157
l64 451h182z" />
    <glyph glyph-name="uni01CA" unicode="&#x1ca;" horiz-adv-x="1105" 
d="M720 690l-88 -628q-5 -32 -21 -47t-48 -15h-78q-27 0 -40.5 13.5t-27.5 44.5l-126 297q-18 39 -33 109h-9q1 -58 -6 -119l-50 -345h-174l88 628q9 62 69 62h78q27 0 40 -13.5t27 -44.5l124 -285q25 -57 39 -116h10q-4 55 4 115l48 344h174zM1103 690l-77 -558
q-10 -70 -56.5 -107.5t-119.5 -37.5q-38 0 -82 7t-64 18l30 119h39q63 0 69 47l74 512h187z" />
    <glyph glyph-name="uni01CB" unicode="&#x1cb;" horiz-adv-x="1016" 
d="M962 721q58 0 51 -57l-7 -52q-6 -50 -60 -50h-72q-58 0 -51 57l7 52q6 50 61 50h71zM720 690l-88 -628q-5 -32 -21 -47t-48 -15h-78q-27 0 -40.5 13.5t-27.5 44.5l-126 297q-18 39 -33 109h-9q1 -58 -6 -119l-50 -345h-174l88 628q9 62 69 62h78q27 0 40 -13.5t27 -44.5
l124 -285q25 -57 39 -116h10q-4 55 4 115l48 344h174zM991 497l-66 -458q-10 -75 -54.5 -139t-112.5 -95l-100 84q74 71 87 157l64 451h182z" />
    <glyph glyph-name="uni01CC" unicode="&#x1cc;" horiz-adv-x="901" 
d="M847 721q59 0 51 -57l-7 -52q-6 -50 -60 -50h-72q-58 0 -51 57l7 52q6 50 61 50h71zM446 511q64 0 100 -37t26 -105l-52 -369h-182l44 312q4 28 -2.5 37.5t-27.5 7.5q-49 -2 -118 -57l-42 -300h-182l69 497h143l2 -93q107 107 222 107zM630 46l64 451h182l-66 -458
q-10 -75 -54.5 -139t-112.5 -95l-100 84q74 71 87 157z" />
    <glyph glyph-name="Gcaron" unicode="&#x1e6;" horiz-adv-x="658" 
d="M449 738h-81l-150 143l54 58l138 -86h8l164 83l38 -67zM422 194l28 204h179l-56 -398h-137l-7 82q-94 -96 -204 -96q-226 0 -177 366q15 108 42 176.5t73.5 107.5t105 53.5t145.5 14.5q125 0 222 -28l-22 -135q-106 3 -207 3q-80 0 -113 -41.5t-51 -164.5
q-15 -113 -2 -152t68 -39q26 0 49 8.5t32.5 15t31.5 23.5z" />
    <glyph glyph-name="gcaron" unicode="&#x1e7;" horiz-adv-x="607" 
d="M399 557h-81l-150 143l54 58l138 -86h8l164 83l38 -67zM292 511q174 0 291 -31l-58 -411q-10 -82 -37.5 -137.5t-71.5 -84.5t-92 -40.5t-112 -11.5q-133 0 -205 31l10 102q32 -1 133 -1q156 0 193 76q8 16 19 53t22 56q-72 -111 -211 -117q-97 -4 -130 62.5t-12 202.5
q13 86 35.5 138t59 76t71.5 30.5t95 6.5zM246 130q59 7 120 88l24 168q-21 1 -63 1q-59 0 -79 -23t-32 -101q-13 -85 -6.5 -111t36.5 -22z" />
    <glyph glyph-name="uni01EA" unicode="&#x1ea;" horiz-adv-x="691" 
d="M388 704q170 0 235 -80.5t37 -285.5q-14 -104 -39 -171.5t-66.5 -107.5t-96 -56t-135.5 -17q-34 -42 -52 -83q-9 -21 1 -27.5t39 0.5l14 -66q-47 -17 -85 -20.5t-60 6t-36 25.5t-12 37.5t11 43.5q24 45 89 89q-123 17 -166 99t-19 262q28 203 103 277.5t238 74.5z
M463 352q18 128 2.5 168t-80.5 40q-66 0 -93.5 -43.5t-48.5 -178.5q-18 -126 -2.5 -167t79.5 -41q67 0 95 43.5t48 178.5z" />
    <glyph glyph-name="uni01EB" unicode="&#x1eb;" 
d="M322 511q146 0 204 -62.5t37 -207.5q-20 -135 -80 -192t-189 -61q-36 -42 -54 -85q-9 -21 1 -27.5t39 0.5l14 -66q-47 -17 -85 -20.5t-60 6t-36 25.5t-12 37.5t11 43.5q23 45 90 90q-107 13 -150 75t-25 188q20 142 85 199t210 57zM375 255q12 78 1 103t-57 25
q-50 0 -70 -27.5t-33 -114.5q-11 -77 0.5 -101.5t59.5 -24.5q47 0 67 28t32 112z" />
    <glyph glyph-name="Aringacute" unicode="&#x1fa;" horiz-adv-x="664" 
d="M518 981l-188 -71l-40 68l171 121zM381 659q-50 0 -84 30.5t-34 77.5q0 55 36.5 91t92.5 36q51 0 85 -30t34 -78q0 -56 -36.5 -91.5t-93.5 -35.5zM388 825q-22 0 -35.5 -14t-13.5 -37q0 -20 12.5 -33t32.5 -13q22 0 36 14.5t14 37.5q0 20 -12.5 32.5t-33.5 12.5zM441 0
l-16 111h-228l-46 -111h-196l265 585q20 45 67 45h172q23 0 39 -15t21 -37l110 -578h-188zM256 253h148l-25 166q-4 30 -2 72h-29q-11 -46 -22 -71z" />
    <glyph glyph-name="aringacute" unicode="&#x1fb;" horiz-adv-x="603" 
d="M532 860l-250 -90l-41 77l232 143zM355 530q-50 0 -84.5 30.5t-34.5 77.5q0 56 36.5 91.5t93.5 35.5q51 0 85 -30t34 -78q0 -56 -36.5 -91.5t-93.5 -35.5zM362 697q-22 0 -35.5 -14t-13.5 -38q0 -20 12.5 -33t32.5 -13q22 0 36 14.5t14 37.5q0 20 -12.5 33t-33.5 13z
M335 511q52 0 130 -10t114 -21l-68 -480h-140l-1 94q-70 -99 -198 -106q-99 -5 -131 63t-11 209q11 69 31 116t43.5 73.5t63 40.5t75 17.5t92.5 3.5zM243 130q57 3 118 88l25 168q-20 1 -60 1q-53 0 -76.5 -22.5t-34.5 -101.5q-13 -86 -8 -110t36 -23z" />
    <glyph glyph-name="AEacute" unicode="&#x1fc;" horiz-adv-x="945" 
d="M804 822l-253 -101l-42 76l234 153zM703 549q-27 0 -39 -10t-16 -36l-13 -87h249l-15 -121h-251l-16 -109q-2 -24 6.5 -34.5t33.5 -10.5h238l-3 -134q-92 -10 -317 -10q-72 0 -109 43.5t-27 114.5l2 15h-184l-102 -170h-195l339 548q34 56 71 85.5t100 44t166 14.5
q215 0 341 -10l-23 -133h-236zM326 310h120l29 205q5 36 25 64h-10q-4 -6 -36 -55z" />
    <glyph glyph-name="aeacute" unicode="&#x1fd;" horiz-adv-x="904" 
d="M732 637l-253 -101l-42 76l234 153zM654 511q139 0 190.5 -44.5t38.5 -134.5q-10 -67 -57 -94.5t-149 -35.5l-137 -11q1 -37 21 -49.5t66 -12.5q93 0 194 12l11 -113q-87 -40 -223 -40q-191 0 -237 112q-69 -105 -201 -112q-98 -5 -129.5 63t-11.5 209q8 58 20.5 100
t32 69t39 43.5t50.5 25t58 11t69 2.5q105 0 215 -17q55 17 140 17zM709 350q2 24 -9.5 31.5t-49.5 6.5q-49 -1 -68.5 -20.5t-30.5 -80.5l85 9q37 3 53 13.5t20 40.5zM243 130q52 3 114 84q0 20 3 41q9 78 32 131q-23 1 -68 1q-54 0 -75 -22t-33 -102q-7 -46 -9 -70t1 -39.5
t11 -20t24 -3.5z" />
    <glyph glyph-name="Oslashacute" unicode="&#x1fe;" horiz-adv-x="691" 
d="M677 740l-63 -106q75 -83 46 -296q-14 -105 -39.5 -173t-68 -108t-98 -55.5t-138.5 -15.5q-43 0 -88 5l-60 -98l-130 67l56 91q-77 80 -47 301q28 203 103 277.5t238 74.5q54 0 93 -7l54 91l-168 -67l-42 76l234 153l61 -128l-58 -23zM463 352q18 128 2.5 168t-80.5 40
q-66 0 -93.5 -43.5t-48.5 -178.5q-18 -126 -2.5 -167t79.5 -41q67 0 95 43.5t48 178.5z" />
    <glyph glyph-name="oslashacute" unicode="&#x1ff;" 
d="M510 463q76 -63 53 -222q-20 -140 -85.5 -196.5t-207.5 -56.5q-18 0 -50 2l-58 -94l-114 62l43 70q-87 59 -64 227q20 142 85 199t210 57q34 0 63 -3l53 84l-141 -56l-42 76l234 153l61 -128l-96 -38l105 -58zM375 255q12 78 1 103t-57 25q-50 0 -70 -27.5t-33 -114.5
q-11 -77 0.5 -101.5t59.5 -24.5q47 0 67 28t32 112z" />
    <glyph glyph-name="uni0200" unicode="&#x200;" horiz-adv-x="664" 
d="M371 768l-72 -47l-178 161l106 74zM575 768l-74 -47l-177 161l106 74zM441 0l-16 161h-211l-63 -161h-196l277 645q19 45 67 45h172q23 0 40.5 -15t19.5 -37l98 -638h-188zM270 303h140l-18 176q-3 24 -3 72h-29q-9 -37 -21 -71z" />
    <glyph glyph-name="uni0201" unicode="&#x201;" horiz-adv-x="603" 
d="M324 583l-72 -47l-178 161l106 74zM528 583l-74 -47l-177 161l106 74zM335 511q52 0 130 -10t114 -21l-68 -480h-140l-1 94q-70 -99 -198 -106q-99 -5 -131 63t-11 209q11 69 31 116t43.5 73.5t63 40.5t75 17.5t92.5 3.5zM243 130q57 3 118 88l25 168q-20 1 -60 1
q-53 0 -76.5 -22.5t-34.5 -101.5q-13 -86 -8 -110t36 -23z" />
    <glyph glyph-name="uni0202" unicode="&#x202;" horiz-adv-x="664" 
d="M303 739l-83 14q-1 67 50 113t137 46q87 0 131.5 -50t24.5 -116l-86 -5q5 31 -14 44.5t-63 13.5q-91 0 -97 -60zM441 0l-16 161h-211l-63 -161h-196l277 645q19 45 67 45h172q23 0 40.5 -15t19.5 -37l98 -638h-188zM270 303h140l-18 176q-3 24 -3 72h-29q-9 -37 -21 -71z
" />
    <glyph glyph-name="uni0203" unicode="&#x203;" horiz-adv-x="603" 
d="M256 554l-83 14q-1 67 50 113t137 46q87 0 131.5 -50t24.5 -116l-86 -5q5 31 -14 44.5t-63 13.5q-91 0 -97 -60zM335 511q52 0 130 -10t114 -21l-68 -480h-140l-1 94q-70 -99 -198 -106q-99 -5 -131 63t-11 209q11 69 31 116t43.5 73.5t63 40.5t75 17.5t92.5 3.5z
M243 130q57 3 118 88l25 168q-20 1 -60 1q-53 0 -76.5 -22.5t-34.5 -101.5q-13 -86 -8 -110t36 -23z" />
    <glyph glyph-name="uni0204" unicode="&#x204;" horiz-adv-x="580" 
d="M356 773l-72 -47l-178 161l106 74zM560 773l-74 -47l-177 161l106 74zM326 547q-27 0 -39 -10t-15 -36l-11 -82h259l-16 -128h-261l-14 -104q-4 -23 5.5 -33.5t34.5 -10.5h247l-4 -136q-85 -10 -320 -10q-85 0 -125 48t-29 129l52 374q10 68 54 106.5t118 38.5
q242 0 334 -12l-22 -134h-248z" />
    <glyph glyph-name="uni0205" unicode="&#x205;" horiz-adv-x="576" 
d="M317 583l-72 -47l-178 161l106 74zM521 583l-74 -47l-177 161l106 74zM323 511q141 0 193 -44.5t39 -134.5q-10 -67 -57.5 -94.5t-150.5 -35.5l-135 -10q1 -38 20 -50.5t64 -12.5q95 0 198 12l12 -113q-89 -40 -228 -40q-154 0 -210 65.5t-41 201.5q17 149 85.5 202.5
t210.5 53.5zM380 350q2 24 -10 31.5t-50 6.5q-47 -1 -66 -20.5t-31 -79.5l84 8q37 3 53.5 13.5t19.5 40.5z" />
    <glyph glyph-name="uni0206" unicode="&#x206;" horiz-adv-x="580" 
d="M288 744l-83 14q-1 67 50 113t137 46q87 0 131.5 -50t24.5 -116l-86 -5q5 31 -14 44.5t-63 13.5q-91 0 -97 -60zM326 547q-27 0 -39 -10t-15 -36l-11 -82h259l-16 -128h-261l-14 -104q-4 -23 5.5 -33.5t34.5 -10.5h247l-4 -136q-85 -10 -320 -10q-85 0 -125 48t-29 129
l52 374q10 68 54 106.5t118 38.5q242 0 334 -12l-22 -134h-248z" />
    <glyph glyph-name="uni0207" unicode="&#x207;" horiz-adv-x="576" 
d="M249 554l-83 14q-1 67 50 113t137 46q87 0 131.5 -50t24.5 -116l-86 -5q5 31 -14 44.5t-63 13.5q-91 0 -97 -60zM323 511q141 0 193 -44.5t39 -134.5q-10 -67 -57.5 -94.5t-150.5 -35.5l-135 -10q1 -38 20 -50.5t64 -12.5q95 0 198 12l12 -113q-89 -40 -228 -40
q-154 0 -210 65.5t-41 201.5q17 149 85.5 202.5t210.5 53.5zM380 350q2 24 -10 31.5t-50 6.5q-47 -1 -66 -20.5t-31 -79.5l84 8q37 3 53.5 13.5t19.5 40.5z" />
    <glyph glyph-name="uni0208" unicode="&#x208;" horiz-adv-x="308" 
d="M52 956l144 -188l-72 -47l-178 161zM255 956l145 -188l-74 -47l-177 161zM304 690l-97 -690h-188l97 690h188z" />
    <glyph glyph-name="uni0209" unicode="&#x209;" horiz-adv-x="292" 
d="M16 771l144 -188l-72 -47l-178 161zM219 771l145 -188l-74 -47l-177 161zM266 497l-69 -497h-183l70 497h182z" />
    <glyph glyph-name="uni020A" unicode="&#x20a;" horiz-adv-x="308" 
d="M128 739l-83 14q-1 67 50 113t137 46q87 0 131.5 -50t24.5 -116l-86 -5q5 31 -14 44.5t-63 13.5q-91 0 -97 -60zM304 690l-97 -690h-188l97 690h188z" />
    <glyph glyph-name="uni020B" unicode="&#x20b;" horiz-adv-x="292" 
d="M92 554l-83 14q-1 67 50 113t137 46q87 0 131.5 -50t24.5 -116l-86 -5q5 31 -14 44.5t-63 13.5q-91 0 -97 -60zM266 497l-69 -497h-183l70 497h182z" />
    <glyph glyph-name="uni020C" unicode="&#x20c;" horiz-adv-x="691" 
d="M240 956l144 -188l-72 -47l-178 161zM443 956l145 -188l-74 -47l-177 161zM388 704q170 0 235 -80.5t37 -285.5q-14 -105 -39.5 -173t-68 -108t-98 -55.5t-138.5 -15.5q-173 0 -235 79.5t-34 286.5q28 203 103 277.5t238 74.5zM385 560q-66 0 -93.5 -43.5t-48.5 -178.5
q-18 -126 -2.5 -167t79.5 -41q67 0 95 43.5t48 178.5q18 128 2.5 168t-80.5 40z" />
    <glyph glyph-name="uni020D" unicode="&#x20d;" 
d="M173 771l144 -188l-72 -47l-178 161zM376 771l145 -188l-74 -47l-177 161zM322 511q146 0 204 -62.5t37 -207.5q-20 -140 -85.5 -196.5t-207.5 -56.5q-145 0 -204.5 62t-38.5 205q20 142 85 199t210 57zM319 383q-50 0 -70 -27.5t-33 -114.5q-11 -77 0.5 -101.5
t59.5 -24.5q47 0 67 28t32 112q12 78 1 103t-57 25z" />
    <glyph glyph-name="uni020E" unicode="&#x20e;" horiz-adv-x="691" 
d="M316 739l-83 14q-1 67 50 113t137 46q87 0 131.5 -50t24.5 -116l-86 -5q5 31 -14 44.5t-63 13.5q-91 0 -97 -60zM388 704q170 0 235 -80.5t37 -285.5q-14 -105 -39.5 -173t-68 -108t-98 -55.5t-138.5 -15.5q-173 0 -235 79.5t-34 286.5q28 203 103 277.5t238 74.5z
M385 560q-66 0 -93.5 -43.5t-48.5 -178.5q-18 -126 -2.5 -167t79.5 -41q67 0 95 43.5t48 178.5q18 128 2.5 168t-80.5 40z" />
    <glyph glyph-name="uni020F" unicode="&#x20f;" 
d="M249 554l-83 14q-1 67 50 113t137 46q87 0 131.5 -50t24.5 -116l-86 -5q5 31 -14 44.5t-63 13.5q-91 0 -97 -60zM322 511q146 0 204 -62.5t37 -207.5q-20 -140 -85.5 -196.5t-207.5 -56.5q-145 0 -204.5 62t-38.5 205q20 142 85 199t210 57zM319 383q-50 0 -70 -27.5
t-33 -114.5q-11 -77 0.5 -101.5t59.5 -24.5q47 0 67 28t32 112q12 78 1 103t-57 25z" />
    <glyph glyph-name="uni0210" unicode="&#x210;" horiz-adv-x="656" 
d="M366 768l-72 -47l-178 161l106 74zM570 768l-74 -47l-177 161l106 74zM636 485q-9 -70 -44 -111t-111 -49l-1 -7q76 -13 87 -108l30 -210h-193l-24 211q-2 30 -12 39.5t-36 9.5h-93l-37 -260h-183l97 690q96 10 268 10q141 0 204.5 -49t47.5 -166zM449 487q6 44 -8.5 60
t-59.5 16h-100l-23 -166h90q51 0 72 18t29 72z" />
    <glyph glyph-name="uni0211" unicode="&#x211;" horiz-adv-x="439" 
d="M259 583l-72 -47l-178 161l106 74zM463 583l-74 -47l-177 161l106 74zM226 418q105 93 203 93h34l-39 -167h-42q-42 0 -147 -35l-42 -309h-183l70 497h142z" />
    <glyph glyph-name="uni0212" unicode="&#x212;" horiz-adv-x="656" 
d="M298 739l-83 14q-1 67 50 113t137 46q87 0 131.5 -50t24.5 -116l-86 -5q5 31 -14 44.5t-63 13.5q-91 0 -97 -60zM636 485q-9 -70 -44 -111t-111 -49l-1 -7q76 -13 87 -108l30 -210h-193l-24 211q-2 30 -12 39.5t-36 9.5h-93l-37 -260h-183l97 690q96 10 268 10
q141 0 204.5 -49t47.5 -166zM449 487q6 44 -8.5 60t-59.5 16h-100l-23 -166h90q51 0 72 18t29 72z" />
    <glyph glyph-name="uni0213" unicode="&#x213;" horiz-adv-x="439" 
d="M191 554l-83 14q-1 67 50 113t137 46q87 0 131.5 -50t24.5 -116l-86 -5q5 31 -14 44.5t-63 13.5q-91 0 -97 -60zM429 511h34l-39 -167h-42q-42 0 -147 -35l-42 -309h-183l70 497h142l4 -79q105 93 203 93z" />
    <glyph glyph-name="uni0214" unicode="&#x214;" horiz-adv-x="690" 
d="M240 956l144 -188l-72 -47l-178 161zM443 956l145 -188l-74 -47l-177 161zM692 690l-60 -413q-23 -163 -92 -227t-224 -64t-220 70t-44 228l58 406h188l-59 -413q-13 -86 3 -116.5t77 -30.5q63 0 88 32t39 122l58 406h188z" />
    <glyph glyph-name="uni0215" unicode="&#x215;" horiz-adv-x="601" 
d="M316 592l-72 -47l-178 161l106 74zM520 592l-74 -47l-177 161l106 74zM399 497h180l-69 -497h-142l-1 89q-107 -103 -209 -103q-74 0 -108.5 37.5t-24.5 104.5l51 369h183l-46 -318q-3 -22 4.5 -31t24.5 -9q26 0 51 12.5t64 42.5z" />
    <glyph glyph-name="uni0216" unicode="&#x216;" horiz-adv-x="690" 
d="M316 739l-83 14q-1 67 50 113t137 46q87 0 131.5 -50t24.5 -116l-86 -5q5 31 -14 44.5t-63 13.5q-91 0 -97 -60zM692 690l-60 -413q-23 -163 -92 -227t-224 -64t-220 70t-44 228l58 406h188l-59 -413q-13 -86 3 -116.5t77 -30.5q63 0 88 32t39 122l58 406h188z" />
    <glyph glyph-name="uni0217" unicode="&#x217;" horiz-adv-x="601" 
d="M248 563l-83 14q-1 67 50 113t137 46q87 0 131.5 -50t24.5 -116l-86 -5q5 31 -14 44.5t-63 13.5q-91 0 -97 -60zM399 497h180l-69 -497h-142l-1 89q-107 -103 -209 -103q-74 0 -108.5 37.5t-24.5 104.5l51 369h183l-46 -318q-3 -22 4.5 -31t24.5 -9q26 0 51 12.5t64 42.5
z" />
    <glyph glyph-name="Scommaaccent" unicode="&#x218;" horiz-adv-x="591" 
d="M350 703q137 0 237 -32l-17 -122q-180 3 -229 3q-47 0 -65 -8t-23 -38q-4 -22 5.5 -33.5t43.5 -25.5l119 -52q81 -35 106.5 -82.5t16.5 -127.5q-14 -116 -74 -157t-206 -41q-129 0 -255 31l18 132q202 -5 228 -5q56 0 77.5 9.5t26.5 38.5q4 22 -4.5 32t-36.5 22l-128 58
q-79 36 -105.5 86t-17.5 122q14 110 79 150t204 40zM278 -49q32 0 44.5 -12.5t7.5 -39.5l-8 -50q-6 -37 -27 -80t-47 -72l-69 21q19 41 37 103q-26 0 -35.5 10.5t-7.5 33.5l7 38q5 27 20 37.5t47 10.5h31z" />
    <glyph glyph-name="scommaaccent" unicode="&#x219;" horiz-adv-x="537" 
d="M274 511q144 -2 241 -22l-16 -109q-130 2 -192 2q-57 0 -74 -3t-19 -15q-1 -12 9.5 -19t41.5 -17l115 -37q123 -40 109 -154q-11 -89 -69 -118.5t-179 -29.5q-118 0 -238 20l15 109q12 0 72 -0.5t91 -0.5q81 0 106.5 5t27.5 19q1 11 -9 17t-47 18l-111 38
q-123 42 -106 164q9 69 61 101t171 32zM240 -46q32 0 44.5 -12.5t7.5 -39.5l-8 -50q-6 -37 -27 -80t-47 -72l-69 21q19 41 37 103q-26 0 -35.5 10.5t-7.5 33.5l7 38q5 27 20 37.5t47 10.5h31z" />
    <glyph glyph-name="uni021A" unicode="&#x21a;" horiz-adv-x="607" 
d="M650 690l-20 -145h-197l-77 -545h-188l77 545h-197l20 145h582zM263 -42q32 0 44.5 -12.5t7.5 -39.5l-8 -50q-6 -37 -27 -80t-47 -72l-69 21q19 41 37 103q-26 0 -35.5 10.5t-7.5 33.5l7 38q5 27 20 37.5t47 10.5h31z" />
    <glyph glyph-name="uni021B" unicode="&#x21b;" horiz-adv-x="426" 
d="M295 383l-31 -214q-4 -24 3 -31.5t33 -7.5h62l9 -121q-58 -22 -153 -22q-74 0 -112.5 39t-28.5 105l37 252h-87l14 109l90 5l20 134h179l-19 -134h127l-16 -114h-127zM210 -46q32 0 44.5 -12.5t7.5 -39.5l-8 -50q-6 -37 -27 -80t-47 -72l-69 21q19 41 37 103
q-26 0 -35.5 10.5t-7.5 33.5l7 38q5 27 20 37.5t47 10.5h31z" />
    <glyph glyph-name="uni022A" unicode="&#x22a;" horiz-adv-x="691" 
d="M580 1016l-14 -100h-282l14 100h282zM366 872q32 0 27 -29l-10 -64q-4 -29 -30 -29h-62q-31 0 -27 29l10 62q4 31 34 31h58zM533 872q31 0 26 -29l-9 -64q-4 -29 -32 -29h-61q-30 0 -26 29l9 63q4 30 32 30h61zM388 704q170 0 235 -80.5t37 -285.5q-14 -105 -39.5 -173
t-68 -108t-98 -55.5t-138.5 -15.5q-173 0 -235 79.5t-34 286.5q28 203 103 277.5t238 74.5zM385 560q-66 0 -93.5 -43.5t-48.5 -178.5q-18 -126 -2.5 -167t79.5 -41q67 0 95 43.5t48 178.5q18 128 2.5 168t-80.5 40z" />
    <glyph glyph-name="uni022B" unicode="&#x22b;" 
d="M513 831l-14 -100h-282l14 100h282zM299 687q32 0 27 -29l-10 -64q-4 -29 -30 -29h-62q-31 0 -27 29l10 62q4 31 34 31h58zM466 687q31 0 26 -29l-9 -64q-4 -29 -32 -29h-61q-30 0 -26 29l9 63q4 30 32 30h61zM322 511q146 0 204 -62.5t37 -207.5q-20 -140 -85.5 -196.5
t-207.5 -56.5q-145 0 -204.5 62t-38.5 205q20 142 85 199t210 57zM319 383q-50 0 -70 -27.5t-33 -114.5q-11 -77 0.5 -101.5t59.5 -24.5q47 0 67 28t32 112q12 78 1 103t-57 25z" />
    <glyph glyph-name="uni022C" unicode="&#x22c;" horiz-adv-x="691" 
d="M579 1040l-14 -100h-283l15 100h282zM320 890q31 -1 87 -22t68 -23q26 -6 36.5 5.5t13.5 38.5l75 -7q3 -77 -23 -115.5t-70 -37.5q-33 1 -90.5 23t-69.5 24q-25 4 -35 -7t-14 -39l-75 7q-1 77 25.5 116t71.5 37zM388 704q170 0 235 -80.5t37 -285.5q-14 -105 -39.5 -173
t-68 -108t-98 -55.5t-138.5 -15.5q-173 0 -235 79.5t-34 286.5q28 203 103 277.5t238 74.5zM385 560q-66 0 -93.5 -43.5t-48.5 -178.5q-18 -126 -2.5 -167t79.5 -41q67 0 95 43.5t48 178.5q18 128 2.5 168t-80.5 40z" />
    <glyph glyph-name="uni022D" unicode="&#x22d;" 
d="M512 855l-14 -100h-283l15 100h282zM253 705q31 -1 87 -22t68 -23q26 -6 36.5 5.5t13.5 38.5l75 -7q3 -77 -23 -115.5t-70 -37.5q-33 1 -90.5 23t-69.5 24q-25 4 -35 -7t-14 -39l-75 7q-1 77 25.5 116t71.5 37zM322 511q146 0 204 -62.5t37 -207.5q-20 -140 -85.5 -196.5
t-207.5 -56.5q-145 0 -204.5 62t-38.5 205q20 142 85 199t210 57zM319 383q-50 0 -70 -27.5t-33 -114.5q-11 -77 0.5 -101.5t59.5 -24.5q47 0 67 28t32 112q12 78 1 103t-57 25z" />
    <glyph glyph-name="uni0230" unicode="&#x230;" horiz-adv-x="691" 
d="M586 1025l-14 -100h-283l15 100h282zM445 880q23 0 35.5 -12.5t9.5 -34.5l-6 -46q-5 -43 -47 -43h-50q-50 0 -44 49l6 45q5 42 48 42h48zM388 704q170 0 235 -80.5t37 -285.5q-14 -105 -39.5 -173t-68 -108t-98 -55.5t-138.5 -15.5q-173 0 -235 79.5t-34 286.5
q28 203 103 277.5t238 74.5zM385 560q-66 0 -93.5 -43.5t-48.5 -178.5q-18 -126 -2.5 -167t79.5 -41q67 0 95 43.5t48 178.5q18 128 2.5 168t-80.5 40z" />
    <glyph glyph-name="uni0231" unicode="&#x231;" 
d="M519 840l-14 -100h-283l15 100h282zM378 695q23 0 35.5 -12.5t9.5 -34.5l-6 -46q-5 -43 -47 -43h-50q-50 0 -44 49l6 45q4 42 48 42h48zM322 511q146 0 204 -62.5t37 -207.5q-20 -140 -85.5 -196.5t-207.5 -56.5q-145 0 -204.5 62t-38.5 205q20 142 85 199t210 57z
M319 383q-50 0 -70 -27.5t-33 -114.5q-11 -77 0.5 -101.5t59.5 -24.5q47 0 67 28t32 112q12 78 1 103t-57 25z" />
    <glyph glyph-name="uni0232" unicode="&#x232;" horiz-adv-x="629" 
d="M544 884l-15 -110h-311l16 110h310zM690 690l-294 -473l-30 -217h-189l32 227l-159 463h188l64 -237q10 -45 10 -95h13q6 42 32 95l132 237h201z" />
    <glyph glyph-name="uni0233" unicode="&#x233;" 
d="M500 699l-15 -110h-311l16 110h310zM410 497h194q-18 -118 -69 -255.5t-94 -211.5q-74 -124 -165.5 -180t-212.5 -55l-15 103q4 1 26 8t26.5 8.5t23 8t25 10.5t21.5 11.5t23.5 15t20 18t21.5 22.5h-70q-24 0 -41 14.5t-21 37.5l-71 445h198l26 -367q0 -16 16 -16h32
q71 154 106 383z" />
    <glyph glyph-name="uni0237" unicode="&#x237;" horiz-adv-x="292" 
d="M267 497l-66 -458q-10 -75 -54.5 -139t-112.5 -95l-100 84q74 71 87 157l64 451h182z" />
    <glyph glyph-name="uni0259" unicode="&#x259;" horiz-adv-x="576" 
d="M298 511q153 0 209.5 -66t41.5 -202q-16 -148 -85 -201.5t-211 -53.5q-141 0 -192.5 44.5t-38.5 134.5q9 67 57 94.5t151 34.5l134 10q-1 38 -20 50.5t-63 12.5q-104 0 -198 -11l-12 113q88 40 227 40zM257 111q46 0 65.5 20t30.5 80l-83 -8q-37 -3 -53.5 -13.5
t-20.5 -40.5q-2 -24 10 -31.5t51 -6.5z" />
    <glyph glyph-name="uni02B9" unicode="&#x2b9;" horiz-adv-x="294" 
d="M311 752l-111 -225h-106l89 225h128z" />
    <glyph glyph-name="uni02BA" unicode="&#x2ba;" horiz-adv-x="462" 
d="M311 752l-111 -225h-106l89 225h128zM480 752l-112 -225h-105l89 225h128z" />
    <glyph glyph-name="uni02BB" unicode="&#x2bb;" horiz-adv-x="251" 
d="M147 485q-36 0 -49.5 15t-8.5 51l9 64q7 49 30 104t52 93l76 -28q-22 -54 -41 -133q29 1 40.5 -13t6.5 -43l-7 -49q-5 -35 -22 -48t-52 -13h-34z" />
    <glyph glyph-name="uni02BE" unicode="&#x2be;" horiz-adv-x="176" 
d="M74 602q22 0 35.5 14t13.5 37q0 40 -37 46l11 68q44 -5 73.5 -34.5t29.5 -72.5q0 -56 -38 -92t-99 -35z" />
    <glyph glyph-name="uni02BF" unicode="&#x2bf;" horiz-adv-x="176" 
d="M216 699q-23 0 -36.5 -14t-13.5 -38q0 -39 37 -45l-10 -69q-45 5 -74.5 34.5t-29.5 72.5q0 57 38 92.5t99 34.5z" />
    <glyph glyph-name="circumflex" unicode="&#x2c6;" horiz-adv-x="464" 
d="M351 735l129 -140l-51 -60l-139 95h-8l-161 -95l-43 65l150 135h123z" />
    <glyph glyph-name="caron" unicode="&#x2c7;" horiz-adv-x="464" 
d="M450 747l38 -67l-171 -131h-81l-150 143l54 58l138 -86h8z" />
    <glyph glyph-name="uni02C8" unicode="&#x2c8;" horiz-adv-x="204" 
d="M183 599h-66l16 96h66z" />
    <glyph glyph-name="uni02C9" unicode="&#x2c9;" horiz-adv-x="400" 
d="M419 704l-15 -110h-311l16 110h310z" />
    <glyph glyph-name="uni02CA" unicode="&#x2ca;" horiz-adv-x="374" 
d="M327 746l61 -128l-253 -101l-42 76z" />
    <glyph glyph-name="uni02CB" unicode="&#x2cb;" horiz-adv-x="374" 
d="M155 742l221 -149l-59 -76l-236 110z" />
    <glyph glyph-name="uni02CC" unicode="&#x2cc;" horiz-adv-x="195" 
d="M70 -166l-66 1l17 95h66z" />
    <glyph glyph-name="breve" unicode="&#x2d8;" horiz-adv-x="403" 
d="M353 713l83 -14q1 -67 -50 -113t-137 -46q-87 0 -131.5 49.5t-25.5 116.5l86 4q-4 -31 14.5 -44.5t62.5 -13.5q92 0 98 61z" />
    <glyph glyph-name="dotaccent" unicode="&#x2d9;" horiz-adv-x="244" 
d="M208 714q24 0 38 -13t11 -38l-5 -51q-6 -47 -53 -47h-55q-56 0 -48 54l6 49q6 46 54 46h52z" />
    <glyph glyph-name="ring" unicode="&#x2da;" horiz-adv-x="314" 
d="M219 767q51 0 85 -30t34 -78q0 -56 -36.5 -91.5t-93.5 -35.5q-50 0 -84.5 30.5t-34.5 77.5q0 56 36.5 91.5t93.5 35.5zM215 699q-22 0 -35.5 -14t-13.5 -38q0 -20 12.5 -33t32.5 -13q22 0 36 14.5t14 37.5q0 20 -12.5 33t-33.5 13z" />
    <glyph glyph-name="ogonek" unicode="&#x2db;" horiz-adv-x="250" 
d="M100 7l77 -7q-41 -44 -64 -97q-9 -21 1 -27.5t39 0.5l14 -66q-47 -17 -85 -20.5t-60 6t-36 25.5t-12 37.5t11 43.5q28 54 115 105z" />
    <glyph glyph-name="tilde" unicode="&#x2dc;" horiz-adv-x="451" 
d="M188 718q31 -1 87 -22t68 -23q26 -6 36.5 5.5t13.5 38.5l75 -7q3 -77 -23 -115.5t-70 -37.5q-33 1 -90.5 23t-69.5 24q-25 4 -35 -7t-14 -39l-75 7q-1 77 25.5 116t71.5 37z" />
    <glyph glyph-name="hungarumlaut" unicode="&#x2dd;" horiz-adv-x="526" 
d="M233 750l105 -74l-177 -161l-73 47zM436 750l106 -74l-178 -161l-73 47z" />
    <glyph glyph-name="acutecomb" unicode="&#x301;" horiz-adv-x="0" 
d="M-55 746l61 -128l-253 -101l-42 76z" />
    <glyph glyph-name="uni0302" unicode="&#x302;" horiz-adv-x="0" 
d="M-119 735l129 -140l-50 -60l-140 95h-8l-160 -95l-43 65l149 135h123z" />
    <glyph glyph-name="tildecomb" unicode="&#x303;" horiz-adv-x="0" 
d="M-264 718q31 -1 87.5 -22t68.5 -23q25 -6 36 5.5t14 38.5l75 -7q2 -77 -23.5 -115.5t-70.5 -37.5q-33 1 -90.5 23t-68.5 24q-25 4 -35 -7t-14 -39l-75 7q-1 77 25.5 116t70.5 37z" />
    <glyph glyph-name="uni0304" unicode="&#x304;" horiz-adv-x="0" 
d="M15 704l-16 -110h-310l15 110h311z" />
    <glyph glyph-name="uni0306" unicode="&#x306;" horiz-adv-x="0" 
d="M-81 713l83 -14q0 -68 -51 -113.5t-136 -45.5q-87 0 -132 49.5t-25 116.5l86 4q-5 -31 14 -44.5t63 -13.5q92 0 98 61z" />
    <glyph glyph-name="uni0307" unicode="&#x307;" horiz-adv-x="0" 
d="M-56 714q24 0 38 -13t11 -38l-5 -51q-6 -47 -53 -47h-55q-56 0 -48 54l6 49q7 46 54 46h52z" />
    <glyph glyph-name="uni0308" unicode="&#x308;" horiz-adv-x="0" 
d="M-212 714q33 0 29 -31l-11 -71q-3 -31 -33 -31h-69q-34 0 -29 32l11 68q4 33 37 33h65zM-30 714q34 0 30 -31l-11 -70q-4 -32 -34 -32h-68q-34 0 -29 32l10 69q6 32 36 32h66z" />
    <glyph glyph-name="hookabovecomb" unicode="&#x309;" horiz-adv-x="0" 
d="M-164 603q66 10 66 60q0 38 -54 17l-4 84q76 25 119.5 3.5t43.5 -78.5q0 -69 -45 -113.5t-120 -50.5z" />
    <glyph glyph-name="uni030A" unicode="&#x30a;" horiz-adv-x="0" 
d="M-128 767q51 0 85 -30t34 -78q0 -55 -36.5 -91t-92.5 -36q-50 0 -84.5 30.5t-34.5 77.5q0 56 36.5 91.5t92.5 35.5zM-131 699q-23 0 -36 -14t-13 -38q0 -20 12.5 -33t32.5 -13q22 0 35.5 14.5t13.5 37.5q0 21 -12 33.5t-33 12.5z" />
    <glyph glyph-name="uni030B" unicode="&#x30b;" horiz-adv-x="0" 
d="M-303 750l105 -74l-177 -161l-73 47zM-100 750l106 -74l-178 -161l-73 47z" />
    <glyph glyph-name="uni030C" unicode="&#x30c;" horiz-adv-x="0" 
d="M-15 747l38 -67l-170 -131h-81l-150 143l53 58l138 -86h8z" />
    <glyph glyph-name="uni030F" unicode="&#x30f;" horiz-adv-x="0" 
d="M-350 750l145 -188l-73 -47l-177 161zM-146 750l145 -188l-74 -47l-177 161z" />
    <glyph glyph-name="uni0311" unicode="&#x311;" horiz-adv-x="0" 
d="M-244 540l-83 14q-1 67 50 113t137 46q87 0 131.5 -50t24.5 -116l-86 -5q5 31 -14 44.5t-63 13.5q-91 0 -97 -60z" />
    <glyph glyph-name="uni0312" unicode="&#x312;" horiz-adv-x="0" 
d="M-141 504q-27 0 -37.5 12t-6.5 39l6 41q13 82 58 143l58 -21q-18 -45 -27 -94q45 0 36 -43l-5 -31q-5 -26 -17.5 -36t-38.5 -10h-26z" />
    <glyph glyph-name="uni031B" unicode="&#x31b;" horiz-adv-x="0" 
d="M-244 385l9 74q38 2 65.5 30t37.5 66l108 -15q-16 -79 -77.5 -121t-142.5 -34z" />
    <glyph glyph-name="dotbelowcomb" unicode="&#x323;" horiz-adv-x="0" 
d="M-161 -33q25 0 39 -13t11 -38l-6 -51q-6 -46 -52 -46h-55q-55 0 -49 53l7 49q4 46 53 46h52z" />
    <glyph glyph-name="uni0324" unicode="&#x324;" horiz-adv-x="0" 
d="M-319 -40q34 0 29 -32l-10 -70q-4 -31 -34 -31h-68q-33 0 -29 31l10 68q3 18 11.5 26t26.5 8h64zM-136 -40q34 0 29 -32l-10 -70q-3 -17 -10.5 -24t-23.5 -7h-69q-33 0 -29 31l11 69q4 33 35 33h67z" />
    <glyph glyph-name="uni0327" unicode="&#x327;" horiz-adv-x="0" 
d="M-231 -35q51 5 88.5 4t56 -19.5t11.5 -56.5q-12 -76 -77 -111t-155 -23l20 71q88 0 99 52q1 6 0 9t-7.5 5t-18.5 2.5t-34 0.5z" />
    <glyph glyph-name="uni0328" unicode="&#x328;" horiz-adv-x="0" 
d="M-155 7l77 -7q-44 -47 -64 -97q-10 -21 0.5 -27.5t39.5 0.5l14 -66q-47 -17 -85 -20.5t-60 6t-36 25.5t-12 37.5t11 43.5q28 54 115 105z" />
    <glyph glyph-name="uni032E" unicode="&#x32e;" horiz-adv-x="0" 
d="M-158 -40l82 -14q1 -68 -50 -114t-136 -46q-87 0 -132 50t-25 117l86 4q-5 -31 14 -44.5t63 -13.5q90 0 98 61z" />
    <glyph glyph-name="uni0331" unicode="&#x331;" horiz-adv-x="0" 
d="M-89 -56l-16 -111h-310l15 111h311z" />
    <glyph glyph-name="uni0394" unicode="&#x394;" horiz-adv-x="688" 
d="M494 690l142 -629l-7 -61h-647l6 61l320 629h186zM381 512q-19 -65 -32 -93l-137 -284h229l-53 284q-7 53 -7 93z" />
    <glyph glyph-name="uni03A9" unicode="&#x3a9;" horiz-adv-x="718" 
d="M408 704q160 0 228 -78t45 -239q-12 -91 -48.5 -144t-122.5 -116q34 17 77 17h70l-20 -144h-292l16 133q58 46 84 96.5t39 139.5q16 113 -2 152.5t-83 39.5q-68 0 -97.5 -38.5t-44.5 -146.5q-13 -88 -2.5 -141.5t51.5 -101.5l-15 -133h-292l20 144h70q39 0 74 -15
q-64 66 -87 125t-10 151q20 152 100 225.5t242 73.5z" />
    <glyph glyph-name="uni03BC" unicode="&#x3bc;" horiz-adv-x="635" 
d="M566 104h40l-6 -92q-76 -24 -142 -24q-48 0 -74 21.5t-25 69.5l1 5q-61 -89 -157 -97l-7 -52l-40 -120h-158l44 313q0 1 0.5 3t0.5 3l50 363h183l-45 -313q-6 -42 32 -42q36 0 73.5 40t52.5 133l-1 -6l26 188h182l-49 -348q-4 -24 0 -34.5t19 -10.5z" />
    <glyph glyph-name="pi" unicode="&#x3c0;" horiz-adv-x="653" 
d="M665 498l-17 -123h-71l-52 -375h-182l53 375h-115l-52 -375h-182l53 375h-71l17 123h619z" />
    <glyph glyph-name="uni0400" unicode="&#x400;" horiz-adv-x="582" 
d="M453 795l-59 -76l-236 110l74 115zM328 547q-27 0 -38.5 -10t-15.5 -36l-11 -82h259l-16 -128h-261l-14 -104q-4 -23 5.5 -33.5t34.5 -10.5h247l-4 -136q-84 -10 -320 -10q-84 0 -124 48t-30 129l52 374q10 68 54 106.5t118 38.5q242 0 334 -12l-21 -134h-249z" />
    <glyph glyph-name="uni0401" unicode="&#x401;" horiz-adv-x="580" 
d="M256 767q-32 0 -29 32l11 68q4 33 37 33h65q33 0 29 -31l-10 -71q-4 -31 -34 -31h-69zM439 767q-34 0 -29 32l10 69q6 32 36 32h67q33 0 29 -31l-11 -70q-4 -32 -34 -32h-68zM326 547q-27 0 -39 -10t-15 -36l-11 -82h259l-16 -128h-261l-14 -104q-4 -23 5.5 -33.5
t34.5 -10.5h247l-4 -136q-85 -10 -320 -10q-85 0 -125 48t-29 129l52 374q10 68 54 106.5t118 38.5q242 0 334 -12l-22 -134h-248z" />
    <glyph glyph-name="uni0402" unicode="&#x402;" horiz-adv-x="768" 
d="M593 452q87 0 126 -50.5t20 -169.5q-21 -136 -96.5 -191.5t-203.5 -53.5l-10 131q58 10 85.5 36.5t37.5 81.5q8 43 -5 55.5t-45 12.5q-58 0 -108 -34l-38 -270h-188l77 545h-197l20 145h582l-19 -145h-198l-20 -143q84 50 180 50z" />
    <glyph glyph-name="uni0403" unicode="&#x403;" horiz-adv-x="536" 
d="M506 950l61 -128l-253 -101l-42 76zM257 693q236 0 322 -13l-22 -133h-222q-29 0 -41 -10t-16 -38l-71 -499h-187l76 544q10 69 54 109t107 40z" />
    <glyph glyph-name="uni0404" unicode="&#x404;" horiz-adv-x="596" 
d="M393 542q-69 0 -98 -24.5t-44 -98.5h271l-15 -128h-275q-8 -84 11 -112.5t83 -30.5q126 -1 202 9l7 -139q-94 -31 -224 -30q-173 2 -232.5 84t-32.5 280q27 196 105.5 273t245.5 77q120 0 216 -26l-23 -137q-105 3 -197 3z" />
    <glyph glyph-name="uni0405" unicode="&#x405;" horiz-adv-x="591" 
d="M350 703q137 0 237 -32l-17 -122q-180 3 -229 3q-47 0 -65 -8t-23 -38q-4 -22 5.5 -33.5t43.5 -25.5l119 -52q81 -35 106.5 -82.5t16.5 -127.5q-14 -116 -74 -157t-206 -41q-129 0 -255 31l18 132q202 -5 228 -5q56 0 77.5 9.5t26.5 38.5q4 22 -4.5 32t-36.5 22l-128 58
q-79 36 -105.5 86t-17.5 122q14 110 79 150t204 40z" />
    <glyph glyph-name="uni0406" unicode="&#x406;" horiz-adv-x="313" 
d="M306 690l-97 -690h-187l97 690h187z" />
    <glyph glyph-name="uni0407" unicode="&#x407;" horiz-adv-x="308" 
d="M180 895q33 0 29 -31l-10 -71q-4 -31 -34 -31h-69q-32 0 -29 32l11 68q4 33 37 33h65zM363 895q33 0 29 -31l-11 -70q-4 -32 -34 -32h-68q-34 0 -29 32l10 69q6 32 36 32h67zM304 690l-97 -690h-188l97 690h188z" />
    <glyph glyph-name="uni0408" unicode="&#x408;" horiz-adv-x="384" 
d="M379 690l-77 -558q-10 -70 -56.5 -107.5t-119.5 -37.5q-38 0 -82 7t-64 18l30 119h39q63 0 69 47l74 512h187z" />
    <glyph glyph-name="uni0409" unicode="&#x409;" horiz-adv-x="990" 
d="M719 444q148 0 200.5 -51t33.5 -182q-18 -128 -70 -173.5t-179 -45.5q-198 0 -300 8l79 562h-45q-30 0 -44.5 -12.5t-21.5 -45.5q-61 -274 -100 -355q-44 -97 -112.5 -130.5t-162.5 -21.5l-7 148q30 5 44.5 8.5t35 18.5t32.5 41q25 45 45 118.5t51 216.5q30 142 176 142
h313l-35 -246h67zM767 224q8 62 -1.5 81t-59.5 19h-70l-28 -197h61q54 0 71.5 16t26.5 81z" />
    <glyph glyph-name="uni040A" unicode="&#x40a;" horiz-adv-x="976" 
d="M713 433q134 0 189 -49.5t36 -184.5q-16 -121 -67 -164t-173 -43q-204 0 -303 8h-1l43 305h-183l-43 -305h-188l97 690h188l-36 -257h183l36 257h185l-36 -257h73zM753 216q7 53 -3 71.5t-57 18.5h-71l-25 -179h66q48 0 65 16t25 73z" />
    <glyph glyph-name="uni040B" unicode="&#x40b;" horiz-adv-x="789" 
d="M605 459q91 0 126 -43.5t24 -134.5l-39 -281h-188l35 248q4 34 -7 45t-48 11q-57 0 -113 -30l-39 -274h-189l77 545h-196l20 145h582l-20 -145h-197l-19 -132q92 46 191 46z" />
    <glyph glyph-name="uni040C" unicode="&#x40c;" horiz-adv-x="657" 
d="M608 822l-253 -101l-42 76l234 153zM421 355q29 -4 48.5 -11.5t35.5 -16.5t27 -28t19.5 -39t16.5 -57.5t14 -73.5t16 -97q3 -21 5 -32h-192q-27 192 -35 223q-15 54 -48 66q-17 6 -45 6h-40q3 -37 -1 -68l-32 -227h-188l97 690h188l-27 -187q-6 -43 -18 -82h32
q28 0 49 9.5t36.5 24t34.5 53t33 73t42 109.5h195q-76 -182 -96 -219q-39 -69 -92 -92q-29 -12 -74 -18z" />
    <glyph glyph-name="uni040D" unicode="&#x40d;" horiz-adv-x="724" 
d="M293 946l221 -149l-59 -76l-236 110zM716 690l-97 -690h-178l50 348q9 59 27 114h-7q-36 -74 -54 -99l-249 -363h-186l97 690h181l-48 -337q-6 -47 -30 -123h8q25 58 57 104l247 356h182z" />
    <glyph glyph-name="uni040E" unicode="&#x40e;" horiz-adv-x="608" 
d="M369 739q-87 0 -131.5 49.5t-25.5 116.5l86 4q-4 -31 14.5 -44.5t62.5 -13.5q92 0 98 61l83 -14q1 -67 -50 -113t-137 -46zM467 690h198l-229 -510q-43 -97 -86.5 -141.5t-114.5 -50.5q-69 -7 -196 15l28 129q91 -3 123 4t52 42l8 16h-32q-78 0 -90 86l-75 410h188
l43 -345q1 -15 15 -15h17z" />
    <glyph glyph-name="uni040F" unicode="&#x40f;" horiz-adv-x="706" 
d="M510 690h188l-97 -690h-213l-28 -151h-128l14 151h-223l97 690h188l-79 -562h202z" />
    <glyph glyph-name="uni0410" unicode="&#x410;" horiz-adv-x="664" 
d="M441 0l-16 161h-211l-63 -161h-196l277 645q19 45 67 45h172q23 0 40.5 -15t19.5 -37l98 -638h-188zM270 303h140l-18 176q-3 24 -3 72h-29q-9 -37 -21 -71z" />
    <glyph glyph-name="uni0411" unicode="&#x411;" horiz-adv-x="631" 
d="M346 417q150 0 206 -48.5t39 -170.5q-17 -119 -73.5 -162.5t-183.5 -43.5q-207 0 -312 8l97 690q116 7 251 7q129 0 245 -7l-34 -138h-293l-19 -135h77zM405 218q6 51 -6.5 65.5t-64.5 14.5h-82l-25 -171h72q59 0 79 16.5t27 74.5z" />
    <glyph glyph-name="uni0412" unicode="&#x412;" horiz-adv-x="650" 
d="M618 511q-10 -74 -41.5 -109.5t-99.5 -41.5l-1 -5q149 -13 124 -190q-15 -101 -72 -137t-187 -36q-213 0 -319 8l97 690q94 8 268 8q138 0 191.5 -40.5t39.5 -146.5zM439 499q5 38 -7 51t-51 13h-97l-20 -146h84q47 0 65.5 16t25.5 66zM413 216q7 50 -7 66t-62 16h-97
l-24 -171h83q57 0 78 17.5t29 71.5z" />
    <glyph glyph-name="uni0413" unicode="&#x413;" horiz-adv-x="536" 
d="M257 693q236 0 322 -13l-22 -133h-222q-29 0 -41 -10t-16 -38l-71 -499h-187l76 544q10 69 54 109t107 40z" />
    <glyph glyph-name="uni0414" unicode="&#x414;" horiz-adv-x="766" 
d="M727 128l-15 -121l-22 -158h-138l8 151h-435l-34 -151h-139l21 151l17 128h72q81 159 147 420q37 142 184 142h321l-79 -562h92zM265 128h183l61 434h-53q-29 0 -45.5 -13t-24.5 -47q-56 -246 -121 -374z" />
    <glyph glyph-name="uni0415" unicode="&#x415;" horiz-adv-x="582" 
d="M328 547q-27 0 -38.5 -10t-15.5 -36l-11 -82h259l-16 -128h-261l-14 -104q-4 -23 5.5 -33.5t34.5 -10.5h247l-4 -136q-84 -10 -320 -10q-84 0 -124 48t-30 129l52 374q10 68 54 106.5t118 38.5q242 0 334 -12l-21 -134h-249z" />
    <glyph glyph-name="uni0416" unicode="&#x416;" horiz-adv-x="946" 
d="M719 356q78 -11 101.5 -57t53.5 -217q10 -52 15 -82h-188q-7 43 -19 113q-19 121 -32.5 151.5t-55.5 30.5h-33q2 -42 -3 -68l-32 -227h-180l33 234q5 31 16 61h-29q-47 0 -76 -45.5t-122 -249.5h-199q29 68 43.5 100.5t35 76.5t31 62t28 43t29.5 33.5t31 20t37.5 15.5
t44.5 8l1 5q-29 6 -48.5 13.5t-34.5 23t-23.5 32t-17 50t-14 65.5t-14.5 90q-5 34 -8 52h186q4 -28 12 -77q18 -121 32 -156.5t54 -35.5h43q-4 43 2 89l25 180h179l-27 -187q-7 -49 -17 -82h20q48 0 75 38.5t82 165.5q5 13 8.5 21t9 20.5t10.5 23.5h193q-12 -27 -29.5 -68.5
t-25.5 -59.5t-21 -48t-20.5 -42t-19.5 -32t-21 -27t-22.5 -18.5t-27.5 -16t-31.5 -9.5t-38.5 -8z" />
    <glyph glyph-name="uni0417" unicode="&#x417;" horiz-adv-x="574" 
d="M320 698q137 0 189.5 -40.5t37.5 -146.5q-10 -74 -41 -109.5t-98 -41.5l-1 -5q138 -13 113 -190q-14 -100 -68.5 -136.5t-178.5 -36.5q-162 0 -282 35l21 123q124 -20 221 -20q51 0 72.5 18t28.5 68q7 48 -7.5 64t-60.5 16h-143l16 123h134q46 0 63.5 16.5t23.5 63.5
q5 38 -8.5 49.5t-56.5 11.5q-87 0 -202 -14l-8 131q101 21 235 21z" />
    <glyph glyph-name="uni0418" unicode="&#x418;" horiz-adv-x="724" 
d="M716 690l-97 -690h-178l50 348q9 59 27 114h-7q-36 -74 -54 -99l-249 -363h-186l97 690h181l-48 -337q-6 -47 -30 -123h8q25 58 57 104l247 356h182z" />
    <glyph glyph-name="uni0419" unicode="&#x419;" horiz-adv-x="724" 
d="M529 912l83 -14q0 -68 -51 -113.5t-136 -45.5q-87 0 -132 49.5t-25 116.5l86 4q-5 -31 14 -44.5t63 -13.5q92 0 98 61zM716 690l-97 -690h-178l50 348q9 59 27 114h-7q-36 -74 -54 -99l-249 -363h-186l97 690h181l-48 -337q-6 -47 -30 -123h8q25 58 57 104l247 356h182z
" />
    <glyph glyph-name="uni041A" unicode="&#x41a;" horiz-adv-x="657" 
d="M421 355q29 -4 48.5 -11.5t35.5 -16.5t27 -28t19.5 -39t16.5 -57.5t14 -73.5t16 -97q3 -21 5 -32h-192q-27 192 -35 223q-15 54 -48 66q-17 6 -45 6h-40q3 -37 -1 -68l-32 -227h-188l97 690h188l-27 -187q-6 -43 -18 -82h32q28 0 49 9.5t36.5 24t34.5 53t33 73t42 109.5
h195q-76 -182 -96 -219q-39 -69 -92 -92q-29 -12 -74 -18z" />
    <glyph glyph-name="uni041B" unicode="&#x41b;" horiz-adv-x="696" 
d="M688 690l-97 -690h-187l79 562h-53q-33 0 -47.5 -12.5t-22.5 -45.5q-62 -273 -103 -355q-49 -99 -116.5 -133t-159.5 -19l-6 146q51 8 71 21q24 17 41 50q42 77 97 335q32 141 180 141h324z" />
    <glyph glyph-name="uni041C" unicode="&#x41c;" horiz-adv-x="935" 
d="M843 690q32 0 49 -19t13 -51l-62 -620h-171l56 547h-15l-138 -389q-17 -55 -77 -55h-105q-30 0 -48.5 16.5t-19.5 45.5l-32 382h-17l-95 -547h-172l113 627q6 33 22 48t48 15h166q29 0 47 -16.5t19 -45.5l24 -306q4 -47 1 -101h12q9 39 28 99l105 314q15 56 76 56h173z
" />
    <glyph glyph-name="uni041D" unicode="&#x41d;" horiz-adv-x="701" 
d="M506 690h188l-97 -690h-188l42 297h-199l-42 -297h-188l97 690h188l-36 -255h199z" />
    <glyph glyph-name="uni041E" unicode="&#x41e;" horiz-adv-x="691" 
d="M388 704q170 0 235 -80.5t37 -285.5q-14 -105 -39.5 -173t-68 -108t-98 -55.5t-138.5 -15.5q-173 0 -235 79.5t-34 286.5q28 203 103 277.5t238 74.5zM385 560q-66 0 -93.5 -43.5t-48.5 -178.5q-18 -126 -2.5 -167t79.5 -41q67 0 95 43.5t48 178.5q18 128 2.5 168
t-80.5 40z" />
    <glyph glyph-name="uni041F" unicode="&#x41f;" horiz-adv-x="702" 
d="M695 690l-97 -690h-189l79 562h-198l-79 -562h-189l97 690h576z" />
    <glyph glyph-name="uni0420" unicode="&#x420;" horiz-adv-x="628" 
d="M386 700q151 0 206 -52t37 -186q-18 -132 -75 -177.5t-192 -45.5q-57 0 -118 8l-35 -247h-187l97 690q96 10 267 10zM444 476q7 51 -6 69t-57 18h-93l-26 -187h86q50 0 68.5 18t27.5 82z" />
    <glyph glyph-name="uni0421" unicode="&#x421;" horiz-adv-x="594" 
d="M389 702q125 0 217 -26l-22 -137q-105 3 -204 3q-45 0 -68.5 -14t-40 -57.5t-28.5 -132.5q-17 -114 -3.5 -152t76.5 -38q132 0 216 8l7 -138q-97 -30 -231 -30q-168 0 -228.5 83t-32.5 281q28 203 101 276.5t241 73.5z" />
    <glyph glyph-name="uni0422" unicode="&#x422;" horiz-adv-x="607" 
d="M650 690l-20 -145h-197l-77 -545h-188l77 545h-197l20 145h582z" />
    <glyph glyph-name="uni0423" unicode="&#x423;" horiz-adv-x="608" 
d="M467 690h198l-229 -510q-43 -97 -86.5 -141.5t-114.5 -50.5q-69 -7 -196 15l28 129q91 -3 123 4t52 42l8 16h-32q-78 0 -90 86l-75 410h188l43 -345q1 -15 15 -15h17z" />
    <glyph glyph-name="uni0424" unicode="&#x424;" horiz-adv-x="860" 
d="M574 631q167 -12 228.5 -78t41.5 -214q-20 -147 -97.5 -208.5t-254.5 -70.5l-11 -79h-188l10 80q-168 13 -229.5 78.5t-40.5 214.5q20 147 98 208.5t255 70.5l10 79h189zM654 354q10 78 -11.5 107.5t-95.5 36.5l-45 -302q82 7 111 39t41 119zM224 339q-11 -80 9 -109
t98 -35l44 302q-82 -7 -111 -39t-40 -119z" />
    <glyph glyph-name="uni0425" unicode="&#x425;" horiz-adv-x="657" 
d="M698 690l-208 -337l122 -353h-186l-87 300h-1l-176 -300h-202l224 353l-110 337h183l81 -280h2l165 280h193z" />
    <glyph glyph-name="uni0426" unicode="&#x426;" horiz-adv-x="737" 
d="M606 128h92l-18 -128l-21 -151h-138l8 151h-506l97 690h188l-79 -562h189l79 562h188z" />
    <glyph glyph-name="uni0427" unicode="&#x427;" horiz-adv-x="673" 
d="M478 690h188l-97 -690h-188l38 273q-106 -49 -193 -49q-99 0 -141 44t-30 134l40 288h189l-36 -255q-6 -33 7 -44.5t47 -11.5q68 0 137 31z" />
    <glyph glyph-name="uni0428" unicode="&#x428;" horiz-adv-x="994" 
d="M804 690h182l-97 -690h-867l97 690h183l-79 -562h160l79 562h182l-79 -562h160z" />
    <glyph glyph-name="uni0429" unicode="&#x429;" horiz-adv-x="1038" 
d="M908 128h91l-18 -128l-21 -151h-137l8 151h-808l97 690h183l-79 -562h159l79 562h183l-79 -562h158l79 562h183z" />
    <glyph glyph-name="uni042A" unicode="&#x42a;" horiz-adv-x="774" 
d="M501 444q149 0 202 -51t34 -182q-18 -128 -70.5 -173.5t-180.5 -45.5q-204 0 -306 8l77 545h-211l20 145h399l-35 -246h71zM551 224q8 62 -2 81t-62 19h-73l-28 -197h65q55 0 73 16t27 81z" />
    <glyph glyph-name="uni042B" unicode="&#x42b;" horiz-adv-x="926" 
d="M343 444q148 0 201.5 -51t34.5 -182q-19 -129 -71 -174t-179 -45q-205 0 -307 8l97 690h188l-35 -246h71zM730 690h188l-97 -690h-188zM392 224q8 63 -2 81.5t-61 18.5h-73l-28 -197h65q55 0 73 16t26 81z" />
    <glyph glyph-name="uni042C" unicode="&#x42c;" horiz-adv-x="621" 
d="M346 444q150 0 203.5 -51t34.5 -182q-18 -128 -71 -173.5t-182 -45.5q-206 0 -309 8l98 690h188l-35 -246h73zM397 224q9 62 -1.5 81t-63.5 19h-76l-28 -197h67q56 0 75 16t27 81z" />
    <glyph glyph-name="uni042D" unicode="&#x42d;" horiz-adv-x="596" 
d="M293 702q171 0 234.5 -82.5t36.5 -281.5q-26 -194 -101 -271t-236 -79q-142 -1 -233 32l23 137q82 -10 203 -9q66 1 95.5 31t46.5 113h-271l14 127h276q6 75 -14.5 99t-77.5 24q-100 0 -201 -3l-6 138q93 25 211 25z" />
    <glyph glyph-name="uni042E" unicode="&#x42e;" horiz-adv-x="995" 
d="M698 704q160 0 226.5 -84.5t38.5 -281.5q-29 -205 -103 -278.5t-242 -73.5q-151 0 -210 67t-44 240h-112l-41 -293h-188l97 690h188l-38 -270h112q32 163 102 223.5t214 60.5zM767 352q17 125 2.5 166.5t-76.5 41.5q-67 0 -94 -43.5t-46 -178.5q-17 -125 -2 -166.5
t75 -41.5q67 0 95 44t46 178z" />
    <glyph glyph-name="uni042F" unicode="&#x42f;" horiz-adv-x="658" 
d="M366 700q180 0 285 -10l-97 -690h-189l36 258h-66q-32 0 -49.5 -12.5t-28.5 -43.5l-74 -202h-204l85 215q36 94 130 103l1 5q-71 10 -98.5 64t-16.5 129q15 107 81.5 145.5t204.5 38.5zM335 395h86l23 168h-84q-47 0 -66.5 -15.5t-26.5 -60.5q-8 -52 6.5 -72t61.5 -20z
" />
    <glyph glyph-name="uni0430" unicode="&#x430;" horiz-adv-x="606" 
d="M335 511q53 0 131 -10t114 -21l-68 -480h-141v94q-70 -99 -199 -106q-98 -5 -130 63t-11 209q7 50 19.5 88t27 64.5t36.5 44.5t43 28.5t52 16.5t58.5 7.5t67.5 1.5zM244 130q53 3 117 87l25 169q-20 1 -60 1q-53 0 -76 -22.5t-34 -101.5q-13 -86 -8.5 -110t36.5 -23z" />
    <glyph glyph-name="uni0431" unicode="&#x431;" 
d="M367 480q125 0 167.5 -58t26.5 -184q-17 -132 -81.5 -191t-196.5 -59q-57 0 -99.5 9.5t-70.5 24t-45 40.5t-24.5 50t-8 63t2 69t9.5 77q9 64 19 108.5t26.5 89.5t39.5 75t57.5 54.5t80.5 38.5q57 17 157 25.5t146 17.5l16 -145q-62 -16 -140.5 -19t-113.5 -12
q-74 -19 -107 -73q-20 -27 -34 -67q71 66 173 66zM372 253q11 73 2.5 94t-47.5 21q-52 0 -73 -27t-32 -102q-11 -76 -2 -99.5t51 -23.5q46 0 67.5 28t33.5 109z" />
    <glyph glyph-name="uni0432" unicode="&#x432;" horiz-adv-x="583" 
d="M547 364q-14 -95 -142 -103l-1 -5q151 -9 131 -140q-12 -74 -70.5 -102t-182.5 -28q-165 0 -220 64t-33 217q20 140 89 194t219 50q111 -4 166 -38.5t44 -108.5zM377 346q5 24 -8.5 33t-54.5 9q-49 0 -68 -20t-27 -68l76 6q41 3 59.5 12t22.5 28zM359 160q4 30 -11 41.5
t-59 8.5l-84 -6q-7 -59 5 -77t58 -18q48 0 67 10t24 41z" />
    <glyph glyph-name="uni0433" unicode="&#x433;" horiz-adv-x="544" 
d="M300 511q107 1 166 -30t54 -110q-2 -34 -16.5 -61.5t-30.5 -43t-42.5 -28.5t-39 -17.5t-32.5 -9.5l-119 -33q-35 -10 -46.5 -17t-12.5 -18q-1 -16 17.5 -20t72.5 -1q115 6 200 23l13 -115q-123 -42 -241 -42q-125 0 -185 38t-51 121q6 59 42 92.5t102 52.5l120 33
q61 18 70 28q4 6 4 13q0 12 -15.5 15t-66.5 1q-58 -3 -197 -20l-3 109q105 38 237 40z" />
    <glyph glyph-name="uni0434" unicode="&#x434;" horiz-adv-x="596" 
d="M150 724q463 -40 409 -442q-22 -161 -92 -228.5t-210 -67.5q-125 0 -184.5 58.5t-43.5 177.5t73.5 174.5t161.5 55.5q71 0 113 -28q-8 78 -64.5 119t-186.5 65zM271 115q45 0 64 36.5t36 144.5l3 20q-28 15 -61 15q-45 0 -65 -25.5t-29 -86.5q-9 -60 1 -82t51 -22z" />
    <glyph glyph-name="uni0435" unicode="&#x435;" horiz-adv-x="576" 
d="M323 511q141 0 193 -44.5t39 -134.5q-10 -67 -57.5 -94.5t-150.5 -35.5l-135 -10q1 -38 20 -50.5t64 -12.5q95 0 198 12l12 -113q-89 -40 -228 -40q-154 0 -210 65.5t-41 201.5q17 149 85.5 202.5t210.5 53.5zM380 350q2 24 -10 31.5t-50 6.5q-47 -1 -66 -20.5t-31 -79.5
l84 8q37 3 53.5 13.5t19.5 40.5z" />
    <glyph glyph-name="uni0436" unicode="&#x436;" horiz-adv-x="826" 
d="M616 256q25 -5 38 -9t28 -9.5t23 -18.5t16.5 -27t16.5 -45t15.5 -61t19.5 -86h-173q-33 150 -42 171q-12 26 -38 28q-6 1 -16 1h-28q3 -24 0 -45l-20 -155h-159l22 157q4 25 11 43h-19q-24 0 -36 -3.5t-30.5 -26t-36 -57.5t-54.5 -113h-184q79 162 94 186q29 45 69 58
q22 7 72 14l1 5q-77 11 -96 40t-45 169q-3 16 -5 25h173q22 -127 33.5 -154t50.5 -27h30q-3 28 2 66l16 115h159l-18 -119q-6 -36 -14 -62h15q43 0 64 27.5t79 153.5h182q-73 -149 -94 -179q-30 -42 -75 -52q-18 -3 -46 -5z" />
    <glyph glyph-name="uni0437" unicode="&#x437;" horiz-adv-x="524" 
d="M256 510q137 0 189.5 -28.5t40.5 -114.5q-6 -51 -33.5 -77.5t-89.5 -31.5l-1 -5q126 -9 108 -136q-12 -82 -64.5 -106t-175.5 -24q-143 0 -241 23l18 119q104 -11 202 -11q48 0 64 7.5t18 34.5q4 23 -8.5 30.5t-46.5 7.5l-159 2l13 104l151 1q33 0 47.5 9t19.5 30
q2 22 -9 27.5t-56 5.5q-72 0 -180 -10l-6 121q84 22 199 22z" />
    <glyph glyph-name="uni0438" unicode="&#x438;" horiz-adv-x="606" 
d="M401 497h180l-69 -497h-142l-1 89q-107 -103 -209 -103q-74 0 -108.5 37.5t-24.5 104.5l51 369h183l-46 -318q-3 -22 4.5 -31t24.5 -9q26 0 51 12.5t64 42.5z" />
    <glyph glyph-name="uni0439" unicode="&#x439;" horiz-adv-x="606" 
d="M342 553q-86 0 -127.5 50t-22.5 115h114q-11 -43 1.5 -61t45.5 -18q32 0 49.5 18t19.5 61h114q2 -65 -54 -115t-140 -50zM401 497h180l-69 -497h-142l-1 89q-107 -103 -209 -103q-74 0 -108.5 37.5t-24.5 104.5l51 369h183l-46 -318q-3 -22 4.5 -31t24.5 -9q26 0 51 12.5
t64 42.5z" />
    <glyph glyph-name="uni043A" unicode="&#x43a;" horiz-adv-x="577" 
d="M372 253q79 -11 97.5 -40t46.5 -186q3 -18 5 -27h-183q-24 147 -35.5 171t-41.5 26h-16h-30q4 -26 1 -44l-22 -153h-181l70 497h180l-16 -120q-4 -28 -14 -60h15q53 0 73.5 27t69.5 153h191q-5 -11 -14 -32q-24 -55 -34 -77.5t-26.5 -51.5t-24.5 -36.5t-27 -19
t-35.5 -14.5t-47.5 -7z" />
    <glyph glyph-name="uni043B" unicode="&#x43b;" horiz-adv-x="610" 
d="M585 497l-70 -497h-181l52 376h-35q-23 0 -35 -10.5t-19 -38.5q-36 -128 -60 -209q-44 -155 -245 -122l-10 137q49 4 66 16q15 11 23 32q27 69 56 195q14 62 51.5 91.5t104.5 29.5h302z" />
    <glyph glyph-name="uni043C" unicode="&#x43c;" horiz-adv-x="803" 
d="M705 497q65 0 59 -66l-48 -431h-164l39 365h-12l-92 -244q-17 -52 -71 -52h-81q-28 0 -44.5 15.5t-18.5 43.5l-29 237h-12l-61 -365h-165l73 430q5 36 21.5 51.5t49.5 15.5h149q59 0 62 -60l17 -175q1 -14 1 -83h11q16 69 20 81l69 184q15 53 70 53h157z" />
    <glyph glyph-name="uni043D" unicode="&#x43d;" horiz-adv-x="615" 
d="M411 497h178l-70 -497h-178l28 201h-149l-28 -201h-179l70 497h179l-25 -175h149z" />
    <glyph glyph-name="uni043E" unicode="&#x43e;" horiz-adv-x="603" 
d="M322 511q146 0 204 -62.5t37 -207.5q-19 -140 -84.5 -196.5t-208.5 -56.5q-145 0 -204 62t-39 205q20 142 85.5 199t209.5 57zM319 383q-49 0 -69 -27.5t-33 -114.5q-12 -77 -0.5 -101.5t59.5 -24.5t67.5 27.5t32.5 112.5q11 78 0 103t-57 25z" />
    <glyph glyph-name="uni043F" unicode="&#x43f;" horiz-adv-x="614" 
d="M449 511q64 0 99.5 -37t26.5 -105l-52 -369h-183l45 312q3 28 -3 37.5t-27 7.5q-49 -1 -118 -57l-42 -300h-182l69 497h142l3 -93q109 107 222 107z" />
    <glyph glyph-name="uni0440" unicode="&#x440;" horiz-adv-x="608" 
d="M429 509q173 0 137 -272q-10 -78 -30.5 -129t-52.5 -77t-66.5 -35.5t-83.5 -9.5q-70 0 -142 13q0 -45 -7 -93l-15 -91h-182l95 682h145l-2 -91q103 103 204 103zM380 234q12 82 6 107.5t-34 25.5q-51 0 -116 -63l-25 -201h60q60 0 78.5 22.5t30.5 108.5z" />
    <glyph glyph-name="uni0441" unicode="&#x441;" horiz-adv-x="524" 
d="M304 511q127 0 211 -36l-24 -111q-68 1 -164 1q-55 0 -78.5 -24t-31.5 -91q-10 -73 5 -95t70 -22q94 0 163 8l13 -117q-83 -36 -208 -36q-135 0 -194 63.5t-39 204.5q20 138 81.5 196.5t195.5 58.5z" />
    <glyph glyph-name="uni0442" unicode="&#x442;" horiz-adv-x="886" 
d="M718 511q71 0 104.5 -37.5t23.5 -104.5l-51 -369h-180l44 318q5 39 -27 39q-39 0 -98 -49l-43 -308h-174l44 318q4 22 -2.5 30.5t-23.5 8.5q-39 0 -99 -46l-42 -311h-181l70 497h141l4 -79q93 93 188 93q106 0 126 -81q84 81 176 81z" />
    <glyph glyph-name="uni0443" unicode="&#x443;" 
d="M410 497h193q-27 -142 -61 -244.5t-103 -220.5q-23 -42 -46.5 -75.5t-55 -66.5t-66 -54t-78 -37t-92 -15t-108.5 11l13 120q136 -22 224 85h-65q-25 0 -42 14.5t-20 37.5l-70 445h198l24 -367q2 -16 17 -16h29q71 135 109 383z" />
    <glyph glyph-name="uni0444" unicode="&#x444;" horiz-adv-x="764" 
d="M494 507q138 -14 193 -76.5t37 -189.5q-17 -127 -86.5 -184.5t-218.5 -66.5l-23 -175h-161l23 177q-140 13 -194.5 74.5t-36.5 188.5q18 128 87.5 186.5t217.5 67.5l26 191h162zM199 248q-9 -70 8.5 -99.5t76.5 -36.5l39 274q-62 -7 -88.5 -37t-35.5 -101zM553 249
q9 70 -8.5 100t-76.5 37l-40 -274q62 7 89 37.5t36 99.5z" />
    <glyph glyph-name="uni0445" unicode="&#x445;" horiz-adv-x="585" 
d="M602 497l-172 -243l110 -254h-172l-81 199l-137 -199h-189l184 254l-101 243h170l73 -187h1l130 187h184z" />
    <glyph glyph-name="uni0446" unicode="&#x446;" horiz-adv-x="645" 
d="M546 108h57l-15 -108l-22 -149h-150l45 149h-7q-37 0 -62 24t-26 65q-106 -103 -208 -103q-74 0 -108.5 37.5t-25.5 104.5l52 369h183l-46 -318q-3 -22 4 -31t25 -9q43 0 113 54l43 304h181l-52 -368q-1 -9 4.5 -15t14.5 -6z" />
    <glyph glyph-name="uni0447" unicode="&#x447;" horiz-adv-x="588" 
d="M381 497h182l-70 -497h-181l24 175q-69 -28 -146 -28q-90 0 -128.5 32.5t-28.5 107.5l32 210h181l-24 -178q-4 -22 3.5 -30.5t31.5 -8.5q45 0 97 22z" />
    <glyph glyph-name="uni0448" unicode="&#x448;" horiz-adv-x="878" 
d="M672 497h180l-69 -497h-141l-4 80q-93 -94 -188 -94q-103 0 -122 82q-85 -82 -175 -82q-71 0 -104.5 37.5t-24.5 104.5l52 369h181l-45 -318q-5 -37 28 -37q35 0 96 49l42 306h172l-45 -318q-3 -21 3.5 -29t24.5 -8q36 0 96 45z" />
    <glyph glyph-name="uni0449" unicode="&#x449;" horiz-adv-x="917" 
d="M819 108h56l-15 -108l-21 -149h-149l44 149h-9q-34 0 -58 22t-27 59q-50 -50 -94.5 -72.5t-94.5 -22.5q-104 0 -123 82q-85 -82 -175 -82q-71 0 -104.5 37.5t-24.5 104.5l52 369h181l-44 -318q-4 -21 3.5 -29t23.5 -8q35 0 96 49l42 306h172l-45 -318q-3 -21 3.5 -29
t24.5 -8q37 0 95 45l43 310h181l-51 -368q-1 -9 4 -15t14 -6z" />
    <glyph glyph-name="uni044A" unicode="&#x44a;" horiz-adv-x="654" 
d="M438 334q113 -2 151 -37.5t24 -139.5q-14 -97 -67.5 -132t-170.5 -35q-25 0 -46 1.5t-45 4.5t-43 9.5t-37 16t-30 24t-19.5 33t-7 44t8.5 55.5l51 187h-184l18 132h372l-44 -171q38 8 69 8zM433 171q7 36 -1 46.5t-39 10.5q-27 0 -51 -5l-17 -66q-6 -24 5.5 -33.5
t39.5 -9.5q32 0 44 11.5t19 45.5z" />
    <glyph glyph-name="uni044B" unicode="&#x44b;" horiz-adv-x="802" 
d="M318 334q113 -2 151 -37.5t24 -139.5q-13 -97 -67 -132t-171 -35q-43 0 -73 2.5t-63 12.5t-52.5 27t-30.5 48.5t-6 74.5l48 342h175l-25 -176q48 13 90 13zM594 497h183l-70 -497h-182zM314 171q6 36 -1.5 46.5t-39.5 10.5q-27 0 -59 -7l-9 -67q-4 -22 8.5 -31t38.5 -9
q31 0 44 12t18 45z" />
    <glyph glyph-name="uni044C" unicode="&#x44c;" horiz-adv-x="538" 
d="M319 334q114 0 152.5 -36.5t25.5 -140.5q-13 -97 -67.5 -132t-174.5 -35q-59 0 -98.5 6.5t-72.5 24t-46 51.5t-7 86l47 339h175l-25 -177q46 14 91 14zM318 171q5 37 -3 47t-40 10q-30 0 -62 -8l-9 -66q-3 -22 10 -31t40 -9q32 0 45.5 12t18.5 45z" />
    <glyph glyph-name="uni044D" unicode="&#x44d;" horiz-adv-x="548" 
d="M264 509q145 0 202 -61.5t41 -208.5q-16 -146 -84.5 -199.5t-218.5 -52.5q-129 0 -212 32l19 112q42 -2 172 -5q72 -1 98 12t36 60h-247l13 108h247q1 42 -16 54t-68 12q-31 0 -90.5 -0.5t-95.5 -1.5l-8 112q86 27 212 27z" />
    <glyph glyph-name="uni044E" unicode="&#x44e;" horiz-adv-x="851" 
d="M579 511q145 0 199.5 -57t32.5 -214q-21 -149 -82 -199.5t-202 -50.5q-126 0 -177.5 43.5t-45.5 159.5h-82l-27 -193h-182l70 497h181l-25 -182h82q25 115 82.5 155.5t175.5 40.5zM622 249q10 77 -0.5 100.5t-53.5 23.5q-45 0 -63.5 -24t-28.5 -100q-11 -77 -0.5 -99.5
t54.5 -22.5q46 0 64 24t28 98z" />
    <glyph glyph-name="uni044F" unicode="&#x44f;" horiz-adv-x="579" 
d="M339 509q150 0 216 -8l-70 -501h-177l23 162h-59q-52 0 -63 -37l-40 -125h-187l49 152q12 36 43 51.5t66 14.5l1 5q-110 28 -92 140q14 93 74 119.5t216 26.5zM274 273h73l15 108h-78q-34 0 -45.5 -9.5t-16.5 -38.5q-5 -34 5.5 -47t46.5 -13z" />
    <glyph glyph-name="uni0450" unicode="&#x450;" horiz-adv-x="576" 
d="M420 612l-59 -76l-236 110l74 115zM323 511q141 0 193 -44.5t39 -134.5q-10 -67 -57.5 -94.5t-150.5 -35.5l-135 -10q1 -38 20 -50.5t64 -12.5q95 0 198 12l12 -113q-89 -40 -228 -40q-154 0 -210 65.5t-41 201.5q17 149 85.5 202.5t210.5 53.5zM380 350q2 24 -10 31.5
t-50 6.5q-47 -1 -66 -20.5t-31 -79.5l84 8q37 3 53.5 13.5t19.5 40.5z" />
    <glyph glyph-name="uni0451" unicode="&#x451;" horiz-adv-x="576" 
d="M217 577q-32 0 -29 32l11 68q4 33 37 33h65q33 0 29 -31l-10 -71q-4 -31 -34 -31h-69zM400 577q-34 0 -29 32l10 69q6 32 36 32h67q33 0 29 -31l-11 -70q-4 -32 -34 -32h-68zM323 511q141 0 193 -44.5t39 -134.5q-10 -67 -57.5 -94.5t-150.5 -35.5l-135 -10
q1 -38 20 -50.5t64 -12.5q95 0 198 12l12 -113q-89 -40 -228 -40q-154 0 -210 65.5t-41 201.5q17 149 85.5 202.5t210.5 53.5zM380 350q2 24 -10 31.5t-50 6.5q-47 -1 -66 -20.5t-31 -79.5l84 8q37 3 53.5 13.5t19.5 40.5z" />
    <glyph glyph-name="uni0452" unicode="&#x452;" horiz-adv-x="636" 
d="M449 419q75 0 109 -36.5t25 -105.5l-35 -238q-10 -76 -54 -139.5t-111 -94.5l-99 84q72 71 84 157l26 181q3 22 -5.5 29.5t-32.5 7.5q-46 0 -111 -45l-29 -219h-183l65 463h-61l11 92h63l21 145h182l-21 -145h172l-12 -92h-173l-3 -22q-7 -56 -22 -105q100 83 194 83z
" />
    <glyph glyph-name="uni0453" unicode="&#x453;" horiz-adv-x="544" 
d="M438 765l61 -128l-253 -101l-42 76zM300 511q107 1 166 -30t54 -110q-2 -34 -16.5 -61.5t-30.5 -43t-42.5 -28.5t-39 -17.5t-32.5 -9.5l-119 -33q-35 -10 -46.5 -17t-12.5 -18q-1 -16 17.5 -20t72.5 -1q115 6 200 23l13 -115q-123 -42 -241 -42q-125 0 -185 38t-51 121
q6 59 42 92.5t102 52.5l120 33q61 18 70 28q4 6 4 13q0 12 -15.5 15t-66.5 1q-58 -3 -197 -20l-3 109q105 38 237 40z" />
    <glyph glyph-name="uni0454" unicode="&#x454;" horiz-adv-x="547" 
d="M327 370q-53 0 -75.5 -12t-33.5 -52h249l-13 -108h-250q0 -42 19 -56t71 -16q90 0 185 5l9 -116q-80 -28 -198 -28q-158 0 -218 65t-45 202q8 79 32 131t65 78.5t86.5 36t110.5 9.5q136 0 217 -29l-20 -111q-65 1 -191 1z" />
    <glyph glyph-name="uni0455" unicode="&#x455;" horiz-adv-x="538" 
d="M275 511q144 -2 241 -22l-16 -109q-130 2 -193 2q-57 0 -74 -3t-18 -15q-2 -11 8.5 -18.5t42.5 -17.5l114 -37q124 -40 110 -154q-11 -89 -69.5 -118.5t-179.5 -29.5q-118 0 -238 20l16 109q11 0 71 -0.5t92 -0.5q80 0 105.5 4.5t27.5 19.5q1 11 -8.5 17t-46.5 18
l-111 38q-124 42 -107 164q9 69 61.5 101t171.5 32z" />
    <glyph glyph-name="uni0456" unicode="&#x456;" horiz-adv-x="296" 
d="M241 721q58 0 52 -57l-7 -52q-7 -50 -59 -50h-74q-57 0 -51 57l8 52q4 50 58 50h73zM267 497l-69 -497h-181l69 497h181z" />
    <glyph glyph-name="uni0457" unicode="&#x457;" horiz-adv-x="292" 
d="M144 710q33 0 29 -31l-10 -71q-4 -31 -34 -31h-69q-32 0 -29 32l11 68q4 33 37 33h65zM327 710q33 0 29 -31l-11 -70q-4 -32 -34 -32h-68q-34 0 -29 32l10 69q6 32 36 32h67zM266 497l-69 -497h-183l70 497h182z" />
    <glyph glyph-name="uni0458" unicode="&#x458;" horiz-adv-x="297" 
d="M240 721q58 0 51 -57l-7 -52q-6 -50 -60 -50h-72q-58 0 -51 57l7 52q6 50 61 50h71zM269 497l-66 -458q-10 -75 -54.5 -139t-112.5 -95l-100 84q74 71 87 157l64 451h182z" />
    <glyph glyph-name="uni0459" unicode="&#x459;" horiz-adv-x="834" 
d="M625 334q108 -2 144 -38.5t23 -138.5q-13 -94 -67 -128t-170 -35q-56 0 -94.5 5.5t-71.5 22t-46.5 49.5t-7.5 84l32 230h-28q-22 0 -33.5 -8.5t-16.5 -29.5q-43 -177 -70 -234q-26 -55 -64 -84t-79 -32.5t-88 0.5l-8 126q61 7 87 49q24 37 67 217q12 55 46 81.5t95 26.5
h277l-25 -177q48 14 98 14zM612 171q6 36 -1.5 46.5t-35.5 10.5q-30 0 -62 -8l-9 -66q-4 -22 8.5 -31t38.5 -9q32 0 44 12t17 45z" />
    <glyph glyph-name="uni045A" unicode="&#x45a;" horiz-adv-x="833" 
d="M619 334q112 -2 149.5 -37.5t23.5 -139.5q-13 -94 -67 -128.5t-170 -34.5q-53 0 -89 5t-71.5 20.5t-50.5 49.5t-9 86l7 54h-135l-29 -209h-165l70 497h164l-25 -177h136l24 177h171l-25 -177q46 14 91 14zM613 171q5 37 -2 47t-38 10q-28 0 -60 -8l-9 -66q-3 -22 9.5 -31
t38.5 -9q31 0 44 12t17 45z" />
    <glyph glyph-name="uni045B" unicode="&#x45b;" horiz-adv-x="618" 
d="M448 419q75 0 110 -36.5t25 -105.5l-39 -277h-182l32 222q3 24 -5 33t-33 9q-46 0 -111 -45l-29 -219h-183l65 463h-61l11 92h63l21 145h182l-21 -145h172l-12 -92h-173l-4 -28q-5 -46 -22 -100q100 84 194 84z" />
    <glyph glyph-name="uni045C" unicode="&#x45c;" horiz-adv-x="577" 
d="M549 637l-253 -101l-42 76l234 153zM372 253q79 -11 97.5 -40t46.5 -186q3 -18 5 -27h-183q-24 147 -35.5 171t-41.5 26h-16h-30q4 -26 1 -44l-22 -153h-181l70 497h180l-16 -120q-4 -28 -14 -60h15q53 0 73.5 27t69.5 153h191q-5 -11 -14 -32q-24 -55 -34 -77.5
t-26.5 -51.5t-24.5 -36.5t-27 -19t-35.5 -14.5t-47.5 -7z" />
    <glyph glyph-name="uni045D" unicode="&#x45d;" horiz-adv-x="606" 
d="M436 612l-59 -76l-236 110l74 115zM401 497h180l-69 -497h-142l-1 89q-107 -103 -209 -103q-74 0 -108.5 37.5t-24.5 104.5l51 369h183l-46 -318q-3 -22 4.5 -31t24.5 -9q26 0 51 12.5t64 42.5z" />
    <glyph glyph-name="uni045E" unicode="&#x45e;" 
d="M329 553q-86 0 -127.5 50t-22.5 115h114q-11 -43 1.5 -61t45.5 -18q32 0 49.5 18t19.5 61h114q2 -65 -54 -115t-140 -50zM410 497h193q-27 -142 -61 -244.5t-103 -220.5q-23 -42 -46.5 -75.5t-55 -66.5t-66 -54t-78 -37t-92 -15t-108.5 11l13 120q136 -22 224 85h-65
q-25 0 -42 14.5t-20 37.5l-70 445h198l24 -367q2 -16 17 -16h29q71 135 109 383z" />
    <glyph glyph-name="uni045F" unicode="&#x45f;" horiz-adv-x="606" 
d="M401 497h180l-69 -497h-142l-1 89q-107 -103 -209 -103q-74 0 -108.5 37.5t-24.5 104.5l51 369h183l-46 -318q-3 -22 4.5 -31t24.5 -9q26 0 51 12.5t64 42.5zM175 -247l42 207h115l-17 -207h-140z" />
    <glyph glyph-name="uni0462" unicode="&#x462;" horiz-adv-x="666" 
d="M391 444q150 0 203.5 -51t34.5 -182q-18 -128 -71 -173.5t-182 -45.5q-206 0 -309 8l75 527h-116l15 109h116l14 97h188l-14 -97h215l-15 -109h-215l-12 -83h73zM442 224q9 62 -1.5 81t-63.5 19h-76l-28 -197h67q56 0 75 16t27 81z" />
    <glyph glyph-name="uni0463" unicode="&#x463;" horiz-adv-x="552" 
d="M333 334q114 0 152.5 -36.5t24.5 -140.5q-12 -97 -66.5 -132t-172.5 -35q-123 0 -181.5 35t-45.5 130l36 250h-80l15 92h78l27 193h175l-28 -193h166l-14 -92h-165l-12 -84q46 13 91 13zM332 171q5 37 -3 47t-40 10q-29 0 -61 -7l-10 -67q-4 -22 9 -31t40 -9q32 0 46 12
t19 45z" />
    <glyph glyph-name="uni046A" unicode="&#x46a;" horiz-adv-x="908" 
d="M-59 0q96 203 126 251q47 75 105 97q43 17 120 20v6l-207 316h833l-294 -316l-1 -6q32 -2 56 -6.5t45 -15t35.5 -21.5t28 -34.5t23 -46t20.5 -63.5t19.5 -79.5t20.5 -101.5h-196q-33 199 -44 232q-15 45 -45 54q-16 5 -55 5q-2 -40 -5 -64l-31 -227h-179l31 227
q1 9 14 64q-69 0 -96 -33.5t-108 -213.5q-4 -9 -6.5 -14.5t-6.5 -14t-7 -15.5h-196zM459 394l163 173h-276z" />
    <glyph glyph-name="uni046B" unicode="&#x46b;" horiz-adv-x="769" 
d="M-42 0q79 155 104 189q34 46 88 61q25 7 75 14l1 4l-168 229h722l-231 -229l-1 -4q46 -7 69 -14t43 -20t31 -41.5t21.5 -66.5t25.5 -107l3 -15h-186q-5 28 -14 73q-17 93 -28 110.5t-54 17.5q-1 -8 -2 -24t-2 -22l-21 -155h-168l21 155q1 6 4.5 22t5.5 24
q-43 0 -59.5 -19.5t-63.5 -119.5q-18 -39 -29 -62h-187zM388 272l119 116h-206z" />
    <glyph glyph-name="uni0472" unicode="&#x472;" horiz-adv-x="691" 
d="M388 704q170 0 235 -80.5t37 -285.5q-14 -105 -39.5 -173t-68 -108t-98 -55.5t-138.5 -15.5q-173 0 -235 79.5t-34 286.5q28 203 103 277.5t238 74.5zM385 560q-58 0 -85 -31.5t-45 -123.5h215q10 92 -8.5 123.5t-76.5 31.5zM320 130q59 0 87 33.5t46 129.5h-216
q-11 -96 6.5 -129.5t76.5 -33.5z" />
    <glyph glyph-name="uni0473" unicode="&#x473;" horiz-adv-x="600" 
d="M335 511q146 0 198.5 -59.5t32.5 -203.5q-20 -143 -88.5 -201.5t-215.5 -58.5t-199 58.5t-33 201.5q20 144 89 203.5t216 59.5zM317 383q-43 0 -63.5 -18.5t-31.5 -70.5h166q3 52 -12.5 70.5t-58.5 18.5zM280 115q45 0 65.5 19.5t31.5 75.5h-167q-5 -57 10 -76t60 -19z
" />
    <glyph glyph-name="uni0474" unicode="&#x474;" horiz-adv-x="700" 
d="M202 0q-25 0 -41 14t-17 37l-87 639h193l38 -471q4 -33 4 -78h25q3 12 12.5 39t12.5 39l107 329q49 156 196 156q62 0 104 -9l-20 -140q-15 3 -37 3q-33 0 -53 -13.5t-33 -48.5l-165 -445q-8 -23 -28 -37t-44 -14h-167z" />
    <glyph glyph-name="uni0475" unicode="&#x475;" horiz-adv-x="572" 
d="M162 0q-21 0 -34.5 12t-15.5 32l-78 451h172l33 -315q2 -15 4 -57h19l19 56l70 195q44 131 163 131q54 0 92 -8l-17 -125q-13 3 -31 3q-51 0 -71 -49l-115 -282q-8 -20 -25 -32t-39 -12h-146z" />
    <glyph glyph-name="uni048A" unicode="&#x48a;" horiz-adv-x="752" 
d="M429 728q-87 0 -132 49.5t-25 116.5l86 4q-5 -31 14 -44.5t63 -13.5q92 0 98 61l83 -14q0 -68 -51 -113.5t-136 -45.5zM637 128h91l-18 -128l-57 -151h-135l43 151h-120l50 348q9 59 27 114h-7q-36 -74 -54 -99l-249 -363h-186l97 690h181l-48 -337q-6 -47 -30 -123h8
q25 58 57 104l247 356h182z" />
    <glyph glyph-name="uni048B" unicode="&#x48b;" horiz-adv-x="621" 
d="M341 553q-86 0 -127.5 50t-22.5 115h114q-11 -43 1.5 -61t45.5 -18q32 0 49.5 18t19.5 61h114q2 -65 -54 -115t-140 -50zM530 127h71l-18 -127l-56 -142h-127l41 142h-71l-1 89q-107 -103 -209 -103q-74 0 -108.5 37.5t-24.5 104.5l51 369h183l-46 -318q-3 -22 4.5 -31
t24.5 -9q26 0 51 12.5t64 42.5l42 303h180z" />
    <glyph glyph-name="uni048C" unicode="&#x48c;" horiz-adv-x="665" 
d="M391 444q150 0 203.5 -51t34.5 -182q-18 -128 -71 -173.5t-182 -45.5q-206 0 -309 8l72 507h-115l15 109h115l11 74h188l-11 -74h215l-14 -109h-216l-9 -63h73zM442 224q9 62 -1.5 81t-63.5 19h-76l-28 -197h67q56 0 75 16t27 81z" />
    <glyph glyph-name="uni048D" unicode="&#x48d;" horiz-adv-x="552" 
d="M333 334q114 0 152.5 -36.5t24.5 -140.5q-12 -97 -66.5 -132t-172.5 -35q-123 0 -181.5 35t-45.5 130l36 250h-80l15 92h78l27 193h175l-28 -193h166l-14 -92h-165l-12 -84q46 13 91 13zM332 171q5 37 -3 47t-40 10q-29 0 -61 -7l-10 -67q-4 -22 9 -31t40 -9q32 0 46 12
t19 45z" />
    <glyph glyph-name="uni048E" unicode="&#x48e;" horiz-adv-x="626" 
d="M626 462q-18 -128 -72 -175l55 -54l-42 -43l-67 67q-51 -18 -140 -18q-58 0 -119 8l-35 -247h-187l97 690q96 10 267 10q151 0 206 -52t37 -186zM370 470l56 -56q9 18 15 62q7 51 -6 69t-57 18h-93l-26 -187h86q23 0 33 2l-50 49z" />
    <glyph glyph-name="uni048F" unicode="&#x48f;" horiz-adv-x="619" 
d="M563 237q-21 -161 -93 -214l64 -91l-57 -41l-72 102q-32 -7 -75 -7q-70 0 -142 13q0 -45 -7 -93l-15 -91h-182l95 682h145l-1 -91q101 103 203 103q174 0 137 -272zM324 231l43 -61q3 14 11 64q11 82 5 107.5t-34 25.5q-51 0 -115 -62l-25 -202h59q34 0 55 6l-57 81z" />
    <glyph glyph-name="uni0490" unicode="&#x490;" horiz-adv-x="549" 
d="M491 842h126l-25 -165l-21 -130h-236q-49 0 -57 -48l-71 -499h-187l76 544q10 68 53.5 108.5t106.5 40.5q137 0 202 -3z" />
    <glyph glyph-name="uni0491" unicode="&#x491;" horiz-adv-x="481" 
d="M393 639h126l-23 -151l-21 -126h-190q-43 0 -49 -40l-45 -322h-181l53 381q10 65 44 94t100 29q105 0 156 -3z" />
    <glyph glyph-name="uni0492" unicode="&#x492;" horiz-adv-x="574" 
d="M371 547q-29 0 -41 -10t-16 -38l-18 -128h200l-13 -109h-203l-37 -262h-187l37 262h-112l13 109h114l24 173q10 69 54 109t107 40q236 0 322 -13l-22 -133h-222z" />
    <glyph glyph-name="uni0493" unicode="&#x493;" horiz-adv-x="493" 
d="M245 504q199 0 273 -15l-25 -127h-185q-40 0 -45 -37l-13 -92h27l-6 -53h-29l-25 -180h-180l53 378q18 126 155 126z" />
    <glyph glyph-name="uni0494" unicode="&#x494;" horiz-adv-x="616" 
d="M424 445q97 0 136 -64.5t18 -216.5q-13 -92 -41.5 -155.5t-71.5 -99t-88.5 -52.5t-106.5 -25l-26 117q74 27 102.5 69.5t42.5 142.5q12 82 0 109t-55 27q-44 0 -90 -18l-40 -279h-187l76 541q9 67 58 109.5t117 42.5q230 0 322 -12l-27 -134h-234q-48 0 -54 -45l-14 -96
q84 39 163 39z" />
    <glyph glyph-name="uni0495" unicode="&#x495;" horiz-adv-x="570" 
d="M379 290q177 0 148 -209q-37 -259 -306 -290l-4 122q61 20 88 55t36 99q7 50 -4 69t-46 19q-37 0 -76 -19l-19 -136h-180l54 378q9 65 46.5 95.5t107.5 30.5q200 0 276 -15l-25 -120h-187q-22 0 -32 -8t-13 -28l-11 -79q69 36 147 36z" />
    <glyph glyph-name="uni0496" unicode="&#x496;" horiz-adv-x="1018" 
d="M988 105l-21 -147l-10 -67h-152l4 67h-42l5 42h-74q-7 43 -19 113q-19 121 -32.5 151.5t-55.5 30.5h-33q2 -42 -3 -68l-32 -227h-180l33 234q5 31 16 61h-29q-47 0 -76 -45.5t-122 -249.5h-199q29 68 43.5 100.5t35 76.5t31 62t28 43t29.5 33.5t31 20t37.5 15.5t44.5 8
l1 5q-29 6 -48.5 13.5t-34.5 23t-23.5 32t-17 50t-14 65.5t-14.5 90q-5 34 -8 52h186q4 -28 12 -77q18 -121 32 -156.5t54 -35.5h43q-4 43 2 89l25 180h179l-27 -187q-7 -49 -17 -82h20q48 0 75 38.5t82 165.5q5 13 8.5 21t9 20.5t10.5 23.5h193q-12 -27 -29.5 -68.5
t-25.5 -59.5t-21 -48t-20.5 -42t-19.5 -32t-21 -27t-22.5 -18.5t-27.5 -16t-31.5 -9.5t-38.5 -8l-1 -5q27 -4 45 -10t33 -20t24 -28.5t18 -46.5t15 -61t16 -85h121z" />
    <glyph glyph-name="uni0497" unicode="&#x497;" horiz-adv-x="883" 
d="M745 122h110l-37 -260h-120l7 138h-105q-33 150 -42 171q-12 26 -38 28q-6 1 -16 1h-28q3 -24 0 -45l-20 -155h-159l22 157q4 25 11 43h-19q-24 0 -36 -3.5t-30.5 -26t-36 -57.5t-54.5 -113h-184q79 162 94 186q29 45 69 58q22 7 72 14l1 5q-77 11 -96 40t-45 169
q-3 16 -5 25h173q22 -127 33.5 -154t50.5 -27h30q-3 28 2 66l16 115h159l-18 -119q-6 -36 -14 -62h15q43 0 64 27.5t79 153.5h182q-73 -149 -94 -179q-30 -42 -75 -52q-18 -3 -46 -5l-1 -5q35 -7 50.5 -12t32 -19t26 -37t20.5 -66z" />
    <glyph glyph-name="uni0498" unicode="&#x498;" horiz-adv-x="574" 
d="M320 698q137 0 189.5 -40.5t37.5 -146.5q-10 -74 -41 -109.5t-98 -41.5l-1 -5q138 -13 113 -190q-14 -100 -68.5 -136.5t-178.5 -36.5q-162 0 -282 35l21 123q124 -20 221 -20q51 0 72.5 18t28.5 68q7 48 -7.5 64t-60.5 16h-143l16 123h134q46 0 63.5 16.5t23.5 63.5
q5 38 -8.5 49.5t-56.5 11.5q-87 0 -202 -14l-8 131q101 21 235 21zM180 -35q52 5 89.5 4t56 -19.5t11.5 -56.5q-13 -77 -77.5 -111.5t-155.5 -22.5l21 71q88 0 99 52q1 6 0 9t-7.5 5t-18.5 2.5t-34 0.5z" />
    <glyph glyph-name="uni0499" unicode="&#x499;" horiz-adv-x="524" 
d="M256 510q137 0 189.5 -28.5t40.5 -114.5q-6 -51 -33.5 -77.5t-89.5 -31.5l-1 -5q126 -9 108 -136q-12 -82 -64.5 -106t-175.5 -24q-143 0 -241 23l18 119q104 -11 202 -11q48 0 64 7.5t18 34.5q4 23 -8.5 30.5t-46.5 7.5l-159 2l13 104l151 1q33 0 47.5 9t19.5 30
q2 22 -9 27.5t-56 5.5q-72 0 -180 -10l-6 121q84 22 199 22zM154 -35q52 5 89.5 4t56 -19.5t11.5 -56.5q-13 -77 -77.5 -111.5t-155.5 -22.5l21 71q88 0 99 52q1 6 0 9t-7.5 5t-18.5 2.5t-34 0.5z" />
    <glyph glyph-name="uni049A" unicode="&#x49a;" horiz-adv-x="668" 
d="M579 128h73l-17 -121v-3l-1 -4l-22 -151h-133l8 151h-79q-27 192 -35 223q-15 54 -48 66q-17 6 -45 6h-40q3 -37 -1 -68l-32 -227h-188l97 690h188l-27 -187q-6 -43 -18 -82h32q28 0 49 9.5t36.5 24t34.5 53t33 73t42 109.5h195q-76 -182 -96 -219q-39 -69 -92 -92
q-29 -12 -74 -18l-1 -6q82 -13 110.5 -54.5t50.5 -172.5z" />
    <glyph glyph-name="uni049B" unicode="&#x49b;" horiz-adv-x="597" 
d="M372 253q69 -10 89.5 -29.5t37.5 -101.5h80l-36 -260h-120l6 138h-91q-24 147 -35.5 171t-41.5 26h-16h-30q4 -26 1 -44l-22 -153h-181l70 497h180l-16 -120q-4 -28 -14 -60h15q53 0 73.5 27t69.5 153h191q-5 -11 -14 -32q-24 -55 -34 -77.5t-26.5 -51.5t-24.5 -36.5
t-27 -19t-35.5 -14.5t-47.5 -7z" />
    <glyph glyph-name="uni049C" unicode="&#x49c;" horiz-adv-x="681" 
d="M448 357q34 -5 56 -12t40 -24t28 -34.5t20.5 -57.5t17 -77.5t17.5 -107.5q5 -29 7 -44h-196q-27 191 -40 231q-14 41 -40 54l-17 -119h-77l18 129h-51q3 -34 0 -64l-32 -231h-179l96 690h179l-26 -183q-4 -39 -21 -86h52l18 132h77l-17 -119q19 10 34 26t34.5 56.5t31 68
t42.5 105.5h190q-11 -24 -29 -66q-26 -61 -38 -86.5t-31 -62t-31.5 -49.5t-33.5 -29.5t-43.5 -23t-54.5 -10.5z" />
    <glyph glyph-name="uni049D" unicode="&#x49d;" horiz-adv-x="606" 
d="M410 256l31.5 -4.5t25 -6.5t21 -7t16 -12.5t13 -15.5t10.5 -24t9 -30t8 -41.5t9 -50.5t10 -64h-189q-17 121 -26.5 154.5t-34.5 39.5l-14 -98h-60l14 101h-31q2 -24 -1 -40l-21 -157h-181l69 497h181l-16 -117q-5 -35 -16 -63h33l14 100h60l-13 -94q27 9 44.5 41.5
t56.5 132.5h184q-66 -149 -80 -171q-25 -41 -65 -53q-19 -6 -60 -12z" />
    <glyph glyph-name="uni049E" unicode="&#x49e;" horiz-adv-x="689" 
d="M461 355q29 -4 48.5 -11.5t35.5 -16.5t27 -28t19.5 -39t16.5 -57.5t14 -73.5t16 -97q3 -21 5 -32h-192q-27 192 -35 223q-15 54 -48 66q-17 6 -45 6h-40q3 -37 -1 -68l-32 -227h-188l75 530h-112l15 109h112l7 51h188l-7 -51h108l-15 -109h-109l-4 -27q-6 -43 -18 -82h32
q28 0 49 9.5t36.5 24t34.5 53t33 73t42 109.5h195q-76 -182 -96 -219q-39 -69 -92 -92q-29 -12 -74 -18z" />
    <glyph glyph-name="uni049F" unicode="&#x49f;" horiz-adv-x="580" 
d="M366 256q26 -4 38.5 -5.5t28.5 -9t22 -11t16.5 -21.5t13.5 -28.5t10.5 -44.5t11 -57.5t12.5 -78.5h-189q-22 148 -34 172q-11 23 -39 25h-16h-33q3 -22 0 -40l-21 -157h-181l74 534h-64l12 91h65l9 65h181l-9 -65h158l-12 -91h-159l-22 -154q-5 -33 -15 -63h22
q52 0 71.5 26t70.5 154h184q-67 -149 -81 -171q-25 -41 -65 -53q-19 -6 -60 -12v-5z" />
    <glyph glyph-name="uni04A0" unicode="&#x4a0;" horiz-adv-x="778" 
d="M550 355q29 -4 48.5 -11.5t35.5 -16.5t27 -28t19.5 -39t16.5 -57.5t14 -73.5t16 -97q3 -21 5 -32h-192q-27 192 -35 223q-15 54 -48 66q-17 6 -45 6h-40q3 -37 -1 -68l-32 -227h-188l81 573h-128l12 90h128l4 27h188l-27 -187q-6 -43 -18 -82h32q28 0 49 9.5t36.5 24
t34.5 53t33 73t42 109.5h195q-76 -182 -96 -219q-39 -69 -92 -92q-29 -12 -74 -18z" />
    <glyph glyph-name="uni04A1" unicode="&#x4a1;" horiz-adv-x="683" 
d="M482 256q26 -4 38.5 -5.5t28.5 -9t22 -11t16.5 -21.5t13.5 -28.5t10.5 -44.5t11 -57.5t12.5 -78.5h-189q-21 145 -32.5 171t-55.5 26h-33q2 -24 -1 -40l-22 -157h-181l51 365h-163l18 132h345l-16 -117q-4 -27 -16 -63h22q52 0 71.5 25.5t70.5 154.5h184
q-67 -149 -81 -171q-25 -41 -64 -53q-19 -6 -60 -12z" />
    <glyph glyph-name="uni04A2" unicode="&#x4a2;" horiz-adv-x="722" 
d="M613 128h79l-17 -121v-3l-1 -4l-22 -151h-134l8 151h-119l42 297h-199l-42 -297h-188l97 690h188l-36 -255h199l36 255h188z" />
    <glyph glyph-name="uni04A3" unicode="&#x4a3;" horiz-adv-x="639" 
d="M536 122h75l-36 -260h-120l6 138h-120l28 201h-149l-28 -201h-179l70 497h179l-25 -175h149l25 175h178z" />
    <glyph glyph-name="uni04A4" unicode="&#x4a4;" horiz-adv-x="881" 
d="M644 693q201 0 280 -12l-28 -134h-192q-47 0 -53 -45l-71 -502h-188l42 298h-185l-42 -298h-188l97 690h188l-36 -255h186l15 106q10 67 59 109.5t116 42.5z" />
    <glyph glyph-name="uni04A5" unicode="&#x4a5;" horiz-adv-x="759" 
d="M547 504q171 0 236 -15l-26 -127h-148q-40 0 -44 -37l-47 -325h-180l29 201h-141l-29 -201h-179l70 497h180l-25 -175h141l8 56q18 126 155 126z" />
    <glyph glyph-name="uni04A6" unicode="&#x4a6;" horiz-adv-x="1009" 
d="M818 452q98 0 137 -66.5t16 -221.5q-13 -90 -45 -155.5t-79 -103t-96.5 -56.5t-110.5 -27l-2 130q74 28 102 69.5t42 139.5q12 87 0.5 115t-54.5 28q-44 0 -91 -18l-40 -286h-188l79 562h-202l-79 -562h-188l97 690h578l-39 -278q83 40 163 40z" />
    <glyph glyph-name="uni04A7" unicode="&#x4a7;" horiz-adv-x="900" 
d="M723 395q180 0 145 -246q-42 -301 -308 -336l-4 119q66 27 93 71.5t41 142.5q8 61 -3 85t-45 24q-42 0 -88 -20l-33 -235h-183l45 312q3 28 -3 37.5t-27 7.5q-49 -1 -118 -57l-42 -300h-182l69 497h142l3 -93q109 107 222 107q64 0 99.5 -37t26.5 -105l-3 -19
q73 45 153 45z" />
    <glyph glyph-name="uni04A8" unicode="&#x4a8;" horiz-adv-x="952" 
d="M773 116q54 0 119 5l1 -110q-46 -23 -145 -23q-101 0 -181 43q-103 -43 -227 -43q-165 0 -240 95.5t-49 291.5q25 174 118.5 250t253.5 76l-19 -136q-62 0 -101.5 -46.5t-55.5 -162.5q-30 -230 157 -230q25 0 55 5q-76 117 -50 301q20 140 85.5 204t178.5 64
q252 0 219 -248q-28 -202 -175 -329q25 -7 56 -7zM592 439q-21 -146 17 -227q79 85 100 237q8 59 -0.5 84.5t-40.5 25.5q-34 0 -50.5 -28t-25.5 -92z" />
    <glyph glyph-name="uni04A9" unicode="&#x4a9;" horiz-adv-x="763" 
d="M740 26q-46 -35 -136 -35q-82 0 -149 35q-89 -35 -185 -35q-143 0 -203.5 73t-36.5 216q20 122 88 176.5t201 54.5l-17 -115q-37 0 -62.5 -34t-35.5 -99q-12 -87 19.5 -121t104.5 -34q12 0 34 2q-62 92 -41 217q29 185 214 185q98 0 146 -47t36 -138q-16 -122 -129 -220
q18 -3 39 -3q60 0 104 11zM478 319q-16 -96 16 -152q54 54 65 152q5 38 -1.5 56t-28.5 18q-41 0 -51 -74z" />
    <glyph glyph-name="uni04AA" unicode="&#x4aa;" horiz-adv-x="594" 
d="M380 542q-45 0 -68.5 -14t-40 -57.5t-28.5 -132.5q-17 -114 -3.5 -152t76.5 -38q132 0 216 8l7 -138q-71 -22 -154 -28l-26 -141h-135l14 143q-126 16 -171 99.5t-20 260.5q28 203 101 276.5t241 73.5q125 0 217 -26l-22 -137q-105 3 -204 3z" />
    <glyph glyph-name="uni04AB" unicode="&#x4ab;" horiz-adv-x="523" 
d="M327 365q-56 0 -79 -24t-32 -91q-10 -73 5.5 -95t70.5 -22q93 0 162 8l13 -117q-62 -27 -155 -34l-32 -153h-122l12 159q-87 19 -123 82t-20 178q19 138 80.5 196.5t196.5 58.5q127 0 211 -36l-25 -111q-67 1 -163 1z" />
    <glyph glyph-name="uni04AC" unicode="&#x4ac;" horiz-adv-x="607" 
d="M650 690l-20 -145h-197l-63 -442h25l-11 -78h-24l-4 -25h-188l77 545h-197l20 145h582zM306 -107l-1 70h104l-14 -70h-89z" />
    <glyph glyph-name="uni04AD" unicode="&#x4ad;" horiz-adv-x="909" 
d="M809 122h75l-37 -260h-120l7 138h-122l44 318q5 39 -27 39q-38 0 -97 -49l-43 -308h-175l44 318q4 22 -2 30.5t-24 8.5q-38 0 -98 -46l-43 -311h-181l70 497h141l4 -79q94 93 189 93q106 0 125 -81q87 81 176 81q71 0 104.5 -37.5t24.5 -104.5z" />
    <glyph glyph-name="uni04AE" unicode="&#x4ae;" horiz-adv-x="629" 
d="M690 690l-294 -473l-30 -217h-189l32 227l-159 463h188l64 -237q10 -45 10 -95h13q6 42 32 95l132 237h201z" />
    <glyph glyph-name="uni04AF" unicode="&#x4af;" horiz-adv-x="634" 
d="M663 497l-294 -474l-28 -209h-189l31 218l-159 465h187l64 -237q10 -40 10 -95h13q6 44 33 95l132 237h200z" />
    <glyph glyph-name="uni04B0" unicode="&#x4b0;" horiz-adv-x="637" 
d="M696 690l-246 -394h98l-14 -109h-138l-26 -187h-188l26 187h-136l15 109h102l-136 394h188l65 -237q9 -36 11 -95l13 1q9 47 33 94l134 237h199z" />
    <glyph glyph-name="uni04B1" unicode="&#x4b1;" horiz-adv-x="635" 
d="M663 497l-250 -404h102l-12 -92h-137l-25 -187h-189l26 187h-134l11 92h107l-138 404h187l64 -237q10 -40 10 -95h13q6 44 33 95l132 237h200z" />
    <glyph glyph-name="uni04B2" unicode="&#x4b2;" horiz-adv-x="728" 
d="M713 128l-17 -121l-22 -158h-135l8 151h-121l-87 300h-1l-176 -300h-202l224 353l-110 337h183l81 -280h2l165 280h193l-208 -337l78 -225h145z" />
    <glyph glyph-name="uni04B3" unicode="&#x4b3;" horiz-adv-x="628" 
d="M487 122h120l-37 -260h-120l7 138h-89l-81 199l-137 -199h-189l184 254l-101 243h170l73 -187h1l130 187h184l-172 -243z" />
    <glyph glyph-name="uni04B4" unicode="&#x4b4;" horiz-adv-x="857" 
d="M570 690l-20 -145h-502l20 145h502zM819 690l-96 -683h79l-22 -158h-135l8 151h-488l74 524h294l-33 -231h75l56 397h188z" />
    <glyph glyph-name="uni04B5" unicode="&#x4b5;" horiz-adv-x="786" 
d="M759 128l-17 -122l-20 -144h-122l7 138h-487l52 372h-136l18 125h435l-17 -125h-117l-34 -244h180l52 369h182l-52 -369h76z" />
    <glyph glyph-name="uni04B6" unicode="&#x4b6;" horiz-adv-x="721" 
d="M589 124h93l-17 -124l-22 -151h-136l14 151h-137l39 280q-107 -49 -218 -49q-89 0 -125 43.5t-24 134.5l40 281h187l-34 -247q-6 -34 6 -45.5t50 -11.5q67 0 138 31l38 273h188z" />
    <glyph glyph-name="uni04B7" unicode="&#x4b7;" horiz-adv-x="623" 
d="M585 122l-15 -117h1l-21 -143h-153l44 138h-130l25 175q-69 -28 -147 -28q-90 0 -128.5 32.5t-27.5 107.5l32 210h179l-24 -178q-3 -22 5 -30.5t32 -8.5q43 0 97 22l27 195h181l-53 -375h76z" />
    <glyph glyph-name="uni04B8" unicode="&#x4b8;" horiz-adv-x="673" 
d="M478 690h188l-97 -690h-188l38 273q-29 -13 -62 -24l-15 -109h-77l13 89q-33 -5 -52 -5q-99 0 -141 44t-30 134l40 288h189l-36 -255q-6 -32 6.5 -43.5t44.5 -12.5l21 149h77l-20 -140q27 6 62 22z" />
    <glyph glyph-name="uni04B9" unicode="&#x4b9;" horiz-adv-x="601" 
d="M398 497h181l-69 -497h-181l24 176q-30 -10 -46 -13l-11 -77h-60l9 65q-29 -4 -63 -4q-82 0 -117 28.5t-27 88.5l33 233h177l-25 -179q-3 -20 6 -29t33 -9h1l19 132h60l-18 -126q20 3 46 12z" />
    <glyph glyph-name="uni04BA" unicode="&#x4ba;" horiz-adv-x="674" 
d="M483 459q90 0 126 -44t23 -134l-39 -281h-188l35 247q6 34 -6 46t-51 11q-70 -3 -133 -30l-39 -274h-189l97 690h189l-39 -278q107 47 214 47z" />
    <glyph glyph-name="uni04BB" unicode="&#x4bb;" horiz-adv-x="609" 
d="M439 511q72 0 107 -37t25 -105l-52 -369h-181l45 318q3 24 -2 31.5t-23 7.5q-50 0 -125 -58l-41 -299h-182l98 700h182l-22 -163q-8 -57 -28 -120q103 94 199 94z" />
    <glyph glyph-name="uni04BC" unicode="&#x4bc;" horiz-adv-x="753" 
d="M525 703q136 0 189 -49t37 -166q-16 -112 -76 -156t-186 -44h-128q-4 -49 0 -76.5t21.5 -41.5t39.5 -17.5t67 -3.5q97 0 175 10l-4 -138q-93 -33 -228 -33q-167 0 -225 69.5t-43 230.5q-119 1 -159.5 52t-9.5 160h131q-15 -52 -2 -72.5t57 -20.5q33 169 112 232.5
t232 63.5zM572 477q5 40 -11.5 57.5t-62.5 17.5q-53 0 -79 -30t-42 -115h100q46 0 68 15.5t27 54.5z" />
    <glyph glyph-name="uni04BD" unicode="&#x4bd;" horiz-adv-x="706" 
d="M461 511q131 0 183 -43.5t40 -132.5q-9 -70 -53.5 -102t-139.5 -32h-149q1 -41 20.5 -56.5t68.5 -15.5q91 0 196 12l1 -111q-89 -42 -238 -42q-134 0 -190 51.5t-50 161.5q-94 2 -126.5 45.5t-2.5 146.5h114q-28 -91 28 -97q26 117 95 166t203 49zM510 339q4 29 -9.5 39
t-51.5 10q-47 1 -66.5 -17t-29.5 -76h100q31 0 42 9.5t15 34.5z" />
    <glyph glyph-name="uni04BE" unicode="&#x4be;" horiz-adv-x="753" 
d="M525 703q136 0 189 -49t37 -166q-16 -112 -76 -156t-186 -44h-128q-4 -49 0 -76.5t21.5 -41.5t39.5 -17.5t67 -3.5q97 0 175 10l-4 -138q-78 -27 -181 -32l-27 -140h-128l14 146q-110 18 -148.5 87t-25.5 206q-119 1 -159.5 52t-9.5 160h131q-15 -52 -2 -72.5t57 -20.5
q33 169 112 232.5t232 63.5zM572 477q5 40 -11.5 57.5t-62.5 17.5q-53 0 -79 -30t-42 -115h100q46 0 68 15.5t27 54.5z" />
    <glyph glyph-name="uni04BF" unicode="&#x4bf;" horiz-adv-x="706" 
d="M461 511q131 0 183 -43.5t40 -132.5q-9 -70 -53.5 -102t-139.5 -32h-149q1 -41 20.5 -56.5t68.5 -15.5q91 0 196 12l1 -111q-65 -31 -168 -40l-32 -153h-122l11 156q-93 13 -132.5 63.5t-34.5 144.5q-94 2 -126.5 45.5t-2.5 146.5h114q-28 -91 28 -97q26 117 95 166
t203 49zM510 339q4 29 -9.5 39t-51.5 10q-47 1 -66.5 -17t-29.5 -76h100q31 0 42 9.5t15 34.5z" />
    <glyph glyph-name="uni04C0" unicode="&#x4c0;" horiz-adv-x="315" 
d="M307 690l-97 -690h-187l97 690h187z" />
    <glyph glyph-name="uni04C1" unicode="&#x4c1;" horiz-adv-x="946" 
d="M543 736q-86 0 -127.5 50t-22.5 115h114q-11 -43 1.5 -61t45.5 -18q32 0 49.5 18t19.5 61h114q2 -65 -54 -115t-140 -50zM719 356q78 -11 101.5 -57t53.5 -217q10 -52 15 -82h-188q-7 43 -19 113q-19 121 -32.5 151.5t-55.5 30.5h-33q2 -42 -3 -68l-32 -227h-180l33 234
q5 31 16 61h-29q-47 0 -76 -45.5t-122 -249.5h-199q29 68 43.5 100.5t35 76.5t31 62t28 43t29.5 33.5t31 20t37.5 15.5t44.5 8l1 5q-29 6 -48.5 13.5t-34.5 23t-23.5 32t-17 50t-14 65.5t-14.5 90q-5 34 -8 52h186q4 -28 12 -77q18 -121 32 -156.5t54 -35.5h43q-4 43 2 89
l25 180h179l-27 -187q-7 -49 -17 -82h20q48 0 75 38.5t82 165.5q5 13 8.5 21t9 20.5t10.5 23.5h193q-12 -27 -29.5 -68.5t-25.5 -59.5t-21 -48t-20.5 -42t-19.5 -32t-21 -27t-22.5 -18.5t-27.5 -16t-31.5 -9.5t-38.5 -8z" />
    <glyph glyph-name="uni04C2" unicode="&#x4c2;" horiz-adv-x="826" 
d="M456 553q-86 0 -127.5 50t-22.5 115h114q-11 -43 1.5 -61t45.5 -18q32 0 49.5 18t19.5 61h114q2 -65 -54 -115t-140 -50zM616 256q25 -5 38 -9t28 -9.5t23 -18.5t16.5 -27t16.5 -45t15.5 -61t19.5 -86h-173q-33 150 -42 171q-12 26 -38 28q-6 1 -16 1h-28q3 -24 0 -45
l-20 -155h-159l22 157q4 25 11 43h-19q-24 0 -36 -3.5t-30.5 -26t-36 -57.5t-54.5 -113h-184q79 162 94 186q29 45 69 58q22 7 72 14l1 5q-77 11 -96 40t-45 169q-3 16 -5 25h173q22 -127 33.5 -154t50.5 -27h30q-3 28 2 66l16 115h159l-18 -119q-6 -36 -14 -62h15
q43 0 64 27.5t79 153.5h182q-73 -149 -94 -179q-30 -42 -75 -52q-18 -3 -46 -5z" />
    <glyph glyph-name="uni04C3" unicode="&#x4c3;" horiz-adv-x="646" 
d="M421 357q108 -6 153 -78.5t29 -185.5q-42 -291 -337 -272l16 115q39 0 64.5 13t39 39.5t18.5 47.5t10 58q16 113 -19 157t-120 44h-35q3 -40 0 -64l-33 -231h-188l97 690h188l-25 -183q-6 -45 -21 -86h33q67 0 100 47.5t98 211.5q3 7 4 10h191q-82 -184 -96 -210
q-39 -72 -88 -96q-30 -15 -79 -21v-6z" />
    <glyph glyph-name="uni04C4" unicode="&#x4c4;" horiz-adv-x="586" 
d="M392 256q173 -40 150 -208q-16 -116 -96.5 -174.5t-214.5 -52.5l16 106q35 1 58.5 12.5t36 33t17.5 41.5t9 49q10 68 -20.5 101t-88.5 33h-24q2 -24 -1 -40l-21 -157h-181l69 497h181l-16 -117q-4 -27 -16 -63h22q52 0 72 26t70 154h184q-9 -20 -24 -54
q-53 -120 -77.5 -145.5t-103.5 -36.5z" />
    <glyph glyph-name="uni04C5" unicode="&#x4c5;" horiz-adv-x="696" 
d="M593 128h80l-18 -128l-58 -151h-134l43 151h-118l79 562h-53q-33 0 -47.5 -12.5t-22.5 -45.5q-62 -273 -103 -355q-49 -99 -116.5 -133t-159.5 -19l-6 146q51 8 71 21q24 17 41 50q42 77 97 335q32 141 180 141h324z" />
    <glyph glyph-name="uni04C6" unicode="&#x4c6;" horiz-adv-x="639" 
d="M533 127h73l-18 -127l-56 -142h-127l41 142h-112l52 376h-35q-23 0 -35 -10.5t-19 -38.5q-36 -128 -60 -209q-44 -155 -245 -122l-10 137q49 4 66 16q15 11 23 32q27 69 56 195q14 62 51.5 91.5t104.5 29.5h302z" />
    <glyph glyph-name="uni04C7" unicode="&#x4c7;" horiz-adv-x="701" 
d="M509 690h188l-87 -626q-14 -101 -69.5 -164t-126 -80.5t-147.5 0.5l16 115q68 0 99.5 38t41.5 107l30 218h-205l-42 -298h-188l97 690h188l-36 -255h205z" />
    <glyph glyph-name="uni04C8" unicode="&#x4c8;" horiz-adv-x="619" 
d="M420 497h178l-66 -471q-9 -64 -38.5 -109.5t-69.5 -66.5t-88 -30t-94 0l16 112q46 0 67.5 24t28.5 70l25 175h-153l-28 -201h-179l69 497h180l-25 -175h152z" />
    <glyph glyph-name="uni04C9" unicode="&#x4c9;" horiz-adv-x="722" 
d="M691 690l-79 -562h79l-18 -128l-58 -151h-134l43 151h-118l42 297h-199l-42 -297h-188l97 690h188l-36 -255h199l36 255h188z" />
    <glyph glyph-name="uni04CA" unicode="&#x4ca;" horiz-adv-x="636" 
d="M537 127h72l-18 -127l-55 -142h-128l42 142h-109l28 201h-149l-28 -201h-179l70 497h179l-25 -175h149l25 175h178z" />
    <glyph glyph-name="uni04CB" unicode="&#x4cb;" horiz-adv-x="654" 
d="M458 690h188l-97 -690h-220l-36 -151h-134l23 155l17 124h180l20 145q-106 -49 -193 -49q-99 0 -141 44t-30 134l40 288h189l-36 -255q-6 -33 7 -44.5t47 -11.5q68 0 137 31z" />
    <glyph glyph-name="uni04CC" unicode="&#x4cc;" horiz-adv-x="588" 
d="M381 497h182l-70 -497h-84l-14 -138h-120v238h51l10 75q-69 -28 -146 -28q-90 0 -128.5 32.5t-28.5 107.5l32 210h181l-24 -178q-4 -22 3.5 -30.5t31.5 -8.5q45 0 97 22z" />
    <glyph glyph-name="uni04CD" unicode="&#x4cd;" horiz-adv-x="965" 
d="M854 128h101l-18 -128l-58 -151h-135l44 151h-118l56 547h-15l-138 -389q-17 -55 -77 -55h-105q-30 0 -48.5 16.5t-19.5 45.5l-32 382h-17l-95 -547h-172l113 627q6 33 22 48t48 15h166q29 0 47 -16.5t19 -45.5l24 -306q4 -47 1 -101h12q9 39 28 99l105 314q15 56 76 56
h173q32 0 49 -19t13 -51z" />
    <glyph glyph-name="uni04CE" unicode="&#x4ce;" horiz-adv-x="827" 
d="M730 127h74l-17 -127l-56 -142h-128l42 142h-93l39 365h-12l-92 -244q-17 -52 -71 -52h-81q-28 0 -44.5 15.5t-18.5 43.5l-29 237h-12l-61 -365h-165l73 430q5 36 21.5 51.5t49.5 15.5h149q59 0 62 -60l17 -175q1 -14 1 -83h11q16 69 20 81l69 184q15 53 70 53h157
q65 0 59 -66z" />
    <glyph glyph-name="uni04CF" unicode="&#x4cf;" horiz-adv-x="286" 
d="M288 690l-97 -690h-178l98 690h177z" />
    <glyph glyph-name="uni04D0" unicode="&#x4d0;" horiz-adv-x="664" 
d="M390 736q-86 0 -127.5 50t-22.5 115h114q-11 -43 1.5 -61t45.5 -18q32 0 49.5 18t19.5 61h114q2 -65 -54 -115t-140 -50zM441 0l-16 161h-211l-63 -161h-196l277 645q19 45 67 45h172q23 0 40.5 -15t19.5 -37l98 -638h-188zM270 303h140l-18 176q-3 24 -3 72h-29
q-9 -37 -21 -71z" />
    <glyph glyph-name="uni04D1" unicode="&#x4d1;" horiz-adv-x="606" 
d="M339 553q-86 0 -127.5 50t-22.5 115h114q-11 -43 1.5 -61t45.5 -18q32 0 49.5 18t19.5 61h114q2 -65 -54 -115t-140 -50zM335 511q53 0 131 -10t114 -21l-68 -480h-141v94q-70 -99 -199 -106q-98 -5 -130 63t-11 209q7 50 19.5 88t27 64.5t36.5 44.5t43 28.5t52 16.5
t58.5 7.5t67.5 1.5zM244 130q53 3 117 87l25 169q-20 1 -60 1q-53 0 -76 -22.5t-34 -101.5q-13 -86 -8.5 -110t36.5 -23z" />
    <glyph glyph-name="uni04D2" unicode="&#x4d2;" horiz-adv-x="664" 
d="M266 760q-32 0 -29 32l11 68q4 33 37 33h65q33 0 29 -31l-10 -71q-4 -31 -34 -31h-69zM449 760q-34 0 -29 32l10 69q6 32 36 32h67q33 0 29 -31l-11 -70q-4 -32 -34 -32h-68zM441 0l-16 161h-211l-63 -161h-196l277 645q19 45 67 45h172q23 0 40.5 -15t19.5 -37l98 -638
h-188zM270 303h140l-18 176q-3 24 -3 72h-29q-9 -37 -21 -71z" />
    <glyph glyph-name="uni04D3" unicode="&#x4d3;" horiz-adv-x="606" 
d="M215 577q-32 0 -29 32l11 68q4 33 37 33h65q33 0 29 -31l-10 -71q-4 -31 -34 -31h-69zM398 577q-34 0 -29 32l10 69q6 32 36 32h67q33 0 29 -31l-11 -70q-4 -32 -34 -32h-68zM335 511q53 0 131 -10t114 -21l-68 -480h-141v94q-70 -99 -199 -106q-98 -5 -130 63t-11 209
q7 50 19.5 88t27 64.5t36.5 44.5t43 28.5t52 16.5t58.5 7.5t67.5 1.5zM244 130q53 3 117 87l25 169q-20 1 -60 1q-53 0 -76 -22.5t-34 -101.5q-13 -86 -8.5 -110t36.5 -23z" />
    <glyph glyph-name="uni04D4" unicode="&#x4d4;" horiz-adv-x="945" 
d="M703 549q-27 0 -39 -10t-16 -36l-13 -87h249l-15 -121h-251l-16 -109q-2 -24 6.5 -34.5t33.5 -10.5h238l-3 -134q-92 -10 -317 -10q-72 0 -109 43.5t-27 114.5l2 15h-184l-102 -170h-195l339 548q34 56 71 85.5t100 44t166 14.5q215 0 341 -10l-23 -133h-236zM326 310
h120l29 205q5 36 25 64h-10q-4 -6 -36 -55z" />
    <glyph glyph-name="uni04D5" unicode="&#x4d5;" horiz-adv-x="904" 
d="M654 511q139 0 190.5 -44.5t38.5 -134.5q-10 -67 -57 -94.5t-149 -35.5l-137 -11q1 -37 21 -49.5t66 -12.5q93 0 194 12l11 -113q-87 -40 -223 -40q-191 0 -237 112q-69 -105 -201 -112q-98 -5 -129.5 63t-11.5 209q8 58 20.5 100t32 69t39 43.5t50.5 25t58 11t69 2.5
q105 0 215 -17q55 17 140 17zM709 350q2 24 -9.5 31.5t-49.5 6.5q-49 -1 -68.5 -20.5t-30.5 -80.5l85 9q37 3 53 13.5t20 40.5zM243 130q52 3 114 84q0 20 3 41q9 78 32 131q-23 1 -68 1q-54 0 -75 -22t-33 -102q-7 -46 -9 -70t1 -39.5t11 -20t24 -3.5z" />
    <glyph glyph-name="uni04D6" unicode="&#x4d6;" horiz-adv-x="582" 
d="M359 736q-86 0 -127.5 50t-22.5 115h114q-11 -43 1.5 -61t45.5 -18q32 0 49.5 18t19.5 61h114q2 -65 -54 -115t-140 -50zM328 547q-27 0 -38.5 -10t-15.5 -36l-11 -82h259l-16 -128h-261l-14 -104q-4 -23 5.5 -33.5t34.5 -10.5h247l-4 -136q-84 -10 -320 -10
q-84 0 -124 48t-30 129l52 374q10 68 54 106.5t118 38.5q242 0 334 -12l-21 -134h-249z" />
    <glyph glyph-name="uni04D7" unicode="&#x4d7;" horiz-adv-x="576" 
d="M326 553q-86 0 -127.5 50t-22.5 115h114q-11 -43 1.5 -61t45.5 -18q32 0 49.5 18t19.5 61h114q2 -65 -54 -115t-140 -50zM323 511q141 0 193 -44.5t39 -134.5q-10 -67 -57.5 -94.5t-150.5 -35.5l-135 -10q1 -38 20 -50.5t64 -12.5q95 0 198 12l12 -113q-89 -40 -228 -40
q-154 0 -210 65.5t-41 201.5q17 149 85.5 202.5t210.5 53.5zM380 350q2 24 -10 31.5t-50 6.5q-47 -1 -66 -20.5t-31 -79.5l84 8q37 3 53.5 13.5t19.5 40.5z" />
    <glyph glyph-name="uni04D8" unicode="&#x4d8;" horiz-adv-x="633" 
d="M336 703q122 0 185 -36.5t79.5 -115t-1.5 -201.5q-15 -108 -42 -178t-71.5 -111t-101.5 -57t-141 -16q-136 0 -189 49t-36 166q16 119 76.5 165.5t186.5 46.5h127q3 45 -1.5 70t-22.5 38t-39.5 16t-64.5 3q-97 0 -175 -10l3 138q95 33 228 33zM271 139q54 0 80 32.5
t42 124.5h-100q-46 0 -68 -18t-29 -64q-5 -40 12 -57.5t63 -17.5z" />
    <glyph glyph-name="uni04D9" unicode="&#x4d9;" horiz-adv-x="584" 
d="M310 511q147 0 201 -62t36 -196q-21 -146 -90.5 -205.5t-216.5 -59.5q-131 0 -183 43t-40 132q9 72 54 104.5t142 32.5h145q-1 40 -20.5 54.5t-67.5 14.5q-87 0 -196 -11l-1 111q92 42 237 42zM252 111q48 -1 67.5 17t29.5 78h-99q-32 0 -43.5 -10.5t-15.5 -36.5
q-4 -28 9.5 -38t51.5 -10z" />
    <glyph glyph-name="uni04DA" unicode="&#x4da;" horiz-adv-x="633" 
d="M259 763q-34 0 -29 32l11 68q4 33 37 33h65q33 0 29 -31l-11 -71q-3 -31 -33 -31h-69zM442 763q-34 0 -29 32l10 69q6 32 36 32h66q34 0 30 -31l-11 -70q-4 -32 -34 -32h-68zM336 703q122 0 185 -36.5t79.5 -115t-1.5 -201.5q-15 -108 -42 -178t-71.5 -111t-101.5 -57
t-141 -16q-136 0 -189 49t-36 166q16 119 76.5 165.5t186.5 46.5h127q3 45 -1.5 70t-22.5 38t-39.5 16t-64.5 3q-97 0 -175 -10l3 138q95 33 228 33zM271 139q54 0 80 32.5t42 124.5h-100q-46 0 -68 -18t-29 -64q-5 -40 12 -57.5t63 -17.5z" />
    <glyph glyph-name="uni04DB" unicode="&#x4db;" horiz-adv-x="584" 
d="M219 577q-34 0 -29 32l11 68q4 33 37 33h65q33 0 29 -31l-11 -71q-3 -31 -33 -31h-69zM402 577q-34 0 -29 32l10 69q6 32 36 32h66q34 0 30 -31l-11 -70q-4 -32 -34 -32h-68zM310 511q147 0 201 -62t36 -196q-21 -146 -90.5 -205.5t-216.5 -59.5q-131 0 -183 43t-40 132
q9 72 54 104.5t142 32.5h145q-1 40 -20.5 54.5t-67.5 14.5q-87 0 -196 -11l-1 111q92 42 237 42zM252 111q48 -1 67.5 17t29.5 78h-99q-32 0 -43.5 -10.5t-15.5 -36.5q-4 -28 9.5 -38t51.5 -10z" />
    <glyph glyph-name="uni04DC" unicode="&#x4dc;" horiz-adv-x="946" 
d="M419 760q-32 0 -29 32l11 68q4 33 37 33h65q33 0 29 -31l-10 -71q-4 -31 -34 -31h-69zM602 760q-34 0 -29 32l10 69q6 32 36 32h67q33 0 29 -31l-11 -70q-4 -32 -34 -32h-68zM719 356q78 -11 101.5 -57t53.5 -217q10 -52 15 -82h-188q-7 43 -19 113q-19 121 -32.5 151.5
t-55.5 30.5h-33q2 -42 -3 -68l-32 -227h-180l33 234q5 31 16 61h-29q-47 0 -76 -45.5t-122 -249.5h-199q29 68 43.5 100.5t35 76.5t31 62t28 43t29.5 33.5t31 20t37.5 15.5t44.5 8l1 5q-29 6 -48.5 13.5t-34.5 23t-23.5 32t-17 50t-14 65.5t-14.5 90q-5 34 -8 52h186
q4 -28 12 -77q18 -121 32 -156.5t54 -35.5h43q-4 43 2 89l25 180h179l-27 -187q-7 -49 -17 -82h20q48 0 75 38.5t82 165.5q5 13 8.5 21t9 20.5t10.5 23.5h193q-12 -27 -29.5 -68.5t-25.5 -59.5t-21 -48t-20.5 -42t-19.5 -32t-21 -27t-22.5 -18.5t-27.5 -16t-31.5 -9.5
t-38.5 -8z" />
    <glyph glyph-name="uni04DD" unicode="&#x4dd;" horiz-adv-x="826" 
d="M332 577q-32 0 -29 32l11 68q4 33 37 33h65q33 0 29 -31l-10 -71q-4 -31 -34 -31h-69zM515 577q-34 0 -29 32l10 69q6 32 36 32h67q33 0 29 -31l-11 -70q-4 -32 -34 -32h-68zM616 256q25 -5 38 -9t28 -9.5t23 -18.5t16.5 -27t16.5 -45t15.5 -61t19.5 -86h-173
q-33 150 -42 171q-12 26 -38 28q-6 1 -16 1h-28q3 -24 0 -45l-20 -155h-159l22 157q4 25 11 43h-19q-24 0 -36 -3.5t-30.5 -26t-36 -57.5t-54.5 -113h-184q79 162 94 186q29 45 69 58q22 7 72 14l1 5q-77 11 -96 40t-45 169q-3 16 -5 25h173q22 -127 33.5 -154t50.5 -27h30
q-3 28 2 66l16 115h159l-18 -119q-6 -36 -14 -62h15q43 0 64 27.5t79 153.5h182q-73 -149 -94 -179q-30 -42 -75 -52q-18 -3 -46 -5z" />
    <glyph glyph-name="uni04DE" unicode="&#x4de;" horiz-adv-x="574" 
d="M282 893q33 0 29 -31l-10 -71q-4 -31 -34 -31h-69q-32 0 -29 32l11 68q4 33 37 33h65zM465 893q33 0 29 -31l-11 -70q-4 -32 -34 -32h-68q-34 0 -29 32l10 69q6 32 36 32h67zM320 698q137 0 189.5 -40.5t37.5 -146.5q-10 -74 -41 -109.5t-98 -41.5l-1 -5
q138 -13 113 -190q-14 -100 -68.5 -136.5t-178.5 -36.5q-162 0 -282 35l21 123q124 -20 221 -20q51 0 72.5 18t28.5 68q7 48 -7.5 64t-60.5 16h-143l16 123h134q46 0 63.5 16.5t23.5 63.5q5 38 -8.5 49.5t-56.5 11.5q-87 0 -202 -14l-8 131q101 21 235 21z" />
    <glyph glyph-name="uni04DF" unicode="&#x4df;" horiz-adv-x="524" 
d="M249 712q33 0 29 -31l-10 -71q-4 -31 -34 -31h-69q-32 0 -29 32l11 68q4 33 37 33h65zM432 712q33 0 29 -31l-11 -70q-4 -32 -34 -32h-68q-34 0 -29 32l10 69q6 32 36 32h67zM256 510q137 0 189.5 -28.5t40.5 -114.5q-6 -51 -33.5 -77.5t-89.5 -31.5l-1 -5
q126 -9 108 -136q-12 -82 -64.5 -106t-175.5 -24q-143 0 -241 23l18 119q104 -11 202 -11q48 0 64 7.5t18 34.5q4 23 -8.5 30.5t-46.5 7.5l-159 2l13 104l151 1q33 0 47.5 9t19.5 30q2 22 -9 27.5t-56 5.5q-72 0 -180 -10l-6 121q84 22 199 22z" />
    <glyph glyph-name="uni04E0" unicode="&#x4e0;" horiz-adv-x="551" 
d="M533 690q7 0 11.5 -5t3.5 -12l-14 -101l-244 -183h31q111 0 160 -40t33 -148q-16 -115 -79.5 -164t-205.5 -49q-128 0 -243 20l26 133q131 -8 194 -8q66 0 91.5 17t32.5 67q7 49 -8.5 66.5t-70.5 17.5h-143l12 86l219 169h-259l19 134h434z" />
    <glyph glyph-name="uni04E1" unicode="&#x4e1;" horiz-adv-x="505" 
d="M472 497q7 0 11.5 -5t3.5 -12l-15 -101l-227 -179h33q100 0 144.5 -41t28.5 -151q-16 -115 -76 -164t-191 -49q-122 0 -231 20l25 133q130 -8 178 -8q59 0 82 17t30 67q6 44 -7.5 60t-59.5 16h-134l14 98l195 165h-229l18 134h407z" />
    <glyph glyph-name="uni04E2" unicode="&#x4e2;" horiz-adv-x="724" 
d="M592 884l-15 -110h-311l16 110h310zM716 690l-97 -690h-178l50 348q9 59 27 114h-7q-36 -74 -54 -99l-249 -363h-186l97 690h181l-48 -337q-6 -47 -30 -123h8q25 58 57 104l247 356h182z" />
    <glyph glyph-name="uni04E3" unicode="&#x4e3;" horiz-adv-x="606" 
d="M514 699l-15 -110h-311l16 110h310zM401 497h180l-69 -497h-142l-1 89q-107 -103 -209 -103q-74 0 -108.5 37.5t-24.5 104.5l51 369h183l-46 -318q-3 -22 4.5 -31t24.5 -9q26 0 51 12.5t64 42.5z" />
    <glyph glyph-name="uni04E4" unicode="&#x4e4;" horiz-adv-x="724" 
d="M380 895q33 0 29 -31l-10 -71q-4 -31 -34 -31h-69q-32 0 -29 32l11 68q4 33 37 33h65zM563 895q33 0 29 -31l-11 -70q-4 -32 -34 -32h-68q-34 0 -29 32l10 69q6 32 36 32h67zM716 690l-97 -690h-178l50 348q9 59 27 114h-7q-36 -74 -54 -99l-249 -363h-186l97 690h181
l-48 -337q-6 -47 -30 -123h8q25 58 57 104l247 356h182z" />
    <glyph glyph-name="uni04E5" unicode="&#x4e5;" horiz-adv-x="606" 
d="M218 577q-32 0 -29 32l11 68q4 33 37 33h65q33 0 29 -31l-10 -71q-4 -31 -34 -31h-69zM401 577q-34 0 -29 32l10 69q6 32 36 32h67q33 0 29 -31l-11 -70q-4 -32 -34 -32h-68zM401 497h180l-69 -497h-142l-1 89q-107 -103 -209 -103q-74 0 -108.5 37.5t-24.5 104.5l51 369
h183l-46 -318q-3 -22 4.5 -31t24.5 -9q26 0 51 12.5t64 42.5z" />
    <glyph glyph-name="uni04E6" unicode="&#x4e6;" horiz-adv-x="691" 
d="M361 893q33 0 29 -31l-10 -71q-4 -31 -34 -31h-69q-32 0 -29 32l11 68q4 33 37 33h65zM544 893q33 0 29 -31l-11 -70q-4 -32 -34 -32h-68q-34 0 -29 32l10 69q6 32 36 32h67zM388 704q170 0 235 -80.5t37 -285.5q-14 -105 -39.5 -173t-68 -108t-98 -55.5t-138.5 -15.5
q-173 0 -235 79.5t-34 286.5q28 203 103 277.5t238 74.5zM385 560q-66 0 -93.5 -43.5t-48.5 -178.5q-18 -126 -2.5 -167t79.5 -41q67 0 95 43.5t48 178.5q18 128 2.5 168t-80.5 40z" />
    <glyph glyph-name="uni04E7" unicode="&#x4e7;" horiz-adv-x="603" 
d="M295 710q33 0 29 -31l-10 -71q-4 -31 -34 -31h-69q-32 0 -29 32l11 68q4 33 37 33h65zM478 710q33 0 29 -31l-11 -70q-4 -32 -34 -32h-68q-34 0 -29 32l10 69q6 32 36 32h67zM322 511q146 0 204 -62.5t37 -207.5q-19 -140 -84.5 -196.5t-208.5 -56.5q-145 0 -204 62
t-39 205q20 142 85.5 199t209.5 57zM319 383q-49 0 -69 -27.5t-33 -114.5q-12 -77 -0.5 -101.5t59.5 -24.5t67.5 27.5t32.5 112.5q11 78 0 103t-57 25z" />
    <glyph glyph-name="uni04E8" unicode="&#x4e8;" horiz-adv-x="691" 
d="M388 704q170 0 235 -80.5t37 -285.5q-14 -105 -39.5 -173t-68 -108t-98 -55.5t-138.5 -15.5q-173 0 -235 79.5t-34 286.5q28 203 103 277.5t238 74.5zM385 560q-59 0 -86 -32.5t-46 -128.5h216q11 96 -7 128.5t-77 32.5zM320 130q60 0 87.5 33.5t45.5 130.5h-216
q-11 -97 6.5 -130.5t76.5 -33.5z" />
    <glyph glyph-name="uni04E9" unicode="&#x4e9;" horiz-adv-x="600" 
d="M322 511q146 0 204 -62.5t37 -207.5q-20 -140 -85.5 -196.5t-207.5 -56.5q-145 0 -204.5 62t-38.5 205q20 142 85 199t210 57zM319 383q-42 0 -62 -18.5t-32 -71.5h155q5 53 -8 71.5t-53 18.5zM276 115q42 0 61.5 21t31.5 81h-156q-7 -62 5.5 -82t57.5 -20z" />
    <glyph glyph-name="uni04EA" unicode="&#x4ea;" horiz-adv-x="691" 
d="M302 762q-34 0 -29 32l11 68q4 33 37 33h65q33 0 29 -31l-11 -71q-3 -31 -33 -31h-69zM485 762q-34 0 -29 32l10 69q6 32 36 32h66q34 0 30 -31l-11 -70q-4 -32 -34 -32h-68zM388 704q170 0 235 -80.5t37 -285.5q-14 -105 -39.5 -173t-68 -108t-98 -55.5t-138.5 -15.5
q-173 0 -235 79.5t-34 286.5q28 203 103 277.5t238 74.5zM385 560q-59 0 -86 -32.5t-46 -128.5h216q11 96 -7 128.5t-77 32.5zM320 130q60 0 87.5 33.5t45.5 130.5h-216q-11 -97 6.5 -130.5t76.5 -33.5z" />
    <glyph glyph-name="uni04EB" unicode="&#x4eb;" horiz-adv-x="600" 
d="M220 577q-34 0 -29 32l11 68q4 33 37 33h65q33 0 29 -31l-11 -71q-3 -31 -33 -31h-69zM403 577q-34 0 -29 32l10 69q6 32 36 32h66q34 0 30 -31l-11 -70q-4 -32 -34 -32h-68zM322 511q146 0 204 -62.5t37 -207.5q-20 -140 -85.5 -196.5t-207.5 -56.5q-145 0 -204.5 62
t-38.5 205q20 142 85 199t210 57zM319 383q-42 0 -62 -18.5t-32 -71.5h155q5 53 -8 71.5t-53 18.5zM276 115q42 0 61.5 21t31.5 81h-156q-7 -62 5.5 -82t57.5 -20z" />
    <glyph glyph-name="uni04EC" unicode="&#x4ec;" horiz-adv-x="596" 
d="M209 760q-32 0 -29 32l11 68q4 33 37 33h65q33 0 29 -31l-10 -71q-4 -31 -34 -31h-69zM392 760q-34 0 -29 32l10 69q6 32 36 32h67q33 0 29 -31l-11 -70q-4 -32 -34 -32h-68zM293 702q171 0 234.5 -82.5t36.5 -281.5q-26 -194 -101 -271t-236 -79q-142 -1 -233 32l23 137
q82 -10 203 -9q66 1 95.5 31t46.5 113h-271l14 127h276q6 75 -14.5 99t-77.5 24q-100 0 -201 -3l-6 138q93 25 211 25z" />
    <glyph glyph-name="uni04ED" unicode="&#x4ed;" horiz-adv-x="548" 
d="M170 577q-32 0 -29 32l11 68q4 33 37 33h65q33 0 29 -31l-10 -71q-4 -31 -34 -31h-69zM353 577q-34 0 -29 32l10 69q6 32 36 32h67q33 0 29 -31l-11 -70q-4 -32 -34 -32h-68zM264 509q145 0 202 -61.5t41 -208.5q-16 -146 -84.5 -199.5t-218.5 -52.5q-129 0 -212 32
l19 112q42 -2 172 -5q72 -1 98 12t36 60h-247l13 108h247q1 42 -16 54t-68 12q-31 0 -90.5 -0.5t-95.5 -1.5l-8 112q86 27 212 27z" />
    <glyph glyph-name="uni04EE" unicode="&#x4ee;" horiz-adv-x="608" 
d="M536 884l-15 -110h-311l16 110h310zM467 690h198l-229 -510q-43 -97 -86.5 -141.5t-114.5 -50.5q-69 -7 -196 15l28 129q91 -3 123 4t52 42l8 16h-32q-78 0 -90 86l-75 410h188l43 -345q1 -15 15 -15h17z" />
    <glyph glyph-name="uni04EF" unicode="&#x4ef;" 
d="M501 699l-15 -110h-311l16 110h310zM410 497h193q-27 -142 -61 -244.5t-103 -220.5q-23 -42 -46.5 -75.5t-55 -66.5t-66 -54t-78 -37t-92 -15t-108.5 11l13 120q136 -22 224 85h-65q-25 0 -42 14.5t-20 37.5l-70 445h198l24 -367q2 -16 17 -16h29q71 135 109 383z" />
    <glyph glyph-name="uni04F0" unicode="&#x4f0;" horiz-adv-x="608" 
d="M240 762q-32 0 -29 32l11 68q4 33 37 33h65q33 0 29 -31l-10 -71q-4 -31 -34 -31h-69zM423 762q-34 0 -29 32l10 69q6 32 36 32h67q33 0 29 -31l-11 -70q-4 -32 -34 -32h-68zM467 690h198l-229 -510q-43 -97 -86.5 -141.5t-114.5 -50.5q-69 -7 -196 15l28 129
q91 -3 123 4t52 42l8 16h-32q-78 0 -90 86l-75 410h188l43 -345q1 -15 15 -15h17z" />
    <glyph glyph-name="uni04F1" unicode="&#x4f1;" 
d="M205 577q-32 0 -29 32l11 68q4 33 37 33h65q33 0 29 -31l-10 -71q-4 -31 -34 -31h-69zM388 577q-34 0 -29 32l10 69q6 32 36 32h67q33 0 29 -31l-11 -70q-4 -32 -34 -32h-68zM410 497h193q-27 -142 -61 -244.5t-103 -220.5q-23 -42 -46.5 -75.5t-55 -66.5t-66 -54
t-78 -37t-92 -15t-108.5 11l13 120q136 -22 224 85h-65q-25 0 -42 14.5t-20 37.5l-70 445h198l24 -367q2 -16 17 -16h29q71 135 109 383z" />
    <glyph glyph-name="uni04F2" unicode="&#x4f2;" horiz-adv-x="608" 
d="M431 882l-177 -161l-73 47l145 188zM457 721l-73 47l145 188l106 -74zM467 690h198l-229 -510q-43 -97 -86.5 -141.5t-114.5 -50.5q-69 -7 -196 15l28 129q91 -3 123 4t52 42l8 16h-32q-78 0 -90 86l-75 410h188l43 -345q1 -15 15 -15h17z" />
    <glyph glyph-name="uni04F3" unicode="&#x4f3;" 
d="M396 697l-177 -161l-73 47l145 188zM422 536l-73 47l145 188l106 -74zM410 497h193q-27 -142 -61 -244.5t-103 -220.5q-23 -42 -46.5 -75.5t-55 -66.5t-66 -54t-78 -37t-92 -15t-108.5 11l13 120q136 -22 224 85h-65q-25 0 -42 14.5t-20 37.5l-70 445h198l24 -367
q2 -16 17 -16h29q71 135 109 383z" />
    <glyph glyph-name="uni04F4" unicode="&#x4f4;" horiz-adv-x="673" 
d="M272 762q-32 0 -29 32l11 68q4 33 37 33h65q33 0 29 -31l-10 -71q-4 -31 -34 -31h-69zM455 762q-34 0 -29 32l10 69q6 32 36 32h67q33 0 29 -31l-11 -70q-4 -32 -34 -32h-68zM478 690h188l-97 -690h-188l38 273q-106 -49 -193 -49q-99 0 -141 44t-30 134l40 288h189
l-36 -255q-6 -33 7 -44.5t47 -11.5q68 0 137 31z" />
    <glyph glyph-name="uni04F5" unicode="&#x4f5;" horiz-adv-x="588" 
d="M204 577q-32 0 -29 32l11 68q4 33 37 33h65q33 0 29 -31l-10 -71q-4 -31 -34 -31h-69zM387 577q-34 0 -29 32l10 69q6 32 36 32h67q33 0 29 -31l-11 -70q-4 -32 -34 -32h-68zM381 497h182l-70 -497h-181l24 175q-69 -28 -146 -28q-90 0 -128.5 32.5t-28.5 107.5l32 210
h181l-24 -178q-4 -22 3.5 -30.5t31.5 -8.5q45 0 97 22z" />
    </font>
</defs>
</svg>
