<?xml version="1.0" standalone="no"?>
<!DOCTYPE svg PUBLIC "-//W3C//DTD SVG 1.1//EN" "http://www.w3.org/Graphics/SVG/1.1/DTD/svg11.dtd" >
<svg xmlns="http://www.w3.org/2000/svg" xmlns:xlink="http://www.w3.org/1999/xlink" version="1.1">
<metadata>
Created by FontForge 20170731 at Wed Dec 13 19:43:00 2017
 By Aleksey,,,
Copyright (c) 2013, Natanael Gama (www.ndiscovered.com . info(at)ndiscovered.com), with Reserved Font Name Exo. This Font Software is licensed under the SIL Open Font License, Version 1.1.
</metadata>
<defs>
<font id="Exo2-ExtraLight" horiz-adv-x="664" >
  <font-face 
    font-family="Exo 2 Extra Light"
    font-weight="250"
    font-stretch="normal"
    units-per-em="1000"
    panose-1="0 0 3 0 0 0 0 0 0 0"
    ascent="800"
    descent="-200"
    x-height="482"
    cap-height="690"
    bbox="-517.099 -263 1189 1012"
    underline-thickness="50"
    underline-position="-200"
    unicode-range="U+0020-FB02"
  />
<missing-glyph horiz-adv-x="648" 
d="M539 690v-690h-430v690h430zM498 41v608h-348v-608h348z" />
    <glyph glyph-name="fi" unicode="fi" horiz-adv-x="563" 
d="M469 482v-482h-39v447h-270v-447h-40v447h-87v30l87 5v95q0 70 30.5 104t99.5 34q64 0 102 -5v-30h-89q-57 0 -80 -23.5t-23 -82.5v-92h309zM458 683q16 0 16 -16v-60q0 -16 -16 -16h-18q-15 0 -15 16v60q0 16 15 16h18z" />
    <glyph glyph-name="fl" unicode="fl" horiz-adv-x="629" 
d="M614 27l5 -26q-24 -8 -70 -8q-49 0 -77.5 27.5t-28.5 77.5v583h-180q-57 1 -80 -23.5t-23 -83.5v-92h163v-35h-163v-447h-40v447h-87v30l87 5v95q0 70 30 104t100 34q164 0 233 -8v-604q0 -76 76 -76h55z" />
    <glyph glyph-name="f_f" unicode="ff" horiz-adv-x="672" 
d="M574 680q-57 0 -80 -23t-23 -80v-95h172v-34h-172v-448h-40v448h-271v-448h-40v448h-87v29l87 5v79q0 68 31 102t99 34q62 0 119 -5l-2 -30h-104q-57 0 -80 -23t-23 -80v-77h271v97q0 69 30 102.5t100 33.5q78 0 122 -5l-1 -30h-108z" />
    <glyph glyph-name="f_f_i" unicode="ffi" horiz-adv-x="872" 
d="M778 482v-482h-40v447h-269v-447h-40v447l-271 1v-448h-39v448h-86v29l86 5v79q0 69 30.5 102.5t98.5 33.5q62 0 119 -5l-2 -30h-103q-57 0 -80.5 -23t-23.5 -80v-77h271v95q0 70 30.5 104t99.5 34q75 0 118 -5v-30h-105q-57 0 -80 -23.5t-23 -82.5v-92h309zM767 683
q16 0 16 -16v-60q0 -16 -16 -16h-18q-15 0 -15 16v60q0 16 15 16h18z" />
    <glyph glyph-name="f_f_l" unicode="ffl" horiz-adv-x="940" 
d="M925 27l5 -26q-24 -8 -71 -8q-49 0 -77 27.5t-28 77.5v583h-180q-57 1 -80 -23.5t-23 -83.5v-92h170v-34h-170v-448h-40v448h-271v-448h-40v448h-87v29l87 5v79q0 68 31 102t99 34q62 0 119 -5l-2 -30h-104q-57 0 -80 -23t-23 -80v-77h271v95q0 70 30 104t100 34
q164 0 233 -8v-604q0 -76 76 -76h55z" />
    <glyph glyph-name=".notdef" horiz-adv-x="648" 
d="M539 690v-690h-430v690h430zM498 41v608h-348v-608h348z" />
    <glyph glyph-name=".null" horiz-adv-x="0" 
 />
    <glyph glyph-name="nonmarkingreturn" horiz-adv-x="333" 
 />
    <glyph glyph-name="space" unicode=" " horiz-adv-x="228" 
 />
    <glyph glyph-name="exclam" unicode="!" horiz-adv-x="258" 
d="M149 695v-332l-3 -158h-33l-4 158v332h40zM136 94q17 0 17 -17v-60q0 -17 -17 -17h-13q-17 0 -17 17v60q0 17 17 17h13z" />
    <glyph glyph-name="quotedbl" unicode="&#x22;" horiz-adv-x="334" 
d="M119 690l-3 -210h-30l-3 210h36zM250 690l-2 -210h-30l-3 210h35z" />
    <glyph glyph-name="numbersign" unicode="#" horiz-adv-x="672" 
d="M610 464h-109l-37 -209h109l-5 -31h-109l-39 -224h-36l39 224h-215l-39 -224h-36l39 224h-116l6 31h115l37 209h-116l6 31h115l34 195h36l-34 -195h215l34 195h36l-34 -195h109zM428 255l37 209h-215l-37 -209h215z" />
    <glyph glyph-name="dollar" unicode="$" horiz-adv-x="560" 
d="M360 355q77 -11 108.5 -53.5t31.5 -130.5q0 -60 -13 -97t-43 -55.5t-65.5 -24t-94.5 -5.5h-8l-7 -122h-28l7 122q-86 2 -171 13l4 31q107 -6 170 -6l18 304l-68 11q-72 11 -103.5 54t-31.5 127q0 61 12 97.5t41.5 54t64 22.5t94.5 4h14l6 102h27l-6 -103q81 -3 151 -13
l-4 -30q-22 1 -72 3.5t-77 3.5l-17 -299zM107 522q0 -70 23.5 -101.5t80.5 -40.5l61 -10l18 294h-11q-37 0 -55.5 -1t-42 -5t-34.5 -13t-22 -24.5t-14.5 -39.5t-3.5 -59zM285 27q100 1 136.5 27.5t36.5 116.5q0 75 -24 106t-83 40l-55 9l-18 -299h7z" />
    <glyph glyph-name="percent" unicode="%" horiz-adv-x="886" 
d="M210 702q84 0 118.5 -48t34.5 -156t-34.5 -156t-118.5 -48t-118.5 48t-34.5 156t34.5 156t118.5 48zM694 690l-472 -690h-33l471 690h34zM210 674q-66 0 -92.5 -40.5t-26.5 -135.5t26.5 -135.5t92.5 -40.5t92.5 40.5t26.5 135.5t-26.5 135.5t-92.5 40.5zM676 401
q83 0 117.5 -48t34.5 -156q0 -109 -34.5 -157t-117.5 -48q-84 0 -118.5 48t-34.5 157q0 108 34.5 156t118.5 48zM675 373q-66 0 -92 -40.5t-26 -135.5t26 -136t92 -41t92.5 41t26.5 136t-26.5 135.5t-92.5 40.5z" />
    <glyph glyph-name="ampersand" unicode="&#x26;" horiz-adv-x="780" 
d="M721 29l5 -28q-45 -8 -91 -8q-108 0 -113 98q-47 -54 -104.5 -77t-141.5 -23q-109 0 -154 40t-45 143q0 84 31 130t105 52v4q-62 5 -89 45t-27 116q0 59 14 95t49 54t78 23.5t117 5.5q89 0 159 -9l-6 -30q-31 3 -155 3q-126 0 -170 -27t-44 -119q0 -84 35.5 -113.5
t129.5 -29.5h218l7 149h32v-149h137l-3 -33h-134v-236q0 -76 76 -76h84zM280 28q85 0 141.5 25.5t100.5 80.5v207h-219q-102 0 -142.5 -34.5t-40.5 -128.5q0 -85 35 -117.5t125 -32.5z" />
    <glyph glyph-name="quotesingle" unicode="'" horiz-adv-x="202" 
d="M119 690l-3 -210h-30l-3 210h36z" />
    <glyph glyph-name="parenleft" unicode="(" horiz-adv-x="356" 
d="M309 790l6 -24q-108 -55 -158.5 -165t-50.5 -288q0 -175 50.5 -285.5t158.5 -168.5l-6 -24q-126 56 -185 172t-59 305q0 191 59 307t185 171z" />
    <glyph glyph-name="parenright" unicode=")" horiz-adv-x="356" 
d="M47 790q126 -55 185 -171t59 -307q0 -189 -59 -305t-185 -172l-5 24q107 58 157.5 168.5t50.5 285.5q0 177 -50.5 287.5t-157.5 165.5z" />
    <glyph glyph-name="asterisk" unicode="*" horiz-adv-x="452" 
d="M242 690l-6 -155l96 -129l-24 -17l-82 124l-82 -123l-25 17l96 128l-4 155h31zM78 594l121 -44l-1 -13l-6 -9l-125 37zM376 593l10 -29l-127 -36l-6 9v13z" />
    <glyph glyph-name="plus" unicode="+" horiz-adv-x="552" 
d="M487 314v-33h-195v-184h-32v184h-195v33h194v184h34v-184h194z" />
    <glyph glyph-name="comma" unicode="," horiz-adv-x="213" 
d="M114 94q17 0 17 -17v-64q-2 -72 -23 -134l-19 7q5 50 5 114q-5 0 -8.5 4.5t-2.5 10.5l1 62q-1 17 17 17h13z" />
    <glyph glyph-name="hyphen" unicode="-" horiz-adv-x="474" 
d="M392 268v-33h-310v33h310z" />
    <glyph glyph-name="period" unicode="." horiz-adv-x="212" 
d="M113 94q17 0 17 -17v-60q0 -17 -17 -17h-14q-18 0 -18 17v60q0 17 18 17h14z" />
    <glyph glyph-name="slash" unicode="/" horiz-adv-x="500" 
d="M465 690l-393 -751h-37l393 751h37z" />
    <glyph glyph-name="zero" unicode="0" horiz-adv-x="589" 
d="M294 702q122 0 171.5 -84.5t49.5 -272.5t-49.5 -272.5t-171.5 -84.5q-121 0 -170.5 84.5t-49.5 272.5t49.5 272.5t170.5 84.5zM294 665q-99 0 -139 -75t-40 -245t40 -245t139 -75t139.5 75t40.5 245t-40.5 245t-139.5 75z" />
    <glyph glyph-name="one" unicode="1" horiz-adv-x="383" 
d="M260 690v-690h-41v600q0 25 3 49l-182 -60l-7 29l186 72h41z" />
    <glyph glyph-name="two" unicode="2" horiz-adv-x="558" 
d="M266 702q106 0 155 -28.5t49 -112.5q0 -66 -31 -124.5t-104 -143.5l-223 -256q38 1 117 1h270v-38h-439v25q0 12 7 20l230 264q71 80 101.5 139.5t28.5 117.5q-3 61 -41 80t-118 19q-91 0 -196 -21l-6 31q112 27 200 27z" />
    <glyph glyph-name="three" unicode="3" horiz-adv-x="553" 
d="M250 702q115 0 161.5 -34.5t46.5 -124.5q0 -152 -107 -174v-4q123 -20 126 -173q2 -105 -46.5 -154.5t-163.5 -49.5q-83 0 -208 17l6 32q120 -12 195 -12q94 0 135 38.5t41 130.5q0 71 -34.5 112t-128.5 42l-128 1v31l128 2q47 1 78 15.5t44.5 39.5t18 47.5t4.5 52.5
q-2 76 -38 102t-133 26q-89 0 -171 -11l-7 31q99 17 181 17z" />
    <glyph glyph-name="four" unicode="4" horiz-adv-x="600" 
d="M548 224v-30l-84 -4v-190h-40v189h-317q-34 0 -50.5 27.5t-0.5 58.5l216 415h42l-218 -419q-9 -19 -0.5 -33t28.5 -14h300v219l9 116h31v-335h84z" />
    <glyph glyph-name="five" unicode="5" horiz-adv-x="529" 
d="M444 690l-4 -36h-304l-11 -245l60 -1q79 -2 127 -10.5t85 -30.5t52 -61t15 -102q0 -37 -4 -65t-17 -58t-35.5 -49t-62.5 -31.5t-95 -12.5q-84 0 -188 27l7 32q100 -23 174 -23q107 0 143.5 44.5t37.5 135.5q0 34 -5.5 59t-15 43t-29.5 30t-39.5 19.5t-55 11t-67 5
t-84.5 1.5l-23 1q-20 2 -18 21l15 295h342z" />
    <glyph glyph-name="six" unicode="6" horiz-adv-x="566" 
d="M315 443q107 0 147 -51t40 -182q0 -57 -7.5 -93.5t-28.5 -68t-63 -46t-108 -14.5q-70 0 -112.5 15.5t-66 56.5t-31.5 97.5t-8 151.5q0 103 9.5 172.5t27.5 113.5t51 67.5t71.5 31.5t97.5 8q74 0 124 -13l-8 -30q-39 7 -116 7q-83 0 -125.5 -22t-65 -90t-24.5 -203
q43 52 86.5 72t109.5 20zM296 24q53 0 87 12t51 38.5t22.5 57.5t5.5 81q0 109 -32 152.5t-123 43.5q-55 0 -97 -19t-91 -71v-13q0 -56 2 -92.5t8.5 -71t18.5 -54.5t31.5 -36t48 -22t68.5 -6z" />
    <glyph glyph-name="seven" unicode="7" horiz-adv-x="507" 
d="M426 690q50 0 34 -46l-223 -644h-41l212 613l15 41h-375l-2 36h380z" />
    <glyph glyph-name="eight" unicode="8" horiz-adv-x="610" 
d="M305 699q122 0 166 -41.5t44 -139.5q0 -147 -99 -158v-4q62 -7 87.5 -51t25.5 -133q0 -101 -46 -141t-178 -40q-130 0 -177 40.5t-47 140.5q0 89 25.5 133t87.5 51v4q-99 11 -99 158q0 97 45 139t165 42zM306 663q-102 0 -136.5 -31.5t-34.5 -115.5q0 -89 33 -115
t139 -26t137.5 26t31.5 115q0 84 -34 115.5t-136 31.5zM307 341q-60 0 -93.5 -6t-56 -24.5t-29.5 -49t-7 -84.5q0 -83 38 -115.5t147 -32.5t146 32t37 116q0 105 -34.5 134.5t-147.5 29.5z" />
    <glyph glyph-name="nine" unicode="9" horiz-adv-x="567" 
d="M272 702q50 0 84 -6.5t58.5 -25.5t38 -42.5t21.5 -67t10 -88.5t2 -118q0 -118 -13.5 -190t-47 -111t-78 -52t-118.5 -13q-76 0 -131 13l8 30q52 -6 123 -6q63 0 100 11t65 45t39 96t12 164q-43 -53 -86.5 -73.5t-109.5 -20.5q-100 0 -142.5 56.5t-42.5 168.5
q0 117 45.5 173.5t162.5 56.5zM257 281q55 0 97 19.5t91 71.5q0 63 -1.5 99.5t-7.5 74t-17 57t-30.5 36t-48 22t-69.5 5.5q-97 0 -132 -48t-35 -148q0 -96 34 -142.5t119 -46.5z" />
    <glyph glyph-name="colon" unicode=":" horiz-adv-x="214" 
d="M113 432q17 0 17 -17v-60q0 -17 -17 -17h-14q-18 0 -18 17v60q0 17 18 17h14zM113 94q17 0 17 -17v-60q0 -17 -17 -17h-14q-18 0 -18 17v60q0 17 18 17h14z" />
    <glyph glyph-name="semicolon" unicode=";" horiz-adv-x="216" 
d="M114 432q17 0 17 -17v-60q0 -17 -17 -17h-14q-18 0 -18 17v60q0 17 18 17h14zM115 94q17 0 17 -17v-64q-2 -72 -23 -134l-19 7q5 50 5 114q-5 0 -8.5 4.5t-2.5 10.5l1 62q-1 17 17 17h13z" />
    <glyph glyph-name="less" unicode="&#x3c;" horiz-adv-x="538" 
d="M458 493v-34l-359 -163l359 -159v-34l-396 176v34z" />
    <glyph glyph-name="equal" unicode="=" horiz-adv-x="588" 
d="M505 413v-33h-422v33h422zM505 201v-33h-422v33h422z" />
    <glyph glyph-name="greater" unicode="&#x3e;" horiz-adv-x="538" 
d="M80 493l396 -180v-34l-396 -176v34l359 159l-359 163v34z" />
    <glyph glyph-name="question" unicode="?" horiz-adv-x="506" 
d="M255 712q197 0 197 -155q0 -42 -19 -77.5t-46.5 -62.5t-55 -55t-47 -68t-20.5 -89h-36q0 53 18.5 96t45.5 71.5t54 54.5t46 57.5t19 68.5q0 64 -39 94t-122 30q-89 0 -198 -13l-5 29q7 1 29.5 5t29.5 5t26.5 3.5t34 3t37.5 1.5t51 1zM252 94q17 0 17 -17v-60
q0 -17 -17 -17h-13q-17 0 -17 17v60q0 17 17 17h13z" />
    <glyph glyph-name="at" unicode="@" horiz-adv-x="699" 
d="M482 572q136 0 136 -124v-318h-29l-6 79q-35 -31 -98.5 -58t-124.5 -27q-59 0 -92.5 28.5t-33.5 80.5v53q0 47 30 73t85 26h232v62q0 43 -23.5 67t-80.5 23h-135q-53 0 -82 -2t-57 -12t-39.5 -25t-21.5 -48.5t-12 -74.5t-2 -110q0 -71 2 -113t13 -76.5t23.5 -50t44 -26
t64 -12.5t93.5 -2h245v-31q-162 -4 -244 -4q-68 -1 -109 2t-75 16t-50.5 31.5t-28 58t-14.5 85t-3 122.5q0 73 2.5 117t13 82t25 56t45.5 31t68 16.5t98 4.5h141zM581 359l-225 -4q-83 -3 -83 -72v-46q0 -77 90 -79q52 -1 114.5 22.5t103.5 57.5v121z" />
    <glyph glyph-name="A" unicode="A" horiz-adv-x="608" 
d="M548 0l-85 243h-318l-85 -243h-43l241 677q5 13 18 13h56q13 0 18 -13l241 -677h-43zM158 279h292l-112 321l-20 56h-28l-20 -56z" />
    <glyph glyph-name="B" unicode="B" horiz-adv-x="614" 
d="M408 356q74 -7 105.5 -52.5t31.5 -131.5q0 -104 -47 -142t-167 -38q-149 0 -232 8v690q73 8 202 8q126 0 175 -38t49 -142q0 -75 -28 -113.5t-89 -44.5v-4zM483 515q0 88 -39.5 117.5t-143.5 29.5q-90 0 -160 -2v-286h178q94 1 129.5 29.5t35.5 111.5zM327 28
q100 0 138 30t38 118q0 95 -40.5 129t-144.5 36h-178v-311q78 -2 187 -2z" />
    <glyph glyph-name="C" unicode="C" horiz-adv-x="563" 
d="M331 702q105 0 178 -18l-7 -30q-78 11 -171 11q-121 0 -168.5 -70.5t-47.5 -249.5t47.5 -249.5t168.5 -70.5q108 0 185 13l7 -31q-79 -19 -192 -19q-143 0 -201 80t-58 277t58 277t201 80z" />
    <glyph glyph-name="D" unicode="D" horiz-adv-x="660" 
d="M332 699q142 0 199 -79t57 -275t-57 -275t-199 -79q-111 0 -233 9v690q121 9 233 9zM332 28q119 0 166 70t47 247t-47 247t-166 70q-21 0 -192 -3v-628q168 -3 192 -3z" />
    <glyph glyph-name="E" unicode="E" horiz-adv-x="553" 
d="M210 35h285l2 -31q-96 -4 -294 -4q-49 0 -79.5 29.5t-30.5 76.5v478q0 47 30.5 76.5t79.5 29.5q198 0 294 -4l-2 -31h-285q-34 0 -55 -21.5t-21 -56.5v-191l320 -1v-33l-320 -1v-238q0 -35 21 -56.5t55 -21.5z" />
    <glyph glyph-name="F" unicode="F" horiz-adv-x="532" 
d="M215 655q-35 0 -56.5 -21.5t-21.5 -56.5v-197h313v-34h-313v-346h-41v583q0 48 30.5 77.5t79.5 29.5q193 0 287 -5l-3 -30h-275z" />
    <glyph glyph-name="G" unicode="G" horiz-adv-x="624" 
d="M505 400h41v-400h-29l-8 84q-89 -96 -211 -96q-121 0 -173.5 84.5t-52.5 273.5q0 198 59 277t207 79q113 0 195 -18l-7 -30q-87 11 -187 11q-125 0 -174 -69t-49 -252q0 -171 43 -245t146 -74q42 0 82 15.5t62 31.5t56 45v283z" />
    <glyph glyph-name="H" unicode="H" horiz-adv-x="660" 
d="M520 690h41v-690h-41v352h-380v-352h-41v690h41v-302h380v302z" />
    <glyph glyph-name="I" unicode="I" horiz-adv-x="239" 
d="M140 690v-690h-41v690h41z" />
    <glyph glyph-name="J" unicode="J" horiz-adv-x="328" 
d="M232 690v-567q0 -65 -31.5 -98t-93.5 -32q-33 0 -71 8l5 28h56q94 0 94 94v567h41z" />
    <glyph glyph-name="K" unicode="K" horiz-adv-x="570" 
d="M492 0l-250 343h-106q3 -43 3 -83v-260h-40v690h40v-231q0 -45 -4 -82h108l234 313h47l-223 -300q-9 -14 -27 -29v-2q16 -15 28 -30l238 -329h-48z" />
    <glyph glyph-name="L" unicode="L" horiz-adv-x="509" 
d="M137 690v-577q0 -35 21.5 -56.5t56.5 -21.5h266l1 -30q-90 -5 -274 -5q-52 0 -82 30.5t-30 78.5v581h41z" />
    <glyph glyph-name="M" unicode="M" horiz-adv-x="860" 
d="M726 690q20 0 20 -21l30 -669h-41l-29 655h-23l-208 -576q-5 -14 -19 -14h-52q-15 0 -20 14l-207 576h-23l-29 -655h-41l29 669q2 21 21 21h57q14 0 19 -14l175 -484q5 -14 10.5 -29.5t12 -34.5t10.5 -29h24l33 95l174 482q5 14 20 14h57z" />
    <glyph glyph-name="N" unicode="N" horiz-adv-x="692" 
d="M593 690v-670q0 -20 -19 -20h-54q-16 0 -23 15l-298 564q-28 54 -37 74h-23q1 -25 1 -75v-578h-41v670q0 20 20 20h50q17 0 24 -15l290 -551q7 -13 45 -86h25q0 16 -0.5 47.5t-0.5 46.5v558h41z" />
    <glyph glyph-name="O" unicode="O" 
d="M332 702q144 0 201.5 -79t57.5 -278t-57.5 -278t-201.5 -79t-202 79.5t-58 277.5t58 277.5t202 79.5zM332 665q-121 0 -169 -71t-48 -249t48 -249t169 -71t168.5 70.5t47.5 249.5t-47.5 249.5t-168.5 70.5z" />
    <glyph glyph-name="P" unicode="P" horiz-adv-x="583" 
d="M324 698q115 0 160 -43.5t45 -162.5q0 -120 -44.5 -163t-157.5 -43q-107 0 -187 6v-292h-41v690q81 8 225 8zM324 322q92 2 127.5 36.5t35.5 133.5t-35.5 134.5t-127.5 35.5q-106 0 -184 -2v-338h184z" />
    <glyph glyph-name="Q" unicode="Q" 
d="M332 702q144 0 201.5 -79t57.5 -278t-57.5 -278t-201.5 -79t-202 79.5t-58 277.5t58 277.5t202 79.5zM332 665q-121 0 -168.5 -70.5t-47.5 -249.5t47.5 -249.5t168.5 -70.5t168.5 70.5t47.5 249.5t-47.5 249.5t-168.5 70.5zM297 -49q95 -59 235 -81l-13 -41
q-135 21 -237 98z" />
    <glyph glyph-name="R" unicode="R" horiz-adv-x="610" 
d="M481 220l73 -220h-45l-70 217q-30 87 -108 87q-74 0 -191 3v-307h-41v690q81 8 225 8q115 0 160 -41t45 -154q0 -90 -29.5 -131.5t-97.5 -50.5v-5q53 -15 79 -96zM324 341q92 2 127.5 35t35.5 126t-35.5 126.5t-127.5 33.5q-108 0 -184 -2v-319h184z" />
    <glyph glyph-name="S" unicode="S" horiz-adv-x="556" 
d="M275 701q107 -2 192 -14l-4 -30q-138 7 -187 7q-36 0 -55 -1t-42 -5t-34 -13t-22 -24.5t-14.5 -39.5t-3.5 -59q0 -70 23.5 -101.5t79.5 -40.5l150 -25q76 -11 107.5 -53.5t31.5 -130.5q0 -60 -13 -97t-43 -55.5t-65.5 -24t-94.5 -5.5q-112 0 -206 13l3 31q118 -8 205 -7
q52 1 81 6t51.5 20t31 43.5t8.5 75.5q0 75 -24 106t-83 40l-150 25q-72 11 -103.5 54t-31.5 127q0 61 12 97.5t41.5 54t64 22.5t94.5 4z" />
    <glyph glyph-name="T" unicode="T" horiz-adv-x="568" 
d="M542 690v-36h-238v-654h-41v654h-237v36h516z" />
    <glyph glyph-name="U" unicode="U" horiz-adv-x="667" 
d="M573 690v-433q0 -146 -54 -207.5t-184 -61.5q-132 0 -186.5 61.5t-54.5 207.5v433h41v-433q0 -128 44.5 -180t154.5 -52q108 0 153 52t45 180v433h41z" />
    <glyph glyph-name="V" unicode="V" horiz-adv-x="596" 
d="M573 690l-229 -677q-6 -13 -19 -13h-54q-14 0 -18 13l-229 677h43l194 -582q18 -57 23 -74h28q3 8 7.5 23.5t8.5 28t8 23.5l193 581h44z" />
    <glyph glyph-name="W" unicode="W" horiz-adv-x="935" 
d="M902 690l-172 -676q-4 -14 -19 -14h-57q-16 0 -19 15l-137 564q-7 26 -19 78h-23q-7 -26 -19 -78l-137 -564q-3 -15 -19 -15h-57q-15 0 -20 14l-172 676h44l146 -583q12 -48 17 -73h27q2 9 8 33.5t9 38.5l139 568q3 16 19 16h53q14 0 19 -16l139 -567q6 -25 16 -73h27
q3 12 8.5 36t8.5 36l147 584h43z" />
    <glyph glyph-name="X" unicode="X" horiz-adv-x="598" 
d="M516 0l-202 343h-30l-202 -343h-47l212 359l-199 331h46l188 -313h34l187 313h47l-200 -331l213 -359h-47z" />
    <glyph glyph-name="Y" unicode="Y" horiz-adv-x="548" 
d="M528 690l-233 -437v-253h-42v255l-234 435h45l171 -322q6 -11 18 -35l18 -36h6l35 70l171 323h45z" />
    <glyph glyph-name="Z" unicode="Z" horiz-adv-x="560" 
d="M98 36h412v-36h-459v36l407 618h-403v36h450v-36z" />
    <glyph glyph-name="bracketleft" unicode="[" horiz-adv-x="316" 
d="M269 768v-31h-116q-12 0 -12 -13v-845q0 -13 12 -13h116v-31h-130q-16 0 -26.5 10t-10.5 27v859q0 16 10.5 26.5t26.5 10.5h130z" />
    <glyph glyph-name="backslash" unicode="\" horiz-adv-x="500" 
d="M72 690l393 -751h-37l-393 751h37z" />
    <glyph glyph-name="bracketright" unicode="]" horiz-adv-x="316" 
d="M177 768q17 0 27 -10t10 -27v-859q0 -16 -10 -26.5t-27 -10.5h-129v31h115q13 0 13 13v845q0 13 -13 13h-115v31h129z" />
    <glyph glyph-name="asciicircum" unicode="^" horiz-adv-x="401" 
d="M215 582l156 -201l-18 -14l-148 179h-8l-148 -179l-19 14l156 201h29z" />
    <glyph glyph-name="underscore" unicode="_" horiz-adv-x="433" 
d="M433 0v-33h-433v33h433z" />
    <glyph glyph-name="grave" unicode="`" horiz-adv-x="287" 
d="M72 712l155 -145l-18 -20l-163 136z" />
    <glyph glyph-name="a" unicode="a" horiz-adv-x="541" 
d="M312 494q142 0 142 -140v-354h-30l-7 90q-36 -36 -99 -66.5t-125 -30.5t-96.5 32.5t-34.5 92.5v60q0 55 31.5 85t88.5 30h232v61q0 50 -24 77t-83 27q-86 0 -221 -15l-4 30q152 21 230 21zM197 30q50 -1 112 25t105 67v139l-228 -3q-83 -1 -83 -83v-54q0 -90 94 -91z" />
    <glyph glyph-name="b" unicode="b" horiz-adv-x="561" 
d="M321 494q93 0 133.5 -58t40.5 -195q0 -135 -45.5 -194t-153.5 -59q-98 0 -208 32v680h40v-208q0 -65 -5 -97q107 99 198 99zM295 24q86 0 122.5 49t36.5 168t-31.5 168t-109.5 49q-42 0 -83.5 -22t-102.5 -72l1 -318q87 -24 167 -22z" />
    <glyph glyph-name="c" unicode="c" horiz-adv-x="481" 
d="M287 494q87 0 141 -19l-7 -27q-53 10 -127 10q-104 0 -145.5 -46.5t-41.5 -170.5t41.5 -170.5t145.5 -46.5q84 0 139 11l6 -28q-73 -19 -151 -19q-122 0 -172.5 57t-50.5 196t50.5 196t171.5 57z" />
    <glyph glyph-name="d" unicode="d" horiz-adv-x="564" 
d="M434 700h39v-700h-30l-6 80q-105 -92 -197 -92q-93 0 -133 59t-40 194q0 137 41 195t136 58q86 0 193 -48q-3 25 -3 93v161zM108 242q0 -120 32 -169t108 -49q44 0 85.5 20.5t100.5 68.5v302q-114 43 -185 43q-77 0 -109 -48t-32 -168z" />
    <glyph glyph-name="e" unicode="e" horiz-adv-x="530" 
d="M289 24q83 0 165 12l5 -28q-60 -20 -175 -20q-117 0 -168 58.5t-51 196.5t48.5 194.5t162.5 56.5q191 0 194 -142q2 -66 -23.5 -98.5t-82.5 -32.5h-257q4 -110 46 -153.5t136 -43.5zM278 458q-94 0 -132 -45t-39 -159h251q74 0 71 96q-1 56 -37.5 82t-113.5 26z" />
    <glyph glyph-name="f" unicode="f" horiz-adv-x="361" 
d="M263 680q-56 0 -79.5 -23t-23.5 -80v-95h172v-34h-172v-448h-40v448h-87v29l87 5v97q0 69 30.5 102.5t99.5 33.5q79 0 123 -5l-2 -30h-108z" />
    <glyph glyph-name="g" unicode="g" horiz-adv-x="548" 
d="M521 482l-3 -26l-93 -4q39 -36 39 -109q0 -77 -45 -113t-150 -36q-73 0 -118 18q-20 -23 -24.5 -47t11.5 -44t54 -27l190 -33q62 -10 85.5 -39.5t23.5 -89.5q0 -78 -48.5 -109.5t-167.5 -31.5q-123 0 -172.5 31t-49.5 109q0 52 15 81.5t57 51.5l15 8q-32 15 -43.5 43.5
t-2 57.5t34.5 50q-56 34 -56 120q0 77 46 114t151 37q60 0 100 -12h151zM269 227q85 0 121 27.5t36 88.5t-35.5 89.5t-121.5 28.5q-85 0 -121.5 -28.5t-36.5 -89.5q0 -60 36.5 -88t121.5 -28zM452 -67q0 47 -17 67.5t-69 29.5l-193 32h-2l-21 -13q-34 -21 -46 -46t-12 -70
q0 -60 40 -83.5t142 -23.5q99 0 138.5 23.5t39.5 83.5z" />
    <glyph glyph-name="h" unicode="h" horiz-adv-x="572" 
d="M355 494q130 0 130 -132v-362h-40v354q0 54 -24 79t-75 25q-49 0 -96.5 -21.5t-119.5 -70.5v-366h-40v700h40l1 -209q0 -61 -5 -94q129 97 229 97z" />
    <glyph glyph-name="i" unicode="i" horiz-adv-x="227" 
d="M123 683q15 0 15 -16v-60q0 -16 -15 -16h-18q-16 0 -16 16v60q0 16 16 16h18zM133 482v-482h-39v482h39z" />
    <glyph glyph-name="j" unicode="j" horiz-adv-x="228" 
d="M123 683q15 0 15 -16v-60q0 -16 -15 -16h-18q-15 0 -15 16v60q0 16 15 16h18zM134 482v-519q0 -98 -73 -171l-22 17q55 71 55 154v519h40z" />
    <glyph glyph-name="k" unicode="k" horiz-adv-x="482" 
d="M405 0l-199 259h-79q3 -44 3 -85v-174h-40v700h40l1 -327q0 -45 -4 -82h78l183 191h49l-173 -184q-16 -15 -26 -23v-2q14 -12 26 -29l189 -244h-48z" />
    <glyph glyph-name="l" unicode="l" horiz-adv-x="277" 
d="M131 700l-1 -594q0 -76 77 -76h55l5 -29q-24 -8 -70 -8q-49 0 -77.5 28t-28.5 79v600h40z" />
    <glyph glyph-name="m" unicode="m" horiz-adv-x="879" 
d="M667 494q125 0 125 -132v-362h-39v354q-1 104 -98 104q-44 0 -85.5 -20.5t-108.5 -70.5v-5v-362h-39v354q0 104 -98 104q-43 0 -85.5 -21t-108.5 -71v-366h-39v482h31l4 -85q111 97 210 97q105 0 122 -96q110 96 209 96z" />
    <glyph glyph-name="n" unicode="n" horiz-adv-x="573" 
d="M356 494q130 0 130 -132v-362h-40v354q0 54 -24 79t-75 25q-49 0 -96.5 -21.5t-120.5 -70.5v-366h-39v482h32l4 -85q121 97 229 97z" />
    <glyph glyph-name="o" unicode="o" horiz-adv-x="562" 
d="M281 494q118 0 166.5 -57t48.5 -196t-48 -196t-167 -57t-167 57t-48 196t48.5 196t166.5 57zM281 458q-97 0 -135 -47t-38 -170t38 -170.5t135 -47.5t135.5 47.5t38.5 170.5t-38.5 170t-135.5 47z" />
    <glyph glyph-name="p" unicode="p" horiz-adv-x="566" 
d="M327 494q92 0 132 -59.5t40 -194.5q0 -137 -41 -194.5t-136 -57.5q-94 0 -195 53q3 -26 3 -94v-155h-39v690h31l5 -85q100 97 200 97zM317 24q77 0 109 48t32 168q0 119 -32 168.5t-107 49.5q-44 0 -86.5 -21t-102.5 -70v-299q118 -44 187 -44z" />
    <glyph glyph-name="q" unicode="q" horiz-adv-x="562" 
d="M270 494q93 0 203 -32v-670h-39l-1 192q0 64 5 95q-113 -91 -207 -91q-86 0 -125.5 60.5t-39.5 192.5q0 136 46 194.5t158 58.5zM107 238q0 -114 31 -164t103 -50q48 0 89 19.5t104 66.5v325q-85 23 -162 23q-91 0 -128 -48t-37 -172z" />
    <glyph glyph-name="r" unicode="r" horiz-adv-x="388" 
d="M346 494h20l-6 -38h-20q-46 0 -91.5 -20.5t-118.5 -67.5v-368h-39v482h30l5 -86q122 98 220 98z" />
    <glyph glyph-name="s" unicode="s" horiz-adv-x="501" 
d="M239 494q108 -2 191 -13l-4 -29q-115 6 -183 7q-86 2 -115.5 -13.5t-29.5 -80.5q0 -47 19 -67t59 -26l157 -23q55 -9 82.5 -38.5t27.5 -86.5q0 -85 -44 -110t-150 -25q-96 0 -179 12l4 29q86 -7 171 -6q93 1 126 19.5t33 80.5q0 44 -21.5 64t-61.5 27l-157 23
q-54 8 -79.5 37.5t-25.5 89.5q0 84 40 107.5t140 21.5z" />
    <glyph glyph-name="t" unicode="t" horiz-adv-x="356" 
d="M331 448h-172v-342q0 -76 77 -76h84l5 -29q-45 -8 -92 -8q-114 0 -114 109v346h-87v29l87 5v149h40v-149h172v-34z" />
    <glyph glyph-name="u" unicode="u" horiz-adv-x="563" 
d="M432 482h40v-482h-31l-4 83q-118 -95 -220 -95q-130 0 -130 132v362h40v-354q-1 -54 24 -79t77 -25q46 0 90.5 21t113.5 69v368z" />
    <glyph glyph-name="v" unicode="v" horiz-adv-x="513" 
d="M486 482l-192 -471q-6 -11 -18 -11h-40q-12 0 -17 11l-192 471h43l144 -361l36 -89h13q24 60 37 90l143 360h43z" />
    <glyph glyph-name="w" unicode="w" horiz-adv-x="815" 
d="M783 482l-160 -469q-5 -13 -18 -13h-39q-14 0 -19 14l-113 365l-21 73h-11q-4 -14 -11.5 -38.5t-10.5 -34.5l-112 -365q-5 -14 -19 -14h-39q-13 0 -18 13l-160 469h42l128 -385q5 -13 12.5 -38t8.5 -29h13l21 68l114 370q3 14 18 14h37q14 0 18 -14l115 -370
q4 -16 20 -68h13q4 11 10.5 33.5t10.5 34.5l128 384h42z" />
    <glyph glyph-name="x" unicode="x" horiz-adv-x="511" 
d="M432 0l-165 235h-23l-165 -235h-46l177 250l-165 232h46l151 -214h27l151 214h46l-165 -232l177 -250h-46z" />
    <glyph glyph-name="y" unicode="y" horiz-adv-x="512" 
d="M443 482h42l-214 -524q-28 -70 -66 -111.5t-104 -55.5l-6 25q55 20 86.5 57t53.5 93l14 34h-13q-12 0 -17 12l-192 470h43l158 -395q2 -6 6.5 -17t8 -20t6.5 -17h14q2 6 9.5 25.5t11.5 29.5z" />
    <glyph glyph-name="z" unicode="z" horiz-adv-x="502" 
d="M100 34h350v-34h-398v34l347 413h-344v35h392v-35z" />
    <glyph glyph-name="braceleft" unicode="{" horiz-adv-x="303" 
d="M255 768v-27q-56 0 -77.5 -24.5t-21.5 -77.5v-199q0 -59 -15.5 -80t-64.5 -32q51 -17 67 -37t17 -71v-256q0 -53 21.5 -77.5t77.5 -24.5v-27q-74 -1 -106 29.5t-32 98.5v268q0 20 -3 32t-14.5 21t-19 12.5t-31.5 12.5v38q26 8 33 10.5t17.5 11.5t12 22t1.5 38v211
q0 68 32 98.5t106 29.5z" />
    <glyph glyph-name="bar" unicode="|" horiz-adv-x="237" 
d="M135 781v-950h-33v950h33z" />
    <glyph glyph-name="braceright" unicode="}" horiz-adv-x="304" 
d="M48 768q74 1 106.5 -29.5t32.5 -98.5v-211q0 -46 10.5 -57.5t52.5 -24.5v-38q-24 -9 -32 -12.5t-19 -12t-13.5 -21t-2.5 -32.5v-268q0 -68 -32.5 -98.5t-106.5 -29.5v27q56 0 78 24.5t22 77.5v256q0 51 16.5 71t66.5 37q-48 11 -63.5 32t-15.5 80v199q0 53 -22 77.5
t-78 24.5v27z" />
    <glyph glyph-name="asciitilde" unicode="~" horiz-adv-x="531" 
d="M160 335q42 -3 105.5 -33.5t103.5 -32.5q29 -2 42 12t13 49h24q2 -47 -18.5 -72t-57.5 -22q-51 3 -113.5 33.5t-95.5 32.5q-29 3 -42 -12.5t-13 -51.5h-24q-3 48 18 73.5t58 23.5z" />
    <glyph glyph-name="uni00A0" unicode="&#xa0;" horiz-adv-x="228" 
 />
    <glyph glyph-name="exclamdown" unicode="&#xa1;" horiz-adv-x="239" 
d="M127 483q17 0 17 -17v-60q0 -17 -17 -17h-13q-18 0 -18 17v60q0 17 18 17h13zM136 278l4 -158v-323h-41v323l4 158h33z" />
    <glyph glyph-name="cent" unicode="&#xa2;" horiz-adv-x="505" 
d="M438 116q-71 -19 -150 -19h-13l-7 -97h-27l8 99q-100 7 -142 65t-42 186q0 138 50.5 195.5t170.5 57.5l6 87h28l-7 -88q63 -2 115 -18l-7 -28q-41 9 -111 11l-31 -435h15q79 0 139 12zM105 350q0 -112 33 -160t113 -56l32 433q-99 -2 -138.5 -49t-39.5 -168z" />
    <glyph glyph-name="sterling" unicode="&#xa3;" horiz-adv-x="562" 
d="M179 36h326v-36h-436v36q50 30 67.5 82t13.5 130l-5 100h-82v30h80l-7 147q-3 57 8.5 93.5t39 54t57.5 23t78 5.5q71 0 162 -10l-4 -31q-74 5 -176 5q-72 0 -100 -31.5t-25 -106.5l7 -149h241l-2 -30h-237l5 -100q3 -79 -12 -130t-61 -83q21 1 62 1z" />
    <glyph glyph-name="currency" unicode="&#xa4;" horiz-adv-x="600" 
d="M520 152l-21 -20l-75 75q-53 -47 -125 -47q-73 0 -125 46l-74 -74l-21 21l74 74q-46 54 -46 125q0 72 46 126l-73 73l20 21l73 -74q54 46 126 46q73 0 126 -47l74 75l20 -21l-74 -74q46 -52 46 -125q0 -72 -47 -125zM299 189q67 -1 114.5 47t47.5 116t-47.5 116
t-114.5 48t-115 -48t-48 -116t48 -116t115 -47z" />
    <glyph glyph-name="yen" unicode="&#xa5;" horiz-adv-x="606" 
d="M557 690l-217 -380h176v-28h-192l-1 -1v-81h193v-28h-193v-172h-41v172h-188v28h188v81l-1 1h-187v28h171l-217 380h44l169 -296q17 -28 39 -71h6q21 40 38 70l168 297h45z" />
    <glyph glyph-name="brokenbar" unicode="&#xa6;" horiz-adv-x="239" 
d="M136 781v-400h-33v400h33zM136 231v-400h-33v400h33z" />
    <glyph glyph-name="section" unicode="&#xa7;" horiz-adv-x="543" 
d="M253 702q123 -2 217 -12l-4 -30q-95 6 -207 7q-38 0 -59.5 -1.5t-44 -8.5t-32.5 -24t-10 -45q0 -70 76 -114l184 -104q63 -36 80.5 -88t6.5 -137h-33q8 71 -7 116.5t-59 70.5l-187 107q-57 32 -80 65.5t-23 83.5q0 69 44 92t138 22zM116 409q-8 -71 6 -114.5t60 -69.5
l188 -106q55 -31 79 -65.5t24 -85.5q0 -33 -10 -55.5t-24 -34.5t-40.5 -18t-48.5 -7.5t-60 -1.5q-100 1 -216 12l4 31q129 -7 207 -8q31 0 48 0.5t38.5 4.5t32.5 12.5t19 25t8 40.5q0 72 -76 114l-183 104q-63 35 -81 86t-7 136h32z" />
    <glyph glyph-name="dieresis" unicode="&#xa8;" horiz-adv-x="402" 
d="M120 678q14 0 14 -14v-56q0 -14 -14 -14h-15q-13 0 -13 14v56q0 14 13 14h15zM297 678q14 0 14 -14v-56q0 -14 -14 -14h-15q-13 0 -13 14v56q0 14 13 14h15z" />
    <glyph glyph-name="copyright" unicode="&#xa9;" horiz-adv-x="852" 
d="M426 702q151 0 254.5 -101.5t103.5 -255.5t-103.5 -255.5t-254.5 -101.5q-150 0 -253.5 101.5t-103.5 255.5t103.5 255.5t253.5 101.5zM426 675q-137 0 -233.5 -94.5t-96.5 -235.5t96.5 -235.5t233.5 -94.5q138 0 234 94.5t96 235.5t-96 235.5t-234 94.5zM431 577
q82 0 134 -13l-6 -23q-54 5 -128 5q-90 0 -125.5 -43.5t-35.5 -154.5t35.5 -155t125.5 -44q93 0 140 7l4 -24q-58 -13 -144 -13q-108 0 -151.5 51.5t-43.5 177.5t43.5 177.5t151.5 51.5z" />
    <glyph glyph-name="ordfeminine" unicode="&#xaa;" horiz-adv-x="443" 
d="M257 602q101 0 101 -96v-235h-25l-6 62q-27 -26 -71 -46.5t-89 -20.5q-43 0 -67.5 21.5t-24.5 61.5v41q0 36 22.5 56.5t63.5 20.5h164v39q0 67 -73 67q-67 0 -159 -9l-4 24q110 14 168 14zM175 295q36 -1 78 16.5t72 43.5v91l-157 -5q-60 -1 -60 -53v-34q0 -57 67 -59z
" />
    <glyph glyph-name="guillemotleft" unicode="&#xab;" horiz-adv-x="460" 
d="M211 455l21 -15l-143 -189l144 -192l-21 -15l-163 201v12zM375 455l21 -15l-143 -189l144 -192l-21 -15l-163 201v12z" />
    <glyph glyph-name="logicalnot" unicode="&#xac;" horiz-adv-x="592" 
d="M83 313h422v-183h-34v150h-388v33z" />
    <glyph glyph-name="uni00AD" unicode="&#xad;" horiz-adv-x="474" 
d="M392 268v-33h-310v33h310z" />
    <glyph glyph-name="registered" unicode="&#xae;" horiz-adv-x="574" 
d="M287 701q92 0 157 -65t65 -157q0 -93 -65 -158t-157 -65q-93 0 -158 65t-65 158q0 92 65 157t158 65zM287 276q83 0 142 59t59 144q0 84 -59 143.5t-142 59.5t-142 -59.5t-59 -143.5q0 -85 59 -144t142 -59zM337 467q28 -5 39 -39l36 -88h-26l-34 86q-14 34 -51 34
q-72 0 -91 1v-121h-23v277q35 3 111 3q56 0 79 -17t23 -62q0 -35 -14.5 -51.5t-48.5 -20.5v-2zM298 478q44 1 61 13.5t17 47.5q0 36 -17 48.5t-61 12.5h-88v-122h88z" />
    <glyph glyph-name="macron" unicode="&#xaf;" horiz-adv-x="400" 
d="M332 654v-33h-264v33h264z" />
    <glyph glyph-name="degree" unicode="&#xb0;" horiz-adv-x="378" 
d="M189 702q51 0 88 -36.5t37 -87.5t-37 -88t-88 -37t-88 37t-37 88t36.5 87.5t88.5 36.5zM189 674q-40 0 -68 -28t-28 -68q0 -39 28.5 -68t67.5 -29t67.5 29t28.5 68q0 40 -28 68t-68 28z" />
    <glyph glyph-name="plusminus" unicode="&#xb1;" horiz-adv-x="596" 
d="M315 366h194v-32h-195v-144h-32v144h-195v32h194v144h34v-144zM87 88v33h422v-33h-422z" />
    <glyph glyph-name="uni00B2" unicode="&#xb2;" horiz-adv-x="377" 
d="M193 758q61 0 92.5 -20t31.5 -69q0 -38 -20.5 -71t-66.5 -83l-124 -131q24 1 65 1l165 -1v-28h-279v14q0 8 6 14l140 149q45 47 61 73.5t15 59.5q-1 36 -22 49.5t-62 13.5q-52 0 -127 -15l-4 26q66 18 129 18z" />
    <glyph glyph-name="uni00B3" unicode="&#xb3;" horiz-adv-x="392" 
d="M179 758q69 0 99.5 -20.5t30.5 -70.5q0 -83 -62 -100v-2q38 -8 54.5 -32.5t17.5 -67.5q1 -59 -30.5 -88t-99.5 -29q-66 0 -132 16l7 25q55 -11 120 -11q53 0 75.5 20t22.5 69q0 39 -18 60t-72 22l-84 1v26l84 2q51 1 66.5 25t14.5 60q-1 39 -21 52.5t-75 13.5
q-59 0 -109 -13l-5 26q61 16 116 16z" />
    <glyph glyph-name="acute" unicode="&#xb4;" horiz-adv-x="287" 
d="M212 714l26 -30l-163 -135l-18 19z" />
    <glyph glyph-name="uni00B5" unicode="&#xb5;" horiz-adv-x="573" 
d="M550 25l4 -24q-26 -8 -54 -8q-32 0 -44.5 23t-12.5 66v49q-29 -68 -89 -105.5t-124 -37.5q-66 0 -101 32v-117l-7 -111h-31v690h38v-352q0 -55 25.5 -80t78.5 -25q80 0 142.5 58t64.5 137v262h40v-387q0 -18 0.5 -27t3.5 -21t10 -17t19 -5h37z" />
    <glyph glyph-name="paragraph" unicode="&#xb6;" horiz-adv-x="596" 
d="M351 702q83 0 139 -17v-685h-35v663q-60 8 -138 8v-881h-35v411q-124 11 -178 69t-54 180q0 138 69 195t232 57z" />
    <glyph glyph-name="periodcentered" unicode="&#xb7;" horiz-adv-x="214" 
d="M114 304q17 0 17 -17v-60q0 -17 -17 -17h-14q-18 0 -18 17v60q0 17 18 17h14z" />
    <glyph glyph-name="cedilla" unicode="&#xb8;" horiz-adv-x="223" 
d="M100 -47q44 3 65.5 -12.5t20.5 -52.5q-1 -55 -41 -86.5t-105 -23.5l6 23q49 -2 78.5 23t29.5 62q0 25 -13 35t-46 11z" />
    <glyph glyph-name="uni00B9" unicode="&#xb9;" horiz-adv-x="289" 
d="M178 752v-396h-33v336q0 19 2 29l-110 -34l-5 23l113 42h33z" />
    <glyph glyph-name="ordmasculine" unicode="&#xba;" horiz-adv-x="448" 
d="M223 602q85 0 119.5 -38t34.5 -132q0 -93 -34.5 -131t-119.5 -38q-84 0 -118 38t-34 131q0 94 34 132t118 38zM223 574q-66 0 -92 -31t-26 -111t26 -110.5t92 -30.5t92.5 30.5t26.5 110.5t-26 111t-93 31z" />
    <glyph glyph-name="guillemotright" unicode="&#xbb;" horiz-adv-x="460" 
d="M85 455l162 -198v-12l-163 -201l-21 15l144 192l-143 189zM249 455l162 -198v-12l-163 -201l-21 15l144 192l-143 189z" />
    <glyph glyph-name="onequarter" unicode="&#xbc;" horiz-adv-x="846" 
d="M174 627q0 21 2 32l-121 -35l-5 22l124 44h32v-414h-32v351zM600 690h34l-472 -690h-33zM796 137v-23l-45 -3v-111h-32v110h-220q-22 0 -33 16t0 37l142 251h34l-142 -249q-6 -10 0 -19t19 -9h200v129l7 70h25v-199h45z" />
    <glyph glyph-name="onehalf" unicode="&#xbd;" horiz-adv-x="875" 
d="M206 690v-414h-32v351q0 21 2 32l-121 -35l-5 22l124 44h32zM632 690l-471 -690h-34l472 690h33zM660 421q73 0 106 -17.5t33 -69.5q0 -38 -21 -73t-69 -84l-146 -148q26 1 77 1l179 -1l-1 -29h-297v19q0 8 5 15l151 152q46 47 66.5 81.5t19.5 67.5q-1 36 -26 46.5
t-77 10.5q-61 0 -131 -11l-4 24q73 16 135 16z" />
    <glyph glyph-name="threequarters" unicode="&#xbe;" horiz-adv-x="936" 
d="M348 389q2 -64 -30.5 -93t-111.5 -29q-51 0 -141 10l4 25q72 -7 131 -7q61 0 87.5 22t26.5 75q0 40 -22.5 63.5t-82.5 23.5l-86 1v23l86 2q31 1 51.5 9t29.5 22.5t12 27t3 29.5q-1 43 -25 58.5t-88 15.5q-54 0 -116 -6l-4 24q61 10 123 10q80 0 111 -20.5t31 -74.5
q0 -92 -75 -105v-2q84 -12 86 -104zM704 690h33l-471 -690h-34zM886 137v-23l-54 -3v-111h-32v110h-211q-22 0 -33.5 16.5t-0.5 36.5l143 251h33l-142 -249q-5 -11 1 -19.5t19 -8.5h191v129l7 70h25v-199h54z" />
    <glyph glyph-name="questiondown" unicode="&#xbf;" horiz-adv-x="503" 
d="M266 492q17 0 17 -17v-60q0 -17 -17 -17h-13q-17 0 -17 17v60q0 17 17 17h13zM277 287q0 -53 -18.5 -96t-45.5 -71.5t-54 -54.5t-46 -57.5t-19 -68.5q-1 -63 38.5 -93.5t121.5 -30.5q89 0 198 13l5 -29q-11 -2 -34.5 -6t-35.5 -5.5t-33.5 -3.5t-46.5 -3t-57 -1
q-198 0 -198 155q0 42 19 77.5t46.5 63t55 55.5t47 68t20.5 88h37z" />
    <glyph glyph-name="Agrave" unicode="&#xc0;" horiz-adv-x="608" 
d="M347 753l-18 -20l-163 136l26 29zM548 0l-85 243h-318l-85 -243h-43l241 677q5 13 18 13h56q13 0 18 -13l241 -677h-43zM158 279h292l-112 321l-20 56h-28l-20 -56z" />
    <glyph glyph-name="Aacute" unicode="&#xc1;" horiz-adv-x="608" 
d="M431 870l-163 -135l-18 19l155 146zM548 0l-85 243h-318l-85 -243h-43l241 677q5 13 18 13h56q13 0 18 -13l241 -677h-43zM158 279h292l-112 321l-20 56h-28l-20 -56z" />
    <glyph glyph-name="Acircumflex" unicode="&#xc2;" horiz-adv-x="608" 
d="M299 845l-129 -101l-17 19l135 119h29l135 -119l-15 -19l-130 101h-8zM548 0l-85 243h-318l-85 -243h-43l241 677q5 13 18 13h56q13 0 18 -13l241 -677h-43zM158 279h292l-112 321l-20 56h-28l-20 -56z" />
    <glyph glyph-name="Atilde" unicode="&#xc3;" horiz-adv-x="608" 
d="M178 773h-23q-2 49 18.5 73.5t57.5 21.5q30 -3 71.5 -33t70.5 -32q30 -2 43 12t13 48h23q3 -46 -18 -70.5t-58 -21.5q-36 3 -78 33t-65 32q-55 6 -55 -63zM548 0l-85 243h-318l-85 -243h-43l241 677q5 13 18 13h56q13 0 18 -13l241 -677h-43zM158 279h292l-112 321
l-20 56h-28l-20 -56z" />
    <glyph glyph-name="Adieresis" unicode="&#xc4;" horiz-adv-x="608" 
d="M207 774q-13 0 -13 14v56q0 14 13 14h15q14 0 14 -14v-56q0 -14 -14 -14h-15zM384 774q-13 0 -13 14v56q0 14 13 14h15q14 0 14 -14v-56q0 -14 -14 -14h-15zM548 0l-85 243h-318l-85 -243h-43l241 677q5 13 18 13h56q13 0 18 -13l241 -677h-43zM158 279h292l-112 321
l-20 56h-28l-20 -56z" />
    <glyph glyph-name="Aring" unicode="&#xc5;" horiz-adv-x="608" 
d="M304 718q-41 0 -70 28.5t-29 69.5q0 40 29 68.5t70 28.5t70 -28.5t29 -68.5q0 -39 -29 -68.5t-70 -29.5zM304 888q-31 0 -51 -20.5t-20 -51.5q0 -32 20.5 -52.5t50.5 -20.5t50.5 20.5t20.5 52.5q0 31 -20.5 51.5t-50.5 20.5zM548 0l-85 243h-318l-85 -243h-43l241 677
q5 13 18 13h56q13 0 18 -13l241 -677h-43zM158 279h292l-112 321l-20 56h-28l-20 -56z" />
    <glyph glyph-name="AE" unicode="&#xc6;" horiz-adv-x="907" 
d="M585 35h265l1 -31q-93 -4 -279 -4q-46 0 -76 30t-30 76v154h-247l-165 -260h-46l384 599q35 54 75.5 72.5t105.5 18.5q175 0 278 -4l-1 -32h-265q-36 0 -57.5 -21t-21.5 -57v-190l302 -1v-33l-302 -1v-237q0 -36 21.5 -57.5t57.5 -21.5zM242 295h224v284q0 23 11.5 45.5
t27.5 30.5h-7q-37 -17 -71 -69z" />
    <glyph glyph-name="Ccedilla" unicode="&#xc7;" horiz-adv-x="563" 
d="M331 702q105 0 178 -18l-7 -30q-78 11 -171 11q-121 0 -168.5 -70.5t-47.5 -249.5t47.5 -249.5t168.5 -70.5q108 0 185 13l7 -31q-79 -19 -192 -19q-143 0 -201 80t-58 277t58 277t201 80zM297 -59q44 3 65.5 -12.5t20.5 -52.5q-1 -55 -41 -86.5t-105 -23.5l6 23
q49 -2 78.5 23t29.5 62q0 25 -13 35t-46 11z" />
    <glyph glyph-name="Egrave" unicode="&#xc8;" horiz-adv-x="553" 
d="M353 776l-18 -20l-163 136l26 29zM210 35h285l2 -31q-96 -4 -294 -4q-49 0 -79.5 29.5t-30.5 76.5v478q0 47 30.5 76.5t79.5 29.5q198 0 294 -4l-2 -31h-285q-34 0 -55 -21.5t-21 -56.5v-191l320 -1v-33l-320 -1v-238q0 -35 21 -56.5t55 -21.5z" />
    <glyph glyph-name="Eacute" unicode="&#xc9;" horiz-adv-x="553" 
d="M437 893l-163 -135l-18 19l155 146zM210 35h285l2 -31q-96 -4 -294 -4q-49 0 -79.5 29.5t-30.5 76.5v478q0 47 30.5 76.5t79.5 29.5q198 0 294 -4l-2 -31h-285q-34 0 -55 -21.5t-21 -56.5v-191l320 -1v-33l-320 -1v-238q0 -35 21 -56.5t55 -21.5z" />
    <glyph glyph-name="Ecircumflex" unicode="&#xca;" horiz-adv-x="553" 
d="M305 868l-129 -101l-17 19l135 119h29l135 -119l-15 -19l-130 101h-8zM210 35h285l2 -31q-96 -4 -294 -4q-49 0 -79.5 29.5t-30.5 76.5v478q0 47 30.5 76.5t79.5 29.5q198 0 294 -4l-2 -31h-285q-34 0 -55 -21.5t-21 -56.5v-191l320 -1v-33l-320 -1v-238q0 -35 21 -56.5
t55 -21.5z" />
    <glyph glyph-name="Edieresis" unicode="&#xcb;" horiz-adv-x="553" 
d="M213 797q-13 0 -13 14v56q0 14 13 14h15q14 0 14 -14v-56q0 -14 -14 -14h-15zM390 797q-13 0 -13 14v56q0 14 13 14h15q14 0 14 -14v-56q0 -14 -14 -14h-15zM210 35h285l2 -31q-96 -4 -294 -4q-49 0 -79.5 29.5t-30.5 76.5v478q0 47 30.5 76.5t79.5 29.5q198 0 294 -4
l-2 -31h-285q-34 0 -55 -21.5t-21 -56.5v-191l320 -1v-33l-320 -1v-238q0 -35 21 -56.5t55 -21.5z" />
    <glyph glyph-name="Igrave" unicode="&#xcc;" horiz-adv-x="239" 
d="M7 899l155 -145l-18 -20l-163 136zM140 690v-690h-41v690h41z" />
    <glyph glyph-name="Iacute" unicode="&#xcd;" horiz-adv-x="239" 
d="M220 901l26 -30l-163 -135l-18 19zM140 690v-690h-41v690h41z" />
    <glyph glyph-name="Icircumflex" unicode="&#xce;" horiz-adv-x="239" 
d="M132 883l135 -119l-15 -19l-130 101h-8l-129 -101l-17 19l135 119h29zM140 690v-690h-41v690h41z" />
    <glyph glyph-name="Idieresis" unicode="&#xcf;" horiz-adv-x="239" 
d="M37 859q14 0 14 -14v-56q0 -14 -14 -14h-15q-13 0 -13 14v56q0 14 13 14h15zM214 859q14 0 14 -14v-56q0 -14 -14 -14h-15q-13 0 -13 14v56q0 14 13 14h15zM140 690v-690h-41v690h41z" />
    <glyph glyph-name="Eth" unicode="&#xd0;" 
d="M335 699q142 0 199 -79t57 -275t-57 -275t-199 -79q-111 0 -233 9v356h-77v28h77v306q121 9 233 9zM335 28q119 0 166 70t47 247t-47 247t-166 70q-21 0 -192 -3v-275h175v-28h-175v-325q168 -3 192 -3z" />
    <glyph glyph-name="Ntilde" unicode="&#xd1;" horiz-adv-x="692" 
d="M287 869q30 -3 71.5 -33t70.5 -32q30 -2 43 12t13 48h23q3 -46 -18 -70.5t-58 -21.5q-36 3 -78 33t-65 32q-29 3 -42 -12.5t-13 -50.5h-23q-2 49 18.5 73.5t57.5 21.5zM593 690v-670q0 -20 -19 -20h-54q-16 0 -23 15l-298 564q-28 54 -37 74h-23q1 -25 1 -75v-578h-41
v670q0 20 20 20h50q17 0 24 -15l290 -551q7 -13 45 -86h25q0 16 -0.5 47.5t-0.5 46.5v558h41z" />
    <glyph glyph-name="Ograve" unicode="&#xd2;" 
d="M221 899l155 -145l-18 -20l-163 136zM332 702q144 0 201.5 -79t57.5 -278t-57.5 -278t-201.5 -79t-202 79.5t-58 277.5t58 277.5t202 79.5zM332 665q-121 0 -169 -71t-48 -249t48 -249t169 -71t168.5 70.5t47.5 249.5t-47.5 249.5t-168.5 70.5z" />
    <glyph glyph-name="Oacute" unicode="&#xd3;" 
d="M434 901l26 -30l-163 -135l-18 19zM332 702q144 0 201.5 -79t57.5 -278t-57.5 -278t-201.5 -79t-202 79.5t-58 277.5t58 277.5t202 79.5zM332 665q-121 0 -169 -71t-48 -249t48 -249t169 -71t168.5 70.5t47.5 249.5t-47.5 249.5t-168.5 70.5z" />
    <glyph glyph-name="Ocircumflex" unicode="&#xd4;" 
d="M346 883l135 -119l-15 -19l-130 101h-8l-129 -101l-17 19l135 119h29zM332 702q144 0 201.5 -79t57.5 -278t-57.5 -278t-201.5 -79t-202 79.5t-58 277.5t58 277.5t202 79.5zM332 665q-121 0 -169 -71t-48 -249t48 -249t169 -71t168.5 70.5t47.5 249.5t-47.5 249.5
t-168.5 70.5z" />
    <glyph glyph-name="Otilde" unicode="&#xd5;" 
d="M260 869q30 -3 71.5 -33t70.5 -32q30 -2 43 12t13 48h23q3 -46 -18 -70.5t-58 -21.5q-36 3 -78 33t-65 32q-29 3 -42 -12.5t-13 -50.5h-23q-2 49 18.5 73.5t57.5 21.5zM332 702q144 0 201.5 -79t57.5 -278t-57.5 -278t-201.5 -79t-202 79.5t-58 277.5t58 277.5t202 79.5z
M332 665q-121 0 -169 -71t-48 -249t48 -249t169 -71t168.5 70.5t47.5 249.5t-47.5 249.5t-168.5 70.5z" />
    <glyph glyph-name="Odieresis" unicode="&#xd6;" 
d="M251 859q14 0 14 -14v-56q0 -14 -14 -14h-15q-13 0 -13 14v56q0 14 13 14h15zM428 859q14 0 14 -14v-56q0 -14 -14 -14h-15q-13 0 -13 14v56q0 14 13 14h15zM332 702q144 0 201.5 -79t57.5 -278t-57.5 -278t-201.5 -79t-202 79.5t-58 277.5t58 277.5t202 79.5zM332 665
q-121 0 -169 -71t-48 -249t48 -249t169 -71t168.5 70.5t47.5 249.5t-47.5 249.5t-168.5 70.5z" />
    <glyph glyph-name="multiply" unicode="&#xd7;" horiz-adv-x="487" 
d="M433 434l-162 -146l162 -145l-21 -26l-166 149l-165 -149l-21 26l162 145l-162 145l21 26l166 -149l165 149z" />
    <glyph glyph-name="Oslash" unicode="&#xd8;" 
d="M491 664q53 -36 76.5 -112t23.5 -207q0 -199 -57.5 -278t-201.5 -79q-91 0 -145 29l-33 -70l-27 13l35 74q-47 38 -68.5 112.5t-21.5 198.5q0 198 58 277.5t202 79.5q82 0 132 -23l30 64l28 -12zM115 345q0 -204 66 -271l266 568q-43 23 -115 23q-121 0 -169 -71
t-48 -249zM332 25q121 0 168.5 70.5t47.5 249.5q0 113 -17.5 180t-58.5 100l-267 -570q46 -30 127 -30z" />
    <glyph glyph-name="Ugrave" unicode="&#xd9;" horiz-adv-x="667" 
d="M223 899l155 -145l-18 -20l-163 136zM573 690v-433q0 -146 -54 -207.5t-184 -61.5q-132 0 -186.5 61.5t-54.5 207.5v433h41v-433q0 -128 44.5 -180t154.5 -52q108 0 153 52t45 180v433h41z" />
    <glyph glyph-name="Uacute" unicode="&#xda;" horiz-adv-x="667" 
d="M436 901l26 -30l-163 -135l-18 19zM573 690v-433q0 -146 -54 -207.5t-184 -61.5q-132 0 -186.5 61.5t-54.5 207.5v433h41v-433q0 -128 44.5 -180t154.5 -52q108 0 153 52t45 180v433h41z" />
    <glyph glyph-name="Ucircumflex" unicode="&#xdb;" horiz-adv-x="667" 
d="M348 883l135 -119l-15 -19l-130 101h-8l-129 -101l-17 19l135 119h29zM573 690v-433q0 -146 -54 -207.5t-184 -61.5q-132 0 -186.5 61.5t-54.5 207.5v433h41v-433q0 -128 44.5 -180t154.5 -52q108 0 153 52t45 180v433h41z" />
    <glyph glyph-name="Udieresis" unicode="&#xdc;" horiz-adv-x="667" 
d="M253 859q14 0 14 -14v-56q0 -14 -14 -14h-15q-13 0 -13 14v56q0 14 13 14h15zM430 859q14 0 14 -14v-56q0 -14 -14 -14h-15q-13 0 -13 14v56q0 14 13 14h15zM573 690v-433q0 -146 -54 -207.5t-184 -61.5q-132 0 -186.5 61.5t-54.5 207.5v433h41v-433q0 -128 44.5 -180
t154.5 -52q108 0 153 52t45 180v433h41z" />
    <glyph glyph-name="Yacute" unicode="&#xdd;" horiz-adv-x="548" 
d="M402 869l-163 -135l-18 19l155 146zM528 690l-233 -437v-253h-42v255l-234 435h45l171 -322q6 -11 18 -35l18 -36h6l35 70l171 323h45z" />
    <glyph glyph-name="Thorn" unicode="&#xde;" horiz-adv-x="585" 
d="M324 558q115 0 160 -43.5t45 -163.5t-44.5 -163.5t-157.5 -43.5q-117 0 -187 7v-151h-41v690h41v-136q69 4 184 4zM324 181q92 2 127.5 36.5t35.5 133.5q0 100 -35.5 135.5t-127.5 35.5q-106 0 -184 -2v-339h184z" />
    <glyph glyph-name="germandbls" unicode="&#xdf;" horiz-adv-x="657" 
d="M515 247q49 -16 72 -43.5t23 -80.5q0 -83 -39.5 -108.5t-124.5 -25.5q-89 0 -164 11l3 30q67 -7 157 -7q71 2 99.5 20.5t28.5 80.5q0 44 -17.5 62t-55.5 31l-125 42q-43 15 -65 39t-22 67q0 18 2.5 32t11.5 25t15 18t23.5 16t25 12.5t33 12.5t34.5 13q45 17 61 38t16 65
q0 46 -42.5 64.5t-131.5 18.5q-99 0 -135.5 -30t-36.5 -118v-532h-40v448h-87v30l87 4v52q0 60 14.5 97.5t46 55t64 22.5t86.5 5q108 0 160 -25.5t52 -90.5q0 -55 -21.5 -82t-76.5 -49q-11 -4 -36.5 -13t-32.5 -12t-22 -11.5t-18.5 -16t-8 -19.5t-4.5 -29q0 -33 16.5 -49.5
t49.5 -27.5z" />
    <glyph glyph-name="agrave" unicode="&#xe0;" horiz-adv-x="541" 
d="M312 573l-18 -20l-163 136l26 29zM312 494q142 0 142 -140v-354h-30l-7 90q-36 -36 -99 -66.5t-125 -30.5t-96.5 32.5t-34.5 92.5v60q0 55 31.5 85t88.5 30h232v61q0 50 -24 77t-83 27q-86 0 -221 -15l-4 30q152 21 230 21zM197 30q50 -1 112 25t105 67v139l-228 -3
q-83 -1 -83 -83v-54q0 -90 94 -91z" />
    <glyph glyph-name="aacute" unicode="&#xe1;" horiz-adv-x="541" 
d="M396 690l-163 -135l-18 19l155 146zM312 494q142 0 142 -140v-354h-30l-7 90q-36 -36 -99 -66.5t-125 -30.5t-96.5 32.5t-34.5 92.5v60q0 55 31.5 85t88.5 30h232v61q0 50 -24 77t-83 27q-86 0 -221 -15l-4 30q152 21 230 21zM197 30q50 -1 112 25t105 67v139l-228 -3
q-83 -1 -83 -83v-54q0 -90 94 -91z" />
    <glyph glyph-name="acircumflex" unicode="&#xe2;" horiz-adv-x="541" 
d="M264 665l-129 -101l-17 19l135 119h29l135 -119l-15 -19l-130 101h-8zM312 494q142 0 142 -140v-354h-30l-7 90q-36 -36 -99 -66.5t-125 -30.5t-96.5 32.5t-34.5 92.5v60q0 55 31.5 85t88.5 30h232v61q0 50 -24 77t-83 27q-86 0 -221 -15l-4 30q152 21 230 21zM197 30
q50 -1 112 25t105 67v139l-228 -3q-83 -1 -83 -83v-54q0 -90 94 -91z" />
    <glyph glyph-name="atilde" unicode="&#xe3;" horiz-adv-x="541" 
d="M143 593h-23q-2 49 18.5 73.5t57.5 21.5q30 -3 71.5 -33t70.5 -32q30 -2 43 12t13 48h23q3 -46 -18 -70.5t-58 -21.5q-36 3 -78 33t-65 32q-55 6 -55 -63zM312 494q142 0 142 -140v-354h-30l-7 90q-36 -36 -99 -66.5t-125 -30.5t-96.5 32.5t-34.5 92.5v60q0 55 31.5 85
t88.5 30h232v61q0 50 -24 77t-83 27q-86 0 -221 -15l-4 30q152 21 230 21zM197 30q50 -1 112 25t105 67v139l-228 -3q-83 -1 -83 -83v-54q0 -90 94 -91z" />
    <glyph glyph-name="adieresis" unicode="&#xe4;" horiz-adv-x="541" 
d="M172 594q-13 0 -13 14v56q0 14 13 14h15q14 0 14 -14v-56q0 -14 -14 -14h-15zM349 594q-13 0 -13 14v56q0 14 13 14h15q14 0 14 -14v-56q0 -14 -14 -14h-15zM312 494q142 0 142 -140v-354h-30l-7 90q-36 -36 -99 -66.5t-125 -30.5t-96.5 32.5t-34.5 92.5v60q0 55 31.5 85
t88.5 30h232v61q0 50 -24 77t-83 27q-86 0 -221 -15l-4 30q152 21 230 21zM197 30q50 -1 112 25t105 67v139l-228 -3q-83 -1 -83 -83v-54q0 -90 94 -91z" />
    <glyph glyph-name="aring" unicode="&#xe5;" horiz-adv-x="541" 
d="M269 538q-41 0 -70 28.5t-29 69.5q0 40 29 68.5t70 28.5t70 -28.5t29 -68.5q0 -39 -29 -68.5t-70 -29.5zM269 708q-31 0 -51 -20.5t-20 -51.5q0 -32 20.5 -52.5t50.5 -20.5t50.5 20.5t20.5 52.5q0 31 -20.5 51.5t-50.5 20.5zM312 494q142 0 142 -140v-354h-30l-7 90
q-36 -36 -99 -66.5t-125 -30.5t-96.5 32.5t-34.5 92.5v60q0 55 31.5 85t88.5 30h232v61q0 50 -24 77t-83 27q-86 0 -221 -15l-4 30q152 21 230 21zM197 30q50 -1 112 25t105 67v139l-228 -3q-83 -1 -83 -83v-54q0 -90 94 -91z" />
    <glyph glyph-name="ae" unicode="&#xe6;" horiz-adv-x="878" 
d="M638 24q83 0 165 12l5 -28q-60 -20 -175 -20q-157 0 -198 111q-40 -40 -107 -73t-135 -33q-62 0 -96.5 32.5t-34.5 92.5v60q0 55 31.5 85t88.5 30h232v61q0 50 -24 77t-83 27q-86 0 -221 -15l-4 30q152 21 230 21q109 0 134 -80q45 80 179 80q191 0 194 -142
q1 -70 -31 -100.5t-108 -30.5h-224q4 -110 46 -153.5t136 -43.5zM626 458q-93 0 -131 -45t-39 -159h218q58 0 82 22.5t22 73.5q-1 108 -152 108zM197 30q53 -1 118 26.5t111 69.5q-10 44 -12 102v33l-228 -3q-83 -1 -83 -83v-54q0 -90 94 -91z" />
    <glyph glyph-name="ccedilla" unicode="&#xe7;" horiz-adv-x="481" 
d="M287 494q87 0 141 -19l-7 -27q-53 10 -127 10q-104 0 -145.5 -46.5t-41.5 -170.5t41.5 -170.5t145.5 -46.5q84 0 139 11l6 -28q-73 -19 -151 -19q-122 0 -172.5 57t-50.5 196t50.5 196t171.5 57zM252 -59q44 3 65.5 -12.5t20.5 -52.5q-1 -55 -41 -86.5t-105 -23.5l6 23
q49 -2 78.5 23t29.5 62q0 25 -13 35t-46 11z" />
    <glyph glyph-name="egrave" unicode="&#xe8;" horiz-adv-x="530" 
d="M321 573l-18 -20l-163 136l26 29zM289 24q83 0 165 12l5 -28q-60 -20 -175 -20q-117 0 -168 58.5t-51 196.5t48.5 194.5t162.5 56.5q191 0 194 -142q2 -66 -23.5 -98.5t-82.5 -32.5h-257q4 -110 46 -153.5t136 -43.5zM278 458q-94 0 -132 -45t-39 -159h251q74 0 71 96
q-1 56 -37.5 82t-113.5 26z" />
    <glyph glyph-name="eacute" unicode="&#xe9;" horiz-adv-x="530" 
d="M405 690l-163 -135l-18 19l155 146zM289 24q83 0 165 12l5 -28q-60 -20 -175 -20q-117 0 -168 58.5t-51 196.5t48.5 194.5t162.5 56.5q191 0 194 -142q2 -66 -23.5 -98.5t-82.5 -32.5h-257q4 -110 46 -153.5t136 -43.5zM278 458q-94 0 -132 -45t-39 -159h251q74 0 71 96
q-1 56 -37.5 82t-113.5 26z" />
    <glyph glyph-name="ecircumflex" unicode="&#xea;" horiz-adv-x="530" 
d="M273 665l-129 -101l-17 19l135 119h29l135 -119l-15 -19l-130 101h-8zM289 24q83 0 165 12l5 -28q-60 -20 -175 -20q-117 0 -168 58.5t-51 196.5t48.5 194.5t162.5 56.5q191 0 194 -142q2 -66 -23.5 -98.5t-82.5 -32.5h-257q4 -110 46 -153.5t136 -43.5zM278 458
q-94 0 -132 -45t-39 -159h251q74 0 71 96q-1 56 -37.5 82t-113.5 26z" />
    <glyph glyph-name="edieresis" unicode="&#xeb;" horiz-adv-x="530" 
d="M181 594q-13 0 -13 14v56q0 14 13 14h15q14 0 14 -14v-56q0 -14 -14 -14h-15zM358 594q-13 0 -13 14v56q0 14 13 14h15q14 0 14 -14v-56q0 -14 -14 -14h-15zM289 24q83 0 165 12l5 -28q-60 -20 -175 -20q-117 0 -168 58.5t-51 196.5t48.5 194.5t162.5 56.5
q191 0 194 -142q2 -66 -23.5 -98.5t-82.5 -32.5h-257q4 -110 46 -153.5t136 -43.5zM278 458q-94 0 -132 -45t-39 -159h251q74 0 71 96q-1 56 -37.5 82t-113.5 26z" />
    <glyph glyph-name="igrave" unicode="&#xec;" horiz-adv-x="228" 
d="M1 718l155 -145l-18 -20l-163 136zM134 482v-482h-40v482h40z" />
    <glyph glyph-name="iacute" unicode="&#xed;" horiz-adv-x="228" 
d="M214 720l26 -30l-163 -135l-18 19zM134 482v-482h-40v482h40z" />
    <glyph glyph-name="icircumflex" unicode="&#xee;" horiz-adv-x="228" 
d="M126 702l135 -119l-15 -19l-130 101h-8l-129 -101l-17 19l135 119h29zM134 482v-482h-40v482h40z" />
    <glyph glyph-name="idieresis" unicode="&#xef;" horiz-adv-x="228" 
d="M31 678q14 0 14 -14v-56q0 -14 -14 -14h-15q-13 0 -13 14v56q0 14 13 14h15zM208 678q14 0 14 -14v-56q0 -14 -14 -14h-15q-13 0 -13 14v56q0 14 13 14h15zM134 482v-482h-40v482h40z" />
    <glyph glyph-name="eth" unicode="&#xf0;" horiz-adv-x="551" 
d="M354 625q120 -104 120 -345q0 -53 -3.5 -91t-15.5 -78.5t-33.5 -65.5t-59.5 -41t-91 -16q-105 0 -155 55.5t-50 176.5q0 110 47 168.5t154 58.5q81 0 159 -50q-22 139 -102 207l-89 -63l-16 22l82 58q-71 48 -184 48l7 29q123 4 207 -55l83 59l16 -23zM272 23
q42 0 71.5 12.5t47 33.5t27.5 56.5t13 72t3 88.5q0 48 -4 81q-77 45 -164 45q-86 0 -122 -50.5t-36 -141.5q0 -106 39.5 -151.5t124.5 -45.5z" />
    <glyph glyph-name="ntilde" unicode="&#xf1;" horiz-adv-x="573" 
d="M170 593h-23q-2 49 18.5 73.5t57.5 21.5q30 -3 71.5 -33t70.5 -32q30 -2 43 12t13 48h23q3 -46 -18 -70.5t-58 -21.5q-36 3 -78 33t-65 32q-55 6 -55 -63zM356 494q130 0 130 -132v-362h-40v354q0 54 -24 79t-75 25q-49 0 -96.5 -21.5t-120.5 -70.5v-366h-39v482h32
l4 -85q121 97 229 97z" />
    <glyph glyph-name="ograve" unicode="&#xf2;" horiz-adv-x="562" 
d="M169 717l155 -145l-18 -20l-163 136zM281 494q118 0 166.5 -57t48.5 -196t-48 -196t-167 -57t-167 57t-48 196t48.5 196t166.5 57zM281 458q-97 0 -135 -47t-38 -170t38 -170.5t135 -47.5t135.5 47.5t38.5 170.5t-38.5 170t-135.5 47z" />
    <glyph glyph-name="oacute" unicode="&#xf3;" horiz-adv-x="562" 
d="M382 719l26 -30l-163 -135l-18 19zM281 494q118 0 166.5 -57t48.5 -196t-48 -196t-167 -57t-167 57t-48 196t48.5 196t166.5 57zM281 458q-97 0 -135 -47t-38 -170t38 -170.5t135 -47.5t135.5 47.5t38.5 170.5t-38.5 170t-135.5 47z" />
    <glyph glyph-name="ocircumflex" unicode="&#xf4;" horiz-adv-x="562" 
d="M294 701l135 -119l-15 -19l-130 101h-8l-129 -101l-17 19l135 119h29zM281 494q118 0 166.5 -57t48.5 -196t-48 -196t-167 -57t-167 57t-48 196t48.5 196t166.5 57zM281 458q-97 0 -135 -47t-38 -170t38 -170.5t135 -47.5t135.5 47.5t38.5 170.5t-38.5 170t-135.5 47z
" />
    <glyph glyph-name="otilde" unicode="&#xf5;" horiz-adv-x="562" 
d="M208 687q30 -3 71.5 -33t70.5 -32q30 -2 43 12t13 48h23q3 -46 -18 -70.5t-58 -21.5q-36 3 -78 33t-65 32q-29 3 -42 -12.5t-13 -50.5h-23q-2 49 18.5 73.5t57.5 21.5zM281 494q118 0 166.5 -57t48.5 -196t-48 -196t-167 -57t-167 57t-48 196t48.5 196t166.5 57zM281 458
q-97 0 -135 -47t-38 -170t38 -170.5t135 -47.5t135.5 47.5t38.5 170.5t-38.5 170t-135.5 47z" />
    <glyph glyph-name="odieresis" unicode="&#xf6;" horiz-adv-x="562" 
d="M199 677q14 0 14 -14v-56q0 -14 -14 -14h-15q-13 0 -13 14v56q0 14 13 14h15zM376 677q14 0 14 -14v-56q0 -14 -14 -14h-15q-13 0 -13 14v56q0 14 13 14h15zM281 494q118 0 166.5 -57t48.5 -196t-48 -196t-167 -57t-167 57t-48 196t48.5 196t166.5 57zM281 458
q-97 0 -135 -47t-38 -170t38 -170.5t135 -47.5t135.5 47.5t38.5 170.5t-38.5 170t-135.5 47z" />
    <glyph glyph-name="divide" unicode="&#xf7;" horiz-adv-x="584" 
d="M297 508q17 0 17 -17v-59q0 -17 -17 -17h-13q-17 0 -17 17v59q0 17 17 17h13zM503 312v-33h-422v33h422zM297 176q17 0 17 -17v-59q0 -17 -17 -17h-13q-17 0 -17 17v59q0 17 17 17h13z" />
    <glyph glyph-name="oslash" unicode="&#xf8;" horiz-adv-x="562" 
d="M400 473q51 -24 73.5 -79.5t22.5 -152.5q0 -139 -48 -196t-167 -57q-61 0 -100 13l-31 -66l-25 12l30 65q-47 25 -68 80t-21 149q0 139 48.5 196t166.5 57q55 0 94 -12l29 62l24 -11zM108 241q0 -80 15 -126t49 -68l187 401q-30 10 -78 10q-97 0 -135 -47t-38 -170z
M281 23q97 0 135.5 47.5t38.5 170.5q0 83 -16.5 129.5t-54.5 67.5l-187 -403q33 -12 84 -12z" />
    <glyph glyph-name="ugrave" unicode="&#xf9;" horiz-adv-x="563" 
d="M324 574l-18 -20l-163 136l26 29zM432 482h40v-482h-31l-4 83q-118 -95 -220 -95q-130 0 -130 132v362h40v-354q-1 -54 24 -79t77 -25q46 0 90.5 21t113.5 69v368z" />
    <glyph glyph-name="uacute" unicode="&#xfa;" horiz-adv-x="563" 
d="M408 691l-163 -135l-18 19l155 146zM432 482h40v-482h-31l-4 83q-118 -95 -220 -95q-130 0 -130 132v362h40v-354q-1 -54 24 -79t77 -25q46 0 90.5 21t113.5 69v368z" />
    <glyph glyph-name="ucircumflex" unicode="&#xfb;" horiz-adv-x="563" 
d="M276 666l-129 -101l-17 19l135 119h29l135 -119l-15 -19l-130 101h-8zM432 482h40v-482h-31l-4 83q-118 -95 -220 -95q-130 0 -130 132v362h40v-354q-1 -54 24 -79t77 -25q46 0 90.5 21t113.5 69v368z" />
    <glyph glyph-name="udieresis" unicode="&#xfc;" horiz-adv-x="563" 
d="M184 595q-13 0 -13 14v56q0 14 13 14h15q14 0 14 -14v-56q0 -14 -14 -14h-15zM361 595q-13 0 -13 14v56q0 14 13 14h15q14 0 14 -14v-56q0 -14 -14 -14h-15zM432 482h40v-482h-31l-4 83q-118 -95 -220 -95q-130 0 -130 132v362h40v-354q-1 -54 24 -79t77 -25
q46 0 90.5 21t113.5 69v368z" />
    <glyph glyph-name="yacute" unicode="&#xfd;" horiz-adv-x="512" 
d="M386 690l-163 -135l-18 19l155 146zM443 482h42l-214 -524q-28 -70 -66 -111.5t-104 -55.5l-6 25q55 20 86.5 57t53.5 93l14 34h-13q-12 0 -17 12l-192 470h43l158 -395q2 -6 6.5 -17t8 -20t6.5 -17h14q2 6 9.5 25.5t11.5 29.5z" />
    <glyph glyph-name="thorn" unicode="&#xfe;" horiz-adv-x="565" 
d="M323 494q94 0 134 -58.5t40 -195.5t-40.5 -194.5t-134.5 -57.5t-195 52q3 -25 3 -93v-155h-39v908h39v-195q0 -69 -3 -95q101 84 196 84zM315 23q76 0 108.5 49t32.5 168q0 120 -32 169t-108 49q-78 0 -186 -82v-307q113 -46 185 -46z" />
    <glyph glyph-name="ydieresis" unicode="&#xff;" horiz-adv-x="512" 
d="M162 594q-13 0 -13 14v56q0 14 13 14h15q14 0 14 -14v-56q0 -14 -14 -14h-15zM339 594q-13 0 -13 14v56q0 14 13 14h15q14 0 14 -14v-56q0 -14 -14 -14h-15zM443 482h42l-214 -524q-28 -70 -66 -111.5t-104 -55.5l-6 25q55 20 86.5 57t53.5 93l14 34h-13q-12 0 -17 12
l-192 470h43l158 -395q2 -6 6.5 -17t8 -20t6.5 -17h14q2 6 9.5 25.5t11.5 29.5z" />
    <glyph glyph-name="Amacron" unicode="&#x100;" horiz-adv-x="608" 
d="M436 831v-33h-264v33h264zM548 0l-85 243h-318l-85 -243h-43l241 677q5 13 18 13h56q13 0 18 -13l241 -677h-43zM158 279h292l-112 321l-20 56h-28l-20 -56z" />
    <glyph glyph-name="amacron" unicode="&#x101;" horiz-adv-x="541" 
d="M401 651v-33h-264v33h264zM312 494q142 0 142 -140v-354h-30l-7 90q-36 -36 -99 -66.5t-125 -30.5t-96.5 32.5t-34.5 92.5v60q0 55 31.5 85t88.5 30h232v61q0 50 -24 77t-83 27q-86 0 -221 -15l-4 30q152 21 230 21zM197 30q50 -1 112 25t105 67v139l-228 -3
q-83 -1 -83 -83v-54q0 -90 94 -91z" />
    <glyph glyph-name="Abreve" unicode="&#x102;" horiz-adv-x="608" 
d="M304 751q-65 0 -103 32t-37 87l24 4q0 -42 31 -65.5t85 -23.5q53 0 83.5 23.5t30.5 65.5l25 -4q1 -55 -36.5 -87t-102.5 -32zM548 0l-85 243h-318l-85 -243h-43l241 677q5 13 18 13h56q13 0 18 -13l241 -677h-43zM158 279h292l-112 321l-20 56h-28l-20 -56z" />
    <glyph glyph-name="abreve" unicode="&#x103;" horiz-adv-x="541" 
d="M269 571q-65 0 -103 32t-37 87l24 4q0 -42 31 -65.5t85 -23.5q53 0 83.5 23.5t30.5 65.5l25 -4q1 -55 -36.5 -87t-102.5 -32zM312 494q142 0 142 -140v-354h-30l-7 90q-36 -36 -99 -66.5t-125 -30.5t-96.5 32.5t-34.5 92.5v60q0 55 31.5 85t88.5 30h232v61q0 50 -24 77
t-83 27q-86 0 -221 -15l-4 30q152 21 230 21zM197 30q50 -1 112 25t105 67v139l-228 -3q-83 -1 -83 -83v-54q0 -90 94 -91z" />
    <glyph glyph-name="Aogonek" unicode="&#x104;" horiz-adv-x="608" 
d="M596 -176l5 -18q-80 -32 -113 -7.5t-13 79.5q22 61 90 122h-17l-85 243h-318l-85 -243h-43l241 677q5 13 18 13h56q13 0 18 -13l241 -677q-61 -61 -84 -123q-16 -44 9.5 -58t79.5 5zM158 279h292l-112 321l-20 56h-28l-20 -56z" />
    <glyph glyph-name="aogonek" unicode="&#x105;" horiz-adv-x="541" 
d="M459 -176l5 -18q-80 -32 -113 -7.5t-13 79.5q22 61 90 122h-4l-7 90q-36 -36 -99 -66.5t-125 -30.5t-96.5 32.5t-34.5 92.5v60q0 55 31.5 85t88.5 30h232v61q0 50 -24 77t-83 27q-86 0 -221 -15l-4 30q152 21 230 21q142 0 142 -140v-354q-61 -61 -84 -123
q-16 -44 9.5 -58t79.5 5zM197 30q50 -1 112 25t105 67v139l-228 -3q-83 -1 -83 -83v-54q0 -90 94 -91z" />
    <glyph glyph-name="Cacute" unicode="&#x106;" horiz-adv-x="563" 
d="M423 901l26 -30l-163 -135l-18 19zM331 702q105 0 178 -18l-7 -30q-78 11 -171 11q-121 0 -168.5 -70.5t-47.5 -249.5t47.5 -249.5t168.5 -70.5q108 0 185 13l7 -31q-79 -19 -192 -19q-143 0 -201 80t-58 277t58 277t201 80z" />
    <glyph glyph-name="cacute" unicode="&#x107;" horiz-adv-x="481" 
d="M373 720l26 -30l-163 -135l-18 19zM287 494q87 0 141 -19l-7 -27q-53 10 -127 10q-104 0 -145.5 -46.5t-41.5 -170.5t41.5 -170.5t145.5 -46.5q84 0 139 11l6 -28q-73 -19 -151 -19q-122 0 -172.5 57t-50.5 196t50.5 196t171.5 57z" />
    <glyph glyph-name="Ccircumflex" unicode="&#x108;" horiz-adv-x="563" 
d="M335 883l135 -119l-15 -19l-130 101h-8l-129 -101l-17 19l135 119h29zM331 702q105 0 178 -18l-7 -30q-78 11 -171 11q-121 0 -168.5 -70.5t-47.5 -249.5t47.5 -249.5t168.5 -70.5q108 0 185 13l7 -31q-79 -19 -192 -19q-143 0 -201 80t-58 277t58 277t201 80z" />
    <glyph glyph-name="ccircumflex" unicode="&#x109;" horiz-adv-x="481" 
d="M285 702l135 -119l-15 -19l-130 101h-8l-129 -101l-17 19l135 119h29zM287 494q87 0 141 -19l-7 -27q-53 10 -127 10q-104 0 -145.5 -46.5t-41.5 -170.5t41.5 -170.5t145.5 -46.5q84 0 139 11l6 -28q-73 -19 -151 -19q-122 0 -172.5 57t-50.5 196t50.5 196t171.5 57z" />
    <glyph glyph-name="Cdotaccent" unicode="&#x10a;" horiz-adv-x="563" 
d="M329 861q16 0 16 -15v-61q0 -15 -16 -15h-14q-16 0 -16 15v61q0 15 16 15h14zM331 702q105 0 178 -18l-7 -30q-78 11 -171 11q-121 0 -168.5 -70.5t-47.5 -249.5t47.5 -249.5t168.5 -70.5q108 0 185 13l7 -31q-79 -19 -192 -19q-143 0 -201 80t-58 277t58 277t201 80z
" />
    <glyph glyph-name="cdotaccent" unicode="&#x10b;" horiz-adv-x="481" 
d="M279 680q16 0 16 -15v-61q0 -15 -16 -15h-14q-16 0 -16 15v61q0 15 16 15h14zM287 494q87 0 141 -19l-7 -27q-53 10 -127 10q-104 0 -145.5 -46.5t-41.5 -170.5t41.5 -170.5t145.5 -46.5q84 0 139 11l6 -28q-73 -19 -151 -19q-122 0 -172.5 57t-50.5 196t50.5 196
t171.5 57z" />
    <glyph glyph-name="Ccaron" unicode="&#x10c;" horiz-adv-x="563" 
d="M457 887l16 -18l-138 -120h-24l-139 120l18 18l129 -98h8zM331 702q105 0 178 -18l-7 -30q-78 11 -171 11q-121 0 -168.5 -70.5t-47.5 -249.5t47.5 -249.5t168.5 -70.5q108 0 185 13l7 -31q-79 -19 -192 -19q-143 0 -201 80t-58 277t58 277t201 80z" />
    <glyph glyph-name="ccaron" unicode="&#x10d;" horiz-adv-x="481" 
d="M407 706l16 -18l-138 -120h-24l-139 120l18 18l129 -98h8zM287 494q87 0 141 -19l-7 -27q-53 10 -127 10q-104 0 -145.5 -46.5t-41.5 -170.5t41.5 -170.5t145.5 -46.5q84 0 139 11l6 -28q-73 -19 -151 -19q-122 0 -172.5 57t-50.5 196t50.5 196t171.5 57z" />
    <glyph glyph-name="Dcaron" unicode="&#x10e;" horiz-adv-x="660" 
d="M335 749h-24l-139 120l18 18l129 -98h8l130 98l16 -18zM332 699q142 0 199 -79t57 -275t-57 -275t-199 -79q-111 0 -233 9v690q121 9 233 9zM332 28q119 0 166 70t47 247t-47 247t-166 70q-21 0 -192 -3v-628q168 -3 192 -3z" />
    <glyph glyph-name="dcaron" unicode="&#x10f;" horiz-adv-x="564" 
d="M553 702q15 0 15 -15v-55q-2 -59 -19 -114l-17 5q5 58 5 98q-12 0 -10 12l1 54q-2 15 14 15h11zM434 539v161h39v-700h-30l-6 80q-105 -92 -197 -92q-93 0 -133 59t-40 194q0 137 41 195t136 58q86 0 193 -48q-3 25 -3 93zM108 242q0 -120 32 -169t108 -49
q44 0 85.5 20.5t100.5 68.5v302q-114 43 -185 43q-77 0 -109 -48t-32 -168z" />
    <glyph glyph-name="Dcroat" unicode="&#x110;" 
d="M335 699q142 0 199 -79t57 -275t-57 -275t-199 -79q-111 0 -233 9v356h-77v28h77v306q121 9 233 9zM335 28q119 0 166 70t47 247t-47 247t-166 70q-21 0 -192 -3v-275h175v-28h-175v-325q168 -3 192 -3z" />
    <glyph glyph-name="dcroat" unicode="&#x111;" horiz-adv-x="557" 
d="M546 613v-27h-73v-586h-30l-6 80q-105 -92 -197 -92q-93 0 -133 59t-40 194q0 137 41 195t136 58q86 0 193 -48q-3 25 -3 93v47h-171v27h171v87h39v-87h73zM108 242q0 -120 32 -169t108 -49q44 0 85.5 20.5t100.5 68.5v302q-114 43 -185 43q-77 0 -109 -48t-32 -168z" />
    <glyph glyph-name="Emacron" unicode="&#x112;" horiz-adv-x="553" 
d="M442 854v-33h-264v33h264zM210 35h285l2 -31q-96 -4 -294 -4q-49 0 -79.5 29.5t-30.5 76.5v478q0 47 30.5 76.5t79.5 29.5q198 0 294 -4l-2 -31h-285q-34 0 -55 -21.5t-21 -56.5v-191l320 -1v-33l-320 -1v-238q0 -35 21 -56.5t55 -21.5z" />
    <glyph glyph-name="emacron" unicode="&#x113;" horiz-adv-x="530" 
d="M410 651v-33h-264v33h264zM289 24q83 0 165 12l5 -28q-60 -20 -175 -20q-117 0 -168 58.5t-51 196.5t48.5 194.5t162.5 56.5q191 0 194 -142q2 -66 -23.5 -98.5t-82.5 -32.5h-257q4 -110 46 -153.5t136 -43.5zM278 458q-94 0 -132 -45t-39 -159h251q74 0 71 96
q-1 56 -37.5 82t-113.5 26z" />
    <glyph glyph-name="Ebreve" unicode="&#x114;" horiz-adv-x="553" 
d="M310 774q-65 0 -103 32t-37 87l24 4q0 -42 31 -65.5t85 -23.5q53 0 83.5 23.5t30.5 65.5l25 -4q1 -55 -36.5 -87t-102.5 -32zM210 35h285l2 -31q-96 -4 -294 -4q-49 0 -79.5 29.5t-30.5 76.5v478q0 47 30.5 76.5t79.5 29.5q198 0 294 -4l-2 -31h-285q-34 0 -55 -21.5
t-21 -56.5v-191l320 -1v-33l-320 -1v-238q0 -35 21 -56.5t55 -21.5z" />
    <glyph glyph-name="ebreve" unicode="&#x115;" horiz-adv-x="530" 
d="M278 571q-65 0 -103 32t-37 87l24 4q0 -42 31 -65.5t85 -23.5q53 0 83.5 23.5t30.5 65.5l25 -4q1 -55 -36.5 -87t-102.5 -32zM289 24q83 0 165 12l5 -28q-60 -20 -175 -20q-117 0 -168 58.5t-51 196.5t48.5 194.5t162.5 56.5q191 0 194 -142q2 -66 -23.5 -98.5
t-82.5 -32.5h-257q4 -110 46 -153.5t136 -43.5zM278 458q-94 0 -132 -45t-39 -159h251q74 0 71 96q-1 56 -37.5 82t-113.5 26z" />
    <glyph glyph-name="Edotaccent" unicode="&#x116;" horiz-adv-x="553" 
d="M303 792q-16 0 -16 15v61q0 15 16 15h14q16 0 16 -15v-61q0 -15 -16 -15h-14zM210 35h285l2 -31q-96 -4 -294 -4q-49 0 -79.5 29.5t-30.5 76.5v478q0 47 30.5 76.5t79.5 29.5q198 0 294 -4l-2 -31h-285q-34 0 -55 -21.5t-21 -56.5v-191l320 -1v-33l-320 -1v-238
q0 -35 21 -56.5t55 -21.5z" />
    <glyph glyph-name="edotaccent" unicode="&#x117;" horiz-adv-x="530" 
d="M271 589q-16 0 -16 15v61q0 15 16 15h14q16 0 16 -15v-61q0 -15 -16 -15h-14zM289 24q83 0 165 12l5 -28q-60 -20 -175 -20q-117 0 -168 58.5t-51 196.5t48.5 194.5t162.5 56.5q191 0 194 -142q2 -66 -23.5 -98.5t-82.5 -32.5h-257q4 -110 46 -153.5t136 -43.5zM278 458
q-94 0 -132 -45t-39 -159h251q74 0 71 96q-1 56 -37.5 82t-113.5 26z" />
    <glyph glyph-name="Eogonek" unicode="&#x118;" horiz-adv-x="553" 
d="M502 -172l5 -18q-80 -32 -113 -7.5t-13 79.5q22 60 89 121q-88 -3 -267 -3q-49 0 -79.5 29.5t-30.5 76.5v478q0 47 30.5 76.5t79.5 29.5q198 0 294 -4l-2 -31h-285q-34 0 -55 -21.5t-21 -56.5v-191l320 -1v-33l-320 -1v-238q0 -35 21 -56.5t55 -21.5h285l2 -31
q-61 -61 -84 -123q-16 -44 9.5 -58t79.5 5z" />
    <glyph glyph-name="eogonek" unicode="&#x119;" horiz-adv-x="530" 
d="M375 -114q-16 -44 9.5 -58t79.5 5l5 -18q-80 -32 -113 -7.5t-13 79.5t80 113q-63 -12 -139 -12q-117 0 -168 58.5t-51 196.5t48.5 194.5t162.5 56.5q191 0 194 -142q2 -66 -23.5 -98.5t-82.5 -32.5h-257q4 -110 46 -153.5t136 -43.5q83 0 165 12l5 -27v-1h-1
q-60 -60 -83 -122zM278 458q-94 0 -132 -45t-39 -159h251q74 0 71 96q-1 56 -37.5 82t-113.5 26z" />
    <glyph glyph-name="Ecaron" unicode="&#x11a;" horiz-adv-x="553" 
d="M323 771h-24l-139 120l18 18l129 -98h8l130 98l16 -18zM210 35h285l2 -31q-96 -4 -294 -4q-49 0 -79.5 29.5t-30.5 76.5v478q0 47 30.5 76.5t79.5 29.5q198 0 294 -4l-2 -31h-285q-34 0 -55 -21.5t-21 -56.5v-191l320 -1v-33l-320 -1v-238q0 -35 21 -56.5t55 -21.5z" />
    <glyph glyph-name="ecaron" unicode="&#x11b;" horiz-adv-x="530" 
d="M291 568h-24l-139 120l18 18l129 -98h8l130 98l16 -18zM289 24q83 0 165 12l5 -28q-60 -20 -175 -20q-117 0 -168 58.5t-51 196.5t48.5 194.5t162.5 56.5q191 0 194 -142q2 -66 -23.5 -98.5t-82.5 -32.5h-257q4 -110 46 -153.5t136 -43.5zM278 458q-94 0 -132 -45
t-39 -159h251q74 0 71 96q-1 56 -37.5 82t-113.5 26z" />
    <glyph glyph-name="Gcircumflex" unicode="&#x11c;" horiz-adv-x="624" 
d="M320 848l-129 -101l-17 19l135 119h29l135 -119l-15 -19l-130 101h-8zM505 400h41v-400h-29l-8 84q-89 -96 -211 -96q-121 0 -173.5 84.5t-52.5 273.5q0 198 59 277t207 79q113 0 195 -18l-7 -30q-87 11 -187 11q-125 0 -174 -69t-49 -252q0 -171 43 -245t146 -74
q42 0 82 15.5t62 31.5t56 45v283z" />
    <glyph glyph-name="gcircumflex" unicode="&#x11d;" horiz-adv-x="548" 
d="M266 665l-129 -101l-17 19l135 119h29l135 -119l-15 -19l-130 101h-8zM521 482l-3 -26l-93 -4q39 -36 39 -109q0 -77 -45 -113t-150 -36q-73 0 -118 18q-20 -23 -24.5 -47t11.5 -44t54 -27l190 -33q62 -10 85.5 -39.5t23.5 -89.5q0 -78 -48.5 -109.5t-167.5 -31.5
q-123 0 -172.5 31t-49.5 109q0 52 15 81.5t57 51.5l15 8q-32 15 -43.5 43.5t-2 57.5t34.5 50q-56 34 -56 120q0 77 46 114t151 37q60 0 100 -12h151zM269 227q85 0 121 27.5t36 88.5t-35.5 89.5t-121.5 28.5q-85 0 -121.5 -28.5t-36.5 -89.5q0 -60 36.5 -88t121.5 -28z
M452 -67q0 47 -17 67.5t-69 29.5l-193 32h-2l-21 -13q-34 -21 -46 -46t-12 -70q0 -60 40 -83.5t142 -23.5q99 0 138.5 23.5t39.5 83.5z" />
    <glyph glyph-name="Gbreve" unicode="&#x11e;" horiz-adv-x="624" 
d="M325 754q-65 0 -103 32t-37 87l24 4q0 -42 31 -65.5t85 -23.5q53 0 83.5 23.5t30.5 65.5l25 -4q1 -55 -36.5 -87t-102.5 -32zM505 400h41v-400h-29l-8 84q-89 -96 -211 -96q-121 0 -173.5 84.5t-52.5 273.5q0 198 59 277t207 79q113 0 195 -18l-7 -30q-87 11 -187 11
q-125 0 -174 -69t-49 -252q0 -171 43 -245t146 -74q42 0 82 15.5t62 31.5t56 45v283z" />
    <glyph glyph-name="gbreve" unicode="&#x11f;" horiz-adv-x="548" 
d="M271 571q-65 0 -103 32t-37 87l24 4q0 -42 31 -65.5t85 -23.5q53 0 83.5 23.5t30.5 65.5l25 -4q1 -55 -36.5 -87t-102.5 -32zM521 482l-3 -26l-93 -4q39 -36 39 -109q0 -77 -45 -113t-150 -36q-73 0 -118 18q-20 -23 -24.5 -47t11.5 -44t54 -27l190 -33
q62 -10 85.5 -39.5t23.5 -89.5q0 -78 -48.5 -109.5t-167.5 -31.5q-123 0 -172.5 31t-49.5 109q0 52 15 81.5t57 51.5l15 8q-32 15 -43.5 43.5t-2 57.5t34.5 50q-56 34 -56 120q0 77 46 114t151 37q60 0 100 -12h151zM269 227q85 0 121 27.5t36 88.5t-35.5 89.5t-121.5 28.5
q-85 0 -121.5 -28.5t-36.5 -89.5q0 -60 36.5 -88t121.5 -28zM452 -67q0 47 -17 67.5t-69 29.5l-193 32h-2l-21 -13q-34 -21 -46 -46t-12 -70q0 -60 40 -83.5t142 -23.5q99 0 138.5 23.5t39.5 83.5z" />
    <glyph glyph-name="Gdotaccent" unicode="&#x120;" horiz-adv-x="624" 
d="M318 772q-16 0 -16 15v61q0 15 16 15h14q16 0 16 -15v-61q0 -15 -16 -15h-14zM505 400h41v-400h-29l-8 84q-89 -96 -211 -96q-121 0 -173.5 84.5t-52.5 273.5q0 198 59 277t207 79q113 0 195 -18l-7 -30q-87 11 -187 11q-125 0 -174 -69t-49 -252q0 -171 43 -245t146 -74
q42 0 82 15.5t62 31.5t56 45v283z" />
    <glyph glyph-name="gdotaccent" unicode="&#x121;" horiz-adv-x="548" 
d="M264 589q-16 0 -16 15v61q0 15 16 15h14q16 0 16 -15v-61q0 -15 -16 -15h-14zM521 482l-3 -26l-93 -4q39 -36 39 -109q0 -77 -45 -113t-150 -36q-73 0 -118 18q-20 -23 -24.5 -47t11.5 -44t54 -27l190 -33q62 -10 85.5 -39.5t23.5 -89.5q0 -78 -48.5 -109.5t-167.5 -31.5
q-123 0 -172.5 31t-49.5 109q0 52 15 81.5t57 51.5l15 8q-32 15 -43.5 43.5t-2 57.5t34.5 50q-56 34 -56 120q0 77 46 114t151 37q60 0 100 -12h151zM269 227q85 0 121 27.5t36 88.5t-35.5 89.5t-121.5 28.5q-85 0 -121.5 -28.5t-36.5 -89.5q0 -60 36.5 -88t121.5 -28z
M452 -67q0 47 -17 67.5t-69 29.5l-193 32h-2l-21 -13q-34 -21 -46 -46t-12 -70q0 -60 40 -83.5t142 -23.5q99 0 138.5 23.5t39.5 83.5z" />
    <glyph glyph-name="Gcommaaccent" unicode="&#x122;" horiz-adv-x="624" 
d="M505 400h41v-400h-29l-8 84q-89 -96 -211 -96q-121 0 -173.5 84.5t-52.5 273.5q0 198 59 277t207 79q113 0 195 -18l-7 -30q-87 11 -187 11q-125 0 -174 -69t-49 -252q0 -171 43 -245t146 -74q42 0 82 15.5t62 31.5t56 45v283zM329 -63q15 0 15 -15v-57q-2 -67 -21 -120
l-17 6q4 36 4 102q-10 0 -10 13l1 56q-1 8 3 11.5t13 3.5h12z" />
    <glyph glyph-name="gcommaaccent" unicode="&#x123;" horiz-adv-x="548" 
d="M270 564q-15 0 -15 15v57q2 67 21 120l17 -6q-4 -36 -4 -102q10 0 10 -13l-1 -56q1 -8 -3 -11.5t-13 -3.5h-12zM521 482l-3 -26l-93 -4q39 -36 39 -109q0 -77 -45 -113t-150 -36q-73 0 -118 18q-20 -23 -24.5 -47t11.5 -44t54 -27l190 -33q62 -10 85.5 -39.5t23.5 -89.5
q0 -78 -48.5 -109.5t-167.5 -31.5q-123 0 -172.5 31t-49.5 109q0 52 15 81.5t57 51.5l15 8q-32 15 -43.5 43.5t-2 57.5t34.5 50q-56 34 -56 120q0 77 46 114t151 37q60 0 100 -12h151zM269 227q85 0 121 27.5t36 88.5t-35.5 89.5t-121.5 28.5q-85 0 -121.5 -28.5
t-36.5 -89.5q0 -60 36.5 -88t121.5 -28zM452 -67q0 47 -17 67.5t-69 29.5l-193 32h-2l-21 -13q-34 -21 -46 -46t-12 -70q0 -60 40 -83.5t142 -23.5q99 0 138.5 23.5t39.5 83.5z" />
    <glyph glyph-name="Hcircumflex" unicode="&#x124;" horiz-adv-x="660" 
d="M326 852l-129 -101l-17 19l135 119h29l135 -119l-15 -19l-130 101h-8zM520 690h41v-690h-41v352h-380v-352h-41v690h41v-302h380v302z" />
    <glyph glyph-name="hcircumflex" unicode="&#x125;" horiz-adv-x="572" 
d="M112 813h-8l-129 -101l-17 19l135 119h29l135 -119l-15 -19zM355 494q130 0 130 -132v-362h-40v354q0 54 -24 79t-75 25q-49 0 -96.5 -21.5t-119.5 -70.5v-366h-40v700h40l1 -209q0 -61 -5 -94q129 97 229 97z" />
    <glyph glyph-name="Hbar" unicode="&#x126;" horiz-adv-x="668" 
d="M642 550v-27h-77v-523h-41v352h-380v-352h-41v523h-78v27h78v140h41v-140h380v140h41v-140h77zM524 388v135h-380v-135h380z" />
    <glyph glyph-name="hbar" unicode="&#x127;" horiz-adv-x="576" 
d="M359 494q130 0 130 -132v-362h-40v354q0 54 -24 79t-75 25q-49 0 -96.5 -21.5t-119.5 -70.5v-366h-40v586h-83v27h83v87h40v-87h160v-27h-159v-95q0 -61 -5 -94q129 97 229 97z" />
    <glyph glyph-name="Itilde" unicode="&#x128;" horiz-adv-x="239" 
d="M46 869q30 -3 71.5 -33t70.5 -32q30 -2 43 12t13 48h23q3 -46 -18 -70.5t-58 -21.5q-36 3 -78 33t-65 32q-29 3 -42 -12.5t-13 -50.5h-23q-2 49 18.5 73.5t57.5 21.5zM140 690v-690h-41v690h41z" />
    <glyph glyph-name="itilde" unicode="&#x129;" horiz-adv-x="228" 
d="M40 688q30 -3 71.5 -33t70.5 -32q30 -2 43 12t13 48h23q3 -46 -18 -70.5t-58 -21.5q-36 3 -78 33t-65 32q-55 6 -55 -63h-23q-2 49 18.5 73.5t57.5 21.5zM134 482v-482h-40v482h40z" />
    <glyph glyph-name="Imacron" unicode="&#x12a;" horiz-adv-x="239" 
d="M251 832v-33h-264v33h264zM140 690v-690h-41v690h41z" />
    <glyph glyph-name="imacron" unicode="&#x12b;" horiz-adv-x="228" 
d="M245 651v-33h-264v33h264zM134 482v-482h-40v482h40z" />
    <glyph glyph-name="Ibreve" unicode="&#x12c;" horiz-adv-x="239" 
d="M233 875l25 -4q1 -55 -36.5 -87t-102.5 -32t-103 32t-37 87l24 4q0 -42 31 -65.5t85 -23.5q53 0 83.5 23.5t30.5 65.5zM140 690v-690h-41v690h41z" />
    <glyph glyph-name="ibreve" unicode="&#x12d;" horiz-adv-x="228" 
d="M227 694l25 -4q1 -55 -36.5 -87t-102.5 -32t-103 32t-37 87l24 4q0 -42 31 -65.5t85 -23.5q53 0 83.5 23.5t30.5 65.5zM134 482v-482h-40v482h40z" />
    <glyph glyph-name="Iogonek" unicode="&#x12e;" horiz-adv-x="239" 
d="M143 -176l5 -18q-80 -32 -113 -7.5t-13 79.5q22 61 90 122h-13v690h41v-690h-2q-61 -61 -84 -123q-16 -44 9.5 -58t79.5 5z" />
    <glyph glyph-name="iogonek" unicode="&#x12f;" horiz-adv-x="228" 
d="M106 589q-16 0 -16 15v61q0 15 16 15h14q16 0 16 -15v-61q0 -15 -16 -15h-14zM137 -176l5 -18q-80 -32 -113 -7.5t-13 79.5q22 61 90 122h-12v482h40v-482h-2q-61 -61 -84 -123q-16 -44 9.5 -58t79.5 5z" />
    <glyph glyph-name="Idotaccent" unicode="&#x130;" horiz-adv-x="239" 
d="M126 861q16 0 16 -15v-61q0 -15 -16 -15h-14q-16 0 -16 15v61q0 15 16 15h14zM140 690v-690h-41v690h41z" />
    <glyph glyph-name="dotlessi" unicode="&#x131;" horiz-adv-x="228" 
d="M134 482v-482h-40v482h40z" />
    <glyph glyph-name="IJ" unicode="&#x132;" horiz-adv-x="567" 
d="M140 690v-690h-41v690h41zM471 690v-567q0 -65 -31.5 -98t-93.5 -32q-33 0 -71 8l5 28h56q94 0 94 94v567h41z" />
    <glyph glyph-name="ij" unicode="&#x133;" horiz-adv-x="455" 
d="M123 683q15 0 15 -16v-60q0 -16 -15 -16h-18q-16 0 -16 16v60q0 16 16 16h18zM350 683q15 0 15 -16v-60q0 -16 -15 -16h-18q-15 0 -15 16v60q0 16 15 16h18zM133 482v-482h-39v482h39zM361 482v-519q0 -98 -73 -171l-22 17q55 71 55 154v519h40z" />
    <glyph glyph-name="Jcircumflex" unicode="&#x134;" horiz-adv-x="328" 
d="M222 888l135 -119l-15 -19l-130 101h-8l-129 -101l-17 19l135 119h29zM232 690v-567q0 -65 -31.5 -98t-93.5 -32q-33 0 -71 8l5 28h56q94 0 94 94v567h41z" />
    <glyph glyph-name="jcircumflex" unicode="&#x135;" horiz-adv-x="228" 
d="M126 702l135 -119l-15 -19l-130 101h-8l-129 -101l-17 19l135 119h29zM134 482v-519q0 -98 -73 -171l-22 17q55 71 55 154v519h40z" />
    <glyph glyph-name="Kcommaaccent" unicode="&#x136;" horiz-adv-x="570" 
d="M302 329l238 -329h-48l-250 343h-106q3 -43 3 -83v-260h-40v690h40v-231q0 -45 -4 -82h108l234 313h47l-223 -300q-9 -14 -27 -29v-2q16 -15 28 -30zM314 -63q15 0 15 -15v-57q-2 -67 -21 -120l-17 6q4 36 4 102q-10 0 -10 13l1 56q-1 8 3 11.5t13 3.5h12z" />
    <glyph glyph-name="kcommaaccent" unicode="&#x137;" horiz-adv-x="482" 
d="M264 244l189 -244h-48l-199 259h-79q3 -44 3 -85v-174h-40v700h40l1 -327q0 -45 -4 -82h78l183 191h49l-173 -184q-16 -15 -26 -23v-2q14 -12 26 -29zM271 -63q15 0 15 -15v-57q-2 -67 -21 -120l-17 6q4 36 4 102q-10 0 -10 13l1 56q-1 8 3 11.5t13 3.5h12z" />
    <glyph glyph-name="kgreenlandic" unicode="&#x138;" horiz-adv-x="482" 
d="M405 0l-198 237h-80q3 -44 3 -85v-152h-40v482h40l1 -130q1 -45 -4 -83h77l184 213h49l-174 -200q-14 -16 -26 -24v-2q14 -14 26 -29l190 -227h-48z" />
    <glyph glyph-name="Lacute" unicode="&#x139;" horiz-adv-x="509" 
d="M221 906l26 -30l-163 -135l-18 19zM137 690v-577q0 -35 21.5 -56.5t56.5 -21.5h266l1 -30q-90 -5 -274 -5q-52 0 -82 30.5t-30 78.5v581h41z" />
    <glyph glyph-name="lacute" unicode="&#x13a;" horiz-adv-x="277" 
d="M213 923l26 -30l-163 -135l-18 19zM131 700l-1 -594q0 -76 77 -76h55l5 -29q-24 -8 -70 -8q-49 0 -77.5 28t-28.5 79v600h40z" />
    <glyph glyph-name="Lcommaaccent" unicode="&#x13b;" horiz-adv-x="509" 
d="M137 690v-577q0 -35 21.5 -56.5t56.5 -21.5h266l1 -30q-90 -5 -274 -5q-52 0 -82 30.5t-30 78.5v581h41zM306 -71q15 0 15 -15v-57q-2 -67 -21 -120l-17 6q4 36 4 102q-10 0 -10 13l1 56q-1 8 3 11.5t13 3.5h12z" />
    <glyph glyph-name="lcommaaccent" unicode="&#x13c;" horiz-adv-x="277" 
d="M131 700l-1 -594q0 -76 77 -76h55l5 -29q-24 -8 -70 -8q-49 0 -77.5 28t-28.5 79v600h40zM174 -71q15 0 15 -15v-57q-2 -67 -21 -120l-17 6q4 36 4 102q-10 0 -10 13l1 56q-1 8 3 11.5t13 3.5h12z" />
    <glyph glyph-name="Lcaron" unicode="&#x13d;" horiz-adv-x="509" 
d="M307 691q15 0 15 -15v-55q-2 -59 -19 -114l-17 5q5 58 5 98q-12 0 -10 12l1 54q-2 15 14 15h11zM137 690v-577q0 -35 21.5 -56.5t56.5 -21.5h266l1 -30q-90 -5 -274 -5q-52 0 -82 30.5t-30 78.5v581h41z" />
    <glyph glyph-name="lcaron" unicode="&#x13e;" horiz-adv-x="277" 
d="M235 702q15 0 15 -15v-55q-2 -59 -19 -114l-17 5q5 58 5 98q-12 0 -10 12l1 54q-2 15 14 15h11zM131 700l-1 -594q0 -76 77 -76h55l5 -29q-24 -8 -70 -8q-49 0 -77.5 28t-28.5 79v600h40z" />
    <glyph glyph-name="Ldot" unicode="&#x13f;" horiz-adv-x="509" 
d="M137 690v-577q0 -35 21.5 -56.5t56.5 -21.5h266l1 -30q-90 -5 -274 -5q-52 0 -82 30.5t-30 78.5v581h41zM291 -123q-16 0 -16 15v61q0 15 16 15h14q16 0 16 -15v-61q0 -15 -16 -15h-14z" />
    <glyph glyph-name="ldot" unicode="&#x140;" horiz-adv-x="297" 
d="M131 700l-1 -594q0 -76 77 -76h55l5 -29q-24 -8 -70 -8q-49 0 -77.5 28t-28.5 79v600h40zM248 344q-16 0 -16 15v61q0 15 16 15h14q16 0 16 -15v-61q0 -15 -16 -15h-14z" />
    <glyph glyph-name="Lslash" unicode="&#x141;" horiz-adv-x="513" 
d="M486 35l1 -30q-90 -5 -274 -5q-52 0 -82 30.5t-30 78.5v242l-76 -33v30l76 33v309h41v-291l125 54v-29l-125 -55v-256q0 -35 21.5 -56.5t56.5 -21.5h266z" />
    <glyph glyph-name="lslash" unicode="&#x142;" horiz-adv-x="309" 
d="M285 30l5 -29q-24 -8 -70 -8q-49 0 -77.5 28t-28.5 79v255l-86 -37v30l86 37v315h40l-1 -298l117 51v-30l-117 -51v-266q0 -76 77 -76h55z" />
    <glyph glyph-name="Nacute" unicode="&#x143;" horiz-adv-x="692" 
d="M461 901l26 -30l-163 -135l-18 19zM593 690v-670q0 -20 -19 -20h-54q-16 0 -23 15l-298 564q-28 54 -37 74h-23q1 -25 1 -75v-578h-41v670q0 20 20 20h50q17 0 24 -15l290 -551q7 -13 45 -86h25q0 16 -0.5 47.5t-0.5 46.5v558h41z" />
    <glyph glyph-name="nacute" unicode="&#x144;" horiz-adv-x="573" 
d="M423 690l-163 -135l-18 19l155 146zM356 494q130 0 130 -132v-362h-40v354q0 54 -24 79t-75 25q-49 0 -96.5 -21.5t-120.5 -70.5v-366h-39v482h32l4 -85q121 97 229 97z" />
    <glyph glyph-name="Ncommaaccent" unicode="&#x145;" horiz-adv-x="692" 
d="M593 690v-670q0 -20 -19 -20h-54q-16 0 -23 15l-298 564q-28 54 -37 74h-23q1 -25 1 -75v-578h-41v670q0 20 20 20h50q17 0 24 -15l290 -551q7 -13 45 -86h25q0 16 -0.5 47.5t-0.5 46.5v558h41zM339 -63q15 0 15 -15v-57q-2 -67 -21 -120l-17 6q4 36 4 102q-10 0 -10 13
l1 56q-1 8 3 11.5t13 3.5h12z" />
    <glyph glyph-name="ncommaaccent" unicode="&#x146;" horiz-adv-x="573" 
d="M356 494q130 0 130 -132v-362h-40v354q0 54 -24 79t-75 25q-49 0 -96.5 -21.5t-120.5 -70.5v-366h-39v482h32l4 -85q121 97 229 97zM297 -63q15 0 15 -15v-57q-2 -67 -21 -120l-17 6q4 36 4 102q-10 0 -10 13l1 56q-1 8 3 11.5t13 3.5h12z" />
    <glyph glyph-name="Ncaron" unicode="&#x147;" horiz-adv-x="692" 
d="M495 887l16 -18l-138 -120h-24l-139 120l18 18l129 -98h8zM593 690v-670q0 -20 -19 -20h-54q-16 0 -23 15l-298 564q-28 54 -37 74h-23q1 -25 1 -75v-578h-41v670q0 20 20 20h50q17 0 24 -15l290 -551q7 -13 45 -86h25q0 16 -0.5 47.5t-0.5 46.5v558h41z" />
    <glyph glyph-name="ncaron" unicode="&#x148;" horiz-adv-x="573" 
d="M309 568h-24l-139 120l18 18l129 -98h8l130 98l16 -18zM356 494q130 0 130 -132v-362h-40v354q0 54 -24 79t-75 25q-49 0 -96.5 -21.5t-120.5 -70.5v-366h-39v482h32l4 -85q121 97 229 97z" />
    <glyph glyph-name="Eng" unicode="&#x14a;" horiz-adv-x="692" 
d="M593 690v-785q0 -62 -31.5 -94t-93.5 -31q-35 0 -70 7l5 26h55q96 0 96 94v93h-33q-14 0 -20 15l-302 560q-31 59 -38 74h-22q1 -25 1 -76v-573h-41v670q0 20 20 20h46q15 0 24 -15l294 -547q7 -14 45 -86h25q0 16 -0.5 47t-0.5 46v555h41z" />
    <glyph glyph-name="eng" unicode="&#x14b;" horiz-adv-x="573" 
d="M356 494q130 0 130 -132v-446q0 -62 -28.5 -94t-85.5 -31q-11 0 -63 8l5 26h47q85 0 85 94v435q0 53 -24 78t-76 25q-48 0 -97 -21.5t-119 -69.5v-366h-39v482h30l4 -86q126 98 231 98z" />
    <glyph glyph-name="Omacron" unicode="&#x14c;" 
d="M465 832v-33h-264v33h264zM332 702q144 0 201.5 -79t57.5 -278t-57.5 -278t-201.5 -79t-202 79.5t-58 277.5t58 277.5t202 79.5zM332 665q-121 0 -169 -71t-48 -249t48 -249t169 -71t168.5 70.5t47.5 249.5t-47.5 249.5t-168.5 70.5z" />
    <glyph glyph-name="omacron" unicode="&#x14d;" horiz-adv-x="562" 
d="M413 650v-33h-264v33h264zM281 494q118 0 166.5 -57t48.5 -196t-48 -196t-167 -57t-167 57t-48 196t48.5 196t166.5 57zM281 458q-97 0 -135 -47t-38 -170t38 -170.5t135 -47.5t135.5 47.5t38.5 170.5t-38.5 170t-135.5 47z" />
    <glyph glyph-name="Obreve" unicode="&#x14e;" 
d="M447 875l25 -4q1 -55 -36.5 -87t-102.5 -32t-103 32t-37 87l24 4q0 -42 31 -65.5t85 -23.5q53 0 83.5 23.5t30.5 65.5zM332 702q144 0 201.5 -79t57.5 -278t-57.5 -278t-201.5 -79t-202 79.5t-58 277.5t58 277.5t202 79.5zM332 665q-121 0 -169 -71t-48 -249t48 -249
t169 -71t168.5 70.5t47.5 249.5t-47.5 249.5t-168.5 70.5z" />
    <glyph glyph-name="obreve" unicode="&#x14f;" horiz-adv-x="562" 
d="M395 693l25 -4q1 -55 -36.5 -87t-102.5 -32t-103 32t-37 87l24 4q0 -42 31 -65.5t85 -23.5q53 0 83.5 23.5t30.5 65.5zM281 494q118 0 166.5 -57t48.5 -196t-48 -196t-167 -57t-167 57t-48 196t48.5 196t166.5 57zM281 458q-97 0 -135 -47t-38 -170t38 -170.5t135 -47.5
t135.5 47.5t38.5 170.5t-38.5 170t-135.5 47z" />
    <glyph glyph-name="Ohungarumlaut" unicode="&#x150;" 
d="M336 909l32 -22l-121 -154l-22 14zM482 909l32 -22l-121 -154l-22 14zM332 702q144 0 201.5 -79t57.5 -278t-57.5 -278t-201.5 -79t-202 79.5t-58 277.5t58 277.5t202 79.5zM332 665q-121 0 -169 -71t-48 -249t48 -249t169 -71t168.5 70.5t47.5 249.5t-47.5 249.5
t-168.5 70.5z" />
    <glyph glyph-name="ohungarumlaut" unicode="&#x151;" horiz-adv-x="562" 
d="M284 727l32 -22l-121 -154l-22 14zM430 727l32 -22l-121 -154l-22 14zM281 494q118 0 166.5 -57t48.5 -196t-48 -196t-167 -57t-167 57t-48 196t48.5 196t166.5 57zM281 458q-97 0 -135 -47t-38 -170t38 -170.5t135 -47.5t135.5 47.5t38.5 170.5t-38.5 170t-135.5 47z
" />
    <glyph glyph-name="OE" unicode="&#x152;" horiz-adv-x="895" 
d="M572 35h266l1 -31q-92 -4 -280 -4q-36 0 -65 21q-76 -33 -162 -33q-144 0 -202 79.5t-58 277.5t58 277.5t202 79.5q51 0 84.5 -7t78.5 -26q29 21 66 21q186 0 278 -4l-1 -31h-266q-35 0 -56.5 -21.5t-21.5 -56.5v-191l302 -1v-33l-302 -1v-238q0 -35 21.5 -56.5
t56.5 -21.5zM115 345q0 -178 48 -249t169 -71q70 0 137 24q-16 27 -16 60v472q0 33 16 60q-66 24 -137 24q-121 0 -169 -70t-48 -250z" />
    <glyph glyph-name="oe" unicode="&#x153;" horiz-adv-x="918" 
d="M679 24q84 0 164 12l5 -28q-58 -20 -175 -20q-154 0 -197 107q-21 -57 -67.5 -82t-127.5 -25q-119 0 -167 57t-48 196t48.5 196t166.5 57q80 0 126 -24.5t68 -79.5q21 55 66.5 79.5t122.5 24.5q193 0 195 -140q1 -73 -32 -102.5t-113 -29.5h-218q4 -111 46 -154.5
t137 -43.5zM281 23q92 0 131 42t43 149q-1 9 -1 29v27q-4 105 -43 146.5t-130 41.5q-97 0 -135 -47t-38 -170t38 -170.5t135 -47.5zM665 458q-92 0 -130 -45.5t-39 -158.5h217q59 0 83 22t23 77q-5 105 -154 105z" />
    <glyph glyph-name="Racute" unicode="&#x154;" horiz-adv-x="610" 
d="M430 871l-163 -135l-18 19l155 146zM481 220l73 -220h-45l-70 217q-30 87 -108 87q-74 0 -191 3v-307h-41v690q81 8 225 8q115 0 160 -41t45 -154q0 -90 -29.5 -131.5t-97.5 -50.5v-5q53 -15 79 -96zM324 341q92 2 127.5 35t35.5 126t-35.5 126.5t-127.5 33.5
q-108 0 -184 -2v-319h184z" />
    <glyph glyph-name="racute" unicode="&#x155;" horiz-adv-x="388" 
d="M348 690l-163 -135l-18 19l155 146zM346 494h20l-6 -38h-20q-46 0 -91.5 -20.5t-118.5 -67.5v-368h-39v482h30l5 -86q122 98 220 98z" />
    <glyph glyph-name="Rcommaaccent" unicode="&#x156;" horiz-adv-x="610" 
d="M481 220l73 -220h-45l-70 217q-30 87 -108 87q-74 0 -191 3v-307h-41v690q81 8 225 8q115 0 160 -41t45 -154q0 -90 -29.5 -131.5t-97.5 -50.5v-5q53 -15 79 -96zM324 341q92 2 127.5 35t35.5 126t-35.5 126.5t-127.5 33.5q-108 0 -184 -2v-319h184zM335 -63q15 0 15 -15
v-57q-2 -67 -21 -120l-17 6q4 36 4 102q-10 0 -10 13l1 56q-1 8 3 11.5t13 3.5h12z" />
    <glyph glyph-name="rcommaaccent" unicode="&#x157;" horiz-adv-x="388" 
d="M346 494h20l-6 -38h-20q-46 0 -91.5 -20.5t-118.5 -67.5v-368h-39v482h30l5 -86q122 98 220 98zM111 -63q15 0 15 -15v-57q-2 -67 -21 -120l-17 6q4 36 4 102q-10 0 -10 13l1 56q-1 8 3 11.5t13 3.5h12z" />
    <glyph glyph-name="Rcaron" unicode="&#x158;" horiz-adv-x="610" 
d="M316 749h-24l-139 120l18 18l129 -98h8l130 98l16 -18zM481 220l73 -220h-45l-70 217q-30 87 -108 87q-74 0 -191 3v-307h-41v690q81 8 225 8q115 0 160 -41t45 -154q0 -90 -29.5 -131.5t-97.5 -50.5v-5q53 -15 79 -96zM324 341q92 2 127.5 35t35.5 126t-35.5 126.5
t-127.5 33.5q-108 0 -184 -2v-319h184z" />
    <glyph glyph-name="rcaron" unicode="&#x159;" horiz-adv-x="388" 
d="M234 568h-24l-139 120l18 18l129 -98h8l130 98l16 -18zM126 396q122 98 220 98h20l-6 -38h-20q-46 0 -91.5 -20.5t-118.5 -67.5v-368h-39v482h30z" />
    <glyph glyph-name="Sacute" unicode="&#x15a;" horiz-adv-x="556" 
d="M382 901l26 -30l-163 -135l-18 19zM275 701q107 -2 192 -14l-4 -30q-138 7 -187 7q-36 0 -55 -1t-42 -5t-34 -13t-22 -24.5t-14.5 -39.5t-3.5 -59q0 -70 23.5 -101.5t79.5 -40.5l150 -25q76 -11 107.5 -53.5t31.5 -130.5q0 -60 -13 -97t-43 -55.5t-65.5 -24t-94.5 -5.5
q-112 0 -206 13l3 31q118 -8 205 -7q52 1 81 6t51.5 20t31 43.5t8.5 75.5q0 75 -24 106t-83 40l-150 25q-72 11 -103.5 54t-31.5 127q0 61 12 97.5t41.5 54t64 22.5t94.5 4z" />
    <glyph glyph-name="sacute" unicode="&#x15b;" horiz-adv-x="501" 
d="M355 720l26 -30l-163 -135l-18 19zM239 494q108 -2 191 -13l-4 -29q-115 6 -183 7q-86 2 -115.5 -13.5t-29.5 -80.5q0 -47 19 -67t59 -26l157 -23q55 -9 82.5 -38.5t27.5 -86.5q0 -85 -44 -110t-150 -25q-96 0 -179 12l4 29q86 -7 171 -6q93 1 126 19.5t33 80.5
q0 44 -21.5 64t-61.5 27l-157 23q-54 8 -79.5 37.5t-25.5 89.5q0 84 40 107.5t140 21.5z" />
    <glyph glyph-name="Scircumflex" unicode="&#x15c;" horiz-adv-x="556" 
d="M294 883l135 -119l-15 -19l-130 101h-8l-129 -101l-17 19l135 119h29zM275 701q107 -2 192 -14l-4 -30q-138 7 -187 7q-36 0 -55 -1t-42 -5t-34 -13t-22 -24.5t-14.5 -39.5t-3.5 -59q0 -70 23.5 -101.5t79.5 -40.5l150 -25q76 -11 107.5 -53.5t31.5 -130.5q0 -60 -13 -97
t-43 -55.5t-65.5 -24t-94.5 -5.5q-112 0 -206 13l3 31q118 -8 205 -7q52 1 81 6t51.5 20t31 43.5t8.5 75.5q0 75 -24 106t-83 40l-150 25q-72 11 -103.5 54t-31.5 127q0 61 12 97.5t41.5 54t64 22.5t94.5 4z" />
    <glyph glyph-name="scircumflex" unicode="&#x15d;" horiz-adv-x="501" 
d="M267 702l135 -119l-15 -19l-130 101h-8l-129 -101l-17 19l135 119h29zM239 494q108 -2 191 -13l-4 -29q-115 6 -183 7q-86 2 -115.5 -13.5t-29.5 -80.5q0 -47 19 -67t59 -26l157 -23q55 -9 82.5 -38.5t27.5 -86.5q0 -85 -44 -110t-150 -25q-96 0 -179 12l4 29
q86 -7 171 -6q93 1 126 19.5t33 80.5q0 44 -21.5 64t-61.5 27l-157 23q-54 8 -79.5 37.5t-25.5 89.5q0 84 40 107.5t140 21.5z" />
    <glyph glyph-name="Scedilla" unicode="&#x15e;" horiz-adv-x="556" 
d="M275 701q107 -2 192 -14l-4 -30q-138 7 -187 7q-36 0 -55 -1t-42 -5t-34 -13t-22 -24.5t-14.5 -39.5t-3.5 -59q0 -70 23.5 -101.5t79.5 -40.5l150 -25q76 -11 107.5 -53.5t31.5 -130.5q0 -60 -13 -97t-43 -55.5t-65.5 -24t-94.5 -5.5q-112 0 -206 13l3 31q118 -8 205 -7
q52 1 81 6t51.5 20t31 43.5t8.5 75.5q0 75 -24 106t-83 40l-150 25q-72 11 -103.5 54t-31.5 127q0 61 12 97.5t41.5 54t64 22.5t94.5 4zM250 -58q44 3 65.5 -12.5t20.5 -52.5q-1 -55 -41 -86.5t-105 -23.5l6 23q49 -2 78.5 23t29.5 62q0 25 -13 35t-46 11z" />
    <glyph glyph-name="scedilla" unicode="&#x15f;" horiz-adv-x="501" 
d="M239 494q108 -2 191 -13l-4 -29q-115 6 -183 7q-86 2 -115.5 -13.5t-29.5 -80.5q0 -47 19 -67t59 -26l157 -23q55 -9 82.5 -38.5t27.5 -86.5q0 -85 -44 -110t-150 -25q-96 0 -179 12l4 29q86 -7 171 -6q93 1 126 19.5t33 80.5q0 44 -21.5 64t-61.5 27l-157 23
q-54 8 -79.5 37.5t-25.5 89.5q0 84 40 107.5t140 21.5zM216 -58q44 3 65.5 -12.5t20.5 -52.5q-1 -55 -41 -86.5t-105 -23.5l6 23q49 -2 78.5 23t29.5 62q0 25 -13 35t-46 11z" />
    <glyph glyph-name="Scaron" unicode="&#x160;" horiz-adv-x="556" 
d="M416 887l16 -18l-138 -120h-24l-139 120l18 18l129 -98h8zM275 701q107 -2 192 -14l-4 -30q-138 7 -187 7q-36 0 -55 -1t-42 -5t-34 -13t-22 -24.5t-14.5 -39.5t-3.5 -59q0 -70 23.5 -101.5t79.5 -40.5l150 -25q76 -11 107.5 -53.5t31.5 -130.5q0 -60 -13 -97t-43 -55.5
t-65.5 -24t-94.5 -5.5q-112 0 -206 13l3 31q118 -8 205 -7q52 1 81 6t51.5 20t31 43.5t8.5 75.5q0 75 -24 106t-83 40l-150 25q-72 11 -103.5 54t-31.5 127q0 61 12 97.5t41.5 54t64 22.5t94.5 4z" />
    <glyph glyph-name="scaron" unicode="&#x161;" horiz-adv-x="501" 
d="M389 706l16 -18l-138 -120h-24l-139 120l18 18l129 -98h8zM239 494q108 -2 191 -13l-4 -29q-115 6 -183 7q-86 2 -115.5 -13.5t-29.5 -80.5q0 -47 19 -67t59 -26l157 -23q55 -9 82.5 -38.5t27.5 -86.5q0 -85 -44 -110t-150 -25q-96 0 -179 12l4 29q86 -7 171 -6
q93 1 126 19.5t33 80.5q0 44 -21.5 64t-61.5 27l-157 23q-54 8 -79.5 37.5t-25.5 89.5q0 84 40 107.5t140 21.5z" />
    <glyph glyph-name="uni0162" unicode="&#x162;" horiz-adv-x="568" 
d="M542 690v-36h-238v-654h-41v654h-237v36h516zM252 -47q44 3 65.5 -12.5t20.5 -52.5q-1 -55 -41 -86.5t-105 -23.5l6 23q49 -2 78.5 23t29.5 62q0 25 -13 35t-46 11z" />
    <glyph glyph-name="uni0163" unicode="&#x163;" horiz-adv-x="356" 
d="M331 448h-172v-342q0 -76 77 -76h84l5 -29q-45 -8 -92 -8q-114 0 -114 109v346h-87v29l87 5v149h40v-149h172v-34zM202 -54q44 3 65.5 -12.5t20.5 -52.5q-1 -55 -41 -86.5t-105 -23.5l6 23q49 -2 78.5 23t29.5 62q0 25 -13 35t-46 11z" />
    <glyph glyph-name="Tcaron" unicode="&#x164;" horiz-adv-x="568" 
d="M298 749h-24l-139 120l18 18l129 -98h8l130 98l16 -18zM542 690v-36h-238v-654h-41v654h-237v36h516z" />
    <glyph glyph-name="tcaron" unicode="&#x165;" horiz-adv-x="356" 
d="M269 669q-12 0 -10 12l1 54q-2 15 14 15h11q15 0 15 -15v-55q-2 -59 -19 -114l-17 5q5 58 5 98zM331 448h-172v-342q0 -76 77 -76h84l5 -29q-45 -8 -92 -8q-114 0 -114 109v346h-87v29l87 5v149h40v-149h172v-34z" />
    <glyph glyph-name="Tbar" unicode="&#x166;" horiz-adv-x="568" 
d="M542 654h-238v-250h147v-28h-147v-376h-41v376h-151v28h151v250h-237v36h516v-36z" />
    <glyph glyph-name="tbar" unicode="&#x167;" horiz-adv-x="356" 
d="M331 448h-172v-132h150v-27h-150v-183q0 -76 77 -76h84l5 -29q-45 -8 -92 -8q-114 0 -114 109v187h-71v27h71v132h-87v29l87 5v149h40v-149h172v-34z" />
    <glyph glyph-name="Utilde" unicode="&#x168;" horiz-adv-x="667" 
d="M262 869q30 -3 71.5 -33t70.5 -32q30 -2 43 12t13 48h23q3 -46 -18 -70.5t-58 -21.5q-36 3 -78 33t-65 32q-29 3 -42 -12.5t-13 -50.5h-23q-2 49 18.5 73.5t57.5 21.5zM573 690v-433q0 -146 -54 -207.5t-184 -61.5q-132 0 -186.5 61.5t-54.5 207.5v433h41v-433
q0 -128 44.5 -180t154.5 -52q108 0 153 52t45 180v433h41z" />
    <glyph glyph-name="utilde" unicode="&#x169;" horiz-adv-x="563" 
d="M155 594h-23q-2 49 18.5 73.5t57.5 21.5q30 -3 71.5 -33t70.5 -32q30 -2 43 12t13 48h23q3 -46 -18 -70.5t-58 -21.5q-36 3 -78 33t-65 32q-29 3 -42 -12.5t-13 -50.5zM432 482h40v-482h-31l-4 83q-118 -95 -220 -95q-130 0 -130 132v362h40v-354q-1 -54 24 -79t77 -25
q46 0 90.5 21t113.5 69v368z" />
    <glyph glyph-name="Umacron" unicode="&#x16a;" horiz-adv-x="667" 
d="M467 832v-33h-264v33h264zM573 690v-433q0 -146 -54 -207.5t-184 -61.5q-132 0 -186.5 61.5t-54.5 207.5v433h41v-433q0 -128 44.5 -180t154.5 -52q108 0 153 52t45 180v433h41z" />
    <glyph glyph-name="umacron" unicode="&#x16b;" horiz-adv-x="563" 
d="M413 652v-33h-264v33h264zM432 482h40v-482h-31l-4 83q-118 -95 -220 -95q-130 0 -130 132v362h40v-354q-1 -54 24 -79t77 -25q46 0 90.5 21t113.5 69v368z" />
    <glyph glyph-name="Ubreve" unicode="&#x16c;" horiz-adv-x="667" 
d="M449 875l25 -4q1 -55 -36.5 -87t-102.5 -32t-103 32t-37 87l24 4q0 -42 31 -65.5t85 -23.5q53 0 83.5 23.5t30.5 65.5zM573 690v-433q0 -146 -54 -207.5t-184 -61.5q-132 0 -186.5 61.5t-54.5 207.5v433h41v-433q0 -128 44.5 -180t154.5 -52q108 0 153 52t45 180v433h41z
" />
    <glyph glyph-name="ubreve" unicode="&#x16d;" horiz-adv-x="563" 
d="M281 572q-65 0 -103 32t-37 87l24 4q0 -42 31 -65.5t85 -23.5q53 0 83.5 23.5t30.5 65.5l25 -4q1 -55 -36.5 -87t-102.5 -32zM432 482h40v-482h-31l-4 83q-118 -95 -220 -95q-130 0 -130 132v362h40v-354q-1 -54 24 -79t77 -25q46 0 90.5 21t113.5 69v368z" />
    <glyph glyph-name="Uring" unicode="&#x16e;" horiz-adv-x="667" 
d="M335 914q41 0 70 -28.5t29 -68.5q0 -39 -29 -68.5t-70 -29.5t-70 28.5t-29 69.5q0 40 29 68.5t70 28.5zM335 889q-31 0 -51 -20.5t-20 -51.5q0 -32 20.5 -52.5t50.5 -20.5t50.5 20.5t20.5 52.5q0 31 -20.5 51.5t-50.5 20.5zM573 690v-433q0 -146 -54 -207.5t-184 -61.5
q-132 0 -186.5 61.5t-54.5 207.5v433h41v-433q0 -128 44.5 -180t154.5 -52q108 0 153 52t45 180v433h41z" />
    <glyph glyph-name="uring" unicode="&#x16f;" horiz-adv-x="563" 
d="M281 539q-41 0 -70 28.5t-29 69.5q0 40 29 68.5t70 28.5t70 -28.5t29 -68.5q0 -39 -29 -68.5t-70 -29.5zM281 709q-31 0 -51 -20.5t-20 -51.5q0 -32 20.5 -52.5t50.5 -20.5t50.5 20.5t20.5 52.5q0 31 -20.5 51.5t-50.5 20.5zM432 482h40v-482h-31l-4 83
q-118 -95 -220 -95q-130 0 -130 132v362h40v-354q-1 -54 24 -79t77 -25q46 0 90.5 21t113.5 69v368z" />
    <glyph glyph-name="Uhungarumlaut" unicode="&#x170;" horiz-adv-x="667" 
d="M338 909l32 -22l-121 -154l-22 14zM484 909l32 -22l-121 -154l-22 14zM573 690v-433q0 -146 -54 -207.5t-184 -61.5q-132 0 -186.5 61.5t-54.5 207.5v433h41v-433q0 -128 44.5 -180t154.5 -52q108 0 153 52t45 180v433h41z" />
    <glyph glyph-name="uhungarumlaut" unicode="&#x171;" horiz-adv-x="563" 
d="M316 707l-121 -154l-22 14l111 162zM462 707l-121 -154l-22 14l111 162zM432 482h40v-482h-31l-4 83q-118 -95 -220 -95q-130 0 -130 132v362h40v-354q-1 -54 24 -79t77 -25q46 0 90.5 21t113.5 69v368z" />
    <glyph glyph-name="Uogonek" unicode="&#x172;" horiz-adv-x="667" 
d="M532 690h41v-433q0 -135 -46 -197.5t-155 -70.5q-59 -59 -82 -121q-16 -44 9.5 -58t79.5 5l5 -18q-80 -32 -113 -7.5t-13 79.5q22 60 87 119h-10q-132 0 -186.5 61.5t-54.5 207.5v433h41v-433q0 -128 44.5 -180t154.5 -52q108 0 153 52t45 180v433z" />
    <glyph glyph-name="uogonek" unicode="&#x173;" horiz-adv-x="563" 
d="M478 -176l5 -18q-80 -32 -113 -7.5t-13 79.5q22 61 90 122h-6l-4 83q-118 -95 -220 -95q-130 0 -130 132v362h40v-354q-1 -54 24 -79t77 -25q46 0 90.5 21t113.5 69v368h40v-482h1q-61 -61 -84 -123q-16 -44 9.5 -58t79.5 5z" />
    <glyph glyph-name="Wcircumflex" unicode="&#x174;" horiz-adv-x="935" 
d="M481 883l135 -119l-15 -19l-130 101h-8l-129 -101l-17 19l135 119h29zM902 690l-172 -676q-4 -14 -19 -14h-57q-16 0 -19 15l-137 564q-7 26 -19 78h-23q-7 -26 -19 -78l-137 -564q-3 -15 -19 -15h-57q-15 0 -20 14l-172 676h44l146 -583q12 -48 17 -73h27q2 9 8 33.5
t9 38.5l139 568q3 16 19 16h53q14 0 19 -16l139 -567q6 -25 16 -73h27q3 12 8.5 36t8.5 36l147 584h43z" />
    <glyph glyph-name="wcircumflex" unicode="&#x175;" horiz-adv-x="815" 
d="M421 702l135 -119l-15 -19l-130 101h-8l-129 -101l-17 19l135 119h29zM783 482l-160 -469q-5 -13 -18 -13h-39q-14 0 -19 14l-113 365l-21 73h-11q-4 -14 -11.5 -38.5t-10.5 -34.5l-112 -365q-5 -14 -19 -14h-39q-13 0 -18 13l-160 469h42l128 -385q5 -13 12.5 -38
t8.5 -29h13l21 68l114 370q3 14 18 14h37q14 0 18 -14l115 -370q4 -16 20 -68h13q4 11 10.5 33.5t10.5 34.5l128 384h42z" />
    <glyph glyph-name="Ycircumflex" unicode="&#x176;" horiz-adv-x="548" 
d="M270 844l-129 -101l-17 19l135 119h29l135 -119l-15 -19l-130 101h-8zM528 690l-233 -437v-253h-42v255l-234 435h45l171 -322q6 -11 18 -35l18 -36h6l35 70l171 323h45z" />
    <glyph glyph-name="ycircumflex" unicode="&#x177;" horiz-adv-x="512" 
d="M254 665l-129 -101l-17 19l135 119h29l135 -119l-15 -19l-130 101h-8zM443 482h42l-214 -524q-28 -70 -66 -111.5t-104 -55.5l-6 25q55 20 86.5 57t53.5 93l14 34h-13q-12 0 -17 12l-192 470h43l158 -395q2 -6 6.5 -17t8 -20t6.5 -17h14q2 6 9.5 25.5t11.5 29.5z" />
    <glyph glyph-name="Ydieresis" unicode="&#x178;" horiz-adv-x="548" 
d="M178 773q-13 0 -13 14v56q0 14 13 14h15q14 0 14 -14v-56q0 -14 -14 -14h-15zM355 773q-13 0 -13 14v56q0 14 13 14h15q14 0 14 -14v-56q0 -14 -14 -14h-15zM528 690l-233 -437v-253h-42v255l-234 435h45l171 -322q6 -11 18 -35l18 -36h6l35 70l171 323h45z" />
    <glyph glyph-name="Zacute" unicode="&#x179;" horiz-adv-x="560" 
d="M407 871l-163 -135l-18 19l155 146zM98 36h412v-36h-459v36l407 618h-403v36h450v-36z" />
    <glyph glyph-name="zacute" unicode="&#x17a;" horiz-adv-x="502" 
d="M374 690l-163 -135l-18 19l155 146zM100 34h350v-34h-398v34l347 413h-344v35h392v-35z" />
    <glyph glyph-name="Zdotaccent" unicode="&#x17b;" horiz-adv-x="560" 
d="M273 770q-16 0 -16 15v61q0 15 16 15h14q16 0 16 -15v-61q0 -15 -16 -15h-14zM98 36h412v-36h-459v36l407 618h-403v36h450v-36z" />
    <glyph glyph-name="zdotaccent" unicode="&#x17c;" horiz-adv-x="502" 
d="M240 589q-16 0 -16 15v61q0 15 16 15h14q16 0 16 -15v-61q0 -15 -16 -15h-14zM100 34h350v-34h-398v34l347 413h-344v35h392v-35z" />
    <glyph glyph-name="Zcaron" unicode="&#x17d;" horiz-adv-x="560" 
d="M293 749h-24l-139 120l18 18l129 -98h8l130 98l16 -18zM98 36h412v-36h-459v36l407 618h-403v36h450v-36z" />
    <glyph glyph-name="zcaron" unicode="&#x17e;" horiz-adv-x="502" 
d="M260 568h-24l-139 120l18 18l129 -98h8l130 98l16 -18zM100 34h350v-34h-398v34l347 413h-344v35h392v-35z" />
    <glyph glyph-name="uni018F" unicode="&#x18f;" horiz-adv-x="626" 
d="M304 702q142 0 196 -86.5t54 -273.5q0 -190 -55 -272t-197 -82q-118 0 -175.5 54.5t-59.5 145.5q-3 182 160 182h284q-4 155 -50.5 224t-160.5 69q-91 0 -212 -17l-6 28q103 28 222 28zM299 25q121 0 166 72t46 235h-289q-58 0 -86.5 -38t-26.5 -105q2 -76 48.5 -120
t141.5 -44z" />
    <glyph glyph-name="florin" unicode="&#x192;" horiz-adv-x="414" 
d="M323 665q-56 0 -81 -23t-31 -81l-16 -173h161l-4 -34h-161l-33 -353q-6 -68 -37 -101.5t-95 -33.5q-55 0 -84 5l4 29h69q52 0 75 23.5t28 80.5l34 350h-96l2 30l97 4l17 176q6 68 39.5 101.5t101.5 33.5q53 0 84 -4l-4 -30h-70z" />
    <glyph glyph-name="Ohorn" unicode="&#x1a0;" 
d="M646 719q-2 -45 -29.5 -78t-67.5 -43q42 -80 42 -253q0 -199 -57.5 -278t-201.5 -79t-202 79.5t-58 277.5t58 277.5t202 79.5q146 0 204 -82q33 8 53 35.5t23 68.5zM332 25q121 0 168.5 70.5t47.5 249.5t-47.5 249.5t-168.5 70.5t-169 -71t-48 -249t48 -249t169 -71z" />
    <glyph glyph-name="ohorn" unicode="&#x1a1;" horiz-adv-x="565" 
d="M559 540q-2 -46 -29.5 -78.5t-68.5 -42.5q35 -60 35 -178q0 -139 -48 -196t-167 -57t-167 57t-48 196t48.5 196t166.5 57q116 0 164 -54q35 7 56 35t24 70zM281 23q97 0 135.5 47.5t38.5 170.5t-38.5 170t-135.5 47t-135 -47t-38 -170t38 -170.5t135 -47.5z" />
    <glyph glyph-name="Uhorn" unicode="&#x1af;" horiz-adv-x="674" 
d="M690 719q-3 -51 -36 -85.5t-81 -39.5v-337q0 -146 -54 -207.5t-184 -61.5q-132 0 -186.5 61.5t-54.5 207.5v433h41v-433q0 -128 44.5 -180t154.5 -52q108 0 153 52t45 180v433h41v-72q36 7 58 35t25 71z" />
    <glyph glyph-name="uhorn" unicode="&#x1b0;" horiz-adv-x="569" 
d="M584 538q-3 -50 -35 -84t-77 -40v-414h-31l-4 83q-118 -95 -220 -95q-130 0 -130 132v362h40v-354q-1 -54 24 -79t77 -25q46 0 90.5 21t113.5 69v368h40v-43q34 7 54.5 34.5t23.5 69.5z" />
    <glyph glyph-name="uni01C4" unicode="&#x1c4;" horiz-adv-x="1212" 
d="M945 749h-24l-139 120l18 18l129 -98h8l130 98l16 -18zM332 699q142 0 199 -79t57 -275t-57 -275t-199 -79q-111 0 -233 9v690q121 9 233 9zM750 36h412v-36h-459v36l407 618h-403v36h450v-36zM332 28q119 0 166 70t47 247t-47 247t-166 70q-21 0 -192 -3v-628
q168 -3 192 -3z" />
    <glyph glyph-name="uni01C5" unicode="&#x1c5;" horiz-adv-x="1162" 
d="M920 568h-24l-139 120l18 18l129 -98h8l130 98l16 -18zM332 699q142 0 199 -79t57 -275t-57 -275t-199 -79q-111 0 -233 9v690q121 9 233 9zM332 28q119 0 166 70t47 247t-47 247t-166 70q-21 0 -192 -3v-628q168 -3 192 -3zM760 34h350v-34h-398v34l347 413h-344v35h392
v-35z" />
    <glyph glyph-name="uni01C6" unicode="&#x1c6;" horiz-adv-x="1066" 
d="M824 568h-24l-139 120l18 18l129 -98h8l130 98l16 -18zM434 539v161h39v-700h-30l-6 80q-105 -92 -197 -92q-93 0 -133 59t-40 194q0 137 41 195t136 58q86 0 193 -48q-3 25 -3 93zM664 34h350v-34h-398v34l347 413h-344v35h392v-35zM108 242q0 -120 32 -169t108 -49
q44 0 85.5 20.5t100.5 68.5v302q-114 43 -185 43q-77 0 -109 -48t-32 -168z" />
    <glyph glyph-name="uni01C7" unicode="&#x1c7;" horiz-adv-x="837" 
d="M137 690v-577q0 -35 21.5 -56.5t56.5 -21.5h266l1 -30q-90 -5 -274 -5q-52 0 -82 30.5t-30 78.5v581h41zM741 690v-567q0 -65 -31.5 -98t-93.5 -32q-33 0 -71 8l5 28h56q94 0 94 94v567h41z" />
    <glyph glyph-name="uni01C8" unicode="&#x1c8;" horiz-adv-x="737" 
d="M137 690v-577q0 -35 21.5 -56.5t56.5 -21.5h266l1 -30q-90 -5 -274 -5q-52 0 -82 30.5t-30 78.5v581h41zM632 683q15 0 15 -16v-60q0 -16 -15 -16h-18q-15 0 -15 16v60q0 16 15 16h18zM643 482v-519q0 -98 -73 -171l-22 17q55 71 55 154v519h40z" />
    <glyph glyph-name="uni01C9" unicode="&#x1c9;" horiz-adv-x="505" 
d="M131 700l-1 -594q0 -76 77 -76h55l5 -29q-24 -8 -70 -8q-49 0 -77.5 28t-28.5 79v600h40zM400 683q15 0 15 -16v-60q0 -16 -15 -16h-18q-15 0 -15 16v60q0 16 15 16h18zM411 482v-519q0 -98 -73 -171l-22 17q55 71 55 154v519h40z" />
    <glyph glyph-name="uni01CA" unicode="&#x1ca;" horiz-adv-x="1020" 
d="M593 690v-670q0 -20 -19 -20h-54q-16 0 -23 15l-298 564q-28 54 -37 74h-23q1 -25 1 -75v-578h-41v670q0 20 20 20h50q17 0 24 -15l290 -551q7 -13 45 -86h25q0 16 -0.5 47.5t-0.5 46.5v558h41zM924 690v-567q0 -65 -31.5 -98t-93.5 -32q-33 0 -71 8l5 28h56q94 0 94 94
v567h41z" />
    <glyph glyph-name="uni01CB" unicode="&#x1cb;" horiz-adv-x="920" 
d="M593 690v-670q0 -20 -19 -20h-54q-16 0 -23 15l-298 564q-28 54 -37 74h-23q1 -25 1 -75v-578h-41v670q0 20 20 20h50q17 0 24 -15l290 -551q7 -13 45 -86h25q0 16 -0.5 47.5t-0.5 46.5v558h41zM815 683q15 0 15 -16v-60q0 -16 -15 -16h-18q-15 0 -15 16v60q0 16 15 16
h18zM826 482v-519q0 -98 -73 -171l-22 17q55 71 55 154v519h40z" />
    <glyph glyph-name="uni01CC" unicode="&#x1cc;" horiz-adv-x="801" 
d="M696 683q15 0 15 -16v-60q0 -16 -15 -16h-18q-15 0 -15 16v60q0 16 15 16h18zM356 494q130 0 130 -132v-362h-40v354q0 54 -24 79t-75 25q-49 0 -96.5 -21.5t-120.5 -70.5v-366h-39v482h32l4 -85q121 97 229 97zM667 -37v519h40v-519q0 -98 -73 -171l-22 17q55 71 55 154
z" />
    <glyph glyph-name="Gcaron" unicode="&#x1e6;" horiz-adv-x="624" 
d="M338 751h-24l-139 120l18 18l129 -98h8l130 98l16 -18zM505 400h41v-400h-29l-8 84q-89 -96 -211 -96q-121 0 -173.5 84.5t-52.5 273.5q0 198 59 277t207 79q113 0 195 -18l-7 -30q-87 11 -187 11q-125 0 -174 -69t-49 -252q0 -171 43 -245t146 -74q42 0 82 15.5t62 31.5
t56 45v283z" />
    <glyph glyph-name="gcaron" unicode="&#x1e7;" horiz-adv-x="548" 
d="M284 568h-24l-139 120l18 18l129 -98h8l130 98l16 -18zM521 482l-3 -26l-93 -4q39 -36 39 -109q0 -77 -45 -113t-150 -36q-73 0 -118 18q-20 -23 -24.5 -47t11.5 -44t54 -27l190 -33q62 -10 85.5 -39.5t23.5 -89.5q0 -78 -48.5 -109.5t-167.5 -31.5q-123 0 -172.5 31
t-49.5 109q0 52 15 81.5t57 51.5l15 8q-32 15 -43.5 43.5t-2 57.5t34.5 50q-56 34 -56 120q0 77 46 114t151 37q60 0 100 -12h151zM269 227q85 0 121 27.5t36 88.5t-35.5 89.5t-121.5 28.5q-85 0 -121.5 -28.5t-36.5 -89.5q0 -60 36.5 -88t121.5 -28zM452 -67q0 47 -17 67.5
t-69 29.5l-193 32h-2l-21 -13q-34 -21 -46 -46t-12 -70q0 -60 40 -83.5t142 -23.5q99 0 138.5 23.5t39.5 83.5z" />
    <glyph glyph-name="uni01EA" unicode="&#x1ea;" 
d="M353 -12q-52 -54 -73 -111q-16 -44 9.5 -58t79.5 5l5 -18q-80 -32 -113 -7.5t-13 79.5t77 110q-140 2 -196.5 81.5t-56.5 275.5q0 198 58 277.5t202 79.5t201.5 -79t57.5 -278q0 -192 -53 -272t-185 -85zM115 345q0 -178 48 -249t169 -71t168.5 70.5t47.5 249.5
t-47.5 249.5t-168.5 70.5t-169 -71t-48 -249z" />
    <glyph glyph-name="uni01EB" unicode="&#x1eb;" horiz-adv-x="562" 
d="M302 -12q-49 -51 -71 -109q-16 -44 9.5 -58t79.5 5l5 -18q-80 -32 -113 -7.5t-13 79.5q21 56 75 108q-115 1 -161.5 58.5t-46.5 194.5q0 139 48.5 196t166.5 57t166.5 -57t48.5 -196q0 -134 -44 -191.5t-150 -61.5zM108 241q0 -123 38 -170.5t135 -47.5t135.5 47.5
t38.5 170.5t-38.5 170t-135.5 47t-135 -47t-38 -170z" />
    <glyph glyph-name="Aringacute" unicode="&#x1fa;" horiz-adv-x="608" 
d="M404 944l-141 -86l-15 22l135 96zM308 652q-41 0 -70 28.5t-29 69.5q0 40 29 68.5t70 28.5t70 -28.5t29 -68.5q0 -39 -29 -68.5t-70 -29.5zM308 822q-31 0 -51 -20.5t-20 -51.5q0 -32 20.5 -52.5t50.5 -20.5t50.5 20.5t20.5 52.5q0 31 -20.5 51.5t-50.5 20.5zM548 0
l-73 188h-342l-73 -188h-43l241 617q5 13 18 13h56q13 0 18 -13l241 -617h-43zM147 224h314l-123 316q-5 11 -11.5 31t-8.5 25h-28q-2 -5 -8.5 -25t-11.5 -31z" />
    <glyph glyph-name="aringacute" unicode="&#x1fb;" horiz-adv-x="541" 
d="M377 845l-150 -94l-14 20l143 104zM269 535q-41 0 -70 28.5t-29 69.5q0 40 29 68.5t70 28.5t70 -28.5t29 -68.5q0 -39 -29 -68.5t-70 -29.5zM269 705q-31 0 -51 -20.5t-20 -51.5q0 -32 20.5 -52.5t50.5 -20.5t50.5 20.5t20.5 52.5q0 31 -20.5 51.5t-50.5 20.5zM312 494
q142 0 142 -140v-354h-30l-7 90q-36 -36 -99 -66.5t-125 -30.5t-96.5 32.5t-34.5 92.5v60q0 55 31.5 85t88.5 30h232v61q0 50 -24 77t-83 27q-86 0 -221 -15l-4 30q152 21 230 21zM197 30q50 -1 112 25t105 67v139l-228 -3q-83 -1 -83 -83v-54q0 -90 94 -91z" />
    <glyph glyph-name="AEacute" unicode="&#x1fc;" horiz-adv-x="907" 
d="M694 889l-163 -136l-18 20l155 145zM585 35h265l1 -31q-93 -4 -279 -4q-46 0 -76 30t-30 76v154h-247l-165 -260h-46l384 599q35 54 75.5 72.5t105.5 18.5q175 0 278 -4l-1 -32h-265q-36 0 -57.5 -21t-21.5 -57v-190l302 -1v-33l-302 -1v-237q0 -36 21.5 -57.5
t57.5 -21.5zM242 295h224v284q0 23 11.5 45.5t27.5 30.5h-7q-37 -17 -71 -69z" />
    <glyph glyph-name="aeacute" unicode="&#x1fd;" horiz-adv-x="878" 
d="M592 689l-163 -136l-18 20l155 145zM638 24q83 0 165 12l5 -28q-60 -20 -175 -20q-157 0 -198 111q-40 -40 -107 -73t-135 -33q-62 0 -96.5 32.5t-34.5 92.5v60q0 55 31.5 85t88.5 30h232v61q0 50 -24 77t-83 27q-86 0 -221 -15l-4 30q152 21 230 21q109 0 134 -80
q45 80 179 80q191 0 194 -142q1 -70 -31 -100.5t-108 -30.5h-224q4 -110 46 -153.5t136 -43.5zM626 458q-93 0 -131 -45t-39 -159h218q58 0 82 22.5t22 73.5q-1 108 -152 108zM197 30q53 -1 118 26.5t111 69.5q-10 44 -12 102v33l-228 -3q-83 -1 -83 -83v-54q0 -90 94 -91z
" />
    <glyph glyph-name="Oslashacute" unicode="&#x1fe;" 
d="M461 870l-163 -136l-18 20l155 145zM491 664q53 -36 76.5 -112t23.5 -207q0 -199 -57.5 -278t-201.5 -79q-91 0 -145 29l-33 -70l-27 13l35 74q-47 38 -68.5 112.5t-21.5 198.5q0 198 58 277.5t202 79.5q82 0 132 -23l30 64l28 -12zM115 345q0 -204 66 -271l266 568
q-43 23 -115 23q-121 0 -169 -71t-48 -249zM332 25q121 0 168.5 70.5t47.5 249.5q0 113 -17.5 180t-58.5 100l-267 -570q46 -30 127 -30z" />
    <glyph glyph-name="oslashacute" unicode="&#x1ff;" horiz-adv-x="562" 
d="M410 688l-163 -136l-18 20l155 145zM400 473q51 -24 73.5 -79.5t22.5 -152.5q0 -139 -48 -196t-167 -57q-61 0 -100 13l-31 -66l-25 12l30 65q-47 25 -68 80t-21 149q0 139 48.5 196t166.5 57q55 0 94 -12l29 62l24 -11zM108 241q0 -80 15 -126t49 -68l187 401
q-30 10 -78 10q-97 0 -135 -47t-38 -170zM281 23q97 0 135.5 47.5t38.5 170.5q0 83 -16.5 129.5t-54.5 67.5l-187 -403q33 -12 84 -12z" />
    <glyph glyph-name="uni0200" unicode="&#x200;" horiz-adv-x="608" 
d="M261 746l-21 -14l-122 154l33 22zM408 746l-22 -14l-121 154l32 22zM548 0l-85 243h-318l-85 -243h-43l241 677q5 13 18 13h56q13 0 18 -13l241 -677h-43zM158 279h292l-112 321l-20 56h-28l-20 -56z" />
    <glyph glyph-name="uni0201" unicode="&#x201;" horiz-adv-x="541" 
d="M226 566l-21 -14l-122 154l33 22zM373 566l-22 -14l-121 154l32 22zM312 494q142 0 142 -140v-354h-30l-7 90q-36 -36 -99 -66.5t-125 -30.5t-96.5 32.5t-34.5 92.5v60q0 55 31.5 85t88.5 30h232v61q0 50 -24 77t-83 27q-86 0 -221 -15l-4 30q152 21 230 21zM197 30
q50 -1 112 25t105 67v139l-228 -3q-83 -1 -83 -83v-54q0 -90 94 -91z" />
    <glyph glyph-name="uni0202" unicode="&#x202;" horiz-adv-x="608" 
d="M187 753l-24 5q-1 55 36 86.5t102 31.5q66 0 104 -31.5t37 -86.5l-25 -5q0 43 -30.5 66t-85.5 23q-52 0 -83 -23.5t-31 -65.5zM548 0l-85 243h-318l-85 -243h-43l241 677q5 13 18 13h56q13 0 18 -13l241 -677h-43zM158 279h292l-112 321l-20 56h-28l-20 -56z" />
    <glyph glyph-name="uni0203" unicode="&#x203;" horiz-adv-x="541" 
d="M152 573l-24 5q-1 55 36 86.5t102 31.5q66 0 104 -31.5t37 -86.5l-25 -5q0 43 -30.5 66t-85.5 23q-52 0 -83 -23.5t-31 -65.5zM312 494q142 0 142 -140v-354h-30l-7 90q-36 -36 -99 -66.5t-125 -30.5t-96.5 32.5t-34.5 92.5v60q0 55 31.5 85t88.5 30h232v61q0 50 -24 77
t-83 27q-86 0 -221 -15l-4 30q152 21 230 21zM197 30q50 -1 112 25t105 67v139l-228 -3q-83 -1 -83 -83v-54q0 -90 94 -91z" />
    <glyph glyph-name="uni0204" unicode="&#x204;" horiz-adv-x="553" 
d="M267 769l-21 -14l-122 154l33 22zM414 769l-22 -14l-121 154l32 22zM210 35h285l2 -31q-96 -4 -294 -4q-49 0 -79.5 29.5t-30.5 76.5v478q0 47 30.5 76.5t79.5 29.5q198 0 294 -4l-2 -31h-285q-34 0 -55 -21.5t-21 -56.5v-191l320 -1v-33l-320 -1v-238q0 -35 21 -56.5
t55 -21.5z" />
    <glyph glyph-name="uni0205" unicode="&#x205;" horiz-adv-x="530" 
d="M235 566l-21 -14l-122 154l33 22zM382 566l-22 -14l-121 154l32 22zM289 24q83 0 165 12l5 -28q-60 -20 -175 -20q-117 0 -168 58.5t-51 196.5t48.5 194.5t162.5 56.5q191 0 194 -142q2 -66 -23.5 -98.5t-82.5 -32.5h-257q4 -110 46 -153.5t136 -43.5zM278 458
q-94 0 -132 -45t-39 -159h251q74 0 71 96q-1 56 -37.5 82t-113.5 26z" />
    <glyph glyph-name="uni0206" unicode="&#x206;" horiz-adv-x="553" 
d="M193 776l-24 5q-1 55 36 86.5t102 31.5q66 0 104 -31.5t37 -86.5l-25 -5q0 43 -30.5 66t-85.5 23q-52 0 -83 -23.5t-31 -65.5zM210 35h285l2 -31q-96 -4 -294 -4q-49 0 -79.5 29.5t-30.5 76.5v478q0 47 30.5 76.5t79.5 29.5q198 0 294 -4l-2 -31h-285q-34 0 -55 -21.5
t-21 -56.5v-191l320 -1v-33l-320 -1v-238q0 -35 21 -56.5t55 -21.5z" />
    <glyph glyph-name="uni0207" unicode="&#x207;" horiz-adv-x="530" 
d="M161 573l-24 5q-1 55 36 86.5t102 31.5q66 0 104 -31.5t37 -86.5l-25 -5q0 43 -30.5 66t-85.5 23q-52 0 -83 -23.5t-31 -65.5zM289 24q83 0 165 12l5 -28q-60 -20 -175 -20q-117 0 -168 58.5t-51 196.5t48.5 194.5t162.5 56.5q191 0 194 -142q2 -66 -23.5 -98.5
t-82.5 -32.5h-257q4 -110 46 -153.5t136 -43.5zM278 458q-94 0 -132 -45t-39 -159h251q74 0 71 96q-1 56 -37.5 82t-113.5 26z" />
    <glyph glyph-name="uni0208" unicode="&#x208;" horiz-adv-x="239" 
d="M-34 909l110 -162l-21 -14l-122 154zM112 909l111 -162l-22 -14l-121 154zM140 690v-690h-41v690h41z" />
    <glyph glyph-name="uni0209" unicode="&#x209;" horiz-adv-x="228" 
d="M-40 728l110 -162l-21 -14l-122 154zM106 728l111 -162l-22 -14l-121 154zM134 482v-482h-40v482h40z" />
    <glyph glyph-name="uni020A" unicode="&#x20a;" horiz-adv-x="239" 
d="M2 754l-24 5q-1 55 36 86.5t102 31.5q66 0 104 -31.5t37 -86.5l-25 -5q0 43 -30.5 66t-85.5 23q-52 0 -83 -23.5t-31 -65.5zM140 690v-690h-41v690h41z" />
    <glyph glyph-name="uni020B" unicode="&#x20b;" horiz-adv-x="228" 
d="M-4 573l-24 5q-1 55 36 86.5t102 31.5q66 0 104 -31.5t37 -86.5l-25 -5q0 43 -30.5 66t-85.5 23q-52 0 -83 -23.5t-31 -65.5zM134 482v-482h-40v482h40z" />
    <glyph glyph-name="uni020C" unicode="&#x20c;" 
d="M180 909l110 -162l-21 -14l-122 154zM326 909l111 -162l-22 -14l-121 154zM332 702q144 0 201.5 -79t57.5 -278t-57.5 -278t-201.5 -79t-202 79.5t-58 277.5t58 277.5t202 79.5zM332 665q-121 0 -169 -71t-48 -249t48 -249t169 -71t168.5 70.5t47.5 249.5t-47.5 249.5
t-168.5 70.5z" />
    <glyph glyph-name="uni020D" unicode="&#x20d;" horiz-adv-x="562" 
d="M128 727l110 -162l-21 -14l-122 154zM274 727l111 -162l-22 -14l-121 154zM281 494q118 0 166.5 -57t48.5 -196t-48 -196t-167 -57t-167 57t-48 196t48.5 196t166.5 57zM281 458q-97 0 -135 -47t-38 -170t38 -170.5t135 -47.5t135.5 47.5t38.5 170.5t-38.5 170t-135.5 47
z" />
    <glyph glyph-name="uni020E" unicode="&#x20e;" 
d="M216 754l-24 5q-1 55 36 86.5t102 31.5q66 0 104 -31.5t37 -86.5l-25 -5q0 43 -30.5 66t-85.5 23q-52 0 -83 -23.5t-31 -65.5zM332 702q144 0 201.5 -79t57.5 -278t-57.5 -278t-201.5 -79t-202 79.5t-58 277.5t58 277.5t202 79.5zM332 665q-121 0 -169 -71t-48 -249
t48 -249t169 -71t168.5 70.5t47.5 249.5t-47.5 249.5t-168.5 70.5z" />
    <glyph glyph-name="uni020F" unicode="&#x20f;" horiz-adv-x="562" 
d="M164 572l-24 5q-1 55 36 86.5t102 31.5q66 0 104 -31.5t37 -86.5l-25 -5q0 43 -30.5 66t-85.5 23q-52 0 -83 -23.5t-31 -65.5zM281 494q118 0 166.5 -57t48.5 -196t-48 -196t-167 -57t-167 57t-48 196t48.5 196t166.5 57zM281 458q-97 0 -135 -47t-38 -170t38 -170.5
t135 -47.5t135.5 47.5t38.5 170.5t-38.5 170t-135.5 47z" />
    <glyph glyph-name="uni0210" unicode="&#x210;" horiz-adv-x="610" 
d="M260 747l-21 -14l-122 154l33 22zM407 747l-22 -14l-121 154l32 22zM481 220l73 -220h-45l-70 217q-30 87 -108 87q-74 0 -191 3v-307h-41v690q81 8 225 8q115 0 160 -41t45 -154q0 -90 -29.5 -131.5t-97.5 -50.5v-5q53 -15 79 -96zM324 341q92 2 127.5 35t35.5 126
t-35.5 126.5t-127.5 33.5q-108 0 -184 -2v-319h184z" />
    <glyph glyph-name="uni0211" unicode="&#x211;" horiz-adv-x="388" 
d="M178 566l-21 -14l-122 154l33 22zM325 566l-22 -14l-121 154l32 22zM346 494h20l-6 -38h-20q-46 0 -91.5 -20.5t-118.5 -67.5v-368h-39v482h30l5 -86q122 98 220 98z" />
    <glyph glyph-name="uni0212" unicode="&#x212;" horiz-adv-x="610" 
d="M186 754l-24 5q-1 55 36 86.5t102 31.5q66 0 104 -31.5t37 -86.5l-25 -5q0 43 -30.5 66t-85.5 23q-52 0 -83 -23.5t-31 -65.5zM481 220l73 -220h-45l-70 217q-30 87 -108 87q-74 0 -191 3v-307h-41v690q81 8 225 8q115 0 160 -41t45 -154q0 -90 -29.5 -131.5t-97.5 -50.5
v-5q53 -15 79 -96zM324 341q92 2 127.5 35t35.5 126t-35.5 126.5t-127.5 33.5q-108 0 -184 -2v-319h184z" />
    <glyph glyph-name="uni0213" unicode="&#x213;" horiz-adv-x="388" 
d="M218 662q-52 0 -83 -23.5t-31 -65.5l-24 5q-1 55 36 86.5t102 31.5q66 0 104 -31.5t37 -86.5l-25 -5q0 43 -30.5 66t-85.5 23zM346 494h20l-6 -38h-20q-46 0 -91.5 -20.5t-118.5 -67.5v-368h-39v482h30l5 -86q122 98 220 98z" />
    <glyph glyph-name="uni0214" unicode="&#x214;" horiz-adv-x="667" 
d="M179 913l110 -162l-21 -14l-122 153zM325 913l111 -162l-22 -14l-122 153zM573 690v-433q0 -146 -54 -207.5t-184 -61.5q-132 0 -186.5 61.5t-54.5 207.5v433h41v-433q0 -128 44.5 -180t154.5 -52q108 0 153 52t45 180v433h41z" />
    <glyph glyph-name="uni0215" unicode="&#x215;" horiz-adv-x="563" 
d="M238 567l-21 -14l-122 154l33 22zM385 567l-22 -14l-121 154l32 22zM432 482h40v-482h-31l-4 83q-118 -95 -220 -95q-130 0 -130 132v362h40v-354q-1 -54 24 -79t77 -25q46 0 90.5 21t113.5 69v368z" />
    <glyph glyph-name="uni0216" unicode="&#x216;" horiz-adv-x="667" 
d="M218 754l-24 5q-1 55 36 86.5t102 31.5q66 0 104 -31.5t37 -86.5l-25 -5q0 43 -30.5 66t-85.5 23q-52 0 -83 -23.5t-31 -65.5zM573 690v-433q0 -146 -54 -207.5t-184 -61.5q-132 0 -186.5 61.5t-54.5 207.5v433h41v-433q0 -128 44.5 -180t154.5 -52q108 0 153 52t45 180
v433h41z" />
    <glyph glyph-name="uni0217" unicode="&#x217;" horiz-adv-x="563" 
d="M164 574l-24 5q-1 55 36 86.5t102 31.5q66 0 104 -31.5t37 -86.5l-25 -5q0 43 -30.5 66t-85.5 23q-52 0 -83 -23.5t-31 -65.5zM432 482h40v-482h-31l-4 83q-118 -95 -220 -95q-130 0 -130 132v362h40v-354q-1 -54 24 -79t77 -25q46 0 90.5 21t113.5 69v368z" />
    <glyph glyph-name="Scommaaccent" unicode="&#x218;" horiz-adv-x="556" 
d="M275 701q107 -2 192 -14l-4 -30q-138 7 -187 7q-36 0 -55 -1t-42 -5t-34 -13t-22 -24.5t-14.5 -39.5t-3.5 -59q0 -70 23.5 -101.5t79.5 -40.5l150 -25q76 -11 107.5 -53.5t31.5 -130.5q0 -60 -13 -97t-43 -55.5t-65.5 -24t-94.5 -5.5q-112 0 -206 13l3 31q118 -8 205 -7
q52 1 81 6t51.5 20t31 43.5t8.5 75.5q0 75 -24 106t-83 40l-150 25q-72 11 -103.5 54t-31.5 127q0 61 12 97.5t41.5 54t64 22.5t94.5 4zM297 -63q15 0 15 -15v-57q-2 -67 -21 -120l-17 6q4 36 4 102q-10 0 -10 13l1 56q-1 8 3 11.5t13 3.5h12z" />
    <glyph glyph-name="scommaaccent" unicode="&#x219;" horiz-adv-x="501" 
d="M239 494q108 -2 191 -13l-4 -29q-115 6 -183 7q-86 2 -115.5 -13.5t-29.5 -80.5q0 -47 19 -67t59 -26l157 -23q55 -9 82.5 -38.5t27.5 -86.5q0 -85 -44 -110t-150 -25q-96 0 -179 12l4 29q86 -7 171 -6q93 1 126 19.5t33 80.5q0 44 -21.5 64t-61.5 27l-157 23
q-54 8 -79.5 37.5t-25.5 89.5q0 84 40 107.5t140 21.5zM268 -63q15 0 15 -15v-57q-2 -67 -21 -120l-17 6q4 36 4 102q-10 0 -10 13l1 56q-1 8 3 11.5t13 3.5h12z" />
    <glyph glyph-name="uni021A" unicode="&#x21a;" horiz-adv-x="568" 
d="M542 690v-36h-238v-654h-41v654h-237v36h516zM281 -63q15 0 15 -15v-57q-2 -67 -21 -120l-17 6q4 36 4 102q-10 0 -10 13l1 56q-1 8 3 11.5t13 3.5h12z" />
    <glyph glyph-name="uni021B" unicode="&#x21b;" horiz-adv-x="356" 
d="M331 448h-172v-342q0 -76 77 -76h84l5 -29q-45 -8 -92 -8q-114 0 -114 109v346h-87v29l87 5v149h40v-149h172v-34zM238 -63q15 0 15 -15v-57q-2 -67 -21 -120l-17 6q4 36 4 102q-10 0 -10 13l1 56q-1 8 3 11.5t13 3.5h12z" />
    <glyph glyph-name="uni022A" unicode="&#x22a;" 
d="M212 940h241v-30h-241v30zM259 851q12 0 12 -13v-50q0 -13 -12 -13h-14q-13 0 -13 13v50q0 13 13 13h14zM420 851q12 0 12 -13v-50q0 -13 -12 -13h-14q-13 0 -13 13v50q0 13 13 13h14zM332 702q144 0 201.5 -79t57.5 -278t-57.5 -278t-201.5 -79t-202 79.5t-58 277.5
t58 277.5t202 79.5zM332 665q-121 0 -169 -71t-48 -249t48 -249t169 -71t168.5 70.5t47.5 249.5t-47.5 249.5t-168.5 70.5z" />
    <glyph glyph-name="uni022B" unicode="&#x22b;" horiz-adv-x="562" 
d="M160 758h241v-30h-241v30zM207 669q12 0 12 -13v-50q0 -13 -12 -13h-14q-13 0 -13 13v50q0 13 13 13h14zM368 669q12 0 12 -13v-50q0 -13 -12 -13h-14q-13 0 -13 13v50q0 13 13 13h14zM281 494q118 0 166.5 -57t48.5 -196t-48 -196t-167 -57t-167 57t-48 196t48.5 196
t166.5 57zM281 458q-97 0 -135 -47t-38 -170t38 -170.5t135 -47.5t135.5 47.5t38.5 170.5t-38.5 170t-135.5 47z" />
    <glyph glyph-name="uni022C" unicode="&#x22c;" 
d="M212 913v31h241v-31h-241zM405 760q-36 3 -78 33t-65 32q-29 3 -42 -12.5t-13 -51.5h-23q-2 49 18.5 74t57.5 22q30 -3 71.5 -33t70.5 -32q30 -2 43 12t13 48h23q3 -46 -18 -70.5t-58 -21.5zM332 702q144 0 201.5 -79t57.5 -278t-57.5 -278t-201.5 -79t-202 79.5
t-58 277.5t58 277.5t202 79.5zM332 665q-121 0 -169 -71t-48 -249t48 -249t169 -71t168.5 70.5t47.5 249.5t-47.5 249.5t-168.5 70.5z" />
    <glyph glyph-name="uni022D" unicode="&#x22d;" horiz-adv-x="562" 
d="M160 731v31h241v-31h-241zM353 578q-36 3 -78 33t-65 32q-29 3 -42 -12.5t-13 -51.5h-23q-2 49 18.5 74t57.5 22q30 -3 71.5 -33t70.5 -32q30 -2 43 12t13 48h23q3 -46 -18 -70.5t-58 -21.5zM281 494q118 0 166.5 -57t48.5 -196t-48 -196t-167 -57t-167 57t-48 196
t48.5 196t166.5 57zM281 458q-97 0 -135 -47t-38 -170t38 -170.5t135 -47.5t135.5 47.5t38.5 170.5t-38.5 170t-135.5 47z" />
    <glyph glyph-name="uni0230" unicode="&#x230;" 
d="M404 940l49 -17l-192 -13l-49 17zM339 854q13 0 13 -14v-55q0 -15 -13 -15h-14q-14 0 -14 15v55q0 14 14 14h14zM332 702q144 0 201.5 -79t57.5 -278t-57.5 -278t-201.5 -79t-202 79.5t-58 277.5t58 277.5t202 79.5zM332 665q-121 0 -169 -71t-48 -249t48 -249t169 -71
t168.5 70.5t47.5 249.5t-47.5 249.5t-168.5 70.5z" />
    <glyph glyph-name="uni0231" unicode="&#x231;" horiz-adv-x="562" 
d="M352 758l49 -17l-192 -13l-49 17zM287 672q13 0 13 -14v-55q0 -15 -13 -15h-14q-14 0 -14 15v55q0 14 14 14h14zM281 494q118 0 166.5 -57t48.5 -196t-48 -196t-167 -57t-167 57t-48 196t48.5 196t166.5 57zM281 458q-97 0 -135 -47t-38 -170t38 -170.5t135 -47.5
t135.5 47.5t38.5 170.5t-38.5 170t-135.5 47z" />
    <glyph glyph-name="uni0232" unicode="&#x232;" horiz-adv-x="548" 
d="M407 830v-33h-264v33h264zM528 690l-233 -437v-253h-42v255l-234 435h45l171 -322q6 -11 18 -35l18 -36h6l35 70l171 323h45z" />
    <glyph glyph-name="uni0233" unicode="&#x233;" horiz-adv-x="512" 
d="M391 651v-33h-264v33h264zM443 482h42l-214 -524q-28 -70 -66 -111.5t-104 -55.5l-6 25q55 20 86.5 57t53.5 93l14 34h-13q-12 0 -17 12l-192 470h43l158 -395q2 -6 6.5 -17t8 -20t6.5 -17h14q2 6 9.5 25.5t11.5 29.5z" />
    <glyph glyph-name="uni0237" unicode="&#x237;" horiz-adv-x="228" 
d="M134 482v-519q0 -98 -73 -171l-22 17q55 71 55 154v519h40z" />
    <glyph glyph-name="uni0259" unicode="&#x259;" horiz-adv-x="529" 
d="M245 494q117 0 168 -58.5t51 -196.5t-48.5 -194.5t-162.5 -56.5q-193 0 -194 142q-2 66 23 98.5t83 32.5h257q-4 110 -46 153.5t-136 43.5q-89 0 -165 -13l-5 28q57 21 175 21zM251 24q94 0 132 45t39 159h-251q-74 0 -72 -97q1 -56 38 -81.5t114 -25.5z" />
    <glyph glyph-name="uni02B9" unicode="&#x2b9;" horiz-adv-x="241" 
d="M171 748l-59 -210h-30l53 210h36z" />
    <glyph glyph-name="uni02BA" unicode="&#x2ba;" horiz-adv-x="350" 
d="M171 748l-59 -210h-30l54 210h35zM280 748l-60 -210h-29l53 210h36z" />
    <glyph glyph-name="uni02BB" unicode="&#x2bb;" horiz-adv-x="213" 
d="M99 541q-17 0 -17 18v64q2 72 23 133l19 -6q-5 -50 -5 -114q11 0 11 -15l-1 -62q0 -18 -16 -18h-14z" />
    <glyph glyph-name="uni02BE" unicode="&#x2be;" horiz-adv-x="185" 
d="M109 640q0 31 -20 51.5t-51 20.5v25q41 0 70 -28.5t29 -68.5q0 -41 -29 -69.5t-70 -28.5v25q31 0 51 20.5t20 52.5z" />
    <glyph glyph-name="uni02BF" unicode="&#x2bf;" horiz-adv-x="185" 
d="M147 712q-31 0 -51 -20.5t-20 -51.5q0 -32 20.5 -52.5t50.5 -20.5v-25q-41 0 -70 28.5t-29 69.5q0 40 29 68.5t70 28.5v-25z" />
    <glyph glyph-name="circumflex" unicode="&#x2c6;" horiz-adv-x="399" 
d="M214 706l135 -119l-15 -19l-130 101h-8l-129 -101l-17 19l135 119h29z" />
    <glyph glyph-name="caron" unicode="&#x2c7;" horiz-adv-x="399" 
d="M334 709l16 -18l-138 -120h-24l-139 120l18 18l129 -98h8z" />
    <glyph glyph-name="uni02C8" unicode="&#x2c8;" horiz-adv-x="193" 
d="M80 688h33v-104h-33v104z" />
    <glyph glyph-name="uni02C9" unicode="&#x2c9;" horiz-adv-x="400" 
d="M332 654v-33h-264v33h264z" />
    <glyph glyph-name="uni02CA" unicode="&#x2ca;" horiz-adv-x="287" 
d="M212 714l26 -30l-163 -135l-18 19z" />
    <glyph glyph-name="uni02CB" unicode="&#x2cb;" horiz-adv-x="287" 
d="M72 712l155 -145l-18 -20l-163 136z" />
    <glyph glyph-name="uni02CC" unicode="&#x2cc;" horiz-adv-x="193" 
d="M80 -61h33v-104h-33v104z" />
    <glyph glyph-name="breve" unicode="&#x2d8;" horiz-adv-x="362" 
d="M296 689l25 -4q1 -55 -36.5 -87t-102.5 -32t-103 32t-37 87l24 4q0 -42 31 -65.5t85 -23.5q53 0 83.5 23.5t30.5 65.5z" />
    <glyph glyph-name="dotaccent" unicode="&#x2d9;" horiz-adv-x="210" 
d="M112 678q16 0 16 -15v-61q0 -15 -16 -15h-14q-16 0 -16 15v61q0 15 16 15h14z" />
    <glyph glyph-name="ring" unicode="&#x2da;" horiz-adv-x="294" 
d="M147 737q41 0 70 -28.5t29 -68.5q0 -39 -29 -68.5t-70 -29.5t-70 28.5t-29 69.5q0 40 29 68.5t70 28.5zM147 712q-31 0 -51 -20.5t-20 -51.5q0 -32 20.5 -52.5t50.5 -20.5t50.5 20.5t20.5 52.5q0 31 -20.5 51.5t-50.5 20.5z" />
    <glyph glyph-name="ogonek" unicode="&#x2db;" horiz-adv-x="253" 
d="M145 2l24 -2q-61 -61 -84 -123q-16 -44 9.5 -58t79.5 5l5 -18q-80 -32 -113 -7.5t-13 79.5q22 62 92 124z" />
    <glyph glyph-name="tilde" unicode="&#x2dc;" horiz-adv-x="404" 
d="M130 690q30 -3 71.5 -33t70.5 -32q30 -2 43 12t13 48h23q3 -46 -18 -70.5t-58 -21.5q-36 3 -78 33t-65 32q-55 6 -55 -63h-23q-2 49 18.5 73.5t57.5 21.5z" />
    <glyph glyph-name="hungarumlaut" unicode="&#x2dd;" horiz-adv-x="422" 
d="M171 722l32 -22l-121 -154l-22 14zM317 722l32 -22l-121 -154l-22 14z" />
    <glyph glyph-name="acutecomb" unicode="&#x301;" horiz-adv-x="0" 
d="M-116 712l26 -29l-163 -136l-18 20z" />
    <glyph glyph-name="uni0302" unicode="&#x302;" horiz-adv-x="0" 
d="M-193 706l135 -119l-16 -19l-130 101h-8l-129 -101l-17 19l135 119h30z" />
    <glyph glyph-name="tildecomb" unicode="&#x303;" horiz-adv-x="0" 
d="M-285 690q30 -3 71.5 -33t70.5 -32q30 -2 43 12t13 48h22q3 -46 -17.5 -70.5t-57.5 -21.5q-36 3 -78 33t-65 32q-55 6 -55 -63h-23q-3 48 18 73t58 22z" />
    <glyph glyph-name="uni0304" unicode="&#x304;" horiz-adv-x="0" 
d="M-69 654v-33h-265v33h265z" />
    <glyph glyph-name="uni0306" unicode="&#x306;" horiz-adv-x="0" 
d="M-95 689l24 -4q1 -55 -36 -87t-102 -32q-66 0 -104 32t-37 87l25 4q0 -42 31 -65.5t85 -23.5q53 0 83.5 23.5t30.5 65.5z" />
    <glyph glyph-name="uni0307" unicode="&#x307;" horiz-adv-x="0" 
d="M-164 678q15 0 15 -15v-61q0 -15 -15 -15h-15q-15 0 -15 15v61q0 15 15 15h15z" />
    <glyph glyph-name="uni0308" unicode="&#x308;" horiz-adv-x="0" 
d="M-305 678q13 0 13 -14v-56q0 -14 -13 -14h-15q-14 0 -14 14v56q0 14 14 14h15zM-128 678q13 0 13 -14v-56q0 -14 -13 -14h-15q-14 0 -14 14v56q0 14 14 14h15z" />
    <glyph glyph-name="hookabovecomb" unicode="&#x309;" horiz-adv-x="0" 
d="M-163 588q67 22 67 80q0 65 -92 47l-6 23q59 15 94 -2.5t35 -65.5q0 -36 -23 -64t-68 -39z" />
    <glyph glyph-name="uni030A" unicode="&#x30a;" horiz-adv-x="0" 
d="M-157 735q41 0 70 -28.5t29 -68.5q0 -39 -29 -68.5t-70 -29.5t-70 28.5t-29 69.5q0 40 29 68.5t70 28.5zM-157 710q-31 0 -51 -20.5t-20 -51.5q0 -32 20.5 -52t50.5 -20t50.5 20t20.5 52q0 31 -20.5 51.5t-50.5 20.5z" />
    <glyph glyph-name="uni030B" unicode="&#x30b;" horiz-adv-x="0" 
d="M-252 720l32 -22l-122 -154l-21 15zM-106 720l32 -22l-121 -154l-22 15z" />
    <glyph glyph-name="uni030C" unicode="&#x30c;" horiz-adv-x="0" 
d="M-73 709l16 -18l-138 -120h-24l-139 120l18 18l129 -98h8z" />
    <glyph glyph-name="uni030F" unicode="&#x30f;" horiz-adv-x="0" 
d="M-350 726l110 -162l-21 -14l-122 153zM-204 726l111 -162l-22 -14l-122 153z" />
    <glyph glyph-name="uni0311" unicode="&#x311;" horiz-adv-x="0" 
d="M-317 568l-24 5q-1 55 36 86.5t102 31.5q66 0 104 -31.5t37 -86.5l-25 -5q0 43 -30.5 66t-85.5 23q-52 0 -83 -23.5t-31 -65.5z" />
    <glyph glyph-name="uni0312" unicode="&#x312;" horiz-adv-x="0" 
d="M-155 552q-13 0 -13 13l1 49q2 59 17 100l14 -4q-4 -40 -4 -87q8 0 8 -10l-1 -48q0 -13 -12 -13h-10z" />
    <glyph glyph-name="uni031B" unicode="&#x31b;" horiz-adv-x="0" 
d="M-246 415l-4 23q42 3 67 32t28 75l34 -5q-3 -54 -39 -88.5t-86 -36.5z" />
    <glyph glyph-name="dotbelowcomb" unicode="&#x323;" horiz-adv-x="0" 
d="M-106 -61q16 0 16 -15v-61q0 -16 -16 -16h-14q-16 0 -16 16v61q0 15 16 15h14z" />
    <glyph glyph-name="uni0324" unicode="&#x324;" horiz-adv-x="0" 
d="M-289 -64q13 0 13 -15v-55q0 -15 -13 -15h-15q-14 0 -14 15v55q0 15 14 15h15zM-112 -64q13 0 13 -15v-55q0 -15 -13 -15h-15q-14 0 -14 15v55q0 15 14 15h15z" />
    <glyph glyph-name="uni0327" unicode="&#x327;" horiz-adv-x="0" 
d="M-126 -47q45 3 66.5 -12.5t20.5 -52.5q-2 -55 -42 -86.5t-105 -23.5l7 23q48 -2 77.5 23t30.5 62q0 25 -13 35t-46 11z" />
    <glyph glyph-name="uni0328" unicode="&#x328;" horiz-adv-x="0" 
d="M-116 2l23 -2q-62 -64 -84 -123q-16 -44 9.5 -58t79.5 5l5 -18q-80 -32 -112.5 -7.5t-12.5 79.5q20 61 92 124z" />
    <glyph glyph-name="uni032E" unicode="&#x32e;" horiz-adv-x="0" 
d="M-97 -43l24 -5q1 -54 -36 -86t-102 -32q-66 0 -104 32t-37 86l25 5q0 -42 31 -65.5t85 -23.5q53 0 83.5 23.5t30.5 65.5z" />
    <glyph glyph-name="uni0331" unicode="&#x331;" horiz-adv-x="0" 
d="M-75 -84v-33h-264v33h264z" />
    <glyph glyph-name="uni0394" unicode="&#x394;" horiz-adv-x="617" 
d="M330 690l253 -664v-26h-549v26l253 664h43zM309 648q-4 -12 -12.5 -35.5t-12.5 -35.5l-205 -542h458l-204 543z" />
    <glyph glyph-name="uni03A9" unicode="&#x3a9;" horiz-adv-x="718" 
d="M359 702q141 0 206.5 -84.5t65.5 -256.5q0 -119 -37 -194t-120 -132q21 1 63 1h127v-36h-234v35q87 58 122.5 132t36.5 190q-1 159 -55.5 233.5t-174.5 74.5q-122 0 -175.5 -74t-53.5 -236q0 -120 36 -189t122 -131v-35h-234v36h127q43 0 63 -1q-84 56 -120.5 132
t-36.5 194q0 173 64.5 257t207.5 84z" />
    <glyph glyph-name="uni03BC" unicode="&#x3bc;" horiz-adv-x="597" 
d="M574 25l3 -24q-26 -8 -59 -8q-36 0 -51 22t-15 67v49q-29 -67 -92.5 -105t-129.5 -38t-101 33v-118l-7 -100h-31v679h38v-350q0 -56 25 -81.5t79 -25.5q82 0 148.5 58t67.5 137v262h40v-387q0 -35 8 -52.5t33 -17.5h44z" />
    <glyph glyph-name="pi" unicode="&#x3c0;" horiz-adv-x="641" 
d="M611 482v-34h-107v-448h-40v448h-288v-448h-39v448h-107v34h581z" />
    <glyph glyph-name="uni0400" unicode="&#x400;" horiz-adv-x="553" 
d="M349 754l-18 -20l-163 136l26 29zM210 35h285l2 -31q-96 -4 -294 -4q-49 0 -79.5 29.5t-30.5 76.5v478q0 47 30.5 76.5t79.5 29.5q198 0 294 -4l-2 -31h-285q-34 0 -55 -21.5t-21 -56.5v-191l320 -1v-33l-320 -1v-238q0 -35 21 -56.5t55 -21.5z" />
    <glyph glyph-name="uni0401" unicode="&#x401;" horiz-adv-x="553" 
d="M210 775q-14 0 -14 14v56q0 14 14 14h15q13 0 13 -14v-56q0 -14 -13 -14h-15zM387 775q-14 0 -14 14v56q0 14 14 14h15q13 0 13 -14v-56q0 -14 -13 -14h-15zM210 35h285l2 -31q-96 -4 -294 -4q-49 0 -79.5 29.5t-30.5 76.5v478q0 47 30.5 76.5t79.5 29.5q198 0 294 -4
l-2 -31h-285q-34 0 -55 -21.5t-21 -56.5v-191l320 -1v-33l-320 -1v-238q0 -35 21 -56.5t55 -21.5z" />
    <glyph glyph-name="uni0402" unicode="&#x402;" horiz-adv-x="749" 
d="M522 435q82 0 127.5 -43.5t45.5 -158.5q0 -128 -63 -182.5t-190 -50.5l-4 29q114 7 165 48.5t51 152.5q0 99 -35.5 133.5t-105.5 34.5q-56 0 -103 -18t-106 -56v-324h-41v654h-237v36h516v-36h-238v-295q108 76 218 76z" />
    <glyph glyph-name="uni0403" unicode="&#x403;" horiz-adv-x="515" 
d="M397 901l26 -30l-163 -135l-18 19zM204 690q191 0 286 -5l-3 -30h-272q-35 0 -56.5 -21.5t-21.5 -58.5v-575h-41v581q0 48 30.5 78.5t77.5 30.5z" />
    <glyph glyph-name="uni0404" unicode="&#x404;" horiz-adv-x="572" 
d="M521 38l7 -31q-79 -19 -188 -19q-148 0 -208 80t-60 277t60 277t208 80q107 0 180 -18l-7 -31q-76 12 -173 12q-118 0 -169 -62.5t-55 -216.5l311 -1v-32l-312 -1v-7q0 -178 50 -249t175 -71q104 0 181 13z" />
    <glyph glyph-name="uni0405" unicode="&#x405;" horiz-adv-x="556" 
d="M275 701q107 -2 192 -14l-4 -30q-138 7 -187 7q-36 0 -55 -1t-42 -5t-34 -13t-22 -24.5t-14.5 -39.5t-3.5 -59q0 -70 23.5 -101.5t79.5 -40.5l150 -25q76 -11 107.5 -53.5t31.5 -130.5q0 -60 -13 -97t-43 -55.5t-65.5 -24t-94.5 -5.5q-112 0 -206 13l3 31q118 -8 205 -7
q52 1 81 6t51.5 20t31 43.5t8.5 75.5q0 75 -24 106t-83 40l-150 25q-72 11 -103.5 54t-31.5 127q0 61 12 97.5t41.5 54t64 22.5t94.5 4z" />
    <glyph glyph-name="uni0406" unicode="&#x406;" horiz-adv-x="239" 
d="M140 690v-690h-41v690h41z" />
    <glyph glyph-name="uni0407" unicode="&#x407;" horiz-adv-x="239" 
d="M38 859q13 0 13 -14v-56q0 -14 -13 -14h-15q-14 0 -14 14v56q0 14 14 14h15zM215 859q13 0 13 -14v-56q0 -14 -13 -14h-15q-14 0 -14 14v56q0 14 14 14h15zM140 690v-690h-41v690h41z" />
    <glyph glyph-name="uni0408" unicode="&#x408;" horiz-adv-x="328" 
d="M232 690v-567q0 -65 -31.5 -98t-93.5 -32q-33 0 -71 8l5 28h56q94 0 94 94v567h41z" />
    <glyph glyph-name="uni0409" unicode="&#x409;" horiz-adv-x="966" 
d="M699 391q120 0 166 -45t46 -155q0 -115 -46.5 -157t-161.5 -42q-138 0 -218 8v655h-159q-75 0 -81 -80q-20 -234 -33 -313t-50 -145q-58 -104 -132 -117l-5 29q56 28 98 101q36 63 48 129.5t30 267.5q3 34 5 53q8 110 115 110h205v-299h173zM699 29q97 0 133.5 33
t36.5 130q0 92 -36 127.5t-134 35.5h-173v-324q74 -2 173 -2z" />
    <glyph glyph-name="uni040A" unicode="&#x40a;" horiz-adv-x="982" 
d="M715 389q120 0 166 -44.5t46 -153.5q0 -115 -46.5 -157t-162.5 -42q-137 0 -217 8v354h-361v-354h-41v690h41v-301h361v301h41v-301h173zM715 29q97 0 133.5 33t36.5 129q0 91 -36 127t-134 36h-173v-323q74 -2 173 -2z" />
    <glyph glyph-name="uni040B" unicode="&#x40b;" horiz-adv-x="786" 
d="M572 435q148 0 148 -148v-287h-41v280q0 62 -28.5 90t-89.5 28q-69 0 -126 -16.5t-131 -59.5v-322h-41v654h-237v36h516v-36h-238v-296q131 77 268 77z" />
    <glyph glyph-name="uni040C" unicode="&#x40c;" horiz-adv-x="580" 
d="M419 871l-163 -135l-18 19l155 146zM288 359q21 -1 39.5 -7.5t35.5 -20.5t30 -27t28 -38t24.5 -42t24 -51t22.5 -53t24 -59.5t24 -60.5h-44q-7 17 -22 55.5t-21.5 54.5t-20.5 48t-22 46l-22 38.5t-24.5 35.5t-26.5 26.5t-31.5 22t-35 11.5t-40.5 5h-94q3 -43 3 -83v-260
h-40v690h40v-231q0 -45 -4 -82h97q37 1 69.5 20.5t52.5 39t47 71.5t36 74.5t36 90.5q5 11 7 17h43q-25 -65 -40.5 -101.5t-39.5 -84.5t-45 -73.5t-49.5 -46t-60.5 -23.5v-2z" />
    <glyph glyph-name="uni040D" unicode="&#x40d;" horiz-adv-x="681" 
d="M231 899l155 -145l-18 -20l-163 136zM583 690v-690h-41v562q0 47 1 71h-2q-1 -1 -14.5 -27t-20.5 -37l-366 -569h-41v690h40v-559q0 -49 -1 -74h2q5 8 19 32.5t21 36.5l361 564h42z" />
    <glyph glyph-name="uni040E" unicode="&#x40e;" horiz-adv-x="544" 
d="M275 750q-65 0 -103.5 35.5t-36.5 90.5h34q0 -47 28.5 -73.5t77.5 -26.5q47 0 75.5 26.5t28.5 73.5h35q1 -56 -37 -91t-102 -35zM481 690h43l-198 -527q-37 -97 -61 -127q-31 -39 -73 -42q-53 -4 -103 12l5 29q35 -5 55.5 -7t40 3t29.5 11t22.5 26.5t20.5 39t24 58.5
l14 38h-43q-41 0 -55 38l-170 448h43l161 -430q8 -21 29 -21h48z" />
    <glyph glyph-name="uni040F" unicode="&#x40f;" horiz-adv-x="668" 
d="M528 690h41v-690h-216l-3 -151h-29l-4 151h-218v690h41v-655h388v655z" />
    <glyph glyph-name="uni0410" unicode="&#x410;" horiz-adv-x="608" 
d="M548 0l-85 243h-318l-85 -243h-43l241 677q5 13 18 13h56q13 0 18 -13l241 -677h-43zM158 279h292l-112 321l-20 56h-28l-20 -56z" />
    <glyph glyph-name="uni0411" unicode="&#x411;" horiz-adv-x="594" 
d="M322 376q120 0 166 -43t46 -150q0 -113 -48.5 -152t-167.5 -39q-136 0 -219 8v690q112 5 203 5q88 0 198 -5l-4 -34h-356v-280h182zM322 28q97 0 133.5 31.5t36.5 124.5q0 89 -36 123t-134 34h-182v-311q76 -2 182 -2z" />
    <glyph glyph-name="uni0412" unicode="&#x412;" horiz-adv-x="614" 
d="M408 356q74 -7 105.5 -52.5t31.5 -131.5q0 -104 -47 -142t-167 -38q-149 0 -232 8v690q73 8 202 8q126 0 175 -38t49 -142q0 -75 -28 -113.5t-89 -44.5v-4zM483 515q0 88 -39.5 117.5t-143.5 29.5q-90 0 -160 -2v-286h178q94 1 129.5 29.5t35.5 111.5zM327 28
q100 0 138 30t38 118q0 95 -40.5 129t-144.5 36h-178v-311q78 -2 187 -2z" />
    <glyph glyph-name="uni0413" unicode="&#x413;" horiz-adv-x="515" 
d="M204 690q191 0 286 -5l-3 -30h-272q-35 0 -56.5 -21.5t-21.5 -58.5v-575h-41v581q0 48 30.5 78.5t77.5 30.5z" />
    <glyph glyph-name="uni0414" unicode="&#x414;" horiz-adv-x="665" 
d="M546 35h82v-186h-29l-6 151h-533l-7 -151h-29v186h59q101 189 114 545q1 53 30 81.5t82 28.5h237v-655zM126 35h378v620h-189q-76 0 -79 -78q-5 -167 -29 -300t-81 -242z" />
    <glyph glyph-name="uni0415" unicode="&#x415;" horiz-adv-x="553" 
d="M210 35h285l2 -31q-96 -4 -294 -4q-49 0 -79.5 29.5t-30.5 76.5v478q0 47 30.5 76.5t79.5 29.5q198 0 294 -4l-2 -31h-285q-34 0 -55 -21.5t-21 -56.5v-191l320 -1v-33l-320 -1v-238q0 -35 21 -56.5t55 -21.5z" />
    <glyph glyph-name="uni0416" unicode="&#x416;" horiz-adv-x="886" 
d="M594 359q21 -1 39.5 -7.5t35.5 -21t30 -26.5t28.5 -38t24.5 -41.5t24.5 -51.5t22 -52.5t23.5 -60t24 -60.5h-44q-7 18 -22 55.5t-22 54.5t-20.5 48t-21.5 46t-22 39t-25 35.5t-26.5 26.5t-31 21.5t-34.5 11.5t-40 5h-75q4 -39 4 -83v-260h-39v260q0 44 4 83h-82
q-23 0 -43.5 -4.5t-39 -17.5t-32 -23.5t-29.5 -35t-25.5 -39.5t-24.5 -49.5t-22 -52l-24 -60t-25 -61.5h-44q7 17 24 60.5t23.5 60t22 52.5t24.5 51.5t24.5 41.5t28.5 38t30 26.5t35.5 21t39.5 7.5v2q-51 5 -96.5 57.5t-67 98t-60.5 146.5q-7 18 -11 27h43q60 -149 86 -195
q68 -118 160 -118h85q-4 37 -4 82v231h39v-231q0 -45 -4 -82h77q56 0 103.5 47.5t69 91.5t61.5 143q9 21 13 31h43q-63 -157 -90 -205q-65 -116 -145 -124v-2z" />
    <glyph glyph-name="uni0417" unicode="&#x417;" horiz-adv-x="546" 
d="M232 698q125 0 174 -37.5t49 -142.5q0 -75 -28 -113.5t-89 -44.5v-4q74 -7 105.5 -52.5t31.5 -131.5q0 -104 -47 -142t-166 -38q-127 0 -220 16l5 30q170 -10 211 -10q100 0 137.5 30t37.5 118q0 95 -40.5 130t-143.5 35h-105v33h105q93 0 128.5 29.5t35.5 111.5
q0 88 -39 117.5t-143 29.5q-36 0 -71.5 -1.5t-63 -4t-35.5 -2.5l-5 30q83 14 176 14z" />
    <glyph glyph-name="uni0418" unicode="&#x418;" horiz-adv-x="681" 
d="M583 690v-690h-41v562q0 47 1 71h-2q-1 -1 -14.5 -27t-20.5 -37l-366 -569h-41v690h40v-559q0 -49 -1 -74h2q5 8 19 32.5t21 36.5l361 564h42z" />
    <glyph glyph-name="uni0419" unicode="&#x419;" horiz-adv-x="681" 
d="M448 876h35q1 -56 -37 -91t-102 -35q-65 0 -103.5 35.5t-36.5 90.5h34q0 -47 28.5 -73.5t77.5 -26.5q47 0 75.5 26.5t28.5 73.5zM583 690v-690h-41v562q0 47 1 71h-2q-1 -1 -14.5 -27t-20.5 -37l-366 -569h-41v690h40v-559q0 -49 -1 -74h2q5 8 19 32.5t21 36.5l361 564
h42z" />
    <glyph glyph-name="uni041A" unicode="&#x41a;" horiz-adv-x="580" 
d="M288 359q21 -1 39.5 -7.5t35.5 -20.5t30 -27t28 -38t24.5 -42t24 -51t22.5 -53t24 -59.5t24 -60.5h-44q-7 17 -22 55.5t-21.5 54.5t-20.5 48t-22 46l-22 38.5t-24.5 35.5t-26.5 26.5t-31.5 22t-35 11.5t-40.5 5h-94q3 -43 3 -83v-260h-40v690h40v-231q0 -45 -4 -82h97
q37 1 69.5 20.5t52.5 39t47 71.5t36 74.5t36 90.5q5 11 7 17h43q-25 -65 -40.5 -101.5t-39.5 -84.5t-45 -73.5t-49.5 -46t-60.5 -23.5v-2z" />
    <glyph glyph-name="uni041B" unicode="&#x41b;" horiz-adv-x="637" 
d="M538 690v-690h-41v655h-180q-77 0 -83 -80q-15 -175 -21 -230.5t-21 -118.5t-42 -109q-54 -100 -132 -117l-5 32q58 27 99 98q37 66 49.5 140t32.5 311q11 109 114 109h230z" />
    <glyph glyph-name="uni041C" unicode="&#x41c;" horiz-adv-x="860" 
d="M726 690q20 0 20 -21l30 -669h-41l-29 655h-23l-208 -576q-5 -14 -19 -14h-52q-15 0 -20 14l-207 576h-23l-29 -655h-41l29 669q2 21 21 21h57q14 0 19 -14l175 -484q5 -14 10.5 -29.5t12 -34.5t10.5 -29h24l33 95l174 482q5 14 20 14h57z" />
    <glyph glyph-name="uni041D" unicode="&#x41d;" horiz-adv-x="660" 
d="M520 690h41v-690h-41v352h-380v-352h-41v690h41v-302h380v302z" />
    <glyph glyph-name="uni041E" unicode="&#x41e;" 
d="M332 702q144 0 201.5 -79t57.5 -278t-57.5 -278t-201.5 -79t-202 79.5t-58 277.5t58 277.5t202 79.5zM332 665q-121 0 -169 -71t-48 -249t48 -249t169 -71t168.5 70.5t47.5 249.5t-47.5 249.5t-168.5 70.5z" />
    <glyph glyph-name="uni041F" unicode="&#x41f;" horiz-adv-x="663" 
d="M564 690v-690h-41v655h-383v-655h-41v690h465z" />
    <glyph glyph-name="uni0420" unicode="&#x420;" horiz-adv-x="583" 
d="M324 698q115 0 160 -43.5t45 -162.5q0 -120 -44.5 -163t-157.5 -43q-107 0 -187 6v-292h-41v690q81 8 225 8zM324 322q92 2 127.5 36.5t35.5 133.5t-35.5 134.5t-127.5 35.5q-106 0 -184 -2v-338h184z" />
    <glyph glyph-name="uni0421" unicode="&#x421;" horiz-adv-x="563" 
d="M331 702q105 0 178 -18l-7 -30q-78 11 -171 11q-121 0 -168.5 -70.5t-47.5 -249.5t47.5 -249.5t168.5 -70.5q108 0 185 13l7 -31q-79 -19 -192 -19q-143 0 -201 80t-58 277t58 277t201 80z" />
    <glyph glyph-name="uni0422" unicode="&#x422;" horiz-adv-x="568" 
d="M542 690v-36h-238v-654h-41v654h-237v36h516z" />
    <glyph glyph-name="uni0423" unicode="&#x423;" horiz-adv-x="544" 
d="M481 690h43l-198 -527q-37 -97 -61 -127q-31 -39 -73 -42q-53 -4 -103 12l5 29q35 -5 55.5 -7t40 3t29.5 11t22.5 26.5t20.5 39t24 58.5l14 38h-43q-41 0 -55 38l-170 448h43l161 -430q8 -21 29 -21h48z" />
    <glyph glyph-name="uni0424" unicode="&#x424;" horiz-adv-x="821" 
d="M752 354q0 -160 -72 -226.5t-249 -69.5v-103h-41v103q-177 3 -249 69.5t-72 226.5q0 161 72 227.5t249 69.5v104h41v-104q177 -3 249 -69.5t72 -227.5zM111 354q0 -145 62 -201t218 -59v522q-156 -3 -218 -59.5t-62 -202.5zM430 94q157 3 218.5 59t61.5 201
q0 146 -61.5 202.5t-218.5 59.5v-522z" />
    <glyph glyph-name="uni0425" unicode="&#x425;" horiz-adv-x="603" 
d="M518 0l-202 343h-30l-202 -343h-47l213 359l-200 331h47l187 -313h34l188 313h47l-200 -331l213 -359h-48z" />
    <glyph glyph-name="uni0426" unicode="&#x426;" horiz-adv-x="677" 
d="M557 35h83v-186h-29l-7 151h-505v690h41v-655h376v655h41v-655z" />
    <glyph glyph-name="uni0427" unicode="&#x427;" horiz-adv-x="610" 
d="M470 690h41v-690h-41v342q-124 -78 -260 -78q-142 0 -142 147v279h41v-272q0 -61 27 -89t86 -28q67 0 121.5 16.5t126.5 58.5v314z" />
    <glyph glyph-name="uni0428" unicode="&#x428;" horiz-adv-x="908" 
d="M769 690h40v-690h-710v690h41v-655h294v655h40v-655h295v655z" />
    <glyph glyph-name="uni0429" unicode="&#x429;" horiz-adv-x="919" 
d="M800 35h83v-186h-29l-7 151h-748v690h41v-655h289v655h41v-655h290v655h40v-655z" />
    <glyph glyph-name="uni042A" unicode="&#x42a;" horiz-adv-x="745" 
d="M478 391q120 0 166 -45t46 -155q0 -115 -46.5 -157t-162.5 -42q-143 0 -226 8v654h-229v36h271v-299h181zM478 29q97 0 133.5 33t36.5 129q0 92 -36 128t-134 36h-181v-324q78 -2 181 -2z" />
    <glyph glyph-name="uni042B" unicode="&#x42b;" horiz-adv-x="819" 
d="M322 391q120 0 166 -45t46 -155q0 -115 -46.5 -157t-162.5 -42q-143 0 -226 8v690h41v-299h182zM679 690h41v-690h-41v690zM322 29q96 0 133 33t37 129q0 92 -36 128t-134 36h-182v-324q76 -2 182 -2z" />
    <glyph glyph-name="uni042C" unicode="&#x42c;" horiz-adv-x="589" 
d="M322 391q120 0 166 -45t46 -155q0 -115 -46.5 -157t-162.5 -42q-143 0 -226 8v690h41v-299h182zM322 29q96 0 133 33t37 129q0 92 -36 128t-134 36h-182v-324q76 -2 182 -2z" />
    <glyph glyph-name="uni042D" unicode="&#x42d;" horiz-adv-x="572" 
d="M231 702q149 0 208.5 -79.5t59.5 -277.5t-59.5 -277.5t-208.5 -79.5q-108 0 -187 19l7 31q77 -13 180 -13q126 0 176 71t50 249v7l-313 1v32l312 1q-4 154 -55 216.5t-170 62.5q-97 0 -173 -12l-7 31q75 18 180 18z" />
    <glyph glyph-name="uni042E" unicode="&#x42e;" horiz-adv-x="902" 
d="M570 702q144 0 201.5 -79t57.5 -278t-57.5 -278t-201.5 -79q-138 0 -193.5 78.5t-55.5 275.5h-180v-342h-41v690h41v-313h180q4 180 60 252.5t189 72.5zM570 25q121 0 168.5 70.5t47.5 249.5t-47.5 249.5t-168.5 70.5q-116 0 -161.5 -70.5t-45.5 -249.5t45.5 -249.5
t161.5 -70.5z" />
    <glyph glyph-name="uni042F" unicode="&#x42f;" horiz-adv-x="605" 
d="M289 698q138 0 217 -8v-690h-41v298q-117 -3 -191 -3q-78 0 -107 -87l-71 -208h-45l73 211q28 79 82 96l-1 5q-60 9 -90.5 60.5t-29.5 122.5q0 112 48 157.5t156 45.5zM275 331h190v329q-74 2 -176 2q-86 0 -124 -37t-38 -132q0 -162 148 -162z" />
    <glyph glyph-name="uni0430" unicode="&#x430;" horiz-adv-x="542" 
d="M313 494q142 0 142 -140v-354h-31l-7 90q-36 -36 -98.5 -66.5t-125.5 -30.5q-61 0 -95.5 32.5t-34.5 92.5v60q0 55 31 85t89 30h232v61q0 104 -107 104q-87 0 -222 -15l-4 30q152 21 231 21zM197 30q51 -1 113 25.5t105 67.5v138l-228 -3q-84 -2 -84 -83v-54
q0 -89 94 -91z" />
    <glyph glyph-name="uni0431" unicode="&#x431;" horiz-adv-x="564" 
d="M460 734l10 -30q-25 -17 -53 -29.5t-43.5 -17.5t-47 -13.5t-40.5 -10.5q-90 -26 -124 -76t-42 -138q-3 -24 -5 -69h1q7 23 17 41t30.5 37t57.5 29.5t87 10.5q105 0 147 -53.5t42 -184.5q0 -59 -8 -99.5t-30 -75t-64 -51t-105 -16.5q-57 0 -96 15t-61 38.5t-33.5 66.5
t-14.5 82.5t-3 104.5q0 91 6 145t26 102t58.5 76t101.5 47q15 4 45 11.5t46 12.5t42.5 16.5t52.5 28.5zM300 433q-105 0 -141 -49.5t-36 -150.5q0 -117 38 -163t131 -46q91 0 127 45.5t36 164.5q0 113 -33.5 156t-121.5 43z" />
    <glyph glyph-name="uni0432" unicode="&#x432;" horiz-adv-x="549" 
d="M363 247q66 -5 93.5 -36.5t27.5 -91.5q0 -72 -41.5 -98.5t-147.5 -26.5q-127 0 -205 6v481q68 6 178 6q112 0 155.5 -27t43.5 -102q0 -51 -25 -78t-79 -31v-2zM267 453q-69 1 -139 -1v-189h156q82 1 113 19.5t31 73.5q0 58 -35 77.5t-126 19.5zM291 27q86 0 119.5 20
t33.5 78q0 62 -35 85t-125 23h-156v-205q13 0 68.5 -0.5t94.5 -0.5z" />
    <glyph glyph-name="uni0433" unicode="&#x433;" horiz-adv-x="444" 
d="M184 482q155 0 232 -4v-30h-219q-36 0 -52.5 -17t-16.5 -54v-377h-40v385q0 46 25 71.5t71 25.5z" />
    <glyph glyph-name="uni0434" unicode="&#x434;" horiz-adv-x="559" 
d="M452 33h58v-178h-28l-6 145h-413l-6 -145h-27v178h46q79 130 90 352q6 97 101 97h185v-449zM116 33h298v416h-141q-66 0 -69 -68q-11 -222 -88 -348z" />
    <glyph glyph-name="uni0435" unicode="&#x435;" horiz-adv-x="530" 
d="M289 24q85 0 165 12l5 -28q-58 -20 -175 -20t-167.5 58.5t-50.5 196.5t48 194.5t162 56.5q192 0 194 -142q2 -66 -23 -98.5t-83 -32.5h-257q4 -110 46 -153.5t136 -43.5zM278 458q-94 0 -132 -45t-39 -159h251q74 0 72 96q-1 57 -38 82.5t-114 25.5z" />
    <glyph glyph-name="uni0436" unicode="&#x436;" horiz-adv-x="767" 
d="M529 251q45 -4 80.5 -39.5t53 -69.5t52.5 -119q7 -15 10 -23h-43q-4 10 -13 30q-20 47 -30.5 69t-29 54t-34 46t-39.5 25t-52 11h-83q4 -25 4 -55v-180h-37v180q0 30 4 55h-89q-16 0 -30 -3.5t-25 -7.5t-23 -14.5t-19.5 -17t-18.5 -24t-16 -26t-16 -31.5t-15.5 -33
t-17 -38.5t-17.5 -39.5h-42q56 133 80 170q48 76 116 81v1q-42 4 -77.5 41t-52 69.5t-48.5 108.5q-3 7 -5 11h42q17 -40 24.5 -56t23.5 -48.5t28 -46.5t29.5 -32t37.5 -25t44 -7h86q-3 29 -3 58v157h37v-157q0 -29 -3 -58h80q24 0 44 7t37.5 25t29.5 32t28 46.5t23.5 48.5
t24.5 56h42q-19 -47 -28.5 -68.5t-29 -57.5t-35 -53.5t-39 -32.5t-50.5 -18v-1z" />
    <glyph glyph-name="uni0437" unicode="&#x437;" horiz-adv-x="478" 
d="M199 488q117 0 161.5 -26t44.5 -100q0 -54 -22.5 -81t-80.5 -32v-2q63 -5 90.5 -35.5t27.5 -92.5q0 -68 -44.5 -97t-152.5 -29q-103 0 -171 12l5 30q101 -7 164 -7q88 0 122.5 22t34.5 75q0 61 -34 83t-121 23l-99 1v30l99 1q83 1 112.5 20t29.5 74q0 59 -35 77.5
t-135 18.5q-86 0 -128 -6l-5 30q61 11 137 11z" />
    <glyph glyph-name="uni0438" unicode="&#x438;" horiz-adv-x="583" 
d="M492 482v-482h-37v375v55h-1q-9 -15 -30 -45l-300 -385h-34v482h38v-372q0 -38 -1 -58h1q11 18 34 47l296 383h34z" />
    <glyph glyph-name="uni0439" unicode="&#x439;" horiz-adv-x="583" 
d="M388 695h35q1 -56 -37 -91t-102 -35q-65 0 -103.5 35.5t-36.5 90.5h34q0 -47 28.5 -73.5t77.5 -26.5q47 0 75.5 26.5t28.5 73.5zM492 482v-482h-37v375v55h-1q-9 -15 -30 -45l-300 -385h-34v482h38v-372q0 -38 -1 -58h1q11 18 34 47l296 383h34z" />
    <glyph glyph-name="uni043A" unicode="&#x43a;" horiz-adv-x="520" 
d="M269 251q37 -3 66 -20t54 -54t41 -69.5t43 -93.5q4 -9 6 -14h-43q-3 8 -10 23q-53 117 -84 154q-48 57 -121 58h-94q3 -29 3 -55v-180h-40v482h40v-157q0 -29 -3 -58h92q30 0 56 12t44 28t37.5 46.5t31 54t30.5 63.5q3 7 5 11h42q-21 -47 -31 -69t-31 -58t-37.5 -53
t-42 -32t-54.5 -18v-1z" />
    <glyph glyph-name="uni043B" unicode="&#x43b;" horiz-adv-x="543" 
d="M452 482v-482h-39v449h-141q-34 0 -50.5 -16.5t-20.5 -51.5q-1 -5 -5.5 -47t-6 -54.5t-7 -47.5t-10 -53t-12 -42.5t-16.5 -43.5q-37 -82 -117 -98l-5 32q62 24 87 80q13 27 23.5 70.5t14.5 73t9.5 79t6.5 56.5q6 49 31 72.5t75 23.5h183z" />
    <glyph glyph-name="uni043C" unicode="&#x43c;" horiz-adv-x="727" 
d="M605 482q19 0 19 -18l24 -464h-38l-23 449h-19l-165 -389q-6 -14 -18 -14h-44q-11 0 -17 14l-165 389h-19l-23 -449h-38l24 464q0 18 19 18h50q13 0 18 -14l137 -325q16 -37 27 -67h19q21 55 27 67l137 325q5 14 19 14h49z" />
    <glyph glyph-name="uni043D" unicode="&#x43d;" horiz-adv-x="570" 
d="M440 482h40v-482h-40v241h-310v-241h-40v482h40v-209h310v209z" />
    <glyph glyph-name="uni043E" unicode="&#x43e;" horiz-adv-x="563" 
d="M282 494q118 0 166 -57t48 -196q0 -140 -48 -196.5t-166 -56.5q-119 0 -167.5 56.5t-48.5 196.5q0 139 48.5 196t167.5 57zM282 458q-97 0 -135.5 -47t-38.5 -170t38.5 -170.5t135.5 -47.5t135 47.5t38 170.5t-38 170t-135 47z" />
    <glyph glyph-name="uni043F" unicode="&#x43f;" horiz-adv-x="567" 
d="M477 482v-482h-40v448h-308v-448h-39v482h387z" />
    <glyph glyph-name="uni0440" unicode="&#x440;" horiz-adv-x="567" 
d="M327 494q92 0 132 -59.5t40 -194.5q0 -136 -41 -194t-135 -58q-95 0 -196 53q4 -34 4 -94v-155h-40v690h31l6 -85q100 97 199 97zM317 24q77 0 109 48t32 168q0 119 -31.5 168.5t-106.5 49.5q-45 0 -87.5 -21t-101.5 -70v-300q115 -43 186 -43z" />
    <glyph glyph-name="uni0441" unicode="&#x441;" horiz-adv-x="482" 
d="M288 494q86 0 140 -19l-7 -27q-53 10 -127 10q-104 0 -145.5 -46.5t-41.5 -170.5t41.5 -170.5t145.5 -46.5q84 0 140 11l5 -28q-71 -19 -151 -19q-122 0 -172 57t-50 196t50 196t172 57z" />
    <glyph glyph-name="uni0442" unicode="&#x442;" horiz-adv-x="475" 
d="M446 482v-35h-188v-447h-41v447h-188v35h417z" />
    <glyph glyph-name="uni0443" unicode="&#x443;" horiz-adv-x="513" 
d="M443 482h43l-214 -524q-39 -96 -86 -134q-58 -42 -143 -29l3 26q72 -4 118 29q38 33 72 116l14 34h-13q-13 0 -18 12l-192 470h43l159 -395l21 -54h13l22 55z" />
    <glyph glyph-name="uni0444" unicode="&#x444;" horiz-adv-x="702" 
d="M637 241q0 -133 -60.5 -191t-205.5 -62v-196h-39v196q-145 3 -206 61.5t-61 191.5t61 191.5t206 61.5v206h39v-206q145 -4 205.5 -62t60.5 -191zM104 241q0 -118 51.5 -166t177.5 -51v434q-126 -3 -177.5 -51t-51.5 -166zM370 24q125 3 176 51t51 166t-51 166t-176 51
v-434z" />
    <glyph glyph-name="uni0445" unicode="&#x445;" horiz-adv-x="512" 
d="M433 0l-165 235h-24l-165 -235h-46l177 250l-164 232h46l150 -214h28l150 214h46l-164 -232l177 -250h-46z" />
    <glyph glyph-name="uni0446" unicode="&#x446;" horiz-adv-x="573" 
d="M468 33h56v-176h-27l-7 143h-399v482h39v-449h298v449h40v-449z" />
    <glyph glyph-name="uni0447" unicode="&#x447;" horiz-adv-x="512" 
d="M382 482h40v-482h-40v228q-102 -49 -213 -49q-107 0 -107 103v200h40v-190q0 -41 19 -59.5t59 -18.5q99 0 202 48v220z" />
    <glyph glyph-name="uni0448" unicode="&#x448;" horiz-adv-x="787" 
d="M658 482h39v-482h-607v482h40v-449h244v449h39v-449h245v449z" />
    <glyph glyph-name="uni0449" unicode="&#x449;" horiz-adv-x="804" 
d="M698 33h57v-176h-28l-6 143h-630v482h39v-449h245v449h38v-449h247v449h38v-449z" />
    <glyph glyph-name="uni044A" unicode="&#x44a;" horiz-adv-x="626" 
d="M395 276q102 0 141 -31.5t39 -109.5q0 -81 -39.5 -111t-136.5 -30q-117 0 -189 6v448h-181v34h220v-206h146zM395 28q78 0 108 22t30 86q0 61 -29.5 84.5t-108.5 23.5h-146v-215q12 0 61.5 -0.5t84.5 -0.5z" />
    <glyph glyph-name="uni044B" unicode="&#x44b;" horiz-adv-x="686" 
d="M277 276q92 0 127.5 -31.5t35.5 -109.5q0 -81 -35.5 -111t-123.5 -30q-118 0 -190 6h-1v482h39v-206h148zM555 482h40v-482h-40v482zM277 28q68 0 94.5 22t26.5 86q0 61 -25.5 84.5t-95.5 23.5h-148v-215q12 0 62 -0.5t86 -0.5z" />
    <glyph glyph-name="uni044C" unicode="&#x44c;" horiz-adv-x="507" 
d="M277 276q102 0 140.5 -31.5t38.5 -109.5q0 -81 -39 -111t-136 -30q-118 0 -190 6h-1v482h39v-206h148zM277 28q77 0 107 22t30 86q0 61 -29 84.5t-108 23.5h-148v-215q12 0 62 -0.5t86 -0.5z" />
    <glyph glyph-name="uni044D" unicode="&#x44d;" horiz-adv-x="489" 
d="M201 486q123 0 172.5 -55t49.5 -192t-49.5 -192.5t-172.5 -55.5q-89 0 -156 15l6 30q67 -9 150 -9q99 0 139.5 44.5t41.5 158.5l-253 1v30l253 1q-4 105 -44.5 147t-136.5 42q-77 0 -144 -7l-6 29q58 13 150 13z" />
    <glyph glyph-name="uni044E" unicode="&#x44e;" horiz-adv-x="774" 
d="M488 494q123 0 171.5 -55t48.5 -196t-48.5 -196t-171.5 -55q-115 0 -162 53t-48 188h-147v-233h-40v482h40v-217h147q3 128 50 178.5t160 50.5zM488 27q99 0 138.5 47t39.5 169t-39.5 169t-138.5 47q-95 0 -132 -47t-37 -169t37 -169t132 -47z" />
    <glyph glyph-name="uni044F" unicode="&#x44f;" horiz-adv-x="530" 
d="M237 485q127 0 202 -7v-478h-39v191h-152q-94 0 -114 -62l-39 -129h-43l45 141q18 55 96 64v3q-60 3 -89 40.5t-29 100.5q0 62 38.5 99t123.5 37zM249 223h151v226q-68 2 -162 2q-123 0 -123 -108q0 -60 31 -90t103 -30z" />
    <glyph glyph-name="uni0450" unicode="&#x450;" horiz-adv-x="530" 
d="M321 573l-18 -20l-163 136l26 29zM289 24q85 0 165 12l5 -28q-58 -20 -175 -20t-167.5 58.5t-50.5 196.5t48 194.5t162 56.5q192 0 194 -142q2 -66 -23 -98.5t-83 -32.5h-257q4 -110 46 -153.5t136 -43.5zM278 458q-94 0 -132 -45t-39 -159h251q74 0 72 96
q-1 57 -38 82.5t-114 25.5z" />
    <glyph glyph-name="uni0451" unicode="&#x451;" horiz-adv-x="530" 
d="M182 594q-14 0 -14 14v56q0 14 14 14h15q13 0 13 -14v-56q0 -14 -13 -14h-15zM359 594q-14 0 -14 14v56q0 14 14 14h15q13 0 13 -14v-56q0 -14 -13 -14h-15zM289 24q85 0 165 12l5 -28q-58 -20 -175 -20t-167.5 58.5t-50.5 196.5t48 194.5t162 56.5q192 0 194 -142
q2 -66 -23 -98.5t-83 -32.5h-257q4 -110 46 -153.5t136 -43.5zM278 458q-94 0 -132 -45t-39 -159h251q74 0 72 96q-1 57 -38 82.5t-114 25.5z" />
    <glyph glyph-name="uni0452" unicode="&#x452;" horiz-adv-x="571" 
d="M376 395q130 0 130 -132v-300q0 -100 -73 -171l-22 17q55 71 55 154v292q0 53 -25 78t-78 25q-48 0 -95 -21t-117 -68v-269h-40v505h-80v29h80v166h41v-166h210v-29h-210v-114q0 -57 -5 -91q128 95 229 95z" />
    <glyph glyph-name="uni0453" unicode="&#x453;" horiz-adv-x="444" 
d="M361 720l26 -30l-163 -135l-18 19zM184 482q155 0 232 -4v-30h-219q-36 0 -52.5 -17t-16.5 -54v-377h-40v385q0 46 25 71.5t71 25.5z" />
    <glyph glyph-name="uni0454" unicode="&#x454;" horiz-adv-x="490" 
d="M438 36l6 -30q-66 -15 -155 -15q-123 0 -172.5 55.5t-49.5 192.5t49.5 192t172.5 55q91 0 150 -13l-6 -29q-67 7 -144 7q-96 0 -136.5 -42t-44.5 -147l253 -1v-30l-253 -1q1 -114 41.5 -158.5t139.5 -44.5q83 0 149 9z" />
    <glyph glyph-name="uni0455" unicode="&#x455;" horiz-adv-x="502" 
d="M240 494q108 -2 190 -13l-3 -29q-118 6 -184 7q-86 2 -115.5 -13.5t-29.5 -80.5q0 -47 19 -67t59 -26l157 -23q56 -9 83 -38.5t27 -86.5q0 -85 -44 -110t-150 -25q-96 0 -178 12l4 29q86 -7 170 -6q93 1 126 19.5t33 80.5q0 45 -21.5 64.5t-61.5 26.5l-156 23
q-54 9 -80 38t-26 89q0 83 40.5 107t140.5 22z" />
    <glyph glyph-name="uni0456" unicode="&#x456;" horiz-adv-x="228" 
d="M123 683q15 0 15 -16v-60q0 -16 -15 -16h-18q-15 0 -15 16v60q0 16 15 16h18zM134 482v-482h-40v482h40z" />
    <glyph glyph-name="uni0457" unicode="&#x457;" horiz-adv-x="228" 
d="M32 678q13 0 13 -14v-56q0 -14 -13 -14h-15q-14 0 -14 14v56q0 14 14 14h15zM209 678q13 0 13 -14v-56q0 -14 -13 -14h-15q-14 0 -14 14v56q0 14 14 14h15zM134 482v-482h-40v482h40z" />
    <glyph glyph-name="uni0458" unicode="&#x458;" horiz-adv-x="228" 
d="M123 683q16 0 16 -16v-60q0 -16 -16 -16h-18q-15 0 -15 16v60q0 16 15 16h18zM134 482v-519q0 -100 -73 -171l-22 17q55 71 55 154v519h40z" />
    <glyph glyph-name="uni0459" unicode="&#x459;" horiz-adv-x="778" 
d="M557 285q96 0 132.5 -32.5t36.5 -113.5q0 -92 -40.5 -118.5t-144.5 -26.5q-89 0 -153 6v450h-115q-30 0 -45 -13t-18 -43q-16 -155 -26 -207.5t-38 -99.5q-36 -69 -109 -88l-6 29q53 29 78 70q29 48 37.5 94t25.5 208q8 82 95 82h160v-197h130zM535 27q88 0 119.5 20
t31.5 93q0 63 -27.5 88.5t-101.5 25.5h-130v-226q15 0 53 -0.5t55 -0.5z" />
    <glyph glyph-name="uni045A" unicode="&#x45a;" horiz-adv-x="791" 
d="M571 283q95 0 131.5 -32t36.5 -111q0 -84 -37 -115t-127 -31q-108 0 -175 6v251h-271v-251h-38v482h38v-200h271v200h39v-199h132zM571 27q71 0 99 23t28 90q0 63 -27 87.5t-100 24.5h-132v-224q11 0 55.5 -0.5t76.5 -0.5z" />
    <glyph glyph-name="uni045B" unicode="&#x45b;" horiz-adv-x="571" 
d="M376 395q130 0 130 -132v-263h-40v255q0 53 -25 78t-78 25q-48 0 -95 -21t-117 -68v-269h-40v505h-80v29h80v166h41v-166h210v-29h-210v-114q0 -57 -5 -91q128 95 229 95z" />
    <glyph glyph-name="uni045C" unicode="&#x45c;" horiz-adv-x="520" 
d="M402 690l-163 -135l-18 19l155 146zM269 251q37 -3 66 -20t54 -54t41 -69.5t43 -93.5q4 -9 6 -14h-43q-3 8 -10 23q-53 117 -84 154q-48 57 -121 58h-94q3 -29 3 -55v-180h-40v482h40v-157q0 -29 -3 -58h92q30 0 56 12t44 28t37.5 46.5t31 54t30.5 63.5q3 7 5 11h42
q-21 -47 -31 -69t-31 -58t-37.5 -53t-42 -32t-54.5 -18v-1z" />
    <glyph glyph-name="uni045D" unicode="&#x45d;" horiz-adv-x="583" 
d="M171 718l155 -145l-18 -20l-163 136zM492 482v-482h-37v375v55h-1q-9 -15 -30 -45l-300 -385h-34v482h38v-372q0 -38 -1 -58h1q11 18 34 47l296 383h34z" />
    <glyph glyph-name="uni045E" unicode="&#x45e;" horiz-adv-x="513" 
d="M255 569q-65 0 -103.5 35.5t-36.5 90.5h34q0 -47 28.5 -73.5t77.5 -26.5q47 0 75.5 26.5t28.5 73.5h35q1 -56 -37 -91t-102 -35zM443 482h43l-214 -524q-39 -96 -86 -134q-58 -42 -143 -29l3 26q72 -4 118 29q38 33 72 116l14 34h-13q-13 0 -18 12l-192 470h43l159 -395
l21 -54h13l22 55z" />
    <glyph glyph-name="uni045F" unicode="&#x45f;" horiz-adv-x="569" 
d="M437 482h41v-482h-174l-5 -167h-28l-6 167h-174v482h40l1 -449h305v449z" />
    <glyph glyph-name="uni0462" unicode="&#x462;" horiz-adv-x="621" 
d="M362 391q120 0 166 -45t46 -155q0 -115 -46.5 -157t-161.5 -42q-144 0 -226 8h-1v562h-119v33h119v135h42v-135h249v-33h-249v-171h181zM362 29q97 0 133.5 33t36.5 129q0 92 -36 128t-134 36h-181v-324q76 -2 181 -2z" />
    <glyph glyph-name="uni0463" unicode="&#x463;" horiz-adv-x="519" 
d="M289 276q102 0 140.5 -31.5t38.5 -109.5q0 -81 -39.5 -111t-135.5 -30q-118 0 -190 6h-1v460h-98v29h98v201h39v-201h181v-29h-181v-184h148zM289 28q77 0 107 22t30 86q0 61 -29 84.5t-108 23.5h-148v-215q13 0 63 -0.5t85 -0.5z" />
    <glyph glyph-name="uni046A" unicode="&#x46a;" horiz-adv-x="842" 
d="M23 0q77 187 108 239q50 84 122 110q51 19 136 19v3l-307 296q-8 8 -5 15.5t14 7.5h655q11 0 14 -8t-5 -15l-301 -296v-3q151 0 209 -63.5t149 -283.5l3 -7.5t3 -6.5t3 -7h-44q-33 82 -54 131t-46 91t-44.5 61.5t-50.5 33.5t-62 17.5t-81 3.5q2 -56 2 -81v-257h-39v257
q0 25 2 81q-50 0 -81 -3t-62 -17.5t-50 -34t-44.5 -61.5t-46.5 -90.5t-54 -131.5h-43zM422 387l273 269h-555z" />
    <glyph glyph-name="uni046B" unicode="&#x46b;" horiz-adv-x="674" 
d="M23 0q63 141 90 178q42 61 111 75q33 7 80 7v3l-231 198q-6 6 -3 13.5t11 7.5h507q8 0 11.5 -7t-3.5 -13l-225 -199v-3q116 -1 160.5 -46t114.5 -203q3 -7 5 -11h-43q-30 69 -49 105.5t-39 66t-43.5 40.5t-50 16t-71.5 5q0 -10 0.5 -29t0.5 -27v-177h-39v177q0 8 0.5 17
t1.5 21t1 18q-45 0 -71.5 -5t-50.5 -16t-44 -40.5t-39 -66t-49 -105.5h-43zM337 277l199 174h-403z" />
    <glyph glyph-name="uni0472" unicode="&#x472;" 
d="M332 702q144 0 201.5 -79t57.5 -278t-57.5 -278t-201.5 -79t-202 79.5t-58 277.5t58 277.5t202 79.5zM332 665q-117 0 -166 -66.5t-51 -232.5h433q-2 166 -50.5 232.5t-165.5 66.5zM332 25q119 0 167 68t49 239h-433q1 -171 49.5 -239t167.5 -68z" />
    <glyph glyph-name="uni0473" unicode="&#x473;" horiz-adv-x="563" 
d="M282 494q118 0 166 -57t48 -196q0 -140 -48 -196.5t-166 -56.5q-119 0 -167.5 56.5t-48.5 196.5q0 139 48.5 196t167.5 57zM282 458q-93 0 -131.5 -42.5t-42.5 -151.5h347q-4 109 -42.5 151.5t-130.5 42.5zM282 23q96 0 134 46.5t39 166.5h-347q1 -120 39 -166.5
t135 -46.5z" />
    <glyph glyph-name="uni0474" unicode="&#x474;" horiz-adv-x="636" 
d="M271 0q-14 0 -18 13l-229 677h43l194 -582q18 -57 23 -74h28q2 7 8 24.5t16 50.5l140 495q13 49 40 74.5t80 25.5q14 0 31 -3l-1 -31h-18q-39 0 -59 -16t-34 -63l-171 -578q-6 -13 -19 -13h-54z" />
    <glyph glyph-name="uni0475" unicode="&#x475;" horiz-adv-x="540" 
d="M234 0q-12 0 -17 12l-190 472h44l157 -400q18 -46 20 -52h22q11 25 20 53l114 335q11 36 33.5 55t68.5 19q8 0 28 -2v-31q-2 0 -8 0.5t-8 0.5q-32 0 -48.5 -11.5t-28.5 -44.5l-140 -394q-3 -12 -17 -12h-50z" />
    <glyph glyph-name="uni048A" unicode="&#x48a;" horiz-adv-x="689" 
d="M344 751q-65 0 -103.5 35.5t-36.5 90.5h34q0 -47 28.5 -73.5t77.5 -26.5q47 0 75.5 26.5t28.5 73.5h35q1 -56 -37 -91t-102 -35zM623 18v1l3 -47h-71l5 28h-18v562q0 47 1 71h-2q-1 -1 -14.5 -27t-20.5 -37l-366 -569h-41v690h40v-559q0 -49 -1 -74h2q5 8 19 32.5
t21 36.5l361 564h42v-672h40zM626 -28h4l-3 -20zM615 -123l12 75l3 -58z" />
    <glyph glyph-name="uni048B" unicode="&#x48b;" horiz-adv-x="591" 
d="M284 569q-65 0 -103.5 35.5t-36.5 90.5h34q0 -47 28.5 -73.5t77.5 -26.5q47 0 75.5 26.5t28.5 73.5h35q1 -56 -37 -91t-102 -35zM528 18v-1l1 -44h-64l5 27h-15v375v55h-1q-9 -15 -30 -45l-300 -385h-34v482h38v-372q0 -38 -1 -58h1q11 18 34 47l296 383h34v-464h36z
M530 -27l-1 -5v5h1zM531 -102l-15 -15l13 85z" />
    <glyph glyph-name="uni048C" unicode="&#x48c;" horiz-adv-x="621" 
d="M363 391q120 0 166 -45t46 -155q0 -115 -46.5 -157t-162.5 -42q-143 0 -226 8v527h-119v34h119v129h41v-129h249v-34h-249v-136h182zM363 29q96 0 133 33t37 129q0 92 -36 128t-134 36h-182v-324q76 -2 182 -2z" />
    <glyph glyph-name="uni048D" unicode="&#x48d;" horiz-adv-x="519" 
d="M289 276q102 0 140.5 -31.5t38.5 -109.5q0 -81 -39.5 -111t-135.5 -30q-118 0 -190 6h-1v460h-98v29h98v201h39v-201h181v-29h-181v-184h148zM289 28q77 0 107 22t30 86q0 61 -29 84.5t-108 23.5h-148v-215q13 0 63 -0.5t85 -0.5z" />
    <glyph glyph-name="uni048E" unicode="&#x48e;" horiz-adv-x="619" 
d="M576 255l-20 -21l-81 81q-44 -29 -141 -29q-107 0 -187 6v-292h-41v690q81 8 225 8q115 0 160 -43.5t45 -162.5q0 -112 -39 -158zM331 322q79 2 113 24l-86 86l20 21l87 -87q29 38 29 126q0 99 -35.5 134.5t-127.5 35.5q-106 0 -184 -2v-338h184z" />
    <glyph glyph-name="uni048F" unicode="&#x48f;" horiz-adv-x="566" 
d="M506 -71l-24 -17l-67 95q-37 -19 -93 -19q-94 0 -195 53q3 -26 3 -94v-155h-39v690h31l5 -85q100 97 200 97q92 0 132 -59.5t40 -194.5q0 -162 -60 -216zM317 24q46 0 75 16l-71 102l23 17l71 -101q43 47 43 182q0 119 -32 168.5t-107 49.5q-44 0 -86.5 -21t-102.5 -70
v-299q118 -44 187 -44z" />
    <glyph glyph-name="uni0490" unicode="&#x490;" horiz-adv-x="516" 
d="M463 841h27v-157l-2 -29h-273q-35 0 -56.5 -21.5t-21.5 -58.5v-575h-41v581q0 48 30.5 78.5t77.5 30.5q168 0 252 -4z" />
    <glyph glyph-name="uni0491" unicode="&#x491;" horiz-adv-x="445" 
d="M389 629h28v-151l-1 -30h-219q-35 1 -52 -16.5t-17 -54.5v-377h-40v385q0 46 25 71.5t71 25.5q130 0 199 -3z" />
    <glyph glyph-name="uni0492" unicode="&#x492;" horiz-adv-x="537" 
d="M250 655q-35 0 -56.5 -21.5t-21.5 -58.5v-215h229v-34h-229v-326h-41v326h-112v34h112v221q0 48 30.5 78.5t77.5 30.5q191 0 286 -5l-3 -30h-272z" />
    <glyph glyph-name="uni0493" unicode="&#x493;" horiz-adv-x="444" 
d="M197 448q-36 0 -52.5 -17t-16.5 -54v-143h173v-29h-173v-205h-40v205h-87v29h87v151q0 46 25 71.5t71 25.5q155 0 232 -4v-30h-219z" />
    <glyph glyph-name="uni0494" unicode="&#x494;" horiz-adv-x="582" 
d="M354 435q39 0 68.5 -11.5t54.5 -40t38 -83t13 -133.5q0 -170 -60.5 -239.5t-190.5 -76.5l-6 30q57 6 93.5 20t66 44.5t43 84.5t13.5 136q0 72 -10 119t-30.5 71t-44.5 33t-58 9q-56 0 -102 -18t-105 -56v-324h-41v581q0 48 30.5 78.5t77.5 30.5q180 0 269 -5l-3 -30h-255
q-35 0 -56.5 -21.5t-21.5 -58.5v-216q108 76 217 76z" />
    <glyph glyph-name="uni0495" unicode="&#x495;" horiz-adv-x="521" 
d="M303 288q80 0 125 -47.5t45 -172.5q0 -145 -58.5 -208.5t-179.5 -69.5l-6 30q106 10 155 63.5t49 182.5q0 109 -35.5 147.5t-103.5 38.5q-46 0 -82 -14.5t-84 -47.5v-190h-40v385q0 46 25 71.5t71 25.5q140 0 210 -4v-30h-197q-36 0 -52.5 -17t-16.5 -54v-153
q87 64 175 64z" />
    <glyph glyph-name="uni0496" unicode="&#x496;" horiz-adv-x="927" 
d="M869 23h45v-146h-41l-3 95h-53l-1 28h-16q-7 18 -22 55.5t-22 54.5t-20.5 48t-21.5 46t-22 39t-25 35.5t-26.5 26.5t-31 21.5t-34.5 11.5t-40 5h-75q4 -39 4 -83v-260h-39v260q0 44 4 83h-82q-23 0 -43.5 -4.5t-39 -17.5t-32 -23.5t-29.5 -35t-25.5 -39.5t-24.5 -49.5
t-22 -52l-24 -60t-25 -61.5h-44q7 17 24 60.5t23.5 60t22 52.5t24.5 51.5t24.5 41.5t28.5 38t30 26.5t35.5 21t39.5 7.5v2q-51 5 -96.5 57.5t-67 98t-60.5 146.5q-7 18 -11 27h43q60 -149 86 -195q68 -118 160 -118h85q-4 37 -4 82v231h39v-231q0 -45 -4 -82h77
q56 0 103.5 47.5t69 91.5t61.5 143q9 21 13 31h43q-63 -157 -90 -205q-65 -116 -145 -124v-2q33 -2 62 -20.5t49.5 -42t43.5 -68.5t37 -78.5t38 -94.5q3 -8 5 -12.5t4.5 -11t4.5 -12.5h33v4z" />
    <glyph glyph-name="uni0497" unicode="&#x497;" horiz-adv-x="782" 
d="M711 33h57v-176h-27l-7 143h-52q-4 10 -13 30q-20 47 -30.5 69t-29 54t-34 46t-39.5 25t-52 11h-83q4 -25 4 -55v-180h-37v180q0 30 4 55h-89q-16 0 -30 -3.5t-25 -7.5t-23 -14.5t-19.5 -17t-18.5 -24t-16 -26t-16 -31.5t-15.5 -33t-17 -38.5t-17.5 -39.5h-42
q56 133 80 170q48 76 116 81v1q-42 4 -77.5 41t-52 69.5t-48.5 108.5q-3 7 -5 11h42q17 -40 24.5 -56t23.5 -48.5t28 -46.5t29.5 -32t37.5 -25t44 -7h86q-3 29 -3 58v157h37v-157q0 -29 -3 -58h80q24 0 44 7t37.5 25t29.5 32t28 46.5t23.5 48.5t24.5 56h42
q-19 -47 -28.5 -68.5t-29 -57.5t-35 -53.5t-39 -32.5t-50.5 -18v-1q27 -2 50 -15t39 -29t34 -48.5t29 -56t30 -69.5z" />
    <glyph glyph-name="uni0498" unicode="&#x498;" horiz-adv-x="546" 
d="M232 698q125 0 174 -37.5t49 -142.5q0 -75 -28 -113.5t-89 -44.5v-4q74 -7 105.5 -52.5t31.5 -131.5q0 -104 -47 -142t-166 -38q-127 0 -220 16l5 30q170 -10 211 -10q100 0 137.5 30t37.5 118q0 95 -40.5 130t-143.5 35h-105v33h105q93 0 128.5 29.5t35.5 111.5
q0 88 -39 117.5t-143 29.5q-36 0 -71.5 -1.5t-63 -4t-35.5 -2.5l-5 30q83 14 176 14zM229 -47q44 3 65.5 -12.5t20.5 -52.5q-1 -55 -41 -86.5t-105 -23.5l6 23q49 -2 78.5 23t29.5 62q0 25 -13 35t-46 11z" />
    <glyph glyph-name="uni0499" unicode="&#x499;" horiz-adv-x="478" 
d="M420 119q0 -64 -39 -93.5t-134 -32.5l-6 -160h-27l-6 160q-99 2 -156 12l5 30q101 -7 164 -7q88 0 122.5 22t34.5 75q0 61 -34 83t-121 23l-99 1v30l99 1q83 1 112.5 20t29.5 74q0 59 -35 77.5t-135 18.5q-86 0 -128 -6l-5 30q61 11 137 11q117 0 161.5 -26t44.5 -100
q0 -54 -22.5 -81t-80.5 -32v-2q63 -5 90.5 -35.5t27.5 -92.5z" />
    <glyph glyph-name="uni049A" unicode="&#x49a;" horiz-adv-x="627" 
d="M564 23h50v-146h-45l-3 95h-51l-1 28h-18q-7 17 -22 55.5t-21.5 54.5t-20.5 48t-22 46l-22 38.5t-24.5 35.5t-26.5 26.5t-31.5 22t-35 11.5t-40.5 5h-94q3 -43 3 -83v-260h-40v690h40v-231q0 -45 -4 -82h97q37 1 69.5 20.5t52.5 39t47 71.5t36 74.5t36 90.5q5 11 7 17h43
q-25 -65 -40.5 -101.5t-39.5 -84.5t-45 -73.5t-49.5 -46t-60.5 -23.5v-2q53 -4 97.5 -52t66 -93.5t63.5 -152.5q11 -28 17 -42h32v4z" />
    <glyph glyph-name="uni049B" unicode="&#x49b;" horiz-adv-x="525" 
d="M465 33h55v-176h-27l-7 143h-50q-3 8 -10 23q-53 117 -84 154q-48 57 -121 58h-94q3 -29 3 -55v-180h-40v482h40v-157q0 -29 -3 -58h92q30 0 56 12t44 28t37.5 46.5t31 54t30.5 63.5q3 7 5 11h42q-21 -47 -31 -69t-31 -58t-37.5 -53t-42 -32t-54.5 -18v-1q35 -3 63 -18.5
t52 -49t40.5 -64.5t40.5 -86z" />
    <glyph glyph-name="uni049C" unicode="&#x49c;" horiz-adv-x="574" 
d="M288 359q21 -1 39.5 -7.5t35.5 -20.5t30 -27t28 -38t24.5 -42t24 -51t22.5 -53t24 -59.5t24 -60.5h-44q-7 17 -20.5 51t-19.5 49.5t-18.5 44.5t-19.5 43.5t-19.5 37t-21.5 34.5t-22.5 27.5t-26.5 24t-28.5 16t-32.5 11.5v-173h-29v177h-8h-94q3 -43 3 -83v-260h-40v690
h40v-231q0 -45 -4 -82h97h6v176h29v-171q30 7 56.5 28.5t45 45t39.5 65.5t33 71t32 80q5 12 7 18h43q-25 -65 -40.5 -101.5t-39.5 -84.5t-45 -73.5t-49.5 -46t-60.5 -23.5v-2z" />
    <glyph glyph-name="uni049D" unicode="&#x49d;" horiz-adv-x="520" 
d="M269 251q37 -3 66 -20t54 -54t41 -69.5t43 -93.5q4 -9 6 -14h-43q-57 123 -78 156q-46 65 -108 76v-126h-28v129h-1h-94q3 -29 3 -55v-180h-40v482h40v-157q0 -29 -3 -58h92h3v124h28v-121q25 5 47.5 21t36.5 30.5t33.5 49.5t27 50t28.5 61h42q-21 -47 -31 -69t-31 -58
t-37.5 -53t-42 -32t-54.5 -18v-1z" />
    <glyph glyph-name="uni049E" unicode="&#x49e;" horiz-adv-x="616" 
d="M330 359q21 -1 39.5 -7.5t35.5 -20.5t30 -27t28 -38t24.5 -42t24 -51t22.5 -53t24 -59.5t24 -60.5h-44q-7 17 -22 55.5t-21.5 54.5t-20.5 48t-22 46l-22 38.5t-24.5 35.5t-26.5 26.5t-31.5 22t-35 11.5t-40.5 5h-94q3 -43 3 -83v-260h-40v529h-122v34h122v127h40v-127
h122v-34h-122v-70q0 -45 -4 -82h97q37 1 69.5 20.5t52.5 39t47 71.5t36 74.5t36 90.5q5 11 7 17h43q-25 -65 -40.5 -101.5t-39.5 -84.5t-45 -73.5t-49.5 -46t-60.5 -23.5v-2z" />
    <glyph glyph-name="uni049F" unicode="&#x49f;" horiz-adv-x="522" 
d="M269 251q37 -3 66 -20t54 -54t41 -69.5t43 -93.5q4 -9 6 -14h-43q-3 8 -10 23q-53 117 -84 154q-48 57 -121 58h-94q3 -29 3 -55v-180h-40v557h-79v29h79v104h40v-104h187v-29h-187v-232q0 -29 -3 -58h92q30 0 56 12t44 28t37.5 46.5t31 54t30.5 63.5q3 7 5 11h42
q-21 -47 -31 -69t-31 -58t-37.5 -53t-42 -32t-54.5 -18v-1z" />
    <glyph glyph-name="uni04A0" unicode="&#x4a0;" horiz-adv-x="725" 
d="M439 359q21 -1 39.5 -7.5t35.5 -20.5t30 -27t28 -38t24.5 -42t24 -51t22.5 -53t24 -59.5t24 -60.5h-44q-7 17 -22 55.5t-21.5 54.5t-20.5 48t-22 46l-22 38.5t-24.5 35.5t-26.5 26.5t-31.5 22t-35 11.5t-40.5 5h-94q3 -44 3 -83v-260h-40v690h40v-231q0 -45 -4 -82h97
q37 1 69.5 20.5t52.5 39t47 71.5t36 74.5t36 90.5q5 11 7 17h43q-25 -65 -40.5 -101.5t-39.5 -84.5t-45 -73.5t-49.5 -46t-60.5 -23.5v-2zM72 671v1h151v-1h-151z" />
    <glyph glyph-name="uni04A1" unicode="&#x4a1;" horiz-adv-x="613" 
d="M360 251q25 -2 45.5 -9.5t40 -26.5t31.5 -32.5t30 -48.5t25.5 -51.5t28.5 -62.5q6 -13 9 -20h-44q-55 124 -79 159q-52 75 -135 76h-95q3 -29 3 -55v-180h-39v448h-181v34h220v-157q0 -29 -3 -58h92q38 0 67.5 15t54.5 48.5t39.5 61t38.5 79.5q3 7 5 11h41
q-17 -39 -25.5 -57t-25 -50.5t-29.5 -48.5t-31.5 -35t-39 -28t-44.5 -11v-1z" />
    <glyph glyph-name="uni04A2" unicode="&#x4a2;" horiz-adv-x="680" 
d="M589 23h57v-146h-52l-3 95h-42l-1 28h-22v352h-380v-352h-41v690h41v-302h380v302h41v-671h22v4z" />
    <glyph glyph-name="uni04A3" unicode="&#x4a3;" horiz-adv-x="572" 
d="M480 33h56v-176h-27l-7 143h-62v241h-310v-241h-40v482h40v-209h310v209h40v-449z" />
    <glyph glyph-name="uni04A4" unicode="&#x4a4;" horiz-adv-x="871" 
d="M600 690q164 0 246 -5l-3 -30h-231q-36 0 -57.5 -21.5t-21.5 -58.5v-575h-41v352h-352v-352h-41v690h41v-302h352v193q0 48 30.5 78.5t77.5 30.5z" />
    <glyph glyph-name="uni04A5" unicode="&#x4a5;" horiz-adv-x="761" 
d="M518 482q143 0 215 -4l-1 -30h-201q-69 0 -69 -71v-377h-40v241h-292v-241h-40v482h40v-209h292v112q0 46 25 71.5t71 25.5z" />
    <glyph glyph-name="uni04A6" unicode="&#x4a6;" horiz-adv-x="1009" 
d="M781 435q39 0 68.5 -11.5t54.5 -40t38 -83t13 -133.5q0 -169 -60.5 -238t-190.5 -76l-6 30q56 6 93 20t66.5 44t43 84t13.5 135q0 72 -10 119t-30 71t-44 33t-59 9q-56 0 -102 -18t-105 -56v-324h-41v655h-383v-655h-41v690h465v-331q108 76 217 76z" />
    <glyph glyph-name="uni04A7" unicode="&#x4a7;" horiz-adv-x="881" 
d="M673 337q80 0 126 -52t46 -180q0 -149 -64 -228.5t-187 -85.5l-6 29q108 12 162 80t54 204q0 112 -36.5 154.5t-104.5 42.5q-51 0 -93 -17.5t-93 -54.5v-229h-40v448h-308v-448h-39v482h387v-217q98 72 196 72z" />
    <glyph glyph-name="uni04A8" unicode="&#x4a8;" horiz-adv-x="855" 
d="M826 15q-47 -27 -140 -27q-83 0 -147 30q-73 -30 -162 -30q-154 0 -229.5 85.5t-75.5 265.5q0 201 60.5 284t195.5 83v-37q-115 0 -164 -73.5t-49 -257.5q0 -165 66.5 -239.5t199.5 -74.5q63 0 117 16q-151 99 -151 352q0 164 48.5 236t152.5 72q106 0 154 -70t48 -231
q0 -259 -167 -359q50 -17 107 -17q72 0 130 17zM390 388q0 -247 153 -330q164 80 164 337q0 144 -38 206t-121 62t-120.5 -64t-37.5 -211z" />
    <glyph glyph-name="uni04A9" unicode="&#x4a9;" horiz-adv-x="681" 
d="M679 26q-46 -34 -124 -34q-63 0 -117 21q-56 -21 -128 -21q-126 0 -185 64t-59 201q0 129 49 182.5t160 53.5v-32q-90 0 -129.5 -46.5t-39.5 -157.5q0 -123 51 -178.5t157 -55.5q47 0 87 10q-113 71 -113 257q0 104 39 154.5t121 50.5q159 0 159 -202q0 -189 -129 -261
q34 -11 79 -11q66 0 113 26zM327 287q0 -183 114 -241q128 56 128 245q0 88 -29.5 129.5t-91.5 41.5t-91.5 -43t-29.5 -132z" />
    <glyph glyph-name="uni04AA" unicode="&#x4aa;" horiz-adv-x="563" 
d="M523 7q-74 -18 -174 -19l-4 -139h-29l-3 139q-133 4 -187 85t-54 272q0 197 58 277t201 80q105 0 178 -18l-7 -30q-78 11 -171 11q-121 0 -168.5 -70.5t-47.5 -249.5t47.5 -249.5t168.5 -70.5q108 0 185 13z" />
    <glyph glyph-name="uni04AB" unicode="&#x4ab;" horiz-adv-x="481" 
d="M439 7q-71 -19 -146 -19l-5 -155h-27l-6 156q-103 7 -146.5 64.5t-43.5 187.5q0 139 50.5 196t171.5 57q87 0 141 -19l-7 -27q-53 10 -127 10q-104 0 -145.5 -46.5t-41.5 -170.5t41.5 -170.5t145.5 -46.5q84 0 139 11z" />
    <glyph glyph-name="uni04AC" unicode="&#x4ac;" horiz-adv-x="568" 
d="M304 654v-635h22v4h57v-146h-52l-3 95h-42l-1 28h-22v654h-237v36h516v-36h-238z" />
    <glyph glyph-name="uni04AD" unicode="&#x4ad;" horiz-adv-x="474" 
d="M454 448h-197v-415h56v-176h-27l-7 143h-63v448h-196v34h434v-34z" />
    <glyph glyph-name="uni04AE" unicode="&#x4ae;" horiz-adv-x="548" 
d="M528 690l-233 -437v-253h-42v255l-234 435h45l171 -322q6 -11 18 -35l18 -36h6l35 70l171 323h45z" />
    <glyph glyph-name="uni04AF" unicode="&#x4af;" horiz-adv-x="563" 
d="M536 482l-234 -437v-253h-41v253l-234 437h45l171 -322q6 -11 18 -35t18 -35h6q24 48 35 69l171 323h45z" />
    <glyph glyph-name="uni04B0" unicode="&#x4b0;" horiz-adv-x="543" 
d="M530 690l-226 -424h158v-28h-165v-238h-42v238h-153v28h147l-228 424h45l171 -322q6 -11 18 -35l18 -36h6l35 70l171 323h45z" />
    <glyph glyph-name="uni04B1" unicode="&#x4b1;" horiz-adv-x="563" 
d="M536 482l-227 -424h152v-29h-159v-237h-41v237h-160v29h153l-227 424h45l171 -322q6 -11 18 -35t18 -35h6q24 48 35 69l171 323h45z" />
    <glyph glyph-name="uni04B2" unicode="&#x4b2;" horiz-adv-x="631" 
d="M560 23h56v-146h-51l-3 95h-22l-1 28h-23l-202 343h-30l-202 -343h-47l212 359l-199 331h46l188 -313h34l187 313h47l-200 -331l202 -340h8v4z" />
    <glyph glyph-name="uni04B3" unicode="&#x4b3;" horiz-adv-x="512" 
d="M455 33h51v-176h-27l-7 143h-40l-165 235h-23l-165 -235h-46l177 250l-165 232h46l151 -214h27l151 214h46l-165 -232z" />
    <glyph glyph-name="uni04B4" unicode="&#x4b4;" horiz-adv-x="813" 
d="M700 35h82v-186h-29l-6 151h-508v654h-213v36h500v-36h-245v-619h377v655h42v-655z" />
    <glyph glyph-name="uni04B5" unicode="&#x4b5;" horiz-adv-x="674" 
d="M419 482v-34h-407v34h407zM544 110v372h41v-482h-378v110h6v297h101v-297h230zM602 7h36v-157h-29z" />
    <glyph glyph-name="uni04B6" unicode="&#x4b6;" horiz-adv-x="621" 
d="M587 32v-32h-17l15 -23l-15 -128l-14 30l9 121h-99v340q-122 -76 -255 -76q-148 0 -148 147v279h42v-272q-1 -61 27.5 -89t89.5 -28q65 0 119.5 16.5t124.5 58.5v314h41v-658h80z" />
    <glyph glyph-name="uni04B7" unicode="&#x4b7;" horiz-adv-x="524" 
d="M421 33h57v-176h-27l-7 143h-62v228q-102 -49 -213 -49q-107 0 -107 103v200h40v-190q0 -41 19 -59.5t59 -18.5q99 0 202 48v220h40z" />
    <glyph glyph-name="uni04B8" unicode="&#x4b8;" horiz-adv-x="605" 
d="M465 690h42v-690h-42v341q-81 -50 -164 -67v-154h-29v149q-29 -5 -67 -5q-142 0 -142 147v279h41v-272q0 -61 27 -89t86 -28q28 0 55 3v199h29v-195q72 14 164 68v314z" />
    <glyph glyph-name="uni04B9" unicode="&#x4b9;" horiz-adv-x="512" 
d="M382 482h40v-482h-40v228q-60 -28 -125 -41v-124h-28v120q-28 -4 -60 -4q-107 0 -107 103v200h40v-190q0 -41 19 -59.5t59 -18.5q17 0 49 2v148h28v-144q57 10 125 42v220z" />
    <glyph glyph-name="uni04BA" unicode="&#x4ba;" horiz-adv-x="603" 
d="M395 426q147 0 147 -147v-279h-41v272q0 61 -28.5 89t-89.5 28q-64 0 -119 -16.5t-124 -58.5v-314h-41v690h41v-340q121 76 255 76z" />
    <glyph glyph-name="uni04BB" unicode="&#x4bb;" horiz-adv-x="572" 
d="M355 494q130 0 130 -132v-362h-40v354q0 54 -24 79t-75 25q-49 0 -96.5 -21.5t-119.5 -70.5v-366h-40v700h40l1 -209q0 -61 -5 -94q129 97 229 97z" />
    <glyph glyph-name="uni04BC" unicode="&#x4bc;" horiz-adv-x="715" 
d="M455 25q106 0 187 18l6 -29q-70 -26 -207 -26q-155 0 -216 78.5t-62 269.5h-11q-71 0 -102 34t-22 115h35q-19 -114 88 -114h12q4 183 63.5 257t200.5 74q237 0 237 -203q0 -79 -36.5 -121t-131.5 -42h-290q1 -178 54.5 -244.5t194.5 -66.5zM427 665q-120 0 -169 -65
t-52 -229h285q73 0 101.5 33.5t28.5 95.5q0 86 -48 125.5t-146 39.5z" />
    <glyph glyph-name="uni04BD" unicode="&#x4bd;" horiz-adv-x="599" 
d="M358 24q83 0 165 12l5 -28q-60 -20 -175 -20q-113 0 -164 54t-55 179q-69 1 -99.5 32.5t-20.5 107.5h33q-9 -56 11.5 -81t75.5 -26q1 132 50 186t161 54q191 0 194 -142q2 -66 -23.5 -98.5t-82.5 -32.5h-257q4 -110 46 -153.5t136 -43.5zM346 458q-93 0 -131 -45
t-39 -159h251q74 0 71 96q-1 56 -38 82t-114 26z" />
    <glyph glyph-name="uni04BE" unicode="&#x4be;" horiz-adv-x="715" 
d="M642 43l6 -29q-66 -24 -199 -26l-2 -139h-29l-4 140q-140 6 -195 85t-56 262h-11q-71 0 -102 34t-22 115h35q-19 -114 88 -114h12q4 183 63.5 257t200.5 74q237 0 237 -203q0 -79 -36.5 -121t-131.5 -42h-290q1 -178 54.5 -244.5t194.5 -66.5q106 0 187 18zM427 665
q-120 0 -169 -65t-52 -229h285q73 0 101.5 33.5t28.5 95.5q0 86 -48 125.5t-146 39.5z" />
    <glyph glyph-name="uni04BF" unicode="&#x4bf;" horiz-adv-x="599" 
d="M523 36l5 -28q-54 -18 -162 -20l-5 -155h-27l-5 156q-100 5 -145.5 59.5t-49.5 172.5q-69 1 -99.5 32.5t-20.5 107.5h33q-9 -56 11.5 -81t75.5 -26q1 132 50 186t161 54q191 0 194 -142q2 -66 -23.5 -98.5t-82.5 -32.5h-257q4 -110 46 -153.5t136 -43.5q83 0 165 12z
M346 458q-93 0 -131 -45t-39 -159h251q74 0 71 96q-1 56 -38 82t-114 26z" />
    <glyph glyph-name="uni04C0" unicode="&#x4c0;" horiz-adv-x="251" 
d="M146 690v-690h-41v690h41z" />
    <glyph glyph-name="uni04C1" unicode="&#x4c1;" horiz-adv-x="886" 
d="M446 750q-65 0 -103.5 35.5t-36.5 90.5h34q0 -47 28.5 -73.5t77.5 -26.5q47 0 75.5 26.5t28.5 73.5h35q1 -56 -37 -91t-102 -35zM594 359q21 -1 39.5 -7.5t35.5 -21t30 -26.5t28.5 -38t24.5 -41.5t24.5 -51.5t22 -52.5t23.5 -60t24 -60.5h-44q-7 18 -22 55.5t-22 54.5
t-20.5 48t-21.5 46t-22 39t-25 35.5t-26.5 26.5t-31 21.5t-34.5 11.5t-40 5h-75q4 -39 4 -83v-260h-39v260q0 44 4 83h-82q-23 0 -43.5 -4.5t-39 -17.5t-32 -23.5t-29.5 -35t-25.5 -39.5t-24.5 -49.5t-22 -52l-24 -60t-25 -61.5h-44q7 17 24 60.5t23.5 60t22 52.5t24.5 51.5
t24.5 41.5t28.5 38t30 26.5t35.5 21t39.5 7.5v2q-51 5 -96.5 57.5t-67 98t-60.5 146.5q-7 18 -11 27h43q60 -149 86 -195q68 -118 160 -118h85q-4 37 -4 82v231h39v-231q0 -45 -4 -82h77q56 0 103.5 47.5t69 91.5t61.5 143q9 21 13 31h43q-63 -157 -90 -205
q-65 -116 -145 -124v-2z" />
    <glyph glyph-name="uni04C2" unicode="&#x4c2;" horiz-adv-x="767" 
d="M385 569q-65 0 -103.5 35.5t-36.5 90.5h34q0 -47 28.5 -73.5t77.5 -26.5q47 0 75.5 26.5t28.5 73.5h35q1 -56 -37 -91t-102 -35zM529 251q45 -4 80.5 -39.5t53 -69.5t52.5 -119q7 -15 10 -23h-43q-4 10 -13 30q-20 47 -30.5 69t-29 54t-34 46t-39.5 25t-52 11h-83
q4 -25 4 -55v-180h-37v180q0 30 4 55h-89q-16 0 -30 -3.5t-25 -7.5t-23 -14.5t-19.5 -17t-18.5 -24t-16 -26t-16 -31.5t-15.5 -33t-17 -38.5t-17.5 -39.5h-42q56 133 80 170q48 76 116 81v1q-42 4 -77.5 41t-52 69.5t-48.5 108.5q-3 7 -5 11h42q17 -40 24.5 -56t23.5 -48.5
t28 -46.5t29.5 -32t37.5 -25t44 -7h86q-3 29 -3 58v157h37v-157q0 -29 -3 -58h80q24 0 44 7t37.5 25t29.5 32t28 46.5t23.5 48.5t24.5 56h42q-19 -47 -28.5 -68.5t-29 -57.5t-35 -53.5t-39 -32.5t-50.5 -18v-1z" />
    <glyph glyph-name="uni04C3" unicode="&#x4c3;" horiz-adv-x="583" 
d="M285 360q112 -7 176 -88t64 -175q0 -121 -58.5 -188.5t-177.5 -64.5v30q194 9 194 221q0 102 -69.5 174.5t-183.5 72.5h-94q3 -50 3 -82v-260h-40v690h40v-231q0 -45 -4 -82h95q37 0 69.5 18.5t53.5 39.5t46.5 70t36.5 75.5t36 89.5q5 13 8 20h43q-24 -62 -40.5 -101
t-40.5 -85t-46 -72.5t-50.5 -46t-60.5 -22.5v-3z" />
    <glyph glyph-name="uni04C4" unicode="&#x4c4;" horiz-adv-x="521" 
d="M269 251q78 -6 136.5 -60.5t58.5 -145.5q0 -89 -50 -143t-161 -50v29q51 1 85.5 13.5t52.5 36.5t25 51t7 63q0 88 -58 138.5t-143 51.5h-95q3 -29 3 -55v-180h-40v482h40v-157q0 -29 -3 -58h92q30 0 56 12t44 28t37.5 46.5t31 54t30.5 63.5q3 7 5 11h42q-21 -47 -31 -69
t-31 -58t-37.5 -53t-42 -32t-54.5 -18v-1z" />
    <glyph glyph-name="uni04C5" unicode="&#x4c5;" horiz-adv-x="639" 
d="M537 690v-688l-5 -2h-36v655h-180q-77 0 -83 -80q-15 -175 -21 -230.5t-21 -118.5t-42 -109q-54 -100 -132 -117l-5 32q58 27 99 98q37 66 49.5 140t32.5 311q11 109 114 109h230zM537 2l47 15l-14 -28h-47l9 11h5v2zM581 -11l8 13l-51 -125l-15 17l47 95h11z" />
    <glyph glyph-name="uni04C6" unicode="&#x4c6;" horiz-adv-x="548" 
d="M452 0h-39v449h-141q-34 0 -50.5 -16.5t-20.5 -51.5q-1 -5 -5.5 -47t-6 -54.5t-7 -47.5t-10 -53t-12 -42.5t-16.5 -43.5q-37 -82 -117 -98l-5 32q62 24 87 80q13 27 23.5 70.5t14.5 73t9.5 79t6.5 56.5q6 49 31 72.5t75 23.5h183v-482zM456 0l35 16l-13 -27h-32zM488 -11
l7 12l-46 -117l-16 16l45 89h10z" />
    <glyph glyph-name="uni04C7" unicode="&#x4c7;" horiz-adv-x="666" 
d="M520 690h41v-644q0 -111 -49 -161t-163 -41v29q101 0 136 39t35 135v305h-380v-352h-41v690h41v-302h380v302z" />
    <glyph glyph-name="uni04C8" unicode="&#x4c8;" horiz-adv-x="570" 
d="M440 482h40v-438q0 -110 -42.5 -159.5t-141.5 -40.5v27q85 0 114.5 39t29.5 135v196h-310v-241h-40v482h40v-209h310v209z" />
    <glyph glyph-name="uni04C9" unicode="&#x4c9;" horiz-adv-x="673" 
d="M561 690v-689l-4 -1h-37v352h-380v-352h-41v690h41v-302h380v302h41zM561 1l48 16l-14 -28h-48l10 11h4v1zM605 -11l8 13l-50 -125l-16 17l48 95h10z" />
    <glyph glyph-name="uni04CA" unicode="&#x4ca;" horiz-adv-x="574" 
d="M480 0h-40v241h-310v-241h-40v482h40v-209h310v209h40v-482zM483 0l36 17l-14 -28h-31zM515 -11l8 12l-47 -117l-15 17l44 88h10z" />
    <glyph glyph-name="uni04CB" unicode="&#x4cb;" horiz-adv-x="609" 
d="M504 0h-31l-60 -21l28 -85l-15 -17l-38 99l-11 13l6 2l-6 15l21 17l8 -24l54 20l3 -3v326q-124 -78 -260 -78q-142 0 -142 147v279h41v-272q0 -61 27 -89t86 -28q67 0 121.5 16.5t126.5 58.5v314h41v-690z" />
    <glyph glyph-name="uni04CC" unicode="&#x4cc;" horiz-adv-x="512" 
d="M382 482h40v-482h-63l-6 -143h-28v176h57v195q-102 -49 -213 -49q-107 0 -107 103v200h40v-190q0 -41 19 -59.5t59 -18.5q99 0 202 48v220z" />
    <glyph glyph-name="uni04CD" unicode="&#x4cd;" horiz-adv-x="874" 
d="M807 18v1l3 -47h-62l5 28h-18l-29 655h-23l-208 -576q-5 -14 -19 -14h-52q-15 0 -20 14l-207 576h-23l-29 -655h-41l29 669q2 21 21 21h57q14 0 19 -14l175 -484q5 -14 10.5 -29.5t12 -34.5t10.5 -29h24l33 95l174 482q5 14 20 14h57q20 0 20 -21l29 -651h32zM814 -28
l-3 -19l-1 19h4zM815 -106l-15 -17l11 76z" />
    <glyph glyph-name="uni04CE" unicode="&#x4ce;" horiz-adv-x="729" 
d="M624 464l24 -464h-38l-23 449h-19l-165 -389q-6 -14 -18 -14h-44q-11 0 -17 14l-165 389h-19l-23 -449h-38l24 464q0 18 19 18h50q13 0 18 -14l137 -325q16 -37 27 -67h19q21 55 27 67l137 325q5 14 19 14h49q19 0 19 -18zM650 0l35 17l-14 -28h-31zM682 -11l7 12
l-44 -117l-16 17l42 88h11z" />
    <glyph glyph-name="uni04CF" unicode="&#x4cf;" horiz-adv-x="228" 
d="M134 690v-690h-40v690h40z" />
    <glyph glyph-name="uni04D0" unicode="&#x4d0;" horiz-adv-x="608" 
d="M306 751q-65 0 -103.5 35.5t-36.5 90.5h34q0 -47 28.5 -73.5t77.5 -26.5q47 0 75.5 26.5t28.5 73.5h35q1 -56 -37 -91t-102 -35zM548 0l-85 243h-318l-85 -243h-43l241 677q5 13 18 13h56q13 0 18 -13l241 -677h-43zM158 279h292l-112 321l-20 56h-28l-20 -56z" />
    <glyph glyph-name="uni04D1" unicode="&#x4d1;" horiz-adv-x="542" 
d="M270 570q-65 0 -103.5 35.5t-36.5 90.5h34q0 -47 28.5 -73.5t77.5 -26.5q47 0 75.5 26.5t28.5 73.5h35q1 -56 -37 -91t-102 -35zM313 494q142 0 142 -140v-354h-31l-7 90q-36 -36 -98.5 -66.5t-125.5 -30.5q-61 0 -95.5 32.5t-34.5 92.5v60q0 55 31 85t89 30h232v61
q0 104 -107 104q-87 0 -222 -15l-4 30q152 21 231 21zM197 30q51 -1 113 25.5t105 67.5v138l-228 -3q-84 -2 -84 -83v-54q0 -89 94 -91z" />
    <glyph glyph-name="uni04D2" unicode="&#x4d2;" horiz-adv-x="608" 
d="M209 776q-14 0 -14 14v56q0 14 14 14h15q13 0 13 -14v-56q0 -14 -13 -14h-15zM386 776q-14 0 -14 14v56q0 14 14 14h15q13 0 13 -14v-56q0 -14 -13 -14h-15zM548 0l-85 243h-318l-85 -243h-43l241 677q5 13 18 13h56q13 0 18 -13l241 -677h-43zM158 279h292l-112 321
l-20 56h-28l-20 -56z" />
    <glyph glyph-name="uni04D3" unicode="&#x4d3;" horiz-adv-x="542" 
d="M172 595q-13 0 -13 14v56q0 14 13 14h15q14 0 14 -14v-56q0 -14 -14 -14h-15zM349 595q-13 0 -13 14v56q0 14 13 14h15q14 0 14 -14v-56q0 -14 -14 -14h-15zM313 494q142 0 142 -140v-354h-31l-7 90q-36 -36 -98.5 -66.5t-125.5 -30.5q-61 0 -95.5 32.5t-34.5 92.5v60
q0 55 31 85t89 30h232v61q0 104 -107 104q-87 0 -222 -15l-4 30q152 21 231 21zM197 30q51 -1 113 25.5t105 67.5v138l-228 -3q-84 -2 -84 -83v-54q0 -89 94 -91z" />
    <glyph glyph-name="uni04D4" unicode="&#x4d4;" horiz-adv-x="907" 
d="M585 35h265l1 -31q-93 -4 -279 -4q-46 0 -76 30t-30 76v154h-247l-165 -260h-46l384 599q35 54 75.5 72.5t105.5 18.5q175 0 278 -4l-1 -32h-265q-36 0 -57.5 -21t-21.5 -57v-190l302 -1v-33l-302 -1v-237q0 -36 21.5 -57.5t57.5 -21.5zM242 295h224v284q0 23 11.5 45.5
t27.5 30.5h-7q-37 -17 -71 -69z" />
    <glyph glyph-name="uni04D5" unicode="&#x4d5;" horiz-adv-x="878" 
d="M638 24q83 0 165 12l5 -28q-60 -20 -175 -20q-157 0 -198 111q-40 -40 -107 -73t-135 -33q-62 0 -96.5 32.5t-34.5 92.5v60q0 55 31.5 85t88.5 30h232v61q0 50 -24 77t-83 27q-86 0 -221 -15l-4 30q152 21 230 21q109 0 134 -80q45 80 179 80q191 0 194 -142
q1 -70 -31 -100.5t-108 -30.5h-224q4 -110 46 -153.5t136 -43.5zM626 458q-93 0 -131 -45t-39 -159h218q58 0 82 22.5t22 73.5q-1 108 -152 108zM197 30q53 -1 118 26.5t111 69.5q-10 44 -12 102v33l-228 -3q-83 -1 -83 -83v-54q0 -90 94 -91z" />
    <glyph glyph-name="uni04D6" unicode="&#x4d6;" horiz-adv-x="553" 
d="M307 750q-65 0 -103.5 35.5t-36.5 90.5h34q0 -47 28.5 -73.5t77.5 -26.5q47 0 75.5 26.5t28.5 73.5h35q1 -56 -37 -91t-102 -35zM210 35h285l2 -31q-96 -4 -294 -4q-49 0 -79.5 29.5t-30.5 76.5v478q0 47 30.5 76.5t79.5 29.5q198 0 294 -4l-2 -31h-285q-34 0 -55 -21.5
t-21 -56.5v-191l320 -1v-33l-320 -1v-238q0 -35 21 -56.5t55 -21.5z" />
    <glyph glyph-name="uni04D7" unicode="&#x4d7;" horiz-adv-x="530" 
d="M279 569q-65 0 -103.5 35.5t-36.5 90.5h34q0 -47 28.5 -73.5t77.5 -26.5q47 0 75.5 26.5t28.5 73.5h35q1 -56 -37 -91t-102 -35zM289 24q85 0 165 12l5 -28q-58 -20 -175 -20t-167.5 58.5t-50.5 196.5t48 194.5t162 56.5q192 0 194 -142q2 -66 -23 -98.5t-83 -32.5h-257
q4 -110 46 -153.5t136 -43.5zM278 458q-94 0 -132 -45t-39 -159h251q74 0 72 96q-1 57 -38 82.5t-114 25.5z" />
    <glyph glyph-name="uni04D8" unicode="&#x4d8;" horiz-adv-x="629" 
d="M276 702q157 0 217.5 -80t60.5 -276q0 -199 -59 -278.5t-205 -79.5q-237 0 -237 233q0 169 168 169h289q-5 156 -59.5 215.5t-188.5 59.5q-106 0 -187 -18l-6 29q70 26 207 26zM290 25q124 0 172.5 70.5t48.5 249.5v10h-285q-130 0 -130 -136q0 -101 48 -147.5t146 -46.5
z" />
    <glyph glyph-name="uni04D9" unicode="&#x4d9;" horiz-adv-x="533" 
d="M248 494q117 0 168 -58.5t51 -196.5t-48 -194.5t-162 -56.5q-192 0 -195 146q-1 69 26.5 103t90.5 34h246q-5 104 -47.5 145.5t-134.5 41.5q-90 0 -164 -13l-6 28q58 21 175 21zM255 24q95 0 133 47t38 166v1h-242q-84 0 -81 -102q1 -58 38 -85t114 -27z" />
    <glyph glyph-name="uni04DA" unicode="&#x4da;" horiz-adv-x="629" 
d="M209 776q-14 0 -14 14v56q0 14 14 14h15q13 0 13 -14v-56q0 -14 -13 -14h-15zM386 776q-14 0 -14 14v56q0 14 14 14h15q13 0 13 -14v-56q0 -14 -13 -14h-15zM276 702q157 0 217.5 -80t60.5 -276q0 -199 -59 -278.5t-205 -79.5q-237 0 -237 233q0 169 168 169h289
q-5 156 -59.5 215.5t-188.5 59.5q-106 0 -187 -18l-6 29q70 26 207 26zM290 25q124 0 172.5 70.5t48.5 249.5v10h-285q-130 0 -130 -136q0 -101 48 -147.5t146 -46.5z" />
    <glyph glyph-name="uni04DB" unicode="&#x4db;" horiz-adv-x="533" 
d="M175 594q-14 0 -14 14v56q0 14 14 14h15q13 0 13 -14v-56q0 -14 -13 -14h-15zM352 594q-14 0 -14 14v56q0 14 14 14h15q13 0 13 -14v-56q0 -14 -13 -14h-15zM248 494q117 0 168 -58.5t51 -196.5t-48 -194.5t-162 -56.5q-192 0 -195 146q-1 69 26.5 103t90.5 34h246
q-5 104 -47.5 145.5t-134.5 41.5q-90 0 -164 -13l-6 28q58 21 175 21zM255 24q95 0 133 47t38 166v1h-242q-84 0 -81 -102q1 -58 38 -85t114 -27z" />
    <glyph glyph-name="uni04DC" unicode="&#x4dc;" horiz-adv-x="886" 
d="M348 775q-13 0 -13 14v56q0 14 13 14h15q14 0 14 -14v-56q0 -14 -14 -14h-15zM525 775q-13 0 -13 14v56q0 14 13 14h15q14 0 14 -14v-56q0 -14 -14 -14h-15zM594 359q21 -1 39.5 -7.5t35.5 -21t30 -26.5t28.5 -38t24.5 -41.5t24.5 -51.5t22 -52.5t23.5 -60t24 -60.5h-44
q-7 18 -22 55.5t-22 54.5t-20.5 48t-21.5 46t-22 39t-25 35.5t-26.5 26.5t-31 21.5t-34.5 11.5t-40 5h-75q4 -39 4 -83v-260h-39v260q0 44 4 83h-82q-23 0 -43.5 -4.5t-39 -17.5t-32 -23.5t-29.5 -35t-25.5 -39.5t-24.5 -49.5t-22 -52l-24 -60t-25 -61.5h-44q7 17 24 60.5
t23.5 60t22 52.5t24.5 51.5t24.5 41.5t28.5 38t30 26.5t35.5 21t39.5 7.5v2q-51 5 -96.5 57.5t-67 98t-60.5 146.5q-7 18 -11 27h43q60 -149 86 -195q68 -118 160 -118h85q-4 37 -4 82v231h39v-231q0 -45 -4 -82h77q56 0 103.5 47.5t69 91.5t61.5 143q9 21 13 31h43
q-63 -157 -90 -205q-65 -116 -145 -124v-2z" />
    <glyph glyph-name="uni04DD" unicode="&#x4dd;" horiz-adv-x="767" 
d="M287 594q-13 0 -13 14v56q0 14 13 14h15q14 0 14 -14v-56q0 -14 -14 -14h-15zM464 594q-13 0 -13 14v56q0 14 13 14h15q14 0 14 -14v-56q0 -14 -14 -14h-15zM529 251q45 -4 80.5 -39.5t53 -69.5t52.5 -119q7 -15 10 -23h-43q-4 10 -13 30q-20 47 -30.5 69t-29 54t-34 46
t-39.5 25t-52 11h-83q4 -25 4 -55v-180h-37v180q0 30 4 55h-89q-16 0 -30 -3.5t-25 -7.5t-23 -14.5t-19.5 -17t-18.5 -24t-16 -26t-16 -31.5t-15.5 -33t-17 -38.5t-17.5 -39.5h-42q56 133 80 170q48 76 116 81v1q-42 4 -77.5 41t-52 69.5t-48.5 108.5q-3 7 -5 11h42
q17 -40 24.5 -56t23.5 -48.5t28 -46.5t29.5 -32t37.5 -25t44 -7h86q-3 29 -3 58v157h37v-157q0 -29 -3 -58h80q24 0 44 7t37.5 25t29.5 32t28 46.5t23.5 48.5t24.5 56h42q-19 -47 -28.5 -68.5t-29 -57.5t-35 -53.5t-39 -32.5t-50.5 -18v-1z" />
    <glyph glyph-name="uni04DE" unicode="&#x4de;" horiz-adv-x="546" 
d="M175 859q14 0 14 -14v-56q0 -14 -14 -14h-15q-13 0 -13 14v56q0 14 13 14h15zM352 859q14 0 14 -14v-56q0 -14 -14 -14h-15q-13 0 -13 14v56q0 14 13 14h15zM232 698q125 0 174 -37.5t49 -142.5q0 -75 -28 -113.5t-89 -44.5v-4q74 -7 105.5 -52.5t31.5 -131.5
q0 -104 -47 -142t-166 -38q-127 0 -220 16l5 30q170 -10 211 -10q100 0 137.5 30t37.5 118q0 95 -40.5 130t-143.5 35h-105v33h105q93 0 128.5 29.5t35.5 111.5q0 88 -39 117.5t-143 29.5q-36 0 -71.5 -1.5t-63 -4t-35.5 -2.5l-5 30q83 14 176 14z" />
    <glyph glyph-name="uni04DF" unicode="&#x4df;" horiz-adv-x="478" 
d="M152 678q14 0 14 -14v-56q0 -14 -14 -14h-15q-13 0 -13 14v56q0 14 13 14h15zM329 678q14 0 14 -14v-56q0 -14 -14 -14h-15q-13 0 -13 14v56q0 14 13 14h15zM199 488q117 0 161.5 -26t44.5 -100q0 -54 -22.5 -81t-80.5 -32v-2q63 -5 90.5 -35.5t27.5 -92.5
q0 -68 -44.5 -97t-152.5 -29q-103 0 -171 12l5 30q101 -7 164 -7q88 0 122.5 22t34.5 75q0 61 -34 83t-121 23l-99 1v30l99 1q83 1 112.5 20t29.5 74q0 59 -35 77.5t-135 18.5q-86 0 -128 -6l-5 30q61 11 137 11z" />
    <glyph glyph-name="uni04E0" unicode="&#x4e0;" horiz-adv-x="510" 
d="M214 397q127 0 185 -46.5t58 -152.5q0 -104 -51 -155t-180 -51q-114 0 -202 16l5 30q110 -10 195 -10q104 0 147.5 42t43.5 126q0 90 -47 130t-154 40h-97v30l270 260h-354v34h394q8 0 8 -8v-24l-272 -261h51z" />
    <glyph glyph-name="uni04E1" unicode="&#x4e1;" horiz-adv-x="475" 
d="M207 189q116 0 169.5 -47t53.5 -153q0 -104 -47 -154.5t-166 -50.5q-112 0 -186 16l5 30q77 -11 179 -11q95 0 134 42t39 127q0 90 -42.5 130t-139.5 40h-90v30l246 259h-323v35h362q9 0 9 -9v-24l-250 -260h47z" />
    <glyph glyph-name="uni04E2" unicode="&#x4e2;" horiz-adv-x="681" 
d="M475 832v-33h-264v33h264zM583 690v-690h-41v562q0 47 1 71h-2q-1 -1 -14.5 -27t-20.5 -37l-366 -569h-41v690h40v-559q0 -49 -1 -74h2q5 8 19 32.5t21 36.5l361 564h42z" />
    <glyph glyph-name="uni04E3" unicode="&#x4e3;" horiz-adv-x="583" 
d="M415 651v-33h-264v33h264zM492 482v-482h-37v375v55h-1q-9 -15 -30 -45l-300 -385h-34v482h38v-372q0 -38 -1 -58h1q11 18 34 47l296 383h34z" />
    <glyph glyph-name="uni04E4" unicode="&#x4e4;" horiz-adv-x="681" 
d="M261 859q14 0 14 -14v-56q0 -14 -14 -14h-15q-13 0 -13 14v56q0 14 13 14h15zM438 859q14 0 14 -14v-56q0 -14 -14 -14h-15q-13 0 -13 14v56q0 14 13 14h15zM583 690v-690h-41v562q0 47 1 71h-2q-1 -1 -14.5 -27t-20.5 -37l-366 -569h-41v690h40v-559q0 -49 -1 -74h2
q5 8 19 32.5t21 36.5l361 564h42z" />
    <glyph glyph-name="uni04E5" unicode="&#x4e5;" horiz-adv-x="583" 
d="M201 678q14 0 14 -14v-56q0 -14 -14 -14h-15q-13 0 -13 14v56q0 14 13 14h15zM378 678q14 0 14 -14v-56q0 -14 -14 -14h-15q-13 0 -13 14v56q0 14 13 14h15zM492 482v-482h-37v375v55h-1q-9 -15 -30 -45l-300 -385h-34v482h38v-372q0 -38 -1 -58h1q11 18 34 47l296 383
h34z" />
    <glyph glyph-name="uni04E6" unicode="&#x4e6;" 
d="M251 859q13 0 13 -14v-56q0 -14 -13 -14h-15q-14 0 -14 14v56q0 14 14 14h15zM428 859q13 0 13 -14v-56q0 -14 -13 -14h-15q-14 0 -14 14v56q0 14 14 14h15zM332 702q144 0 201.5 -79t57.5 -278t-57.5 -278t-201.5 -79t-202 79.5t-58 277.5t58 277.5t202 79.5zM332 665
q-121 0 -169 -71t-48 -249t48 -249t169 -71t168.5 70.5t47.5 249.5t-47.5 249.5t-168.5 70.5z" />
    <glyph glyph-name="uni04E7" unicode="&#x4e7;" horiz-adv-x="563" 
d="M198 678q14 0 14 -14v-56q0 -14 -14 -14h-15q-13 0 -13 14v56q0 14 13 14h15zM375 678q14 0 14 -14v-56q0 -14 -14 -14h-15q-13 0 -13 14v56q0 14 13 14h15zM282 494q118 0 166 -57t48 -196q0 -140 -48 -196.5t-166 -56.5q-119 0 -167.5 56.5t-48.5 196.5q0 139 48.5 196
t167.5 57zM282 458q-97 0 -135.5 -47t-38.5 -170t38.5 -170.5t135.5 -47.5t135 47.5t38 170.5t-38 170t-135 47z" />
    <glyph glyph-name="uni04E8" unicode="&#x4e8;" horiz-adv-x="657" 
d="M326 702q144 0 201.5 -79t57.5 -278t-57.5 -278t-201.5 -79t-202 79.5t-58 277.5t58 277.5t202 79.5zM326 665q-119 0 -167.5 -68t-49.5 -238h433q-1 170 -49 238t-167 68zM326 25q118 0 166 67t50 236h-433q2 -168 50.5 -235.5t166.5 -67.5z" />
    <glyph glyph-name="uni04E9" unicode="&#x4e9;" horiz-adv-x="562" 
d="M281 494q118 0 166.5 -57t48.5 -196t-48 -196t-167 -57t-167 57t-48 196t48.5 196t166.5 57zM281 458q-92 0 -130.5 -42.5t-42.5 -151.5h347q-4 109 -43 151.5t-131 42.5zM281 23q95 0 134 46.5t40 165.5h-347q1 -119 39.5 -165.5t133.5 -46.5z" />
    <glyph glyph-name="uni04EA" unicode="&#x4ea;" horiz-adv-x="657" 
d="M229 775q-14 0 -14 14v56q0 14 14 14h15q13 0 13 -14v-56q0 -14 -13 -14h-15zM406 775q-14 0 -14 14v56q0 14 14 14h15q13 0 13 -14v-56q0 -14 -13 -14h-15zM326 702q144 0 201.5 -79t57.5 -278t-57.5 -278t-201.5 -79t-202 79.5t-58 277.5t58 277.5t202 79.5zM326 665
q-119 0 -167.5 -68t-49.5 -238h433q-1 170 -49 238t-167 68zM326 25q118 0 166 67t50 236h-433q2 -168 50.5 -235.5t166.5 -67.5z" />
    <glyph glyph-name="uni04EB" unicode="&#x4eb;" horiz-adv-x="562" 
d="M184 594q-14 0 -14 14v56q0 14 14 14h15q13 0 13 -14v-56q0 -14 -13 -14h-15zM361 594q-14 0 -14 14v56q0 14 14 14h15q13 0 13 -14v-56q0 -14 -13 -14h-15zM281 494q118 0 166.5 -57t48.5 -196t-48 -196t-167 -57t-167 57t-48 196t48.5 196t166.5 57zM281 458
q-92 0 -130.5 -42.5t-42.5 -151.5h347q-4 109 -43 151.5t-131 42.5zM281 23q95 0 134 46.5t40 165.5h-347q1 -119 39.5 -165.5t133.5 -46.5z" />
    <glyph glyph-name="uni04EC" unicode="&#x4ec;" horiz-adv-x="572" 
d="M161 775q-14 0 -14 14v56q0 14 14 14h15q13 0 13 -14v-56q0 -14 -13 -14h-15zM338 775q-14 0 -14 14v56q0 14 14 14h15q13 0 13 -14v-56q0 -14 -13 -14h-15zM231 702q149 0 208.5 -79.5t59.5 -277.5t-59.5 -277.5t-208.5 -79.5q-108 0 -187 19l7 31q77 -13 180 -13
q126 0 176 71t50 249v7l-313 1v32l312 1q-4 154 -55 216.5t-170 62.5q-97 0 -173 -12l-7 31q75 18 180 18z" />
    <glyph glyph-name="uni04ED" unicode="&#x4ed;" horiz-adv-x="489" 
d="M132 594q-13 0 -13 14v56q0 14 13 14h15q14 0 14 -14v-56q0 -14 -14 -14h-15zM309 594q-13 0 -13 14v56q0 14 13 14h15q14 0 14 -14v-56q0 -14 -14 -14h-15zM201 486q123 0 172.5 -55t49.5 -192t-49.5 -192.5t-172.5 -55.5q-89 0 -156 15l6 30q67 -9 150 -9
q99 0 139.5 44.5t41.5 158.5l-253 1v30l253 1q-4 105 -44.5 147t-136.5 42q-77 0 -144 -7l-6 29q58 13 150 13z" />
    <glyph glyph-name="uni04EE" unicode="&#x4ee;" horiz-adv-x="544" 
d="M406 832v-33h-264v33h264zM481 690h43l-198 -527q-37 -97 -61 -127q-31 -39 -73 -42q-53 -4 -103 12l5 29q35 -5 55.5 -7t40 3t29.5 11t22.5 26.5t20.5 39t24 58.5l14 38h-43q-41 0 -55 38l-170 448h43l161 -430q8 -21 29 -21h48z" />
    <glyph glyph-name="uni04EF" unicode="&#x4ef;" horiz-adv-x="513" 
d="M386 651v-33h-264v33h264zM443 482h43l-214 -524q-39 -96 -86 -134q-58 -42 -143 -29l3 26q72 -4 118 29q38 33 72 116l14 34h-13q-13 0 -18 12l-192 470h43l159 -395l21 -54h13l22 55z" />
    <glyph glyph-name="uni04F0" unicode="&#x4f0;" horiz-adv-x="544" 
d="M178 775q-14 0 -14 14v56q0 14 14 14h15q13 0 13 -14v-56q0 -14 -13 -14h-15zM355 775q-14 0 -14 14v56q0 14 14 14h15q13 0 13 -14v-56q0 -14 -13 -14h-15zM481 690h43l-198 -527q-37 -97 -61 -127q-31 -39 -73 -42q-53 -4 -103 12l5 29q35 -5 55.5 -7t40 3t29.5 11
t22.5 26.5t20.5 39t24 58.5l14 38h-43q-41 0 -55 38l-170 448h43l161 -430q8 -21 29 -21h48z" />
    <glyph glyph-name="uni04F1" unicode="&#x4f1;" horiz-adv-x="513" 
d="M157 594q-13 0 -13 14v56q0 14 13 14h15q14 0 14 -14v-56q0 -14 -14 -14h-15zM334 594q-13 0 -13 14v56q0 14 13 14h15q14 0 14 -14v-56q0 -14 -14 -14h-15zM443 482h43l-214 -524q-39 -96 -86 -134q-58 -42 -143 -29l3 26q72 -4 118 29q38 33 72 116l14 34h-13
q-13 0 -18 12l-192 470h43l159 -395l21 -54h13l22 55z" />
    <glyph glyph-name="uni04F2" unicode="&#x4f2;" horiz-adv-x="544" 
d="M309 887l-121 -154l-22 14l111 162zM455 887l-121 -154l-22 14l111 162zM481 690h43l-198 -527q-37 -97 -61 -127q-31 -39 -73 -42q-53 -4 -103 12l5 29q35 -5 55.5 -7t40 3t29.5 11t22.5 26.5t20.5 39t24 58.5l14 38h-43q-41 0 -55 38l-170 448h43l161 -430
q8 -21 29 -21h48z" />
    <glyph glyph-name="uni04F3" unicode="&#x4f3;" horiz-adv-x="513" 
d="M289 706l-121 -154l-22 14l111 162zM435 706l-121 -154l-22 14l111 162zM443 482h43l-214 -524q-39 -96 -86 -134q-58 -42 -143 -29l3 26q72 -4 118 29q38 33 72 116l14 34h-13q-13 0 -18 12l-192 470h43l159 -395l21 -54h13l22 55z" />
    <glyph glyph-name="uni04F4" unicode="&#x4f4;" horiz-adv-x="610" 
d="M192 775q-14 0 -14 14v56q0 14 14 14h15q13 0 13 -14v-56q0 -14 -13 -14h-15zM369 775q-14 0 -14 14v56q0 14 14 14h15q13 0 13 -14v-56q0 -14 -13 -14h-15zM470 690h41v-690h-41v342q-124 -78 -260 -78q-142 0 -142 147v279h41v-272q0 -61 27 -89t86 -28
q67 0 121.5 16.5t126.5 58.5v314z" />
    <glyph glyph-name="uni04F5" unicode="&#x4f5;" horiz-adv-x="512" 
d="M153 594q-13 0 -13 14v56q0 14 13 14h15q14 0 14 -14v-56q0 -14 -14 -14h-15zM330 594q-13 0 -13 14v56q0 14 13 14h15q14 0 14 -14v-56q0 -14 -14 -14h-15zM382 482h40v-482h-40v228q-102 -49 -213 -49q-107 0 -107 103v200h40v-190q0 -41 19 -59.5t59 -18.5
q99 0 202 48v220z" />
    <glyph glyph-name="uni04F6" unicode="&#x4f6;" horiz-adv-x="502" 
d="M215 655q-35 0 -56.5 -21.5t-21.5 -58.5v-556h22v4h57v-146h-52l-3 95h-42l-1 28h-22v581q0 48 30.5 78.5t77.5 30.5q191 0 286 -5l-3 -30h-272z" />
    <glyph glyph-name="uni04F7" unicode="&#x4f7;" horiz-adv-x="444" 
d="M184 482q155 0 232 -4v-30h-219q-36 0 -52.5 -17t-16.5 -54v-344h56v-176h-27l-7 143h-62v385q0 46 25 71.5t71 25.5z" />
    <glyph glyph-name="uni04F8" unicode="&#x4f8;" horiz-adv-x="819" 
d="M307 775q-14 0 -14 14v56q0 14 14 14h15q13 0 13 -14v-56q0 -14 -13 -14h-15zM484 775q-14 0 -14 14v56q0 14 14 14h15q13 0 13 -14v-56q0 -14 -13 -14h-15zM322 391q120 0 166 -45t46 -155q0 -115 -46.5 -157t-162.5 -42q-143 0 -226 8v690h41v-299h182zM679 690h41
v-690h-41v690zM322 29q96 0 133 33t37 129q0 92 -36 128t-134 36h-182v-324q76 -2 182 -2z" />
    <glyph glyph-name="uni04F9" unicode="&#x4f9;" horiz-adv-x="686" 
d="M245 594q-13 0 -13 14v56q0 14 13 14h15q14 0 14 -14v-56q0 -14 -14 -14h-15zM437 678q14 0 14 -14v-56q0 -14 -14 -14h-15q-13 0 -13 14v56q0 14 13 14h15zM277 276q92 0 127.5 -31.5t35.5 -109.5q0 -81 -35.5 -111t-123.5 -30q-118 0 -190 6h-1v482h39v-206h148z
M555 482h40v-482h-40v482zM277 28q68 0 94.5 22t26.5 86q0 61 -25.5 84.5t-95.5 23.5h-148v-215q12 0 62 -0.5t86 -0.5z" />
    <glyph glyph-name="uni04FA" unicode="&#x4fa;" horiz-adv-x="537" 
d="M250 655q-35 0 -56.5 -21.5t-21.5 -58.5v-215h229v-34h-229v-290h79v-73q0 -120 -136 -120v34q99 0 99 86v37h-83v326h-112v34h112v221q0 48 30.5 78.5t77.5 30.5q191 0 286 -5l-3 -30h-272z" />
    <glyph glyph-name="uni04FB" unicode="&#x4fb;" horiz-adv-x="444" 
d="M197 448q-36 0 -52.5 -17t-16.5 -54v-143h173v-29h-173v-173h86v-69q0 -120 -118 -120v31q82 0 82 89v37h-90v205h-87v29h87v151q0 46 25 71.5t71 25.5q155 0 232 -4v-30h-219z" />
    <glyph glyph-name="uni04FC" unicode="&#x4fc;" horiz-adv-x="587" 
d="M351 361q119 -157 159.5 -223t40.5 -118q0 -182 -236 -176v29q99 2 146.5 35t47.5 109q0 15 -4.5 32.5t-9.5 32.5t-18 37t-22 36.5t-29 42.5t-31.5 43t-38 50t-39.5 52h-33l-202 -343h-47l212 359l-199 331h46l188 -313h34l187 313h47z" />
    <glyph glyph-name="uni04FD" unicode="&#x4fd;" horiz-adv-x="507" 
d="M468 482l-167 -229q97 -115 132 -168t35 -95q0 -158 -201 -151v26q82 2 122 30.5t40 93.5q0 28 -20 65.5t-41.5 65t-73.5 89.5q-16 19 -24 29h-30l-168 -238h-43l179 252l-168 230h43l156 -215h30l156 215h43z" />
    <glyph glyph-name="uni04FE" unicode="&#x4fe;" horiz-adv-x="580" 
d="M507 0l-201 342h-32l-201 -342h-47l202 342h-123v34h123l-189 314h47l187 -313h34l187 313h47l-190 -314h123v-34h-123l203 -342h-47z" />
    <glyph glyph-name="uni04FF" unicode="&#x4ff;" horiz-adv-x="512" 
d="M433 0l-165 235h-24l-165 -235h-46l168 237h-126v29h124l-153 216h46l150 -214h28l150 214h46l-153 -216h125v-29h-127l168 -237h-46z" />
    <glyph glyph-name="uni0510" unicode="&#x510;" horiz-adv-x="546" 
d="M314 698q93 0 176 -14l-5 -30q-8 0 -35.5 2.5t-63 4t-71.5 1.5q-104 0 -143 -29.5t-39 -117.5q0 -82 35.5 -111.5t128.5 -29.5h105v-33h-105q-103 0 -143.5 -35t-40.5 -130q0 -88 37.5 -118t137.5 -30q41 0 211 10l5 -30q-93 -16 -220 -16q-119 0 -166 38t-47 142
q0 86 31.5 131.5t105.5 52.5v4q-61 6 -89 44.5t-28 113.5q0 105 49 142.5t174 37.5z" />
    <glyph glyph-name="uni0511" unicode="&#x511;" horiz-adv-x="478" 
d="M279 488q76 0 137 -11l-5 -30q-42 6 -128 6q-100 0 -135 -18.5t-35 -77.5q0 -55 29.5 -74t112.5 -20l99 -1v-30l-99 -1q-87 -1 -121 -23t-34 -83q0 -53 34.5 -75t122.5 -22q63 0 164 7l5 -30q-68 -12 -171 -12q-108 0 -152.5 29t-44.5 97q0 62 27.5 92.5t90.5 35.5v2
q-58 5 -80.5 32t-22.5 81q0 74 44.5 100t161.5 26z" />
    <glyph glyph-name="uni0512" unicode="&#x512;" horiz-adv-x="641" 
d="M537 690v-644q0 -111 -49.5 -161t-162.5 -41v29q100 0 135 39t35 135v608h-179q-77 0 -83 -80q-20 -234 -33 -313.5t-51 -144.5q-54 -100 -132 -117l-5 32q57 27 99 98q37 66 49.5 140t32.5 311q9 109 114 109h230z" />
    <glyph glyph-name="uni0513" unicode="&#x513;" horiz-adv-x="594" 
d="M452 482v-438q0 -111 -42 -160t-141 -40v27q85 0 114.5 39t29.5 135v404h-141q-34 0 -50.5 -16.5t-20.5 -51.5q-1 -5 -5.5 -47t-6 -54.5t-7 -47.5t-10 -53t-12 -42.5t-16.5 -43.5q-37 -82 -117 -98l-5 32q62 24 87 80q13 27 23.5 70.5t14.5 73t9.5 79t6.5 56.5
q6 49 31 72.5t75 23.5h183z" />
    <glyph glyph-name="uni051A" unicode="&#x51a;" 
d="M332 702q144 0 201.5 -79t57.5 -278t-57.5 -278t-201.5 -79t-202 79.5t-58 277.5t58 277.5t202 79.5zM332 665q-121 0 -168.5 -70.5t-47.5 -249.5t47.5 -249.5t168.5 -70.5t168.5 70.5t47.5 249.5t-47.5 249.5t-168.5 70.5zM297 -49q95 -59 235 -81l-13 -41
q-135 21 -237 98z" />
    <glyph glyph-name="uni051B" unicode="&#x51b;" horiz-adv-x="562" 
d="M270 494q93 0 203 -32v-670h-39l-1 192q0 64 5 95q-113 -91 -207 -91q-86 0 -125.5 60.5t-39.5 192.5q0 136 46 194.5t158 58.5zM107 238q0 -114 31 -164t103 -50q48 0 89 19.5t104 66.5v325q-85 23 -162 23q-91 0 -128 -48t-37 -172z" />
    <glyph glyph-name="uni051C" unicode="&#x51c;" horiz-adv-x="935" 
d="M902 690l-172 -676q-4 -14 -19 -14h-57q-16 0 -19 15l-137 564q-7 26 -19 78h-23q-7 -26 -19 -78l-137 -564q-3 -15 -19 -15h-57q-15 0 -20 14l-172 676h44l146 -583q12 -48 17 -73h27q2 9 8 33.5t9 38.5l139 568q3 16 19 16h53q14 0 19 -16l139 -567q6 -25 16 -73h27
q3 12 8.5 36t8.5 36l147 584h43z" />
    <glyph glyph-name="uni051D" unicode="&#x51d;" horiz-adv-x="815" 
d="M783 482l-160 -469q-5 -13 -18 -13h-39q-14 0 -19 14l-113 365l-21 73h-11q-4 -14 -11.5 -38.5t-10.5 -34.5l-112 -365q-5 -14 -19 -14h-39q-13 0 -18 13l-160 469h42l128 -385q5 -13 12.5 -38t8.5 -29h13l21 68l114 370q3 14 18 14h37q14 0 18 -14l115 -370
q4 -16 20 -68h13q4 11 10.5 33.5t10.5 34.5l128 384h42z" />
    <glyph glyph-name="uni0524" unicode="&#x524;" horiz-adv-x="677" 
d="M586 23h57v-146h-52l-3 95h-42l-1 28h-22v655h-383v-655h-41v690h465v-671h22v4z" />
    <glyph glyph-name="uni0525" unicode="&#x525;" horiz-adv-x="569" 
d="M477 33h57v-176h-27l-7 143h-63v448h-308v-448h-39v482h387v-449z" />
    <glyph glyph-name="uni0526" unicode="&#x526;" horiz-adv-x="640" 
d="M556 23h57v-146h-52l-3 95h-34l-1 28h-22v272q0 61 -28.5 89t-89.5 28q-64 0 -119 -16.5t-124 -58.5v-314h-41v690h41v-340q121 76 255 76q147 0 147 -147v-260h14v4z" />
    <glyph glyph-name="uni0527" unicode="&#x527;" horiz-adv-x="575" 
d="M485 33h57v-176h-27l-7 143h-63v354q0 54 -24 79t-75 25q-49 0 -96.5 -21.5t-119.5 -70.5v-366h-40v700h40l1 -209q0 -61 -5 -94q129 97 229 97q130 0 130 -132v-329z" />
    <glyph glyph-name="uni0528" unicode="&#x528;" horiz-adv-x="752" 
d="M612 690h41v-690h-41v352h-380v-350q0 -130 -125 -130q-33 0 -71 8l5 28h56q94 0 94 93v689h41v-302h380v302z" />
    <glyph glyph-name="uni0529" unicode="&#x529;" horiz-adv-x="600" 
d="M440 482h40v-482h-40v241h-310v-197q0 -110 -42.5 -159.5t-141.5 -40.5v27q85 0 114.5 39t29.5 135v437h40v-209h310v209z" />
    <glyph glyph-name="uni052E" unicode="&#x52e;" horiz-adv-x="653" 
d="M562 23h55v-146h-50l-3 95h-45l-1 28h-21v655h-180q-77 0 -83 -80q-15 -175 -21 -230.5t-21 -118.5t-42 -109q-54 -100 -132 -117l-5 32q58 27 99 98q37 66 49.5 140t32.5 311q11 109 114 109h230v-671h24v4z" />
    <glyph glyph-name="uni052F" unicode="&#x52f;" horiz-adv-x="543" 
d="M452 32h60v-176h-28l-6 143h-43v1h-22v449h-141q-34 0 -50.5 -16.5t-20.5 -51.5q-1 -5 -5.5 -47t-6 -54.5t-7 -47.5t-10 -53t-12 -42.5t-16.5 -43.5q-37 -82 -117 -98l-5 32q62 24 87 80q13 27 23.5 70.5t14.5 73t9.5 79t6.5 56.5q6 49 31 72.5t75 23.5h183v-450z" />
    <glyph glyph-name="uni1E08" unicode="&#x1e08;" horiz-adv-x="563" 
d="M425 899l26 -29l-163 -136l-18 20zM331 702q105 0 178 -18l-7 -30q-78 11 -171 11q-121 0 -168.5 -70.5t-47.5 -249.5t47.5 -249.5t168.5 -70.5q108 0 185 13l7 -31q-79 -19 -192 -19q-143 0 -201 80t-58 277t58 277t201 80zM296 -59q45 3 66.5 -12.5t20.5 -52.5
q-2 -55 -42 -86.5t-105 -23.5l7 23q48 -2 77.5 23t30.5 62q0 25 -13 35t-46 11z" />
    <glyph glyph-name="uni1E09" unicode="&#x1e09;" horiz-adv-x="481" 
d="M375 718l26 -29l-163 -136l-18 20zM287 494q87 0 141 -19l-7 -27q-53 10 -127 10q-104 0 -145.5 -46.5t-41.5 -170.5t41.5 -170.5t145.5 -46.5q84 0 139 11l6 -28q-73 -19 -151 -19q-122 0 -172.5 57t-50.5 196t50.5 196t171.5 57zM251 -59q45 3 66.5 -12.5t20.5 -52.5
q-2 -55 -42 -86.5t-105 -23.5l7 23q48 -2 77.5 23t30.5 62q0 25 -13 35t-46 11z" />
    <glyph glyph-name="uni1E0C" unicode="&#x1e0c;" horiz-adv-x="660" 
d="M332 699q142 0 199 -79t57 -275t-57 -275t-199 -79q-111 0 -233 9v690q121 9 233 9zM332 28q119 0 166 70t47 247t-47 247t-166 70q-21 0 -192 -3v-628q168 -3 192 -3zM330 -73q16 0 16 -15v-61q0 -16 -16 -16h-14q-16 0 -16 16v61q0 15 16 15h14z" />
    <glyph glyph-name="uni1E0D" unicode="&#x1e0d;" horiz-adv-x="564" 
d="M434 700h39v-700h-30l-6 80q-105 -92 -197 -92q-93 0 -133 59t-40 194q0 137 41 195t136 58q86 0 193 -48q-3 25 -3 93v161zM108 242q0 -120 32 -169t108 -49q44 0 85.5 20.5t100.5 68.5v302q-114 43 -185 43q-77 0 -109 -48t-32 -168zM296 -73q16 0 16 -15v-61
q0 -16 -16 -16h-14q-16 0 -16 16v61q0 15 16 15h14z" />
    <glyph glyph-name="uni1E0E" unicode="&#x1e0e;" horiz-adv-x="660" 
d="M332 699q142 0 199 -79t57 -275t-57 -275t-199 -79q-111 0 -233 9v690q121 9 233 9zM332 28q119 0 166 70t47 247t-47 247t-166 70q-21 0 -192 -3v-628q168 -3 192 -3zM190 -129v33h264v-33h-264z" />
    <glyph glyph-name="uni1E0F" unicode="&#x1e0f;" horiz-adv-x="564" 
d="M434 700h39v-700h-30l-6 80q-105 -92 -197 -92q-93 0 -133 59t-40 194q0 137 41 195t136 58q86 0 193 -48q-3 25 -3 93v161zM108 242q0 -120 32 -169t108 -49q44 0 85.5 20.5t100.5 68.5v302q-114 43 -185 43q-77 0 -109 -48t-32 -168zM156 -129v33h264v-33h-264z" />
    <glyph glyph-name="uni1E14" unicode="&#x1e14;" horiz-adv-x="553" 
d="M360 890l-17 -18l-113 96l25 27zM442 840v-33h-264v33h264zM210 35h285l2 -31q-96 -4 -294 -4q-49 0 -79.5 29.5t-30.5 76.5v478q0 47 30.5 76.5t79.5 29.5q198 0 294 -4l-2 -31h-285q-34 0 -55 -21.5t-21 -56.5v-191l320 -1v-33l-320 -1v-238q0 -35 21 -56.5t55 -21.5z
" />
    <glyph glyph-name="uni1E15" unicode="&#x1e15;" horiz-adv-x="530" 
d="M328 687l-17 -18l-113 96l25 27zM410 637v-33h-264v33h264zM289 24q83 0 165 12l5 -28q-60 -20 -175 -20q-117 0 -168 58.5t-51 196.5t48.5 194.5t162.5 56.5q191 0 194 -142q2 -66 -23.5 -98.5t-82.5 -32.5h-257q4 -110 46 -153.5t136 -43.5zM278 458q-94 0 -132 -45
t-39 -159h251q74 0 71 96q-1 56 -37.5 82t-113.5 26z" />
    <glyph glyph-name="uni1E16" unicode="&#x1e16;" horiz-adv-x="553" 
d="M390 968l-113 -96l-17 18l105 105zM442 840v-33h-264v33h264zM210 35h285l2 -31q-96 -4 -294 -4q-49 0 -79.5 29.5t-30.5 76.5v478q0 47 30.5 76.5t79.5 29.5q198 0 294 -4l-2 -31h-285q-34 0 -55 -21.5t-21 -56.5v-191l320 -1v-33l-320 -1v-238q0 -35 21 -56.5t55 -21.5
z" />
    <glyph glyph-name="uni1E17" unicode="&#x1e17;" horiz-adv-x="530" 
d="M358 765l-113 -96l-17 18l105 105zM410 637v-33h-264v33h264zM289 24q83 0 165 12l5 -28q-60 -20 -175 -20q-117 0 -168 58.5t-51 196.5t48.5 194.5t162.5 56.5q191 0 194 -142q2 -66 -23.5 -98.5t-82.5 -32.5h-257q4 -110 46 -153.5t136 -43.5zM278 458q-94 0 -132 -45
t-39 -159h251q74 0 71 96q-1 56 -37.5 82t-113.5 26z" />
    <glyph glyph-name="uni1E1C" unicode="&#x1e1c;" horiz-adv-x="553" 
d="M310 774q-66 0 -104 32t-37 87l25 4q0 -42 31 -65.5t85 -23.5q53 0 83.5 23.5t30.5 65.5l24 -4q1 -55 -36 -87t-102 -32zM210 35h285l2 -31q-96 -4 -294 -4q-49 0 -79.5 29.5t-30.5 76.5v478q0 47 30.5 76.5t79.5 29.5q198 0 294 -4l-2 -31h-285q-34 0 -55 -21.5
t-21 -56.5v-191l320 -1v-33l-320 -1v-238q0 -35 21 -56.5t55 -21.5zM265 -47q45 3 66.5 -12.5t20.5 -52.5q-2 -55 -42 -86.5t-105 -23.5l7 23q48 -2 77.5 23t30.5 62q0 25 -13 35t-46 11z" />
    </font>
</defs>
</svg>
