<?xml version="1.0" standalone="no"?>
<!DOCTYPE svg PUBLIC "-//W3C//DTD SVG 1.1//EN" "http://www.w3.org/Graphics/SVG/1.1/DTD/svg11.dtd" >
<svg xmlns="http://www.w3.org/2000/svg" xmlns:xlink="http://www.w3.org/1999/xlink" version="1.1">
<metadata>
Created by FontForge 20170731 at Wed Dec 13 19:43:00 2017
 By Aleksey,,,
Copyright (c) 2013, Natanael Gama (www.ndiscovered.com . info(at)ndiscovered.com), with Reserved Font Name Exo. This Font Software is licensed under the SIL Open Font License, Version 1.1.
</metadata>
<defs>
<font id="Exo2-Regular" horiz-adv-x="668" >
  <font-face 
    font-family="Exo 2"
    font-weight="400"
    font-stretch="normal"
    units-per-em="1000"
    panose-1="0 0 5 0 0 0 0 0 0 0"
    ascent="800"
    descent="-200"
    x-height="487"
    cap-height="690"
    bbox="-411 -275 1218 1051"
    underline-thickness="50"
    underline-position="-200"
    unicode-range="U+0020-FB02"
  />
<missing-glyph horiz-adv-x="624" 
d="M527 690v-690h-430v690h430zM486 41v608h-348v-608h348z" />
    <glyph glyph-name="fi" unicode="fi" horiz-adv-x="606" 
d="M524 487v-487h-84v420h-239v-420h-85v420h-88v62l88 5v77q0 76 33 114.5t109 38.5q66 0 114 -7v-63h-84q-48 0 -67.5 -20.5t-19.5 -71.5v-68h323zM501 694q26 0 26 -26v-57q0 -26 -26 -26h-40q-25 0 -25 26v57q0 26 25 26h40z" />
    <glyph glyph-name="fl" unicode="fl" 
d="M649 58l10 -54q-27 -13 -89 -13q-55 0 -87 30t-32 84v543h-164q-48 1 -67 -20t-19 -73v-68h145v-67h-145v-420h-86v420h-87v62l87 5v77q0 76 33.5 115t108.5 38q206 0 279 -12v-581q0 -66 66 -66h47z" />
    <glyph glyph-name="f_f" unicode="ff" horiz-adv-x="711" 
d="M618 647q-48 0 -67 -18.5t-19 -63.5v-78h155v-67h-155v-420h-86v420h-245v-420h-85v420h-88v62l88 5v75q0 142 142 142q74 0 122 -7l-6 -63h-86q-49 0 -68 -17t-19 -65v-65h245v87q0 71 33 107t109 36q84 0 137 -7l-6 -63h-101z" />
    <glyph glyph-name="f_f_i" unicode="ffi" horiz-adv-x="929" 
d="M847 487v-487h-84v420h-239v-420h-85v420h-245v-420h-85v420h-81v62l81 4v76q0 142 142 142q74 0 122 -7l-7 -63h-85q-49 0 -68 -17t-19 -65v-65h245v77q0 76 33 114.5t109 38.5q70 0 119 -7v-63h-89q-48 0 -67.5 -20.5t-19.5 -71.5v-68h323zM824 694q26 0 26 -26v-57
q0 -26 -26 -26h-40q-25 0 -25 26v57q0 26 25 26h40z" />
    <glyph glyph-name="f_f_l" unicode="ffl" horiz-adv-x="1000" 
d="M980 58l10 -54q-27 -13 -89 -13q-55 0 -87 30t-32 84v543h-164q-48 1 -67 -20t-19 -73v-68h148v-67h-148v-420h-86v420h-245v-420h-85v420h-88v62l88 5v75q0 142 142 142q74 0 122 -7l-6 -63h-86q-49 0 -68 -17t-19 -65v-65h245v77q0 76 33.5 115t108.5 38q206 0 279 -12
v-581q0 -66 66 -66h47z" />
    <glyph glyph-name=".notdef" horiz-adv-x="624" 
d="M527 690v-690h-430v690h430zM486 41v608h-348v-608h348z" />
    <glyph glyph-name=".null" horiz-adv-x="0" 
 />
    <glyph glyph-name="nonmarkingreturn" horiz-adv-x="333" 
 />
    <glyph glyph-name="space" unicode=" " horiz-adv-x="223" 
 />
    <glyph glyph-name="exclam" unicode="!" horiz-adv-x="273" 
d="M179 695v-306l-8 -178h-68l-9 178v306h85zM148 118q17 0 24.5 -7t7.5 -25v-54q0 -18 -7.5 -25t-24.5 -7h-22q-17 0 -24 7t-7 25v54q0 18 7 25t24 7h22z" />
    <glyph glyph-name="quotedbl" unicode="&#x22;" horiz-adv-x="353" 
d="M140 690l-6 -215h-59l-5 215h70zM283 690l-5 -215h-58l-6 215h69z" />
    <glyph glyph-name="numbersign" unicode="#" horiz-adv-x="685" 
d="M629 448h-109l-31 -180h109l-11 -55h-108l-37 -213h-68l37 213h-183l-37 -213h-68l37 213h-116l11 55h115l31 180h-115l11 55h113l33 187h68l-33 -187h183l33 187h68l-33 -187h111zM421 268l31 180h-183l-31 -180h183z" />
    <glyph glyph-name="dollar" unicode="$" horiz-adv-x="564" 
d="M373 370q77 -19 108.5 -65t31.5 -129q0 -114 -51.5 -151t-180.5 -37h-2l-9 -115h-46l9 116q-89 4 -166 18l6 67q32 -1 69 -2t58.5 -1.5t38.5 -0.5l19 242l-64 16q-73 18 -105 64.5t-32 127.5q0 60 12.5 96.5t43 55t68 24.5t100.5 6h12l7 97h45l-7 -99q83 -3 148 -18
l-6 -64q-81 4 -148 5l-18 -238zM146 518q0 -55 19.5 -78t68.5 -35l35 -9l18 227h-2q-44 0 -65 -2t-41 -12t-26.5 -31.5t-6.5 -59.5zM285 70q81 0 109.5 20.5t28.5 87.5q0 57 -19 79.5t-68 34.5l-34 9z" />
    <glyph glyph-name="percent" unicode="%" horiz-adv-x="894" 
d="M207 703q89 0 125 -47t36 -158t-36 -158t-125 -47q-88 0 -124 47t-36 158t36 158t124 47zM699 690l-447 -690h-60l447 690h60zM207 649q-54 0 -74.5 -33.5t-20.5 -117.5t20.5 -117.5t74.5 -33.5t74.5 33t20.5 118q0 84 -20.5 117.5t-74.5 33.5zM686 400q88 0 124 -47
t36 -157q0 -111 -36 -158t-124 -47t-124 47t-36 158q0 110 36 157t124 47zM685 346q-54 0 -74.5 -32.5t-19.5 -117.5q-1 -85 19.5 -118.5t74.5 -33.5t75 33.5t21 118.5q0 84 -21 117t-75 33z" />
    <glyph glyph-name="ampersand" unicode="&#x26;" horiz-adv-x="772" 
d="M715 66l10 -62q-45 -13 -106 -13q-104 0 -120 86q-44 -47 -97 -67t-133 -20q-110 0 -156 41t-46 144q0 83 31 129t104 52v4q-61 6 -88 45.5t-27 115.5q0 60 14 95.5t49 54t78.5 24t119.5 5.5q92 0 159 -10l-10 -65q-41 3 -152 3q-99 0 -134 -22t-35 -97q0 -69 29 -93.5
t105 -24.5h189l7 128h71v-128h126l-1 -67h-125v-193q0 -35 14.5 -50t49.5 -15h74zM289 66q132 1 208 80v178h-191q-83 0 -115 -28.5t-32 -106.5q0 -70 28 -96.5t102 -26.5z" />
    <glyph glyph-name="quotesingle" unicode="'" horiz-adv-x="209" 
d="M140 690l-6 -215h-59l-5 215h70z" />
    <glyph glyph-name="parenleft" unicode="(" horiz-adv-x="359" 
d="M317 790l11 -41q-99 -48 -145 -155.5t-46 -280.5q0 -339 191 -437l-11 -41q-136 52 -199.5 168t-63.5 309q0 194 63.5 310t199.5 168z" />
    <glyph glyph-name="parenright" unicode=")" horiz-adv-x="359" 
d="M42 790q136 -52 200 -167.5t64 -310.5q0 -193 -64 -309t-200 -168l-10 41q98 51 144 159t46 278q0 173 -46 280.5t-144 155.5z" />
    <glyph glyph-name="asterisk" unicode="*" horiz-adv-x="450" 
d="M251 691l-8 -161l100 -129l-41 -30l-77 123l-77 -122l-42 30l100 128l-7 161h52zM71 601l119 -46l-1 -22l-11 -14l-124 33zM380 601l17 -50l-125 -32l-12 14v22z" />
    <glyph glyph-name="plus" unicode="+" horiz-adv-x="551" 
d="M494 331v-64h-187v-177h-64v177h-187v64h186v176h66v-176h186z" />
    <glyph glyph-name="comma" unicode="," horiz-adv-x="228" 
d="M127 118q18 0 24.5 -7t6.5 -25v-64q-1 -85 -35 -154l-40 12q10 59 10 120q-24 0 -24 28v58q1 32 33 32h25z" />
    <glyph glyph-name="hyphen" unicode="-" horiz-adv-x="449" 
d="M377 285v-65h-305v65h305z" />
    <glyph glyph-name="period" unicode="." horiz-adv-x="229" 
d="M128 118q18 0 25 -7t7 -25v-54q0 -18 -7 -25t-25 -7h-28q-17 0 -24.5 7t-7.5 25v54q0 18 7.5 25t24.5 7h28z" />
    <glyph glyph-name="slash" unicode="/" horiz-adv-x="517" 
d="M490 690l-393 -756h-70l393 756h70z" />
    <glyph glyph-name="zero" unicode="0" horiz-adv-x="603" 
d="M301 703q131 0 184.5 -83t53.5 -275t-53.5 -275t-184.5 -83t-184 83t-53 275t53 275t184 83zM301 626q-85 0 -118 -63t-33 -218t33 -218t118 -63t118.5 63t33.5 218t-33.5 218t-118.5 63z" />
    <glyph glyph-name="one" unicode="1" horiz-adv-x="398" 
d="M286 690v-690h-88v547q0 35 5 60l-169 -53l-12 65l176 71h88z" />
    <glyph glyph-name="two" unicode="2" horiz-adv-x="562" 
d="M271 702q109 0 160.5 -30.5t51.5 -118.5q0 -65 -27 -119.5t-96 -131.5l-198 -221q47 4 112 4h234v-85h-453v55q0 24 13 38l200 226q68 73 98 127.5t28 102.5q-1 47 -31.5 61t-97.5 14q-100 0 -198 -16l-6 68q111 26 210 26z" />
    <glyph glyph-name="three" unicode="3" horiz-adv-x="556" 
d="M258 703q116 0 164.5 -35t48.5 -125q0 -154 -101 -174v-4q64 -11 91 -54t29 -119q2 -107 -48.5 -156t-170.5 -49q-93 0 -219 18l6 71q113 -10 191 -10q84 0 119 30t35 105q0 63 -28.5 95t-108.5 32h-128v69h128q74 1 97.5 34t23.5 92q-1 63 -30 82.5t-111 19.5
q-83 0 -175 -8l-7 68q102 18 194 18z" />
    <glyph glyph-name="four" unicode="4" horiz-adv-x="615" 
d="M571 241v-63l-89 -9v-169h-83v169h-286q-42 0 -62.5 34t-3.5 73l196 414h87l-193 -408q-8 -20 -0.5 -30.5t25.5 -10.5h237v203l15 114h68v-317h89z" />
    <glyph glyph-name="five" unicode="5" horiz-adv-x="536" 
d="M460 690l-4 -75h-290l-10 -188l74 -6q138 -10 194.5 -57t55.5 -157q0 -36 -5 -65.5t-19.5 -59t-38.5 -49.5t-64.5 -32.5t-95.5 -12.5q-96 0 -205 25l10 71q101 -18 175 -18q92 0 123.5 33t33.5 108q1 32 -3.5 54.5t-19 38t-28 24t-47 14.5t-59.5 8.5t-79 5.5l-46 3
q-15 2 -24.5 12.5t-8.5 26.5l16 296h365z" />
    <glyph glyph-name="six" unicode="6" horiz-adv-x="572" 
d="M328 450q108 0 148.5 -50t40.5 -177q0 -58 -8 -97.5t-30.5 -72.5t-67 -49t-112.5 -16q-60 0 -99.5 11t-66.5 33t-41.5 64t-20 96t-5.5 136q0 97 11 163.5t30.5 108t54 64t74 30.5t98.5 8q83 0 139 -15l-8 -64q-44 4 -131 4q-51 0 -81.5 -9t-53.5 -35.5t-33 -75
t-12 -129.5q36 40 75.5 56t98.5 16zM300 63q83 0 108 37t25 123q0 87 -26.5 121.5t-101.5 34.5q-44 0 -77 -13.5t-75 -49.5q0 -64 2.5 -101.5t10.5 -70.5t24.5 -48.5t42.5 -24t67 -8.5z" />
    <glyph glyph-name="seven" unicode="7" horiz-adv-x="512" 
d="M429 690q31 0 43 -16t3 -45l-215 -629h-88l194 564q9 27 21 51h-344l-4 75h390z" />
    <glyph glyph-name="eight" unicode="8" horiz-adv-x="607" 
d="M304 700q127 0 173 -41.5t46 -140.5q0 -147 -98 -158v-4q62 -6 87.5 -52t25.5 -132q0 -99 -48.5 -140.5t-185.5 -41.5q-136 0 -185.5 42t-49.5 140q0 86 26 132t88 52v4q-99 11 -99 158q0 98 46.5 140t173.5 42zM305 629q-84 0 -112 -25t-28 -94q0 -71 27.5 -94
t113.5 -23t111.5 23t25.5 94q0 69 -27 94t-111 25zM306 323q-94 -1 -124 -27t-30 -106q0 -71 31 -97.5t122 -26.5q89 0 119 26t30 98q0 82 -28.5 107.5t-119.5 25.5z" />
    <glyph glyph-name="nine" unicode="9" horiz-adv-x="572" 
d="M276 702q51 0 86.5 -7t61.5 -25t41 -42t23.5 -66.5t11.5 -89.5t3 -119q0 -116 -14 -187.5t-48.5 -111t-81 -53t-123.5 -13.5q-87 0 -149 15l8 65q48 -4 141 -4q69 0 105.5 20t55 74t21.5 157q-37 -42 -76.5 -58.5t-99.5 -16.5q-187 0 -187 225q0 123 50 180t171 57z
M265 310q43 0 76.5 14t76.5 51q0 55 -1.5 87t-6.5 64.5t-14 48.5t-25 29.5t-39 18t-57 4.5q-81 0 -109 -39t-27 -123q-1 -79 27 -117t99 -38z" />
    <glyph glyph-name="colon" unicode=":" horiz-adv-x="236" 
d="M129 440q18 0 25 -7t7 -25v-54q0 -18 -7 -25t-25 -7h-28q-17 0 -24.5 7t-7.5 25v54q0 18 7.5 25t24.5 7h28zM129 118q18 0 25 -7t7 -25v-54q0 -18 -7 -25t-25 -7h-28q-17 0 -24.5 7t-7.5 25v54q0 18 7.5 25t24.5 7h28z" />
    <glyph glyph-name="semicolon" unicode=";" horiz-adv-x="237" 
d="M133 440q18 0 25 -7t7 -25v-54q0 -18 -7 -25t-25 -7h-28q-17 0 -24.5 7t-7.5 25v54q0 18 7.5 25t24.5 7h28zM132 118q18 0 24.5 -7t6.5 -25v-64q-1 -85 -35 -154l-40 12q10 59 10 120q-24 0 -24 28v58q1 32 33 32h25z" />
    <glyph glyph-name="less" unicode="&#x3c;" horiz-adv-x="530" 
d="M459 506v-68l-332 -140l332 -137v-68l-406 171v68z" />
    <glyph glyph-name="equal" unicode="=" horiz-adv-x="585" 
d="M512 430v-63h-438v63h438zM512 219v-64h-438v64h438z" />
    <glyph glyph-name="greater" unicode="&#x3e;" horiz-adv-x="530" 
d="M71 506l406 -174v-68l-406 -171v68l332 137l-332 140v68z" />
    <glyph glyph-name="question" unicode="?" horiz-adv-x="505" 
d="M260 712q202 0 202 -155q0 -35 -13 -65.5t-33 -52t-43 -47t-43 -48.5t-34.5 -58t-15.5 -75h-73q-1 51 15.5 94t40.5 71.5t48.5 54t42 53.5t18.5 58q2 50 -29.5 74t-100.5 24q-85 0 -197 -10l-5 61q7 1 31 5.5t31 5.5l28 4t36 3.5t40 1.5t54 1zM255 118q17 0 24 -7t7 -25
v-54q0 -18 -7 -25t-24 -7h-23q-17 0 -24 7t-7 25v54q0 18 7 25t24 7h23z" />
    <glyph glyph-name="at" unicode="@" horiz-adv-x="718" 
d="M495 585q75 0 113 -33.5t38 -108.5v-311h-64l-8 75q-31 -32 -86.5 -57.5t-112.5 -25.5q-60 0 -95.5 30.5t-35.5 88.5v51q0 49 29.5 76t85.5 27h207v43q0 41 -18.5 57.5t-67.5 16.5h-128q-49 0 -75 -1.5t-52 -10.5t-36.5 -22.5t-19.5 -44t-11 -68.5t-2 -101q0 -49 1 -81.5
t6.5 -61t10.5 -45t20 -30t28 -19.5t41.5 -10t52.5 -4.5t69 -0.5h258v-64q-136 -8 -257 -8q-75 -1 -121 2.5t-84 17t-56 33t-31 60t-16 87t-3 124.5q0 76 3 121.5t14 84.5t27.5 58t50.5 33t74.5 17.5t107.5 4.5h143zM566 345l-178 -4q-35 -1 -49.5 -14.5t-14.5 -42.5v-26
q0 -66 66 -66q44 0 93.5 17.5t82.5 48.5v87z" />
    <glyph glyph-name="A" unicode="A" horiz-adv-x="622" 
d="M521 0l-68 216h-284l-68 -216h-91l222 666q6 24 33 24h92q27 0 33 -24l222 -666h-91zM193 292h236l-87 274q-9 26 -17 56h-28q-8 -30 -17 -56z" />
    <glyph glyph-name="B" unicode="B" horiz-adv-x="620" 
d="M424 356q75 -7 106.5 -52.5t31.5 -131.5q0 -104 -49 -142t-171 -38q-166 0 -255 8v690q79 8 224 8q129 0 179.5 -37.5t50.5 -142.5q0 -75 -28 -113.5t-89 -44.5v-4zM307 623h-134v-232h148q77 1 106 25t29 92q0 69 -31.5 92t-117.5 23zM328 67q84 0 114.5 24t30.5 96
q0 79 -32.5 107t-118.5 30h-149v-256q41 -1 155 -1z" />
    <glyph glyph-name="C" unicode="C" horiz-adv-x="570" 
d="M332 702q107 0 188 -20l-9 -67q-90 9 -179 9q-101 0 -139.5 -60.5t-38.5 -218.5t38.5 -218.5t139.5 -60.5q116 0 193 11l9 -66q-83 -23 -202 -23q-149 0 -210 80t-61 277t61 277t210 80z" />
    <glyph glyph-name="D" unicode="D" horiz-adv-x="664" 
d="M333 699q149 0 209 -77.5t60 -276.5t-60 -276.5t-209 -77.5q-116 0 -246 9v690q130 9 246 9zM333 68q99 0 138 60.5t39 216.5t-39 217t-138 61q-64 0 -158 -2v-551q90 -2 158 -2z" />
    <glyph glyph-name="E" unicode="E" horiz-adv-x="560" 
d="M229 73h277l4 -68q-92 -6 -296 -6q-61 0 -96.5 32.5t-36.5 87.5v452q1 55 36.5 87.5t96.5 32.5q204 0 296 -6l-4 -69h-277q-60 0 -60 -66v-150h298v-71h-298v-189q0 -67 60 -67z" />
    <glyph glyph-name="F" unicode="F" horiz-adv-x="539" 
d="M240 616q-35 0 -51 -15.5t-16 -50.5v-160h288v-71h-288v-319h-88v567q0 59 36 91.5t97 32.5q197 0 286 -7l-5 -68h-259z" />
    <glyph glyph-name="G" unicode="G" horiz-adv-x="628" 
d="M474 399h86v-399h-64l-10 73q-86 -86 -206 -86q-115 0 -166.5 86t-51.5 274q0 203 63 279.5t225 76.5q109 0 192 -21l-9 -66q-84 8 -178 8q-79 0 -119.5 -20.5t-60.5 -81.5t-20 -181q0 -153 33 -215t116 -62q78 0 170 67v268z" />
    <glyph glyph-name="H" unicode="H" 
d="M493 690h88v-690h-88v331h-318v-331h-88v690h88v-283h318v283z" />
    <glyph glyph-name="I" unicode="I" horiz-adv-x="262" 
d="M175 690v-690h-88v690h88z" />
    <glyph glyph-name="J" unicode="J" horiz-adv-x="340" 
d="M256 690v-545q0 -76 -34.5 -115t-99.5 -39q-56 0 -92 13l10 62h50q78 0 78 76v548h88z" />
    <glyph glyph-name="K" unicode="K" horiz-adv-x="591" 
d="M473 0l-220 324h-85q6 -38 6 -73v-251h-87v690h87v-216q0 -40 -6 -79h84l210 295h96l-201 -286q-12 -18 -38 -44v-2q28 -27 43 -48l210 -310h-99z" />
    <glyph glyph-name="L" unicode="L" horiz-adv-x="514" 
d="M172 690v-550q0 -66 67 -66h249l4 -68q-87 -7 -267 -7q-140 0 -140 130v561h87z" />
    <glyph glyph-name="M" unicode="M" horiz-adv-x="877" 
d="M739 690q36 0 36 -37l29 -653h-88l-25 617h-21l-154 -509q-8 -30 -38 -30h-79q-31 0 -40 30l-154 509h-20l-24 -617h-88l27 653q2 37 37 37h100q28 0 37 -30l129 -421q6 -18 15.5 -53.5t10.5 -39.5h18q3 11 11.5 43.5t14.5 51.5l129 419q8 30 38 30h99z" />
    <glyph glyph-name="N" unicode="N" horiz-adv-x="705" 
d="M618 690v-655q0 -35 -34 -35h-86q-27 0 -39 28l-233 489q-34 74 -39 91h-16q4 -40 4 -91v-517h-88v655q0 35 35 35h83q27 0 39 -28l226 -477q24 -49 47 -100h17q-3 54 -3 105v500h87z" />
    <glyph glyph-name="O" unicode="O" 
d="M334 703q152 0 212 -78.5t60 -279.5t-60 -279.5t-212 -78.5t-212.5 78.5t-60.5 279.5t60.5 279.5t212.5 78.5zM334 624q-102 0 -141 -60.5t-39 -218.5t39 -218.5t141 -60.5t141 60.5t39 218.5t-39 218.5t-141 60.5z" />
    <glyph glyph-name="P" unicode="P" horiz-adv-x="590" 
d="M324 699q126 0 174 -45.5t48 -170.5t-46.5 -170.5t-165.5 -45.5q-73 0 -159 8v-275h-88v690q84 9 237 9zM323 343q77 1 105.5 29.5t28.5 110.5t-29 111t-105 29q-109 0 -148 -1v-279h148z" />
    <glyph glyph-name="Q" unicode="Q" horiz-adv-x="669" 
d="M335 703q152 0 212 -78.5t60 -279.5t-60 -279.5t-212 -78.5t-212.5 78.5t-60.5 279.5t60.5 279.5t212.5 78.5zM335 624q-102 0 -141 -60.5t-39 -218.5t39 -218.5t141 -60.5q101 0 140.5 60.5t39.5 218.5t-39.5 218.5t-140.5 60.5zM294 -43q110 -48 265 -70l-28 -88
q-130 26 -262 105z" />
    <glyph glyph-name="R" unicode="R" horiz-adv-x="618" 
d="M506 218l67 -218h-94l-61 216q-13 39 -35 55.5t-57 16.5t-85.5 0.5t-66.5 0.5v-289h-87v690q84 9 238 9q123 0 173 -42.5t50 -156.5q0 -85 -29.5 -127t-97.5 -51v-5q28 -7 51 -32.5t34 -66.5zM323 364q78 1 107 28t29 103q0 75 -29 101.5t-107 26.5q-32 0 -82 -0.5
t-67 -0.5v-258h149z" />
    <glyph glyph-name="S" unicode="S" horiz-adv-x="561" 
d="M279 702q122 -2 205 -20l-6 -64q-97 5 -195 5q-44 0 -65 -2t-41 -12t-26.5 -31.5t-6.5 -59.5q0 -55 19.5 -78t67.5 -35l140 -35q77 -19 108 -65t31 -129q0 -114 -51.5 -151t-179.5 -37q-109 0 -214 19l6 65q168 -6 211 -5q82 0 110.5 21t28.5 90q0 57 -19.5 79.5
t-67.5 34.5l-143 36q-73 18 -104.5 64.5t-31.5 127.5q0 60 12.5 96.5t43 55t68 24.5t100.5 6z" />
    <glyph glyph-name="T" unicode="T" horiz-adv-x="581" 
d="M557 690v-78h-223v-612h-88v612h-222v78h533z" />
    <glyph glyph-name="U" unicode="U" horiz-adv-x="666" 
d="M584 690v-426q0 -151 -56 -214t-191 -63q-140 0 -197.5 63t-57.5 214v426h88v-426q0 -111 36 -154.5t127 -43.5q90 0 126.5 43.5t36.5 154.5v426h88z" />
    <glyph glyph-name="V" unicode="V" horiz-adv-x="609" 
d="M592 690l-209 -665q-9 -25 -34 -25h-89q-27 0 -34 25l-209 665h91l163 -547q14 -50 20 -75h27q10 42 21 76l162 546h91z" />
    <glyph glyph-name="W" unicode="W" horiz-adv-x="948" 
d="M917 690l-140 -664q-7 -26 -35 -26h-100q-29 0 -34 27l-108 519q-6 26 -16 78h-21l-15 -78l-107 -519q-7 -27 -35 -27h-101q-13 0 -22.5 7.5t-11.5 18.5l-140 664h93l108 -538q2 -9 14 -85h23q8 47 16 85l107 509q5 29 34 29h96q27 0 34 -29l107 -509q10 -49 14 -85h25
q9 60 13 84l109 539h93z" />
    <glyph glyph-name="X" unicode="X" horiz-adv-x="611" 
d="M490 0l-172 324h-25l-172 -324h-96l194 357l-181 333h95l158 -298h29l158 298h95l-182 -333l195 -357h-96z" />
    <glyph glyph-name="Y" unicode="Y" horiz-adv-x="569" 
d="M557 690l-229 -448v-242h-88v244l-229 446h94l145 -291q12 -24 31 -78h7q16 44 31 77l145 292h93z" />
    <glyph glyph-name="Z" unicode="Z" horiz-adv-x="566" 
d="M146 75h373v-75h-471v75l367 540h-361v75h458v-75z" />
    <glyph glyph-name="bracketleft" unicode="[" horiz-adv-x="329" 
d="M288 768v-56h-102q-14 0 -14 -16v-789q0 -16 14 -16h102v-56h-143q-54 0 -54 54v825q0 24 15.5 39t38.5 15h143z" />
    <glyph glyph-name="backslash" unicode="\" horiz-adv-x="518" 
d="M98 690l393 -756h-71l-393 756h71z" />
    <glyph glyph-name="bracketright" unicode="]" horiz-adv-x="329" 
d="M183 768q24 0 39 -15t15 -39v-825q0 -24 -15 -39t-39 -15h-142v56h101q15 0 15 16v789q0 16 -15 16h-101v56h142z" />
    <glyph glyph-name="asciicircum" unicode="^" horiz-adv-x="426" 
d="M244 600l152 -210l-34 -22l-144 174h-8l-145 -174l-35 22l153 210h61z" />
    <glyph glyph-name="underscore" unicode="_" horiz-adv-x="438" 
d="M438 0v-65h-438v65h438z" />
    <glyph glyph-name="grave" unicode="`" horiz-adv-x="315" 
d="M85 723l172 -146l-29 -39l-192 120z" />
    <glyph glyph-name="a" unicode="a" horiz-adv-x="549" 
d="M308 499q85 0 126 -35.5t41 -120.5v-343h-67l-10 81q-88 -90 -201 -90q-67 0 -106.5 35.5t-39.5 100.5v53q0 57 35.5 88.5t99.5 31.5h203v43q0 46 -21 65t-78 19q-72 0 -209 -13l-8 63q134 22 235 22zM214 64q38 -1 86 18t89 55v99l-188 -1q-34 -1 -48.5 -18t-14.5 -49
v-31q0 -38 18 -55.5t58 -17.5z" />
    <glyph glyph-name="b" unicode="b" horiz-adv-x="570" 
d="M340 499q91 0 133.5 -59.5t42.5 -194.5q0 -132 -48 -194.5t-168 -62.5q-125 0 -224 35v677h85v-182q0 -69 -9 -108q87 89 188 89zM298 60q71 1 100 41.5t30 143.5q-1 103 -25 141.5t-93 38.5q-35 0 -68.5 -17.5t-81.5 -55.5l1 -276q69 -18 137 -16z" />
    <glyph glyph-name="c" unicode="c" horiz-adv-x="489" 
d="M286 499q96 0 157 -23l-11 -55q-66 6 -132 6q-88 0 -122 -39t-34 -144q0 -106 34 -145t122 -39q80 0 143 10l9 -57q-72 -25 -167 -25q-126 0 -178.5 57.5t-52.5 198.5t52.5 198t179.5 57z" />
    <glyph glyph-name="d" unicode="d" horiz-adv-x="573" 
d="M409 700h85v-700h-66l-8 70q-94 -82 -193 -82q-90 0 -130.5 63.5t-40.5 193.5q0 139 44 196.5t140 57.5q91 0 173 -44q-4 41 -4 95v150zM143 246q0 -105 25.5 -144.5t86.5 -39.5q38 0 69 14.5t85 52.5v269q-96 27 -149 27q-65 0 -91 -37t-26 -142z" />
    <glyph glyph-name="e" unicode="e" horiz-adv-x="537" 
d="M298 60q83 0 169 12l9 -57q-65 -27 -189 -27q-126 0 -179.5 58.5t-53.5 198.5q0 141 52 197.5t172 56.5q109 0 159 -39.5t50 -119.5q2 -138 -116 -138h-226q6 -84 40 -113t113 -29zM282 427q-76 0 -106.5 -34t-32.5 -125h206q53 0 53 72q-1 47 -28 67t-92 20z" />
    <glyph glyph-name="f" unicode="f" horiz-adv-x="380" 
d="M288 647q-48 0 -67.5 -18.5t-19.5 -63.5v-78h156v-67h-156v-420h-85v420h-88v62l88 5v87q0 71 33 107t109 36q84 0 137 -7l-7 -63h-100z" />
    <glyph glyph-name="g" unicode="g" horiz-adv-x="558" 
d="M536 487l-5 -47l-72 -6q20 -33 20 -90q0 -82 -47 -118.5t-162 -36.5q-62 0 -101 10q-19 -24 -11 -51t45 -33l182 -29q68 -10 95.5 -42.5t27.5 -94.5q0 -85 -50.5 -118t-181.5 -33q-132 0 -183.5 32.5t-51.5 115.5q0 43 18 69t62 49q-38 29 -35 77.5t38 73.5
q-62 34 -62 128q0 84 46.5 120t162.5 36q67 0 111 -12h154zM270 254q72 0 101 20.5t29 69.5t-28.5 69.5t-101.5 20.5q-72 0 -101 -20.5t-29 -69.5t29 -69.5t101 -20.5zM425 -47q0 36 -15.5 49t-68.5 21l-166 23q-51 -39 -51 -93q0 -51 30 -67t121 -16q89 0 119.5 16.5
t30.5 66.5z" />
    <glyph glyph-name="h" unicode="h" horiz-adv-x="581" 
d="M374 499q132 0 132 -134v-365h-86v341q0 48 -15.5 67t-53.5 19q-41 0 -82.5 -18t-105.5 -58v-351h-85v700h85l1 -193q0 -56 -6 -95q120 87 216 87z" />
    <glyph glyph-name="i" unicode="i" horiz-adv-x="248" 
d="M144 694q26 0 26 -26v-57q0 -26 -26 -26h-40q-26 0 -26 26v57q0 26 26 26h40zM166 487v-487h-84v487h84z" />
    <glyph glyph-name="j" unicode="j" horiz-adv-x="250" 
d="M146 694q25 0 25 -26v-57q0 -26 -25 -26h-40q-26 0 -26 26v57q0 26 26 26h40zM168 487v-499q0 -58 -25 -108t-69 -83l-47 37q56 69 56 154v499h85z" />
    <glyph glyph-name="k" unicode="k" horiz-adv-x="509" 
d="M393 0l-169 244h-66q5 -45 5 -78v-166h-85v700h85l1 -311q0 -38 -5 -83h64l154 181h99l-153 -179q-15 -21 -34 -33v-2q20 -15 34 -39l169 -234h-99z" />
    <glyph glyph-name="l" unicode="l" horiz-adv-x="297" 
d="M164 700l-1 -566q0 -65 67 -65h47l10 -65q-27 -13 -89 -13q-55 0 -87 32.5t-32 91.5v585h85z" />
    <glyph glyph-name="m" unicode="m" horiz-adv-x="876" 
d="M671 499q63 0 96.5 -34t33.5 -100v-365h-84v341q-1 45 -18.5 65.5t-57.5 20.5q-35 0 -67.5 -16t-92.5 -59v-352h-82v341q0 46 -18.5 66t-57.5 20q-35 0 -67.5 -16t-92.5 -59v-352h-85v487h70l5 -77q103 89 199 89q102 0 123 -87q101 87 196 87z" />
    <glyph glyph-name="n" unicode="n" horiz-adv-x="581" 
d="M374 499q132 0 132 -134v-365h-85v341q0 48 -16 67t-54 19q-40 0 -80 -17.5t-108 -58.5v-351h-85v487h72l6 -77q116 89 218 89z" />
    <glyph glyph-name="o" unicode="o" horiz-adv-x="568" 
d="M284 499q126 0 177.5 -58t51.5 -198t-51.5 -198t-177.5 -58q-125 0 -177 58t-52 198t52 198t177 58zM284 427q-80 0 -110 -39t-30 -145t30 -145t110 -39t110.5 39t30.5 145t-30.5 145t-110.5 39z" />
    <glyph glyph-name="p" unicode="p" horiz-adv-x="580" 
d="M357 499q87 0 127 -64t40 -194q0 -138 -44 -195.5t-140 -57.5t-180 50q3 -34 3 -98v-141h-85v688h70l7 -78q39 42 94 66t108 24zM319 62q66 0 92 37t26 142q0 102 -24.5 143t-83.5 41q-38 0 -75.5 -17.5t-90.5 -56.5v-260q111 -29 156 -29z" />
    <glyph glyph-name="q" unicode="q" horiz-adv-x="570" 
d="M274 499q120 0 220 -34v-666h-85l-1 167q0 57 8 100q-95 -79 -194 -79q-85 0 -126 61.5t-41 193.5q0 133 48 195t171 62zM142 236q0 -93 23 -133.5t85 -40.5q40 0 74 15t85 50v284q-69 18 -136 16q-74 -2 -102.5 -41.5t-28.5 -149.5z" />
    <glyph glyph-name="r" unicode="r" horiz-adv-x="401" 
d="M361 499h22l-10 -80h-28q-38 0 -77 -14.5t-105 -47.5v-357h-85v487h66l9 -77q111 89 208 89z" />
    <glyph glyph-name="s" unicode="s" horiz-adv-x="508" 
d="M240 499q117 -2 205 -15l-7 -62q-153 5 -185 5q-74 1 -97 -9t-23 -53q0 -35 15.5 -48t55.5 -22l142 -32q60 -15 86.5 -44.5t26.5 -89.5q0 -85 -47 -112.5t-161 -27.5q-102 0 -191 14l6 62q85 -5 168 -4q85 0 114 13t29 55q0 33 -17.5 45.5t-59.5 22.5l-140 32
q-60 14 -85 45t-25 91q0 81 42.5 108.5t147.5 25.5z" />
    <glyph glyph-name="t" unicode="t" horiz-adv-x="381" 
d="M355 420h-155v-286q0 -35 15 -50t51 -15h74l10 -65q-46 -13 -110 -13q-61 0 -93 34t-32 98v297h-88v62l88 5v144h85v-144h155v-67z" />
    <glyph glyph-name="u" unicode="u" horiz-adv-x="570" 
d="M407 487h85v-487h-68l-6 71q-111 -84 -210 -84q-133 0 -133 134v366h85v-342q-1 -46 17 -65t60 -19q37 0 75 16.5t95 53.5v356z" />
    <glyph glyph-name="v" unicode="v" horiz-adv-x="530" 
d="M511 487l-178 -466q-8 -21 -30 -21h-77q-22 0 -30 21l-178 466h91l120 -341q10 -28 29 -85h13l30 85l120 341h90z" />
    <glyph glyph-name="w" unicode="w" horiz-adv-x="824" 
d="M799 487l-142 -463q-6 -24 -33 -24h-77q-12 0 -21.5 7.5t-11.5 19.5l-80 331q-3 14 -8 39.5t-8 37.5h-12q-16 -72 -17 -77l-79 -331q-7 -27 -34 -27h-76q-27 0 -33 24l-142 463h88l101 -359q9 -31 16 -73h13l18 73l81 332q5 27 32 27h77q25 0 32 -28l80 -331
q2 -11 8 -35.5t9 -37.5h13q1 5 6.5 31.5t10.5 41.5l101 359h88z" />
    <glyph glyph-name="x" unicode="x" horiz-adv-x="528" 
d="M413 0l-139 220h-20l-138 -220h-93l163 251l-151 236h92l125 -201h24l125 201h92l-151 -236l163 -251h-92z" />
    <glyph glyph-name="y" unicode="y" horiz-adv-x="529" 
d="M418 487h92l-195 -514q-64 -172 -213 -179l-8 56q57 18 89.5 49.5t52.5 79.5l9 21h-20q-24 0 -30 22l-177 465h91l129 -363q14 -41 18 -59h14q1 4 21 59z" />
    <glyph glyph-name="z" unicode="z" horiz-adv-x="510" 
d="M145 69h316v-69h-412v69l313 348h-310v70h406v-70z" />
    <glyph glyph-name="braceleft" unicode="{" horiz-adv-x="319" 
d="M276 768v-54q-51 0 -70.5 -19t-19.5 -66v-179q1 -61 -17.5 -86t-71.5 -36q55 -17 73.5 -41t19.5 -77v-237q0 -46 19.5 -65t70.5 -19v-54q-90 -7 -131 27t-41 106v256q0 19 -2.5 30t-13 19.5t-17.5 12t-29 11.5v62q39 12 48.5 22.5t9.5 54.5v199q0 72 41 106t131 27z" />
    <glyph glyph-name="bar" unicode="|" horiz-adv-x="246" 
d="M154 781v-950h-62v950h62z" />
    <glyph glyph-name="braceright" unicode="}" horiz-adv-x="320" 
d="M44 768q90 7 131 -27t41 -106v-199q0 -44 9.5 -54.5t48.5 -22.5v-62q-28 -10 -37.5 -15.5t-17 -19t-7.5 -38.5v-256q0 -72 -41 -106t-131 -27v54q51 0 70.5 19t19.5 65v237q1 53 19.5 77t73.5 41q-53 11 -71.5 36t-17.5 86v179q0 47 -19.5 66t-70.5 19v54z" />
    <glyph glyph-name="asciitilde" unicode="~" horiz-adv-x="525" 
d="M154 348q37 -2 107 -29t99 -30q26 -3 35.5 9.5t9.5 44.5h44q7 -58 -15 -89t-62 -29q-43 2 -112 29t-94 30q-26 3 -35.5 -10t-9.5 -46h-44q-7 60 15 91t62 29z" />
    <glyph glyph-name="uni00A0" unicode="&#xa0;" horiz-adv-x="223" 
 />
    <glyph glyph-name="exclamdown" unicode="&#xa1;" horiz-adv-x="256" 
d="M140 493q17 0 24 -7t7 -25v-55q0 -17 -7 -24t-24 -7h-22q-17 0 -24.5 7t-7.5 24v55q0 18 7.5 25t24.5 7h22zM162 282l9 -178v-300h-85v300l8 178h68z" />
    <glyph glyph-name="cent" unicode="&#xa2;" horiz-adv-x="508" 
d="M451 119q-69 -23 -159 -25l-9 -94h-45l9 95q-105 7 -149 65.5t-44 188.5q0 140 52.5 198t178.5 58h6l8 85h46l-8 -87q68 -8 105 -22l-11 -57q-51 6 -101 8l-30 -367q75 0 142 11zM138 349q0 -91 26 -132t90 -49l30 364q-82 -3 -114 -42.5t-32 -140.5z" />
    <glyph glyph-name="sterling" unicode="&#xa3;" horiz-adv-x="569" 
d="M222 75h296v-75h-456v75q87 44 78 188l-4 72h-79l-1 56h77l-8 130q-5 110 41 145.5t150 35.5q78 0 179 -10l-5 -70q-71 4 -176 4q-61 0 -83.5 -23t-19.5 -83l8 -129h212l-2 -56h-206l4 -72q3 -71 -13 -114t-59 -77q22 3 67 3z" />
    <glyph glyph-name="currency" unicode="&#xa4;" horiz-adv-x="594" 
d="M492 351q0 -65 -40 -118l74 -73l-38 -37l-73 73q-52 -41 -119 -41t-118 40l-72 -72l-40 40l72 72q-38 51 -38 116q0 67 40 120l-71 71l37 38l71 -72q53 40 119 40q68 0 120 -41l72 73l38 -38l-73 -72q39 -54 39 -119zM296 208q59 -1 101 41.5t42 102.5t-42 102.5
t-101 42.5t-101.5 -42.5t-42.5 -102.5t42.5 -102.5t101.5 -41.5z" />
    <glyph glyph-name="yen" unicode="&#xa5;" horiz-adv-x="618" 
d="M582 690l-197 -367h146v-52h-173l-5 -9v-52h178v-51h-178v-159h-88v159h-173l-1 51h174v52l-5 9h-168l-1 52h142l-197 367h91l145 -275q8 -14 20.5 -45t13.5 -33h7q20 49 33 77l144 276h92z" />
    <glyph glyph-name="brokenbar" unicode="&#xa6;" horiz-adv-x="248" 
d="M155 781v-400h-62v400h62zM155 231v-400h-62v400h62z" />
    <glyph glyph-name="section" unicode="&#xa7;" horiz-adv-x="544" 
d="M260 703q124 -2 217 -12l-6 -66q-74 5 -189 5q-47 1 -70 -1.5t-41 -15.5t-18 -40q-1 -33 15.5 -53.5t50.5 -39.5l162 -91q69 -37 88 -95.5t-2 -139.5h-62q5 66 -9.5 104t-59.5 64l-173 99q-52 30 -76.5 63.5t-24.5 90.5q0 76 47.5 102t150.5 26zM140 388q-5 -67 9 -103.5
t60 -62.5l173 -98q51 -30 76 -64.5t25 -91.5q0 -34 -9.5 -58t-25 -38t-42.5 -22t-53.5 -10t-66.5 -2q-110 2 -218 12l7 67q96 -6 190 -7q29 0 43.5 0.5t33.5 3.5t28 9.5t15.5 18t6.5 29.5q1 33 -15.5 54t-48.5 39l-162 90q-70 37 -89 94.5t1 139.5h62z" />
    <glyph glyph-name="dieresis" unicode="&#xa8;" horiz-adv-x="411" 
d="M132 693q23 0 23 -24v-55q0 -24 -23 -24h-29q-23 0 -23 24v55q0 24 23 24h29zM309 693q24 0 24 -24v-55q0 -24 -24 -24h-28q-24 0 -24 24v55q0 24 24 24h28z" />
    <glyph glyph-name="copyright" unicode="&#xa9;" horiz-adv-x="836" 
d="M418 703q152 0 255.5 -101.5t103.5 -256.5t-103.5 -256.5t-255.5 -101.5q-151 0 -255 102t-104 256t104 256t255 102zM418 657q-130 0 -221 -89.5t-91 -222.5t91 -222.5t221 -89.5t221 89t91 223t-91 223t-221 89zM423 568q79 0 135 -14l-8 -48q-65 3 -128 3
q-72 0 -99.5 -35t-27.5 -127t27.5 -127t99.5 -35q91 0 140 6l6 -49q-62 -15 -145 -15q-107 0 -151 49.5t-44 170.5q0 122 44 171.5t151 49.5z" />
    <glyph glyph-name="ordfeminine" unicode="&#xaa;" horiz-adv-x="441" 
d="M254 607q57 0 85.5 -25t28.5 -83v-227h-51l-8 61q-65 -67 -147 -67q-45 0 -71.5 22.5t-26.5 64.5v38q0 38 24.5 59.5t68.5 21.5h147v28q0 53 -63 53q-51 0 -155 -8l-7 48q112 14 175 14zM127 367q0 -46 55 -46q58 0 122 49v65l-127 -8q-50 -3 -50 -42v-18z" />
    <glyph glyph-name="guillemotleft" unicode="&#xab;" horiz-adv-x="485" 
d="M204 459l45 -30l-126 -178l127 -182l-45 -30l-161 202v20zM385 459l45 -30l-126 -178l127 -182l-45 -30l-161 202v20z" />
    <glyph glyph-name="logicalnot" unicode="&#xac;" horiz-adv-x="590" 
d="M74 330h438v-198h-66v133h-372v65z" />
    <glyph glyph-name="uni00AD" unicode="&#xad;" horiz-adv-x="448" 
d="M377 285v-65h-305v65h305z" />
    <glyph glyph-name="registered" unicode="&#xae;" horiz-adv-x="553" 
d="M277 702q92 0 157 -65t65 -157q0 -93 -65 -158t-157 -65q-93 0 -158 65t-65 158q0 92 65 157t158 65zM277 287q79 0 135 56.5t56 136.5t-56 136.5t-135 56.5t-135.5 -56.5t-56.5 -136.5t56 -136.5t136 -56.5zM330 471q29 -4 39 -38l30 -82h-42l-28 80q-11 27 -42 27h-70
v-107h-40v259q34 3 109 3q56 0 79.5 -16t23.5 -59q0 -30 -13.5 -45.5t-45.5 -19.5v-2zM285 487q36 1 50 11t13 36q1 28 -12.5 37.5t-50.5 9.5h-68v-94h68z" />
    <glyph glyph-name="macron" unicode="&#xaf;" horiz-adv-x="400" 
d="M339 672v-63h-278v63h278z" />
    <glyph glyph-name="degree" unicode="&#xb0;" horiz-adv-x="363" 
d="M182 703q53 0 91 -37.5t38 -89.5t-38 -90t-91 -38t-91.5 38t-38.5 90t38 89.5t92 37.5zM182 651q-32 0 -54 -21t-22 -54q0 -32 22 -54t54 -22q31 0 53 22t22 54t-22 53.5t-53 21.5z" />
    <glyph glyph-name="plusminus" unicode="&#xb1;" horiz-adv-x="588" 
d="M327 391h186v-64h-187v-134h-65v134h-186v64h186v133h66v-133zM75 70v64h438v-64h-438z" />
    <glyph glyph-name="uni00B2" unicode="&#xb2;" horiz-adv-x="414" 
d="M200 773q77 0 111.5 -19.5t34.5 -75.5q0 -60 -81 -143l-120 -119q24 2 65 2l153 -1l-1 -58h-305v36q0 17 11 28l125 124q78 76 79 124q1 27 -17.5 36t-57.5 9q-60 0 -131 -9l-4 51q70 15 138 15z" />
    <glyph glyph-name="uni00B3" unicode="&#xb3;" horiz-adv-x="407" 
d="M194 774q79 0 110.5 -20.5t31.5 -73.5q0 -91 -71 -104v-2q44 -6 62.5 -31t19.5 -71q2 -64 -32 -92.5t-114 -28.5q-70 0 -145 12l5 50q67 -6 124 -6q52 0 72.5 16t20.5 57q0 31 -17 48t-65 18h-85v50l85 1q32 0 49.5 11t21.5 24t3 32q0 32 -18 43t-68 11q-70 0 -117 -6
l-4 49q72 13 131 13z" />
    <glyph glyph-name="acute" unicode="&#xb4;" horiz-adv-x="314" 
d="M221 731l49 -66l-192 -120l-29 39z" />
    <glyph glyph-name="uni00B5" unicode="&#xb5;" horiz-adv-x="577" 
d="M554 55l6 -51q-40 -14 -76 -14q-72 0 -72 87v25q-26 -50 -74.5 -82t-108.5 -32q-37 0 -68 12v-76l-10 -125h-73v688h84v-333q0 -50 19.5 -69t61.5 -19q67 0 115.5 58t50.5 139v224h85v-379q0 -28 5.5 -40.5t22.5 -12.5h32z" />
    <glyph glyph-name="paragraph" unicode="&#xb6;" horiz-adv-x="593" 
d="M346 702q90 0 151 -17v-685h-65v641q-57 5 -98 5v-856h-65v411q-123 11 -176 69t-53 180q0 138 70 195t236 57z" />
    <glyph glyph-name="periodcentered" unicode="&#xb7;" horiz-adv-x="236" 
d="M132 317q18 0 25 -7t7 -25v-54q0 -18 -7 -25t-25 -7h-28q-17 0 -24.5 7t-7.5 25v54q0 18 7.5 25t24.5 7h28z" />
    <glyph glyph-name="cedilla" unicode="&#xb8;" horiz-adv-x="234" 
d="M90 -43q61 6 86.5 -8t24.5 -57q-1 -63 -48 -97t-119 -24l13 45q41 -1 66.5 18.5t26.5 50.5q1 18 -11 24.5t-48 7.5z" />
    <glyph glyph-name="uni00B9" unicode="&#xb9;" horiz-adv-x="294" 
d="M210 767v-408h-66v310q0 25 2 38l-108 -29l-8 47l114 42h66z" />
    <glyph glyph-name="ordmasculine" unicode="&#xba;" horiz-adv-x="444" 
d="M222 607q90 0 126.5 -38.5t36.5 -133.5q0 -94 -36.5 -132.5t-126.5 -38.5t-126.5 38.5t-36.5 132.5q0 95 36.5 133.5t126.5 38.5zM222 554q-54 0 -75 -25.5t-21 -93.5t20.5 -92.5t75.5 -24.5q54 0 74.5 24.5t20.5 92.5q0 69 -20.5 94t-74.5 25z" />
    <glyph glyph-name="guillemotright" unicode="&#xbb;" horiz-adv-x="485" 
d="M99 459l160 -198v-20l-161 -202l-45 30l127 182l-126 178zM281 459l160 -198v-20l-161 -202l-45 30l127 182l-126 178z" />
    <glyph glyph-name="onequarter" unicode="&#xbc;" horiz-adv-x="863" 
d="M155 591q0 22 4 39l-113 -29l-8 46l117 43h66v-414h-66v315zM584 690h61l-447 -690h-61zM821 150v-47l-48 -5v-98h-63v97h-195q-27 0 -39.5 17.5t0.5 47.5l127 252h64l-122 -242q-4 -9 1 -15.5t16 -6.5h148v117l12 68h51v-185h48z" />
    <glyph glyph-name="onehalf" unicode="&#xbd;" horiz-adv-x="887" 
d="M221 690v-414h-66v315q0 22 4 39l-113 -29l-8 46l117 43h66zM639 690l-447 -690h-62l448 690h61zM670 421q80 0 115 -19t35 -76q0 -62 -82 -144l-127 -124q25 2 69 2l158 -1l-1 -59h-311v38q0 18 10 28l129 125q82 80 83 129q0 28 -19.5 36t-62.5 8q-67 0 -132 -8l-4 50
q74 15 140 15z" />
    <glyph glyph-name="threequarters" unicode="&#xbe;" horiz-adv-x="954" 
d="M355 389q2 -65 -32.5 -94t-117.5 -29q-63 0 -149 11l4 50q59 -5 129 -5q54 0 76 16.5t22 58.5q0 32 -18.5 50t-68.5 18l-86 2v45l86 3q48 1 63.5 19.5t15.5 48.5q0 33 -19.5 45t-72.5 12q-76 0 -119 -4l-4 49q66 10 133 10q83 0 115 -20.5t32 -74.5q0 -94 -76 -105v-2
q47 -6 66.5 -32t20.5 -72zM685 690h61l-447 -690h-61zM912 150v-47l-51 -5v-98h-62v97h-193q-27 0 -39.5 17.5t0.5 47.5l127 252h64l-122 -242q-4 -9 1 -15.5t17 -6.5h145v117l11 68h51v-185h51z" />
    <glyph glyph-name="questiondown" unicode="&#xbf;" horiz-adv-x="500" 
d="M271 499q18 0 25 -7t7 -24v-56q0 -17 -7 -24t-25 -7h-21q-18 0 -25 7t-7 24v56q0 17 7 24t25 7h21zM296 288q1 -51 -15.5 -94t-40.5 -71.5t-48.5 -53.5t-42 -54t-18.5 -59q-2 -49 29.5 -72.5t100.5 -23.5q97 0 197 9l5 -61q-7 -1 -31 -5.5t-31 -5.5l-28 -4t-36 -3.5
t-40 -1.5t-54 -1q-202 0 -202 155q0 41 18 76.5t44.5 62t53 54t45.5 67t21 86.5h73z" />
    <glyph glyph-name="Agrave" unicode="&#xc0;" horiz-adv-x="622" 
d="M368 760l-29 -39l-192 120l49 65zM521 0l-68 216h-284l-68 -216h-91l222 666q6 24 33 24h92q27 0 33 -24l222 -666h-91zM193 292h236l-87 274q-9 26 -17 56h-28q-8 -30 -17 -56z" />
    <glyph glyph-name="Aacute" unicode="&#xc1;" horiz-adv-x="622" 
d="M461 848l-192 -120l-29 39l172 147zM521 0l-68 216h-284l-68 -216h-91l222 666q6 24 33 24h92q27 0 33 -24l222 -666h-91zM193 292h236l-87 274q-9 26 -17 56h-28q-8 -30 -17 -56z" />
    <glyph glyph-name="Acircumflex" unicode="&#xc2;" horiz-adv-x="622" 
d="M307 822l-130 -97l-29 37l132 127h61l133 -127l-30 -37l-129 97h-8zM521 0l-68 216h-284l-68 -216h-91l222 666q6 24 33 24h92q27 0 33 -24l222 -666h-91zM193 292h236l-87 274q-9 26 -17 56h-28q-8 -30 -17 -56z" />
    <glyph glyph-name="Atilde" unicode="&#xc3;" horiz-adv-x="622" 
d="M193 758h-40q-6 58 16.5 87.5t61.5 26.5q32 -3 77.5 -27.5t71.5 -27.5q28 -4 38.5 8t10.5 42h40q6 -55 -16 -85t-62 -27q-37 3 -83 29t-68 28q-27 3 -37 -10t-10 -44zM521 0l-68 216h-284l-68 -216h-91l222 666q6 24 33 24h92q27 0 33 -24l222 -666h-91zM193 292h236
l-87 274q-9 26 -17 56h-28q-8 -30 -17 -56z" />
    <glyph glyph-name="Adieresis" unicode="&#xc4;" horiz-adv-x="622" 
d="M207 760q-23 0 -23 24v55q0 24 23 24h29q23 0 23 -24v-55q0 -24 -23 -24h-29zM385 760q-24 0 -24 24v55q0 24 24 24h28q24 0 24 -24v-55q0 -24 -24 -24h-28zM521 0l-68 216h-284l-68 -216h-91l222 666q6 24 33 24h92q27 0 33 -24l222 -666h-91zM193 292h236l-87 274
q-9 26 -17 56h-28q-8 -30 -17 -56z" />
    <glyph glyph-name="Aring" unicode="&#xc5;" horiz-adv-x="622" 
d="M311 714q-45 0 -76 30t-31 75q0 44 31.5 74.5t75.5 30.5t75.5 -30.5t31.5 -74.5t-31.5 -74.5t-75.5 -30.5zM311 880q-26 0 -42.5 -17t-16.5 -44q0 -28 17 -44.5t42 -16.5q26 0 43 16.5t17 44.5q0 27 -17 44t-43 17zM521 0l-68 216h-284l-68 -216h-91l222 666q6 24 33 24
h92q27 0 33 -24l222 -666h-91zM193 292h236l-87 274q-9 26 -17 56h-28q-8 -30 -17 -56z" />
    <glyph glyph-name="AE" unicode="&#xc6;" horiz-adv-x="913" 
d="M604 74h255l3 -69q-95 -6 -293 -6q-52 0 -84 33.5t-32 86.5v106h-232l-130 -225h-92l343 582q35 63 83.5 86t141.5 23q189 0 295 -6l-3 -70h-255q-31 0 -49.5 -18.5t-18.5 -50.5v-145l283 -1v-71l-283 -1v-187q0 -67 68 -67zM263 298h190v260q0 21 9.5 42t22.5 30h-8
q-29 -16 -58 -63z" />
    <glyph glyph-name="Ccedilla" unicode="&#xc7;" horiz-adv-x="570" 
d="M332 702q107 0 188 -20l-9 -67q-90 9 -179 9q-101 0 -139.5 -60.5t-38.5 -218.5t38.5 -218.5t139.5 -60.5q116 0 193 11l9 -66q-83 -23 -202 -23q-149 0 -210 80t-61 277t61 277t210 80zM281 -55q61 6 86.5 -8t24.5 -57q-1 -63 -48 -97t-119 -24l13 45q41 -1 66.5 18.5
t26.5 50.5q1 18 -11 24.5t-48 7.5z" />
    <glyph glyph-name="Egrave" unicode="&#xc8;" horiz-adv-x="560" 
d="M367 780l-29 -39l-192 120l49 65zM229 73h277l4 -68q-92 -6 -296 -6q-61 0 -96.5 32.5t-36.5 87.5v452q1 55 36.5 87.5t96.5 32.5q204 0 296 -6l-4 -69h-277q-60 0 -60 -66v-150h298v-71h-298v-189q0 -67 60 -67z" />
    <glyph glyph-name="Eacute" unicode="&#xc9;" horiz-adv-x="560" 
d="M460 868l-192 -120l-29 39l172 147zM229 73h277l4 -68q-92 -6 -296 -6q-61 0 -96.5 32.5t-36.5 87.5v452q1 55 36.5 87.5t96.5 32.5q204 0 296 -6l-4 -69h-277q-60 0 -60 -66v-150h298v-71h-298v-189q0 -67 60 -67z" />
    <glyph glyph-name="Ecircumflex" unicode="&#xca;" horiz-adv-x="560" 
d="M306 842l-130 -97l-29 37l132 127h61l133 -127l-30 -37l-129 97h-8zM229 73h277l4 -68q-92 -6 -296 -6q-61 0 -96.5 32.5t-36.5 87.5v452q1 55 36.5 87.5t96.5 32.5q204 0 296 -6l-4 -69h-277q-60 0 -60 -66v-150h298v-71h-298v-189q0 -67 60 -67z" />
    <glyph glyph-name="Edieresis" unicode="&#xcb;" horiz-adv-x="560" 
d="M206 780q-23 0 -23 24v55q0 24 23 24h29q23 0 23 -24v-55q0 -24 -23 -24h-29zM384 780q-24 0 -24 24v55q0 24 24 24h28q24 0 24 -24v-55q0 -24 -24 -24h-28zM229 73h277l4 -68q-92 -6 -296 -6q-61 0 -96.5 32.5t-36.5 87.5v452q1 55 36.5 87.5t96.5 32.5q204 0 296 -6
l-4 -69h-277q-60 0 -60 -66v-150h298v-71h-298v-189q0 -67 60 -67z" />
    <glyph glyph-name="Igrave" unicode="&#xcc;" horiz-adv-x="262" 
d="M16 913l172 -146l-29 -39l-192 120zM175 690v-690h-88v690h88z" />
    <glyph glyph-name="Iacute" unicode="&#xcd;" horiz-adv-x="262" 
d="M232 921l49 -66l-192 -120l-29 39zM175 690v-690h-88v690h88z" />
    <glyph glyph-name="Icircumflex" unicode="&#xce;" horiz-adv-x="262" 
d="M161 896l133 -127l-30 -37l-129 97h-8l-130 -97l-29 37l132 127h61zM175 690v-690h-88v690h88z" />
    <glyph glyph-name="Idieresis" unicode="&#xcf;" horiz-adv-x="262" 
d="M56 870q23 0 23 -24v-55q0 -24 -23 -24h-29q-23 0 -23 24v55q0 24 23 24h29zM233 870q24 0 24 -24v-55q0 -24 -24 -24h-28q-24 0 -24 24v55q0 24 24 24h28zM175 690v-690h-88v690h88z" />
    <glyph glyph-name="Eth" unicode="&#xd0;" horiz-adv-x="669" 
d="M337 699q149 0 209 -77.5t60 -276.5t-60 -276.5t-209 -77.5q-116 0 -246 9v342h-69v49h69v299q130 9 246 9zM337 68q99 0 138 60.5t39 216.5t-39 217t-138 61q-64 0 -158 -2v-230h152v-49h-152v-272q90 -2 158 -2z" />
    <glyph glyph-name="Ntilde" unicode="&#xd1;" horiz-adv-x="705" 
d="M284 879q32 -3 77.5 -27.5t71.5 -27.5q28 -4 38.5 8t10.5 42h40q6 -55 -16 -85t-62 -27q-37 3 -83 29t-68 28q-27 3 -37 -10t-10 -44h-40q-6 58 16.5 87.5t61.5 26.5zM618 690v-655q0 -35 -34 -35h-86q-27 0 -39 28l-233 489q-34 74 -39 91h-16q4 -40 4 -91v-517h-88v655
q0 35 35 35h83q27 0 39 -28l226 -477q24 -49 47 -100h17q-3 54 -3 105v500h87z" />
    <glyph glyph-name="Ograve" unicode="&#xd2;" 
d="M221 913l172 -146l-29 -39l-192 120zM334 703q152 0 212 -78.5t60 -279.5t-60 -279.5t-212 -78.5t-212.5 78.5t-60.5 279.5t60.5 279.5t212.5 78.5zM334 624q-102 0 -141 -60.5t-39 -218.5t39 -218.5t141 -60.5t141 60.5t39 218.5t-39 218.5t-141 60.5z" />
    <glyph glyph-name="Oacute" unicode="&#xd3;" 
d="M437 921l49 -66l-192 -120l-29 39zM334 703q152 0 212 -78.5t60 -279.5t-60 -279.5t-212 -78.5t-212.5 78.5t-60.5 279.5t60.5 279.5t212.5 78.5zM334 624q-102 0 -141 -60.5t-39 -218.5t39 -218.5t141 -60.5t141 60.5t39 218.5t-39 218.5t-141 60.5z" />
    <glyph glyph-name="Ocircumflex" unicode="&#xd4;" 
d="M366 896l133 -127l-30 -37l-129 97h-8l-130 -97l-29 37l132 127h61zM334 703q152 0 212 -78.5t60 -279.5t-60 -279.5t-212 -78.5t-212.5 78.5t-60.5 279.5t60.5 279.5t212.5 78.5zM334 624q-102 0 -141 -60.5t-39 -218.5t39 -218.5t141 -60.5t141 60.5t39 218.5
t-39 218.5t-141 60.5z" />
    <glyph glyph-name="Otilde" unicode="&#xd5;" 
d="M256 879q32 -3 77.5 -27.5t71.5 -27.5q28 -4 38.5 8t10.5 42h40q6 -55 -16 -85t-62 -27q-37 3 -83 29t-68 28q-27 3 -37 -10t-10 -44h-40q-6 58 16.5 87.5t61.5 26.5zM334 703q152 0 212 -78.5t60 -279.5t-60 -279.5t-212 -78.5t-212.5 78.5t-60.5 279.5t60.5 279.5
t212.5 78.5zM334 624q-102 0 -141 -60.5t-39 -218.5t39 -218.5t141 -60.5t141 60.5t39 218.5t-39 218.5t-141 60.5z" />
    <glyph glyph-name="Odieresis" unicode="&#xd6;" 
d="M261 870q23 0 23 -24v-55q0 -24 -23 -24h-29q-23 0 -23 24v55q0 24 23 24h29zM438 870q24 0 24 -24v-55q0 -24 -24 -24h-28q-24 0 -24 24v55q0 24 24 24h28zM334 703q152 0 212 -78.5t60 -279.5t-60 -279.5t-212 -78.5t-212.5 78.5t-60.5 279.5t60.5 279.5t212.5 78.5z
M334 624q-102 0 -141 -60.5t-39 -218.5t39 -218.5t141 -60.5t141 60.5t39 218.5t-39 218.5t-141 60.5z" />
    <glyph glyph-name="multiply" unicode="&#xd7;" horiz-adv-x="484" 
d="M444 425l-150 -135l150 -135l-42 -51l-157 141l-157 -141l-42 51l150 135l-150 134l42 51l157 -141l157 141z" />
    <glyph glyph-name="Oslash" unicode="&#xd8;" 
d="M507 662q53 -36 76 -112t23 -205q0 -201 -60 -279.5t-212 -78.5q-84 0 -134 21l-31 -66l-45 20l32 69q-50 37 -72.5 112.5t-22.5 201.5q0 201 60.5 279.5t212.5 78.5q76 0 128 -18l31 65l46 -19zM154 345q0 -167 44 -226l228 488q-34 17 -92 17q-102 0 -141 -60.5
t-39 -218.5zM334 66q102 0 141 60.5t39 218.5q0 173 -48 231l-230 -490q37 -20 98 -20z" />
    <glyph glyph-name="Ugrave" unicode="&#xd9;" horiz-adv-x="666" 
d="M219 913l172 -146l-29 -39l-192 120zM584 690v-426q0 -151 -56 -214t-191 -63q-140 0 -197.5 63t-57.5 214v426h88v-426q0 -111 36 -154.5t127 -43.5q90 0 126.5 43.5t36.5 154.5v426h88z" />
    <glyph glyph-name="Uacute" unicode="&#xda;" horiz-adv-x="666" 
d="M435 921l49 -66l-192 -120l-29 39zM584 690v-426q0 -151 -56 -214t-191 -63q-140 0 -197.5 63t-57.5 214v426h88v-426q0 -111 36 -154.5t127 -43.5q90 0 126.5 43.5t36.5 154.5v426h88z" />
    <glyph glyph-name="Ucircumflex" unicode="&#xdb;" horiz-adv-x="666" 
d="M364 896l133 -127l-30 -37l-129 97h-8l-130 -97l-29 37l132 127h61zM584 690v-426q0 -151 -56 -214t-191 -63q-140 0 -197.5 63t-57.5 214v426h88v-426q0 -111 36 -154.5t127 -43.5q90 0 126.5 43.5t36.5 154.5v426h88z" />
    <glyph glyph-name="Udieresis" unicode="&#xdc;" horiz-adv-x="666" 
d="M259 870q23 0 23 -24v-55q0 -24 -23 -24h-29q-23 0 -23 24v55q0 24 23 24h29zM436 870q24 0 24 -24v-55q0 -24 -24 -24h-28q-24 0 -24 24v55q0 24 24 24h28zM584 690v-426q0 -151 -56 -214t-191 -63q-140 0 -197.5 63t-57.5 214v426h88v-426q0 -111 36 -154.5t127 -43.5
q90 0 126.5 43.5t36.5 154.5v426h88z" />
    <glyph glyph-name="Yacute" unicode="&#xdd;" horiz-adv-x="569" 
d="M436 845l-192 -120l-29 39l172 147zM557 690l-229 -448v-242h-88v244l-229 446h94l145 -291q12 -24 31 -78h7q16 44 31 77l145 292h93z" />
    <glyph glyph-name="Thorn" unicode="&#xde;" horiz-adv-x="592" 
d="M325 567q125 0 173 -45.5t48 -172.5t-46.5 -172.5t-165.5 -45.5q-73 0 -159 8v-139h-88v690h88v-125q41 2 150 2zM323 207q77 1 105.5 29.5t28.5 112.5q0 85 -28.5 114t-105.5 29q-109 0 -148 -1v-284h148z" />
    <glyph glyph-name="germandbls" unicode="&#xdf;" horiz-adv-x="675" 
d="M550 256q48 -22 68 -49.5t20 -80.5q0 -81 -41.5 -109t-135.5 -28q-82 0 -160 11l5 64q64 -5 139 -5q64 1 87 13.5t23 57.5q0 31 -14.5 45t-52.5 31l-106 47q-82 38 -82 112q0 16 2.5 29t10.5 24.5t13.5 18.5t20.5 17t21.5 14t27.5 15t27 15q37 21 50.5 39t13.5 49
q0 34 -30.5 49.5t-111.5 15.5q-84 0 -114 -23.5t-30 -93.5v-534h-85v419h-88v66l88 2v56q0 57 14.5 93.5t46 54.5t69 24t95.5 6q123 0 174.5 -29t51.5 -103q0 -43 -18 -72t-69 -59q-13 -8 -33.5 -18.5t-29 -16t-19 -14t-14 -18.5t-3.5 -24q0 -24 14.5 -36.5t50.5 -28.5z" />
    <glyph glyph-name="agrave" unicode="&#xe0;" horiz-adv-x="549" 
d="M331 587l-29 -39l-192 120l49 65zM308 499q85 0 126 -35.5t41 -120.5v-343h-67l-10 81q-88 -90 -201 -90q-67 0 -106.5 35.5t-39.5 100.5v53q0 57 35.5 88.5t99.5 31.5h203v43q0 46 -21 65t-78 19q-72 0 -209 -13l-8 63q134 22 235 22zM214 64q38 -1 86 18t89 55v99
l-188 -1q-34 -1 -48.5 -18t-14.5 -49v-31q0 -38 18 -55.5t58 -17.5z" />
    <glyph glyph-name="aacute" unicode="&#xe1;" horiz-adv-x="549" 
d="M424 675l-192 -120l-29 39l172 147zM308 499q85 0 126 -35.5t41 -120.5v-343h-67l-10 81q-88 -90 -201 -90q-67 0 -106.5 35.5t-39.5 100.5v53q0 57 35.5 88.5t99.5 31.5h203v43q0 46 -21 65t-78 19q-72 0 -209 -13l-8 63q134 22 235 22zM214 64q38 -1 86 18t89 55v99
l-188 -1q-34 -1 -48.5 -18t-14.5 -49v-31q0 -38 18 -55.5t58 -17.5z" />
    <glyph glyph-name="acircumflex" unicode="&#xe2;" horiz-adv-x="549" 
d="M270 649l-130 -97l-29 37l132 127h61l133 -127l-30 -37l-129 97h-8zM308 499q85 0 126 -35.5t41 -120.5v-343h-67l-10 81q-88 -90 -201 -90q-67 0 -106.5 35.5t-39.5 100.5v53q0 57 35.5 88.5t99.5 31.5h203v43q0 46 -21 65t-78 19q-72 0 -209 -13l-8 63q134 22 235 22z
M214 64q38 -1 86 18t89 55v99l-188 -1q-34 -1 -48.5 -18t-14.5 -49v-31q0 -38 18 -55.5t58 -17.5z" />
    <glyph glyph-name="atilde" unicode="&#xe3;" horiz-adv-x="549" 
d="M156 585h-40q-6 58 16.5 87.5t61.5 26.5q32 -3 77.5 -27.5t71.5 -27.5q28 -4 38.5 8t10.5 42h40q6 -55 -16 -85t-62 -27q-37 3 -83 29t-68 28q-27 3 -37 -10t-10 -44zM308 499q85 0 126 -35.5t41 -120.5v-343h-67l-10 81q-88 -90 -201 -90q-67 0 -106.5 35.5t-39.5 100.5
v53q0 57 35.5 88.5t99.5 31.5h203v43q0 46 -21 65t-78 19q-72 0 -209 -13l-8 63q134 22 235 22zM214 64q38 -1 86 18t89 55v99l-188 -1q-34 -1 -48.5 -18t-14.5 -49v-31q0 -38 18 -55.5t58 -17.5z" />
    <glyph glyph-name="adieresis" unicode="&#xe4;" horiz-adv-x="549" 
d="M170 587q-23 0 -23 24v55q0 24 23 24h29q23 0 23 -24v-55q0 -24 -23 -24h-29zM348 587q-24 0 -24 24v55q0 24 24 24h28q24 0 24 -24v-55q0 -24 -24 -24h-28zM308 499q85 0 126 -35.5t41 -120.5v-343h-67l-10 81q-88 -90 -201 -90q-67 0 -106.5 35.5t-39.5 100.5v53
q0 57 35.5 88.5t99.5 31.5h203v43q0 46 -21 65t-78 19q-72 0 -209 -13l-8 63q134 22 235 22zM214 64q38 -1 86 18t89 55v99l-188 -1q-34 -1 -48.5 -18t-14.5 -49v-31q0 -38 18 -55.5t58 -17.5z" />
    <glyph glyph-name="aring" unicode="&#xe5;" horiz-adv-x="549" 
d="M274 541q-45 0 -76 30t-31 75q0 44 31.5 74.5t75.5 30.5t75.5 -30.5t31.5 -74.5t-31.5 -74.5t-75.5 -30.5zM274 707q-26 0 -42.5 -17t-16.5 -44q0 -28 17 -44.5t42 -16.5q26 0 43 16.5t17 44.5q0 27 -17 44t-43 17zM308 499q85 0 126 -35.5t41 -120.5v-343h-67l-10 81
q-88 -90 -201 -90q-67 0 -106.5 35.5t-39.5 100.5v53q0 57 35.5 88.5t99.5 31.5h203v43q0 46 -21 65t-78 19q-72 0 -209 -13l-8 63q134 22 235 22zM214 64q38 -1 86 18t89 55v99l-188 -1q-34 -1 -48.5 -18t-14.5 -49v-31q0 -38 18 -55.5t58 -17.5z" />
    <glyph glyph-name="ae" unicode="&#xe6;" horiz-adv-x="871" 
d="M632 60q83 0 170 12l8 -57q-64 -27 -189 -27q-84 0 -134 25t-74 81q-33 -39 -91 -71t-125 -32t-106.5 35.5t-39.5 100.5v53q0 57 35.5 88.5t99.5 31.5h203v43q0 46 -21 65t-78 19q-72 0 -209 -13l-8 63q134 22 235 22q102 0 139 -50q50 50 165 50q109 0 159 -39.5
t51 -119.5q0 -138 -127 -138h-216q6 -84 40 -113t113 -29zM616 427q-76 0 -106.5 -34t-32.5 -125h196q65 0 63 72q0 46 -27.5 66.5t-92.5 20.5zM214 64q40 -1 91 19.5t93 59.5q-9 41 -9 93l-188 -1q-34 -1 -48.5 -18t-14.5 -49v-31q0 -38 18 -55.5t58 -17.5z" />
    <glyph glyph-name="ccedilla" unicode="&#xe7;" horiz-adv-x="489" 
d="M286 499q96 0 157 -23l-11 -55q-66 6 -132 6q-88 0 -122 -39t-34 -144q0 -106 34 -145t122 -39q80 0 143 10l9 -57q-72 -25 -167 -25q-126 0 -178.5 57.5t-52.5 198.5t52.5 198t179.5 57zM235 -55q61 6 86.5 -8t24.5 -57q-1 -63 -48 -97t-119 -24l13 45q41 -1 66.5 18.5
t26.5 50.5q1 18 -11 24.5t-48 7.5z" />
    <glyph glyph-name="egrave" unicode="&#xe8;" horiz-adv-x="537" 
d="M338 587l-29 -39l-192 120l49 65zM298 60q83 0 169 12l9 -57q-65 -27 -189 -27q-126 0 -179.5 58.5t-53.5 198.5q0 141 52 197.5t172 56.5q109 0 159 -39.5t50 -119.5q2 -138 -116 -138h-226q6 -84 40 -113t113 -29zM282 427q-76 0 -106.5 -34t-32.5 -125h206q53 0 53 72
q-1 47 -28 67t-92 20z" />
    <glyph glyph-name="eacute" unicode="&#xe9;" horiz-adv-x="537" 
d="M431 675l-192 -120l-29 39l172 147zM298 60q83 0 169 12l9 -57q-65 -27 -189 -27q-126 0 -179.5 58.5t-53.5 198.5q0 141 52 197.5t172 56.5q109 0 159 -39.5t50 -119.5q2 -138 -116 -138h-226q6 -84 40 -113t113 -29zM282 427q-76 0 -106.5 -34t-32.5 -125h206
q53 0 53 72q-1 47 -28 67t-92 20z" />
    <glyph glyph-name="ecircumflex" unicode="&#xea;" horiz-adv-x="537" 
d="M277 649l-130 -97l-29 37l132 127h61l133 -127l-30 -37l-129 97h-8zM298 60q83 0 169 12l9 -57q-65 -27 -189 -27q-126 0 -179.5 58.5t-53.5 198.5q0 141 52 197.5t172 56.5q109 0 159 -39.5t50 -119.5q2 -138 -116 -138h-226q6 -84 40 -113t113 -29zM282 427
q-76 0 -106.5 -34t-32.5 -125h206q53 0 53 72q-1 47 -28 67t-92 20z" />
    <glyph glyph-name="edieresis" unicode="&#xeb;" horiz-adv-x="537" 
d="M177 587q-23 0 -23 24v55q0 24 23 24h29q23 0 23 -24v-55q0 -24 -23 -24h-29zM355 587q-24 0 -24 24v55q0 24 24 24h28q24 0 24 -24v-55q0 -24 -24 -24h-28zM298 60q83 0 169 12l9 -57q-65 -27 -189 -27q-126 0 -179.5 58.5t-53.5 198.5q0 141 52 197.5t172 56.5
q109 0 159 -39.5t50 -119.5q2 -138 -116 -138h-226q6 -84 40 -113t113 -29zM282 427q-76 0 -106.5 -34t-32.5 -125h206q53 0 53 72q-1 47 -28 67t-92 20z" />
    <glyph glyph-name="igrave" unicode="&#xec;" horiz-adv-x="249" 
d="M10 733l172 -146l-29 -39l-192 120zM167 487v-487h-85v487h85z" />
    <glyph glyph-name="iacute" unicode="&#xed;" horiz-adv-x="249" 
d="M226 741l49 -66l-192 -120l-29 39zM167 487v-487h-85v487h85z" />
    <glyph glyph-name="icircumflex" unicode="&#xee;" horiz-adv-x="249" 
d="M155 716l133 -127l-30 -37l-129 97h-8l-130 -97l-29 37l132 127h61zM167 487v-487h-85v487h85z" />
    <glyph glyph-name="idieresis" unicode="&#xef;" horiz-adv-x="249" 
d="M50 690q23 0 23 -24v-55q0 -24 -23 -24h-29q-23 0 -23 24v55q0 24 23 24h29zM227 690q24 0 24 -24v-55q0 -24 -24 -24h-28q-24 0 -24 24v55q0 24 24 24h28zM167 487v-487h-85v487h85z" />
    <glyph glyph-name="eth" unicode="&#xf0;" horiz-adv-x="559" 
d="M376 622q119 -106 119 -339q0 -71 -9 -121.5t-32.5 -92t-68 -62t-110.5 -20.5q-113 0 -166.5 55.5t-53.5 176.5q0 114 47.5 171.5t157.5 57.5q79 0 137 -36q-21 108 -80 164l-78 -60l-31 38l67 52q-62 34 -156 30l10 62q119 7 206 -46l78 60l30 -39zM276 59q42 0 68.5 14
t40 46t18 69.5t4.5 98.5q0 36 -3 66q-61 24 -131 24t-99 -39.5t-29 -118.5q0 -87 31 -123.5t100 -36.5z" />
    <glyph glyph-name="ntilde" unicode="&#xf1;" horiz-adv-x="581" 
d="M185 585h-40q-6 58 16.5 87.5t61.5 26.5q32 -3 77.5 -27.5t71.5 -27.5q28 -4 38.5 8t10.5 42h40q6 -55 -16 -85t-62 -27q-37 3 -83 29t-68 28q-27 3 -37 -10t-10 -44zM374 499q132 0 132 -134v-365h-85v341q0 48 -16 67t-54 19q-40 0 -80 -17.5t-108 -58.5v-351h-85v487
h72l6 -77q116 89 218 89z" />
    <glyph glyph-name="ograve" unicode="&#xf2;" horiz-adv-x="568" 
d="M171 729l172 -146l-29 -39l-192 120zM284 499q126 0 177.5 -58t51.5 -198t-51.5 -198t-177.5 -58q-125 0 -177 58t-52 198t52 198t177 58zM284 427q-80 0 -110 -39t-30 -145t30 -145t110 -39t110.5 39t30.5 145t-30.5 145t-110.5 39z" />
    <glyph glyph-name="oacute" unicode="&#xf3;" horiz-adv-x="568" 
d="M387 737l49 -66l-192 -120l-29 39zM284 499q126 0 177.5 -58t51.5 -198t-51.5 -198t-177.5 -58q-125 0 -177 58t-52 198t52 198t177 58zM284 427q-80 0 -110 -39t-30 -145t30 -145t110 -39t110.5 39t30.5 145t-30.5 145t-110.5 39z" />
    <glyph glyph-name="ocircumflex" unicode="&#xf4;" horiz-adv-x="568" 
d="M316 712l133 -127l-30 -37l-129 97h-8l-130 -97l-29 37l132 127h61zM284 499q126 0 177.5 -58t51.5 -198t-51.5 -198t-177.5 -58q-125 0 -177 58t-52 198t52 198t177 58zM284 427q-80 0 -110 -39t-30 -145t30 -145t110 -39t110.5 39t30.5 145t-30.5 145t-110.5 39z" />
    <glyph glyph-name="otilde" unicode="&#xf5;" horiz-adv-x="568" 
d="M206 695q32 -3 77.5 -27.5t71.5 -27.5q28 -4 38.5 8t10.5 42h40q6 -55 -16 -85t-62 -27q-37 3 -83 29t-68 28q-27 3 -37 -10t-10 -44h-40q-6 58 16.5 87.5t61.5 26.5zM284 499q126 0 177.5 -58t51.5 -198t-51.5 -198t-177.5 -58q-125 0 -177 58t-52 198t52 198t177 58z
M284 427q-80 0 -110 -39t-30 -145t30 -145t110 -39t110.5 39t30.5 145t-30.5 145t-110.5 39z" />
    <glyph glyph-name="odieresis" unicode="&#xf6;" horiz-adv-x="568" 
d="M211 686q23 0 23 -24v-55q0 -24 -23 -24h-29q-23 0 -23 24v55q0 24 23 24h29zM388 686q24 0 24 -24v-55q0 -24 -24 -24h-28q-24 0 -24 24v55q0 24 24 24h28zM284 499q126 0 177.5 -58t51.5 -198t-51.5 -198t-177.5 -58q-125 0 -177 58t-52 198t52 198t177 58zM284 427
q-80 0 -110 -39t-30 -145t30 -145t110 -39t110.5 39t30.5 145t-30.5 145t-110.5 39z" />
    <glyph glyph-name="divide" unicode="&#xf7;" horiz-adv-x="571" 
d="M295 525q17 0 24.5 -7.5t7.5 -24.5v-49q0 -17 -7.5 -24t-24.5 -7h-22q-18 0 -24.5 7t-6.5 24v49q0 18 6.5 25t24.5 7h22zM504 327v-64h-438v64h438zM295 176q17 0 24.5 -7t7.5 -25v-48q0 -18 -7.5 -25t-24.5 -7h-22q-18 0 -24.5 7t-6.5 25v48q0 18 6.5 25t24.5 7h22z" />
    <glyph glyph-name="oslash" unicode="&#xf8;" horiz-adv-x="568" 
d="M414 476q53 -25 76 -81t23 -152q0 -140 -51.5 -198t-177.5 -58q-56 0 -93 10l-34 -72l-39 19l32 68q-50 26 -72.5 81.5t-22.5 149.5q0 140 52 198t177 58q50 0 88 -9l33 70l39 -19zM144 243q0 -120 40 -156l156 334q-24 6 -56 6q-80 0 -110 -39t-30 -145zM284 59
q80 0 110.5 39t30.5 145q0 123 -45 160l-157 -337q24 -7 61 -7z" />
    <glyph glyph-name="ugrave" unicode="&#xf9;" horiz-adv-x="570" 
d="M342 590l-29 -39l-192 120l49 65zM407 487h85v-487h-68l-6 71q-111 -84 -210 -84q-133 0 -133 134v366h85v-342q-1 -46 17 -65t60 -19q37 0 75 16.5t95 53.5v356z" />
    <glyph glyph-name="uacute" unicode="&#xfa;" horiz-adv-x="570" 
d="M435 678l-192 -120l-29 39l172 147zM407 487h85v-487h-68l-6 71q-111 -84 -210 -84q-133 0 -133 134v366h85v-342q-1 -46 17 -65t60 -19q37 0 75 16.5t95 53.5v356z" />
    <glyph glyph-name="ucircumflex" unicode="&#xfb;" horiz-adv-x="570" 
d="M281 652l-130 -97l-29 37l132 127h61l133 -127l-30 -37l-129 97h-8zM407 487h85v-487h-68l-6 71q-111 -84 -210 -84q-133 0 -133 134v366h85v-342q-1 -46 17 -65t60 -19q37 0 75 16.5t95 53.5v356z" />
    <glyph glyph-name="udieresis" unicode="&#xfc;" horiz-adv-x="570" 
d="M181 590q-23 0 -23 24v55q0 24 23 24h29q23 0 23 -24v-55q0 -24 -23 -24h-29zM359 590q-24 0 -24 24v55q0 24 24 24h28q24 0 24 -24v-55q0 -24 -24 -24h-28zM407 487h85v-487h-68l-6 71q-111 -84 -210 -84q-133 0 -133 134v366h85v-342q-1 -46 17 -65t60 -19
q37 0 75 16.5t95 53.5v356z" />
    <glyph glyph-name="yacute" unicode="&#xfd;" horiz-adv-x="529" 
d="M417 675l-192 -120l-29 39l172 147zM418 487h92l-195 -514q-64 -172 -213 -179l-8 56q57 18 89.5 49.5t52.5 79.5l9 21h-20q-24 0 -30 22l-177 465h91l129 -363q14 -41 18 -59h14q1 4 21 59z" />
    <glyph glyph-name="thorn" unicode="&#xfe;" horiz-adv-x="574" 
d="M342 499q94 0 134.5 -61t40.5 -198q0 -139 -41.5 -196t-136.5 -57q-93 0 -178 44q2 -31 2 -91v-141h-85v901h85v-170q0 -67 -3 -101q86 70 182 70zM312 58q65 0 91 39.5t26 143.5t-26 144.5t-88 40.5q-61 0 -152 -67v-265q89 -36 149 -36z" />
    <glyph glyph-name="ydieresis" unicode="&#xff;" horiz-adv-x="529" 
d="M163 587q-23 0 -23 24v55q0 24 23 24h29q23 0 23 -24v-55q0 -24 -23 -24h-29zM341 587q-24 0 -24 24v55q0 24 24 24h28q24 0 24 -24v-55q0 -24 -24 -24h-28zM418 487h92l-195 -514q-64 -172 -213 -179l-8 56q57 18 89.5 49.5t52.5 79.5l9 21h-20q-24 0 -30 22l-177 465
h91l129 -363q14 -41 18 -59h14q1 4 21 59z" />
    <glyph glyph-name="Amacron" unicode="&#x100;" horiz-adv-x="622" 
d="M450 842v-63h-278v63h278zM521 0l-68 216h-284l-68 -216h-91l222 666q6 24 33 24h92q27 0 33 -24l222 -666h-91zM193 292h236l-87 274q-9 26 -17 56h-28q-8 -30 -17 -56z" />
    <glyph glyph-name="amacron" unicode="&#x101;" horiz-adv-x="549" 
d="M413 669v-63h-278v63h278zM308 499q85 0 126 -35.5t41 -120.5v-343h-67l-10 81q-88 -90 -201 -90q-67 0 -106.5 35.5t-39.5 100.5v53q0 57 35.5 88.5t99.5 31.5h203v43q0 46 -21 65t-78 19q-72 0 -209 -13l-8 63q134 22 235 22zM214 64q38 -1 86 18t89 55v99l-188 -1
q-34 -1 -48.5 -18t-14.5 -49v-31q0 -38 18 -55.5t58 -17.5z" />
    <glyph glyph-name="Abreve" unicode="&#x102;" horiz-adv-x="622" 
d="M311 738q-72 0 -113 36.5t-37 95.5l44 6q-1 -35 27 -55t80 -20q49 0 77 20t28 55l44 -6q4 -59 -37 -95.5t-113 -36.5zM521 0l-68 216h-284l-68 -216h-91l222 666q6 24 33 24h92q27 0 33 -24l222 -666h-91zM193 292h236l-87 274q-9 26 -17 56h-28q-8 -30 -17 -56z" />
    <glyph glyph-name="abreve" unicode="&#x103;" horiz-adv-x="549" 
d="M274 565q-72 0 -113 36.5t-37 95.5l44 6q-1 -35 27 -55t80 -20q49 0 77 20t28 55l44 -6q4 -59 -37 -95.5t-113 -36.5zM308 499q85 0 126 -35.5t41 -120.5v-343h-67l-10 81q-88 -90 -201 -90q-67 0 -106.5 35.5t-39.5 100.5v53q0 57 35.5 88.5t99.5 31.5h203v43
q0 46 -21 65t-78 19q-72 0 -209 -13l-8 63q134 22 235 22zM214 64q38 -1 86 18t89 55v99l-188 -1q-34 -1 -48.5 -18t-14.5 -49v-31q0 -38 18 -55.5t58 -17.5z" />
    <glyph glyph-name="Aogonek" unicode="&#x104;" horiz-adv-x="622" 
d="M616 -158l10 -35q-92 -35 -130.5 -8.5t-17.5 84.5q19 58 93 117h-50l-68 216h-284l-68 -216h-91l222 666q6 24 33 24h92q27 0 33 -24l222 -666q-54 -61 -74 -114q-15 -36 7.5 -48t70.5 4zM193 292h236l-87 274q-9 26 -17 56h-28q-8 -30 -17 -56z" />
    <glyph glyph-name="aogonek" unicode="&#x105;" horiz-adv-x="549" 
d="M477 -158l10 -35q-92 -35 -130.5 -8.5t-17.5 84.5q19 58 93 117h-24l-10 81q-88 -90 -201 -90q-67 0 -106.5 35.5t-39.5 100.5v53q0 57 35.5 88.5t99.5 31.5h203v43q0 46 -21 65t-78 19q-72 0 -209 -13l-8 63q134 22 235 22q85 0 126 -35.5t41 -120.5v-343h-2
q-54 -61 -74 -114q-15 -36 7.5 -48t70.5 4zM214 64q38 -1 86 18t89 55v99l-188 -1q-34 -1 -48.5 -18t-14.5 -49v-31q0 -38 18 -55.5t58 -17.5z" />
    <glyph glyph-name="Cacute" unicode="&#x106;" horiz-adv-x="570" 
d="M422 921l49 -66l-192 -120l-29 39zM332 702q107 0 188 -20l-9 -67q-90 9 -179 9q-101 0 -139.5 -60.5t-38.5 -218.5t38.5 -218.5t139.5 -60.5q116 0 193 11l9 -66q-83 -23 -202 -23q-149 0 -210 80t-61 277t61 277t210 80z" />
    <glyph glyph-name="cacute" unicode="&#x107;" horiz-adv-x="489" 
d="M369 741l49 -66l-192 -120l-29 39zM286 499q96 0 157 -23l-11 -55q-66 6 -132 6q-88 0 -122 -39t-34 -144q0 -106 34 -145t122 -39q80 0 143 10l9 -57q-72 -25 -167 -25q-126 0 -178.5 57.5t-52.5 198.5t52.5 198t179.5 57z" />
    <glyph glyph-name="Ccircumflex" unicode="&#x108;" horiz-adv-x="570" 
d="M351 896l133 -127l-30 -37l-129 97h-8l-130 -97l-29 37l132 127h61zM332 702q107 0 188 -20l-9 -67q-90 9 -179 9q-101 0 -139.5 -60.5t-38.5 -218.5t38.5 -218.5t139.5 -60.5q116 0 193 11l9 -66q-83 -23 -202 -23q-149 0 -210 80t-61 277t61 277t210 80z" />
    <glyph glyph-name="ccircumflex" unicode="&#x109;" horiz-adv-x="489" 
d="M298 716l133 -127l-30 -37l-129 97h-8l-130 -97l-29 37l132 127h61zM286 499q96 0 157 -23l-11 -55q-66 6 -132 6q-88 0 -122 -39t-34 -144q0 -106 34 -145t122 -39q80 0 143 10l9 -57q-72 -25 -167 -25q-126 0 -178.5 57.5t-52.5 198.5t52.5 198t179.5 57z" />
    <glyph glyph-name="Cdotaccent" unicode="&#x10a;" horiz-adv-x="570" 
d="M335 867q26 0 26 -25v-57q0 -26 -26 -26h-27q-26 0 -26 26v57q0 25 26 25h27zM332 702q107 0 188 -20l-9 -67q-90 9 -179 9q-101 0 -139.5 -60.5t-38.5 -218.5t38.5 -218.5t139.5 -60.5q116 0 193 11l9 -66q-83 -23 -202 -23q-149 0 -210 80t-61 277t61 277t210 80z" />
    <glyph glyph-name="cdotaccent" unicode="&#x10b;" horiz-adv-x="489" 
d="M282 687q26 0 26 -25v-57q0 -26 -26 -26h-27q-26 0 -26 26v57q0 25 26 25h27zM286 499q96 0 157 -23l-11 -55q-66 6 -132 6q-88 0 -122 -39t-34 -144q0 -106 34 -145t122 -39q80 0 143 10l9 -57q-72 -25 -167 -25q-126 0 -178.5 57.5t-52.5 198.5t52.5 198t179.5 57z" />
    <glyph glyph-name="Ccaron" unicode="&#x10c;" horiz-adv-x="570" 
d="M455 911l30 -36l-143 -128h-40l-143 128l29 36l130 -87h8zM332 702q107 0 188 -20l-9 -67q-90 9 -179 9q-101 0 -139.5 -60.5t-38.5 -218.5t38.5 -218.5t139.5 -60.5q116 0 193 11l9 -66q-83 -23 -202 -23q-149 0 -210 80t-61 277t61 277t210 80z" />
    <glyph glyph-name="ccaron" unicode="&#x10d;" horiz-adv-x="489" 
d="M402 731l30 -36l-143 -128h-40l-143 128l29 36l130 -87h8zM286 499q96 0 157 -23l-11 -55q-66 6 -132 6q-88 0 -122 -39t-34 -144q0 -106 34 -145t122 -39q80 0 143 10l9 -57q-72 -25 -167 -25q-126 0 -178.5 57.5t-52.5 198.5t52.5 198t179.5 57z" />
    <glyph glyph-name="Dcaron" unicode="&#x10e;" horiz-adv-x="664" 
d="M339 747h-40l-143 128l29 36l130 -87h8l129 87l30 -36zM333 699q149 0 209 -77.5t60 -276.5t-60 -276.5t-209 -77.5q-116 0 -246 9v690q130 9 246 9zM333 68q99 0 138 60.5t39 216.5t-39 217t-138 61q-64 0 -158 -2v-551q90 -2 158 -2z" />
    <glyph glyph-name="dcaron" unicode="&#x10f;" horiz-adv-x="573" 
d="M626 626q1 -63 -31 -128l-37 9q9 53 9 101q-21 0 -21 22v50q0 26 30 26h22q16 0 22 -5.5t6 -20.5v-54zM409 550v150h85v-700h-66l-8 70q-94 -82 -193 -82q-90 0 -130.5 63.5t-40.5 193.5q0 139 44 196.5t140 57.5q91 0 173 -44q-4 41 -4 95zM143 246q0 -105 25.5 -144.5
t86.5 -39.5q38 0 69 14.5t85 52.5v269q-96 27 -149 27q-65 0 -91 -37t-26 -142z" />
    <glyph glyph-name="Dcroat" unicode="&#x110;" horiz-adv-x="669" 
d="M337 699q149 0 209 -77.5t60 -276.5t-60 -276.5t-209 -77.5q-116 0 -246 9v342h-69v49h69v299q130 9 246 9zM337 68q99 0 138 60.5t39 216.5t-39 217t-138 61q-64 0 -158 -2v-230h152v-49h-152v-272q90 -2 158 -2z" />
    <glyph glyph-name="dcroat" unicode="&#x111;" horiz-adv-x="568" 
d="M562 622v-49h-68v-573h-66l-8 70q-94 -82 -193 -82q-90 0 -130.5 63.5t-40.5 193.5q0 139 44 196.5t140 57.5q91 0 173 -44q-4 41 -4 95v23h-153v49h153v78h85v-78h68zM143 246q0 -105 25.5 -144.5t86.5 -39.5q38 0 69 14.5t85 52.5v269q-96 27 -149 27q-65 0 -91 -37
t-26 -142z" />
    <glyph glyph-name="Emacron" unicode="&#x112;" horiz-adv-x="560" 
d="M449 862v-63h-278v63h278zM229 73h277l4 -68q-92 -6 -296 -6q-61 0 -96.5 32.5t-36.5 87.5v452q1 55 36.5 87.5t96.5 32.5q204 0 296 -6l-4 -69h-277q-60 0 -60 -66v-150h298v-71h-298v-189q0 -67 60 -67z" />
    <glyph glyph-name="emacron" unicode="&#x113;" horiz-adv-x="537" 
d="M420 669v-63h-278v63h278zM298 60q83 0 169 12l9 -57q-65 -27 -189 -27q-126 0 -179.5 58.5t-53.5 198.5q0 141 52 197.5t172 56.5q109 0 159 -39.5t50 -119.5q2 -138 -116 -138h-226q6 -84 40 -113t113 -29zM282 427q-76 0 -106.5 -34t-32.5 -125h206q53 0 53 72
q-1 47 -28 67t-92 20z" />
    <glyph glyph-name="Ebreve" unicode="&#x114;" horiz-adv-x="560" 
d="M310 758q-72 0 -113 36.5t-37 95.5l44 6q-1 -35 27 -55t80 -20q49 0 77 20t28 55l44 -6q4 -59 -37 -95.5t-113 -36.5zM229 73h277l4 -68q-92 -6 -296 -6q-61 0 -96.5 32.5t-36.5 87.5v452q1 55 36.5 87.5t96.5 32.5q204 0 296 -6l-4 -69h-277q-60 0 -60 -66v-150h298v-71
h-298v-189q0 -67 60 -67z" />
    <glyph glyph-name="ebreve" unicode="&#x115;" horiz-adv-x="537" 
d="M281 565q-72 0 -113 36.5t-37 95.5l44 6q-1 -35 27 -55t80 -20q49 0 77 20t28 55l44 -6q4 -59 -37 -95.5t-113 -36.5zM298 60q83 0 169 12l9 -57q-65 -27 -189 -27q-126 0 -179.5 58.5t-53.5 198.5q0 141 52 197.5t172 56.5q109 0 159 -39.5t50 -119.5q2 -138 -116 -138
h-226q6 -84 40 -113t113 -29zM282 427q-76 0 -106.5 -34t-32.5 -125h206q53 0 53 72q-1 47 -28 67t-92 20z" />
    <glyph glyph-name="Edotaccent" unicode="&#x116;" horiz-adv-x="560" 
d="M297 772q-26 0 -26 26v57q0 25 26 25h27q26 0 26 -25v-57q0 -26 -26 -26h-27zM229 73h277l4 -68q-92 -6 -296 -6q-61 0 -96.5 32.5t-36.5 87.5v452q1 55 36.5 87.5t96.5 32.5q204 0 296 -6l-4 -69h-277q-60 0 -60 -66v-150h298v-71h-298v-189q0 -67 60 -67z" />
    <glyph glyph-name="edotaccent" unicode="&#x117;" horiz-adv-x="537" 
d="M268 579q-26 0 -26 26v57q0 25 26 25h27q26 0 26 -25v-57q0 -26 -26 -26h-27zM298 60q83 0 169 12l9 -57q-65 -27 -189 -27q-126 0 -179.5 58.5t-53.5 198.5q0 141 52 197.5t172 56.5q109 0 159 -39.5t50 -119.5q2 -138 -116 -138h-226q6 -84 40 -113t113 -29zM282 427
q-76 0 -106.5 -34t-32.5 -125h206q53 0 53 72q-1 47 -28 67t-92 20z" />
    <glyph glyph-name="Eogonek" unicode="&#x118;" horiz-adv-x="560" 
d="M514 -153l10 -35q-92 -35 -130.5 -8.5t-17.5 84.5q20 57 91 115q-81 -4 -253 -4q-61 0 -96.5 32.5t-36.5 87.5v452q1 55 36.5 87.5t96.5 32.5q204 0 296 -6l-4 -69h-277q-60 0 -60 -66v-150h298v-71h-298v-189q0 -67 60 -67h277l4 -68q-54 -61 -74 -114q-15 -36 7.5 -48
t70.5 4z" />
    <glyph glyph-name="eogonek" unicode="&#x119;" horiz-adv-x="537" 
d="M480 -142l10 -35q-92 -35 -130.5 -8.5t-17.5 84.5q15 48 73 100q-59 -11 -128 -11q-126 0 -179.5 58.5t-53.5 198.5q0 141 52 197.5t172 56.5q109 0 159 -39.5t50 -119.5q2 -138 -116 -138h-226q6 -84 40 -113t113 -29q83 0 169 12l9 -56v-1q-1 0 -1 -1q-52 -57 -73 -112
q-15 -36 7.5 -48t70.5 4zM282 427q-76 0 -106.5 -34t-32.5 -125h206q53 0 53 72q-1 47 -28 67t-92 20z" />
    <glyph glyph-name="Ecaron" unicode="&#x11a;" horiz-adv-x="560" 
d="M331 760h-40l-143 128l29 36l130 -87h8l129 87l30 -36zM229 73h277l4 -68q-92 -6 -296 -6q-61 0 -96.5 32.5t-36.5 87.5v452q1 55 36.5 87.5t96.5 32.5q204 0 296 -6l-4 -69h-277q-60 0 -60 -66v-150h298v-71h-298v-189q0 -67 60 -67z" />
    <glyph glyph-name="ecaron" unicode="&#x11b;" horiz-adv-x="537" 
d="M302 567h-40l-143 128l29 36l130 -87h8l129 87l30 -36zM298 60q83 0 169 12l9 -57q-65 -27 -189 -27q-126 0 -179.5 58.5t-53.5 198.5q0 141 52 197.5t172 56.5q109 0 159 -39.5t50 -119.5q2 -138 -116 -138h-226q6 -84 40 -113t113 -29zM282 427q-76 0 -106.5 -34
t-32.5 -125h206q53 0 53 72q-1 47 -28 67t-92 20z" />
    <glyph glyph-name="Gcircumflex" unicode="&#x11c;" horiz-adv-x="628" 
d="M324 836l-130 -97l-29 37l132 127h61l133 -127l-30 -37l-129 97h-8zM474 399h86v-399h-64l-10 73q-86 -86 -206 -86q-115 0 -166.5 86t-51.5 274q0 203 63 279.5t225 76.5q109 0 192 -21l-9 -66q-84 8 -178 8q-79 0 -119.5 -20.5t-60.5 -81.5t-20 -181q0 -153 33 -215
t116 -62q78 0 170 67v268z" />
    <glyph glyph-name="gcircumflex" unicode="&#x11d;" horiz-adv-x="558" 
d="M268 649l-130 -97l-29 37l132 127h61l133 -127l-30 -37l-129 97h-8zM536 487l-5 -47l-72 -6q20 -33 20 -90q0 -82 -47 -118.5t-162 -36.5q-62 0 -101 10q-19 -24 -11 -51t45 -33l182 -29q68 -10 95.5 -42.5t27.5 -94.5q0 -85 -50.5 -118t-181.5 -33q-132 0 -183.5 32.5
t-51.5 115.5q0 43 18 69t62 49q-38 29 -35 77.5t38 73.5q-62 34 -62 128q0 84 46.5 120t162.5 36q67 0 111 -12h154zM270 254q72 0 101 20.5t29 69.5t-28.5 69.5t-101.5 20.5q-72 0 -101 -20.5t-29 -69.5t29 -69.5t101 -20.5zM425 -47q0 36 -15.5 49t-68.5 21l-166 23
q-51 -39 -51 -93q0 -51 30 -67t121 -16q89 0 119.5 16.5t30.5 66.5z" />
    <glyph glyph-name="Gbreve" unicode="&#x11e;" horiz-adv-x="628" 
d="M328 752q-72 0 -113 36.5t-37 95.5l44 6q-1 -35 27 -55t80 -20q49 0 77 20t28 55l44 -6q4 -59 -37 -95.5t-113 -36.5zM474 399h86v-399h-64l-10 73q-86 -86 -206 -86q-115 0 -166.5 86t-51.5 274q0 203 63 279.5t225 76.5q109 0 192 -21l-9 -66q-84 8 -178 8
q-79 0 -119.5 -20.5t-60.5 -81.5t-20 -181q0 -153 33 -215t116 -62q78 0 170 67v268z" />
    <glyph glyph-name="gbreve" unicode="&#x11f;" horiz-adv-x="558" 
d="M272 565q-72 0 -113 36.5t-37 95.5l44 6q-1 -35 27 -55t80 -20q49 0 77 20t28 55l44 -6q4 -59 -37 -95.5t-113 -36.5zM536 487l-5 -47l-72 -6q20 -33 20 -90q0 -82 -47 -118.5t-162 -36.5q-62 0 -101 10q-19 -24 -11 -51t45 -33l182 -29q68 -10 95.5 -42.5t27.5 -94.5
q0 -85 -50.5 -118t-181.5 -33q-132 0 -183.5 32.5t-51.5 115.5q0 43 18 69t62 49q-38 29 -35 77.5t38 73.5q-62 34 -62 128q0 84 46.5 120t162.5 36q67 0 111 -12h154zM270 254q72 0 101 20.5t29 69.5t-28.5 69.5t-101.5 20.5q-72 0 -101 -20.5t-29 -69.5t29 -69.5
t101 -20.5zM425 -47q0 36 -15.5 49t-68.5 21l-166 23q-51 -39 -51 -93q0 -51 30 -67t121 -16q89 0 119.5 16.5t30.5 66.5z" />
    <glyph glyph-name="Gdotaccent" unicode="&#x120;" horiz-adv-x="628" 
d="M315 766q-26 0 -26 26v57q0 25 26 25h27q26 0 26 -25v-57q0 -26 -26 -26h-27zM474 399h86v-399h-64l-10 73q-86 -86 -206 -86q-115 0 -166.5 86t-51.5 274q0 203 63 279.5t225 76.5q109 0 192 -21l-9 -66q-84 8 -178 8q-79 0 -119.5 -20.5t-60.5 -81.5t-20 -181
q0 -153 33 -215t116 -62q78 0 170 67v268z" />
    <glyph glyph-name="gdotaccent" unicode="&#x121;" horiz-adv-x="558" 
d="M259 579q-26 0 -26 26v57q0 25 26 25h27q26 0 26 -25v-57q0 -26 -26 -26h-27zM536 487l-5 -47l-72 -6q20 -33 20 -90q0 -82 -47 -118.5t-162 -36.5q-62 0 -101 10q-19 -24 -11 -51t45 -33l182 -29q68 -10 95.5 -42.5t27.5 -94.5q0 -85 -50.5 -118t-181.5 -33
q-132 0 -183.5 32.5t-51.5 115.5q0 43 18 69t62 49q-38 29 -35 77.5t38 73.5q-62 34 -62 128q0 84 46.5 120t162.5 36q67 0 111 -12h154zM270 254q72 0 101 20.5t29 69.5t-28.5 69.5t-101.5 20.5q-72 0 -101 -20.5t-29 -69.5t29 -69.5t101 -20.5zM425 -47q0 36 -15.5 49
t-68.5 21l-166 23q-51 -39 -51 -93q0 -51 30 -67t121 -16q89 0 119.5 16.5t30.5 66.5z" />
    <glyph glyph-name="Gcommaaccent" unicode="&#x122;" horiz-adv-x="628" 
d="M474 399h86v-399h-64l-10 73q-86 -86 -206 -86q-115 0 -166.5 86t-51.5 274q0 203 63 279.5t225 76.5q109 0 192 -21l-9 -66q-84 8 -178 8q-79 0 -119.5 -20.5t-60.5 -81.5t-20 -181q0 -153 33 -215t116 -62q78 0 170 67v268zM336 -59q16 0 22.5 -6t6.5 -21v-55
q-2 -74 -32 -132l-37 10q10 50 10 103q-22 0 -22 24v50q1 27 30 27h22z" />
    <glyph glyph-name="gcommaaccent" unicode="&#x123;" horiz-adv-x="558" 
d="M273 558q-16 0 -22.5 6t-6.5 21v55q2 74 32 132l37 -10q-10 -50 -10 -103q22 0 22 -24v-50q-1 -27 -30 -27h-22zM536 487l-5 -47l-72 -6q20 -33 20 -90q0 -82 -47 -118.5t-162 -36.5q-62 0 -101 10q-19 -24 -11 -51t45 -33l182 -29q68 -10 95.5 -42.5t27.5 -94.5
q0 -85 -50.5 -118t-181.5 -33q-132 0 -183.5 32.5t-51.5 115.5q0 43 18 69t62 49q-38 29 -35 77.5t38 73.5q-62 34 -62 128q0 84 46.5 120t162.5 36q67 0 111 -12h154zM270 254q72 0 101 20.5t29 69.5t-28.5 69.5t-101.5 20.5q-72 0 -101 -20.5t-29 -69.5t29 -69.5
t101 -20.5zM425 -47q0 36 -15.5 49t-68.5 21l-166 23q-51 -39 -51 -93q0 -51 30 -67t121 -16q89 0 119.5 16.5t30.5 66.5z" />
    <glyph glyph-name="Hcircumflex" unicode="&#x124;" 
d="M330 837l-130 -97l-29 37l132 127h61l133 -127l-30 -37l-129 97h-8zM493 690h88v-690h-88v331h-318v-331h-88v690h88v-283h318v283z" />
    <glyph glyph-name="hcircumflex" unicode="&#x125;" horiz-adv-x="581" 
d="M124 801h-8l-130 -97l-29 37l132 127h61l133 -127l-30 -37zM374 499q132 0 132 -134v-365h-86v341q0 48 -15.5 67t-53.5 19q-41 0 -82.5 -18t-105.5 -58v-351h-85v700h85l1 -193q0 -56 -6 -95q120 87 216 87z" />
    <glyph glyph-name="Hbar" unicode="&#x126;" horiz-adv-x="676" 
d="M655 566v-47h-70v-519h-88v331h-318v-331h-88v519h-71v47h71v124h88v-124h318v124h88v-124h70zM497 407v112h-318v-112h318z" />
    <glyph glyph-name="hbar" unicode="&#x127;" horiz-adv-x="585" 
d="M378 499q132 0 132 -134v-365h-86v341q0 48 -15.5 67t-53.5 19q-41 0 -82.5 -18t-105.5 -58v-351h-85v573h-76v49h76v78h85v-78h146v-49h-145v-66q0 -56 -6 -95q120 87 216 87z" />
    <glyph glyph-name="Itilde" unicode="&#x128;" horiz-adv-x="262" 
d="M51 879q32 -3 77.5 -27.5t71.5 -27.5q28 -4 38.5 8t10.5 42h40q6 -55 -16 -85t-62 -27q-37 3 -83 29t-68 28q-27 3 -37 -10t-10 -44h-40q-6 58 16.5 87.5t61.5 26.5zM175 690v-690h-88v690h88z" />
    <glyph glyph-name="itilde" unicode="&#x129;" horiz-adv-x="249" 
d="M45 699q32 -3 77.5 -27.5t71.5 -27.5q28 -4 38.5 8t10.5 42h40q6 -55 -16 -85t-62 -27q-37 3 -83 29t-68 28q-27 3 -37 -10t-10 -44h-40q-6 58 16.5 87.5t61.5 26.5zM167 487v-487h-85v487h85z" />
    <glyph glyph-name="Imacron" unicode="&#x12a;" horiz-adv-x="262" 
d="M270 849v-63h-278v63h278zM175 690v-690h-88v690h88z" />
    <glyph glyph-name="imacron" unicode="&#x12b;" horiz-adv-x="249" 
d="M264 669v-63h-278v63h278zM167 487v-487h-85v487h85z" />
    <glyph glyph-name="Ibreve" unicode="&#x12c;" horiz-adv-x="262" 
d="M237 883l44 -6q4 -59 -37 -95.5t-113 -36.5t-113 36.5t-37 95.5l44 6q-1 -35 27 -55t80 -20q49 0 77 20t28 55zM175 690v-690h-88v690h88z" />
    <glyph glyph-name="ibreve" unicode="&#x12d;" horiz-adv-x="249" 
d="M231 703l44 -6q4 -59 -37 -95.5t-113 -36.5t-113 36.5t-37 95.5l44 6q-1 -35 27 -55t80 -20q49 0 77 20t28 55zM167 487v-487h-85v487h85z" />
    <glyph glyph-name="Iogonek" unicode="&#x12e;" horiz-adv-x="262" 
d="M169 -158l10 -35q-92 -35 -130.5 -8.5t-17.5 84.5q19 58 93 117h-37v690h88v-690h-10q-54 -61 -74 -114q-15 -36 7.5 -48t70.5 4z" />
    <glyph glyph-name="iogonek" unicode="&#x12f;" horiz-adv-x="249" 
d="M112 579q-26 0 -26 26v57q0 25 26 25h27q26 0 26 -25v-57q0 -26 -26 -26h-27zM165 -158l10 -35q-92 -35 -130.5 -8.5t-17.5 84.5q19 58 93 117h-38v487h85v-487h-6q-54 -61 -74 -114q-15 -36 7.5 -48t70.5 4z" />
    <glyph glyph-name="Idotaccent" unicode="&#x130;" horiz-adv-x="262" 
d="M145 867q26 0 26 -25v-57q0 -26 -26 -26h-27q-26 0 -26 26v57q0 25 26 25h27zM175 690v-690h-88v690h88z" />
    <glyph glyph-name="dotlessi" unicode="&#x131;" horiz-adv-x="249" 
d="M167 487v-487h-85v487h85z" />
    <glyph glyph-name="IJ" unicode="&#x132;" horiz-adv-x="602" 
d="M175 690v-690h-88v690h88zM518 690v-545q0 -76 -34.5 -115t-99.5 -39q-56 0 -92 13l10 62h50q78 0 78 76v548h88z" />
    <glyph glyph-name="ij" unicode="&#x133;" horiz-adv-x="498" 
d="M144 694q26 0 26 -26v-57q0 -26 -26 -26h-40q-26 0 -26 26v57q0 26 26 26h40zM394 694q25 0 25 -26v-57q0 -26 -25 -26h-40q-26 0 -26 26v57q0 26 26 26h40zM166 487v-487h-84v487h84zM416 487v-499q0 -58 -25 -108t-69 -83l-47 37q56 69 56 154v499h85z" />
    <glyph glyph-name="Jcircumflex" unicode="&#x134;" horiz-adv-x="340" 
d="M242 898l133 -127l-30 -37l-129 97h-8l-130 -97l-29 37l132 127h61zM256 690v-545q0 -76 -34.5 -115t-99.5 -39q-56 0 -92 13l10 62h50q78 0 78 76v548h88z" />
    <glyph glyph-name="jcircumflex" unicode="&#x135;" horiz-adv-x="250" 
d="M155 716l133 -127l-30 -37l-129 97h-8l-130 -97l-29 37l132 127h61zM168 487v-499q0 -58 -25 -108t-69 -83l-47 37q56 69 56 154v499h85z" />
    <glyph glyph-name="Kcommaaccent" unicode="&#x136;" horiz-adv-x="591" 
d="M362 310l210 -310h-99l-220 324h-85q6 -38 6 -73v-251h-87v690h87v-216q0 -40 -6 -79h84l210 295h96l-201 -286q-12 -18 -38 -44v-2q28 -27 43 -48zM326 -59q16 0 22.5 -6t6.5 -21v-55q-2 -74 -32 -132l-37 10q10 50 10 103q-22 0 -22 24v50q1 27 30 27h22z" />
    <glyph glyph-name="kcommaaccent" unicode="&#x137;" horiz-adv-x="509" 
d="M323 234l169 -234h-99l-169 244h-66q5 -45 5 -78v-166h-85v700h85l1 -311q0 -38 -5 -83h64l154 181h99l-153 -179q-15 -21 -34 -33v-2q20 -15 34 -39zM287 -59q16 0 22.5 -6t6.5 -21v-55q-2 -74 -32 -132l-37 10q10 50 10 103q-22 0 -22 24v50q1 27 30 27h22z" />
    <glyph glyph-name="kgreenlandic" unicode="&#x138;" horiz-adv-x="509" 
d="M393 0l-166 217h-69q5 -45 5 -78v-139h-85v487h85l1 -125q1 -41 -5 -84h61l157 209h99l-154 -196q-15 -19 -34 -34v-2q8 -6 34 -39l170 -216h-99z" />
    <glyph glyph-name="Lacute" unicode="&#x139;" horiz-adv-x="514" 
d="M232 923l49 -66l-192 -120l-29 39zM172 690v-550q0 -66 67 -66h249l4 -68q-87 -7 -267 -7q-140 0 -140 130v561h87z" />
    <glyph glyph-name="lacute" unicode="&#x13a;" horiz-adv-x="297" 
d="M223 938l49 -66l-192 -120l-29 39zM164 700l-1 -566q0 -65 67 -65h47l10 -65q-27 -13 -89 -13q-55 0 -87 32.5t-32 91.5v585h85z" />
    <glyph glyph-name="Lcommaaccent" unicode="&#x13b;" horiz-adv-x="514" 
d="M172 690v-550q0 -66 67 -66h249l4 -68q-87 -7 -267 -7q-140 0 -140 130v561h87zM307 -61q16 0 22.5 -6t6.5 -21v-55q-2 -74 -32 -132l-37 10q10 50 10 103q-22 0 -22 24v50q1 27 30 27h22z" />
    <glyph glyph-name="lcommaaccent" unicode="&#x13c;" horiz-adv-x="297" 
d="M164 700l-1 -566q0 -65 67 -65h47l10 -65q-27 -13 -89 -13q-55 0 -87 32.5t-32 91.5v585h85zM184 -61q16 0 22.5 -6t6.5 -21v-55q-2 -74 -32 -132l-37 10q10 50 10 103q-22 0 -22 24v50q1 27 30 27h22z" />
    <glyph glyph-name="Lcaron" unicode="&#x13d;" horiz-adv-x="514" 
d="M172 690v-550q0 -66 67 -66h249l4 -68q-87 -7 -267 -7q-140 0 -140 130v561h87zM352 689q16 0 22 -5.5t6 -20.5v-54q1 -63 -31 -128l-37 9q9 52 9 101q-21 0 -21 22v50q0 26 30 26h22z" />
    <glyph glyph-name="lcaron" unicode="&#x13e;" horiz-adv-x="297" 
d="M272 702q16 0 22 -5.5t6 -20.5v-54q1 -63 -31 -128l-37 9q9 53 9 101q-21 0 -21 22v50q0 26 30 26h22zM164 700l-1 -566q0 -65 67 -65h47l10 -65q-27 -13 -89 -13q-55 0 -87 32.5t-32 91.5v585h85z" />
    <glyph glyph-name="Ldot" unicode="&#x13f;" horiz-adv-x="514" 
d="M172 690v-550q0 -66 67 -66h249l4 -68q-87 -7 -267 -7q-140 0 -140 130v561h87zM287 -133q-26 0 -26 25v57q0 26 26 26h27q26 0 26 -26v-57q0 -25 -26 -25h-27z" />
    <glyph glyph-name="ldot" unicode="&#x140;" horiz-adv-x="320" 
d="M164 700l-1 -566q0 -65 67 -65h47l10 -65q-27 -13 -89 -13q-55 0 -87 32.5t-32 91.5v585h85zM265 336q-26 0 -26 25v57q0 26 26 26h27q26 0 26 -26v-57q0 -25 -26 -25h-27z" />
    <glyph glyph-name="Lslash" unicode="&#x141;" horiz-adv-x="520" 
d="M494 74l4 -68q-87 -7 -267 -7q-140 0 -140 130v206l-71 -30v55l71 30v300h87v-264l116 48v-54l-116 -49v-231q0 -66 67 -66h249z" />
    <glyph glyph-name="lslash" unicode="&#x142;" horiz-adv-x="328" 
d="M299 69l10 -65q-27 -13 -89 -13q-55 0 -87 32.5t-32 91.5v219l-80 -33v55l80 33v311h85v-275l108 45v-55l-109 -45v-236q0 -65 67 -65h47z" />
    <glyph glyph-name="Nacute" unicode="&#x143;" horiz-adv-x="705" 
d="M465 921l49 -66l-192 -120l-29 39zM618 690v-655q0 -35 -34 -35h-86q-27 0 -39 28l-233 489q-34 74 -39 91h-16q4 -40 4 -91v-517h-88v655q0 35 35 35h83q27 0 39 -28l226 -477q24 -49 47 -100h17q-3 54 -3 105v500h87z" />
    <glyph glyph-name="nacute" unicode="&#x144;" horiz-adv-x="581" 
d="M453 675l-192 -120l-29 39l172 147zM374 499q132 0 132 -134v-365h-85v341q0 48 -16 67t-54 19q-40 0 -80 -17.5t-108 -58.5v-351h-85v487h72l6 -77q116 89 218 89z" />
    <glyph glyph-name="Ncommaaccent" unicode="&#x145;" horiz-adv-x="705" 
d="M618 690v-655q0 -35 -34 -35h-86q-27 0 -39 28l-233 489q-34 74 -39 91h-16q4 -40 4 -91v-517h-88v655q0 35 35 35h83q27 0 39 -28l226 -477q24 -49 47 -100h17q-3 54 -3 105v500h87zM351 -59q16 0 22.5 -6t6.5 -21v-55q-2 -74 -32 -132l-37 10q10 50 10 103
q-22 0 -22 24v50q1 27 30 27h22z" />
    <glyph glyph-name="ncommaaccent" unicode="&#x146;" horiz-adv-x="581" 
d="M374 499q132 0 132 -134v-365h-85v341q0 48 -16 67t-54 19q-40 0 -80 -17.5t-108 -58.5v-351h-85v487h72l6 -77q116 89 218 89zM302 -59q16 0 22.5 -6t6.5 -21v-55q-2 -74 -32 -132l-37 10q10 50 10 103q-22 0 -22 24v50q1 27 30 27h22z" />
    <glyph glyph-name="Ncaron" unicode="&#x147;" horiz-adv-x="705" 
d="M498 911l30 -36l-143 -128h-40l-143 128l29 36l130 -87h8zM618 690v-655q0 -35 -34 -35h-86q-27 0 -39 28l-233 489q-34 74 -39 91h-16q4 -40 4 -91v-517h-88v655q0 35 35 35h83q27 0 39 -28l226 -477q24 -49 47 -100h17q-3 54 -3 105v500h87z" />
    <glyph glyph-name="ncaron" unicode="&#x148;" horiz-adv-x="581" 
d="M324 567h-40l-143 128l29 36l130 -87h8l129 87l30 -36zM374 499q132 0 132 -134v-365h-85v341q0 48 -16 67t-54 19q-40 0 -80 -17.5t-108 -58.5v-351h-85v487h72l6 -77q116 89 218 89z" />
    <glyph glyph-name="Eng" unicode="&#x14a;" horiz-adv-x="705" 
d="M618 690v-769q0 -66 -36 -102t-99 -35q-52 0 -88 12l9 56h49q82 0 82 76v72h-35q-14 0 -26 25l-248 477q-18 35 -41 92h-14q4 -31 4 -93v-501h-88v655q0 35 35 35h67q25 0 40 -28l241 -462q19 -37 47 -100h17q-4 68 -4 102v488h88z" />
    <glyph glyph-name="eng" unicode="&#x14b;" horiz-adv-x="581" 
d="M373 499q133 0 133 -134v-433q0 -67 -31.5 -102.5t-92.5 -34.5q-42 0 -86 13l10 54h43q72 0 72 77v402q0 43 -16.5 61.5t-55.5 18.5q-67 0 -186 -71v-350h-85v487h66l8 -80q117 92 221 92z" />
    <glyph glyph-name="Omacron" unicode="&#x14c;" 
d="M475 849v-63h-278v63h278zM334 703q152 0 212 -78.5t60 -279.5t-60 -279.5t-212 -78.5t-212.5 78.5t-60.5 279.5t60.5 279.5t212.5 78.5zM334 624q-102 0 -141 -60.5t-39 -218.5t39 -218.5t141 -60.5t141 60.5t39 218.5t-39 218.5t-141 60.5z" />
    <glyph glyph-name="omacron" unicode="&#x14d;" horiz-adv-x="568" 
d="M425 665v-63h-278v63h278zM284 499q126 0 177.5 -58t51.5 -198t-51.5 -198t-177.5 -58q-125 0 -177 58t-52 198t52 198t177 58zM284 427q-80 0 -110 -39t-30 -145t30 -145t110 -39t110.5 39t30.5 145t-30.5 145t-110.5 39z" />
    <glyph glyph-name="Obreve" unicode="&#x14e;" 
d="M442 883l44 -6q4 -59 -37 -95.5t-113 -36.5t-113 36.5t-37 95.5l44 6q-1 -35 27 -55t80 -20q49 0 77 20t28 55zM334 703q152 0 212 -78.5t60 -279.5t-60 -279.5t-212 -78.5t-212.5 78.5t-60.5 279.5t60.5 279.5t212.5 78.5zM334 624q-102 0 -141 -60.5t-39 -218.5
t39 -218.5t141 -60.5t141 60.5t39 218.5t-39 218.5t-141 60.5z" />
    <glyph glyph-name="obreve" unicode="&#x14f;" horiz-adv-x="568" 
d="M392 699l44 -6q4 -59 -37 -95.5t-113 -36.5t-113 36.5t-37 95.5l44 6q-1 -35 27 -55t80 -20q49 0 77 20t28 55zM284 499q126 0 177.5 -58t51.5 -198t-51.5 -198t-177.5 -58q-125 0 -177 58t-52 198t52 198t177 58zM284 427q-80 0 -110 -39t-30 -145t30 -145t110 -39
t110.5 39t30.5 145t-30.5 145t-110.5 39z" />
    <glyph glyph-name="Ohungarumlaut" unicode="&#x150;" 
d="M307 931l62 -42l-134 -160l-38 28zM471 931l62 -42l-134 -160l-38 28zM334 703q152 0 212 -78.5t60 -279.5t-60 -279.5t-212 -78.5t-212.5 78.5t-60.5 279.5t60.5 279.5t212.5 78.5zM334 624q-102 0 -141 -60.5t-39 -218.5t39 -218.5t141 -60.5t141 60.5t39 218.5
t-39 218.5t-141 60.5z" />
    <glyph glyph-name="ohungarumlaut" unicode="&#x151;" horiz-adv-x="568" 
d="M257 747l62 -42l-134 -160l-38 28zM421 747l62 -42l-134 -160l-38 28zM284 499q126 0 177.5 -58t51.5 -198t-51.5 -198t-177.5 -58q-125 0 -177 58t-52 198t52 198t177 58zM284 427q-80 0 -110 -39t-30 -145t30 -145t110 -39t110.5 39t30.5 145t-30.5 145t-110.5 39z" />
    <glyph glyph-name="OE" unicode="&#x152;" horiz-adv-x="913" 
d="M602 73h257l3 -68q-92 -6 -296 -6q-38 0 -69 21q-75 -33 -163 -33q-152 0 -212.5 78.5t-60.5 279.5t60.5 279.5t212.5 78.5q90 0 168 -32q31 20 71 20q199 0 289 -6l-3 -69h-257q-67 0 -67 -66v-149l284 -1v-71l-284 -1v-188q0 -35 16 -51t51 -16zM154 345
q0 -158 39 -218.5t141 -60.5q69 0 120 16q-7 20 -7 47v432q0 24 8 48q-60 15 -121 15q-102 0 -141 -60t-39 -219z" />
    <glyph glyph-name="oe" unicode="&#x153;" horiz-adv-x="907" 
d="M669 60q82 0 168 12l8 -57q-64 -27 -189 -27q-135 0 -186 67q-51 -68 -186 -68q-125 0 -177 58t-52 198t52 198t177 58q132 0 183 -65q49 65 176 65q213 0 215 -150q0 -81 -34.5 -112t-117.5 -31h-192q6 -86 40.5 -116t114.5 -30zM284 59q75 0 106 34t35 124q-1 10 -1 30
v26q-4 88 -35 121t-105 33q-80 0 -110 -39t-30 -145t30 -145t110 -39zM645 427q-72 0 -101 -34.5t-31 -123.5h188q41 0 57 18t14 63q-4 77 -127 77z" />
    <glyph glyph-name="Racute" unicode="&#x154;" horiz-adv-x="618" 
d="M453 855l-192 -120l-29 39l172 147zM506 218l67 -218h-94l-61 216q-13 39 -35 55.5t-57 16.5t-85.5 0.5t-66.5 0.5v-289h-87v690q84 9 238 9q123 0 173 -42.5t50 -156.5q0 -85 -29.5 -127t-97.5 -51v-5q28 -7 51 -32.5t34 -66.5zM323 364q78 1 107 28t29 103
q0 75 -29 101.5t-107 26.5q-32 0 -82 -0.5t-67 -0.5v-258h149z" />
    <glyph glyph-name="racute" unicode="&#x155;" horiz-adv-x="401" 
d="M370 675l-192 -120l-29 39l172 147zM361 499h22l-10 -80h-28q-38 0 -77 -14.5t-105 -47.5v-357h-85v487h66l9 -77q111 89 208 89z" />
    <glyph glyph-name="Rcommaaccent" unicode="&#x156;" horiz-adv-x="618" 
d="M506 218l67 -218h-94l-61 216q-13 39 -35 55.5t-57 16.5t-85.5 0.5t-66.5 0.5v-289h-87v690q84 9 238 9q123 0 173 -42.5t50 -156.5q0 -85 -29.5 -127t-97.5 -51v-5q28 -7 51 -32.5t34 -66.5zM323 364q78 1 107 28t29 103q0 75 -29 101.5t-107 26.5q-32 0 -82 -0.5
t-67 -0.5v-258h149zM339 -59q16 0 22.5 -6t6.5 -21v-55q-2 -74 -32 -132l-37 10q10 50 10 103q-22 0 -22 24v50q1 27 30 27h22z" />
    <glyph glyph-name="rcommaaccent" unicode="&#x157;" horiz-adv-x="401" 
d="M361 499h22l-10 -80h-28q-38 0 -77 -14.5t-105 -47.5v-357h-85v487h66l9 -77q111 89 208 89zM124 -59q16 0 22.5 -6t6.5 -21v-55q-2 -74 -32 -132l-37 10q10 50 10 103q-22 0 -22 24v50q1 27 30 27h22z" />
    <glyph glyph-name="Rcaron" unicode="&#x158;" horiz-adv-x="618" 
d="M324 747h-40l-143 128l29 36l130 -87h8l129 87l30 -36zM506 218l67 -218h-94l-61 216q-13 39 -35 55.5t-57 16.5t-85.5 0.5t-66.5 0.5v-289h-87v690q84 9 238 9q123 0 173 -42.5t50 -156.5q0 -85 -29.5 -127t-97.5 -51v-5q28 -7 51 -32.5t34 -66.5zM323 364q78 1 107 28
t29 103q0 75 -29 101.5t-107 26.5q-32 0 -82 -0.5t-67 -0.5v-258h149z" />
    <glyph glyph-name="rcaron" unicode="&#x159;" horiz-adv-x="401" 
d="M241 567h-40l-143 128l29 36l130 -87h8l129 87l30 -36zM153 410q111 89 208 89h22l-10 -80h-28q-38 0 -77 -14.5t-105 -47.5v-357h-85v487h66z" />
    <glyph glyph-name="Sacute" unicode="&#x15a;" horiz-adv-x="561" 
d="M386 921l49 -66l-192 -120l-29 39zM279 702q122 -2 205 -20l-6 -64q-97 5 -195 5q-44 0 -65 -2t-41 -12t-26.5 -31.5t-6.5 -59.5q0 -55 19.5 -78t67.5 -35l140 -35q77 -19 108 -65t31 -129q0 -114 -51.5 -151t-179.5 -37q-109 0 -214 19l6 65q168 -6 211 -5
q82 0 110.5 21t28.5 90q0 57 -19.5 79.5t-67.5 34.5l-143 36q-73 18 -104.5 64.5t-31.5 127.5q0 60 12.5 96.5t43 55t68 24.5t100.5 6z" />
    <glyph glyph-name="sacute" unicode="&#x15b;" horiz-adv-x="508" 
d="M359 741l49 -66l-192 -120l-29 39zM240 499q117 -2 205 -15l-7 -62q-153 5 -185 5q-74 1 -97 -9t-23 -53q0 -35 15.5 -48t55.5 -22l142 -32q60 -15 86.5 -44.5t26.5 -89.5q0 -85 -47 -112.5t-161 -27.5q-102 0 -191 14l6 62q85 -5 168 -4q85 0 114 13t29 55
q0 33 -17.5 45.5t-59.5 22.5l-140 32q-60 14 -85 45t-25 91q0 81 42.5 108.5t147.5 25.5z" />
    <glyph glyph-name="Scircumflex" unicode="&#x15c;" horiz-adv-x="561" 
d="M315 896l133 -127l-30 -37l-129 97h-8l-130 -97l-29 37l132 127h61zM279 702q122 -2 205 -20l-6 -64q-97 5 -195 5q-44 0 -65 -2t-41 -12t-26.5 -31.5t-6.5 -59.5q0 -55 19.5 -78t67.5 -35l140 -35q77 -19 108 -65t31 -129q0 -114 -51.5 -151t-179.5 -37q-109 0 -214 19
l6 65q168 -6 211 -5q82 0 110.5 21t28.5 90q0 57 -19.5 79.5t-67.5 34.5l-143 36q-73 18 -104.5 64.5t-31.5 127.5q0 60 12.5 96.5t43 55t68 24.5t100.5 6z" />
    <glyph glyph-name="scircumflex" unicode="&#x15d;" horiz-adv-x="508" 
d="M288 716l133 -127l-30 -37l-129 97h-8l-130 -97l-29 37l132 127h61zM240 499q117 -2 205 -15l-7 -62q-153 5 -185 5q-74 1 -97 -9t-23 -53q0 -35 15.5 -48t55.5 -22l142 -32q60 -15 86.5 -44.5t26.5 -89.5q0 -85 -47 -112.5t-161 -27.5q-102 0 -191 14l6 62q85 -5 168 -4
q85 0 114 13t29 55q0 33 -17.5 45.5t-59.5 22.5l-140 32q-60 14 -85 45t-25 91q0 81 42.5 108.5t147.5 25.5z" />
    <glyph glyph-name="Scedilla" unicode="&#x15e;" horiz-adv-x="561" 
d="M279 702q122 -2 205 -20l-6 -64q-97 5 -195 5q-44 0 -65 -2t-41 -12t-26.5 -31.5t-6.5 -59.5q0 -55 19.5 -78t67.5 -35l140 -35q77 -19 108 -65t31 -129q0 -114 -51.5 -151t-179.5 -37q-109 0 -214 19l6 65q168 -6 211 -5q82 0 110.5 21t28.5 90q0 57 -19.5 79.5
t-67.5 34.5l-143 36q-73 18 -104.5 64.5t-31.5 127.5q0 60 12.5 96.5t43 55t68 24.5t100.5 6zM240 -55q61 6 86.5 -8t24.5 -57q-1 -63 -48 -97t-119 -24l13 45q41 -1 66.5 18.5t26.5 50.5q1 18 -11 24.5t-48 7.5z" />
    <glyph glyph-name="scedilla" unicode="&#x15f;" horiz-adv-x="508" 
d="M240 499q117 -2 205 -15l-7 -62q-153 5 -185 5q-74 1 -97 -9t-23 -53q0 -35 15.5 -48t55.5 -22l142 -32q60 -15 86.5 -44.5t26.5 -89.5q0 -85 -47 -112.5t-161 -27.5q-102 0 -191 14l6 62q85 -5 168 -4q85 0 114 13t29 55q0 33 -17.5 45.5t-59.5 22.5l-140 32
q-60 14 -85 45t-25 91q0 81 42.5 108.5t147.5 25.5zM206 -54q61 6 86.5 -8t24.5 -57q-1 -63 -48 -97t-119 -24l13 45q41 -1 66.5 18.5t26.5 50.5q1 18 -11 24.5t-48 7.5z" />
    <glyph glyph-name="Scaron" unicode="&#x160;" horiz-adv-x="561" 
d="M419 911l30 -36l-143 -128h-40l-143 128l29 36l130 -87h8zM279 702q122 -2 205 -20l-6 -64q-97 5 -195 5q-44 0 -65 -2t-41 -12t-26.5 -31.5t-6.5 -59.5q0 -55 19.5 -78t67.5 -35l140 -35q77 -19 108 -65t31 -129q0 -114 -51.5 -151t-179.5 -37q-109 0 -214 19l6 65
q168 -6 211 -5q82 0 110.5 21t28.5 90q0 57 -19.5 79.5t-67.5 34.5l-143 36q-73 18 -104.5 64.5t-31.5 127.5q0 60 12.5 96.5t43 55t68 24.5t100.5 6z" />
    <glyph glyph-name="scaron" unicode="&#x161;" horiz-adv-x="508" 
d="M392 731l30 -36l-143 -128h-40l-143 128l29 36l130 -87h8zM240 499q117 -2 205 -15l-7 -62q-153 5 -185 5q-74 1 -97 -9t-23 -53q0 -35 15.5 -48t55.5 -22l142 -32q60 -15 86.5 -44.5t26.5 -89.5q0 -85 -47 -112.5t-161 -27.5q-102 0 -191 14l6 62q85 -5 168 -4
q85 0 114 13t29 55q0 33 -17.5 45.5t-59.5 22.5l-140 32q-60 14 -85 45t-25 91q0 81 42.5 108.5t147.5 25.5z" />
    <glyph glyph-name="uni0162" unicode="&#x162;" horiz-adv-x="581" 
d="M557 690v-78h-223v-612h-88v612h-222v78h533zM246 -43q61 6 86.5 -8t24.5 -57q-1 -63 -48 -97t-119 -24l13 45q41 -1 66.5 18.5t26.5 50.5q1 18 -11 24.5t-48 7.5z" />
    <glyph glyph-name="uni0163" unicode="&#x163;" horiz-adv-x="381" 
d="M355 420h-155v-286q0 -35 15 -50t51 -15h74l10 -65q-46 -13 -110 -13q-61 0 -93 34t-32 98v297h-88v62l88 5v144h85v-144h155v-67zM204 -52q61 6 86.5 -8t24.5 -57q-1 -63 -48 -97t-119 -24l13 45q41 -1 66.5 18.5t26.5 50.5q1 18 -11 24.5t-48 7.5z" />
    <glyph glyph-name="Tcaron" unicode="&#x164;" horiz-adv-x="581" 
d="M311 747h-40l-143 128l29 36l130 -87h8l129 87l30 -36zM557 690v-78h-223v-612h-88v612h-222v78h533z" />
    <glyph glyph-name="tcaron" unicode="&#x165;" horiz-adv-x="381" 
d="M292 660q-21 0 -21 22v50q0 26 30 26h22q16 0 22 -5.5t6 -20.5v-54q1 -63 -31 -128l-37 9q9 53 9 101zM355 420h-155v-286q0 -35 15 -50t51 -15h74l10 -65q-46 -13 -110 -13q-61 0 -93 34t-32 98v297h-88v62l88 5v144h85v-144h155v-67z" />
    <glyph glyph-name="Tbar" unicode="&#x166;" horiz-adv-x="581" 
d="M557 612h-223v-211h140v-50h-140v-351h-88v351h-141v50h141v211h-222v78h533v-78z" />
    <glyph glyph-name="tbar" unicode="&#x167;" horiz-adv-x="381" 
d="M355 420h-155v-115h130v-48h-130v-123q0 -35 15 -50t51 -15h74l10 -65q-46 -13 -110 -13q-61 0 -93 34t-32 98v134h-65v48h65v115h-88v62l88 5v144h85v-144h155v-67z" />
    <glyph glyph-name="Utilde" unicode="&#x168;" horiz-adv-x="666" 
d="M254 879q32 -3 77.5 -27.5t71.5 -27.5q28 -4 38.5 8t10.5 42h40q6 -55 -16 -85t-62 -27q-37 3 -83 29t-68 28q-27 3 -37 -10t-10 -44h-40q-6 58 16.5 87.5t61.5 26.5zM584 690v-426q0 -151 -56 -214t-191 -63q-140 0 -197.5 63t-57.5 214v426h88v-426q0 -111 36 -154.5
t127 -43.5q90 0 126.5 43.5t36.5 154.5v426h88z" />
    <glyph glyph-name="utilde" unicode="&#x169;" horiz-adv-x="570" 
d="M167 588h-40q-6 58 16.5 87.5t61.5 26.5q32 -3 77.5 -27.5t71.5 -27.5q28 -4 38.5 8t10.5 42h40q6 -55 -16 -85t-62 -27q-37 3 -83 29t-68 28q-27 3 -37 -10t-10 -44zM407 487h85v-487h-68l-6 71q-111 -84 -210 -84q-133 0 -133 134v366h85v-342q-1 -46 17 -65t60 -19
q37 0 75 16.5t95 53.5v356z" />
    <glyph glyph-name="Umacron" unicode="&#x16a;" horiz-adv-x="666" 
d="M473 849v-63h-278v63h278zM584 690v-426q0 -151 -56 -214t-191 -63q-140 0 -197.5 63t-57.5 214v426h88v-426q0 -111 36 -154.5t127 -43.5q90 0 126.5 43.5t36.5 154.5v426h88z" />
    <glyph glyph-name="umacron" unicode="&#x16b;" horiz-adv-x="570" 
d="M424 672v-63h-278v63h278zM407 487h85v-487h-68l-6 71q-111 -84 -210 -84q-133 0 -133 134v366h85v-342q-1 -46 17 -65t60 -19q37 0 75 16.5t95 53.5v356z" />
    <glyph glyph-name="Ubreve" unicode="&#x16c;" horiz-adv-x="666" 
d="M440 883l44 -6q4 -59 -37 -95.5t-113 -36.5t-113 36.5t-37 95.5l44 6q-1 -35 27 -55t80 -20q49 0 77 20t28 55zM584 690v-426q0 -151 -56 -214t-191 -63q-140 0 -197.5 63t-57.5 214v426h88v-426q0 -111 36 -154.5t127 -43.5q90 0 126.5 43.5t36.5 154.5v426h88z" />
    <glyph glyph-name="ubreve" unicode="&#x16d;" horiz-adv-x="570" 
d="M285 568q-72 0 -113 36.5t-37 95.5l44 6q-1 -35 27 -55t80 -20q49 0 77 20t28 55l44 -6q4 -59 -37 -95.5t-113 -36.5zM407 487h85v-487h-68l-6 71q-111 -84 -210 -84q-133 0 -133 134v366h85v-342q-1 -46 17 -65t60 -19q37 0 75 16.5t95 53.5v356z" />
    <glyph glyph-name="Uring" unicode="&#x16e;" horiz-adv-x="666" 
d="M334 931q44 0 75.5 -30.5t31.5 -74.5t-31.5 -74.5t-75.5 -30.5q-45 0 -76 30t-31 75q0 44 31.5 74.5t75.5 30.5zM334 887q-26 0 -42.5 -17t-16.5 -44q0 -28 17 -44.5t42 -16.5q26 0 43 16.5t17 44.5q0 27 -17 44t-43 17zM584 690v-426q0 -151 -56 -214t-191 -63
q-140 0 -197.5 63t-57.5 214v426h88v-426q0 -111 36 -154.5t127 -43.5q90 0 126.5 43.5t36.5 154.5v426h88z" />
    <glyph glyph-name="uring" unicode="&#x16f;" horiz-adv-x="570" 
d="M285 544q-45 0 -76 30t-31 75q0 44 31.5 74.5t75.5 30.5t75.5 -30.5t31.5 -74.5t-31.5 -74.5t-75.5 -30.5zM285 710q-26 0 -42.5 -17t-16.5 -44q0 -28 17 -44.5t42 -16.5q26 0 43 16.5t17 44.5q0 27 -17 44t-43 17zM407 487h85v-487h-68l-6 71q-111 -84 -210 -84
q-133 0 -133 134v366h85v-342q-1 -46 17 -65t60 -19q37 0 75 16.5t95 53.5v356z" />
    <glyph glyph-name="Uhungarumlaut" unicode="&#x170;" horiz-adv-x="666" 
d="M305 931l62 -42l-134 -160l-38 28zM469 931l62 -42l-134 -160l-38 28zM584 690v-426q0 -151 -56 -214t-191 -63q-140 0 -197.5 63t-57.5 214v426h88v-426q0 -111 36 -154.5t127 -43.5q90 0 126.5 43.5t36.5 154.5v426h88z" />
    <glyph glyph-name="uhungarumlaut" unicode="&#x171;" horiz-adv-x="570" 
d="M318 712l-134 -160l-38 28l110 174zM348 552l-38 28l110 174l62 -42zM407 487h85v-487h-68l-6 71q-111 -84 -210 -84q-133 0 -133 134v366h85v-342q-1 -46 17 -65t60 -19q37 0 75 16.5t95 53.5v356z" />
    <glyph glyph-name="Uogonek" unicode="&#x172;" horiz-adv-x="666" 
d="M496 690h88v-426q0 -141 -48.5 -205t-164.5 -71q-50 -57 -71 -111q-15 -36 7.5 -48t70.5 4l10 -35q-92 -35 -130.5 -8.5t-17.5 84.5q19 55 89 113q-135 1 -191 64.5t-56 212.5v426h88v-426q0 -111 36 -154.5t127 -43.5q90 0 126.5 43.5t36.5 154.5v426z" />
    <glyph glyph-name="uogonek" unicode="&#x173;" horiz-adv-x="570" 
d="M498 -158l10 -35q-92 -35 -130.5 -8.5t-17.5 84.5q19 58 93 117h-29l-6 71q-111 -84 -210 -84q-133 0 -133 134v366h85v-342q-1 -46 17 -65t60 -19q37 0 75 16.5t95 53.5v356h85v-487h2q-54 -61 -74 -114q-15 -36 7.5 -48t70.5 4z" />
    <glyph glyph-name="Wcircumflex" unicode="&#x174;" horiz-adv-x="948" 
d="M505 895l133 -127l-30 -37l-129 97h-8l-130 -97l-29 37l132 127h61zM917 690l-140 -664q-7 -26 -35 -26h-100q-29 0 -34 27l-108 519q-6 26 -16 78h-21l-15 -78l-107 -519q-7 -27 -35 -27h-101q-13 0 -22.5 7.5t-11.5 18.5l-140 664h93l108 -538q2 -9 14 -85h23
q8 47 16 85l107 509q5 29 34 29h96q27 0 34 -29l107 -509q10 -49 14 -85h25q9 60 13 84l109 539h93z" />
    <glyph glyph-name="wcircumflex" unicode="&#x175;" horiz-adv-x="824" 
d="M443 716l133 -127l-30 -37l-129 97h-8l-130 -97l-29 37l132 127h61zM799 487l-142 -463q-6 -24 -33 -24h-77q-12 0 -21.5 7.5t-11.5 19.5l-80 331q-3 14 -8 39.5t-8 37.5h-12q-16 -72 -17 -77l-79 -331q-7 -27 -34 -27h-76q-27 0 -33 24l-142 463h88l101 -359
q9 -31 16 -73h13l18 73l81 332q5 27 32 27h77q25 0 32 -28l80 -331q2 -11 8 -35.5t9 -37.5h13q1 5 6.5 31.5t10.5 41.5l101 359h88z" />
    <glyph glyph-name="Ycircumflex" unicode="&#x176;" horiz-adv-x="569" 
d="M282 819l-130 -97l-29 37l132 127h61l133 -127l-30 -37l-129 97h-8zM557 690l-229 -448v-242h-88v244l-229 446h94l145 -291q12 -24 31 -78h7q16 44 31 77l145 292h93z" />
    <glyph glyph-name="ycircumflex" unicode="&#x177;" horiz-adv-x="529" 
d="M263 649l-130 -97l-29 37l132 127h61l133 -127l-30 -37l-129 97h-8zM418 487h92l-195 -514q-64 -172 -213 -179l-8 56q57 18 89.5 49.5t52.5 79.5l9 21h-20q-24 0 -30 22l-177 465h91l129 -363q14 -41 18 -59h14q1 4 21 59z" />
    <glyph glyph-name="Ydieresis" unicode="&#x178;" horiz-adv-x="569" 
d="M182 757q-23 0 -23 24v55q0 24 23 24h29q23 0 23 -24v-55q0 -24 -23 -24h-29zM360 757q-24 0 -24 24v55q0 24 24 24h28q24 0 24 -24v-55q0 -24 -24 -24h-28zM557 690l-229 -448v-242h-88v244l-229 446h94l145 -291q12 -24 31 -78h7q16 44 31 77l145 292h93z" />
    <glyph glyph-name="Zacute" unicode="&#x179;" horiz-adv-x="566" 
d="M431 855l-192 -120l-29 39l172 147zM146 75h373v-75h-471v75l367 540h-361v75h458v-75z" />
    <glyph glyph-name="zacute" unicode="&#x17a;" horiz-adv-x="510" 
d="M404 675l-192 -120l-29 39l172 147zM145 69h316v-69h-412v69l313 348h-310v70h406v-70z" />
    <glyph glyph-name="Zdotaccent" unicode="&#x17b;" horiz-adv-x="566" 
d="M268 759q-26 0 -26 26v57q0 25 26 25h27q26 0 26 -25v-57q0 -26 -26 -26h-27zM146 75h373v-75h-471v75l367 540h-361v75h458v-75z" />
    <glyph glyph-name="zdotaccent" unicode="&#x17c;" horiz-adv-x="510" 
d="M241 579q-26 0 -26 26v57q0 25 26 25h27q26 0 26 -25v-57q0 -26 -26 -26h-27zM145 69h316v-69h-412v69l313 348h-310v70h406v-70z" />
    <glyph glyph-name="Zcaron" unicode="&#x17d;" horiz-adv-x="566" 
d="M302 747h-40l-143 128l29 36l130 -87h8l129 87l30 -36zM146 75h373v-75h-471v75l367 540h-361v75h458v-75z" />
    <glyph glyph-name="zcaron" unicode="&#x17e;" horiz-adv-x="510" 
d="M275 567h-40l-143 128l29 36l130 -87h8l129 87l30 -36zM145 69h316v-69h-412v69l313 348h-310v70h406v-70z" />
    <glyph glyph-name="uni018F" unicode="&#x18f;" horiz-adv-x="633" 
d="M297 703q161 0 218 -81.5t57 -278.5q0 -192 -56 -273.5t-203 -81.5q-257 0 -257 219q-2 182 168 182h255q-5 131 -45.5 183t-142.5 52q-89 0 -208 -17l-11 61q100 35 225 35zM306 66q94 0 132.5 58t41.5 185h-251q-43 0 -62.5 -29.5t-18.5 -73.5q1 -68 37 -104t121 -36z
" />
    <glyph glyph-name="florin" unicode="&#x192;" horiz-adv-x="442" 
d="M346 630q-46 0 -66 -17t-24 -65l-14 -150h143l-7 -67h-142l-32 -335q-6 -70 -41 -106t-107 -36q-63 0 -102 7l11 64h67q44 0 63.5 18.5t23.5 62.5l31 325h-98l4 63l100 4l15 160q13 142 155 142q70 0 102 -6l-11 -64h-71z" />
    <glyph glyph-name="Ohorn" unicode="&#x1a0;" 
d="M672 719q-1 -47 -31 -82.5t-74 -47.5q39 -79 39 -244q0 -201 -60 -279.5t-212 -78.5t-212.5 78.5t-60.5 279.5t60.5 279.5t212.5 78.5q148 0 208 -73q63 19 69 94zM334 66q102 0 141 60.5t39 218.5t-39 218.5t-141 60.5t-141 -60.5t-39 -218.5t39 -218.5t141 -60.5z" />
    <glyph glyph-name="ohorn" unicode="&#x1a1;" horiz-adv-x="580" 
d="M587 542q-1 -48 -31 -82.5t-75 -47.5q32 -58 32 -169q0 -140 -51.5 -198t-177.5 -58q-125 0 -177 58t-52 198t52 198t177 58q116 0 167 -48q32 7 52 33t23 63zM284 59q80 0 110.5 39t30.5 145t-30.5 145t-110.5 39t-110 -39t-30 -145t30 -145t110 -39z" />
    <glyph glyph-name="Uhorn" unicode="&#x1af;" horiz-adv-x="695" 
d="M714 719q-1 -55 -39.5 -92t-90.5 -42v-321q0 -151 -56 -214t-191 -63q-140 0 -197.5 63t-57.5 214v426h88v-426q0 -111 36 -154.5t127 -43.5q90 0 126.5 43.5t36.5 154.5v426h88v-60q30 9 48.5 34t20.5 60z" />
    <glyph glyph-name="uhorn" unicode="&#x1b0;" horiz-adv-x="596" 
d="M621 541q-1 -54 -39 -91.5t-90 -42.5v-407h-68l-6 71q-111 -84 -210 -84q-133 0 -133 134v366h85v-342q-1 -46 17 -65t60 -19q37 0 75 16.5t95 53.5v356h85v-35q29 9 47.5 34t20.5 60z" />
    <glyph glyph-name="uni01C4" unicode="&#x1c4;" horiz-adv-x="1224" 
d="M960 747h-40l-143 128l29 36l130 -87h8l129 87l30 -36zM333 699q149 0 209 -77.5t60 -276.5t-60 -276.5t-209 -77.5q-116 0 -246 9v690q130 9 246 9zM804 75h373v-75h-471v75l367 540h-361v75h458v-75zM333 68q99 0 138 60.5t39 216.5t-39 217t-138 61q-64 0 -158 -2
v-551q90 -2 158 -2z" />
    <glyph glyph-name="uni01C5" unicode="&#x1c5;" horiz-adv-x="1174" 
d="M939 567h-40l-143 128l29 36l130 -87h8l129 87l30 -36zM333 699q149 0 209 -77.5t60 -276.5t-60 -276.5t-209 -77.5q-116 0 -246 9v690q130 9 246 9zM333 68q99 0 138 60.5t39 216.5t-39 217t-138 61q-64 0 -158 -2v-551q90 -2 158 -2zM809 69h316v-69h-412v69l313 348
h-310v70h406v-70z" />
    <glyph glyph-name="uni01C6" unicode="&#x1c6;" horiz-adv-x="1083" 
d="M848 567h-40l-143 128l29 36l130 -87h8l129 87l30 -36zM409 550v150h85v-700h-66l-8 70q-94 -82 -193 -82q-90 0 -130.5 63.5t-40.5 193.5q0 139 44 196.5t140 57.5q91 0 173 -44q-4 41 -4 95zM718 69h316v-69h-412v69l313 348h-310v70h406v-70zM143 246
q0 -105 25.5 -144.5t86.5 -39.5q38 0 69 14.5t85 52.5v269q-96 27 -149 27q-65 0 -91 -37t-26 -142z" />
    <glyph glyph-name="uni01C7" unicode="&#x1c7;" horiz-adv-x="854" 
d="M172 690v-550q0 -66 67 -66h249l4 -68q-87 -7 -267 -7q-140 0 -140 130v561h87zM770 690v-545q0 -76 -34.5 -115t-99.5 -39q-56 0 -92 13l10 62h50q78 0 78 76v548h88z" />
    <glyph glyph-name="uni01C8" unicode="&#x1c8;" horiz-adv-x="764" 
d="M660 694q25 0 25 -26v-57q0 -26 -25 -26h-40q-26 0 -26 26v57q0 26 26 26h40zM172 690v-550q0 -66 67 -66h249l4 -68q-87 -7 -267 -7q-140 0 -140 130v561h87zM682 487v-499q0 -58 -25 -108t-69 -83l-47 37q56 69 56 154v499h85z" />
    <glyph glyph-name="uni01C9" unicode="&#x1c9;" horiz-adv-x="547" 
d="M164 700l-1 -566q0 -65 67 -65h47l10 -65q-27 -13 -89 -13q-55 0 -87 32.5t-32 91.5v585h85zM443 694q25 0 25 -26v-57q0 -26 -25 -26h-40q-26 0 -26 26v57q0 26 26 26h40zM465 487v-499q0 -58 -25 -108t-69 -83l-47 37q56 69 56 154v499h85z" />
    <glyph glyph-name="uni01CA" unicode="&#x1ca;" horiz-adv-x="1045" 
d="M618 690v-655q0 -35 -34 -35h-86q-27 0 -39 28l-233 489q-34 74 -39 91h-16q4 -40 4 -91v-517h-88v655q0 35 35 35h83q27 0 39 -28l226 -477q24 -49 47 -100h17q-3 54 -3 105v500h87zM961 690v-545q0 -76 -34.5 -115t-99.5 -39q-56 0 -92 13l10 62h50q78 0 78 76v548h88z
" />
    <glyph glyph-name="uni01CB" unicode="&#x1cb;" horiz-adv-x="955" 
d="M851 694q25 0 25 -26v-57q0 -26 -25 -26h-40q-26 0 -26 26v57q0 26 26 26h40zM618 690v-655q0 -35 -34 -35h-86q-27 0 -39 28l-233 489q-34 74 -39 91h-16q4 -40 4 -91v-517h-88v655q0 35 35 35h83q27 0 39 -28l226 -477q24 -49 47 -100h17q-3 54 -3 105v500h87zM873 487
v-499q0 -58 -25 -108t-69 -83l-47 37q56 69 56 154v499h85z" />
    <glyph glyph-name="uni01CC" unicode="&#x1cc;" horiz-adv-x="831" 
d="M727 694q25 0 25 -26v-57q0 -26 -25 -26h-40q-26 0 -26 26v57q0 26 26 26h40zM374 499q132 0 132 -134v-365h-85v341q0 48 -16 67t-54 19q-40 0 -80 -17.5t-108 -58.5v-351h-85v487h72l6 -77q116 89 218 89zM664 -12v499h85v-499q0 -58 -25 -108t-69 -83l-47 37
q56 69 56 154z" />
    <glyph glyph-name="Gcaron" unicode="&#x1e6;" horiz-adv-x="628" 
d="M349 754h-40l-143 128l29 36l130 -87h8l129 87l30 -36zM474 399h86v-399h-64l-10 73q-86 -86 -206 -86q-115 0 -166.5 86t-51.5 274q0 203 63 279.5t225 76.5q109 0 192 -21l-9 -66q-84 8 -178 8q-79 0 -119.5 -20.5t-60.5 -81.5t-20 -181q0 -153 33 -215t116 -62
q78 0 170 67v268z" />
    <glyph glyph-name="gcaron" unicode="&#x1e7;" horiz-adv-x="558" 
d="M293 567h-40l-143 128l29 36l130 -87h8l129 87l30 -36zM536 487l-5 -47l-72 -6q20 -33 20 -90q0 -82 -47 -118.5t-162 -36.5q-62 0 -101 10q-19 -24 -11 -51t45 -33l182 -29q68 -10 95.5 -42.5t27.5 -94.5q0 -85 -50.5 -118t-181.5 -33q-132 0 -183.5 32.5t-51.5 115.5
q0 43 18 69t62 49q-38 29 -35 77.5t38 73.5q-62 34 -62 128q0 84 46.5 120t162.5 36q67 0 111 -12h154zM270 254q72 0 101 20.5t29 69.5t-28.5 69.5t-101.5 20.5q-72 0 -101 -20.5t-29 -69.5t29 -69.5t101 -20.5zM425 -47q0 36 -15.5 49t-68.5 21l-166 23q-51 -39 -51 -93
q0 -51 30 -67t121 -16q89 0 119.5 16.5t30.5 66.5z" />
    <glyph glyph-name="uni01EA" unicode="&#x1ea;" 
d="M360 -12q-46 -57 -63 -102q-15 -36 7.5 -48t70.5 4l10 -35q-92 -35 -130.5 -8.5t-17.5 84.5q18 52 78 104q-141 5 -197.5 84t-56.5 274q0 201 60.5 279.5t212.5 78.5t212 -78.5t60 -279.5q0 -193 -55 -272.5t-191 -84.5zM154 345q0 -158 39 -218.5t141 -60.5t141 60.5
t39 218.5t-39 218.5t-141 60.5t-141 -60.5t-39 -218.5z" />
    <glyph glyph-name="uni01EB" unicode="&#x1eb;" horiz-adv-x="568" 
d="M314 -12q-44 -52 -62 -100q-15 -36 7.5 -48t70.5 4l10 -35q-92 -35 -130.5 -8.5t-17.5 84.5q18 52 76 102q-116 4 -164.5 62t-48.5 194q0 140 52 198t177 58q126 0 177.5 -58t51.5 -198q0 -132 -45.5 -190.5t-153.5 -64.5zM144 243q0 -106 30 -145t110 -39t110.5 39
t30.5 145t-30.5 145t-110.5 39t-110 -39t-30 -145z" />
    <glyph glyph-name="Aringacute" unicode="&#x1fa;" horiz-adv-x="622" 
d="M417 959l-163 -90l-27 38l145 116zM312 652q-45 0 -76 30t-31 75q0 44 31.5 74.5t75.5 30.5t75.5 -30.5t31.5 -74.5t-31.5 -74.5t-75.5 -30.5zM312 818q-26 0 -42.5 -17t-16.5 -44q0 -28 17 -44.5t42 -16.5q26 0 43 16.5t17 44.5q0 27 -17 44t-43 17zM521 0l-62 175h-296
l-62 -175h-91l222 606q10 24 33 24h92q23 0 33 -24l222 -606h-91zM190 251h242l-90 255q-5 13 -17 56h-28q-12 -43 -17 -56z" />
    <glyph glyph-name="aringacute" unicode="&#x1fb;" horiz-adv-x="549" 
d="M384 846l-166 -92l-26 37l147 118zM273 528q-45 0 -76 30t-31 75q0 44 31.5 74.5t75.5 30.5t75.5 -30.5t31.5 -74.5t-31.5 -74.5t-75.5 -30.5zM273 694q-26 0 -42.5 -17t-16.5 -44q0 -28 17 -44.5t42 -16.5q26 0 43 16.5t17 44.5q0 27 -17 44t-43 17zM308 499
q85 0 126 -35.5t41 -120.5v-343h-67l-10 81q-88 -90 -201 -90q-67 0 -106.5 35.5t-39.5 100.5v53q0 57 35.5 88.5t99.5 31.5h203v43q0 46 -21 65t-78 19q-72 0 -209 -13l-8 63q134 22 235 22zM214 64q38 -1 86 18t89 55v99l-188 -1q-34 -1 -48.5 -18t-14.5 -49v-31
q0 -38 18 -55.5t58 -17.5z" />
    <glyph glyph-name="AEacute" unicode="&#x1fc;" horiz-adv-x="913" 
d="M720 848l-191 -120l-30 39l173 146zM604 74h255l3 -69q-95 -6 -293 -6q-52 0 -84 33.5t-32 86.5v106h-232l-130 -225h-92l343 582q35 63 83.5 86t141.5 23q189 0 295 -6l-3 -70h-255q-31 0 -49.5 -18.5t-18.5 -50.5v-145l283 -1v-71l-283 -1v-187q0 -67 68 -67zM263 298
h190v260q0 21 9.5 42t22.5 30h-8q-29 -16 -58 -63z" />
    <glyph glyph-name="aeacute" unicode="&#x1fd;" horiz-adv-x="871" 
d="M608 668l-191 -120l-30 39l173 146zM632 60q83 0 170 12l8 -57q-64 -27 -189 -27q-84 0 -134 25t-74 81q-33 -39 -91 -71t-125 -32t-106.5 35.5t-39.5 100.5v53q0 57 35.5 88.5t99.5 31.5h203v43q0 46 -21 65t-78 19q-72 0 -209 -13l-8 63q134 22 235 22q102 0 139 -50
q50 50 165 50q109 0 159 -39.5t51 -119.5q0 -138 -127 -138h-216q6 -84 40 -113t113 -29zM616 427q-76 0 -106.5 -34t-32.5 -125h196q65 0 63 72q0 46 -27.5 66.5t-92.5 20.5zM214 64q40 -1 91 19.5t93 59.5q-9 41 -9 93l-188 -1q-34 -1 -48.5 -18t-14.5 -49v-31
q0 -38 18 -55.5t58 -17.5z" />
    <glyph glyph-name="Oslashacute" unicode="&#x1fe;" 
d="M486 848l-191 -120l-30 39l173 146zM507 662q53 -36 76 -112t23 -205q0 -201 -60 -279.5t-212 -78.5q-84 0 -134 21l-31 -66l-45 20l32 69q-50 37 -72.5 112.5t-22.5 201.5q0 201 60.5 279.5t212.5 78.5q76 0 128 -18l31 65l46 -19zM154 345q0 -167 44 -226l228 488
q-34 17 -92 17q-102 0 -141 -60.5t-39 -218.5zM334 66q102 0 141 60.5t39 218.5q0 173 -48 231l-230 -490q37 -20 98 -20z" />
    <glyph glyph-name="oslashacute" unicode="&#x1ff;" horiz-adv-x="568" 
d="M441 664l-191 -120l-30 39l173 146zM414 476q53 -25 76 -81t23 -152q0 -140 -51.5 -198t-177.5 -58q-56 0 -93 10l-34 -72l-39 19l32 68q-50 26 -72.5 81.5t-22.5 149.5q0 140 52 198t177 58q50 0 88 -9l33 70l39 -19zM144 243q0 -120 40 -156l156 334q-24 6 -56 6
q-80 0 -110 -39t-30 -145zM284 59q80 0 110.5 39t30.5 145q0 123 -45 160l-157 -337q24 -7 61 -7z" />
    <glyph glyph-name="uni0200" unicode="&#x200;" horiz-adv-x="622" 
d="M270 750l-37 -28l-134 160l62 42zM435 750l-38 -28l-134 160l62 42zM521 0l-68 216h-284l-68 -216h-91l222 666q6 24 33 24h92q27 0 33 -24l222 -666h-91zM193 292h236l-87 274q-9 26 -17 56h-28q-8 -30 -17 -56z" />
    <glyph glyph-name="uni0201" unicode="&#x201;" horiz-adv-x="549" 
d="M233 577l-37 -28l-134 160l62 42zM398 577l-38 -28l-134 160l62 42zM308 499q85 0 126 -35.5t41 -120.5v-343h-67l-10 81q-88 -90 -201 -90q-67 0 -106.5 35.5t-39.5 100.5v53q0 57 35.5 88.5t99.5 31.5h203v43q0 46 -21 65t-78 19q-72 0 -209 -13l-8 63q134 22 235 22z
M214 64q38 -1 86 18t89 55v99l-188 -1q-34 -1 -48.5 -18t-14.5 -49v-31q0 -38 18 -55.5t58 -17.5z" />
    <glyph glyph-name="uni0202" unicode="&#x202;" horiz-adv-x="622" 
d="M203 745l-43 7q-4 59 37 95.5t112 36.5q72 0 113.5 -36.5t37.5 -95.5l-44 -7q0 36 -27.5 55.5t-79.5 19.5q-50 0 -78 -19.5t-28 -55.5zM521 0l-68 216h-284l-68 -216h-91l222 666q6 24 33 24h92q27 0 33 -24l222 -666h-91zM193 292h236l-87 274q-9 26 -17 56h-28
q-8 -30 -17 -56z" />
    <glyph glyph-name="uni0203" unicode="&#x203;" horiz-adv-x="549" 
d="M166 572l-43 7q-4 59 37 95.5t112 36.5q72 0 113.5 -36.5t37.5 -95.5l-44 -7q0 36 -27.5 55.5t-79.5 19.5q-50 0 -78 -19.5t-28 -55.5zM308 499q85 0 126 -35.5t41 -120.5v-343h-67l-10 81q-88 -90 -201 -90q-67 0 -106.5 35.5t-39.5 100.5v53q0 57 35.5 88.5t99.5 31.5
h203v43q0 46 -21 65t-78 19q-72 0 -209 -13l-8 63q134 22 235 22zM214 64q38 -1 86 18t89 55v99l-188 -1q-34 -1 -48.5 -18t-14.5 -49v-31q0 -38 18 -55.5t58 -17.5z" />
    <glyph glyph-name="uni0204" unicode="&#x204;" horiz-adv-x="560" 
d="M269 770l-37 -28l-134 160l62 42zM434 770l-38 -28l-134 160l62 42zM229 73h277l4 -68q-92 -6 -296 -6q-61 0 -96.5 32.5t-36.5 87.5v452q1 55 36.5 87.5t96.5 32.5q204 0 296 -6l-4 -69h-277q-60 0 -60 -66v-150h298v-71h-298v-189q0 -67 60 -67z" />
    <glyph glyph-name="uni0205" unicode="&#x205;" horiz-adv-x="537" 
d="M240 577l-37 -28l-134 160l62 42zM405 577l-38 -28l-134 160l62 42zM298 60q83 0 169 12l9 -57q-65 -27 -189 -27q-126 0 -179.5 58.5t-53.5 198.5q0 141 52 197.5t172 56.5q109 0 159 -39.5t50 -119.5q2 -138 -116 -138h-226q6 -84 40 -113t113 -29zM282 427
q-76 0 -106.5 -34t-32.5 -125h206q53 0 53 72q-1 47 -28 67t-92 20z" />
    <glyph glyph-name="uni0206" unicode="&#x206;" horiz-adv-x="560" 
d="M202 765l-43 7q-4 59 37 95.5t112 36.5q72 0 113.5 -36.5t37.5 -95.5l-44 -7q0 36 -27.5 55.5t-79.5 19.5q-50 0 -78 -19.5t-28 -55.5zM229 73h277l4 -68q-92 -6 -296 -6q-61 0 -96.5 32.5t-36.5 87.5v452q1 55 36.5 87.5t96.5 32.5q204 0 296 -6l-4 -69h-277
q-60 0 -60 -66v-150h298v-71h-298v-189q0 -67 60 -67z" />
    <glyph glyph-name="uni0207" unicode="&#x207;" horiz-adv-x="537" 
d="M173 572l-43 7q-4 59 37 95.5t112 36.5q72 0 113.5 -36.5t37.5 -95.5l-44 -7q0 36 -27.5 55.5t-79.5 19.5q-50 0 -78 -19.5t-28 -55.5zM298 60q83 0 169 12l9 -57q-65 -27 -189 -27q-126 0 -179.5 58.5t-53.5 198.5q0 141 52 197.5t172 56.5q109 0 159 -39.5t50 -119.5
q2 -138 -116 -138h-226q6 -84 40 -113t113 -29zM282 427q-76 0 -106.5 -34t-32.5 -125h206q53 0 53 72q-1 47 -28 67t-92 20z" />
    <glyph glyph-name="uni0208" unicode="&#x208;" horiz-adv-x="262" 
d="M-19 931l109 -174l-37 -28l-134 160zM145 931l110 -174l-38 -28l-134 160zM175 690v-690h-88v690h88z" />
    <glyph glyph-name="uni0209" unicode="&#x209;" horiz-adv-x="249" 
d="M-25 751l109 -174l-37 -28l-134 160zM139 751l110 -174l-38 -28l-134 160zM167 487v-487h-85v487h85z" />
    <glyph glyph-name="uni020A" unicode="&#x20a;" horiz-adv-x="262" 
d="M23 752l-43 7q-4 59 37 95.5t112 36.5q72 0 113.5 -36.5t37.5 -95.5l-44 -7q0 36 -27.5 55.5t-79.5 19.5q-50 0 -78 -19.5t-28 -55.5zM175 690v-690h-88v690h88z" />
    <glyph glyph-name="uni020B" unicode="&#x20b;" horiz-adv-x="249" 
d="M17 572l-43 7q-4 59 37 95.5t112 36.5q72 0 113.5 -36.5t37.5 -95.5l-44 -7q0 36 -27.5 55.5t-79.5 19.5q-50 0 -78 -19.5t-28 -55.5zM167 487v-487h-85v487h85z" />
    <glyph glyph-name="uni020C" unicode="&#x20c;" 
d="M186 931l109 -174l-37 -28l-134 160zM350 931l110 -174l-38 -28l-134 160zM334 703q152 0 212 -78.5t60 -279.5t-60 -279.5t-212 -78.5t-212.5 78.5t-60.5 279.5t60.5 279.5t212.5 78.5zM334 624q-102 0 -141 -60.5t-39 -218.5t39 -218.5t141 -60.5t141 60.5t39 218.5
t-39 218.5t-141 60.5z" />
    <glyph glyph-name="uni020D" unicode="&#x20d;" horiz-adv-x="568" 
d="M136 747l109 -174l-37 -28l-134 160zM300 747l110 -174l-38 -28l-134 160zM284 499q126 0 177.5 -58t51.5 -198t-51.5 -198t-177.5 -58q-125 0 -177 58t-52 198t52 198t177 58zM284 427q-80 0 -110 -39t-30 -145t30 -145t110 -39t110.5 39t30.5 145t-30.5 145t-110.5 39z
" />
    <glyph glyph-name="uni020E" unicode="&#x20e;" 
d="M228 752l-43 7q-4 59 37 95.5t112 36.5q72 0 113.5 -36.5t37.5 -95.5l-44 -7q0 36 -27.5 55.5t-79.5 19.5q-50 0 -78 -19.5t-28 -55.5zM334 703q152 0 212 -78.5t60 -279.5t-60 -279.5t-212 -78.5t-212.5 78.5t-60.5 279.5t60.5 279.5t212.5 78.5zM334 624
q-102 0 -141 -60.5t-39 -218.5t39 -218.5t141 -60.5t141 60.5t39 218.5t-39 218.5t-141 60.5z" />
    <glyph glyph-name="uni020F" unicode="&#x20f;" horiz-adv-x="568" 
d="M178 568l-43 7q-4 59 37 95.5t112 36.5q72 0 113.5 -36.5t37.5 -95.5l-44 -7q0 36 -27.5 55.5t-79.5 19.5q-50 0 -78 -19.5t-28 -55.5zM284 499q126 0 177.5 -58t51.5 -198t-51.5 -198t-177.5 -58q-125 0 -177 58t-52 198t52 198t177 58zM284 427q-80 0 -110 -39
t-30 -145t30 -145t110 -39t110.5 39t30.5 145t-30.5 145t-110.5 39z" />
    <glyph glyph-name="uni0210" unicode="&#x210;" horiz-adv-x="618" 
d="M262 757l-37 -28l-134 160l62 42zM427 757l-38 -28l-134 160l62 42zM506 218l67 -218h-94l-61 216q-13 39 -35 55.5t-57 16.5t-85.5 0.5t-66.5 0.5v-289h-87v690q84 9 238 9q123 0 173 -42.5t50 -156.5q0 -85 -29.5 -127t-97.5 -51v-5q28 -7 51 -32.5t34 -66.5zM323 364
q78 1 107 28t29 103q0 75 -29 101.5t-107 26.5q-32 0 -82 -0.5t-67 -0.5v-258h149z" />
    <glyph glyph-name="uni0211" unicode="&#x211;" horiz-adv-x="401" 
d="M179 577l-37 -28l-134 160l62 42zM344 577l-38 -28l-134 160l62 42zM361 499h22l-10 -80h-28q-38 0 -77 -14.5t-105 -47.5v-357h-85v487h66l9 -77q111 89 208 89z" />
    <glyph glyph-name="uni0212" unicode="&#x212;" horiz-adv-x="618" 
d="M195 752l-43 7q-4 59 37 95.5t112 36.5q72 0 113.5 -36.5t37.5 -95.5l-44 -7q0 36 -27.5 55.5t-79.5 19.5q-50 0 -78 -19.5t-28 -55.5zM506 218l67 -218h-94l-61 216q-13 39 -35 55.5t-57 16.5t-85.5 0.5t-66.5 0.5v-289h-87v690q84 9 238 9q123 0 173 -42.5t50 -156.5
q0 -85 -29.5 -127t-97.5 -51v-5q28 -7 51 -32.5t34 -66.5zM323 364q78 1 107 28t29 103q0 75 -29 101.5t-107 26.5q-32 0 -82 -0.5t-67 -0.5v-258h149z" />
    <glyph glyph-name="uni0213" unicode="&#x213;" horiz-adv-x="401" 
d="M218 647q-50 0 -78 -19.5t-28 -55.5l-43 7q-4 59 37 95.5t112 36.5q72 0 113.5 -36.5t37.5 -95.5l-44 -7q0 36 -27.5 55.5t-79.5 19.5zM361 499h22l-10 -80h-28q-38 0 -77 -14.5t-105 -47.5v-357h-85v487h66l9 -77q111 89 208 89z" />
    <glyph glyph-name="uni0214" unicode="&#x214;" horiz-adv-x="666" 
d="M186 946l110 -174l-37 -28l-135 159zM350 946l111 -174l-38 -28l-135 159zM584 690v-426q0 -151 -56 -214t-191 -63q-140 0 -197.5 63t-57.5 214v426h88v-426q0 -111 36 -154.5t127 -43.5q90 0 126.5 43.5t36.5 154.5v426h88z" />
    <glyph glyph-name="uni0215" unicode="&#x215;" horiz-adv-x="570" 
d="M244 580l-37 -28l-134 160l62 42zM409 580l-38 -28l-134 160l62 42zM407 487h85v-487h-68l-6 71q-111 -84 -210 -84q-133 0 -133 134v366h85v-342q-1 -46 17 -65t60 -19q37 0 75 16.5t95 53.5v356z" />
    <glyph glyph-name="uni0216" unicode="&#x216;" horiz-adv-x="666" 
d="M226 752l-43 7q-4 59 37 95.5t112 36.5q72 0 113.5 -36.5t37.5 -95.5l-44 -7q0 36 -27.5 55.5t-79.5 19.5q-50 0 -78 -19.5t-28 -55.5zM584 690v-426q0 -151 -56 -214t-191 -63q-140 0 -197.5 63t-57.5 214v426h88v-426q0 -111 36 -154.5t127 -43.5q90 0 126.5 43.5
t36.5 154.5v426h88z" />
    <glyph glyph-name="uni0217" unicode="&#x217;" horiz-adv-x="570" 
d="M177 575l-43 7q-4 59 37 95.5t112 36.5q72 0 113.5 -36.5t37.5 -95.5l-44 -7q0 36 -27.5 55.5t-79.5 19.5q-50 0 -78 -19.5t-28 -55.5zM407 487h85v-487h-68l-6 71q-111 -84 -210 -84q-133 0 -133 134v366h85v-342q-1 -46 17 -65t60 -19q37 0 75 16.5t95 53.5v356z" />
    <glyph glyph-name="Scommaaccent" unicode="&#x218;" horiz-adv-x="561" 
d="M279 702q122 -2 205 -20l-6 -64q-97 5 -195 5q-44 0 -65 -2t-41 -12t-26.5 -31.5t-6.5 -59.5q0 -55 19.5 -78t67.5 -35l140 -35q77 -19 108 -65t31 -129q0 -114 -51.5 -151t-179.5 -37q-109 0 -214 19l6 65q168 -6 211 -5q82 0 110.5 21t28.5 90q0 57 -19.5 79.5
t-67.5 34.5l-143 36q-73 18 -104.5 64.5t-31.5 127.5q0 60 12.5 96.5t43 55t68 24.5t100.5 6zM297 -59q16 0 22.5 -6t6.5 -21v-55q-2 -74 -32 -132l-37 10q10 50 10 103q-22 0 -22 24v50q1 27 30 27h22z" />
    <glyph glyph-name="scommaaccent" unicode="&#x219;" horiz-adv-x="508" 
d="M240 499q117 -2 205 -15l-7 -62q-153 5 -185 5q-74 1 -97 -9t-23 -53q0 -35 15.5 -48t55.5 -22l142 -32q60 -15 86.5 -44.5t26.5 -89.5q0 -85 -47 -112.5t-161 -27.5q-102 0 -191 14l6 62q85 -5 168 -4q85 0 114 13t29 55q0 33 -17.5 45.5t-59.5 22.5l-140 32
q-60 14 -85 45t-25 91q0 81 42.5 108.5t147.5 25.5zM272 -59q16 0 22.5 -6t6.5 -21v-55q-2 -74 -32 -132l-37 10q10 50 10 103q-22 0 -22 24v50q1 27 30 27h22z" />
    <glyph glyph-name="uni021A" unicode="&#x21a;" horiz-adv-x="581" 
d="M557 690v-78h-223v-612h-88v612h-222v78h533zM290 -59q16 0 22.5 -6t6.5 -21v-55q-2 -74 -32 -132l-37 10q10 50 10 103q-22 0 -22 24v50q1 27 30 27h22z" />
    <glyph glyph-name="uni021B" unicode="&#x21b;" horiz-adv-x="381" 
d="M355 420h-155v-286q0 -35 15 -50t51 -15h74l10 -65q-46 -13 -110 -13q-61 0 -93 34t-32 98v297h-88v62l88 5v144h85v-144h155v-67zM248 -59q16 0 22.5 -6t6.5 -21v-55q-2 -74 -32 -132l-37 10q10 50 10 103q-22 0 -22 24v50q1 27 30 27h22z" />
    <glyph glyph-name="uni022A" unicode="&#x22a;" 
d="M208 962h254v-56h-254v56zM268 854q21 0 21 -22v-50q0 -21 -21 -21h-26q-22 0 -22 21v50q0 22 22 22h26zM429 854q22 0 22 -22v-50q0 -21 -22 -21h-26q-22 0 -22 21v50q0 22 22 22h26zM334 703q152 0 212 -78.5t60 -279.5t-60 -279.5t-212 -78.5t-212.5 78.5t-60.5 279.5
t60.5 279.5t212.5 78.5zM334 624q-102 0 -141 -60.5t-39 -218.5t39 -218.5t141 -60.5t141 60.5t39 218.5t-39 218.5t-141 60.5z" />
    <glyph glyph-name="uni022B" unicode="&#x22b;" horiz-adv-x="568" 
d="M158 778h254v-56h-254v56zM218 670q21 0 21 -22v-50q0 -21 -21 -21h-26q-22 0 -22 21v50q0 22 22 22h26zM379 670q22 0 22 -22v-50q0 -21 -22 -21h-26q-22 0 -22 21v50q0 22 22 22h26zM284 499q126 0 177.5 -58t51.5 -198t-51.5 -198t-177.5 -58q-125 0 -177 58t-52 198
t52 198t177 58zM284 427q-80 0 -110 -39t-30 -145t30 -145t110 -39t110.5 39t30.5 145t-30.5 145t-110.5 39z" />
    <glyph glyph-name="uni022C" unicode="&#x22c;" 
d="M209 920v57h254v-57h-254zM416 754q-37 3 -83 29t-68 28q-27 3 -37 -10t-10 -45h-40q-6 58 16.5 88t61.5 27q32 -3 77.5 -28t71.5 -28q28 -3 38.5 9t10.5 42h40q6 -56 -16 -85.5t-62 -26.5zM334 703q152 0 212 -78.5t60 -279.5t-60 -279.5t-212 -78.5t-212.5 78.5
t-60.5 279.5t60.5 279.5t212.5 78.5zM334 624q-102 0 -141 -60.5t-39 -218.5t39 -218.5t141 -60.5t141 60.5t39 218.5t-39 218.5t-141 60.5z" />
    <glyph glyph-name="uni022D" unicode="&#x22d;" horiz-adv-x="568" 
d="M159 736v57h254v-57h-254zM366 570q-37 3 -83 29t-68 28q-27 3 -37 -10t-10 -45h-40q-6 58 16.5 88t61.5 27q32 -3 77.5 -28t71.5 -28q28 -3 38.5 9t10.5 42h40q6 -56 -16 -85.5t-62 -26.5zM284 499q126 0 177.5 -58t51.5 -198t-51.5 -198t-177.5 -58q-125 0 -177 58
t-52 198t52 198t177 58zM284 427q-80 0 -110 -39t-30 -145t30 -145t110 -39t110.5 39t30.5 145t-30.5 145t-110.5 39z" />
    <glyph glyph-name="uni0230" unicode="&#x230;" 
d="M272 962l190 -5l-64 -51l-190 5zM347 856q24 0 24 -23v-52q0 -24 -24 -24h-25q-24 0 -24 24v52q0 23 24 23h25zM334 703q152 0 212 -78.5t60 -279.5t-60 -279.5t-212 -78.5t-212.5 78.5t-60.5 279.5t60.5 279.5t212.5 78.5zM334 624q-102 0 -141 -60.5t-39 -218.5
t39 -218.5t141 -60.5t141 60.5t39 218.5t-39 218.5t-141 60.5z" />
    <glyph glyph-name="uni0231" unicode="&#x231;" horiz-adv-x="568" 
d="M222 778l190 -5l-64 -51l-190 5zM297 672q24 0 24 -23v-52q0 -24 -24 -24h-25q-24 0 -24 24v52q0 23 24 23h25zM284 499q126 0 177.5 -58t51.5 -198t-51.5 -198t-177.5 -58q-125 0 -177 58t-52 198t52 198t177 58zM284 427q-80 0 -110 -39t-30 -145t30 -145t110 -39
t110.5 39t30.5 145t-30.5 145t-110.5 39z" />
    <glyph glyph-name="uni0232" unicode="&#x232;" horiz-adv-x="569" 
d="M425 839v-63h-278v63h278zM557 690l-229 -448v-242h-88v244l-229 446h94l145 -291q12 -24 31 -78h7q16 44 31 77l145 292h93z" />
    <glyph glyph-name="uni0233" unicode="&#x233;" horiz-adv-x="529" 
d="M406 669v-63h-278v63h278zM418 487h92l-195 -514q-64 -172 -213 -179l-8 56q57 18 89.5 49.5t52.5 79.5l9 21h-20q-24 0 -30 22l-177 465h91l129 -363q14 -41 18 -59h14q1 4 21 59z" />
    <glyph glyph-name="uni0237" unicode="&#x237;" horiz-adv-x="250" 
d="M168 487v-499q0 -58 -25 -108t-69 -83l-47 37q56 69 56 154v499h85z" />
    <glyph glyph-name="uni0259" unicode="&#x259;" horiz-adv-x="537" 
d="M250 499q126 0 179.5 -58.5t53.5 -198.5q0 -141 -52 -197.5t-172 -56.5q-109 0 -159 39.5t-50 119.5q-2 138 116 138h226q-6 84 -40 113t-113 29q-83 0 -169 -12l-9 57q64 27 189 27zM255 60q77 0 107 33.5t32 125.5h-206q-53 0 -53 -72q1 -47 28 -67t92 -20z" />
    <glyph glyph-name="uni02B9" unicode="&#x2b9;" horiz-adv-x="259" 
d="M200 754l-63 -215h-58l52 215h69z" />
    <glyph glyph-name="uni02BA" unicode="&#x2ba;" horiz-adv-x="389" 
d="M201 754l-63 -215h-59l53 215h69zM331 754l-64 -215h-57l51 215h70z" />
    <glyph glyph-name="uni02BB" unicode="&#x2bb;" horiz-adv-x="228" 
d="M100 540q-17 0 -23.5 7t-6.5 25l-1 64q0 80 35 153l41 -11q-10 -59 -10 -120q24 0 24 -28l-1 -58q0 -18 -7.5 -25t-24.5 -7h-26z" />
    <glyph glyph-name="uni02BE" unicode="&#x2be;" horiz-adv-x="183" 
d="M92 644q0 27 -16.5 44t-42.5 17v44q44 0 75.5 -30.5t31.5 -74.5q0 -45 -31 -75t-76 -30v44q25 0 42 16.5t17 44.5z" />
    <glyph glyph-name="uni02BF" unicode="&#x2bf;" horiz-adv-x="183" 
d="M150 705q-26 0 -42.5 -17t-16.5 -44q0 -28 17 -44.5t42 -16.5v-44q-45 0 -76 30t-31 75q0 44 31.5 74.5t75.5 30.5v-44z" />
    <glyph glyph-name="circumflex" unicode="&#x2c6;" horiz-adv-x="420" 
d="M241 713l133 -127l-30 -37l-129 97h-8l-130 -97l-29 37l132 127h61z" />
    <glyph glyph-name="caron" unicode="&#x2c7;" horiz-adv-x="420" 
d="M344 724l30 -36l-143 -128h-40l-143 128l29 36l130 -87h8z" />
    <glyph glyph-name="uni02C8" unicode="&#x2c8;" horiz-adv-x="192" 
d="M63 698h65v-124h-65v124z" />
    <glyph glyph-name="uni02C9" unicode="&#x2c9;" horiz-adv-x="400" 
d="M339 672v-63h-278v63h278z" />
    <glyph glyph-name="uni02CA" unicode="&#x2ca;" horiz-adv-x="314" 
d="M221 731l49 -66l-192 -120l-29 39z" />
    <glyph glyph-name="uni02CB" unicode="&#x2cb;" horiz-adv-x="314" 
d="M85 723l172 -146l-29 -39l-192 120z" />
    <glyph glyph-name="uni02CC" unicode="&#x2cc;" horiz-adv-x="192" 
d="M63 -52h65v-124h-65v124z" />
    <glyph glyph-name="breve" unicode="&#x2d8;" horiz-adv-x="375" 
d="M294 696l44 -6q4 -59 -37 -95.5t-113 -36.5t-113 36.5t-37 95.5l44 6q-1 -35 27 -55t80 -20q49 0 77 20t28 55z" />
    <glyph glyph-name="dotaccent" unicode="&#x2d9;" horiz-adv-x="221" 
d="M124 685q26 0 26 -25v-57q0 -26 -26 -26h-27q-26 0 -26 26v57q0 25 26 25h27z" />
    <glyph glyph-name="ring" unicode="&#x2da;" horiz-adv-x="300" 
d="M150 749q44 0 75.5 -30.5t31.5 -74.5t-31.5 -74.5t-75.5 -30.5q-45 0 -76 30t-31 75q0 44 31.5 74.5t75.5 30.5zM150 705q-26 0 -42.5 -17t-16.5 -44q0 -28 17 -44.5t42 -16.5q26 0 43 16.5t17 44.5q0 27 -17 44t-43 17z" />
    <glyph glyph-name="ogonek" unicode="&#x2db;" horiz-adv-x="252" 
d="M144 2l38 -2q-54 -61 -74 -114q-15 -36 7.5 -48t70.5 4l10 -35q-92 -35 -130.5 -8.5t-17.5 84.5q20 59 96 119z" />
    <glyph glyph-name="tilde" unicode="&#x2dc;" horiz-adv-x="419" 
d="M130 699q32 -3 77.5 -27.5t71.5 -27.5q28 -4 38.5 8t10.5 42h40q6 -55 -16 -85t-62 -27q-37 3 -83 29t-68 28q-27 3 -37 -10t-10 -44h-40q-6 58 16.5 87.5t61.5 26.5z" />
    <glyph glyph-name="hungarumlaut" unicode="&#x2dd;" horiz-adv-x="455" 
d="M159 741l62 -42l-134 -160l-38 28zM323 741l62 -42l-134 -160l-38 28z" />
    <glyph glyph-name="acutecomb" unicode="&#x301;" horiz-adv-x="0" 
d="M-131 723l48 -65l-191 -120l-30 39z" />
    <glyph glyph-name="uni0302" unicode="&#x302;" horiz-adv-x="0" 
d="M-186 713l133 -127l-30 -37l-130 97h-8l-129 -97l-29 37l131 127h62z" />
    <glyph glyph-name="tildecomb" unicode="&#x303;" horiz-adv-x="0" 
d="M-301 699q32 -3 77.5 -27.5t71.5 -27.5q28 -4 38.5 8t10.5 42h39q7 -55 -15 -85t-62 -27q-37 3 -83 29t-68 28q-27 3 -37 -10t-10 -44h-40q-6 57 16.5 87t61.5 27z" />
    <glyph glyph-name="uni0304" unicode="&#x304;" horiz-adv-x="0" 
d="M-66 672v-63h-279v63h279z" />
    <glyph glyph-name="uni0306" unicode="&#x306;" horiz-adv-x="0" 
d="M-93 696l43 -6q5 -59 -35.5 -95.5t-112.5 -36.5q-73 0 -114 36.5t-37 95.5l43 6q0 -36 28 -55.5t80 -19.5q49 0 77 20t28 55z" />
    <glyph glyph-name="uni0307" unicode="&#x307;" horiz-adv-x="0" 
d="M-125 685q26 0 26 -25v-57q0 -26 -26 -26h-27q-26 0 -26 26v57q0 25 26 25h27z" />
    <glyph glyph-name="uni0308" unicode="&#x308;" horiz-adv-x="0" 
d="M-292 693q23 0 23 -24v-55q0 -24 -23 -24h-29q-24 0 -24 24v55q0 24 24 24h29zM-115 693q23 0 23 -24v-55q0 -24 -23 -24h-29q-24 0 -24 24v55q0 24 24 24h29z" />
    <glyph glyph-name="hookabovecomb" unicode="&#x309;" horiz-adv-x="0" 
d="M-173 611q57 16 57 67q0 27 -22.5 37t-56.5 0l-10 48q62 18 104.5 -4.5t42.5 -77.5q0 -42 -28 -72.5t-77 -40.5z" />
    <glyph glyph-name="uni030A" unicode="&#x30a;" horiz-adv-x="0" 
d="M-165 742q44 0 75.5 -30.5t31.5 -74.5t-31.5 -74.5t-75.5 -30.5q-45 0 -76 30t-31 75q0 44 31.5 74.5t75.5 30.5zM-165 698q-26 0 -43 -17t-17 -44q0 -28 17 -44.5t43 -16.5t43 16.5t17 44.5q0 27 -17.5 44t-42.5 17z" />
    <glyph glyph-name="uni030B" unicode="&#x30b;" horiz-adv-x="0" 
d="M-291 734l62 -43l-134 -159l-38 28zM-127 734l62 -43l-134 -159l-37 28z" />
    <glyph glyph-name="uni030C" unicode="&#x30c;" horiz-adv-x="0" 
d="M-83 724l30 -36l-143 -128h-40l-143 128l29 36l130 -87h8z" />
    <glyph glyph-name="uni030F" unicode="&#x30f;" horiz-adv-x="0" 
d="M-349 756l110 -174l-37 -28l-135 159zM-185 756l111 -174l-38 -28l-135 159z" />
    <glyph glyph-name="uni0311" unicode="&#x311;" horiz-adv-x="0" 
d="M-330 565l-43 7q-4 59 37 95.5t112 36.5q72 0 113.5 -36.5t37.5 -95.5l-44 -7q0 36 -27.5 55.5t-79.5 19.5q-50 0 -78 -19.5t-28 -55.5z" />
    <glyph glyph-name="uni0312" unicode="&#x312;" horiz-adv-x="0" 
d="M-140 549q-13 0 -18 5t-5 18l1 47q0 59 25 111l28 -8q-6 -43 -6 -88q16 0 16 -19v-43q0 -23 -23 -23h-18z" />
    <glyph glyph-name="uni031B" unicode="&#x31b;" horiz-adv-x="0" 
d="M-246 405l-4 42q37 4 60.5 30.5t26.5 67.5l61 -5q-1 -58 -44.5 -96.5t-99.5 -38.5z" />
    <glyph glyph-name="dotbelowcomb" unicode="&#x323;" horiz-adv-x="0" 
d="M-99 -52q26 0 26 -25v-57q0 -26 -26 -26h-27q-26 0 -26 26v57q0 25 26 25h27z" />
    <glyph glyph-name="uni0324" unicode="&#x324;" horiz-adv-x="0" 
d="M-287 -54q23 0 23 -24v-55q0 -24 -23 -24h-29q-23 0 -23 24v55q0 24 23 24h29zM-110 -54q24 0 24 -24v-55q0 -24 -24 -24h-28q-24 0 -24 24v55q0 24 24 24h28z" />
    <glyph glyph-name="uni0327" unicode="&#x327;" horiz-adv-x="0" 
d="M-146 -43q61 6 87 -8t25 -57q-2 -63 -49 -97t-119 -24l14 45q40 -1 65.5 18.5t26.5 50.5q1 18 -11 24.5t-48 7.5z" />
    <glyph glyph-name="uni0328" unicode="&#x328;" horiz-adv-x="0" 
d="M-129 2l39 -2q-54 -61 -75 -114q-15 -36 8 -48t70 4l11 -35q-93 -35 -131 -8.5t-17 84.5q20 60 95 119z" />
    <glyph glyph-name="uni032E" unicode="&#x32e;" horiz-adv-x="0" 
d="M-100 -42l43 -7q4 -59 -37 -95.5t-112 -36.5q-72 0 -113.5 36.5t-37.5 95.5l44 7q0 -36 27.5 -55.5t79.5 -19.5q50 0 78 19.5t28 55.5z" />
    <glyph glyph-name="uni0331" unicode="&#x331;" horiz-adv-x="0" 
d="M-88 -78v-63h-278v63h278z" />
    <glyph glyph-name="uni0394" unicode="&#x394;" horiz-adv-x="626" 
d="M357 690l244 -653v-37h-576v37l244 653h88zM314 605q-20 -67 -24 -79l-164 -454h372l-162 455q-4 11 -22 78z" />
    <glyph glyph-name="uni03A9" unicode="&#x3a9;" horiz-adv-x="719" 
d="M360 703q147 0 214 -82t67 -249q0 -110 -33.5 -177t-111.5 -124q36 6 66 6h104l1 -77h-251l-1 74q75 52 104.5 117t30.5 170q-1 140 -45 202t-146 62q-104 0 -147 -61.5t-43 -204.5q0 -108 30 -168.5t104 -116.5v-74h-251v77h104q38 0 66 -6q-78 57 -111.5 125.5
t-32.5 175.5q0 168 66 249.5t216 81.5z" />
    <glyph glyph-name="uni03BC" unicode="&#x3bc;" horiz-adv-x="596" 
d="M573 55l5 -51q-46 -14 -79 -14q-80 0 -80 87v25q-26 -50 -76.5 -82t-111.5 -32q-39 0 -69 12v-76l-11 -121h-73v684h84v-326q0 -54 18 -74.5t64 -20.5q71 0 120.5 58t51.5 139v224h85v-379q0 -28 6 -40.5t24 -12.5h42z" />
    <glyph glyph-name="pi" unicode="&#x3c0;" horiz-adv-x="643" 
d="M616 487l-1 -69h-94v-418h-85v418h-230v-418h-84v418h-95v69h589z" />
    <glyph glyph-name="uni0400" unicode="&#x400;" horiz-adv-x="560" 
d="M361 767l-29 -39l-192 120l49 65zM228 73h277l4 -68q-92 -6 -295 -6q-62 0 -97.5 32.5t-35.5 87.5v452q0 55 36 87.5t97 32.5q203 0 295 -6l-4 -69h-277q-31 0 -45 -16t-14 -50v-150h297v-71h-297v-189q0 -35 14 -51t45 -16z" />
    <glyph glyph-name="uni0401" unicode="&#x401;" horiz-adv-x="560" 
d="M201 767q-24 0 -24 24v55q0 24 24 24h29q23 0 23 -24v-55q0 -24 -23 -24h-29zM378 767q-24 0 -24 24v55q0 24 24 24h29q23 0 23 -24v-55q0 -24 -23 -24h-29zM228 73h277l4 -68q-92 -6 -295 -6q-62 0 -97.5 32.5t-35.5 87.5v452q0 55 36 87.5t97 32.5q203 0 295 -6l-4 -69
h-277q-31 0 -45 -16t-14 -50v-150h297v-71h-297v-189q0 -35 14 -51t45 -16z" />
    <glyph glyph-name="uni0402" unicode="&#x402;" horiz-adv-x="752" 
d="M535 442q38 0 66.5 -8.5t54 -29.5t39 -64t13.5 -106q0 -132 -65 -187.5t-191 -50.5l-8 64q96 7 136.5 41t40.5 125q0 86 -26.5 113t-87.5 27q-77 0 -173 -53v-313h-88v612h-222v78h533v-78h-223v-228q97 58 201 58z" />
    <glyph glyph-name="uni0403" unicode="&#x403;" horiz-adv-x="518" 
d="M396 921l49 -66l-192 -120l-29 39zM211 691q196 0 286 -7l-4 -68h-253q-36 0 -52 -16.5t-16 -54.5v-545h-87v561q0 57 35.5 93.5t90.5 36.5z" />
    <glyph glyph-name="uni0404" unicode="&#x404;" horiz-adv-x="577" 
d="M526 78l10 -67q-82 -23 -197 -23q-154 0 -216 80t-62 277t62 277t216 80q109 0 190 -20l-9 -68q-77 9 -182 9q-96 0 -137 -49.5t-48 -172.5l295 -1v-68l-296 -1q1 -148 42 -206t144 -58q112 0 188 11z" />
    <glyph glyph-name="uni0405" unicode="&#x405;" horiz-adv-x="561" 
d="M279 702q122 -2 205 -20l-6 -64q-97 5 -195 5q-44 0 -65 -2t-41 -12t-26.5 -31.5t-6.5 -59.5q0 -55 19.5 -78t67.5 -35l140 -35q77 -19 108 -65t31 -129q0 -114 -51.5 -151t-179.5 -37q-109 0 -214 19l6 65q168 -6 211 -5q82 0 110.5 21t28.5 90q0 57 -19.5 79.5
t-67.5 34.5l-143 36q-73 18 -104.5 64.5t-31.5 127.5q0 60 12.5 96.5t43 55t68 24.5t100.5 6z" />
    <glyph glyph-name="uni0406" unicode="&#x406;" horiz-adv-x="262" 
d="M175 690v-690h-88v690h88z" />
    <glyph glyph-name="uni0407" unicode="&#x407;" horiz-adv-x="262" 
d="M57 870q23 0 23 -24v-55q0 -24 -23 -24h-29q-24 0 -24 24v55q0 24 24 24h29zM234 870q23 0 23 -24v-55q0 -24 -23 -24h-29q-24 0 -24 24v55q0 24 24 24h29zM175 690v-690h-88v690h88z" />
    <glyph glyph-name="uni0408" unicode="&#x408;" horiz-adv-x="340" 
d="M256 690v-545q0 -76 -34.5 -115t-99.5 -39q-56 0 -92 13l10 62h50q78 0 78 76v548h88z" />
    <glyph glyph-name="uni0409" unicode="&#x409;" horiz-adv-x="970" 
d="M697 412q128 0 177.5 -46.5t49.5 -164.5q0 -120 -48 -164.5t-166 -44.5q-155 0 -242 8v618h-130q-33 0 -48 -17.5t-18 -52.5q-18 -201 -30 -277t-41 -141t-69 -96t-103 -35l-7 60q58 24 96 96q21 41 33.5 95.5t17.5 101t14 159.5q3 33 4 50q7 129 143 129h225v-278h142z
M697 69q82 0 110 26.5t28 107.5q0 77 -27.5 106t-110.5 29h-142v-268q38 -1 142 -1z" />
    <glyph glyph-name="uni040A" unicode="&#x40a;" horiz-adv-x="979" 
d="M706 410q127 0 176.5 -46t49.5 -164q0 -120 -47.5 -164t-165.5 -44q-156 0 -243 8v338h-301v-338h-88v690h88v-280h301v280h87v-280h143zM706 69q82 0 110 26t28 106q0 78 -28 107.5t-110 29.5h-143v-268q38 -1 143 -1z" />
    <glyph glyph-name="uni040B" unicode="&#x40b;" horiz-adv-x="776" 
d="M562 442q80 0 119 -38.5t39 -117.5v-286h-88v269q0 53 -22.5 74.5t-77.5 21.5q-97 0 -198 -54v-311h-88v612h-222v78h533v-78h-223v-229q114 59 228 59z" />
    <glyph glyph-name="uni040C" unicode="&#x40c;" horiz-adv-x="600" 
d="M453 855l-192 -120l-29 39l172 147zM325 358q19 -2 36.5 -8t31.5 -12.5t28 -21.5t23.5 -26t22 -35t19.5 -38t20 -46.5t19.5 -50.5t21 -58.5t22.5 -61.5h-93l-15 42q-18 50 -26.5 73.5t-23.5 60.5t-25.5 53.5t-27 39t-32.5 32t-37 16.5t-46 7h-75q6 -38 6 -73v-251h-87
v690h87v-216q0 -42 -6 -79h75q55 0 97 44.5t60.5 88t56.5 152.5q3 7 4 10h90q-60 -171 -89 -222q-52 -94 -132 -105q-2 -1 -5 -1v-4z" />
    <glyph glyph-name="uni040D" unicode="&#x40d;" horiz-adv-x="691" 
d="M233 913l172 -146l-29 -39l-192 120zM604 690v-690h-85v503q0 47 5 79h-5q-14 -34 -36 -75l-306 -507h-90v690h85v-498q0 -37 -5 -82h4q15 33 39 75l303 505h91z" />
    <glyph glyph-name="uni040E" unicode="&#x40e;" horiz-adv-x="563" 
d="M283 744q-72 0 -113.5 39t-37.5 99h65q0 -43 22.5 -66.5t63.5 -23.5q40 0 62 23.5t22 66.5h65q4 -60 -37 -99t-112 -39zM461 690h90l-186 -520q-30 -83 -64 -127.5t-91 -49.5q-60 -4 -124 14l10 65q37 -3 56.5 -4.5t39.5 2t28 7.5t19.5 19t18 29.5t18.5 44.5l12 31h-38
q-53 0 -69 47l-160 442h91l139 -399q6 -16 23 -16h40z" />
    <glyph glyph-name="uni040F" unicode="&#x40f;" horiz-adv-x="674" 
d="M499 690h88v-690h-213l-4 -151h-60l-6 151h-217v690h88v-618h324v618z" />
    <glyph glyph-name="uni0410" unicode="&#x410;" horiz-adv-x="622" 
d="M521 0l-68 216h-284l-68 -216h-91l222 666q6 24 33 24h92q27 0 33 -24l222 -666h-91zM193 292h236l-87 274q-9 26 -17 56h-28q-8 -30 -17 -56z" />
    <glyph glyph-name="uni0411" unicode="&#x411;" horiz-adv-x="599" 
d="M321 393q128 0 177.5 -44.5t49.5 -158.5q0 -66 -14 -106t-47 -60.5t-73 -26.5t-108 -6q-118 0 -217 9h-2v690q108 6 214 6q105 0 210 -6l-8 -73h-328v-224h146zM321 67q83 0 110.5 25t27.5 102q0 75 -27.5 102.5t-110.5 27.5h-146v-256q38 -1 146 -1z" />
    <glyph glyph-name="uni0412" unicode="&#x412;" horiz-adv-x="620" 
d="M424 356q75 -7 106.5 -52.5t31.5 -131.5q0 -104 -49 -142t-171 -38q-166 0 -255 8v690q79 8 224 8q129 0 179.5 -37.5t50.5 -142.5q0 -75 -28 -113.5t-89 -44.5v-4zM307 623h-134v-232h148q77 1 106 25t29 92q0 69 -31.5 92t-117.5 23zM328 67q84 0 114.5 24t30.5 96
q0 79 -32.5 107t-118.5 30h-149v-256q41 -1 155 -1z" />
    <glyph glyph-name="uni0413" unicode="&#x413;" horiz-adv-x="518" 
d="M211 691q196 0 286 -7l-4 -68h-253q-36 0 -52 -16.5t-16 -54.5v-545h-87v561q0 57 35.5 93.5t90.5 36.5z" />
    <glyph glyph-name="uni0414" unicode="&#x414;" horiz-adv-x="693" 
d="M576 72h85v-223h-61l-8 151h-500l-9 -151h-61v223h67q85 181 101 489q2 61 39 95t101 34h246v-618zM174 72h314v546h-142q-37 0 -53.5 -16t-18.5 -54q-9 -155 -31 -267.5t-69 -208.5z" />
    <glyph glyph-name="uni0415" unicode="&#x415;" horiz-adv-x="560" 
d="M228 73h277l4 -68q-92 -6 -295 -6q-62 0 -97.5 32.5t-35.5 87.5v452q0 55 36 87.5t97 32.5q203 0 295 -6l-4 -69h-277q-31 0 -45 -16t-14 -50v-150h297v-71h-297v-189q0 -35 14 -51t45 -16z" />
    <glyph glyph-name="uni0416" unicode="&#x416;" horiz-adv-x="908" 
d="M633 358q36 -3 65.5 -21.5t48.5 -38t42.5 -70t35.5 -82t39 -109.5q9 -24 13 -37h-93q-65 175 -83 211q-43 88 -100 106q-20 7 -44 7h-65q6 -37 6 -73v-251h-84v251q0 29 7 73h-71q-51 0 -89 -37t-57.5 -80.5t-60.5 -153.5q-13 -35 -20 -53h-92q64 183 88 231
q48 96 116 119q18 6 39 8v4q-33 4 -61 21t-47 40t-38.5 64t-33.5 77t-34 94q-2 7 -3.5 11t-3.5 10t-4 11h90q57 -157 83 -203q53 -91 127 -92h71q-6 39 -6 79v216h84v-216q0 -48 -6 -79h66q25 0 46 8t39.5 28.5t31.5 38.5t30 56.5t26 62t28 74.5q2 6 3.5 9t3 8.5t3.5 9.5h90
q-58 -165 -83 -213q-53 -100 -132 -113q-5 -1 -11 -2v-4z" />
    <glyph glyph-name="uni0417" unicode="&#x417;" horiz-adv-x="550" 
d="M243 698q128 0 177.5 -37.5t49.5 -142.5q0 -75 -27.5 -113.5t-88.5 -44.5v-4q74 -7 105 -52.5t31 -131.5q0 -104 -48.5 -142t-168.5 -38q-143 0 -236 22l7 64q113 -13 215 -13q81 0 111 24.5t30 97.5q0 79 -32 107.5t-116 28.5h-116v69h116q74 0 102 24t28 92
q0 70 -31 94t-113 24q-60 0 -178 -11l-7 67q89 16 190 16z" />
    <glyph glyph-name="uni0418" unicode="&#x418;" horiz-adv-x="691" 
d="M604 690v-690h-85v503q0 47 5 79h-5q-14 -34 -36 -75l-306 -507h-90v690h85v-498q0 -37 -5 -82h4q15 33 39 75l303 505h91z" />
    <glyph glyph-name="uni0419" unicode="&#x419;" horiz-adv-x="691" 
d="M433 882h65q4 -60 -37 -99t-112 -39q-72 0 -113.5 39t-37.5 99h65q0 -43 22.5 -66.5t63.5 -23.5q40 0 62 23.5t22 66.5zM604 690v-690h-85v503q0 47 5 79h-5q-14 -34 -36 -75l-306 -507h-90v690h85v-498q0 -37 -5 -82h4q15 33 39 75l303 505h91z" />
    <glyph glyph-name="uni041A" unicode="&#x41a;" horiz-adv-x="600" 
d="M325 358q19 -2 36.5 -8t31.5 -12.5t28 -21.5t23.5 -26t22 -35t19.5 -38t20 -46.5t19.5 -50.5t21 -58.5t22.5 -61.5h-93l-15 42q-18 50 -26.5 73.5t-23.5 60.5t-25.5 53.5t-27 39t-32.5 32t-37 16.5t-46 7h-75q6 -38 6 -73v-251h-87v690h87v-216q0 -42 -6 -79h75
q55 0 97 44.5t60.5 88t56.5 152.5q3 7 4 10h90q-60 -171 -89 -222q-52 -94 -132 -105q-2 -1 -5 -1v-4z" />
    <glyph glyph-name="uni041B" unicode="&#x41b;" horiz-adv-x="651" 
d="M564 690v-690h-88v618h-138q-68 0 -74 -70q-13 -148 -19 -201t-19 -113t-34 -104q-60 -131 -174 -131l-8 68q69 21 99 87q28 63 41 139.5t28 270.5q12 126 137 126h249z" />
    <glyph glyph-name="uni041C" unicode="&#x41c;" horiz-adv-x="877" 
d="M739 690q36 0 36 -37l29 -653h-88l-25 617h-21l-154 -509q-8 -30 -38 -30h-79q-31 0 -40 30l-154 509h-20l-24 -617h-88l27 653q2 37 37 37h100q28 0 37 -30l129 -421q6 -18 15.5 -53.5t10.5 -39.5h18q3 11 11.5 43.5t14.5 51.5l129 419q8 30 38 30h99z" />
    <glyph glyph-name="uni041D" unicode="&#x41d;" 
d="M493 690h88v-690h-88v331h-318v-331h-88v690h88v-283h318v283z" />
    <glyph glyph-name="uni041E" unicode="&#x41e;" 
d="M334 703q152 0 212 -78.5t60 -279.5t-60 -279.5t-212 -78.5t-212.5 78.5t-60.5 279.5t60.5 279.5t212.5 78.5zM334 624q-102 0 -141 -60.5t-39 -218.5t39 -218.5t141 -60.5t141 60.5t39 218.5t-39 218.5t-141 60.5z" />
    <glyph glyph-name="uni041F" unicode="&#x41f;" horiz-adv-x="669" 
d="M582 690v-690h-88v618h-319v-618h-88v690h495z" />
    <glyph glyph-name="uni0420" unicode="&#x420;" horiz-adv-x="590" 
d="M325 699q125 0 173 -45.5t48 -170.5t-46.5 -170.5t-165.5 -45.5q-73 0 -159 8v-275h-88v690q84 9 238 9zM323 343q77 1 105.5 29.5t28.5 110.5t-29 111t-105 29q-109 0 -148 -1v-279h148z" />
    <glyph glyph-name="uni0421" unicode="&#x421;" horiz-adv-x="570" 
d="M332 702q107 0 188 -20l-9 -67q-90 9 -179 9q-101 0 -139.5 -60.5t-38.5 -218.5t38.5 -218.5t139.5 -60.5q116 0 193 11l9 -66q-83 -23 -202 -23q-149 0 -210 80t-61 277t61 277t210 80z" />
    <glyph glyph-name="uni0422" unicode="&#x422;" horiz-adv-x="581" 
d="M557 690v-78h-223v-612h-88v612h-222v78h533z" />
    <glyph glyph-name="uni0423" unicode="&#x423;" horiz-adv-x="563" 
d="M461 690h90l-186 -520q-30 -83 -64 -127.5t-91 -49.5q-60 -4 -124 14l10 65q37 -3 56.5 -4.5t39.5 2t28 7.5t19.5 19t18 29.5t18.5 44.5l12 31h-38q-53 0 -69 47l-160 442h91l139 -399q6 -16 23 -16h40z" />
    <glyph glyph-name="uni0424" unicode="&#x424;" horiz-adv-x="822" 
d="M771 352q-1 -156 -71.5 -221t-244.5 -71v-97h-88v97q-175 6 -245.5 71t-70.5 221q0 159 70.5 225t245.5 72v97h87l1 -97q174 -6 244.5 -72t71.5 -225zM141 352q0 -120 49 -166.5t180 -51.5v441q-131 -5 -180 -52.5t-49 -170.5zM451 134q131 5 180 51.5t50 166.5
q-1 123 -50 170.5t-180 52.5v-441z" />
    <glyph glyph-name="uni0425" unicode="&#x425;" horiz-adv-x="613" 
d="M491 0l-172 324h-26l-172 -324h-95l194 357l-181 333h95l158 -298h29l158 298h95l-182 -333l195 -357h-96z" />
    <glyph glyph-name="uni0426" unicode="&#x426;" horiz-adv-x="691" 
d="M574 72h85v-223h-61l-9 151h-502v690h88v-618h311v618h88v-618z" />
    <glyph glyph-name="uni0427" unicode="&#x427;" horiz-adv-x="625" 
d="M451 690h87v-690h-87v316q-115 -65 -237 -65q-79 0 -116.5 38t-37.5 118v283h88v-265q-1 -50 22 -72.5t75 -22.5q95 0 206 54v306z" />
    <glyph glyph-name="uni0428" unicode="&#x428;" horiz-adv-x="929" 
d="M756 690h86v-690h-755v690h86v-618h249v618h85v-618h249v618z" />
    <glyph glyph-name="uni0429" unicode="&#x429;" horiz-adv-x="952" 
d="M835 72h85v-223h-61l-9 151h-763v690h86v-618h245v618h86v-618h246v618h85v-618z" />
    <glyph glyph-name="uni042A" unicode="&#x42a;" horiz-adv-x="748" 
d="M475 412q127 0 176.5 -47t49.5 -165q0 -120 -47.5 -164t-165.5 -44q-158 0 -246 8v612h-219v78h308v-278h144zM475 69q82 0 110 26t28 106q0 78 -28 107.5t-110 29.5h-144v-268q38 -1 144 -1z" />
    <glyph glyph-name="uni042B" unicode="&#x42b;" horiz-adv-x="846" 
d="M321 412q127 0 176.5 -47t49.5 -165q0 -120 -47.5 -164t-165.5 -44q-158 0 -245 8h-2v690h88v-278h146zM672 690h87v-690h-87v690zM321 69q82 0 110 26t28 106q0 78 -28 107.5t-110 29.5h-146v-268q39 -1 146 -1z" />
    <glyph glyph-name="uni042C" unicode="&#x42c;" horiz-adv-x="594" 
d="M321 412q127 0 176.5 -47t49.5 -165q0 -120 -47.5 -164t-165.5 -44q-158 0 -245 8h-2v690h88v-278h146zM321 69q82 0 110 26t28 106q0 78 -28 107.5t-110 29.5h-146v-268q39 -1 146 -1z" />
    <glyph glyph-name="uni042D" unicode="&#x42d;" horiz-adv-x="577" 
d="M238 702q154 0 215.5 -80t61.5 -277t-61.5 -277t-215.5 -80q-116 0 -197 23l9 67q76 -11 188 -11q103 0 144 58t42 206l-296 1v68l295 1q-6 123 -47.5 172.5t-137.5 49.5q-105 0 -181 -9l-10 68q81 20 191 20z" />
    <glyph glyph-name="uni042E" unicode="&#x42e;" horiz-adv-x="927" 
d="M591 703q152 0 212.5 -78.5t60.5 -279.5t-60.5 -279.5t-212.5 -78.5q-141 0 -198.5 74t-60.5 262h-156v-323h-88v690h88v-296h157q6 172 64 240.5t194 68.5zM591 66q102 0 141 60.5t40 218.5q-1 158 -40 218.5t-141 60.5q-98 0 -135 -60.5t-37 -218.5t37 -218.5
t135 -60.5z" />
    <glyph glyph-name="uni042F" unicode="&#x42f;" horiz-adv-x="613" 
d="M291 699q152 0 235 -9v-690h-88v281q-16 0 -65.5 -0.5t-84.5 -0.5q-69 0 -91 -73l-60 -207h-94l64 211q24 80 94 97l-1 5q-130 18 -128 184q0 109 51 155.5t168 46.5zM288 356h150v266q-39 1 -146 1q-73 0 -102 -28t-30 -103q0 -69 29 -102.5t99 -33.5z" />
    <glyph glyph-name="uni0430" unicode="&#x430;" horiz-adv-x="552" 
d="M310 499q85 0 125.5 -35.5t40.5 -120.5v-343h-67l-10 80q-34 -35 -87 -62t-114 -27q-67 0 -106 35.5t-39 100.5v53q0 57 35.5 88.5t99.5 31.5h203v43q-1 46 -22 65t-77 19q-71 0 -210 -13l-8 63q136 22 236 22zM215 64q39 -1 87 18.5t89 55.5v98l-188 -1q-64 -3 -64 -67
v-31q0 -38 18.5 -55.5t57.5 -17.5z" />
    <glyph glyph-name="uni0431" unicode="&#x431;" horiz-adv-x="574" 
d="M473 737l20 -66q-36 -22 -69 -33t-75.5 -19t-65.5 -14q-70 -20 -100 -62t-39 -103q-6 -30 -9 -71h2q20 47 60.5 75t125.5 28q107 0 150.5 -54t43.5 -181q0 -125 -48 -187t-175 -62q-61 0 -103.5 16t-65.5 40t-35.5 67.5t-15.5 82t-3 100.5q0 69 3.5 116t14.5 93
t31.5 75.5t53.5 53.5t81 38q27 8 69.5 15.5t77.5 18.5t71 33zM301 400q-85 0 -113.5 -38.5t-28.5 -124.5q0 -100 30 -138.5t106 -38.5q74 0 103.5 38t29.5 139q0 94 -27 128.5t-100 34.5z" />
    <glyph glyph-name="uni0432" unicode="&#x432;" horiz-adv-x="554" 
d="M377 249q66 -5 94 -36.5t28 -92.5q0 -73 -43.5 -100t-151.5 -27q-142 0 -225 6v487q73 6 198 6q116 0 160.5 -27t44.5 -103q0 -52 -25 -79t-80 -31v-3zM274 425q-69 1 -115 0v-144h128q64 0 89 15.5t25 58.5q0 41 -27.5 55.5t-99.5 14.5zM292 60q69 0 95.5 16t26.5 62
t-28 64t-99 18h-128v-159q36 -1 133 -1z" />
    <glyph glyph-name="uni0433" unicode="&#x433;" horiz-adv-x="462" 
d="M185 489q175 0 255 -8l-3 -60h-217q-31 0 -45 -14.5t-14 -45.5v-361h-84v383q0 106 108 106z" />
    <glyph glyph-name="uni0434" unicode="&#x434;" horiz-adv-x="587" 
d="M482 68h67v-212h-56l-8 144h-393l-8 -144h-55v212h56q61 126 73 307q8 112 124 112h200v-419zM161 68h240v352h-105q-56 0 -61 -59q-15 -183 -74 -293z" />
    <glyph glyph-name="uni0435" unicode="&#x435;" horiz-adv-x="540" 
d="M299 60q84 0 170 12l8 -57q-64 -27 -189 -27q-126 0 -179 58.5t-53 198.5q0 141 52 197.5t171 56.5q109 0 159 -39.5t51 -119.5q0 -138 -116 -138h-227q6 -84 40 -113t113 -29zM283 427q-76 0 -106.5 -34t-32.5 -125h207q54 0 52 72q0 47 -27 67t-93 20z" />
    <glyph glyph-name="uni0436" unicode="&#x436;" horiz-adv-x="789" 
d="M563 253q26 -3 46 -10t37.5 -24.5t28.5 -31.5t27 -50.5t24.5 -59t28.5 -77.5h-87q-53 134 -73 165q-35 54 -91 56h-4h-71q5 -28 5 -48v-173h-75v173q0 20 5 48h-76q-54 -1 -82 -40.5t-75 -155.5q-6 -16 -10 -25h-87q20 55 28.5 77.5t24.5 59t27 50.5t28.5 31.5t37.5 24.5
t46 10v2q-46 5 -78.5 36.5t-47 63t-47.5 120.5q-3 8 -5 12h85q19 -48 28.5 -70.5t25.5 -53.5t29 -44.5t32.5 -23.5t43.5 -10h72q-5 22 -5 57v145h75v-145q0 -34 -5 -57h67q55 0 85.5 44.5t73.5 157.5h86q-21 -56 -30 -79.5t-26 -59t-32 -50t-38 -27.5t-52 -16v-2z" />
    <glyph glyph-name="uni0437" unicode="&#x437;" horiz-adv-x="496" 
d="M206 495q125 0 172.5 -26.5t47.5 -103.5q0 -54 -23.5 -81t-79.5 -32v-3q64 -5 92 -36t28 -93q0 -75 -47 -102t-162 -27q-110 0 -193 15l7 65q88 -8 180 -8q74 0 100.5 15.5t26.5 59.5q0 45 -27 62t-98 17h-117v62l116 1q66 0 89.5 15.5t23.5 58.5q0 42 -28 55.5
t-107 13.5q-86 0 -144 -8l-7 65q63 15 150 15z" />
    <glyph glyph-name="uni0438" unicode="&#x438;" horiz-adv-x="587" 
d="M507 487v-487h-77v323q0 12 1.5 35.5t1.5 29.5h-2q-11 -27 -34 -57l-248 -331h-70v487h77v-323q0 -29 -3 -65h2q16 33 35 56l248 332h69z" />
    <glyph glyph-name="uni0439" unicode="&#x439;" horiz-adv-x="587" 
d="M375 702h65q4 -60 -37 -99t-112 -39q-72 0 -113.5 39t-37.5 99h65q0 -43 22.5 -66.5t63.5 -23.5q40 0 62 23.5t22 66.5zM507 487v-487h-77v323q0 12 1.5 35.5t1.5 29.5h-2q-11 -27 -34 -57l-248 -331h-70v487h77v-323q0 -29 -3 -65h2q16 33 35 56l248 332h69z" />
    <glyph glyph-name="uni043A" unicode="&#x43a;" horiz-adv-x="536" 
d="M302 252q27 -2 48 -9t39 -24t30 -32t28 -49.5t25.5 -59.5t29.5 -78h-89q-51 133 -82.5 176t-98.5 44h-72q4 -21 4 -47v-173h-85v487h85v-145q0 -26 -5 -56h68q65 0 98 44.5t75 156.5h88q-12 -33 -17.5 -46.5t-16 -39.5t-16.5 -36.5t-16 -29.5t-18 -27t-20 -19.5
t-23.5 -17t-26.5 -10t-32 -6.5v-3z" />
    <glyph glyph-name="uni043B" unicode="&#x43b;" horiz-adv-x="562" 
d="M482 487v-487h-85v420h-106q-31 0 -44.5 -13.5t-18.5 -47.5q-24 -194 -47 -256q-37 -107 -153 -108l-9 65q39 9 57 24.5t29 43.5q24 61 43 245q7 58 37 86t90 28h207z" />
    <glyph glyph-name="uni043C" unicode="&#x43c;" horiz-adv-x="748" 
d="M626 487q32 0 32 -32l21 -455h-79l-19 422h-17l-124 -341q-9 -28 -34 -28h-66q-25 0 -34 28l-124 341h-17l-18 -422h-78l20 455q0 32 33 32h88q25 0 33 -28l101 -280q10 -28 21 -70h16q14 49 21 70l101 280q9 28 34 28h89z" />
    <glyph glyph-name="uni043D" unicode="&#x43d;" horiz-adv-x="582" 
d="M419 487h84v-487h-84v226h-256v-226h-84v487h84v-196h256v196z" />
    <glyph glyph-name="uni043E" unicode="&#x43e;" horiz-adv-x="571" 
d="M286 499q125 0 177 -58t52 -198t-52 -198t-177 -58q-126 0 -178 58t-52 198t52 198t178 58zM286 427q-81 0 -111 -39t-30 -145t30 -145t111 -39q80 0 110 39t30 145t-30 145t-110 39z" />
    <glyph glyph-name="uni043F" unicode="&#x43f;" horiz-adv-x="575" 
d="M496 487v-487h-84v418h-250v-418h-83v487h417z" />
    <glyph glyph-name="uni0440" unicode="&#x440;" horiz-adv-x="583" 
d="M358 499q88 0 128 -64t40 -194q0 -138 -44 -195.5t-140 -57.5q-99 0 -181 50q4 -49 3 -98v-141h-84v688h69l8 -77q40 41 94 65t107 24zM320 62q66 0 92 37t26 142q0 102 -24.5 143t-82.5 41q-39 0 -77 -17.5t-90 -57.5v-259q111 -29 156 -29z" />
    <glyph glyph-name="uni0441" unicode="&#x441;" horiz-adv-x="492" 
d="M287 499q96 0 157 -23l-11 -55q-66 6 -132 6q-87 0 -121.5 -39t-34.5 -144q0 -106 34 -145t122 -39q81 0 144 10l8 -57q-71 -25 -166 -25q-127 0 -179 57.5t-52 198.5q0 140 52.5 197.5t178.5 57.5z" />
    <glyph glyph-name="uni0442" unicode="&#x442;" horiz-adv-x="490" 
d="M464 487v-70h-176v-417h-85v417h-177v70h438z" />
    <glyph glyph-name="uni0443" unicode="&#x443;" horiz-adv-x="532" 
d="M420 487h91l-194 -514q-39 -102 -92 -142q-64 -48 -181 -32l8 59q79 -4 117 22q41 29 68 99l9 21h-19q-23 0 -31 22l-176 465h91l129 -363q11 -33 18 -59h14l20 59z" />
    <glyph glyph-name="uni0444" unicode="&#x444;" horiz-adv-x="719" 
d="M664 243q0 -131 -60.5 -189.5t-204.5 -64.5v-190h-79v190q-144 6 -204.5 64.5t-60.5 189.5t60.5 190t204.5 65v202h79v-202q143 -6 204 -65t61 -190zM137 243q0 -97 41.5 -137t144.5 -45v365q-103 -5 -144.5 -45t-41.5 -138zM396 61q103 5 144 45t41 137q0 98 -41 138
t-144 45v-365z" />
    <glyph glyph-name="uni0445" unicode="&#x445;" horiz-adv-x="531" 
d="M414 0l-138 220h-20l-139 -220h-93l163 251l-150 236h92l125 -201h24l125 201h92l-151 -236l163 -251h-93z" />
    <glyph glyph-name="uni0446" unicode="&#x446;" horiz-adv-x="594" 
d="M489 68h67v-212h-56l-9 144h-411v487h83v-419h242v419h85z" />
    <glyph glyph-name="uni0447" unicode="&#x447;" horiz-adv-x="532" 
d="M367 487h85v-487h-85v205q-100 -36 -190 -36q-122 0 -122 107v211h84v-183q0 -36 15 -50.5t51 -14.5q81 0 162 34v214z" />
    <glyph glyph-name="uni0448" unicode="&#x448;" horiz-adv-x="806" 
d="M644 487h82v-487h-647v487h83v-419h202v419h77v-419h203v419z" />
    <glyph glyph-name="uni0449" unicode="&#x449;" horiz-adv-x="831" 
d="M727 68h67v-212h-57l-9 144h-648v487h82v-419h202v419h77v-419h204v419h82v-419z" />
    <glyph glyph-name="uni044A" unicode="&#x44a;" horiz-adv-x="632" 
d="M393 298q112 0 154 -33t42 -119q0 -87 -41.5 -119.5t-141.5 -32.5q-132 0 -209 6v419h-171v68h254v-189h113zM393 61q62 0 85.5 17.5t23.5 70.5q0 49 -22.5 67.5t-86.5 18.5h-113v-173q31 -1 113 -1z" />
    <glyph glyph-name="uni044B" unicode="&#x44b;" horiz-adv-x="721" 
d="M277 298q108 0 149 -33t41 -119q0 -87 -40 -119.5t-137 -32.5q-131 0 -208 6h-3v487h83v-189h115zM556 487h86v-487h-86v487zM277 61q59 0 81.5 17.5t22.5 70.5q0 49 -22 67.5t-82 18.5h-115v-173q31 -1 115 -1z" />
    <glyph glyph-name="uni044C" unicode="&#x44c;" horiz-adv-x="516" 
d="M277 298q112 0 154 -33t42 -119q0 -87 -41.5 -119.5t-141.5 -32.5q-131 0 -208 6h-3v487h83v-189h115zM277 61q62 0 85.5 17.5t23.5 70.5q0 49 -22.5 67.5t-86.5 18.5h-115v-173q31 -1 115 -1z" />
    <glyph glyph-name="uni044D" unicode="&#x44d;" horiz-adv-x="506" 
d="M212 493q132 0 185 -55.5t53 -196.5q0 -139 -53 -195t-185 -56q-104 0 -171 19l9 60q84 -7 162 -7q83 0 115.5 32.5t36.5 121.5h-248v64h247q-5 81 -38.5 111.5t-112.5 30.5q-70 0 -157 -5l-9 59q61 17 166 17z" />
    <glyph glyph-name="uni044E" unicode="&#x44e;" horiz-adv-x="795" 
d="M508 499q129 0 180 -54.5t51 -200.5q0 -144 -51 -198.5t-180 -54.5q-118 0 -167 49.5t-53 177.5h-124v-218h-84v487h84v-203h125q6 122 55 168.5t164 46.5zM507 63q81 0 112 39t32 143q-1 105 -32 143.5t-112 38.5q-79 0 -108 -38.5t-29 -143.5q0 -104 29 -143t108 -39z
" />
    <glyph glyph-name="uni044F" unicode="&#x44f;" horiz-adv-x="543" 
d="M249 492q143 0 215 -7v-485h-83v180h-131q-71 0 -85 -50l-37 -130h-88l44 146q17 54 95 62v4q-59 8 -85 41.5t-26 94.5q0 72 40.5 108t140.5 36zM254 244h127v179q-34 1 -130 1q-59 0 -79.5 -19.5t-20.5 -68.5q0 -51 21.5 -71.5t81.5 -20.5z" />
    <glyph glyph-name="uni0450" unicode="&#x450;" horiz-adv-x="540" 
d="M337 587l-29 -39l-192 120l49 65zM299 60q84 0 170 12l8 -57q-64 -27 -189 -27q-126 0 -179 58.5t-53 198.5q0 141 52 197.5t171 56.5q109 0 159 -39.5t51 -119.5q0 -138 -116 -138h-227q6 -84 40 -113t113 -29zM283 427q-76 0 -106.5 -34t-32.5 -125h207q54 0 52 72
q0 47 -27 67t-93 20z" />
    <glyph glyph-name="uni0451" unicode="&#x451;" horiz-adv-x="540" 
d="M178 587q-23 0 -23 24v55q0 24 23 24h29q23 0 23 -24v-55q0 -24 -23 -24h-29zM356 587q-24 0 -24 24v55q0 24 24 24h28q24 0 24 -24v-55q0 -24 -24 -24h-28zM299 60q84 0 170 12l8 -57q-64 -27 -189 -27q-126 0 -179 58.5t-53 198.5q0 141 52 197.5t171 56.5
q109 0 159 -39.5t51 -119.5q0 -138 -116 -138h-227q6 -84 40 -113t113 -29zM283 427q-76 0 -106.5 -34t-32.5 -125h207q54 0 52 72q0 47 -27 67t-93 20z" />
    <glyph glyph-name="uni0452" unicode="&#x452;" horiz-adv-x="585" 
d="M397 402q131 0 133 -134v-280q0 -58 -25 -108t-69 -83l-47 37q56 69 56 154v257q0 44 -19.5 62.5t-65.5 18.5q-67 0 -173 -65v-261h-85v487h-75v56h75v157h86v-157h186v-56h-186v-77q0 -44 -5 -86q112 78 214 78z" />
    <glyph glyph-name="uni0453" unicode="&#x453;" horiz-adv-x="462" 
d="M368 741l49 -66l-192 -120l-29 39zM185 489q175 0 255 -8l-3 -60h-217q-31 0 -45 -14.5t-14 -45.5v-361h-84v383q0 106 108 106z" />
    <glyph glyph-name="uni0454" unicode="&#x454;" horiz-adv-x="507" 
d="M457 69l8 -60q-65 -19 -170 -19q-132 0 -185.5 56t-53.5 195q0 141 53.5 196.5t185.5 55.5q105 0 165 -17l-8 -59q-87 5 -157 5q-79 0 -112.5 -30.5t-38.5 -111.5h248v-64h-249q4 -89 37 -121.5t115 -32.5q78 0 162 7z" />
    <glyph glyph-name="uni0455" unicode="&#x455;" horiz-adv-x="511" 
d="M242 499q116 -2 204 -15l-6 -62q-155 5 -186 5q-74 1 -97 -9t-23 -53q0 -35 15.5 -48t55.5 -22l142 -32q60 -15 86.5 -44.5t26.5 -89.5q0 -85 -47 -112.5t-161 -27.5q-102 0 -190 14l6 62q84 -5 167 -4q85 0 114 13t29 55q0 33 -17.5 45.5t-58.5 22.5l-140 32
q-60 14 -85 45t-25 91q0 81 42.5 108.5t147.5 25.5z" />
    <glyph glyph-name="uni0456" unicode="&#x456;" horiz-adv-x="251" 
d="M146 694q25 0 25 -26v-57q0 -26 -25 -26h-40q-26 0 -26 26v57q0 26 26 26h40zM168 487v-487h-85v487h85z" />
    <glyph glyph-name="uni0457" unicode="&#x457;" horiz-adv-x="251" 
d="M51 690q23 0 23 -24v-55q0 -24 -23 -24h-29q-23 0 -23 24v55q0 24 23 24h29zM228 690q24 0 24 -24v-55q0 -24 -24 -24h-28q-24 0 -24 24v55q0 24 24 24h28zM168 487v-487h-85v487h85z" />
    <glyph glyph-name="uni0458" unicode="&#x458;" horiz-adv-x="252" 
d="M146 694q26 0 26 -26v-57q0 -26 -26 -26h-40q-25 0 -25 26v57q0 26 25 26h40zM169 487v-499q0 -58 -25 -108t-69 -83l-47 37q55 68 55 154v499h86z" />
    <glyph glyph-name="uni0459" unicode="&#x459;" horiz-adv-x="803" 
d="M567 301q110 0 151 -33.5t41 -120.5q0 -90 -42 -121.5t-144 -31.5q-122 0 -196 6v422h-82q-28 0 -41 -11t-16 -37q-13 -120 -23 -175.5t-30 -100.5q-40 -101 -150 -101l-7 58q57 22 79 64q21 40 29.5 87.5t23.5 182.5q9 98 112 98h186v-186h109zM560 61q65 0 89 17t24 72
q0 50 -22.5 69.5t-83.5 19.5h-109v-177q30 -1 102 -1z" />
    <glyph glyph-name="uni045A" unicode="&#x45a;" horiz-adv-x="810" 
d="M575 300q110 0 151 -33t41 -120q0 -88 -40.5 -120.5t-138.5 -32.5q-128 0 -204 6v238h-226v-238h-78v487h78v-188h226v188h80v-187h111zM575 61q60 0 83 18t23 71q0 50 -22 69t-84 19h-111v-176q30 -1 111 -1z" />
    <glyph glyph-name="uni045B" unicode="&#x45b;" horiz-adv-x="585" 
d="M397 402q133 0 133 -134v-268h-85v245q0 44 -19.5 62.5t-65.5 18.5q-67 0 -173 -65v-261h-85v487h-75v56h75v157h86v-157h186v-56h-186v-77q0 -44 -5 -86q112 78 214 78z" />
    <glyph glyph-name="uni045C" unicode="&#x45c;" horiz-adv-x="536" 
d="M429 675l-192 -120l-29 39l172 147zM302 252q27 -2 48 -9t39 -24t30 -32t28 -49.5t25.5 -59.5t29.5 -78h-89q-51 133 -82.5 176t-98.5 44h-72q4 -21 4 -47v-173h-85v487h85v-145q0 -26 -5 -56h68q65 0 98 44.5t75 156.5h88q-12 -33 -17.5 -46.5t-16 -39.5t-16.5 -36.5
t-16 -29.5t-18 -27t-20 -19.5t-23.5 -17t-26.5 -10t-32 -6.5v-3z" />
    <glyph glyph-name="uni045D" unicode="&#x45d;" horiz-adv-x="587" 
d="M175 733l172 -146l-29 -39l-192 120zM507 487v-487h-77v323q0 12 1.5 35.5t1.5 29.5h-2q-11 -27 -34 -57l-248 -331h-70v487h77v-323q0 -29 -3 -65h2q16 33 35 56l248 332h69z" />
    <glyph glyph-name="uni045E" unicode="&#x45e;" horiz-adv-x="532" 
d="M263 564q-72 0 -113.5 39t-37.5 99h65q0 -43 22.5 -66.5t63.5 -23.5q40 0 62 23.5t22 66.5h65q4 -60 -37 -99t-112 -39zM420 487h91l-194 -514q-39 -102 -92 -142q-64 -48 -181 -32l8 59q79 -4 117 22q41 29 68 99l9 21h-19q-23 0 -31 22l-176 465h91l129 -363
q11 -33 18 -59h14l20 59z" />
    <glyph glyph-name="uni045F" unicode="&#x45f;" horiz-adv-x="580" 
d="M415 487h85v-487h-175l-7 -165h-57l-8 165h-173v487h84l1 -419h249z" />
    <glyph glyph-name="uni0462" unicode="&#x462;" horiz-adv-x="620" 
d="M360 412q128 0 177.5 -47t49.5 -165q0 -120 -48 -164t-166 -44q-157 0 -244 8h-3v547h-116v64h116v119h88v-119h239v-64h-239v-135h146zM360 69q83 0 110.5 26t27.5 106q0 78 -27.5 107.5t-110.5 29.5h-146v-268q39 -1 146 -1z" />
    <glyph glyph-name="uni0463" unicode="&#x463;" horiz-adv-x="533" 
d="M294 298q112 0 154 -33t42 -119q0 -87 -41 -119.5t-141 -32.5q-132 0 -209 6h-2v459h-92v57h92v174h82v-174h172v-57h-172v-161h115zM294 61q62 0 85.5 17.5t23.5 70.5q0 49 -22.5 67.5t-86.5 18.5h-115v-173q31 -1 115 -1z" />
    <glyph glyph-name="uni046A" unicode="&#x46a;" horiz-adv-x="858" 
d="M7 0q76 190 105 242q48 84 117 110q50 19 132 19v4l-254 269q-14 14 -7 30t27 16h600q20 0 27.5 -16t-6.5 -30l-251 -269v-4q40 0 70.5 -3.5t57 -14t45.5 -22t38.5 -35t33.5 -46t32 -61t32.5 -74.5t36.5 -92q6 -15 9 -23h-92q-29 80 -47 125.5t-40.5 85t-38 56.5
t-43 29.5t-53 14.5t-70.5 2q3 -42 3 -73v-240h-84v240q0 17 4 73q-45 0 -71 -2t-53.5 -14.5t-43 -29.5t-37.5 -56.5t-40 -85t-47 -125.5h-92zM429 407l202 216h-409z" />
    <glyph glyph-name="uni046B" unicode="&#x46b;" horiz-adv-x="684" 
d="M6 0q60 145 85 182q37 56 101 71q30 7 77 8v4l-189 181q-12 13 -6.5 27t22.5 14h488q17 0 23.5 -13.5t-6.5 -26.5l-185 -182v-4q111 -3 150.5 -46t106.5 -204q3 -7 5 -11h-90q-23 56 -35.5 85.5t-29 57.5t-27 39t-30 20t-37 10.5t-49.5 1.5q3 -28 3 -51v-163h-82v163
q0 8 1.5 27t1.5 24q-32 0 -49.5 -1.5t-37 -10.5t-30 -20t-27 -39t-29.5 -57.5t-36 -85.5h-89zM342 286l145 140h-293z" />
    <glyph glyph-name="uni0472" unicode="&#x472;" 
d="M334 703q152 0 212 -78.5t60 -279.5t-60 -279.5t-212 -78.5t-212.5 78.5t-60.5 279.5t60.5 279.5t212.5 78.5zM334 624q-96 0 -135.5 -53t-43.5 -188h358q-4 135 -43.5 188t-135.5 53zM334 66q97 0 136.5 54.5t43.5 194.5h-360q4 -140 43.5 -194.5t136.5 -54.5z" />
    <glyph glyph-name="uni0473" unicode="&#x473;" horiz-adv-x="571" 
d="M286 499q125 0 177 -58t52 -198t-52 -198t-177 -58q-126 0 -178 58t-52 198t52 198t178 58zM286 427q-75 0 -105.5 -33t-34.5 -120h279q-4 87 -34.5 120t-104.5 33zM286 59q76 0 107 35t33 129h-281q2 -94 33 -129t108 -35z" />
    <glyph glyph-name="uni0474" unicode="&#x474;" horiz-adv-x="646" 
d="M260 0q-27 0 -34 25l-209 665h91l163 -547q14 -50 20 -75h27q1 3 21 76l114 452q28 108 146 108q13 0 47 -4l-1 -65q-14 2 -26 2q-35 0 -53 -13t-28 -49l-155 -550q-9 -25 -34 -25h-89z" />
    <glyph glyph-name="uni0475" unicode="&#x475;" horiz-adv-x="549" 
d="M221 0q-20 0 -29 23l-174 465h90l128 -371q1 -3 16 -54h22q3 10 8 25.5t9 27.5l89 293q26 89 120 89q26 0 47 -4v-64q-12 2 -22 2q-29 0 -44.5 -10t-24.5 -38l-120 -361q-7 -23 -31 -23h-84z" />
    <glyph glyph-name="uni048A" unicode="&#x48a;" horiz-adv-x="719" 
d="M350 745q-72 0 -113.5 39t-37.5 99h65q0 -43 22.5 -66.5t63.5 -23.5q40 0 62 23.5t22 66.5h65q4 -60 -37 -99t-112 -39zM604 48l73 -23l-5 -66l-29 -69h-76l28 110h-76v503q0 47 5 79h-5q-14 -34 -36 -75l-306 -507h-90v690h85v-498q0 -37 -5 -82h4q15 33 39 75l303 505
h91v-642z" />
    <glyph glyph-name="uni048B" unicode="&#x48b;" horiz-adv-x="610" 
d="M291 564q-72 0 -113.5 39t-37.5 99h65q0 -43 22.5 -66.5t63.5 -23.5q40 0 62 23.5t22 66.5h65q4 -60 -37 -99t-112 -39zM507 41l61 -22l-5 -58l-29 -66h-69l28 105h-63v323q0 12 1.5 35.5t1.5 29.5h-2q-11 -27 -34 -57l-248 -331h-70v487h77v-323q0 -29 -3 -65h2
q16 33 35 56l248 332h69v-446z" />
    <glyph glyph-name="uni048C" unicode="&#x48c;" horiz-adv-x="621" 
d="M361 412q127 0 176.5 -47t49.5 -165q0 -120 -47.5 -164t-165.5 -44q-158 0 -245 8h-2v514h-116v64h116v112h88v-112h239v-64h-239v-102h146zM361 69q82 0 110 26t28 106q0 78 -28 107.5t-110 29.5h-146v-268q39 -1 146 -1z" />
    <glyph glyph-name="uni048D" unicode="&#x48d;" horiz-adv-x="533" 
d="M294 298q112 0 154 -33t42 -119q0 -87 -41 -119.5t-141 -32.5q-132 0 -209 6h-2v459h-92v57h92v174h82v-174h172v-57h-172v-161h115zM294 61q62 0 85.5 17.5t23.5 70.5q0 49 -22.5 67.5t-86.5 18.5h-115v-173q31 -1 115 -1z" />
    <glyph glyph-name="uni048E" unicode="&#x48e;" horiz-adv-x="602" 
d="M585 246l-34 -36l-81 80q-43 -23 -133 -23q-81 0 -160 9v-276h-88v690q84 9 237 9q126 0 174 -45.5t48 -170.5q0 -116 -38 -162zM325 343q50 0 80 12l-80 79l35 36l82 -82q17 31 17 95q0 82 -28.5 111t-105.5 29q-109 0 -148 -1v-279h148z" />
    <glyph glyph-name="uni048F" unicode="&#x48f;" horiz-adv-x="580" 
d="M527 -70l-40 -29l-69 99q-34 -12 -78 -12q-96 0 -180 50q3 -34 3 -98v-141h-85v688h70l7 -78q39 42 94 66t108 24q87 0 127 -64t40 -194q0 -160 -63 -217zM319 62q29 0 50 6l-65 93l40 29l65 -93q28 38 28 144q0 102 -24.5 143t-83.5 41q-38 0 -75.5 -17.5t-90.5 -56.5
v-260q111 -29 156 -29z" />
    <glyph glyph-name="uni0490" unicode="&#x490;" horiz-adv-x="523" 
d="M445 842h57v-165l-4 -61h-258q-36 0 -52 -16.5t-16 -54.5v-545h-87v561q0 57 35.5 93.5t90.5 36.5q151 0 224 -6z" />
    <glyph glyph-name="uni0491" unicode="&#x491;" horiz-adv-x="464" 
d="M385 633h57v-152l-4 -60h-218q-30 1 -44 -13.5t-14 -46.5v-361h-85v383q0 106 108 106q128 0 191 -3z" />
    <glyph glyph-name="uni0492" unicode="&#x492;" horiz-adv-x="536" 
d="M276 616q-36 0 -52 -16.5t-16 -54.5v-182h214v-64h-214v-299h-87v299h-113v64h113v198q0 57 35.5 93.5t90.5 36.5q196 0 286 -7l-4 -68h-253z" />
    <glyph glyph-name="uni0493" unicode="&#x493;" horiz-adv-x="462" 
d="M220 421q-31 0 -45 -14.5t-14 -45.5v-112h161v-56h-161v-193h-84v193h-82v56h82v134q0 106 108 106q175 0 255 -8l-3 -60h-217z" />
    <glyph glyph-name="uni0494" unicode="&#x494;" horiz-adv-x="587" 
d="M367 442q40 0 69.5 -11t56 -39.5t40.5 -86.5t14 -143q0 -93 -18.5 -157t-54.5 -99.5t-76.5 -52.5t-97.5 -24l-17 61q48 10 77.5 23.5t54 42t35 79t10.5 127.5q0 66 -7.5 107.5t-24 62t-36.5 27.5t-53 7q-76 0 -167 -53v-313h-87v561q0 57 35.5 93.5t90.5 36.5
q190 0 278 -7l-4 -68h-245q-36 0 -52 -16.5t-16 -54.5v-162q93 59 195 59z" />
    <glyph glyph-name="uni0495" unicode="&#x495;" horiz-adv-x="534" 
d="M328 290q35 0 62 -8.5t52 -30.5t38.5 -65.5t13.5 -107.5q0 -76 -18 -130.5t-53 -85.5t-75.5 -47t-96.5 -23l-17 61q93 15 134 65t41 157q0 87 -26 115t-80 28q-67 0 -142 -45v-173h-84v383q0 106 108 106q156 0 228 -8l-3 -60h-190q-31 0 -45 -14.5t-14 -45.5v-125
q80 54 167 54z" />
    <glyph glyph-name="uni0496" unicode="&#x496;" horiz-adv-x="928" 
d="M846 68h76v-178h-83l-4 69h-18v41h-40q-65 175 -83 211q-43 88 -100 106q-20 7 -44 7h-65q6 -37 6 -73v-251h-84v251q0 29 7 73h-71q-51 0 -89 -37t-57.5 -80.5t-60.5 -153.5q-13 -35 -20 -53h-92q64 183 88 231q48 96 116 119q18 6 39 8v4q-33 4 -61 21t-47 40t-38.5 64
t-33.5 77t-34 94q-2 7 -3.5 11t-3.5 10t-4 11h90q57 -157 83 -203q53 -91 127 -92h71q-6 39 -6 79v216h84v-216q0 -48 -6 -79h66q25 0 46 8t39.5 28.5t31.5 38.5t30 56.5t26 62t28 74.5q2 6 3.5 9t3 8.5t3.5 9.5h90q-58 -165 -83 -213q-53 -100 -132 -113q-5 -1 -11 -2v-4
q34 -3 62 -18.5t48 -36.5t40.5 -61t34.5 -76t35 -98z" />
    <glyph glyph-name="uni0497" unicode="&#x497;" horiz-adv-x="812" 
d="M730 68h71v-212h-57l-9 144h-67q-53 134 -73 165q-35 54 -91 56h-4h-71q5 -28 5 -48v-173h-75v173q0 20 5 48h-76q-54 -1 -82 -40.5t-75 -155.5q-6 -16 -10 -25h-87q20 55 28.5 77.5t24.5 59t27 50.5t28.5 31.5t37.5 24.5t46 10v2q-46 5 -78.5 36.5t-47 63t-47.5 120.5
q-3 8 -5 12h85q19 -48 28.5 -70.5t25.5 -53.5t29 -44.5t32.5 -23.5t43.5 -10h72q-5 22 -5 57v145h75v-145q0 -34 -5 -57h67q55 0 85.5 44.5t73.5 157.5h86q-21 -56 -30 -79.5t-26 -59t-32 -50t-38 -27.5t-52 -16v-2q64 -6 97 -46.5t70 -138.5z" />
    <glyph glyph-name="uni0498" unicode="&#x498;" horiz-adv-x="550" 
d="M243 698q128 0 177.5 -37.5t49.5 -142.5q0 -75 -27.5 -113.5t-88.5 -44.5v-4q74 -7 105 -52.5t31 -131.5q0 -104 -48.5 -142t-168.5 -38q-143 0 -236 22l7 64q113 -13 215 -13q81 0 111 24.5t30 97.5q0 79 -32 107.5t-116 28.5h-116v69h116q74 0 102 24t28 92
q0 70 -31 94t-113 24q-60 0 -178 -11l-7 67q89 16 190 16zM228 -43q61 6 86.5 -8t24.5 -57q-1 -63 -48 -97t-119 -24l13 45q41 -1 66.5 18.5t26.5 50.5q1 18 -11 24.5t-48 7.5z" />
    <glyph glyph-name="uni0499" unicode="&#x499;" horiz-adv-x="496" 
d="M443 120q0 -68 -38 -96t-129 -32l-6 -157h-57l-7 156q-88 2 -165 15l7 65q88 -8 180 -8q74 0 100.5 15.5t26.5 59.5q0 45 -27 62t-98 17h-117v62l116 1q66 0 89.5 15.5t23.5 58.5q0 42 -28 55.5t-107 13.5q-86 0 -144 -8l-7 65q63 15 150 15q125 0 172.5 -26.5
t47.5 -103.5q0 -54 -23.5 -81t-79.5 -32v-3q64 -5 92 -36t28 -93z" />
    <glyph glyph-name="uni049A" unicode="&#x49a;" horiz-adv-x="631" 
d="M544 68h81v-178h-80l-4 69h-37l-1 41h-27l-15 42q-18 50 -26.5 73.5t-23.5 60.5t-25.5 53.5t-27 39t-32.5 32t-37 16.5t-46 7h-75q6 -38 6 -73v-251h-87v690h87v-216q0 -42 -6 -79h75q55 0 97 44.5t60.5 88t56.5 152.5q3 7 4 10h90q-60 -171 -89 -222q-52 -94 -132 -105
q-2 -1 -5 -1v-4q25 -2 46 -11t37.5 -20t32.5 -33t27 -40.5t25.5 -53.5t24 -60.5t26.5 -71.5z" />
    <glyph glyph-name="uni049B" unicode="&#x49b;" horiz-adv-x="555" 
d="M476 68h71v-212h-57l-9 144h-68q-51 133 -82.5 176t-98.5 44h-72q4 -21 4 -47v-173h-85v487h85v-145q0 -26 -5 -56h68q65 0 98 44.5t75 156.5h88q-12 -33 -17.5 -46.5t-16 -39.5t-16.5 -36.5t-16 -29.5t-18 -27t-20 -19.5t-23.5 -17t-26.5 -10t-32 -6.5v-3q66 -6 101 -46
t73 -138z" />
    <glyph glyph-name="uni049C" unicode="&#x49c;" horiz-adv-x="591" 
d="M325 358q19 -2 36.5 -8t31.5 -12.5t28 -21.5t23.5 -26t22 -35t19.5 -38t20 -46.5t19.5 -50.5t21 -58.5t22.5 -61.5h-93q-61 172 -83 216q-41 80 -97 100v-150h-57v158h-71q6 -38 6 -73v-251h-87v690h87v-216q0 -42 -6 -79h71v158h57v-148q17 7 32 20t27 26t25 37.5
t21 40.5t21 50.5t19 51.5t20 59h90q-60 -171 -89 -222q-52 -94 -132 -105q-2 -1 -5 -1v-4z" />
    <glyph glyph-name="uni049D" unicode="&#x49d;" horiz-adv-x="536" 
d="M302 252q27 -2 48 -9t39 -24t30 -32t28 -49.5t25.5 -59.5t29.5 -78h-89q-16 43 -23.5 60.5t-20 47t-21 42t-20.5 28.5t-24.5 23.5t-28.5 12.5v-99h-50v105h-65q4 -21 4 -47v-173h-85v487h85v-145q0 -26 -5 -56h66v109h50v-101q28 10 51 39.5t36.5 60t37.5 93.5h88
q-12 -33 -17.5 -46.5t-16 -39.5t-16.5 -36.5t-16 -29.5t-18 -27t-20 -19.5t-23.5 -17t-26.5 -10t-32 -6.5v-3z" />
    <glyph glyph-name="uni049E" unicode="&#x49e;" horiz-adv-x="644" 
d="M378 358q19 -2 36.5 -8t31.5 -12.5t28 -21.5t23.5 -26t22 -35t19.5 -38t20 -46.5t19.5 -50.5t21 -58.5t22.5 -61.5h-93l-15 42q-18 50 -26.5 73.5t-23.5 60.5t-25.5 53.5t-27 39t-32.5 32t-37 16.5t-46 7h-75q6 -37 6 -73v-251h-87v526h-131v64h131v100h87v-100h132v-64
h-132v-52q0 -42 -6 -79h75q55 0 97 44.5t60.5 88t56.5 152.5q3 7 4 10h90q-60 -171 -89 -222q-52 -94 -132 -105q-2 -1 -5 -1v-4z" />
    <glyph glyph-name="uni049F" unicode="&#x49f;" horiz-adv-x="537" 
d="M302 252q27 -2 48 -9t39 -24t30 -32t28 -49.5t25.5 -59.5t29.5 -78h-89q-51 133 -82.5 176t-98.5 44h-72q4 -21 4 -47v-173h-85v544h-75v57h75v89h85v-89h179v-57h-179v-202q0 -26 -5 -56h68q65 0 98 44.5t75 156.5h88q-12 -33 -17.5 -46.5t-16 -39.5t-16.5 -36.5
t-16 -29.5t-18 -27t-20 -19.5t-23.5 -17t-26.5 -10t-32 -6.5v-3z" />
    <glyph glyph-name="uni04A0" unicode="&#x4a0;" horiz-adv-x="730" 
d="M465 358q19 -2 36.5 -8t31.5 -12.5t28 -21.5t23.5 -26t22 -35t19.5 -38t20 -46.5t19.5 -50.5t21 -58.5t22.5 -61.5h-93l-15 42q-18 50 -26.5 73.5t-23.5 60.5t-25.5 53.5t-27 39t-32.5 32t-37 16.5t-46 7h-75q6 -37 6 -73v-251h-87v618h-153v66h153v6h87v-216
q0 -42 -6 -79h75q55 0 97 44.5t60.5 88t56.5 152.5q3 7 4 10h90q-60 -171 -89 -222q-52 -94 -132 -105q-2 -1 -5 -1v-4z" />
    <glyph glyph-name="uni04A1" unicode="&#x4a1;" horiz-adv-x="629" 
d="M395 252q23 -2 42 -9t33.5 -15t29 -27.5t23.5 -32.5t23.5 -46.5t22.5 -54t26 -67.5h-90q-51 133 -82.5 176t-98.5 44h-72q4 -21 4 -47v-173h-84v419h-172v68h256v-145q0 -26 -5 -56h68q35 0 60 12t45.5 43t33.5 59.5t35 86.5h87q-18 -48 -26 -68t-23 -53t-26 -46.5
t-28.5 -30.5t-37 -24t-44.5 -10v-3z" />
    <glyph glyph-name="uni04A2" unicode="&#x4a2;" horiz-adv-x="688" 
d="M584 68h84v-178h-83l-4 69h-62v41h-23v331h-318v-331h-88v690h88v-283h318v283h88v-622z" />
    <glyph glyph-name="uni04A3" unicode="&#x4a3;" horiz-adv-x="589" 
d="M503 68h65v-212h-56l-9 144h-84v226h-256v-226h-84v487h84v-196h256v196h84v-419z" />
    <glyph glyph-name="uni04A4" unicode="&#x4a4;" horiz-adv-x="863" 
d="M596 691q169 0 247 -7l-5 -68h-213q-35 0 -51 -16.5t-16 -54.5v-545h-88v331h-295v-331h-88v690h88v-283h295v154q0 57 35.5 93.5t90.5 36.5z" />
    <glyph glyph-name="uni04A5" unicode="&#x4a5;" horiz-adv-x="762" 
d="M514 489q156 0 226 -8l-3 -60h-188q-58 0 -58 -60v-361h-85v226h-243v-226h-84v487h84v-196h243v92q0 106 108 106z" />
    <glyph glyph-name="uni04A6" unicode="&#x4a6;" horiz-adv-x="998" 
d="M777 442q40 0 69.5 -11t56.5 -39.5t41 -86.5t14 -143q0 -73 -13 -128t-34.5 -89.5t-54.5 -58t-67 -34t-79 -16.5l-17 62q48 9 77.5 22t54 41t35 77t10.5 124q0 87 -14.5 132.5t-38.5 58.5t-68 13q-72 0 -166 -52v-314h-89v618h-319v-618h-88v690h496v-307q92 59 194 59z
" />
    <glyph glyph-name="uni04A7" unicode="&#x4a7;" horiz-adv-x="880" 
d="M674 353q77 0 125.5 -52.5t48.5 -178.5q0 -299 -248 -330l-17 61q93 16 136 76t43 192q0 89 -29 123t-87 34q-71 0 -150 -52v-226h-84v418h-250v-418h-83v487h417v-191q83 57 178 57z" />
    <glyph glyph-name="uni04A8" unicode="&#x4a8;" horiz-adv-x="852" 
d="M839 16q-54 -28 -152 -28q-78 0 -145 32q-73 -32 -163 -32q-151 0 -234.5 87.5t-83.5 273.5q0 192 65 273.5t205 81.5v-75q-96 0 -137 -62t-41 -225q0 -149 64.5 -214t182.5 -65q38 0 70 7q-116 109 -116 344q0 146 50 216t155 70t155 -68t50 -207q0 -242 -139 -356
q29 -7 64 -7q78 0 142 11zM446 407q0 -227 106 -305q120 78 120 312q0 107 -26.5 157t-85.5 50q-60 0 -87 -51.5t-27 -162.5z" />
    <glyph glyph-name="uni04A9" unicode="&#x4a9;" horiz-adv-x="695" 
d="M698 27q-46 -36 -138 -36q-63 0 -117 27q-65 -27 -139 -27q-128 0 -188.5 65.5t-60.5 204.5q0 129 52.5 183.5t166.5 54.5v-63q-69 0 -101 -42t-32 -133q0 -109 43.5 -157.5t136.5 -48.5q30 0 60 6q-92 87 -92 234q0 205 170 205q169 0 169 -204q0 -152 -116 -238
q22 -7 49 -7q78 0 124 19zM372 294q0 -141 80 -205q96 59 96 206q0 75 -21 107t-68 32q-46 0 -66.5 -33t-20.5 -107z" />
    <glyph glyph-name="uni04AA" unicode="&#x4aa;" horiz-adv-x="570" 
d="M534 11q-72 -20 -167 -23l-4 -139h-60l-4 140q-130 8 -184 89t-54 267q0 197 61 277t210 80q107 0 188 -20l-9 -67q-90 9 -179 9q-101 0 -139.5 -60.5t-38.5 -218.5t38.5 -218.5t139.5 -60.5q116 0 193 11z" />
    <glyph glyph-name="uni04AB" unicode="&#x4ab;" horiz-adv-x="489" 
d="M452 13q-61 -22 -143 -25l-6 -153h-57l-7 155q-100 9 -142.5 67.5t-42.5 186.5q0 141 52.5 198t179.5 57q96 0 157 -23l-11 -55q-66 6 -132 6q-88 0 -122 -39t-34 -144q0 -106 34 -145t122 -39q80 0 143 10z" />
    <glyph glyph-name="uni04AC" unicode="&#x4ac;" horiz-adv-x="581" 
d="M557 612h-223v-544h83v-178h-83l-4 69h-62v41h-22v612h-222v78h533v-78z" />
    <glyph glyph-name="uni04AD" unicode="&#x4ad;" horiz-adv-x="485" 
d="M465 420h-180v-352h65v-212h-56l-9 144h-86v420h-179v67h445v-67z" />
    <glyph glyph-name="uni04AE" unicode="&#x4ae;" horiz-adv-x="569" 
d="M557 690l-229 -448v-242h-88v244l-229 446h94l145 -291q12 -24 31 -78h7q16 44 31 77l145 292h93z" />
    <glyph glyph-name="uni04AF" unicode="&#x4af;" horiz-adv-x="582" 
d="M564 487l-229 -446v-242h-87v242l-230 446h93l145 -289q5 -11 10.5 -24t12 -29t9.5 -24h7q23 60 31 77l145 289h93z" />
    <glyph glyph-name="uni04B0" unicode="&#x4b0;" horiz-adv-x="553" 
d="M561 690l-212 -415h135v-52h-152v-223h-88v223h-148v52h132l-213 415h94l145 -291q12 -24 31 -78h7q16 44 31 77l145 292h93z" />
    <glyph glyph-name="uni04B1" unicode="&#x4b1;" horiz-adv-x="582" 
d="M564 487l-212 -413h133v-56h-150v-219h-87v219h-151v56h134l-213 413h93l145 -289q5 -11 10.5 -24t12 -29t9.5 -24h7q23 60 31 77l145 289h93z" />
    <glyph glyph-name="uni04B2" unicode="&#x4b2;" horiz-adv-x="659" 
d="M549 68h106v-178h-76l-5 69h-68v41h-16l-172 324h-25l-172 -324h-96l194 357l-181 333h95l158 -298h29l158 298h95l-182 -333z" />
    <glyph glyph-name="uni04B3" unicode="&#x4b3;" horiz-adv-x="532" 
d="M461 68h64v-212h-57l-9 144h-46l-139 220h-20l-138 -220h-93l163 251l-151 236h92l125 -201h24l125 201h92l-151 -236z" />
    <glyph glyph-name="uni04B4" unicode="&#x4b4;" horiz-adv-x="817" 
d="M713 72h84v-223h-60l-9 151h-510v612h-194v78h501v-78h-219v-540h319v618h88v-618z" />
    <glyph glyph-name="uni04B5" unicode="&#x4b5;" horiz-adv-x="709" 
d="M436 487v-67h-419v67h419zM624 7h63v-153h-60l-9 146h-430v363h189v-167h161v291h86v-480z" />
    <glyph glyph-name="uni04B6" unicode="&#x4b6;" horiz-adv-x="646" 
d="M626 61v-61h-7l-1 -108l-55 -43l-5 115l51 36h-159v310q-115 -59 -233 -59q-81 0 -120 38.5t-39 117.5v283h89v-265q-1 -51 22.5 -74t77.5 -23q94 0 203 53v309h88v-629h88z" />
    <glyph glyph-name="uni04B7" unicode="&#x4b7;" horiz-adv-x="544" 
d="M451 68h68v-212h-57l-9 144h-86v205q-100 -36 -190 -36q-122 0 -122 107v211h84v-183q0 -36 15 -50.5t51 -14.5q81 0 162 34v214h86z" />
    <glyph glyph-name="uni04B8" unicode="&#x4b8;" horiz-adv-x="624" 
d="M449 690h88v-690h-88v315q-56 -31 -122 -49v-146h-56v135q-28 -4 -59 -4q-154 0 -154 156v283h88v-265q0 -50 22.5 -72.5t74.5 -22.5q19 0 28 1v179h56v-172q54 12 122 45v307z" />
    <glyph glyph-name="uni04B9" unicode="&#x4b9;" horiz-adv-x="531" 
d="M367 487h85v-487h-85v205q-38 -14 -89 -25v-104h-49v96q-28 -3 -52 -3q-122 0 -122 107v211h84v-183q0 -36 15 -50.5t51 -14.5q16 0 24 1v136h49v-131q40 7 89 28v214z" />
    <glyph glyph-name="uni04BA" unicode="&#x4ba;" horiz-adv-x="613" 
d="M408 439q80 0 119 -38.5t39 -117.5v-283h-88v265q1 51 -22.5 74t-77.5 23q-100 0 -203 -53v-309h-88v690h88v-310q112 59 233 59z" />
    <glyph glyph-name="uni04BB" unicode="&#x4bb;" horiz-adv-x="581" 
d="M374 499q132 0 132 -134v-365h-86v341q0 48 -15.5 67t-53.5 19q-41 0 -82.5 -18t-105.5 -58v-351h-85v700h85l1 -193q0 -56 -6 -95q120 87 216 87z" />
    <glyph glyph-name="uni04BC" unicode="&#x4bc;" horiz-adv-x="724" 
d="M478 66q88 0 171 13l8 -65q-70 -26 -197 -26q-82 0 -135.5 18t-86.5 59t-47.5 100t-16.5 148h-11q-85 0 -121.5 41t-26.5 132h71q-16 -102 75 -102h13q5 180 65 249.5t208 69.5q119 0 178 -52.5t59 -163.5q0 -92 -44.5 -133t-148.5 -41h-225q3 -105 26 -158.5t64.5 -71
t121.5 -17.5zM442 626q-93 0 -132 -52t-43 -190h204q65 0 93 25t28 82q0 71 -36.5 103t-113.5 32z" />
    <glyph glyph-name="uni04BD" unicode="&#x4bd;" horiz-adv-x="620" 
d="M381 60q83 0 169 12l9 -57q-65 -27 -189 -27q-117 0 -171 49t-61 165q-78 3 -110.5 43t-20.5 126l63 -1q-7 -56 8 -77.5t59 -24.5q4 127 56.5 179t167.5 52q109 0 159 -39.5t50 -119.5q2 -138 -116 -138h-226q6 -84 40 -113t113 -29zM365 427q-76 0 -106.5 -34
t-32.5 -125h206q53 0 53 72q-1 47 -28 67t-92 20z" />
    <glyph glyph-name="uni04BE" unicode="&#x4be;" horiz-adv-x="724" 
d="M649 79l8 -65q-60 -23 -179 -26l-4 -139h-60l-5 141q-129 11 -180 85.5t-55 237.5h-11q-85 0 -121.5 41t-26.5 132h71q-16 -102 75 -102h13q5 180 65 249.5t208 69.5q119 0 178 -52.5t59 -163.5q0 -92 -44.5 -133t-148.5 -41h-225q3 -105 26 -158.5t64.5 -71t121.5 -17.5
q88 0 171 13zM442 626q-93 0 -132 -52t-43 -190h204q65 0 93 25t28 82q0 71 -36.5 103t-113.5 32z" />
    <glyph glyph-name="uni04BF" unicode="&#x4bf;" horiz-adv-x="620" 
d="M550 72l9 -57q-54 -22 -160 -26l-6 -154h-57l-7 155q-95 8 -139.5 57.5t-51.5 154.5q-78 3 -110.5 43t-20.5 126l63 -1q-7 -56 8 -77.5t59 -24.5q4 127 56.5 179t167.5 52q109 0 159 -39.5t50 -119.5q2 -138 -116 -138h-226q6 -84 40 -113t113 -29q83 0 169 12zM365 427
q-76 0 -106.5 -34t-32.5 -125h206q53 0 53 72q-1 47 -28 67t-92 20z" />
    <glyph glyph-name="uni04C0" unicode="&#x4c0;" horiz-adv-x="268" 
d="M178 690v-690h-88v690h88z" />
    <glyph glyph-name="uni04C1" unicode="&#x4c1;" horiz-adv-x="908" 
d="M456 744q-72 0 -113.5 39t-37.5 99h65q0 -43 22.5 -66.5t63.5 -23.5q40 0 62 23.5t22 66.5h65q4 -60 -37 -99t-112 -39zM633 358q36 -3 65.5 -21.5t48.5 -38t42.5 -70t35.5 -82t39 -109.5q9 -24 13 -37h-93q-65 175 -83 211q-43 88 -100 106q-20 7 -44 7h-65q6 -37 6 -73
v-251h-84v251q0 29 7 73h-71q-51 0 -89 -37t-57.5 -80.5t-60.5 -153.5q-13 -35 -20 -53h-92q64 183 88 231q48 96 116 119q18 6 39 8v4q-33 4 -61 21t-47 40t-38.5 64t-33.5 77t-34 94q-2 7 -3.5 11t-3.5 10t-4 11h90q57 -157 83 -203q53 -91 127 -92h71q-6 39 -6 79v216h84
v-216q0 -48 -6 -79h66q25 0 46 8t39.5 28.5t31.5 38.5t30 56.5t26 62t28 74.5q2 6 3.5 9t3 8.5t3.5 9.5h90q-58 -165 -83 -213q-53 -100 -132 -113q-5 -1 -11 -2v-4z" />
    <glyph glyph-name="uni04C2" unicode="&#x4c2;" horiz-adv-x="789" 
d="M396 564q-72 0 -113.5 39t-37.5 99h65q0 -43 22.5 -66.5t63.5 -23.5q40 0 62 23.5t22 66.5h65q4 -60 -37 -99t-112 -39zM563 253q26 -3 46 -10t37.5 -24.5t28.5 -31.5t27 -50.5t24.5 -59t28.5 -77.5h-87q-53 134 -73 165q-35 54 -91 56h-4h-71q5 -28 5 -48v-173h-75v173
q0 20 5 48h-76q-54 -1 -82 -40.5t-75 -155.5q-6 -16 -10 -25h-87q20 55 28.5 77.5t24.5 59t27 50.5t28.5 31.5t37.5 24.5t46 10v2q-46 5 -78.5 36.5t-47 63t-47.5 120.5q-3 8 -5 12h85q19 -48 28.5 -70.5t25.5 -53.5t29 -44.5t32.5 -23.5t43.5 -10h72q-5 22 -5 57v145h75
v-145q0 -34 -5 -57h67q55 0 85.5 44.5t73.5 157.5h86q-21 -56 -30 -79.5t-26 -59t-32 -50t-38 -27.5t-52 -16v-2z" />
    <glyph glyph-name="uni04C3" unicode="&#x4c3;" horiz-adv-x="595" 
d="M324 359q72 -3 123.5 -45.5t73.5 -98.5t22 -115q0 -133 -58 -201t-189 -66v66q49 1 81 16t47.5 43.5t21 59t5.5 74.5q0 112 -55.5 171t-152.5 59h-76q7 -60 7 -71v-251h-87v690h87v-216q0 -42 -6 -79h75q34 0 62 15t47 36.5t39 63t33 76t33 92.5q3 8 4 12h90
q-60 -171 -90 -224q-55 -94 -137 -104v-3z" />
    <glyph glyph-name="uni04C4" unicode="&#x4c4;" horiz-adv-x="540" 
d="M302 252q38 -4 70.5 -16t61.5 -35t46 -62.5t17 -92.5q0 -95 -57.5 -151.5t-175.5 -58.5v62q85 5 114.5 42.5t29.5 105.5q0 82 -50 127.5t-126 46.5h-72q4 -21 4 -47v-173h-85v487h85v-145q0 -26 -5 -56h68q65 0 98 44.5t75 156.5h88q-12 -33 -17.5 -46.5t-16 -39.5
t-16.5 -36.5t-16 -29.5t-18 -27t-20 -19.5t-23.5 -17t-26.5 -10t-32 -6.5v-3z" />
    <glyph glyph-name="uni04C5" unicode="&#x4c5;" horiz-adv-x="656" 
d="M556 46l73 20l-18 -66l-37 -104h-31l30 105l-91 -42l-3 41h-11v618h-138q-68 0 -74 -70q-13 -148 -19 -201t-19 -113t-34 -104q-60 -131 -174 -131l-8 68q69 21 99 87q28 63 41 139.5t28 270.5q12 126 137 126h249v-644z" />
    <glyph glyph-name="uni04C6" unicode="&#x4c6;" horiz-adv-x="578" 
d="M482 43l70 20l-11 -63l-38 -100h-36l29 100l-77 -39l-3 39h-19v420h-106q-31 0 -44.5 -13.5t-18.5 -47.5q-24 -194 -47 -256q-37 -107 -153 -108l-9 65q39 9 57 24.5t29 43.5q24 61 43 245q7 58 37 86t90 28h207v-444z" />
    <glyph glyph-name="uni04C7" unicode="&#x4c7;" horiz-adv-x="671" 
d="M493 690h88v-641q0 -119 -60.5 -175.5t-173.5 -41.5v65q85 0 115.5 34t30.5 118v282h-318v-331h-88v690h88v-283h318v283z" />
    <glyph glyph-name="uni04C8" unicode="&#x4c8;" horiz-adv-x="582" 
d="M419 487h84v-446q0 -115 -55.5 -169t-158.5 -40v58q76 0 103 34t27 118v184h-256v-226h-84v487h84v-196h256v196z" />
    <glyph glyph-name="uni04C9" unicode="&#x4c9;" horiz-adv-x="684" 
d="M581 46l73 20l-17 -66l-37 -104h-32l30 105l-90 -42l-4 41h-11v331h-318v-331h-88v690h88v-283h318v283h88v-644z" />
    <glyph glyph-name="uni04CA" unicode="&#x4ca;" horiz-adv-x="598" 
d="M503 46l70 20l-12 -66l-37 -100h-37l30 100l-78 -39l-3 39h-17v226h-256v-226h-84v487h84v-196h256v196h84v-441z" />
    <glyph glyph-name="uni04CB" unicode="&#x4cb;" horiz-adv-x="616" 
d="M525 690v-690h-23l-3 -41l-89 22l-27 -91l-56 6l24 100l-24 6l7 66l104 -26v274q-115 -65 -237 -65q-79 0 -116.5 38t-37.5 118v283h88v-265q-1 -50 22 -72.5t75 -22.5q95 0 206 54v306h87z" />
    <glyph glyph-name="uni04CC" unicode="&#x4cc;" horiz-adv-x="532" 
d="M367 487h85v-487h-86l-9 -144h-57v212h67v137q-100 -36 -190 -36q-122 0 -122 107v211h84v-183q0 -36 15 -50.5t51 -14.5q81 0 162 34v214z" />
    <glyph glyph-name="uni04CD" unicode="&#x4cd;" horiz-adv-x="895" 
d="M802 48l74 -23l-5 -66l-30 -69h-72l28 110h-81l-25 617h-21l-154 -509q-8 -30 -38 -30h-79q-31 0 -40 30l-154 509h-20l-24 -617h-88l27 653q2 37 37 37h100q28 0 37 -30l129 -421q6 -18 15.5 -53.5t10.5 -39.5h18q3 11 11.5 43.5t14.5 51.5l129 419q8 30 38 30h99
q36 0 36 -37z" />
    <glyph glyph-name="uni04CE" unicode="&#x4ce;" horiz-adv-x="755" 
d="M677 46l67 20l-12 -66l-37 -100h-37l30 100l-70 -39l-4 39h-14l-19 422h-17l-124 -341q-9 -28 -34 -28h-66q-25 0 -34 28l-124 341h-17l-18 -422h-78l20 455q0 32 33 32h88q25 0 33 -28l101 -280q10 -28 21 -70h16q14 49 21 70l101 280q9 28 34 28h89q32 0 32 -32z" />
    <glyph glyph-name="uni04CF" unicode="&#x4cf;" horiz-adv-x="249" 
d="M167 690v-690h-85v690h85z" />
    <glyph glyph-name="uni04D0" unicode="&#x4d0;" horiz-adv-x="622" 
d="M315 744q-72 0 -113.5 39t-37.5 99h65q0 -43 22.5 -66.5t63.5 -23.5q40 0 62 23.5t22 66.5h65q4 -60 -37 -99t-112 -39zM521 0l-68 216h-284l-68 -216h-91l222 666q6 24 33 24h92q27 0 33 -24l222 -666h-91zM193 292h236l-87 274q-9 26 -17 56h-28q-8 -30 -17 -56z" />
    <glyph glyph-name="uni04D1" unicode="&#x4d1;" horiz-adv-x="552" 
d="M275 568q-72 0 -113.5 39t-37.5 99h65q0 -43 22.5 -66.5t63.5 -23.5q40 0 62 23.5t22 66.5h65q4 -60 -37 -99t-112 -39zM310 499q85 0 125.5 -35.5t40.5 -120.5v-343h-67l-10 80q-34 -35 -87 -62t-114 -27q-67 0 -106 35.5t-39 100.5v53q0 57 35.5 88.5t99.5 31.5h203v43
q-1 46 -22 65t-77 19q-71 0 -210 -13l-8 63q136 22 236 22zM215 64q39 -1 87 18.5t89 55.5v98l-188 -1q-64 -3 -64 -67v-31q0 -38 18.5 -55.5t57.5 -17.5z" />
    <glyph glyph-name="uni04D2" unicode="&#x4d2;" horiz-adv-x="622" 
d="M211 767q-24 0 -24 24v55q0 24 24 24h29q23 0 23 -24v-55q0 -24 -23 -24h-29zM388 767q-24 0 -24 24v55q0 24 24 24h29q23 0 23 -24v-55q0 -24 -23 -24h-29zM521 0l-68 216h-284l-68 -216h-91l222 666q6 24 33 24h92q27 0 33 -24l222 -666h-91zM193 292h236l-87 274
q-9 26 -17 56h-28q-8 -30 -17 -56z" />
    <glyph glyph-name="uni04D3" unicode="&#x4d3;" horiz-adv-x="552" 
d="M170 591q-23 0 -23 24v55q0 24 23 24h29q23 0 23 -24v-55q0 -24 -23 -24h-29zM348 591q-24 0 -24 24v55q0 24 24 24h28q24 0 24 -24v-55q0 -24 -24 -24h-28zM310 499q85 0 125.5 -35.5t40.5 -120.5v-343h-67l-10 80q-34 -35 -87 -62t-114 -27q-67 0 -106 35.5t-39 100.5
v53q0 57 35.5 88.5t99.5 31.5h203v43q-1 46 -22 65t-77 19q-71 0 -210 -13l-8 63q136 22 236 22zM215 64q39 -1 87 18.5t89 55.5v98l-188 -1q-64 -3 -64 -67v-31q0 -38 18.5 -55.5t57.5 -17.5z" />
    <glyph glyph-name="uni04D4" unicode="&#x4d4;" horiz-adv-x="913" 
d="M604 74h255l3 -69q-95 -6 -293 -6q-52 0 -84 33.5t-32 86.5v106h-232l-130 -225h-92l343 582q35 63 83.5 86t141.5 23q189 0 295 -6l-3 -70h-255q-31 0 -49.5 -18.5t-18.5 -50.5v-145l283 -1v-71l-283 -1v-187q0 -67 68 -67zM263 298h190v260q0 21 9.5 42t22.5 30h-8
q-29 -16 -58 -63z" />
    <glyph glyph-name="uni04D5" unicode="&#x4d5;" horiz-adv-x="871" 
d="M632 60q83 0 170 12l8 -57q-64 -27 -189 -27q-84 0 -134 25t-74 81q-33 -39 -91 -71t-125 -32t-106.5 35.5t-39.5 100.5v53q0 57 35.5 88.5t99.5 31.5h203v43q0 46 -21 65t-78 19q-72 0 -209 -13l-8 63q134 22 235 22q102 0 139 -50q50 50 165 50q109 0 159 -39.5
t51 -119.5q0 -138 -127 -138h-216q6 -84 40 -113t113 -29zM616 427q-76 0 -106.5 -34t-32.5 -125h196q65 0 63 72q0 46 -27.5 66.5t-92.5 20.5zM214 64q40 -1 91 19.5t93 59.5q-9 41 -9 93l-188 -1q-34 -1 -48.5 -18t-14.5 -49v-31q0 -38 18 -55.5t58 -17.5z" />
    <glyph glyph-name="uni04D6" unicode="&#x4d6;" horiz-adv-x="560" 
d="M305 744q-72 0 -113.5 39t-37.5 99h65q0 -43 22.5 -66.5t63.5 -23.5q40 0 62 23.5t22 66.5h65q4 -60 -37 -99t-112 -39zM228 73h277l4 -68q-92 -6 -295 -6q-62 0 -97.5 32.5t-35.5 87.5v452q0 55 36 87.5t97 32.5q203 0 295 -6l-4 -69h-277q-31 0 -45 -16t-14 -50v-150
h297v-71h-297v-189q0 -35 14 -51t45 -16z" />
    <glyph glyph-name="uni04D7" unicode="&#x4d7;" horiz-adv-x="540" 
d="M281 564q-72 0 -113.5 39t-37.5 99h65q0 -43 22.5 -66.5t63.5 -23.5q40 0 62 23.5t22 66.5h65q4 -60 -37 -99t-112 -39zM299 60q84 0 170 12l8 -57q-64 -27 -189 -27q-126 0 -179 58.5t-53 198.5q0 141 52 197.5t171 56.5q109 0 159 -39.5t51 -119.5q0 -138 -116 -138
h-227q6 -84 40 -113t113 -29zM283 427q-76 0 -106.5 -34t-32.5 -125h207q54 0 52 72q0 47 -27 67t-93 20z" />
    <glyph glyph-name="uni04D8" unicode="&#x4d8;" horiz-adv-x="613" 
d="M266 703q166 0 226 -80.5t60 -277.5q0 -203 -59 -280t-214 -77q-119 0 -178 55t-59 171q0 98 44 142.5t148 44.5h225q-3 71 -16 115t-40 68t-62.5 32t-93.5 8q-94 0 -171 -12l-7 65q70 26 197 26zM284 65q97 0 136 56.5t40 208.5h-205q-65 0 -93 -28.5t-28 -91.5
q0 -76 36.5 -110.5t113.5 -34.5z" />
    <glyph glyph-name="uni04D9" unicode="&#x4d9;" horiz-adv-x="539" 
d="M252 499q126 0 179 -58.5t53 -198.5q0 -141 -51.5 -197.5t-171.5 -56.5q-108 0 -158.5 40t-51.5 121q0 146 127 146h216q-8 77 -42.5 104.5t-110.5 27.5q-83 0 -169 -12l-9 57q64 27 189 27zM257 60q79 0 108.5 35.5t30.5 133.5h-197q-64 0 -62 -80q0 -48 27.5 -68.5
t92.5 -20.5z" />
    <glyph glyph-name="uni04DA" unicode="&#x4da;" horiz-adv-x="613" 
d="M191 769q-24 0 -24 24v55q0 24 24 24h29q23 0 23 -24v-55q0 -24 -23 -24h-29zM368 769q-24 0 -24 24v55q0 24 24 24h29q23 0 23 -24v-55q0 -24 -23 -24h-29zM266 703q166 0 226 -80.5t60 -277.5q0 -203 -59 -280t-214 -77q-119 0 -178 55t-59 171q0 98 44 142.5t148 44.5
h225q-3 71 -16 115t-40 68t-62.5 32t-93.5 8q-94 0 -171 -12l-7 65q70 26 197 26zM284 65q97 0 136 56.5t40 208.5h-205q-65 0 -93 -28.5t-28 -91.5q0 -76 36.5 -110.5t113.5 -34.5z" />
    <glyph glyph-name="uni04DB" unicode="&#x4db;" horiz-adv-x="539" 
d="M166 587q-24 0 -24 24v55q0 24 24 24h29q23 0 23 -24v-55q0 -24 -23 -24h-29zM343 587q-24 0 -24 24v55q0 24 24 24h29q23 0 23 -24v-55q0 -24 -23 -24h-29zM252 499q126 0 179 -58.5t53 -198.5q0 -141 -51.5 -197.5t-171.5 -56.5q-108 0 -158.5 40t-51.5 121
q0 146 127 146h216q-8 77 -42.5 104.5t-110.5 27.5q-83 0 -169 -12l-9 57q64 27 189 27zM257 60q79 0 108.5 35.5t30.5 133.5h-197q-64 0 -62 -80q0 -48 27.5 -68.5t92.5 -20.5z" />
    <glyph glyph-name="uni04DC" unicode="&#x4dc;" horiz-adv-x="908" 
d="M351 767q-23 0 -23 24v55q0 24 23 24h29q23 0 23 -24v-55q0 -24 -23 -24h-29zM529 767q-24 0 -24 24v55q0 24 24 24h28q24 0 24 -24v-55q0 -24 -24 -24h-28zM633 358q36 -3 65.5 -21.5t48.5 -38t42.5 -70t35.5 -82t39 -109.5q9 -24 13 -37h-93q-65 175 -83 211
q-43 88 -100 106q-20 7 -44 7h-65q6 -37 6 -73v-251h-84v251q0 29 7 73h-71q-51 0 -89 -37t-57.5 -80.5t-60.5 -153.5q-13 -35 -20 -53h-92q64 183 88 231q48 96 116 119q18 6 39 8v4q-33 4 -61 21t-47 40t-38.5 64t-33.5 77t-34 94q-2 7 -3.5 11t-3.5 10t-4 11h90
q57 -157 83 -203q53 -91 127 -92h71q-6 39 -6 79v216h84v-216q0 -48 -6 -79h66q25 0 46 8t39.5 28.5t31.5 38.5t30 56.5t26 62t28 74.5q2 6 3.5 9t3 8.5t3.5 9.5h90q-58 -165 -83 -213q-53 -100 -132 -113q-5 -1 -11 -2v-4z" />
    <glyph glyph-name="uni04DD" unicode="&#x4dd;" horiz-adv-x="789" 
d="M291 587q-23 0 -23 24v55q0 24 23 24h29q23 0 23 -24v-55q0 -24 -23 -24h-29zM469 587q-24 0 -24 24v55q0 24 24 24h28q24 0 24 -24v-55q0 -24 -24 -24h-28zM563 253q26 -3 46 -10t37.5 -24.5t28.5 -31.5t27 -50.5t24.5 -59t28.5 -77.5h-87q-53 134 -73 165
q-35 54 -91 56h-4h-71q5 -28 5 -48v-173h-75v173q0 20 5 48h-76q-54 -1 -82 -40.5t-75 -155.5q-6 -16 -10 -25h-87q20 55 28.5 77.5t24.5 59t27 50.5t28.5 31.5t37.5 24.5t46 10v2q-46 5 -78.5 36.5t-47 63t-47.5 120.5q-3 8 -5 12h85q19 -48 28.5 -70.5t25.5 -53.5
t29 -44.5t32.5 -23.5t43.5 -10h72q-5 22 -5 57v145h75v-145q0 -34 -5 -57h67q55 0 85.5 44.5t73.5 157.5h86q-21 -56 -30 -79.5t-26 -59t-32 -50t-38 -27.5t-52 -16v-2z" />
    <glyph glyph-name="uni04DE" unicode="&#x4de;" horiz-adv-x="550" 
d="M183 870q23 0 23 -24v-55q0 -24 -23 -24h-29q-23 0 -23 24v55q0 24 23 24h29zM360 870q24 0 24 -24v-55q0 -24 -24 -24h-28q-24 0 -24 24v55q0 24 24 24h28zM243 698q128 0 177.5 -37.5t49.5 -142.5q0 -75 -27.5 -113.5t-88.5 -44.5v-4q74 -7 105 -52.5t31 -131.5
q0 -104 -48.5 -142t-168.5 -38q-143 0 -236 22l7 64q113 -13 215 -13q81 0 111 24.5t30 97.5q0 79 -32 107.5t-116 28.5h-116v69h116q74 0 102 24t28 92q0 70 -31 94t-113 24q-60 0 -178 -11l-7 67q89 16 190 16z" />
    <glyph glyph-name="uni04DF" unicode="&#x4df;" horiz-adv-x="496" 
d="M166 690q23 0 23 -24v-55q0 -24 -23 -24h-29q-23 0 -23 24v55q0 24 23 24h29zM343 690q24 0 24 -24v-55q0 -24 -24 -24h-28q-24 0 -24 24v55q0 24 24 24h28zM206 495q125 0 172.5 -26.5t47.5 -103.5q0 -54 -23.5 -81t-79.5 -32v-3q64 -5 92 -36t28 -93q0 -75 -47 -102
t-162 -27q-110 0 -193 15l7 65q88 -8 180 -8q74 0 100.5 15.5t26.5 59.5q0 45 -27 62t-98 17h-117v62l116 1q66 0 89.5 15.5t23.5 58.5q0 42 -28 55.5t-107 13.5q-86 0 -144 -8l-7 65q63 15 150 15z" />
    <glyph glyph-name="uni04E0" unicode="&#x4e0;" horiz-adv-x="516" 
d="M234 397q126 0 183.5 -44t57.5 -154q0 -109 -53 -158t-191 -49q-119 0 -210 22l8 64q97 -13 202 -13q84 0 119 33t35 99q0 77 -33 108t-118 31h-129v57l241 227h-314v70h408q9 0 9 -9v-50l-248 -234h33z" />
    <glyph glyph-name="uni04E1" unicode="&#x4e1;" horiz-adv-x="493" 
d="M232 194q114 0 167.5 -44t53.5 -154q0 -109 -49.5 -158t-176.5 -49q-117 0 -197 22l7 64q90 -14 186 -14q77 0 108.5 33t31.5 99q0 78 -29.5 109t-106.5 31h-120v56l221 227h-287v71h378q10 0 10 -10v-50l-230 -233h33z" />
    <glyph glyph-name="uni04E2" unicode="&#x4e2;" horiz-adv-x="691" 
d="M487 849v-63h-278v63h278zM604 690v-690h-85v503q0 47 5 79h-5q-14 -34 -36 -75l-306 -507h-90v690h85v-498q0 -37 -5 -82h4q15 33 39 75l303 505h91z" />
    <glyph glyph-name="uni04E3" unicode="&#x4e3;" horiz-adv-x="587" 
d="M429 669v-63h-278v63h278zM507 487v-487h-77v323q0 12 1.5 35.5t1.5 29.5h-2q-11 -27 -34 -57l-248 -331h-70v487h77v-323q0 -29 -3 -65h2q16 33 35 56l248 332h69z" />
    <glyph glyph-name="uni04E4" unicode="&#x4e4;" horiz-adv-x="691" 
d="M273 870q23 0 23 -24v-55q0 -24 -23 -24h-29q-23 0 -23 24v55q0 24 23 24h29zM450 870q24 0 24 -24v-55q0 -24 -24 -24h-28q-24 0 -24 24v55q0 24 24 24h28zM604 690v-690h-85v503q0 47 5 79h-5q-14 -34 -36 -75l-306 -507h-90v690h85v-498q0 -37 -5 -82h4q15 33 39 75
l303 505h91z" />
    <glyph glyph-name="uni04E5" unicode="&#x4e5;" horiz-adv-x="587" 
d="M215 690q23 0 23 -24v-55q0 -24 -23 -24h-29q-23 0 -23 24v55q0 24 23 24h29zM392 690q24 0 24 -24v-55q0 -24 -24 -24h-28q-24 0 -24 24v55q0 24 24 24h28zM507 487v-487h-77v323q0 12 1.5 35.5t1.5 29.5h-2q-11 -27 -34 -57l-248 -331h-70v487h77v-323q0 -29 -3 -65h2
q16 33 35 56l248 332h69z" />
    <glyph glyph-name="uni04E6" unicode="&#x4e6;" 
d="M259 870q23 0 23 -24v-55q0 -24 -23 -24h-29q-24 0 -24 24v55q0 24 24 24h29zM436 870q23 0 23 -24v-55q0 -24 -23 -24h-29q-24 0 -24 24v55q0 24 24 24h29zM334 703q152 0 212 -78.5t60 -279.5t-60 -279.5t-212 -78.5t-212.5 78.5t-60.5 279.5t60.5 279.5t212.5 78.5z
M334 624q-102 0 -141 -60.5t-39 -218.5t39 -218.5t141 -60.5t141 60.5t39 218.5t-39 218.5t-141 60.5z" />
    <glyph glyph-name="uni04E7" unicode="&#x4e7;" horiz-adv-x="571" 
d="M208 690q23 0 23 -24v-55q0 -24 -23 -24h-29q-23 0 -23 24v55q0 24 23 24h29zM385 690q24 0 24 -24v-55q0 -24 -24 -24h-28q-24 0 -24 24v55q0 24 24 24h28zM286 499q125 0 177 -58t52 -198t-52 -198t-177 -58q-126 0 -178 58t-52 198t52 198t178 58zM286 427
q-81 0 -111 -39t-30 -145t30 -145t111 -39q80 0 110 39t30 145t-30 145t-110 39z" />
    <glyph glyph-name="uni04E8" unicode="&#x4e8;" horiz-adv-x="661" 
d="M327 703q152 0 212 -78.5t60 -279.5t-60 -279.5t-212 -78.5t-212.5 78.5t-60.5 279.5t60.5 279.5t212.5 78.5zM327 624q-98 0 -137.5 -55t-42.5 -197h360q-3 142 -42.5 197t-137.5 55zM327 66q96 0 136 54t44 191h-360q4 -137 44 -191t136 -54z" />
    <glyph glyph-name="uni04E9" unicode="&#x4e9;" horiz-adv-x="568" 
d="M284 499q126 0 177.5 -58t51.5 -198t-51.5 -198t-177.5 -58q-125 0 -177 58t-52 198t52 198t177 58zM284 427q-73 0 -104 -32t-35 -116h279q-4 84 -35.5 116t-104.5 32zM284 59q77 0 108 35.5t33 129.5h-281q2 -94 32.5 -129.5t107.5 -35.5z" />
    <glyph glyph-name="uni04EA" unicode="&#x4ea;" horiz-adv-x="661" 
d="M223 767q-24 0 -24 24v55q0 24 24 24h29q23 0 23 -24v-55q0 -24 -23 -24h-29zM400 767q-24 0 -24 24v55q0 24 24 24h29q23 0 23 -24v-55q0 -24 -23 -24h-29zM327 703q152 0 212 -78.5t60 -279.5t-60 -279.5t-212 -78.5t-212.5 78.5t-60.5 279.5t60.5 279.5t212.5 78.5z
M327 624q-98 0 -137.5 -55t-42.5 -197h360q-3 142 -42.5 197t-137.5 55zM327 66q96 0 136 54t44 191h-360q4 -137 44 -191t136 -54z" />
    <glyph glyph-name="uni04EB" unicode="&#x4eb;" horiz-adv-x="568" 
d="M178 587q-24 0 -24 24v55q0 24 24 24h29q23 0 23 -24v-55q0 -24 -23 -24h-29zM355 587q-24 0 -24 24v55q0 24 24 24h29q23 0 23 -24v-55q0 -24 -23 -24h-29zM284 499q126 0 177.5 -58t51.5 -198t-51.5 -198t-177.5 -58q-125 0 -177 58t-52 198t52 198t177 58zM284 427
q-73 0 -104 -32t-35 -116h279q-4 84 -35.5 116t-104.5 32zM284 59q77 0 108 35.5t33 129.5h-281q2 -94 32.5 -129.5t107.5 -35.5z" />
    <glyph glyph-name="uni04EC" unicode="&#x4ec;" horiz-adv-x="577" 
d="M143 767q-24 0 -24 24v55q0 24 24 24h29q23 0 23 -24v-55q0 -24 -23 -24h-29zM320 767q-24 0 -24 24v55q0 24 24 24h29q23 0 23 -24v-55q0 -24 -23 -24h-29zM238 702q154 0 215.5 -80t61.5 -277t-61.5 -277t-215.5 -80q-116 0 -197 23l9 67q76 -11 188 -11q103 0 144 58
t42 206l-296 1v68l295 1q-6 123 -47.5 172.5t-137.5 49.5q-105 0 -181 -9l-10 68q81 20 191 20z" />
    <glyph glyph-name="uni04ED" unicode="&#x4ed;" horiz-adv-x="506" 
d="M142 587q-23 0 -23 24v55q0 24 23 24h29q23 0 23 -24v-55q0 -24 -23 -24h-29zM320 587q-24 0 -24 24v55q0 24 24 24h28q24 0 24 -24v-55q0 -24 -24 -24h-28zM212 493q132 0 185 -55.5t53 -196.5q0 -139 -53 -195t-185 -56q-104 0 -171 19l9 60q84 -7 162 -7
q83 0 115.5 32.5t36.5 121.5h-248v64h247q-5 81 -38.5 111.5t-112.5 30.5q-70 0 -157 -5l-9 59q61 17 166 17z" />
    <glyph glyph-name="uni04EE" unicode="&#x4ee;" horiz-adv-x="563" 
d="M421 849v-63h-278v63h278zM461 690h90l-186 -520q-30 -83 -64 -127.5t-91 -49.5q-60 -4 -124 14l10 65q37 -3 56.5 -4.5t39.5 2t28 7.5t19.5 19t18 29.5t18.5 44.5l12 31h-38q-53 0 -69 47l-160 442h91l139 -399q6 -16 23 -16h40z" />
    <glyph glyph-name="uni04EF" unicode="&#x4ef;" horiz-adv-x="532" 
d="M401 669v-63h-278v63h278zM420 487h91l-194 -514q-39 -102 -92 -142q-64 -48 -181 -32l8 59q79 -4 117 22q41 29 68 99l9 21h-19q-23 0 -31 22l-176 465h91l129 -363q11 -33 18 -59h14l20 59z" />
    <glyph glyph-name="uni04F0" unicode="&#x4f0;" horiz-adv-x="563" 
d="M179 767q-24 0 -24 24v55q0 24 24 24h29q23 0 23 -24v-55q0 -24 -23 -24h-29zM356 767q-24 0 -24 24v55q0 24 24 24h29q23 0 23 -24v-55q0 -24 -23 -24h-29zM461 690h90l-186 -520q-30 -83 -64 -127.5t-91 -49.5q-60 -4 -124 14l10 65q37 -3 56.5 -4.5t39.5 2t28 7.5
t19.5 19t18 29.5t18.5 44.5l12 31h-38q-53 0 -69 47l-160 442h91l139 -399q6 -16 23 -16h40z" />
    <glyph glyph-name="uni04F1" unicode="&#x4f1;" horiz-adv-x="532" 
d="M158 587q-23 0 -23 24v55q0 24 23 24h29q23 0 23 -24v-55q0 -24 -23 -24h-29zM336 587q-24 0 -24 24v55q0 24 24 24h28q24 0 24 -24v-55q0 -24 -24 -24h-28zM420 487h91l-194 -514q-39 -102 -92 -142q-64 -48 -181 -32l8 59q79 -4 117 22q41 29 68 99l9 21h-19
q-23 0 -31 22l-176 465h91l129 -363q11 -33 18 -59h14l20 59z" />
    <glyph glyph-name="uni04F2" unicode="&#x4f2;" horiz-adv-x="563" 
d="M315 889l-134 -160l-38 28l110 174zM345 729l-38 28l110 174l62 -42zM461 690h90l-186 -520q-30 -83 -64 -127.5t-91 -49.5q-60 -4 -124 14l10 65q37 -3 56.5 -4.5t39.5 2t28 7.5t19.5 19t18 29.5t18.5 44.5l12 31h-38q-53 0 -69 47l-160 442h91l139 -399q6 -16 23 -16
h40z" />
    <glyph glyph-name="uni04F3" unicode="&#x4f3;" horiz-adv-x="532" 
d="M295 709l-134 -160l-38 28l110 174zM325 549l-38 28l110 174l62 -42zM420 487h91l-194 -514q-39 -102 -92 -142q-64 -48 -181 -32l8 59q79 -4 117 22q41 29 68 99l9 21h-19q-23 0 -31 22l-176 465h91l129 -363q11 -33 18 -59h14l20 59z" />
    <glyph glyph-name="uni04F4" unicode="&#x4f4;" horiz-adv-x="625" 
d="M204 767q-24 0 -24 24v55q0 24 24 24h29q23 0 23 -24v-55q0 -24 -23 -24h-29zM381 767q-24 0 -24 24v55q0 24 24 24h29q23 0 23 -24v-55q0 -24 -23 -24h-29zM451 690h87v-690h-87v316q-115 -65 -237 -65q-79 0 -116.5 38t-37.5 118v283h88v-265q-1 -50 22 -72.5t75 -22.5
q95 0 206 54v306z" />
    <glyph glyph-name="uni04F5" unicode="&#x4f5;" horiz-adv-x="532" 
d="M156 587q-23 0 -23 24v55q0 24 23 24h29q23 0 23 -24v-55q0 -24 -23 -24h-29zM334 587q-24 0 -24 24v55q0 24 24 24h28q24 0 24 -24v-55q0 -24 -24 -24h-28zM367 487h85v-487h-85v205q-100 -36 -190 -36q-122 0 -122 107v211h84v-183q0 -36 15 -50.5t51 -14.5
q81 0 162 34v214z" />
    <glyph glyph-name="uni04F6" unicode="&#x4f6;" horiz-adv-x="500" 
d="M240 616q-36 0 -52 -16.5t-16 -54.5v-477h84v-178h-83l-4 69h-62v41h-22v561q0 57 35.5 93.5t90.5 36.5q196 0 286 -7l-4 -68h-253z" />
    <glyph glyph-name="uni04F7" unicode="&#x4f7;" horiz-adv-x="462" 
d="M220 421q-31 0 -45 -14.5t-14 -45.5v-293h66v-212h-57l-9 144h-84v383q0 106 108 106q175 0 255 -8l-3 -60h-217z" />
    <glyph glyph-name="uni04F8" unicode="&#x4f8;" horiz-adv-x="846" 
d="M318 767q-24 0 -24 24v55q0 24 24 24h29q23 0 23 -24v-55q0 -24 -23 -24h-29zM524 870q23 0 23 -24v-55q0 -24 -23 -24h-29q-24 0 -24 24v55q0 24 24 24h29zM321 412q127 0 176.5 -47t49.5 -165q0 -120 -47.5 -164t-165.5 -44q-158 0 -245 8h-2v690h88v-278h146zM672 690
h87v-690h-87v690zM321 69q82 0 110 26t28 106q0 78 -28 107.5t-110 29.5h-146v-268q39 -1 146 -1z" />
    <glyph glyph-name="uni04F9" unicode="&#x4f9;" horiz-adv-x="721" 
d="M256 587q-23 0 -23 24v55q0 24 23 24h29q23 0 23 -24v-55q0 -24 -23 -24h-29zM462 690q24 0 24 -24v-55q0 -24 -24 -24h-28q-24 0 -24 24v55q0 24 24 24h28zM277 298q108 0 149 -33t41 -119q0 -87 -40 -119.5t-137 -32.5q-131 0 -208 6h-3v487h83v-189h115zM556 487h86
v-487h-86v487zM277 61q59 0 81.5 17.5t22.5 70.5q0 49 -22 67.5t-82 18.5h-115v-173q31 -1 115 -1z" />
    <glyph glyph-name="uni04FA" unicode="&#x4fa;" horiz-adv-x="536" 
d="M276 616q-36 0 -52 -16.5t-16 -54.5v-182h214v-64h-214v-224h79v-87q0 -70 -44 -109t-130 -39v68q101 0 101 76v16h-93v299h-113v64h113v198q0 57 35.5 93.5t90.5 36.5q196 0 286 -7l-4 -68h-253z" />
    <glyph glyph-name="uni04FB" unicode="&#x4fb;" horiz-adv-x="462" 
d="M220 421q-31 0 -45 -14.5t-14 -45.5v-112h161v-56h-161v-133h74v-72q0 -70 -41 -109t-121 -39v60q89 0 89 84v16h-85v193h-82v56h82v134q0 106 108 106q175 0 255 -8l-3 -60h-217z" />
    <glyph glyph-name="uni04FC" unicode="&#x4fc;" horiz-adv-x="598" 
d="M573 690l-178 -328q13 -20 45.5 -68.5t44.5 -66.5t33.5 -54t29 -56t15 -46.5t7.5 -49.5q0 -36 -11.5 -67t-37.5 -60.5t-76.5 -46t-121.5 -16.5v65q157 4 157 128q0 37 -24.5 90t-52.5 95.5t-79 114.5h-31l-172 -324h-96l194 357l-181 333h95l158 -298h29l158 298h95z" />
    <glyph glyph-name="uni04FD" unicode="&#x4fd;" horiz-adv-x="497" 
d="M483 487l-149 -231q11 -14 31.5 -42t29 -40t24 -34t22 -33t16 -28t13.5 -29t7 -26t3 -27q0 -175 -209 -167v52q70 1 99.5 30.5t29.5 85.5q0 28 -21.5 70t-40 67t-68.5 92h-25l-141 -227h-85l162 252l-151 235h84l130 -208h24l130 208h85z" />
    <glyph glyph-name="uni04FE" unicode="&#x4fe;" horiz-adv-x="594" 
d="M482 0l-172 324h-26l-172 -324h-95l176 324h-109v65h110l-164 301h95l158 -298h28l158 298h96l-165 -301h109v-65h-108l177 -324h-96z" />
    <glyph glyph-name="uni04FF" unicode="&#x4ff;" horiz-adv-x="531" 
d="M414 0l-138 220h-20l-139 -220h-93l145 224h-104v57h103l-131 206h92l125 -201h24l125 201h92l-132 -206h104v-57h-105l145 -224h-93z" />
    <glyph glyph-name="uni0510" unicode="&#x510;" horiz-adv-x="550" 
d="M307 698q101 0 190 -16l-7 -67q-118 11 -178 11q-82 0 -113 -24t-31 -94q0 -68 28 -92t102 -24h116v-69h-116q-84 0 -116 -28.5t-32 -107.5q0 -73 30 -97.5t111 -24.5q102 0 215 13l7 -64q-93 -22 -236 -22q-120 0 -168.5 38t-48.5 142q0 86 31 131.5t105 52.5v4
q-61 6 -88.5 44.5t-27.5 113.5q0 105 49.5 142.5t177.5 37.5z" />
    <glyph glyph-name="uni0511" unicode="&#x511;" horiz-adv-x="496" 
d="M290 495q87 0 150 -15l-7 -65q-58 8 -144 8q-79 0 -107 -13.5t-28 -55.5q0 -43 23.5 -58.5t89.5 -15.5l116 -1v-62h-117q-71 0 -98 -17t-27 -62q0 -44 26.5 -59.5t100.5 -15.5q92 0 180 8l7 -65q-83 -15 -193 -15q-115 0 -162 27t-47 102q0 62 28 93t92 36v3
q-56 5 -79.5 32t-23.5 81q0 77 47.5 103.5t172.5 26.5z" />
    <glyph glyph-name="uni0512" unicode="&#x512;" horiz-adv-x="645" 
d="M556 690v-641q0 -119 -61 -175.5t-173 -41.5v65q84 0 114.5 34t30.5 118v569h-138q-67 0 -73 -70q-18 -201 -30 -278.5t-42 -139.5q-60 -131 -174 -131l-8 68q69 21 99 87q28 62 40 137.5t29 272.5q11 126 137 126h249z" />
    <glyph glyph-name="uni0513" unicode="&#x513;" horiz-adv-x="577" 
d="M482 487v-446q0 -115 -55.5 -169t-158.5 -40v58q76 0 103 34t27 118v378h-107q-31 0 -44.5 -13.5t-18.5 -47.5q-24 -194 -47 -256q-37 -107 -153 -108l-9 65q39 9 57 24.5t29 43.5q24 61 43 245q7 58 37 86t90 28h207z" />
    <glyph glyph-name="uni051A" unicode="&#x51a;" horiz-adv-x="669" 
d="M335 703q152 0 212 -78.5t60 -279.5t-60 -279.5t-212 -78.5t-212.5 78.5t-60.5 279.5t60.5 279.5t212.5 78.5zM335 624q-102 0 -141 -60.5t-39 -218.5t39 -218.5t141 -60.5q101 0 140.5 60.5t39.5 218.5t-39.5 218.5t-140.5 60.5zM294 -43q110 -48 265 -70l-28 -88
q-130 26 -262 105z" />
    <glyph glyph-name="uni051B" unicode="&#x51b;" horiz-adv-x="570" 
d="M274 499q120 0 220 -34v-666h-85l-1 167q0 57 8 100q-95 -79 -194 -79q-85 0 -126 61.5t-41 193.5q0 133 48 195t171 62zM142 236q0 -93 23 -133.5t85 -40.5q40 0 74 15t85 50v284q-69 18 -136 16q-74 -2 -102.5 -41.5t-28.5 -149.5z" />
    <glyph glyph-name="uni051C" unicode="&#x51c;" horiz-adv-x="948" 
d="M917 690l-140 -664q-7 -26 -35 -26h-100q-29 0 -34 27l-108 519q-6 26 -16 78h-21l-15 -78l-107 -519q-7 -27 -35 -27h-101q-13 0 -22.5 7.5t-11.5 18.5l-140 664h93l108 -538q2 -9 14 -85h23q8 47 16 85l107 509q5 29 34 29h96q27 0 34 -29l107 -509q10 -49 14 -85h25
q9 60 13 84l109 539h93z" />
    <glyph glyph-name="uni051D" unicode="&#x51d;" horiz-adv-x="824" 
d="M799 487l-142 -463q-6 -24 -33 -24h-77q-12 0 -21.5 7.5t-11.5 19.5l-80 331q-3 14 -8 39.5t-8 37.5h-12q-16 -72 -17 -77l-79 -331q-7 -27 -34 -27h-76q-27 0 -33 24l-142 463h88l101 -359q9 -31 16 -73h13l18 73l81 332q5 27 32 27h77q25 0 32 -28l80 -331
q2 -11 8 -35.5t9 -37.5h13q1 5 6.5 31.5t10.5 41.5l101 359h88z" />
    <glyph glyph-name="uni0524" unicode="&#x524;" horiz-adv-x="686" 
d="M582 68h84v-178h-83l-5 69h-61l-1 41h-22v618h-319v-618h-88v690h495v-622z" />
    <glyph glyph-name="uni0525" unicode="&#x525;" horiz-adv-x="582" 
d="M496 68h65v-212h-57l-9 144h-83v418h-250v-418h-83v487h417v-419z" />
    <glyph glyph-name="uni0526" unicode="&#x526;" horiz-adv-x="659" 
d="M566 68h81v-178h-80l-5 69h-64v41h-20v265q1 51 -22.5 74t-77.5 23q-100 0 -203 -53v-309h-88v690h88v-310q112 59 233 59q80 0 119 -38.5t39 -117.5v-215z" />
    <glyph glyph-name="uni0527" unicode="&#x527;" horiz-adv-x="594" 
d="M506 68h67v-212h-57l-9 144h-87v341q0 48 -15.5 67t-53.5 19q-41 0 -82.5 -18t-105.5 -58v-351h-85v700h85l1 -193q0 -56 -6 -95q120 87 216 87q132 0 132 -134v-297z" />
    <glyph glyph-name="uni0528" unicode="&#x528;" horiz-adv-x="749" 
d="M574 690h88v-690h-88v331h-318v-310q0 -76 -34.5 -115t-99.5 -39q-54 0 -92 12l10 63h50q78 0 78 75v673h88v-283h318v283z" />
    <glyph glyph-name="uni0529" unicode="&#x529;" horiz-adv-x="600" 
d="M419 487h84v-487h-84v226h-256v-185q0 -115 -55.5 -169t-158.5 -40v58q76 0 103 34t27 118v445h84v-196h256v196z" />
    <glyph glyph-name="uni052E" unicode="&#x52e;" horiz-adv-x="679" 
d="M564 68h83v-178h-83l-4 69h-55l-1 41h-28v618h-138q-68 0 -74 -70q-13 -148 -19 -201t-19 -113t-34 -104q-60 -131 -174 -131l-8 68q69 21 99 87q28 63 41 139.5t28 270.5q12 126 137 126h249v-622z" />
    <glyph glyph-name="uni052F" unicode="&#x52f;" horiz-adv-x="562" 
d="M482 68h77v-212h-56l-9 144h-97v420h-106q-31 0 -44.5 -13.5t-18.5 -47.5q-24 -194 -47 -256q-37 -107 -153 -108l-9 65q39 9 57 24.5t29 43.5q24 61 43 245q7 58 37 86t90 28h207v-419z" />
    <glyph glyph-name="uni1E08" unicode="&#x1e08;" horiz-adv-x="570" 
d="M428 913l48 -65l-191 -120l-30 39zM332 702q107 0 188 -20l-9 -67q-90 9 -179 9q-101 0 -139.5 -60.5t-38.5 -218.5t38.5 -218.5t139.5 -60.5q116 0 193 11l9 -66q-83 -23 -202 -23q-149 0 -210 80t-61 277t61 277t210 80zM281 -55q61 6 87 -8t25 -57q-2 -63 -49 -97
t-119 -24l14 45q40 -1 65.5 18.5t26.5 50.5q1 18 -11 24.5t-48 7.5z" />
    <glyph glyph-name="uni1E09" unicode="&#x1e09;" horiz-adv-x="489" 
d="M375 733l48 -65l-191 -120l-30 39zM286 499q96 0 157 -23l-11 -55q-66 6 -132 6q-88 0 -122 -39t-34 -144q0 -106 34 -145t122 -39q80 0 143 10l9 -57q-72 -25 -167 -25q-126 0 -178.5 57.5t-52.5 198.5t52.5 198t179.5 57zM235 -55q61 6 87 -8t25 -57q-2 -63 -49 -97
t-119 -24l14 45q40 -1 65.5 18.5t26.5 50.5q1 18 -11 24.5t-48 7.5z" />
    <glyph glyph-name="uni1E0C" unicode="&#x1e0c;" horiz-adv-x="664" 
d="M333 699q149 0 209 -77.5t60 -276.5t-60 -276.5t-209 -77.5q-116 0 -246 9v690q130 9 246 9zM333 68q99 0 138 60.5t39 216.5t-39 217t-138 61q-64 0 -158 -2v-551q90 -2 158 -2zM337 -64q26 0 26 -25v-57q0 -26 -26 -26h-27q-26 0 -26 26v57q0 25 26 25h27z" />
    <glyph glyph-name="uni1E0D" unicode="&#x1e0d;" horiz-adv-x="573" 
d="M409 700h85v-700h-66l-8 70q-94 -82 -193 -82q-90 0 -130.5 63.5t-40.5 193.5q0 139 44 196.5t140 57.5q91 0 173 -44q-4 41 -4 95v150zM143 246q0 -105 25.5 -144.5t86.5 -39.5q38 0 69 14.5t85 52.5v269q-96 27 -149 27q-65 0 -91 -37t-26 -142zM308 -64q26 0 26 -25
v-57q0 -26 -26 -26h-27q-26 0 -26 26v57q0 25 26 25h27z" />
    <glyph glyph-name="uni1E0E" unicode="&#x1e0e;" horiz-adv-x="664" 
d="M333 699q149 0 209 -77.5t60 -276.5t-60 -276.5t-209 -77.5q-116 0 -246 9v690q130 9 246 9zM333 68q99 0 138 60.5t39 216.5t-39 217t-138 61q-64 0 -158 -2v-551q90 -2 158 -2zM184 -153v63h278v-63h-278z" />
    <glyph glyph-name="uni1E0F" unicode="&#x1e0f;" horiz-adv-x="573" 
d="M409 700h85v-700h-66l-8 70q-94 -82 -193 -82q-90 0 -130.5 63.5t-40.5 193.5q0 139 44 196.5t140 57.5q91 0 173 -44q-4 41 -4 95v150zM143 246q0 -105 25.5 -144.5t86.5 -39.5q38 0 69 14.5t85 52.5v269q-96 27 -149 27q-65 0 -91 -37t-26 -142zM155 -153v63h278v-63
h-278z" />
    <glyph glyph-name="uni1E14" unicode="&#x1e14;" horiz-adv-x="560" 
d="M376 911l-30 -34l-133 90l51 59zM449 847v-63h-278v63h278zM229 73h277l4 -68q-92 -6 -296 -6q-61 0 -96.5 32.5t-36.5 87.5v452q1 55 36.5 87.5t96.5 32.5q204 0 296 -6l-4 -69h-277q-60 0 -60 -66v-150h298v-71h-298v-189q0 -67 60 -67z" />
    <glyph glyph-name="uni1E15" unicode="&#x1e15;" horiz-adv-x="537" 
d="M347 718l-30 -34l-133 90l51 59zM420 654v-63h-278v63h278zM298 60q83 0 169 12l9 -57q-65 -27 -189 -27q-126 0 -179.5 58.5t-53.5 198.5q0 141 52 197.5t172 56.5q109 0 159 -39.5t50 -119.5q2 -138 -116 -138h-226q6 -84 40 -113t113 -29zM282 427q-76 0 -106.5 -34
t-32.5 -125h206q53 0 53 72q-1 47 -28 67t-92 20z" />
    <glyph glyph-name="uni1E16" unicode="&#x1e16;" horiz-adv-x="560" 
d="M407 967l-133 -90l-30 34l112 115zM449 847v-63h-278v63h278zM229 73h277l4 -68q-92 -6 -296 -6q-61 0 -96.5 32.5t-36.5 87.5v452q1 55 36.5 87.5t96.5 32.5q204 0 296 -6l-4 -69h-277q-60 0 -60 -66v-150h298v-71h-298v-189q0 -67 60 -67z" />
    <glyph glyph-name="uni1E17" unicode="&#x1e17;" horiz-adv-x="537" 
d="M378 774l-133 -90l-30 34l112 115zM420 654v-63h-278v63h278zM298 60q83 0 169 12l9 -57q-65 -27 -189 -27q-126 0 -179.5 58.5t-53.5 198.5q0 141 52 197.5t172 56.5q109 0 159 -39.5t50 -119.5q2 -138 -116 -138h-226q6 -84 40 -113t113 -29zM282 427q-76 0 -106.5 -34
t-32.5 -125h206q53 0 53 72q-1 47 -28 67t-92 20z" />
    <glyph glyph-name="uni1E1C" unicode="&#x1e1c;" horiz-adv-x="560" 
d="M310 759q-73 0 -114 36.5t-37 95.5l43 6q0 -36 28 -55.5t80 -19.5q49 0 77 20t28 55l43 -6q5 -59 -35.5 -95.5t-112.5 -36.5zM229 73h277l4 -68q-92 -6 -296 -6q-61 0 -96.5 32.5t-36.5 87.5v452q1 55 36.5 87.5t96.5 32.5q204 0 296 -6l-4 -69h-277q-60 0 -60 -66v-150
h298v-71h-298v-189q0 -67 60 -67zM257 -43q61 6 87 -8t25 -57q-2 -63 -49 -97t-119 -24l14 45q40 -1 65.5 18.5t26.5 50.5q1 18 -11 24.5t-48 7.5z" />
    <glyph glyph-name="uni1E1D" unicode="&#x1e1d;" horiz-adv-x="537" 
d="M282 565q-73 0 -114 36.5t-37 95.5l43 6q0 -36 28 -55.5t80 -19.5q49 0 77 20t28 55l43 -6q5 -59 -35.5 -95.5t-112.5 -36.5zM298 60q83 0 169 12l9 -57q-65 -27 -189 -27q-126 0 -179.5 58.5t-53.5 198.5q0 141 52 197.5t172 56.5q109 0 159 -39.5t50 -119.5
q2 -138 -116 -138h-226q6 -84 40 -113t113 -29zM282 427q-76 0 -106.5 -34t-32.5 -125h206q53 0 53 72q-1 47 -28 67t-92 20zM227 -52q61 6 87 -8t25 -57q-2 -63 -49 -97t-119 -24l14 45q40 -1 65.5 18.5t26.5 50.5q1 18 -11 24.5t-48 7.5z" />
    <glyph glyph-name="uni1E20" unicode="&#x1e20;" horiz-adv-x="628" 
d="M467 856v-63h-279v63h279zM474 399h86v-399h-64l-10 73q-86 -86 -206 -86q-115 0 -166.5 86t-51.5 274q0 203 63 279.5t225 76.5q109 0 192 -21l-9 -66q-84 8 -178 8q-79 0 -119.5 -20.5t-60.5 -81.5t-20 -181q0 -153 33 -215t116 -62q78 0 170 67v268z" />
    <glyph glyph-name="uni1E21" unicode="&#x1e21;" horiz-adv-x="558" 
d="M411 669v-63h-279v63h279zM536 487l-5 -47l-72 -6q20 -33 20 -90q0 -82 -47 -118.5t-162 -36.5q-62 0 -101 10q-19 -24 -11 -51t45 -33l182 -29q68 -10 95.5 -42.5t27.5 -94.5q0 -85 -50.5 -118t-181.5 -33q-132 0 -183.5 32.5t-51.5 115.5q0 43 18 69t62 49
q-38 29 -35 77.5t38 73.5q-62 34 -62 128q0 84 46.5 120t162.5 36q67 0 111 -12h154zM270 254q72 0 101 20.5t29 69.5t-28.5 69.5t-101.5 20.5q-72 0 -101 -20.5t-29 -69.5t29 -69.5t101 -20.5zM425 -47q0 36 -15.5 49t-68.5 21l-166 23q-51 -39 -51 -93q0 -51 30 -67
t121 -16q89 0 119.5 16.5t30.5 66.5z" />
    <glyph glyph-name="uni1E24" unicode="&#x1e24;" 
d="M493 690h88v-690h-88v331h-318v-331h-88v690h88v-283h318v283zM348 -52q26 0 26 -25v-57q0 -26 -26 -26h-27q-26 0 -26 26v57q0 25 26 25h27z" />
    <glyph glyph-name="uni1E25" unicode="&#x1e25;" horiz-adv-x="581" 
d="M374 499q132 0 132 -134v-365h-86v341q0 48 -15.5 67t-53.5 19q-41 0 -82.5 -18t-105.5 -58v-351h-85v700h85l1 -193q0 -56 -6 -95q120 87 216 87zM313 -61q26 0 26 -25v-57q0 -26 -26 -26h-27q-26 0 -26 26v57q0 25 26 25h27z" />
    <glyph glyph-name="uni1E2A" unicode="&#x1e2a;" 
d="M493 690h88v-690h-88v331h-318v-331h-88v690h88v-283h318v283zM440 -42l43 -7q4 -59 -37 -95.5t-112 -36.5q-72 0 -113.5 36.5t-37.5 95.5l44 7q0 -36 27.5 -55.5t79.5 -19.5q50 0 78 19.5t28 55.5z" />
    </font>
</defs>
</svg>
