<?xml version="1.0" standalone="no"?>
<!DOCTYPE svg PUBLIC "-//W3C//DTD SVG 1.1//EN" "http://www.w3.org/Graphics/SVG/1.1/DTD/svg11.dtd" >
<svg xmlns="http://www.w3.org/2000/svg" xmlns:xlink="http://www.w3.org/1999/xlink" version="1.1">
<metadata>
Created by FontForge 20170731 at Wed Dec 13 19:43:06 2017
 By Aleksey,,,
Copyright (c) 2013, Natanael Gama (www.ndiscovered.com . info(at)ndiscovered.com), with Reserved Font Name Exo. This Font Software is licensed under the SIL Open Font License, Version 1.1.
</metadata>
<defs>
<font id="Exo2-Medium" horiz-adv-x="669" >
  <font-face 
    font-family="Exo 2 Medium"
    font-weight="500"
    font-stretch="normal"
    units-per-em="1000"
    panose-1="0 0 6 0 0 0 0 0 0 0"
    ascent="800"
    descent="-200"
    x-height="488"
    cap-height="690"
    bbox="-418 -278 1225 1062"
    underline-thickness="50"
    underline-position="-200"
    unicode-range="U+0020-FB02"
  />
<missing-glyph horiz-adv-x="618" 
d="M524 690v-690h-430v690h430zM483 41v608h-348v-608h348z" />
    <glyph glyph-name="fi" unicode="fi" horiz-adv-x="618" 
d="M539 488v-488h-96v413h-231v-413h-97v413h-88v70l88 5v73q0 77 33.5 116.5t111.5 39.5q76 0 117 -7v-72h-83q-46 0 -64 -19.5t-18 -68.5v-62h327zM513 696q28 0 28 -28v-56q0 -29 -28 -29h-46q-29 0 -29 29v56q0 28 29 28h46z" />
    <glyph glyph-name="fl" unicode="fl" horiz-adv-x="679" 
d="M659 66l10 -62q-29 -13 -93 -13q-57 0 -90 30.5t-33 85.5v532h-160q-46 1 -64 -19t-18 -70v-62h141v-75h-141v-413h-97v413h-88v70l88 5v73q0 78 34 117.5t111 38.5q217 0 291 -12v-576q0 -63 63 -63h46z" />
    <glyph glyph-name="f_f" unicode="ff" horiz-adv-x="721" 
d="M630 638q-45 0 -63.5 -17t-18.5 -59v-74h151v-75h-151v-413h-98v413h-238v-413h-97v413h-88v70l88 5v74q0 69 36.5 106.5t108.5 37.5q75 0 123 -7l-8 -72h-81q-47 0 -64.5 -15.5t-17.5 -60.5v-63h238v85q0 71 34 107.5t111 36.5q95 0 141 -7l-8 -72h-98z" />
    <glyph glyph-name="f_f_i" unicode="ffi" horiz-adv-x="943" 
d="M865 488v-488h-96v413h-230v-413h-97v413h-239v-413h-97v413h-79v70l79 4v75q0 69 36.5 106.5t108.5 37.5q76 0 124 -7l-8 -72h-82q-46 0 -64 -15.5t-18 -60.5v-63h239v73q0 77 33.5 116.5t111.5 39.5t119 -7v-72h-85q-46 0 -64 -19.5t-18 -68.5v-62h326zM839 696
q29 0 29 -28v-56q0 -29 -29 -29h-45q-29 0 -29 29v56q0 28 29 28h45z" />
    <glyph glyph-name="f_f_l" unicode="ffl" horiz-adv-x="1016" 
d="M995 66l11 -62q-29 -13 -94 -13q-57 0 -90 30.5t-33 85.5v532h-159q-46 1 -64 -19t-18 -70v-62h142v-75h-142v-413h-98v413h-238v-413h-97v413h-88v70l88 5v74q0 69 36.5 106.5t108.5 37.5q75 0 123 -7l-8 -72h-81q-47 0 -64.5 -15.5t-17.5 -60.5v-63h238v73q0 77 34 117
t111 39q217 0 291 -12v-576q0 -63 63 -63h46z" />
    <glyph glyph-name=".notdef" horiz-adv-x="618" 
d="M524 690v-690h-430v690h430zM483 41v608h-348v-608h348z" />
    <glyph glyph-name=".null" horiz-adv-x="0" 
 />
    <glyph glyph-name="nonmarkingreturn" horiz-adv-x="333" 
 />
    <glyph glyph-name="space" unicode=" " horiz-adv-x="222" 
 />
    <glyph glyph-name="exclam" unicode="!" horiz-adv-x="277" 
d="M187 695v-299l-10 -183h-77l-10 183v299h97zM151 124q20 0 28 -8t8 -27v-53q0 -20 -8 -28t-28 -8h-24q-20 0 -27.5 8t-7.5 28v53q0 19 8 27t27 8h24z" />
    <glyph glyph-name="quotedbl" unicode="&#x22;" horiz-adv-x="358" 
d="M145 690l-6 -216h-66l-6 216h78zM292 690l-6 -216h-66l-6 216h78z" />
    <glyph glyph-name="numbersign" unicode="#" horiz-adv-x="688" 
d="M634 444h-109l-30 -173h109l-12 -61h-107l-37 -210h-77l37 210h-174l-37 -210h-77l37 210h-116l12 61h114l30 173h-114l12 61h113l32 185h77l-32 -185h174l32 185h77l-32 -185h110zM418 271l30 173h-174l-30 -173h174z" />
    <glyph glyph-name="dollar" unicode="$" horiz-adv-x="565" 
d="M376 374q77 -21 108.5 -68t31.5 -128q0 -114 -52 -152t-183 -38h-1l-9 -113h-51l9 114q-83 4 -165 19l7 77l166 -4l18 225l-63 18q-74 20 -105.5 67.5t-31.5 128.5q0 59 12.5 95.5t43.5 55.5t69 25t102 6h10l8 96h50l-7 -97q88 -5 147 -20l-6 -73q-81 4 -148 5l-17 -223z
M156 517q0 -51 18.5 -72t65.5 -33l29 -8l16 209q-76 0 -102.5 -16t-26.5 -80zM287 81q75 0 101 19t26 79q0 53 -18 73.5t-64 32.5l-28 8z" />
    <glyph glyph-name="percent" unicode="%" horiz-adv-x="896" 
d="M207 703q90 0 126.5 -46.5t36.5 -158.5q0 -111 -36.5 -158t-126.5 -47t-126.5 47t-36.5 158q0 112 36.5 158.5t126.5 46.5zM701 690l-441 -690h-68l441 690h68zM206 643q-50 0 -69 -32t-19 -113q0 -82 19 -113.5t69 -31.5q51 0 70 31.5t19 113.5t-19 113.5t-70 31.5z
M689 400q89 0 125.5 -47t36.5 -158q0 -112 -36.5 -158.5t-125.5 -46.5q-90 0 -126.5 46.5t-36.5 158.5q0 111 36.5 158t126.5 47zM688 339q-51 0 -70 -31t-18 -113q-1 -82 18 -113.5t70 -31.5t70 31.5t19 113.5q0 83 -19 113.5t-70 30.5z" />
    <glyph glyph-name="ampersand" unicode="&#x26;" horiz-adv-x="770" 
d="M713 75l11 -71q-45 -13 -109 -13q-103 0 -122 83q-43 -46 -95 -65.5t-131 -19.5q-110 0 -156.5 41.5t-46.5 144.5q0 83 31.5 129t104.5 52v4q-62 6 -89 45t-27 116q0 48 10.5 80.5t28.5 52t52 30t72.5 14t98.5 3.5q93 0 160 -11l-12 -75q-42 3 -151 3q-93 0 -125 -20.5
t-32 -90.5q0 -66 27 -89t99 -23h180l8 123h81v-123h123l-1 -76h-122v-181q0 -35 13.5 -49t47.5 -14h71zM292 76q125 1 198 73v170h-184q-77 0 -106.5 -26.5t-29.5 -100.5q0 -67 26 -91.5t96 -24.5z" />
    <glyph glyph-name="quotesingle" unicode="'" horiz-adv-x="211" 
d="M145 690l-6 -216h-66l-6 216h78z" />
    <glyph glyph-name="parenleft" unicode="(" horiz-adv-x="360" 
d="M319 790l12 -45q-97 -46 -141.5 -153t-44.5 -279q0 -338 186 -433l-12 -45q-138 52 -203 167.5t-65 309.5q0 195 65 311t203 167z" />
    <glyph glyph-name="parenright" unicode=")" horiz-adv-x="360" 
d="M41 790q139 -51 204 -167t65 -311q0 -194 -65 -309.5t-204 -167.5l-12 45q186 95 186 433q0 172 -44.5 279t-141.5 153z" />
    <glyph glyph-name="asterisk" unicode="*" horiz-adv-x="450" 
d="M254 691l-10 -162l102 -129l-46 -34l-76 124l-75 -123l-47 34l102 128l-8 162h58zM69 603l118 -46l-1 -25l-12 -16l-124 33zM381 603l18 -55l-124 -32l-13 16v25z" />
    <glyph glyph-name="plus" unicode="+" horiz-adv-x="550" 
d="M495 335v-72h-184v-174h-73v174h-184v72h183v175h75v-175h183z" />
    <glyph glyph-name="comma" unicode="," horiz-adv-x="232" 
d="M131 124q19 0 26.5 -7.5t7.5 -27.5v-64q-1 -89 -38 -159l-46 12q11 56 11 122q-27 0 -27 31v58q1 19 9.5 27t28.5 8h28z" />
    <glyph glyph-name="hyphen" unicode="-" horiz-adv-x="442" 
d="M373 290v-74h-304v74h304z" />
    <glyph glyph-name="period" unicode="." horiz-adv-x="233" 
d="M132 124q20 0 28 -7.5t8 -27.5v-53q0 -20 -8 -28t-28 -8h-31q-20 0 -28 8t-8 28v53q0 20 8 27.5t28 7.5h31z" />
    <glyph glyph-name="slash" unicode="/" horiz-adv-x="522" 
d="M497 690l-393 -757h-79l393 757h79z" />
    <glyph glyph-name="zero" unicode="0" horiz-adv-x="607" 
d="M303 703q133 0 187.5 -82.5t54.5 -275.5t-54.5 -275.5t-187.5 -82.5t-187.5 82.5t-54.5 275.5t54.5 275.5t187.5 82.5zM302 616q-80 0 -111.5 -60.5t-31.5 -210.5t31.5 -210.5t111.5 -60.5q83 0 114.5 60t31.5 211t-31.5 211t-114.5 60z" />
    <glyph glyph-name="one" unicode="1" horiz-adv-x="402" 
d="M293 690v-690h-100v534q0 36 5 62l-166 -51l-12 75l173 70h100z" />
    <glyph glyph-name="two" unicode="2" horiz-adv-x="563" 
d="M273 702q109 0 161.5 -31t52.5 -120q0 -64 -26 -118t-94 -129l-192 -211q47 4 110 4h226v-97h-457v63q0 27 15 42l192 217q128 138 125 223q-1 43 -29.5 56t-92.5 13q-90 0 -199 -15l-6 78q112 25 214 25z" />
    <glyph glyph-name="three" unicode="3" horiz-adv-x="557" 
d="M260 703q115 0 165 -35t50 -125q0 -155 -101 -174v-4q64 -11 90.5 -53.5t28.5 -119.5q2 -107 -49 -156t-172 -49q-95 0 -221 18l6 81q117 -10 190 -10q81 0 114 28t33 99q0 61 -27 90.5t-103 29.5h-127v78h127q71 1 93 31t22 87q-1 61 -28 78.5t-106 17.5q-82 0 -176 -8
l-7 78q103 18 198 18z" />
    <glyph glyph-name="four" unicode="4" horiz-adv-x="619" 
d="M487 245h90v-71l-90 -10v-164h-95v164h-277q-45 0 -66.5 35.5t-3.5 77.5l191 413h98l-186 -406q-8 -20 -1 -29.5t25 -9.5h220v200l18 112h77v-312z" />
    <glyph glyph-name="five" unicode="5" horiz-adv-x="538" 
d="M464 690l-4 -86h-286l-10 -172l78 -7q133 -11 188 -60.5t54 -157.5q0 -46 -9 -81.5t-32 -68.5t-69.5 -51t-114.5 -18q-98 0 -210 25l12 81q94 -17 174 -17q89 0 119 30t32 100q1 20 -1.5 36t-5.5 28.5t-12.5 22.5t-16.5 16.5t-24 12t-28.5 8.5t-37.5 6t-42.5 4.5
t-51.5 4.5l-52 5q-17 1 -27.5 13t-9.5 30l16 296h371z" />
    <glyph glyph-name="six" unicode="6" horiz-adv-x="574" 
d="M331 452q108 0 149 -50t41 -176q0 -59 -8.5 -98.5t-31.5 -73t-67.5 -50t-113.5 -16.5q-75 0 -120 15.5t-71.5 57.5t-35.5 104t-9 167q0 119 15.5 193t52 112.5t82.5 51.5t120 13q86 0 143 -15l-8 -73q-45 3 -135 3q-48 0 -76.5 -8t-50.5 -33t-32 -70.5t-12 -120.5
q34 37 72.5 52t95.5 15zM301 74q78 0 101.5 35t23.5 117q0 81 -25.5 113t-95.5 32q-41 0 -72.5 -12.5t-70.5 -44.5q0 -63 2.5 -98t10 -66.5t23 -45.5t40 -22t63.5 -8z" />
    <glyph glyph-name="seven" unicode="7" horiz-adv-x="514" 
d="M430 690q32 0 45 -17.5t4 -47.5l-213 -625h-100l189 552q11 32 23 53h-337l-4 85h393z" />
    <glyph glyph-name="eight" unicode="8" horiz-adv-x="607" 
d="M303 701q129 -1 175.5 -42.5t46.5 -140.5q0 -147 -98 -158v-4q62 -6 88 -52.5t26 -131.5q0 -66 -19 -104t-71.5 -58.5t-147.5 -20.5q-137 0 -187 42.5t-50 140.5q0 85 25.5 131.5t88.5 52.5v4q-98 11 -98 158q0 99 46.5 141t174.5 42zM304 620q-79 0 -105 -23.5
t-26 -88.5q0 -66 26 -88t106 -22t104.5 21.5t24.5 88.5q0 65 -25.5 88.5t-104.5 23.5zM305 318q-87 -1 -116 -25.5t-29 -98.5q0 -69 29 -94t115 -25q85 0 113 25t28 94q0 75 -27.5 99.5t-112.5 24.5z" />
    <glyph glyph-name="nine" unicode="9" horiz-adv-x="574" 
d="M277 702q44 0 76.5 -5.5t57.5 -16.5t41.5 -31.5t28 -45.5t17 -64.5t8 -82t2.5 -103.5q0 -93 -10 -156t-29 -104.5t-53 -64.5t-75 -31.5t-103 -8.5q-90 0 -153 15l8 74q48 -3 144 -3t132.5 47.5t40.5 187.5q-35 -40 -73.5 -55.5t-96.5 -15.5q-187 0 -187 225
q-1 124 50.5 181.5t173.5 57.5zM267 318q40 0 71.5 13t72.5 47q0 63 -2.5 97t-9.5 66.5t-22 46t-39 21.5t-62 8q-77 0 -103 -36.5t-25 -117.5q-1 -74 25 -109.5t94 -35.5z" />
    <glyph glyph-name="colon" unicode=":" horiz-adv-x="242" 
d="M133 442q20 0 28 -7.5t8 -27.5v-53q0 -20 -8 -28t-28 -8h-31q-20 0 -28 8t-8 28v53q0 20 8 27.5t28 7.5h31zM133 124q20 0 28 -7.5t8 -27.5v-53q0 -20 -8 -28t-28 -8h-31q-20 0 -28 8t-8 28v53q0 20 8 27.5t28 7.5h31z" />
    <glyph glyph-name="semicolon" unicode=";" horiz-adv-x="243" 
d="M138 442q20 0 28 -7.5t8 -27.5v-53q0 -20 -8 -28t-28 -8h-31q-20 0 -28 8t-8 28v53q0 20 8 27.5t28 7.5h31zM137 124q19 0 26.5 -7.5t7.5 -27.5v-64q-1 -89 -38 -159l-46 12q11 56 11 122q-27 0 -27 31v58q1 19 9.5 27t28.5 8h28z" />
    <glyph glyph-name="less" unicode="&#x3c;" horiz-adv-x="528" 
d="M460 509v-77l-326 -134l326 -131v-77l-409 170v76z" />
    <glyph glyph-name="equal" unicode="=" horiz-adv-x="585" 
d="M513 435v-72h-442v72h442zM513 224v-72h-442v72h442z" />
    <glyph glyph-name="greater" unicode="&#x3e;" horiz-adv-x="528" 
d="M68 509l409 -173v-76l-409 -170v77l326 131l-326 134v77z" />
    <glyph glyph-name="question" unicode="?" horiz-adv-x="504" 
d="M261 712q204 0 204 -155q0 -41 -18 -76t-44 -61.5t-52 -54t-45.5 -66.5t-21.5 -86h-82q-1 51 14.5 93.5t39 71t47.5 53.5t41 53t18 56q2 46 -27.5 68t-94.5 22q-96 0 -197 -9l-5 70q12 2 37 6.5t38 6t36 4t50 3.5t62 1zM255 124q20 0 28 -7.5t8 -27.5v-53q0 -20 -8 -28
t-28 -8h-24q-20 0 -28 8t-8 28v53q0 20 8 27.5t28 7.5h24z" />
    <glyph glyph-name="at" unicode="@" horiz-adv-x="723" 
d="M499 588q76 0 115 -34.5t39 -112.5v-309h-72l-10 75q-31 -32 -83.5 -57.5t-108.5 -25.5q-60 0 -96 31.5t-36 90.5v50q0 50 29 77t86 27h200v38q0 40 -17.5 55t-64.5 15h-125q-49 0 -74 -1.5t-50.5 -10t-35.5 -22t-19 -43t-11 -66.5t-2 -98q0 -48 1 -79.5t6.5 -60
t10.5 -44t20 -29t27.5 -19t41 -9.5t52 -4.5t68.5 -0.5h261v-72q-155 -9 -260 -9q-77 -1 -124 2.5t-86 17.5t-58 33.5t-32 60t-16.5 88t-3.5 125.5q0 76 3 122t14.5 85.5t28.5 59t51.5 33t76 17.5t109.5 4h145zM562 341l-166 -4q-34 -1 -46.5 -12.5t-12.5 -40.5v-21
q0 -62 61 -62q42 0 87.5 16.5t76.5 45.5v78z" />
    <glyph glyph-name="A" unicode="A" horiz-adv-x="626" 
d="M514 0l-64 208h-275l-64 -208h-102l216 663q8 27 37 27h102q30 0 36 -27l217 -663h-103zM202 295h221l-80 262q-3 9 -8.5 28t-8.5 28h-27l-16 -56z" />
    <glyph glyph-name="B" unicode="B" horiz-adv-x="622" 
d="M428 356q75 -7 106.5 -52.5t31.5 -131.5q0 -104 -49.5 -142t-172.5 -38q-169 0 -260 8v690q81 8 230 8q130 0 180.5 -37.5t50.5 -142.5q0 -75 -28 -113.5t-89 -44.5v-4zM309 613h-127v-217h140q72 0 99.5 22.5t27.5 87.5q0 64 -30 85.5t-110 21.5zM329 77
q79 0 107.5 22.5t28.5 89.5q0 75 -30.5 102t-111.5 28h-141v-241q40 -1 147 -1z" />
    <glyph glyph-name="C" unicode="C" horiz-adv-x="572" 
d="M332 702q108 0 191 -20l-10 -77q-80 8 -181 8q-95 0 -131.5 -58t-36.5 -210t36.5 -210t131.5 -58q127 0 195 11l10 -76q-83 -24 -205 -24q-151 0 -212 80t-61 277t61 277t212 80z" />
    <glyph glyph-name="D" unicode="D" horiz-adv-x="665" 
d="M333 699q152 0 212.5 -77t60.5 -277t-60.5 -277t-212.5 -77q-118 0 -249 9v690q131 9 249 9zM333 78q94 0 130.5 58t36.5 209t-36.5 209t-130.5 58q-61 0 -149 -2v-530q86 -2 149 -2z" />
    <glyph glyph-name="E" unicode="E" horiz-adv-x="562" 
d="M234 83h274l5 -77q-91 -8 -296 -8q-64 0 -101 33.5t-38 90.5v446q1 57 38 90.5t101 33.5q205 0 296 -8l-5 -78h-274q-30 0 -42.5 -14.5t-12.5 -49.5v-138h291v-81h-291v-176q0 -35 12.5 -49.5t42.5 -14.5z" />
    <glyph glyph-name="F" unicode="F" horiz-adv-x="540" 
d="M246 606q-35 0 -49.5 -14.5t-14.5 -49.5v-149h282v-81l-282 -1v-311h-100v563q0 61 37.5 95t101.5 34q198 0 286 -9l-5 -77h-256z" />
    <glyph glyph-name="G" unicode="G" horiz-adv-x="629" 
d="M466 398h98v-398h-74l-10 69q-89 -82 -205 -82q-114 0 -165 87t-51 274q0 139 29 215.5t91 108t174 31.5q108 0 192 -21l-10 -76q-84 8 -176 8q-47 0 -76 -5.5t-54 -21.5t-37.5 -47t-19.5 -79t-7 -120q0 -149 30.5 -208t107.5 -59q45 0 82 15.5t81 45.5v263z" />
    <glyph glyph-name="H" unicode="H" horiz-adv-x="670" 
d="M486 690h100v-690h-100v325h-302v-325h-100v690h100v-279h302v279z" />
    <glyph glyph-name="I" unicode="I" horiz-adv-x="268" 
d="M184 690v-690h-100v690h100z" />
    <glyph glyph-name="J" unicode="J" horiz-adv-x="343" 
d="M262 690v-539q0 -79 -35 -120t-101 -40q-59 0 -98 13l11 72h49q74 0 74 70v544h100z" />
    <glyph glyph-name="K" unicode="K" horiz-adv-x="597" 
d="M469 0l-213 319h-79q7 -42 7 -71v-248h-100v690h100v-212q0 -43 -7 -78h78l203 290h109l-195 -282q-16 -23 -42 -48v-3q28 -24 48 -52l202 -305h-111z" />
    <glyph glyph-name="L" unicode="L" horiz-adv-x="515" 
d="M182 690v-542q0 -35 14 -49.5t49 -14.5h245l5 -77q-97 -9 -266 -9q-147 0 -147 136v556h100z" />
    <glyph glyph-name="M" unicode="M" horiz-adv-x="881" 
d="M742 690q39 0 41 -41l28 -649h-100l-24 607h-20l-140 -491q-9 -34 -43 -34h-87q-35 0 -44 34l-141 491h-19l-23 -607h-99l26 649q2 41 41 41h111q31 0 42 -34l117 -404q10 -36 23 -93h18q12 53 24 94l116 403q11 34 44 34h109z" />
    <glyph glyph-name="N" unicode="N" horiz-adv-x="708" 
d="M624 690v-651q0 -39 -37 -39h-95q-30 0 -43 31l-215 470q-36 78 -41 96h-14q5 -40 5 -96v-501h-100v651q0 39 38 39h92q29 0 44 -31l209 -458q4 -9 14 -29.5t18.5 -39t15.5 -34.5h15q-5 60 -5 107v485h99z" />
    <glyph glyph-name="O" unicode="O" 
d="M334 703q154 0 215 -78t61 -280t-61 -280t-215 -78q-153 0 -214 78t-61 280t61 280t214 78zM334 614q-97 0 -133.5 -58t-36.5 -211t36.5 -211t133.5 -58t134 58t37 211t-37 211t-134 58z" />
    <glyph glyph-name="P" unicode="P" horiz-adv-x="592" 
d="M324 699q129 0 177.5 -46t48.5 -172q0 -127 -46.5 -173t-167.5 -46q-75 0 -152 9v-271h-100v690q86 9 240 9zM322 348q73 1 100 28t27 105t-27 105t-100 27q-100 0 -138 -1v-264h138z" />
    <glyph glyph-name="Q" unicode="Q" horiz-adv-x="671" 
d="M335 703q154 0 215 -78t61 -280t-61 -280t-215 -78q-153 0 -214.5 78t-61.5 280t61.5 280t214.5 78zM335 614q-97 0 -133.5 -58t-36.5 -211t36.5 -211t133.5 -58t134 58t37 211t-37 211t-134 58zM293 -41q119 -46 273 -68l-32 -100q-128 27 -268 107z" />
    <glyph glyph-name="R" unicode="R" horiz-adv-x="620" 
d="M513 218l65 -218h-107l-59 215q-22 69 -87 69q-105 0 -142 1v-285h-99v690q86 9 241 9q125 0 176.5 -43t51.5 -157q0 -83 -29.5 -125t-97.5 -51v-5q67 -20 87 -100zM323 370q74 1 101.5 26.5t27.5 96.5q0 70 -27.5 95t-101.5 25q-102 0 -140 -1v-242h140z" />
    <glyph glyph-name="S" unicode="S" horiz-adv-x="563" 
d="M280 702q122 0 208 -21l-6 -73q-145 5 -198 5q-78 0 -104 -15.5t-26 -80.5q0 -51 18.5 -72t64.5 -33l137 -38q77 -21 108.5 -68t31.5 -128q0 -114 -52 -152t-183 -38q-110 0 -217 20l7 74q156 -5 212 -5q78 1 104.5 20t26.5 82q0 53 -18 73.5t-64 32.5l-140 39
q-74 20 -105.5 67.5t-31.5 128.5q0 59 12.5 95.5t43.5 55.5t69 25t102 6z" />
    <glyph glyph-name="T" unicode="T" horiz-adv-x="584" 
d="M561 690v-89h-219v-601h-101v601h-217v89h537z" />
    <glyph glyph-name="U" unicode="U" horiz-adv-x="666" 
d="M587 690v-424q0 -152 -56.5 -215.5t-193.5 -63.5q-141 0 -199.5 63.5t-58.5 215.5v424h100v-424q0 -106 34 -148t120 -42q85 0 119.5 42t34.5 148v424h100z" />
    <glyph glyph-name="V" unicode="V" horiz-adv-x="612" 
d="M597 690l-204 -662q-9 -28 -38 -28h-98q-29 0 -38 28l-204 662h103l156 -537q5 -19 19 -76h27q6 29 19 76l155 537h103z" />
    <glyph glyph-name="W" unicode="W" horiz-adv-x="951" 
d="M921 690l-132 -661q-9 -29 -39 -29h-111q-32 0 -39 30l-100 507q-10 52 -14 78h-21q-2 -9 -4.5 -25t-5 -29t-5.5 -24l-99 -507q-2 -13 -13.5 -21.5t-25.5 -8.5h-112q-31 0 -38 29l-132 661h106l99 -526q3 -17 12 -88h23q5 43 15 88l99 493q7 33 38 33h107q14 0 24.5 -9.5
t13.5 -23.5l98 -494q8 -40 15 -87h23q2 14 6 43t7 43l99 528h106z" />
    <glyph glyph-name="X" unicode="X" horiz-adv-x="615" 
d="M483 0l-164 320h-24l-164 -320h-109l190 357l-177 333h108l151 -294h26l151 294h108l-177 -333l190 -357h-109z" />
    <glyph glyph-name="Y" unicode="Y" horiz-adv-x="574" 
d="M564 690l-227 -451v-239h-100v241l-228 449h106l139 -283q8 -17 30 -80h7q21 62 30 79l139 284h104z" />
    <glyph glyph-name="Z" unicode="Z" horiz-adv-x="568" 
d="M158 85h363v-85h-473v85l356 520h-351v85h461v-85z" />
    <glyph glyph-name="bracketleft" unicode="[" horiz-adv-x="332" 
d="M292 768v-63h-97q-15 0 -15 -16v-775q0 -16 15 -16h97v-63h-145q-58 0 -58 58v817q0 26 16.5 42t41.5 16h145z" />
    <glyph glyph-name="backslash" unicode="\" horiz-adv-x="523" 
d="M105 690l393 -757h-80l-393 757h80z" />
    <glyph glyph-name="bracketright" unicode="]" horiz-adv-x="332" 
d="M185 768q25 0 41.5 -16t16.5 -42v-817q0 -25 -16.5 -41.5t-41.5 -16.5h-145v63h96q16 0 16 16v775q0 16 -16 16h-96v63h145z" />
    <glyph glyph-name="asciicircum" unicode="^" horiz-adv-x="433" 
d="M252 605l151 -213l-39 -24l-143 173h-8l-144 -173l-39 24l152 213h70z" />
    <glyph glyph-name="underscore" unicode="_" horiz-adv-x="439" 
d="M439 0v-73h-439v73h439z" />
    <glyph glyph-name="grave" unicode="`" horiz-adv-x="322" 
d="M88 726l177 -146l-32 -45l-200 117z" />
    <glyph glyph-name="a" unicode="a" horiz-adv-x="551" 
d="M307 501q89 0 131 -36t42 -125v-340h-76l-11 77q-84 -86 -195 -86q-68 0 -108.5 36t-40.5 102v51q0 58 36 90t102 32h196v38q-1 45 -21 62t-76 17q-55 0 -207 -12l-9 71q132 23 237 23zM147 141q0 -36 17 -52t54 -16q88 0 165 69v87h-178q-32 -1 -45 -16.5t-13 -45.5v-26
z" />
    <glyph glyph-name="b" unicode="b" horiz-adv-x="573" 
d="M344 501q91 0 134 -60t43 -195q0 -131 -48.5 -194.5t-171.5 -63.5q-131 0 -228 35v677h97v-175q0 -67 -10 -111q82 87 184 87zM299 69q67 1 94 40t28 137q-1 98 -23 134.5t-88 36.5q-34 0 -64.5 -16t-76.5 -52l1 -265q66 -17 129 -15z" />
    <glyph glyph-name="c" unicode="c" horiz-adv-x="491" 
d="M285 501q98 0 162 -25l-13 -62q-75 5 -132 5q-84 0 -116.5 -37t-32.5 -138t32.5 -138t116.5 -37q82 0 144 11l9 -65q-74 -27 -170 -27q-128 0 -180.5 57.5t-52.5 198.5t52.5 199t180.5 58z" />
    <glyph glyph-name="d" unicode="d" horiz-adv-x="575" 
d="M403 700h97v-700h-76l-8 67q-92 -79 -192 -79q-90 0 -130.5 64.5t-40.5 193.5q0 140 45 197.5t141 57.5q92 0 168 -44q-4 43 -4 96v147zM153 247q0 -101 23.5 -138t80.5 -37q37 0 65.5 13t80.5 48v260q-91 24 -140 24q-62 0 -86 -34.5t-24 -135.5z" />
    <glyph glyph-name="e" unicode="e" horiz-adv-x="539" 
d="M300 69q65 0 171 12l9 -64q-66 -29 -193 -29q-128 0 -181.5 58t-53.5 199q0 142 52.5 199t173.5 57q112 0 163 -41t51 -123q0 -140 -119 -140h-219q7 -76 39.5 -102t106.5 -26zM283 419q-72 0 -100 -30.5t-31 -116.5h195q48 0 48 65q-1 45 -25.5 63.5t-86.5 18.5z" />
    <glyph glyph-name="f" unicode="f" horiz-adv-x="385" 
d="M294 638q-45 0 -63.5 -17t-18.5 -59v-74h151v-75h-151v-413h-97v413h-88v70l88 5v85q0 71 34 107.5t111 36.5q94 0 141 -7l-8 -72h-99z" />
    <glyph glyph-name="g" unicode="g" horiz-adv-x="561" 
d="M540 488l-5 -52l-69 -7q17 -31 17 -85q0 -83 -47.5 -119.5t-164.5 -36.5q-55 0 -97 8q-16 -21 -8.5 -46t39.5 -30l180 -28q69 -10 98.5 -43t29.5 -96q0 -87 -51 -120t-185 -33q-135 0 -187 32.5t-52 117.5q0 40 18 64.5t60 47.5q-35 30 -31 78t38 74q-64 33 -64 129
q0 86 47 122t166 36q74 0 117 -13h151zM271 261q68 0 95 18.5t27 64.5q0 47 -26.5 65t-95.5 18q-70 0 -97 -18t-27 -65q0 -45 27.5 -64t96.5 -19zM418 -42q0 34 -15 44.5t-68 18.5l-157 20q-46 -38 -46 -83q0 -48 27.5 -62t116.5 -14q86 0 114 14.5t28 61.5z" />
    <glyph glyph-name="h" unicode="h" horiz-adv-x="583" 
d="M379 501q64 0 98 -34.5t34 -100.5v-366h-97v338q0 46 -13.5 63.5t-48.5 17.5q-38 0 -78.5 -17t-101.5 -55v-347h-97v700h97l1 -189q0 -59 -7 -95q116 85 213 85z" />
    <glyph glyph-name="i" unicode="i" horiz-adv-x="254" 
d="M150 696q28 0 28 -28v-56q0 -29 -28 -29h-46q-28 0 -28 29v56q0 28 28 28h46zM175 488v-488h-96v488h96z" />
    <glyph glyph-name="j" unicode="j" horiz-adv-x="256" 
d="M152 696q28 0 28 -28v-56q0 -29 -28 -29h-46q-29 0 -29 29v56q0 28 29 28h46zM177 488v-493q0 -60 -26.5 -112t-72.5 -85l-54 42q56 71 56 155v493h97z" />
    <glyph glyph-name="k" unicode="k" horiz-adv-x="517" 
d="M390 0l-162 240h-61q5 -43 5 -76v-164h-97v700h97l1 -307q0 -43 -6 -83h61l146 178h112l-147 -177q-13 -18 -36 -36v-2q19 -15 36 -42l163 -231h-112z" />
    <glyph glyph-name="l" unicode="l" horiz-adv-x="302" 
d="M173 700l-1 -559q0 -62 64 -62h45l11 -75q-29 -13 -93 -13q-57 0 -90 33.5t-33 94.5v581h97z" />
    <glyph glyph-name="m" unicode="m" horiz-adv-x="875" 
d="M672 501q64 0 97.5 -34.5t33.5 -100.5v-366h-95v338q-1 43 -17 62t-54 19q-33 0 -63 -15t-88 -57v-347h-93v338q0 44 -17 62.5t-54 18.5q-32 0 -62.5 -15t-88.5 -56v-348h-96v488h80l5 -74q101 87 196 87q100 0 124 -85q97 85 192 85z" />
    <glyph glyph-name="n" unicode="n" horiz-adv-x="583" 
d="M379 501q65 0 98.5 -34.5t33.5 -100.5v-366h-97v338q0 46 -13.5 63.5t-48.5 17.5q-38 0 -77 -17t-104 -56l1 -346h-97v488h82l6 -74q116 87 216 87z" />
    <glyph glyph-name="o" unicode="o" horiz-adv-x="570" 
d="M285 501q127 0 180 -59t53 -199t-53 -198t-180 -58t-180 58t-53 198t53 199t180 59zM285 419q-76 0 -104 -37t-28 -139q0 -101 28 -138t104 -37t104 37t28 138q0 102 -28 139t-104 37z" />
    <glyph glyph-name="p" unicode="p" horiz-adv-x="584" 
d="M365 501q166 0 166 -260q0 -138 -45 -195.5t-141 -57.5q-99 0 -177 49q4 -50 3 -99v-137h-96v687h80l7 -75q38 40 94 64t109 24zM319 72q63 0 87.5 34.5t24.5 135.5q0 97 -22.5 136t-76.5 39q-64 0 -161 -71v-248q106 -26 148 -26z" />
    <glyph glyph-name="q" unicode="q" horiz-adv-x="572" 
d="M275 501q128 0 224 -36v-664h-96l-1 160q0 59 8 102q-91 -76 -190 -76q-85 0 -126.5 61.5t-41.5 194.5q0 131 49 194.5t174 63.5zM152 236q0 -88 21 -126t80 -38q38 0 70 14.5t80 46.5v271q-67 17 -129 15q-69 -2 -95.5 -39.5t-26.5 -143.5z" />
    <glyph glyph-name="r" unicode="r" horiz-adv-x="404" 
d="M365 501h23l-11 -91h-30q-36 0 -73 -12.5t-102 -43.5v-354h-97v488h75l10 -75q110 88 205 88z" />
    <glyph glyph-name="s" unicode="s" horiz-adv-x="509" 
d="M241 501q117 -2 208 -17l-8 -70q-152 5 -185 5q-71 0 -92.5 -8.5t-21.5 -45.5q0 -17 3 -27.5t15.5 -17.5t19.5 -9.5t31 -9.5l138 -34q62 -16 88 -45.5t26 -91.5q0 -86 -47.5 -113.5t-164.5 -27.5q-102 0 -194 14l7 72q56 -5 167 -5q82 0 110 11.5t28 48.5q0 16 -4 26.5
t-17 17.5t-20.5 9.5t-32.5 8.5l-136 34q-61 16 -86 47.5t-25 91.5q0 81 43.5 109t149.5 27z" />
    <glyph glyph-name="t" unicode="t" horiz-adv-x="388" 
d="M361 413h-151v-272q0 -34 14.5 -48t49.5 -14h71l11 -75q-46 -13 -115 -13q-62 0 -94.5 35.5t-32.5 101.5v285h-89v70l89 5v143h96v-143h151v-75z" />
    <glyph glyph-name="u" unicode="u" horiz-adv-x="572" 
d="M401 488h96v-488h-77l-7 67q-109 -80 -208 -80q-133 0 -133 135v366h97v-338q-1 -45 15 -62.5t55 -17.5q34 0 70 15t92 50v353z" />
    <glyph glyph-name="v" unicode="v" horiz-adv-x="534" 
d="M518 488l-174 -464q-10 -24 -34 -24h-87q-25 0 -33 24l-174 464h103l114 -336q4 -12 8.5 -26t10 -31.5t8.5 -26.5h13q4 12 14 40.5t15 43.5l113 336h103z" />
    <glyph glyph-name="w" unicode="w" horiz-adv-x="826" 
d="M803 488l-137 -461q-8 -27 -37 -27h-87q-30 0 -37 31l-71 321q-2 9 -4.5 24.5t-5 28.5t-5.5 25h-12q-2 -13 -8 -39t-8 -39l-70 -321q-7 -31 -38 -31h-86q-30 0 -36 27l-138 461h100l94 -352q12 -50 15 -75h13q12 50 17 75l72 322q7 30 36 30h87q29 0 36 -31l71 -321
q2 -10 17 -75h13q7 45 15 75l94 352h100z" />
    <glyph glyph-name="x" unicode="x" horiz-adv-x="533" 
d="M408 0l-132 216h-19l-132 -216h-105l160 252l-148 236h104l119 -197h22l119 197h104l-147 -236l160 -252h-105z" />
    <glyph glyph-name="y" unicode="y" horiz-adv-x="533" 
d="M412 488h104l-189 -511q-68 -180 -224 -182l-10 64q57 17 90 47t53 76l7 18h-20q-28 0 -34 25l-173 463h104l121 -355q12 -31 17 -60h14l20 60z" />
    <glyph glyph-name="z" unicode="z" horiz-adv-x="512" 
d="M156 79h308v-79h-416v79l305 330h-301v79h408v-79z" />
    <glyph glyph-name="braceleft" unicode="{" horiz-adv-x="323" 
d="M281 768v-61q-50 0 -68.5 -18t-18.5 -63v-173q1 -62 -18 -88.5t-74 -36.5q56 -17 75.5 -42.5t20.5 -78.5v-231q0 -45 18.5 -62.5t68.5 -17.5v-61q-180 -15 -180 134v253q0 19 -2.5 30t-12.5 19t-16.5 11t-29.5 12v68q39 12 48 22.5t9 53.5v196q0 149 180 134z" />
    <glyph glyph-name="bar" unicode="|" horiz-adv-x="249" 
d="M159 781v-950h-70v950h70z" />
    <glyph glyph-name="braceright" unicode="}" horiz-adv-x="324" 
d="M43 768q180 15 180 -134v-196q0 -43 9 -53.5t48 -22.5v-68q-41 -16 -50 -27q-11 -13 -11 -45v-253q0 -149 -180 -134v61q50 0 68.5 17.5t18.5 62.5v231q1 53 20.5 78.5t75.5 42.5q-55 10 -74 36.5t-18 88.5v173q0 45 -18.5 63t-68.5 18v61z" />
    <glyph glyph-name="asciitilde" unicode="~" horiz-adv-x="523" 
d="M152 351q36 -2 108 -28t97 -29t34 9t9 43h50q7 -61 -15 -93.5t-63 -29.5q-41 2 -112 28t-94 28q-25 3 -33.5 -9.5t-8.5 -44.5h-49q-8 63 14.5 95.5t62.5 30.5z" />
    <glyph glyph-name="uni00A0" unicode="&#xa0;" horiz-adv-x="222" 
 />
    <glyph glyph-name="exclamdown" unicode="&#xa1;" horiz-adv-x="261" 
d="M143 496q19 0 27 -8t8 -28v-54q0 -20 -8 -27.5t-27 -7.5h-24q-20 0 -28 8t-8 27v54q0 20 8.5 28t27.5 8h24zM169 283l10 -183v-294h-97v294l10 183h77z" />
    <glyph glyph-name="cent" unicode="&#xa2;" horiz-adv-x="508" 
d="M454 119q-69 -24 -157 -26l-10 -93h-49l9 94q-107 7 -151.5 65.5t-44.5 189.5q0 141 53 198.5t181 57.5h8l8 85h50l-8 -88q64 -6 103 -21l-12 -65q-49 6 -99 6l-31 -348q80 0 141 10zM147 349q0 -87 24 -126t84 -46l29 346q-77 -3 -107 -40.5t-30 -133.5z" />
    <glyph glyph-name="sterling" unicode="&#xa3;" horiz-adv-x="571" 
d="M233 86h288v-86h-461v86q86 40 77 181l-4 65h-78v62h75l-7 126q-3 57 8 94t38 56t60.5 25.5t85.5 6.5q80 0 184 -10l-6 -80q-76 3 -176 3q-58 0 -79 -20t-17 -77l7 -124h205l-3 -62h-198l4 -65q4 -69 -12.5 -110.5t-58.5 -75.5q23 5 68 5z" />
    <glyph glyph-name="currency" unicode="&#xa4;" horiz-adv-x="592" 
d="M528 162l-43 -42l-73 73q-50 -39 -116 -39t-117 38l-71 -71l-45 45l71 71q-36 52 -36 114q0 66 38 118l-70 71l42 42l70 -72q51 39 118 39q64 0 118 -39l72 72l41 -42l-72 -72q38 -52 38 -117t-38 -116zM296 212q56 -1 96.5 40.5t40.5 99.5t-40.5 99t-96.5 41
q-58 0 -99 -41t-41 -99t41 -99.5t99 -40.5z" />
    <glyph glyph-name="yen" unicode="&#xa5;" horiz-adv-x="621" 
d="M588 690l-191 -364h138v-57h-168l-6 -11v-45h174v-57h-174v-156h-100v156h-169l-1 57h170v45l-6 11h-163l-2 57h135l-192 364h104l138 -270q7 -14 18 -41.5l15 -37.5h7q3 6 14 35t17 44l138 270h104z" />
    <glyph glyph-name="brokenbar" unicode="&#xa6;" horiz-adv-x="251" 
d="M160 781v-400h-70v400h70zM160 231v-400h-70v400h70z" />
    <glyph glyph-name="section" unicode="&#xa7;" horiz-adv-x="545" 
d="M261 703q126 -2 218 -12l-6 -76q-87 6 -185 6q-34 0 -52.5 -1t-37 -5.5t-26.5 -15.5t-9 -30q-1 -32 15 -51t49 -36l156 -88q71 -38 89.5 -97.5t-3.5 -140.5h-70q5 65 -9.5 101t-60.5 62l-168 97q-52 30 -76.5 63t-24.5 92q0 78 48 105t153 27zM146 383q-5 -66 9.5 -101
t61.5 -61l168 -96q51 -29 76 -63t25 -94q0 -43 -13.5 -70.5t-42.5 -40.5t-61.5 -17.5t-83.5 -4.5q-128 2 -219 12l8 76q93 -6 186 -7q33 0 51 1t36.5 6.5t26.5 17t8 30.5q2 31 -14 50.5t-47 37.5l-157 87q-71 37 -90 96t2 141h70z" />
    <glyph glyph-name="dieresis" unicode="&#xa8;" horiz-adv-x="413" 
d="M135 697q26 0 26 -27v-54q0 -27 -26 -27h-32q-26 0 -26 27v54q0 27 26 27h32zM312 697q27 0 27 -27v-54q0 -27 -27 -27h-32q-26 0 -26 27v54q0 27 26 27h32z" />
    <glyph glyph-name="copyright" unicode="&#xa9;" horiz-adv-x="832" 
d="M416 703q152 0 256 -101.5t104 -256.5t-104 -256.5t-256 -101.5t-256 102t-104 256t104 256t256 102zM416 652q-128 0 -217.5 -88t-89.5 -219t89.5 -219t217.5 -88t217.5 88t89.5 219t-89.5 219t-217.5 88zM421 565q79 0 135 -14l-8 -55q-57 4 -128 4q-68 0 -93.5 -33
t-25.5 -120t25.5 -120t93.5 -33q90 0 139 6l7 -55q-60 -16 -145 -16q-107 0 -151 49t-44 169t44 169t151 49z" />
    <glyph glyph-name="ordfeminine" unicode="&#xaa;" horiz-adv-x="441" 
d="M253 609q59 0 88.5 -25.5t29.5 -85.5v-225h-58l-8 60q-63 -67 -144 -67q-45 0 -72.5 23t-27.5 65v38q0 38 25 59.5t70 21.5h142v25q0 50 -60 50q-50 0 -154 -8l-8 54q103 15 177 15zM132 370q0 -23 12.5 -32.5t39.5 -9.5q55 0 114 46v58l-119 -9q-26 -1 -36.5 -10.5
t-10.5 -27.5v-15z" />
    <glyph glyph-name="guillemotleft" unicode="&#xab;" horiz-adv-x="491" 
d="M203 460l51 -33l-122 -176l123 -179l-51 -34l-161 202v22zM389 460l51 -33l-122 -176l123 -179l-51 -34l-161 202v22z" />
    <glyph glyph-name="logicalnot" unicode="&#xac;" horiz-adv-x="590" 
d="M71 334h442v-202h-73v129h-369v73z" />
    <glyph glyph-name="uni00AD" unicode="&#xad;" horiz-adv-x="441" 
d="M373 290v-74h-304v74h304z" />
    <glyph glyph-name="registered" unicode="&#xae;" horiz-adv-x="548" 
d="M274 702q92 0 157 -65t65 -157q0 -93 -65 -158t-157 -65q-93 0 -158 65t-65 158q0 92 65 157t158 65zM274 289q78 0 133.5 56t55.5 135t-55.5 134.5t-133.5 55.5t-133.5 -55.5t-55.5 -134.5t55.5 -135t133.5 -56zM328 472q29 -4 39 -38l29 -80h-47l-26 78q-11 26 -40 26
h-65v-104h-44v254q35 3 109 3q56 0 79.5 -16t23.5 -57q0 -57 -58 -64v-2zM282 490q34 1 47 10t12 33q1 26 -12 34.5t-47 8.5h-64v-86h64z" />
    <glyph glyph-name="macron" unicode="&#xaf;" horiz-adv-x="400" 
d="M341 677v-71h-282v71h282z" />
    <glyph glyph-name="degree" unicode="&#xb0;" horiz-adv-x="359" 
d="M180 703q53 0 92 -37.5t39 -89.5q0 -53 -39 -91.5t-92 -38.5q-54 0 -92.5 38.5t-38.5 91.5q0 52 38.5 89.5t92.5 37.5zM180 645q-30 0 -50 -19.5t-20 -49.5q0 -31 20 -51t50 -20q29 0 49.5 20t20.5 51q0 30 -20 49.5t-50 19.5z" />
    <glyph glyph-name="plusminus" unicode="&#xb1;" horiz-adv-x="586" 
d="M330 397h184v-72h-185v-131h-73v131h-184v72h184v131h74v-131zM72 65v72h442v-72h-442z" />
    <glyph glyph-name="uni00B2" unicode="&#xb2;" horiz-adv-x="424" 
d="M202 777q80 0 115.5 -20t35.5 -77q0 -61 -79 -140l-119 -116q24 3 65 3l150 -1l-1 -67h-312v42q0 20 12 32l121 118q78 74 81 121q1 25 -17 33t-57 8q-53 0 -131 -7l-4 57q72 14 140 14z" />
    <glyph glyph-name="uni00B3" unicode="&#xb3;" horiz-adv-x="411" 
d="M198 778q81 0 113 -20.5t32 -74.5q0 -93 -73 -104v-2q46 -7 64.5 -32t19.5 -72q2 -64 -32.5 -93t-117.5 -29q-55 0 -149 12l5 56q78 -5 126 -5q51 0 71 15t20 54q0 30 -16.5 46t-63.5 16h-85v56h85q45 1 59 18t14 46q-1 30 -18 40.5t-66 10.5q-67 0 -119 -5l-4 55
q69 12 135 12z" />
    <glyph glyph-name="acute" unicode="&#xb4;" horiz-adv-x="321" 
d="M224 735l54 -74l-199 -117l-32 44z" />
    <glyph glyph-name="uni00B5" unicode="&#xb5;" horiz-adv-x="578" 
d="M555 63l7 -59q-45 -14 -82 -14q-76 0 -76 86v18q-26 -46 -71 -76t-104 -30q-31 0 -60 9v-67l-11 -129h-83v687h96v-328q0 -49 17.5 -66.5t57.5 -17.5q64 0 108.5 58.5t46.5 139.5v214h97v-376q0 -27 5 -38t21 -11h31z" />
    <glyph glyph-name="paragraph" unicode="&#xb6;" horiz-adv-x="593" 
d="M344 702q93 0 154 -17v-685h-72v636q-62 4 -88 4v-850h-72v411q-122 11 -175.5 69t-53.5 180q0 138 70.5 195t236.5 57z" />
    <glyph glyph-name="periodcentered" unicode="&#xb7;" horiz-adv-x="242" 
d="M136 320q20 0 28 -7.5t8 -27.5v-53q0 -20 -8 -28t-28 -8h-31q-20 0 -28 8t-8 28v53q0 20 8 27.5t28 7.5h31z" />
    <glyph glyph-name="cedilla" unicode="&#xb8;" horiz-adv-x="236" 
d="M87 -42q66 6 92.5 -7t25.5 -58q-1 -65 -50 -99.5t-123 -24.5l16 51q38 -1 62.5 17t25.5 48q1 16 -11 21.5t-48 6.5z" />
    <glyph glyph-name="uni00B9" unicode="&#xb9;" horiz-adv-x="296" 
d="M218 771v-412h-75v304q0 26 3 40l-107 -27l-9 53l113 42h75z" />
    <glyph glyph-name="ordmasculine" unicode="&#xba;" horiz-adv-x="443" 
d="M221 609q92 0 129 -39t37 -134t-37 -133t-129 -38q-91 0 -128 38t-37 133t37 134t128 39zM221 549q-51 0 -70 -24t-20 -89q1 -65 20 -88t70 -23q52 0 71 23t19 88t-19.5 89t-70.5 24z" />
    <glyph glyph-name="guillemotright" unicode="&#xbb;" horiz-adv-x="491" 
d="M102 460l160 -198v-22l-161 -202l-51 34l123 179l-122 176zM288 460l160 -198v-22l-161 -202l-51 34l123 179l-122 176z" />
    <glyph glyph-name="onequarter" unicode="&#xbc;" horiz-adv-x="867" 
d="M150 582q0 22 4 41l-110 -28l-9 53l115 42h75v-414h-75v306zM580 690h68l-441 -690h-68zM827 153v-52l-48 -6v-95h-71v94h-189q-28 0 -41 18t1 50l122 252h73l-117 -240q-4 -8 1 -14.5t16 -6.5h134v115l13 66h58v-181h48z" />
    <glyph glyph-name="onehalf" unicode="&#xbd;" horiz-adv-x="890" 
d="M225 690v-414h-75v306q0 22 4 41l-110 -28l-9 53l115 42h75zM640 690l-440 -690h-69l441 690h68zM673 421q81 0 117 -19.5t36 -77.5q0 -61 -80 -140l-123 -119q25 3 67 3l152 -1v-67h-315v42q0 20 12 32l123 119q79 76 82 123q1 25 -17.5 33t-58.5 8q-65 0 -133 -7l-4 57
q75 14 142 14z" />
    <glyph glyph-name="threequarters" unicode="&#xbe;" horiz-adv-x="959" 
d="M357 389q1 -65 -34 -94t-119 -29q-62 0 -150 11l4 56q65 -4 128 -4q53 0 73.5 15t20.5 54q0 30 -17.5 46.5t-65.5 16.5l-85 2v52l85 3q32 0 49.5 10.5t21.5 22t4 29.5q0 31 -18 42t-68 11q-72 0 -120 -3l-4 55q67 10 135 10q84 0 116 -20.5t32 -74.5q0 -46 -16.5 -72.5
t-58.5 -32.5v-2q47 -6 66.5 -31.5t20.5 -72.5zM680 690h69l-441 -690h-68zM919 153v-52l-50 -6v-95h-71v94h-187q-28 0 -41 18t0 50l123 252h73l-117 -240q-4 -8 0.5 -14.5t15.5 -6.5h133v115l13 66h58v-181h50z" />
    <glyph glyph-name="questiondown" unicode="&#xbf;" horiz-adv-x="500" 
d="M273 501q19 0 27 -7.5t8 -27.5v-54q0 -20 -7.5 -28t-27.5 -8h-24q-20 0 -28 8t-8 28v54q0 20 8 27.5t28 7.5h24zM300 289q1 -51 -14.5 -94t-39 -71.5t-47 -53.5t-41 -53t-18.5 -56q-2 -46 27.5 -68t94.5 -22q77 0 198 9l5 -69q-7 -1 -27.5 -5t-27.5 -5t-24.5 -4
t-28.5 -3.5t-30 -2t-39.5 -2t-45.5 -0.5q-204 0 -204 155q0 41 18 76t43.5 61.5t52 54t46 67t21.5 86.5h81z" />
    <glyph glyph-name="Agrave" unicode="&#xc0;" horiz-adv-x="626" 
d="M374 762l-32 -45l-200 117l55 74zM514 0l-64 208h-275l-64 -208h-102l216 663q8 27 37 27h102q30 0 36 -27l217 -663h-103zM202 295h221l-80 262q-3 9 -8.5 28t-8.5 28h-27l-16 -56z" />
    <glyph glyph-name="Aacute" unicode="&#xc1;" horiz-adv-x="626" 
d="M468 843l-199 -117l-32 44l177 147zM514 0l-64 208h-275l-64 -208h-102l216 663q8 27 37 27h102q30 0 36 -27l217 -663h-103zM202 295h221l-80 262q-3 9 -8.5 28t-8.5 28h-27l-16 -56z" />
    <glyph glyph-name="Acircumflex" unicode="&#xc2;" horiz-adv-x="626" 
d="M308 816l-129 -96l-32 41l130 129h71l131 -129l-33 -41l-130 96h-8zM514 0l-64 208h-275l-64 -208h-102l216 663q8 27 37 27h102q30 0 36 -27l217 -663h-103zM202 295h221l-80 262q-3 9 -8.5 28t-8.5 28h-27l-16 -56z" />
    <glyph glyph-name="Atilde" unicode="&#xc3;" horiz-adv-x="626" 
d="M197 754h-44q-7 60 15.5 91.5t62.5 28.5q32 -3 78.5 -26.5t72.5 -26.5q27 -4 37 7.5t10 40.5h44q7 -58 -15 -89t-63 -28q-37 3 -84 28t-69 27q-26 3 -35.5 -9.5t-9.5 -43.5zM514 0l-64 208h-275l-64 -208h-102l216 663q8 27 37 27h102q30 0 36 -27l217 -663h-103z
M202 295h221l-80 262q-3 9 -8.5 28t-8.5 28h-27l-16 -56z" />
    <glyph glyph-name="Adieresis" unicode="&#xc4;" horiz-adv-x="626" 
d="M208 756q-26 0 -26 27v54q0 27 26 27h32q26 0 26 -27v-54q0 -27 -26 -27h-32zM385 756q-26 0 -26 27v54q0 27 26 27h32q27 0 27 -27v-54q0 -27 -27 -27h-32zM514 0l-64 208h-275l-64 -208h-102l216 663q8 27 37 27h102q30 0 36 -27l217 -663h-103zM202 295h221l-80 262
q-3 9 -8.5 28t-8.5 28h-27l-16 -56z" />
    <glyph glyph-name="Aring" unicode="&#xc5;" horiz-adv-x="626" 
d="M313 714q-46 0 -77.5 30.5t-31.5 75.5t32 76t77 31t77 -31t32 -76t-32 -75.5t-77 -30.5zM313 879q-24 0 -40 -16t-16 -43q0 -26 16 -42t40 -16q25 0 41 16t16 42t-16 42.5t-41 16.5zM514 0l-64 208h-275l-64 -208h-102l216 663q8 27 37 27h102q30 0 36 -27l217 -663h-103
zM202 295h221l-80 262q-3 9 -8.5 28t-8.5 28h-27l-16 -56z" />
    <glyph glyph-name="AE" unicode="&#xc6;" horiz-adv-x="915" 
d="M608 84h253l4 -78q-95 -8 -297 -8q-53 0 -85.5 35t-32.5 89v94h-228l-121 -216h-105l333 577q36 66 86 90t150 24q194 0 300 -7l-4 -79h-253q-29 0 -46.5 -18t-17.5 -49v-133l278 -1v-81l-278 -1v-174q0 -34 15 -49t49 -15zM269 299h181v253q0 20 9 40.5t21 30.5h-9
q-28 -16 -54 -61z" />
    <glyph glyph-name="Ccedilla" unicode="&#xc7;" horiz-adv-x="572" 
d="M332 702q108 0 191 -20l-10 -77q-80 8 -181 8q-95 0 -131.5 -58t-36.5 -210t36.5 -210t131.5 -58q127 0 195 11l10 -76q-83 -24 -205 -24q-151 0 -212 80t-61 277t61 277t212 80zM277 -54q66 6 92.5 -7t25.5 -58q-1 -65 -50 -99.5t-123 -24.5l16 51q38 -1 62.5 17
t25.5 48q1 16 -11 21.5t-48 6.5z" />
    <glyph glyph-name="Egrave" unicode="&#xc8;" horiz-adv-x="562" 
d="M371 782l-32 -45l-200 117l55 74zM234 83h274l5 -77q-91 -8 -296 -8q-64 0 -101 33.5t-38 90.5v446q1 57 38 90.5t101 33.5q205 0 296 -8l-5 -78h-274q-30 0 -42.5 -14.5t-12.5 -49.5v-138h291v-81h-291v-176q0 -35 12.5 -49.5t42.5 -14.5z" />
    <glyph glyph-name="Eacute" unicode="&#xc9;" horiz-adv-x="562" 
d="M465 863l-199 -117l-32 44l177 147zM234 83h274l5 -77q-91 -8 -296 -8q-64 0 -101 33.5t-38 90.5v446q1 57 38 90.5t101 33.5q205 0 296 -8l-5 -78h-274q-30 0 -42.5 -14.5t-12.5 -49.5v-138h291v-81h-291v-176q0 -35 12.5 -49.5t42.5 -14.5z" />
    <glyph glyph-name="Ecircumflex" unicode="&#xca;" horiz-adv-x="562" 
d="M305 836l-129 -96l-32 41l130 129h71l131 -129l-33 -41l-130 96h-8zM234 83h274l5 -77q-91 -8 -296 -8q-64 0 -101 33.5t-38 90.5v446q1 57 38 90.5t101 33.5q205 0 296 -8l-5 -78h-274q-30 0 -42.5 -14.5t-12.5 -49.5v-138h291v-81h-291v-176q0 -35 12.5 -49.5
t42.5 -14.5z" />
    <glyph glyph-name="Edieresis" unicode="&#xcb;" horiz-adv-x="562" 
d="M205 776q-26 0 -26 27v54q0 27 26 27h32q26 0 26 -27v-54q0 -27 -26 -27h-32zM382 776q-26 0 -26 27v54q0 27 26 27h32q27 0 27 -27v-54q0 -27 -27 -27h-32zM234 83h274l5 -77q-91 -8 -296 -8q-64 0 -101 33.5t-38 90.5v446q1 57 38 90.5t101 33.5q205 0 296 -8l-5 -78
h-274q-30 0 -42.5 -14.5t-12.5 -49.5v-138h291v-81h-291v-176q0 -35 12.5 -49.5t42.5 -14.5z" />
    <glyph glyph-name="Igrave" unicode="&#xcc;" horiz-adv-x="268" 
d="M18 917l177 -146l-32 -45l-200 117zM184 690v-690h-100v690h100z" />
    <glyph glyph-name="Iacute" unicode="&#xcd;" horiz-adv-x="268" 
d="M235 926l54 -74l-199 -117l-32 44zM184 690v-690h-100v690h100z" />
    <glyph glyph-name="Icircumflex" unicode="&#xce;" horiz-adv-x="268" 
d="M169 899l131 -129l-33 -41l-130 96h-8l-129 -96l-32 41l130 129h71zM184 690v-690h-100v690h100z" />
    <glyph glyph-name="Idieresis" unicode="&#xcf;" horiz-adv-x="268" 
d="M61 873q26 0 26 -27v-54q0 -27 -26 -27h-32q-26 0 -26 27v54q0 27 26 27h32zM238 873q27 0 27 -27v-54q0 -27 -27 -27h-32q-26 0 -26 27v54q0 27 26 27h32zM184 690v-690h-100v690h100z" />
    <glyph glyph-name="Eth" unicode="&#xd0;" horiz-adv-x="670" 
d="M338 699q152 0 212.5 -77t60.5 -277t-60.5 -277t-212.5 -77q-118 0 -249 9v338h-67v55h67v297q131 9 249 9zM338 78q94 0 130.5 58t36.5 209t-36.5 209t-130.5 58q-61 0 -149 -2v-217h145v-55h-145v-258q86 -2 149 -2z" />
    <glyph glyph-name="Ntilde" unicode="&#xd1;" horiz-adv-x="708" 
d="M283 883q32 -3 78.5 -26.5t72.5 -26.5q27 -4 37 7.5t10 40.5h44q7 -58 -15 -89t-63 -28q-37 3 -84 28t-69 27q-26 3 -35.5 -9.5t-9.5 -43.5h-44q-7 60 15.5 91.5t62.5 28.5zM624 690v-651q0 -39 -37 -39h-95q-30 0 -43 31l-215 470q-36 78 -41 96h-14q5 -40 5 -96v-501
h-100v651q0 39 38 39h92q29 0 44 -31l209 -458q4 -9 14 -29.5t18.5 -39t15.5 -34.5h15q-5 60 -5 107v485h99z" />
    <glyph glyph-name="Ograve" unicode="&#xd2;" 
d="M220 917l177 -146l-32 -45l-200 117zM334 703q154 0 215 -78t61 -280t-61 -280t-215 -78q-153 0 -214 78t-61 280t61 280t214 78zM334 614q-97 0 -133.5 -58t-36.5 -211t36.5 -211t133.5 -58t134 58t37 211t-37 211t-134 58z" />
    <glyph glyph-name="Oacute" unicode="&#xd3;" 
d="M437 926l54 -74l-199 -117l-32 44zM334 703q154 0 215 -78t61 -280t-61 -280t-215 -78q-153 0 -214 78t-61 280t61 280t214 78zM334 614q-97 0 -133.5 -58t-36.5 -211t36.5 -211t133.5 -58t134 58t37 211t-37 211t-134 58z" />
    <glyph glyph-name="Ocircumflex" unicode="&#xd4;" 
d="M371 899l131 -129l-33 -41l-130 96h-8l-129 -96l-32 41l130 129h71zM334 703q154 0 215 -78t61 -280t-61 -280t-215 -78q-153 0 -214 78t-61 280t61 280t214 78zM334 614q-97 0 -133.5 -58t-36.5 -211t36.5 -211t133.5 -58t134 58t37 211t-37 211t-134 58z" />
    <glyph glyph-name="Otilde" unicode="&#xd5;" 
d="M254 883q32 -3 78.5 -26.5t72.5 -26.5q27 -4 37 7.5t10 40.5h44q7 -58 -15 -89t-63 -28q-37 3 -84 28t-69 27q-26 3 -35.5 -9.5t-9.5 -43.5h-44q-7 60 15.5 91.5t62.5 28.5zM334 703q154 0 215 -78t61 -280t-61 -280t-215 -78q-153 0 -214 78t-61 280t61 280t214 78z
M334 614q-97 0 -133.5 -58t-36.5 -211t36.5 -211t133.5 -58t134 58t37 211t-37 211t-134 58z" />
    <glyph glyph-name="Odieresis" unicode="&#xd6;" 
d="M263 873q26 0 26 -27v-54q0 -27 -26 -27h-32q-26 0 -26 27v54q0 27 26 27h32zM440 873q27 0 27 -27v-54q0 -27 -27 -27h-32q-26 0 -26 27v54q0 27 26 27h32zM334 703q154 0 215 -78t61 -280t-61 -280t-215 -78q-153 0 -214 78t-61 280t61 280t214 78zM334 614
q-97 0 -133.5 -58t-36.5 -211t36.5 -211t133.5 -58t134 58t37 211t-37 211t-134 58z" />
    <glyph glyph-name="multiply" unicode="&#xd7;" horiz-adv-x="484" 
d="M446 422l-146 -132l146 -132l-47 -57l-155 139l-154 -139l-48 57l147 132l-147 132l48 57l154 -139l155 139z" />
    <glyph glyph-name="Oslash" unicode="&#xd8;" 
d="M510 662q53 -37 76.5 -112.5t23.5 -204.5q0 -202 -61 -280t-215 -78q-78 0 -131 19l-30 -65l-50 21l32 69q-51 37 -73.5 112t-22.5 202q0 202 61 280t214 78q77 0 127 -17l31 65l51 -20zM164 345q0 -155 38 -214l219 467q-33 16 -87 16q-97 0 -133.5 -58t-36.5 -211z
M334 76q97 0 134 58t37 211q0 161 -41 217l-220 -469q34 -17 90 -17z" />
    <glyph glyph-name="Ugrave" unicode="&#xd9;" horiz-adv-x="666" 
d="M218 917l177 -146l-32 -45l-200 117zM587 690v-424q0 -152 -56.5 -215.5t-193.5 -63.5q-141 0 -199.5 63.5t-58.5 215.5v424h100v-424q0 -106 34 -148t120 -42q85 0 119.5 42t34.5 148v424h100z" />
    <glyph glyph-name="Uacute" unicode="&#xda;" horiz-adv-x="666" 
d="M435 926l54 -74l-199 -117l-32 44zM587 690v-424q0 -152 -56.5 -215.5t-193.5 -63.5q-141 0 -199.5 63.5t-58.5 215.5v424h100v-424q0 -106 34 -148t120 -42q85 0 119.5 42t34.5 148v424h100z" />
    <glyph glyph-name="Ucircumflex" unicode="&#xdb;" horiz-adv-x="666" 
d="M369 899l131 -129l-33 -41l-130 96h-8l-129 -96l-32 41l130 129h71zM587 690v-424q0 -152 -56.5 -215.5t-193.5 -63.5q-141 0 -199.5 63.5t-58.5 215.5v424h100v-424q0 -106 34 -148t120 -42q85 0 119.5 42t34.5 148v424h100z" />
    <glyph glyph-name="Udieresis" unicode="&#xdc;" horiz-adv-x="666" 
d="M261 873q26 0 26 -27v-54q0 -27 -26 -27h-32q-26 0 -26 27v54q0 27 26 27h32zM438 873q27 0 27 -27v-54q0 -27 -27 -27h-32q-26 0 -26 27v54q0 27 26 27h32zM587 690v-424q0 -152 -56.5 -215.5t-193.5 -63.5q-141 0 -199.5 63.5t-58.5 215.5v424h100v-424q0 -106 34 -148
t120 -42q85 0 119.5 42t34.5 148v424h100z" />
    <glyph glyph-name="Yacute" unicode="&#xdd;" horiz-adv-x="574" 
d="M443 840l-199 -117l-32 44l177 147zM564 690l-227 -451v-239h-100v241l-228 449h106l139 -283q8 -17 30 -80h7q21 62 30 79l139 284h104z" />
    <glyph glyph-name="Thorn" unicode="&#xde;" horiz-adv-x="594" 
d="M325 570q128 0 176.5 -46.5t48.5 -175.5q0 -128 -46.5 -174t-167.5 -46q-83 0 -152 8v-136h-100v690h100v-122q38 2 141 2zM322 214q74 1 100.5 28t26.5 106q0 81 -27 108.5t-100 27.5q-100 0 -138 -1v-269h138z" />
    <glyph glyph-name="germandbls" unicode="&#xdf;" horiz-adv-x="680" 
d="M560 258q47 -23 66 -51t19 -80q0 -81 -42 -109.5t-138 -28.5q-72 0 -159 11l6 73q61 -5 133 -5q62 1 84 12t22 52q0 15 -3 24.5t-14 18.5t-18.5 13t-29.5 15l-101 48q-81 39 -81 114q0 15 2.5 28t10.5 24.5t13.5 19t19.5 18t20.5 14.5t25.5 15t25 15q35 23 48 40t13 45
q0 31 -27.5 45.5t-106.5 14.5q-81 0 -109 -22t-28 -88v-534h-97v412h-88v75l88 1v57q0 108 54.5 143t175.5 35q126 0 177.5 -29.5t51.5 -107.5q0 -40 -17 -69.5t-67 -61.5q-13 -9 -37.5 -23t-32.5 -20t-15.5 -17.5t-7.5 -26.5q0 -22 14 -33.5t51 -29.5z" />
    <glyph glyph-name="agrave" unicode="&#xe0;" horiz-adv-x="551" 
d="M336 591l-32 -45l-200 117l55 74zM307 501q89 0 131 -36t42 -125v-340h-76l-11 77q-84 -86 -195 -86q-68 0 -108.5 36t-40.5 102v51q0 58 36 90t102 32h196v38q-1 45 -21 62t-76 17q-55 0 -207 -12l-9 71q132 23 237 23zM147 141q0 -36 17 -52t54 -16q88 0 165 69v87
h-178q-32 -1 -45 -16.5t-13 -45.5v-26z" />
    <glyph glyph-name="aacute" unicode="&#xe1;" horiz-adv-x="551" 
d="M430 672l-199 -117l-32 44l177 147zM307 501q89 0 131 -36t42 -125v-340h-76l-11 77q-84 -86 -195 -86q-68 0 -108.5 36t-40.5 102v51q0 58 36 90t102 32h196v38q-1 45 -21 62t-76 17q-55 0 -207 -12l-9 71q132 23 237 23zM147 141q0 -36 17 -52t54 -16q88 0 165 69v87
h-178q-32 -1 -45 -16.5t-13 -45.5v-26z" />
    <glyph glyph-name="acircumflex" unicode="&#xe2;" horiz-adv-x="551" 
d="M270 645l-129 -96l-32 41l130 129h71l131 -129l-33 -41l-130 96h-8zM307 501q89 0 131 -36t42 -125v-340h-76l-11 77q-84 -86 -195 -86q-68 0 -108.5 36t-40.5 102v51q0 58 36 90t102 32h196v38q-1 45 -21 62t-76 17q-55 0 -207 -12l-9 71q132 23 237 23zM147 141
q0 -36 17 -52t54 -16q88 0 165 69v87h-178q-32 -1 -45 -16.5t-13 -45.5v-26z" />
    <glyph glyph-name="atilde" unicode="&#xe3;" horiz-adv-x="551" 
d="M159 583h-44q-7 60 15.5 91.5t62.5 28.5q32 -3 78.5 -26.5t72.5 -26.5q27 -4 37 7.5t10 40.5h44q7 -58 -15 -89t-63 -28q-37 3 -84 28t-69 27q-26 3 -35.5 -9.5t-9.5 -43.5zM307 501q89 0 131 -36t42 -125v-340h-76l-11 77q-84 -86 -195 -86q-68 0 -108.5 36t-40.5 102
v51q0 58 36 90t102 32h196v38q-1 45 -21 62t-76 17q-55 0 -207 -12l-9 71q132 23 237 23zM147 141q0 -36 17 -52t54 -16q88 0 165 69v87h-178q-32 -1 -45 -16.5t-13 -45.5v-26z" />
    <glyph glyph-name="adieresis" unicode="&#xe4;" horiz-adv-x="551" 
d="M170 585q-26 0 -26 27v54q0 27 26 27h32q26 0 26 -27v-54q0 -27 -26 -27h-32zM347 585q-26 0 -26 27v54q0 27 26 27h32q27 0 27 -27v-54q0 -27 -27 -27h-32zM307 501q89 0 131 -36t42 -125v-340h-76l-11 77q-84 -86 -195 -86q-68 0 -108.5 36t-40.5 102v51q0 58 36 90
t102 32h196v38q-1 45 -21 62t-76 17q-55 0 -207 -12l-9 71q132 23 237 23zM147 141q0 -36 17 -52t54 -16q88 0 165 69v87h-178q-32 -1 -45 -16.5t-13 -45.5v-26z" />
    <glyph glyph-name="aring" unicode="&#xe5;" horiz-adv-x="551" 
d="M275 543q-46 0 -77.5 30.5t-31.5 75.5t32 76t77 31t77 -31t32 -76t-32 -75.5t-77 -30.5zM275 708q-24 0 -40 -16t-16 -43q0 -26 16 -42t40 -16q25 0 41 16t16 42q0 27 -16 43t-41 16zM307 501q89 0 131 -36t42 -125v-340h-76l-11 77q-84 -86 -195 -86q-68 0 -108.5 36
t-40.5 102v51q0 58 36 90t102 32h196v38q-1 45 -21 62t-76 17q-55 0 -207 -12l-9 71q132 23 237 23zM147 141q0 -36 17 -52t54 -16q88 0 165 69v87h-178q-32 -1 -45 -16.5t-13 -45.5v-26z" />
    <glyph glyph-name="ae" unicode="&#xe6;" horiz-adv-x="870" 
d="M630 69q67 0 171 12l9 -64q-65 -29 -192 -29q-85 0 -135.5 24.5t-75.5 78.5q-32 -38 -87 -69t-122 -31q-68 0 -108.5 36t-40.5 102v51q0 58 36 90t102 32h196v38q0 45 -20.5 62t-76.5 17q-55 0 -207 -12l-9 71q132 23 237 23q100 0 140 -45q52 45 162 45q111 0 162 -41
t51 -123q2 -140 -123 -140h-214q7 -76 39.5 -102t105.5 -26zM613 419q-72 0 -100 -30.5t-30 -116.5h189q53 0 53 65q0 44 -25 63t-87 19zM218 73q38 0 84.5 18.5t87.5 55.5q-6 30 -8 82h-177q-32 -1 -45 -16.5t-13 -45.5v-26q0 -36 17 -52t54 -16z" />
    <glyph glyph-name="ccedilla" unicode="&#xe7;" horiz-adv-x="491" 
d="M285 501q98 0 162 -25l-13 -62q-75 5 -132 5q-84 0 -116.5 -37t-32.5 -138t32.5 -138t116.5 -37q82 0 144 11l9 -65q-74 -27 -170 -27q-128 0 -180.5 57.5t-52.5 198.5t52.5 199t180.5 58zM230 -54q66 6 92.5 -7t25.5 -58q-1 -65 -50 -99.5t-123 -24.5l16 51
q38 -1 62.5 17t25.5 48q1 16 -11 21.5t-48 6.5z" />
    <glyph glyph-name="egrave" unicode="&#xe8;" horiz-adv-x="539" 
d="M343 591l-32 -45l-200 117l55 74zM300 69q65 0 171 12l9 -64q-66 -29 -193 -29q-128 0 -181.5 58t-53.5 199q0 142 52.5 199t173.5 57q112 0 163 -41t51 -123q0 -140 -119 -140h-219q7 -76 39.5 -102t106.5 -26zM283 419q-72 0 -100 -30.5t-31 -116.5h195q48 0 48 65
q-1 45 -25.5 63.5t-86.5 18.5z" />
    <glyph glyph-name="eacute" unicode="&#xe9;" horiz-adv-x="539" 
d="M437 672l-199 -117l-32 44l177 147zM300 69q65 0 171 12l9 -64q-66 -29 -193 -29q-128 0 -181.5 58t-53.5 199q0 142 52.5 199t173.5 57q112 0 163 -41t51 -123q0 -140 -119 -140h-219q7 -76 39.5 -102t106.5 -26zM283 419q-72 0 -100 -30.5t-31 -116.5h195q48 0 48 65
q-1 45 -25.5 63.5t-86.5 18.5z" />
    <glyph glyph-name="ecircumflex" unicode="&#xea;" horiz-adv-x="539" 
d="M277 645l-129 -96l-32 41l130 129h71l131 -129l-33 -41l-130 96h-8zM300 69q65 0 171 12l9 -64q-66 -29 -193 -29q-128 0 -181.5 58t-53.5 199q0 142 52.5 199t173.5 57q112 0 163 -41t51 -123q0 -140 -119 -140h-219q7 -76 39.5 -102t106.5 -26zM283 419
q-72 0 -100 -30.5t-31 -116.5h195q48 0 48 65q-1 45 -25.5 63.5t-86.5 18.5z" />
    <glyph glyph-name="edieresis" unicode="&#xeb;" horiz-adv-x="539" 
d="M177 585q-26 0 -26 27v54q0 27 26 27h32q26 0 26 -27v-54q0 -27 -26 -27h-32zM354 585q-26 0 -26 27v54q0 27 26 27h32q27 0 27 -27v-54q0 -27 -27 -27h-32zM300 69q65 0 171 12l9 -64q-66 -29 -193 -29q-128 0 -181.5 58t-53.5 199q0 142 52.5 199t173.5 57
q112 0 163 -41t51 -123q0 -140 -119 -140h-219q7 -76 39.5 -102t106.5 -26zM283 419q-72 0 -100 -30.5t-31 -116.5h195q48 0 48 65q-1 45 -25.5 63.5t-86.5 18.5z" />
    <glyph glyph-name="igrave" unicode="&#xec;" horiz-adv-x="255" 
d="M12 738l177 -146l-32 -45l-200 117zM176 488v-488h-97v488h97z" />
    <glyph glyph-name="iacute" unicode="&#xed;" horiz-adv-x="255" 
d="M229 747l54 -74l-199 -117l-32 44zM176 488v-488h-97v488h97z" />
    <glyph glyph-name="icircumflex" unicode="&#xee;" horiz-adv-x="255" 
d="M163 720l131 -129l-33 -41l-130 96h-8l-129 -96l-32 41l130 129h71zM176 488v-488h-97v488h97z" />
    <glyph glyph-name="idieresis" unicode="&#xef;" horiz-adv-x="255" 
d="M55 694q26 0 26 -27v-54q0 -27 -26 -27h-32q-26 0 -26 27v54q0 27 26 27h32zM232 694q27 0 27 -27v-54q0 -27 -27 -27h-32q-26 0 -26 27v54q0 27 26 27h32zM176 488v-488h-97v488h97z" />
    <glyph glyph-name="eth" unicode="&#xf0;" horiz-adv-x="561" 
d="M382 621q119 -106 119 -338q0 -147 -48.5 -221.5t-176.5 -74.5q-115 0 -169 55.5t-54 175.5q0 116 47.5 173.5t157.5 57.5q74 0 131 -33q-20 100 -74 153l-75 -59l-34 42l63 50q-60 29 -150 26l11 70q118 6 205 -44l77 61l35 -44zM277 68q76 0 99.5 50.5t23.5 169.5
q0 22 -2 60q-54 19 -124 19q-66 0 -93 -36.5t-27 -111.5q0 -83 28.5 -117t94.5 -34z" />
    <glyph glyph-name="ntilde" unicode="&#xf1;" horiz-adv-x="583" 
d="M189 583h-44q-7 60 15.5 91.5t62.5 28.5q32 -3 78.5 -26.5t72.5 -26.5q27 -4 37 7.5t10 40.5h44q7 -58 -15 -89t-63 -28q-37 3 -84 28t-69 27q-26 3 -35.5 -9.5t-9.5 -43.5zM379 501q65 0 98.5 -34.5t33.5 -100.5v-366h-97v338q0 46 -13.5 63.5t-48.5 17.5q-38 0 -77 -17
t-104 -56l1 -346h-97v488h82l6 -74q116 87 216 87z" />
    <glyph glyph-name="ograve" unicode="&#xf2;" horiz-adv-x="570" 
d="M171 732l177 -146l-32 -45l-200 117zM285 501q127 0 180 -59t53 -199t-53 -198t-180 -58t-180 58t-53 198t53 199t180 59zM285 419q-76 0 -104 -37t-28 -139q0 -101 28 -138t104 -37t104 37t28 138q0 102 -28 139t-104 37z" />
    <glyph glyph-name="oacute" unicode="&#xf3;" horiz-adv-x="570" 
d="M388 741l54 -74l-199 -117l-32 44zM285 501q127 0 180 -59t53 -199t-53 -198t-180 -58t-180 58t-53 198t53 199t180 59zM285 419q-76 0 -104 -37t-28 -139q0 -101 28 -138t104 -37t104 37t28 138q0 102 -28 139t-104 37z" />
    <glyph glyph-name="ocircumflex" unicode="&#xf4;" horiz-adv-x="570" 
d="M322 714l131 -129l-33 -41l-130 96h-8l-129 -96l-32 41l130 129h71zM285 501q127 0 180 -59t53 -199t-53 -198t-180 -58t-180 58t-53 198t53 199t180 59zM285 419q-76 0 -104 -37t-28 -139q0 -101 28 -138t104 -37t104 37t28 138q0 102 -28 139t-104 37z" />
    <glyph glyph-name="otilde" unicode="&#xf5;" horiz-adv-x="570" 
d="M205 698q32 -3 78.5 -26.5t72.5 -26.5q27 -4 37 7.5t10 40.5h44q7 -58 -15 -89t-63 -28q-37 3 -84 28t-69 27q-26 3 -35.5 -9.5t-9.5 -43.5h-44q-7 60 15.5 91.5t62.5 28.5zM285 501q127 0 180 -59t53 -199t-53 -198t-180 -58t-180 58t-53 198t53 199t180 59zM285 419
q-76 0 -104 -37t-28 -139q0 -101 28 -138t104 -37t104 37t28 138q0 102 -28 139t-104 37z" />
    <glyph glyph-name="odieresis" unicode="&#xf6;" horiz-adv-x="570" 
d="M214 688q26 0 26 -27v-54q0 -27 -26 -27h-32q-26 0 -26 27v54q0 27 26 27h32zM391 688q27 0 27 -27v-54q0 -27 -27 -27h-32q-26 0 -26 27v54q0 27 26 27h32zM285 501q127 0 180 -59t53 -199t-53 -198t-180 -58t-180 58t-53 198t53 199t180 59zM285 419q-76 0 -104 -37
t-28 -139q0 -101 28 -138t104 -37t104 37t28 138q0 102 -28 139t-104 37z" />
    <glyph glyph-name="divide" unicode="&#xf7;" horiz-adv-x="567" 
d="M295 529q20 0 27.5 -8t7.5 -28v-46q0 -19 -7.5 -26.5t-27.5 -7.5h-25q-20 0 -27.5 7t-7.5 27v46q0 20 7.5 28t27.5 8h25zM505 331v-72h-443v72h443zM295 176q20 0 27.5 -8t7.5 -28v-45q0 -20 -7.5 -27.5t-27.5 -7.5h-25q-20 0 -27.5 7.5t-7.5 27.5v45q0 20 7.5 28t27.5 8
h25z" />
    <glyph glyph-name="oslash" unicode="&#xf8;" horiz-adv-x="570" 
d="M417 477q53 -25 77 -81.5t24 -152.5q0 -140 -53 -198t-180 -58q-52 0 -91 9l-35 -74l-43 21l32 69q-51 26 -73.5 81.5t-22.5 149.5q0 140 53 199t180 59q47 0 87 -8l33 71l43 -21zM153 243q0 -111 35 -146l147 317q-17 5 -50 5q-76 0 -104 -37t-28 -139zM285 68
q76 0 104 37t28 138q0 117 -39 151l-148 -320q23 -6 55 -6z" />
    <glyph glyph-name="ugrave" unicode="&#xf9;" horiz-adv-x="572" 
d="M347 595l-32 -45l-200 117l55 74zM401 488h96v-488h-77l-7 67q-109 -80 -208 -80q-133 0 -133 135v366h97v-338q-1 -45 15 -62.5t55 -17.5q34 0 70 15t92 50v353z" />
    <glyph glyph-name="uacute" unicode="&#xfa;" horiz-adv-x="572" 
d="M441 676l-199 -117l-32 44l177 147zM401 488h96v-488h-77l-7 67q-109 -80 -208 -80q-133 0 -133 135v366h97v-338q-1 -45 15 -62.5t55 -17.5q34 0 70 15t92 50v353z" />
    <glyph glyph-name="ucircumflex" unicode="&#xfb;" horiz-adv-x="572" 
d="M281 649l-129 -96l-32 41l130 129h71l131 -129l-33 -41l-130 96h-8zM401 488h96v-488h-77l-7 67q-109 -80 -208 -80q-133 0 -133 135v366h97v-338q-1 -45 15 -62.5t55 -17.5q34 0 70 15t92 50v353z" />
    <glyph glyph-name="udieresis" unicode="&#xfc;" horiz-adv-x="572" 
d="M181 589q-26 0 -26 27v54q0 27 26 27h32q26 0 26 -27v-54q0 -27 -26 -27h-32zM358 589q-26 0 -26 27v54q0 27 26 27h32q27 0 27 -27v-54q0 -27 -27 -27h-32zM401 488h96v-488h-77l-7 67q-109 -80 -208 -80q-133 0 -133 135v366h97v-338q-1 -45 15 -62.5t55 -17.5
q34 0 70 15t92 50v353z" />
    <glyph glyph-name="yacute" unicode="&#xfd;" horiz-adv-x="533" 
d="M424 673l-199 -117l-32 44l177 147zM412 488h104l-189 -511q-68 -180 -224 -182l-10 64q57 17 90 47t53 76l7 18h-20q-28 0 -34 25l-173 463h104l121 -355q12 -31 17 -60h14l20 60z" />
    <glyph glyph-name="thorn" unicode="&#xfe;" horiz-adv-x="576" 
d="M346 500q95 0 135.5 -61.5t40.5 -198.5q0 -140 -42 -196.5t-137 -56.5q-93 0 -174 42q3 -46 3 -91v-137h-97v899h97v-163q0 -58 -4 -103q82 66 178 66zM311 67q62 0 86.5 37.5t24.5 136.5q0 101 -24.5 139t-82.5 38q-57 0 -143 -63v-255q89 -33 139 -33z" />
    <glyph glyph-name="ydieresis" unicode="&#xff;" horiz-adv-x="533" 
d="M164 586q-26 0 -26 27v54q0 27 26 27h32q26 0 26 -27v-54q0 -27 -26 -27h-32zM341 586q-26 0 -26 27v54q0 27 26 27h32q27 0 27 -27v-54q0 -27 -27 -27h-32zM412 488h104l-189 -511q-68 -180 -224 -182l-10 64q57 17 90 47t53 76l7 18h-20q-28 0 -34 25l-173 463h104
l121 -355q12 -31 17 -60h14l20 60z" />
    <glyph glyph-name="Amacron" unicode="&#x100;" horiz-adv-x="626" 
d="M454 844v-71h-282v71h282zM514 0l-64 208h-275l-64 -208h-102l216 663q8 27 37 27h102q30 0 36 -27l217 -663h-103zM202 295h221l-80 262q-3 9 -8.5 28t-8.5 28h-27l-16 -56z" />
    <glyph glyph-name="amacron" unicode="&#x101;" horiz-adv-x="551" 
d="M416 673v-71h-282v71h282zM307 501q89 0 131 -36t42 -125v-340h-76l-11 77q-84 -86 -195 -86q-68 0 -108.5 36t-40.5 102v51q0 58 36 90t102 32h196v38q-1 45 -21 62t-76 17q-55 0 -207 -12l-9 71q132 23 237 23zM147 141q0 -36 17 -52t54 -16q88 0 165 69v87h-178
q-32 -1 -45 -16.5t-13 -45.5v-26z" />
    <glyph glyph-name="Abreve" unicode="&#x102;" horiz-adv-x="626" 
d="M313 735q-74 0 -116 37.5t-37 97.5l49 7q-1 -34 26 -52.5t78 -18.5q50 0 77 18.5t26 52.5l49 -7q5 -60 -36.5 -97.5t-115.5 -37.5zM514 0l-64 208h-275l-64 -208h-102l216 663q8 27 37 27h102q30 0 36 -27l217 -663h-103zM202 295h221l-80 262q-3 9 -8.5 28t-8.5 28h-27
l-16 -56z" />
    <glyph glyph-name="abreve" unicode="&#x103;" horiz-adv-x="551" 
d="M275 564q-74 0 -116 37.5t-37 97.5l49 7q-1 -34 26 -52.5t78 -18.5q50 0 77 18.5t26 52.5l49 -7q5 -60 -36.5 -97.5t-115.5 -37.5zM307 501q89 0 131 -36t42 -125v-340h-76l-11 77q-84 -86 -195 -86q-68 0 -108.5 36t-40.5 102v51q0 58 36 90t102 32h196v38q-1 45 -21 62
t-76 17q-55 0 -207 -12l-9 71q132 23 237 23zM147 141q0 -36 17 -52t54 -16q88 0 165 69v87h-178q-32 -1 -45 -16.5t-13 -45.5v-26z" />
    <glyph glyph-name="Aogonek" unicode="&#x104;" horiz-adv-x="626" 
d="M621 -153l12 -40q-38 -15 -68.5 -19t-49 3t-31 20.5t-12 32.5t6.5 40q20 59 93 116h-58l-64 208h-275l-64 -208h-102l216 663q8 27 37 27h102q30 0 36 -27l217 -663q-52 -61 -71 -111q-15 -34 7.5 -45.5t67.5 3.5zM202 295h221l-80 262q-3 9 -8.5 28t-8.5 28h-27l-16 -56
z" />
    <glyph glyph-name="aogonek" unicode="&#x105;" horiz-adv-x="551" 
d="M482 -153l12 -40q-38 -15 -68.5 -19t-49 3t-31 20.5t-12 32.5t6.5 40q20 59 93 116h-29l-11 77q-84 -86 -195 -86q-68 0 -108.5 36t-40.5 102v51q0 58 36 90t102 32h196v38q-1 45 -21 62t-76 17q-55 0 -207 -12l-9 71q132 23 237 23q89 0 131 -36t42 -125v-340h-2
q-52 -61 -71 -111q-15 -34 7.5 -45.5t67.5 3.5zM147 141q0 -36 17 -52t54 -16q88 0 165 69v87h-178q-32 -1 -45 -16.5t-13 -45.5v-26z" />
    <glyph glyph-name="Cacute" unicode="&#x106;" horiz-adv-x="572" 
d="M421 926l54 -74l-199 -117l-32 44zM332 702q108 0 191 -20l-10 -77q-80 8 -181 8q-95 0 -131.5 -58t-36.5 -210t36.5 -210t131.5 -58q127 0 195 11l10 -76q-83 -24 -205 -24q-151 0 -212 80t-61 277t61 277t212 80z" />
    <glyph glyph-name="cacute" unicode="&#x107;" horiz-adv-x="491" 
d="M368 747l54 -74l-199 -117l-32 44zM285 501q98 0 162 -25l-13 -62q-75 5 -132 5q-84 0 -116.5 -37t-32.5 -138t32.5 -138t116.5 -37q82 0 144 11l9 -65q-74 -27 -170 -27q-128 0 -180.5 57.5t-52.5 198.5t52.5 199t180.5 58z" />
    <glyph glyph-name="Ccircumflex" unicode="&#x108;" horiz-adv-x="572" 
d="M355 899l131 -129l-33 -41l-130 96h-8l-129 -96l-32 41l130 129h71zM332 702q108 0 191 -20l-10 -77q-80 8 -181 8q-95 0 -131.5 -58t-36.5 -210t36.5 -210t131.5 -58q127 0 195 11l10 -76q-83 -24 -205 -24q-151 0 -212 80t-61 277t61 277t212 80z" />
    <glyph glyph-name="ccircumflex" unicode="&#x109;" horiz-adv-x="491" 
d="M302 720l131 -129l-33 -41l-130 96h-8l-129 -96l-32 41l130 129h71zM285 501q98 0 162 -25l-13 -62q-75 5 -132 5q-84 0 -116.5 -37t-32.5 -138t32.5 -138t116.5 -37q82 0 144 11l9 -65q-74 -27 -170 -27q-128 0 -180.5 57.5t-52.5 198.5t52.5 199t180.5 58z" />
    <glyph glyph-name="Cdotaccent" unicode="&#x10a;" horiz-adv-x="572" 
d="M335 868q29 0 29 -28v-56q0 -29 -29 -29h-31q-28 0 -28 29v56q0 28 28 28h31zM332 702q108 0 191 -20l-10 -77q-80 8 -181 8q-95 0 -131.5 -58t-36.5 -210t36.5 -210t131.5 -58q127 0 195 11l10 -76q-83 -24 -205 -24q-151 0 -212 80t-61 277t61 277t212 80z" />
    <glyph glyph-name="cdotaccent" unicode="&#x10b;" horiz-adv-x="491" 
d="M282 689q29 0 29 -28v-56q0 -29 -29 -29h-31q-28 0 -28 29v56q0 28 28 28h31zM285 501q98 0 162 -25l-13 -62q-75 5 -132 5q-84 0 -116.5 -37t-32.5 -138t32.5 -138t116.5 -37q82 0 144 11l9 -65q-74 -27 -170 -27q-128 0 -180.5 57.5t-52.5 198.5t52.5 199t180.5 58z
" />
    <glyph glyph-name="Ccaron" unicode="&#x10c;" horiz-adv-x="572" 
d="M455 917l33 -41l-145 -129h-44l-144 129l33 41l129 -84h8zM332 702q108 0 191 -20l-10 -77q-80 8 -181 8q-95 0 -131.5 -58t-36.5 -210t36.5 -210t131.5 -58q127 0 195 11l10 -76q-83 -24 -205 -24q-151 0 -212 80t-61 277t61 277t212 80z" />
    <glyph glyph-name="ccaron" unicode="&#x10d;" horiz-adv-x="491" 
d="M402 738l33 -41l-145 -129h-44l-144 129l33 41l129 -84h8zM285 501q98 0 162 -25l-13 -62q-75 5 -132 5q-84 0 -116.5 -37t-32.5 -138t32.5 -138t116.5 -37q82 0 144 11l9 -65q-74 -27 -170 -27q-128 0 -180.5 57.5t-52.5 198.5t52.5 199t180.5 58z" />
    <glyph glyph-name="Dcaron" unicode="&#x10e;" horiz-adv-x="665" 
d="M340 747h-44l-144 129l33 41l129 -84h8l130 84l33 -41zM333 699q152 0 212.5 -77t60.5 -277t-60.5 -277t-212.5 -77q-118 0 -249 9v690q131 9 249 9zM333 78q94 0 130.5 58t36.5 209t-36.5 209t-130.5 58q-61 0 -149 -2v-530q86 -2 149 -2z" />
    <glyph glyph-name="dcaron" unicode="&#x10f;" horiz-adv-x="575" 
d="M642 625q1 -66 -35 -132l-41 10q10 57 10 101q-25 0 -25 25v49q0 16 8 22.5t26 6.5h25q18 0 24.5 -6t6.5 -23zM403 553v147h97v-700h-76l-8 67q-92 -79 -192 -79q-90 0 -130.5 64.5t-40.5 193.5q0 140 45 197.5t141 57.5q92 0 168 -44q-4 43 -4 96zM153 247
q0 -101 23.5 -138t80.5 -37q37 0 65.5 13t80.5 48v260q-91 24 -140 24q-62 0 -86 -34.5t-24 -135.5z" />
    <glyph glyph-name="Dcroat" unicode="&#x110;" horiz-adv-x="670" 
d="M338 699q152 0 212.5 -77t60.5 -277t-60.5 -277t-212.5 -77q-118 0 -249 9v338h-67v55h67v297q131 9 249 9zM338 78q94 0 130.5 58t36.5 209t-36.5 209t-130.5 58q-61 0 -149 -2v-217h145v-55h-145v-258q86 -2 149 -2z" />
    <glyph glyph-name="dcroat" unicode="&#x111;" horiz-adv-x="570" 
d="M566 625v-55h-66v-570h-76l-8 67q-92 -79 -192 -79q-90 0 -130.5 64.5t-40.5 193.5q0 140 45 197.5t141 57.5q92 0 168 -44q-4 43 -4 96v17h-149v55h149v75h97v-75h66zM153 247q0 -101 23.5 -138t80.5 -37q37 0 65.5 13t80.5 48v260q-91 24 -140 24q-62 0 -86 -34.5
t-24 -135.5z" />
    <glyph glyph-name="Emacron" unicode="&#x112;" horiz-adv-x="562" 
d="M451 864v-71h-282v71h282zM234 83h274l5 -77q-91 -8 -296 -8q-64 0 -101 33.5t-38 90.5v446q1 57 38 90.5t101 33.5q205 0 296 -8l-5 -78h-274q-30 0 -42.5 -14.5t-12.5 -49.5v-138h291v-81h-291v-176q0 -35 12.5 -49.5t42.5 -14.5z" />
    <glyph glyph-name="emacron" unicode="&#x113;" horiz-adv-x="539" 
d="M423 673v-71h-282v71h282zM300 69q65 0 171 12l9 -64q-66 -29 -193 -29q-128 0 -181.5 58t-53.5 199q0 142 52.5 199t173.5 57q112 0 163 -41t51 -123q0 -140 -119 -140h-219q7 -76 39.5 -102t106.5 -26zM283 419q-72 0 -100 -30.5t-31 -116.5h195q48 0 48 65
q-1 45 -25.5 63.5t-86.5 18.5z" />
    <glyph glyph-name="Ebreve" unicode="&#x114;" horiz-adv-x="562" 
d="M310 755q-74 0 -116 37.5t-37 97.5l49 7q-1 -34 26 -52.5t78 -18.5q50 0 77 18.5t26 52.5l49 -7q5 -60 -36.5 -97.5t-115.5 -37.5zM234 83h274l5 -77q-91 -8 -296 -8q-64 0 -101 33.5t-38 90.5v446q1 57 38 90.5t101 33.5q205 0 296 -8l-5 -78h-274q-30 0 -42.5 -14.5
t-12.5 -49.5v-138h291v-81h-291v-176q0 -35 12.5 -49.5t42.5 -14.5z" />
    <glyph glyph-name="ebreve" unicode="&#x115;" horiz-adv-x="539" 
d="M282 564q-74 0 -116 37.5t-37 97.5l49 7q-1 -34 26 -52.5t78 -18.5q50 0 77 18.5t26 52.5l49 -7q5 -60 -36.5 -97.5t-115.5 -37.5zM300 69q65 0 171 12l9 -64q-66 -29 -193 -29q-128 0 -181.5 58t-53.5 199q0 142 52.5 199t173.5 57q112 0 163 -41t51 -123
q0 -140 -119 -140h-219q7 -76 39.5 -102t106.5 -26zM283 419q-72 0 -100 -30.5t-31 -116.5h195q48 0 48 65q-1 45 -25.5 63.5t-86.5 18.5z" />
    <glyph glyph-name="Edotaccent" unicode="&#x116;" horiz-adv-x="562" 
d="M294 766q-28 0 -28 29v56q0 28 28 28h31q29 0 29 -28v-56q0 -29 -29 -29h-31zM234 83h274l5 -77q-91 -8 -296 -8q-64 0 -101 33.5t-38 90.5v446q1 57 38 90.5t101 33.5q205 0 296 -8l-5 -78h-274q-30 0 -42.5 -14.5t-12.5 -49.5v-138h291v-81h-291v-176q0 -35 12.5 -49.5
t42.5 -14.5z" />
    <glyph glyph-name="edotaccent" unicode="&#x117;" horiz-adv-x="539" 
d="M266 575q-28 0 -28 29v56q0 28 28 28h31q29 0 29 -28v-56q0 -29 -29 -29h-31zM300 69q65 0 171 12l9 -64q-66 -29 -193 -29q-128 0 -181.5 58t-53.5 199q0 142 52.5 199t173.5 57q112 0 163 -41t51 -123q0 -140 -119 -140h-219q7 -76 39.5 -102t106.5 -26zM283 419
q-72 0 -100 -30.5t-31 -116.5h195q48 0 48 65q-1 45 -25.5 63.5t-86.5 18.5z" />
    <glyph glyph-name="Eogonek" unicode="&#x118;" horiz-adv-x="562" 
d="M517 -147l12 -40q-38 -15 -68.5 -19t-49 3t-31 20.5t-12 32.5t6.5 40q20 57 89 112q-79 -4 -247 -4q-64 0 -101 33.5t-38 90.5v446q1 57 38 90.5t101 33.5q205 0 296 -8l-5 -78h-274q-30 0 -42.5 -14.5t-12.5 -49.5v-138h291v-81h-291v-176q0 -35 12.5 -49.5t42.5 -14.5
h274l5 -77q-52 -61 -71 -111q-15 -34 7.5 -45.5t67.5 3.5z" />
    <glyph glyph-name="eogonek" unicode="&#x119;" horiz-adv-x="539" 
d="M484 -135l12 -40q-38 -15 -68.5 -19t-49 3t-31 20.5t-12 32.5t6.5 40q16 48 70 96q-60 -10 -125 -10q-128 0 -181.5 58t-53.5 199q0 142 52.5 199t173.5 57q112 0 163 -41t51 -123q0 -140 -119 -140h-219q7 -76 39.5 -102t106.5 -26q65 0 171 12l9 -63v-1q-1 0 -1 -1
q-49 -56 -70 -109q-15 -34 7.5 -45.5t67.5 3.5zM283 419q-72 0 -100 -30.5t-31 -116.5h195q48 0 48 65q-1 45 -25.5 63.5t-86.5 18.5z" />
    <glyph glyph-name="Ecaron" unicode="&#x11a;" horiz-adv-x="562" 
d="M333 758h-44l-144 129l33 41l129 -84h8l130 84l33 -41zM234 83h274l5 -77q-91 -8 -296 -8q-64 0 -101 33.5t-38 90.5v446q1 57 38 90.5t101 33.5q205 0 296 -8l-5 -78h-274q-30 0 -42.5 -14.5t-12.5 -49.5v-138h291v-81h-291v-176q0 -35 12.5 -49.5t42.5 -14.5z" />
    <glyph glyph-name="ecaron" unicode="&#x11b;" horiz-adv-x="539" 
d="M305 567h-44l-144 129l33 41l129 -84h8l130 84l33 -41zM300 69q65 0 171 12l9 -64q-66 -29 -193 -29q-128 0 -181.5 58t-53.5 199q0 142 52.5 199t173.5 57q112 0 163 -41t51 -123q0 -140 -119 -140h-219q7 -76 39.5 -102t106.5 -26zM283 419q-72 0 -100 -30.5
t-31 -116.5h195q48 0 48 65q-1 45 -25.5 63.5t-86.5 18.5z" />
    <glyph glyph-name="Gcircumflex" unicode="&#x11c;" horiz-adv-x="629" 
d="M323 834l-129 -96l-32 41l130 129h71l131 -129l-33 -41l-130 96h-8zM466 398h98v-398h-74l-10 69q-89 -82 -205 -82q-114 0 -165 87t-51 274q0 139 29 215.5t91 108t174 31.5q108 0 192 -21l-10 -76q-84 8 -176 8q-47 0 -76 -5.5t-54 -21.5t-37.5 -47t-19.5 -79t-7 -120
q0 -149 30.5 -208t107.5 -59q45 0 82 15.5t81 45.5v263z" />
    <glyph glyph-name="gcircumflex" unicode="&#x11d;" horiz-adv-x="561" 
d="M268 646l-129 -96l-32 41l130 129h71l131 -129l-33 -41l-130 96h-8zM540 488l-5 -52l-69 -7q17 -31 17 -85q0 -83 -47.5 -119.5t-164.5 -36.5q-55 0 -97 8q-16 -21 -8.5 -46t39.5 -30l180 -28q69 -10 98.5 -43t29.5 -96q0 -87 -51 -120t-185 -33q-135 0 -187 32.5
t-52 117.5q0 40 18 64.5t60 47.5q-35 30 -31 78t38 74q-64 33 -64 129q0 86 47 122t166 36q74 0 117 -13h151zM271 261q68 0 95 18.5t27 64.5q0 47 -26.5 65t-95.5 18q-70 0 -97 -18t-27 -65q0 -45 27.5 -64t96.5 -19zM418 -42q0 34 -15 44.5t-68 18.5l-157 20
q-46 -38 -46 -83q0 -48 27.5 -62t116.5 -14q86 0 114 14.5t28 61.5z" />
    <glyph glyph-name="Gbreve" unicode="&#x11e;" horiz-adv-x="629" 
d="M328 753q-74 0 -116 37.5t-37 97.5l49 7q-1 -34 26 -52.5t78 -18.5q50 0 77 18.5t26 52.5l49 -7q5 -60 -36.5 -97.5t-115.5 -37.5zM466 398h98v-398h-74l-10 69q-89 -82 -205 -82q-114 0 -165 87t-51 274q0 139 29 215.5t91 108t174 31.5q108 0 192 -21l-10 -76
q-84 8 -176 8q-47 0 -76 -5.5t-54 -21.5t-37.5 -47t-19.5 -79t-7 -120q0 -149 30.5 -208t107.5 -59q45 0 82 15.5t81 45.5v263z" />
    <glyph glyph-name="gbreve" unicode="&#x11f;" horiz-adv-x="561" 
d="M273 565q-74 0 -116 37.5t-37 97.5l49 7q-1 -34 26 -52.5t78 -18.5q50 0 77 18.5t26 52.5l49 -7q5 -60 -36.5 -97.5t-115.5 -37.5zM540 488l-5 -52l-69 -7q17 -31 17 -85q0 -83 -47.5 -119.5t-164.5 -36.5q-55 0 -97 8q-16 -21 -8.5 -46t39.5 -30l180 -28
q69 -10 98.5 -43t29.5 -96q0 -87 -51 -120t-185 -33q-135 0 -187 32.5t-52 117.5q0 40 18 64.5t60 47.5q-35 30 -31 78t38 74q-64 33 -64 129q0 86 47 122t166 36q74 0 117 -13h151zM271 261q68 0 95 18.5t27 64.5q0 47 -26.5 65t-95.5 18q-70 0 -97 -18t-27 -65
q0 -45 27.5 -64t96.5 -19zM418 -42q0 34 -15 44.5t-68 18.5l-157 20q-46 -38 -46 -83q0 -48 27.5 -62t116.5 -14q86 0 114 14.5t28 61.5z" />
    <glyph glyph-name="Gdotaccent" unicode="&#x120;" horiz-adv-x="629" 
d="M312 764q-28 0 -28 29v56q0 28 28 28h31q29 0 29 -28v-56q0 -29 -29 -29h-31zM466 398h98v-398h-74l-10 69q-89 -82 -205 -82q-114 0 -165 87t-51 274q0 139 29 215.5t91 108t174 31.5q108 0 192 -21l-10 -76q-84 8 -176 8q-47 0 -76 -5.5t-54 -21.5t-37.5 -47t-19.5 -79
t-7 -120q0 -149 30.5 -208t107.5 -59q45 0 82 15.5t81 45.5v263z" />
    <glyph glyph-name="gdotaccent" unicode="&#x121;" horiz-adv-x="561" 
d="M257 576q-28 0 -28 29v56q0 28 28 28h31q29 0 29 -28v-56q0 -29 -29 -29h-31zM540 488l-5 -52l-69 -7q17 -31 17 -85q0 -83 -47.5 -119.5t-164.5 -36.5q-55 0 -97 8q-16 -21 -8.5 -46t39.5 -30l180 -28q69 -10 98.5 -43t29.5 -96q0 -87 -51 -120t-185 -33
q-135 0 -187 32.5t-52 117.5q0 40 18 64.5t60 47.5q-35 30 -31 78t38 74q-64 33 -64 129q0 86 47 122t166 36q74 0 117 -13h151zM271 261q68 0 95 18.5t27 64.5q0 47 -26.5 65t-95.5 18q-70 0 -97 -18t-27 -65q0 -45 27.5 -64t96.5 -19zM418 -42q0 34 -15 44.5t-68 18.5
l-157 20q-46 -38 -46 -83q0 -48 27.5 -62t116.5 -14q86 0 114 14.5t28 61.5z" />
    <glyph glyph-name="Gcommaaccent" unicode="&#x122;" horiz-adv-x="629" 
d="M466 398h98v-398h-74l-10 69q-89 -82 -205 -82q-114 0 -165 87t-51 274q0 139 29 215.5t91 108t174 31.5q108 0 192 -21l-10 -76q-84 8 -176 8q-47 0 -76 -5.5t-54 -21.5t-37.5 -47t-19.5 -79t-7 -120q0 -149 30.5 -208t107.5 -59q45 0 82 15.5t81 45.5v263zM339 -58
q18 0 24.5 -6.5t6.5 -23.5v-54q-1 -76 -35 -135l-41 11q10 49 10 103q-25 0 -25 26v49q1 17 9 23.5t26 6.5h25z" />
    <glyph glyph-name="gcommaaccent" unicode="&#x123;" horiz-adv-x="561" 
d="M273 556q-18 0 -24.5 6.5t-6.5 23.5v54q1 76 35 135l41 -11q-10 -49 -10 -103q25 0 25 -26v-49q-1 -17 -9 -23.5t-26 -6.5h-25zM540 488l-5 -52l-69 -7q17 -31 17 -85q0 -83 -47.5 -119.5t-164.5 -36.5q-55 0 -97 8q-16 -21 -8.5 -46t39.5 -30l180 -28q69 -10 98.5 -43
t29.5 -96q0 -87 -51 -120t-185 -33q-135 0 -187 32.5t-52 117.5q0 40 18 64.5t60 47.5q-35 30 -31 78t38 74q-64 33 -64 129q0 86 47 122t166 36q74 0 117 -13h151zM271 261q68 0 95 18.5t27 64.5q0 47 -26.5 65t-95.5 18q-70 0 -97 -18t-27 -65q0 -45 27.5 -64t96.5 -19z
M418 -42q0 34 -15 44.5t-68 18.5l-157 20q-46 -38 -46 -83q0 -48 27.5 -62t116.5 -14q86 0 114 14.5t28 61.5z" />
    <glyph glyph-name="Hcircumflex" unicode="&#x124;" horiz-adv-x="670" 
d="M330 834l-129 -96l-32 41l130 129h71l131 -129l-33 -41l-130 96h-8zM486 690h100v-690h-100v325h-302v-325h-100v690h100v-279h302v279z" />
    <glyph glyph-name="hcircumflex" unicode="&#x125;" horiz-adv-x="583" 
d="M125 798h-8l-129 -96l-32 41l130 129h71l131 -129l-33 -41zM379 501q64 0 98 -34.5t34 -100.5v-366h-97v338q0 46 -13.5 63.5t-48.5 17.5q-38 0 -78.5 -17t-101.5 -55v-347h-97v700h97l1 -189q0 -59 -7 -95q116 85 213 85z" />
    <glyph glyph-name="Hbar" unicode="&#x126;" horiz-adv-x="678" 
d="M658 570v-52h-68v-518h-100v325h-302v-325h-100v518h-69v52h69v120h100v-120h302v120h100v-120h68zM490 411v107h-302v-107h302z" />
    <glyph glyph-name="hbar" unicode="&#x127;" horiz-adv-x="587" 
d="M383 501q64 0 98 -34.5t34 -100.5v-366h-97v338q0 46 -13.5 63.5t-48.5 17.5q-38 0 -78.5 -17t-101.5 -55v-347h-97v570h-74v55h74v75h97v-75h142v-55h-141v-59q0 -59 -7 -95q116 85 213 85z" />
    <glyph glyph-name="Itilde" unicode="&#x128;" horiz-adv-x="268" 
d="M52 883q32 -3 78.5 -26.5t72.5 -26.5q27 -4 37 7.5t10 40.5h44q7 -58 -15 -89t-63 -28q-37 3 -84 28t-69 27q-26 3 -35.5 -9.5t-9.5 -43.5h-44q-7 60 15.5 91.5t62.5 28.5zM184 690v-690h-100v690h100z" />
    <glyph glyph-name="itilde" unicode="&#x129;" horiz-adv-x="255" 
d="M46 704q32 -3 78.5 -26.5t72.5 -26.5q27 -4 37 7.5t10 40.5h44q7 -58 -15 -89t-63 -28q-37 3 -84 28t-69 27q-26 3 -35.5 -9.5t-9.5 -43.5h-44q-7 60 15.5 91.5t62.5 28.5zM176 488v-488h-97v488h97z" />
    <glyph glyph-name="Imacron" unicode="&#x12a;" horiz-adv-x="268" 
d="M275 853v-71h-282v71h282zM184 690v-690h-100v690h100z" />
    <glyph glyph-name="imacron" unicode="&#x12b;" horiz-adv-x="255" 
d="M269 674v-71h-282v71h282zM176 488v-488h-97v488h97z" />
    <glyph glyph-name="Ibreve" unicode="&#x12c;" horiz-adv-x="268" 
d="M237 886l49 -7q5 -60 -36.5 -97.5t-115.5 -37.5t-116 37.5t-37 97.5l49 7q-1 -34 26 -52.5t78 -18.5q50 0 77 18.5t26 52.5zM184 690v-690h-100v690h100z" />
    <glyph glyph-name="ibreve" unicode="&#x12d;" horiz-adv-x="255" 
d="M231 707l49 -7q5 -60 -36.5 -97.5t-115.5 -37.5t-116 37.5t-37 97.5l49 7q-1 -34 26 -52.5t78 -18.5q50 0 77 18.5t26 52.5zM176 488v-488h-97v488h97z" />
    <glyph glyph-name="Iogonek" unicode="&#x12e;" horiz-adv-x="268" 
d="M176 -153l12 -40q-38 -15 -68.5 -19t-49 3t-31 20.5t-12 32.5t6.5 40q20 59 93 116h-43v690h100v-690h-12q-52 -61 -71 -111q-15 -34 7.5 -45.5t67.5 3.5z" />
    <glyph glyph-name="iogonek" unicode="&#x12f;" horiz-adv-x="255" 
d="M112 576q-28 0 -28 29v56q0 28 28 28h31q29 0 29 -28v-56q0 -29 -29 -29h-31zM172 -153l12 -40q-38 -15 -68.5 -19t-49 3t-31 20.5t-12 32.5t6.5 40q20 59 93 116h-44v488h97v-488h-8q-52 -61 -71 -111q-15 -34 7.5 -45.5t67.5 3.5z" />
    <glyph glyph-name="Idotaccent" unicode="&#x130;" horiz-adv-x="268" 
d="M149 868q29 0 29 -28v-56q0 -29 -29 -29h-31q-28 0 -28 29v56q0 28 28 28h31zM184 690v-690h-100v690h100z" />
    <glyph glyph-name="dotlessi" unicode="&#x131;" horiz-adv-x="255" 
d="M176 488v-488h-97v488h97z" />
    <glyph glyph-name="IJ" unicode="&#x132;" horiz-adv-x="611" 
d="M184 690v-690h-100v690h100zM530 690v-539q0 -79 -35 -120t-101 -40q-59 0 -98 13l11 72h49q74 0 74 70v544h100z" />
    <glyph glyph-name="ij" unicode="&#x133;" horiz-adv-x="510" 
d="M150 696q28 0 28 -28v-56q0 -29 -28 -29h-46q-28 0 -28 29v56q0 28 28 28h46zM406 696q28 0 28 -28v-56q0 -29 -28 -29h-46q-29 0 -29 29v56q0 28 29 28h46zM175 488v-488h-96v488h96zM431 488v-493q0 -60 -26.5 -112t-72.5 -85l-54 42q56 71 56 155v493h97z" />
    <glyph glyph-name="Jcircumflex" unicode="&#x134;" horiz-adv-x="343" 
d="M247 900l131 -129l-33 -41l-130 96h-8l-129 -96l-32 41l130 129h71zM262 690v-539q0 -79 -35 -120t-101 -40q-59 0 -98 13l11 72h49q74 0 74 70v544h100z" />
    <glyph glyph-name="jcircumflex" unicode="&#x135;" horiz-adv-x="256" 
d="M163 720l131 -129l-33 -41l-130 96h-8l-129 -96l-32 41l130 129h71zM177 488v-493q0 -60 -26.5 -112t-72.5 -85l-54 42q56 71 56 155v493h97z" />
    <glyph glyph-name="Kcommaaccent" unicode="&#x136;" horiz-adv-x="597" 
d="M378 305l202 -305h-111l-213 319h-79q7 -42 7 -71v-248h-100v690h100v-212q0 -43 -7 -78h78l203 290h109l-195 -282q-16 -23 -42 -48v-3q28 -24 48 -52zM330 -58q18 0 24.5 -6.5t6.5 -23.5v-54q-1 -76 -35 -135l-41 11q10 49 10 103q-25 0 -25 26v49q1 17 9 23.5t26 6.5
h25z" />
    <glyph glyph-name="kcommaaccent" unicode="&#x137;" horiz-adv-x="517" 
d="M339 231l163 -231h-112l-162 240h-61q5 -43 5 -76v-164h-97v700h97l1 -307q0 -43 -6 -83h61l146 178h112l-147 -177q-13 -18 -36 -36v-2q19 -15 36 -42zM293 -58q18 0 24.5 -6.5t6.5 -23.5v-54q-1 -76 -35 -135l-41 11q10 49 10 103q-25 0 -25 26v49q1 17 9 23.5t26 6.5
h25z" />
    <glyph glyph-name="kgreenlandic" unicode="&#x138;" horiz-adv-x="517" 
d="M390 0l-159 212h-64q5 -45 5 -77v-135h-97v488h97l1 -123q0 -43 -6 -84h57l150 207h112l-149 -195q-15 -20 -36 -36v-2q14 -11 36 -41l165 -214h-112z" />
    <glyph glyph-name="Lacute" unicode="&#x139;" horiz-adv-x="515" 
d="M234 927l54 -74l-199 -117l-32 44zM182 690v-542q0 -35 14 -49.5t49 -14.5h245l5 -77q-97 -9 -266 -9q-147 0 -147 136v556h100z" />
    <glyph glyph-name="lacute" unicode="&#x13a;" horiz-adv-x="302" 
d="M226 941l54 -74l-199 -117l-32 44zM173 700l-1 -559q0 -62 64 -62h45l11 -75q-29 -13 -93 -13q-57 0 -90 33.5t-33 94.5v581h97z" />
    <glyph glyph-name="Lcommaaccent" unicode="&#x13b;" horiz-adv-x="515" 
d="M182 690v-542q0 -35 14 -49.5t49 -14.5h245l5 -77q-97 -9 -266 -9q-147 0 -147 136v556h100zM308 -59q18 0 24.5 -6.5t6.5 -23.5v-54q-1 -76 -35 -135l-41 11q10 49 10 103q-25 0 -25 26v49q1 17 9 23.5t26 6.5h25z" />
    <glyph glyph-name="lcommaaccent" unicode="&#x13c;" horiz-adv-x="302" 
d="M173 700l-1 -559q0 -62 64 -62h45l11 -75q-29 -13 -93 -13q-57 0 -90 33.5t-33 94.5v581h97zM187 -59q18 0 24.5 -6.5t6.5 -23.5v-54q-1 -76 -35 -135l-41 11q10 49 10 103q-25 0 -25 26v49q1 17 9 23.5t26 6.5h25z" />
    <glyph glyph-name="Lcaron" unicode="&#x13d;" horiz-adv-x="515" 
d="M182 690v-542q0 -35 14 -49.5t49 -14.5h245l5 -77q-97 -9 -266 -9q-147 0 -147 136v556h100zM364 689q18 0 24.5 -6t6.5 -23l1 -53q1 -66 -35 -132l-41 10q10 57 10 101q-25 0 -25 25v49q0 16 8 22.5t26 6.5h25z" />
    <glyph glyph-name="lcaron" unicode="&#x13e;" horiz-adv-x="302" 
d="M281 703q18 0 24.5 -6t6.5 -23l1 -53q1 -66 -35 -132l-41 10q10 57 10 101q-25 0 -25 25v49q0 16 8 22.5t26 6.5h25zM173 700l-1 -559q0 -62 64 -62h45l11 -75q-29 -13 -93 -13q-57 0 -90 33.5t-33 94.5v581h97z" />
    <glyph glyph-name="Ldot" unicode="&#x13f;" horiz-adv-x="515" 
d="M182 690v-542q0 -35 14 -49.5t49 -14.5h245l5 -77q-97 -9 -266 -9q-147 0 -147 136v556h100zM286 -135q-29 0 -29 28v56q0 29 29 29h31q28 0 28 -29v-56q0 -28 -28 -28h-31z" />
    <glyph glyph-name="ldot" unicode="&#x140;" horiz-adv-x="326" 
d="M173 700l-1 -559q0 -62 64 -62h45l11 -75q-29 -13 -93 -13q-57 0 -90 33.5t-33 94.5v581h97zM270 333q-29 0 -29 28v56q0 29 29 29h31q28 0 28 -29v-56q0 -28 -28 -28h-31z" />
    <glyph glyph-name="Lslash" unicode="&#x141;" horiz-adv-x="521" 
d="M497 84l5 -77q-97 -9 -266 -9q-147 0 -147 136v197l-70 -29v61l70 29v298h100v-257l113 47v-61l-113 -47v-224q0 -35 14 -49.5t49 -14.5h245z" />
    <glyph glyph-name="lslash" unicode="&#x142;" horiz-adv-x="332" 
d="M302 79l11 -75q-29 -13 -93 -13q-57 0 -90 33.5t-33 94.5v209l-78 -32v62l78 32v310h97v-269l106 44v-62l-107 -44v-228q0 -62 64 -62h45z" />
    <glyph glyph-name="Nacute" unicode="&#x143;" horiz-adv-x="708" 
d="M466 926l54 -74l-199 -117l-32 44zM624 690v-651q0 -39 -37 -39h-95q-30 0 -43 31l-215 470q-36 78 -41 96h-14q5 -40 5 -96v-501h-100v651q0 39 38 39h92q29 0 44 -31l209 -458q4 -9 14 -29.5t18.5 -39t15.5 -34.5h15q-5 60 -5 107v485h99z" />
    <glyph glyph-name="nacute" unicode="&#x144;" horiz-adv-x="583" 
d="M460 672l-199 -117l-32 44l177 147zM379 501q65 0 98.5 -34.5t33.5 -100.5v-366h-97v338q0 46 -13.5 63.5t-48.5 17.5q-38 0 -77 -17t-104 -56l1 -346h-97v488h82l6 -74q116 87 216 87z" />
    <glyph glyph-name="Ncommaaccent" unicode="&#x145;" horiz-adv-x="708" 
d="M624 690v-651q0 -39 -37 -39h-95q-30 0 -43 31l-215 470q-36 78 -41 96h-14q5 -40 5 -96v-501h-100v651q0 39 38 39h92q29 0 44 -31l209 -458q4 -9 14 -29.5t18.5 -39t15.5 -34.5h15q-5 60 -5 107v485h99zM355 -58q18 0 24.5 -6.5t6.5 -23.5v-54q-1 -76 -35 -135l-41 11
q10 49 10 103q-25 0 -25 26v49q1 17 9 23.5t26 6.5h25z" />
    <glyph glyph-name="ncommaaccent" unicode="&#x146;" horiz-adv-x="583" 
d="M379 501q65 0 98.5 -34.5t33.5 -100.5v-366h-97v338q0 46 -13.5 63.5t-48.5 17.5q-38 0 -77 -17t-104 -56l1 -346h-97v488h82l6 -74q116 87 216 87zM304 -58q18 0 24.5 -6.5t6.5 -23.5v-54q-1 -76 -35 -135l-41 11q10 49 10 103q-25 0 -25 26v49q1 17 9 23.5t26 6.5h25z
" />
    <glyph glyph-name="Ncaron" unicode="&#x147;" horiz-adv-x="708" 
d="M500 917l33 -41l-145 -129h-44l-144 129l33 41l129 -84h8zM624 690v-651q0 -39 -37 -39h-95q-30 0 -43 31l-215 470q-36 78 -41 96h-14q5 -40 5 -96v-501h-100v651q0 39 38 39h92q29 0 44 -31l209 -458q4 -9 14 -29.5t18.5 -39t15.5 -34.5h15q-5 60 -5 107v485h99z" />
    <glyph glyph-name="ncaron" unicode="&#x148;" horiz-adv-x="583" 
d="M328 567h-44l-144 129l33 41l129 -84h8l130 84l33 -41zM379 501q65 0 98.5 -34.5t33.5 -100.5v-366h-97v338q0 46 -13.5 63.5t-48.5 17.5q-38 0 -77 -17t-104 -56l1 -346h-97v488h82l6 -74q116 87 216 87z" />
    <glyph glyph-name="Eng" unicode="&#x14a;" horiz-adv-x="708" 
d="M624 690v-765q0 -67 -37 -104t-100 -36q-53 0 -93 14l11 63h47q78 0 78 71v67h-35q-14 0 -29 28l-233 455q-19 36 -42 96h-12q5 -32 5 -97v-482h-100v651q0 39 38 39h73q28 0 44 -31l227 -440q20 -38 48 -104h15q-5 58 -5 105v470h100z" />
    <glyph glyph-name="eng" unicode="&#x14b;" horiz-adv-x="583" 
d="M378 501q133 0 133 -135v-430q0 -68 -32.5 -104.5t-93.5 -35.5q-50 0 -92 14l11 62h42q68 0 68 72v394q0 41 -14 57.5t-51 16.5q-61 0 -178 -66l1 -346h-97v488h75l9 -79q115 92 219 92z" />
    <glyph glyph-name="Omacron" unicode="&#x14c;" 
d="M477 853v-71h-282v71h282zM334 703q154 0 215 -78t61 -280t-61 -280t-215 -78q-153 0 -214 78t-61 280t61 280t214 78zM334 614q-97 0 -133.5 -58t-36.5 -211t36.5 -211t133.5 -58t134 58t37 211t-37 211t-134 58z" />
    <glyph glyph-name="omacron" unicode="&#x14d;" horiz-adv-x="570" 
d="M428 668v-71h-282v71h282zM285 501q127 0 180 -59t53 -199t-53 -198t-180 -58t-180 58t-53 198t53 199t180 59zM285 419q-76 0 -104 -37t-28 -139q0 -101 28 -138t104 -37t104 37t28 138q0 102 -28 139t-104 37z" />
    <glyph glyph-name="Obreve" unicode="&#x14e;" 
d="M439 886l49 -7q5 -60 -36.5 -97.5t-115.5 -37.5t-116 37.5t-37 97.5l49 7q-1 -34 26 -52.5t78 -18.5q50 0 77 18.5t26 52.5zM334 703q154 0 215 -78t61 -280t-61 -280t-215 -78q-153 0 -214 78t-61 280t61 280t214 78zM334 614q-97 0 -133.5 -58t-36.5 -211t36.5 -211
t133.5 -58t134 58t37 211t-37 211t-134 58z" />
    <glyph glyph-name="obreve" unicode="&#x14f;" horiz-adv-x="570" 
d="M390 701l49 -7q5 -60 -36.5 -97.5t-115.5 -37.5t-116 37.5t-37 97.5l49 7q-1 -34 26 -52.5t78 -18.5q50 0 77 18.5t26 52.5zM285 501q127 0 180 -59t53 -199t-53 -198t-180 -58t-180 58t-53 198t53 199t180 59zM285 419q-76 0 -104 -37t-28 -139q0 -101 28 -138t104 -37
t104 37t28 138q0 102 -28 139t-104 37z" />
    <glyph glyph-name="Ohungarumlaut" unicode="&#x150;" 
d="M299 937l70 -48l-138 -160l-42 31zM468 937l69 -48l-137 -160l-42 31zM334 703q154 0 215 -78t61 -280t-61 -280t-215 -78q-153 0 -214 78t-61 280t61 280t214 78zM334 614q-97 0 -133.5 -58t-36.5 -211t36.5 -211t133.5 -58t134 58t37 211t-37 211t-134 58z" />
    <glyph glyph-name="ohungarumlaut" unicode="&#x151;" horiz-adv-x="570" 
d="M250 752l70 -48l-138 -160l-42 31zM419 752l69 -48l-137 -160l-42 31zM285 501q127 0 180 -59t53 -199t-53 -198t-180 -58t-180 58t-53 198t53 199t180 59zM285 419q-76 0 -104 -37t-28 -139q0 -101 28 -138t104 -37t104 37t28 138q0 102 -28 139t-104 37z" />
    <glyph glyph-name="OE" unicode="&#x152;" horiz-adv-x="918" 
d="M610 83h254l4 -77q-92 -8 -301 -8q-39 0 -70 22q-70 -33 -163 -33q-153 0 -214 78t-61 280t61 280t214 78q92 0 169 -32q31 21 73 21q202 0 292 -8l-4 -78h-254q-35 0 -49.5 -14.5t-14.5 -49.5v-137l279 -1v-81l-279 -1v-175q0 -35 14.5 -49.5t49.5 -14.5zM164 345
q0 -153 36.5 -211t133.5 -58q66 0 117 14q-6 21 -6 44v422q0 23 6 44q-58 14 -117 14q-97 0 -133.5 -57.5t-36.5 -211.5z" />
    <glyph glyph-name="oe" unicode="&#x153;" horiz-adv-x="905" 
d="M666 69q65 0 169 12l10 -64q-66 -29 -193 -29q-131 0 -184 60q-52 -61 -183 -61q-127 0 -180 58t-53 198t53 199t180 59q128 0 180 -59q52 59 172 59q220 0 220 -153q1 -83 -34 -114.5t-119 -31.5h-185q6 -80 38 -106.5t109 -26.5zM285 68q71 0 100 32.5t32 117.5
q-1 9 -1 30v25q-3 84 -31.5 115t-99.5 31q-76 0 -104 -37t-28 -139q0 -101 28 -138t104 -37zM640 419q-66 0 -93 -31t-30 -113v-2h181q36 0 50 17t12 59q-3 36 -31.5 53t-88.5 17z" />
    <glyph glyph-name="Racute" unicode="&#x154;" horiz-adv-x="620" 
d="M458 852l-199 -117l-32 44l177 147zM513 218l65 -218h-107l-59 215q-22 69 -87 69q-105 0 -142 1v-285h-99v690q86 9 241 9q125 0 176.5 -43t51.5 -157q0 -83 -29.5 -125t-97.5 -51v-5q67 -20 87 -100zM323 370q74 1 101.5 26.5t27.5 96.5q0 70 -27.5 95t-101.5 25
q-102 0 -140 -1v-242h140z" />
    <glyph glyph-name="racute" unicode="&#x155;" horiz-adv-x="404" 
d="M375 673l-199 -117l-32 44l177 147zM365 501h23l-11 -91h-30q-36 0 -73 -12.5t-102 -43.5v-354h-97v488h75l10 -75q110 88 205 88z" />
    <glyph glyph-name="Rcommaaccent" unicode="&#x156;" horiz-adv-x="620" 
d="M513 218l65 -218h-107l-59 215q-22 69 -87 69q-105 0 -142 1v-285h-99v690q86 9 241 9q125 0 176.5 -43t51.5 -157q0 -83 -29.5 -125t-97.5 -51v-5q67 -20 87 -100zM323 370q74 1 101.5 26.5t27.5 96.5q0 70 -27.5 95t-101.5 25q-102 0 -140 -1v-242h140zM342 -58
q18 0 24.5 -6.5t6.5 -23.5v-54q-1 -76 -35 -135l-41 11q10 49 10 103q-25 0 -25 26v49q1 17 9 23.5t26 6.5h25z" />
    <glyph glyph-name="rcommaaccent" unicode="&#x157;" horiz-adv-x="404" 
d="M365 501h23l-11 -91h-30q-36 0 -73 -12.5t-102 -43.5v-354h-97v488h75l10 -75q110 88 205 88zM128 -58q18 0 24.5 -6.5t6.5 -23.5v-54q-1 -76 -35 -135l-41 11q10 49 10 103q-25 0 -25 26v49q1 17 9 23.5t26 6.5h25z" />
    <glyph glyph-name="Rcaron" unicode="&#x158;" horiz-adv-x="620" 
d="M326 747h-44l-144 129l33 41l129 -84h8l130 84l33 -41zM513 218l65 -218h-107l-59 215q-22 69 -87 69q-105 0 -142 1v-285h-99v690q86 9 241 9q125 0 176.5 -43t51.5 -157q0 -83 -29.5 -125t-97.5 -51v-5q67 -20 87 -100zM323 370q74 1 101.5 26.5t27.5 96.5
q0 70 -27.5 95t-101.5 25q-102 0 -140 -1v-242h140z" />
    <glyph glyph-name="rcaron" unicode="&#x159;" horiz-adv-x="404" 
d="M243 568h-44l-144 129l33 41l129 -84h8l130 84l33 -41zM160 413q110 88 205 88h23l-11 -91h-30q-36 0 -73 -12.5t-102 -43.5v-354h-97v488h75z" />
    <glyph glyph-name="Sacute" unicode="&#x15a;" horiz-adv-x="563" 
d="M387 926l54 -74l-199 -117l-32 44zM280 702q122 0 208 -21l-6 -73q-145 5 -198 5q-78 0 -104 -15.5t-26 -80.5q0 -51 18.5 -72t64.5 -33l137 -38q77 -21 108.5 -68t31.5 -128q0 -114 -52 -152t-183 -38q-110 0 -217 20l7 74q156 -5 212 -5q78 1 104.5 20t26.5 82
q0 53 -18 73.5t-64 32.5l-140 39q-74 20 -105.5 67.5t-31.5 128.5q0 59 12.5 95.5t43.5 55.5t69 25t102 6z" />
    <glyph glyph-name="sacute" unicode="&#x15b;" horiz-adv-x="509" 
d="M360 747l54 -74l-199 -117l-32 44zM241 501q117 -2 208 -17l-8 -70q-152 5 -185 5q-71 0 -92.5 -8.5t-21.5 -45.5q0 -17 3 -27.5t15.5 -17.5t19.5 -9.5t31 -9.5l138 -34q62 -16 88 -45.5t26 -91.5q0 -86 -47.5 -113.5t-164.5 -27.5q-102 0 -194 14l7 72q56 -5 167 -5
q82 0 110 11.5t28 48.5q0 16 -4 26.5t-17 17.5t-20.5 9.5t-32.5 8.5l-136 34q-61 16 -86 47.5t-25 91.5q0 81 43.5 109t149.5 27z" />
    <glyph glyph-name="Scircumflex" unicode="&#x15c;" horiz-adv-x="563" 
d="M321 899l131 -129l-33 -41l-130 96h-8l-129 -96l-32 41l130 129h71zM280 702q122 0 208 -21l-6 -73q-145 5 -198 5q-78 0 -104 -15.5t-26 -80.5q0 -51 18.5 -72t64.5 -33l137 -38q77 -21 108.5 -68t31.5 -128q0 -114 -52 -152t-183 -38q-110 0 -217 20l7 74
q156 -5 212 -5q78 1 104.5 20t26.5 82q0 53 -18 73.5t-64 32.5l-140 39q-74 20 -105.5 67.5t-31.5 128.5q0 59 12.5 95.5t43.5 55.5t69 25t102 6z" />
    <glyph glyph-name="scircumflex" unicode="&#x15d;" horiz-adv-x="509" 
d="M294 720l131 -129l-33 -41l-130 96h-8l-129 -96l-32 41l130 129h71zM241 501q117 -2 208 -17l-8 -70q-152 5 -185 5q-71 0 -92.5 -8.5t-21.5 -45.5q0 -17 3 -27.5t15.5 -17.5t19.5 -9.5t31 -9.5l138 -34q62 -16 88 -45.5t26 -91.5q0 -86 -47.5 -113.5t-164.5 -27.5
q-102 0 -194 14l7 72q56 -5 167 -5q82 0 110 11.5t28 48.5q0 16 -4 26.5t-17 17.5t-20.5 9.5t-32.5 8.5l-136 34q-61 16 -86 47.5t-25 91.5q0 81 43.5 109t149.5 27z" />
    <glyph glyph-name="Scedilla" unicode="&#x15e;" horiz-adv-x="563" 
d="M280 702q122 0 208 -21l-6 -73q-145 5 -198 5q-78 0 -104 -15.5t-26 -80.5q0 -51 18.5 -72t64.5 -33l137 -38q77 -21 108.5 -68t31.5 -128q0 -114 -52 -152t-183 -38q-110 0 -217 20l7 74q156 -5 212 -5q78 1 104.5 20t26.5 82q0 53 -18 73.5t-64 32.5l-140 39
q-74 20 -105.5 67.5t-31.5 128.5q0 59 12.5 95.5t43.5 55.5t69 25t102 6zM238 -54q66 6 92.5 -7t25.5 -58q-1 -65 -50 -99.5t-123 -24.5l16 51q38 -1 62.5 17t25.5 48q1 16 -11 21.5t-48 6.5z" />
    <glyph glyph-name="scedilla" unicode="&#x15f;" horiz-adv-x="509" 
d="M241 501q117 -2 208 -17l-8 -70q-152 5 -185 5q-71 0 -92.5 -8.5t-21.5 -45.5q0 -17 3 -27.5t15.5 -17.5t19.5 -9.5t31 -9.5l138 -34q62 -16 88 -45.5t26 -91.5q0 -86 -47.5 -113.5t-164.5 -27.5q-102 0 -194 14l7 72q56 -5 167 -5q82 0 110 11.5t28 48.5q0 16 -4 26.5
t-17 17.5t-20.5 9.5t-32.5 8.5l-136 34q-61 16 -86 47.5t-25 91.5q0 81 43.5 109t149.5 27zM203 -53q66 6 92.5 -7t25.5 -58q-1 -65 -50 -99.5t-123 -24.5l16 51q38 -1 62.5 17t25.5 48q1 16 -11 21.5t-48 6.5z" />
    <glyph glyph-name="Scaron" unicode="&#x160;" horiz-adv-x="563" 
d="M421 917l33 -41l-145 -129h-44l-144 129l33 41l129 -84h8zM280 702q122 0 208 -21l-6 -73q-145 5 -198 5q-78 0 -104 -15.5t-26 -80.5q0 -51 18.5 -72t64.5 -33l137 -38q77 -21 108.5 -68t31.5 -128q0 -114 -52 -152t-183 -38q-110 0 -217 20l7 74q156 -5 212 -5
q78 1 104.5 20t26.5 82q0 53 -18 73.5t-64 32.5l-140 39q-74 20 -105.5 67.5t-31.5 128.5q0 59 12.5 95.5t43.5 55.5t69 25t102 6z" />
    <glyph glyph-name="scaron" unicode="&#x161;" horiz-adv-x="509" 
d="M394 738l33 -41l-145 -129h-44l-144 129l33 41l129 -84h8zM241 501q117 -2 208 -17l-8 -70q-152 5 -185 5q-71 0 -92.5 -8.5t-21.5 -45.5q0 -17 3 -27.5t15.5 -17.5t19.5 -9.5t31 -9.5l138 -34q62 -16 88 -45.5t26 -91.5q0 -86 -47.5 -113.5t-164.5 -27.5q-102 0 -194 14
l7 72q56 -5 167 -5q82 0 110 11.5t28 48.5q0 16 -4 26.5t-17 17.5t-20.5 9.5t-32.5 8.5l-136 34q-61 16 -86 47.5t-25 91.5q0 81 43.5 109t149.5 27z" />
    <glyph glyph-name="uni0162" unicode="&#x162;" horiz-adv-x="584" 
d="M561 690v-89h-219v-601h-101v601h-217v89h537zM245 -42q66 6 92.5 -7t25.5 -58q-1 -65 -50 -99.5t-123 -24.5l16 51q38 -1 62.5 17t25.5 48q1 16 -11 21.5t-48 6.5z" />
    <glyph glyph-name="uni0163" unicode="&#x163;" horiz-adv-x="388" 
d="M361 413h-151v-272q0 -34 14.5 -48t49.5 -14h71l11 -75q-46 -13 -115 -13q-62 0 -94.5 35.5t-32.5 101.5v285h-89v70l89 5v143h96v-143h151v-75zM204 -51q66 6 92.5 -7t25.5 -58q-1 -65 -50 -99.5t-123 -24.5l16 51q38 -1 62.5 17t25.5 48q1 16 -11 21.5t-48 6.5z" />
    <glyph glyph-name="Tcaron" unicode="&#x164;" horiz-adv-x="584" 
d="M315 747h-44l-144 129l33 41l129 -84h8l130 84l33 -41zM561 690v-89h-219v-601h-101v601h-217v89h537z" />
    <glyph glyph-name="tcaron" unicode="&#x165;" horiz-adv-x="388" 
d="M299 658q-25 0 -25 25v49q0 16 8 22.5t26 6.5h25q18 0 24.5 -6t6.5 -23l1 -53q1 -66 -35 -132l-41 10q10 57 10 101zM210 631v-143h151v-75h-151v-272q0 -34 14.5 -48t49.5 -14h71l11 -75q-46 -13 -115 -13q-62 0 -94.5 35.5t-32.5 101.5v285h-89v70l89 5v143h96z" />
    <glyph glyph-name="Tbar" unicode="&#x166;" horiz-adv-x="584" 
d="M561 601h-219v-201h138v-55h-138v-345h-101v345h-138v55h138v201h-217v89h537v-89z" />
    <glyph glyph-name="tbar" unicode="&#x167;" horiz-adv-x="388" 
d="M361 413h-151v-111h126v-53h-126v-108q0 -34 14.5 -48t49.5 -14h71l11 -75q-46 -13 -115 -13q-62 0 -94.5 35.5t-32.5 101.5v121h-64v53h64v111h-89v70l89 5v143h96v-143h151v-75z" />
    <glyph glyph-name="Utilde" unicode="&#x168;" horiz-adv-x="666" 
d="M252 883q32 -3 78.5 -26.5t72.5 -26.5q27 -4 37 7.5t10 40.5h44q7 -58 -15 -89t-63 -28q-37 3 -84 28t-69 27q-26 3 -35.5 -9.5t-9.5 -43.5h-44q-7 60 15.5 91.5t62.5 28.5zM587 690v-424q0 -152 -56.5 -215.5t-193.5 -63.5q-141 0 -199.5 63.5t-58.5 215.5v424h100v-424
q0 -106 34 -148t120 -42q85 0 119.5 42t34.5 148v424h100z" />
    <glyph glyph-name="utilde" unicode="&#x169;" horiz-adv-x="572" 
d="M170 587h-44q-7 60 15.5 91.5t62.5 28.5q32 -3 78.5 -26.5t72.5 -26.5q27 -4 37 7.5t10 40.5h44q7 -58 -15 -89t-63 -28q-37 3 -84 28t-69 27q-26 3 -35.5 -9.5t-9.5 -43.5zM401 488h96v-488h-77l-7 67q-109 -80 -208 -80q-133 0 -133 135v366h97v-338q-1 -45 15 -62.5
t55 -17.5q34 0 70 15t92 50v353z" />
    <glyph glyph-name="Umacron" unicode="&#x16a;" horiz-adv-x="666" 
d="M475 853v-71h-282v71h282zM587 690v-424q0 -152 -56.5 -215.5t-193.5 -63.5q-141 0 -199.5 63.5t-58.5 215.5v424h100v-424q0 -106 34 -148t120 -42q85 0 119.5 42t34.5 148v424h100z" />
    <glyph glyph-name="umacron" unicode="&#x16b;" horiz-adv-x="572" 
d="M427 677v-71h-282v71h282zM401 488h96v-488h-77l-7 67q-109 -80 -208 -80q-133 0 -133 135v366h97v-338q-1 -45 15 -62.5t55 -17.5q34 0 70 15t92 50v353z" />
    <glyph glyph-name="Ubreve" unicode="&#x16c;" horiz-adv-x="666" 
d="M437 886l49 -7q5 -60 -36.5 -97.5t-115.5 -37.5t-116 37.5t-37 97.5l49 7q-1 -34 26 -52.5t78 -18.5q50 0 77 18.5t26 52.5zM587 690v-424q0 -152 -56.5 -215.5t-193.5 -63.5q-141 0 -199.5 63.5t-58.5 215.5v424h100v-424q0 -106 34 -148t120 -42q85 0 119.5 42
t34.5 148v424h100z" />
    <glyph glyph-name="ubreve" unicode="&#x16d;" horiz-adv-x="572" 
d="M286 568q-74 0 -116 37.5t-37 97.5l49 7q-1 -34 26 -52.5t78 -18.5q50 0 77 18.5t26 52.5l49 -7q5 -60 -36.5 -97.5t-115.5 -37.5zM401 488h96v-488h-77l-7 67q-109 -80 -208 -80q-133 0 -133 135v366h97v-338q-1 -45 15 -62.5t55 -17.5q34 0 70 15t92 50v353z" />
    <glyph glyph-name="Uring" unicode="&#x16e;" horiz-adv-x="666" 
d="M334 936q45 0 77 -31t32 -76t-32 -75.5t-77 -30.5q-46 0 -77.5 30.5t-31.5 75.5t32 76t77 31zM334 888q-24 0 -40 -16t-16 -43q0 -26 16 -42t40 -16q25 0 41 16t16 42q0 27 -16.5 43t-40.5 16zM587 690v-424q0 -152 -56.5 -215.5t-193.5 -63.5q-141 0 -199.5 63.5
t-58.5 215.5v424h100v-424q0 -106 34 -148t120 -42q85 0 119.5 42t34.5 148v424h100z" />
    <glyph glyph-name="uring" unicode="&#x16f;" horiz-adv-x="572" 
d="M286 547q-46 0 -77.5 30.5t-31.5 75.5t32 76t77 31t77 -31t32 -76t-32 -75.5t-77 -30.5zM286 712q-24 0 -40 -16t-16 -43q0 -26 16 -42t40 -16q25 0 41 16t16 42q0 27 -16.5 43t-40.5 16zM401 488h96v-488h-77l-7 67q-109 -80 -208 -80q-133 0 -133 135v366h97v-338
q-1 -45 15 -62.5t55 -17.5q34 0 70 15t92 50v353z" />
    <glyph glyph-name="Uhungarumlaut" unicode="&#x170;" horiz-adv-x="666" 
d="M297 937l70 -48l-138 -160l-42 31zM466 937l69 -48l-137 -160l-42 31zM587 690v-424q0 -152 -56.5 -215.5t-193.5 -63.5q-141 0 -199.5 63.5t-58.5 215.5v424h100v-424q0 -106 34 -148t120 -42q85 0 119.5 42t34.5 148v424h100z" />
    <glyph glyph-name="uhungarumlaut" unicode="&#x171;" horiz-adv-x="572" 
d="M319 713l-138 -160l-42 31l110 177zM350 553l-42 31l110 177l69 -48zM401 488h96v-488h-77l-7 67q-109 -80 -208 -80q-133 0 -133 135v366h97v-338q-1 -45 15 -62.5t55 -17.5q34 0 70 15t92 50v353z" />
    <glyph glyph-name="Uogonek" unicode="&#x172;" horiz-adv-x="666" 
d="M487 690h100v-424q0 -142 -49.5 -206.5t-166.5 -71.5q-50 -59 -68 -108q-15 -34 7.5 -45.5t67.5 3.5l12 -40q-38 -15 -68.5 -19t-49 3t-31 20.5t-12 32.5t6.5 40q19 56 89 112q-134 2 -190 66t-56 213v424h100v-424q0 -106 34 -148t120 -42q85 0 119.5 42t34.5 148v424z
" />
    <glyph glyph-name="uogonek" unicode="&#x173;" horiz-adv-x="572" 
d="M504 -153l12 -40q-38 -15 -68.5 -19t-49 3t-31 20.5t-12 32.5t6.5 40q20 59 93 116h-35l-7 67q-109 -80 -208 -80q-133 0 -133 135v366h97v-338q-1 -45 15 -62.5t55 -17.5q34 0 70 15t92 50v353h96v-488h3q-52 -61 -71 -111q-15 -34 7.5 -45.5t67.5 3.5z" />
    <glyph glyph-name="Wcircumflex" unicode="&#x174;" horiz-adv-x="951" 
d="M511 898l131 -129l-33 -41l-130 96h-8l-129 -96l-32 41l130 129h71zM921 690l-132 -661q-9 -29 -39 -29h-111q-32 0 -39 30l-100 507q-10 52 -14 78h-21q-2 -9 -4.5 -25t-5 -29t-5.5 -24l-99 -507q-2 -13 -13.5 -21.5t-25.5 -8.5h-112q-31 0 -38 29l-132 661h106l99 -526
q3 -17 12 -88h23q5 43 15 88l99 493q7 33 38 33h107q14 0 24.5 -9.5t13.5 -23.5l98 -494q8 -40 15 -87h23q2 14 6 43t7 43l99 528h106z" />
    <glyph glyph-name="wcircumflex" unicode="&#x175;" horiz-adv-x="826" 
d="M449 720l131 -129l-33 -41l-130 96h-8l-129 -96l-32 41l130 129h71zM803 488l-137 -461q-8 -27 -37 -27h-87q-30 0 -37 31l-71 321q-2 9 -4.5 24.5t-5 28.5t-5.5 25h-12q-2 -13 -8 -39t-8 -39l-70 -321q-7 -31 -38 -31h-86q-30 0 -36 27l-138 461h100l94 -352
q12 -50 15 -75h13q12 50 17 75l72 322q7 30 36 30h87q29 0 36 -31l71 -321q2 -10 17 -75h13q7 45 15 75l94 352h100z" />
    <glyph glyph-name="Ycircumflex" unicode="&#x176;" horiz-adv-x="574" 
d="M283 813l-129 -96l-32 41l130 129h71l131 -129l-33 -41l-130 96h-8zM564 690l-227 -451v-239h-100v241l-228 449h106l139 -283q8 -17 30 -80h7q21 62 30 79l139 284h104z" />
    <glyph glyph-name="ycircumflex" unicode="&#x177;" horiz-adv-x="533" 
d="M264 646l-129 -96l-32 41l130 129h71l131 -129l-33 -41l-130 96h-8zM412 488h104l-189 -511q-68 -180 -224 -182l-10 64q57 17 90 47t53 76l7 18h-20q-28 0 -34 25l-173 463h104l121 -355q12 -31 17 -60h14l20 60z" />
    <glyph glyph-name="Ydieresis" unicode="&#x178;" horiz-adv-x="574" 
d="M183 753q-26 0 -26 27v54q0 27 26 27h32q26 0 26 -27v-54q0 -27 -26 -27h-32zM360 753q-26 0 -26 27v54q0 27 26 27h32q27 0 27 -27v-54q0 -27 -27 -27h-32zM564 690l-227 -451v-239h-100v241l-228 449h106l139 -283q8 -17 30 -80h7q21 62 30 79l139 284h104z" />
    <glyph glyph-name="Zacute" unicode="&#x179;" horiz-adv-x="568" 
d="M437 852l-199 -117l-32 44l177 147zM158 85h363v-85h-473v85l356 520h-351v85h461v-85z" />
    <glyph glyph-name="zacute" unicode="&#x17a;" horiz-adv-x="512" 
d="M411 673l-199 -117l-32 44l177 147zM156 79h308v-79h-416v79l305 330h-301v79h408v-79z" />
    <glyph glyph-name="Zdotaccent" unicode="&#x17b;" horiz-adv-x="568" 
d="M266 755q-28 0 -28 29v56q0 28 28 28h31q29 0 29 -28v-56q0 -29 -29 -29h-31zM158 85h363v-85h-473v85l356 520h-351v85h461v-85z" />
    <glyph glyph-name="zdotaccent" unicode="&#x17c;" horiz-adv-x="512" 
d="M240 576q-28 0 -28 29v56q0 28 28 28h31q29 0 29 -28v-56q0 -29 -29 -29h-31zM156 79h308v-79h-416v79l305 330h-301v79h408v-79z" />
    <glyph glyph-name="Zcaron" unicode="&#x17d;" horiz-adv-x="568" 
d="M305 747h-44l-144 129l33 41l129 -84h8l130 84l33 -41zM158 85h363v-85h-473v85l356 520h-351v85h461v-85z" />
    <glyph glyph-name="zcaron" unicode="&#x17e;" horiz-adv-x="512" 
d="M279 568h-44l-144 129l33 41l129 -84h8l130 84l33 -41zM156 79h308v-79h-416v79l305 330h-301v79h408v-79z" />
    <glyph glyph-name="uni018F" unicode="&#x18f;" horiz-adv-x="635" 
d="M295 703q86 0 140.5 -19.5t86 -65.5t43.5 -110t12 -164q0 -193 -56.5 -274.5t-205.5 -81.5q-262 0 -262 224q-2 182 171 182h247q-5 125 -44 172t-139 47t-206 -16l-13 69q97 37 226 37zM308 77q87 0 123.5 54t40.5 172h-241q-39 0 -56.5 -27t-16.5 -65q0 -66 33.5 -100
t116.5 -34z" />
    <glyph glyph-name="florin" unicode="&#x192;" horiz-adv-x="449" 
d="M352 620q-44 0 -62.5 -15t-22.5 -60l-13 -144h138l-7 -76h-138l-31 -330q-6 -71 -42 -107.5t-110 -36.5q-66 0 -107 7l12 73h67q42 0 60.5 17t23.5 58l30 319h-99l5 72l101 4l14 155q13 145 158 145q70 0 107 -8l-13 -73h-71z" />
    <glyph glyph-name="Ohorn" unicode="&#x1a0;" 
d="M679 719q-1 -47 -31.5 -83t-75.5 -49q38 -77 38 -242q0 -202 -61 -280t-215 -78q-153 0 -214 78t-61 280t61 280t214 78q148 0 209 -71q62 19 68 92zM334 76q97 0 134 58t37 211t-37 211t-134 58t-133.5 -58t-36.5 -211t36.5 -211t133.5 -58z" />
    <glyph glyph-name="ohorn" unicode="&#x1a1;" horiz-adv-x="584" 
d="M594 542q-1 -47 -31.5 -83t-75.5 -49q31 -56 31 -167q0 -140 -53 -198t-180 -58t-180 58t-53 198t53 199t180 59q115 0 168 -47q31 7 50.5 32t22.5 61zM285 68q76 0 104 37t28 138q0 102 -28 139t-104 37t-104 -37t-28 -139q0 -101 28 -138t104 -37z" />
    <glyph glyph-name="Uhorn" unicode="&#x1af;" horiz-adv-x="701" 
d="M720 719q-1 -54 -41 -93t-92 -44v-316q0 -152 -56.5 -215.5t-193.5 -63.5q-141 0 -199.5 63.5t-58.5 215.5v424h100v-424q0 -106 34 -148t120 -42q85 0 119.5 42t34.5 148v424h100v-57q28 9 45.5 33.5t19.5 57.5z" />
    <glyph glyph-name="uhorn" unicode="&#x1b0;" horiz-adv-x="604" 
d="M631 542q-1 -54 -41 -93t-93 -44v-405h-77l-7 67q-109 -80 -208 -80q-133 0 -133 135v366h97v-338q-1 -45 15 -62.5t55 -17.5q34 0 70 15t92 50v353h96v-32q29 9 46.5 33t19.5 58z" />
    <glyph glyph-name="uni01C4" unicode="&#x1c4;" horiz-adv-x="1227" 
d="M964 747h-44l-144 129l33 41l129 -84h8l130 84l33 -41zM333 699q152 0 212.5 -77t60.5 -277t-60.5 -277t-212.5 -77q-118 0 -249 9v690q131 9 249 9zM817 85h363v-85h-473v85l356 520h-351v85h461v-85zM333 78q94 0 130.5 58t36.5 209t-36.5 209t-130.5 58q-61 0 -149 -2
v-530q86 -2 149 -2z" />
    <glyph glyph-name="uni01C5" unicode="&#x1c5;" horiz-adv-x="1177" 
d="M944 568h-44l-144 129l33 41l129 -84h8l130 84l33 -41zM333 699q152 0 212.5 -77t60.5 -277t-60.5 -277t-212.5 -77q-118 0 -249 9v690q131 9 249 9zM333 78q94 0 130.5 58t36.5 209t-36.5 209t-130.5 58q-61 0 -149 -2v-530q86 -2 149 -2zM821 79h308v-79h-416v79
l305 330h-301v79h408v-79z" />
    <glyph glyph-name="uni01C6" unicode="&#x1c6;" horiz-adv-x="1087" 
d="M854 568h-44l-144 129l33 41l129 -84h8l130 84l33 -41zM403 553v147h97v-700h-76l-8 67q-92 -79 -192 -79q-90 0 -130.5 64.5t-40.5 193.5q0 140 45 197.5t141 57.5q92 0 168 -44q-4 43 -4 96zM731 79h308v-79h-416v79l305 330h-301v79h408v-79zM153 247
q0 -101 23.5 -138t80.5 -37q37 0 65.5 13t80.5 48v260q-91 24 -140 24q-62 0 -86 -34.5t-24 -135.5z" />
    <glyph glyph-name="uni01C7" unicode="&#x1c7;" horiz-adv-x="858" 
d="M182 690v-542q0 -35 14 -49.5t49 -14.5h245l5 -77q-97 -9 -266 -9q-147 0 -147 136v556h100zM777 690v-539q0 -79 -35 -120t-101 -40q-59 0 -98 13l11 72h49q74 0 74 70v544h100z" />
    <glyph glyph-name="uni01C8" unicode="&#x1c8;" horiz-adv-x="771" 
d="M667 696q28 0 28 -28v-56q0 -29 -28 -29h-46q-29 0 -29 29v56q0 28 29 28h46zM182 690v-542q0 -35 14 -49.5t49 -14.5h245l5 -77q-97 -9 -266 -9q-147 0 -147 136v556h100zM692 488v-493q0 -60 -26.5 -112t-72.5 -85l-54 42q56 71 56 155v493h97z" />
    <glyph glyph-name="uni01C9" unicode="&#x1c9;" horiz-adv-x="558" 
d="M173 700l-1 -559q0 -62 64 -62h45l11 -75q-29 -13 -93 -13q-57 0 -90 33.5t-33 94.5v581h97zM454 696q28 0 28 -28v-56q0 -29 -28 -29h-46q-29 0 -29 29v56q0 28 29 28h46zM479 488v-493q0 -60 -26.5 -112t-72.5 -85l-54 42q56 71 56 155v493h97z" />
    <glyph glyph-name="uni01CA" unicode="&#x1ca;" horiz-adv-x="1051" 
d="M624 690v-651q0 -39 -37 -39h-95q-30 0 -43 31l-215 470q-36 78 -41 96h-14q5 -40 5 -96v-501h-100v651q0 39 38 39h92q29 0 44 -31l209 -458q4 -9 14 -29.5t18.5 -39t15.5 -34.5h15q-5 60 -5 107v485h99zM970 690v-539q0 -79 -35 -120t-101 -40q-59 0 -98 13l11 72h49
q74 0 74 70v544h100z" />
    <glyph glyph-name="uni01CB" unicode="&#x1cb;" horiz-adv-x="964" 
d="M860 696q28 0 28 -28v-56q0 -29 -28 -29h-46q-29 0 -29 29v56q0 28 29 28h46zM624 690v-651q0 -39 -37 -39h-95q-30 0 -43 31l-215 470q-36 78 -41 96h-14q5 -40 5 -96v-501h-100v651q0 39 38 39h92q29 0 44 -31l209 -458q4 -9 14 -29.5t18.5 -39t15.5 -34.5h15
q-5 60 -5 107v485h99zM885 488v-493q0 -60 -26.5 -112t-72.5 -85l-54 42q56 71 56 155v493h97z" />
    <glyph glyph-name="uni01CC" unicode="&#x1cc;" horiz-adv-x="839" 
d="M735 696q28 0 28 -28v-56q0 -29 -28 -29h-46q-29 0 -29 29v56q0 28 29 28h46zM379 501q65 0 98.5 -34.5t33.5 -100.5v-366h-97v338q0 46 -13.5 63.5t-48.5 17.5q-38 0 -77 -17t-104 -56l1 -346h-97v488h82l6 -74q116 87 216 87zM663 -5v493h97v-493q0 -60 -26.5 -112
t-72.5 -85l-54 42q56 71 56 155z" />
    <glyph glyph-name="Gcaron" unicode="&#x1e6;" horiz-adv-x="629" 
d="M351 756h-44l-144 129l33 41l129 -84h8l130 84l33 -41zM466 398h98v-398h-74l-10 69q-89 -82 -205 -82q-114 0 -165 87t-51 274q0 139 29 215.5t91 108t174 31.5q108 0 192 -21l-10 -76q-84 8 -176 8q-47 0 -76 -5.5t-54 -21.5t-37.5 -47t-19.5 -79t-7 -120
q0 -149 30.5 -208t107.5 -59q45 0 82 15.5t81 45.5v263z" />
    <glyph glyph-name="gcaron" unicode="&#x1e7;" horiz-adv-x="561" 
d="M296 568h-44l-144 129l33 41l129 -84h8l130 84l33 -41zM540 488l-5 -52l-69 -7q17 -31 17 -85q0 -83 -47.5 -119.5t-164.5 -36.5q-55 0 -97 8q-16 -21 -8.5 -46t39.5 -30l180 -28q69 -10 98.5 -43t29.5 -96q0 -87 -51 -120t-185 -33q-135 0 -187 32.5t-52 117.5
q0 40 18 64.5t60 47.5q-35 30 -31 78t38 74q-64 33 -64 129q0 86 47 122t166 36q74 0 117 -13h151zM271 261q68 0 95 18.5t27 64.5q0 47 -26.5 65t-95.5 18q-70 0 -97 -18t-27 -65q0 -45 27.5 -64t96.5 -19zM418 -42q0 34 -15 44.5t-68 18.5l-157 20q-46 -38 -46 -83
q0 -48 27.5 -62t116.5 -14q86 0 114 14.5t28 61.5z" />
    <glyph glyph-name="uni01EA" unicode="&#x1ea;" 
d="M363 -12q-44 -55 -61 -99q-15 -34 7.5 -45.5t67.5 3.5l12 -40q-38 -15 -68.5 -19t-49 3t-31 20.5t-12 32.5t6.5 40q18 52 78 103q-141 5 -197.5 84t-56.5 274q0 202 61 280t214 78q154 0 215 -78t61 -280q0 -193 -55 -272t-192 -85zM164 345q0 -153 36.5 -211t133.5 -58
t134 58t37 211t-37 211t-134 58t-133.5 -58t-36.5 -211z" />
    <glyph glyph-name="uni01EB" unicode="&#x1eb;" horiz-adv-x="570" 
d="M317 -12q-41 -52 -59 -97q-15 -34 7.5 -45.5t67.5 3.5l12 -40q-38 -15 -68.5 -19t-49 3t-31 20.5t-12 32.5t6.5 40q18 52 76 101q-117 4 -166 62.5t-49 193.5q0 140 53 199t180 59t180 -59t53 -199q0 -131 -46 -189.5t-155 -65.5zM153 243q0 -101 28 -138t104 -37t104 37
t28 138q0 102 -28 139t-104 37t-104 -37t-28 -139z" />
    <glyph glyph-name="Aringacute" unicode="&#x1fa;" horiz-adv-x="626" 
d="M420 963l-169 -91l-29 42l147 121zM314 653q-46 0 -77.5 30.5t-31.5 75.5t32 76t77 31t77 -31t32 -76t-32 -75.5t-77 -30.5zM314 818q-24 0 -40 -16t-16 -43q0 -26 16 -42t40 -16q25 0 41 16t16 42q0 27 -16.5 43t-40.5 16zM514 0l-59 172h-284l-60 -172h-102l216 603
q11 27 37 27h102q26 0 36 -27l217 -603h-103zM200 258h225l-82 239q-9 26 -17 56h-27q-13 -48 -16 -56z" />
    <glyph glyph-name="aringacute" unicode="&#x1fb;" horiz-adv-x="551" 
d="M386 847l-170 -93l-29 42l148 122zM275 527q-46 0 -77.5 30.5t-31.5 75.5t32 76t77 31t77 -31t32 -76t-32 -75.5t-77 -30.5zM275 692q-24 0 -40 -16t-16 -43q0 -26 16 -42t40 -16q25 0 41 16t16 42q0 27 -16 43t-41 16zM307 501q89 0 131 -36t42 -125v-340h-76l-11 77
q-84 -86 -195 -86q-68 0 -108.5 36t-40.5 102v51q0 58 36 90t102 32h196v38q-1 45 -21 62t-76 17q-55 0 -207 -12l-9 71q132 23 237 23zM147 141q0 -36 17 -52t54 -16q88 0 165 69v87h-178q-32 -1 -45 -16.5t-13 -45.5v-26z" />
    <glyph glyph-name="AEacute" unicode="&#x1fc;" horiz-adv-x="915" 
d="M727 838l-199 -117l-32 45l177 146zM608 84h253l4 -78q-95 -8 -297 -8q-53 0 -85.5 35t-32.5 89v94h-228l-121 -216h-105l333 577q36 66 86 90t150 24q194 0 300 -7l-4 -79h-253q-29 0 -46.5 -18t-17.5 -49v-133l278 -1v-81l-278 -1v-174q0 -34 15 -49t49 -15zM269 299
h181v253q0 20 9 40.5t21 30.5h-9q-28 -16 -54 -61z" />
    <glyph glyph-name="aeacute" unicode="&#x1fd;" horiz-adv-x="870" 
d="M612 663l-199 -117l-32 45l177 146zM630 69q67 0 171 12l9 -64q-65 -29 -192 -29q-85 0 -135.5 24.5t-75.5 78.5q-32 -38 -87 -69t-122 -31q-68 0 -108.5 36t-40.5 102v51q0 58 36 90t102 32h196v38q0 45 -20.5 62t-76.5 17q-55 0 -207 -12l-9 71q132 23 237 23
q100 0 140 -45q52 45 162 45q111 0 162 -41t51 -123q2 -140 -123 -140h-214q7 -76 39.5 -102t105.5 -26zM613 419q-72 0 -100 -30.5t-30 -116.5h189q53 0 53 65q0 44 -25 63t-87 19zM218 73q38 0 84.5 18.5t87.5 55.5q-6 30 -8 82h-177q-32 -1 -45 -16.5t-13 -45.5v-26
q0 -36 17 -52t54 -16z" />
    <glyph glyph-name="Oslashacute" unicode="&#x1fe;" 
d="M492 843l-199 -117l-32 45l177 146zM510 662q53 -37 76.5 -112.5t23.5 -204.5q0 -202 -61 -280t-215 -78q-78 0 -131 19l-30 -65l-50 21l32 69q-51 37 -73.5 112t-22.5 202q0 202 61 280t214 78q77 0 127 -17l31 65l51 -20zM164 345q0 -155 38 -214l219 467
q-33 16 -87 16q-97 0 -133.5 -58t-36.5 -211zM334 76q97 0 134 58t37 211q0 161 -41 217l-220 -469q34 -17 90 -17z" />
    <glyph glyph-name="oslashacute" unicode="&#x1ff;" horiz-adv-x="570" 
d="M449 658l-199 -117l-32 45l177 146zM417 477q53 -25 77 -81.5t24 -152.5q0 -140 -53 -198t-180 -58q-52 0 -91 9l-35 -74l-43 21l32 69q-51 26 -73.5 81.5t-22.5 149.5q0 140 53 199t180 59q47 0 87 -8l33 71l43 -21zM153 243q0 -111 35 -146l147 317q-17 5 -50 5
q-76 0 -104 -37t-28 -139zM285 68q76 0 104 37t28 138q0 117 -39 151l-148 -320q23 -6 55 -6z" />
    <glyph glyph-name="uni0200" unicode="&#x200;" horiz-adv-x="626" 
d="M273 751l-41 -31l-138 160l70 48zM443 751l-42 -31l-138 160l70 48zM514 0l-64 208h-275l-64 -208h-102l216 663q8 27 37 27h102q30 0 36 -27l217 -663h-103zM202 295h221l-80 262q-3 9 -8.5 28t-8.5 28h-27l-16 -56z" />
    <glyph glyph-name="uni0201" unicode="&#x201;" horiz-adv-x="551" 
d="M235 580l-41 -31l-138 160l70 48zM405 580l-42 -31l-138 160l70 48zM307 501q89 0 131 -36t42 -125v-340h-76l-11 77q-84 -86 -195 -86q-68 0 -108.5 36t-40.5 102v51q0 58 36 90t102 32h196v38q-1 45 -21 62t-76 17q-55 0 -207 -12l-9 71q132 23 237 23zM147 141
q0 -36 17 -52t54 -16q88 0 165 69v87h-178q-32 -1 -45 -16.5t-13 -45.5v-26z" />
    <glyph glyph-name="uni0202" unicode="&#x202;" horiz-adv-x="626" 
d="M208 744l-48 7q-5 60 36.5 97.5t114.5 37.5q74 0 116.5 -37.5t37.5 -97.5l-49 -7q0 71 -105 71q-49 0 -76 -18.5t-27 -52.5zM514 0l-64 208h-275l-64 -208h-102l216 663q8 27 37 27h102q30 0 36 -27l217 -663h-103zM202 295h221l-80 262q-3 9 -8.5 28t-8.5 28h-27
l-16 -56z" />
    <glyph glyph-name="uni0203" unicode="&#x203;" horiz-adv-x="551" 
d="M170 573l-48 7q-5 60 36.5 97.5t114.5 37.5q74 0 116.5 -37.5t37.5 -97.5l-49 -7q0 71 -105 71q-49 0 -76 -18.5t-27 -52.5zM307 501q89 0 131 -36t42 -125v-340h-76l-11 77q-84 -86 -195 -86q-68 0 -108.5 36t-40.5 102v51q0 58 36 90t102 32h196v38q-1 45 -21 62
t-76 17q-55 0 -207 -12l-9 71q132 23 237 23zM147 141q0 -36 17 -52t54 -16q88 0 165 69v87h-178q-32 -1 -45 -16.5t-13 -45.5v-26z" />
    <glyph glyph-name="uni0204" unicode="&#x204;" horiz-adv-x="562" 
d="M270 771l-41 -31l-138 160l70 48zM440 771l-42 -31l-138 160l70 48zM234 83h274l5 -77q-91 -8 -296 -8q-64 0 -101 33.5t-38 90.5v446q1 57 38 90.5t101 33.5q205 0 296 -8l-5 -78h-274q-30 0 -42.5 -14.5t-12.5 -49.5v-138h291v-81h-291v-176q0 -35 12.5 -49.5
t42.5 -14.5z" />
    <glyph glyph-name="uni0205" unicode="&#x205;" horiz-adv-x="539" 
d="M242 580l-41 -31l-138 160l70 48zM412 580l-42 -31l-138 160l70 48zM300 69q65 0 171 12l9 -64q-66 -29 -193 -29q-128 0 -181.5 58t-53.5 199q0 142 52.5 199t173.5 57q112 0 163 -41t51 -123q0 -140 -119 -140h-219q7 -76 39.5 -102t106.5 -26zM283 419
q-72 0 -100 -30.5t-31 -116.5h195q48 0 48 65q-1 45 -25.5 63.5t-86.5 18.5z" />
    <glyph glyph-name="uni0206" unicode="&#x206;" horiz-adv-x="562" 
d="M205 764l-48 7q-5 60 36.5 97.5t114.5 37.5q74 0 116.5 -37.5t37.5 -97.5l-49 -7q0 71 -105 71q-49 0 -76 -18.5t-27 -52.5zM234 83h274l5 -77q-91 -8 -296 -8q-64 0 -101 33.5t-38 90.5v446q1 57 38 90.5t101 33.5q205 0 296 -8l-5 -78h-274q-30 0 -42.5 -14.5
t-12.5 -49.5v-138h291v-81h-291v-176q0 -35 12.5 -49.5t42.5 -14.5z" />
    <glyph glyph-name="uni0207" unicode="&#x207;" horiz-adv-x="539" 
d="M177 573l-48 7q-5 60 36.5 97.5t114.5 37.5q74 0 116.5 -37.5t37.5 -97.5l-49 -7q0 71 -105 71q-49 0 -76 -18.5t-27 -52.5zM300 69q65 0 171 12l9 -64q-66 -29 -193 -29q-128 0 -181.5 58t-53.5 199q0 142 52.5 199t173.5 57q112 0 163 -41t51 -123q0 -140 -119 -140
h-219q7 -76 39.5 -102t106.5 -26zM283 419q-72 0 -100 -30.5t-31 -116.5h195q48 0 48 65q-1 45 -25.5 63.5t-86.5 18.5z" />
    <glyph glyph-name="uni0208" unicode="&#x208;" horiz-adv-x="268" 
d="M-15 937l109 -177l-41 -31l-138 160zM154 937l110 -177l-42 -31l-138 160zM184 690v-690h-100v690h100z" />
    <glyph glyph-name="uni0209" unicode="&#x209;" horiz-adv-x="255" 
d="M-21 758l109 -177l-41 -31l-138 160zM148 758l110 -177l-42 -31l-138 160zM176 488v-488h-97v488h97z" />
    <glyph glyph-name="uni020A" unicode="&#x20a;" horiz-adv-x="268" 
d="M29 753l-48 7q-5 60 36.5 97.5t114.5 37.5q74 0 116.5 -37.5t37.5 -97.5l-49 -7q0 71 -105 71q-49 0 -76 -18.5t-27 -52.5zM184 690v-690h-100v690h100z" />
    <glyph glyph-name="uni020B" unicode="&#x20b;" horiz-adv-x="255" 
d="M23 574l-48 7q-5 60 36.5 97.5t114.5 37.5q74 0 116.5 -37.5t37.5 -97.5l-49 -7q0 71 -105 71q-49 0 -76 -18.5t-27 -52.5zM176 488v-488h-97v488h97z" />
    <glyph glyph-name="uni020C" unicode="&#x20c;" 
d="M187 937l109 -177l-41 -31l-138 160zM356 937l110 -177l-42 -31l-138 160zM334 703q154 0 215 -78t61 -280t-61 -280t-215 -78q-153 0 -214 78t-61 280t61 280t214 78zM334 614q-97 0 -133.5 -58t-36.5 -211t36.5 -211t133.5 -58t134 58t37 211t-37 211t-134 58z" />
    <glyph glyph-name="uni020D" unicode="&#x20d;" horiz-adv-x="570" 
d="M138 752l109 -177l-41 -31l-138 160zM307 752l110 -177l-42 -31l-138 160zM285 501q127 0 180 -59t53 -199t-53 -198t-180 -58t-180 58t-53 198t53 199t180 59zM285 419q-76 0 -104 -37t-28 -139q0 -101 28 -138t104 -37t104 37t28 138q0 102 -28 139t-104 37z" />
    <glyph glyph-name="uni020E" unicode="&#x20e;" 
d="M231 753l-48 7q-5 60 36.5 97.5t114.5 37.5q74 0 116.5 -37.5t37.5 -97.5l-49 -7q0 71 -105 71q-49 0 -76 -18.5t-27 -52.5zM334 703q154 0 215 -78t61 -280t-61 -280t-215 -78q-153 0 -214 78t-61 280t61 280t214 78zM334 614q-97 0 -133.5 -58t-36.5 -211t36.5 -211
t133.5 -58t134 58t37 211t-37 211t-134 58z" />
    <glyph glyph-name="uni020F" unicode="&#x20f;" horiz-adv-x="570" 
d="M182 568l-48 7q-5 60 36.5 97.5t114.5 37.5q74 0 116.5 -37.5t37.5 -97.5l-49 -7q0 71 -105 71q-49 0 -76 -18.5t-27 -52.5zM285 501q127 0 180 -59t53 -199t-53 -198t-180 -58t-180 58t-53 198t53 199t180 59zM285 419q-76 0 -104 -37t-28 -139q0 -101 28 -138t104 -37
t104 37t28 138q0 102 -28 139t-104 37z" />
    <glyph glyph-name="uni0210" unicode="&#x210;" horiz-adv-x="620" 
d="M263 760l-41 -31l-138 160l70 48zM433 760l-42 -31l-138 160l70 48zM513 218l65 -218h-107l-59 215q-22 69 -87 69q-105 0 -142 1v-285h-99v690q86 9 241 9q125 0 176.5 -43t51.5 -157q0 -83 -29.5 -125t-97.5 -51v-5q67 -20 87 -100zM323 370q74 1 101.5 26.5t27.5 96.5
q0 70 -27.5 95t-101.5 25q-102 0 -140 -1v-242h140z" />
    <glyph glyph-name="uni0211" unicode="&#x211;" horiz-adv-x="404" 
d="M180 581l-41 -31l-138 160l70 48zM350 581l-42 -31l-138 160l70 48zM365 501h23l-11 -91h-30q-36 0 -73 -12.5t-102 -43.5v-354h-97v488h75l10 -75q110 88 205 88z" />
    <glyph glyph-name="uni0212" unicode="&#x212;" horiz-adv-x="620" 
d="M198 753l-48 7q-5 60 36.5 97.5t114.5 37.5q74 0 116.5 -37.5t37.5 -97.5l-49 -7q0 71 -105 71q-49 0 -76 -18.5t-27 -52.5zM513 218l65 -218h-107l-59 215q-22 69 -87 69q-105 0 -142 1v-285h-99v690q86 9 241 9q125 0 176.5 -43t51.5 -157q0 -83 -29.5 -125t-97.5 -51
v-5q67 -20 87 -100zM323 370q74 1 101.5 26.5t27.5 96.5q0 70 -27.5 95t-101.5 25q-102 0 -140 -1v-242h140z" />
    <glyph glyph-name="uni0213" unicode="&#x213;" horiz-adv-x="404" 
d="M218 645q-49 0 -76 -18.5t-27 -52.5l-48 7q-5 60 36.5 97.5t114.5 37.5q74 0 116.5 -37.5t37.5 -97.5l-49 -7q0 71 -105 71zM365 501h23l-11 -91h-30q-36 0 -73 -12.5t-102 -43.5v-354h-97v488h75l10 -75q110 88 205 88z" />
    <glyph glyph-name="uni0214" unicode="&#x214;" horiz-adv-x="666" 
d="M189 955l109 -177l-41 -32l-138 161zM357 955l110 -177l-42 -32l-138 161zM587 690v-424q0 -152 -56.5 -215.5t-193.5 -63.5q-141 0 -199.5 63.5t-58.5 215.5v424h100v-424q0 -106 34 -148t120 -42q85 0 119.5 42t34.5 148v424h100z" />
    <glyph glyph-name="uni0215" unicode="&#x215;" horiz-adv-x="572" 
d="M246 584l-41 -31l-138 160l70 48zM416 584l-42 -31l-138 160l70 48zM401 488h96v-488h-77l-7 67q-109 -80 -208 -80q-133 0 -133 135v366h97v-338q-1 -45 15 -62.5t55 -17.5q34 0 70 15t92 50v353z" />
    <glyph glyph-name="uni0216" unicode="&#x216;" horiz-adv-x="666" 
d="M229 753l-48 7q-5 60 36.5 97.5t114.5 37.5q74 0 116.5 -37.5t37.5 -97.5l-49 -7q0 71 -105 71q-49 0 -76 -18.5t-27 -52.5zM587 690v-424q0 -152 -56.5 -215.5t-193.5 -63.5q-141 0 -199.5 63.5t-58.5 215.5v424h100v-424q0 -106 34 -148t120 -42q85 0 119.5 42
t34.5 148v424h100z" />
    <glyph glyph-name="uni0217" unicode="&#x217;" horiz-adv-x="572" 
d="M181 577l-48 7q-5 60 36.5 97.5t114.5 37.5q74 0 116.5 -37.5t37.5 -97.5l-49 -7q0 71 -105 71q-49 0 -76 -18.5t-27 -52.5zM401 488h96v-488h-77l-7 67q-109 -80 -208 -80q-133 0 -133 135v366h97v-338q-1 -45 15 -62.5t55 -17.5q34 0 70 15t92 50v353z" />
    <glyph glyph-name="Scommaaccent" unicode="&#x218;" horiz-adv-x="563" 
d="M280 702q122 0 208 -21l-6 -73q-145 5 -198 5q-78 0 -104 -15.5t-26 -80.5q0 -51 18.5 -72t64.5 -33l137 -38q77 -21 108.5 -68t31.5 -128q0 -114 -52 -152t-183 -38q-110 0 -217 20l7 74q156 -5 212 -5q78 1 104.5 20t26.5 82q0 53 -18 73.5t-64 32.5l-140 39
q-74 20 -105.5 67.5t-31.5 128.5q0 59 12.5 95.5t43.5 55.5t69 25t102 6zM298 -58q18 0 24.5 -6.5t6.5 -23.5v-54q-1 -76 -35 -135l-41 11q10 49 10 103q-25 0 -25 26v49q1 17 9 23.5t26 6.5h25z" />
    <glyph glyph-name="scommaaccent" unicode="&#x219;" horiz-adv-x="509" 
d="M241 501q117 -2 208 -17l-8 -70q-152 5 -185 5q-71 0 -92.5 -8.5t-21.5 -45.5q0 -17 3 -27.5t15.5 -17.5t19.5 -9.5t31 -9.5l138 -34q62 -16 88 -45.5t26 -91.5q0 -86 -47.5 -113.5t-164.5 -27.5q-102 0 -194 14l7 72q56 -5 167 -5q82 0 110 11.5t28 48.5q0 16 -4 26.5
t-17 17.5t-20.5 9.5t-32.5 8.5l-136 34q-61 16 -86 47.5t-25 91.5q0 81 43.5 109t149.5 27zM274 -58q18 0 24.5 -6.5t6.5 -23.5v-54q-1 -76 -35 -135l-41 11q10 49 10 103q-25 0 -25 26v49q1 17 9 23.5t26 6.5h25z" />
    <glyph glyph-name="uni021A" unicode="&#x21a;" horiz-adv-x="584" 
d="M561 690v-89h-219v-601h-101v601h-217v89h537zM294 -58q18 0 24.5 -6.5t6.5 -23.5v-54q-1 -76 -35 -135l-41 11q10 49 10 103q-25 0 -25 26v49q1 17 9 23.5t26 6.5h25z" />
    <glyph glyph-name="uni021B" unicode="&#x21b;" horiz-adv-x="388" 
d="M361 413h-151v-272q0 -34 14.5 -48t49.5 -14h71l11 -75q-46 -13 -115 -13q-62 0 -94.5 35.5t-32.5 101.5v285h-89v70l89 5v143h96v-143h151v-75zM251 -58q18 0 24.5 -6.5t6.5 -23.5v-54q-1 -76 -35 -135l-41 11q10 49 10 103q-25 0 -25 26v49q1 17 9 23.5t26 6.5h25z" />
    <glyph glyph-name="uni022A" unicode="&#x22a;" 
d="M207 968h256v-63h-256v63zM269 855q24 0 24 -24v-50q0 -24 -24 -24h-29q-24 0 -24 24v50q0 24 24 24h29zM430 855q25 0 25 -24v-50q0 -24 -25 -24h-28q-25 0 -25 24v50q0 24 25 24h28zM334 703q154 0 215 -78t61 -280t-61 -280t-215 -78q-153 0 -214 78t-61 280t61 280
t214 78zM334 614q-97 0 -133.5 -58t-36.5 -211t36.5 -211t133.5 -58t134 58t37 211t-37 211t-134 58z" />
    <glyph glyph-name="uni022B" unicode="&#x22b;" horiz-adv-x="570" 
d="M158 783h256v-63h-256v63zM220 670q24 0 24 -24v-50q0 -24 -24 -24h-29q-24 0 -24 24v50q0 24 24 24h29zM381 670q25 0 25 -24v-50q0 -24 -25 -24h-28q-25 0 -25 24v50q0 24 25 24h28zM285 501q127 0 180 -59t53 -199t-53 -198t-180 -58t-180 58t-53 198t53 199t180 59z
M285 419q-76 0 -104 -37t-28 -139q0 -101 28 -138t104 -37t104 37t28 138q0 102 -28 139t-104 37z" />
    <glyph glyph-name="uni022C" unicode="&#x22c;" 
d="M208 922v64h257v-64h-257zM418 752q-37 3 -84 28t-69 27q-26 3 -35.5 -9.5t-9.5 -42.5h-44q-7 60 15.5 91t62.5 28q33 -3 79 -26t72 -27q27 -4 37 8t10 40h44q7 -57 -15 -88.5t-63 -28.5zM334 703q154 0 215 -78t61 -280t-61 -280t-215 -78q-153 0 -214 78t-61 280
t61 280t214 78zM334 614q-97 0 -133.5 -58t-36.5 -211t36.5 -211t133.5 -58t134 58t37 211t-37 211t-134 58z" />
    <glyph glyph-name="uni022D" unicode="&#x22d;" horiz-adv-x="570" 
d="M159 737v64h257v-64h-257zM369 567q-37 3 -84 28t-69 27q-26 3 -35.5 -9.5t-9.5 -42.5h-44q-7 60 15.5 91t62.5 28q33 -3 79 -26t72 -27q27 -4 37 8t10 40h44q7 -57 -15 -88.5t-63 -28.5zM285 501q127 0 180 -59t53 -199t-53 -198t-180 -58t-180 58t-53 198t53 199
t180 59zM285 419q-76 0 -104 -37t-28 -139q0 -101 28 -138t104 -37t104 37t28 138q0 102 -28 139t-104 37z" />
    <glyph glyph-name="uni0230" unicode="&#x230;" 
d="M237 968l226 -2l-30 -61l-226 2zM349 857q26 0 26 -26v-50q0 -27 -26 -27h-28q-26 0 -26 27v50q0 26 26 26h28zM334 703q154 0 215 -78t61 -280t-61 -280t-215 -78q-153 0 -214 78t-61 280t61 280t214 78zM334 614q-97 0 -133.5 -58t-36.5 -211t36.5 -211t133.5 -58
t134 58t37 211t-37 211t-134 58z" />
    <glyph glyph-name="uni0231" unicode="&#x231;" horiz-adv-x="570" 
d="M188 783l226 -2l-30 -61l-226 2zM300 672q26 0 26 -26v-50q0 -27 -26 -27h-28q-26 0 -26 27v50q0 26 26 26h28zM285 501q127 0 180 -59t53 -199t-53 -198t-180 -58t-180 58t-53 198t53 199t180 59zM285 419q-76 0 -104 -37t-28 -139q0 -101 28 -138t104 -37t104 37
t28 138q0 102 -28 139t-104 37z" />
    <glyph glyph-name="uni0232" unicode="&#x232;" horiz-adv-x="574" 
d="M429 841v-71h-282v71h282zM564 690l-227 -451v-239h-100v241l-228 449h106l139 -283q8 -17 30 -80h7q21 62 30 79l139 284h104z" />
    <glyph glyph-name="uni0233" unicode="&#x233;" horiz-adv-x="533" 
d="M410 674v-71h-282v71h282zM412 488h104l-189 -511q-68 -180 -224 -182l-10 64q57 17 90 47t53 76l7 18h-20q-28 0 -34 25l-173 463h104l121 -355q12 -31 17 -60h14l20 60z" />
    <glyph glyph-name="uni0237" unicode="&#x237;" horiz-adv-x="256" 
d="M177 488v-493q0 -60 -26.5 -112t-72.5 -85l-54 42q56 71 56 155v493h97z" />
    <glyph glyph-name="uni0259" unicode="&#x259;" horiz-adv-x="539" 
d="M252 501q128 0 181.5 -58.5t53.5 -199.5t-52.5 -198t-173.5 -57q-112 0 -163 40.5t-51 123.5q0 139 119 139h219q-6 77 -38.5 102.5t-107.5 25.5q-80 0 -171 -12l-9 64q65 30 193 30zM256 69q72 0 100 31t31 117h-195q-48 0 -48 -66q1 -44 26 -63t86 -19z" />
    <glyph glyph-name="uni02B9" unicode="&#x2b9;" horiz-adv-x="264" 
d="M208 756l-64 -216h-65l51 216h78z" />
    <glyph glyph-name="uni02BA" unicode="&#x2ba;" horiz-adv-x="400" 
d="M209 756l-64 -216h-66l52 216h78zM344 756l-64 -216h-66l52 216h78z" />
    <glyph glyph-name="uni02BB" unicode="&#x2bb;" horiz-adv-x="232" 
d="M101 539q-20 0 -27 8t-7 28l-1 64q-1 80 38 159l46 -13q-11 -64 -11 -121q27 0 27 -31v-58q0 -36 -37 -36h-28z" />
    <glyph glyph-name="uni02BE" unicode="&#x2be;" horiz-adv-x="183" 
d="M88 645q0 27 -16 43t-41 16v48q45 0 77 -31t32 -76t-31.5 -75.5t-77.5 -30.5v48q25 0 41 16t16 42z" />
    <glyph glyph-name="uni02BF" unicode="&#x2bf;" horiz-adv-x="183" 
d="M151 704q-24 0 -40 -16t-16 -43q0 -26 16 -42t40 -16v-48q-46 0 -77.5 30.5t-31.5 75.5t32 76t77 31v-48z" />
    <glyph glyph-name="circumflex" unicode="&#x2c6;" horiz-adv-x="425" 
d="M249 714l131 -129l-33 -41l-130 96h-8l-129 -96l-32 41l130 129h71z" />
    <glyph glyph-name="caron" unicode="&#x2c7;" horiz-adv-x="425" 
d="M347 728l33 -41l-145 -129h-44l-144 129l33 41l129 -84h8z" />
    <glyph glyph-name="uni02C8" unicode="&#x2c8;" horiz-adv-x="191" 
d="M59 701h73v-130h-73v130z" />
    <glyph glyph-name="uni02C9" unicode="&#x2c9;" horiz-adv-x="400" 
d="M341 677v-71h-282v71h282z" />
    <glyph glyph-name="uni02CA" unicode="&#x2ca;" horiz-adv-x="321" 
d="M224 735l54 -74l-199 -117l-32 44z" />
    <glyph glyph-name="uni02CB" unicode="&#x2cb;" horiz-adv-x="321" 
d="M88 726l177 -146l-32 -45l-200 117z" />
    <glyph glyph-name="uni02CC" unicode="&#x2cc;" horiz-adv-x="191" 
d="M59 -49h73v-129h-73v129z" />
    <glyph glyph-name="breve" unicode="&#x2d8;" horiz-adv-x="378" 
d="M293 698l49 -7q5 -60 -36.5 -97.5t-115.5 -37.5t-116 37.5t-37 97.5l49 7q-1 -34 26 -52.5t78 -18.5q50 0 77 18.5t26 52.5z" />
    <glyph glyph-name="dotaccent" unicode="&#x2d9;" horiz-adv-x="224" 
d="M127 687q29 0 29 -28v-56q0 -29 -29 -29h-31q-28 0 -28 29v56q0 28 28 28h31z" />
    <glyph glyph-name="ring" unicode="&#x2da;" horiz-adv-x="302" 
d="M151 752q45 0 77 -31t32 -76t-32 -75.5t-77 -30.5q-46 0 -77.5 30.5t-31.5 75.5t32 76t77 31zM151 704q-24 0 -40 -16t-16 -43q0 -26 16 -42t40 -16q25 0 41 16t16 42q0 27 -16 43t-41 16z" />
    <glyph glyph-name="ogonek" unicode="&#x2db;" horiz-adv-x="252" 
d="M143 2l42 -2q-52 -61 -71 -111q-15 -34 7.5 -45.5t67.5 3.5l12 -40q-38 -15 -68.5 -19t-49 3t-31 20.5t-12 32.5t6.5 40q20 59 96 118z" />
    <glyph glyph-name="tilde" unicode="&#x2dc;" horiz-adv-x="423" 
d="M130 702q32 -3 78.5 -26.5t72.5 -26.5q27 -4 37 7.5t10 40.5h44q7 -58 -15 -89t-63 -28q-37 3 -84 28t-69 27q-26 3 -35.5 -9.5t-9.5 -43.5h-44q-7 60 15.5 91.5t62.5 28.5z" />
    <glyph glyph-name="hungarumlaut" unicode="&#x2dd;" horiz-adv-x="463" 
d="M156 746l70 -48l-138 -160l-42 31zM325 746l69 -48l-137 -160l-42 31z" />
    <glyph glyph-name="acutecomb" unicode="&#x301;" horiz-adv-x="0" 
d="M-135 726l54 -74l-199 -117l-32 45z" />
    <glyph glyph-name="uni0302" unicode="&#x302;" horiz-adv-x="0" 
d="M-184 714l132 -129l-34 -41l-129 96h-8l-130 -96l-32 41l131 129h70z" />
    <glyph glyph-name="tildecomb" unicode="&#x303;" horiz-adv-x="0" 
d="M-305 702q32 -3 78.5 -26.5t72.5 -26.5q27 -4 37 7.5t10 40.5h44q7 -58 -15.5 -89t-63.5 -28q-37 3 -84 28t-68 27q-27 3 -36.5 -9.5t-9.5 -43.5h-44q-7 60 16 91.5t63 28.5z" />
    <glyph glyph-name="uni0304" unicode="&#x304;" horiz-adv-x="0" 
d="M-65 677v-71h-282v71h282z" />
    <glyph glyph-name="uni0306" unicode="&#x306;" horiz-adv-x="0" 
d="M-93 698l49 -7q5 -60 -36.5 -97.5t-115.5 -37.5t-116 37.5t-37 97.5l48 7q0 -34 27 -52.5t78 -18.5q49 0 76 18.5t27 52.5z" />
    <glyph glyph-name="uni0307" unicode="&#x307;" horiz-adv-x="0" 
d="M-114 687q28 0 28 -28v-56q0 -29 -28 -29h-31q-29 0 -29 29v56q0 28 29 28h31z" />
    <glyph glyph-name="uni0308" unicode="&#x308;" horiz-adv-x="0" 
d="M-289 697q26 0 26 -27v-54q0 -27 -26 -27h-33q-25 0 -25 27v54q0 27 25 27h33zM-112 697q26 0 26 -27v-54q0 -27 -26 -27h-32q-26 0 -26 27v54q0 27 26 27h32z" />
    <glyph glyph-name="hookabovecomb" unicode="&#x309;" horiz-adv-x="0" 
d="M-176 617q55 15 55 64q0 26 -21.5 35t-53.5 -1l-11 54q62 20 106 -4t44 -82q0 -43 -28.5 -74t-78.5 -40z" />
    <glyph glyph-name="uni030A" unicode="&#x30a;" horiz-adv-x="0" 
d="M-167 743q45 0 77 -31t32 -76t-32 -75.5t-77 -30.5q-46 0 -77.5 30.5t-31.5 75.5t32 76t77 31zM-167 695q-25 0 -41 -16t-16 -43q0 -26 16 -41.5t41 -15.5q24 0 40.5 15.5t16.5 41.5t-16.5 42.5t-40.5 16.5z" />
    <glyph glyph-name="uni030B" unicode="&#x30b;" horiz-adv-x="0" 
d="M-301 738l70 -48l-138 -161l-42 32zM-132 738l70 -48l-138 -161l-41 32z" />
    <glyph glyph-name="uni030C" unicode="&#x30c;" horiz-adv-x="0" 
d="M-86 728l34 -41l-145 -129h-44l-144 129l32 41l130 -84h8z" />
    <glyph glyph-name="uni030F" unicode="&#x30f;" horiz-adv-x="0" 
d="M-348 764l109 -177l-41 -32l-138 161zM-180 764l110 -177l-42 -32l-138 161z" />
    <glyph glyph-name="uni0311" unicode="&#x311;" horiz-adv-x="0" 
d="M-333 565l-48 7q-5 60 36.5 97.5t114.5 37.5q74 0 116.5 -37.5t37.5 -97.5l-49 -7q0 71 -105 71q-49 0 -76 -18.5t-27 -52.5z" />
    <glyph glyph-name="uni0312" unicode="&#x312;" horiz-adv-x="0" 
d="M-136 548q-15 0 -20 5.5t-5 19.5v47q0 62 27 114l32 -9q-7 -51 -7 -88q19 0 19 -22v-42q0 -25 -26 -25h-20z" />
    <glyph glyph-name="uni031B" unicode="&#x31b;" horiz-adv-x="0" 
d="M-246 402l-4 48q36 4 59 30t26 65l68 -5q-1 -59 -46.5 -98.5t-102.5 -39.5z" />
    <glyph glyph-name="dotbelowcomb" unicode="&#x323;" horiz-adv-x="0" 
d="M-97 -49q29 0 29 -29v-56q0 -28 -29 -28h-31q-28 0 -28 28v56q0 29 28 29h31z" />
    <glyph glyph-name="uni0324" unicode="&#x324;" horiz-adv-x="0" 
d="M-287 -51q26 0 26 -27v-54q0 -27 -26 -27h-32q-26 0 -26 27v54q0 27 26 27h32zM-110 -51q27 0 27 -27v-54q0 -27 -27 -27h-31q-27 0 -27 27v54q0 27 27 27h31z" />
    <glyph glyph-name="uni0327" unicode="&#x327;" horiz-adv-x="0" 
d="M-151 -42q65 6 92 -7t26 -58q-2 -65 -51 -99.5t-122 -24.5l15 51q38 -1 62.5 17t26.5 48q1 16 -11 21.5t-48 6.5z" />
    <glyph glyph-name="uni0328" unicode="&#x328;" horiz-adv-x="0" 
d="M-132 2l42 -2q-51 -61 -72 -111q-14 -35 8 -46t68 4l11 -40q-47 -19 -82.5 -20t-52.5 12.5t-23.5 35.5t5.5 49q20 60 96 118z" />
    <glyph glyph-name="uni032E" unicode="&#x32e;" horiz-adv-x="0" 
d="M-101 -42l48 -8q5 -59 -36.5 -97t-114.5 -38q-74 0 -116.5 38t-37.5 97l49 8q0 -71 105 -71q49 0 76 18.5t27 52.5z" />
    <glyph glyph-name="uni0331" unicode="&#x331;" horiz-adv-x="0" 
d="M-91 -76v-71h-283v71h283z" />
    <glyph glyph-name="uni0394" unicode="&#x394;" horiz-adv-x="629" 
d="M365 690l241 -650v-40h-583v40l241 650h101zM315 593q-4 -13 -11.5 -40t-11.5 -41l-153 -431h349l-151 432q-2 4 -22 80z" />
    <glyph glyph-name="uni03A9" unicode="&#x3a9;" horiz-adv-x="719" 
d="M360 703q150 0 217 -81t67 -248q0 -106 -32.5 -171.5t-109.5 -122.5q32 8 66 8h98l1 -88h-255l-1 84q72 51 100 113.5t29 164.5q-1 136 -42.5 194.5t-138.5 58.5q-99 0 -139.5 -58.5t-40.5 -196.5q0 -105 28.5 -163.5t99.5 -112.5v-84h-255v88h98q35 0 66 -8
q-77 57 -109.5 124t-31.5 171q0 167 67 247.5t218 80.5z" />
    <glyph glyph-name="uni03BC" unicode="&#x3bc;" horiz-adv-x="595" 
d="M572 63l7 -59q-53 -14 -85 -14q-84 0 -84 86v18q-25 -45 -71.5 -75.5t-106.5 -30.5q-32 0 -61 9v-67l-13 -127h-83v685h96v-320q0 -54 16 -73t60 -19q68 0 113.5 58t46.5 140v214h97v-376q0 -27 5.5 -38t22.5 -11h40z" />
    <glyph glyph-name="pi" unicode="&#x3c0;" horiz-adv-x="643" 
d="M617 488l-1 -78h-90v-410h-97v410h-215v-410h-96v410h-91v78h590z" />
    <glyph glyph-name="uni0400" unicode="&#x400;" horiz-adv-x="561" 
d="M365 771l-32 -45l-200 117l55 74zM233 83h275l4 -77q-91 -8 -296 -8q-64 0 -101 33.5t-37 90.5v446q0 57 37 90.5t101 33.5q205 0 296 -8l-4 -78h-275q-30 0 -42.5 -14.5t-12.5 -49.5v-138h291v-81h-291v-176q0 -35 12.5 -49.5t42.5 -14.5z" />
    <glyph glyph-name="uni0401" unicode="&#x401;" horiz-adv-x="561" 
d="M198 765q-25 0 -25 27v54q0 27 25 27h33q26 0 26 -27v-54q0 -27 -26 -27h-33zM376 765q-26 0 -26 27v54q0 27 26 27h32q26 0 26 -27v-54q0 -27 -26 -27h-32zM233 83h275l4 -77q-91 -8 -296 -8q-64 0 -101 33.5t-37 90.5v446q0 57 37 90.5t101 33.5q205 0 296 -8l-4 -78
h-275q-30 0 -42.5 -14.5t-12.5 -49.5v-138h291v-81h-291v-176q0 -35 12.5 -49.5t42.5 -14.5z" />
    <glyph glyph-name="uni0402" unicode="&#x402;" horiz-adv-x="753" 
d="M538 444q38 0 66.5 -8t54.5 -29.5t39.5 -64.5t13.5 -107q0 -133 -66 -189t-191 -51l-9 73q90 7 128 39t38 118q0 83 -24 108t-83 25q-76 0 -163 -47v-311h-101v601h-217v89h537v-89h-219v-211q93 54 196 54z" />
    <glyph glyph-name="uni0403" unicode="&#x403;" horiz-adv-x="518" 
d="M395 926l54 -74l-199 -117l-32 44zM212 692q198 0 287 -9l-4 -77h-249q-35 0 -49.5 -15t-14.5 -54v-537h-100v556q0 60 36.5 98t93.5 38z" />
    <glyph glyph-name="uni0404" unicode="&#x404;" horiz-adv-x="578" 
d="M528 88l10 -76q-80 -24 -200 -24q-154 0 -216.5 80t-62.5 277t62.5 277t216.5 80q111 0 194 -20l-11 -78q-80 8 -183 8q-90 0 -129.5 -46t-45.5 -161l291 -1v-78h-292q1 -140 40 -194t136 -54q120 0 190 10z" />
    <glyph glyph-name="uni0405" unicode="&#x405;" horiz-adv-x="563" 
d="M280 702q122 0 208 -21l-6 -73q-145 5 -198 5q-78 0 -104 -15.5t-26 -80.5q0 -51 18.5 -72t64.5 -33l137 -38q77 -21 108.5 -68t31.5 -128q0 -114 -52 -152t-183 -38q-110 0 -217 20l7 74q156 -5 212 -5q78 1 104.5 20t26.5 82q0 53 -18 73.5t-64 32.5l-140 39
q-74 20 -105.5 67.5t-31.5 128.5q0 59 12.5 95.5t43.5 55.5t69 25t102 6z" />
    <glyph glyph-name="uni0406" unicode="&#x406;" horiz-adv-x="268" 
d="M184 690v-690h-100v690h100z" />
    <glyph glyph-name="uni0407" unicode="&#x407;" horiz-adv-x="268" 
d="M61 873q26 0 26 -27v-54q0 -27 -26 -27h-33q-25 0 -25 27v54q0 27 25 27h33zM238 873q26 0 26 -27v-54q0 -27 -26 -27h-32q-26 0 -26 27v54q0 27 26 27h32zM184 690v-690h-100v690h100z" />
    <glyph glyph-name="uni0408" unicode="&#x408;" horiz-adv-x="343" 
d="M262 690v-539q0 -79 -35 -120t-101 -40q-59 0 -98 13l11 72h49q74 0 74 70v544h100z" />
    <glyph glyph-name="uni0409" unicode="&#x409;" horiz-adv-x="971" 
d="M697 417q129 0 179.5 -47t50.5 -166q0 -122 -48 -167t-167 -45q-160 0 -249 8l1 6v603h-123q-56 0 -62 -68q-18 -195 -29.5 -269.5t-38.5 -138.5q-30 -69 -71.5 -100t-110.5 -35l-8 69q58 21 96 94q7 14 12.5 29t10 28t9 33t7 32t5.5 37t4.5 38t4.5 44.5t4 45t4 52.5
t4 56q9 134 150 134h230v-273h135zM697 79q78 0 103.5 25t25.5 101q0 74 -25.5 101.5t-103.5 27.5h-135v-254q37 -1 135 -1z" />
    <glyph glyph-name="uni040A" unicode="&#x40a;" horiz-adv-x="978" 
d="M703 416q130 0 180.5 -46.5t50.5 -167.5t-48 -165.5t-167 -44.5q-161 0 -249 8v334h-286v-334h-100v690h100v-274h286v274h99v-274h134zM703 79q79 0 104.5 25t25.5 100q0 74 -25.5 102t-104.5 28h-134v-254q37 -1 134 -1z" />
    <glyph glyph-name="uni040B" unicode="&#x40b;" horiz-adv-x="773" 
d="M559 444q83 0 122 -38.5t39 -119.5v-286h-100v266q0 50 -21 70t-74 20q-88 0 -183 -47v-309h-101v601h-217v89h537v-89h-219v-212q107 55 217 55z" />
    <glyph glyph-name="uni040C" unicode="&#x40c;" horiz-adv-x="605" 
d="M461 852l-199 -117l-32 44l177 147zM335 358q20 -2 37 -8t30.5 -12t27.5 -21t23 -25t21.5 -34t19.5 -37.5t19.5 -47t18.5 -50.5t21 -59t23 -64h-105q-60 172 -79 211q-40 83 -97 101q-21 7 -46 7h-72q7 -42 7 -71v-248h-100v690h100v-212q0 -34 -7 -78h69q33 0 59.5 13.5
t46 37t37 59.5t32.5 77t33 93q2 7 3 10h101q-3 -9 -9 -28q-55 -160 -86 -211q-49 -81 -128 -89v-4z" />
    <glyph glyph-name="uni040D" unicode="&#x40d;" horiz-adv-x="694" 
d="M234 917l177 -146l-32 -45l-200 117zM610 690v-690h-97v487q0 50 6 82h-6q-14 -37 -36 -78l-290 -491h-103v690h96v-482q0 -42 -6 -85h5q17 41 39 78l288 489h104z" />
    <glyph glyph-name="uni040E" unicode="&#x40e;" horiz-adv-x="567" 
d="M285 743q-73 0 -115.5 40.5t-37.5 100.5h73q0 -88 80 -88q79 0 79 88h73q5 -60 -37 -100.5t-115 -40.5zM456 690h102l-183 -519q-31 -84 -66 -128.5t-94 -49.5q-62 -5 -130 15l11 73q32 -2 50 -2.5t36 -0.5t28 5l19 9.5t16 17.5t13 25t15 36l11 29h-36q-30 0 -46.5 11.5
t-26.5 38.5l-156 440h102l134 -391q7 -15 21 -15h38z" />
    <glyph glyph-name="uni040F" unicode="&#x40f;" horiz-adv-x="676" 
d="M491 690h101v-690h-212l-5 -151h-68l-6 151h-217v690h100v-609h307v609z" />
    <glyph glyph-name="uni0410" unicode="&#x410;" horiz-adv-x="626" 
d="M514 0l-64 208h-275l-64 -208h-102l216 663q8 27 37 27h102q30 0 36 -27l217 -663h-103zM202 295h221l-80 262q-3 9 -8.5 28t-8.5 28h-27l-16 -56z" />
    <glyph glyph-name="uni0411" unicode="&#x411;" horiz-adv-x="600" 
d="M321 397q130 0 180.5 -45t50.5 -160q0 -55 -11 -92t-28.5 -58.5t-51.5 -33t-68 -14.5t-90 -3q-117 0 -217 9h-2v690q128 7 217 7t212 -7l-8 -84h-320v-209h136zM321 77q80 0 105 23.5t25 96.5q0 71 -25.5 96.5t-104.5 25.5h-136l-1 -241q38 -1 137 -1z" />
    <glyph glyph-name="uni0412" unicode="&#x412;" horiz-adv-x="622" 
d="M428 356q75 -7 106.5 -52.5t31.5 -131.5q0 -104 -49.5 -142t-172.5 -38q-169 0 -260 8v690q81 8 230 8q130 0 180.5 -37.5t50.5 -142.5q0 -75 -28 -113.5t-89 -44.5v-4zM309 613h-127v-217h140q72 0 99.5 22.5t27.5 87.5q0 64 -30 85.5t-110 21.5zM329 77
q79 0 107.5 22.5t28.5 89.5q0 75 -30.5 102t-111.5 28h-141v-241q40 -1 147 -1z" />
    <glyph glyph-name="uni0413" unicode="&#x413;" horiz-adv-x="518" 
d="M212 692q198 0 287 -9l-4 -77h-249q-35 0 -49.5 -15t-14.5 -54v-537h-100v556q0 60 36.5 98t93.5 38z" />
    <glyph glyph-name="uni0414" unicode="&#x414;" horiz-adv-x="700" 
d="M584 81h85v-232h-68l-10 151h-491l-9 -151h-69v232h68q82 179 98 475q2 62 41.5 98t106.5 36h248v-609zM186 81h298v528h-130q-36 0 -51.5 -15t-18.5 -53q-10 -154 -31.5 -261t-66.5 -199z" />
    <glyph glyph-name="uni0415" unicode="&#x415;" horiz-adv-x="561" 
d="M233 83h275l4 -77q-91 -8 -296 -8q-64 0 -101 33.5t-37 90.5v446q0 57 37 90.5t101 33.5q205 0 296 -8l-4 -78h-275q-30 0 -42.5 -14.5t-12.5 -49.5v-138h291v-81h-291v-176q0 -35 12.5 -49.5t42.5 -14.5z" />
    <glyph glyph-name="uni0416" unicode="&#x416;" horiz-adv-x="914" 
d="M644 358q30 -3 54 -12.5t45.5 -33t35 -42t32.5 -64.5t28.5 -73.5t32.5 -94.5q9 -25 13 -38h-106q-63 177 -82 214q-40 83 -94 100q-18 5 -38 5h-65q6 -36 6 -71v-248h-95v248q0 29 7 71h-70q-48 0 -83.5 -37t-53 -77t-58.5 -154q-13 -33 -19 -51h-105q5 13 13 38
q19 56 28 81.5t25 66.5t27 59.5t27.5 43.5t33 36t38.5 20.5t48 12.5v4q-34 4 -60.5 18.5t-47 41t-36.5 59t-33 79.5t-33 93q-8 24 -12 37h102q57 -159 82 -204q48 -86 118 -86h68q-6 38 -6 78v212h95v-212q0 -47 -5 -78h62q46 0 82.5 39t54.5 80.5t55 143.5q7 18 10 27h102
q-57 -167 -81 -214q-49 -94 -122 -111q-9 -2 -20 -3v-4z" />
    <glyph glyph-name="uni0417" unicode="&#x417;" horiz-adv-x="551" 
d="M246 698q129 0 178.5 -37.5t49.5 -142.5q0 -75 -27.5 -113.5t-88.5 -44.5v-4q74 -7 105 -52.5t31 -131.5q0 -104 -49 -142t-169 -38q-142 0 -241 24l9 72q112 -14 215 -14q76 0 104.5 23t28.5 92q0 75 -30.5 102t-109.5 27h-118v79h118q69 0 95.5 22.5t26.5 86.5
q0 66 -28.5 88.5t-105.5 22.5q-67 0 -180 -12l-8 77q89 16 194 16z" />
    <glyph glyph-name="uni0418" unicode="&#x418;" horiz-adv-x="694" 
d="M610 690v-690h-97v487q0 50 6 82h-6q-14 -37 -36 -78l-290 -491h-103v690h96v-482q0 -42 -6 -85h5q17 41 39 78l288 489h104z" />
    <glyph glyph-name="uni0419" unicode="&#x419;" horiz-adv-x="694" 
d="M430 884h73q5 -60 -37 -100.5t-115 -40.5t-115.5 40.5t-37.5 100.5h73q0 -88 80 -88q79 0 79 88zM610 690v-690h-97v487q0 50 6 82h-6q-14 -37 -36 -78l-290 -491h-103v690h96v-482q0 -42 -6 -85h5q17 41 39 78l288 489h104z" />
    <glyph glyph-name="uni041A" unicode="&#x41a;" horiz-adv-x="605" 
d="M335 358q20 -2 37 -8t30.5 -12t27.5 -21t23 -25t21.5 -34t19.5 -37.5t19.5 -47t18.5 -50.5t21 -59t23 -64h-105q-60 172 -79 211q-40 83 -97 101q-21 7 -46 7h-72q7 -42 7 -71v-248h-100v690h100v-212q0 -34 -7 -78h69q33 0 59.5 13.5t46 37t37 59.5t32.5 77t33 93
q2 7 3 10h101q-3 -9 -9 -28q-55 -160 -86 -211q-49 -81 -128 -89v-4z" />
    <glyph glyph-name="uni041B" unicode="&#x41b;" horiz-adv-x="655" 
d="M571 690v-690h-101v609h-127q-65 0 -71 -68q-17 -193 -29 -269.5t-40 -138.5q-60 -138 -185 -135l-8 78q70 19 99 84q26 62 38 139t27 260q12 131 143 131h254z" />
    <glyph glyph-name="uni041C" unicode="&#x41c;" horiz-adv-x="881" 
d="M742 690q39 0 41 -41l28 -649h-100l-24 607h-20l-140 -491q-9 -34 -43 -34h-87q-35 0 -44 34l-141 491h-19l-23 -607h-99l26 649q2 41 41 41h111q31 0 42 -34l117 -404q10 -36 23 -93h18q12 53 24 94l116 403q11 34 44 34h109z" />
    <glyph glyph-name="uni041D" unicode="&#x41d;" horiz-adv-x="670" 
d="M485 690h101v-690h-101v325h-301v-325h-100v690h100v-279h301v279z" />
    <glyph glyph-name="uni041E" unicode="&#x41e;" 
d="M334 703q154 0 215 -78t61 -280t-61 -280t-215 -78q-153 0 -214 78t-61 280t61 280t214 78zM334 614q-97 0 -133.5 -58t-36.5 -211t36.5 -211t133.5 -58t134 58t37 211t-37 211t-134 58z" />
    <glyph glyph-name="uni041F" unicode="&#x41f;" horiz-adv-x="671" 
d="M587 690v-690h-100v609h-303v-609h-100v690h503z" />
    <glyph glyph-name="uni0420" unicode="&#x420;" horiz-adv-x="592" 
d="M325 699q128 0 176.5 -46t48.5 -172q0 -127 -46.5 -173t-167.5 -46q-74 0 -151 9v-271h-101v690q86 9 241 9zM322 348q73 1 100 28t27 105t-27 105t-100 27q-99 0 -137 -1v-264h137z" />
    <glyph glyph-name="uni0421" unicode="&#x421;" horiz-adv-x="572" 
d="M332 702q108 0 191 -20l-10 -77q-80 8 -181 8q-95 0 -131.5 -58t-36.5 -210t36.5 -210t131.5 -58q127 0 195 11l10 -76q-83 -24 -205 -24q-151 0 -212 80t-61 277t61 277t212 80z" />
    <glyph glyph-name="uni0422" unicode="&#x422;" horiz-adv-x="584" 
d="M561 690v-89h-219v-601h-101v601h-217v89h537z" />
    <glyph glyph-name="uni0423" unicode="&#x423;" horiz-adv-x="567" 
d="M456 690h102l-183 -519q-31 -84 -66 -128.5t-94 -49.5q-62 -5 -130 15l11 73q32 -2 50 -2.5t36 -0.5t28 5l19 9.5t16 17.5t13 25t15 36l11 29h-36q-30 0 -46.5 11.5t-26.5 38.5l-156 440h102l134 -391q7 -15 21 -15h38z" />
    <glyph glyph-name="uni0424" unicode="&#x424;" horiz-adv-x="822" 
d="M776 352q-1 -154 -71.5 -219t-243.5 -72v-96h-100v96q-174 7 -244.5 71.5t-70.5 219.5q0 158 70 223.5t245 72.5v96h99l1 -96q174 -7 244 -72.5t71 -223.5zM149 352q0 -114 46 -158t170 -49v420q-125 -5 -170.5 -50t-45.5 -163zM457 145q123 5 169 49.5t47 157.5
q-1 117 -47 162.5t-169 50.5v-420z" />
    <glyph glyph-name="uni0425" unicode="&#x425;" horiz-adv-x="616" 
d="M484 0l-165 320h-24l-164 -320h-108l189 357l-176 333h107l151 -294h26l151 294h109l-177 -333l190 -357h-109z" />
    <glyph glyph-name="uni0426" unicode="&#x426;" horiz-adv-x="695" 
d="M579 81h84v-232h-68l-10 151h-501v690h100v-609h294v609h101v-609z" />
    <glyph glyph-name="uni0427" unicode="&#x427;" horiz-adv-x="629" 
d="M446 690h100v-690h-100v309q-112 -61 -231 -61q-80 0 -118.5 39t-38.5 119v284h100v-264q-1 -47 20.5 -68t72.5 -21q88 0 195 48v305z" />
    <glyph glyph-name="uni0428" unicode="&#x428;" horiz-adv-x="935" 
d="M753 690h98v-690h-767v690h98v-609h237v609h97v-609h237v609z" />
    <glyph glyph-name="uni0429" unicode="&#x429;" horiz-adv-x="960" 
d="M845 81h84v-232h-68l-10 151h-767v690h98v-609h234v609h97v-609h234v609h98v-609z" />
    <glyph glyph-name="uni042A" unicode="&#x42a;" horiz-adv-x="748" 
d="M474 417q130 0 180 -47t50 -168t-48 -165.5t-167 -44.5q-161 0 -250 8v601h-216v89h317v-273h134zM474 79q78 0 103.5 25t25.5 100q0 74 -25.5 102t-103.5 28h-134v-254q37 -1 134 -1z" />
    <glyph glyph-name="uni042B" unicode="&#x42b;" horiz-adv-x="853" 
d="M320 417q130 0 180.5 -47t50.5 -168t-48 -165.5t-167 -44.5q-161 0 -250 8h-2v690h100v-273h136zM670 690h100v-690h-100v690zM320 79q79 0 104.5 25t25.5 100q0 74 -25.5 102t-104.5 28h-136v-254q37 -1 136 -1z" />
    <glyph glyph-name="uni042C" unicode="&#x42c;" horiz-adv-x="595" 
d="M320 417q130 0 180.5 -47t50.5 -168t-48 -165.5t-167 -44.5q-161 0 -250 8h-2v690h100v-273h136zM320 79q79 0 104.5 25t25.5 100q0 74 -25.5 102t-104.5 28h-136v-254q37 -1 136 -1z" />
    <glyph glyph-name="uni042D" unicode="&#x42d;" horiz-adv-x="578" 
d="M239 702q155 0 217.5 -80t62.5 -277t-62.5 -277t-217.5 -80q-119 0 -199 24l10 76q70 -10 190 -10q97 0 136 54t40 194h-292v78l291 1q-6 115 -45.5 161t-129.5 46q-103 0 -184 -8l-10 78q83 20 193 20z" />
    <glyph glyph-name="uni042E" unicode="&#x42e;" horiz-adv-x="933" 
d="M597 703q154 0 215.5 -78t61.5 -280t-61.5 -280t-215.5 -78q-141 0 -199.5 72.5t-62.5 258.5h-150v-318h-100v690h100v-291h151q7 170 65.5 237t195.5 67zM597 76q97 0 133.5 58t37.5 211q-1 153 -37.5 211t-133.5 58q-93 0 -128 -58t-35 -211t35 -211t128 -58z" />
    <glyph glyph-name="uni042F" unicode="&#x42f;" horiz-adv-x="615" 
d="M291 699q156 0 240 -9v-690h-100v277q-36 -1 -139 -1q-68 0 -87 -69l-58 -207h-106l61 211q23 80 97 98l-1 5q-69 10 -99.5 54.5t-29.5 128.5q0 109 51.5 155.5t170.5 46.5zM291 362h140v250q-38 1 -138 1q-70 0 -96.5 -25.5t-27.5 -96.5q0 -68 27.5 -98.5t94.5 -30.5z
" />
    <glyph glyph-name="uni0430" unicode="&#x430;" horiz-adv-x="555" 
d="M309 501q89 0 131 -36t42 -125v-340h-77l-10 78q-85 -87 -195 -87q-68 0 -109 36.5t-41 101.5v51q0 58 36.5 90t102.5 32h196v38q-1 45 -21 62t-76 17q-57 0 -207 -12l-9 71q130 23 237 23zM148 141q0 -36 17 -52t55 -16q88 0 165 69v87h-178q-32 -1 -45.5 -17t-13.5 -45
v-26z" />
    <glyph glyph-name="uni0431" unicode="&#x431;" horiz-adv-x="577" 
d="M476 738l23 -76q-37 -23 -71 -33.5t-77 -17t-69 -13.5q-112 -32 -132 -152q-7 -38 -10 -72h2q14 29 31 48t56.5 35t97.5 16q107 0 151 -54t44 -180t-49 -188.5t-178 -62.5q-62 0 -105 16t-67 40.5t-36.5 68t-15.5 82t-3 99.5q0 86 6.5 141.5t25 106t55.5 81.5t95 49
q29 9 73 16t80.5 17.5t72.5 32.5zM302 391q-80 0 -107 -35.5t-27 -117.5q0 -96 28 -132.5t99 -36.5t98.5 36.5t27.5 131.5q0 90 -25 122t-94 32z" />
    <glyph glyph-name="uni0432" unicode="&#x432;" horiz-adv-x="555" 
d="M381 249q66 -5 94 -36.5t28 -91.5q0 -74 -44 -101t-152 -27q-146 0 -231 6v488q76 6 204 6q116 0 161 -27t45 -103q0 -52 -25 -79.5t-80 -31.5v-3zM275 418q-23 0 -59 0.5t-49 0.5v-133h120q60 0 83.5 14t23.5 54q0 38 -26 51t-93 13zM292 69q65 0 89.5 14.5t24.5 57.5
t-26.5 59.5t-92.5 16.5h-120v-147q34 -1 125 -1z" />
    <glyph glyph-name="uni0433" unicode="&#x433;" horiz-adv-x="467" 
d="M185 491q181 0 261 -9l-3 -68h-217q-29 0 -42.5 -13.5t-13.5 -43.5v-357h-96v383q0 108 111 108z" />
    <glyph glyph-name="uni0434" unicode="&#x434;" horiz-adv-x="594" 
d="M490 78h70v-222h-64l-8 144h-388l-8 -144h-64v222h59q55 118 69 294q8 116 130 116h204v-410zM174 78h224v335h-96q-54 0 -59 -57q-12 -170 -69 -278z" />
    <glyph glyph-name="uni0435" unicode="&#x435;" horiz-adv-x="543" 
d="M302 69q65 0 171 12l9 -64q-66 -29 -193 -29q-128 0 -182 58.5t-54 198.5q0 142 53 199t174 57q111 0 162 -41t52 -123q0 -140 -119 -140h-219q7 -76 39.5 -102t106.5 -26zM285 419q-72 0 -100 -30.5t-31 -116.5h195q49 0 47 65q0 45 -24.5 63.5t-86.5 18.5z" />
    <glyph glyph-name="uni0436" unicode="&#x436;" horiz-adv-x="795" 
d="M572 253q27 -3 46.5 -9.5t37 -23.5t28.5 -31t26 -49t24 -60t29 -80h-99l-9 24q-48 123 -71 153q-31 39 -80 40h-67q5 -27 5 -46v-171h-86v171q0 19 5 46h-71q-52 -1 -78.5 -39.5t-73.5 -156.5q-5 -14 -8 -21h-98q14 42 21.5 61.5t19 50t18.5 43.5t19 32.5t22 27.5
t24.5 17.5t30.5 14t36 6.5v3q-21 2 -38.5 9.5t-30 14t-26.5 26.5l-21 30t-20.5 43.5t-18.5 48t-22 60.5h97q17 -47 27 -71.5t24.5 -53.5t27.5 -42t31.5 -22t40.5 -9h67q-5 23 -5 56v142h86v-142q0 -34 -5 -56h63q53 0 81 42t70 156h98q-17 -46 -22 -60.5t-18.5 -48
t-20.5 -43.5l-21 -30t-26.5 -26.5t-30 -14t-38.5 -9.5v-3z" />
    <glyph glyph-name="uni0437" unicode="&#x437;" horiz-adv-x="501" 
d="M208 497q127 0 175 -26t48 -105q0 -55 -23 -82t-79 -32v-3q64 -5 92 -35.5t28 -92.5q0 -77 -47 -103.5t-165 -26.5q-121 0 -199 16l7 73q98 -8 185 -8q70 0 94.5 14t24.5 55q0 42 -25.5 57t-92.5 15h-120v71h120q61 0 83 14.5t22 55.5q0 37 -26 49t-100 12q-87 0 -148 -8
l-8 73q63 17 154 17z" />
    <glyph glyph-name="uni0438" unicode="&#x438;" horiz-adv-x="588" 
d="M511 488v-488h-87v309q0 13 1.5 36.5t1.5 31.5h-2q-10 -27 -35 -60l-235 -317h-78v488h86v-310q0 -30 -3 -66h3q19 38 34 58l236 318h78z" />
    <glyph glyph-name="uni0439" unicode="&#x439;" horiz-adv-x="588" 
d="M371 705h73q5 -60 -37 -100.5t-115 -40.5t-115.5 40.5t-37.5 100.5h73q0 -88 80 -88q79 0 79 88zM511 488v-488h-87v309q0 13 1.5 36.5t1.5 31.5h-2q-10 -27 -35 -60l-235 -317h-78v488h86v-310q0 -30 -3 -66h3q19 38 34 58l236 318h78z" />
    <glyph glyph-name="uni043A" unicode="&#x43a;" horiz-adv-x="540" 
d="M311 253q24 -3 42.5 -9.5t33 -14t28.5 -26t23.5 -33t22.5 -46t21.5 -54.5t25.5 -70h-101q-19 50 -27.5 71.5t-22.5 53t-24 43.5t-25.5 26t-32.5 18t-40 4h-66q4 -32 4 -45v-171h-96v488h96v-141q0 -24 -5 -56h61q64 0 95 42.5t70 154.5h100q-17 -45 -23 -61.5
t-19.5 -48.5t-21.5 -43t-21.5 -30t-26.5 -26t-31 -14t-40 -10v-2z" />
    <glyph glyph-name="uni043B" unicode="&#x43b;" horiz-adv-x="567" 
d="M490 488v-488h-97v413h-98q-30 0 -42.5 -13t-17.5 -47q-24 -186 -45 -247q-36 -114 -161 -111l-10 74q39 9 56.5 22.5t28.5 41.5q23 61 40 237q7 60 38.5 89t94.5 29h213z" />
    <glyph glyph-name="uni043C" unicode="&#x43c;" horiz-adv-x="753" 
d="M631 488q36 0 36 -36l20 -452h-90l-18 415h-16l-114 -329q-9 -31 -37 -31h-73q-27 0 -38 31l-113 329h-16l-17 -415h-89l19 452q0 36 37 36h98q28 0 37 -31l92 -269q11 -32 19 -70h15q2 8 8.5 32.5t10.5 37.5l92 269q11 31 38 31h99z" />
    <glyph glyph-name="uni043D" unicode="&#x43d;" horiz-adv-x="585" 
d="M413 488h96v-488h-96v222h-241v-222h-95v488h95v-192h241v192z" />
    <glyph glyph-name="uni043E" unicode="&#x43e;" horiz-adv-x="573" 
d="M287 501q127 0 180 -59t53 -199t-53 -198t-180 -58q-128 0 -181 58.5t-53 197.5q0 140 53.5 199t180.5 59zM287 419q-76 0 -104 -37t-28 -139q0 -101 28 -138t104 -37q75 0 103.5 37t28.5 138q0 102 -28 139t-104 37z" />
    <glyph glyph-name="uni043F" unicode="&#x43f;" horiz-adv-x="577" 
d="M500 488v-488h-94v410h-235v-410h-94v488h423z" />
    <glyph glyph-name="uni0440" unicode="&#x440;" horiz-adv-x="587" 
d="M366 501q87 0 127 -65.5t40 -194.5q0 -138 -45 -195.5t-142 -57.5q-98 0 -176 49q4 -50 3 -99v-137h-96v687h80l7 -75q38 40 93.5 64t108.5 24zM321 72q63 0 87.5 34.5t24.5 135.5q0 97 -22.5 136t-77.5 39q-63 0 -160 -71v-248q106 -26 148 -26z" />
    <glyph glyph-name="uni0441" unicode="&#x441;" horiz-adv-x="495" 
d="M287 501q97 0 161 -25l-12 -62q-75 5 -133 5q-84 0 -116 -37t-32 -138t32 -138t116 -37q82 0 144 11l10 -65q-75 -27 -171 -27q-128 0 -180.5 57.5t-52.5 198.5t53 199t181 58z" />
    <glyph glyph-name="uni0442" unicode="&#x442;" horiz-adv-x="494" 
d="M469 488v-79h-173v-409h-97v409h-173v79h443z" />
    <glyph glyph-name="uni0443" unicode="&#x443;" horiz-adv-x="536" 
d="M414 488h104l-190 -511q-36 -102 -92 -145q-67 -50 -191 -32l9 68q78 -6 117 20q38 27 67 94l7 18h-21q-26 0 -34 25l-172 463h103l121 -355q14 -37 18 -60h14l20 60z" />
    <glyph glyph-name="uni0444" unicode="&#x444;" horiz-adv-x="723" 
d="M671 243q0 -130 -61 -188.5t-204 -65.5v-188h-89v188q-143 7 -204 65.5t-61 188.5q0 131 61 190.5t204 66.5v200h89v-200q143 -7 204 -66.5t61 -190.5zM146 243q0 -91 38.5 -129.5t135.5 -43.5v348q-97 -5 -135.5 -43.5t-38.5 -131.5zM403 70q97 5 135.5 43.5t38.5 129.5
q0 92 -38.5 131t-135.5 44v-348z" />
    <glyph glyph-name="uni0445" unicode="&#x445;" horiz-adv-x="536" 
d="M409 0l-132 216h-18l-132 -216h-105l159 252l-147 236h104l119 -197h22l119 197h104l-147 -236l159 -252h-105z" />
    <glyph glyph-name="uni0446" unicode="&#x446;" horiz-adv-x="599" 
d="M495 78h69v-222h-64l-9 144h-414v488h95v-410h227v410h97z" />
    <glyph glyph-name="uni0447" unicode="&#x447;" horiz-adv-x="537" 
d="M363 488h97v-488h-97v199q-102 -33 -184 -33q-126 0 -126 108v214h95v-181q0 -34 14.5 -48t48.5 -14q77 0 152 31v212z" />
    <glyph glyph-name="uni0448" unicode="&#x448;" horiz-adv-x="811" 
d="M640 488h94v-488h-657v488h93v-410h191v410h87v-410h192v410z" />
    <glyph glyph-name="uni0449" unicode="&#x449;" horiz-adv-x="839" 
d="M734 78h70v-222h-64l-10 144h-653v488h93v-410h192v410h86v-410h193v410h93v-410z" />
    <glyph glyph-name="uni044A" unicode="&#x44a;" horiz-adv-x="634" 
d="M393 304q114 0 157 -33.5t43 -122.5q0 -88 -42.5 -121t-143.5 -33q-135 0 -213 6v412h-169v76h263v-184h105zM393 70q58 0 79.5 16.5t21.5 65.5q0 46 -21 63.5t-80 17.5h-105v-162q30 -1 105 -1z" />
    <glyph glyph-name="uni044B" unicode="&#x44b;" horiz-adv-x="731" 
d="M277 304q113 0 155 -33.5t42 -122.5q0 -88 -41 -121t-140 -33q-136 0 -214 6h-2v488h93v-184h107zM557 488h97v-488h-97v488zM277 70q57 0 78 16.5t21 65.5q0 46 -20.5 63.5t-78.5 17.5h-107v-162q30 -1 107 -1z" />
    <glyph glyph-name="uni044C" unicode="&#x44c;" horiz-adv-x="518" 
d="M277 304q114 0 157 -33.5t43 -122.5q0 -88 -41.5 -121t-142.5 -33q-136 0 -214 6h-2v488h93v-184h107zM277 70q59 0 80.5 16.5t21.5 65.5q0 46 -21.5 63.5t-80.5 17.5h-107v-162q30 -1 107 -1z" />
    <glyph glyph-name="uni044D" unicode="&#x44d;" horiz-adv-x="511" 
d="M214 495q135 0 189 -56t54 -198q0 -139 -54 -195.5t-189 -56.5q-104 0 -174 21l9 68q74 -6 165 -6q78 0 109 29.5t35 110.5h-246v73h245q-5 74 -37 102t-106 27q-94 0 -159 -5l-10 67q65 19 169 19z" />
    <glyph glyph-name="uni044E" unicode="&#x44e;" horiz-adv-x="801" 
d="M513 501q131 0 182.5 -54.5t51.5 -201.5q0 -145 -51.5 -199.5t-182.5 -54.5q-119 0 -168 48t-53 175h-119v-214h-96v488h96v-199h119q7 121 56 166.5t165 45.5zM511 72q77 0 106 37t30 136q-1 100 -30 137t-106 37q-74 0 -101 -36.5t-27 -137.5q0 -99 27 -136t101 -37z
" />
    <glyph glyph-name="uni044F" unicode="&#x44f;" horiz-adv-x="547" 
d="M252 494q147 0 219 -7v-487h-95v178h-126q-64 0 -77 -47l-36 -131h-100l44 147q15 53 94 62v4q-58 9 -83.5 42t-25.5 93q0 75 41 110.5t145 35.5zM256 250h120v165q-33 1 -122 1q-58 0 -76 -16.5t-18 -65.5q0 -48 19 -66t77 -18z" />
    <glyph glyph-name="uni0450" unicode="&#x450;" horiz-adv-x="543" 
d="M341 592l-32 -45l-200 117l55 74zM302 69q65 0 171 12l9 -64q-66 -29 -193 -29q-128 0 -182 58.5t-54 198.5q0 142 53 199t174 57q111 0 162 -41t52 -123q0 -140 -119 -140h-219q7 -76 39.5 -102t106.5 -26zM285 419q-72 0 -100 -30.5t-31 -116.5h195q49 0 47 65
q0 45 -24.5 63.5t-86.5 18.5z" />
    <glyph glyph-name="uni0451" unicode="&#x451;" horiz-adv-x="543" 
d="M177 586q-26 0 -26 26v54q0 27 26 27h33q25 0 25 -27v-54q0 -26 -25 -26h-33zM355 586q-27 0 -27 26v54q0 27 27 27h32q26 0 26 -27v-54q0 -26 -26 -26h-32zM302 69q65 0 171 12l9 -64q-66 -29 -193 -29q-128 0 -182 58.5t-54 198.5q0 142 53 199t174 57q111 0 162 -41
t52 -123q0 -140 -119 -140h-219q7 -76 39.5 -102t106.5 -26zM285 419q-72 0 -100 -30.5t-31 -116.5h195q49 0 47 65q0 45 -24.5 63.5t-86.5 18.5z" />
    <glyph glyph-name="uni0452" unicode="&#x452;" horiz-adv-x="589" 
d="M402 404q132 0 134 -134v-275q0 -60 -26.5 -112t-72.5 -85l-54 42q56 67 56 154v248q0 42 -17.5 59t-61.5 17q-64 0 -164 -59v-259h-96v482h-74v64h74v154h97v-154h180v-64h-180v-67q0 -43 -5 -85q109 74 210 74z" />
    <glyph glyph-name="uni0453" unicode="&#x453;" horiz-adv-x="467" 
d="M370 747l54 -74l-199 -117l-32 44zM185 491q181 0 261 -9l-3 -68h-217q-29 0 -42.5 -13.5t-13.5 -43.5v-357h-96v383q0 108 111 108z" />
    <glyph glyph-name="uni0454" unicode="&#x454;" horiz-adv-x="511" 
d="M462 78l9 -68q-70 -21 -174 -21q-135 0 -189 56.5t-54 195.5q0 142 54 198t189 56q104 0 169 -19l-10 -67q-65 5 -159 5q-74 1 -106 -27t-37 -102h246v-73h-247q4 -81 35 -110.5t109 -29.5q91 0 165 6z" />
    <glyph glyph-name="uni0455" unicode="&#x455;" horiz-adv-x="513" 
d="M242 501q117 -2 208 -17l-7 -70q-155 5 -186 5q-71 0 -92.5 -8.5t-21.5 -45.5q0 -17 3 -27.5t15.5 -17.5t19.5 -9.5t32 -9.5l138 -34q61 -16 87.5 -46t26.5 -91q0 -86 -47.5 -113.5t-164.5 -27.5q-102 0 -194 14l7 72q55 -5 166 -5q82 0 110.5 11.5t28.5 48.5
q0 16 -4 26.5t-17 17.5t-20.5 9.5t-32.5 8.5l-136 34q-61 16 -86 47.5t-25 91.5q0 81 43 109t149 27z" />
    <glyph glyph-name="uni0456" unicode="&#x456;" horiz-adv-x="257" 
d="M152 696q28 0 28 -28v-56q0 -29 -28 -29h-46q-29 0 -29 29v56q0 28 29 28h46zM177 488v-488h-96v488h96z" />
    <glyph glyph-name="uni0457" unicode="&#x457;" horiz-adv-x="257" 
d="M56 693q26 0 26 -27v-54q0 -26 -26 -26h-32q-26 0 -26 26v54q0 27 26 27h32zM233 693q27 0 27 -27v-54q0 -26 -27 -26h-31q-27 0 -27 26v54q0 27 27 27h31zM177 488v-488h-96v488h96z" />
    <glyph glyph-name="uni0458" unicode="&#x458;" horiz-adv-x="258" 
d="M152 696q29 0 29 -28v-56q0 -29 -29 -29h-45q-29 0 -29 29v56q0 28 29 28h45zM178 488v-493q0 -60 -26.5 -112t-72.5 -85l-53 42q55 69 55 155v493h97z" />
    <glyph glyph-name="uni0459" unicode="&#x459;" horiz-adv-x="809" 
d="M570 305q113 0 155.5 -33.5t42.5 -122.5q0 -90 -42.5 -122.5t-144.5 -32.5q-129 0 -207 6v415h-73q-28 0 -40.5 -10t-15.5 -36q-21 -196 -50 -269q-21 -55 -64 -80.5t-96 -22.5l-8 66q58 19 80 62q19 38 27.5 86.5t22.5 175.5q11 101 117 101h192v-183h104zM566 70
q60 0 82 16t22 67q0 47 -21 64.5t-79 17.5h-104v-164q29 -1 100 -1z" />
    <glyph glyph-name="uni045A" unicode="&#x45a;" horiz-adv-x="815" 
d="M576 304q114 0 156 -33t42 -122t-41.5 -122t-141.5 -33q-133 0 -211 6v234h-214v-234h-89v488h89v-184h214v184h91v-184h105zM576 70q57 0 78.5 16.5t21.5 66.5q0 46 -20.5 63.5t-79.5 17.5h-105v-163q30 -1 105 -1z" />
    <glyph glyph-name="uni045B" unicode="&#x45b;" horiz-adv-x="589" 
d="M402 404q134 0 134 -134v-270h-97v242q0 42 -17.5 59t-61.5 17q-64 0 -164 -59v-259h-96v482h-74v64h74v154h97v-154h180v-64h-180v-67q0 -43 -5 -85q109 74 210 74z" />
    <glyph glyph-name="uni045C" unicode="&#x45c;" horiz-adv-x="540" 
d="M435 673l-199 -117l-32 44l177 147zM311 253q24 -3 42.5 -9.5t33 -14t28.5 -26t23.5 -33t22.5 -46t21.5 -54.5t25.5 -70h-101q-19 50 -27.5 71.5t-22.5 53t-24 43.5t-25.5 26t-32.5 18t-40 4h-66q4 -32 4 -45v-171h-96v488h96v-141q0 -24 -5 -56h61q64 0 95 42.5
t70 154.5h100q-17 -45 -23 -61.5t-19.5 -48.5t-21.5 -43t-21.5 -30t-26.5 -26t-31 -14t-40 -10v-2z" />
    <glyph glyph-name="uni045D" unicode="&#x45d;" horiz-adv-x="588" 
d="M175 738l177 -146l-32 -45l-200 117zM511 488v-488h-87v309q0 13 1.5 36.5t1.5 31.5h-2q-10 -27 -35 -60l-235 -317h-78v488h86v-310q0 -30 -3 -66h3q19 38 34 58l236 318h78z" />
    <glyph glyph-name="uni045E" unicode="&#x45e;" horiz-adv-x="536" 
d="M265 564q-73 0 -115.5 40.5t-37.5 100.5h73q0 -88 80 -88q79 0 79 88h73q5 -60 -37 -100.5t-115 -40.5zM414 488h104l-190 -511q-36 -102 -92 -145q-67 -50 -191 -32l9 68q78 -6 117 20q38 27 67 94l7 18h-21q-26 0 -34 25l-172 463h103l121 -355q14 -37 18 -60h14l20 60
z" />
    <glyph glyph-name="uni045F" unicode="&#x45f;" horiz-adv-x="582" 
d="M409 488h97v-488h-175l-8 -165h-65l-8 165h-173v488h95l2 -410h234z" />
    <glyph glyph-name="uni0462" unicode="&#x462;" horiz-adv-x="620" 
d="M360 417q129 0 179.5 -47t50.5 -168t-48 -165.5t-167 -44.5q-161 0 -249 8h-3v543h-116v72h116v115h100v-115h236v-72h-236v-126h137zM360 79q78 0 103.5 25t25.5 100q0 74 -25.5 102t-103.5 28h-137v-254q37 -1 137 -1z" />
    <glyph glyph-name="uni0463" unicode="&#x463;" horiz-adv-x="537" 
d="M296 304q114 0 157 -33.5t43 -122.5q0 -88 -42 -121t-142 -33q-136 0 -214 6h-3v459h-90v64h90v167h94v-167h169v-64h-169v-155h107zM296 70q58 0 79.5 16.5t21.5 65.5q0 46 -21 63.5t-80 17.5h-107v-162q30 -1 107 -1z" />
    <glyph glyph-name="uni046A" unicode="&#x46a;" horiz-adv-x="862" 
d="M3 0q75 191 104 243q48 83 116 109q49 19 131 19v5l-241 262q-15 16 -7 34t30 18h586q22 0 30.5 -18t-6.5 -34l-237 -262v-5q145 0 200.5 -64t142.5 -287q3 -6 4.5 -10.5t3.5 -9.5h-105q-28 79 -45.5 124t-38.5 83.5t-35.5 55t-41.5 28t-51 13.5t-68 2q4 -36 4 -71v-235
h-96v235q0 17 4 71q-44 0 -68 -2t-51 -13.5t-41.5 -28t-35.5 -55t-38.5 -83.5t-45.5 -124h-104zM431 412l183 202h-371z" />
    <glyph glyph-name="uni046B" unicode="&#x46b;" horiz-adv-x="687" 
d="M1 0q60 147 84 183q36 55 97 70q30 7 77 9v3l-178 177q-14 14 -7 30.5t26 16.5h483q20 0 26.5 -16t-6.5 -30l-176 -178v-3q24 -1 42.5 -2.5t36.5 -8t29.5 -9t26 -16t21.5 -18.5t20 -27.5t18.5 -31.5t20 -42.5t20.5 -48t24 -58.5h-103q-22 56 -34 84.5t-27.5 57t-25 38.5
t-28 19t-35 10t-46.5 1q3 -30 3 -51v-159h-93v159q0 7 1.5 25.5t1.5 25.5q-30 0 -46.5 -1t-35 -10.5t-28 -19.5t-25.5 -38.5t-27.5 -56.5l-34.5 -84h-102zM343 288l132 132h-265z" />
    <glyph glyph-name="uni0472" unicode="&#x472;" 
d="M334 703q154 0 215 -78t61 -280t-61 -280t-215 -78q-153 0 -214 78t-61 280t61 280t214 78zM334 614q-90 0 -127.5 -49.5t-41.5 -177.5h339q-4 128 -41.5 177.5t-128.5 49.5zM334 76q92 0 129.5 51.5t41.5 183.5h-341q4 -132 41 -183.5t129 -51.5z" />
    <glyph glyph-name="uni0473" unicode="&#x473;" horiz-adv-x="573" 
d="M287 501q127 0 180 -59t53 -199t-53 -198t-180 -58q-128 0 -181 58.5t-53 197.5q0 140 53.5 199t180.5 59zM287 419q-70 0 -98.5 -30.5t-32.5 -111.5h262q-4 81 -33 111.5t-98 30.5zM287 68q71 0 100 32.5t32 119.5h-264q3 -87 31.5 -119.5t100.5 -32.5z" />
    <glyph glyph-name="uni0474" unicode="&#x474;" horiz-adv-x="649" 
d="M257 0q-29 0 -38 28l-204 662h103l156 -537q5 -19 19 -76h27q3 14 9.5 38.5t9.5 37.5l108 441q28 110 152 110q23 0 51 -5v-73q-14 2 -29 2q-34 0 -50.5 -12t-26.5 -45l-151 -543q-9 -28 -38 -28h-98z" />
    <glyph glyph-name="uni0475" unicode="&#x475;" horiz-adv-x="552" 
d="M218 0q-22 0 -33 25l-169 464h102l120 -364q8 -23 15 -54h22q1 5 16 53l83 282q26 93 124 93q29 0 53 -5v-72q-14 2 -24 2q-29 0 -44 -10t-23 -36l-114 -353q-9 -25 -35 -25h-93z" />
    <glyph glyph-name="uni048A" unicode="&#x48a;" horiz-adv-x="727" 
d="M350 743q-73 0 -115.5 40.5t-37.5 100.5h73q0 -88 80 -88q79 0 79 88h73q5 -60 -37 -100.5t-115 -40.5zM610 69l79 -10l-3 -79l-40 -111h-76l35 131h-92v487q0 50 6 82h-6q-14 -37 -36 -78l-290 -491h-103v690h96v-482q0 -42 -6 -85h5q17 41 39 78l288 489h104v-621z" />
    <glyph glyph-name="uni048B" unicode="&#x48b;" horiz-adv-x="614" 
d="M292 564q-73 0 -115.5 40.5t-37.5 100.5h73q0 -88 80 -88q79 0 79 88h73q5 -60 -37 -100.5t-115 -40.5zM511 60l67 -9l-2 -70l-41 -106h-70l35 125h-76v309q0 13 1.5 36.5t1.5 31.5h-2q-10 -27 -35 -60l-235 -317h-78v488h86v-310q0 -30 -3 -66h3q19 38 34 58l236 318h78
v-428z" />
    <glyph glyph-name="uni048C" unicode="&#x48c;" horiz-adv-x="621" 
d="M360 417q130 0 180.5 -47t50.5 -168t-48 -165.5t-167 -44.5q-161 0 -250 8h-2v510h-116v73h116v107h100v-107h236v-73h-236v-93h136zM360 79q79 0 104.5 25t25.5 100q0 74 -25.5 102t-104.5 28h-136v-254q37 -1 136 -1z" />
    <glyph glyph-name="uni048D" unicode="&#x48d;" horiz-adv-x="537" 
d="M296 304q114 0 157 -33.5t43 -122.5q0 -88 -42 -121t-142 -33q-136 0 -214 6h-3v459h-90v64h90v167h94v-167h169v-64h-169v-155h107zM296 70q58 0 79.5 16.5t21.5 65.5q0 46 -21 63.5t-80 17.5h-107v-162q30 -1 107 -1z" />
    <glyph glyph-name="uni048E" unicode="&#x48e;" horiz-adv-x="598" 
d="M588 243l-39 -39l-80 79q-46 -21 -132 -21q-75 0 -152 9v-271h-100v690q85 9 240 9q129 0 177.5 -46t48.5 -172q0 -117 -38 -163zM323 348q45 0 71 10l-77 76l38 40l81 -80q14 28 14 87q0 78 -27 105t-100 27q-100 0 -138 -1v-264h138z" />
    <glyph glyph-name="uni048F" unicode="&#x48f;" horiz-adv-x="584" 
d="M533 -69l-45 -32l-70 99q-30 -10 -73 -10q-99 0 -177 49q4 -50 3 -99v-137h-96v687h80l7 -75q38 40 94 64t109 24q166 0 166 -260q0 -161 -64 -216zM319 72q27 0 43 4l-63 90l45 32l64 -90q23 37 23 134t-22.5 136t-76.5 39q-64 0 -161 -71v-248q106 -26 148 -26z" />
    <glyph glyph-name="uni0490" unicode="&#x490;" horiz-adv-x="525" 
d="M440 842h65v-167l-4 -69h-255q-35 0 -49.5 -15t-14.5 -54v-537h-100v556q0 60 36.5 98t93.5 38q146 0 217 -7z" />
    <glyph glyph-name="uni0491" unicode="&#x491;" horiz-adv-x="469" 
d="M384 634h64v-152l-4 -68h-218q-55 0 -55 -57v-357h-96v383q0 108 111 108q127 0 188 -3z" />
    <glyph glyph-name="uni0492" unicode="&#x492;" horiz-adv-x="536" 
d="M283 606q-35 0 -49.5 -15t-14.5 -54v-173h208v-72h-208v-292h-100v292h-114v72h114v192q0 60 36.5 98t93.5 38q198 0 287 -9l-4 -77h-249z" />
    <glyph glyph-name="uni0493" unicode="&#x493;" horiz-adv-x="467" 
d="M226 414q-29 0 -42.5 -13.5t-13.5 -43.5v-104h157v-63h-157v-190h-96v190h-81v63h81v130q0 108 111 108q181 0 261 -9l-3 -68h-217z" />
    <glyph glyph-name="uni0494" unicode="&#x494;" horiz-adv-x="589" 
d="M370 444q32 0 56.5 -6t49 -24.5t40.5 -49t26 -82t10 -121.5q0 -76 -13.5 -133.5t-35 -92.5t-55 -59t-66.5 -35t-76 -18l-20 70q61 13 93.5 34.5t52.5 77.5t20 156q0 85 -13.5 129t-36 56t-65.5 12q-72 0 -155 -47v-311h-100v556q0 60 36.5 98t93.5 38q194 0 281 -9
l-4 -77h-243q-35 0 -49.5 -15t-14.5 -54v-147q89 54 188 54z" />
    <glyph glyph-name="uni0495" unicode="&#x495;" horiz-adv-x="537" 
d="M334 290q34 0 61 -8.5t52 -29.5t39 -64.5t14 -106.5q0 -77 -18.5 -131.5t-54.5 -86t-76.5 -47.5t-95.5 -24l-19 70q90 16 128.5 65t38.5 151q0 80 -23.5 105.5t-73.5 25.5q-67 0 -136 -40v-169h-96v383q0 108 111 108q161 0 233 -9l-4 -68h-188q-29 0 -42.5 -13.5
t-13.5 -43.5v-118q76 51 164 51z" />
    <glyph glyph-name="uni0496" unicode="&#x496;" horiz-adv-x="929" 
d="M849 79h75v-210h-79l-7 111h-36v20h-32q-63 177 -82 214q-40 83 -94 100q-18 5 -38 5h-65q6 -36 6 -71v-248h-95v248q0 29 7 71h-70q-48 0 -83.5 -37t-53 -77t-58.5 -154q-13 -33 -19 -51h-105q5 13 13 38q19 56 28 81.5t25 66.5t27 59.5t27.5 43.5t33 36t38.5 20.5
t48 12.5v4q-34 4 -60.5 18.5t-47 41t-36.5 59t-33 79.5t-33 93q-8 24 -12 37h102q57 -159 82 -204q48 -86 118 -86h68q-6 38 -6 78v212h95v-212q0 -47 -5 -78h62q46 0 82.5 39t54.5 80.5t55 143.5q7 18 10 27h102q-57 -167 -81 -214q-49 -94 -122 -111q-9 -2 -20 -3v-4
q80 -8 121.5 -69t92.5 -210z" />
    <glyph glyph-name="uni0497" unicode="&#x497;" horiz-adv-x="820" 
d="M735 78h74v-222h-64l-9 144h-72l-9 24q-48 123 -71 153q-31 39 -80 40h-67q5 -27 5 -46v-171h-86v171q0 19 5 46h-71q-52 -1 -78.5 -39.5t-73.5 -156.5q-5 -14 -8 -21h-98q14 42 21.5 61.5t19 50t18.5 43.5t19 32.5t22 27.5t24.5 17.5t30.5 14t36 6.5v3q-21 2 -38.5 9.5
t-30 14t-26.5 26.5l-21 30t-20.5 43.5t-18.5 48t-22 60.5h97q17 -47 27 -71.5t24.5 -53.5t27.5 -42t31.5 -22t40.5 -9h67q-5 23 -5 56v142h86v-142q0 -34 -5 -56h63q53 0 81 42t70 156h98q-17 -46 -22 -60.5t-18.5 -48t-20.5 -43.5l-21 -30t-26.5 -26.5t-30 -14t-38.5 -9.5
v-3q64 -7 96 -44t67 -131z" />
    <glyph glyph-name="uni0498" unicode="&#x498;" horiz-adv-x="551" 
d="M246 698q129 0 178.5 -37.5t49.5 -142.5q0 -75 -27.5 -113.5t-88.5 -44.5v-4q74 -7 105 -52.5t31 -131.5q0 -104 -49 -142t-169 -38q-142 0 -241 24l9 72q112 -14 215 -14q76 0 104.5 23t28.5 92q0 75 -30.5 102t-109.5 27h-118v79h118q69 0 95.5 22.5t26.5 86.5
q0 66 -28.5 88.5t-105.5 22.5q-67 0 -180 -12l-8 77q89 16 194 16zM228 -42q66 6 92.5 -7t25.5 -58q-1 -65 -50 -99.5t-123 -24.5l16 51q38 -1 62.5 17t25.5 48q1 16 -11 21.5t-48 6.5z" />
    <glyph glyph-name="uni0499" unicode="&#x499;" horiz-adv-x="501" 
d="M449 121q0 -69 -37.5 -97t-127.5 -32l-7 -157h-65l-7 156q-100 2 -167 16l7 73q98 -8 185 -8q70 0 94.5 14t24.5 55q0 42 -25.5 57t-92.5 15h-120v71h120q61 0 83 14.5t22 55.5q0 37 -26 49t-100 12q-87 0 -148 -8l-8 73q63 17 154 17q127 0 175 -26t48 -105
q0 -55 -23 -82t-79 -32v-3q64 -5 92 -35.5t28 -92.5z" />
    <glyph glyph-name="uni049A" unicode="&#x49a;" horiz-adv-x="632" 
d="M548 79h80v-210h-75l-7 111h-59v20h-16q-60 172 -79 211q-40 83 -97 101q-21 7 -46 7h-72q7 -42 7 -71v-248h-100v690h100v-212q0 -34 -7 -78h69q33 0 59.5 13.5t46 37t37 59.5t32.5 77t33 93q2 7 3 10h101q-3 -9 -9 -28q-55 -160 -86 -211q-49 -81 -128 -89v-4
q34 -3 61 -18t45.5 -33.5t38.5 -58.5t32.5 -72.5t35.5 -96.5z" />
    <glyph glyph-name="uni049B" unicode="&#x49b;" horiz-adv-x="563" 
d="M480 78h74v-222h-64l-10 144h-73q-19 50 -27.5 71.5t-22.5 53t-24 43.5t-25.5 26t-32.5 18t-40 4h-66q4 -32 4 -45v-171h-96v488h96v-141q0 -24 -5 -56h61q64 0 95 42.5t70 154.5h100q-17 -45 -23 -61.5t-19.5 -48.5t-21.5 -43t-21.5 -30t-26.5 -26t-31 -14t-40 -10v-2
q66 -7 99.5 -44t69.5 -131z" />
    <glyph glyph-name="uni049C" unicode="&#x49c;" horiz-adv-x="595" 
d="M335 358q20 -2 37 -8t30.5 -12t27.5 -21t23 -25t21.5 -34t19.5 -37.5t19.5 -47t18.5 -50.5t21 -59t23 -64h-105q-5 15 -15 43q-20 57 -29.5 83.5t-25.5 64.5t-29 56.5t-30.5 36t-38.5 25.5v-143h-63v153h-63q7 -42 7 -71v-248h-100v690h100v-212q0 -34 -7 -78h63v153h63
v-141q21 10 40 30.5t31.5 40t29.5 61.5t25 65t28 81h101q-3 -9 -9 -28q-55 -160 -86 -211q-49 -81 -128 -89v-4z" />
    <glyph glyph-name="uni049D" unicode="&#x49d;" horiz-adv-x="540" 
d="M311 253q24 -3 42.5 -9.5t33 -14t28.5 -26t23.5 -33t22.5 -46t21.5 -54.5t25.5 -70h-101q-22 60 -33 86t-27 57t-31 45t-35 21v-92h-55v99h-57q4 -32 4 -45v-171h-96v488h96v-141q0 -24 -5 -56h58v105h55v-96q36 16 58.5 57t54.5 131h100q-17 -45 -23 -61.5t-19.5 -48.5
t-21.5 -43t-21.5 -30t-26.5 -26t-31 -14t-40 -10v-2z" />
    <glyph glyph-name="uni049E" unicode="&#x49e;" horiz-adv-x="651" 
d="M391 358q20 -2 37 -8t30.5 -12t27.5 -21t23 -25t21.5 -34t19.5 -37.5t19.5 -47t18.5 -50.5t21 -59t23 -64h-105q-60 172 -79 211q-40 83 -97 101q-21 7 -46 7h-72q7 -42 7 -71v-248h-100v525h-134v72h134v93h100v-93h134v-72h-134v-47q0 -34 -7 -78h69q33 0 59.5 13.5
t46 37t37 59.5t32.5 77t33 93q2 7 3 10h101q-3 -9 -9 -28q-55 -160 -86 -211q-49 -81 -128 -89v-4z" />
    <glyph glyph-name="uni049F" unicode="&#x49f;" horiz-adv-x="541" 
d="M311 253q24 -3 42.5 -9.5t33 -14t28.5 -26t23.5 -33t22.5 -46t21.5 -54.5t25.5 -70h-101q-19 50 -27.5 71.5t-22.5 53t-24 43.5t-25.5 26t-32.5 18t-40 4h-66q4 -32 4 -45v-171h-96v541h-74v64h74v85h96v-85h177v-64h-177v-194q0 -24 -5 -56h61q64 0 95 42.5t70 154.5
h100q-17 -45 -23 -61.5t-19.5 -48.5t-21.5 -43t-21.5 -30t-26.5 -26t-31 -14t-40 -10v-2z" />
    <glyph glyph-name="uni04A0" unicode="&#x4a0;" horiz-adv-x="732" 
d="M472 358q20 -2 37 -8t30.5 -12t27.5 -21t23 -25t21.5 -34t19.5 -37.5t19.5 -47t18.5 -50.5t21 -59t23 -64h-105q-60 172 -79 211q-40 83 -97 101q-21 7 -46 7h-72q7 -42 7 -71v-248h-100v604h-185v83h185v3h100v-212q0 -34 -7 -78h69q33 0 59.5 13.5t46 37t37 59.5
t32.5 77t33 93q2 7 3 10h101q-3 -9 -9 -28q-55 -160 -86 -211q-49 -81 -128 -89v-4z" />
    <glyph glyph-name="uni04A1" unicode="&#x4a1;" horiz-adv-x="633" 
d="M404 253q27 -3 47.5 -9.5t38 -23t29.5 -31t27.5 -49t25 -60t29.5 -80.5h-102q-19 52 -27 72t-22.5 52.5t-24 43.5t-25 25.5t-33 18.5t-40.5 4h-66q4 -32 4 -45v-171h-96v412h-169v76h265v-141q0 -32 -5 -56h62q27 0 48 9t35.5 21.5t30 41.5t25 53t26.5 72h99
q-19 -51 -26.5 -71t-22.5 -53.5t-25 -46t-27 -29t-36 -23.5t-45 -10v-2z" />
    <glyph glyph-name="uni04A2" unicode="&#x4a2;" horiz-adv-x="690" 
d="M589 79h85v-210h-80l-6 111h-88v20h-12v325h-301v-325h-100v690h100v-279h301v279h101v-611z" />
    <glyph glyph-name="uni04A3" unicode="&#x4a3;" horiz-adv-x="594" 
d="M509 78h67v-222h-64l-9 144h-90v222h-241v-222h-95v488h95v-192h241v192h96v-410z" />
    <glyph glyph-name="uni04A4" unicode="&#x4a4;" horiz-adv-x="861" 
d="M595 692q171 0 247 -9l-5 -77h-208q-36 0 -50.5 -15t-14.5 -54v-537h-100v325h-280v-325h-100v690h100v-279h280v145q0 60 37 98t94 38z" />
    <glyph glyph-name="uni04A5" unicode="&#x4a5;" horiz-adv-x="763" 
d="M513 491q159 0 229 -9l-3 -68h-185q-29 0 -42.5 -13.5t-13.5 -43.5v-357h-96v222h-230v-222h-95v488h95v-192h230v87q0 108 111 108z" />
    <glyph glyph-name="uni04A6" unicode="&#x4a6;" horiz-adv-x="995" 
d="M776 444q32 0 56.5 -6t49 -24.5t40.5 -49t26 -82t10 -121.5q0 -91 -19 -154.5t-56 -98.5t-76.5 -51.5t-94.5 -24.5l-20 70q61 13 93.5 33.5t52.5 74.5t20 151q0 85 -13.5 129t-36 56t-65.5 12q-72 0 -155 -47v-311h-101v609h-303v-609h-100v690h504v-300q89 54 188 54z
" />
    <glyph glyph-name="uni04A7" unicode="&#x4a7;" horiz-adv-x="879" 
d="M675 357q75 0 124 -53t49 -178q0 -297 -246 -333l-20 69q88 17 128.5 75.5t40.5 188.5q0 83 -26.5 114.5t-82.5 31.5q-66 0 -142 -47v-225h-94v410h-235v-410h-94v488h423v-185q81 54 175 54z" />
    <glyph glyph-name="uni04A8" unicode="&#x4a8;" horiz-adv-x="852" 
d="M843 17q-58 -29 -155 -29q-78 0 -145 32q-74 -32 -164 -32q-150 0 -235 88t-85 276q0 190 65.5 271t206.5 81v-85q-91 0 -129.5 -59.5t-38.5 -216.5q0 -270 242 -270q35 0 59 5q-108 113 -108 342q0 142 50.5 211t155.5 69q206 0 206 -268q0 -237 -133 -355q21 -5 53 -5
q88 0 145 10zM461 411q0 -219 94 -296q108 78 108 304q0 97 -23.5 144t-76.5 47t-77.5 -48.5t-24.5 -150.5z" />
    <glyph glyph-name="uni04A9" unicode="&#x4a9;" horiz-adv-x="699" 
d="M702 27q-46 -36 -141 -36q-61 0 -117 29q-67 -29 -142 -29q-128 0 -189 66t-61 205q0 129 54 184t168 55v-72q-64 0 -94 -40.5t-30 -126.5q0 -106 41.5 -152.5t131.5 -46.5q27 0 55 6q-89 87 -89 227q0 205 172 205t172 -205q0 -141 -113 -231q21 -6 42 -6q82 0 127 17z
M383 295q0 -131 72 -194q87 61 87 195q0 73 -19 102t-61 29q-41 0 -60 -31t-19 -101z" />
    <glyph glyph-name="uni04AA" unicode="&#x4aa;" horiz-adv-x="572" 
d="M537 12q-77 -21 -165 -24l-4 -139h-69l-4 140q-129 9 -182.5 90t-53.5 266q0 197 61 277t212 80q108 0 191 -20l-10 -77q-80 8 -181 8q-95 0 -131.5 -58t-36.5 -210t36.5 -210t131.5 -58q127 0 195 11z" />
    <glyph glyph-name="uni04AB" unicode="&#x4ab;" horiz-adv-x="491" 
d="M455 15q-62 -23 -141 -26l-7 -154h-65l-7 155q-99 10 -141 68.5t-42 185.5q0 141 52.5 199t180.5 58q98 0 162 -25l-13 -62q-75 5 -132 5q-84 0 -116.5 -37t-32.5 -138t32.5 -138t116.5 -37q82 0 144 11z" />
    <glyph glyph-name="uni04AC" unicode="&#x4ac;" horiz-adv-x="584" 
d="M561 601h-219v-522h84v-210h-80l-6 111h-88v20h-11v601h-217v89h537v-89z" />
    <glyph glyph-name="uni04AD" unicode="&#x4ad;" horiz-adv-x="488" 
d="M468 413h-176v-335h68v-222h-64l-9 144h-92v413h-175v75h448v-75z" />
    <glyph glyph-name="uni04AE" unicode="&#x4ae;" horiz-adv-x="574" 
d="M564 690l-227 -451v-239h-100v241l-228 449h106l139 -283q8 -17 30 -80h7q21 62 30 79l139 284h104z" />
    <glyph glyph-name="uni04AF" unicode="&#x4af;" horiz-adv-x="587" 
d="M571 488l-227 -446v-241h-100v239l-228 448h106l138 -280q6 -13 30 -79h8q16 50 30 79l138 280h105z" />
    <glyph glyph-name="uni04B0" unicode="&#x4b0;" horiz-adv-x="556" 
d="M568 690l-207 -412h129v-59h-149v-219h-100v219h-147v59h128l-209 412h106l139 -283q8 -17 30 -80h7q21 62 30 79l139 284h104z" />
    <glyph glyph-name="uni04B1" unicode="&#x4b1;" horiz-adv-x="587" 
d="M571 488l-209 -410h129v-63h-147v-214h-100v214h-148v63h129l-209 410h106l138 -280q6 -13 30 -79h8q16 50 30 79l138 280h105z" />
    <glyph glyph-name="uni04B2" unicode="&#x4b2;" horiz-adv-x="666" 
d="M550 79h115v-210h-76l-7 111h-91v20h-8l-164 320h-24l-164 -320h-109l190 357l-177 333h108l151 -294h26l151 294h108l-177 -333z" />
    <glyph glyph-name="uni04B3" unicode="&#x4b3;" horiz-adv-x="537" 
d="M463 78h67v-222h-64l-10 144h-48l-132 216h-19l-132 -216h-105l160 252l-148 236h104l119 -197h22l119 197h104l-147 -236z" />
    <glyph glyph-name="uni04B4" unicode="&#x4b4;" horiz-adv-x="818" 
d="M717 81h84v-232h-68l-10 151h-511v601h-188v89h500v-89h-211v-520h303v609h101v-609z" />
    <glyph glyph-name="uni04B5" unicode="&#x4b5;" horiz-adv-x="719" 
d="M649 7h51v-152h-68l-10 145h-438v413h-165v75h421v-75h-111v-273h207v348h98v-348h15v-133z" />
    <glyph glyph-name="uni04B6" unicode="&#x4b6;" horiz-adv-x="653" 
d="M637 69v-69h-4l-6 -131l-66 -20l-3 138l49 13h-161v303q-113 -55 -227 -55q-82 0 -122 39t-40 119v284h101v-264q-2 -48 20.5 -69.5t74.5 -21.5q88 0 193 49v306h100v-621h91z" />
    <glyph glyph-name="uni04B7" unicode="&#x4b7;" horiz-adv-x="549" 
d="M459 78h70v-222h-64l-9 144h-93v199q-102 -33 -184 -33q-126 0 -126 108v214h95v-181q0 -34 14.5 -48t48.5 -14q77 0 152 31v212h98z" />
    <glyph glyph-name="uni04B8" unicode="&#x4b8;" horiz-adv-x="629" 
d="M445 690h100v-690h-100v309q-47 -26 -111 -44v-145h-64v132q-27 -4 -56 -4q-80 0 -118.5 39t-38.5 119v284h100v-264q0 -47 21.5 -68t71.5 -21h20v174h64v-165q49 10 111 39v305z" />
    <glyph glyph-name="uni04B9" unicode="&#x4b9;" horiz-adv-x="536" 
d="M363 488h97v-488h-97v199q-36 -11 -79 -21v-99h-55v90q-28 -3 -50 -3q-126 0 -126 108v214h95v-181q0 -34 14.5 -48t48.5 -14h18v134h55v-127q35 6 79 24v212z" />
    <glyph glyph-name="uni04BA" unicode="&#x4ba;" horiz-adv-x="616" 
d="M411 442q82 0 121.5 -39t39.5 -119v-284h-100v264q1 48 -21.5 69.5t-74.5 21.5q-93 0 -192 -48v-307h-100v690h100v-302q111 54 227 54z" />
    <glyph glyph-name="uni04BB" unicode="&#x4bb;" horiz-adv-x="583" 
d="M379 501q64 0 98 -34.5t34 -100.5v-366h-97v338q0 46 -13.5 63.5t-48.5 17.5q-38 0 -78.5 -17t-101.5 -55v-347h-97v700h97l1 -189q0 -59 -7 -95q116 85 213 85z" />
    <glyph glyph-name="uni04BC" unicode="&#x4bc;" horiz-adv-x="726" 
d="M484 77q86 0 167 11l8 -74q-70 -26 -195 -26q-82 0 -136 17.5t-87 58t-47.5 98.5t-16.5 145h-12q-89 0 -126.5 43t-26.5 137h80q-17 -100 72 -100h13q4 179 64.5 247.5t210.5 68.5q119 0 178 -53t59 -166q0 -97 -46 -137t-153 -40h-207q2 -76 13.5 -121.5t38 -69.5
t59.5 -31.5t90 -7.5zM446 615q-87 0 -123 -48.5t-40 -179.5h183q63 0 90.5 22.5t27.5 78.5q0 68 -33 97.5t-105 29.5z" />
    <glyph glyph-name="uni04BD" unicode="&#x4bd;" horiz-adv-x="626" 
d="M387 69q66 0 170 12l10 -64q-66 -29 -193 -29q-117 0 -171.5 48t-62.5 161q-81 4 -114.5 46t-20.5 131l71 -2q-6 -55 7.5 -75.5t55.5 -23.5q4 126 57.5 177t168.5 51q111 0 162 -41t51 -123q1 -67 -28.5 -103.5t-89.5 -36.5h-219q7 -76 39.5 -102t106.5 -26zM370 419
q-72 0 -100 -30.5t-31 -116.5h195q47 0 47 65q0 45 -24.5 63.5t-86.5 18.5z" />
    <glyph glyph-name="uni04BE" unicode="&#x4be;" horiz-adv-x="726" 
d="M651 88l8 -74q-63 -23 -174 -26l-4 -139h-68l-5 141q-126 12 -176.5 85.5t-54.5 231.5h-12q-89 0 -126.5 43t-26.5 137h80q-17 -100 72 -100h13q4 179 64.5 247.5t210.5 68.5q119 0 178 -53t59 -166q0 -97 -46 -137t-153 -40h-207q2 -76 13.5 -121.5t38 -69.5t59.5 -31.5
t90 -7.5q86 0 167 11zM446 615q-87 0 -123 -48.5t-40 -179.5h183q63 0 90.5 22.5t27.5 78.5q0 68 -33 97.5t-105 29.5z" />
    <glyph glyph-name="uni04BF" unicode="&#x4bf;" horiz-adv-x="626" 
d="M557 81l10 -64q-55 -24 -159 -28l-7 -154h-65l-7 155q-93 8 -137.5 56.5t-51.5 150.5q-81 4 -114.5 46t-20.5 131l71 -2q-6 -55 7.5 -75.5t55.5 -23.5q4 126 57.5 177t168.5 51q111 0 162 -41t51 -123q1 -67 -28.5 -103.5t-89.5 -36.5h-219q7 -76 39.5 -102t106.5 -26
q66 0 170 12zM370 419q-72 0 -100 -30.5t-31 -116.5h195q47 0 47 65q0 45 -24.5 63.5t-86.5 18.5z" />
    <glyph glyph-name="uni04C0" unicode="&#x4c0;" horiz-adv-x="273" 
d="M186 690v-690h-100v690h100z" />
    <glyph glyph-name="uni04C1" unicode="&#x4c1;" horiz-adv-x="914" 
d="M459 743q-73 0 -115.5 40.5t-37.5 100.5h73q0 -88 80 -88q79 0 79 88h73q5 -60 -37 -100.5t-115 -40.5zM644 358q30 -3 54 -12.5t45.5 -33t35 -42t32.5 -64.5t28.5 -73.5t32.5 -94.5q9 -25 13 -38h-106q-63 177 -82 214q-40 83 -94 100q-18 5 -38 5h-65q6 -36 6 -71v-248
h-95v248q0 29 7 71h-70q-48 0 -83.5 -37t-53 -77t-58.5 -154q-13 -33 -19 -51h-105q5 13 13 38q19 56 28 81.5t25 66.5t27 59.5t27.5 43.5t33 36t38.5 20.5t48 12.5v4q-34 4 -60.5 18.5t-47 41t-36.5 59t-33 79.5t-33 93q-8 24 -12 37h102q57 -159 82 -204q48 -86 118 -86
h68q-6 38 -6 78v212h95v-212q0 -47 -5 -78h62q46 0 82.5 39t54.5 80.5t55 143.5q7 18 10 27h102q-57 -167 -81 -214q-49 -94 -122 -111q-9 -2 -20 -3v-4z" />
    <glyph glyph-name="uni04C2" unicode="&#x4c2;" horiz-adv-x="795" 
d="M398 564q-73 0 -115.5 40.5t-37.5 100.5h73q0 -88 80 -88q79 0 79 88h73q5 -60 -37 -100.5t-115 -40.5zM572 253q27 -3 46.5 -9.5t37 -23.5t28.5 -31t26 -49t24 -60t29 -80h-99l-9 24q-48 123 -71 153q-31 39 -80 40h-67q5 -27 5 -46v-171h-86v171q0 19 5 46h-71
q-52 -1 -78.5 -39.5t-73.5 -156.5q-5 -14 -8 -21h-98q14 42 21.5 61.5t19 50t18.5 43.5t19 32.5t22 27.5t24.5 17.5t30.5 14t36 6.5v3q-21 2 -38.5 9.5t-30 14t-26.5 26.5l-21 30t-20.5 43.5t-18.5 48t-22 60.5h97q17 -47 27 -71.5t24.5 -53.5t27.5 -42t31.5 -22t40.5 -9h67
q-5 23 -5 56v142h86v-142q0 -34 -5 -56h63q53 0 81 42t70 156h98q-17 -46 -22 -60.5t-18.5 -48t-20.5 -43.5l-21 -30t-26.5 -26.5t-30 -14t-38.5 -9.5v-3z" />
    <glyph glyph-name="uni04C3" unicode="&#x4c3;" horiz-adv-x="598" 
d="M335 358q70 -2 120.5 -44t71.5 -98t21 -115q0 -136 -58 -204.5t-192 -65.5v74q39 1 67 12.5t43 27t23 42t10 49t2 56.5q0 114 -52 169.5t-145 55.5h-71q9 -61 9 -69v-248h-100v690h100v-212q0 -34 -7 -78h69q33 0 59.5 13.5t46 37t37 59.5t32.5 77t33 93q2 7 3 10h101
q-58 -170 -84 -220q-49 -91 -124 -106q-7 -1 -15 -2v-4z" />
    <glyph glyph-name="uni04C4" unicode="&#x4c4;" horiz-adv-x="545" 
d="M311 253q195 -21 195 -206q0 -97 -60 -154t-179 -61v71q82 6 109.5 42t27.5 102q0 80 -48 124t-121 45h-66q4 -32 4 -45v-171h-96v488h96v-141q0 -24 -5 -56h61q64 0 95 42.5t70 154.5h100q-17 -45 -23 -61.5t-19.5 -48.5t-21.5 -43t-21.5 -30t-26.5 -26t-31 -14t-40 -10
v-2z" />
    <glyph glyph-name="uni04C5" unicode="&#x4c5;" horiz-adv-x="660" 
d="M561 69l79 9l-8 -78l-44 -129h-55l36 129l-102 -20l-1 20h-6v609h-127q-65 0 -71 -68q-17 -193 -29 -269.5t-40 -138.5q-60 -138 -185 -135l-8 78q71 19 99 84q26 62 38 139t27 260q12 131 143 131h254v-621z" />
    <glyph glyph-name="uni04C6" unicode="&#x4c6;" horiz-adv-x="586" 
d="M490 66l78 9l-5 -75l-45 -123h-57l36 123l-86 -19l-1 19h-17v413h-98q-30 0 -42.5 -13t-17.5 -47q-24 -186 -45 -247q-36 -114 -161 -111l-10 74q39 9 56.5 22.5t28.5 41.5q23 61 40 237q7 60 38.5 89t94.5 29h213v-422z" />
    <glyph glyph-name="uni04C7" unicode="&#x4c7;" horiz-adv-x="672" 
d="M485 690h101v-641q0 -121 -63.5 -179t-175.5 -41v74q81 0 109.5 32.5t28.5 113.5v276h-301v-325h-100v690h100v-279h301v279z" />
    <glyph glyph-name="uni04C8" unicode="&#x4c8;" horiz-adv-x="585" 
d="M413 488h96v-447q0 -117 -59 -172.5t-163 -39.5v66q74 0 100 32.5t26 113.5v181h-241v-222h-95v488h95v-192h241v192z" />
    <glyph glyph-name="uni04C9" unicode="&#x4c9;" horiz-adv-x="687" 
d="M586 69l80 9l-8 -78l-45 -129h-54l35 129l-101 -20l-1 20h-7v325h-301v-325h-100v690h100v-279h301v279h101v-621z" />
    <glyph glyph-name="uni04CA" unicode="&#x4ca;" horiz-adv-x="604" 
d="M509 69l78 9l-6 -78l-44 -123h-57l35 123l-85 -19l-1 19h-16v222h-241v-222h-95v488h95v-192h241v192h96v-419z" />
    <glyph glyph-name="uni04CB" unicode="&#x4cb;" horiz-adv-x="617" 
d="M531 690v-690h-12l-1 -20l-118 12l-20 -123l-66 2l12 129l-12 1l3 78l114 -11v241q-112 -61 -231 -61q-80 0 -118.5 39t-38.5 119v284h100v-264q-1 -47 20.5 -68t72.5 -21q88 0 195 48v305h100z" />
    <glyph glyph-name="uni04CC" unicode="&#x4cc;" horiz-adv-x="537" 
d="M363 488h97v-488h-93l-9 -144h-64v222h69v121q-102 -33 -184 -33q-126 0 -126 108v214h95v-181q0 -34 14.5 -48t48.5 -14q77 0 152 31v212z" />
    <glyph glyph-name="uni04CD" unicode="&#x4cd;" horiz-adv-x="901" 
d="M808 69l84 -10l-3 -79l-40 -111h-75l35 131h-98l-24 607h-20l-140 -491q-9 -34 -43 -34h-87q-35 0 -44 34l-141 491h-19l-23 -607h-99l26 649q2 41 41 41h111q31 0 42 -34l117 -404q10 -36 23 -93h18q12 53 24 94l116 403q11 34 44 34h109q39 0 41 -41z" />
    <glyph glyph-name="uni04CE" unicode="&#x4ce;" horiz-adv-x="762" 
d="M684 69l75 9l-6 -78l-44 -123h-57l35 123l-77 -19v19h-13l-18 415h-16l-114 -329q-9 -31 -37 -31h-73q-27 0 -38 31l-113 329h-16l-17 -415h-89l19 452q0 36 37 36h98q28 0 37 -31l92 -269q11 -32 19 -70h15q2 8 8.5 32.5t10.5 37.5l92 269q11 31 38 31h99q36 0 36 -36z
" />
    <glyph glyph-name="uni04CF" unicode="&#x4cf;" horiz-adv-x="255" 
d="M176 690v-690h-97v690h97z" />
    <glyph glyph-name="uni04D0" unicode="&#x4d0;" horiz-adv-x="626" 
d="M317 743q-73 0 -115.5 40.5t-37.5 100.5h73q0 -88 80 -88q79 0 79 88h73q5 -60 -37 -100.5t-115 -40.5zM514 0l-64 208h-275l-64 -208h-102l216 663q8 27 37 27h102q30 0 36 -27l217 -663h-103zM202 295h221l-80 262q-3 9 -8.5 28t-8.5 28h-27l-16 -56z" />
    <glyph glyph-name="uni04D1" unicode="&#x4d1;" horiz-adv-x="555" 
d="M277 568q-73 0 -115.5 40.5t-37.5 100.5h73q0 -88 80 -88q79 0 79 88h73q5 -60 -37 -100.5t-115 -40.5zM309 501q89 0 131 -36t42 -125v-340h-77l-10 78q-85 -87 -195 -87q-68 0 -109 36.5t-41 101.5v51q0 58 36.5 90t102.5 32h196v38q-1 45 -21 62t-76 17
q-57 0 -207 -12l-9 71q130 23 237 23zM148 141q0 -36 17 -52t55 -16q88 0 165 69v87h-178q-32 -1 -45.5 -17t-13.5 -45v-26z" />
    <glyph glyph-name="uni04D2" unicode="&#x4d2;" horiz-adv-x="626" 
d="M210 765q-25 0 -25 27v54q0 27 25 27h33q26 0 26 -27v-54q0 -27 -26 -27h-33zM388 765q-26 0 -26 27v54q0 27 26 27h32q26 0 26 -27v-54q0 -27 -26 -27h-32zM514 0l-64 208h-275l-64 -208h-102l216 663q8 27 37 27h102q30 0 36 -27l217 -663h-103zM202 295h221l-80 262
q-3 9 -8.5 28t-8.5 28h-27l-16 -56z" />
    <glyph glyph-name="uni04D3" unicode="&#x4d3;" horiz-adv-x="555" 
d="M171 590q-26 0 -26 27v54q0 27 26 27h32q26 0 26 -27v-54q0 -27 -26 -27h-32zM348 590q-26 0 -26 27v54q0 27 26 27h32q27 0 27 -27v-54q0 -27 -27 -27h-32zM309 501q89 0 131 -36t42 -125v-340h-77l-10 78q-85 -87 -195 -87q-68 0 -109 36.5t-41 101.5v51q0 58 36.5 90
t102.5 32h196v38q-1 45 -21 62t-76 17q-57 0 -207 -12l-9 71q130 23 237 23zM148 141q0 -36 17 -52t55 -16q88 0 165 69v87h-178q-32 -1 -45.5 -17t-13.5 -45v-26z" />
    <glyph glyph-name="uni04D4" unicode="&#x4d4;" horiz-adv-x="915" 
d="M608 84h253l4 -78q-95 -8 -297 -8q-53 0 -85.5 35t-32.5 89v94h-228l-121 -216h-105l333 577q36 66 86 90t150 24q194 0 300 -7l-4 -79h-253q-29 0 -46.5 -18t-17.5 -49v-133l278 -1v-81l-278 -1v-174q0 -34 15 -49t49 -15zM269 299h181v253q0 20 9 40.5t21 30.5h-9
q-28 -16 -54 -61z" />
    <glyph glyph-name="uni04D5" unicode="&#x4d5;" horiz-adv-x="870" 
d="M630 69q67 0 171 12l9 -64q-65 -29 -192 -29q-85 0 -135.5 24.5t-75.5 78.5q-32 -38 -87 -69t-122 -31q-68 0 -108.5 36t-40.5 102v51q0 58 36 90t102 32h196v38q0 45 -20.5 62t-76.5 17q-55 0 -207 -12l-9 71q132 23 237 23q100 0 140 -45q52 45 162 45q111 0 162 -41
t51 -123q2 -140 -123 -140h-214q7 -76 39.5 -102t105.5 -26zM613 419q-72 0 -100 -30.5t-30 -116.5h189q53 0 53 65q0 44 -25 63t-87 19zM218 73q38 0 84.5 18.5t87.5 55.5q-6 30 -8 82h-177q-32 -1 -45 -16.5t-13 -45.5v-26q0 -36 17 -52t54 -16z" />
    <glyph glyph-name="uni04D6" unicode="&#x4d6;" horiz-adv-x="561" 
d="M305 743q-73 0 -115.5 40.5t-37.5 100.5h73q0 -88 80 -88q79 0 79 88h73q5 -60 -37 -100.5t-115 -40.5zM233 83h275l4 -77q-91 -8 -296 -8q-64 0 -101 33.5t-37 90.5v446q0 57 37 90.5t101 33.5q205 0 296 -8l-4 -78h-275q-30 0 -42.5 -14.5t-12.5 -49.5v-138h291v-81
h-291v-176q0 -35 12.5 -49.5t42.5 -14.5z" />
    <glyph glyph-name="uni04D7" unicode="&#x4d7;" horiz-adv-x="543" 
d="M281 564q-73 0 -115.5 40.5t-37.5 100.5h73q0 -88 80 -88q79 0 79 88h73q5 -60 -37 -100.5t-115 -40.5zM302 69q65 0 171 12l9 -64q-66 -29 -193 -29q-128 0 -182 58.5t-54 198.5q0 142 53 199t174 57q111 0 162 -41t52 -123q0 -140 -119 -140h-219q7 -76 39.5 -102
t106.5 -26zM285 419q-72 0 -100 -30.5t-31 -116.5h195q49 0 47 65q0 45 -24.5 63.5t-86.5 18.5z" />
    <glyph glyph-name="uni04D8" unicode="&#x4d8;" horiz-adv-x="609" 
d="M263 703q87 0 143 -19.5t88.5 -65.5t45 -110.5t12.5 -163.5q0 -204 -59 -280t-217 -76q-119 0 -178 54.5t-59 169.5q0 105 46 148t153 43h207q-3 69 -15.5 111t-39 64t-59.5 29t-88 7q-87 0 -166 -12l-8 75q70 26 194 26zM282 75q90 0 126 52t38 196h-184
q-64 0 -91 -25.5t-27 -90.5q0 -70 33 -101t105 -31z" />
    <glyph glyph-name="uni04D9" unicode="&#x4d9;" horiz-adv-x="541" 
d="M253 501q128 0 182 -58.5t54 -199.5t-53 -198t-174 -57q-111 0 -162 41t-51 124q-1 71 31 109.5t97 38.5h208q-8 70 -40.5 94t-103.5 24q-82 0 -171 -12l-10 64q65 30 193 30zM257 69q74 0 102 33t29 125h-185q-57 0 -57 -75q0 -45 25 -64t86 -19z" />
    <glyph glyph-name="uni04DA" unicode="&#x4da;" horiz-adv-x="609" 
d="M186 768q-25 0 -25 27v54q0 27 25 27h33q26 0 26 -27v-54q0 -27 -26 -27h-33zM364 768q-26 0 -26 27v54q0 27 26 27h32q26 0 26 -27v-54q0 -27 -26 -27h-32zM263 703q87 0 143 -19.5t88.5 -65.5t45 -110.5t12.5 -163.5q0 -204 -59 -280t-217 -76q-119 0 -178 54.5
t-59 169.5q0 105 46 148t153 43h207q-3 69 -15.5 111t-39 64t-59.5 29t-88 7q-87 0 -166 -12l-8 75q70 26 194 26zM282 75q90 0 126 52t38 196h-184q-64 0 -91 -25.5t-27 -90.5q0 -70 33 -101t105 -31z" />
    <glyph glyph-name="uni04DB" unicode="&#x4db;" horiz-adv-x="541" 
d="M163 586q-25 0 -25 27v54q0 27 25 27h33q26 0 26 -27v-54q0 -27 -26 -27h-33zM341 586q-26 0 -26 27v54q0 27 26 27h32q26 0 26 -27v-54q0 -27 -26 -27h-32zM253 501q128 0 182 -58.5t54 -199.5t-53 -198t-174 -57q-111 0 -162 41t-51 124q-1 71 31 109.5t97 38.5h208
q-8 70 -40.5 94t-103.5 24q-82 0 -171 -12l-10 64q65 30 193 30zM257 69q74 0 102 33t29 125h-185q-57 0 -57 -75q0 -45 25 -64t86 -19z" />
    <glyph glyph-name="uni04DC" unicode="&#x4dc;" horiz-adv-x="914" 
d="M353 765q-26 0 -26 27v54q0 27 26 27h32q26 0 26 -27v-54q0 -27 -26 -27h-32zM530 765q-26 0 -26 27v54q0 27 26 27h32q27 0 27 -27v-54q0 -27 -27 -27h-32zM644 358q30 -3 54 -12.5t45.5 -33t35 -42t32.5 -64.5t28.5 -73.5t32.5 -94.5q9 -25 13 -38h-106
q-63 177 -82 214q-40 83 -94 100q-18 5 -38 5h-65q6 -36 6 -71v-248h-95v248q0 29 7 71h-70q-48 0 -83.5 -37t-53 -77t-58.5 -154q-13 -33 -19 -51h-105q5 13 13 38q19 56 28 81.5t25 66.5t27 59.5t27.5 43.5t33 36t38.5 20.5t48 12.5v4q-34 4 -60.5 18.5t-47 41t-36.5 59
t-33 79.5t-33 93q-8 24 -12 37h102q57 -159 82 -204q48 -86 118 -86h68q-6 38 -6 78v212h95v-212q0 -47 -5 -78h62q46 0 82.5 39t54.5 80.5t55 143.5q7 18 10 27h102q-57 -167 -81 -214q-49 -94 -122 -111q-9 -2 -20 -3v-4z" />
    <glyph glyph-name="uni04DD" unicode="&#x4dd;" horiz-adv-x="795" 
d="M292 586q-26 0 -26 27v54q0 27 26 27h32q26 0 26 -27v-54q0 -27 -26 -27h-32zM469 586q-26 0 -26 27v54q0 27 26 27h32q27 0 27 -27v-54q0 -27 -27 -27h-32zM572 253q27 -3 46.5 -9.5t37 -23.5t28.5 -31t26 -49t24 -60t29 -80h-99l-9 24q-48 123 -71 153q-31 39 -80 40
h-67q5 -27 5 -46v-171h-86v171q0 19 5 46h-71q-52 -1 -78.5 -39.5t-73.5 -156.5q-5 -14 -8 -21h-98q14 42 21.5 61.5t19 50t18.5 43.5t19 32.5t22 27.5t24.5 17.5t30.5 14t36 6.5v3q-21 2 -38.5 9.5t-30 14t-26.5 26.5l-21 30t-20.5 43.5t-18.5 48t-22 60.5h97
q17 -47 27 -71.5t24.5 -53.5t27.5 -42t31.5 -22t40.5 -9h67q-5 23 -5 56v142h86v-142q0 -34 -5 -56h63q53 0 81 42t70 156h98q-17 -46 -22 -60.5t-18.5 -48t-20.5 -43.5l-21 -30t-26.5 -26.5t-30 -14t-38.5 -9.5v-3z" />
    <glyph glyph-name="uni04DE" unicode="&#x4de;" horiz-adv-x="551" 
d="M186 873q26 0 26 -27v-54q0 -27 -26 -27h-32q-26 0 -26 27v54q0 27 26 27h32zM363 873q27 0 27 -27v-54q0 -27 -27 -27h-32q-26 0 -26 27v54q0 27 26 27h32zM246 698q129 0 178.5 -37.5t49.5 -142.5q0 -75 -27.5 -113.5t-88.5 -44.5v-4q74 -7 105 -52.5t31 -131.5
q0 -104 -49 -142t-169 -38q-142 0 -241 24l9 72q112 -14 215 -14q76 0 104.5 23t28.5 92q0 75 -30.5 102t-109.5 27h-118v79h118q69 0 95.5 22.5t26.5 86.5q0 66 -28.5 88.5t-105.5 22.5q-67 0 -180 -12l-8 77q89 16 194 16z" />
    <glyph glyph-name="uni04DF" unicode="&#x4df;" horiz-adv-x="501" 
d="M170 694q26 0 26 -27v-54q0 -27 -26 -27h-32q-26 0 -26 27v54q0 27 26 27h32zM347 694q27 0 27 -27v-54q0 -27 -27 -27h-32q-26 0 -26 27v54q0 27 26 27h32zM208 497q127 0 175 -26t48 -105q0 -55 -23 -82t-79 -32v-3q64 -5 92 -35.5t28 -92.5q0 -77 -47 -103.5
t-165 -26.5q-121 0 -199 16l7 73q98 -8 185 -8q70 0 94.5 14t24.5 55q0 42 -25.5 57t-92.5 15h-120v71h120q61 0 83 14.5t22 55.5q0 37 -26 49t-100 12q-87 0 -148 -8l-8 73q63 17 154 17z" />
    <glyph glyph-name="uni04E0" unicode="&#x4e0;" horiz-adv-x="518" 
d="M239 397q125 0 183 -43t58 -154t-53.5 -159.5t-193.5 -48.5q-124 0 -212 24l8 72q102 -14 203 -14q79 0 112 31t33 92q0 74 -29.5 102.5t-108.5 28.5h-137v64l234 219h-304v79h411q10 0 10 -10v-57l-243 -226h29z" />
    <glyph glyph-name="uni04E1" unicode="&#x4e1;" horiz-adv-x="498" 
d="M238 195q115 0 168 -43t53 -155q0 -109 -50.5 -158t-178.5 -49q-116 0 -200 23l8 73q100 -14 187 -14q72 0 102 31t30 92q0 74 -26.5 102.5t-97.5 28.5h-128v64l214 218h-278v80h383q9 0 9 -10v-57l-224 -226h29z" />
    <glyph glyph-name="uni04E2" unicode="&#x4e2;" horiz-adv-x="694" 
d="M491 853v-71h-282v71h282zM610 690v-690h-97v487q0 50 6 82h-6q-14 -37 -36 -78l-290 -491h-103v690h96v-482q0 -42 -6 -85h5q17 41 39 78l288 489h104z" />
    <glyph glyph-name="uni04E3" unicode="&#x4e3;" horiz-adv-x="588" 
d="M432 674v-71h-282v71h282zM511 488v-488h-87v309q0 13 1.5 36.5t1.5 31.5h-2q-10 -27 -35 -60l-235 -317h-78v488h86v-310q0 -30 -3 -66h3q19 38 34 58l236 318h78z" />
    <glyph glyph-name="uni04E4" unicode="&#x4e4;" horiz-adv-x="694" 
d="M277 873q26 0 26 -27v-54q0 -27 -26 -27h-32q-26 0 -26 27v54q0 27 26 27h32zM454 873q27 0 27 -27v-54q0 -27 -27 -27h-32q-26 0 -26 27v54q0 27 26 27h32zM610 690v-690h-97v487q0 50 6 82h-6q-14 -37 -36 -78l-290 -491h-103v690h96v-482q0 -42 -6 -85h5q17 41 39 78
l288 489h104z" />
    <glyph glyph-name="uni04E5" unicode="&#x4e5;" horiz-adv-x="588" 
d="M218 694q26 0 26 -27v-54q0 -27 -26 -27h-32q-26 0 -26 27v54q0 27 26 27h32zM395 694q27 0 27 -27v-54q0 -27 -27 -27h-32q-26 0 -26 27v54q0 27 26 27h32zM511 488v-488h-87v309q0 13 1.5 36.5t1.5 31.5h-2q-10 -27 -35 -60l-235 -317h-78v488h86v-310q0 -30 -3 -66h3
q19 38 34 58l236 318h78z" />
    <glyph glyph-name="uni04E6" unicode="&#x4e6;" 
d="M261 873q26 0 26 -27v-54q0 -27 -26 -27h-33q-25 0 -25 27v54q0 27 25 27h33zM438 873q26 0 26 -27v-54q0 -27 -26 -27h-32q-26 0 -26 27v54q0 27 26 27h32zM334 703q154 0 215 -78t61 -280t-61 -280t-215 -78q-153 0 -214 78t-61 280t61 280t214 78zM334 614
q-97 0 -133.5 -58t-36.5 -211t36.5 -211t133.5 -58t134 58t37 211t-37 211t-134 58z" />
    <glyph glyph-name="uni04E7" unicode="&#x4e7;" horiz-adv-x="573" 
d="M211 694q26 0 26 -27v-54q0 -27 -26 -27h-32q-26 0 -26 27v54q0 27 26 27h32zM388 694q27 0 27 -27v-54q0 -27 -27 -27h-32q-26 0 -26 27v54q0 27 26 27h32zM287 501q127 0 180 -59t53 -199t-53 -198t-180 -58q-128 0 -181 58.5t-53 197.5q0 140 53.5 199t180.5 59z
M287 419q-76 0 -104 -37t-28 -139q0 -101 28 -138t104 -37q75 0 103.5 37t28.5 138q0 102 -28 139t-104 37z" />
    <glyph glyph-name="uni04E8" unicode="&#x4e8;" horiz-adv-x="662" 
d="M327 703q154 0 215 -78t61 -280t-61 -280t-215 -78q-153 0 -214 78t-61 280t61 280t214 78zM327 614q-92 0 -129.5 -52.5t-40.5 -186.5h341q-3 134 -40.5 186.5t-130.5 52.5zM327 76q91 0 128.5 50.5t41.5 179.5h-339q4 -129 41.5 -179.5t127.5 -50.5z" />
    <glyph glyph-name="uni04E9" unicode="&#x4e9;" horiz-adv-x="570" 
d="M285 501q127 0 180 -59t53 -199t-53 -198t-180 -58t-180 58t-53 198t53 199t180 59zM285 419q-69 0 -98 -29t-33 -107h262q-4 78 -33 107t-98 29zM285 68q72 0 100.5 33t31.5 120h-264q3 -87 31.5 -120t100.5 -33z" />
    <glyph glyph-name="uni04EA" unicode="&#x4ea;" horiz-adv-x="662" 
d="M221 765q-25 0 -25 27v54q0 27 25 27h33q26 0 26 -27v-54q0 -27 -26 -27h-33zM399 765q-26 0 -26 27v54q0 27 26 27h32q26 0 26 -27v-54q0 -27 -26 -27h-32zM327 703q154 0 215 -78t61 -280t-61 -280t-215 -78q-153 0 -214 78t-61 280t61 280t214 78zM327 614
q-92 0 -129.5 -52.5t-40.5 -186.5h341q-3 134 -40.5 186.5t-130.5 52.5zM327 76q91 0 128.5 50.5t41.5 179.5h-339q4 -129 41.5 -179.5t127.5 -50.5z" />
    <glyph glyph-name="uni04EB" unicode="&#x4eb;" horiz-adv-x="570" 
d="M176 586q-25 0 -25 27v54q0 27 25 27h33q26 0 26 -27v-54q0 -27 -26 -27h-33zM354 586q-26 0 -26 27v54q0 27 26 27h32q26 0 26 -27v-54q0 -27 -26 -27h-32zM285 501q127 0 180 -59t53 -199t-53 -198t-180 -58t-180 58t-53 198t53 199t180 59zM285 419q-69 0 -98 -29
t-33 -107h262q-4 78 -33 107t-98 29zM285 68q72 0 100.5 33t31.5 120h-264q3 -87 31.5 -120t100.5 -33z" />
    <glyph glyph-name="uni04EC" unicode="&#x4ec;" horiz-adv-x="578" 
d="M138 765q-25 0 -25 27v54q0 27 25 27h33q26 0 26 -27v-54q0 -27 -26 -27h-33zM316 765q-26 0 -26 27v54q0 27 26 27h32q26 0 26 -27v-54q0 -27 -26 -27h-32zM239 702q155 0 217.5 -80t62.5 -277t-62.5 -277t-217.5 -80q-119 0 -199 24l10 76q70 -10 190 -10q97 0 136 54
t40 194h-292v78l291 1q-6 115 -45.5 161t-129.5 46q-103 0 -184 -8l-10 78q83 20 193 20z" />
    <glyph glyph-name="uni04ED" unicode="&#x4ed;" horiz-adv-x="511" 
d="M145 586q-26 0 -26 27v54q0 27 26 27h32q26 0 26 -27v-54q0 -27 -26 -27h-32zM322 586q-26 0 -26 27v54q0 27 26 27h32q27 0 27 -27v-54q0 -27 -27 -27h-32zM214 495q135 0 189 -56t54 -198q0 -139 -54 -195.5t-189 -56.5q-104 0 -174 21l9 68q74 -6 165 -6
q78 0 109 29.5t35 110.5h-246v73h245q-5 74 -37 102t-106 27q-94 0 -159 -5l-10 67q65 19 169 19z" />
    <glyph glyph-name="uni04EE" unicode="&#x4ee;" horiz-adv-x="567" 
d="M425 853v-71h-282v71h282zM456 690h102l-183 -519q-31 -84 -66 -128.5t-94 -49.5q-62 -5 -130 15l11 73q32 -2 50 -2.5t36 -0.5t28 5l19 9.5t16 17.5t13 25t15 36l11 29h-36q-30 0 -46.5 11.5t-26.5 38.5l-156 440h102l134 -391q7 -15 21 -15h38z" />
    <glyph glyph-name="uni04EF" unicode="&#x4ef;" horiz-adv-x="536" 
d="M405 674v-71h-282v71h282zM414 488h104l-190 -511q-36 -102 -92 -145q-67 -50 -191 -32l9 68q78 -6 117 20q38 27 67 94l7 18h-21q-26 0 -34 25l-172 463h103l121 -355q14 -37 18 -60h14l20 60z" />
    <glyph glyph-name="uni04F0" unicode="&#x4f0;" horiz-adv-x="567" 
d="M178 765q-25 0 -25 27v54q0 27 25 27h33q26 0 26 -27v-54q0 -27 -26 -27h-33zM356 765q-26 0 -26 27v54q0 27 26 27h32q26 0 26 -27v-54q0 -27 -26 -27h-32zM456 690h102l-183 -519q-31 -84 -66 -128.5t-94 -49.5q-62 -5 -130 15l11 73q32 -2 50 -2.5t36 -0.5t28 5
l19 9.5t16 17.5t13 25t15 36l11 29h-36q-30 0 -46.5 11.5t-26.5 38.5l-156 440h102l134 -391q7 -15 21 -15h38z" />
    <glyph glyph-name="uni04F1" unicode="&#x4f1;" horiz-adv-x="536" 
d="M159 586q-26 0 -26 27v54q0 27 26 27h32q26 0 26 -27v-54q0 -27 -26 -27h-32zM336 586q-26 0 -26 27v54q0 27 26 27h32q27 0 27 -27v-54q0 -27 -27 -27h-32zM414 488h104l-190 -511q-36 -102 -92 -145q-67 -50 -191 -32l9 68q78 -6 117 20q38 27 67 94l7 18h-21
q-26 0 -34 25l-172 463h103l121 -355q14 -37 18 -60h14l20 60z" />
    <glyph glyph-name="uni04F2" unicode="&#x4f2;" horiz-adv-x="567" 
d="M317 889l-138 -160l-42 31l110 177zM348 729l-42 31l110 177l69 -48zM456 690h102l-183 -519q-31 -84 -66 -128.5t-94 -49.5q-62 -5 -130 15l11 73q32 -2 50 -2.5t36 -0.5t28 5l19 9.5t16 17.5t13 25t15 36l11 29h-36q-30 0 -46.5 11.5t-26.5 38.5l-156 440h102l134 -391
q7 -15 21 -15h38z" />
    <glyph glyph-name="uni04F3" unicode="&#x4f3;" horiz-adv-x="536" 
d="M297 710l-138 -160l-42 31l110 177zM328 550l-42 31l110 177l69 -48zM414 488h104l-190 -511q-36 -102 -92 -145q-67 -50 -191 -32l9 68q78 -6 117 20q38 27 67 94l7 18h-21q-26 0 -34 25l-172 463h103l121 -355q14 -37 18 -60h14l20 60z" />
    <glyph glyph-name="uni04F4" unicode="&#x4f4;" horiz-adv-x="629" 
d="M206 765q-25 0 -25 27v54q0 27 25 27h33q26 0 26 -27v-54q0 -27 -26 -27h-33zM384 765q-26 0 -26 27v54q0 27 26 27h32q26 0 26 -27v-54q0 -27 -26 -27h-32zM446 690h100v-690h-100v309q-112 -61 -231 -61q-80 0 -118.5 39t-38.5 119v284h100v-264q-1 -47 20.5 -68
t72.5 -21q88 0 195 48v305z" />
    <glyph glyph-name="uni04F5" unicode="&#x4f5;" horiz-adv-x="537" 
d="M158 586q-26 0 -26 27v54q0 27 26 27h32q26 0 26 -27v-54q0 -27 -26 -27h-32zM335 586q-26 0 -26 27v54q0 27 26 27h32q27 0 27 -27v-54q0 -27 -27 -27h-32zM363 488h97v-488h-97v199q-102 -33 -184 -33q-126 0 -126 108v214h95v-181q0 -34 14.5 -48t48.5 -14
q77 0 152 31v212z" />
    <glyph glyph-name="uni04F6" unicode="&#x4f6;" horiz-adv-x="500" 
d="M246 606q-35 0 -49.5 -15t-14.5 -54v-458h84v-210h-79l-7 111h-87v20h-11v556q0 60 36.5 98t93.5 38q198 0 287 -9l-4 -77h-249z" />
    <glyph glyph-name="uni04F7" unicode="&#x4f7;" horiz-adv-x="467" 
d="M226 414q-29 0 -42.5 -13.5t-13.5 -43.5v-279h68v-222h-64l-10 144h-90v383q0 108 111 108q181 0 261 -9l-3 -68h-217z" />
    <glyph glyph-name="uni04F8" unicode="&#x4f8;" horiz-adv-x="853" 
d="M320 765q-25 0 -25 27v54q0 27 25 27h33q26 0 26 -27v-54q0 -27 -26 -27h-33zM530 873q26 0 26 -27v-54q0 -27 -26 -27h-32q-26 0 -26 27v54q0 27 26 27h32zM320 417q130 0 180.5 -47t50.5 -168t-48 -165.5t-167 -44.5q-161 0 -250 8h-2v690h100v-273h136zM670 690h100
v-690h-100v690zM320 79q79 0 104.5 25t25.5 100q0 74 -25.5 102t-104.5 28h-136v-254q37 -1 136 -1z" />
    <glyph glyph-name="uni04F9" unicode="&#x4f9;" horiz-adv-x="731" 
d="M260 586q-26 0 -26 27v54q0 27 26 27h32q26 0 26 -27v-54q0 -27 -26 -27h-32zM469 694q27 0 27 -27v-54q0 -27 -27 -27h-32q-26 0 -26 27v54q0 27 26 27h32zM277 304q113 0 155 -33.5t42 -122.5q0 -88 -41 -121t-140 -33q-136 0 -214 6h-2v488h93v-184h107zM557 488h97
v-488h-97v488zM277 70q57 0 78 16.5t21 65.5q0 46 -20.5 63.5t-78.5 17.5h-107v-162q30 -1 107 -1z" />
    <glyph glyph-name="uni04FA" unicode="&#x4fa;" horiz-adv-x="536" 
d="M283 606q-35 0 -49.5 -15t-14.5 -54v-173h208v-72h-208v-207h77v-91q0 -73 -46.5 -114t-136.5 -41v77q101 0 101 74v10h-96v85h1v207h-114v72h114v192q0 60 36.5 98t93.5 38q198 0 287 -9l-4 -77h-249z" />
    <glyph glyph-name="uni04FB" unicode="&#x4fb;" horiz-adv-x="467" 
d="M226 414q-29 0 -42.5 -13.5t-13.5 -43.5v-104h157v-63h-157v-123h70v-73q0 -73 -44 -114t-129 -41v68q91 0 91 83v10h-84v190h-81v63h81v130q0 108 111 108q181 0 261 -9l-3 -68h-217z" />
    <glyph glyph-name="uni04FC" unicode="&#x4fc;" horiz-adv-x="600" 
d="M579 690l-172 -327q14 -22 49.5 -76.5t49 -77.5t34 -62t28 -68t7.5 -58q0 -26 -6 -51t-23 -51.5t-43.5 -46t-72.5 -32t-105 -12.5v74q147 4 147 123q0 52 -38 122t-108 173h-31l-164 -320h-109l190 357l-177 333h108l151 -294h26l151 294h108z" />
    <glyph glyph-name="uni04FD" unicode="&#x4fd;" horiz-adv-x="494" 
d="M487 488l-144 -232q13 -19 44 -61.5t41.5 -59t27 -45t22 -49.5t5.5 -42q0 -180 -211 -171v59q67 1 93.5 30t26.5 84q0 27 -19.5 67t-39.5 69t-63 87h-24l-134 -224h-96l157 252l-146 236h95l123 -206h22l124 206h96z" />
    <glyph glyph-name="uni04FE" unicode="&#x4fe;" horiz-adv-x="598" 
d="M475 0l-164 319h-24l-164 -319h-109l170 319h-105v73h106l-158 298h108l151 -294h26l151 294h108l-158 -298h105v-73h-104l170 -319h-109z" />
    <glyph glyph-name="uni04FF" unicode="&#x4ff;" horiz-adv-x="536" 
d="M409 0l-132 216h-18l-132 -216h-105l139 221h-99v64h98l-126 203h104l119 -197h22l119 197h104l-126 -203h99v-64h-100l139 -221h-105z" />
    <glyph glyph-name="uni0510" unicode="&#x510;" horiz-adv-x="551" 
d="M305 698q105 0 194 -16l-8 -77q-113 12 -180 12q-77 0 -105.5 -22.5t-28.5 -88.5q0 -64 26.5 -86.5t95.5 -22.5h118v-79h-118q-79 0 -109.5 -27t-30.5 -102q0 -69 28.5 -92t104.5 -23q103 0 215 14l9 -72q-99 -24 -241 -24q-120 0 -169 38t-49 142q0 86 31 131.5
t105 52.5v4q-61 6 -88.5 44.5t-27.5 113.5q0 105 49.5 142.5t178.5 37.5z" />
    <glyph glyph-name="uni0511" unicode="&#x511;" horiz-adv-x="501" 
d="M293 497q91 0 154 -17l-8 -73q-61 8 -148 8q-74 0 -100 -12t-26 -49q0 -41 22 -55.5t83 -14.5h120v-71h-120q-67 0 -92.5 -15t-25.5 -57q0 -41 24.5 -55t94.5 -14q87 0 185 8l7 -73q-78 -16 -199 -16q-118 0 -165 26.5t-47 103.5q0 62 28 92.5t92 35.5v3q-56 5 -79 32
t-23 82q0 79 48 105t175 26z" />
    <glyph glyph-name="uni0512" unicode="&#x512;" horiz-adv-x="646" 
d="M560 690v-641q0 -121 -63.5 -179t-175.5 -41v74q81 0 110 32.5t29 113.5v560h-127q-65 0 -71 -68q-17 -189 -29 -267t-40 -141q-62 -138 -185 -135l-9 78q72 19 99 84q26 61 38 137t28 262q11 131 143 131h253z" />
    <glyph glyph-name="uni0513" unicode="&#x513;" horiz-adv-x="573" 
d="M490 488v-447q0 -117 -59 -172.5t-163 -39.5v66q74 0 100 32.5t26 113.5v372h-99q-30 0 -42.5 -13t-17.5 -47q-24 -186 -45 -247q-36 -114 -161 -111l-10 74q39 9 56.5 22.5t28.5 41.5q23 61 40 237q7 60 38.5 89t94.5 29h213z" />
    <glyph glyph-name="uni051A" unicode="&#x51a;" horiz-adv-x="671" 
d="M335 703q154 0 215 -78t61 -280t-61 -280t-215 -78q-153 0 -214.5 78t-61.5 280t61.5 280t214.5 78zM335 614q-97 0 -133.5 -58t-36.5 -211t36.5 -211t133.5 -58t134 58t37 211t-37 211t-134 58zM293 -41q119 -46 273 -68l-32 -100q-128 27 -268 107z" />
    <glyph glyph-name="uni051B" unicode="&#x51b;" horiz-adv-x="572" 
d="M275 501q128 0 224 -36v-664h-96l-1 160q0 59 8 102q-91 -76 -190 -76q-85 0 -126.5 61.5t-41.5 194.5q0 131 49 194.5t174 63.5zM152 236q0 -88 21 -126t80 -38q38 0 70 14.5t80 46.5v271q-67 17 -129 15q-69 -2 -95.5 -39.5t-26.5 -143.5z" />
    <glyph glyph-name="uni051C" unicode="&#x51c;" horiz-adv-x="951" 
d="M921 690l-132 -661q-9 -29 -39 -29h-111q-32 0 -39 30l-100 507q-10 52 -14 78h-21q-2 -9 -4.5 -25t-5 -29t-5.5 -24l-99 -507q-2 -13 -13.5 -21.5t-25.5 -8.5h-112q-31 0 -38 29l-132 661h106l99 -526q3 -17 12 -88h23q5 43 15 88l99 493q7 33 38 33h107q14 0 24.5 -9.5
t13.5 -23.5l98 -494q8 -40 15 -87h23q2 14 6 43t7 43l99 528h106z" />
    <glyph glyph-name="uni051D" unicode="&#x51d;" horiz-adv-x="826" 
d="M803 488l-137 -461q-8 -27 -37 -27h-87q-30 0 -37 31l-71 321q-2 9 -4.5 24.5t-5 28.5t-5.5 25h-12q-2 -13 -8 -39t-8 -39l-70 -321q-7 -31 -38 -31h-86q-30 0 -36 27l-138 461h100l94 -352q12 -50 15 -75h13q12 50 17 75l72 322q7 30 36 30h87q29 0 36 -31l71 -321
q2 -10 17 -75h13q7 45 15 75l94 352h100z" />
    <glyph glyph-name="uni0524" unicode="&#x524;" horiz-adv-x="688" 
d="M587 79h85v-210h-80l-7 111h-87v20h-11v609h-303v-609h-100v690h503v-611z" />
    <glyph glyph-name="uni0525" unicode="&#x525;" horiz-adv-x="586" 
d="M500 78h68v-222h-64l-10 144h-88v410h-235v-410h-94v488h423v-410z" />
    <glyph glyph-name="uni0526" unicode="&#x526;" horiz-adv-x="664" 
d="M572 79h84v-210h-78l-7 111h-89v20h-10v264q1 48 -21.5 69.5t-74.5 21.5q-93 0 -192 -48v-307h-100v690h100v-302q111 54 227 54q82 0 121.5 -39t39.5 -119v-205z" />
    <glyph glyph-name="uni0527" unicode="&#x527;" horiz-adv-x="599" 
d="M511 78h70v-222h-64l-10 144h-93v338q0 46 -13.5 63.5t-48.5 17.5q-38 0 -78.5 -17t-101.5 -55v-347h-97v700h97l1 -189q0 -59 -7 -95q116 85 213 85q64 0 98 -34.5t34 -100.5v-288z" />
    <glyph glyph-name="uni0528" unicode="&#x528;" horiz-adv-x="749" 
d="M564 690h101v-690h-101v325h-302v-300q0 -78 -35 -119t-101 -41q-56 0 -98 14l11 72h49q74 0 74 70v669h100v-279h302v279z" />
    <glyph glyph-name="uni0529" unicode="&#x529;" horiz-adv-x="600" 
d="M413 488h96v-488h-96v222h-241v-181q0 -117 -59 -172.5t-163 -39.5v66q74 0 100.5 32.5t26.5 113.5v447h95v-192h241v192z" />
    <glyph glyph-name="uni052E" unicode="&#x52e;" horiz-adv-x="686" 
d="M571 79h84v-210h-80l-6 111h-80v20h-19v609h-127q-65 0 -71 -68q-17 -193 -29 -269.5t-40 -138.5q-60 -138 -185 -135l-8 78q70 19 99 84q26 62 38 139t27 260q12 131 143 131h254v-611z" />
    <glyph glyph-name="uni052F" unicode="&#x52f;" horiz-adv-x="567" 
d="M490 77h82v-221h-64l-10 144h-105v413h-98q-30 0 -42.5 -13t-17.5 -47q-24 -186 -45 -247q-36 -114 -161 -111l-10 74q39 9 56.5 22.5t28.5 41.5q23 61 40 237q7 60 38.5 89t94.5 29h213v-411z" />
    <glyph glyph-name="uni1E08" unicode="&#x1e08;" horiz-adv-x="572" 
d="M428 917l54 -74l-199 -117l-32 45zM332 702q108 0 191 -20l-10 -77q-80 8 -181 8q-95 0 -131.5 -58t-36.5 -210t36.5 -210t131.5 -58q127 0 195 11l10 -76q-83 -24 -205 -24q-151 0 -212 80t-61 277t61 277t212 80zM278 -54q65 6 92 -7t26 -58q-2 -65 -51 -99.5
t-122 -24.5l15 51q38 -1 62.5 17t26.5 48q1 16 -11 21.5t-48 6.5z" />
    <glyph glyph-name="uni1E09" unicode="&#x1e09;" horiz-adv-x="491" 
d="M375 738l54 -74l-199 -117l-32 45zM285 501q98 0 162 -25l-13 -62q-75 5 -132 5q-84 0 -116.5 -37t-32.5 -138t32.5 -138t116.5 -37q82 0 144 11l9 -65q-74 -27 -170 -27q-128 0 -180.5 57.5t-52.5 198.5t52.5 199t180.5 58zM231 -54q65 6 92 -7t26 -58q-2 -65 -51 -99.5
t-122 -24.5l15 51q38 -1 62.5 17t26.5 48q1 16 -11 21.5t-48 6.5z" />
    <glyph glyph-name="uni1E0C" unicode="&#x1e0c;" horiz-adv-x="665" 
d="M333 699q152 0 212.5 -77t60.5 -277t-60.5 -277t-212.5 -77q-118 0 -249 9v690q131 9 249 9zM333 78q94 0 130.5 58t36.5 209t-36.5 209t-130.5 58q-61 0 -149 -2v-530q86 -2 149 -2zM340 -61q29 0 29 -29v-56q0 -28 -29 -28h-31q-28 0 -28 28v56q0 29 28 29h31z" />
    <glyph glyph-name="uni1E0D" unicode="&#x1e0d;" horiz-adv-x="575" 
d="M403 700h97v-700h-76l-8 67q-92 -79 -192 -79q-90 0 -130.5 64.5t-40.5 193.5q0 140 45 197.5t141 57.5q92 0 168 -44q-4 43 -4 96v147zM153 247q0 -101 23.5 -138t80.5 -37q37 0 65.5 13t80.5 48v260q-91 24 -140 24q-62 0 -86 -34.5t-24 -135.5zM312 -61q29 0 29 -29
v-56q0 -28 -29 -28h-31q-28 0 -28 28v56q0 29 28 29h31z" />
    <glyph glyph-name="uni1E0E" unicode="&#x1e0e;" horiz-adv-x="665" 
d="M333 699q152 0 212.5 -77t60.5 -277t-60.5 -277t-212.5 -77q-118 0 -249 9v690q131 9 249 9zM333 78q94 0 130.5 58t36.5 209t-36.5 209t-130.5 58q-61 0 -149 -2v-530q86 -2 149 -2zM182 -159v71h283v-71h-283z" />
    <glyph glyph-name="uni1E0F" unicode="&#x1e0f;" horiz-adv-x="575" 
d="M403 700h97v-700h-76l-8 67q-92 -79 -192 -79q-90 0 -130.5 64.5t-40.5 193.5q0 140 45 197.5t141 57.5q92 0 168 -44q-4 43 -4 96v147zM153 247q0 -101 23.5 -138t80.5 -37q37 0 65.5 13t80.5 48v260q-91 24 -140 24q-62 0 -86 -34.5t-24 -135.5zM154 -159v71h283v-71
h-283z" />
    <glyph glyph-name="uni1E14" unicode="&#x1e14;" horiz-adv-x="562" 
d="M380 917l-34 -39l-138 90l58 66zM451 849v-71h-282v71h282zM234 83h274l5 -77q-91 -8 -296 -8q-64 0 -101 33.5t-38 90.5v446q1 57 38 90.5t101 33.5q205 0 296 -8l-5 -78h-274q-30 0 -42.5 -14.5t-12.5 -49.5v-138h291v-81h-291v-176q0 -35 12.5 -49.5t42.5 -14.5z" />
    <glyph glyph-name="uni1E15" unicode="&#x1e15;" horiz-adv-x="539" 
d="M352 726l-34 -39l-138 90l58 66zM423 658v-71h-282v71h282zM300 69q65 0 171 12l9 -64q-66 -29 -193 -29q-128 0 -181.5 58t-53.5 199q0 142 52.5 199t173.5 57q112 0 163 -41t51 -123q0 -140 -119 -140h-219q7 -76 39.5 -102t106.5 -26zM283 419q-72 0 -100 -30.5
t-31 -116.5h195q48 0 48 65q-1 45 -25.5 63.5t-86.5 18.5z" />
    <glyph glyph-name="uni1E16" unicode="&#x1e16;" horiz-adv-x="562" 
d="M412 968l-138 -90l-34 39l114 117zM451 849v-71h-282v71h282zM234 83h274l5 -77q-91 -8 -296 -8q-64 0 -101 33.5t-38 90.5v446q1 57 38 90.5t101 33.5q205 0 296 -8l-5 -78h-274q-30 0 -42.5 -14.5t-12.5 -49.5v-138h291v-81h-291v-176q0 -35 12.5 -49.5t42.5 -14.5z
" />
    <glyph glyph-name="uni1E17" unicode="&#x1e17;" horiz-adv-x="539" 
d="M384 777l-138 -90l-34 39l114 117zM423 658v-71h-282v71h282zM300 69q65 0 171 12l9 -64q-66 -29 -193 -29q-128 0 -181.5 58t-53.5 199q0 142 52.5 199t173.5 57q112 0 163 -41t51 -123q0 -140 -119 -140h-219q7 -76 39.5 -102t106.5 -26zM283 419q-72 0 -100 -30.5
t-31 -116.5h195q48 0 48 65q-1 45 -25.5 63.5t-86.5 18.5z" />
    <glyph glyph-name="uni1E1C" unicode="&#x1e1c;" horiz-adv-x="562" 
d="M310 755q-74 0 -116 37.5t-37 97.5l48 7q0 -34 27 -52.5t78 -18.5q49 0 76 18.5t27 52.5l49 -7q5 -60 -36.5 -97.5t-115.5 -37.5zM234 83h274l5 -77q-91 -8 -296 -8q-64 0 -101 33.5t-38 90.5v446q1 57 38 90.5t101 33.5q205 0 296 -8l-5 -78h-274q-30 0 -42.5 -14.5
t-12.5 -49.5v-138h291v-81h-291v-176q0 -35 12.5 -49.5t42.5 -14.5zM255 -42q65 6 92 -7t26 -58q-2 -65 -51 -99.5t-122 -24.5l15 51q38 -1 62.5 17t26.5 48q1 16 -11 21.5t-48 6.5z" />
    <glyph glyph-name="uni1E1D" unicode="&#x1e1d;" horiz-adv-x="539" 
d="M282 563q-74 0 -116 37.5t-37 97.5l48 7q0 -34 27 -52.5t78 -18.5q49 0 76 18.5t27 52.5l49 -7q5 -60 -36.5 -97.5t-115.5 -37.5zM300 69q65 0 171 12l9 -64q-66 -29 -193 -29q-128 0 -181.5 58t-53.5 199q0 142 52.5 199t173.5 57q112 0 163 -41t51 -123
q0 -140 -119 -140h-219q7 -76 39.5 -102t106.5 -26zM283 419q-72 0 -100 -30.5t-31 -116.5h195q48 0 48 65q-1 45 -25.5 63.5t-86.5 18.5zM226 -52q65 6 92 -7t26 -58q-2 -65 -51 -99.5t-122 -24.5l15 51q38 -1 62.5 17t26.5 48q1 16 -11 21.5t-48 6.5z" />
    <glyph glyph-name="uni1E20" unicode="&#x1e20;" horiz-adv-x="629" 
d="M469 862v-71h-282v71h282zM466 398h98v-398h-74l-10 69q-89 -82 -205 -82q-114 0 -165 87t-51 274q0 139 29 215.5t91 108t174 31.5q108 0 192 -21l-10 -76q-84 8 -176 8q-47 0 -76 -5.5t-54 -21.5t-37.5 -47t-19.5 -79t-7 -120q0 -149 30.5 -208t107.5 -59q45 0 82 15.5
t81 45.5v263z" />
    <glyph glyph-name="uni1E21" unicode="&#x1e21;" horiz-adv-x="561" 
d="M414 674v-71h-282v71h282zM540 488l-5 -52l-69 -7q17 -31 17 -85q0 -83 -47.5 -119.5t-164.5 -36.5q-55 0 -97 8q-16 -21 -8.5 -46t39.5 -30l180 -28q69 -10 98.5 -43t29.5 -96q0 -87 -51 -120t-185 -33q-135 0 -187 32.5t-52 117.5q0 40 18 64.5t60 47.5q-35 30 -31 78
t38 74q-64 33 -64 129q0 86 47 122t166 36q74 0 117 -13h151zM271 261q68 0 95 18.5t27 64.5q0 47 -26.5 65t-95.5 18q-70 0 -97 -18t-27 -65q0 -45 27.5 -64t96.5 -19zM418 -42q0 34 -15 44.5t-68 18.5l-157 20q-46 -38 -46 -83q0 -48 27.5 -62t116.5 -14q86 0 114 14.5
t28 61.5z" />
    <glyph glyph-name="uni1E24" unicode="&#x1e24;" horiz-adv-x="670" 
d="M486 690h100v-690h-100v325h-302v-325h-100v690h100v-279h302v279zM351 -49q29 0 29 -29v-56q0 -28 -29 -28h-31q-28 0 -28 28v56q0 29 28 29h31z" />
    </font>
</defs>
</svg>
