<?xml version="1.0" standalone="no"?>
<!DOCTYPE svg PUBLIC "-//W3C//DTD SVG 1.1//EN" "http://www.w3.org/Graphics/SVG/1.1/DTD/svg11.dtd" >
<svg xmlns="http://www.w3.org/2000/svg" xmlns:xlink="http://www.w3.org/1999/xlink" version="1.1">
<metadata>
Created by FontForge 20170731 at Wed Dec 13 19:44:06 2017
 By Aleksey,,,
Copyright (c) 2013, Natanael Gama (www.ndiscovered.com . info(at)ndiscovered.com), with Reserved Font Name Exo. This Font Software is licensed under the SIL Open Font License, Version 1.1.
</metadata>
<defs>
<font id="Exo2-SemiBoldItalic" horiz-adv-x="581" >
  <font-face 
    font-family="Exo 2 Semi Bold"
    font-weight="600"
    font-style="italic"
    font-stretch="normal"
    units-per-em="1000"
    panose-1="0 0 7 0 0 0 0 0 0 0"
    ascent="800"
    descent="-200"
    x-height="490"
    cap-height="690"
    bbox="-412.245 -286 1256 1082"
    underline-thickness="50"
    underline-position="-200"
    slope="-8"
    unicode-range="U+0020-FB02"
  />
<missing-glyph horiz-adv-x="605" 
d="M575 649h-1l-86 -608l-6 -41h-430l98 690h430zM447 41l86 608h-348l-86 -608h348z" />
    <glyph glyph-name="fi" unicode="fi" horiz-adv-x="637" 
d="M596 490l-70 -490h-121l57 402h-216l-64 -452q-21 -146 -166 -146q-58 0 -130 9l20 86h70q44 0 62.5 14t24.5 56l61 433h-86l11 83l88 5l10 71q12 79 51 118.5t118 39.5q72 0 126 -9l-11 -86h-76q-42 0 -62 -19t-27 -64l-7 -51h337zM589 704q17 0 26 -10.5t6 -26.5
l-7 -55q-4 -32 -37 -32h-56q-38 0 -33 37l8 54q4 33 37 33h56z" />
    <glyph glyph-name="fl" unicode="fl" horiz-adv-x="694" 
d="M646 84l6 -79q-32 -16 -102 -16q-63 0 -95 33.5t-24 91.5l72 511h-149q-41 1 -61.5 -18.5t-27.5 -65.5l-7 -51h133l-12 -88h-134l-63 -452q-21 -146 -166 -146q-58 0 -130 9l20 86h70q44 0 62.5 14t24.5 56l61 433h-86l10 83l89 5l10 71q11 79 50 119t118 39
q225 0 317 -16l-76 -565q-4 -29 7 -41.5t39 -12.5h44z" />
    <glyph glyph-name="f_f" unicode="ff" horiz-adv-x="741" 
d="M704 624q-43 0 -61.5 -14t-25.5 -57l-9 -63h143l-12 -88h-143l-63 -442q-21 -146 -166 -146q-46 0 -130 9l20 86h71q43 0 61.5 14.5t25.5 56.5l60 422h-227l-66 -452q-21 -146 -166 -146q-58 0 -130 9l20 86h70q44 0 62.5 14t25.5 56l62 433h-88l10 83l91 5l10 73
q21 146 167 146q88 0 148 -9l-20 -86h-89q-44 0 -62.5 -14t-24.5 -57l-8 -53h227l12 83q21 146 166 146q89 0 151 -9l-19 -86h-93z" />
    <glyph glyph-name="f_f_i" unicode="ffi" horiz-adv-x="985" 
d="M944 490l-70 -490h-121l57 402h-214l-63 -442q-21 -146 -166 -146q-46 0 -130 9l20 86h71q43 0 61.5 14.5t25.5 56.5l60 422h-227l-66 -452q-21 -146 -166 -146q-58 0 -130 9l20 86h70q44 0 62.5 14t25.5 56l62 433h-88l10 83l91 5l10 73q21 146 167 146q88 0 148 -9
l-20 -86h-89q-44 0 -62.5 -14t-24.5 -57l-8 -53h227l12 83q21 146 166 146q87 0 147 -9l-19 -86h-89q-43 0 -61.5 -14t-25.5 -57l-9 -63h336zM936 704q18 0 27 -10t6 -27l-7 -55q-4 -32 -37 -32h-56q-38 0 -33 37l8 54q4 33 37 33h55z" />
    <glyph glyph-name="f_f_l" unicode="ffl" horiz-adv-x="1044" 
d="M994 84l6 -79q-32 -16 -101 -16q-64 0 -96 33.5t-24 91.5l72 511h-149q-41 1 -61.5 -18.5t-26.5 -65.5l-7 -51h134l-12 -88h-135l-63 -442q-21 -146 -166 -146q-46 0 -130 9l20 86h70q43 0 62 14.5t25 56.5l60 422h-224l-66 -452q-21 -146 -166 -146q-58 0 -130 9l20 86
h70q44 0 62.5 14t25.5 56l62 433h-88l10 83l91 5l10 73q21 146 167 146q88 0 148 -9l-20 -86h-89q-44 0 -62.5 -14t-24.5 -57l-8 -53h225l10 71q11 79 50 119t118 39q225 0 318 -16l-77 -565q-4 -29 7 -41.5t39 -12.5h44z" />
    <glyph glyph-name=".notdef" horiz-adv-x="605" 
d="M575 649h-1l-86 -608l-6 -41h-430l98 690h430zM447 41l86 608h-348l-86 -608h348z" />
    <glyph glyph-name=".null" horiz-adv-x="0" 
 />
    <glyph glyph-name="nonmarkingreturn" horiz-adv-x="333" 
 />
    <glyph glyph-name="space" unicode=" " horiz-adv-x="220" 
 />
    <glyph glyph-name="exclam" unicode="!" horiz-adv-x="285" 
d="M259 695l-41 -285l-38 -194h-96l15 194l40 285h120zM132 137q48 0 39 -45l-6 -51q-4 -41 -46 -41h-28q-48 0 -42 46l8 51q4 40 46 40h29z" />
    <glyph glyph-name="quotedbl" unicode="&#x22;" horiz-adv-x="365" 
d="M208 690l-39 -218h-78l23 218h94zM362 690l-38 -218h-79l23 218h94z" />
    <glyph glyph-name="numbersign" unicode="#" horiz-adv-x="697" 
d="M666 435h-109l-50 -157h110l-25 -74h-108l-64 -204h-94l64 204h-157l-64 -204h-94l64 204h-117l25 74h115l50 157h-116l26 75h113l57 180h94l-57 -180h157l57 180h94l-57 -180h112zM413 278l50 157h-157l-50 -157h157z" />
    <glyph glyph-name="dollar" unicode="$" horiz-adv-x="567" 
d="M538 590q-45 2 -153 4l-45 -198l53 -19q76 -28 100.5 -74t14.5 -126q-15 -113 -71.5 -151t-192.5 -38h-7l-25 -110h-50l25 112q-81 4 -166 21l15 91l176 -4l45 201l-62 23q-72 27 -98 75.5t-16 123.5q16 110 74 145.5t181 35.5h23l21 94h51l-22 -96q76 -5 142 -22z
M266 423l27 -10l41 181q-30 0 -44.5 -1t-32 -5t-25.5 -12.5t-15 -24.5t-11 -40q-6 -43 5.5 -58t54.5 -30zM383 186q5 43 -6 59t-51 29l-22 8l-42 -184q66 2 90 19t31 69z" />
    <glyph glyph-name="percent" unicode="%" horiz-adv-x="903" 
d="M253 703q95 0 128 -48t17 -162q-16 -112 -57 -156t-131 -44q-94 0 -127 48t-17 162q17 112 57.5 156t129.5 44zM764 690l-525 -690h-88l524 690h89zM255 631q-50 0 -68.5 -27.5t-30.5 -110.5q-11 -75 -0.5 -101.5t52.5 -26.5q52 0 70.5 27.5t30.5 110.5q11 75 -0.5 101.5
t-53.5 26.5zM705 399q95 0 128 -48t17 -162q-16 -112 -57 -156t-132 -44q-93 0 -126 48t-17 161q17 112 57.5 156.5t129.5 44.5zM707 327q-50 0 -69 -28t-30 -110q-11 -76 -0.5 -102.5t52.5 -26.5q52 0 70.5 27.5t30.5 110.5q11 75 0 102t-54 27z" />
    <glyph glyph-name="ampersand" unicode="&#x26;" horiz-adv-x="743" 
d="M725 402l-13 -91h-91q-16 -103 -55 -167q-94 -155 -325 -155q-119 0 -167 45t-37 146q19 166 160 176l1 5q-58 4 -81 47.5t-11 116.5q18 106 81 141t189 35q91 0 174 -21l-21 -90q-58 12 -148 12q-81 0 -111.5 -19.5t-40.5 -83.5q-9 -57 11 -77t82 -20h200q2 36 2 116
h108q1 -54 -2 -116h95zM465 187q33 45 48 124h-203q-68 0 -99 -25.5t-41 -91.5q-8 -56 10.5 -78t80.5 -22q141 0 204 93z" />
    <glyph glyph-name="quotesingle" unicode="'" horiz-adv-x="212" 
d="M208 690l-39 -218h-78l23 218h94z" />
    <glyph glyph-name="parenleft" unicode="(" horiz-adv-x="360" 
d="M388 791l14 -56q-99 -44 -156.5 -148t-81.5 -279q-23 -165 3 -269.5t110 -149.5l-16 -52q-137 49 -189 167.5t-25 312.5q28 196 110 310.5t231 163.5z" />
    <glyph glyph-name="parenright" unicode=")" horiz-adv-x="360" 
d="M105 789q137 -50 189.5 -168t24.5 -314q-28 -194 -110 -308.5t-231 -164.5l-14 56q190 90 238 428q23 168 -2.5 272t-110.5 146z" />
    <glyph glyph-name="asterisk" unicode="*" horiz-adv-x="449" 
d="M316 691l-35 -164l87 -129l-57 -41l-57 122l-90 -121l-53 40l122 128l12 165h71zM105 608l115 -48l-4 -30l-17 -19l-121 32zM428 607l13 -68l-126 -28l-13 19l2 30z" />
    <glyph glyph-name="plus" unicode="+" horiz-adv-x="543" 
d="M503 345l-13 -90h-178l-24 -171h-91l24 171h-179l13 90h178l24 171h92l-24 -171h178z" />
    <glyph glyph-name="comma" unicode="," horiz-adv-x="238" 
d="M114 137q24 0 33.5 -10.5t5.5 -34.5l-8 -64q-12 -84 -67 -170l-56 19q30 97 36 125q-20 -1 -29 9t-7 29l8 56q5 24 15.5 32.5t37.5 8.5h31z" />
    <glyph glyph-name="hyphen" unicode="-" horiz-adv-x="427" 
d="M364 297l-12 -86h-300l12 86h300z" />
    <glyph glyph-name="period" unicode="." horiz-adv-x="235" 
d="M112 137q46 0 40 -45l-7 -51q-4 -41 -46 -41h-36q-47 0 -41 46l8 51q4 40 46 40h36z" />
    <glyph glyph-name="slash" unicode="/" horiz-adv-x="542" 
d="M574 690l-500 -759h-100l500 759h100z" />
    <glyph glyph-name="zero" unicode="0" horiz-adv-x="614" 
d="M272 -13q-112 0 -166 56t-54 176q0 76 8 140.5t29 130t54 111t87.5 74t126.5 28.5q112 0 165.5 -55.5t53.5 -174.5q0 -79 -7 -144t-26.5 -131t-52.5 -110.5t-88.5 -72.5t-129.5 -28zM279 92q35 0 63 13t46.5 33t31.5 53t19.5 61.5t10.5 71.5t5 71.5t1 71.5
q0 70 -26 100.5t-84 30.5q-38 0 -67.5 -16t-48 -46.5t-30.5 -65t-17.5 -81t-8 -83.5t-2.5 -83q0 -70 25.5 -100.5t81.5 -30.5z" />
    <glyph glyph-name="one" unicode="1" horiz-adv-x="412" 
d="M366 690l-97 -690h-125l72 511q5 40 14 69l-167 -49l-4 89l182 70h125z" />
    <glyph glyph-name="two" unicode="2" horiz-adv-x="564" 
d="M325 702q101 0 154 -28.5t53 -104.5q0 -73 -37 -133.5t-109 -128.5l-207 -195q40 6 103 6h212l-16 -118h-470l11 77q5 37 21 53l208 198q74 68 115.5 121t41.5 101q0 27 -21.5 35t-71.5 8q-100 0 -207 -12v97q119 24 220 24z" />
    <glyph glyph-name="three" unicode="3" horiz-adv-x="555" 
d="M312 703q108 0 156 -35t48 -107q0 -75 -33.5 -134t-90.5 -63l-1 -4q102 -17 102 -123q0 -121 -71.5 -184.5t-205.5 -65.5q-90 -2 -207 18l13 96q17 -1 68 -4.5t59 -3t58 1.5q161 11 161 146q0 72 -101 73l-131 3l12 90h127q64 0 93 32.5t29 101.5q0 32 -22.5 43.5
t-88.5 11.5q-100 0 -175 -6l-1 95q115 18 202 18z" />
    <glyph glyph-name="four" unicode="4" horiz-adv-x="622" 
d="M492 253h89l-12 -84l-88 -13h-2l-22 -156h-117l22 156h-250q-56 0 -79 41t4 86l238 407h124l-232 -403q-20 -34 13 -34h195l27 192l37 112h96z" />
    <glyph glyph-name="five" unicode="5" horiz-adv-x="539" 
d="M528 690l-20 -103h-280l-29 -148l77 -9q103 -11 154.5 -54.5t51.5 -125.5q0 -118 -68.5 -186.5t-190.5 -75.5q-102 -5 -214 23l20 101q94 -20 167 -15q164 9 164 149q0 42 -32 61t-110 26l-88 8q-23 2 -36 19t-9 40l57 290h386z" />
    <glyph glyph-name="six" unicode="6" horiz-adv-x="576" 
d="M359 453q83 0 125 -36.5t42 -102.5q-1 -162 -65 -244t-202 -82q-139 0 -181.5 75t-14.5 274q16 114 40.5 186t64.5 111.5t87.5 53.5t121.5 14q102 0 161 -17l-20 -87q-49 2 -148 2q-78 0 -117 -43t-61 -170q72 66 167 66zM408 280q1 41 -16.5 58.5t-67.5 17.5
q-70 0 -146 -67q-20 -114 -4 -156t97 -43q137 0 137 190z" />
    <glyph glyph-name="seven" unicode="7" horiz-adv-x="519" 
d="M487 690q36 0 49 -21t-2 -54l-298 -615h-125l257 529q14 30 34 58l-326 -1l9 104h402z" />
    <glyph glyph-name="eight" unicode="8" horiz-adv-x="608" 
d="M353 701q134 0 179 -44t31 -144q-21 -142 -122 -154l-1 -4q115 -12 90 -188q-13 -96 -68.5 -137t-193.5 -42q-133 0 -186.5 46t-41.5 143q12 82 43.5 129t97.5 53l1 4q-96 11 -76 160q13 97 65.5 138t181.5 40zM345 606q-72 0 -96 -21.5t-33 -84.5q-8 -57 12.5 -76
t94.5 -19q69 0 93.5 21.5t32.5 82.5q9 58 -10.5 77.5t-93.5 19.5zM303 311q-76 -1 -103.5 -22.5t-37.5 -94.5q-9 -61 13.5 -82t102.5 -21q73 0 102 24t37 89q10 65 -11.5 86t-102.5 21z" />
    <glyph glyph-name="nine" unicode="9" horiz-adv-x="576" 
d="M336 702q139 0 180.5 -75t10.5 -279q-22 -147 -60.5 -225t-97 -106.5t-158.5 -28.5q-92 0 -171 18l15 87q77 -3 151 -2q93 3 131 46.5t61 164.5q-67 -67 -157 -67q-194 0 -169 229q15 131 77.5 184.5t186.5 53.5zM269 332q40 0 72 15t74 55q19 119 2.5 158.5t-90.5 39.5
q-72 0 -101 -31t-39 -110q-8 -69 9 -98t73 -29z" />
    <glyph glyph-name="colon" unicode=":" horiz-adv-x="250" 
d="M149 446q46 0 40 -45l-7 -51q-4 -41 -46 -41h-36q-47 0 -41 46l8 51q4 40 46 40h36zM106 137q46 0 40 -45l-7 -51q-4 -41 -46 -41h-36q-47 0 -41 46l8 51q4 40 46 40h36z" />
    <glyph glyph-name="semicolon" unicode=";" horiz-adv-x="254" 
d="M163 446q46 0 40 -45l-7 -51q-4 -41 -46 -41h-36q-47 0 -41 46l8 51q4 40 46 40h36zM123 137q24 0 33.5 -10.5t5.5 -34.5l-8 -64q-12 -84 -67 -170l-56 19q30 97 36 125q-20 -1 -29 9t-7 29l8 56q5 24 15.5 32.5t37.5 8.5h31z" />
    <glyph glyph-name="less" unicode="&#x3c;" horiz-adv-x="519" 
d="M489 514l-14 -99l-327 -118l293 -121l-13 -93l-390 169l13 95z" />
    <glyph glyph-name="equal" unicode="=" horiz-adv-x="582" 
d="M537 445l-12 -89h-450l12 89h450zM508 234l-12 -89h-451l13 89h450z" />
    <glyph glyph-name="greater" unicode="&#x3e;" horiz-adv-x="520" 
d="M93 516l391 -169l-14 -95l-437 -167l13 99l328 121l-293 120z" />
    <glyph glyph-name="question" unicode="?" horiz-adv-x="505" 
d="M314 712q103 0 153 -40t39 -120q-5 -40 -27.5 -74t-52 -60t-59 -53t-55 -65.5t-34.5 -85.5h-100q6 49 26.5 92t47 72.5t52.5 55t46 52t24 51.5q7 44 -12.5 59t-76.5 15q-85 0 -202 -7v85q5 1 23 4.5t22.5 4t19.5 3.5t22 3.5t21.5 2.5t25.5 2.5t27 1.5t33 1h37zM229 137
q47 0 41 -45l-7 -51q-4 -41 -46 -41h-29q-48 0 -41 46l7 50q6 41 47 41h28z" />
    <glyph glyph-name="at" unicode="@" horiz-adv-x="789" 
d="M434 653q74 1 121 -3t87 -17.5t59.5 -35.5t30.5 -60.5t10 -90t-12 -126.5q-24 -195 -72.5 -261.5t-164.5 -66.5q-114 0 -131 93q-75 -97 -181 -97q-85 0 -119.5 56t-12.5 187q12 72 32 118t52 68.5t65.5 30t85.5 7.5q88 0 239 -28l-47 -297q-2 -22 4 -31.5t24 -9.5
q52 0 73.5 49t40.5 190q5 36 8.5 61.5t3.5 49v38.5t-6.5 29t-11.5 21.5t-20 14t-26 9t-36.5 4.5t-44 2h-54.5h-330l9 86q148 8 324 10zM211 87q41 0 75.5 23t80.5 78l29 174q-37 1 -77 1q-86 0 -113 -23.5t-42 -115.5q-13 -91 -3.5 -114t50.5 -23z" />
    <glyph glyph-name="A" unicode="A" horiz-adv-x="634" 
d="M466 0l-29 194h-258l-83 -194h-131l300 659q10 31 46 31h123q16 0 27.5 -10.5t12.5 -25.5l117 -654h-125zM224 300h197l-35 234l-6 63h-30q-8 -21 -25 -62z" />
    <glyph glyph-name="B" unicode="B" horiz-adv-x="626" 
d="M586 513q-11 -74 -43 -111t-96 -43l-1 -5q140 -11 114 -187q-15 -104 -68.5 -139.5t-175.5 -35.5q-185 0 -281 8l97 690q85 8 238 8q130 0 180.5 -40t35.5 -145zM337 403q64 0 92 21.5t36 81.5q8 56 -13 73.5t-88 17.5h-122l-27 -194h122zM438 200q9 66 -13 88.5
t-93 23.5h-130l-31 -219h125q74 0 103.5 21.5t38.5 85.5z" />
    <glyph glyph-name="C" unicode="C" horiz-adv-x="574" 
d="M383 702q114 0 199 -23l-18 -94q-87 7 -184 7q-60 0 -94 -19.5t-57.5 -74t-37.5 -158.5q-20 -139 3 -190t106 -52q110 -1 203 10l6 -95q-84 -25 -212 -25q-153 0 -208.5 85.5t-28.5 276.5q27 197 98 274.5t225 77.5z" />
    <glyph glyph-name="D" unicode="D" horiz-adv-x="669" 
d="M365 699q168 0 227 -78.5t31 -280.5q-13 -92 -32.5 -154t-45.5 -101t-67.5 -59.5t-87 -27.5t-115.5 -7q-100 0 -240 9l97 690q124 9 233 9zM492 350q9 65 10.5 106.5t-4.5 70t-24.5 43t-44 20t-68.5 5.5q-10 0 -51.5 -0.5t-66.5 -0.5l-69 -496q74 -2 100 -2
q75 0 113.5 17.5t63.5 71.5t41 165z" />
    <glyph glyph-name="E" unicode="E" horiz-adv-x="565" 
d="M290 588q-30 0 -43.5 -13t-17.5 -47l-17 -121h281l-12 -93h-282l-21 -155q-4 -32 7 -44.5t42 -12.5h260l-3 -96q-85 -8 -282 -8q-85 0 -123 41t-28 115l57 410q8 61 49 94.5t111 33.5q215 0 304 -9l-16 -95h-266z" />
    <glyph glyph-name="F" unicode="F" horiz-adv-x="544" 
d="M303 588q-37 0 -51.5 -12t-18.5 -48l-19 -134h272l-13 -93h-272l-42 -301h-126l78 558q20 134 160 134q209 0 296 -10l-17 -94h-247z" />
    <glyph glyph-name="G" unicode="G" horiz-adv-x="631" 
d="M438 183l30 217h120l-56 -400h-90l-3 88q-88 -101 -211 -101q-104 0 -146.5 87t-21.5 276q14 109 41.5 179.5t72.5 108t97.5 51.5t129.5 14q118 0 203 -24l-17 -92q-96 6 -176 6q-76 0 -116 -18.5t-65 -72.5t-39 -162q-15 -138 3 -191t82 -53q45 0 79.5 20t82.5 67z" />
    <glyph glyph-name="H" unicode="H" horiz-adv-x="675" 
d="M529 690h125l-97 -690h-125l44 315h-271l-44 -315h-126l97 690h126l-38 -271h271z" />
    <glyph glyph-name="I" unicode="I" horiz-adv-x="279" 
d="M258 690l-97 -690h-126l97 690h126z" />
    <glyph glyph-name="J" unicode="J" horiz-adv-x="352" 
d="M334 690l-76 -540q-11 -79 -52 -120t-107 -41q-69 0 -112 18l23 86h43q71 0 81 65l74 532h126z" />
    <glyph glyph-name="K" unicode="K" horiz-adv-x="613" 
d="M368 353q22 -22 40 -60l154 -293h-140l-157 311h-68q2 -37 -3 -70l-33 -241h-126l97 690h126l-30 -207q-6 -42 -16 -76h64l223 283h149l-224 -283q-26 -32 -55 -49z" />
    <glyph glyph-name="L" unicode="L" horiz-adv-x="517" 
d="M255 690l-74 -530q-4 -28 6.5 -42t41.5 -14h240l-3 -98q-86 -8 -272 -8q-74 0 -111.5 40.5t-26.5 117.5l73 534h126z" />
    <glyph glyph-name="M" unicode="M" horiz-adv-x="892" 
d="M805 690q24 0 35.5 -13.5t9.5 -37.5l-62 -639h-122l62 589h-18l-183 -461q-16 -40 -56 -40h-96q-42 0 -49 44l-60 457h-19l-102 -589h-122l116 643q7 47 52 47h126q40 0 45 -44l51 -374q6 -41 8 -95h16q13 41 34 92l149 381q16 39 56 39z" />
    <glyph glyph-name="N" unicode="N" horiz-adv-x="712" 
d="M692 690l-92 -646q-6 -44 -48 -44h-91q-33 0 -47 40l-145 423q-19 53 -28 101h-12q-1 -44 -8 -101l-63 -463h-123l91 646q6 44 49 44h90q33 0 47 -40l140 -411q25 -76 34 -109h14q1 54 9 108l61 452h122z" />
    <glyph glyph-name="O" unicode="O" horiz-adv-x="672" 
d="M387 703q151 0 209 -82.5t31 -280.5q-27 -201 -99 -277t-225 -76t-211.5 81t-31.5 282q27 197 99 275t228 78zM382 596q-91 0 -130 -52.5t-61 -203.5q-20 -142 4 -194t111 -52q88 0 128.5 54t61.5 202q22 145 -2.5 195.5t-111.5 50.5z" />
    <glyph glyph-name="P" unicode="P" horiz-adv-x="597" 
d="M376 699q130 0 179 -51.5t32 -174.5q-19 -133 -72 -175.5t-182 -42.5q-60 0 -136 9l-37 -264h-125l97 690q89 9 244 9zM463 482q10 68 -10 91t-81 23q-92 0 -128 -1l-34 -238h117q71 0 98 25t38 100z" />
    <glyph glyph-name="Q" unicode="Q" horiz-adv-x="672" 
d="M387 703q151 0 209 -82.5t31 -280.5q-27 -201 -99 -277t-225 -76t-211.5 81t-31.5 282q27 197 99 275t228 78zM382 596q-91 0 -130 -52.5t-61 -203.5q-20 -142 4 -194t111 -52q88 0 128.5 54t61.5 202q22 145 -2.5 195.5t-111.5 50.5zM240 -39q119 -50 280 -75l-49 -120
q-152 41 -275 124z" />
    <glyph glyph-name="R" unicode="R" horiz-adv-x="629" 
d="M594 492q-10 -75 -46 -117.5t-109 -51.5l-1 -6q64 -16 79 -103l41 -214h-128l-37 216q-6 34 -21 47t-46 13h-129l-39 -276h-123l97 690q89 9 245 9q119 0 175.5 -47t41.5 -160zM333 379q67 1 96 25.5t39 89.5q8 59 -12 80.5t-82 21.5q-95 0 -132 -1l-31 -216h122z" />
    <glyph glyph-name="S" unicode="S" horiz-adv-x="568" 
d="M335 702q128 0 216 -24l-13 -88q-118 4 -202 4q-32 0 -45.5 -0.5t-32.5 -4.5t-27 -13t-15 -24.5t-11 -40.5q-6 -43 5.5 -58t54.5 -30l128 -46q77 -28 101.5 -74t13.5 -126q-15 -113 -71.5 -151t-192.5 -38q-114 0 -224 23l14 91q175 -4 205 -4q81 0 109 16t35 72
q6 43 -5.5 58.5t-51.5 29.5l-132 48q-72 27 -98 75.5t-16 123.5q16 110 74 145.5t181 35.5z" />
    <glyph glyph-name="T" unicode="T" horiz-adv-x="584" 
d="M622 690l-15 -107h-212l-82 -583h-125l82 583h-211l15 107h548z" />
    <glyph glyph-name="U" unicode="U" horiz-adv-x="668" 
d="M653 690l-60 -422q-22 -154 -88 -217.5t-202 -63.5q-140 0 -198 67t-37 219l58 417h126l-59 -422q-14 -100 9 -137t99 -37q79 0 116 39.5t52 139.5l58 417h126z" />
    <glyph glyph-name="V" unicode="V" horiz-adv-x="619" 
d="M664 690l-290 -658q-14 -32 -46 -32h-117q-16 0 -27.5 10.5t-13.5 26.5l-106 653h127l67 -519q6 -52 8 -78h25q10 39 29 81l211 516h133z" />
    <glyph glyph-name="W" unicode="W" horiz-adv-x="955" 
d="M984 690l-213 -657q-11 -33 -48 -33h-128q-17 0 -29.5 11.5t-13.5 27.5l-21 479q0 1 -1.5 32.5t-1.5 47.5h-20q-8 -32 -24 -83l-153 -481q-11 -34 -48 -34h-127q-17 0 -30 11t-14 27l-31 652h127l10 -505q1 -43 0 -94h22q5 20 29 99l148 463q13 37 50 37h119q18 0 29 -12
t12 -30l27 -464q4 -62 3 -93h22q9 38 26 97l149 502h130z" />
    <glyph glyph-name="X" unicode="X" horiz-adv-x="623" 
d="M652 690l-218 -335l133 -355h-127l-109 312h-19l-196 -312h-142l234 355l-121 335h126l98 -288h21l185 288h135z" />
    <glyph glyph-name="Y" unicode="Y" horiz-adv-x="586" 
d="M636 690l-291 -457l-33 -233h-126l34 240l-161 450h127l87 -270q13 -38 16 -84h10q9 38 38 87l163 267h136z" />
    <glyph glyph-name="Z" unicode="Z" horiz-adv-x="570" 
d="M577 690l-15 -102l-406 -486h345l-14 -102h-484l14 102l406 486h-332l15 102h471z" />
    <glyph glyph-name="bracketleft" unicode="[" horiz-adv-x="335" 
d="M367 768l-11 -77h-85q-20 0 -23 -20l-105 -743q-1 -16 12 -16h92l-11 -77h-149q-31 0 -48.5 17t-12.5 52l112 799q5 30 24.5 47.5t49.5 17.5h155z" />
    <glyph glyph-name="backslash" unicode="\" horiz-adv-x="526" 
d="M167 690l289 -759h-92l-289 759h92z" />
    <glyph glyph-name="bracketright" unicode="]" horiz-adv-x="335" 
d="M250 768q30 0 48 -20t14 -49l-113 -799q-4 -29 -24 -47t-49 -18h-155l10 77h85q8 0 15.5 5.5t8.5 14.5l105 743q1 16 -13 16h-92l12 77h148z" />
    <glyph glyph-name="asciicircum" unicode="^" horiz-adv-x="446" 
d="M318 616l120 -219l-50 -28l-115 170h-8l-168 -170l-46 28l179 219h88z" />
    <glyph glyph-name="underscore" unicode="_" horiz-adv-x="442" 
d="M407 0l-12 -86h-442l13 86h441z" />
    <glyph glyph-name="grave" unicode="`" horiz-adv-x="337" 
d="M129 731l191 -148l-41 -53l-210 117z" />
    <glyph glyph-name="a" unicode="a" 
d="M294 504q127 0 247 -29l-67 -475h-96l2 84q-83 -95 -204 -96q-90 -1 -122.5 59t-12.5 206q12 83 33.5 134.5t56.5 76.5t70.5 32.5t92.5 7.5zM208 90q43 0 82.5 24t87.5 74l32 218q-40 1 -90 1q-46 0 -70 -4.5t-42.5 -22t-27 -47.5t-16.5 -86q-14 -103 -5.5 -130t49.5 -27
z" />
    <glyph glyph-name="b" unicode="b" horiz-adv-x="582" 
d="M395 503q88 0 120 -57.5t12 -206.5q-11 -78 -31 -129t-52.5 -77.5t-69 -36t-89.5 -9.5q-57 0 -132.5 11t-124.5 27l95 675h120l-25 -191q-8 -63 -25 -109q45 44 99 73.5t103 29.5zM404 247q13 101 4 127t-48 26q-30 0 -76 -24.5t-95 -67.5l-32 -224q82 -2 91 -2
q46 0 69.5 5t42.5 23.5t27.5 49t16.5 87.5z" />
    <glyph glyph-name="c" unicode="c" horiz-adv-x="494" 
d="M306 504q106 0 172 -29l-17 -74q-102 2 -137 2q-80 0 -113.5 -31.5t-45.5 -128.5q-12 -98 9 -126.5t96 -28.5q84 0 151 10l8 -81q-76 -29 -181 -29q-132 0 -181 61t-29 201t80 197t188 57z" />
    <glyph glyph-name="d" unicode="d" 
d="M450 700h122l-98 -700h-96l3 95q-101 -107 -213 -107q-78 0 -112.5 60.5t-14.5 204.5q12 81 32.5 132.5t51.5 76.5t63 33.5t79 8.5q76 0 159 -13q0 35 7 94zM164 247q-13 -96 -4.5 -126t48.5 -29q41 0 78.5 21.5t91.5 70.5l31 226h-92q-59 0 -86 -10.5t-42 -43.5
t-25 -109z" />
    <glyph glyph-name="e" unicode="e" horiz-adv-x="548" 
d="M317 504q122 0 164.5 -41.5t31.5 -121.5q-10 -72 -56 -104t-141 -38l-155 -13q1 -58 28 -78.5t82 -20.5q83 0 184 12l8 -79q-77 -32 -208 -32t-182 66.5t-33 203.5q19 141 79 193.5t198 52.5zM394 352q3 38 -15 47t-77 9q-66 -1 -93.5 -28.5t-40.5 -112.5l140 13
q42 3 61.5 18.5t24.5 53.5z" />
    <glyph glyph-name="f" unicode="f" horiz-adv-x="392" 
d="M355 624q-44 0 -62 -14t-25 -57l-9 -63h143l-12 -88h-144l-64 -452q-21 -146 -166 -146q-58 0 -130 9l20 86h70q44 0 62.5 14t25.5 56l61 433h-87l11 83l88 5l12 83q21 146 167 146q90 0 151 -9l-20 -86h-92z" />
    <glyph glyph-name="g" unicode="g" horiz-adv-x="582" 
d="M277 504q144 0 265 -29l-63 -450q-26 -232 -301 -232q-104 0 -167 23l11 77q72 -2 148 -2q162 0 187 102l6.5 26t7.5 29.5t10 27t15 28.5q-38 -51 -95.5 -82.5t-126.5 -32.5q-83 -1 -118 58.5t-14 205.5q10 67 26.5 114t36.5 73.5t49.5 41t56 18.5t66.5 4zM209 90
q43 1 82 24.5t88 73.5l32 218q-40 1 -92 1q-85 0 -111.5 -27t-42.5 -133q-13 -101 -4 -129.5t48 -27.5z" />
    <glyph glyph-name="h" unicode="h" horiz-adv-x="587" 
d="M415 504q64 0 96.5 -36t22.5 -102l-52 -366h-121l46 334q5 40 -2 53.5t-33 13.5q-38 0 -78 -22t-106 -73l-41 -306h-121l98 700h121l-24 -183q-8 -60 -25 -121q120 108 219 108z" />
    <glyph glyph-name="i" unicode="i" horiz-adv-x="262" 
d="M214 703q18 0 26.5 -10t6.5 -27l-7 -55q-6 -33 -38 -33h-55q-38 0 -33 38l8 54q3 33 37 33h55zM219 490l-68 -490h-121l69 490h120z" />
    <glyph glyph-name="j" unicode="j" horiz-adv-x="263" 
d="M214 703q18 0 26.5 -10t6.5 -27l-7 -55q-6 -33 -38 -33h-55q-39 0 -33 38l8 54q3 33 37 33h55zM220 490l-69 -485q-8 -63 -44 -118.5t-91 -87.5l-66 57q68 68 81 155l68 479h121z" />
    <glyph glyph-name="k" unicode="k" horiz-adv-x="543" 
d="M364 270q21 -28 35 -60l92 -210h-129l-88 215q-22 -12 -102 -48l-25 -167h-121l98 700h122l-42 -313q-6 -51 -35 -123q87 45 150 103t80 123h124q-38 -133 -159 -220z" />
    <glyph glyph-name="l" unicode="l" horiz-adv-x="311" 
d="M246 700l-78 -550q-4 -31 6.5 -42.5t42.5 -11.5h44l5 -91q-32 -16 -103 -16q-63 0 -95 36t-24 101l81 574h121z" />
    <glyph glyph-name="m" unicode="m" horiz-adv-x="873" 
d="M703 504q65 0 95.5 -37t20.5 -101l-51 -366h-120l46 334q6 38 -4.5 52.5t-37.5 14.5q-31 0 -62.5 -19.5t-91.5 -75.5l-43 -306h-116l46 334q5 36 -4 51.5t-38 15.5q-32 0 -63.5 -19t-90.5 -72l-43 -310h-120l69 490h93l-2 -97q108 111 205 111q55 0 85 -27t33 -75
q101 102 194 102z" />
    <glyph glyph-name="n" unicode="n" horiz-adv-x="587" 
d="M416 504q62 0 94.5 -36t23.5 -102l-52 -366h-121l46 332q5 41 -2.5 55.5t-33.5 13.5q-38 0 -78 -22t-104 -72l-42 -307h-121l69 490h96l-2 -101q121 115 227 115z" />
    <glyph glyph-name="o" unicode="o" horiz-adv-x="573" 
d="M311 504q130 0 180.5 -61.5t30.5 -202.5q-19 -138 -80.5 -195.5t-189.5 -57.5q-129 0 -181 61t-33 201q20 139 81 197t192 58zM310 407q-69 0 -100 -34t-45 -133q-14 -92 4 -124t84 -32q69 0 100 34.5t44 130.5q13 94 -4.5 126t-82.5 32z" />
    <glyph glyph-name="p" unicode="p" horiz-adv-x="584" 
d="M397 502q58 0 89.5 -22.5t44.5 -81t-3 -160.5q-11 -81 -31.5 -133t-53 -77t-66 -33t-83.5 -8q-66 0 -151 13q0 -45 -7 -93l-16 -102h-122l97 685h96l-3 -98q46 46 102.5 78t106.5 32zM405 243q13 103 4 130t-48 27q-29 0 -75.5 -25t-94.5 -69l-31 -225q39 -1 89 -1
q88 0 114.5 27.5t41.5 135.5z" />
    <glyph glyph-name="q" unicode="q" horiz-adv-x="578" 
d="M277 504q148 0 261 -37l-94 -662h-121l25 173q10 65 28 112q-98 -102 -207 -102q-80 0 -114.5 59.5t-13.5 203.5q11 79 31 130t51.5 77.5t66.5 36t87 9.5zM164 246q-13 -96 -4.5 -125t48.5 -29q41 0 78.5 21.5t91.5 70.5l31 223q-80 2 -93 2q-44 0 -67.5 -5t-41.5 -23
t-26.5 -48t-16.5 -87z" />
    <glyph glyph-name="r" unicode="r" horiz-adv-x="410" 
d="M400 504h28l-28 -114h-32q-34 0 -71 -18.5t-108 -63.5l-42 -308h-121l69 490h93l-2 -103q119 117 214 117z" />
    <glyph glyph-name="s" unicode="s" horiz-adv-x="514" 
d="M266 504q117 -2 217 -18l-13 -83q-94 3 -196 3q-61 0 -81 -5t-23 -27q-3 -20 9 -30.5t47 -25.5l125 -56q62 -27 85 -58.5t16 -86.5q-5 -34 -18 -57t-31.5 -37t-49 -21.5t-61.5 -10t-77 -2.5q-38 0 -67 1.5t-43.5 3t-43.5 5.5t-47 6l13 85q53 -4 152 -4q91 0 120.5 7.5
t34.5 31.5q-1 6 0.5 9.5t-1.5 7.5t-3.5 6t-5 5t-6.5 5t-8 4.5t-10 4.5t-12 5.5t-13 5.5l-125 56q-57 26 -80 61t-17 87q8 68 58.5 95.5t154.5 26.5z" />
    <glyph glyph-name="t" unicode="t" horiz-adv-x="397" 
d="M245 402l-36 -252q-4 -32 5.5 -43t42.5 -11h69l5 -90q-51 -17 -124 -17q-67 0 -98.5 38t-21.5 107l38 268h-89l11 83l91 5l20 141h120l-20 -141h142l-11 -88h-144z" />
    <glyph glyph-name="u" unicode="u" horiz-adv-x="577" 
d="M417 490h120l-68 -490h-94l4 97q-116 -110 -218 -110q-68 0 -99 37t-21 101l51 365h121l-47 -333q-6 -37 3.5 -52t38.5 -15q37 0 72 21t95 73z" />
    <glyph glyph-name="v" unicode="v" horiz-adv-x="550" 
d="M540 490q-22 -122 -77 -268q-39 -102 -77 -154q-24 -37 -50.5 -52.5t-72.5 -15.5h-99q-32 0 -37 31l-88 459h128l57 -400h14q20 0 32.5 7t26.5 28q27 41 61 138q33 92 55 227h127z" />
    <glyph glyph-name="w" unicode="w" horiz-adv-x="872" 
d="M166 491l52 -401h13q30 0 50 44q20 40 40 125q16 69 34 202q1 13 10.5 21t22.5 8h126q12 0 20 -7.5t10 -19.5l36 -373h11q23 0 42 39q30 55 57 135q28 89 47 226h125q-29 -146 -75 -267q-39 -102 -76 -157q-23 -35 -48.5 -50.5t-66.5 -15.5h-71q-15 0 -25 9t-12 23
l-32 382h-13q-8 -95 -29 -183q-24 -93 -51 -144q-24 -50 -58 -68.5t-81 -18.5h-67q-15 0 -25 9t-12 23l-80 459h126z" />
    <glyph glyph-name="x" unicode="x" horiz-adv-x="544" 
d="M547 490l-177 -238l119 -252h-120l-94 210h-16l-154 -210h-132l191 253l-109 237h119l83 -192h21l141 192h128z" />
    <glyph glyph-name="y" unicode="y" horiz-adv-x="560" 
d="M422 490h127q-48 -239 -139 -412q-78 -147 -159 -207.5t-195 -74.5l-19 82q66 16 113 41.5t89 80.5h-51q-23 0 -40 13.5t-21 35.5l-89 441h128l63 -384q3 -16 19 -16h46l6.5 13t6.5 14q81 175 115 373z" />
    <glyph glyph-name="z" unicode="z" horiz-adv-x="515" 
d="M482 397h1l-328 -304h289l-13 -93h-428l13 93h-1l328 304h-280l12 93h420z" />
    <glyph glyph-name="braceleft" unicode="{" horiz-adv-x="330" 
d="M355 768l-4 -75q-47 0 -68.5 -16.5t-27.5 -57.5l-23 -163q-8 -65 -30.5 -92t-82.5 -37q53 -17 71 -45.5t10 -81.5l-31 -220q-5 -40 9 -55t61 -15l-4 -75q-101 -11 -146.5 27t-34.5 112l34 246q3 24 -2 36.5t-13.5 17t-35.5 14.5l10 82q39 11 51 22t18 53l26 189
q11 76 61 110.5t152 23.5z" />
    <glyph glyph-name="bar" unicode="|" horiz-adv-x="253" 
d="M238 781l-134 -950h-86l133 950h87z" />
    <glyph glyph-name="braceright" unicode="}" horiz-adv-x="332" 
d="M102 768q103 11 147.5 -28t34.5 -111l-27 -189q-5 -40 1 -50t37 -19l9 -3l-11 -82q-28 -9 -38.5 -14.5t-20.5 -19t-13 -37.5l-34 -246q-10 -76 -59 -110.5t-155 -23.5l6 75q47 0 68 16t26 57l31 221q9 55 33 81.5t86 43.5q-54 10 -71.5 39t-7.5 92l23 163q6 40 -8 55
t-61 15z" />
    <glyph glyph-name="asciitilde" unicode="~" horiz-adv-x="516" 
d="M148 357q36 -2 108.5 -27t89.5 -27q26 -3 37 9t16 42l57 -4q1 -67 -24 -100.5t-66 -31.5q-41 1 -112 26t-86 27q-26 4 -37 -8.5t-15 -43.5l-58 4q0 68 26 102t64 32z" />
    <glyph glyph-name="uni00A0" unicode="&#xa0;" horiz-adv-x="220" 
 />
    <glyph glyph-name="exclamdown" unicode="&#xa1;" horiz-adv-x="270" 
d="M177 501q48 0 39 -46l-6 -51q-6 -40 -47 -40h-28q-47 0 -41 44l7 52q6 41 47 41h29zM183 285l-16 -194l-39 -281h-120l39 281l40 194h96z" />
    <glyph glyph-name="cent" unicode="&#xa2;" horiz-adv-x="510" 
d="M474 502l-107 3l-73 -316q71 0 140 10l8 -81q-72 -27 -174 -29l-21 -89h-51l22 91q-106 9 -145.5 71t-20.5 190q20 140 79.5 196.5t187.5 56.5h23l21 85h51l-22 -90q59 -7 99 -24zM179 344q-10 -84 3.5 -116t61.5 -37l73 314q-67 -3 -97 -36.5t-41 -124.5z" />
    <glyph glyph-name="sterling" unicode="&#xa3;" horiz-adv-x="575" 
d="M374 597q-54 0 -77 -18t-27 -68l-8 -113h192l-13 -68h-183l-4 -58q-6 -66 -27.5 -103t-69.5 -71q26 7 70 7h277l-14 -105h-477l14 106q93 40 104 171l4 53h-77l9 68h73l10 122q9 110 59 146t156 36q88 0 197 -10l-14 -98q-70 3 -174 3z" />
    <glyph glyph-name="currency" unicode="&#xa4;" horiz-adv-x="591" 
d="M502 347q-9 -66 -46 -114l68 -75l-54 -50l-69 76q-51 -31 -119 -31t-114 34l-76 -68l-49 56l77 69q-23 50 -16 113q9 67 48 117l-67 74l55 51l68 -77q50 30 115 30q69 0 115 -34l77 69l49 -56l-78 -69q25 -50 16 -115zM284 220q61 0 101 36.5t47 99.5q6 60 -24.5 94.5
t-87.5 34.5q-60 0 -99.5 -36.5t-46.5 -99.5q-7 -60 23 -94.5t87 -34.5z" />
    <glyph glyph-name="yen" unicode="&#xa5;" horiz-adv-x="631" 
d="M658 690l-227 -357h116l-10 -68h-150l-21 -34l-2 -14h167l-10 -67h-166l-21 -150h-126l21 150h-164l9 67h165l3 21l-10 27h-150l8 68h118l-127 357h127l87 -270q13 -44 16 -84h10q10 41 37 87l164 267h136z" />
    <glyph glyph-name="brokenbar" unicode="&#xa6;" horiz-adv-x="254" 
d="M239 781l-56 -400h-88l57 400h87zM162 231l-56 -400h-88l56 400h88z" />
    <glyph glyph-name="section" unicode="&#xa7;" horiz-adv-x="544" 
d="M313 703q130 -2 222 -12l-15 -92q-47 4 -174 5q-67 1 -93.5 -7.5t-31.5 -40.5q-4 -26 7 -42.5t37 -32.5l135 -81q68 -41 79 -100t-25 -142l-86 1q13 61 3.5 95.5t-50.5 60.5l-148 93q-47 30 -68.5 64.5t-12.5 95.5q11 80 63.5 107.5t157.5 27.5zM83 370l86 -2
q-14 -60 -5 -92t51 -58l149 -93q22 -13 35.5 -25t27 -30.5t18 -45t-0.5 -60.5q-12 -83 -63.5 -109.5t-157.5 -26.5q-135 2 -222 12l16 92q64 -4 172 -6q64 0 92.5 9t34.5 42q4 26 -6.5 42.5t-35.5 31.5l-134 80q-70 39 -82 96.5t25 142.5z" />
    <glyph glyph-name="dieresis" unicode="&#xa8;" horiz-adv-x="418" 
d="M209 703q17 0 23 -7t4 -23l-9 -58q-3 -28 -31 -28h-42q-30 0 -27 28l9 58q4 30 35 30h38zM378 703q32 0 27 -30l-9 -58q-3 -28 -31 -28h-42q-30 0 -27 28l9 58q4 30 35 30h38z" />
    <glyph glyph-name="copyright" unicode="&#xa9;" horiz-adv-x="821" 
d="M453 703q163 0 253.5 -101t71.5 -262q-19 -155 -127.5 -254t-270.5 -99q-164 0 -253 102.5t-69 260.5q19 154 126.5 253.5t268.5 99.5zM457 645q-135 0 -228 -85t-109 -220q-16 -133 56 -214t203 -81q134 0 227.5 85t109.5 220q15 130 -55 212.5t-204 82.5zM458 560
q63 0 125 -14l-11 -68q-65 3 -109 3q-75 0 -103 -24.5t-40 -112.5q-10 -78 6 -104.5t72 -26.5q70 -1 141 4l5 -67q-64 -16 -135 -16q-119 0 -158 47t-22 170q16 119 66 164t163 45z" />
    <glyph glyph-name="ordfeminine" unicode="&#xaa;" horiz-adv-x="447" 
d="M242 611q103 0 180 -20l-45 -318h-72v51q-55 -57 -136 -58q-61 -1 -85.5 41t-12.5 137q7 57 22.5 92t40.5 50.5t48 20t60 4.5zM163 440q-8 -64 -2 -80.5t31 -16.5q46 0 114 60l20 138h-62q-57 0 -74 -16t-27 -85z" />
    <glyph glyph-name="guillemotleft" unicode="&#xab;" horiz-adv-x="496" 
d="M216 462l52 -43l-136 -168l98 -176l-60 -40l-138 208l2 26zM412 462l52 -43l-136 -168l98 -176l-60 -40l-138 208l2 26z" />
    <glyph glyph-name="logicalnot" unicode="&#xac;" horiz-adv-x="583" 
d="M70 345h451l-30 -211h-92l17 121h-358z" />
    <glyph glyph-name="uni00AD" unicode="&#xad;" horiz-adv-x="427" 
d="M363 297l-12 -86h-300l12 86h300z" />
    <glyph glyph-name="registered" unicode="&#xae;" horiz-adv-x="538" 
d="M315 702q95 0 154 -59.5t48 -166.5q-11 -103 -75.5 -161t-164.5 -58q-103 0 -159.5 63.5t-44.5 164.5q11 100 76 158.5t166 58.5zM480 485q7 87 -38.5 135t-127.5 48q-89 0 -142 -52t-62 -137q-9 -89 37.5 -138t129.5 -49q88 0 141.5 51t61.5 142zM322 607q48 0 72.5 -15
t18.5 -61q-3 -24 -15 -37.5t-40 -20.5l-1 -2q18 -7 24 -37l18 -74h-56l-15 75q-4 13 -10 17.5t-18 4.5h-55l-14 -97h-53l35 244q35 3 109 3zM359 533q3 21 -5.5 27.5t-34.5 6.5h-59l-10 -73h51q30 1 42.5 8t15.5 31z" />
    <glyph glyph-name="macron" unicode="&#xaf;" horiz-adv-x="400" 
d="M407 685l-12 -84h-291l12 84h291z" />
    <glyph glyph-name="degree" unicode="&#xb0;" horiz-adv-x="354" 
d="M223 702q61 0 96 -38.5t30 -95.5q-6 -57 -45 -91.5t-97 -34.5q-62 0 -95.5 39.5t-28.5 96.5q5 55 43.5 89.5t96.5 34.5zM220 636q-28 0 -46.5 -16.5t-20.5 -44.5q-3 -30 13 -48t45 -18t47 16.5t20 45.5t-13 47t-45 18z" />
    <glyph glyph-name="plusminus" unicode="&#xb1;" horiz-adv-x="578" 
d="M351 411h179l-12 -90h-180l-18 -125h-90l18 125h-179l12 90h179l18 126h91zM31 55l13 90h449l-13 -90h-449z" />
    <glyph glyph-name="uni00B2" unicode="&#xb2;" horiz-adv-x="433" 
d="M279 781q78 0 113 -16.5t35 -63.5q0 -72 -97 -154l-129 -108q23 4 64 4l142 -1l-13 -82h-324l8 51q3 25 20 39l127 106q97 80 97 121q0 15 -15 20t-46 5q-61 0 -135 -5l6 70q76 14 147 14z" />
    <glyph glyph-name="uni00B3" unicode="&#xb3;" horiz-adv-x="414" 
d="M275 782q76 0 109.5 -17t33.5 -56q0 -53 -23.5 -88t-70.5 -40v-2q75 -11 75 -75q0 -83 -42.5 -117.5t-129.5 -34.5q-70 0 -158 11l14 69q69 -4 127 -4q50 0 72.5 16t22.5 57q0 40 -67 40h-85l8 67h86q75 0 75 66q0 19 -15 25.5t-55 6.5q-57 0 -123 -2l6 67q77 11 140 11z
" />
    <glyph glyph-name="acute" unicode="&#xb4;" horiz-adv-x="337" 
d="M305 732l52 -91l-225 -111l-33 54z" />
    <glyph glyph-name="uni00B5" unicode="&#xb5;" horiz-adv-x="595" 
d="M511 76h40l-3 -70q-64 -17 -101 -17q-88 0 -79 87l1 14q-27 -45 -73.5 -74t-102.5 -29q-18 0 -38 5l-8 -57l-33 -130h-105l46 329q0 2 0.5 4t0.5 4l48 348h122l-47 -332q-8 -59 50 -59q20 0 43 9.5t47.5 31t45.5 62.5t31 97l-3 -25l30 216h121l-51 -369
q-4 -24 -0.5 -34.5t18.5 -10.5z" />
    <glyph glyph-name="paragraph" unicode="&#xb6;" horiz-adv-x="589" 
d="M390 702q97 0 165 -17l-96 -685h-86l88 625q-54 2 -72 2l-118 -837h-85l57 411q-117 12 -162.5 73t-28.5 181q19 136 96 191.5t242 55.5z" />
    <glyph glyph-name="periodcentered" unicode="&#xb7;" horiz-adv-x="246" 
d="M143 326q46 0 40 -45l-7 -51q-4 -41 -46 -41h-36q-47 0 -41 46l8 51q4 40 46 40h36z" />
    <glyph glyph-name="cedilla" unicode="&#xb8;" horiz-adv-x="242" 
d="M40 -40q72 8 102.5 -6t21.5 -63q-11 -68 -67 -102t-133 -23l20 58q36 -1 63.5 17t33.5 47q2 12 -7.5 15.5t-47.5 3.5z" />
    <glyph glyph-name="uni00B9" unicode="&#xb9;" horiz-adv-x="301" 
d="M307 774l-58 -414h-93l41 288q4 30 9 45l-109 -24l-2 63l119 42h93z" />
    <glyph glyph-name="ordmasculine" unicode="&#xba;" horiz-adv-x="438" 
d="M255 612q95 0 131 -41t22 -138q-13 -93 -55 -130t-132 -37q-93 0 -129.5 40.5t-23.5 135.5q13 94 54.5 132t132.5 38zM255 541q-49 0 -67.5 -22t-27.5 -86q-8 -57 4.5 -77t58.5 -20q45 0 64.5 22t28.5 84q8 59 -4.5 79t-56.5 20z" />
    <glyph glyph-name="guillemotright" unicode="&#xbb;" horiz-adv-x="498" 
d="M72 32l-52 43l136 168l-98 176l60 40l138 -208l-2 -26zM268 32l-52 43l136 168l-98 176l60 40l138 -208l-2 -26z" />
    <glyph glyph-name="onequarter" unicode="&#xbc;" horiz-adv-x="880" 
d="M178 566q4 30 10 46l-108 -27l-1 63l117 42h93l-58 -414h-94zM626 690h84l-525 -690h-85zM829 159l-9 -62l-53 -7l-13 -90h-86l12 89h-179q-30 0 -42.5 20.5t5.5 53.5l152 251h90l-141 -238q-9 -17 10 -17h114l15 108l25 67h72l-25 -175h53z" />
    <glyph glyph-name="onehalf" unicode="&#xbd;" horiz-adv-x="893" 
d="M289 690l-58 -414h-94l41 290q4 30 10 46l-108 -27l-1 63l117 42h93zM702 690l-525 -690h-85l526 690h84zM690 421q86 0 123 -22t28 -84q-8 -60 -91 -129l-135 -107q24 4 64 4l145 -1l-12 -82h-323l7 54q3 25 16 38l127 105q89 72 100 114q5 20 -8 26t-46 6
q-63 0 -137 -5l-1 69q71 14 143 14z" />
    <glyph glyph-name="threequarters" unicode="&#xbe;" horiz-adv-x="969" 
d="M372 384q-7 -63 -45 -90.5t-123 -27.5q-68 0 -154 11l6 69q71 -4 125 -4q50 0 71.5 14.5t26.5 49.5q4 24 -7.5 37t-52.5 13h-90l9 66h85q68 0 74 57q4 25 -8 33t-53 8q-53 0 -127 -2l-1 67q69 11 139 11q88 0 119.5 -22.5t23.5 -78.5q-6 -44 -25 -69t-62 -31l-6 -3
q47 -7 63.5 -33t11.5 -75zM723 690h85l-526 -690h-84zM918 159l-10 -62l-52 -7l-13 -90h-87l12 89h-178q-30 0 -42.5 20.5t5.5 53.5l152 251h90l-141 -238q-9 -17 9 -17h114l15 108l26 67h72l-25 -175h53z" />
    <glyph glyph-name="questiondown" unicode="&#xbf;" horiz-adv-x="498" 
d="M301 505q48 0 42 -46l-8 -51q-4 -41 -46 -41h-28q-47 0 -41 45l7 52q6 41 46 41h28zM310 287q-6 -50 -26.5 -92.5t-46.5 -71.5t-52 -53.5t-46.5 -50.5t-25.5 -52q-8 -37 13.5 -55t76.5 -18q119 0 202 7v-85q-5 -1 -23 -4.5t-22.5 -4t-19.5 -3.5t-22 -3.5t-21.5 -2.5
t-25.5 -2.5t-27 -1.5t-33 -1h-37q-103 0 -152 44t-39 116q5 40 27.5 74t52 60.5t59.5 53t55 64t34 82.5h99z" />
    <glyph glyph-name="Agrave" unicode="&#xc0;" horiz-adv-x="634" 
d="M447 777l-41 -53l-210 117l60 84zM466 0l-29 194h-258l-83 -194h-131l300 659q10 31 46 31h123q16 0 27.5 -10.5t12.5 -25.5l117 -654h-125zM224 300h197l-35 234l-6 63h-30q-8 -21 -25 -62z" />
    <glyph glyph-name="Aacute" unicode="&#xc1;" horiz-adv-x="634" 
d="M570 835l-225 -111l-33 54l206 148zM466 0l-29 194h-258l-83 -194h-131l300 659q10 31 46 31h123q16 0 27.5 -10.5t12.5 -25.5l117 -654h-125zM224 300h197l-35 234l-6 63h-30q-8 -21 -25 -62z" />
    <glyph glyph-name="Acircumflex" unicode="&#xc2;" horiz-adv-x="634" 
d="M396 821l-152 -98l-32 50l147 131h85l126 -138l-41 -45l-125 100h-8zM466 0l-29 194h-258l-83 -194h-131l300 659q10 31 46 31h123q16 0 27.5 -10.5t12.5 -25.5l117 -654h-125zM224 300h197l-35 234l-6 63h-30q-8 -21 -25 -62z" />
    <glyph glyph-name="Atilde" unicode="&#xc3;" horiz-adv-x="634" 
d="M327 808q-27 4 -39 -9t-16 -42l-53 5q1 65 27 97.5t65 30.5q34 -3 79.5 -25t67.5 -25q27 -4 39.5 7.5t16.5 39.5l53 -5q0 -62 -25 -95t-65 -31q-39 3 -86.5 26t-63.5 26zM466 0l-29 194h-258l-83 -194h-131l300 659q10 31 46 31h123q16 0 27.5 -10.5t12.5 -25.5l117 -654
h-125zM224 300h197l-35 234l-6 63h-30q-8 -21 -25 -62z" />
    <glyph glyph-name="Adieresis" unicode="&#xc4;" horiz-adv-x="634" 
d="M282 763q-30 0 -27 28l9 58q4 30 35 30h38q32 0 27 -30l-9 -58q-3 -28 -31 -28h-42zM451 763q-30 0 -27 28l9 58q4 30 35 30h38q32 0 27 -30l-9 -58q-3 -28 -31 -28h-42zM466 0l-29 194h-258l-83 -194h-131l300 659q10 31 46 31h123q16 0 27.5 -10.5t12.5 -25.5l117 -654
h-125zM224 300h197l-35 234l-6 63h-30q-8 -21 -25 -62z" />
    <glyph glyph-name="Aring" unicode="&#xc5;" horiz-adv-x="634" 
d="M389 713q-47 0 -77 28t-30 73q0 52 33 85.5t85 33.5q48 0 78.5 -28t30.5 -73q0 -52 -33.5 -85.5t-86.5 -33.5zM399 877q-26 0 -41 -16t-15 -41q0 -23 13 -37t36 -14q24 0 39.5 16t15.5 41q0 24 -12.5 37.5t-35.5 13.5zM466 0l-29 194h-258l-83 -194h-131l300 659
q10 31 46 31h123q16 0 27.5 -10.5t12.5 -25.5l117 -654h-125zM224 300h197l-35 234l-6 63h-30q-8 -21 -25 -62z" />
    <glyph glyph-name="AE" unicode="&#xc6;" horiz-adv-x="920" 
d="M664 588q-59 0 -67 -61l-17 -120h269l-12 -93h-270l-21 -155q-5 -32 6 -44.5t42 -12.5h250l-5 -96q-90 -8 -277 -8q-71 0 -108 40.5t-27 111.5l7 49h-216l-134 -199h-132l390 570q47 71 104 96t170 25q200 0 312 -7l-16 -96h-248zM289 304l159 -1l34 240q5 44 34 68h-6
q-28 -21 -55 -61z" />
    <glyph glyph-name="Ccedilla" unicode="&#xc7;" horiz-adv-x="574" 
d="M383 702q114 0 199 -23l-18 -94q-87 7 -184 7q-60 0 -94 -19.5t-57.5 -74t-37.5 -158.5q-20 -139 3 -190t106 -52q110 -1 203 10l6 -95q-84 -25 -212 -25q-153 0 -208.5 85.5t-28.5 276.5q27 197 98 274.5t225 77.5zM217 -54q72 8 102.5 -6t21.5 -63q-11 -68 -67 -102
t-133 -23l20 58q36 -1 63.5 17t33.5 47q2 12 -7.5 15.5t-47.5 3.5z" />
    <glyph glyph-name="Egrave" unicode="&#xc8;" horiz-adv-x="565" 
d="M440 794l-41 -53l-210 117l60 84zM290 588q-30 0 -43.5 -13t-17.5 -47l-17 -121h281l-12 -93h-282l-21 -155q-4 -32 7 -44.5t42 -12.5h260l-3 -96q-85 -8 -282 -8q-85 0 -123 41t-28 115l57 410q8 61 49 94.5t111 33.5q215 0 304 -9l-16 -95h-266z" />
    <glyph glyph-name="Eacute" unicode="&#xc9;" horiz-adv-x="565" 
d="M563 852l-225 -111l-33 54l206 148zM290 588q-30 0 -43.5 -13t-17.5 -47l-17 -121h281l-12 -93h-282l-21 -155q-4 -32 7 -44.5t42 -12.5h260l-3 -96q-85 -8 -282 -8q-85 0 -123 41t-28 115l57 410q8 61 49 94.5t111 33.5q215 0 304 -9l-16 -95h-266z" />
    <glyph glyph-name="Ecircumflex" unicode="&#xca;" horiz-adv-x="565" 
d="M389 838l-152 -98l-32 50l147 131h85l126 -138l-41 -45l-125 100h-8zM290 588q-30 0 -43.5 -13t-17.5 -47l-17 -121h281l-12 -93h-282l-21 -155q-4 -32 7 -44.5t42 -12.5h260l-3 -96q-85 -8 -282 -8q-85 0 -123 41t-28 115l57 410q8 61 49 94.5t111 33.5q215 0 304 -9
l-16 -95h-266z" />
    <glyph glyph-name="Edieresis" unicode="&#xcb;" horiz-adv-x="565" 
d="M275 780q-30 0 -27 28l9 58q4 30 35 30h38q32 0 27 -30l-9 -58q-3 -28 -31 -28h-42zM444 780q-30 0 -27 28l9 58q4 30 35 30h38q17 0 23 -7t4 -23l-9 -58q-3 -28 -31 -28h-42zM290 588q-30 0 -43.5 -13t-17.5 -47l-17 -121h281l-12 -93h-282l-21 -155q-4 -32 7 -44.5
t42 -12.5h260l-3 -96q-85 -8 -282 -8q-85 0 -123 41t-28 115l57 410q8 61 49 94.5t111 33.5q215 0 304 -9l-16 -95h-266z" />
    <glyph glyph-name="Igrave" unicode="&#xcc;" horiz-adv-x="279" 
d="M76 925l191 -148l-41 -53l-210 117zM258 690l-97 -690h-126l97 690h126z" />
    <glyph glyph-name="Iacute" unicode="&#xcd;" horiz-adv-x="279" 
d="M338 926l52 -91l-225 -111l-33 54zM258 690l-97 -690h-126l97 690h126z" />
    <glyph glyph-name="Icircumflex" unicode="&#xce;" horiz-adv-x="279" 
d="M264 904l126 -138l-41 -45l-125 100h-8l-152 -98l-32 50l147 131h85zM258 690l-97 -690h-126l97 690h126z" />
    <glyph glyph-name="Idieresis" unicode="&#xcf;" horiz-adv-x="279" 
d="M157 879q17 0 23 -7t4 -23l-9 -58q-3 -28 -31 -28h-42q-30 0 -27 28l9 58q4 30 35 30h38zM326 879q32 0 27 -30l-9 -58q-3 -28 -31 -28h-42q-30 0 -27 28l9 58q4 30 35 30h38zM258 690l-97 -690h-126l97 690h126z" />
    <glyph glyph-name="Eth" unicode="&#xd0;" horiz-adv-x="669" 
d="M365 699q168 0 227 -78.5t31 -280.5q-13 -92 -32.5 -154t-45.5 -101t-67.5 -59.5t-87 -27.5t-115.5 -7q-100 0 -240 9l47 332h-58l8 65h59l41 293q124 9 233 9zM492 350q9 65 10.5 106.5t-4.5 70t-24.5 43t-44 20t-68.5 5.5q-10 0 -51.5 -0.5t-66.5 -0.5l-27 -197h137
l-9 -65h-137l-33 -234q74 -2 100 -2q75 0 113.5 17.5t63.5 71.5t41 165z" />
    <glyph glyph-name="Ntilde" unicode="&#xd1;" horiz-adv-x="712" 
d="M352 890q34 -3 79.5 -25t67.5 -25q27 -4 39.5 7.5t16.5 39.5l53 -5q0 -62 -25 -95t-65 -31q-39 3 -86.5 26t-63.5 26q-27 4 -39 -9t-16 -42l-53 5q1 65 27 97.5t65 30.5zM692 690l-92 -646q-6 -44 -48 -44h-91q-33 0 -47 40l-145 423q-19 53 -28 101h-12q-1 -44 -8 -101
l-63 -463h-123l91 646q6 44 49 44h90q33 0 47 -40l140 -411q25 -76 34 -109h14q1 54 9 108l61 452h122z" />
    <glyph glyph-name="Ograve" unicode="&#xd2;" horiz-adv-x="672" 
d="M268 925l191 -148l-41 -53l-210 117zM387 703q151 0 209 -82.5t31 -280.5q-27 -201 -99 -277t-225 -76t-211.5 81t-31.5 282q27 197 99 275t228 78zM382 596q-91 0 -130 -52.5t-61 -203.5q-20 -142 4 -194t111 -52q88 0 128.5 54t61.5 202q22 145 -2.5 195.5t-111.5 50.5
z" />
    <glyph glyph-name="Oacute" unicode="&#xd3;" horiz-adv-x="672" 
d="M530 926l52 -91l-225 -111l-33 54zM387 703q151 0 209 -82.5t31 -280.5q-27 -201 -99 -277t-225 -76t-211.5 81t-31.5 282q27 197 99 275t228 78zM382 596q-91 0 -130 -52.5t-61 -203.5q-20 -142 4 -194t111 -52q88 0 128.5 54t61.5 202q22 145 -2.5 195.5t-111.5 50.5z
" />
    <glyph glyph-name="Ocircumflex" unicode="&#xd4;" horiz-adv-x="672" 
d="M456 904l126 -138l-41 -45l-125 100h-8l-152 -98l-32 50l147 131h85zM387 703q151 0 209 -82.5t31 -280.5q-27 -201 -99 -277t-225 -76t-211.5 81t-31.5 282q27 197 99 275t228 78zM382 596q-91 0 -130 -52.5t-61 -203.5q-20 -142 4 -194t111 -52q88 0 128.5 54t61.5 202
q22 145 -2.5 195.5t-111.5 50.5z" />
    <glyph glyph-name="Otilde" unicode="&#xd5;" horiz-adv-x="672" 
d="M323 890q34 -3 79.5 -25t67.5 -25q27 -4 39.5 7.5t16.5 39.5l53 -5q0 -62 -25 -95t-65 -31q-39 3 -86.5 26t-63.5 26q-27 4 -39 -9t-16 -42l-53 5q1 65 27 97.5t65 30.5zM387 703q151 0 209 -82.5t31 -280.5q-27 -201 -99 -277t-225 -76t-211.5 81t-31.5 282
q27 197 99 275t228 78zM382 596q-91 0 -130 -52.5t-61 -203.5q-20 -142 4 -194t111 -52q88 0 128.5 54t61.5 202q22 145 -2.5 195.5t-111.5 50.5z" />
    <glyph glyph-name="Odieresis" unicode="&#xd6;" horiz-adv-x="672" 
d="M349 879q32 0 27 -30l-9 -58q-3 -28 -31 -28h-42q-30 0 -27 28l9 58q4 30 35 30h38zM518 879q32 0 27 -30l-9 -58q-3 -28 -31 -28h-42q-30 0 -27 28l9 58q4 30 35 30h38zM387 703q151 0 209 -82.5t31 -280.5q-27 -201 -99 -277t-225 -76t-211.5 81t-31.5 282
q27 197 99 275t228 78zM382 596q-91 0 -130 -52.5t-61 -203.5q-20 -142 4 -194t111 -52q88 0 128.5 54t61.5 202q22 145 -2.5 195.5t-111.5 50.5z" />
    <glyph glyph-name="multiply" unicode="&#xd7;" horiz-adv-x="524" 
d="M493 414l-163 -130l120 -124l-65 -67l-129 133l-171 -136l-52 77l159 125l-121 125l66 66l128 -132l177 139z" />
    <glyph glyph-name="Oslash" unicode="&#xd8;" horiz-adv-x="672" 
d="M566 654q93 -77 61 -314q-27 -201 -99 -277t-225 -76q-79 0 -130 19l-43 -70l-50 30l42 69q-94 77 -62 315q27 197 99 275t228 78q78 0 128 -20l45 74l51 -29zM191 340q-20 -137 1 -189l263 433q-25 12 -73 12q-91 0 -130 -52.5t-61 -203.5zM496 350q21 136 0 189
l-262 -433q27 -12 72 -12q88 0 128.5 54t61.5 202z" />
    <glyph glyph-name="Ugrave" unicode="&#xd9;" horiz-adv-x="668" 
d="M268 925l191 -148l-41 -53l-210 117zM653 690l-60 -422q-22 -154 -88 -217.5t-202 -63.5q-140 0 -198 67t-37 219l58 417h126l-59 -422q-14 -100 9 -137t99 -37q79 0 116 39.5t52 139.5l58 417h126z" />
    <glyph glyph-name="Uacute" unicode="&#xda;" horiz-adv-x="668" 
d="M530 926l52 -91l-225 -111l-33 54zM653 690l-60 -422q-22 -154 -88 -217.5t-202 -63.5q-140 0 -198 67t-37 219l58 417h126l-59 -422q-14 -100 9 -137t99 -37q79 0 116 39.5t52 139.5l58 417h126z" />
    <glyph glyph-name="Ucircumflex" unicode="&#xdb;" horiz-adv-x="668" 
d="M456 904l126 -138l-41 -45l-125 100h-8l-152 -98l-32 50l147 131h85zM653 690l-60 -422q-22 -154 -88 -217.5t-202 -63.5q-140 0 -198 67t-37 219l58 417h126l-59 -422q-14 -100 9 -137t99 -37q79 0 116 39.5t52 139.5l58 417h126z" />
    <glyph glyph-name="Udieresis" unicode="&#xdc;" horiz-adv-x="668" 
d="M349 879q32 0 27 -30l-9 -58q-3 -28 -31 -28h-42q-30 0 -27 28l9 58q4 30 35 30h38zM518 879q32 0 27 -30l-9 -58q-3 -28 -31 -28h-42q-30 0 -27 28l9 58q4 30 35 30h38zM653 690l-60 -422q-22 -154 -88 -217.5t-202 -63.5q-140 0 -198 67t-37 219l58 417h126l-59 -422
q-14 -100 9 -137t99 -37q79 0 116 39.5t52 139.5l58 417h126z" />
    <glyph glyph-name="Yacute" unicode="&#xdd;" horiz-adv-x="586" 
d="M530 835l-225 -111l-33 54l206 148zM636 690l-291 -457l-33 -233h-126l34 240l-161 450h127l87 -270q13 -38 16 -84h10q9 38 38 87l163 267h136z" />
    <glyph glyph-name="Thorn" unicode="&#xde;" horiz-adv-x="598" 
d="M358 573q127 0 178 -50.5t33 -179.5q-18 -128 -72.5 -174t-172.5 -46q-68 0 -144 9l-19 -132h-126l97 690h126l-17 -118q32 1 117 1zM444 352q10 72 -8 95t-82 23q-91 0 -127 -1l-34 -243h116q68 1 96 26t39 100z" />
    <glyph glyph-name="germandbls" unicode="&#xdf;" horiz-adv-x="689" 
d="M572 253q42 -31 57.5 -60t9.5 -78q-10 -73 -56.5 -99.5t-143.5 -26.5q-75 0 -163 11l14 88q45 -2 122 -2q56 0 78.5 9t26.5 37q2 20 -7.5 32.5t-39.5 34.5l-83 56q-72 50 -62 117q3 19 11.5 35.5t27.5 33.5t32 26.5t44 31.5q39 26 54 43.5t18 39.5q4 26 -16 38t-87 12
q-76 0 -106 -20t-38 -78l-82 -584q-11 -73 -53 -109.5t-119 -36.5q-53 0 -124 9l19 86h71q44 0 62 14t25 56l62 433h-89l12 83l89 5l9 62q14 105 72.5 140t182.5 35q139 0 189 -33t37 -113q-6 -37 -25 -66.5t-68 -63.5q-7 -5 -24.5 -16t-25.5 -17t-19 -15t-16.5 -17
t-7.5 -17q-1 -4 -1 -7.5t1 -7t2.5 -6t4.5 -6t5.5 -6t7.5 -6.5t8 -6t9.5 -6.5t10.5 -7.5z" />
    <glyph glyph-name="agrave" unicode="&#xe0;" 
d="M391 597l-41 -53l-210 117l60 84zM294 504q127 0 247 -29l-67 -475h-96l2 84q-83 -95 -204 -96q-90 -1 -122.5 59t-12.5 206q12 83 33.5 134.5t56.5 76.5t70.5 32.5t92.5 7.5zM208 90q43 0 82.5 24t87.5 74l32 218q-40 1 -90 1q-46 0 -70 -4.5t-42.5 -22t-27 -47.5
t-16.5 -86q-14 -103 -5.5 -130t49.5 -27z" />
    <glyph glyph-name="aacute" unicode="&#xe1;" 
d="M514 655l-225 -111l-33 54l206 148zM294 504q127 0 247 -29l-67 -475h-96l2 84q-83 -95 -204 -96q-90 -1 -122.5 59t-12.5 206q12 83 33.5 134.5t56.5 76.5t70.5 32.5t92.5 7.5zM208 90q43 0 82.5 24t87.5 74l32 218q-40 1 -90 1q-46 0 -70 -4.5t-42.5 -22t-27 -47.5
t-16.5 -86q-14 -103 -5.5 -130t49.5 -27z" />
    <glyph glyph-name="acircumflex" unicode="&#xe2;" 
d="M340 641l-152 -98l-32 50l147 131h85l126 -138l-41 -45l-125 100h-8zM294 504q127 0 247 -29l-67 -475h-96l2 84q-83 -95 -204 -96q-90 -1 -122.5 59t-12.5 206q12 83 33.5 134.5t56.5 76.5t70.5 32.5t92.5 7.5zM208 90q43 0 82.5 24t87.5 74l32 218q-40 1 -90 1
q-46 0 -70 -4.5t-42.5 -22t-27 -47.5t-16.5 -86q-14 -103 -5.5 -130t49.5 -27z" />
    <glyph glyph-name="atilde" unicode="&#xe3;" 
d="M271 628q-27 4 -39 -9t-16 -42l-53 5q1 65 27 97.5t65 30.5q34 -3 79.5 -25t67.5 -25q27 -4 39.5 7.5t16.5 39.5l53 -5q0 -62 -25 -95t-65 -31q-39 3 -86.5 26t-63.5 26zM294 504q127 0 247 -29l-67 -475h-96l2 84q-83 -95 -204 -96q-90 -1 -122.5 59t-12.5 206
q12 83 33.5 134.5t56.5 76.5t70.5 32.5t92.5 7.5zM208 90q43 0 82.5 24t87.5 74l32 218q-40 1 -90 1q-46 0 -70 -4.5t-42.5 -22t-27 -47.5t-16.5 -86q-14 -103 -5.5 -130t49.5 -27z" />
    <glyph glyph-name="adieresis" unicode="&#xe4;" 
d="M226 583q-30 0 -27 28l9 58q4 30 35 30h38q17 0 23 -7t4 -23l-9 -58q-3 -28 -31 -28h-42zM395 583q-30 0 -27 28l9 58q4 30 35 30h38q32 0 27 -30l-9 -58q-3 -28 -31 -28h-42zM294 504q127 0 247 -29l-67 -475h-96l2 84q-83 -95 -204 -96q-90 -1 -122.5 59t-12.5 206
q12 83 33.5 134.5t56.5 76.5t70.5 32.5t92.5 7.5zM208 90q43 0 82.5 24t87.5 74l32 218q-40 1 -90 1q-46 0 -70 -4.5t-42.5 -22t-27 -47.5t-16.5 -86q-14 -103 -5.5 -130t49.5 -27z" />
    <glyph glyph-name="aring" unicode="&#xe5;" 
d="M333 533q-47 0 -77 28t-30 73q0 52 33 85.5t85 33.5q48 0 78.5 -28t30.5 -73q0 -52 -33.5 -85.5t-86.5 -33.5zM343 697q-26 0 -41 -16t-15 -41q0 -23 13 -37t36 -14q24 0 39.5 16t15.5 41q0 24 -12.5 37.5t-35.5 13.5zM294 504q127 0 247 -29l-67 -475h-96l2 84
q-83 -95 -204 -96q-90 -1 -122.5 59t-12.5 206q12 83 33.5 134.5t56.5 76.5t70.5 32.5t92.5 7.5zM208 90q43 0 82.5 24t87.5 74l32 218q-40 1 -90 1q-46 0 -70 -4.5t-42.5 -22t-27 -47.5t-16.5 -86q-14 -103 -5.5 -130t49.5 -27z" />
    <glyph glyph-name="ae" unicode="&#xe6;" horiz-adv-x="880" 
d="M651 504q121 0 163.5 -41.5t31.5 -121.5q-10 -72 -56 -104t-141 -38l-155 -13q1 -58 28 -78.5t83 -20.5q84 0 178 12l8 -79q-73 -32 -202 -32q-162 0 -204 104q-80 -103 -209 -104q-90 -1 -122.5 59t-12.5 206q12 83 33 134.5t55 76t68.5 32.5t90.5 8q104 0 216 -21
q55 21 147 21zM727 352q3 38 -15 47t-77 9q-66 -1 -93.5 -28.5t-40.5 -112.5l140 13q42 3 61.5 18.5t24.5 53.5zM208 90q72 0 161 89q0 43 5 79q12 94 42 148q-43 1 -96 1q-45 0 -68.5 -4.5t-42 -22t-27 -47.5t-16.5 -86q-13 -103 -5 -130t47 -27z" />
    <glyph glyph-name="ccedilla" unicode="&#xe7;" horiz-adv-x="494" 
d="M306 504q106 0 172 -29l-17 -74q-102 2 -137 2q-80 0 -113.5 -31.5t-45.5 -128.5q-12 -98 9 -126.5t96 -28.5q84 0 151 10l8 -81q-76 -29 -181 -29q-132 0 -181 61t-29 201t80 197t188 57zM171 -52q72 8 102.5 -6t21.5 -63q-11 -68 -67 -102t-133 -23l20 58
q36 -1 63.5 17t33.5 47q2 12 -7.5 15.5t-47.5 3.5z" />
    <glyph glyph-name="egrave" unicode="&#xe8;" horiz-adv-x="548" 
d="M388 597l-41 -53l-210 117l60 84zM317 504q122 0 164.5 -41.5t31.5 -121.5q-10 -72 -56 -104t-141 -38l-155 -13q1 -58 28 -78.5t82 -20.5q83 0 184 12l8 -79q-77 -32 -208 -32t-182 66.5t-33 203.5q19 141 79 193.5t198 52.5zM394 352q3 38 -15 47t-77 9
q-66 -1 -93.5 -28.5t-40.5 -112.5l140 13q42 3 61.5 18.5t24.5 53.5z" />
    <glyph glyph-name="eacute" unicode="&#xe9;" horiz-adv-x="548" 
d="M511 655l-225 -111l-33 54l206 148zM317 504q122 0 164.5 -41.5t31.5 -121.5q-10 -72 -56 -104t-141 -38l-155 -13q1 -58 28 -78.5t82 -20.5q83 0 184 12l8 -79q-77 -32 -208 -32t-182 66.5t-33 203.5q19 141 79 193.5t198 52.5zM394 352q3 38 -15 47t-77 9
q-66 -1 -93.5 -28.5t-40.5 -112.5l140 13q42 3 61.5 18.5t24.5 53.5z" />
    <glyph glyph-name="ecircumflex" unicode="&#xea;" horiz-adv-x="548" 
d="M337 641l-152 -98l-32 50l147 131h85l126 -138l-41 -45l-125 100h-8zM317 504q122 0 164.5 -41.5t31.5 -121.5q-10 -72 -56 -104t-141 -38l-155 -13q1 -58 28 -78.5t82 -20.5q83 0 184 12l8 -79q-77 -32 -208 -32t-182 66.5t-33 203.5q19 141 79 193.5t198 52.5zM394 352
q3 38 -15 47t-77 9q-66 -1 -93.5 -28.5t-40.5 -112.5l140 13q42 3 61.5 18.5t24.5 53.5z" />
    <glyph glyph-name="edieresis" unicode="&#xeb;" horiz-adv-x="548" 
d="M223 583q-30 0 -27 28l9 58q4 30 35 30h38q32 0 27 -30l-9 -58q-3 -28 -31 -28h-42zM392 583q-30 0 -27 28l9 58q4 30 35 30h38q17 0 23 -7t4 -23l-9 -58q-3 -28 -31 -28h-42zM317 504q122 0 164.5 -41.5t31.5 -121.5q-10 -72 -56 -104t-141 -38l-155 -13q1 -58 28 -78.5
t82 -20.5q83 0 184 12l8 -79q-77 -32 -208 -32t-182 66.5t-33 203.5q19 141 79 193.5t198 52.5zM394 352q3 38 -15 47t-77 9q-66 -1 -93.5 -28.5t-40.5 -112.5l140 13q42 3 61.5 18.5t24.5 53.5z" />
    <glyph glyph-name="igrave" unicode="&#xec;" horiz-adv-x="264" 
d="M43 745l191 -148l-41 -53l-210 117zM220 490l-69 -490h-121l69 490h121z" />
    <glyph glyph-name="iacute" unicode="&#xed;" horiz-adv-x="264" 
d="M305 746l52 -91l-225 -111l-33 54zM220 490l-69 -490h-121l69 490h121z" />
    <glyph glyph-name="icircumflex" unicode="&#xee;" horiz-adv-x="264" 
d="M231 724l126 -138l-41 -45l-125 100h-8l-152 -98l-32 50l147 131h85zM220 490l-69 -490h-121l69 490h121z" />
    <glyph glyph-name="idieresis" unicode="&#xef;" horiz-adv-x="264" 
d="M124 699q32 0 27 -30l-9 -58q-3 -28 -31 -28h-42q-30 0 -27 28l9 58q4 30 35 30h38zM293 699q17 0 23 -7t4 -23l-9 -58q-3 -28 -31 -28h-42q-30 0 -27 28l9 58q4 30 35 30h38zM220 490l-69 -490h-121l69 490h121z" />
    <glyph glyph-name="eth" unicode="&#xf0;" horiz-adv-x="565" 
d="M436 623q105 -102 75 -343q-19 -151 -81.5 -222t-194.5 -71q-117 0 -166 58t-34 177q30 228 228 228q83 0 131 -43q-1 104 -44 153l-82 -60l-32 44l68 50q-47 22 -136 19l17 85q127 5 206 -40l80 59l32 -45zM242 84q67 0 99 46.5t46 162.5q1 6 2.5 17.5t1.5 16.5
q-44 27 -98 27q-62 0 -91.5 -33t-39.5 -105q-11 -73 7.5 -102.5t72.5 -29.5z" />
    <glyph glyph-name="ntilde" unicode="&#xf1;" horiz-adv-x="587" 
d="M281 628q-27 4 -39 -9t-16 -42l-53 5q1 65 27 97.5t65 30.5q34 -3 79.5 -25t67.5 -25q27 -4 39.5 7.5t16.5 39.5l53 -5q0 -62 -25 -95t-65 -31q-39 3 -86.5 26t-63.5 26zM416 504q62 0 94.5 -36t23.5 -102l-52 -366h-121l46 332q5 41 -2.5 55.5t-33.5 13.5q-38 0 -78 -22
t-104 -72l-42 -307h-121l69 490h96l-2 -101q121 115 227 115z" />
    <glyph glyph-name="ograve" unicode="&#xf2;" horiz-adv-x="573" 
d="M197 745l191 -148l-41 -53l-210 117zM311 504q130 0 180.5 -61.5t30.5 -202.5q-19 -138 -80.5 -195.5t-189.5 -57.5q-129 0 -181 61t-33 201q20 139 81 197t192 58zM310 407q-69 0 -100 -34t-45 -133q-14 -92 4 -124t84 -32q69 0 100 34.5t44 130.5q13 94 -4.5 126
t-82.5 32z" />
    <glyph glyph-name="oacute" unicode="&#xf3;" horiz-adv-x="573" 
d="M459 746l52 -91l-225 -111l-33 54zM311 504q130 0 180.5 -61.5t30.5 -202.5q-19 -138 -80.5 -195.5t-189.5 -57.5q-129 0 -181 61t-33 201q20 139 81 197t192 58zM310 407q-69 0 -100 -34t-45 -133q-14 -92 4 -124t84 -32q69 0 100 34.5t44 130.5q13 94 -4.5 126
t-82.5 32z" />
    <glyph glyph-name="ocircumflex" unicode="&#xf4;" horiz-adv-x="573" 
d="M385 724l126 -138l-41 -45l-125 100h-8l-152 -98l-32 50l147 131h85zM311 504q130 0 180.5 -61.5t30.5 -202.5q-19 -138 -80.5 -195.5t-189.5 -57.5q-129 0 -181 61t-33 201q20 139 81 197t192 58zM310 407q-69 0 -100 -34t-45 -133q-14 -92 4 -124t84 -32q69 0 100 34.5
t44 130.5q13 94 -4.5 126t-82.5 32z" />
    <glyph glyph-name="otilde" unicode="&#xf5;" horiz-adv-x="573" 
d="M252 710q34 -3 79.5 -25t67.5 -25q27 -4 39.5 7.5t16.5 39.5l53 -5q0 -62 -25 -95t-65 -31q-39 3 -86.5 26t-63.5 26q-27 4 -39 -9t-16 -42l-53 5q1 65 27 97.5t65 30.5zM311 504q130 0 180.5 -61.5t30.5 -202.5q-19 -138 -80.5 -195.5t-189.5 -57.5q-129 0 -181 61
t-33 201q20 139 81 197t192 58zM310 407q-69 0 -100 -34t-45 -133q-14 -92 4 -124t84 -32q69 0 100 34.5t44 130.5q13 94 -4.5 126t-82.5 32z" />
    <glyph glyph-name="odieresis" unicode="&#xf6;" horiz-adv-x="573" 
d="M278 699q32 0 27 -30l-9 -58q-3 -28 -31 -28h-42q-30 0 -27 28l9 58q4 30 35 30h38zM447 699q17 0 23 -7t4 -23l-9 -58q-3 -28 -31 -28h-42q-30 0 -27 28l9 58q4 30 35 30h38zM311 504q130 0 180.5 -61.5t30.5 -202.5q-19 -138 -80.5 -195.5t-189.5 -57.5q-129 0 -181 61
t-33 201q20 139 81 197t192 58zM310 407q-69 0 -100 -34t-45 -133q-14 -92 4 -124t84 -32q69 0 100 34.5t44 130.5q13 94 -4.5 126t-82.5 32z" />
    <glyph glyph-name="divide" unicode="&#xf7;" horiz-adv-x="555" 
d="M323 540q25 0 35 -11t6 -36l-5 -40q-3 -22 -14 -32t-34 -10h-29q-48 0 -42 46l6 40q4 43 48 43h29zM510 339l-14 -89h-450l14 89h450zM271 176q49 0 42 -47l-6 -40q-3 -22 -14 -32t-34 -10h-30q-25 0 -34.5 11t-5.5 36l5 39q6 43 48 43h29z" />
    <glyph glyph-name="oslash" unicode="&#xf8;" horiz-adv-x="573" 
d="M455 474q92 -55 67 -234q-19 -138 -80.5 -195.5t-189.5 -57.5q-46 0 -86 8l-47 -77l-45 26l42 69q-103 51 -78 236q20 139 81 197t192 58q57 0 96 -11l49 82l45 -26zM165 240q-15 -101 9 -131l178 294q-16 4 -42 4q-69 0 -100 -34t-45 -133zM397 249q13 90 -3 123
l-173 -286q18 -2 32 -2q69 0 100 34.5t44 130.5z" />
    <glyph glyph-name="ugrave" unicode="&#xf9;" horiz-adv-x="577" 
d="M393 603l-41 -53l-210 117l60 84zM417 490h120l-68 -490h-94l4 97q-116 -110 -218 -110q-68 0 -99 37t-21 101l51 365h121l-47 -333q-6 -37 3.5 -52t38.5 -15q37 0 72 21t95 73z" />
    <glyph glyph-name="uacute" unicode="&#xfa;" horiz-adv-x="577" 
d="M516 661l-225 -111l-33 54l206 148zM417 490h120l-68 -490h-94l4 97q-116 -110 -218 -110q-68 0 -99 37t-21 101l51 365h121l-47 -333q-6 -37 3.5 -52t38.5 -15q37 0 72 21t95 73z" />
    <glyph glyph-name="ucircumflex" unicode="&#xfb;" horiz-adv-x="577" 
d="M342 647l-152 -98l-32 50l147 131h85l126 -138l-41 -45l-125 100h-8zM417 490h120l-68 -490h-94l4 97q-116 -110 -218 -110q-68 0 -99 37t-21 101l51 365h121l-47 -333q-6 -37 3.5 -52t38.5 -15q37 0 72 21t95 73z" />
    <glyph glyph-name="udieresis" unicode="&#xfc;" horiz-adv-x="577" 
d="M228 589q-30 0 -27 28l9 58q4 30 35 30h38q32 0 27 -30l-9 -58q-3 -28 -31 -28h-42zM397 589q-30 0 -27 28l9 58q4 30 35 30h38q32 0 27 -30l-9 -58q-3 -28 -31 -28h-42zM417 490h120l-68 -490h-94l4 97q-116 -110 -218 -110q-68 0 -99 37t-21 101l51 365h121l-47 -333
q-6 -37 3.5 -52t38.5 -15q37 0 72 21t95 73z" />
    <glyph glyph-name="yacute" unicode="&#xfd;" horiz-adv-x="560" 
d="M488 655l-225 -111l-33 54l206 148zM422 490h127q-48 -239 -139 -412q-78 -147 -159 -207.5t-195 -74.5l-19 82q66 16 113 41.5t89 80.5h-51q-23 0 -40 13.5t-21 35.5l-89 441h128l63 -384q3 -16 19 -16h46l6.5 13t6.5 14q81 175 115 373z" />
    <glyph glyph-name="thorn" unicode="&#xfe;" 
d="M394 502q85 0 119 -58t14 -206q-11 -80 -31 -131.5t-52 -77t-65.5 -34t-82.5 -8.5q-75 0 -150 12q-3 -34 -9 -68l-17 -126h-121l125 895h121l-21 -153q-9 -72 -22 -118l2 -7q83 80 190 80zM402 243q13 101 5 129t-47 28q-44 0 -82.5 -23.5t-88.5 -73.5l-29 -220
q38 -1 89 -1q45 0 69 4.5t42 22.5t26.5 47.5t15.5 86.5z" />
    <glyph glyph-name="ydieresis" unicode="&#xff;" horiz-adv-x="560" 
d="M200 583q-30 0 -27 28l9 58q4 30 35 30h38q17 0 23 -7t4 -23l-9 -58q-3 -28 -31 -28h-42zM369 583q-30 0 -27 28l9 58q4 30 35 30h38q32 0 27 -30l-9 -58q-3 -28 -31 -28h-42zM422 490h127q-48 -239 -139 -412q-78 -147 -159 -207.5t-195 -74.5l-19 82q66 16 113 41.5
t89 80.5h-51q-23 0 -40 13.5t-21 35.5l-89 441h128l63 -384q3 -16 19 -16h46l6.5 13t6.5 14q81 175 115 373z" />
    <glyph glyph-name="Amacron" unicode="&#x100;" horiz-adv-x="634" 
d="M545 861l-12 -84h-291l12 84h291zM466 0l-29 194h-258l-83 -194h-131l300 659q10 31 46 31h123q16 0 27.5 -10.5t12.5 -25.5l117 -654h-125zM224 300h197l-35 234l-6 63h-30q-8 -21 -25 -62z" />
    <glyph glyph-name="amacron" unicode="&#x101;" 
d="M489 681l-12 -84h-291l12 84h291zM294 504q127 0 247 -29l-67 -475h-96l2 84q-83 -95 -204 -96q-90 -1 -122.5 59t-12.5 206q12 83 33.5 134.5t56.5 76.5t70.5 32.5t92.5 7.5zM208 90q43 0 82.5 24t87.5 74l32 218q-40 1 -90 1q-46 0 -70 -4.5t-42.5 -22t-27 -47.5
t-16.5 -86q-14 -103 -5.5 -130t49.5 -27z" />
    <glyph glyph-name="Abreve" unicode="&#x102;" horiz-adv-x="634" 
d="M389 741q-79 0 -119 41.5t-25 103.5l60 4q-4 -32 18 -48t67 -16q50 0 79.5 18t32.5 50l59 -12q-3 -62 -50 -101.5t-122 -39.5zM466 0l-29 194h-258l-83 -194h-131l300 659q10 31 46 31h123q16 0 27.5 -10.5t12.5 -25.5l117 -654h-125zM224 300h197l-35 234l-6 63h-30
q-8 -21 -25 -62z" />
    <glyph glyph-name="abreve" unicode="&#x103;" 
d="M333 561q-79 0 -119 41.5t-25 103.5l60 4q-4 -32 18 -48t67 -16q50 0 79.5 18t32.5 50l59 -12q-3 -62 -50 -101.5t-122 -39.5zM294 504q127 0 247 -29l-67 -475h-96l2 84q-83 -95 -204 -96q-90 -1 -122.5 59t-12.5 206q12 83 33.5 134.5t56.5 76.5t70.5 32.5t92.5 7.5z
M208 90q43 0 82.5 24t87.5 74l32 218q-40 1 -90 1q-46 0 -70 -4.5t-42.5 -22t-27 -47.5t-16.5 -86q-14 -103 -5.5 -130t49.5 -27z" />
    <glyph glyph-name="Aogonek" unicode="&#x104;" horiz-adv-x="634" 
d="M513 -110q-18 -29 -1.5 -38t58.5 4l13 -49q-42 -16 -75.5 -19.5t-53.5 4.5t-30.5 22.5t-9.5 34.5t12 42q27 54 105 109h-65l-29 194h-258l-83 -194h-131l300 659q10 31 46 31h123q16 0 27.5 -10.5t12.5 -25.5l117 -654q-45 -49 -78 -110zM224 300h197l-35 234l-6 63h-30
q-8 -21 -25 -62z" />
    <glyph glyph-name="aogonek" unicode="&#x105;" 
d="M474 0q-45 -49 -78 -110q-18 -29 -1.5 -38t58.5 4l13 -49q-42 -16 -75.5 -19.5t-53.5 4.5t-30.5 22.5t-9.5 34.5t12 42q27 54 105 109h-36l2 84q-83 -95 -204 -96q-90 -1 -122.5 59t-12.5 206q12 83 33.5 134.5t56.5 76.5t70.5 32.5t92.5 7.5q127 0 247 -29zM208 90
q43 0 82.5 24t87.5 74l32 218q-40 1 -90 1q-46 0 -70 -4.5t-42.5 -22t-27 -47.5t-16.5 -86q-14 -103 -5.5 -130t49.5 -27z" />
    <glyph glyph-name="Cacute" unicode="&#x106;" horiz-adv-x="574" 
d="M520 927l52 -91l-225 -111l-33 54zM383 702q114 0 199 -23l-18 -94q-87 7 -184 7q-60 0 -94 -19.5t-57.5 -74t-37.5 -158.5q-20 -139 3 -190t106 -52q110 -1 203 10l6 -95q-84 -25 -212 -25q-153 0 -208.5 85.5t-28.5 276.5q27 197 98 274.5t225 77.5z" />
    <glyph glyph-name="cacute" unicode="&#x107;" horiz-adv-x="494" 
d="M439 746l52 -91l-225 -111l-33 54zM306 504q106 0 172 -29l-17 -74q-102 2 -137 2q-80 0 -113.5 -31.5t-45.5 -128.5q-12 -98 9 -126.5t96 -28.5q84 0 151 10l8 -81q-76 -29 -181 -29q-132 0 -181 61t-29 201t80 197t188 57z" />
    <glyph glyph-name="Ccircumflex" unicode="&#x108;" horiz-adv-x="574" 
d="M446 905l126 -138l-41 -45l-125 100h-8l-152 -98l-32 50l147 131h85zM383 702q114 0 199 -23l-18 -94q-87 7 -184 7q-60 0 -94 -19.5t-57.5 -74t-37.5 -158.5q-20 -139 3 -190t106 -52q110 -1 203 10l6 -95q-84 -25 -212 -25q-153 0 -208.5 85.5t-28.5 276.5
q27 197 98 274.5t225 77.5z" />
    <glyph glyph-name="ccircumflex" unicode="&#x109;" horiz-adv-x="494" 
d="M365 724l126 -138l-41 -45l-125 100h-8l-152 -98l-32 50l147 131h85zM306 504q106 0 172 -29l-17 -74q-102 2 -137 2q-80 0 -113.5 -31.5t-45.5 -128.5q-12 -98 9 -126.5t96 -28.5q84 0 151 10l8 -81q-76 -29 -181 -29q-132 0 -181 61t-29 201t80 197t188 57z" />
    <glyph glyph-name="Cdotaccent" unicode="&#x10a;" horiz-adv-x="574" 
d="M419 877q17 0 26.5 -10t7.5 -27l-8 -54q-4 -32 -35 -32h-38q-17 0 -26 10t-7 27l7 53q4 33 36 33h37zM383 702q114 0 199 -23l-18 -94q-87 7 -184 7q-60 0 -94 -19.5t-57.5 -74t-37.5 -158.5q-20 -139 3 -190t106 -52q110 -1 203 10l6 -95q-84 -25 -212 -25
q-153 0 -208.5 85.5t-28.5 276.5q27 197 98 274.5t225 77.5z" />
    <glyph glyph-name="cdotaccent" unicode="&#x10b;" horiz-adv-x="494" 
d="M338 696q17 0 26.5 -10t7.5 -27l-8 -54q-4 -32 -35 -32h-38q-17 0 -26 10t-7 27l7 53q5 33 36 33h37zM306 504q106 0 172 -29l-17 -74q-102 2 -137 2q-80 0 -113.5 -31.5t-45.5 -128.5q-12 -98 9 -126.5t96 -28.5q84 0 151 10l8 -81q-76 -29 -181 -29q-132 0 -181 61
t-29 201t80 197t188 57z" />
    <glyph glyph-name="Ccaron" unicode="&#x10c;" horiz-adv-x="574" 
d="M546 922l33 -50l-152 -131h-78l-123 139l45 42l117 -96h8zM383 702q114 0 199 -23l-18 -94q-87 7 -184 7q-60 0 -94 -19.5t-57.5 -74t-37.5 -158.5q-20 -139 3 -190t106 -52q110 -1 203 10l6 -95q-84 -25 -212 -25q-153 0 -208.5 85.5t-28.5 276.5q27 197 98 274.5
t225 77.5z" />
    <glyph glyph-name="ccaron" unicode="&#x10d;" horiz-adv-x="494" 
d="M465 741l33 -50l-152 -131h-78l-123 139l45 42l117 -96h8zM306 504q106 0 172 -29l-17 -74q-102 2 -137 2q-80 0 -113.5 -31.5t-45.5 -128.5q-12 -98 9 -126.5t96 -28.5q84 0 151 10l8 -81q-76 -29 -181 -29q-132 0 -181 61t-29 201t80 197t188 57z" />
    <glyph glyph-name="Dcaron" unicode="&#x10e;" horiz-adv-x="669" 
d="M423 740h-78l-123 139l45 42l117 -96h8l150 96l33 -50zM365 699q168 0 227 -78.5t31 -280.5q-13 -92 -32.5 -154t-45.5 -101t-67.5 -59.5t-87 -27.5t-115.5 -7q-100 0 -240 9l97 690q124 9 233 9zM492 350q9 65 10.5 106.5t-4.5 70t-24.5 43t-44 20t-68.5 5.5
q-10 0 -51.5 -0.5t-66.5 -0.5l-69 -496q74 -2 100 -2q75 0 113.5 17.5t63.5 71.5t41 165z" />
    <glyph glyph-name="dcaron" unicode="&#x10f;" 
d="M433 585l17 115h122l-98 -700h-96l3 95q-101 -107 -213 -107q-78 0 -112.5 60.5t-14.5 204.5q12 81 32.5 132.5t51.5 76.5t63 33.5t79 8.5q76 0 159 -13q0 35 7 94zM695 699q20 0 27.5 -9t4.5 -30l-8 -56q-8 -66 -58 -146l-48 16q27 68 34 109q-16 -1 -24 7.5t-6 23.5
l8 50q3 20 12.5 27.5t31.5 7.5h26zM164 247q-13 -96 -4.5 -126t48.5 -29q41 0 78.5 21.5t91.5 70.5l31 226h-92q-59 0 -86 -10.5t-42 -43.5t-25 -109z" />
    <glyph glyph-name="Dcroat" unicode="&#x110;" horiz-adv-x="669" 
d="M365 699q168 0 227 -78.5t31 -280.5q-13 -92 -32.5 -154t-45.5 -101t-67.5 -59.5t-87 -27.5t-115.5 -7q-100 0 -240 9l47 332h-58l8 65h59l41 293q124 9 233 9zM492 350q9 65 10.5 106.5t-4.5 70t-24.5 43t-44 20t-68.5 5.5q-10 0 -51.5 -0.5t-66.5 -0.5l-27 -197h137
l-9 -65h-137l-33 -234q74 -2 100 -2q75 0 113.5 17.5t63.5 71.5t41 165z" />
    <glyph glyph-name="dcroat" unicode="&#x111;" horiz-adv-x="582" 
d="M632 629l-8 -61h-70l-80 -568h-96l3 95q-101 -107 -213 -107q-78 0 -112.5 60.5t-14.5 204.5q12 81 32.5 132.5t51.5 76.5t63 33.5t79 8.5q76 0 159 -13q0 32 5 77h-132l8 61h133l10 71h122l-10 -71h70zM164 247q-13 -96 -4.5 -126t48.5 -29q41 0 78.5 21.5t91.5 70.5
l31 226h-92q-59 0 -86 -10.5t-42 -43.5t-25 -109z" />
    <glyph glyph-name="Emacron" unicode="&#x112;" horiz-adv-x="565" 
d="M538 878l-12 -84h-291l12 84h291zM290 588q-30 0 -43.5 -13t-17.5 -47l-17 -121h281l-12 -93h-282l-21 -155q-4 -32 7 -44.5t42 -12.5h260l-3 -96q-85 -8 -282 -8q-85 0 -123 41t-28 115l57 410q8 61 49 94.5t111 33.5q215 0 304 -9l-16 -95h-266z" />
    <glyph glyph-name="emacron" unicode="&#x113;" horiz-adv-x="548" 
d="M486 681l-12 -84h-291l12 84h291zM317 504q122 0 164.5 -41.5t31.5 -121.5q-10 -72 -56 -104t-141 -38l-155 -13q1 -58 28 -78.5t82 -20.5q83 0 184 12l8 -79q-77 -32 -208 -32t-182 66.5t-33 203.5q19 141 79 193.5t198 52.5zM394 352q3 38 -15 47t-77 9
q-66 -1 -93.5 -28.5t-40.5 -112.5l140 13q42 3 61.5 18.5t24.5 53.5z" />
    <glyph glyph-name="Ebreve" unicode="&#x114;" horiz-adv-x="565" 
d="M382 758q-79 0 -119 41.5t-25 103.5l60 4q-4 -32 18 -48t67 -16q50 0 79.5 18t32.5 50l59 -12q-3 -62 -50 -101.5t-122 -39.5zM290 588q-30 0 -43.5 -13t-17.5 -47l-17 -121h281l-12 -93h-282l-21 -155q-4 -32 7 -44.5t42 -12.5h260l-3 -96q-85 -8 -282 -8q-85 0 -123 41
t-28 115l57 410q8 61 49 94.5t111 33.5q215 0 304 -9l-16 -95h-266z" />
    <glyph glyph-name="ebreve" unicode="&#x115;" horiz-adv-x="548" 
d="M330 561q-79 0 -119 41.5t-25 103.5l60 4q-4 -32 18 -48t67 -16q50 0 79.5 18t32.5 50l59 -12q-3 -62 -50 -101.5t-122 -39.5zM317 504q122 0 164.5 -41.5t31.5 -121.5q-10 -72 -56 -104t-141 -38l-155 -13q1 -58 28 -78.5t82 -20.5q83 0 184 12l8 -79q-77 -32 -208 -32
t-182 66.5t-33 203.5q19 141 79 193.5t198 52.5zM394 352q3 38 -15 47t-77 9q-66 -1 -93.5 -28.5t-40.5 -112.5l140 13q42 3 61.5 18.5t24.5 53.5z" />
    <glyph glyph-name="Edotaccent" unicode="&#x116;" horiz-adv-x="565" 
d="M363 770q-17 0 -26 10t-7 27l7 53q5 33 36 33h37q17 0 26.5 -10t7.5 -27l-8 -54q-4 -32 -35 -32h-38zM290 588q-30 0 -43.5 -13t-17.5 -47l-17 -121h281l-12 -93h-282l-21 -155q-4 -32 7 -44.5t42 -12.5h260l-3 -96q-85 -8 -282 -8q-85 0 -123 41t-28 115l57 410
q8 61 49 94.5t111 33.5q215 0 304 -9l-16 -95h-266z" />
    <glyph glyph-name="edotaccent" unicode="&#x117;" horiz-adv-x="548" 
d="M311 573q-17 0 -26 10t-7 27l7 53q5 33 36 33h37q17 0 26.5 -10t7.5 -27l-8 -54q-4 -32 -35 -32h-38zM317 504q122 0 164.5 -41.5t31.5 -121.5q-10 -72 -56 -104t-141 -38l-155 -13q1 -58 28 -78.5t82 -20.5q83 0 184 12l8 -79q-77 -32 -208 -32t-182 66.5t-33 203.5
q19 141 79 193.5t198 52.5zM394 352q3 38 -15 47t-77 9q-66 -1 -93.5 -28.5t-40.5 -112.5l140 13q42 3 61.5 18.5t24.5 53.5z" />
    <glyph glyph-name="Eogonek" unicode="&#x118;" horiz-adv-x="565" 
d="M290 588q-30 0 -43.5 -13t-17.5 -47l-17 -121h281l-12 -93h-282l-21 -155q-4 -32 7 -44.5t42 -12.5h260l-3 -96q-45 -49 -78 -110q-18 -29 -1.5 -38t58.5 4l13 -49q-42 -16 -75.5 -19.5t-53.5 4.5t-30.5 22.5t-9.5 34.5t12 42q28 54 99 104q-70 -3 -216 -3q-85 0 -123 41
t-28 115l57 410q8 61 49 94.5t111 33.5q215 0 304 -9l-16 -95h-266z" />
    <glyph glyph-name="eogonek" unicode="&#x119;" horiz-adv-x="548" 
d="M317 504q122 0 164.5 -41.5t31.5 -121.5q-10 -72 -56 -104t-141 -38l-155 -13q1 -58 28 -78.5t82 -20.5q83 0 184 12l8 -79q-4 -2 -6 -2q-43 -48 -75 -107q-18 -29 -1.5 -38t58.5 4l13 -49q-42 -16 -75.5 -19.5t-53.5 4.5t-30.5 22.5t-9.5 34.5t12 42q21 43 72 84
q-52 -8 -112 -8q-131 0 -182 66.5t-33 203.5q19 141 79 193.5t198 52.5zM394 352q3 38 -15 47t-77 9q-66 -1 -93.5 -28.5t-40.5 -112.5l140 13q42 3 61.5 18.5t24.5 53.5z" />
    <glyph glyph-name="Ecaron" unicode="&#x11a;" horiz-adv-x="565" 
d="M418 757h-78l-123 139l45 42l117 -96h8l150 96l33 -50zM290 588q-30 0 -43.5 -13t-17.5 -47l-17 -121h281l-12 -93h-282l-21 -155q-4 -32 7 -44.5t42 -12.5h260l-3 -96q-85 -8 -282 -8q-85 0 -123 41t-28 115l57 410q8 61 49 94.5t111 33.5q215 0 304 -9l-16 -95h-266z
" />
    <glyph glyph-name="ecaron" unicode="&#x11b;" horiz-adv-x="548" 
d="M366 560h-78l-123 139l45 42l117 -96h8l150 96l33 -50zM317 504q122 0 164.5 -41.5t31.5 -121.5q-10 -72 -56 -104t-141 -38l-155 -13q1 -58 28 -78.5t82 -20.5q83 0 184 12l8 -79q-77 -32 -208 -32t-182 66.5t-33 203.5q19 141 79 193.5t198 52.5zM394 352q3 38 -15 47
t-77 9q-66 -1 -93.5 -28.5t-40.5 -112.5l140 13q42 3 61.5 18.5t24.5 53.5z" />
    <glyph glyph-name="Gcircumflex" unicode="&#x11c;" horiz-adv-x="631" 
d="M405 821l-152 -98l-32 50l147 131h85l126 -138l-41 -45l-125 100h-8zM438 183l30 217h120l-56 -400h-90l-3 88q-88 -101 -211 -101q-104 0 -146.5 87t-21.5 276q14 109 41.5 179.5t72.5 108t97.5 51.5t129.5 14q118 0 203 -24l-17 -92q-96 6 -176 6q-76 0 -116 -18.5
t-65 -72.5t-39 -162q-15 -138 3 -191t82 -53q45 0 79.5 20t82.5 67z" />
    <glyph glyph-name="gcircumflex" unicode="&#x11d;" horiz-adv-x="582" 
d="M350 642l-152 -98l-32 50l147 131h85l126 -138l-41 -45l-125 100h-8zM277 504q144 0 265 -29l-63 -450q-26 -232 -301 -232q-104 0 -167 23l11 77q72 -2 148 -2q162 0 187 102l6.5 26t7.5 29.5t10 27t15 28.5q-38 -51 -95.5 -82.5t-126.5 -32.5q-83 -1 -118 58.5
t-14 205.5q10 67 26.5 114t36.5 73.5t49.5 41t56 18.5t66.5 4zM209 90q43 1 82 24.5t88 73.5l32 218q-40 1 -92 1q-85 0 -111.5 -27t-42.5 -133q-13 -101 -4 -129.5t48 -27.5z" />
    <glyph glyph-name="Gbreve" unicode="&#x11e;" horiz-adv-x="631" 
d="M398 741q-79 0 -119 41.5t-25 103.5l60 4q-4 -32 18 -48t67 -16q50 0 79.5 18t32.5 50l59 -12q-3 -62 -50 -101.5t-122 -39.5zM438 183l30 217h120l-56 -400h-90l-3 88q-88 -101 -211 -101q-104 0 -146.5 87t-21.5 276q14 109 41.5 179.5t72.5 108t97.5 51.5t129.5 14
q118 0 203 -24l-17 -92q-96 6 -176 6q-76 0 -116 -18.5t-65 -72.5t-39 -162q-15 -138 3 -191t82 -53q45 0 79.5 20t82.5 67z" />
    <glyph glyph-name="gbreve" unicode="&#x11f;" horiz-adv-x="582" 
d="M343 562q-79 0 -119 41.5t-25 103.5l60 4q-4 -32 18 -48t67 -16q50 0 79.5 18t32.5 50l59 -12q-3 -62 -50 -101.5t-122 -39.5zM277 504q144 0 265 -29l-63 -450q-26 -232 -301 -232q-104 0 -167 23l11 77q72 -2 148 -2q162 0 187 102l6.5 26t7.5 29.5t10 27t15 28.5
q-38 -51 -95.5 -82.5t-126.5 -32.5q-83 -1 -118 58.5t-14 205.5q10 67 26.5 114t36.5 73.5t49.5 41t56 18.5t66.5 4zM209 90q43 1 82 24.5t88 73.5l32 218q-40 1 -92 1q-85 0 -111.5 -27t-42.5 -133q-13 -101 -4 -129.5t48 -27.5z" />
    <glyph glyph-name="Gdotaccent" unicode="&#x120;" horiz-adv-x="631" 
d="M379 753q-17 0 -26 10t-7 27l7 53q5 33 36 33h37q17 0 26.5 -10t7.5 -27l-8 -54q-4 -32 -35 -32h-38zM438 183l30 217h120l-56 -400h-90l-3 88q-88 -101 -211 -101q-104 0 -146.5 87t-21.5 276q14 109 41.5 179.5t72.5 108t97.5 51.5t129.5 14q118 0 203 -24l-17 -92
q-96 6 -176 6q-76 0 -116 -18.5t-65 -72.5t-39 -162q-15 -138 3 -191t82 -53q45 0 79.5 20t82.5 67z" />
    <glyph glyph-name="gdotaccent" unicode="&#x121;" horiz-adv-x="582" 
d="M324 574q-17 0 -26 10t-7 27l7 53q4 33 36 33h37q17 0 26.5 -10t7.5 -27l-8 -54q-4 -32 -35 -32h-38zM277 504q144 0 265 -29l-63 -450q-26 -232 -301 -232q-104 0 -167 23l11 77q72 -2 148 -2q162 0 187 102l6.5 26t7.5 29.5t10 27t15 28.5q-38 -51 -95.5 -82.5
t-126.5 -32.5q-83 -1 -118 58.5t-14 205.5q10 67 26.5 114t36.5 73.5t49.5 41t56 18.5t66.5 4zM209 90q43 1 82 24.5t88 73.5l32 218q-40 1 -92 1q-85 0 -111.5 -27t-42.5 -133q-13 -101 -4 -129.5t48 -27.5z" />
    <glyph glyph-name="Gcommaaccent" unicode="&#x122;" horiz-adv-x="631" 
d="M438 183l30 217h120l-56 -400h-90l-3 88q-88 -101 -211 -101q-104 0 -146.5 87t-21.5 276q14 109 41.5 179.5t72.5 108t97.5 51.5t129.5 14q118 0 203 -24l-17 -92q-96 6 -176 6q-76 0 -116 -18.5t-65 -72.5t-39 -162q-15 -138 3 -191t82 -53q45 0 79.5 20t82.5 67z
M312 -56q22 0 30.5 -8.5t4.5 -28.5l-7 -53q-10 -68 -61 -140l-51 15q28 80 33 104q-18 -1 -26.5 7t-6.5 24l7 46q4 20 14 27t34 7h29z" />
    <glyph glyph-name="gcommaaccent" unicode="&#x123;" horiz-adv-x="582" 
d="M312 554q-22 0 -30.5 8.5t-4.5 28.5l7 53q10 68 61 140l51 -15q-28 -80 -33 -104q18 1 26.5 -7t6.5 -24l-7 -46q-4 -20 -14 -27t-34 -7h-29zM277 504q144 0 265 -29l-63 -450q-26 -232 -301 -232q-104 0 -167 23l11 77q72 -2 148 -2q162 0 187 102l6.5 26t7.5 29.5t10 27
t15 28.5q-38 -51 -95.5 -82.5t-126.5 -32.5q-83 -1 -118 58.5t-14 205.5q10 67 26.5 114t36.5 73.5t49.5 41t56 18.5t66.5 4zM209 90q43 1 82 24.5t88 73.5l32 218q-40 1 -92 1q-85 0 -111.5 -27t-42.5 -133q-13 -101 -4 -129.5t48 -27.5z" />
    <glyph glyph-name="Hcircumflex" unicode="&#x124;" horiz-adv-x="675" 
d="M397 821l-152 -98l-32 50l147 131h85l126 -138l-41 -45l-125 100h-8zM529 690h125l-97 -690h-125l44 315h-271l-44 -315h-126l97 690h126l-38 -271h271z" />
    <glyph glyph-name="hcircumflex" unicode="&#x125;" horiz-adv-x="587" 
d="M200 809l-152 -98l-32 50l147 131h85l126 -138l-41 -45l-125 100h-8zM415 504q64 0 96.5 -36t22.5 -102l-52 -366h-121l46 334q5 40 -2 53.5t-33 13.5q-38 0 -78 -22t-106 -73l-41 -306h-121l98 700h121l-24 -183q-8 -60 -25 -121q120 108 219 108z" />
    <glyph glyph-name="Hbar" unicode="&#x126;" horiz-adv-x="675" 
d="M706 578l-8 -62h-68l-73 -516h-125l44 315h-271l-44 -315h-126l73 516h-61l8 62h61l16 112h126l-16 -112h271l16 112h125l-16 -112h68zM491 419l14 97h-271l-14 -97h271z" />
    <glyph glyph-name="hbar" unicode="&#x127;" horiz-adv-x="586" 
d="M414 504q64 0 96.5 -36t22.5 -102l-52 -366h-121l46 334q5 40 -2 53.5t-33 13.5q-38 0 -78 -22t-106 -73l-41 -306h-121l80 568h-65l8 61h65l10 71h121l-9 -71h138l-9 -61h-137l-7 -51q-8 -60 -25 -121q120 108 219 108z" />
    <glyph glyph-name="Itilde" unicode="&#x128;" horiz-adv-x="279" 
d="M131 890q34 -3 79.5 -25t67.5 -25q27 -4 39.5 7.5t16.5 39.5l53 -5q0 -62 -25 -95t-65 -31q-39 3 -86.5 26t-63.5 26q-27 4 -39 -9t-16 -42l-53 5q1 65 27 97.5t65 30.5zM258 690l-97 -690h-126l97 690h126z" />
    <glyph glyph-name="itilde" unicode="&#x129;" horiz-adv-x="264" 
d="M98 710q34 -3 79.5 -25t67.5 -25q27 -4 39.5 7.5t16.5 39.5l53 -5q0 -62 -25 -95t-65 -31q-39 3 -86.5 26t-63.5 26q-27 4 -39 -9t-16 -42l-53 5q1 65 27 97.5t65 30.5zM220 490l-69 -490h-121l69 490h121z" />
    <glyph glyph-name="Imacron" unicode="&#x12a;" horiz-adv-x="279" 
d="M365 861l-12 -84h-291l12 84h291zM258 690l-97 -690h-126l97 690h126z" />
    <glyph glyph-name="imacron" unicode="&#x12b;" horiz-adv-x="264" 
d="M332 681l-12 -84h-291l12 84h291zM220 490l-69 -490h-121l69 490h121z" />
    <glyph glyph-name="Ibreve" unicode="&#x12c;" horiz-adv-x="279" 
d="M322 894l59 -12q-3 -62 -50 -101.5t-122 -39.5q-79 0 -119 41.5t-25 103.5l60 4q-4 -32 18 -48t67 -16q50 0 79.5 18t32.5 50zM258 690l-97 -690h-126l97 690h126z" />
    <glyph glyph-name="ibreve" unicode="&#x12d;" horiz-adv-x="264" 
d="M289 714l59 -12q-3 -62 -50 -101.5t-122 -39.5q-79 0 -119 41.5t-25 103.5l60 4q-4 -32 18 -48t67 -16q50 0 79.5 18t32.5 50zM220 490l-69 -490h-121l69 490h121z" />
    <glyph glyph-name="Iogonek" unicode="&#x12e;" horiz-adv-x="279" 
d="M132 690h126l-97 -690h-16q-45 -49 -78 -110q-18 -29 -1.5 -38t58.5 4l13 -49q-42 -16 -75.5 -19.5t-53.5 4.5t-30.5 22.5t-9.5 34.5t12 42q27 54 105 109h-50z" />
    <glyph glyph-name="iogonek" unicode="&#x12f;" horiz-adv-x="264" 
d="M204 696q17 0 26.5 -10t7.5 -27l-8 -54q-4 -32 -35 -32h-38q-17 0 -26 10t-7 27l7 53q5 33 36 33h37zM30 0l69 490h121l-69 -490h-10q-45 -49 -78 -110q-18 -29 -1.5 -38t58.5 4l13 -49q-42 -16 -75.5 -19.5t-53.5 4.5t-30.5 22.5t-9.5 34.5t12 42q27 54 105 109h-51z
" />
    <glyph glyph-name="Idotaccent" unicode="&#x130;" horiz-adv-x="279" 
d="M237 876q17 0 26.5 -10t7.5 -27l-8 -54q-4 -32 -35 -32h-38q-17 0 -26 10t-7 27l7 53q4 33 36 33h37zM258 690l-97 -690h-126l97 690h126z" />
    <glyph glyph-name="dotlessi" unicode="&#x131;" horiz-adv-x="264" 
d="M220 490l-69 -490h-121l69 490h121z" />
    <glyph glyph-name="IJ" unicode="&#x132;" horiz-adv-x="631" 
d="M258 690l-97 -690h-126l97 690h126zM613 690l-76 -540q-11 -79 -52 -120t-107 -41q-69 0 -112 18l23 86h43q71 0 81 65l74 532h126z" />
    <glyph glyph-name="ij" unicode="&#x133;" horiz-adv-x="525" 
d="M214 703q18 0 26.5 -10t6.5 -27l-7 -55q-6 -33 -38 -33h-55q-38 0 -33 38l8 54q3 33 37 33h55zM476 703q18 0 26.5 -10t6.5 -27l-7 -55q-6 -33 -38 -33h-55q-39 0 -33 38l8 54q3 33 37 33h55zM219 490l-68 -490h-121l69 490h120zM482 490l-69 -485q-8 -63 -44 -118.5
t-91 -87.5l-66 57q68 68 81 155l68 479h121z" />
    <glyph glyph-name="Jcircumflex" unicode="&#x134;" horiz-adv-x="352" 
d="M333 904l126 -138l-41 -45l-125 100h-8l-152 -98l-32 50l147 131h85zM334 690l-76 -540q-11 -79 -52 -120t-107 -41q-69 0 -112 18l23 86h43q71 0 81 65l74 532h126z" />
    <glyph glyph-name="jcircumflex" unicode="&#x135;" horiz-adv-x="263" 
d="M224 724l126 -138l-41 -45l-125 100h-8l-152 -98l-32 50l147 131h85zM220 490l-69 -485q-8 -63 -44 -118.5t-91 -87.5l-66 57q68 68 81 155l68 479h121z" />
    <glyph glyph-name="Kcommaaccent" unicode="&#x136;" horiz-adv-x="613" 
d="M368 353q22 -22 40 -60l154 -293h-140l-157 311h-68q2 -37 -3 -70l-33 -241h-126l97 690h126l-30 -207q-6 -42 -16 -76h64l223 283h149l-224 -283q-26 -32 -55 -49zM295 -56q22 0 30.5 -8.5t4.5 -28.5l-7 -53q-10 -68 -61 -140l-51 15q28 80 33 104q-18 -1 -26.5 7
t-6.5 24l7 46q4 20 14 27t34 7h29z" />
    <glyph glyph-name="kcommaaccent" unicode="&#x137;" horiz-adv-x="543" 
d="M364 270q21 -28 35 -60l92 -210h-129l-88 215q-22 -12 -102 -48l-25 -167h-121l98 700h122l-42 -313q-6 -51 -35 -123q87 45 150 103t80 123h124q-38 -133 -159 -220zM273 -54q22 0 30.5 -8.5t4.5 -28.5l-7 -53q-10 -68 -61 -140l-51 15q28 80 33 104q-18 -1 -26.5 7
t-6.5 24l7 46q4 20 14 27t34 7h29z" />
    <glyph glyph-name="kgreenlandic" unicode="&#x138;" horiz-adv-x="543" 
d="M362 262q22 -27 36 -61l89 -201h-129l-85 206q-35 -19 -102 -49l-24 -157h-121l70 490h122l-15 -112q-6 -52 -35 -123q86 44 151 105.5t84 129.5h125q-41 -137 -166 -228z" />
    <glyph glyph-name="Lacute" unicode="&#x139;" horiz-adv-x="517" 
d="M338 926l52 -91l-225 -111l-33 54zM255 690l-74 -530q-4 -28 6.5 -42t41.5 -14h240l-3 -98q-86 -8 -272 -8q-74 0 -111.5 40.5t-26.5 117.5l73 534h126z" />
    <glyph glyph-name="lacute" unicode="&#x13a;" horiz-adv-x="311" 
d="M332 945l52 -91l-225 -111l-33 54zM246 700l-78 -550q-4 -31 6.5 -42.5t42.5 -11.5h44l5 -91q-32 -16 -103 -16q-63 0 -95 36t-24 101l81 574h121z" />
    <glyph glyph-name="Lcommaaccent" unicode="&#x13b;" horiz-adv-x="517" 
d="M255 690l-74 -530q-4 -28 6.5 -42t41.5 -14h240l-3 -98q-86 -8 -272 -8q-74 0 -111.5 40.5t-26.5 117.5l73 534h126zM281 -56q22 0 30.5 -8.5t4.5 -28.5l-7 -53q-10 -68 -61 -140l-51 15q28 80 33 104q-18 -1 -26.5 7t-6.5 24l7 46q4 20 14 27t34 7h29z" />
    <glyph glyph-name="lcommaaccent" unicode="&#x13c;" horiz-adv-x="311" 
d="M246 700l-78 -550q-4 -31 6.5 -42.5t42.5 -11.5h44l5 -91q-32 -16 -103 -16q-63 0 -95 36t-24 101l81 574h121zM160 -55q22 0 30.5 -8.5t4.5 -28.5l-7 -53q-10 -68 -61 -140l-51 15q28 80 33 104q-18 -1 -26.5 7t-6.5 24l7 46q4 20 14 27t34 7h29z" />
    <glyph glyph-name="Lcaron" unicode="&#x13d;" horiz-adv-x="517" 
d="M419 691q20 0 27.5 -9t4.5 -30l-8 -56q-8 -66 -58 -146l-48 16q27 68 34 109q-16 -1 -24 7.5t-6 23.5l8 50q3 20 12.5 27.5t31.5 7.5h26zM255 690l-74 -530q-4 -28 6.5 -42t41.5 -14h240l-3 -98q-86 -8 -272 -8q-74 0 -111.5 40.5t-26.5 117.5l73 534h126z" />
    <glyph glyph-name="lcaron" unicode="&#x13e;" horiz-adv-x="311" 
d="M246 700l-78 -550q-4 -31 6.5 -42.5t42.5 -11.5h44l5 -91q-32 -16 -103 -16q-63 0 -95 36t-24 101l81 574h121zM364 699q22 0 30.5 -8.5t4.5 -28.5l-7 -53q-10 -68 -61 -140l-51 15q28 80 33 104q-18 -1 -26.5 7t-6.5 24l7 46q4 20 14 27t34 7h29z" />
    <glyph glyph-name="Ldot" unicode="&#x13f;" horiz-adv-x="517" 
d="M255 690l-74 -530q-4 -28 6.5 -42t41.5 -14h240l-3 -98q-86 -8 -272 -8q-74 0 -111.5 40.5t-26.5 117.5l73 534h126zM234 -144q-17 0 -26.5 10t-7.5 27l8 54q4 32 35 32h38q17 0 26 -10t7 -27l-7 -53q-5 -33 -36 -33h-37z" />
    <glyph glyph-name="ldot" unicode="&#x140;" horiz-adv-x="371" 
d="M246 700l-78 -550q-4 -31 6.5 -42.5t42.5 -11.5h44l5 -91q-32 -16 -103 -16q-63 0 -95 36t-24 101l81 574h121zM304 311q-17 0 -26.5 10t-7.5 27l8 54q4 32 35 32h38q17 0 26 -10t7 -27l-7 -53q-5 -33 -36 -33h-37z" />
    <glyph glyph-name="Lslash" unicode="&#x141;" horiz-adv-x="517" 
d="M229 104h240l-3 -98q-86 -8 -272 -8q-74 0 -111.5 40.5t-26.5 117.5l22 163l-62 -24l8 71l64 25l41 299h126l-35 -248l120 46l-8 -71l-122 -47l-29 -210q-4 -28 6.5 -42t41.5 -14z" />
    <glyph glyph-name="lslash" unicode="&#x142;" horiz-adv-x="313" 
d="M201 370l-31 -220q-4 -31 6.5 -42.5t42.5 -11.5h44l5 -91q-32 -16 -103 -16q-63 0 -95 36t-24 101l27 194l-65 -25l9 71l66 26l44 308h121l-37 -259l122 47l-9 -71z" />
    <glyph glyph-name="Nacute" unicode="&#x143;" horiz-adv-x="712" 
d="M559 926l52 -91l-225 -111l-33 54zM692 690l-92 -646q-6 -44 -48 -44h-91q-33 0 -47 40l-145 423q-19 53 -28 101h-12q-1 -44 -8 -101l-63 -463h-123l91 646q6 44 49 44h90q33 0 47 -40l140 -411q25 -76 34 -109h14q1 54 9 108l61 452h122z" />
    <glyph glyph-name="nacute" unicode="&#x144;" horiz-adv-x="587" 
d="M524 655l-225 -111l-33 54l206 148zM416 504q62 0 94.5 -36t23.5 -102l-52 -366h-121l46 332q5 41 -2.5 55.5t-33.5 13.5q-38 0 -78 -22t-104 -72l-42 -307h-121l69 490h96l-2 -101q121 115 227 115z" />
    <glyph glyph-name="Ncommaaccent" unicode="&#x145;" horiz-adv-x="712" 
d="M692 690l-92 -646q-6 -44 -48 -44h-91q-33 0 -47 40l-145 423q-19 53 -28 101h-12q-1 -44 -8 -101l-63 -463h-123l91 646q6 44 49 44h90q33 0 47 -40l140 -411q25 -76 34 -109h14q1 54 9 108l61 452h122zM348 -56q22 0 30.5 -8.5t4.5 -28.5l-7 -53q-10 -68 -61 -140
l-51 15q28 80 33 104q-18 -1 -26.5 7t-6.5 24l7 46q4 20 14 27t34 7h29z" />
    <glyph glyph-name="ncommaaccent" unicode="&#x146;" horiz-adv-x="587" 
d="M416 504q62 0 94.5 -36t23.5 -102l-52 -366h-121l46 332q5 41 -2.5 55.5t-33.5 13.5q-38 0 -78 -22t-104 -72l-42 -307h-121l69 490h96l-2 -101q121 115 227 115zM271 -54q22 0 30.5 -8.5t4.5 -28.5l-7 -53q-10 -68 -61 -140l-51 15q28 80 33 104q-18 -1 -26.5 7t-6.5 24
l7 46q4 20 14 27t34 7h29z" />
    <glyph glyph-name="Ncaron" unicode="&#x147;" horiz-adv-x="712" 
d="M585 921l33 -50l-152 -131h-78l-123 139l45 42l117 -96h8zM692 690l-92 -646q-6 -44 -48 -44h-91q-33 0 -47 40l-145 423q-19 53 -28 101h-12q-1 -44 -8 -101l-63 -463h-123l91 646q6 44 49 44h90q33 0 47 -40l140 -411q25 -76 34 -109h14q1 54 9 108l61 452h122z" />
    <glyph glyph-name="ncaron" unicode="&#x148;" horiz-adv-x="587" 
d="M379 560h-78l-123 139l45 42l117 -96h8l150 96l33 -50zM416 504q62 0 94.5 -36t23.5 -102l-52 -366h-121l46 332q5 41 -2.5 55.5t-33.5 13.5q-38 0 -78 -22t-104 -72l-42 -307h-121l69 490h96l-2 -101q121 115 227 115z" />
    <glyph glyph-name="Eng" unicode="&#x14a;" horiz-adv-x="712" 
d="M692 690l-107 -758q-10 -69 -51 -107.5t-102 -37.5q-60 0 -106 18l21 78h43q73 0 82 64l8 56l-24 -1q-6 0 -12 6t-8.5 11.5t-6.5 17.5l-161 409q-16 39 -26 102h-12q-1 -45 -10 -106l-62 -442h-123l91 646q6 44 49 44h79q32 0 48 -40l150 -394q23 -62 35 -109h12
q0 47 9 115l61 428h123z" />
    <glyph glyph-name="eng" unicode="&#x14b;" horiz-adv-x="587" 
d="M411 504q68 0 100 -36t23 -102l-57 -407q-23 -161 -151 -161q-59 0 -105 18l21 76h37q33 0 51.5 14.5t24.5 50.5l52 377q5 35 -3 47.5t-37 12.5q-55 0 -178 -88l-42 -306h-121l69 490h93l-1 -101q123 115 224 115z" />
    <glyph glyph-name="Omacron" unicode="&#x14c;" horiz-adv-x="672" 
d="M557 861l-12 -84h-291l12 84h291zM387 703q151 0 209 -82.5t31 -280.5q-27 -201 -99 -277t-225 -76t-211.5 81t-31.5 282q27 197 99 275t228 78zM382 596q-91 0 -130 -52.5t-61 -203.5q-20 -142 4 -194t111 -52q88 0 128.5 54t61.5 202q22 145 -2.5 195.5t-111.5 50.5z
" />
    <glyph glyph-name="omacron" unicode="&#x14d;" horiz-adv-x="573" 
d="M486 681l-12 -84h-291l12 84h291zM311 504q130 0 180.5 -61.5t30.5 -202.5q-19 -138 -80.5 -195.5t-189.5 -57.5q-129 0 -181 61t-33 201q20 139 81 197t192 58zM310 407q-69 0 -100 -34t-45 -133q-14 -92 4 -124t84 -32q69 0 100 34.5t44 130.5q13 94 -4.5 126t-82.5 32
z" />
    <glyph glyph-name="Obreve" unicode="&#x14e;" horiz-adv-x="672" 
d="M514 894l59 -12q-3 -62 -50 -101.5t-122 -39.5q-79 0 -119 41.5t-25 103.5l60 4q-4 -32 18 -48t67 -16q50 0 79.5 18t32.5 50zM387 703q151 0 209 -82.5t31 -280.5q-27 -201 -99 -277t-225 -76t-211.5 81t-31.5 282q27 197 99 275t228 78zM382 596q-91 0 -130 -52.5
t-61 -203.5q-20 -142 4 -194t111 -52q88 0 128.5 54t61.5 202q22 145 -2.5 195.5t-111.5 50.5z" />
    <glyph glyph-name="obreve" unicode="&#x14f;" horiz-adv-x="573" 
d="M443 714l59 -12q-3 -62 -50 -101.5t-122 -39.5q-79 0 -119 41.5t-25 103.5l60 4q-4 -32 18 -48t67 -16q50 0 79.5 18t32.5 50zM311 504q130 0 180.5 -61.5t30.5 -202.5q-19 -138 -80.5 -195.5t-189.5 -57.5q-129 0 -181 61t-33 201q20 139 81 197t192 58zM310 407
q-69 0 -100 -34t-45 -133q-14 -92 4 -124t84 -32q69 0 100 34.5t44 130.5q13 94 -4.5 126t-82.5 32z" />
    <glyph glyph-name="Ohungarumlaut" unicode="&#x150;" horiz-adv-x="672" 
d="M385 931l73 -51l-164 -162l-50 37zM564 931l72 -51l-164 -162l-48 37zM387 703q151 0 209 -82.5t31 -280.5q-27 -201 -99 -277t-225 -76t-211.5 81t-31.5 282q27 197 99 275t228 78zM382 596q-91 0 -130 -52.5t-61 -203.5q-20 -142 4 -194t111 -52q88 0 128.5 54
t61.5 202q22 145 -2.5 195.5t-111.5 50.5z" />
    <glyph glyph-name="ohungarumlaut" unicode="&#x151;" horiz-adv-x="573" 
d="M314 751l73 -51l-164 -162l-50 37zM493 751l72 -51l-164 -162l-48 37zM311 504q130 0 180.5 -61.5t30.5 -202.5q-19 -138 -80.5 -195.5t-189.5 -57.5q-129 0 -181 61t-33 201q20 139 81 197t192 58zM310 407q-69 0 -100 -34t-45 -133q-14 -92 4 -124t84 -32
q69 0 100 34.5t44 130.5q13 94 -4.5 126t-82.5 32z" />
    <glyph glyph-name="OE" unicode="&#x152;" horiz-adv-x="937" 
d="M662 588q-29 0 -43 -13.5t-18 -46.5l-16 -121h280l-12 -93h-281l-21 -156q-4 -31 6 -43.5t41 -12.5h261l-3 -96q-86 -8 -284 -8q-64 0 -101 24q-77 -35 -171 -35q-161 0 -215 79t-25 284q28 202 99 277.5t226 75.5q95 0 169 -29q34 18 85 18q215 0 305 -9l-16 -95h-266z
M191 340q-20 -142 3 -194t107 -52q67 0 120 15q-1 16 2 41l57 414q1 8 5 22q-45 10 -100 10q-90 0 -132 -54.5t-62 -201.5z" />
    <glyph glyph-name="oe" unicode="&#x153;" horiz-adv-x="901" 
d="M673 504q121 0 164 -41.5t32 -121.5q-11 -72 -57 -104t-140 -38l-155 -13q1 -58 28 -78.5t83 -20.5q82 0 178 12l8 -79q-73 -32 -203 -32q-118 0 -172 59q-63 -60 -188 -60q-129 0 -180.5 61t-32.5 201q20 139 81 197t190 58q116 0 169 -52q60 52 195 52zM749 352
q4 38 -14 47t-77 9q-66 -1 -93 -28.5t-41 -112.5l140 13q42 3 61.5 18.5t23.5 53.5zM252 84q69 0 99.5 35t43.5 130q13 93 -4.5 125.5t-81.5 32.5q-69 0 -99.5 -34t-45.5 -133q-13 -92 5 -124t83 -32z" />
    <glyph glyph-name="Racute" unicode="&#x154;" horiz-adv-x="629" 
d="M566 835l-225 -111l-33 54l206 148zM594 492q-10 -75 -46 -117.5t-109 -51.5l-1 -6q64 -16 79 -103l41 -214h-128l-37 216q-6 34 -21 47t-46 13h-129l-39 -276h-123l97 690q89 9 245 9q119 0 175.5 -47t41.5 -160zM333 379q67 1 96 25.5t39 89.5q8 59 -12 80.5t-82 21.5
q-95 0 -132 -1l-31 -216h122z" />
    <glyph glyph-name="racute" unicode="&#x155;" horiz-adv-x="410" 
d="M461 655l-225 -111l-33 54l206 148zM186 387q119 117 214 117h28l-28 -114h-32q-34 0 -71 -18.5t-108 -63.5l-42 -308h-121l69 490h93z" />
    <glyph glyph-name="Rcommaaccent" unicode="&#x156;" horiz-adv-x="629" 
d="M594 492q-10 -75 -46 -117.5t-109 -51.5l-1 -6q64 -16 79 -103l41 -214h-128l-37 216q-6 34 -21 47t-46 13h-129l-39 -276h-123l97 690q89 9 245 9q119 0 175.5 -47t41.5 -160zM333 379q67 1 96 25.5t39 89.5q8 59 -12 80.5t-82 21.5q-95 0 -132 -1l-31 -216h122z
M326 -56q22 0 30.5 -8.5t4.5 -28.5l-7 -53q-10 -68 -61 -140l-51 15q28 80 33 104q-18 -1 -26.5 7t-6.5 24l7 46q4 20 14 27t34 7h29z" />
    <glyph glyph-name="rcommaaccent" unicode="&#x157;" horiz-adv-x="410" 
d="M400 504h28l-28 -114h-32q-34 0 -71 -18.5t-108 -63.5l-42 -308h-121l69 490h93l-2 -103q119 117 214 117zM91 -54q22 0 30.5 -8.5t4.5 -28.5l-7 -53q-10 -68 -61 -140l-51 15q28 80 33 104q-18 -1 -26.5 7t-6.5 24l7 46q4 20 14 27t34 7h29z" />
    <glyph glyph-name="Rcaron" unicode="&#x158;" horiz-adv-x="629" 
d="M421 740h-78l-123 139l45 42l117 -96h8l150 96l33 -50zM594 492q-10 -75 -46 -117.5t-109 -51.5l-1 -6q64 -16 79 -103l41 -214h-128l-37 216q-6 34 -21 47t-46 13h-129l-39 -276h-123l97 690q89 9 245 9q119 0 175.5 -47t41.5 -160zM333 379q67 1 96 25.5t39 89.5
q8 59 -12 80.5t-82 21.5q-95 0 -132 -1l-31 -216h122z" />
    <glyph glyph-name="rcaron" unicode="&#x159;" horiz-adv-x="410" 
d="M316 560h-78l-123 139l45 42l117 -96h8l150 96l33 -50zM186 387q119 117 214 117h28l-28 -114h-32q-34 0 -71 -18.5t-108 -63.5l-42 -308h-121l69 490h93z" />
    <glyph glyph-name="Sacute" unicode="&#x15a;" horiz-adv-x="568" 
d="M476 926l52 -91l-225 -111l-33 54zM335 702q128 0 216 -24l-13 -88q-118 4 -202 4q-32 0 -45.5 -0.5t-32.5 -4.5t-27 -13t-15 -24.5t-11 -40.5q-6 -43 5.5 -58t54.5 -30l128 -46q77 -28 101.5 -74t13.5 -126q-15 -113 -71.5 -151t-192.5 -38q-114 0 -224 23l14 91
q175 -4 205 -4q81 0 109 16t35 72q6 43 -5.5 58.5t-51.5 29.5l-132 48q-72 27 -98 75.5t-16 123.5q16 110 74 145.5t181 35.5z" />
    <glyph glyph-name="sacute" unicode="&#x15b;" horiz-adv-x="514" 
d="M434 746l52 -91l-225 -111l-33 54zM266 504q117 -2 217 -18l-13 -83q-94 3 -196 3q-61 0 -81 -5t-23 -27q-3 -20 9 -30.5t47 -25.5l125 -56q62 -27 85 -58.5t16 -86.5q-5 -34 -18 -57t-31.5 -37t-49 -21.5t-61.5 -10t-77 -2.5q-38 0 -67 1.5t-43.5 3t-43.5 5.5t-47 6
l13 85q53 -4 152 -4q91 0 120.5 7.5t34.5 31.5q-1 6 0.5 9.5t-1.5 7.5t-3.5 6t-5 5t-6.5 5t-8 4.5t-10 4.5t-12 5.5t-13 5.5l-125 56q-57 26 -80 61t-17 87q8 68 58.5 95.5t154.5 26.5z" />
    <glyph glyph-name="Scircumflex" unicode="&#x15c;" horiz-adv-x="568" 
d="M402 904l126 -138l-41 -45l-125 100h-8l-152 -98l-32 50l147 131h85zM335 702q128 0 216 -24l-13 -88q-118 4 -202 4q-32 0 -45.5 -0.5t-32.5 -4.5t-27 -13t-15 -24.5t-11 -40.5q-6 -43 5.5 -58t54.5 -30l128 -46q77 -28 101.5 -74t13.5 -126q-15 -113 -71.5 -151
t-192.5 -38q-114 0 -224 23l14 91q175 -4 205 -4q81 0 109 16t35 72q6 43 -5.5 58.5t-51.5 29.5l-132 48q-72 27 -98 75.5t-16 123.5q16 110 74 145.5t181 35.5z" />
    <glyph glyph-name="scircumflex" unicode="&#x15d;" horiz-adv-x="514" 
d="M360 724l126 -138l-41 -45l-125 100h-8l-152 -98l-32 50l147 131h85zM266 504q117 -2 217 -18l-13 -83q-94 3 -196 3q-61 0 -81 -5t-23 -27q-3 -20 9 -30.5t47 -25.5l125 -56q62 -27 85 -58.5t16 -86.5q-5 -34 -18 -57t-31.5 -37t-49 -21.5t-61.5 -10t-77 -2.5
q-38 0 -67 1.5t-43.5 3t-43.5 5.5t-47 6l13 85q53 -4 152 -4q91 0 120.5 7.5t34.5 31.5q-1 6 0.5 9.5t-1.5 7.5t-3.5 6t-5 5t-6.5 5t-8 4.5t-10 4.5t-12 5.5t-13 5.5l-125 56q-57 26 -80 61t-17 87q8 68 58.5 95.5t154.5 26.5z" />
    <glyph glyph-name="Scedilla" unicode="&#x15e;" horiz-adv-x="568" 
d="M335 702q128 0 216 -24l-13 -88q-118 4 -202 4q-32 0 -45.5 -0.5t-32.5 -4.5t-27 -13t-15 -24.5t-11 -40.5q-6 -43 5.5 -58t54.5 -30l128 -46q77 -28 101.5 -74t13.5 -126q-15 -113 -71.5 -151t-192.5 -38q-114 0 -224 23l14 91q175 -4 205 -4q81 0 109 16t35 72
q6 43 -5.5 58.5t-51.5 29.5l-132 48q-72 27 -98 75.5t-16 123.5q16 110 74 145.5t181 35.5zM183 -43q72 8 102.5 -6t21.5 -63q-11 -68 -67 -102t-133 -23l20 58q36 -1 63.5 17t33.5 47q2 12 -7.5 15.5t-47.5 3.5z" />
    <glyph glyph-name="scedilla" unicode="&#x15f;" horiz-adv-x="514" 
d="M266 504q117 -2 217 -18l-13 -83q-94 3 -196 3q-61 0 -81 -5t-23 -27q-3 -20 9 -30.5t47 -25.5l125 -56q62 -27 85 -58.5t16 -86.5q-5 -34 -18 -57t-31.5 -37t-49 -21.5t-61.5 -10t-77 -2.5q-38 0 -67 1.5t-43.5 3t-43.5 5.5t-47 6l13 85q53 -4 152 -4q91 0 120.5 7.5
t34.5 31.5q-1 6 0.5 9.5t-1.5 7.5t-3.5 6t-5 5t-6.5 5t-8 4.5t-10 4.5t-12 5.5t-13 5.5l-125 56q-57 26 -80 61t-17 87q8 68 58.5 95.5t154.5 26.5zM149 -52q72 8 102.5 -6t21.5 -63q-11 -68 -67 -102t-133 -23l20 58q36 -1 63.5 17t33.5 47q2 12 -7.5 15.5t-47.5 3.5z" />
    <glyph glyph-name="Scaron" unicode="&#x160;" horiz-adv-x="568" 
d="M502 921l33 -50l-152 -131h-78l-123 139l45 42l117 -96h8zM335 702q128 0 216 -24l-13 -88q-118 4 -202 4q-32 0 -45.5 -0.5t-32.5 -4.5t-27 -13t-15 -24.5t-11 -40.5q-6 -43 5.5 -58t54.5 -30l128 -46q77 -28 101.5 -74t13.5 -126q-15 -113 -71.5 -151t-192.5 -38
q-114 0 -224 23l14 91q175 -4 205 -4q81 0 109 16t35 72q6 43 -5.5 58.5t-51.5 29.5l-132 48q-72 27 -98 75.5t-16 123.5q16 110 74 145.5t181 35.5z" />
    <glyph glyph-name="scaron" unicode="&#x161;" horiz-adv-x="514" 
d="M460 741l33 -50l-152 -131h-78l-123 139l45 42l117 -96h8zM266 504q117 -2 217 -18l-13 -83q-94 3 -196 3q-61 0 -81 -5t-23 -27q-3 -20 9 -30.5t47 -25.5l125 -56q62 -27 85 -58.5t16 -86.5q-5 -34 -18 -57t-31.5 -37t-49 -21.5t-61.5 -10t-77 -2.5q-38 0 -67 1.5
t-43.5 3t-43.5 5.5t-47 6l13 85q53 -4 152 -4q91 0 120.5 7.5t34.5 31.5q-1 6 0.5 9.5t-1.5 7.5t-3.5 6t-5 5t-6.5 5t-8 4.5t-10 4.5t-12 5.5t-13 5.5l-125 56q-57 26 -80 61t-17 87q8 68 58.5 95.5t154.5 26.5z" />
    <glyph glyph-name="uni0162" unicode="&#x162;" horiz-adv-x="584" 
d="M622 690l-15 -107h-212l-82 -583h-125l82 583h-211l15 107h548zM187 -41q72 8 102.5 -6t21.5 -63q-11 -68 -67 -102t-133 -23l20 58q36 -1 63.5 17t33.5 47q2 12 -7.5 15.5t-47.5 3.5z" />
    <glyph glyph-name="uni0163" unicode="&#x163;" horiz-adv-x="397" 
d="M245 402l-36 -252q-4 -32 5.5 -43t42.5 -11h69l5 -90q-51 -17 -124 -17q-67 0 -98.5 38t-21.5 107l38 268h-89l11 83l91 5l20 141h120l-20 -141h142l-11 -88h-144zM142 -51q72 8 102.5 -6t21.5 -63q-11 -68 -67 -102t-133 -23l20 58q36 -1 63.5 17t33.5 47
q2 12 -7.5 15.5t-47.5 3.5z" />
    <glyph glyph-name="Tcaron" unicode="&#x164;" horiz-adv-x="584" 
d="M396 740h-78l-123 139l45 42l117 -96h8l150 96l33 -50zM622 690l-15 -107h-212l-82 -583h-125l82 583h-211l15 107h548z" />
    <glyph glyph-name="tcaron" unicode="&#x165;" horiz-adv-x="397" 
d="M401 784q20 0 27.5 -9t4.5 -30l-8 -56q-8 -67 -58 -146l-48 16q27 68 34 109q-16 -1 -24 7.5t-6 23.5l8 50q3 20 12.5 27.5t31.5 7.5h26zM278 631l-20 -141h142l-11 -88h-144l-36 -252q-4 -32 5.5 -43t42.5 -11h69l5 -90q-51 -17 -124 -17q-67 0 -98.5 38t-21.5 107
l38 268h-89l11 83l91 5l20 141h120z" />
    <glyph glyph-name="Tbar" unicode="&#x166;" horiz-adv-x="584" 
d="M607 583h-212l-27 -191h139l-9 -64h-139l-46 -328h-125l46 328h-128l9 64h128l27 191h-211l15 107h548z" />
    <glyph glyph-name="tbar" unicode="&#x167;" horiz-adv-x="397" 
d="M389 402h-144l-13 -95h117l-9 -64h-118l-13 -93q-4 -32 5.5 -43t42.5 -11h69l5 -90q-51 -17 -124 -17q-67 0 -98.5 38t-21.5 107l16 109h-63l8 64h64l13 95h-89l11 83l91 5l20 141h120l-20 -141h142z" />
    <glyph glyph-name="Utilde" unicode="&#x168;" horiz-adv-x="668" 
d="M323 890q34 -3 79.5 -25t67.5 -25q27 -4 39.5 7.5t16.5 39.5l53 -5q0 -62 -25 -95t-65 -31q-39 3 -86.5 26t-63.5 26q-27 4 -39 -9t-16 -42l-53 5q1 65 27 97.5t65 30.5zM653 690l-60 -422q-22 -154 -88 -217.5t-202 -63.5q-140 0 -198 67t-37 219l58 417h126l-59 -422
q-14 -100 9 -137t99 -37q79 0 116 39.5t52 139.5l58 417h126z" />
    <glyph glyph-name="utilde" unicode="&#x169;" horiz-adv-x="577" 
d="M273 634q-27 4 -39 -9t-16 -42l-53 5q1 65 27 97.5t65 30.5q34 -3 79.5 -25t67.5 -25q27 -4 39.5 7.5t16.5 39.5l53 -5q0 -62 -25 -95t-65 -31q-39 3 -86.5 26t-63.5 26zM417 490h120l-68 -490h-94l4 97q-116 -110 -218 -110q-68 0 -99 37t-21 101l51 365h121l-47 -333
q-6 -37 3.5 -52t38.5 -15q37 0 72 21t95 73z" />
    <glyph glyph-name="Umacron" unicode="&#x16a;" horiz-adv-x="668" 
d="M557 861l-12 -84h-291l12 84h291zM653 690l-60 -422q-22 -154 -88 -217.5t-202 -63.5q-140 0 -198 67t-37 219l58 417h126l-59 -422q-14 -100 9 -137t99 -37q79 0 116 39.5t52 139.5l58 417h126z" />
    <glyph glyph-name="umacron" unicode="&#x16b;" horiz-adv-x="577" 
d="M491 687l-12 -84h-291l12 84h291zM417 490h120l-68 -490h-94l4 97q-116 -110 -218 -110q-68 0 -99 37t-21 101l51 365h121l-47 -333q-6 -37 3.5 -52t38.5 -15q37 0 72 21t95 73z" />
    <glyph glyph-name="Ubreve" unicode="&#x16c;" horiz-adv-x="668" 
d="M514 894l59 -12q-3 -62 -50 -101.5t-122 -39.5q-79 0 -119 41.5t-25 103.5l60 4q-4 -32 18 -48t67 -16q50 0 79.5 18t32.5 50zM653 690l-60 -422q-22 -154 -88 -217.5t-202 -63.5q-140 0 -198 67t-37 219l58 417h126l-59 -422q-14 -100 9 -137t99 -37q79 0 116 39.5
t52 139.5l58 417h126z" />
    <glyph glyph-name="ubreve" unicode="&#x16d;" horiz-adv-x="577" 
d="M335 567q-79 0 -119 41.5t-25 103.5l60 4q-4 -32 18 -48t67 -16q50 0 79.5 18t32.5 50l59 -12q-3 -62 -50 -101.5t-122 -39.5zM417 490h120l-68 -490h-94l4 97q-116 -110 -218 -110q-68 0 -99 37t-21 101l51 365h121l-47 -333q-6 -37 3.5 -52t38.5 -15q37 0 72 21t95 73z
" />
    <glyph glyph-name="Uring" unicode="&#x16e;" horiz-adv-x="668" 
d="M412 933q48 0 78.5 -28t30.5 -73q0 -52 -33.5 -85.5t-86.5 -33.5q-47 0 -77 28t-30 73q0 52 33 85.5t85 33.5zM411 877q-26 0 -41 -16t-15 -41q0 -23 13 -37t36 -14q24 0 39.5 16t15.5 41q0 24 -12.5 37.5t-35.5 13.5zM653 690l-60 -422q-22 -154 -88 -217.5t-202 -63.5
q-140 0 -198 67t-37 219l58 417h126l-59 -422q-14 -100 9 -137t99 -37q79 0 116 39.5t52 139.5l58 417h126z" />
    <glyph glyph-name="uring" unicode="&#x16f;" horiz-adv-x="577" 
d="M335 539q-47 0 -77 28t-30 73q0 52 33 85.5t85 33.5q48 0 78.5 -28t30.5 -73q0 -52 -33.5 -85.5t-86.5 -33.5zM345 703q-26 0 -41 -16t-15 -41q0 -23 13 -37t36 -14q24 0 39.5 16t15.5 41q0 24 -12.5 37.5t-35.5 13.5zM417 490h120l-68 -490h-94l4 97
q-116 -110 -218 -110q-68 0 -99 37t-21 101l51 365h121l-47 -333q-6 -37 3.5 -52t38.5 -15q37 0 72 21t95 73z" />
    <glyph glyph-name="Uhungarumlaut" unicode="&#x170;" horiz-adv-x="668" 
d="M385 931l73 -51l-164 -162l-50 37zM564 931l72 -51l-164 -162l-48 37zM653 690l-60 -422q-22 -154 -88 -217.5t-202 -63.5q-140 0 -198 67t-37 219l58 417h126l-59 -422q-14 -100 9 -137t99 -37q79 0 116 39.5t52 139.5l58 417h126z" />
    <glyph glyph-name="uhungarumlaut" unicode="&#x171;" horiz-adv-x="577" 
d="M392 706l-164 -162l-50 37l141 176zM406 544l-48 37l140 176l72 -51zM375 184l42 306h120l-68 -490h-94l4 97q-116 -110 -218 -110q-68 0 -99 37t-21 101l51 365h121l-47 -333q-6 -37 3.5 -52t38.5 -15q37 0 72 21t95 73z" />
    <glyph glyph-name="Uogonek" unicode="&#x172;" horiz-adv-x="668" 
d="M527 690h126l-60 -422q-21 -146 -81.5 -210.5t-181.5 -69.5q-43 -48 -75 -107q-18 -29 -1.5 -38t58.5 4l13 -49q-42 -16 -75.5 -19.5t-53.5 4.5t-30.5 22.5t-9.5 34.5t12 42q29 56 101 106q-121 8 -171 75t-30 210l58 417h126l-59 -422q-14 -100 9 -137t99 -37
q79 0 116 39.5t52 139.5z" />
    <glyph glyph-name="uogonek" unicode="&#x173;" horiz-adv-x="577" 
d="M469 0q-45 -49 -78 -110q-18 -29 -1.5 -38t58.5 4l13 -49q-42 -16 -75.5 -19.5t-53.5 4.5t-30.5 22.5t-9.5 34.5t12 42q27 54 105 109h-34l4 97q-116 -110 -218 -110q-68 0 -99 37t-21 101l51 365h121l-47 -333q-6 -37 3.5 -52t38.5 -15q37 0 72 21t95 73l42 306h120z
" />
    <glyph glyph-name="Wcircumflex" unicode="&#x174;" horiz-adv-x="955" 
d="M600 904l126 -138l-41 -45l-125 100h-8l-152 -98l-32 50l147 131h85zM984 690l-213 -657q-11 -33 -48 -33h-128q-17 0 -29.5 11.5t-13.5 27.5l-21 479q0 1 -1.5 32.5t-1.5 47.5h-20q-8 -32 -24 -83l-153 -481q-11 -34 -48 -34h-127q-17 0 -30 11t-14 27l-31 652h127
l10 -505q1 -43 0 -94h22q5 20 29 99l148 463q13 37 50 37h119q18 0 29 -12t12 -30l27 -464q4 -62 3 -93h22q9 38 26 97l149 502h130z" />
    <glyph glyph-name="wcircumflex" unicode="&#x175;" horiz-adv-x="872" 
d="M527 724l126 -138l-41 -45l-125 100h-8l-152 -98l-32 50l147 131h85zM166 491l52 -401h13q30 0 50 44q20 40 40 125q16 69 34 202q1 13 10.5 21t22.5 8h126q12 0 20 -7.5t10 -19.5l36 -373h11q23 0 42 39q30 55 57 135q28 89 47 226h125q-29 -146 -75 -267
q-39 -102 -76 -157q-23 -35 -48.5 -50.5t-66.5 -15.5h-71q-15 0 -25 9t-12 23l-32 382h-13q-8 -95 -29 -183q-24 -93 -51 -144q-24 -50 -58 -68.5t-81 -18.5h-67q-15 0 -25 9t-12 23l-80 459h126z" />
    <glyph glyph-name="Ycircumflex" unicode="&#x176;" horiz-adv-x="586" 
d="M356 821l-152 -98l-32 50l147 131h85l126 -138l-41 -45l-125 100h-8zM636 690l-291 -457l-33 -233h-126l34 240l-161 450h127l87 -270q13 -38 16 -84h10q9 38 38 87l163 267h136z" />
    <glyph glyph-name="ycircumflex" unicode="&#x177;" horiz-adv-x="560" 
d="M314 641l-152 -98l-32 50l147 131h85l126 -138l-41 -45l-125 100h-8zM422 490h127q-48 -239 -139 -412q-78 -147 -159 -207.5t-195 -74.5l-19 82q66 16 113 41.5t89 80.5h-51q-23 0 -40 13.5t-21 35.5l-89 441h128l63 -384q3 -16 19 -16h46l6.5 13t6.5 14q81 175 115 373
z" />
    <glyph glyph-name="Ydieresis" unicode="&#x178;" horiz-adv-x="586" 
d="M242 763q-30 0 -27 28l9 58q4 30 35 30h38q17 0 23 -7t4 -23l-9 -58q-3 -28 -31 -28h-42zM411 763q-30 0 -27 28l9 58q4 30 35 30h38q32 0 27 -30l-9 -58q-3 -28 -31 -28h-42zM636 690l-291 -457l-33 -233h-126l34 240l-161 450h127l87 -270q13 -38 16 -84h10q9 38 38 87
l163 267h136z" />
    <glyph glyph-name="Zacute" unicode="&#x179;" horiz-adv-x="570" 
d="M527 835l-225 -111l-33 54l206 148zM577 690l-15 -102l-406 -486h345l-14 -102h-484l14 102l406 486h-332l15 102h471z" />
    <glyph glyph-name="zacute" unicode="&#x17a;" horiz-adv-x="515" 
d="M478 655l-225 -111l-33 54l206 148zM482 397h1l-328 -304h289l-13 -93h-428l13 93h-1l328 304h-280l12 93h420z" />
    <glyph glyph-name="Zdotaccent" unicode="&#x17b;" horiz-adv-x="570" 
d="M327 753q-17 0 -26 10t-7 27l7 53q4 33 36 33h37q17 0 26.5 -10t7.5 -27l-8 -54q-4 -32 -35 -32h-38zM577 690l-15 -102l-406 -486h345l-14 -102h-484l14 102l406 486h-332l15 102h471z" />
    <glyph glyph-name="zdotaccent" unicode="&#x17c;" horiz-adv-x="515" 
d="M278 573q-17 0 -26 10t-7 27l7 53q4 33 36 33h37q17 0 26.5 -10t7.5 -27l-8 -54q-4 -32 -35 -32h-38zM482 397h1l-328 -304h289l-13 -93h-428l13 93h-1l328 304h-280l12 93h420z" />
    <glyph glyph-name="Zcaron" unicode="&#x17d;" horiz-adv-x="570" 
d="M382 740h-78l-123 139l45 42l117 -96h8l150 96l33 -50zM577 690l-15 -102l-406 -486h345l-14 -102h-484l14 102l406 486h-332l15 102h471z" />
    <glyph glyph-name="zcaron" unicode="&#x17e;" horiz-adv-x="515" 
d="M333 560h-78l-123 139l45 42l117 -96h8l150 96l33 -50zM482 397h1l-328 -304h289l-13 -93h-428l13 93h-1l328 304h-280l12 93h420z" />
    <glyph glyph-name="uni018F" unicode="&#x18f;" horiz-adv-x="652" 
d="M368 703q150 0 208 -82.5t31 -280.5q-27 -201 -99 -277t-226 -76q-139 0 -193.5 62.5t-39.5 169.5q14 97 71.5 139t171.5 53l193 18q7 97 -21.5 132t-106.5 35q-88 0 -218 -16l-12 78q109 45 241 45zM284 94q86 0 126.5 50t62.5 186l-180 -20q-57 -7 -85 -32t-34 -79
q-6 -56 24 -80.5t86 -24.5z" />
    <glyph glyph-name="florin" unicode="&#x192;" horiz-adv-x="457" 
d="M407 606q-39 0 -59 -15t-29 -55l-30 -132h127l-20 -89h-128l-75 -325q-17 -72 -58.5 -109t-117.5 -37q-71 0 -119 9l25 87h63q38 0 59 16.5t29 53.5l71 305h-97l16 79l102 9l35 152q33 146 179 146q74 0 120 -9l-25 -86h-68z" />
    <glyph glyph-name="Ohorn" unicode="&#x1a0;" horiz-adv-x="689" 
d="M777 709q-13 -56 -56.5 -94t-99.5 -46q25 -83 6 -229q-27 -201 -99 -277t-225 -76t-211.5 81t-31.5 282q27 197 99 275t228 78q151 0 207 -79q39 4 66 32t37 67zM496 350q22 145 -2.5 195.5t-111.5 50.5q-91 0 -130 -52.5t-61 -203.5q-20 -142 4 -194t111 -52
q88 0 128.5 54t61.5 202z" />
    <glyph glyph-name="ohorn" unicode="&#x1a1;" horiz-adv-x="604" 
d="M665 522q-12 -53 -52.5 -90t-92.5 -48q14 -54 2 -144q-19 -138 -80.5 -195.5t-189.5 -57.5q-129 0 -181 61t-33 201q20 139 81 197t192 58q134 0 183 -65q34 8 58 34.5t33 62.5zM397 249q13 94 -4.5 126t-82.5 32q-69 0 -100 -34t-45 -133q-14 -92 4 -124t84 -32
q69 0 100 34.5t44 130.5z" />
    <glyph glyph-name="Uhorn" unicode="&#x1af;" horiz-adv-x="726" 
d="M819 717q-15 -63 -67 -102.5t-115 -39.5l-44 -307q-22 -154 -88 -217.5t-202 -63.5q-140 0 -198 67t-37 219l58 417h126l-59 -422q-14 -100 9 -137t99 -37q79 0 116 39.5t52 139.5l58 417h126l-8 -57q35 7 59.5 34.5t34.5 63.5z" />
    <glyph glyph-name="uhorn" unicode="&#x1b0;" horiz-adv-x="624" 
d="M698 537q-14 -60 -63.5 -99.5t-110.5 -42.5l-55 -395h-94l4 97q-116 -110 -218 -110q-68 0 -99 37t-21 101l51 365h121l-47 -333q-6 -37 3.5 -52t38.5 -15q37 0 72 21t95 73l42 306h120l-5 -35q33 9 55 35.5t31 60.5z" />
    <glyph glyph-name="uni01C4" unicode="&#x1c4;" horiz-adv-x="1234" 
d="M1046 740h-78l-123 139l45 42l117 -96h8l150 96l33 -50zM365 699q168 0 227 -78.5t31 -280.5q-13 -92 -32.5 -154t-45.5 -101t-67.5 -59.5t-87 -27.5t-115.5 -7q-100 0 -240 9l97 690q124 9 233 9zM1241 690l-15 -102l-406 -486h345l-14 -102h-484l14 102l406 486h-332
l15 102h471zM492 350q9 65 10.5 106.5t-4.5 70t-24.5 43t-44 20t-68.5 5.5q-10 0 -51.5 -0.5t-66.5 -0.5l-69 -496q74 -2 100 -2q75 0 113.5 17.5t63.5 71.5t41 165z" />
    <glyph glyph-name="uni01C5" unicode="&#x1c5;" horiz-adv-x="1184" 
d="M1002 560h-78l-123 139l45 42l117 -96h8l150 96l33 -50zM365 699q168 0 227 -78.5t31 -280.5q-13 -92 -32.5 -154t-45.5 -101t-67.5 -59.5t-87 -27.5t-115.5 -7q-100 0 -240 9l97 690q124 9 233 9zM492 350q9 65 10.5 106.5t-4.5 70t-24.5 43t-44 20t-68.5 5.5
q-10 0 -51.5 -0.5t-66.5 -0.5l-69 -496q74 -2 100 -2q75 0 113.5 17.5t63.5 71.5t41 165zM1151 397h1l-328 -304h289l-13 -93h-428l13 93h-1l328 304h-280l12 93h420z" />
    <glyph glyph-name="uni01C6" unicode="&#x1c6;" horiz-adv-x="1096" 
d="M914 560h-78l-123 139l45 42l117 -96h8l150 96l33 -50zM433 585l17 115h122l-98 -700h-96l3 95q-101 -107 -213 -107q-78 0 -112.5 60.5t-14.5 204.5q12 81 32.5 132.5t51.5 76.5t63 33.5t79 8.5q76 0 159 -13q0 35 7 94zM1063 397h1l-328 -304h289l-13 -93h-428l13 93
h-1l328 304h-280l12 93h420zM164 247q-13 -96 -4.5 -126t48.5 -29q41 0 78.5 21.5t91.5 70.5l31 226h-92q-59 0 -86 -10.5t-42 -43.5t-25 -109z" />
    <glyph glyph-name="uni01C7" unicode="&#x1c7;" horiz-adv-x="869" 
d="M255 690l-74 -530q-4 -28 6.5 -42t41.5 -14h240l-3 -98q-86 -8 -272 -8q-74 0 -111.5 40.5t-26.5 117.5l73 534h126zM851 690l-76 -540q-11 -79 -52 -120t-107 -41q-69 0 -112 18l23 86h43q71 0 81 65l74 532h126z" />
    <glyph glyph-name="uni01C8" unicode="&#x1c8;" horiz-adv-x="780" 
d="M731 703q18 0 26.5 -10t6.5 -27l-7 -55q-6 -33 -38 -33h-55q-39 0 -33 38l8 54q3 33 37 33h55zM255 690l-74 -530q-4 -28 6.5 -42t41.5 -14h240l-3 -98q-86 -8 -272 -8q-74 0 -111.5 40.5t-26.5 117.5l73 534h126zM737 490l-69 -485q-8 -63 -44 -118.5t-91 -87.5l-66 57
q68 68 81 155l68 479h121z" />
    <glyph glyph-name="uni01C9" unicode="&#x1c9;" horiz-adv-x="574" 
d="M525 703q18 0 26.5 -10t6.5 -27l-7 -55q-6 -33 -38 -33h-55q-39 0 -33 38l8 54q3 33 37 33h55zM246 700l-78 -550q-4 -31 6.5 -42.5t42.5 -11.5h44l5 -91q-32 -16 -103 -16q-63 0 -95 36t-24 101l81 574h121zM531 490l-69 -485q-8 -63 -44 -118.5t-91 -87.5l-66 57
q68 68 81 155l68 479h121z" />
    <glyph glyph-name="uni01CA" unicode="&#x1ca;" horiz-adv-x="1064" 
d="M692 690l-92 -646q-6 -44 -48 -44h-91q-33 0 -47 40l-145 423q-19 53 -28 101h-12q-1 -44 -8 -101l-63 -463h-123l91 646q6 44 49 44h90q33 0 47 -40l140 -411q25 -76 34 -109h14q1 54 9 108l61 452h122zM1046 690l-76 -540q-11 -79 -52 -120t-107 -41q-69 0 -112 18
l23 86h43q71 0 81 65l74 532h126z" />
    <glyph glyph-name="uni01CB" unicode="&#x1cb;" horiz-adv-x="975" 
d="M926 703q18 0 26.5 -10t6.5 -27l-7 -55q-6 -33 -38 -33h-55q-39 0 -33 38l8 54q3 33 37 33h55zM692 690l-92 -646q-6 -44 -48 -44h-91q-33 0 -47 40l-145 423q-19 53 -28 101h-12q-1 -44 -8 -101l-63 -463h-123l91 646q6 44 49 44h90q33 0 47 -40l140 -411
q25 -76 34 -109h14q1 54 9 108l61 452h122zM932 490l-69 -485q-8 -63 -44 -118.5t-91 -87.5l-66 57q68 68 81 155l68 479h121z" />
    <glyph glyph-name="uni01CC" unicode="&#x1cc;" horiz-adv-x="850" 
d="M801 703q18 0 26.5 -10t6.5 -27l-7 -55q-6 -33 -38 -33h-55q-39 0 -33 38l8 54q3 33 37 33h55zM416 504q62 0 94.5 -36t23.5 -102l-52 -366h-121l46 332q5 41 -2.5 55.5t-33.5 13.5q-38 0 -78 -22t-104 -72l-42 -307h-121l69 490h96l-2 -101q121 115 227 115zM618 11
l68 479h121l-69 -485q-8 -63 -44 -118.5t-91 -87.5l-66 57q68 68 81 155z" />
    <glyph glyph-name="Gcaron" unicode="&#x1e6;" horiz-adv-x="631" 
d="M434 740h-78l-123 139l45 42l117 -96h8l150 96l33 -50zM438 183l30 217h120l-56 -400h-90l-3 88q-88 -101 -211 -101q-104 0 -146.5 87t-21.5 276q14 109 41.5 179.5t72.5 108t97.5 51.5t129.5 14q118 0 203 -24l-17 -92q-96 6 -176 6q-76 0 -116 -18.5t-65 -72.5
t-39 -162q-15 -138 3 -191t82 -53q45 0 79.5 20t82.5 67z" />
    <glyph glyph-name="gcaron" unicode="&#x1e7;" horiz-adv-x="582" 
d="M379 561h-78l-123 139l45 42l117 -96h8l150 96l33 -50zM277 504q144 0 265 -29l-63 -450q-26 -232 -301 -232q-104 0 -167 23l11 77q72 -2 148 -2q162 0 187 102l6.5 26t7.5 29.5t10 27t15 28.5q-38 -51 -95.5 -82.5t-126.5 -32.5q-83 -1 -118 58.5t-14 205.5
q10 67 26.5 114t36.5 73.5t49.5 41t56 18.5t66.5 4zM209 90q43 1 82 24.5t88 73.5l32 218q-40 1 -92 1q-85 0 -111.5 -27t-42.5 -133q-13 -101 -4 -129.5t48 -27.5z" />
    <glyph glyph-name="uni01EA" unicode="&#x1ea;" horiz-adv-x="672" 
d="M387 703q151 0 209 -82.5t31 -280.5q-27 -197 -96.5 -274t-216.5 -79q-35 -41 -64 -94q-18 -29 -1.5 -38t58.5 4l13 -49q-42 -16 -75.5 -19.5t-53.5 4.5t-30.5 22.5t-9.5 34.5t12 42q26 49 87 95q-122 13 -168 95.5t-22 265.5q27 197 99 275t228 78zM496 350
q22 145 -2.5 195.5t-111.5 50.5q-91 0 -130 -52.5t-61 -203.5q-20 -142 4 -194t111 -52q88 0 128.5 54t61.5 202z" />
    <glyph glyph-name="uni01EB" unicode="&#x1eb;" horiz-adv-x="573" 
d="M311 504q130 0 180.5 -61.5t30.5 -202.5q-19 -131 -74.5 -189t-167.5 -63q-40 -48 -67 -98q-18 -29 -1.5 -38t58.5 4l13 -49q-42 -16 -75.5 -19.5t-53.5 4.5t-30.5 22.5t-9.5 34.5t12 42q26 49 89 97q-108 8 -151.5 70t-25.5 191q20 139 81 197t192 58zM397 249
q13 94 -4.5 126t-82.5 32q-69 0 -100 -34t-45 -133q-14 -92 4 -124t84 -32q69 0 100 34.5t44 130.5z" />
    <glyph glyph-name="Aringacute" unicode="&#x1fa;" horiz-adv-x="634" 
d="M494 963l-168 -69l-29 51l151 103zM367 657q-47 0 -77 28.5t-30 73.5q0 51 33.5 85t84.5 34q48 0 78 -28.5t30 -73.5q0 -51 -33.5 -85t-85.5 -34zM377 822q-26 0 -41 -16t-15 -42q0 -23 13 -37t36 -14q24 0 39.5 16.5t15.5 41.5q0 23 -12.5 37t-35.5 14zM466 0l-28 144
h-277l-65 -144h-131l287 599q16 31 46 31h123q15 0 26 -10t14 -26l130 -594h-125zM210 250h207l-44 224l-6 63h-30q-15 -41 -25 -62z" />
    <glyph glyph-name="aringacute" unicode="&#x1fb;" 
d="M494 849l-216 -76l-29 56l199 115zM333 534q-47 0 -77 28t-30 73q0 52 33 85.5t85 33.5q48 0 78.5 -28t30.5 -73q0 -52 -33.5 -85.5t-86.5 -33.5zM343 698q-26 0 -41 -16t-15 -41q0 -23 13 -37t36 -14q24 0 39.5 16t15.5 41q0 24 -12.5 37.5t-35.5 13.5zM294 504
q127 0 247 -29l-67 -475h-96l2 84q-83 -95 -204 -96q-90 -1 -122.5 59t-12.5 206q12 83 33.5 134.5t56.5 76.5t70.5 32.5t92.5 7.5zM208 90q43 0 82.5 24t87.5 74l32 218q-40 1 -90 1q-46 0 -70 -4.5t-42.5 -22t-27 -47.5t-16.5 -86q-14 -103 -5.5 -130t49.5 -27z" />
    <glyph glyph-name="AEacute" unicode="&#x1fc;" horiz-adv-x="920" 
d="M770 835l-225 -111l-33 54l206 148zM664 588q-59 0 -67 -61l-17 -120h269l-12 -93h-270l-21 -155q-5 -32 6 -44.5t42 -12.5h250l-5 -96q-90 -8 -277 -8q-71 0 -108 40.5t-27 111.5l7 49h-216l-134 -199h-132l390 570q47 71 104 96t170 25q200 0 312 -7l-16 -96h-248z
M289 304l159 -1l34 240q5 44 34 68h-6q-28 -21 -55 -61z" />
    <glyph glyph-name="aeacute" unicode="&#x1fd;" horiz-adv-x="880" 
d="M700 655l-225 -111l-33 54l206 148zM651 504q121 0 163.5 -41.5t31.5 -121.5q-10 -72 -56 -104t-141 -38l-155 -13q1 -58 28 -78.5t83 -20.5q84 0 178 12l8 -79q-73 -32 -202 -32q-162 0 -204 104q-80 -103 -209 -104q-90 -1 -122.5 59t-12.5 206q12 83 33 134.5t55 76
t68.5 32.5t90.5 8q104 0 216 -21q55 21 147 21zM727 352q3 38 -15 47t-77 9q-66 -1 -93.5 -28.5t-40.5 -112.5l140 13q42 3 61.5 18.5t24.5 53.5zM208 90q72 0 161 89q0 43 5 79q12 94 42 148q-43 1 -96 1q-45 0 -68.5 -4.5t-42 -22t-27 -47.5t-16.5 -86q-13 -103 -5 -130
t47 -27z" />
    <glyph glyph-name="Oslashacute" unicode="&#x1fe;" horiz-adv-x="672" 
d="M582 835l-225 -111l-33 54l206 148zM566 654q93 -77 61 -314q-27 -201 -99 -277t-225 -76q-79 0 -130 19l-43 -70l-50 30l42 69q-94 77 -62 315q27 197 99 275t228 78q78 0 128 -20l45 74l51 -29zM191 340q-20 -137 1 -189l263 433q-25 12 -73 12q-91 0 -130 -52.5
t-61 -203.5zM496 350q21 136 0 189l-262 -433q27 -12 72 -12q88 0 128.5 54t61.5 202z" />
    <glyph glyph-name="oslashacute" unicode="&#x1ff;" horiz-adv-x="573" 
d="M511 655l-225 -111l-33 54l206 148zM455 474q92 -55 67 -234q-19 -138 -80.5 -195.5t-189.5 -57.5q-46 0 -86 8l-47 -77l-45 26l42 69q-103 51 -78 236q20 139 81 197t192 58q57 0 96 -11l49 82l45 -26zM165 240q-15 -101 9 -131l178 294q-16 4 -42 4q-69 0 -100 -34
t-45 -133zM397 249q13 90 -3 123l-173 -286q18 -2 32 -2q69 0 100 34.5t44 130.5z" />
    <glyph glyph-name="uni0200" unicode="&#x200;" horiz-adv-x="634" 
d="M352 755l-49 -37l-164 162l73 51zM531 755l-49 -37l-164 162l72 51zM466 0l-29 194h-258l-83 -194h-131l300 659q10 31 46 31h123q16 0 27.5 -10.5t12.5 -25.5l117 -654h-125zM224 300h197l-35 234l-6 63h-30q-8 -21 -25 -62z" />
    <glyph glyph-name="uni0201" unicode="&#x201;" 
d="M296 575l-49 -37l-164 162l73 51zM475 575l-49 -37l-164 162l72 51zM294 504q127 0 247 -29l-67 -475h-96l2 84q-83 -95 -204 -96q-90 -1 -122.5 59t-12.5 206q12 83 33.5 134.5t56.5 76.5t70.5 32.5t92.5 7.5zM208 90q43 0 82.5 24t87.5 74l32 218q-40 1 -90 1
q-46 0 -70 -4.5t-42.5 -22t-27 -47.5t-16.5 -86q-14 -103 -5.5 -130t49.5 -27z" />
    <glyph glyph-name="uni0202" unicode="&#x202;" horiz-adv-x="634" 
d="M393 810q-50 0 -79.5 -18.5t-33.5 -50.5l-58 13q3 62 49.5 101t121.5 39q80 0 120 -41.5t25 -103.5l-60 -4q4 32 -18 48.5t-67 16.5zM466 0l-29 194h-258l-83 -194h-131l300 659q10 31 46 31h123q16 0 27.5 -10.5t12.5 -25.5l117 -654h-125zM224 300h197l-35 234l-6 63
h-30q-8 -21 -25 -62z" />
    <glyph glyph-name="uni0203" unicode="&#x203;" 
d="M337 630q-50 0 -79.5 -18.5t-33.5 -50.5l-58 13q3 62 49.5 101t121.5 39q80 0 120 -41.5t25 -103.5l-60 -4q4 32 -18 48.5t-67 16.5zM294 504q127 0 247 -29l-67 -475h-96l2 84q-83 -95 -204 -96q-90 -1 -122.5 59t-12.5 206q12 83 33.5 134.5t56.5 76.5t70.5 32.5
t92.5 7.5zM208 90q43 0 82.5 24t87.5 74l32 218q-40 1 -90 1q-46 0 -70 -4.5t-42.5 -22t-27 -47.5t-16.5 -86q-14 -103 -5.5 -130t49.5 -27z" />
    <glyph glyph-name="uni0204" unicode="&#x204;" horiz-adv-x="565" 
d="M345 772l-49 -37l-164 162l73 51zM524 772l-49 -37l-164 162l72 51zM290 588q-30 0 -43.5 -13t-17.5 -47l-17 -121h281l-12 -93h-282l-21 -155q-4 -32 7 -44.5t42 -12.5h260l-3 -96q-85 -8 -282 -8q-85 0 -123 41t-28 115l57 410q8 61 49 94.5t111 33.5q215 0 304 -9
l-16 -95h-266z" />
    <glyph glyph-name="uni0205" unicode="&#x205;" horiz-adv-x="548" 
d="M293 575l-49 -37l-164 162l73 51zM472 575l-49 -37l-164 162l72 51zM317 504q122 0 164.5 -41.5t31.5 -121.5q-10 -72 -56 -104t-141 -38l-155 -13q1 -58 28 -78.5t82 -20.5q83 0 184 12l8 -79q-77 -32 -208 -32t-182 66.5t-33 203.5q19 141 79 193.5t198 52.5zM394 352
q3 38 -15 47t-77 9q-66 -1 -93.5 -28.5t-40.5 -112.5l140 13q42 3 61.5 18.5t24.5 53.5z" />
    <glyph glyph-name="uni0206" unicode="&#x206;" horiz-adv-x="565" 
d="M386 827q-50 0 -79.5 -18.5t-33.5 -50.5l-58 13q3 62 49.5 101t121.5 39q80 0 120 -41.5t25 -103.5l-60 -4q4 32 -18 48.5t-67 16.5zM290 588q-30 0 -43.5 -13t-17.5 -47l-17 -121h281l-12 -93h-282l-21 -155q-4 -32 7 -44.5t42 -12.5h260l-3 -96q-85 -8 -282 -8
q-85 0 -123 41t-28 115l57 410q8 61 49 94.5t111 33.5q215 0 304 -9l-16 -95h-266z" />
    <glyph glyph-name="uni0207" unicode="&#x207;" horiz-adv-x="548" 
d="M334 630q-50 0 -79.5 -18.5t-33.5 -50.5l-58 13q3 62 49.5 101t121.5 39q80 0 120 -41.5t25 -103.5l-60 -4q4 32 -18 48.5t-67 16.5zM317 504q122 0 164.5 -41.5t31.5 -121.5q-10 -72 -56 -104t-141 -38l-155 -13q1 -58 28 -78.5t82 -20.5q83 0 184 12l8 -79
q-77 -32 -208 -32t-182 66.5t-33 203.5q19 141 79 193.5t198 52.5zM394 352q3 38 -15 47t-77 9q-66 -1 -93.5 -28.5t-40.5 -112.5l140 13q42 3 61.5 18.5t24.5 53.5z" />
    <glyph glyph-name="uni0208" unicode="&#x208;" horiz-adv-x="279" 
d="M32 931l140 -176l-49 -37l-164 162zM210 931l141 -176l-49 -37l-164 162zM258 690l-97 -690h-126l97 690h126z" />
    <glyph glyph-name="uni0209" unicode="&#x209;" horiz-adv-x="264" 
d="M-1 751l140 -176l-49 -37l-164 162zM177 751l141 -176l-49 -37l-164 162zM220 490l-69 -490h-121l69 490h121z" />
    <glyph glyph-name="uni020A" unicode="&#x20a;" horiz-adv-x="279" 
d="M100 741l-58 13q3 62 49.5 101t121.5 39q80 0 120 -41.5t25 -103.5l-60 -4q4 32 -18 48.5t-67 16.5q-50 0 -79.5 -18.5t-33.5 -50.5zM258 690l-97 -690h-126l97 690h126z" />
    <glyph glyph-name="uni020B" unicode="&#x20b;" horiz-adv-x="264" 
d="M67 561l-58 13q3 62 49.5 101t121.5 39q80 0 120 -41.5t25 -103.5l-60 -4q4 32 -18 48.5t-67 16.5q-50 0 -79.5 -18.5t-33.5 -50.5zM220 490l-69 -490h-121l69 490h121z" />
    <glyph glyph-name="uni020C" unicode="&#x20c;" horiz-adv-x="672" 
d="M224 931l140 -176l-49 -37l-164 162zM402 931l141 -176l-49 -37l-164 162zM387 703q151 0 209 -82.5t31 -280.5q-27 -201 -99 -277t-225 -76t-211.5 81t-31.5 282q27 197 99 275t228 78zM382 596q-91 0 -130 -52.5t-61 -203.5q-20 -142 4 -194t111 -52q88 0 128.5 54
t61.5 202q22 145 -2.5 195.5t-111.5 50.5z" />
    <glyph glyph-name="uni020D" unicode="&#x20d;" horiz-adv-x="573" 
d="M153 751l140 -176l-49 -37l-164 162zM331 751l141 -176l-49 -37l-164 162zM311 504q130 0 180.5 -61.5t30.5 -202.5q-19 -138 -80.5 -195.5t-189.5 -57.5q-129 0 -181 61t-33 201q20 139 81 197t192 58zM310 407q-69 0 -100 -34t-45 -133q-14 -92 4 -124t84 -32
q69 0 100 34.5t44 130.5q13 94 -4.5 126t-82.5 32z" />
    <glyph glyph-name="uni020E" unicode="&#x20e;" horiz-adv-x="672" 
d="M292 741l-58 13q3 62 49.5 101t121.5 39q80 0 120 -41.5t25 -103.5l-60 -4q4 32 -18 48.5t-67 16.5q-50 0 -79.5 -18.5t-33.5 -50.5zM387 703q151 0 209 -82.5t31 -280.5q-27 -201 -99 -277t-225 -76t-211.5 81t-31.5 282q27 197 99 275t228 78zM382 596
q-91 0 -130 -52.5t-61 -203.5q-20 -142 4 -194t111 -52q88 0 128.5 54t61.5 202q22 145 -2.5 195.5t-111.5 50.5z" />
    <glyph glyph-name="uni020F" unicode="&#x20f;" horiz-adv-x="573" 
d="M221 561l-58 13q3 62 49.5 101t121.5 39q80 0 120 -41.5t25 -103.5l-60 -4q4 32 -18 48.5t-67 16.5q-50 0 -79.5 -18.5t-33.5 -50.5zM311 504q130 0 180.5 -61.5t30.5 -202.5q-19 -138 -80.5 -195.5t-189.5 -57.5q-129 0 -181 61t-33 201q20 139 81 197t192 58zM310 407
q-69 0 -100 -34t-45 -133q-14 -92 4 -124t84 -32q69 0 100 34.5t44 130.5q13 94 -4.5 126t-82.5 32z" />
    <glyph glyph-name="uni0210" unicode="&#x210;" horiz-adv-x="629" 
d="M348 755l-49 -37l-164 162l73 51zM527 755l-49 -37l-164 162l72 51zM594 492q-10 -75 -46 -117.5t-109 -51.5l-1 -6q64 -16 79 -103l41 -214h-128l-37 216q-6 34 -21 47t-46 13h-129l-39 -276h-123l97 690q89 9 245 9q119 0 175.5 -47t41.5 -160zM333 379q67 1 96 25.5
t39 89.5q8 59 -12 80.5t-82 21.5q-95 0 -132 -1l-31 -216h122z" />
    <glyph glyph-name="uni0211" unicode="&#x211;" horiz-adv-x="410" 
d="M243 575l-49 -37l-164 162l73 51zM422 575l-49 -37l-164 162l72 51zM400 504h28l-28 -114h-32q-34 0 -71 -18.5t-108 -63.5l-42 -308h-121l69 490h93l-2 -103q119 117 214 117z" />
    <glyph glyph-name="uni0212" unicode="&#x212;" horiz-adv-x="629" 
d="M389 810q-50 0 -79.5 -18.5t-33.5 -50.5l-58 13q3 62 49.5 101t121.5 39q80 0 120 -41.5t25 -103.5l-60 -4q4 32 -18 48.5t-67 16.5zM594 492q-10 -75 -46 -117.5t-109 -51.5l-1 -6q64 -16 79 -103l41 -214h-128l-37 216q-6 34 -21 47t-46 13h-129l-39 -276h-123l97 690
q89 9 245 9q119 0 175.5 -47t41.5 -160zM333 379q67 1 96 25.5t39 89.5q8 59 -12 80.5t-82 21.5q-95 0 -132 -1l-31 -216h122z" />
    <glyph glyph-name="uni0213" unicode="&#x213;" horiz-adv-x="410" 
d="M284 714q80 0 120 -41.5t25 -103.5l-60 -4q4 32 -18 48.5t-67 16.5q-50 0 -79.5 -18.5t-33.5 -50.5l-58 13q3 62 49.5 101t121.5 39zM186 387q119 117 214 117h28l-28 -114h-32q-34 0 -71 -18.5t-108 -63.5l-42 -308h-121l69 490h93z" />
    <glyph glyph-name="uni0214" unicode="&#x214;" horiz-adv-x="668" 
d="M224 931l140 -176l-49 -37l-164 162zM402 931l141 -176l-49 -37l-164 162zM653 690l-60 -422q-22 -154 -88 -217.5t-202 -63.5q-140 0 -198 67t-37 219l58 417h126l-59 -422q-14 -100 9 -137t99 -37q79 0 116 39.5t52 139.5l58 417h126z" />
    <glyph glyph-name="uni0215" unicode="&#x215;" horiz-adv-x="577" 
d="M298 581l-49 -37l-164 162l73 51zM477 581l-49 -37l-164 162l72 51zM417 490h120l-68 -490h-94l4 97q-116 -110 -218 -110q-68 0 -99 37t-21 101l51 365h121l-47 -333q-6 -37 3.5 -52t38.5 -15q37 0 72 21t95 73z" />
    <glyph glyph-name="uni0216" unicode="&#x216;" horiz-adv-x="668" 
d="M292 741l-58 13q3 62 49.5 101t121.5 39q80 0 120 -41.5t25 -103.5l-60 -4q4 32 -18 48.5t-67 16.5q-50 0 -79.5 -18.5t-33.5 -50.5zM653 690l-60 -422q-22 -154 -88 -217.5t-202 -63.5q-140 0 -198 67t-37 219l58 417h126l-59 -422q-14 -100 9 -137t99 -37
q79 0 116 39.5t52 139.5l58 417h126z" />
    <glyph glyph-name="uni0217" unicode="&#x217;" horiz-adv-x="577" 
d="M339 636q-50 0 -79.5 -18.5t-33.5 -50.5l-58 13q3 62 49.5 101t121.5 39q80 0 120 -41.5t25 -103.5l-60 -4q4 32 -18 48.5t-67 16.5zM417 490h120l-68 -490h-94l4 97q-116 -110 -218 -110q-68 0 -99 37t-21 101l51 365h121l-47 -333q-6 -37 3.5 -52t38.5 -15q37 0 72 21
t95 73z" />
    <glyph glyph-name="Scommaaccent" unicode="&#x218;" horiz-adv-x="568" 
d="M335 702q128 0 216 -24l-13 -88q-118 4 -202 4q-32 0 -45.5 -0.5t-32.5 -4.5t-27 -13t-15 -24.5t-11 -40.5q-6 -43 5.5 -58t54.5 -30l128 -46q77 -28 101.5 -74t13.5 -126q-15 -113 -71.5 -151t-192.5 -38q-114 0 -224 23l14 91q175 -4 205 -4q81 0 109 16t35 72
q6 43 -5.5 58.5t-51.5 29.5l-132 48q-72 27 -98 75.5t-16 123.5q16 110 74 145.5t181 35.5zM275 -56q22 0 30.5 -8.5t4.5 -28.5l-7 -53q-10 -68 -61 -140l-51 15q28 80 33 104q-18 -1 -26.5 7t-6.5 24l7 46q4 20 14 27t34 7h29z" />
    <glyph glyph-name="scommaaccent" unicode="&#x219;" horiz-adv-x="514" 
d="M266 504q117 -2 217 -18l-13 -83q-94 3 -196 3q-61 0 -81 -5t-23 -27q-3 -20 9 -30.5t47 -25.5l125 -56q62 -27 85 -58.5t16 -86.5q-5 -34 -18 -57t-31.5 -37t-49 -21.5t-61.5 -10t-77 -2.5q-38 0 -67 1.5t-43.5 3t-43.5 5.5t-47 6l13 85q53 -4 152 -4q91 0 120.5 7.5
t34.5 31.5q-1 6 0.5 9.5t-1.5 7.5t-3.5 6t-5 5t-6.5 5t-8 4.5t-10 4.5t-12 5.5t-13 5.5l-125 56q-57 26 -80 61t-17 87q8 68 58.5 95.5t154.5 26.5zM229 -55q22 0 30.5 -8.5t4.5 -28.5l-7 -53q-10 -68 -61 -140l-51 15q28 80 33 104q-18 -1 -26.5 7t-6.5 24l7 46q4 20 14 27
t34 7h29z" />
    <glyph glyph-name="uni021A" unicode="&#x21a;" horiz-adv-x="584" 
d="M622 690l-15 -107h-212l-82 -583h-125l82 583h-211l15 107h548zM260 -54q22 0 30.5 -8.5t4.5 -28.5l-7 -53q-10 -68 -61 -140l-51 15q28 80 33 104q-18 -1 -26.5 7t-6.5 24l7 46q4 20 14 27t34 7h29z" />
    <glyph glyph-name="uni021B" unicode="&#x21b;" horiz-adv-x="397" 
d="M245 402l-36 -252q-4 -32 5.5 -43t42.5 -11h69l5 -90q-51 -17 -124 -17q-67 0 -98.5 38t-21.5 107l38 268h-89l11 83l91 5l20 141h120l-20 -141h142l-11 -88h-144zM205 -55q22 0 30.5 -8.5t4.5 -28.5l-7 -53q-10 -68 -61 -140l-51 15q28 80 33 104q-18 -1 -26.5 7
t-6.5 24l7 46q4 20 14 27t34 7h29z" />
    <glyph glyph-name="uni022A" unicode="&#x22a;" horiz-adv-x="672" 
d="M557 979l-11 -77h-264l11 77h264zM347 857q29 0 25 -27l-8 -53q-4 -26 -28 -26h-39q-28 0 -24 26l8 53q5 27 32 27h34zM501 857q29 0 25 -27l-8 -53q-4 -26 -29 -26h-38q-28 0 -24 26l8 53q5 27 31 27h35zM387 703q151 0 209 -82.5t31 -280.5q-27 -201 -99 -277t-225 -76
t-211.5 81t-31.5 282q27 197 99 275t228 78zM382 596q-91 0 -130 -52.5t-61 -203.5q-20 -142 4 -194t111 -52q88 0 128.5 54t61.5 202q22 145 -2.5 195.5t-111.5 50.5z" />
    <glyph glyph-name="uni022B" unicode="&#x22b;" horiz-adv-x="573" 
d="M486 799l-11 -77h-264l11 77h264zM276 677q30 0 25 -27l-8 -53q-4 -26 -28 -26h-39q-28 0 -24 26l8 53q4 27 32 27h34zM430 677q30 0 25 -27l-8 -53q-4 -26 -29 -26h-38q-28 0 -24 26l8 53q4 27 31 27h35zM311 504q130 0 180.5 -61.5t30.5 -202.5q-19 -138 -80.5 -195.5
t-189.5 -57.5q-129 0 -181 61t-33 201q20 139 81 197t192 58zM310 407q-69 0 -100 -34t-45 -133q-14 -92 4 -124t84 -32q69 0 100 34.5t44 130.5q13 94 -4.5 126t-82.5 32z" />
    <glyph glyph-name="uni022C" unicode="&#x22c;" horiz-adv-x="672" 
d="M557 998l-11 -77h-264l11 77h264zM320 870q34 -3 79.5 -25t67.5 -25q27 -4 39.5 7.5t16.5 39.5l53 -5q0 -62 -25 -95t-65 -31q-38 3 -85 26.5t-65 25.5q-27 4 -39 -9t-16 -42l-53 5q1 65 27 97.5t65 30.5zM387 703q151 0 209 -82.5t31 -280.5q-27 -201 -99 -277t-225 -76
t-211.5 81t-31.5 282q27 197 99 275t228 78zM382 596q-91 0 -130 -52.5t-61 -203.5q-20 -142 4 -194t111 -52q88 0 128.5 54t61.5 202q22 145 -2.5 195.5t-111.5 50.5z" />
    <glyph glyph-name="uni022D" unicode="&#x22d;" horiz-adv-x="573" 
d="M486 818l-11 -77h-264l11 77h264zM249 690q34 -3 79.5 -25t67.5 -25q27 -4 39.5 7.5t16.5 39.5l53 -5q0 -62 -25 -95t-65 -31q-38 3 -85 26.5t-65 25.5q-27 4 -39 -9t-16 -42l-53 5q1 65 27 97.5t65 30.5zM311 504q130 0 180.5 -61.5t30.5 -202.5q-19 -138 -80.5 -195.5
t-189.5 -57.5q-129 0 -181 61t-33 201q20 139 81 197t192 58zM310 407q-69 0 -100 -34t-45 -133q-14 -92 4 -124t84 -32q69 0 100 34.5t44 130.5q13 94 -4.5 126t-82.5 32z" />
    <glyph glyph-name="uni0230" unicode="&#x230;" horiz-adv-x="672" 
d="M561 987l-11 -77h-264l11 77h264zM423 856q15 0 23.5 -9t6.5 -24l-6 -49q-6 -30 -33 -30h-34q-33 0 -30 33l6 49q4 30 33 30h34zM387 703q151 0 209 -82.5t31 -280.5q-27 -201 -99 -277t-225 -76t-211.5 81t-31.5 282q27 197 99 275t228 78zM382 596q-91 0 -130 -52.5
t-61 -203.5q-20 -142 4 -194t111 -52q88 0 128.5 54t61.5 202q22 145 -2.5 195.5t-111.5 50.5z" />
    <glyph glyph-name="uni0231" unicode="&#x231;" horiz-adv-x="573" 
d="M490 807l-11 -77h-264l11 77h264zM352 676q15 0 23.5 -9t6.5 -24l-6 -49q-6 -30 -33 -30h-34q-33 0 -30 33l6 49q4 30 33 30h34zM311 504q130 0 180.5 -61.5t30.5 -202.5q-19 -138 -80.5 -195.5t-189.5 -57.5q-129 0 -181 61t-33 201q20 139 81 197t192 58zM310 407
q-69 0 -100 -34t-45 -133q-14 -92 4 -124t84 -32q69 0 100 34.5t44 130.5q13 94 -4.5 126t-82.5 32z" />
    <glyph glyph-name="uni0232" unicode="&#x232;" horiz-adv-x="586" 
d="M505 861l-12 -84h-291l12 84h291zM636 690l-291 -457l-33 -233h-126l34 240l-161 450h127l87 -270q13 -38 16 -84h10q9 38 38 87l163 267h136z" />
    <glyph glyph-name="uni0233" unicode="&#x233;" horiz-adv-x="560" 
d="M463 681l-12 -84h-291l12 84h291zM422 490h127q-48 -239 -139 -412q-78 -147 -159 -207.5t-195 -74.5l-19 82q66 16 113 41.5t89 80.5h-51q-23 0 -40 13.5t-21 35.5l-89 441h128l63 -384q3 -16 19 -16h46l6.5 13t6.5 14q81 175 115 373z" />
    <glyph glyph-name="uni0237" unicode="&#x237;" horiz-adv-x="263" 
d="M220 490l-69 -485q-8 -63 -44 -118.5t-91 -87.5l-66 57q68 68 81 155l68 479h121z" />
    <glyph glyph-name="uni0259" unicode="&#x259;" horiz-adv-x="548" 
d="M292 504q132 0 182.5 -66.5t32.5 -204.5q-18 -141 -78.5 -193t-198.5 -52q-121 0 -164 41.5t-32 121.5q11 72 57.5 104t140.5 38l155 13q-2 58 -29 78t-82 20q-84 0 -183 -12l-8 80q77 32 207 32zM246 84q66 0 93 27.5t41 112.5l-140 -13q-42 -2 -62 -17.5t-24 -53.5
q-4 -39 14 -47.5t78 -8.5z" />
    <glyph glyph-name="uni02B9" unicode="&#x2b9;" horiz-adv-x="280" 
d="M291 756l-108 -218h-76l90 218h94z" />
    <glyph glyph-name="uni02BA" unicode="&#x2ba;" horiz-adv-x="425" 
d="M291 756l-108 -218h-76l90 218h94zM436 756l-108 -218h-75l89 218h94z" />
    <glyph glyph-name="uni02BB" unicode="&#x2bb;" horiz-adv-x="238" 
d="M140 508q-25 0 -33.5 10.5t-5.5 34.5l8 64q12 83 67 171l56 -20q-26 -78 -36 -125q20 1 29 -9t7 -29l-8 -56q-4 -24 -15 -32.5t-38 -8.5h-31z" />
    <glyph glyph-name="uni02BE" unicode="&#x2be;" horiz-adv-x="179" 
d="M77 586q27 0 42 16t15 41q0 47 -42 51l8 55q42 -3 68.5 -30.5t26.5 -69.5q0 -53 -34.5 -86.5t-90.5 -32.5z" />
    <glyph glyph-name="uni02BF" unicode="&#x2bf;" horiz-adv-x="179" 
d="M213 693q-27 0 -42 -16t-15 -41q0 -46 42 -51l-8 -55q-42 3 -68.5 30.5t-26.5 69.5q0 53 34.5 86.5t90.5 32.5z" />
    <glyph glyph-name="circumflex" unicode="&#x2c6;" horiz-adv-x="436" 
d="M324 719l126 -138l-41 -45l-125 100h-8l-152 -98l-32 50l147 131h85z" />
    <glyph glyph-name="caron" unicode="&#x2c7;" horiz-adv-x="436" 
d="M422 735l33 -50l-152 -131h-78l-123 139l45 42l117 -96h8z" />
    <glyph glyph-name="uni02C8" unicode="&#x2c8;" horiz-adv-x="215" 
d="M144 684h54l-17 -92h-54z" />
    <glyph glyph-name="uni02C9" unicode="&#x2c9;" horiz-adv-x="400" 
d="M407 685l-12 -84h-291l12 84h291z" />
    <glyph glyph-name="uni02CA" unicode="&#x2ca;" horiz-adv-x="337" 
d="M305 732l52 -91l-225 -111l-33 54z" />
    <glyph glyph-name="uni02CB" unicode="&#x2cb;" horiz-adv-x="337" 
d="M129 731l191 -148l-41 -53l-210 117z" />
    <glyph glyph-name="uni02CC" unicode="&#x2cc;" horiz-adv-x="212" 
d="M37 -69h54l-17 -91h-54z" />
    <glyph glyph-name="breve" unicode="&#x2d8;" horiz-adv-x="385" 
d="M355 704l59 -12q-3 -62 -50 -101.5t-122 -39.5q-79 0 -119 41.5t-25 103.5l60 4q-4 -32 18 -48t67 -16q50 0 79.5 18t32.5 50z" />
    <glyph glyph-name="dotaccent" unicode="&#x2d9;" horiz-adv-x="229" 
d="M192 694q17 0 26.5 -10t7.5 -27l-8 -54q-4 -32 -35 -32h-38q-17 0 -26 10t-7 27l7 53q5 33 36 33h37z" />
    <glyph glyph-name="ring" unicode="&#x2da;" horiz-adv-x="305" 
d="M213 749q48 0 78.5 -28t30.5 -73q0 -52 -33.5 -85.5t-86.5 -33.5q-47 0 -77 28t-30 73q0 52 33 85.5t85 33.5zM212 693q-26 0 -41 -16t-15 -41q0 -23 13 -37t36 -14q24 0 39.5 16t15.5 41q0 24 -12.5 37.5t-35.5 13.5z" />
    <glyph glyph-name="ogonek" unicode="&#x2db;" horiz-adv-x="251" 
d="M103 4l54 -4q-45 -49 -78 -110q-18 -29 -1.5 -38t58.5 4l13 -49q-42 -16 -75.5 -19.5t-53.5 4.5t-30.5 22.5t-9.5 34.5t12 42q30 58 111 113z" />
    <glyph glyph-name="tilde" unicode="&#x2dc;" horiz-adv-x="431" 
d="M189 707q34 -3 79.5 -25t67.5 -25q27 -4 39.5 7.5t16.5 39.5l53 -5q0 -62 -25 -95t-65 -31q-39 3 -86.5 26t-63.5 26q-27 4 -39 -9t-16 -42l-53 5q1 65 27 97.5t65 30.5z" />
    <glyph glyph-name="hungarumlaut" unicode="&#x2dd;" horiz-adv-x="481" 
d="M236 737l73 -51l-164 -162l-50 37zM415 737l72 -51l-164 -162l-48 37z" />
    <glyph glyph-name="acutecomb" unicode="&#x301;" horiz-adv-x="0" 
d="M-37 732l52 -91l-225 -111l-33 54z" />
    <glyph glyph-name="uni0302" unicode="&#x302;" horiz-adv-x="0" 
d="M-119 719l126 -138l-41 -45l-125 100h-8l-152 -98l-32 50l147 131h85z" />
    <glyph glyph-name="tildecomb" unicode="&#x303;" horiz-adv-x="0" 
d="M-244 707q34 -3 79.5 -25t67.5 -25q27 -4 39.5 7.5t16.5 39.5l53 -5q0 -63 -25.5 -95.5t-65.5 -30.5q-38 3 -85.5 26t-63.5 26q-27 4 -39 -9t-16 -42l-53 5q1 65 27 97.5t65 30.5z" />
    <glyph glyph-name="uni0304" unicode="&#x304;" horiz-adv-x="0" 
d="M-8 685l-12 -84h-290l12 84h290z" />
    <glyph glyph-name="uni0306" unicode="&#x306;" horiz-adv-x="0" 
d="M-39 704l59 -12q-3 -62 -50 -101.5t-122 -39.5q-79 0 -119 41.5t-25 103.5l60 4q-5 -32 17.5 -48t67.5 -16q50 0 79.5 18t32.5 50z" />
    <glyph glyph-name="uni0307" unicode="&#x307;" horiz-adv-x="0" 
d="M-48 694q17 0 26.5 -10t7.5 -27l-8 -54q-4 -32 -36 -32h-37q-38 0 -33 37l7 53q5 33 36 33h37z" />
    <glyph glyph-name="uni0308" unicode="&#x308;" horiz-adv-x="0" 
d="M-213 703q32 0 28 -30l-10 -58q-3 -28 -31 -28h-42q-30 0 -27 28l9 58q6 30 35 30h38zM-44 703q33 0 28 -30l-10 -58q-3 -28 -31 -28h-42q-30 0 -27 28l10 58q4 30 34 30h38z" />
    <glyph glyph-name="hookabovecomb" unicode="&#x309;" horiz-adv-x="0" 
d="M-141 601q70 11 70 69q0 44 -60 23l-2 64q63 20 102 0.5t39 -70.5q0 -57 -39.5 -97t-106.5 -47z" />
    <glyph glyph-name="uni030A" unicode="&#x30a;" horiz-adv-x="0" 
d="M-104 749q47 0 77.5 -28t30.5 -73q0 -52 -33.5 -85.5t-85.5 -33.5q-47 0 -77.5 28t-30.5 73q0 52 33.5 85.5t85.5 33.5zM-106 693q-26 0 -40.5 -16t-14.5 -41q0 -24 12.5 -37.5t36.5 -13.5q23 0 39 16t16 41q0 23 -13 37t-36 14z" />
    <glyph glyph-name="uni030B" unicode="&#x30b;" horiz-adv-x="0" 
d="M-248 737l72 -51l-164 -162l-49 37zM-70 737l73 -51l-164 -162l-49 37z" />
    <glyph glyph-name="uni030C" unicode="&#x30c;" horiz-adv-x="0" 
d="M-17 735l33 -50l-152 -131h-78l-122 139l45 42l116 -96h8z" />
    <glyph glyph-name="uni030F" unicode="&#x30f;" horiz-adv-x="0" 
d="M-328 737l140 -176l-48 -37l-164 162zM-149 737l141 -176l-50 -37l-164 162z" />
    <glyph glyph-name="uni0311" unicode="&#x311;" horiz-adv-x="0" 
d="M-250 551l-58 13q3 62 49.5 101t121.5 39q80 0 120 -41.5t25 -103.5l-60 -4q4 32 -18 48.5t-67 16.5q-50 0 -79.5 -18.5t-33.5 -50.5z" />
    <glyph glyph-name="uni0312" unicode="&#x312;" horiz-adv-x="0" 
d="M-108 517q-18 0 -24.5 8t-4.5 28l6 45q8 66 50 131l43 -14q-18 -49 -27 -97q15 1 22.5 -7t4.5 -22l-6 -41q-4 -18 -12 -24.5t-28 -6.5h-24z" />
    <glyph glyph-name="uni031B" unicode="&#x31b;" horiz-adv-x="0" 
d="M-229 397l5 56q41 3 70 31t39 69l80 -14q-15 -66 -71.5 -106t-122.5 -36z" />
    <glyph glyph-name="dotbelowcomb" unicode="&#x323;" horiz-adv-x="0" 
d="M-151 -44q17 0 26.5 -10t6.5 -27l-7 -54q-4 -32 -36 -32h-38q-17 0 -26 10t-6 27l7 53q4 33 36 33h37z" />
    <glyph glyph-name="uni0324" unicode="&#x324;" horiz-adv-x="0" 
d="M-318 -47q32 0 27 -30l-9 -58q-4 -28 -32 -28h-42q-30 0 -26 28l9 58q5 30 35 30h38zM-149 -47q17 0 23 -7t4 -23l-9 -58q-4 -28 -31 -28h-42q-31 0 -27 28l9 58q4 30 35 30h38z" />
    <glyph glyph-name="uni0327" unicode="&#x327;" horiz-adv-x="0" 
d="M-207 -40q73 8 103.5 -6t21.5 -63q-12 -68 -67.5 -102t-133.5 -23l21 58q36 -1 63.5 17t33.5 47q2 12 -7.5 15.5t-47.5 3.5z" />
    <glyph glyph-name="uni0328" unicode="&#x328;" horiz-adv-x="0" 
d="M-153 4l55 -4q-41 -44 -79 -110q-18 -29 -1.5 -38t58.5 4l13 -49q-42 -16 -75.5 -19.5t-53.5 4.5t-30.5 22.5t-9.5 34.5t12 42q30 58 111 113z" />
    <glyph glyph-name="uni032E" unicode="&#x32e;" horiz-adv-x="0" 
d="M-138 -38l59 -13q-3 -62 -50 -101t-122 -39q-79 0 -119 41.5t-25 103.5l60 4q-5 -32 17.5 -48.5t67.5 -16.5q50 0 79 18.5t33 50.5z" />
    <glyph glyph-name="uni0331" unicode="&#x331;" horiz-adv-x="0" 
d="M-105 -72l-12 -84h-291l12 84h291z" />
    <glyph glyph-name="uni0394" unicode="&#x394;" horiz-adv-x="644" 
d="M442 690l147 -644l-6 -46h-599l5 46l328 644h125zM365 570q-20 -60 -32 -84l-189 -388h311l-80 390q-7 37 -10 82z" />
    <glyph glyph-name="uni03A9" unicode="&#x3a9;" horiz-adv-x="716" 
d="M409 703q299 0 252 -327q-15 -102 -54.5 -163t-124.5 -117q34 11 68 11h91l-14 -107h-265l12 101q73 50 107 109t48 157q17 127 -10.5 178.5t-114.5 51.5q-90 0 -134.5 -53.5t-62.5 -183.5q-14 -99 3.5 -153.5t73.5 -107.5l-13 -99h-264l14 107h87q36 0 69 -10
q-61 62 -86 129.5t-11 160.5q21 161 99 238.5t230 77.5z" />
    <glyph glyph-name="uni03BC" unicode="&#x3bc;" horiz-adv-x="605" 
d="M520 76h40l-2 -70q-64 -17 -102 -17q-88 0 -79 87l2 14q-28 -44 -77 -73.5t-105 -29.5q-20 0 -42 5l-8 -57l-33 -130h-105l46 329q0 2 0.5 4t0.5 4l48 348h122l-47 -332q-4 -31 9 -45t46 -14q20 0 43.5 9.5t49 31t47 63t31.5 96.5l-2 -19l29 210h122l-52 -369
q-4 -24 -0.5 -34.5t18.5 -10.5z" />
    <glyph glyph-name="pi" unicode="&#x3c0;" horiz-adv-x="642" 
d="M647 491l-13 -93h-84l-56 -398h-121l55 398h-185l-55 -398h-121l56 398h-85l13 93h596z" />
    <glyph glyph-name="uni0400" unicode="&#x400;" horiz-adv-x="566" 
d="M428 777l-41 -53l-210 117l60 84zM291 588q-31 0 -44 -13t-18 -47l-16 -121h280l-12 -93h-281l-21 -155q-4 -32 6 -44.5t42 -12.5h261l-3 -96q-86 -8 -283 -8q-85 0 -123 41t-28 115l57 410q9 61 50 94.5t110 33.5q215 0 305 -9l-16 -95h-266z" />
    <glyph glyph-name="uni0401" unicode="&#x401;" horiz-adv-x="565" 
d="M275 780q-30 0 -27 28l9 58q4 30 35 30h38q32 0 27 -30l-9 -58q-3 -28 -31 -28h-42zM444 780q-30 0 -27 28l9 58q4 30 35 30h38q17 0 23 -7t4 -23l-9 -58q-3 -28 -31 -28h-42zM290 588q-30 0 -43.5 -13t-17.5 -47l-17 -121h281l-12 -93h-282l-21 -155q-4 -32 7 -44.5
t42 -12.5h260l-3 -96q-85 -8 -282 -8q-85 0 -123 41t-28 115l57 410q8 61 49 94.5t111 33.5q215 0 304 -9l-16 -95h-266z" />
    <glyph glyph-name="uni0402" unicode="&#x402;" horiz-adv-x="752" 
d="M565 447q81 0 122 -47.5t23 -168.5q-21 -135 -93.5 -188.5t-197.5 -49.5l-6 90q86 8 122.5 38.5t49.5 107.5q12 71 -6 92t-58 21q-45 0 -81.5 -13t-85.5 -46l-40 -283h-126l82 583h-211l16 107h547l-14 -107h-212l-28 -197q92 61 197 61z" />
    <glyph glyph-name="uni0403" unicode="&#x403;" horiz-adv-x="520" 
d="M490 926l52 -91l-225 -111l-33 54zM262 692q208 0 295 -10l-16 -94h-238q-38 0 -51.5 -12.5t-19.5 -52.5l-73 -523h-125l77 551q9 69 50 105t101 36z" />
    <glyph glyph-name="uni0404" unicode="&#x404;" horiz-adv-x="579" 
d="M409 591q-102 0 -145.5 -35t-65.5 -149h283l-11 -93h-286q-15 -124 10 -166.5t112 -48.5q82 -4 197 10l5 -96q-99 -30 -207 -25q-161 7 -214 88t-27 274q26 201 103.5 276.5t239.5 75.5q104 0 186 -23l-18 -94q-93 6 -162 6z" />
    <glyph glyph-name="uni0405" unicode="&#x405;" horiz-adv-x="568" 
d="M335 702q128 0 216 -24l-13 -88q-118 4 -202 4q-32 0 -45.5 -0.5t-32.5 -4.5t-27 -13t-15 -24.5t-11 -40.5q-6 -43 5.5 -58t54.5 -30l128 -46q77 -28 101.5 -74t13.5 -126q-15 -113 -71.5 -151t-192.5 -38q-114 0 -224 23l14 91q175 -4 205 -4q81 0 109 16t35 72
q6 43 -5.5 58.5t-51.5 29.5l-132 48q-72 27 -98 75.5t-16 123.5q16 110 74 145.5t181 35.5z" />
    <glyph glyph-name="uni0406" unicode="&#x406;" horiz-adv-x="279" 
d="M259 690l-97 -690h-126l97 690h126z" />
    <glyph glyph-name="uni0407" unicode="&#x407;" horiz-adv-x="279" 
d="M157 879q17 0 23 -7t4 -23l-9 -58q-3 -28 -31 -28h-42q-30 0 -27 28l9 58q4 30 35 30h38zM326 879q32 0 27 -30l-9 -58q-3 -28 -31 -28h-42q-30 0 -27 28l9 58q4 30 35 30h38zM258 690l-97 -690h-126l97 690h126z" />
    <glyph glyph-name="uni0408" unicode="&#x408;" horiz-adv-x="352" 
d="M334 690l-76 -540q-11 -79 -52 -120t-107 -41q-69 0 -112 18l23 86h43q71 0 81 65l74 532h126z" />
    <glyph glyph-name="uni0409" unicode="&#x409;" horiz-adv-x="978" 
d="M717 426q132 0 180.5 -50t31.5 -174q-17 -121 -69.5 -165.5t-171.5 -44.5q-175 0 -268 8l83 593h-85q-37 0 -54 -14.5t-25 -53.5q-6 -25 -22.5 -97t-23 -95l-19.5 -69t-25 -74t-28 -55q-39 -69 -93 -101t-132 -36l-4 107q82 14 116 71q10 16 18.5 32.5t16.5 40.5t13.5 40
t14.5 53t13.5 56.5t16.5 73t18 82.5q32 136 162 136h260l-37 -264h113zM804 213q9 69 -8 93t-87 24h-119l-32 -234h109q75 0 100.5 22.5t36.5 94.5z" />
    <glyph glyph-name="uni040A" unicode="&#x40a;" horiz-adv-x="975" 
d="M716 424q129 0 178 -49.5t32 -174.5q-16 -120 -68.5 -164t-170.5 -44q-178 0 -269 8l46 325h-255l-46 -325h-126l97 690h126l-38 -267h255l38 267h123l-37 -266h115zM801 211q10 67 -7 91t-87 24h-120l-32 -230h111q74 0 99.5 22.5t35.5 92.5z" />
    <glyph glyph-name="uni040B" unicode="&#x40b;" horiz-adv-x="769" 
d="M575 448q86 0 122 -41t25 -124l-40 -283h-125l37 262q7 46 -8 62t-62 16q-76 0 -171 -58l-40 -282h-126l82 583h-210l15 107h547l-14 -107h-212l-28 -197q110 62 208 62z" />
    <glyph glyph-name="uni040C" unicode="&#x40c;" horiz-adv-x="615" 
d="M563 835l-225 -111l-33 54l206 148zM365 356q36 -6 61 -22t40.5 -33t30.5 -64.5t22 -78.5t23 -113q6 -29 9 -45h-126q-34 177 -45 212q-23 74 -69 91q-22 8 -51 8h-61q2 -33 -4 -70l-34 -241h-125l97 690h125l-29 -206q-7 -47 -17 -77h55q38 0 66 13t60 61.5t45 74
t56 118.5l8 16h130q-78 -173 -112 -224q-57 -87 -135 -103q-9 -2 -19 -3z" />
    <glyph glyph-name="uni040D" unicode="&#x40d;" horiz-adv-x="699" 
d="M285 925l191 -148l-41 -53l-210 117zM679 690l-97 -690h-121l62 433q8 58 22 105h-6q-30 -58 -48 -85l-321 -453h-134l97 690h121l-61 -432q-7 -48 -24 -106h6q21 43 52 87l318 451h134z" />
    <glyph glyph-name="uni040E" unicode="&#x40e;" horiz-adv-x="580" 
d="M355 741q-79 0 -119 41.5t-25 103.5l60 4q-4 -32 18 -48t67 -16q50 0 79.5 18t32.5 50l59 -12q-3 -62 -50 -101.5t-122 -39.5zM494 690h133l-247 -517q-41 -86 -84 -131t-106 -50q-73 -5 -147 16l20 90q43 -2 64.5 -2t41.5 2.5t31.5 13t21.5 23.5t26 40l13 23h-32
q-61 0 -73 60l-89 432h125l68 -378q3 -12 16 -12h36z" />
    <glyph glyph-name="uni040F" unicode="&#x40f;" horiz-adv-x="682" 
d="M534 690h127l-97 -690h-208l-26 -151h-87l17 151h-223l97 690h126l-83 -593h274z" />
    <glyph glyph-name="uni0410" unicode="&#x410;" horiz-adv-x="634" 
d="M466 0l-29 194h-258l-83 -194h-131l300 659q10 31 46 31h123q16 0 27.5 -10.5t12.5 -25.5l117 -654h-125zM224 300h197l-35 234l-6 63h-30q-8 -21 -25 -62z" />
    <glyph glyph-name="uni0411" unicode="&#x411;" horiz-adv-x="604" 
d="M554 588l-310 -1l-26 -183h117q134 0 182.5 -46.5t31.5 -163.5q-17 -118 -70 -160.5t-173 -42.5q-165 0 -270 9l97 690q113 6 226 6q109 0 220 -6zM327 312h-122l-31 -219h114q75 0 101 22t36 92q9 65 -8.5 85t-89.5 20z" />
    <glyph glyph-name="uni0412" unicode="&#x412;" horiz-adv-x="626" 
d="M586 513q-11 -74 -43 -111t-95 -43l-1 -5q140 -11 114 -187q-16 -104 -69 -139.5t-176 -35.5q-184 0 -280 8l97 690q85 8 238 8q129 0 179.5 -40t35.5 -145zM337 403q64 0 92 21.5t37 81.5q7 56 -13.5 73.5t-87.5 17.5h-122l-27 -194h121zM438 200q10 66 -12 88.5
t-93 23.5h-130l-31 -219h124q75 0 104.5 21.5t37.5 85.5z" />
    <glyph glyph-name="uni0413" unicode="&#x413;" horiz-adv-x="520" 
d="M262 692q208 0 295 -10l-16 -94h-238q-38 0 -51.5 -12.5t-19.5 -52.5l-73 -523h-125l77 551q9 69 50 105t101 36z" />
    <glyph glyph-name="uni0414" unicode="&#x414;" horiz-adv-x="715" 
d="M663 97l-12 -90l-22 -158h-97l11 151h-457l-32 -151h-97l22 153l13 95h67q100 172 161 457q13 64 56 100t110 36h273l-83 -593h87zM197 97h254l69 496h-102q-65 0 -78 -68q-57 -273 -143 -428z" />
    <glyph glyph-name="uni0415" unicode="&#x415;" horiz-adv-x="566" 
d="M291 588q-31 0 -44 -13t-18 -47l-16 -121h280l-12 -93h-281l-21 -155q-4 -32 6 -44.5t42 -12.5h261l-3 -96q-86 -8 -283 -8q-85 0 -123 41t-28 115l57 410q9 61 50 94.5t110 33.5q215 0 305 -9l-16 -95h-266z" />
    <glyph glyph-name="uni0416" unicode="&#x416;" horiz-adv-x="915" 
d="M667 356q28 -4 48.5 -13t37 -29.5t27.5 -41t22.5 -61t19 -75t20.5 -97.5q5 -26 8 -39h-125q-39 184 -45 206q-23 78 -64 97q-20 8 -46 8h-54q2 -44 -3 -70l-33 -241h-121l35 245q4 25 16 66h-51q-62 0 -101 -50.5t-116 -206.5q-18 -35 -27 -54h-133q91 195 125 248
q54 84 124 104q17 6 38 8l1 4q-17 3 -31.5 7.5t-26.5 14t-21.5 17t-18.5 25t-15 28t-13.5 36.5t-11.5 39.5t-11 47.5t-10 51.5t-11 59.5h122q32 -162 46 -201q26 -72 77 -80q9 -2 19 -2h61q-2 43 4 82l28 201h120l-30 -206q-7 -50 -16 -77h45q27 0 50.5 12t44 34t41 56
t42 76.5t47.5 97.5q1 2 1.5 3.5t1.5 3.5h128q-78 -171 -100 -208q-50 -87 -114 -110q-24 -9 -50 -12z" />
    <glyph glyph-name="uni0417" unicode="&#x417;" horiz-adv-x="554" 
d="M304 698q121 0 173 -41.5t38 -143.5q-11 -75 -42 -111.5t-95 -42.5l-1 -5q135 -13 110 -187q-14 -101 -65 -138t-174 -37q-146 0 -251 28l15 88q114 -16 213 -16q70 0 99.5 22t38.5 86q10 65 -12 88t-91 23h-127l12 93h121q62 0 89 21.5t35 80.5q8 58 -11.5 75.5
t-85.5 17.5q-58 0 -190 -12l-4 93q84 18 205 18z" />
    <glyph glyph-name="uni0418" unicode="&#x418;" horiz-adv-x="699" 
d="M679 690l-97 -690h-121l62 433q8 58 22 105h-6q-30 -58 -48 -85l-321 -453h-134l97 690h121l-61 -432q-7 -48 -24 -106h6q21 43 52 87l318 451h134z" />
    <glyph glyph-name="uni0419" unicode="&#x419;" horiz-adv-x="699" 
d="M531 894l59 -12q-3 -62 -50 -101.5t-122 -39.5q-79 0 -119 41.5t-25 103.5l60 4q-5 -32 17.5 -48t67.5 -16q50 0 79.5 18t32.5 50zM679 690l-97 -690h-121l62 433q8 58 22 105h-6q-30 -58 -48 -85l-321 -453h-134l97 690h121l-61 -432q-7 -48 -24 -106h6q21 43 52 87
l318 451h134z" />
    <glyph glyph-name="uni041A" unicode="&#x41a;" horiz-adv-x="615" 
d="M365 356q36 -6 61 -22t40.5 -33t30.5 -64.5t22 -78.5t23 -113q6 -29 9 -45h-126q-34 177 -45 212q-23 74 -69 91q-22 8 -51 8h-61q2 -33 -4 -70l-34 -241h-125l97 690h125l-29 -206q-7 -47 -17 -77h55q38 0 66 13t60 61.5t45 74t56 118.5l8 16h130q-78 -173 -112 -224
q-57 -87 -135 -103q-9 -2 -19 -3z" />
    <glyph glyph-name="uni041B" unicode="&#x41b;" horiz-adv-x="664" 
d="M642 690l-97 -690h-125l83 593h-101q-38 0 -55.5 -15t-24.5 -53q-29 -124 -41.5 -175.5t-32.5 -111.5t-43 -103q-80 -149 -225 -137l-4 100q24 6 39.5 12t37 23.5t37.5 45.5q31 51 52 123.5t61 254.5q30 133 168 133h271z" />
    <glyph glyph-name="uni041C" unicode="&#x41c;" horiz-adv-x="893" 
d="M805 690q24 0 36 -14t9 -37l-62 -639h-122l62 589h-17l-184 -461q-14 -40 -56 -40h-95q-44 0 -49 44l-61 457h-19l-102 -589h-122l116 643q9 47 52 47h126q40 0 46 -44l51 -374q5 -44 7 -95h16q20 57 34 92l150 381q14 39 56 39z" />
    <glyph glyph-name="uni041D" unicode="&#x41d;" horiz-adv-x="676" 
d="M530 690h125l-97 -690h-125l44 315h-271l-44 -315h-126l97 690h126l-38 -271h271z" />
    <glyph glyph-name="uni041E" unicode="&#x41e;" horiz-adv-x="672" 
d="M387 703q151 0 209 -82.5t31 -280.5q-27 -201 -99 -277t-225 -76t-211.5 81t-31.5 282q27 197 99 275t228 78zM382 596q-91 0 -130 -52.5t-61 -203.5q-20 -142 4 -194t111 -52q88 0 128.5 54t61.5 202q22 145 -2.5 195.5t-111.5 50.5z" />
    <glyph glyph-name="uni041F" unicode="&#x41f;" horiz-adv-x="677" 
d="M656 690l-97 -690h-126l83 593h-271l-83 -593h-126l97 690h523z" />
    <glyph glyph-name="uni0420" unicode="&#x420;" horiz-adv-x="598" 
d="M377 699q129 0 178.5 -51.5t31.5 -174.5q-18 -133 -71.5 -175.5t-181.5 -42.5q-60 0 -136 9l-37 -264h-125l97 690q89 9 244 9zM464 482q10 68 -10 91t-81 23q-92 0 -128 -1l-34 -238h117q71 0 98 25t38 100z" />
    <glyph glyph-name="uni0421" unicode="&#x421;" horiz-adv-x="574" 
d="M383 702q114 0 199 -23l-18 -94q-87 7 -184 7q-60 0 -94 -19.5t-57.5 -74t-37.5 -158.5q-20 -139 3 -190t106 -52q110 -1 203 10l6 -95q-84 -25 -212 -25q-153 0 -208.5 85.5t-28.5 276.5q27 197 98 274.5t225 77.5z" />
    <glyph glyph-name="uni0422" unicode="&#x422;" horiz-adv-x="584" 
d="M622 690l-15 -107h-212l-82 -583h-125l82 583h-211l15 107h548z" />
    <glyph glyph-name="uni0423" unicode="&#x423;" horiz-adv-x="580" 
d="M494 690h133l-247 -517q-41 -86 -84 -131t-106 -50q-73 -5 -147 16l20 90q43 -2 64.5 -2t41.5 2.5t31.5 13t21.5 23.5t26 40l13 23h-32q-61 0 -73 60l-89 432h125l68 -378q3 -12 16 -12h36z" />
    <glyph glyph-name="uni0424" unicode="&#x424;" horiz-adv-x="827" 
d="M528 636q166 -9 228.5 -75t41.5 -216q-21 -151 -99 -213.5t-254 -69.5l-12 -92h-125l12 93q-169 9 -231 74.5t-40 217.5q21 150 99.5 212.5t253.5 69.5l12 93h126zM672 355q14 100 -20.5 138.5t-143.5 43.5l-53 -373q111 7 157 48t60 143zM176 345q-14 -101 19.5 -139
t143.5 -43l54 373q-111 -7 -157 -48t-60 -143z" />
    <glyph glyph-name="uni0425" unicode="&#x425;" horiz-adv-x="623" 
d="M652 690l-218 -335l133 -355h-127l-109 312h-19l-196 -312h-142l234 355l-121 335h126l98 -288h21l185 288h135z" />
    <glyph glyph-name="uni0426" unicode="&#x426;" horiz-adv-x="703" 
d="M564 97h87l-13 -97l-21 -151h-97l11 151h-494l97 690h126l-83 -593h262l83 593h125z" />
    <glyph glyph-name="uni0427" unicode="&#x427;" horiz-adv-x="637" 
d="M491 690h125l-97 -690h-125l43 309q-57 -34 -117.5 -51t-104.5 -17q-87 0 -123.5 41t-25.5 125l40 283h126l-36 -262q-8 -42 7.5 -60t59.5 -18q82 0 189 59z" />
    <glyph glyph-name="uni0428" unicode="&#x428;" horiz-adv-x="948" 
d="M805 690h122l-97 -690h-794l97 690h123l-83 -593h213l83 593h122l-83 -593h214z" />
    <glyph glyph-name="uni0429" unicode="&#x429;" horiz-adv-x="979" 
d="M840 97h86l-13 -97l-21 -151h-96l11 151h-770l97 690h123l-83 -593h211l83 593h122l-83 -593h211l83 593h122z" />
    <glyph glyph-name="uni042A" unicode="&#x42a;" horiz-adv-x="748" 
d="M487 426q132 0 180.5 -50t31.5 -174q-17 -121 -69.5 -165.5t-172.5 -44.5q-175 0 -268 8l82 583h-214l16 107h338l-37 -264h113zM574 213q9 69 -8 93t-87 24h-119l-32 -234h109q75 0 100.5 22.5t36.5 94.5z" />
    <glyph glyph-name="uni042B" unicode="&#x42b;" horiz-adv-x="872" 
d="M336 426q132 0 180.5 -49.5t31.5 -174.5q-16 -121 -69 -165.5t-172 -44.5q-177 0 -271 8l97 690h126l-37 -264h114zM724 690h126l-97 -690h-126zM423 213q10 69 -7 93t-88 24h-120l-32 -234h110q75 0 100.5 22.5t36.5 94.5z" />
    <glyph glyph-name="uni042C" unicode="&#x42c;" horiz-adv-x="598" 
d="M337 426q132 0 180.5 -50t31.5 -174q-17 -121 -69.5 -165.5t-172.5 -44.5q-177 0 -271 8l98 690h126l-37 -264h114zM424 213q9 69 -8 93t-87 24h-120l-33 -234h111q75 0 100.5 22.5t36.5 94.5z" />
    <glyph glyph-name="uni042D" unicode="&#x42d;" horiz-adv-x="583" 
d="M277 702q167 0 226 -79.5t32 -282.5q-25 -194 -98 -270.5t-229 -81.5q-117 -4 -207 27l17 94q93 -14 191 -10q90 5 130.5 50.5t62.5 165.5h-286l12 93h288q6 62 0 99.5t-27.5 55.5t-47.5 23t-73 5q-76 0 -170 -6l-5 95q85 22 184 22z" />
    <glyph glyph-name="uni042E" unicode="&#x42e;" horiz-adv-x="947" 
d="M661 703q148 0 208.5 -82.5t32.5 -280.5q-29 -202 -100 -277.5t-227 -75.5q-142 0 -195.5 72.5t-33.5 249.5h-140l-43 -309h-126l97 690h126l-40 -284h140q31 167 99 232t202 65zM771 350q20 142 -3.5 194t-108.5 52q-86 0 -126 -54.5t-61 -201.5q-20 -142 2 -194
t104 -52q90 0 131.5 55t61.5 201z" />
    <glyph glyph-name="uni042F" unicode="&#x42f;" horiz-adv-x="623" 
d="M346 699q151 0 256 -9l-97 -690h-126l38 270h-115q-35 0 -56 -15t-35 -51l-82 -204h-136l88 214q45 97 117 100l1 4q-66 10 -92 66.5t-16 128.5q15 104 75.5 145t179.5 41zM306 373h125l32 223h-117q-63 0 -91.5 -21.5t-37.5 -79.5q-9 -62 11 -92t78 -30z" />
    <glyph glyph-name="uni0430" unicode="&#x430;" horiz-adv-x="585" 
d="M296 504q128 0 246 -29l-67 -475h-95l2 84q-83 -95 -204 -96q-91 -1 -123.5 59t-11.5 206q12 83 33.5 134.5t56.5 76.5t70.5 32.5t92.5 7.5zM210 90q42 0 81 23.5t88 73.5l32 219q-40 1 -89 1q-87 0 -114.5 -27t-42.5 -133q-13 -103 -4.5 -130t49.5 -27z" />
    <glyph glyph-name="uni0431" unicode="&#x431;" 
d="M550 726l11 -106q-56 -18 -128 -23.5t-105 -14.5q-66 -16 -93.5 -46t-47.5 -83q-15 -33 -24 -70l1 1q32 42 73 66.5t113 24.5q115 0 152 -62t24 -176q-16 -132 -77.5 -190.5t-183.5 -58.5q-50 0 -87.5 9.5t-61.5 24t-38.5 40t-21 49.5t-6 61t3.5 65.5t9 72.5
q12 85 25 137.5t37.5 102t64 79t98.5 47.5q42 13 125 23t137 27zM320 380q-75 0 -103.5 -32.5t-38.5 -111.5q-11 -85 7 -118t80 -33q61 0 91 33.5t44 125.5q12 82 -4.5 109t-75.5 27z" />
    <glyph glyph-name="uni0432" unicode="&#x432;" horiz-adv-x="550" 
d="M499 361q-18 -90 -131 -99l-1 -4q71 -4 98.5 -38.5t17.5 -102.5q-12 -72 -63 -101t-170 -29q-57 0 -95 7t-66.5 24.5t-39.5 47.5t-14.5 76.5t8.5 110.5q12 79 31 127.5t52.5 76.5t76 37.5t109.5 9.5q31 0 55.5 -2.5t54.5 -11t48 -23.5t27 -42t2 -64zM272 299
q61 6 83.5 19.5t28.5 37.5q7 31 -13 43t-76 12q-63 0 -87 -22.5t-38 -98.5zM365 150q5 41 -15 57.5t-82 11.5l-111 -10q-6 -35 -3.5 -58.5t5 -37.5t15 -21.5t26 -9.5t37.5 -2q66 0 94 14.5t34 55.5z" />
    <glyph glyph-name="uni0433" unicode="&#x433;" horiz-adv-x="526" 
d="M280 504q48 2 82 -1t66.5 -14.5t47.5 -38t11 -68.5q-4 -36 -19.5 -63.5t-43.5 -46.5t-41 -25t-42 -17q-2 -1 -4 -1.5t-3 -1.5l-134 -52q-34 -13 -46.5 -24t-14.5 -27q-2 -24 16 -31t60 -5q120 3 233 36l5 -93q-114 -44 -241 -44q-100 0 -150 34t-42 106q6 53 39 84.5
t98 55.5l123 47q50 17 69.5 31t20.5 34q2 19 -17.5 24.5t-85.5 2.5q-70 -2 -194 -26l-2 90q91 29 209 34z" />
    <glyph glyph-name="uni0434" unicode="&#x434;" horiz-adv-x="574" 
d="M160 714q97 -11 166 -37.5t120.5 -75t70 -129.5t3.5 -192q-21 -152 -83.5 -222.5t-193.5 -70.5q-117 0 -166 58t-33 177q28 228 227 228q83 0 131 -43q-2 59 -19.5 98t-54.5 63t-77.5 36.5t-108.5 24.5zM251 84q66 0 97 46t47 163q2 12 4 34q-43 27 -97 27
q-62 0 -91.5 -33t-40.5 -105q-10 -73 8 -102.5t73 -29.5z" />
    <glyph glyph-name="uni0435" unicode="&#x435;" horiz-adv-x="548" 
d="M317 504q122 0 164.5 -41.5t31.5 -121.5q-10 -72 -56 -104t-141 -38l-155 -13q1 -58 28 -78.5t82 -20.5q83 0 184 12l8 -79q-77 -32 -208 -32t-182 66.5t-33 203.5q19 141 79 193.5t198 52.5zM394 352q3 38 -15 47t-77 9q-66 -1 -93.5 -28.5t-40.5 -112.5l140 13
q42 3 61.5 18.5t24.5 53.5z" />
    <glyph glyph-name="uni0436" unicode="&#x436;" horiz-adv-x="769" 
d="M548 253q36 -5 57 -16.5t37 -39.5t26.5 -65t27.5 -106q4 -17 6 -26h-115q-32 139 -47 169q-20 39 -64 42h-7h-46q2 -27 -1 -46l-22 -165h-108l25 169q3 22 10 42h-41q-49 -1 -80 -40t-99 -171h-123q9 17 24 47q25 49 36 70t28.5 50t28.5 39.5t29 23.5t36.5 18t44.5 8l1 4
q-68 8 -91 50.5t-51 179.5h116q24 -116 43 -154t68 -38h43q-1 26 2 59l19 133h108l-20 -136q-6 -36 -12 -56h31q49 0 80.5 38.5t90.5 153.5h120l-6 -12q-65 -131 -94 -166q-42 -49 -110 -56z" />
    <glyph glyph-name="uni0437" unicode="&#x437;" horiz-adv-x="506" 
d="M238 501q125 0 176 -28t40 -109q-8 -54 -34 -80t-85 -31l-1 -3q63 -5 87.5 -37.5t15.5 -95.5q-11 -79 -60.5 -103.5t-168.5 -24.5q-121 0 -212 19l15 88q101 -9 188 -9q70 0 92 12t27 51q4 34 -14.5 45.5t-76.5 12.5l-133 2l10 81h127q55 0 77.5 13.5t27.5 50.5
q5 31 -12.5 39.5t-86.5 8.5q-88 0 -164 -9l-4 88q67 19 169 19z" />
    <glyph glyph-name="uni0438" unicode="&#x438;" 
d="M419 490h120l-68 -490h-94l4 97q-116 -110 -218 -110q-68 0 -99 37t-21 101l51 365h121l-47 -333q-6 -37 3.5 -52t38.5 -15q37 0 72 21t95 73z" />
    <glyph glyph-name="uni0439" unicode="&#x439;" 
d="M328 561q-77 0 -115 43t-23 104h86q-14 -84 61 -84q73 0 83 84h86q-2 -62 -52 -104.5t-126 -42.5zM419 490h120l-68 -490h-94l4 97q-116 -110 -218 -110q-68 0 -99 37t-21 101l51 365h121l-47 -333q-6 -37 3.5 -52t38.5 -15q37 0 72 21t95 73z" />
    <glyph glyph-name="uni043A" unicode="&#x43a;" horiz-adv-x="546" 
d="M323 252q31 -3 51.5 -12t34.5 -21.5t24.5 -42t18 -58t20.5 -86.5q4 -21 7 -32h-120q-3 11 -7 32q-27 116 -43 143q-23 34 -76 35h-60q2 -23 -1 -46l-24 -164h-120l69 490h120l-18 -136q-4 -25 -14 -55h46q60 0 91.5 37.5t84.5 153.5h129q-26 -54 -37 -76.5t-29.5 -55.5
t-30 -45t-30.5 -27t-38.5 -21t-46.5 -9z" />
    <glyph glyph-name="uni043B" unicode="&#x43b;" horiz-adv-x="579" 
d="M538 490l-69 -490h-121l56 400h-76q-28 0 -42.5 -13t-23.5 -46q-30 -119 -74 -234q-25 -68 -73 -92.5t-121 -19.5l-9 96q5 1 16.5 2.5t16 2.5t13.5 3.5t14 6.5t11.5 9.5t12 14t10.5 20.5q36 84 71 222q16 61 49 89.5t94 28.5h245z" />
    <glyph glyph-name="uni043C" unicode="&#x43c;" horiz-adv-x="764" 
d="M668 490q21 0 32 -12t9 -33l-45 -445h-110l39 401h-15l-136 -306q-14 -36 -48 -36h-82q-37 0 -42 40l-54 302h-16l-71 -401h-110l79 448q4 23 15 32.5t33 9.5h114q36 0 41 -40l41 -234q8 -60 9 -80h14q22 64 27 74l110 245q16 35 49 35h117z" />
    <glyph glyph-name="uni043D" unicode="&#x43d;" horiz-adv-x="590" 
d="M430 490h119l-69 -490h-119l30 215h-213l-30 -215h-120l69 490h119l-26 -186h214z" />
    <glyph glyph-name="uni043E" unicode="&#x43e;" horiz-adv-x="577" 
d="M312 504q130 0 181 -61.5t31 -202.5q-19 -138 -80.5 -195.5t-189.5 -57.5q-130 0 -181.5 61t-32.5 201q19 139 80.5 197t191.5 58zM312 407q-70 0 -100.5 -34t-45.5 -133q-13 -92 5 -124t84 -32q69 0 100 34.5t44 130.5q13 94 -4.5 126t-82.5 32z" />
    <glyph glyph-name="uni043F" unicode="&#x43f;" horiz-adv-x="591" 
d="M418 504q62 0 94.5 -36t23.5 -102l-52 -366h-121l46 332q5 41 -2.5 55.5t-33.5 13.5q-38 0 -78 -22.5t-104 -72.5l-42 -306h-121l69 490h96l-2 -101q122 115 227 115z" />
    <glyph glyph-name="uni0440" unicode="&#x440;" horiz-adv-x="588" 
d="M399 502q58 0 89.5 -22.5t44.5 -81t-3 -160.5q-11 -81 -31.5 -133t-53 -77t-66 -33t-83.5 -8q-67 0 -151 13q0 -45 -7 -93l-16 -102h-122l98 685h95l-3 -98q46 46 102.5 78t106.5 32zM407 243q13 103 4 130t-48 27q-29 0 -75.5 -25t-94.5 -69l-31 -225q39 -1 89 -1
q88 0 114.5 27.5t41.5 135.5z" />
    <glyph glyph-name="uni0441" unicode="&#x441;" horiz-adv-x="498" 
d="M307 504q107 0 173 -29l-18 -74q-100 2 -137 2q-79 0 -113 -31.5t-46 -128.5q-12 -98 9.5 -126.5t96.5 -28.5q84 0 150 10l8 -81q-75 -29 -181 -29q-131 0 -180 61t-29 201t79.5 197t187.5 57z" />
    <glyph glyph-name="uni0442" unicode="&#x442;" horiz-adv-x="877" 
d="M705 504q65 0 95.5 -37t21.5 -101l-52 -366h-120l46 334q6 38 -4.5 52.5t-37.5 14.5q-30 0 -61.5 -19.5t-91.5 -75.5l-43 -306h-117l46 334q5 36 -3.5 51.5t-38.5 15.5q-32 0 -63.5 -19.5t-90.5 -72.5l-43 -309h-120l69 490h93l-2 -97q108 111 205 111q55 0 85.5 -27
t32.5 -75q102 102 194 102z" />
    <glyph glyph-name="uni0443" unicode="&#x443;" horiz-adv-x="562" 
d="M424 490h127q-45 -225 -138 -412q-86 -179 -187 -242.5t-222 -39.5l10 93q131 -25 228 111h-53q-23 0 -39.5 13.5t-21.5 35.5l-88 441h128l63 -384q2 -16 18 -16h47l6.5 13t6.5 14q81 162 115 373z" />
    <glyph glyph-name="uni0444" unicode="&#x444;" horiz-adv-x="731" 
d="M451 502q140 -10 193 -71.5t34 -190.5q-17 -129 -85.5 -186.5t-214.5 -64.5l-25 -184h-111l25 185q-140 10 -193 70.5t-35 188.5q18 130 87 188.5t214 65.5l28 197h110zM563 248q11 85 -16.5 119.5t-114.5 39.5l-46 -321q87 6 126 42t51 120zM155 241q-11 -83 17 -117
t114 -39l45 321q-87 -7 -125.5 -43.5t-50.5 -121.5z" />
    <glyph glyph-name="uni0445" unicode="&#x445;" horiz-adv-x="544" 
d="M547 490l-177 -238l119 -252h-120l-94 210h-16l-154 -210h-132l191 253l-109 237h119l83 -192h21l141 192h128z" />
    <glyph glyph-name="uni0446" unicode="&#x446;" horiz-adv-x="611" 
d="M500 85h57l-12 -85l-21 -149h-102l34 149q-38 2 -60 27t-19 69q-113 -109 -216 -109q-68 0 -99 37t-22 101l52 365h121l-47 -333q-6 -37 3.5 -52t38.5 -15q37 0 72 21t95 73l42 306h120l-52 -386q-3 -19 15 -19z" />
    <glyph glyph-name="uni0447" unicode="&#x447;" horiz-adv-x="552" 
d="M388 490h123l-69 -490h-122l28 202q-89 -41 -171 -41q-75 -1 -108 28t-25 88l31 213h121l-25 -180q-4 -33 5 -43.5t43 -10.5q66 0 143 44z" />
    <glyph glyph-name="uni0448" unicode="&#x448;" horiz-adv-x="858" 
d="M696 490h121l-69 -490h-94l2 97q-101 -110 -196 -110q-54 0 -84 27t-33 74q-97 -101 -186 -101q-65 0 -95.5 37t-21.5 101l52 365h120l-46 -333q-6 -34 5 -47.5t40 -13.5q30 0 55.5 16.5t86.5 72.5l43 305h116l-46 -333q-5 -33 4 -47t41 -14t56.5 16t86.5 69z" />
    <glyph glyph-name="uni0449" unicode="&#x449;" horiz-adv-x="891" 
d="M780 85h56l-12 -85l-21 -149h-102l37 149q-38 1 -61 26t-20 70v2q-104 -111 -197 -111q-54 0 -84 27t-33 74q-97 -101 -186 -101q-65 0 -95.5 37t-21.5 101l52 365h120l-46 -333q-6 -34 5 -47.5t40 -13.5q30 0 55.5 16.5t86.5 72.5l43 305h116l-46 -333q-5 -33 4 -47
t41 -14t57 16t86 70l42 308h121l-53 -386q-1 -8 3.5 -13.5t12.5 -5.5z" />
    <glyph glyph-name="uni044A" unicode="&#x44a;" horiz-adv-x="637" 
d="M400 314q116 -1 156 -36.5t26 -128.5q-14 -91 -60 -123.5t-149 -32.5q-20 0 -35 0.5t-36 2t-36 5t-33 10t-29.5 15t-22 22t-15 30.5t-4 40t7.5 50l61 229h-197l14 93h323l-48 -187q41 11 77 11zM462 161q8 41 -7.5 55t-67.5 14q-38 0 -86 -10l-18 -70q-9 -38 11.5 -51.5
t64.5 -13.5q52 0 73 15.5t30 60.5z" />
    <glyph glyph-name="uni044B" unicode="&#x44b;" horiz-adv-x="746" 
d="M281 314q116 -1 155.5 -36.5t26.5 -128.5q-12 -90 -59 -123t-150 -33q-30 0 -47.5 1t-48 4.5t-48.5 13t-36.5 25t-26 42t-3.5 62.5l50 349h117l-28 -193q56 17 98 17zM583 490h121l-69 -490h-121zM343 161q5 41 -9.5 55t-65.5 14q-42 0 -96 -13l-11 -77q-5 -33 14.5 -44
t64.5 -11q52 0 74 15.5t29 60.5z" />
    <glyph glyph-name="uni044C" unicode="&#x44c;" horiz-adv-x="518" 
d="M281 314q116 0 155.5 -36t26.5 -129q-13 -91 -59.5 -123.5t-157.5 -32.5q-114 0 -163.5 34t-37.5 121l49 342h117l-28 -193q58 17 98 17zM343 161q6 41 -8.5 55t-66.5 14q-42 0 -96 -13l-11 -77q-5 -33 14.5 -44t64.5 -11q52 0 74.5 15.5t28.5 60.5z" />
    <glyph glyph-name="uni044D" unicode="&#x44d;" horiz-adv-x="519" 
d="M228 499q145 0 200 -56.5t37 -204.5q-18 -143 -82.5 -197t-207.5 -52q-106 0 -176 24l16 81q64 -5 146 -5q89 -3 124.5 20.5t51.5 99.5h-245l11 81h245q4 72 -22.5 91t-105.5 19q-66 0 -151 -3l-5 82q68 20 164 20z" />
    <glyph glyph-name="uni044E" unicode="&#x44e;" horiz-adv-x="813" 
d="M548 504q132 0 181.5 -57t29.5 -206q-21 -145 -79.5 -197.5t-190.5 -52.5q-119 0 -166 47t-37 169h-108l-29 -207h-120l69 490h120l-27 -193h108q24 118 80 162.5t169 44.5zM633 250q13 91 -5.5 122.5t-83.5 31.5q-68 0 -97.5 -33.5t-42.5 -127.5q-13 -91 4.5 -122.5
t80.5 -31.5q70 0 100.5 34t43.5 127z" />
    <glyph glyph-name="uni044F" unicode="&#x44f;" horiz-adv-x="549" 
d="M311 498q126 0 198 -7l-70 -491h-118l24 173h-96q-69 0 -85 -45l-46 -129l-122 1l49 145q13 36 44 53.5t64 14.5l1 4q-105 22 -91 137q10 89 65 116.5t183 27.5zM248 258h109l21 147h-111q-49 0 -66 -13.5t-23 -54.5q-6 -45 8.5 -62t61.5 -17z" />
    <glyph glyph-name="uni0450" unicode="&#x450;" horiz-adv-x="548" 
d="M375 597l-41 -53l-210 117l60 84zM317 504q122 0 164.5 -41.5t31.5 -121.5q-10 -72 -56 -104t-141 -38l-155 -13q1 -58 28 -78.5t82 -20.5q83 0 184 12l8 -79q-77 -32 -208 -32t-182 66.5t-33 203.5q19 141 79 193.5t198 52.5zM394 352q3 38 -15 47t-77 9
q-66 -1 -93.5 -28.5t-40.5 -112.5l140 13q42 3 61.5 18.5t24.5 53.5z" />
    <glyph glyph-name="uni0451" unicode="&#x451;" horiz-adv-x="548" 
d="M223 583q-30 0 -27 28l9 58q4 30 35 30h38q32 0 27 -30l-9 -58q-3 -28 -31 -28h-42zM392 583q-30 0 -27 28l9 58q4 30 35 30h38q17 0 23 -7t4 -23l-9 -58q-3 -28 -31 -28h-42zM317 504q122 0 164.5 -41.5t31.5 -121.5q-10 -72 -56 -104t-141 -38l-155 -13q1 -58 28 -78.5
t82 -20.5q83 0 184 12l8 -79q-77 -32 -208 -32t-182 66.5t-33 203.5q19 141 79 193.5t198 52.5zM394 352q3 38 -15 47t-77 9q-66 -1 -93.5 -28.5t-40.5 -112.5l140 13q42 3 61.5 18.5t24.5 53.5z" />
    <glyph glyph-name="uni0452" unicode="&#x452;" horiz-adv-x="606" 
d="M418 408q141 0 123 -138l-37 -265q-9 -64 -45 -119t-90 -87l-65 57q67 69 80 155l32 228q5 36 -7 49.5t-49 13.5q-60 0 -161 -72l-30 -230h-122l67 477h-65l9 74h67l21 149h121l-21 -149h178l-8 -74h-180l-8 -56q-8 -55 -20 -99q111 86 210 86z" />
    <glyph glyph-name="uni0453" unicode="&#x453;" horiz-adv-x="526" 
d="M407 746l52 -91l-225 -111l-33 54zM280 504q48 2 82 -1t66.5 -14.5t47.5 -38t11 -68.5q-4 -36 -19.5 -63.5t-43.5 -46.5t-41 -25t-42 -17q-2 -1 -4 -1.5t-3 -1.5l-134 -52q-34 -13 -46.5 -24t-14.5 -27q-2 -24 16 -31t60 -5q120 3 233 36l5 -93q-114 -44 -241 -44
q-100 0 -150 34t-42 106q6 53 39 84.5t98 55.5l123 47q50 17 69.5 31t20.5 34q2 19 -17.5 24.5t-85.5 2.5q-70 -2 -194 -26l-2 90q91 29 209 34z" />
    <glyph glyph-name="uni0454" unicode="&#x454;" horiz-adv-x="517" 
d="M331 400q-79 0 -112.5 -20.5t-48.5 -89.5h246l-10 -81h-248q-6 -74 19 -95t111 -25q57 -2 153 5l6 -82q-72 -23 -180 -23q-132 0 -188.5 59t-38.5 200q19 145 84.5 198t203.5 53q105 0 170 -22l-16 -80q-18 0 -50 1t-57 1.5t-44 0.5z" />
    <glyph glyph-name="uni0455" unicode="&#x455;" horiz-adv-x="518" 
d="M268 504q115 -2 217 -18l-14 -83q-93 3 -195 3q-61 0 -81.5 -5t-22.5 -27q-3 -21 9 -31t47 -25l125 -56q62 -27 84.5 -58.5t15.5 -86.5q-4 -34 -17 -57t-31.5 -37t-49 -21.5t-61.5 -10t-77 -2.5q-38 0 -67 1.5t-43.5 3t-43.5 5.5t-47 6l13 85q52 -4 152 -4q90 0 120 8
t34 31q3 5 0.5 10.5t-1.5 8t-4 6.5t-6.5 5.5t-8.5 5t-10.5 5t-13 5.5t-15.5 7l-124 56q-57 26 -80 61t-17 87q7 68 57.5 95.5t155.5 26.5z" />
    <glyph glyph-name="uni0456" unicode="&#x456;" horiz-adv-x="267" 
d="M216 703q18 0 26.5 -10t6.5 -27l-7 -55q-4 -33 -38 -33h-55q-38 0 -33 38l8 54q3 33 37 33h55zM221 490l-68 -490h-120l68 490h120z" />
    <glyph glyph-name="uni0457" unicode="&#x457;" horiz-adv-x="264" 
d="M124 699q32 0 27 -30l-9 -58q-3 -28 -31 -28h-42q-30 0 -27 28l9 58q4 30 35 30h38zM293 699q17 0 23 -7t4 -23l-9 -58q-3 -28 -31 -28h-42q-30 0 -27 28l9 58q4 30 35 30h38zM220 490l-69 -490h-121l69 490h121z" />
    <glyph glyph-name="uni0458" unicode="&#x458;" horiz-adv-x="267" 
d="M216 703q18 0 26.5 -10t6.5 -27l-7 -55q-6 -33 -38 -33h-55q-39 0 -33 38l8 54q3 33 37 33h55zM222 490l-69 -485q-8 -63 -44 -118.5t-91 -87.5l-66 57q68 68 81 155l68 479h121z" />
    <glyph glyph-name="uni0459" unicode="&#x459;" horiz-adv-x="816" 
d="M594 314q107 -1 143 -39.5t24 -125.5q-13 -92 -59 -122.5t-149 -32.5q-52 -1 -88.5 4t-68 20t-45 45.5t-8.5 77.5l38 263h-61q-27 0 -41 -10.5t-20 -35.5q-19 -81 -27.5 -112.5t-22.5 -72t-32 -71.5q-35 -65 -81.5 -87t-105.5 -19l-5 92q55 6 89 53q5 7 10 15.5t9 15.5
t8 18t7 18t7.5 22.5t6.5 23.5t7 28.5t7.5 30.5t8.5 36l9 39q24 102 128 102h221l-28 -194q59 18 119 18zM641 161q5 41 -9 55t-60 14q-52 0 -108 -15l-11 -75q-4 -32 15.5 -43.5t66.5 -11.5q55 0 77 15.5t29 60.5z" />
    <glyph glyph-name="uni045A" unicode="&#x45a;" horiz-adv-x="822" 
d="M585 314q116 -1 155.5 -36.5t26.5 -128.5q-12 -90 -59 -122.5t-150 -32.5q-27 0 -40.5 0.5t-41 3t-43 7.5t-35.5 16t-30 26t-16 39t-3 55l12 86h-190l-32 -227h-111l69 490h111l-25 -180h190l25 180h114l-28 -194q56 18 101 18zM646 161q6 41 -8.5 55t-65.5 14
q-46 0 -99 -14l-11 -76q-4 -33 16 -44t66 -11q52 0 74 15.5t28 60.5z" />
    <glyph glyph-name="uni045B" unicode="&#x45b;" horiz-adv-x="590" 
d="M418 408q70 0 101.5 -35.5t21.5 -102.5l-38 -270h-121l34 238q5 37 -6.5 50.5t-49.5 13.5q-34 0 -70 -16.5t-91 -54.5l-30 -231h-122l67 477h-65l9 74h67l21 149h121l-21 -149h178l-8 -74h-180l-11 -75q-7 -47 -16 -79q110 85 209 85z" />
    <glyph glyph-name="uni045C" unicode="&#x45c;" horiz-adv-x="546" 
d="M508 655l-225 -111l-33 54l206 148zM323 252q31 -3 51.5 -12t34.5 -21.5t24.5 -42t18 -58t20.5 -86.5q4 -21 7 -32h-120q-3 11 -7 32q-27 116 -43 143q-23 34 -76 35h-60q2 -23 -1 -46l-24 -164h-120l69 490h120l-18 -136q-4 -25 -14 -55h46q60 0 91.5 37.5t84.5 153.5
h129q-26 -54 -37 -76.5t-29.5 -55.5t-30 -45t-30.5 -27t-38.5 -21t-46.5 -9z" />
    <glyph glyph-name="uni045D" unicode="&#x45d;" 
d="M391 597l-41 -53l-210 117l60 84zM419 490h120l-68 -490h-94l4 97q-116 -110 -218 -110q-68 0 -99 37t-21 101l51 365h121l-47 -333q-6 -37 3.5 -52t38.5 -15q37 0 72 21t95 73z" />
    <glyph glyph-name="uni045E" unicode="&#x45e;" horiz-adv-x="562" 
d="M304 561q-77 0 -115 43t-23 104h86q-14 -84 61 -84q73 0 83 84h86q-2 -62 -52 -104.5t-126 -42.5zM424 490h127q-45 -225 -138 -412q-86 -179 -187 -242.5t-222 -39.5l10 93q131 -25 228 111h-53q-23 0 -39.5 13.5t-21.5 35.5l-88 441h128l63 -384q2 -16 18 -16h47
l6.5 13t6.5 14q81 162 115 373z" />
    <glyph glyph-name="uni045F" unicode="&#x45f;" 
d="M419 490h120l-68 -490h-94l4 97q-116 -110 -218 -110q-68 0 -99 37t-21 101l51 365h121l-47 -333q-6 -37 3.5 -52t38.5 -15q37 0 72 21t95 73zM186 -237l40 195h80l-18 -195h-102z" />
    <glyph glyph-name="uni0462" unicode="&#x462;" horiz-adv-x="639" 
d="M378 426q132 0 180.5 -50t31.5 -174q-17 -121 -69.5 -165.5t-172.5 -44.5q-177 0 -271 8l77 537h-112l13 85h111l15 108h126l-15 -108h234l-13 -85h-233l-16 -111h114zM465 213q9 69 -8 93t-87 24h-120l-33 -234h111q75 0 100.5 22.5t36.5 94.5z" />
    <glyph glyph-name="uni0463" unicode="&#x463;" horiz-adv-x="521" 
d="M283 314q116 0 156 -35.5t27 -129.5q-12 -90 -59 -123t-150 -33q-123 0 -172.5 34.5t-38.5 113.5l39 275h-79l10 74h80l28 200h117l-28 -200h174l-10 -74h-175l-17 -119q56 17 98 17zM346 161q6 41 -9 55t-66 14q-43 0 -97 -13l-11 -77q-4 -33 15.5 -44t64.5 -11
q52 0 74 15.5t29 60.5z" />
    <glyph glyph-name="uni046A" unicode="&#x46a;" horiz-adv-x="874" 
d="M-51 0q31 67 49.5 104.5t42.5 81.5t39.5 66t38.5 47t43 35.5t48.5 20.5t58.5 13t71 3v5l-231 314h748l-315 -314l-1 -5q30 0 53.5 -2.5t44.5 -9.5t37 -14t31 -23t25.5 -28.5t22 -39t19 -47t18 -58.5t18 -68t19.5 -81h-131q-16 81 -25.5 122.5t-24 81t-24 53.5t-33 26
t-44.5 13.5t-62 1.5q0 -28 -5 -68l-31 -230h-120l32 230q2 16 14 68q-40 0 -61.5 -1.5t-47.5 -13t-40.5 -26.5t-39.5 -54t-46.5 -81.5t-59.5 -121.5h-131zM446 413l187 186h-325z" />
    <glyph glyph-name="uni046B" unicode="&#x46b;" horiz-adv-x="705" 
d="M-38 0q79 149 108 186q42 53 106 67q28 6 72 9l1 4l-184 225h638l-242 -225l-1 -4q107 -7 137.5 -46.5t71.5 -201.5l1.5 -4.5t1 -4.5t1.5 -5h-127q-14 58 -20 83.5t-17 54.5t-17.5 37.5t-21.5 18t-29 10t-41 0.5q0 -24 -4 -48l-21 -156h-115l21 156q1 5 4.5 21t5.5 27
q-27 0 -41 -1t-31.5 -10.5t-26.5 -17.5t-28 -37.5t-32 -54.5t-43 -83h-127zM357 287l134 122h-232z" />
    <glyph glyph-name="uni0472" unicode="&#x472;" horiz-adv-x="672" 
d="M387 703q151 0 209 -82.5t31 -280.5q-27 -201 -99 -277t-225 -76t-211.5 81t-31.5 282q27 197 99 275t228 78zM382 596q-82 0 -121 -42.5t-61 -159.5h302q13 118 -13 160t-107 42zM306 94q81 0 121 45t62 165h-303q-13 -120 12.5 -165t107.5 -45z" />
    <glyph glyph-name="uni0473" unicode="&#x473;" horiz-adv-x="575" 
d="M319 504q132 0 178.5 -59t26.5 -200t-82.5 -199.5t-195.5 -58.5q-132 0 -178.5 58.5t-27.5 199.5q20 141 83 200t196 59zM306 407q-62 0 -91.5 -26.5t-42.5 -98.5h231q7 72 -14.5 98.5t-82.5 26.5zM260 84q62 0 91.5 28t43.5 104h-233q-7 -76 14 -104t84 -28z" />
    <glyph glyph-name="uni0474" unicode="&#x474;" horiz-adv-x="663" 
d="M208 0q-17 0 -28 9.5t-13 25.5l-103 655h129l67 -518q3 -21 7 -77h25q4 13 15 38.5t15 38.5l152 412q44 120 178 120q30 0 64 -6l-14 -92q-12 3 -31 3q-33 0 -51.5 -12t-31.5 -43l-212 -519q-15 -35 -50 -35h-118z" />
    <glyph glyph-name="uni0475" unicode="&#x475;" horiz-adv-x="551" 
d="M172 0q-29 0 -36 30l-96 461h122l57 -351q4 -17 8 -55h21q7 20 22 54l108 260q42 102 146 102q36 0 61 -6l-12 -86q-14 2 -26 2q-28 0 -44 -10t-28 -36l-150 -335q-15 -30 -45 -30h-108z" />
    <glyph glyph-name="uni048A" unicode="&#x48a;" horiz-adv-x="705" 
d="M418 739q-79 0 -119 41.5t-25 103.5l60 4q-5 -32 17.5 -48t67.5 -16q50 0 79.5 18t32.5 50l59 -12q-3 -62 -50 -101.5t-122 -39.5zM596 97h92l-14 -97l-69 -151h-87l59 151h-116l62 433q8 58 22 105h-6q-30 -58 -48 -85l-321 -453h-134l97 690h121l-61 -432
q-7 -48 -24 -106h6q21 43 52 87l318 451h134z" />
    <glyph glyph-name="uni048B" unicode="&#x48b;" horiz-adv-x="584" 
d="M328 561q-77 0 -115 43t-23 104h86q-14 -84 61 -84q73 0 83 84h86q-2 -62 -52 -104.5t-126 -42.5zM484 93h72l-13 -93l-68 -144h-86l58 144h-70l4 97q-116 -110 -218 -110q-68 0 -99 37t-21 101l51 365h121l-47 -333q-6 -37 3.5 -52t38.5 -15q37 0 72 21t95 73l42 306
h120z" />
    <glyph glyph-name="uni048C" unicode="&#x48c;" horiz-adv-x="641" 
d="M380 426q132 0 180.5 -50t31.5 -174q-17 -121 -69.5 -165.5t-172.5 -44.5q-177 0 -271 8l72 506h-112l12 86h112l14 98h126l-14 -98h233l-13 -86h-232l-11 -80h114zM467 213q9 69 -8 93t-87 24h-120l-33 -234h111q75 0 100.5 22.5t36.5 94.5z" />
    <glyph glyph-name="uni048D" unicode="&#x48d;" horiz-adv-x="521" 
d="M283 314q116 0 156 -35.5t27 -129.5q-12 -90 -59 -123t-150 -33q-123 0 -172.5 34.5t-38.5 113.5l39 275h-79l10 74h80l28 200h117l-28 -200h174l-10 -74h-175l-17 -119q56 17 98 17zM346 161q6 41 -9 55t-66 14q-43 0 -97 -13l-11 -77q-4 -33 15.5 -44t64.5 -11
q52 0 74 15.5t29 60.5z" />
    <glyph glyph-name="uni048E" unicode="&#x48e;" horiz-adv-x="592" 
d="M593 240l-42 -43l-77 77q-46 -19 -141 -19q-60 0 -136 9l-37 -264h-125l97 690q89 9 244 9q130 0 179 -51.5t32 -174.5q-16 -119 -62 -166zM327 357q38 0 58 5l-73 72l42 43l83 -82q17 24 26 87q10 68 -10 91t-81 23q-92 0 -128 -1l-34 -238h117z" />
    <glyph glyph-name="uni048F" unicode="&#x48f;" horiz-adv-x="619" 
d="M528 238q-19 -148 -79 -206l71 -101l-50 -36l-74 105q-39 -13 -102 -13q-66 0 -151 13q0 -45 -7 -93l-16 -102h-122l97 685h96l-3 -98q46 46 102.5 78t106.5 32q58 0 89.5 -22.5t44.5 -81t-3 -160.5zM323 211l56 -80q15 32 26 112q13 103 4 130t-48 27q-29 0 -75.5 -25
t-94.5 -69l-31 -225q39 -1 89 -1q58 0 84 9l-60 85z" />
    <glyph glyph-name="uni0490" unicode="&#x490;" horiz-adv-x="528" 
d="M504 841h85l-26 -167l-14 -86h-246q-35 0 -50 -13t-21 -52l-73 -523h-125l77 551q10 68 49.5 104.5t101.5 36.5q143 0 209 -5z" />
    <glyph glyph-name="uni0491" unicode="&#x491;" horiz-adv-x="464" 
d="M411 635h83l-23 -151l-14 -85h-201q-54 0 -62 -54l-48 -345h-120l53 383q16 112 127 112q116 0 174 -3z" />
    <glyph glyph-name="uni0492" unicode="&#x492;" horiz-adv-x="543" 
d="M340 588q-38 0 -51.5 -12.5t-19.5 -52.5l-22 -157h200l-11 -85h-201l-39 -281h-125l39 281h-118l12 85h118l26 185q9 69 50 105t101 36q208 0 295 -10l-16 -94h-238z" />
    <glyph glyph-name="uni0493" unicode="&#x493;" horiz-adv-x="475" 
d="M264 399q-51 0 -58 -51l-15 -105h96l-5 -47h-97l-28 -196h-121l28 196h-25l5 47h26l20 138q15 114 135 114q188 0 266 -11l-16 -85h-211z" />
    <glyph glyph-name="uni0494" unicode="&#x494;" horiz-adv-x="590" 
d="M399 446q33 0 57.5 -7t47.5 -25t33.5 -50t15 -82t-7.5 -121q-13 -95 -42 -160.5t-72 -101t-84.5 -52.5t-97.5 -26l-15 84q59 15 91 36.5t57 73.5t38 145q6 60 7.5 95.5t-11.5 54.5t-29 24.5t-46 5.5q-61 0 -140 -36l-43 -304h-125l78 549q8 63 52.5 103t105.5 40
q202 0 289 -9l-19 -95h-239q-33 0 -48 -13.5t-19 -49.5l-18 -127q91 48 184 48z" />
    <glyph glyph-name="uni0495" unicode="&#x495;" horiz-adv-x="546" 
d="M364 291q167 0 138 -208q-11 -77 -38.5 -132t-69 -86t-84 -47t-98.5 -25l-10 85q84 18 124.5 63.5t52.5 136.5q10 70 -6.5 92t-61.5 22q-60 0 -123 -33l-23 -159h-120l53 381q16 114 134 114q172 0 244 -11l-17 -84h-187q-27 0 -40.5 -12t-16.5 -39l-15 -104
q81 46 164 46z" />
    <glyph glyph-name="uni0496" unicode="&#x496;" horiz-adv-x="975" 
d="M941 79l-14 -99l-15 -111h-99l9 111h-35l2 20h-73q-39 184 -45 206q-23 78 -64 97q-20 8 -46 8h-54q2 -44 -3 -70l-33 -241h-121l35 245q4 25 16 66h-51q-62 0 -101 -50.5t-116 -206.5q-18 -35 -27 -54h-133q91 195 125 248q54 84 124 104q17 6 38 8l1 4q-17 3 -31.5 7.5
t-26.5 14t-21.5 17t-18.5 25t-15 28t-13.5 36.5t-11.5 39.5t-11 47.5t-10 51.5t-11 59.5h122q32 -162 46 -201q26 -72 77 -80q9 -2 19 -2h61q-2 43 4 82l28 201h120l-30 -206q-7 -50 -16 -77h45q27 0 50.5 12t44 34t41 56t42 76.5t47.5 97.5q1 2 1.5 3.5t1.5 3.5h128
q-78 -171 -100 -208q-50 -87 -114 -110q-24 -9 -50 -12l-1 -4q26 -3 46 -11.5t35.5 -26t26.5 -36t22 -53t18.5 -66t18.5 -84.5h116z" />
    <glyph glyph-name="uni0497" unicode="&#x497;" horiz-adv-x="837" 
d="M679 93h85l-32 -236h-80l10 143h-75q-32 139 -47 169q-20 39 -64 42h-7h-46q2 -27 -1 -46l-22 -165h-108l25 169q3 22 10 42h-41q-49 -1 -80 -40t-99 -171h-123q9 17 24 47q25 49 36 70t28.5 50t28.5 39.5t29 23.5t36.5 18t44.5 8l1 4q-68 8 -91 50.5t-51 179.5h116
q24 -116 43 -154t68 -38h43q-1 26 2 59l19 133h108l-20 -136q-6 -36 -12 -56h31q49 0 80.5 38.5t90.5 153.5h120l-6 -12q-65 -131 -94 -166q-42 -49 -110 -56l-1 -3q59 -8 83.5 -39.5t47.5 -120.5z" />
    <glyph glyph-name="uni0498" unicode="&#x498;" horiz-adv-x="554" 
d="M304 698q121 0 173 -41.5t38 -143.5q-11 -75 -42 -111.5t-95 -42.5l-1 -5q135 -13 110 -187q-14 -101 -65 -138t-174 -37q-146 0 -251 28l15 88q114 -16 213 -16q70 0 99.5 22t38.5 86q10 65 -12 88t-91 23h-127l12 93h121q62 0 89 21.5t35 80.5q8 58 -11.5 75.5
t-85.5 17.5q-58 0 -190 -12l-4 93q84 18 205 18zM183 -40q72 8 102.5 -6t21.5 -63q-11 -68 -67 -102t-133 -23l20 58q36 -1 63.5 17t33.5 47q2 12 -7.5 15.5t-47.5 3.5z" />
    <glyph glyph-name="uni0499" unicode="&#x499;" horiz-adv-x="506" 
d="M238 501q125 0 176 -28t40 -109q-8 -54 -34 -80t-85 -31l-1 -3q63 -5 87.5 -37.5t15.5 -95.5q-11 -79 -60.5 -103.5t-168.5 -24.5q-121 0 -212 19l15 88q101 -9 188 -9q70 0 92 12t27 51q4 34 -14.5 45.5t-76.5 12.5l-133 2l10 81h127q55 0 77.5 13.5t27.5 50.5
q5 31 -12.5 39.5t-86.5 8.5q-88 0 -164 -9l-4 88q67 19 169 19zM159 -40q72 8 102.5 -6t21.5 -63q-11 -68 -67 -102t-133 -23l20 58q36 -1 63.5 17t33.5 47q2 12 -7.5 15.5t-47.5 3.5z" />
    <glyph glyph-name="uni049A" unicode="&#x49a;" horiz-adv-x="640" 
d="M531 97h79l-13 -92l-22 -156h-82l11 151h-80q-34 177 -45 212q-23 74 -69 91q-22 8 -51 8h-61q2 -33 -4 -70l-34 -241h-125l97 690h125l-29 -206q-7 -47 -17 -77h55q38 0 66 13t60 61.5t45 74t56 118.5l8 16h130q-78 -173 -112 -224q-57 -87 -135 -103q-9 -2 -19 -3
l-1 -4q77 -12 108 -66t59 -193z" />
    <glyph glyph-name="uni049B" unicode="&#x49b;" horiz-adv-x="550" 
d="M458 93h96l-33 -236h-80l10 143h-92q-3 11 -7 32q-27 116 -43 143q-23 34 -76 35h-60q2 -23 -1 -46l-24 -164h-120l69 490h120l-18 -136q-4 -25 -14 -55h46q60 0 91.5 37.5t84.5 153.5h129q-26 -54 -37 -76.5t-29.5 -55.5t-30 -45t-30.5 -27t-38.5 -21t-46.5 -9l-1 -4
q65 -7 89.5 -38t45.5 -121z" />
    <glyph glyph-name="uni049C" unicode="&#x49c;" horiz-adv-x="620" 
d="M370 358q26 -3 46 -11.5t34.5 -18t27.5 -32t20.5 -39.5t17.5 -55t15 -63.5t16 -78.5q8 -39 12 -60h-132q-33 178 -48 221q-21 58 -58 77l-18 -132h-72l20 145h-55q2 -35 -3 -68l-33 -243h-124l96 690h124l-29 -203q-6 -41 -18 -80h56l20 146h72l-18 -131q24 13 44 34
t43.5 63t37.5 72t45 99h128q-80 -171 -107 -215q-54 -86 -125 -106q-16 -5 -34 -7z" />
    <glyph glyph-name="uni049D" unicode="&#x49d;" horiz-adv-x="555" 
d="M337 254q24 -3 41.5 -9t31 -12.5t24 -24t17.5 -30.5t15.5 -46t13.5 -57t15 -75h-127q-23 115 -38 154.5t-49 50.5l-13 -90h-60l13 95h-39q0 -24 -3 -43l-22 -167h-121l68 490h121l-18 -134q-4 -25 -14 -57h41l14 102h60l-13 -94q36 12 61 50t69 133h123
q-67 -141 -101 -182t-109 -51z" />
    <glyph glyph-name="uni049E" unicode="&#x49e;" horiz-adv-x="664" 
d="M421 356q36 -6 61 -22t40.5 -33t30.5 -64.5t22 -78.5t23 -113q6 -29 9 -45h-126q-34 177 -45 212q-23 74 -69 91q-22 8 -51 8h-61q2 -33 -4 -70l-34 -241h-125l76 540h-128l12 85h128l9 65h125l-9 -65h135l-13 -85h-134l-8 -56q-7 -47 -17 -77h55q38 0 66 13t60 61.5
t45 74t56 118.5l8 16h130q-78 -173 -112 -224q-57 -87 -135 -103q-9 -2 -19 -3z" />
    <glyph glyph-name="uni049F" unicode="&#x49f;" horiz-adv-x="551" 
d="M317 254q77 -9 102.5 -53.5t56.5 -200.5h-127q-27 135 -47.5 172t-79.5 38h-55q2 -25 -1 -43l-23 -167h-121l75 537h-70l9 74h71l11 79h121l-11 -79h172l-9 -74h-173l-25 -181q-4 -25 -14 -57h49q60 0 91.5 37.5t85.5 153.5h124q-68 -141 -102 -182t-110 -51v-3z" />
    <glyph glyph-name="uni04A0" unicode="&#x4a0;" horiz-adv-x="741" 
d="M498 356q36 -6 61 -22t40.5 -33t30.5 -64.5t22 -78.5t23 -113q6 -29 9 -45h-126q-34 177 -45 212q-23 74 -69 91q-22 8 -51 8h-61q2 -33 -4 -70l-34 -241h-125l85 604h-168l9 64h168l3 22h125l-29 -206q-7 -47 -17 -77h55q38 0 66 13t60 61.5t45 74t56 118.5l8 16h130
q-78 -173 -112 -224q-57 -87 -135 -103q-9 -2 -19 -3z" />
    <glyph glyph-name="uni04A1" unicode="&#x4a1;" horiz-adv-x="645" 
d="M426 254q24 -3 41.5 -9t31 -12.5t24 -24t17.5 -30.5t15.5 -46t13.5 -57t15 -75h-127q-10 50 -15 74.5t-13.5 53.5t-15.5 40.5t-19 23t-26.5 15t-35.5 3.5h-56q0 -30 -2 -43l-23 -167h-120l55 398h-166l13 92h287l-19 -134q-5 -32 -13 -57h49q60 0 91.5 37.5t85.5 153.5
h123q-67 -141 -101 -182t-109 -51z" />
    <glyph glyph-name="uni04A2" unicode="&#x4a2;" horiz-adv-x="697" 
d="M659 97l-13 -92l-22 -156h-87l11 151h-114l44 315h-271l-44 -315h-126l97 690h126l-38 -271h271l38 271h125l-83 -593h86z" />
    <glyph glyph-name="uni04A3" unicode="&#x4a3;" horiz-adv-x="595" 
d="M493 93h76l-32 -236h-80l10 143h-106l30 215h-213l-30 -215h-120l69 490h119l-26 -186h214l26 186h119z" />
    <glyph glyph-name="uni04A4" unicode="&#x4a4;" horiz-adv-x="863" 
d="M649 692q177 0 251 -9l-19 -95h-201q-34 0 -49 -13.5t-19 -49.5l-74 -525h-126l45 316h-252l-44 -316h-126l97 690h126l-38 -271h252l18 130q9 63 54 103t105 40z" />
    <glyph glyph-name="uni04A5" unicode="&#x4a5;" horiz-adv-x="762" 
d="M547 495q164 0 231 -11l-16 -85h-176q-51 0 -58 -51l-49 -348h-121l30 215h-203l-30 -215h-120l69 490h120l-26 -186h203l11 77q16 114 135 114z" />
    <glyph glyph-name="uni04A6" unicode="&#x4a6;" horiz-adv-x="990" 
d="M799 447q33 0 57.5 -7t47.5 -25t33.5 -50t15 -82.5t-7.5 -121.5q-10 -74 -32.5 -131t-50 -91.5t-65.5 -58.5t-73 -35t-79 -18l-9 87q44 11 70.5 24.5t50.5 40t38.5 70t24.5 111.5q6 61 7.5 97t-11 55t-28.5 24.5t-46 5.5q-63 0 -140 -37l-43 -305h-126l83 593h-272
l-83 -593h-126l97 690h524l-41 -291q89 48 184 48z" />
    <glyph glyph-name="uni04A7" unicode="&#x4a7;" horiz-adv-x="869" 
d="M692 367q77 0 118 -54.5t24 -179.5q-40 -296 -296 -336l-10 84q83 20 125 74t60 178q11 75 -8.5 103.5t-68.5 28.5q-54 0 -119 -33l-33 -232h-121l46 332q5 41 -2.5 55.5t-33.5 13.5q-38 0 -78 -22.5t-104 -72.5l-42 -306h-121l69 490h96l-2 -101q122 115 227 115
q62 0 94.5 -36t23.5 -102l-6 -42q80 43 162 43z" />
    <glyph glyph-name="uni04A8" unicode="&#x4a8;" horiz-adv-x="876" 
d="M824 16q-58 -28 -150 -28q-88 0 -155 36q-87 -36 -185 -36q-149 0 -223 93t-48 293q24 177 106.5 253t226.5 76l-14 -102q-34 0 -60.5 -9.5t-54 -34.5t-47 -78.5t-28.5 -132.5q-3 -24 -4 -43t1 -47t8 -49t19.5 -44.5t34 -38t54 -24.5t76.5 -10q31 0 55 4q-87 118 -53 332
q22 140 81 207t167 67q110 0 153 -65t26 -194q-29 -227 -176 -348q32 -6 64 -6q66 0 125 9zM510 420q-31 -199 38 -278q106 82 133 287q11 85 -2.5 124t-58.5 39q-46 0 -71 -42t-39 -130z" />
    <glyph glyph-name="uni04A9" unicode="&#x4a9;" horiz-adv-x="708" 
d="M681 27q-50 -36 -147 -36q-65 0 -119 31q-76 -31 -156 -31q-131 0 -184.5 67.5t-33.5 207.5q18 127 81.5 182.5t182.5 55.5l-12 -86q-110 0 -131 -155q-14 -99 19 -142t118 -43q26 0 46 4q-70 91 -51 221q28 201 206 201q179 0 152 -201q-18 -133 -140 -225q20 -5 36 -5
q73 0 127 14zM409 301q-17 -116 33 -178q81 58 98 178q9 63 -3 88.5t-47 25.5t-54 -27t-27 -87z" />
    <glyph glyph-name="uni04AA" unicode="&#x4aa;" horiz-adv-x="574" 
d="M380 592q-60 0 -94 -19.5t-57.5 -74t-37.5 -158.5q-20 -139 3 -190t106 -52q110 -1 203 10l6 -95q-68 -21 -165 -24l-24 -140h-87l15 141q-124 13 -168.5 99t-19.5 261q27 197 98 274.5t225 77.5q114 0 199 -23l-18 -94q-87 7 -184 7z" />
    <glyph glyph-name="uni04AB" unicode="&#x4ab;" horiz-adv-x="494" 
d="M324 403q-80 0 -113.5 -31.5t-45.5 -128.5q-12 -98 9 -126.5t96 -28.5q84 0 151 10l8 -81q-67 -25 -150 -28l-30 -153h-81l13 157q-93 13 -126.5 74.5t-16.5 182.5q20 140 80 197t188 57q106 0 172 -29l-17 -74q-102 2 -137 2z" />
    <glyph glyph-name="uni04AC" unicode="&#x4ac;" horiz-adv-x="584" 
d="M622 690l-15 -107h-212l-71 -505h46l-8 -59h-46l-3 -19h-125l82 583h-211l15 107h548zM314 -130l8 116h53l-18 -116h-43z" />
    <glyph glyph-name="uni04AD" unicode="&#x4ad;" horiz-adv-x="878" 
d="M781 93h76l-33 -236h-80l10 143h-106l46 334q6 38 -4.5 52.5t-37.5 14.5q-31 0 -62.5 -19.5t-91.5 -75.5l-43 -306h-116l46 334q5 36 -4 51.5t-38 15.5q-32 0 -63.5 -19t-90.5 -72l-43 -310h-120l69 490h93l-2 -97q108 111 205 111q55 0 85 -27t33 -75q101 102 194 102
q65 0 95.5 -37t20.5 -101z" />
    <glyph glyph-name="uni04AE" unicode="&#x4ae;" horiz-adv-x="586" 
d="M636 690l-291 -457l-33 -233h-126l34 240l-161 450h127l87 -270q13 -38 16 -84h10q9 38 38 87l163 267h136z" />
    <glyph glyph-name="uni04AF" unicode="&#x4af;" horiz-adv-x="596" 
d="M612 490l-291 -457l-32 -231h-126l33 237l-161 451h127l88 -270q14 -46 15 -84h10q11 42 38 87l164 267h135z" />
    <glyph glyph-name="uni04B0" unicode="&#x4b0;" horiz-adv-x="595" 
d="M644 690l-260 -407h119l-12 -85h-144l-28 -198h-126l29 198h-144l12 85h120l-145 407h129l88 -270q9 -31 15 -84l10 3q16 43 38 84l165 267h134z" />
    <glyph glyph-name="uni04B1" unicode="&#x4b1;" horiz-adv-x="597" 
d="M612 490l-258 -406h119l-9 -74h-146l-29 -208h-126l29 208h-141l10 74h119l-145 406h127l88 -270q14 -46 15 -84h10q11 42 38 87l164 267h135z" />
    <glyph glyph-name="uni04B2" unicode="&#x4b2;" horiz-adv-x="686" 
d="M665 97l-13 -92l-22 -156h-87l11 151h-114l-109 312h-19l-196 -312h-142l234 355l-121 335h126l98 -288h21l185 288h135l-218 -335l97 -258h134z" />
    <glyph glyph-name="uni04B3" unicode="&#x4b3;" horiz-adv-x="552" 
d="M370 252l75 -159h97l-33 -236h-80l10 143h-70l-94 210h-16l-154 -210h-132l191 253l-109 237h119l83 -192h21l141 192h128z" />
    <glyph glyph-name="uni04B4" unicode="&#x4b4;" horiz-adv-x="833" 
d="M729 170l-23 -163h62l-22 -158h-86l11 151h-486l82 583h-208l15 107h501l-15 -107h-132l-58 -413h212l73 520h126l-73 -520h21z" />
    <glyph glyph-name="uni04B5" unicode="&#x4b5;" horiz-adv-x="739" 
d="M711 97l-12 -90l-21 -150h-85l10 143h-454l56 400h-155l12 90h426l-12 -90h-151l-42 -303h236l55 393h122l-55 -393h70z" />
    <glyph glyph-name="uni04B6" unicode="&#x4b6;" horiz-adv-x="682" 
d="M542 85h88l-11 -85l-22 -151h-96l13 151h-110l43 306q-121 -64 -236 -64q-168 0 -144 166l40 282h125l-35 -261q-8 -44 7.5 -61.5t65.5 -17.5q83 0 191 58l40 282h126z" />
    <glyph glyph-name="uni04B7" unicode="&#x4b7;" 
d="M526 93l-11 -88l-21 -148h-111l39 143h-102l28 202q-93 -41 -171 -41q-75 -1 -108 28t-25 88l31 213h121l-25 -180q-5 -33 4.5 -43.5t43.5 -10.5q67 0 143 44l27 190h122l-58 -397h73z" />
    <glyph glyph-name="uni04B8" unicode="&#x4b8;" horiz-adv-x="637" 
d="M491 690h125l-97 -690h-125l43 309q-45 -27 -98 -45l-20 -140h-71l17 122q-24 -5 -50 -5q-87 0 -123.5 41t-25.5 125l40 283h126l-36 -262q-8 -42 7.5 -60t59.5 -18h17l24 166h71l-22 -152q36 11 99 45z" />
    <glyph glyph-name="uni04B9" unicode="&#x4b9;" horiz-adv-x="555" 
d="M395 490h120l-68 -490h-120l26 191q-34 -11 -68 -17l-13 -91h-60l11 81q-29 -3 -51 -3q-68 0 -97.5 27t-22.5 83l30 219h120l-25 -179q-4 -31 6.5 -43t42.5 -12h10l18 132h60l-17 -125q34 7 69 19z" />
    <glyph glyph-name="uni04BA" unicode="&#x4ba;" horiz-adv-x="647" 
d="M451 448q168 0 144 -166l-39 -282h-126l37 261q6 44 -9 61.5t-65 17.5q-81 0 -191 -58l-40 -282h-126l97 690h126l-43 -305q122 63 235 63z" />
    <glyph glyph-name="uni04BB" unicode="&#x4bb;" horiz-adv-x="587" 
d="M415 504q64 0 96.5 -36t22.5 -102l-52 -366h-121l46 334q5 40 -2 53.5t-33 13.5q-38 0 -78 -22t-106 -73l-41 -306h-121l98 700h121l-24 -183q-8 -60 -25 -121q120 108 219 108z" />
    <glyph glyph-name="uni04BC" unicode="&#x4bc;" horiz-adv-x="733" 
d="M510 703q123 0 174.5 -53t35.5 -168q-14 -102 -69 -142.5t-167 -40.5h-182q-3 -35 -3.5 -61.5t3 -47.5t9 -35.5t16.5 -25t22.5 -16.5t30 -9.5t36.5 -4.5t44 -1q88 0 166 10l-3 -93q-78 -27 -202 -27q-161 0 -214.5 71t-35.5 240h-8q-97 0 -131.5 46t-8.5 144h96
q-30 -96 55 -96h11q31 176 102.5 243t222.5 67zM592 484q9 60 -16 86t-88 26q-75 0 -113.5 -42.5t-59.5 -160.5h154q58 0 87 19.5t36 71.5z" />
    <glyph glyph-name="uni04BD" unicode="&#x4bd;" horiz-adv-x="650" 
d="M415 504q117 0 164.5 -42.5t35.5 -127.5q-21 -140 -151 -140h-200q-1 -64 24.5 -85.5t91.5 -21.5q73 0 178 12v-78q-74 -33 -207 -33q-120 0 -170.5 48t-43.5 158q-84 4 -113 47.5t-3 137.5l85 -2q-13 -54 -4 -74t45 -23q24 124 86 174t182 50zM494 336q5 40 -13.5 56
t-73.5 16q-65 0 -92.5 -26.5t-40.5 -102.5h168q43 0 52 57z" />
    <glyph glyph-name="uni04BE" unicode="&#x4be;" horiz-adv-x="733" 
d="M510 703q123 0 174.5 -53t35.5 -168q-14 -102 -69 -142.5t-167 -40.5h-182q-3 -35 -3.5 -61.5t3 -47.5t9 -35.5t16.5 -25t22.5 -16.5t30 -9.5t36.5 -4.5t44 -1q88 0 166 10l-3 -93q-65 -22 -175 -27l-24 -139h-86l14 143q-119 14 -158 85t-23 222h-8q-97 0 -131.5 46
t-8.5 144h96q-30 -96 55 -96h11q31 176 102.5 243t222.5 67zM592 484q9 60 -16 86t-88 26q-75 0 -113.5 -42.5t-59.5 -160.5h154q58 0 87 19.5t36 71.5z" />
    <glyph glyph-name="uni04BF" unicode="&#x4bf;" horiz-adv-x="650" 
d="M415 504q117 0 164.5 -42.5t35.5 -127.5q-21 -140 -151 -140h-200q-1 -64 24.5 -85.5t91.5 -21.5q73 0 178 12v-78q-56 -25 -156 -31l-29 -154h-82l14 154q-94 8 -134 56.5t-34 147.5q-84 4 -113 47.5t-3 137.5l85 -2q-13 -54 -4 -74t45 -23q24 124 86 174t182 50z
M494 336q5 40 -13.5 56t-73.5 16q-65 0 -92.5 -26.5t-40.5 -102.5h168q43 0 52 57z" />
    <glyph glyph-name="uni04C0" unicode="&#x4c0;" horiz-adv-x="281" 
d="M260 690l-97 -690h-126l97 690h126z" />
    <glyph glyph-name="uni04C1" unicode="&#x4c1;" horiz-adv-x="915" 
d="M527 741q-77 0 -115 43t-23 104h86q-13 -84 61 -84q72 0 83 84h86q-2 -62 -52 -104.5t-126 -42.5zM667 356q28 -4 48.5 -13t37 -29.5t27.5 -41t22.5 -61t19 -75t20.5 -97.5q5 -26 8 -39h-125q-39 184 -45 206q-23 78 -64 97q-20 8 -46 8h-54q2 -44 -3 -70l-33 -241h-121
l35 245q4 25 16 66h-51q-62 0 -101 -50.5t-116 -206.5q-18 -35 -27 -54h-133q91 195 125 248q54 84 124 104q17 6 38 8l1 4q-17 3 -31.5 7.5t-26.5 14t-21.5 17t-18.5 25t-15 28t-13.5 36.5t-11.5 39.5t-11 47.5t-10 51.5t-11 59.5h122q32 -162 46 -201q26 -72 77 -80
q9 -2 19 -2h61q-2 43 4 82l28 201h120l-30 -206q-7 -50 -16 -77h45q27 0 50.5 12t44 34t41 56t42 76.5t47.5 97.5q1 2 1.5 3.5t1.5 3.5h128q-78 -171 -100 -208q-50 -87 -114 -110q-24 -9 -50 -12z" />
    <glyph glyph-name="uni04C2" unicode="&#x4c2;" horiz-adv-x="769" 
d="M426 561q-77 0 -115 43t-23 104h86q-14 -84 61 -84q73 0 83 84h86q-2 -62 -52 -104.5t-126 -42.5zM548 253q36 -5 57 -16.5t37 -39.5t26.5 -65t27.5 -106q4 -17 6 -26h-115q-32 139 -47 169q-20 39 -64 42h-7h-46q2 -27 -1 -46l-22 -165h-108l25 169q3 22 10 42h-41
q-49 -1 -80 -40t-99 -171h-123q9 17 24 47q25 49 36 70t28.5 50t28.5 39.5t29 23.5t36.5 18t44.5 8l1 4q-68 8 -91 50.5t-51 179.5h116q24 -116 43 -154t68 -38h43q-1 26 2 59l19 133h108l-20 -136q-6 -36 -12 -56h31q49 0 80.5 38.5t90.5 153.5h120l-6 -12
q-65 -131 -94 -166q-42 -49 -110 -56z" />
    <glyph glyph-name="uni04C3" unicode="&#x4c3;" horiz-adv-x="604" 
d="M365 358q53 -1 91 -25.5t57 -62.5t25.5 -81.5t0.5 -88.5q-20 -139 -91 -208t-209 -65l13 89q38 1 65.5 12.5t42.5 25t25.5 41.5t13.5 45t8 52q16 116 -24 166.5t-128 50.5h-61q2 -54 0 -66l-33 -243h-126l97 690h126l-30 -203q-6 -41 -18 -80h58q27 0 49 7t43.5 28t35 37
t36 59t33.5 67t39 85h128q-81 -171 -107 -214q-54 -86 -124 -107q-17 -5 -36 -7v-4z" />
    <glyph glyph-name="uni04C4" unicode="&#x4c4;" horiz-adv-x="556" 
d="M343 254q39 -5 69 -17t55.5 -34.5t36 -62t2.5 -93.5q-15 -102 -86 -159.5t-195 -60.5l12 84q77 5 106.5 40t38.5 99q11 76 -27.5 117.5t-106.5 42.5h-54q0 -30 -2 -43l-23 -167h-121l69 490h120l-18 -134q-4 -25 -14 -57h49q60 0 92 38t85 153h124q-65 -135 -90 -168
q-38 -49 -101 -62q-9 -2 -20 -3z" />
    <glyph glyph-name="uni04C5" unicode="&#x4c5;" horiz-adv-x="670" 
d="M546 97h86l-14 -97l-69 -151h-87l59 151h-114l83 593h-101q-37 0 -55 -15t-25 -53q-29 -124 -41.5 -175.5t-32.5 -111.5t-43 -103q-80 -149 -225 -137l-4 100q24 6 39.5 12t37 23.5t37.5 45.5q31 51 52 123.5t61 254.5q30 133 168 133h271z" />
    <glyph glyph-name="uni04C6" unicode="&#x4c6;" horiz-adv-x="601" 
d="M482 93h73l-13 -93l-68 -144h-85l57 144h-98l56 400h-76q-28 0 -42.5 -13t-23.5 -46q-30 -119 -74 -234q-25 -68 -73 -92.5t-121 -19.5l-9 96q5 1 16.5 2.5t16 2.5t13.5 3.5t14 6.5t11.5 9.5t12 14t10.5 20.5q36 84 71 222q16 61 49 89.5t94 28.5h245z" />
    <glyph glyph-name="uni04C7" unicode="&#x4c7;" horiz-adv-x="673" 
d="M529 690h126l-89 -637q-18 -128 -97.5 -188t-190.5 -40l12 89q75 0 107.5 32.5t42.5 108.5l37 261h-272l-44 -316h-126l97 690h126l-38 -271h271z" />
    <glyph glyph-name="uni04C8" unicode="&#x4c8;" horiz-adv-x="594" 
d="M448 490h120l-64 -453q-17 -118 -89.5 -173.5t-174.5 -38.5l11 80q67 0 95.5 30t38.5 102l25 178h-215l-30 -215h-119l69 490h119l-26 -186h214z" />
    <glyph glyph-name="uni04C9" unicode="&#x4c9;" horiz-adv-x="696" 
d="M571 97h86l-14 -97l-70 -151h-86l58 151h-113l44 315h-271l-44 -315h-126l97 690h126l-38 -271h271l38 271h125z" />
    <glyph glyph-name="uni04CA" unicode="&#x4ca;" horiz-adv-x="594" 
d="M493 93h74l-13 -93l-69 -144h-85l57 144h-96l30 215h-213l-30 -215h-120l69 490h119l-26 -186h214l26 186h119z" />
    <glyph glyph-name="uni04CB" unicode="&#x4cb;" horiz-adv-x="626" 
d="M474 690h125l-97 -690h-161l-32 -151h-86l21 151l1 5v2l13 90h133l29 212q-57 -34 -117.5 -51t-104.5 -17q-87 0 -123.5 41t-25.5 125l40 283h126l-36 -262q-8 -42 7.5 -60t59.5 -18q82 0 189 59z" />
    <glyph glyph-name="uni04CC" unicode="&#x4cc;" horiz-adv-x="550" 
d="M388 490h123l-69 -490h-66l-10 -143h-80v232h46l16 113q-89 -41 -171 -41q-75 -1 -108 28t-25 88l31 213h121l-25 -180q-4 -33 5 -43.5t43 -10.5q66 0 143 44z" />
    <glyph glyph-name="uni04CD" unicode="&#x4cd;" horiz-adv-x="917" 
d="M797 97h93l-14 -97l-70 -151h-86l58 151h-112l62 589h-17l-184 -461q-14 -40 -56 -40h-95q-44 0 -49 44l-61 457h-19l-102 -589h-122l116 643q9 47 52 47h126q40 0 46 -44l51 -374q5 -44 7 -95h16q20 57 34 92l150 381q14 39 56 39l128 1q24 0 36 -14t9 -37z" />
    <glyph glyph-name="uni04CE" unicode="&#x4ce;" horiz-adv-x="768" 
d="M673 93h83l-13 -93l-68 -144h-86l58 144h-93l39 401h-15l-136 -306q-14 -36 -48 -36h-82q-37 0 -42 40l-54 302h-16l-71 -401h-110l79 448q4 23 15 32.5t33 9.5h114q36 0 41 -40l41 -234q8 -60 9 -80h14q22 64 27 74l110 245q16 35 49 35h117q21 0 32 -12t9 -33z" />
    <glyph glyph-name="uni04CF" unicode="&#x4cf;" horiz-adv-x="257" 
d="M244 690l-97 -690h-119l97 690h119z" />
    <glyph glyph-name="uni04D0" unicode="&#x4d0;" horiz-adv-x="634" 
d="M379 741q-77 0 -115 43t-23 104h86q-13 -84 61 -84q72 0 83 84h86q-2 -62 -52 -104.5t-126 -42.5zM466 0l-29 194h-258l-83 -194h-131l300 659q10 31 46 31h123q16 0 27.5 -10.5t12.5 -25.5l117 -654h-125zM224 300h197l-35 234l-6 63h-30q-8 -21 -25 -62z" />
    <glyph glyph-name="uni04D1" unicode="&#x4d1;" horiz-adv-x="585" 
d="M326 561q-77 0 -115 43t-23 104h86q-14 -84 61 -84q73 0 83 84h86q-2 -62 -52 -104.5t-126 -42.5zM296 504q128 0 246 -29l-67 -475h-95l2 84q-83 -95 -204 -96q-91 -1 -123.5 59t-11.5 206q12 83 33.5 134.5t56.5 76.5t70.5 32.5t92.5 7.5zM210 90q42 0 81 23.5t88 73.5
l32 219q-40 1 -89 1q-87 0 -114.5 -27t-42.5 -133q-13 -103 -4.5 -130t49.5 -27z" />
    <glyph glyph-name="uni04D2" unicode="&#x4d2;" horiz-adv-x="634" 
d="M277 763q-30 0 -27 28l9 58q4 30 35 30h38q32 0 27 -30l-9 -58q-3 -28 -31 -28h-42zM446 763q-30 0 -27 28l9 58q4 30 35 30h38q17 0 23 -7t4 -23l-9 -58q-3 -28 -31 -28h-42zM466 0l-29 194h-258l-83 -194h-131l300 659q10 31 46 31h123q16 0 27.5 -10.5t12.5 -25.5
l117 -654h-125zM224 300h197l-35 234l-6 63h-30q-8 -21 -25 -62z" />
    <glyph glyph-name="uni04D3" unicode="&#x4d3;" horiz-adv-x="585" 
d="M224 583q-30 0 -27 28l9 58q4 30 35 30h38q17 0 23 -7t4 -23l-9 -58q-3 -28 -31 -28h-42zM393 583q-30 0 -27 28l9 58q4 30 35 30h38q32 0 27 -30l-9 -58q-3 -28 -31 -28h-42zM296 504q128 0 246 -29l-67 -475h-95l2 84q-83 -95 -204 -96q-91 -1 -123.5 59t-11.5 206
q12 83 33.5 134.5t56.5 76.5t70.5 32.5t92.5 7.5zM210 90q42 0 81 23.5t88 73.5l32 219q-40 1 -89 1q-87 0 -114.5 -27t-42.5 -133q-13 -103 -4.5 -130t49.5 -27z" />
    <glyph glyph-name="uni04D4" unicode="&#x4d4;" horiz-adv-x="920" 
d="M664 588q-59 0 -67 -61l-17 -120h269l-12 -93h-270l-21 -155q-5 -32 6 -44.5t42 -12.5h250l-5 -96q-90 -8 -277 -8q-71 0 -108 40.5t-27 111.5l7 49h-216l-134 -199h-132l390 570q47 71 104 96t170 25q200 0 312 -7l-16 -96h-248zM289 304l159 -1l34 240q5 44 34 68h-6
q-28 -21 -55 -61z" />
    <glyph glyph-name="uni04D5" unicode="&#x4d5;" horiz-adv-x="880" 
d="M651 504q121 0 163.5 -41.5t31.5 -121.5q-10 -72 -56 -104t-141 -38l-155 -13q1 -58 28 -78.5t83 -20.5q84 0 178 12l8 -79q-73 -32 -202 -32q-162 0 -204 104q-80 -103 -209 -104q-90 -1 -122.5 59t-12.5 206q12 83 33 134.5t55 76t68.5 32.5t90.5 8q104 0 216 -21
q55 21 147 21zM727 352q3 38 -15 47t-77 9q-66 -1 -93.5 -28.5t-40.5 -112.5l140 13q42 3 61.5 18.5t24.5 53.5zM208 90q72 0 161 89q0 43 5 79q12 94 42 148q-43 1 -96 1q-45 0 -68.5 -4.5t-42 -22t-27 -47.5t-16.5 -86q-13 -103 -5 -130t47 -27z" />
    <glyph glyph-name="uni04D6" unicode="&#x4d6;" horiz-adv-x="566" 
d="M365 741q-77 0 -115 43t-23 104h86q-13 -84 61 -84q72 0 83 84h86q-2 -62 -52 -104.5t-126 -42.5zM291 588q-31 0 -44 -13t-18 -47l-16 -121h280l-12 -93h-281l-21 -155q-4 -32 6 -44.5t42 -12.5h261l-3 -96q-86 -8 -283 -8q-85 0 -123 41t-28 115l57 410q9 61 50 94.5
t110 33.5q215 0 305 -9l-16 -95h-266z" />
    <glyph glyph-name="uni04D7" unicode="&#x4d7;" horiz-adv-x="548" 
d="M312 561q-77 0 -115 43t-23 104h86q-14 -84 61 -84q73 0 83 84h86q-2 -62 -52 -104.5t-126 -42.5zM317 504q122 0 164.5 -41.5t31.5 -121.5q-10 -72 -56 -104t-141 -38l-155 -13q1 -58 28 -78.5t82 -20.5q83 0 184 12l8 -79q-77 -32 -208 -32t-182 66.5t-33 203.5
q19 141 79 193.5t198 52.5zM394 352q3 38 -15 47t-77 9q-66 -1 -93.5 -28.5t-40.5 -112.5l140 13q42 3 61.5 18.5t24.5 53.5z" />
    <glyph glyph-name="uni04D8" unicode="&#x4d8;" horiz-adv-x="610" 
d="M316 703q117 0 176 -37t73 -116.5t-5 -204.5q-29 -205 -100.5 -281t-232.5 -76q-123 0 -174.5 53t-35.5 168q15 112 70.5 155.5t168.5 43.5h179q6 63 0 100t-28.5 56t-50.5 24t-79 5q-88 0 -166 -10l4 93q76 27 201 27zM249 95q77 0 115.5 45.5t58.5 172.5h-153
q-59 0 -87.5 -22t-37.5 -84q-8 -60 16.5 -86t87.5 -26z" />
    <glyph glyph-name="uni04D9" unicode="&#x4d9;" horiz-adv-x="551" 
d="M292 504q133 0 181 -59t28 -199q-20 -143 -83 -200.5t-190 -57.5q-117 0 -164.5 42t-35.5 127q22 149 161 149h190q0 59 -26 78.5t-90 19.5q-87 0 -178 -12v79q77 33 207 33zM236 84q66 0 94 28t41 110h-160q-53 0 -62 -66q-5 -40 13.5 -56t73.5 -16z" />
    <glyph glyph-name="uni04DA" unicode="&#x4da;" horiz-adv-x="610" 
d="M263 766q-30 0 -27 28l9 58q6 30 35 30h38q33 0 28 -30l-10 -58q-3 -28 -31 -28h-42zM432 766q-30 0 -27 28l10 58q4 30 34 30h38q33 0 28 -30l-10 -58q-3 -28 -31 -28h-42zM316 703q117 0 176 -37t73 -116.5t-5 -204.5q-29 -205 -100.5 -281t-232.5 -76
q-123 0 -174.5 53t-35.5 168q15 112 70.5 155.5t168.5 43.5h179q6 63 0 100t-28.5 56t-50.5 24t-79 5q-88 0 -166 -10l4 93q76 27 201 27zM249 95q77 0 115.5 45.5t58.5 172.5h-153q-59 0 -87.5 -22t-37.5 -84q-8 -60 16.5 -86t87.5 -26z" />
    <glyph glyph-name="uni04DB" unicode="&#x4db;" horiz-adv-x="551" 
d="M216 583q-30 0 -27 28l9 58q6 30 35 30h38q33 0 28 -30l-10 -58q-3 -28 -31 -28h-42zM385 583q-30 0 -27 28l10 58q4 30 34 30h38q32 0 28 -30l-10 -58q-3 -28 -31 -28h-42zM292 504q133 0 181 -59t28 -199q-20 -143 -83 -200.5t-190 -57.5q-117 0 -164.5 42t-35.5 127
q22 149 161 149h190q0 59 -26 78.5t-90 19.5q-87 0 -178 -12v79q77 33 207 33zM236 84q66 0 94 28t41 110h-160q-53 0 -62 -66q-5 -40 13.5 -56t73.5 -16z" />
    <glyph glyph-name="uni04DC" unicode="&#x4dc;" horiz-adv-x="915" 
d="M425 763q-30 0 -27 28l9 58q4 30 35 30h38q32 0 27 -30l-9 -58q-3 -28 -31 -28h-42zM594 763q-30 0 -27 28l9 58q4 30 35 30h38q17 0 23 -7t4 -23l-9 -58q-3 -28 -31 -28h-42zM667 356q28 -4 48.5 -13t37 -29.5t27.5 -41t22.5 -61t19 -75t20.5 -97.5q5 -26 8 -39h-125
q-39 184 -45 206q-23 78 -64 97q-20 8 -46 8h-54q2 -44 -3 -70l-33 -241h-121l35 245q4 25 16 66h-51q-62 0 -101 -50.5t-116 -206.5q-18 -35 -27 -54h-133q91 195 125 248q54 84 124 104q17 6 38 8l1 4q-17 3 -31.5 7.5t-26.5 14t-21.5 17t-18.5 25t-15 28t-13.5 36.5
t-11.5 39.5t-11 47.5t-10 51.5t-11 59.5h122q32 -162 46 -201q26 -72 77 -80q9 -2 19 -2h61q-2 43 4 82l28 201h120l-30 -206q-7 -50 -16 -77h45q27 0 50.5 12t44 34t41 56t42 76.5t47.5 97.5q1 2 1.5 3.5t1.5 3.5h128q-78 -171 -100 -208q-50 -87 -114 -110q-24 -9 -50 -12
z" />
    <glyph glyph-name="uni04DD" unicode="&#x4dd;" horiz-adv-x="769" 
d="M324 583q-30 0 -27 28l9 58q4 30 35 30h38q17 0 23 -7t4 -23l-9 -58q-3 -28 -31 -28h-42zM493 583q-30 0 -27 28l9 58q4 30 35 30h38q32 0 27 -30l-9 -58q-3 -28 -31 -28h-42zM548 253q36 -5 57 -16.5t37 -39.5t26.5 -65t27.5 -106q4 -17 6 -26h-115q-32 139 -47 169
q-20 39 -64 42h-7h-46q2 -27 -1 -46l-22 -165h-108l25 169q3 22 10 42h-41q-49 -1 -80 -40t-99 -171h-123q9 17 24 47q25 49 36 70t28.5 50t28.5 39.5t29 23.5t36.5 18t44.5 8l1 4q-68 8 -91 50.5t-51 179.5h116q24 -116 43 -154t68 -38h43q-1 26 2 59l19 133h108l-20 -136
q-6 -36 -12 -56h31q49 0 80.5 38.5t90.5 153.5h120l-6 -12q-65 -131 -94 -166q-42 -49 -110 -56z" />
    <glyph glyph-name="uni04DE" unicode="&#x4de;" horiz-adv-x="554" 
d="M265 879q17 0 23 -7t4 -23l-9 -58q-3 -28 -31 -28h-42q-30 0 -27 28l9 58q4 30 35 30h38zM434 879q32 0 27 -30l-9 -58q-3 -28 -31 -28h-42q-30 0 -27 28l9 58q4 30 35 30h38zM304 698q121 0 173 -41.5t38 -143.5q-11 -75 -42 -111.5t-95 -42.5l-1 -5q135 -13 110 -187
q-14 -101 -65 -138t-174 -37q-146 0 -251 28l15 88q114 -16 213 -16q70 0 99.5 22t38.5 86q10 65 -12 88t-91 23h-127l12 93h121q62 0 89 21.5t35 80.5q8 58 -11.5 75.5t-85.5 17.5q-58 0 -190 -12l-4 93q84 18 205 18z" />
    <glyph glyph-name="uni04DF" unicode="&#x4df;" horiz-adv-x="506" 
d="M239 695q17 0 23 -7t4 -23l-9 -58q-3 -28 -31 -28h-42q-30 0 -27 28l9 58q4 30 35 30h38zM408 695q32 0 27 -30l-9 -58q-3 -28 -31 -28h-42q-30 0 -27 28l9 58q4 30 35 30h38zM238 501q125 0 176 -28t40 -109q-8 -54 -34 -80t-85 -31l-1 -3q63 -5 87.5 -37.5t15.5 -95.5
q-11 -79 -60.5 -103.5t-168.5 -24.5q-121 0 -212 19l15 88q101 -9 188 -9q70 0 92 12t27 51q4 34 -14.5 45.5t-76.5 12.5l-133 2l10 81h127q55 0 77.5 13.5t27.5 50.5q5 31 -12.5 39.5t-86.5 8.5q-88 0 -164 -9l-4 88q67 19 169 19z" />
    <glyph glyph-name="uni04E0" unicode="&#x4e0;" horiz-adv-x="544" 
d="M537 679l-10 -70l-262 -213h24q122 0 173.5 -42t35.5 -154t-77.5 -160.5t-202.5 -48.5q-124 0 -217 24l22 91q105 -14 201 -14q72 0 105.5 26.5t41.5 82.5q9 67 -12.5 91.5t-91.5 24.5h-144l10 73l250 204h-287l13 96h417q11 0 11 -11z" />
    <glyph glyph-name="uni04E1" unicode="&#x4e1;" horiz-adv-x="495" 
d="M458 490q12 0 10 -11l-10 -70l-246 -212h27q111 0 157.5 -42t30.5 -154q-15 -112 -73 -160.5t-189 -48.5q-117 0 -205 24l21 90q111 -13 186 -13q66 0 96.5 26.5t37.5 81.5q9 67 -9 91t-81 24h-135l11 75l231 203h-263l13 96h390z" />
    <glyph glyph-name="uni04E2" unicode="&#x4e2;" horiz-adv-x="699" 
d="M574 861l-12 -84h-291l12 84h291zM679 690l-97 -690h-121l62 433q8 58 22 105h-6q-30 -58 -48 -85l-321 -453h-134l97 690h121l-61 -432q-7 -48 -24 -106h6q21 43 52 87l318 451h134z" />
    <glyph glyph-name="uni04E3" unicode="&#x4e3;" 
d="M489 681l-12 -84h-291l12 84h291zM419 490h120l-68 -490h-94l4 97q-116 -110 -218 -110q-68 0 -99 37t-21 101l51 365h121l-47 -333q-6 -37 3.5 -52t38.5 -15q37 0 72 21t95 73z" />
    <glyph glyph-name="uni04E4" unicode="&#x4e4;" horiz-adv-x="699" 
d="M366 879q32 0 27 -30l-9 -58q-3 -28 -31 -28h-42q-30 0 -27 28l9 58q4 30 35 30h38zM535 879q17 0 23 -7t4 -23l-9 -58q-3 -28 -31 -28h-42q-30 0 -27 28l9 58q4 30 35 30h38zM679 690l-97 -690h-121l62 433q8 58 22 105h-6q-30 -58 -48 -85l-321 -453h-134l97 690h121
l-61 -432q-7 -48 -24 -106h6q21 43 52 87l318 451h134z" />
    <glyph glyph-name="uni04E5" unicode="&#x4e5;" 
d="M226 583q-30 0 -27 28l9 58q4 30 35 30h38q17 0 23 -7t4 -23l-9 -58q-3 -28 -31 -28h-42zM395 583q-30 0 -27 28l9 58q4 30 35 30h38q32 0 27 -30l-9 -58q-3 -28 -31 -28h-42zM419 490h120l-68 -490h-94l4 97q-116 -110 -218 -110q-68 0 -99 37t-21 101l51 365h121
l-47 -333q-6 -37 3.5 -52t38.5 -15q37 0 72 21t95 73z" />
    <glyph glyph-name="uni04E6" unicode="&#x4e6;" horiz-adv-x="672" 
d="M347 879q17 0 23 -7t4 -23l-9 -58q-3 -28 -31 -28h-42q-30 0 -27 28l9 58q4 30 35 30h38zM516 879q32 0 27 -30l-9 -58q-3 -28 -31 -28h-42q-30 0 -27 28l9 58q4 30 35 30h38zM387 703q151 0 209 -82.5t31 -280.5q-27 -201 -99 -277t-225 -76t-211.5 81t-31.5 282
q27 197 99 275t228 78zM382 596q-91 0 -130 -52.5t-61 -203.5q-20 -142 4 -194t111 -52q88 0 128.5 54t61.5 202q22 145 -2.5 195.5t-111.5 50.5z" />
    <glyph glyph-name="uni04E7" unicode="&#x4e7;" horiz-adv-x="577" 
d="M281 699q17 0 23 -7t4 -23l-9 -58q-3 -28 -31 -28h-42q-30 0 -27 28l9 58q4 30 35 30h38zM450 699q32 0 27 -30l-9 -58q-3 -28 -31 -28h-42q-30 0 -27 28l9 58q4 30 35 30h38zM312 504q130 0 181 -61.5t31 -202.5q-19 -138 -80.5 -195.5t-189.5 -57.5q-130 0 -181.5 61
t-32.5 201q19 139 80.5 197t191.5 58zM312 407q-70 0 -100.5 -34t-45.5 -133q-13 -92 5 -124t84 -32q69 0 100 34.5t44 130.5q13 94 -4.5 126t-82.5 32z" />
    <glyph glyph-name="uni04E8" unicode="&#x4e8;" horiz-adv-x="672" 
d="M387 703q151 0 209 -82.5t31 -280.5q-27 -201 -99 -277t-225 -76t-211.5 81t-31.5 282q27 197 99 275t228 78zM382 596q-85 0 -124 -45t-60 -169h302q16 125 -9.5 169.5t-108.5 44.5zM306 94q81 0 121 44.5t61 162.5h-302q-13 -118 12.5 -162.5t107.5 -44.5z" />
    <glyph glyph-name="uni04E9" unicode="&#x4e9;" horiz-adv-x="576" 
d="M311 504q130 0 180.5 -61.5t30.5 -202.5q-19 -138 -80.5 -195.5t-189.5 -57.5q-129 0 -181 61t-33 201q20 139 81 197t192 58zM310 407q-61 0 -91.5 -25t-45.5 -95h229q6 70 -14 95t-78 25zM253 84q64 0 94.5 29t44.5 105h-230q-9 -79 10 -106.5t81 -27.5z" />
    <glyph glyph-name="uni04EA" unicode="&#x4ea;" horiz-adv-x="672" 
d="M300 763q-30 0 -27 28l9 58q6 30 35 30h38q33 0 28 -30l-10 -58q-3 -28 -31 -28h-42zM469 763q-30 0 -27 28l10 58q4 30 34 30h38q32 0 28 -30l-10 -58q-3 -28 -31 -28h-42zM387 703q151 0 209 -82.5t31 -280.5q-27 -201 -99 -277t-225 -76t-211.5 81t-31.5 282
q27 197 99 275t228 78zM382 596q-85 0 -124 -45t-60 -169h302q16 125 -9.5 169.5t-108.5 44.5zM306 94q81 0 121 44.5t61 162.5h-302q-13 -118 12.5 -162.5t107.5 -44.5z" />
    <glyph glyph-name="uni04EB" unicode="&#x4eb;" horiz-adv-x="576" 
d="M234 583q-30 0 -27 28l9 58q6 30 35 30h38q33 0 28 -30l-10 -58q-3 -28 -31 -28h-42zM403 583q-30 0 -27 28l10 58q4 30 34 30h38q32 0 28 -30l-10 -58q-3 -28 -31 -28h-42zM311 504q130 0 180.5 -61.5t30.5 -202.5q-19 -138 -80.5 -195.5t-189.5 -57.5q-129 0 -181 61
t-33 201q20 139 81 197t192 58zM310 407q-61 0 -91.5 -25t-45.5 -95h229q6 70 -14 95t-78 25zM253 84q64 0 94.5 29t44.5 105h-230q-9 -79 10 -106.5t81 -27.5z" />
    <glyph glyph-name="uni04EC" unicode="&#x4ec;" horiz-adv-x="583" 
d="M211 763q-30 0 -27 28l9 58q4 30 35 30h38q32 0 27 -30l-9 -58q-3 -28 -31 -28h-42zM380 763q-30 0 -27 28l9 58q4 30 35 30h38q17 0 23 -7t4 -23l-9 -58q-3 -28 -31 -28h-42zM277 702q167 0 226 -79.5t32 -282.5q-25 -194 -98 -270.5t-229 -81.5q-117 -4 -207 27l17 94
q93 -14 191 -10q90 5 130.5 50.5t62.5 165.5h-286l12 93h288q6 62 0 99.5t-27.5 55.5t-47.5 23t-73 5q-76 0 -170 -6l-5 95q85 22 184 22z" />
    <glyph glyph-name="uni04ED" unicode="&#x4ed;" horiz-adv-x="519" 
d="M175 583q-30 0 -27 28l9 58q4 30 35 30h38q32 0 27 -30l-9 -58q-3 -28 -31 -28h-42zM344 583q-30 0 -27 28l9 58q4 30 35 30h38q17 0 23 -7t4 -23l-9 -58q-3 -28 -31 -28h-42zM228 499q145 0 200 -56.5t37 -204.5q-18 -143 -82.5 -197t-207.5 -52q-106 0 -176 24l16 81
q64 -5 146 -5q89 -3 124.5 20.5t51.5 99.5h-245l11 81h245q4 72 -22.5 91t-105.5 19q-66 0 -151 -3l-5 82q68 20 164 20z" />
    <glyph glyph-name="uni04EE" unicode="&#x4ee;" horiz-adv-x="580" 
d="M511 861l-12 -84h-291l12 84h291zM494 690h133l-247 -517q-41 -86 -84 -131t-106 -50q-73 -5 -147 16l20 90q43 -2 64.5 -2t41.5 2.5t31.5 13t21.5 23.5t26 40l13 23h-32q-61 0 -73 60l-89 432h125l68 -378q3 -12 16 -12h36z" />
    <glyph glyph-name="uni04EF" unicode="&#x4ef;" horiz-adv-x="562" 
d="M465 681l-12 -84h-291l12 84h291zM424 490h127q-45 -225 -138 -412q-86 -179 -187 -242.5t-222 -39.5l10 93q131 -25 228 111h-53q-23 0 -39.5 13.5t-21.5 35.5l-88 441h128l63 -384q2 -16 18 -16h47l6.5 13t6.5 14q81 162 115 373z" />
    <glyph glyph-name="uni04F0" unicode="&#x4f0;" horiz-adv-x="580" 
d="M248 763q-30 0 -27 28l9 58q4 30 35 30h38q17 0 23 -7t4 -23l-9 -58q-3 -28 -31 -28h-42zM417 763q-30 0 -27 28l9 58q4 30 35 30h38q32 0 27 -30l-9 -58q-3 -28 -31 -28h-42zM494 690h133l-247 -517q-41 -86 -84 -131t-106 -50q-73 -5 -147 16l20 90q43 -2 64.5 -2
t41.5 2.5t31.5 13t21.5 23.5t26 40l13 23h-32q-61 0 -73 60l-89 432h125l68 -378q3 -12 16 -12h36z" />
    <glyph glyph-name="uni04F1" unicode="&#x4f1;" horiz-adv-x="562" 
d="M202 583q-30 0 -27 28l9 58q4 30 35 30h38q17 0 23 -7t4 -23l-9 -58q-3 -28 -31 -28h-42zM371 583q-30 0 -27 28l9 58q4 30 35 30h38q32 0 27 -30l-9 -58q-3 -28 -31 -28h-42zM424 490h127q-45 -225 -138 -412q-86 -179 -187 -242.5t-222 -39.5l10 93q131 -25 228 111
h-53q-23 0 -39.5 13.5t-21.5 35.5l-88 441h128l63 -384q2 -16 18 -16h47l6.5 13t6.5 14q81 162 115 373z" />
    <glyph glyph-name="uni04F2" unicode="&#x4f2;" horiz-adv-x="580" 
d="M412 880l-164 -162l-50 37l141 176zM426 718l-48 37l140 176l72 -51zM494 690h133l-247 -517q-41 -86 -84 -131t-106 -50q-73 -5 -147 16l20 90q43 -2 64.5 -2t41.5 2.5t31.5 13t21.5 23.5t26 40l13 23h-32q-61 0 -73 60l-89 432h125l68 -378q3 -12 16 -12h36z" />
    <glyph glyph-name="uni04F3" unicode="&#x4f3;" horiz-adv-x="562" 
d="M366 700l-164 -162l-50 37l141 176zM380 538l-48 37l140 176l72 -51zM424 490h127q-45 -225 -138 -412q-86 -179 -187 -242.5t-222 -39.5l10 93q131 -25 228 111h-53q-23 0 -39.5 13.5t-21.5 35.5l-88 441h128l63 -384q2 -16 18 -16h47l6.5 13t6.5 14q81 162 115 373z
" />
    </font>
</defs>
</svg>
