<?xml version="1.0" standalone="no"?>
<!DOCTYPE svg PUBLIC "-//W3C//DTD SVG 1.1//EN" "http://www.w3.org/Graphics/SVG/1.1/DTD/svg11.dtd" >
<svg xmlns="http://www.w3.org/2000/svg" xmlns:xlink="http://www.w3.org/1999/xlink" version="1.1">
<metadata>
Created by FontForge 20170731 at Wed Dec 13 19:43:06 2017
 By Aleksey,,,
Copyright (c) 2013, Natanael Gama (www.ndiscovered.com . info(at)ndiscovered.com), with Reserved Font Name Exo. This Font Software is licensed under the SIL Open Font License, Version 1.1.
</metadata>
<defs>
<font id="Exo2-Bold" horiz-adv-x="587" >
  <font-face 
    font-family="Exo 2"
    font-weight="700"
    font-stretch="normal"
    units-per-em="1000"
    panose-1="0 0 8 0 0 0 0 0 0 0"
    ascent="800"
    descent="-200"
    x-height="493"
    cap-height="690"
    bbox="-459 -292 1268 1101"
    underline-thickness="50"
    underline-position="-200"
    unicode-range="U+0020-FB02"
  />
<missing-glyph horiz-adv-x="590" 
d="M510 690v-690h-430v690h430zM469 41v608h-348v-608h348z" />
    <glyph glyph-name="fi" unicode="fi" horiz-adv-x="667" 
d="M602 493v-493h-148v394h-201v-394h-148v394h-86v94l86 5v66q0 161 162 161q82 0 132 -10v-98h-80q-37 0 -51.5 -16t-14.5 -56v-47h349zM560 715q44 0 44 -43v-54q0 -43 -44 -43h-65q-43 0 -43 43v54q0 43 43 43h65z" />
    <glyph glyph-name="fl" unicode="fl" horiz-adv-x="721" 
d="M699 102l17 -94q-37 -20 -115 -20q-65 0 -102 34t-37 94v498h-145q-37 0 -51 -16.5t-14 -57.5v-47h124v-99h-124v-394h-148v394h-86v94l86 5v66q0 78 38 120t123 41q248 0 344 -18v-549q0 -51 53 -51h37z" />
    <glyph glyph-name="f_f" unicode="ff" horiz-adv-x="758" 
d="M672 612q-37 0 -52 -14.5t-15 -49.5v-55h138v-99h-138v-394h-145v394h-209v-394h-146v394h-86v94l86 5v65q3 152 161 152q92 0 140 -10l-14 -98h-75q-38 0 -52 -13t-14 -51v-45h209v75q0 152 161 152q104 0 159 -10l-13 -98h-95z" />
    <glyph glyph-name="f_f_i" unicode="ffi" horiz-adv-x="1013" 
d="M949 493v-493h-148v394h-202v-394h-144v394h-211v-394h-145v394h-80v94l80 4v66q2 152 161 152q93 0 139 -10l-13 -98h-75q-38 0 -52.5 -13t-14.5 -51v-45h211v66q0 161 161 161q80 0 130 -10v-98h-77q-40 0 -55 -15.5t-15 -56.5v-47h350zM907 715q43 0 43 -43v-54
q0 -43 -43 -43h-65q-43 0 -43 43v54q0 43 43 43h65z" />
    <glyph glyph-name="f_f_l" unicode="ffl" horiz-adv-x="1077" 
d="M1056 102l16 -94q-37 -20 -115 -20q-65 0 -102 34t-37 94v498h-147q-35 0 -50.5 -16.5t-15.5 -57.5v-47h128v-99h-128v-394h-145v394h-209v-394h-146v394h-86v94l86 5v65q3 152 161 152q92 0 140 -10l-14 -98h-75q-38 0 -52 -13t-14 -51v-45h209v66q0 78 38 120t123 41
q248 0 345 -18v-549q0 -51 52 -51h38z" />
    <glyph glyph-name=".notdef" horiz-adv-x="590" 
d="M510 690v-690h-430v690h430zM469 41v608h-348v-608h348z" />
    <glyph glyph-name=".null" horiz-adv-x="0" 
 />
    <glyph glyph-name="nonmarkingreturn" horiz-adv-x="333" 
 />
    <glyph glyph-name="space" unicode=" " horiz-adv-x="217" 
 />
    <glyph glyph-name="exclam" unicode="!" horiz-adv-x="300" 
d="M223 695v-270l-15 -206h-116l-16 206v270h147zM167 151q29 0 40.5 -11t11.5 -40v-48q0 -29 -11.5 -40.5t-40.5 -11.5h-34q-29 0 -40.5 11.5t-11.5 40.5v48q0 29 11.5 40t40.5 11h34z" />
    <glyph glyph-name="quotedbl" unicode="&#x22;" horiz-adv-x="375" 
d="M161 690l-9 -221h-91l-8 221h108zM323 690l-9 -221h-91l-9 221h109z" />
    <glyph glyph-name="numbersign" unicode="#" horiz-adv-x="710" 
d="M661 426h-110l-24 -140h109l-17 -89h-108l-34 -197h-112l34 197h-139l-34 -197h-112l34 197h-116l17 89h115l24 140h-114l17 88h112l31 176h112l-31 -176h139l31 176h112l-31 -176h112zM415 286l24 140h-139l-24 -140h139z" />
    <glyph glyph-name="dollar" unicode="$" horiz-adv-x="577" 
d="M540 186q0 -111 -50 -153.5t-177 -45.5l-10 -107h-111l10 111q-69 5 -150 22l10 112q167 -4 225 -4q60 0 80.5 12.5t20.5 51.5q0 35 -14 49.5t-52 26.5l-136 49q-76 28 -108.5 76t-32.5 126q0 111 52 150t180 41l10 90h111l-10 -94q72 -7 129 -23l-9 -104q-87 3 -214 3
q-59 0 -79 -10.5t-20 -52.5q0 -34 15.5 -49t57.5 -29l128 -45q79 -28 111.5 -76.5t32.5 -126.5z" />
    <glyph glyph-name="percent" unicode="%" horiz-adv-x="907" 
d="M205 703q96 0 134 -45t38 -160q0 -114 -38 -159.5t-134 -45.5q-95 0 -133 45.5t-38 159.5q0 115 38 160t133 45zM706 690l-413 -690h-95l414 690h94zM204 621q-36 0 -48.5 -24.5t-12.5 -98.5q0 -75 12.5 -99t48.5 -24q38 0 50.5 24t12.5 99t-12.5 99t-50.5 24zM701 399
q96 0 134 -45.5t38 -159.5q0 -115 -38 -160.5t-134 -45.5q-95 0 -132.5 45.5t-37.5 160.5q0 114 37.5 159.5t132.5 45.5zM701 316q-37 0 -49.5 -23.5t-11.5 -98.5q-1 -75 11.5 -99t49.5 -24t49.5 24t12.5 99q0 74 -12.5 98t-49.5 24z" />
    <glyph glyph-name="ampersand" unicode="&#x26;" horiz-adv-x="765" 
d="M715 108l16 -100q-52 -20 -127 -20q-100 0 -128 73q-41 -39 -90.5 -56t-125.5 -17q-113 0 -161 42t-48 145q0 83 31.5 129t104.5 52v4q-61 6 -88 45t-27 116q0 60 14 96t49.5 54.5t80.5 24.5t124 6q98 0 163 -12l-18 -105q-102 3 -149 3q-66 0 -88 -17t-22 -73
q0 -53 19.5 -72t73.5 -19h152l10 106h124v-106h107v-103h-107v-145q0 -29 10.5 -40t37.5 -11h62zM212 205q0 -57 18 -76t73 -19q99 2 163 45v149h-155q-58 0 -78.5 -20.5t-20.5 -78.5z" />
    <glyph glyph-name="quotesingle" unicode="'" horiz-adv-x="213" 
d="M161 690l-9 -221h-91l-8 221h108z" />
    <glyph glyph-name="parenleft" unicode="(" horiz-adv-x="365" 
d="M329 790l17 -64q-164 -75 -164 -413q0 -333 164 -414l-17 -64q-150 48 -220 163.5t-70 313.5q0 199 70 315t220 163z" />
    <glyph glyph-name="parenright" unicode=")" horiz-adv-x="365" 
d="M36 790q150 -47 220 -163t70 -315q0 -198 -70 -313.5t-220 -163.5l-17 64q164 81 164 414q0 338 -164 413z" />
    <glyph glyph-name="asterisk" unicode="*" horiz-adv-x="452" 
d="M267 691l-12 -167l106 -129l-65 -49l-70 122l-70 -121l-66 48l107 128l-12 168h82zM63 612l116 -49v-36l-18 -22l-123 29zM389 612l25 -78l-122 -29l-19 22v36z" />
    <glyph glyph-name="plus" unicode="+" horiz-adv-x="539" 
d="M497 355v-108h-173v-167h-109v167h-173v108h172v168h110v-168h173z" />
    <glyph glyph-name="comma" unicode="," horiz-adv-x="243" 
d="M139 151q29 0 40 -11t11 -40v-64q0 -100 -51 -183l-61 19q14 59 14 128q-40 0 -42 46l1 54q1 29 12.5 40t40.5 11h35z" />
    <glyph glyph-name="hyphen" unicode="-" horiz-adv-x="414" 
d="M356 303v-97h-298v97h298z" />
    <glyph glyph-name="period" unicode="." horiz-adv-x="246" 
d="M143 151q29 0 40.5 -11t11.5 -40v-48q0 -29 -11.5 -40.5t-40.5 -11.5h-40q-29 0 -40.5 11.5t-11.5 40.5v48q0 29 11.5 40t40.5 11h40z" />
    <glyph glyph-name="slash" unicode="/" horiz-adv-x="550" 
d="M530 690l-393 -762h-117l393 762h117z" />
    <glyph glyph-name="zero" unicode="0" horiz-adv-x="629" 
d="M314 703q147 0 206.5 -80t59.5 -278t-59.5 -278t-206.5 -80t-206 80t-59 278t59 278t206 80zM313 582q-67 0 -90.5 -48.5t-23.5 -188.5t23.5 -188.5t90.5 -48.5q68 0 92.5 48.5t24.5 188.5t-24.5 188.5t-92.5 48.5z" />
    <glyph glyph-name="one" unicode="1" horiz-adv-x="429" 
d="M336 690v-690h-152v486q0 44 6 75l-161 -42l-18 102l173 69h152z" />
    <glyph glyph-name="two" unicode="2" horiz-adv-x="578" 
d="M283 702q116 0 173.5 -34t57.5 -126q0 -62 -22.5 -109.5t-89.5 -118.5l-177 -184q39 7 102 7h207v-137h-489v85q0 39 22 62l169 182q124 129 123 197q-1 29 -22 37.5t-72 8.5q-106 0 -208 -9l-6 115q116 24 232 24z" />
    <glyph glyph-name="three" unicode="3" horiz-adv-x="566" 
d="M271 703q123 0 174 -35t51 -125q0 -78 -23 -121t-82 -53v-4q67 -11 94.5 -52.5t28.5 -120.5q2 -109 -52 -157t-184 -48q-102 0 -237 18l6 114q112 -7 190 -7q73 0 100 20.5t27 79.5q0 51 -22 73.5t-84 21.5h-129v104h129q60 0 77.5 22.5t16.5 69.5q0 49 -21 62.5
t-86 13.5q-86 0 -184 -4l-7 110q111 18 217 18z" />
    <glyph glyph-name="four" unicode="4" horiz-adv-x="636" 
d="M519 260h86v-94l-84 -14h-2v-152h-141v152h-273q-45 0 -67.5 35t-5.5 77l179 426h144l-164 -397q-7 -17 -1 -25t21 -8h167v186l25 110h116v-296z" />
    <glyph glyph-name="five" unicode="5" horiz-adv-x="551" 
d="M488 690l-5 -118h-283l-8 -125l99 -12q119 -13 168.5 -69t49.5 -155q0 -223 -241 -223q-100 0 -230 22l14 118q111 -12 178 -12q75 0 100.5 22t27.5 76q3 62 -29 80t-132 27l-84 10q-22 2 -35.5 18t-12.5 38l17 303h406z" />
    <glyph glyph-name="six" unicode="6" horiz-adv-x="588" 
d="M351 455q112 0 154.5 -49.5t42.5 -169.5q0 -64 -10 -107t-35.5 -76.5t-74 -49t-122.5 -15.5q-104 0 -157.5 30.5t-75.5 104t-22 215.5q0 94 12 159t33.5 105t59 62.5t79.5 30t104 7.5q98 0 163 -18l-8 -100q-52 2 -155 2q-78 0 -106.5 -34t-33.5 -147q55 50 152 50z
M307 105q63 0 80 27.5t17 100.5q0 65 -19.5 88t-77.5 23q-54 0 -109 -36q1 -130 19 -166.5t90 -36.5z" />
    <glyph glyph-name="seven" unicode="7" horiz-adv-x="526" 
d="M441 690q38 0 55.5 -23.5t5.5 -57.5l-209 -609h-150l175 500q12 37 29 65h-314l-6 125h414z" />
    <glyph glyph-name="eight" unicode="8" horiz-adv-x="619" 
d="M310 702q141 0 190.5 -41.5t49.5 -142.5q0 -65 -25.5 -108.5t-76.5 -49.5v-4q66 -6 92 -54t26 -130q0 -101 -53 -142.5t-203 -41.5q-149 0 -203 42t-54 142q0 173 119 184v4q-52 6 -77 49.5t-25 108.5q0 101 49.5 142.5t190.5 41.5zM311 593q-63 0 -83.5 -18.5
t-20.5 -74.5q0 -53 21 -71t84 -18q62 0 81 17.5t19 71.5q0 56 -19.5 74.5t-81.5 18.5zM312 305q-70 0 -93 -20.5t-23 -81.5q0 -58 23 -78t92 -20q67 0 89 20t22 78q0 62 -21.5 82t-88.5 20z" />
    <glyph glyph-name="nine" unicode="9" horiz-adv-x="588" 
d="M285 702q65 0 107.5 -10.5t71.5 -33t44 -65.5t21 -98.5t6 -142.5q0 -116 -14.5 -187t-51.5 -110.5t-87.5 -53t-133.5 -13.5q-104 0 -177 18l9 101q56 -2 167 -2q77 0 106.5 37.5t34.5 144.5q-56 -52 -153 -52q-193 0 -193 219q-1 132 53 190t190 58zM185 457
q-1 -61 19.5 -86.5t75.5 -25.5q52 0 109 38q-1 130 -18 166.5t-87 36.5q-62 0 -81 -29t-18 -100z" />
    <glyph glyph-name="colon" unicode=":" horiz-adv-x="259" 
d="M144 451q29 0 40.5 -11t11.5 -40v-48q0 -29 -11.5 -40.5t-40.5 -11.5h-40q-29 0 -40.5 11.5t-11.5 40.5v48q0 29 11.5 40t40.5 11h40zM144 151q29 0 40.5 -11t11.5 -40v-48q0 -29 -11.5 -40.5t-40.5 -11.5h-40q-29 0 -40.5 11.5t-11.5 40.5v48q0 29 11.5 40t40.5 11h40z
" />
    <glyph glyph-name="semicolon" unicode=";" horiz-adv-x="259" 
d="M151 451q29 0 40.5 -11t11.5 -40v-48q0 -29 -11.5 -40.5t-40.5 -11.5h-40q-29 0 -40.5 11.5t-11.5 40.5v48q0 29 11.5 40t40.5 11h40zM147 151q29 0 40 -11t11 -40v-64q0 -100 -51 -183l-61 19q14 59 14 128q-40 0 -42 46l1 54q1 29 12.5 40t40.5 11h35z" />
    <glyph glyph-name="less" unicode="&#x3c;" horiz-adv-x="518" 
d="M460 523v-115l-295 -107l295 -107v-115l-420 165v114z" />
    <glyph glyph-name="equal" unicode="=" horiz-adv-x="579" 
d="M519 456v-105h-459v105h459zM519 243v-105h-459v105h459z" />
    <glyph glyph-name="greater" unicode="&#x3e;" horiz-adv-x="517" 
d="M57 523l420 -165v-114l-420 -165v115l295 107l-295 107v115z" />
    <glyph glyph-name="question" unicode="?" horiz-adv-x="516" 
d="M272 712q108 0 161 -38t53 -117q0 -40 -17.5 -74.5t-42.5 -60.5t-51 -53t-46 -65.5t-23 -84.5h-120q-2 60 19 111t47.5 80t50.5 61t26 57q3 33 -19 48.5t-73 15.5q-88 0 -201 -5l-5 101q11 2 40.5 7.5t41.5 7t38.5 4.5t54.5 4t66 1zM263 151q29 0 40.5 -11t11.5 -40v-48
q0 -29 -11.5 -40.5t-40.5 -11.5h-35q-29 0 -40.5 11.5t-11.5 40.5v48q0 29 11.5 40t40.5 11h35z" />
    <glyph glyph-name="at" unicode="@" horiz-adv-x="756" 
d="M525 601q87 0 130.5 -38.5t43.5 -127.5v-300h-109l-13 69q-28 -32 -74.5 -56t-100.5 -24q-62 0 -101.5 33t-39.5 93v48q0 52 33 81t94 29h174v25q0 34 -14.5 46t-52.5 12h-122q-47 0 -69.5 -1t-47 -9t-33.5 -20t-18 -39t-10.5 -61.5t-1.5 -92.5q0 -60 1.5 -95t13 -63
t20.5 -39.5t41 -19t57 -8t85 -0.5h5h282v-99q-173 -13 -281 -13q-86 0 -139.5 3.5t-97 18t-65.5 35t-36.5 62t-18 90t-3.5 128.5q0 79 3 126.5t16 88.5t32 61t57 34.5t85 18.5t123 4h152zM562 334l-121 -4q-26 -1 -36.5 -10.5t-10.5 -30.5v-16q0 -46 48 -46q70 0 120 44v63z
" />
    <glyph glyph-name="A" unicode="A" horiz-adv-x="650" 
d="M494 0l-50 181h-237l-50 -181h-156l199 650q4 18 19 29t34 11h144q43 0 53 -40l199 -650h-155zM239 299h172l-58 211q-12 50 -14 65h-27l-15 -65z" />
    <glyph glyph-name="B" unicode="B" horiz-adv-x="637" 
d="M452 356q77 -7 110 -52.5t33 -131.5q0 -104 -53 -142t-181 -38q-192 0 -291 8v690q89 8 259 8q138 0 191 -37.5t53 -142.5q0 -75 -28.5 -113.5t-92.5 -44.5v-4zM427 497q0 52 -22 69t-83 17h-103v-175h111q56 0 76.5 18t20.5 71zM335 107q63 0 85 18.5t22 75.5
q0 62 -23 83.5t-88 22.5h-112v-200h116z" />
    <glyph glyph-name="C" unicode="C" horiz-adv-x="586" 
d="M337 702q116 0 207 -23l-13 -114q-81 5 -194 5q-75 0 -102.5 -47.5t-27.5 -177.5t27.5 -177.5t102.5 -47.5q139 0 208 9l13 -113q-90 -28 -221 -28q-160 0 -225 80t-65 277t65 277t225 80z" />
    <glyph glyph-name="D" unicode="D" horiz-adv-x="680" 
d="M338 699q165 0 229.5 -76t64.5 -278t-64.5 -278t-229.5 -76q-126 0 -268 9v690q142 9 268 9zM338 111q77 0 105.5 49t28.5 185t-28.5 185.5t-105.5 49.5q-23 0 -61.5 -0.5t-54.5 -0.5v-467q17 0 55.5 -0.5t60.5 -0.5z" />
    <glyph glyph-name="E" unicode="E" horiz-adv-x="576" 
d="M264 119h265l7 -112q-94 -10 -320 -10q-69 0 -110 37.5t-42 101.5v418q1 64 42 101.5t110 37.5q226 0 320 -10l-7 -113h-265q-25 0 -36 -12t-11 -39v-105h275v-110h-275v-133q0 -28 11 -40t36 -12z" />
    <glyph glyph-name="F" unicode="F" horiz-adv-x="554" 
d="M275 570q-29 0 -41.5 -12t-12.5 -39v-118h264v-111h-264v-290h-153v550q0 66 41.5 104.5t110.5 38.5q220 0 310 -11l-8 -112h-247z" />
    <glyph glyph-name="G" unicode="G" horiz-adv-x="645" 
d="M445 398h147v-398h-112l-14 70q-79 -83 -199 -83q-116 0 -168 85t-52 275q0 202 68.5 279t240.5 77q125 0 212 -24l-12 -112q-113 5 -195 5q-46 0 -72.5 -7.5t-46.5 -32.5t-27 -69.5t-7 -120.5q0 -129 24 -177t89 -48q61 0 124 35v246z" />
    <glyph glyph-name="H" unicode="H" horiz-adv-x="688" 
d="M466 690h152v-690h-152v308h-244v-308h-152v690h152v-264h244v264z" />
    <glyph glyph-name="I" unicode="I" horiz-adv-x="292" 
d="M222 690v-690h-152v690h152z" />
    <glyph glyph-name="J" unicode="J" horiz-adv-x="369" 
d="M302 690v-545q0 -75 -41 -116t-115 -41q-83 0 -126 20l17 102h47q66 0 66 53v527h152z" />
    <glyph glyph-name="K" unicode="K" horiz-adv-x="631" 
d="M456 0l-182 304h-59q7 -40 7 -66v-238h-152v690h152v-195q0 -44 -7 -82h58l176 277h165l-178 -275q-17 -30 -50 -55v-4q36 -25 58 -61l182 -295h-170z" />
    <glyph glyph-name="L" unicode="L" horiz-adv-x="532" 
d="M220 690v-515q0 -27 12.5 -39t41.5 -12h237l7 -116q-101 -11 -292 -11q-80 0 -119 40t-39 107v546h152z" />
    <glyph glyph-name="M" unicode="M" horiz-adv-x="911" 
d="M771 690q55 0 57 -57l27 -633h-144l-23 571h-17l-104 -427q-10 -49 -62 -49h-100q-52 0 -62 49l-105 427h-17l-20 -571h-144l25 633q3 57 57 57h147q49 0 60 -49l84 -344q8 -33 18 -97h13q1 5 7.5 41t10.5 56l83 344q12 49 62 49h147z" />
    <glyph glyph-name="N" unicode="N" horiz-adv-x="722" 
d="M652 690v-635q0 -55 -54 -55h-95q-23 0 -36 10.5t-25 34.5l-181 368q-34 73 -42 107h-11q7 -50 7 -110v-410h-145v635q0 55 55 55h93q23 0 36 -10.5t25 -34.5l175 -357q25 -50 50 -111h10q-6 78 -6 116v397h144z" />
    <glyph glyph-name="O" unicode="O" horiz-adv-x="684" 
d="M342 703q166 0 231 -76.5t65 -281.5t-65 -281.5t-231 -76.5t-230.5 76.5t-64.5 281.5t64.5 281.5t230.5 76.5zM342 580q-78 0 -106.5 -49t-28.5 -186t28.5 -186t106.5 -49t106.5 49t28.5 186t-28.5 186t-106.5 49z" />
    <glyph glyph-name="P" unicode="P" horiz-adv-x="614" 
d="M332 699q145 0 198.5 -47t53.5 -178t-50.5 -178.5t-181.5 -47.5q-66 0 -130 8v-256h-152v690q93 9 262 9zM329 365q59 1 80.5 23t21.5 86t-21.5 86t-80.5 22h-107v-217h107z" />
    <glyph glyph-name="Q" unicode="Q" horiz-adv-x="686" 
d="M343 703q166 0 230.5 -76.5t64.5 -281.5t-64.5 -281.5t-230.5 -76.5t-231 76.5t-65 281.5t65 281.5t231 76.5zM343 580q-78 0 -106.5 -49t-28.5 -186t28.5 -186t106.5 -49t106.5 49t28.5 186t-28.5 186t-106.5 49zM293 -35q120 -42 300 -68l-43 -136q-150 37 -293 123z
" />
    <glyph glyph-name="R" unicode="R" horiz-adv-x="643" 
d="M554 215l60 -215h-161l-52 211q-10 33 -26.5 45.5t-47.5 12.5h-107v-269h-150v690q93 9 263 9q139 0 197 -44t58 -160q0 -76 -30.5 -119t-101.5 -52v-5q79 -18 98 -104zM330 387q60 0 82 20.5t22 77.5t-21.5 77t-82.5 20q-77 0 -110 -1v-194h110z" />
    <glyph glyph-name="S" unicode="S" horiz-adv-x="582" 
d="M294 703q133 0 227 -27l-10 -104q-87 3 -216 3q-60 0 -80 -10.5t-20 -52.5q0 -34 15 -49t57 -29l131 -45q80 -28 113 -76.5t33 -126.5q0 -116 -56 -157.5t-200 -41.5q-117 0 -237 26l9 110q213 -5 228 -5q61 0 81.5 13t20.5 54q0 35 -14 49.5t-51 26.5l-139 49
q-77 28 -110 76t-33 126q0 114 55.5 152.5t195.5 38.5z" />
    <glyph glyph-name="T" unicode="T" horiz-adv-x="601" 
d="M583 690v-124h-206v-566h-153v566h-206v124h565z" />
    <glyph glyph-name="U" unicode="U" horiz-adv-x="681" 
d="M617 690v-415q0 -158 -60.5 -223t-208.5 -65q-156 0 -219.5 65t-63.5 223v415h152v-415q0 -95 26.5 -130t97.5 -35q70 0 96.5 35t26.5 130v415h153z" />
    <glyph glyph-name="V" unicode="V" horiz-adv-x="636" 
d="M629 690l-187 -648q-5 -19 -19.5 -30.5t-34.5 -11.5h-139q-20 0 -34.5 11.5t-19.5 30.5l-188 648h157l125 -498q10 -40 17 -77h25q3 19 17 77l124 498h157z" />
    <glyph glyph-name="W" unicode="W" horiz-adv-x="973" 
d="M947 690l-109 -648q-4 -19 -19 -30.5t-36 -11.5h-146q-21 0 -36 12t-18 31l-75 451q-8 44 -12 87h-19q0 -3 -4.5 -37t-7.5 -51l-74 -450q-3 -19 -18.5 -31t-36.5 -12h-146q-20 0 -35.5 11.5t-19.5 30.5l-109 648h156l67 -479q6 -45 9 -100h20q3 28 15 100l74 432
q3 21 17.5 34t36.5 13h132q21 0 35.5 -13t17.5 -34l74 -433q12 -74 14 -99h21q4 57 9 98l68 481h155z" />
    <glyph glyph-name="X" unicode="X" horiz-adv-x="641" 
d="M473 0l-147 307h-12l-147 -307h-157l180 354l-166 336h156l133 -285h15l133 285h156l-166 -336l180 -354h-158z" />
    <glyph glyph-name="Y" unicode="Y" horiz-adv-x="608" 
d="M607 690l-226 -461v-229h-153v229l-228 461h159l115 -253q10 -22 26 -87h10q12 54 25 87l115 253h157z" />
    <glyph glyph-name="Z" unicode="Z" horiz-adv-x="583" 
d="M209 117h335v-117h-504v117l328 456h-320v117h488v-117z" />
    <glyph glyph-name="bracketleft" unicode="[" horiz-adv-x="346" 
d="M313 768v-92h-80q-19 0 -19 -19v-711q0 -19 19 -19h80v-92h-160q-77 0 -77 77v779q0 34 21.5 55.5t55.5 21.5h160z" />
    <glyph glyph-name="backslash" unicode="\" horiz-adv-x="551" 
d="M138 690l393 -762h-118l-393 762h118z" />
    <glyph glyph-name="bracketright" unicode="]" horiz-adv-x="346" 
d="M192 768q34 0 56 -21.5t22 -55.5v-779q0 -34 -22 -55.5t-56 -21.5h-159v92h80q19 0 19 19v711q0 19 -19 19h-80v92h159z" />
    <glyph glyph-name="asciicircum" unicode="^" horiz-adv-x="462" 
d="M285 627l147 -225l-58 -32l-138 165h-8l-141 -165l-57 32l148 225h107z" />
    <glyph glyph-name="underscore" unicode="_" horiz-adv-x="444" 
d="M444 0v-97h-444v97h444z" />
    <glyph glyph-name="grave" unicode="`" horiz-adv-x="353" 
d="M102 744l201 -148l-43 -64l-225 109z" />
    <glyph glyph-name="a" unicode="a" horiz-adv-x="567" 
d="M317 507q100 0 147 -40.5t47 -140.5v-326h-117l-15 75q-74 -87 -182 -87q-71 0 -116 37.5t-45 104.5v50q0 59 40 92t111 33h176v22q-1 38 -17.5 51t-63.5 13q-82 0 -208 -8l-14 100q133 24 257 24zM182 150q0 -51 58 -51q60 0 123 48v69h-133q-48 -1 -48 -47v-19z" />
    <glyph glyph-name="b" unicode="b" horiz-adv-x="592" 
d="M370 507q96 0 138.5 -59.5t42.5 -196.5q0 -127 -52 -195t-189 -68q-60 0 -134.5 10t-116.5 28v674h148l1 -157q0 -70 -14 -117q78 81 176 81zM307 98q51 2 71.5 34t20.5 118q0 82 -17 110.5t-71 28.5q-40 0 -105 -42l1 -239q49 -12 100 -10z" />
    <glyph glyph-name="c" unicode="c" horiz-adv-x="507" 
d="M289 507q112 0 182 -31l-16 -92q-108 2 -141 2q-68 0 -93.5 -29t-25.5 -110t25.5 -110t93.5 -29q87 0 151 9l13 -96q-76 -33 -191 -33q-136 0 -191.5 58.5t-55.5 200.5q0 143 56 201.5t193 58.5z" />
    <glyph glyph-name="d" unicode="d" horiz-adv-x="594" 
d="M385 700h148v-700h-117l-11 73q-74 -85 -189 -85q-92 0 -133.5 66.5t-41.5 196.5q0 142 46 199t143 57q96 0 160 -44q-5 55 -5 103v134zM193 252q0 -85 18 -113.5t64 -28.5q31 0 53 8.5t57 31.5v228q-68 19 -105 19q-50 0 -68.5 -28t-18.5 -117z" />
    <glyph glyph-name="e" unicode="e" horiz-adv-x="560" 
d="M314 106q79 0 184 11l14 -92q-77 -37 -215 -37q-139 0 -198 60t-59 198q0 145 57.5 203t193.5 58q123 0 178 -42.5t56 -129.5q0 -69 -35.5 -103.5t-114.5 -34.5h-178q7 -54 32.5 -72.5t84.5 -18.5zM296 399q-57 1 -78 -21.5t-24 -91.5h140q27 0 36.5 13t9.5 38
q0 35 -18 48.5t-66 13.5z" />
    <glyph glyph-name="f" unicode="f" horiz-adv-x="404" 
d="M320 612q-37 0 -51.5 -14t-14.5 -50v-55h136v-99h-136v-394h-149v394h-86v94l86 5v75q0 152 162 152q105 0 160 -10l-14 -98h-93z" />
    <glyph glyph-name="g" unicode="g" horiz-adv-x="579" 
d="M566 493l-7 -65l-61 -8q11 -28 11 -71q0 -86 -51.5 -122t-180.5 -36q-44 0 -86 5q-11 -15 -3.5 -35.5t33.5 -23.5l179 -21q76 -9 109.5 -44t33.5 -103q0 -94 -56.5 -127t-202.5 -33q-152 0 -206 31.5t-54 115.5q0 38 18 62.5t60 44.5q-34 33 -27.5 81.5t43.5 70.5
q-73 34 -73 133q0 87 52 123t181 36q83 0 131 -14h157zM277 285q54 0 74.5 14t20.5 50q0 37 -20 50t-75 13t-75.5 -13t-20.5 -50q0 -36 20.5 -50t75.5 -14zM402 -27q0 26 -15 33t-66 13l-124 14q-32 -28 -32 -58q0 -36 22 -46t95 -10t96.5 10.5t23.5 43.5z" />
    <glyph glyph-name="h" unicode="h" horiz-adv-x="599" 
d="M403 507q67 0 102.5 -35t35.5 -102v-370h-147v324q0 33 -10.5 45.5t-37.5 12.5q-51 0 -137 -45v-337h-148v700h148l1 -171q0 -51 -9 -103q103 81 202 81z" />
    <glyph glyph-name="i" unicode="i" horiz-adv-x="276" 
d="M171 711q43 0 43 -43v-54q0 -43 -43 -43h-66q-43 0 -43 43v54q0 43 43 43h66zM212 493v-493h-147v493h147z" />
    <glyph glyph-name="j" unicode="j" horiz-adv-x="278" 
d="M171 715q43 0 43 -43v-54q0 -43 -43 -43h-65q-43 0 -43 43v54q0 43 43 43h65zM213 493v-470q0 -69 -34 -128.5t-93 -91.5l-81 65q61 69 61 155v470h147z" />
    <glyph glyph-name="k" unicode="k" horiz-adv-x="557" 
d="M387 0l-139 229h-46q7 -46 7 -74v-155h-148v700h148v-289q0 -49 -7 -90h46l122 172h166l-128 -171q-16 -27 -46 -47v-2q25 -17 46 -53l145 -220h-166z" />
    <glyph glyph-name="l" unicode="l" horiz-adv-x="327" 
d="M209 700v-539q0 -50 56 -50h40l17 -103q-38 -20 -118 -20q-66 0 -104 35.5t-38 100.5v576h147z" />
    <glyph glyph-name="m" unicode="m" horiz-adv-x="878" 
d="M684 507q67 0 102 -35t35 -102v-370h-147v324q0 32 -11 45t-41 13q-24 0 -46 -9t-64 -35v-338h-142v324q0 32 -12.5 45t-40.5 13q-39 0 -109 -43v-339h-147v493h118l10 -72q95 86 188 86q100 0 127 -80q86 80 180 80z" />
    <glyph glyph-name="n" unicode="n" horiz-adv-x="599" 
d="M403 507q67 0 102.5 -35t35.5 -102v-370h-147v324q0 33 -10.5 45.5t-37.5 12.5q-50 0 -138 -45l1 -337h-148v493h120l11 -73q106 87 211 87z" />
    <glyph glyph-name="o" unicode="o" 
d="M294 507q138 0 195.5 -59.5t57.5 -201.5t-57.5 -200.5t-195.5 -58.5q-139 0 -196.5 58.5t-57.5 200.5q0 143 57.5 202t196.5 59zM294 396q-59 0 -79 -30t-20 -120q0 -88 20 -118t79 -30q57 0 77.5 30t20.5 118q0 89 -20 119.5t-78 30.5z" />
    <glyph glyph-name="p" unicode="p" horiz-adv-x="600" 
d="M388 506q170 0 170 -264q0 -142 -45.5 -198.5t-142.5 -56.5q-100 0 -165 48q5 -51 3 -106v-119h-147v683h120l11 -72q30 37 85 61t111 24zM320 97q49 0 67.5 28t18.5 117q0 87 -17 117.5t-60 30.5q-51 0 -121 -47v-226q78 -20 112 -20z" />
    <glyph glyph-name="q" unicode="q" horiz-adv-x="591" 
d="M284 507q59 0 132.5 -10t115.5 -29v-658h-147l-1 144q0 65 12 112q-85 -79 -179 -79q-92 0 -134.5 63t-42.5 194q0 132 52 197.5t192 65.5zM192 240q0 -73 16.5 -101.5t65.5 -28.5t111 37v240q-49 12 -101 10q-53 -2 -72.5 -34t-19.5 -123z" />
    <glyph glyph-name="r" unicode="r" horiz-adv-x="425" 
d="M389 507h26l-15 -137h-40q-52 0 -151 -34v-336h-148v493h115l13 -73q103 87 200 87z" />
    <glyph glyph-name="s" unicode="s" horiz-adv-x="527" 
d="M247 507q133 -2 228 -19l-10 -95q-126 2 -190 2q-35 0 -48.5 -0.5t-27 -3.5t-16.5 -9.5t-3 -19.5q0 -5 0.5 -9t2.5 -7.5t3.5 -5.5t5.5 -4.5t6.5 -3.5t9 -3.5t10 -3.5t13 -3.5t14.5 -3.5l126 -34q66 -19 94 -50.5t28 -93.5q0 -88 -51 -119.5t-175 -31.5q-120 0 -221 17
l9 96q36 -2 171 -2q77 0 100.5 6.5t23.5 30.5q0 5 -0.5 9t-2.5 7.5t-4 5.5t-6.5 4.5t-7 4t-9.5 4t-11 3.5t-13.5 3.5t-15.5 4.5l-123 33q-68 20 -94 54.5t-26 95.5q0 77 47.5 109t162.5 32z" />
    <glyph glyph-name="t" unicode="t" horiz-adv-x="411" 
d="M390 394h-137v-233q0 -28 12 -39t42 -11h63l16 -103q-57 -20 -139 -20q-67 0 -104 37.5t-37 104.5v264h-87v94l87 5v138h147v-138h137v-99z" />
    <glyph glyph-name="u" unicode="u" horiz-adv-x="590" 
d="M382 493h147v-493h-117l-11 68q-100 -81 -204 -81q-139 0 -139 137v369h148v-324q-1 -32 11 -45t42 -13q47 0 123 41v341z" />
    <glyph glyph-name="v" unicode="v" horiz-adv-x="563" 
d="M555 493l-162 -458q-12 -35 -48 -35h-128q-36 0 -48 35l-162 458h157l89 -309q11 -40 21 -88h13q4 14 11.5 43.5t11.5 44.5l89 309h156z" />
    <glyph glyph-name="w" unicode="w" horiz-adv-x="847" 
d="M831 493l-121 -454q-10 -39 -51 -39h-116q-20 0 -35 12.5t-18 32.5l-50 279q-1 9 -4.5 38t-6.5 45h-12l-12 -83l-49 -279q-3 -20 -18 -32.5t-36 -12.5h-114q-41 0 -51 39l-121 454h149l67 -320q10 -54 12 -81h13q2 14 6.5 41t6.5 40l50 276q7 44 51 44h104q20 0 34.5 -12
t17.5 -33l49 -275q2 -14 7 -41t7 -40h12l12 81l68 320h149z" />
    <glyph glyph-name="x" unicode="x" horiz-adv-x="564" 
d="M402 0l-117 207h-6l-117 -207h-152l152 253l-141 240h151l105 -190h10l105 190h151l-141 -240l152 -253h-152z" />
    <glyph glyph-name="y" unicode="y" horiz-adv-x="562" 
d="M396 493h158l-175 -500q-14 -40 -34.5 -74t-52.5 -65.5t-79.5 -46.5t-105.5 -8l-12 87q60 16 94 41.5t53 68.5l2 4h-28q-37 0 -48 36l-161 457h158l92 -319q9 -35 15 -74h13q9 29 20 74z" />
    <glyph glyph-name="z" unicode="z" horiz-adv-x="525" 
d="M209 106h276v-106h-445v106l272 282h-267v105h435v-105z" />
    <glyph glyph-name="braceleft" unicode="{" horiz-adv-x="339" 
d="M303 768v-91q-45 0 -60.5 -12.5t-15.5 -49.5v-151q1 -65 -20.5 -95.5t-82.5 -40.5q61 -17 83.5 -47t23.5 -85v-210q0 -37 15.5 -48.5t60.5 -11.5v-91q-111 -14 -164 24t-53 115v239q0 18 -2 28t-12 18t-15 10t-27 11v96l27 9t14.5 10t9.5 19t1 33v182q0 77 53 115t164 24
z" />
    <glyph glyph-name="bar" unicode="|" horiz-adv-x="261" 
d="M182 781v-950h-104v950h104z" />
    <glyph glyph-name="braceright" unicode="}" horiz-adv-x="340" 
d="M37 768q111 14 164 -24t53 -115v-182q0 -22 1 -33t9.5 -19t14.5 -10l27 -9v-96q-39 -16 -46 -25q-10 -13 -10 -42v-239q0 -77 -53 -115t-164 -24v91q45 0 60.5 11.5t15.5 48.5v210q1 55 23.5 85t83.5 47q-60 10 -82 40.5t-21 95.5v151q0 37 -15.5 49.5t-60.5 12.5v91z
" />
    <glyph glyph-name="asciitilde" unicode="~" horiz-adv-x="513" 
d="M143 363q32 -2 111 -25.5t95 -25.5q23 -4 29.5 6t6.5 40h67q11 -71 -12.5 -109t-68.5 -36q-35 1 -113 24.5t-94 25.5q-23 4 -29 -6t-6 -40h-67q-11 72 13 109.5t68 36.5z" />
    <glyph glyph-name="uni00A0" unicode="&#xa0;" horiz-adv-x="217" 
 />
    <glyph glyph-name="exclamdown" unicode="&#xa1;" horiz-adv-x="283" 
d="M159 507q29 0 40.5 -11.5t11.5 -40.5v-49q0 -29 -11.5 -40t-40.5 -11h-34q-29 0 -40.5 11t-11.5 40v49q0 29 11.5 40.5t40.5 11.5h34zM200 288l15 -206v-267h-147v267l16 206h116z" />
    <glyph glyph-name="cent" unicode="&#xa2;" horiz-adv-x="521" 
d="M479 122q-64 -27 -158 -32l-10 -90h-111l10 94q-92 14 -131.5 73.5t-39.5 180.5q0 137 52 196.5t176 63.5l9 82h111l-9 -88q55 -8 94 -25l-16 -90q-72 4 -142 4q-74 0 -101.5 -29.5t-27.5 -113.5t27.5 -113.5t101.5 -29.5q87 0 152 8z" />
    <glyph glyph-name="sterling" unicode="&#xa3;" horiz-adv-x="585" 
d="M282 123h262v-123h-494v123q86 39 77 160l-3 40h-77l-1 81h73l-8 111q-6 110 42.5 148.5t162.5 38.5q90 0 206 -10l-8 -114q-43 1 -179 1q-45 0 -61.5 -15t-13.5 -55l8 -105h188l-4 -81h-177l3 -40q4 -64 -13.5 -99t-58.5 -68q25 7 76 7z" />
    <glyph glyph-name="currency" unicode="&#xa4;" horiz-adv-x="585" 
d="M494 351q0 -58 -32 -109l72 -70l-62 -61l-71 70q-51 -32 -109 -32q-59 0 -109 32l-69 -69l-66 65l70 70q-29 48 -29 104q0 61 33 110l-70 70l62 61l69 -70q50 32 109 32q61 0 110 -33l71 71l61 -61l-71 -71q31 -50 31 -109zM292 234q47 0 81.5 34.5t34.5 83.5t-34.5 84
t-81.5 35q-48 0 -83 -35t-35 -84t35 -83.5t83 -34.5z" />
    <glyph glyph-name="yen" unicode="&#xa5;" horiz-adv-x="658" 
d="M632 690l-167 -329h102v-94h-472l-1 94h99l-168 329h157l116 -237q5 -9 27 -88h10q22 77 27 88l113 237h157zM95 143l-1 93h473v-93h-161l-1 -143h-152l1 143h-159z" />
    <glyph glyph-name="brokenbar" unicode="&#xa6;" horiz-adv-x="263" 
d="M183 781v-400h-104v400h104zM183 231v-400h-104v400h104z" />
    <glyph glyph-name="section" unicode="&#xa7;" horiz-adv-x="553" 
d="M271 703q121 0 225 -12l-10 -106q-54 3 -172 3q-59 1 -82.5 -5.5t-25.5 -31.5q-2 -23 11.5 -37.5t42.5 -29.5l137 -72q79 -40 98 -101t-10 -146h-103q3 60 -11.5 88t-63.5 55l-158 88q-24 14 -37 23.5t-30.5 28.5t-25.5 45.5t-8 62.5q0 85 53 116t170 31zM171 359
q-3 -59 12 -87t64 -55l157 -87q23 -13 37 -23.5t31 -29.5t25 -46t8 -63q0 -87 -53.5 -117t-168.5 -30q-129 0 -225 12l10 106q76 -4 172 -4q59 0 82.5 7t24.5 32q3 23 -11 37.5t-42 29.5l-136 72q-80 40 -99.5 100.5t9.5 145.5h103z" />
    <glyph glyph-name="dieresis" unicode="&#xa8;" horiz-adv-x="424" 
d="M146 708q32 0 32 -33v-58q0 -33 -32 -33h-49q-32 0 -32 33v58q0 33 32 33h49zM327 708q33 0 33 -33v-58q0 -33 -33 -33h-48q-33 0 -33 33v58q0 33 33 33h48z" />
    <glyph glyph-name="copyright" unicode="&#xa9;" horiz-adv-x="810" 
d="M405 703q154 0 258 -101.5t104 -256.5t-104 -256.5t-258 -101.5q-153 0 -257.5 101.5t-104.5 256.5t104.5 256.5t257.5 101.5zM405 632q-119 0 -203 -82t-84 -205t84 -205t203 -82q120 0 203.5 82t83.5 205t-83.5 205t-203.5 82zM410 554q79 0 136 -14l-9 -80
q-86 2 -128 2q-48 0 -64.5 -23.5t-16.5 -91.5q0 -69 16 -92t65 -23q97 0 138 4l9 -80q-63 -18 -146 -18q-107 0 -151 47t-44 162q0 114 44 160.5t151 46.5z" />
    <glyph glyph-name="ordfeminine" unicode="&#xaa;" horiz-adv-x="437" 
d="M248 615q67 0 100 -28t33 -96v-216h-86l-11 54q-52 -63 -129 -63q-47 0 -77.5 24t-30.5 68v36q0 39 27.5 61.5t75.5 22.5h123v14q0 20 -11 29.5t-38 9.5q-59 0 -149 -5l-11 73q98 16 184 16zM192 348q37 0 81 30v46l-85 -7q-36 -3 -36 -29v-10q0 -30 40 -30z" />
    <glyph glyph-name="guillemotleft" unicode="&#xab;" horiz-adv-x="518" 
d="M192 465l78 -50l-105 -164l106 -169l-78 -49l-159 202v32zM400 465l78 -50l-105 -164l106 -169l-78 -49l-159 202v32z" />
    <glyph glyph-name="logicalnot" unicode="&#xac;" horiz-adv-x="582" 
d="M58 355h460v-220h-110v115h-350v105z" />
    <glyph glyph-name="uni00AD" unicode="&#xad;" horiz-adv-x="414" 
d="M356 303v-97h-298v97h298z" />
    <glyph glyph-name="registered" unicode="&#xae;" horiz-adv-x="523" 
d="M262 703q92 0 157 -65t65 -157q0 -93 -65 -158t-157 -65q-93 0 -158 65t-65 158q0 92 65 157t158 65zM262 301q73 0 125.5 52.5t52.5 127.5q0 74 -52.5 126.5t-125.5 52.5q-74 0 -126 -52.5t-52 -126.5q0 -75 52 -127.5t126 -52.5zM318 476q32 -4 40 -37l24 -72h-67
l-19 70q-8 19 -30 19h-41v-89h-62v233q33 3 106 3q56 0 79.5 -15t23.5 -54q0 -51 -54 -56v-2zM267 497q25 1 33.5 7.5t8.5 23.5q0 18 -8.5 24t-33.5 6h-42v-61h42z" />
    <glyph glyph-name="macron" unicode="&#xaf;" horiz-adv-x="400" 
d="M350 693v-95h-300v95h300z" />
    <glyph glyph-name="degree" unicode="&#xb0;" horiz-adv-x="344" 
d="M172 703q55 0 95.5 -38.5t40.5 -93.5t-40 -94.5t-96 -39.5t-96 39.5t-40 94.5t40 93.5t96 38.5zM172 629q-25 0 -41.5 -16t-16.5 -42t17 -43t41 -17t41 17t17 43t-16.5 42t-41.5 16z" />
    <glyph glyph-name="plusminus" unicode="&#xb1;" horiz-adv-x="574" 
d="M342 427h173v-109h-174v-119h-109v119h-173v109h173v120h110v-120zM59 45v108h456v-108h-456z" />
    <glyph glyph-name="uni00B2" unicode="&#xb2;" horiz-adv-x="432" 
d="M203 781q90 0 128.5 -21.5t38.5 -84.5q0 -55 -72 -124l-108 -98q29 5 62 5l132 -2l-1 -96h-334v59q0 30 17 47l101 93q72 65 80 101q2 17 -11 22t-43 5q-47 0 -136 -3l-4 84q77 13 150 13z" />
    <glyph glyph-name="uni00B3" unicode="&#xb3;" horiz-adv-x="413" 
d="M203 782q88 0 122 -21t34 -75q0 -48 -16.5 -73.5t-61.5 -31.5v-2q49 -7 68.5 -31t20.5 -73q2 -66 -35.5 -94.5t-127.5 -28.5q-67 0 -161 11l4 82q55 -3 126 -3q46 0 62 10t16 39q0 23 -12.5 33.5t-50.5 10.5l-86 2v74l86 1q36 1 47 12t11 32q0 22 -13 29t-52 7
q-92 0 -125 -1l-4 80q79 11 148 11z" />
    <glyph glyph-name="acute" unicode="&#xb4;" horiz-adv-x="353" 
d="M244 742l68 -102l-225 -109l-44 63z" />
    <glyph glyph-name="uni00B5" unicode="&#xb5;" horiz-adv-x="601" 
d="M582 88l7 -79q-59 -21 -110 -21q-43 0 -69.5 21.5t-26.5 67.5v9q-23 -42 -62.5 -70.5t-93.5 -28.5q-14 0 -21 1v-53l-17 -125h-128v683h147v-311q0 -40 12.5 -53t41.5 -13q48 0 82.5 50.5t35.5 129.5v197h147v-360q0 -25 5 -35t20 -10h30z" />
    <glyph glyph-name="paragraph" unicode="&#xb6;" horiz-adv-x="603" 
d="M348 702q103 0 171 -17v-685h-98v611q-44 2 -63 2v-823h-98v411q-124 11 -177.5 69t-53.5 180q0 138 73 195t246 57z" />
    <glyph glyph-name="periodcentered" unicode="&#xb7;" horiz-adv-x="254" 
d="M147 333q29 0 40.5 -11t11.5 -40v-48q0 -29 -11.5 -40.5t-40.5 -11.5h-40q-29 0 -40.5 11.5t-11.5 40.5v48q0 29 11.5 40t40.5 11h40z" />
    <glyph glyph-name="cedilla" unicode="&#xb8;" horiz-adv-x="248" 
d="M80 -38q83 9 114.5 -3t29.5 -62q-3 -73 -59 -109.5t-141 -25.5l19 65q82 -2 86 58q1 13 -10.5 16t-52.5 3z" />
    <glyph glyph-name="uni00B9" unicode="&#xb9;" horiz-adv-x="306" 
d="M245 774v-414h-113v271q0 33 4 50l-103 -21l-13 73l112 41h113z" />
    <glyph glyph-name="ordmasculine" unicode="&#xba;" horiz-adv-x="439" 
d="M220 615q97 0 136.5 -39.5t39.5 -135.5q0 -95 -39.5 -134t-136.5 -39t-137 39t-40 134q0 96 40 135.5t137 39.5zM220 535q-38 0 -51 -19t-14 -76q1 -56 14 -75t51 -19q37 0 50.5 19t13.5 75q0 57 -13.5 76t-50.5 19z" />
    <glyph glyph-name="guillemotright" unicode="&#xbb;" horiz-adv-x="518" 
d="M119 465l158 -198v-32l-159 -202l-78 49l106 169l-105 164zM326 465l158 -198v-32l-159 -202l-78 49l106 169l-105 164z" />
    <glyph glyph-name="onequarter" unicode="&#xbc;" horiz-adv-x="900" 
d="M136 276v271q0 29 5 50l-101 -21l-13 73l109 41h113v-414h-113zM569 690h94l-416 -690h-95zM867 164v-69l-47 -9v-86h-105v85h-179q-29 0 -44 19.5t-1 49.5l113 260h104l-101 -234q-6 -16 14 -16h94v105l18 64h87v-169h47z" />
    <glyph glyph-name="onehalf" unicode="&#xbd;" horiz-adv-x="913" 
d="M249 690v-414h-113v271q0 29 5 50l-101 -21l-13 73l109 41h113zM658 690l-416 -690h-95l416 690h95zM693 421q90 0 128.5 -21.5t38.5 -84.5q0 -55 -73 -124l-106 -98q29 5 62 5l130 -2l-1 -96h-332v59q0 30 17 47l100 93q73 67 79 101q3 17 -10 22t-43 5q-47 0 -135 -3
l-4 84q77 13 149 13z" />
    <glyph glyph-name="threequarters" unicode="&#xbe;" horiz-adv-x="984" 
d="M365 389q1 -67 -36 -95.5t-126 -28.5q-73 0 -160 12l4 82q56 -3 125 -3q46 0 61.5 9.5t15.5 38.5q0 24 -12.5 35t-49.5 11l-85 1v72l85 2q35 0 45.5 11t10.5 33t-12.5 29.5t-50.5 7.5q-91 0 -124 -1l-4 80q73 10 148 10q86 0 119.5 -20.5t33.5 -74.5q0 -49 -16 -74
t-61 -31v-2q50 -7 69 -31t20 -73zM659 690h95l-416 -690h-95zM952 164v-69l-47 -9v-86h-105v85h-178q-29 0 -44 19.5t-1 49.5l112 260h104l-101 -234q-6 -16 14 -16h94v105l18 64h87v-169h47z" />
    <glyph glyph-name="questiondown" unicode="&#xbf;" horiz-adv-x="511" 
d="M287 509q29 0 40.5 -11.5t11.5 -40.5v-48q0 -29 -11.5 -40.5t-40.5 -11.5h-34q-29 0 -40.5 11.5t-11.5 40.5v48q0 29 11.5 40.5t40.5 11.5h34zM328 290q2 -60 -18.5 -111t-47.5 -80t-51 -61t-26 -57q-3 -33 19 -48.5t73 -15.5q88 0 201 5l5 -101q-8 -1 -29.5 -5.5
t-29.5 -5.5t-26.5 -4t-31 -4t-32.5 -2.5t-42.5 -2t-49.5 -0.5q-108 0 -160.5 38t-52.5 117q0 40 17.5 74.5t42.5 60.5t51 53t46 65.5t24 84.5h118z" />
    <glyph glyph-name="Agrave" unicode="&#xc0;" horiz-adv-x="650" 
d="M404 788l-43 -64l-225 109l67 103zM494 0l-50 181h-237l-50 -181h-156l199 650q4 18 19 29t34 11h144q43 0 53 -40l199 -650h-155zM239 299h172l-58 211q-12 50 -14 65h-27l-15 -65z" />
    <glyph glyph-name="Aacute" unicode="&#xc1;" horiz-adv-x="650" 
d="M506 832l-225 -109l-44 63l201 148zM494 0l-50 181h-237l-50 -181h-156l199 650q4 18 19 29t34 11h144q43 0 53 -40l199 -650h-155zM239 299h172l-58 211q-12 50 -14 65h-27l-15 -65z" />
    <glyph glyph-name="Acircumflex" unicode="&#xc2;" horiz-adv-x="650" 
d="M322 812l-142 -95l-41 59l134 131h107l132 -135l-41 -55l-141 95h-8zM494 0l-50 181h-237l-50 -181h-156l199 650q4 18 19 29t34 11h144q43 0 53 -40l199 -650h-155zM239 299h172l-58 211q-12 50 -14 65h-27l-15 -65z" />
    <glyph glyph-name="Atilde" unicode="&#xc3;" horiz-adv-x="650" 
d="M215 751h-63q-11 71 14 108t67 34q36 -3 86 -23.5t73 -24.5q24 -4 31.5 6t7.5 37h63q11 -68 -13 -106t-68 -35q-38 3 -90 25t-70 25q-24 3 -31 -7t-7 -39zM494 0l-50 181h-237l-50 -181h-156l199 650q4 18 19 29t34 11h144q43 0 53 -40l199 -650h-155zM239 299h172
l-58 211q-12 50 -14 65h-27l-15 -65z" />
    <glyph glyph-name="Adieresis" unicode="&#xc4;" horiz-adv-x="650" 
d="M210 756q-32 0 -32 33v58q0 33 32 33h49q32 0 32 -33v-58q0 -33 -32 -33h-49zM392 756q-33 0 -33 33v58q0 33 33 33h48q33 0 33 -33v-58q0 -33 -33 -33h-48zM494 0l-50 181h-237l-50 -181h-156l199 650q4 18 19 29t34 11h144q43 0 53 -40l199 -650h-155zM239 299h172
l-58 211q-12 50 -14 65h-27l-15 -65z" />
    <glyph glyph-name="Aring" unicode="&#xc5;" horiz-adv-x="650" 
d="M326 713q-49 0 -83.5 33t-34.5 82q0 48 34.5 81.5t83.5 33.5q48 0 83 -33.5t35 -81.5q0 -49 -34.5 -82t-83.5 -33zM326 879q-22 0 -36 -14.5t-14 -36.5q0 -24 14 -38t36 -14q21 0 35.5 14.5t14.5 37.5q0 22 -14.5 36.5t-35.5 14.5zM494 0l-50 181h-237l-50 -181h-156
l199 650q4 18 19 29t34 11h144q43 0 53 -40l199 -650h-155zM239 299h172l-58 211q-12 50 -14 65h-27l-15 -65z" />
    <glyph glyph-name="AE" unicode="&#xc6;" horiz-adv-x="931" 
d="M639 119h245l7 -112q-99 -10 -317 -10q-59 0 -94.5 39t-35.5 100v54h-203l-95 -190h-157l291 558q26 52 58 79.5t86.5 40.5t144.5 13q217 0 322 -8l-7 -112h-245q-23 0 -38 -14.5t-15 -39.5v-104h261v-108h-261v-134q0 -28 12.5 -40t40.5 -12zM297 304h147v224
q0 40 23 67h-11q-19 -16 -40 -53z" />
    <glyph glyph-name="Ccedilla" unicode="&#xc7;" horiz-adv-x="586" 
d="M337 702q116 0 207 -23l-13 -114q-81 5 -194 5q-75 0 -102.5 -47.5t-27.5 -177.5t27.5 -177.5t102.5 -47.5q139 0 208 9l13 -113q-90 -28 -221 -28q-160 0 -225 80t-65 277t65 277t225 80zM266 -58q83 9 114.5 -3t29.5 -62q-3 -73 -59 -109.5t-141 -25.5l19 65
q82 -2 86 58q1 13 -10.5 16t-52.5 3z" />
    <glyph glyph-name="Egrave" unicode="&#xc8;" horiz-adv-x="576" 
d="M393 800l-43 -64l-225 109l67 103zM264 119h265l7 -112q-94 -10 -320 -10q-69 0 -110 37.5t-42 101.5v418q1 64 42 101.5t110 37.5q226 0 320 -10l-7 -113h-265q-25 0 -36 -12t-11 -39v-105h275v-110h-275v-133q0 -28 11 -40t36 -12z" />
    <glyph glyph-name="Eacute" unicode="&#xc9;" horiz-adv-x="576" 
d="M495 844l-225 -109l-44 63l201 148zM264 119h265l7 -112q-94 -10 -320 -10q-69 0 -110 37.5t-42 101.5v418q1 64 42 101.5t110 37.5q226 0 320 -10l-7 -113h-265q-25 0 -36 -12t-11 -39v-105h275v-110h-275v-133q0 -28 11 -40t36 -12z" />
    <glyph glyph-name="Ecircumflex" unicode="&#xca;" horiz-adv-x="576" 
d="M311 824l-142 -95l-41 59l134 131h107l132 -135l-41 -55l-141 95h-8zM264 119h265l7 -112q-94 -10 -320 -10q-69 0 -110 37.5t-42 101.5v418q1 64 42 101.5t110 37.5q226 0 320 -10l-7 -113h-265q-25 0 -36 -12t-11 -39v-105h275v-110h-275v-133q0 -28 11 -40t36 -12z
" />
    <glyph glyph-name="Edieresis" unicode="&#xcb;" horiz-adv-x="576" 
d="M199 768q-32 0 -32 33v58q0 33 32 33h49q32 0 32 -33v-58q0 -33 -32 -33h-49zM381 768q-33 0 -33 33v58q0 33 33 33h48q33 0 33 -33v-58q0 -33 -33 -33h-48zM264 119h265l7 -112q-94 -10 -320 -10q-69 0 -110 37.5t-42 101.5v418q1 64 42 101.5t110 37.5q226 0 320 -10
l-7 -113h-265q-25 0 -36 -12t-11 -39v-105h275v-110h-275v-133q0 -28 11 -40t36 -12z" />
    <glyph glyph-name="Igrave" unicode="&#xcc;" horiz-adv-x="292" 
d="M23 942l201 -148l-43 -64l-225 109zM222 690v-690h-152v690h152z" />
    <glyph glyph-name="Iacute" unicode="&#xcd;" horiz-adv-x="292" 
d="M258 940l68 -102l-225 -109l-44 63zM222 690v-690h-152v690h152z" />
    <glyph glyph-name="Icircumflex" unicode="&#xce;" horiz-adv-x="292" 
d="M200 913l132 -135l-41 -55l-141 95h-8l-142 -95l-41 59l134 131h107zM222 690v-690h-152v690h152z" />
    <glyph glyph-name="Idieresis" unicode="&#xcf;" horiz-adv-x="292" 
d="M79 886q32 0 32 -33v-58q0 -33 -32 -33h-49q-32 0 -32 33v58q0 33 32 33h49zM260 886q33 0 33 -33v-58q0 -33 -33 -33h-48q-33 0 -33 33v58q0 33 33 33h48zM222 690v-690h-152v690h152z" />
    <glyph glyph-name="Eth" unicode="&#xd0;" horiz-adv-x="683" 
d="M341 699q165 0 229.5 -76t64.5 -278t-64.5 -278t-229.5 -76q-126 0 -268 9v323h-57v77h57v290q142 9 268 9zM341 111q77 0 105.5 49t28.5 185t-28.5 185.5t-105.5 49.5q-23 0 -61.5 -0.5t-54.5 -0.5v-179h124v-77h-124v-211q17 0 55.5 -0.5t60.5 -0.5z" />
    <glyph glyph-name="Ntilde" unicode="&#xd1;" horiz-adv-x="722" 
d="M279 899q36 -3 86 -23.5t73 -24.5q24 -4 31.5 6t7.5 37h63q11 -68 -13 -106t-68 -35q-38 3 -90 25t-70 25q-24 3 -31 -7t-7 -39h-63q-11 71 14 108t67 34zM652 690v-635q0 -55 -54 -55h-95q-23 0 -36 10.5t-25 34.5l-181 368q-34 73 -42 107h-11q7 -50 7 -110v-410h-145
v635q0 55 55 55h93q23 0 36 -10.5t25 -34.5l175 -357q25 -50 50 -111h10q-6 78 -6 116v397h144z" />
    <glyph glyph-name="Ograve" unicode="&#xd2;" horiz-adv-x="684" 
d="M220 942l201 -148l-43 -64l-225 109zM342 703q166 0 231 -76.5t65 -281.5t-65 -281.5t-231 -76.5t-230.5 76.5t-64.5 281.5t64.5 281.5t230.5 76.5zM342 580q-78 0 -106.5 -49t-28.5 -186t28.5 -186t106.5 -49t106.5 49t28.5 186t-28.5 186t-106.5 49z" />
    <glyph glyph-name="Oacute" unicode="&#xd3;" horiz-adv-x="684" 
d="M455 940l68 -102l-225 -109l-44 63zM342 703q166 0 231 -76.5t65 -281.5t-65 -281.5t-231 -76.5t-230.5 76.5t-64.5 281.5t64.5 281.5t230.5 76.5zM342 580q-78 0 -106.5 -49t-28.5 -186t28.5 -186t106.5 -49t106.5 49t28.5 186t-28.5 186t-106.5 49z" />
    <glyph glyph-name="Ocircumflex" unicode="&#xd4;" horiz-adv-x="684" 
d="M397 913l132 -135l-41 -55l-141 95h-8l-142 -95l-41 59l134 131h107zM342 703q166 0 231 -76.5t65 -281.5t-65 -281.5t-231 -76.5t-230.5 76.5t-64.5 281.5t64.5 281.5t230.5 76.5zM342 580q-78 0 -106.5 -49t-28.5 -186t28.5 -186t106.5 -49t106.5 49t28.5 186
t-28.5 186t-106.5 49z" />
    <glyph glyph-name="Otilde" unicode="&#xd5;" horiz-adv-x="684" 
d="M250 899q36 -3 86 -23.5t73 -24.5q24 -4 31.5 6t7.5 37h63q11 -68 -13 -106t-68 -35q-38 3 -90 25t-70 25q-24 3 -31 -7t-7 -39h-63q-11 71 14 108t67 34zM342 703q166 0 231 -76.5t65 -281.5t-65 -281.5t-231 -76.5t-230.5 76.5t-64.5 281.5t64.5 281.5t230.5 76.5z
M342 580q-78 0 -106.5 -49t-28.5 -186t28.5 -186t106.5 -49t106.5 49t28.5 186t-28.5 186t-106.5 49z" />
    <glyph glyph-name="Odieresis" unicode="&#xd6;" horiz-adv-x="684" 
d="M276 886q32 0 32 -33v-58q0 -33 -32 -33h-49q-32 0 -32 33v58q0 33 32 33h49zM457 886q33 0 33 -33v-58q0 -33 -33 -33h-48q-33 0 -33 33v58q0 33 33 33h48zM342 703q166 0 231 -76.5t65 -281.5t-65 -281.5t-231 -76.5t-230.5 76.5t-64.5 281.5t64.5 281.5t230.5 76.5z
M342 580q-78 0 -106.5 -49t-28.5 -186t28.5 -186t106.5 -49t106.5 49t28.5 186t-28.5 186t-106.5 49z" />
    <glyph glyph-name="multiply" unicode="&#xd7;" horiz-adv-x="492" 
d="M465 412l-135 -121l135 -121l-70 -83l-147 131l-147 -131l-70 83l135 121l-135 121l70 84l147 -132l147 132z" />
    <glyph glyph-name="Oslash" unicode="&#xd8;" horiz-adv-x="684" 
d="M524 667q61 -34 87.5 -110t26.5 -212q0 -205 -65 -281.5t-231 -76.5q-79 0 -129 14l-31 -65l-56 24l30 65q-58 35 -83.5 111t-25.5 209q0 205 64.5 281.5t230.5 76.5q74 0 125 -13l31 65l56 -24zM207 345q0 -116 20 -169l183 391q-26 13 -68 13q-78 0 -106.5 -49
t-28.5 -186zM342 110q78 0 106.5 49t28.5 186q0 123 -22 174l-185 -395q27 -14 72 -14z" />
    <glyph glyph-name="Ugrave" unicode="&#xd9;" horiz-adv-x="681" 
d="M219 942l201 -148l-43 -64l-225 109zM617 690v-415q0 -158 -60.5 -223t-208.5 -65q-156 0 -219.5 65t-63.5 223v415h152v-415q0 -95 26.5 -130t97.5 -35q70 0 96.5 35t26.5 130v415h153z" />
    <glyph glyph-name="Uacute" unicode="&#xda;" horiz-adv-x="681" 
d="M454 940l68 -102l-225 -109l-44 63zM617 690v-415q0 -158 -60.5 -223t-208.5 -65q-156 0 -219.5 65t-63.5 223v415h152v-415q0 -95 26.5 -130t97.5 -35q70 0 96.5 35t26.5 130v415h153z" />
    <glyph glyph-name="Ucircumflex" unicode="&#xdb;" horiz-adv-x="681" 
d="M396 913l132 -135l-41 -55l-141 95h-8l-142 -95l-41 59l134 131h107zM617 690v-415q0 -158 -60.5 -223t-208.5 -65q-156 0 -219.5 65t-63.5 223v415h152v-415q0 -95 26.5 -130t97.5 -35q70 0 96.5 35t26.5 130v415h153z" />
    <glyph glyph-name="Udieresis" unicode="&#xdc;" horiz-adv-x="681" 
d="M275 886q32 0 32 -33v-58q0 -33 -32 -33h-49q-32 0 -32 33v58q0 33 32 33h49zM456 886q33 0 33 -33v-58q0 -33 -33 -33h-48q-33 0 -33 33v58q0 33 33 33h48zM617 690v-415q0 -158 -60.5 -223t-208.5 -65q-156 0 -219.5 65t-63.5 223v415h152v-415q0 -95 26.5 -130
t97.5 -35q70 0 96.5 35t26.5 130v415h153z" />
    <glyph glyph-name="Yacute" unicode="&#xdd;" horiz-adv-x="608" 
d="M485 830l-225 -109l-44 63l201 148zM607 690l-226 -461v-229h-153v229l-228 461h159l115 -253q10 -22 26 -87h10q12 54 25 87l115 253h157z" />
    <glyph glyph-name="Thorn" unicode="&#xde;" horiz-adv-x="610" 
d="M330 574q142 0 195 -47.5t53 -180.5q0 -132 -50 -179.5t-179 -47.5q-64 0 -126 8v-127h-153v690h153v-117q30 1 107 1zM326 237q58 0 78.5 22t20.5 87q0 66 -20.5 88.5t-78.5 22.5h-103v-220h103z" />
    <glyph glyph-name="germandbls" unicode="&#xdf;" horiz-adv-x="705" 
d="M600 267q48 -31 65.5 -58t17.5 -76q0 -79 -43.5 -111.5t-148.5 -32.5q-75 0 -167 11l9 99q84 -2 124 -2q48 0 63.5 7t15.5 35q0 11 -3.5 19.5t-16.5 19t-19 14.5l-30 20l-71 38q-75 46 -75 117q0 22 9.5 41t16 27t33 30.5t32.5 28.5q29 26 39 41.5t10 37.5q0 27 -20 38.5
t-83 11.5q-64 0 -85 -17t-21 -69v-537h-148v393h-86v98l86 2v61q0 104 57.5 141t193.5 37q139 0 190.5 -33.5t51.5 -118.5q0 -35 -13 -62t-54 -62q-7 -6 -22 -18t-21 -17t-14 -13.5t-10.5 -16t-2.5 -16.5q0 -11 8.5 -22t15.5 -16t29 -19q2 -1 3 -2t3 -2t3 -2z" />
    <glyph glyph-name="agrave" unicode="&#xe0;" horiz-adv-x="567" 
d="M365 618l-43 -64l-225 109l67 103zM317 507q100 0 147 -40.5t47 -140.5v-326h-117l-15 75q-74 -87 -182 -87q-71 0 -116 37.5t-45 104.5v50q0 59 40 92t111 33h176v22q-1 38 -17.5 51t-63.5 13q-82 0 -208 -8l-14 100q133 24 257 24zM182 150q0 -51 58 -51q60 0 123 48
v69h-133q-48 -1 -48 -47v-19z" />
    <glyph glyph-name="aacute" unicode="&#xe1;" horiz-adv-x="567" 
d="M467 662l-225 -109l-44 63l201 148zM317 507q100 0 147 -40.5t47 -140.5v-326h-117l-15 75q-74 -87 -182 -87q-71 0 -116 37.5t-45 104.5v50q0 59 40 92t111 33h176v22q-1 38 -17.5 51t-63.5 13q-82 0 -208 -8l-14 100q133 24 257 24zM182 150q0 -51 58 -51q60 0 123 48
v69h-133q-48 -1 -48 -47v-19z" />
    <glyph glyph-name="acircumflex" unicode="&#xe2;" horiz-adv-x="567" 
d="M283 642l-142 -95l-41 59l134 131h107l132 -135l-41 -55l-141 95h-8zM317 507q100 0 147 -40.5t47 -140.5v-326h-117l-15 75q-74 -87 -182 -87q-71 0 -116 37.5t-45 104.5v50q0 59 40 92t111 33h176v22q-1 38 -17.5 51t-63.5 13q-82 0 -208 -8l-14 100q133 24 257 24z
M182 150q0 -51 58 -51q60 0 123 48v69h-133q-48 -1 -48 -47v-19z" />
    <glyph glyph-name="atilde" unicode="&#xe3;" horiz-adv-x="567" 
d="M176 581h-63q-11 71 14 108t67 34q36 -3 86 -23.5t73 -24.5q24 -4 31.5 6t7.5 37h63q11 -68 -13 -106t-68 -35q-38 3 -90 25t-70 25q-24 3 -31 -7t-7 -39zM317 507q100 0 147 -40.5t47 -140.5v-326h-117l-15 75q-74 -87 -182 -87q-71 0 -116 37.5t-45 104.5v50
q0 59 40 92t111 33h176v22q-1 38 -17.5 51t-63.5 13q-82 0 -208 -8l-14 100q133 24 257 24zM182 150q0 -51 58 -51q60 0 123 48v69h-133q-48 -1 -48 -47v-19z" />
    <glyph glyph-name="adieresis" unicode="&#xe4;" horiz-adv-x="567" 
d="M171 586q-32 0 -32 33v58q0 33 32 33h49q32 0 32 -33v-58q0 -33 -32 -33h-49zM353 586q-33 0 -33 33v58q0 33 33 33h48q33 0 33 -33v-58q0 -33 -33 -33h-48zM317 507q100 0 147 -40.5t47 -140.5v-326h-117l-15 75q-74 -87 -182 -87q-71 0 -116 37.5t-45 104.5v50
q0 59 40 92t111 33h176v22q-1 38 -17.5 51t-63.5 13q-82 0 -208 -8l-14 100q133 24 257 24zM182 150q0 -51 58 -51q60 0 123 48v69h-133q-48 -1 -48 -47v-19z" />
    <glyph glyph-name="aring" unicode="&#xe5;" horiz-adv-x="567" 
d="M287 543q-49 0 -83.5 33t-34.5 82q0 48 34.5 81.5t83.5 33.5q48 0 83 -33.5t35 -81.5q0 -49 -34.5 -82t-83.5 -33zM287 709q-22 0 -36 -14.5t-14 -36.5q0 -24 14.5 -38t35.5 -14t35.5 14.5t14.5 37.5q0 22 -14.5 36.5t-35.5 14.5zM317 507q100 0 147 -40.5t47 -140.5
v-326h-117l-15 75q-74 -87 -182 -87q-71 0 -116 37.5t-45 104.5v50q0 59 40 92t111 33h176v22q-1 38 -17.5 51t-63.5 13q-82 0 -208 -8l-14 100q133 24 257 24zM182 150q0 -51 58 -51q60 0 123 48v69h-133q-48 -1 -48 -47v-19z" />
    <glyph glyph-name="ae" unicode="&#xe6;" horiz-adv-x="875" 
d="M631 106q77 0 182 11l14 -92q-77 -37 -214 -37q-169 0 -223 97q-76 -97 -195 -97q-70 0 -114.5 37.5t-44.5 104.5v50q0 58 40 91t110 33h173v23q0 37 -16.5 50.5t-62.5 13.5q-81 0 -207 -8l-13 100q131 24 254 24q90 0 135 -32q54 32 159 32q122 0 176.5 -42.5
t54.5 -129.5q1 -69 -34.5 -103.5t-114.5 -34.5h-178q7 -54 33 -72.5t86 -18.5zM613 399q-58 1 -79.5 -21.5t-24.5 -91.5h140q27 0 36.5 13t9.5 38q0 35 -18 48.5t-64 13.5zM238 99q63 0 128 53q-5 25 -7 64h-130q-47 -1 -47 -47v-19q0 -51 56 -51z" />
    <glyph glyph-name="ccedilla" unicode="&#xe7;" horiz-adv-x="507" 
d="M289 507q112 0 182 -31l-16 -92q-108 2 -141 2q-68 0 -93.5 -29t-25.5 -110t25.5 -110t93.5 -29q87 0 151 9l13 -96q-76 -33 -191 -33q-136 0 -191.5 58.5t-55.5 200.5q0 143 56 201.5t193 58.5zM219 -52q83 9 114.5 -3t29.5 -62q-3 -73 -59 -109.5t-141 -25.5l19 65
q82 -2 86 58q1 13 -10.5 16t-52.5 3z" />
    <glyph glyph-name="egrave" unicode="&#xe8;" horiz-adv-x="560" 
d="M372 615l-43 -64l-225 109l67 103zM314 106q79 0 184 11l14 -92q-77 -37 -215 -37q-139 0 -198 60t-59 198q0 145 57.5 203t193.5 58q123 0 178 -42.5t56 -129.5q0 -69 -35.5 -103.5t-114.5 -34.5h-178q7 -54 32.5 -72.5t84.5 -18.5zM296 399q-57 1 -78 -21.5t-24 -91.5
h140q27 0 36.5 13t9.5 38q0 35 -18 48.5t-66 13.5z" />
    <glyph glyph-name="eacute" unicode="&#xe9;" horiz-adv-x="560" 
d="M474 659l-225 -109l-44 63l201 148zM314 106q79 0 184 11l14 -92q-77 -37 -215 -37q-139 0 -198 60t-59 198q0 145 57.5 203t193.5 58q123 0 178 -42.5t56 -129.5q0 -69 -35.5 -103.5t-114.5 -34.5h-178q7 -54 32.5 -72.5t84.5 -18.5zM296 399q-57 1 -78 -21.5t-24 -91.5
h140q27 0 36.5 13t9.5 38q0 35 -18 48.5t-66 13.5z" />
    <glyph glyph-name="ecircumflex" unicode="&#xea;" horiz-adv-x="560" 
d="M290 639l-142 -95l-41 59l134 131h107l132 -135l-41 -55l-141 95h-8zM314 106q79 0 184 11l14 -92q-77 -37 -215 -37q-139 0 -198 60t-59 198q0 145 57.5 203t193.5 58q123 0 178 -42.5t56 -129.5q0 -69 -35.5 -103.5t-114.5 -34.5h-178q7 -54 32.5 -72.5t84.5 -18.5z
M296 399q-57 1 -78 -21.5t-24 -91.5h140q27 0 36.5 13t9.5 38q0 35 -18 48.5t-66 13.5z" />
    <glyph glyph-name="edieresis" unicode="&#xeb;" horiz-adv-x="560" 
d="M178 583q-32 0 -32 33v58q0 33 32 33h49q32 0 32 -33v-58q0 -33 -32 -33h-49zM360 583q-33 0 -33 33v58q0 33 33 33h48q33 0 33 -33v-58q0 -33 -33 -33h-48zM314 106q79 0 184 11l14 -92q-77 -37 -215 -37q-139 0 -198 60t-59 198q0 145 57.5 203t193.5 58
q123 0 178 -42.5t56 -129.5q0 -69 -35.5 -103.5t-114.5 -34.5h-178q7 -54 32.5 -72.5t84.5 -18.5zM296 399q-57 1 -78 -21.5t-24 -91.5h140q27 0 36.5 13t9.5 38q0 35 -18 48.5t-66 13.5z" />
    <glyph glyph-name="igrave" unicode="&#xec;" horiz-adv-x="278" 
d="M15 764l201 -148l-43 -64l-225 109zM213 493v-493h-148v493h148z" />
    <glyph glyph-name="iacute" unicode="&#xed;" horiz-adv-x="278" 
d="M250 762l68 -102l-225 -109l-44 63zM213 493v-493h-148v493h148z" />
    <glyph glyph-name="icircumflex" unicode="&#xee;" horiz-adv-x="278" 
d="M192 735l132 -135l-41 -55l-141 95h-8l-142 -95l-41 59l134 131h107zM213 493v-493h-148v493h148z" />
    <glyph glyph-name="idieresis" unicode="&#xef;" horiz-adv-x="278" 
d="M71 708q32 0 32 -33v-58q0 -33 -32 -33h-49q-32 0 -32 33v58q0 33 32 33h49zM252 708q33 0 33 -33v-58q0 -33 -33 -33h-48q-33 0 -33 33v58q0 33 33 33h48zM213 493v-493h-148v493h148z" />
    <glyph glyph-name="eth" unicode="&#xf0;" horiz-adv-x="573" 
d="M434 594q97 -108 97 -307q0 -156 -56.5 -228t-192.5 -72q-125 0 -184 55.5t-59 173.5q0 120 49 177.5t164 57.5q65 0 113 -21q-22 101 -81 138.5t-163 31.5l13 98q119 8 205 -34l85 83l83 -84zM284 98q58 0 75.5 40.5t17.5 150.5q0 28 -1 42q-42 9 -92 9t-70.5 -27
t-20.5 -94q0 -69 20.5 -95t70.5 -26z" />
    <glyph glyph-name="ntilde" unicode="&#xf1;" horiz-adv-x="599" 
d="M198 578h-63q-11 71 14 108t67 34q36 -3 86 -23.5t73 -24.5q24 -4 31.5 6t7.5 37h63q11 -68 -13 -106t-68 -35q-38 3 -90 25t-70 25q-24 3 -31 -7t-7 -39zM403 507q67 0 102.5 -35t35.5 -102v-370h-147v324q0 33 -10.5 45.5t-37.5 12.5q-50 0 -138 -45l1 -337h-148v493
h120l11 -73q106 87 211 87z" />
    <glyph glyph-name="ograve" unicode="&#xf2;" 
d="M172 756l201 -148l-43 -64l-225 109zM294 507q138 0 195.5 -59.5t57.5 -201.5t-57.5 -200.5t-195.5 -58.5q-139 0 -196.5 58.5t-57.5 200.5q0 143 57.5 202t196.5 59zM294 396q-59 0 -79 -30t-20 -120q0 -88 20 -118t79 -30q57 0 77.5 30t20.5 118q0 89 -20 119.5
t-78 30.5z" />
    <glyph glyph-name="oacute" unicode="&#xf3;" 
d="M407 754l68 -102l-225 -109l-44 63zM294 507q138 0 195.5 -59.5t57.5 -201.5t-57.5 -200.5t-195.5 -58.5q-139 0 -196.5 58.5t-57.5 200.5q0 143 57.5 202t196.5 59zM294 396q-59 0 -79 -30t-20 -120q0 -88 20 -118t79 -30q57 0 77.5 30t20.5 118q0 89 -20 119.5
t-78 30.5z" />
    <glyph glyph-name="ocircumflex" unicode="&#xf4;" 
d="M349 727l132 -135l-41 -55l-141 95h-8l-142 -95l-41 59l134 131h107zM294 507q138 0 195.5 -59.5t57.5 -201.5t-57.5 -200.5t-195.5 -58.5q-139 0 -196.5 58.5t-57.5 200.5q0 143 57.5 202t196.5 59zM294 396q-59 0 -79 -30t-20 -120q0 -88 20 -118t79 -30q57 0 77.5 30
t20.5 118q0 89 -20 119.5t-78 30.5z" />
    <glyph glyph-name="otilde" unicode="&#xf5;" 
d="M202 713q36 -3 86 -23.5t73 -24.5q24 -4 31.5 6t7.5 37h63q11 -68 -13 -106t-68 -35q-38 3 -90 25t-70 25q-24 3 -31 -7t-7 -39h-63q-11 71 14 108t67 34zM294 507q138 0 195.5 -59.5t57.5 -201.5t-57.5 -200.5t-195.5 -58.5q-139 0 -196.5 58.5t-57.5 200.5
q0 143 57.5 202t196.5 59zM294 396q-59 0 -79 -30t-20 -120q0 -88 20 -118t79 -30q57 0 77.5 30t20.5 118q0 89 -20 119.5t-78 30.5z" />
    <glyph glyph-name="odieresis" unicode="&#xf6;" 
d="M228 700q32 0 32 -33v-58q0 -33 -32 -33h-49q-32 0 -32 33v58q0 33 32 33h49zM409 700q33 0 33 -33v-58q0 -33 -33 -33h-48q-33 0 -33 33v58q0 33 33 33h48zM294 507q138 0 195.5 -59.5t57.5 -201.5t-57.5 -200.5t-195.5 -58.5q-139 0 -196.5 58.5t-57.5 200.5
q0 143 57.5 202t196.5 59zM294 396q-59 0 -79 -30t-20 -120q0 -88 20 -118t79 -30q57 0 77.5 30t20.5 118q0 89 -20 119.5t-78 30.5z" />
    <glyph glyph-name="divide" unicode="&#xf7;" horiz-adv-x="553" 
d="M293 550q31 0 42.5 -11.5t11.5 -42.5v-34q0 -30 -11.5 -41.5t-42.5 -11.5h-36q-30 0 -41.5 11.5t-11.5 41.5v34q0 31 11.5 42.5t41.5 11.5h36zM506 346v-105h-459v105h459zM293 176q31 0 42.5 -11.5t11.5 -42.5v-33q0 -31 -11.5 -42.5t-42.5 -11.5h-36q-30 0 -41.5 11.5
t-11.5 42.5v33q0 31 11.5 42.5t41.5 11.5h36z" />
    <glyph glyph-name="oslash" unicode="&#xf8;" 
d="M461 471q86 -55 86 -225q0 -142 -57.5 -200.5t-195.5 -58.5q-34 0 -64 3l-43 -89l-102 50l36 75q-81 55 -81 220q0 143 57.5 202t196.5 59q32 0 57 -3l45 93l102 -51zM294 98q57 0 77.5 30t20.5 118q0 89 -20 119.5t-78 30.5q-59 0 -79 -30t-20 -120q0 -88 20 -118
t79 -30z" />
    <glyph glyph-name="ugrave" unicode="&#xf9;" horiz-adv-x="590" 
d="M372 618l-43 -64l-225 109l67 103zM382 493h147v-493h-117l-11 68q-100 -81 -204 -81q-139 0 -139 137v369h148v-324q-1 -32 11 -45t42 -13q47 0 123 41v341z" />
    <glyph glyph-name="uacute" unicode="&#xfa;" horiz-adv-x="590" 
d="M474 662l-225 -109l-44 63l201 148zM382 493h147v-493h-117l-11 68q-100 -81 -204 -81q-139 0 -139 137v369h148v-324q-1 -32 11 -45t42 -13q47 0 123 41v341z" />
    <glyph glyph-name="ucircumflex" unicode="&#xfb;" horiz-adv-x="590" 
d="M290 642l-142 -95l-41 59l134 131h107l132 -135l-41 -55l-141 95h-8zM382 493h147v-493h-117l-11 68q-100 -81 -204 -81q-139 0 -139 137v369h148v-324q-1 -32 11 -45t42 -13q47 0 123 41v341z" />
    <glyph glyph-name="udieresis" unicode="&#xfc;" horiz-adv-x="590" 
d="M178 586q-32 0 -32 33v58q0 33 32 33h49q32 0 32 -33v-58q0 -33 -32 -33h-49zM360 586q-33 0 -33 33v58q0 33 33 33h48q33 0 33 -33v-58q0 -33 -33 -33h-48zM382 493h147v-493h-117l-11 68q-100 -81 -204 -81q-139 0 -139 137v369h148v-324q-1 -32 11 -45t42 -13
q47 0 123 41v341z" />
    <glyph glyph-name="yacute" unicode="&#xfd;" horiz-adv-x="562" 
d="M465 660l-225 -109l-44 63l201 148zM396 493h158l-175 -500q-14 -40 -34.5 -74t-52.5 -65.5t-79.5 -46.5t-105.5 -8l-12 87q60 16 94 41.5t53 68.5l2 4h-28q-37 0 -48 36l-161 457h158l92 -319q9 -35 15 -74h13q9 29 20 74z" />
    <glyph glyph-name="thorn" unicode="&#xfe;" horiz-adv-x="594" 
d="M374 505q95 0 136.5 -64t41.5 -199q0 -144 -43 -199.5t-140 -55.5q-96 0 -164 41q4 -43 4 -99v-119h-148v890h148v-135q0 -55 -5 -120q68 60 170 60zM313 94q49 0 68 30t19 117q0 89 -18.5 119.5t-64.5 30.5q-45 0 -108 -42v-231q68 -24 104 -24z" />
    <glyph glyph-name="ydieresis" unicode="&#xff;" horiz-adv-x="562" 
d="M169 584q-32 0 -32 33v58q0 33 32 33h49q32 0 32 -33v-58q0 -33 -32 -33h-49zM351 584q-33 0 -33 33v58q0 33 33 33h48q33 0 33 -33v-58q0 -33 -33 -33h-48zM396 493h158l-175 -500q-14 -40 -34.5 -74t-52.5 -65.5t-79.5 -46.5t-105.5 -8l-12 87q60 16 94 41.5t53 68.5
l2 4h-28q-37 0 -48 36l-161 457h158l92 -319q9 -35 15 -74h13q9 29 20 74z" />
    <glyph glyph-name="Amacron" unicode="&#x100;" horiz-adv-x="650" 
d="M476 865v-95h-300v95h300zM494 0l-50 181h-237l-50 -181h-156l199 650q4 18 19 29t34 11h144q43 0 53 -40l199 -650h-155zM239 299h172l-58 211q-12 50 -14 65h-27l-15 -65z" />
    <glyph glyph-name="amacron" unicode="&#x101;" horiz-adv-x="567" 
d="M437 695v-95h-300v95h300zM317 507q100 0 147 -40.5t47 -140.5v-326h-117l-15 75q-74 -87 -182 -87q-71 0 -116 37.5t-45 104.5v50q0 59 40 92t111 33h176v22q-1 38 -17.5 51t-63.5 13q-82 0 -208 -8l-14 100q133 24 257 24zM182 150q0 -51 58 -51q60 0 123 48v69h-133
q-48 -1 -48 -47v-19z" />
    <glyph glyph-name="Abreve" unicode="&#x102;" horiz-adv-x="650" 
d="M326 734q-81 0 -127 43.5t-38 107.5l71 10q0 -64 94 -64q47 0 70.5 16t22.5 48l71 -10q8 -64 -37.5 -107.5t-126.5 -43.5zM494 0l-50 181h-237l-50 -181h-156l199 650q4 18 19 29t34 11h144q43 0 53 -40l199 -650h-155zM239 299h172l-58 211q-12 50 -14 65h-27l-15 -65z
" />
    <glyph glyph-name="abreve" unicode="&#x103;" horiz-adv-x="567" 
d="M287 564q-81 0 -127 43.5t-38 107.5l71 10q0 -64 94 -64q47 0 70.5 16t22.5 48l71 -10q8 -64 -37.5 -107.5t-126.5 -43.5zM317 507q100 0 147 -40.5t47 -140.5v-326h-117l-15 75q-74 -87 -182 -87q-71 0 -116 37.5t-45 104.5v50q0 59 40 92t111 33h176v22q-1 38 -17.5 51
t-63.5 13q-82 0 -208 -8l-14 100q133 24 257 24zM182 150q0 -51 58 -51q60 0 123 48v69h-133q-48 -1 -48 -47v-19z" />
    <glyph glyph-name="Aogonek" unicode="&#x104;" horiz-adv-x="650" 
d="M652 -138l13 -55q-73 -27 -115.5 -19t-57.5 36t-2 65q20 58 97 111h-93l-50 181h-237l-50 -181h-156l199 650q4 18 19 29t34 11h144q43 0 53 -40l199 -650q-43 -60 -60 -100q-14 -30 5.5 -39.5t57.5 1.5zM239 299h172l-58 211q-12 50 -14 65h-27l-15 -65z" />
    <glyph glyph-name="aogonek" unicode="&#x105;" horiz-adv-x="567" 
d="M513 -138l13 -55q-73 -27 -115.5 -19t-57.5 36t-2 65q20 58 97 111h-54l-15 75q-74 -87 -182 -87q-71 0 -116 37.5t-45 104.5v50q0 59 40 92t111 33h176v22q-1 38 -17.5 51t-63.5 13q-82 0 -208 -8l-14 100q133 24 257 24q100 0 147 -40.5t47 -140.5v-326h-1
q-43 -60 -60 -100q-14 -30 5.5 -39.5t57.5 1.5zM182 150q0 -51 58 -51q60 0 123 48v69h-133q-48 -1 -48 -47v-19z" />
    <glyph glyph-name="Cacute" unicode="&#x106;" horiz-adv-x="586" 
d="M441 940l68 -102l-225 -109l-44 63zM337 702q116 0 207 -23l-13 -114q-81 5 -194 5q-75 0 -102.5 -47.5t-27.5 -177.5t27.5 -177.5t102.5 -47.5q139 0 208 9l13 -113q-90 -28 -221 -28q-160 0 -225 80t-65 277t65 277t225 80z" />
    <glyph glyph-name="cacute" unicode="&#x107;" horiz-adv-x="507" 
d="M388 762l68 -102l-225 -109l-44 63zM289 507q112 0 182 -31l-16 -92q-108 2 -141 2q-68 0 -93.5 -29t-25.5 -110t25.5 -110t93.5 -29q87 0 151 9l13 -96q-76 -33 -191 -33q-136 0 -191.5 58.5t-55.5 200.5q0 143 56 201.5t193 58.5z" />
    <glyph glyph-name="Ccircumflex" unicode="&#x108;" horiz-adv-x="586" 
d="M383 913l132 -135l-41 -55l-141 95h-8l-142 -95l-41 59l134 131h107zM337 702q116 0 207 -23l-13 -114q-81 5 -194 5q-75 0 -102.5 -47.5t-27.5 -177.5t27.5 -177.5t102.5 -47.5q139 0 208 9l13 -113q-90 -28 -221 -28q-160 0 -225 80t-65 277t65 277t225 80z" />
    <glyph glyph-name="ccircumflex" unicode="&#x109;" horiz-adv-x="507" 
d="M330 735l132 -135l-41 -55l-141 95h-8l-142 -95l-41 59l134 131h107zM289 507q112 0 182 -31l-16 -92q-108 2 -141 2q-68 0 -93.5 -29t-25.5 -110t25.5 -110t93.5 -29q87 0 151 9l13 -96q-76 -33 -191 -33q-136 0 -191.5 58.5t-55.5 200.5q0 143 56 201.5t193 58.5z" />
    <glyph glyph-name="Cdotaccent" unicode="&#x10a;" horiz-adv-x="586" 
d="M352 887q41 0 41 -41v-52q0 -42 -41 -42h-46q-42 0 -42 42v52q0 41 42 41h46zM337 702q116 0 207 -23l-13 -114q-81 5 -194 5q-75 0 -102.5 -47.5t-27.5 -177.5t27.5 -177.5t102.5 -47.5q139 0 208 9l13 -113q-90 -28 -221 -28q-160 0 -225 80t-65 277t65 277t225 80z
" />
    <glyph glyph-name="cdotaccent" unicode="&#x10b;" horiz-adv-x="507" 
d="M299 709q41 0 41 -41v-52q0 -42 -41 -42h-46q-42 0 -42 42v52q0 41 42 41h46zM289 507q112 0 182 -31l-16 -92q-108 2 -141 2q-68 0 -93.5 -29t-25.5 -110t25.5 -110t93.5 -29q87 0 151 9l13 -96q-76 -33 -191 -33q-136 0 -191.5 58.5t-55.5 200.5q0 143 56 201.5
t193 58.5z" />
    <glyph glyph-name="Ccaron" unicode="&#x10c;" horiz-adv-x="586" 
d="M471 931l42 -59l-153 -131h-61l-153 131l41 59l138 -80h8zM337 702q116 0 207 -23l-13 -114q-81 5 -194 5q-75 0 -102.5 -47.5t-27.5 -177.5t27.5 -177.5t102.5 -47.5q139 0 208 9l13 -113q-90 -28 -221 -28q-160 0 -225 80t-65 277t65 277t225 80z" />
    <glyph glyph-name="ccaron" unicode="&#x10d;" horiz-adv-x="507" 
d="M418 753l42 -59l-153 -131h-61l-153 131l41 59l138 -80h8zM289 507q112 0 182 -31l-16 -92q-108 2 -141 2q-68 0 -93.5 -29t-25.5 -110t25.5 -110t93.5 -29q87 0 151 9l13 -96q-76 -33 -191 -33q-136 0 -191.5 58.5t-55.5 200.5q0 143 56 201.5t193 58.5z" />
    <glyph glyph-name="Dcaron" unicode="&#x10e;" horiz-adv-x="680" 
d="M359 741h-61l-153 131l41 59l138 -80h8l138 80l42 -59zM338 699q165 0 229.5 -76t64.5 -278t-64.5 -278t-229.5 -76q-126 0 -268 9v690q142 9 268 9zM338 111q77 0 105.5 49t28.5 185t-28.5 185.5t-105.5 49.5q-23 0 -61.5 -0.5t-54.5 -0.5v-467q17 0 55.5 -0.5
t60.5 -0.5z" />
    <glyph glyph-name="dcaron" unicode="&#x10f;" horiz-adv-x="594" 
d="M698 611q1 -80 -43 -150l-52 15q12 47 12 106q-17 0 -26.5 10t-8.5 27l1 45q1 25 10.5 34t33.5 9h30q25 0 34 -9t9 -34v-53zM385 566v134h148v-700h-117l-11 73q-74 -85 -189 -85q-92 0 -133.5 66.5t-41.5 196.5q0 142 46 199t143 57q96 0 160 -44q-5 55 -5 103zM193 252
q0 -85 18 -113.5t64 -28.5q31 0 53 8.5t57 31.5v228q-68 19 -105 19q-50 0 -68.5 -28t-18.5 -117z" />
    <glyph glyph-name="Dcroat" unicode="&#x110;" horiz-adv-x="683" 
d="M341 699q165 0 229.5 -76t64.5 -278t-64.5 -278t-229.5 -76q-126 0 -268 9v323h-57v77h57v290q142 9 268 9zM341 111q77 0 105.5 49t28.5 185t-28.5 185.5t-105.5 49.5q-23 0 -61.5 -0.5t-54.5 -0.5v-179h124v-77h-124v-211q17 0 55.5 -0.5t60.5 -0.5z" />
    <glyph glyph-name="dcroat" unicode="&#x111;" horiz-adv-x="590" 
d="M594 629v-70h-61v-559h-117l-11 73q-74 -85 -189 -85q-92 0 -133.5 66.5t-41.5 196.5q0 142 46 199t143 57q96 0 160 -44q-5 52 -5 96h-130v70h130v71h148v-71h61zM193 252q0 -85 18 -113.5t64 -28.5q31 0 53 8.5t57 31.5v228q-68 19 -105 19q-50 0 -68.5 -28t-18.5 -117
z" />
    <glyph glyph-name="Emacron" unicode="&#x112;" horiz-adv-x="576" 
d="M465 877v-95h-300v95h300zM264 119h265l7 -112q-94 -10 -320 -10q-69 0 -110 37.5t-42 101.5v418q1 64 42 101.5t110 37.5q226 0 320 -10l-7 -113h-265q-25 0 -36 -12t-11 -39v-105h275v-110h-275v-133q0 -28 11 -40t36 -12z" />
    <glyph glyph-name="emacron" unicode="&#x113;" horiz-adv-x="560" 
d="M444 692v-95h-300v95h300zM314 106q79 0 184 11l14 -92q-77 -37 -215 -37q-139 0 -198 60t-59 198q0 145 57.5 203t193.5 58q123 0 178 -42.5t56 -129.5q0 -69 -35.5 -103.5t-114.5 -34.5h-178q7 -54 32.5 -72.5t84.5 -18.5zM296 399q-57 1 -78 -21.5t-24 -91.5h140
q27 0 36.5 13t9.5 38q0 35 -18 48.5t-66 13.5z" />
    <glyph glyph-name="Ebreve" unicode="&#x114;" horiz-adv-x="576" 
d="M315 746q-81 0 -127 43.5t-38 107.5l71 10q0 -64 94 -64q47 0 70.5 16t22.5 48l71 -10q8 -64 -37.5 -107.5t-126.5 -43.5zM264 119h265l7 -112q-94 -10 -320 -10q-69 0 -110 37.5t-42 101.5v418q1 64 42 101.5t110 37.5q226 0 320 -10l-7 -113h-265q-25 0 -36 -12
t-11 -39v-105h275v-110h-275v-133q0 -28 11 -40t36 -12z" />
    <glyph glyph-name="ebreve" unicode="&#x115;" horiz-adv-x="560" 
d="M294 561q-81 0 -127 43.5t-38 107.5l71 10q0 -64 94 -64q47 0 70.5 16t22.5 48l71 -10q8 -64 -37.5 -107.5t-126.5 -43.5zM314 106q79 0 184 11l14 -92q-77 -37 -215 -37q-139 0 -198 60t-59 198q0 145 57.5 203t193.5 58q123 0 178 -42.5t56 -129.5q0 -69 -35.5 -103.5
t-114.5 -34.5h-178q7 -54 32.5 -72.5t84.5 -18.5zM296 399q-57 1 -78 -21.5t-24 -91.5h140q27 0 36.5 13t9.5 38q0 35 -18 48.5t-66 13.5z" />
    <glyph glyph-name="Edotaccent" unicode="&#x116;" horiz-adv-x="576" 
d="M292 758q-42 0 -42 42v52q0 41 42 41h46q41 0 41 -41v-52q0 -42 -41 -42h-46zM264 119h265l7 -112q-94 -10 -320 -10q-69 0 -110 37.5t-42 101.5v418q1 64 42 101.5t110 37.5q226 0 320 -10l-7 -113h-265q-25 0 -36 -12t-11 -39v-105h275v-110h-275v-133q0 -28 11 -40
t36 -12z" />
    <glyph glyph-name="edotaccent" unicode="&#x117;" horiz-adv-x="560" 
d="M271 573q-42 0 -42 42v52q0 41 42 41h46q41 0 41 -41v-52q0 -42 -41 -42h-46zM314 106q79 0 184 11l14 -92q-77 -37 -215 -37q-139 0 -198 60t-59 198q0 145 57.5 203t193.5 58q123 0 178 -42.5t56 -129.5q0 -69 -35.5 -103.5t-114.5 -34.5h-178q7 -54 32.5 -72.5
t84.5 -18.5zM296 399q-57 1 -78 -21.5t-24 -91.5h140q27 0 36.5 13t9.5 38q0 35 -18 48.5t-66 13.5z" />
    <glyph glyph-name="Eogonek" unicode="&#x118;" horiz-adv-x="576" 
d="M539 -131l13 -55q-73 -27 -115.5 -19t-57.5 36t-2 65q17 54 89 105q-79 -4 -250 -4q-69 0 -110 37.5t-42 101.5v418q1 64 42 101.5t110 37.5q226 0 320 -10l-7 -113h-265q-25 0 -36 -12t-11 -39v-105h275v-110h-275v-133q0 -28 11 -40t36 -12h265l7 -112
q-43 -60 -60 -100q-14 -30 5.5 -39.5t57.5 1.5z" />
    <glyph glyph-name="eogonek" unicode="&#x119;" horiz-adv-x="560" 
d="M515 -113l13 -55q-73 -27 -115.5 -19t-57.5 36t-2 65q13 41 61 83q-51 -9 -117 -9q-139 0 -198 60t-59 198q0 145 57.5 203t193.5 58q123 0 178 -42.5t56 -129.5q0 -69 -35.5 -103.5t-114.5 -34.5h-178q7 -54 32.5 -72.5t84.5 -18.5q79 0 184 11l14 -92q-43 -60 -60 -100
q-14 -30 5.5 -39.5t57.5 1.5zM296 399q-57 1 -78 -21.5t-24 -91.5h140q27 0 36.5 13t9.5 38q0 35 -18 48.5t-66 13.5z" />
    <glyph glyph-name="Ecaron" unicode="&#x11a;" horiz-adv-x="576" 
d="M346 747h-61l-153 131l41 59l138 -80h8l138 80l42 -59zM264 119h265l7 -112q-94 -10 -320 -10q-69 0 -110 37.5t-42 101.5v418q1 64 42 101.5t110 37.5q226 0 320 -10l-7 -113h-265q-25 0 -36 -12t-11 -39v-105h275v-110h-275v-133q0 -28 11 -40t36 -12z" />
    <glyph glyph-name="ecaron" unicode="&#x11b;" horiz-adv-x="560" 
d="M325 562h-61l-153 131l41 59l138 -80h8l138 80l42 -59zM314 106q79 0 184 11l14 -92q-77 -37 -215 -37q-139 0 -198 60t-59 198q0 145 57.5 203t193.5 58q123 0 178 -42.5t56 -129.5q0 -69 -35.5 -103.5t-114.5 -34.5h-178q7 -54 32.5 -72.5t84.5 -18.5zM296 399
q-57 1 -78 -21.5t-24 -91.5h140q27 0 36.5 13t9.5 38q0 35 -18 48.5t-66 13.5z" />
    <glyph glyph-name="Gcircumflex" unicode="&#x11c;" horiz-adv-x="645" 
d="M334 824l-142 -95l-41 59l134 131h107l132 -135l-41 -55l-141 95h-8zM445 398h147v-398h-112l-14 70q-79 -83 -199 -83q-116 0 -168 85t-52 275q0 202 68.5 279t240.5 77q125 0 212 -24l-12 -112q-113 5 -195 5q-46 0 -72.5 -7.5t-46.5 -32.5t-27 -69.5t-7 -120.5
q0 -129 24 -177t89 -48q61 0 124 35v246z" />
    <glyph glyph-name="gcircumflex" unicode="&#x11d;" horiz-adv-x="579" 
d="M276 636l-142 -95l-41 59l134 131h107l132 -135l-41 -55l-141 95h-8zM566 493l-7 -65l-61 -8q11 -28 11 -71q0 -86 -51.5 -122t-180.5 -36q-44 0 -86 5q-11 -15 -3.5 -35.5t33.5 -23.5l179 -21q76 -9 109.5 -44t33.5 -103q0 -94 -56.5 -127t-202.5 -33q-152 0 -206 31.5
t-54 115.5q0 38 18 62.5t60 44.5q-34 33 -27.5 81.5t43.5 70.5q-73 34 -73 133q0 87 52 123t181 36q83 0 131 -14h157zM277 285q54 0 74.5 14t20.5 50q0 37 -20 50t-75 13t-75.5 -13t-20.5 -50q0 -36 20.5 -50t75.5 -14zM402 -27q0 26 -15 33t-66 13l-124 14
q-32 -28 -32 -58q0 -36 22 -46t95 -10t96.5 10.5t23.5 43.5z" />
    <glyph glyph-name="Gbreve" unicode="&#x11e;" horiz-adv-x="645" 
d="M338 746q-81 0 -127 43.5t-38 107.5l71 10q0 -64 94 -64q47 0 70.5 16t22.5 48l71 -10q8 -64 -37.5 -107.5t-126.5 -43.5zM445 398h147v-398h-112l-14 70q-79 -83 -199 -83q-116 0 -168 85t-52 275q0 202 68.5 279t240.5 77q125 0 212 -24l-12 -112q-113 5 -195 5
q-46 0 -72.5 -7.5t-46.5 -32.5t-27 -69.5t-7 -120.5q0 -129 24 -177t89 -48q61 0 124 35v246z" />
    <glyph glyph-name="gbreve" unicode="&#x11f;" horiz-adv-x="579" 
d="M280 558q-81 0 -127 43.5t-38 107.5l71 10q0 -64 94 -64q47 0 70.5 16t22.5 48l71 -10q8 -64 -37.5 -107.5t-126.5 -43.5zM566 493l-7 -65l-61 -8q11 -28 11 -71q0 -86 -51.5 -122t-180.5 -36q-44 0 -86 5q-11 -15 -3.5 -35.5t33.5 -23.5l179 -21q76 -9 109.5 -44
t33.5 -103q0 -94 -56.5 -127t-202.5 -33q-152 0 -206 31.5t-54 115.5q0 38 18 62.5t60 44.5q-34 33 -27.5 81.5t43.5 70.5q-73 34 -73 133q0 87 52 123t181 36q83 0 131 -14h157zM277 285q54 0 74.5 14t20.5 50q0 37 -20 50t-75 13t-75.5 -13t-20.5 -50q0 -36 20.5 -50
t75.5 -14zM402 -27q0 26 -15 33t-66 13l-124 14q-32 -28 -32 -58q0 -36 22 -46t95 -10t96.5 10.5t23.5 43.5z" />
    <glyph glyph-name="Gdotaccent" unicode="&#x120;" horiz-adv-x="645" 
d="M315 758q-42 0 -42 42v52q0 41 42 41h46q41 0 41 -41v-52q0 -42 -41 -42h-46zM445 398h147v-398h-112l-14 70q-79 -83 -199 -83q-116 0 -168 85t-52 275q0 202 68.5 279t240.5 77q125 0 212 -24l-12 -112q-113 5 -195 5q-46 0 -72.5 -7.5t-46.5 -32.5t-27 -69.5
t-7 -120.5q0 -129 24 -177t89 -48q61 0 124 35v246z" />
    <glyph glyph-name="gdotaccent" unicode="&#x121;" horiz-adv-x="579" 
d="M257 570q-42 0 -42 42v52q0 41 42 41h46q41 0 41 -41v-52q0 -42 -41 -42h-46zM566 493l-7 -65l-61 -8q11 -28 11 -71q0 -86 -51.5 -122t-180.5 -36q-44 0 -86 5q-11 -15 -3.5 -35.5t33.5 -23.5l179 -21q76 -9 109.5 -44t33.5 -103q0 -94 -56.5 -127t-202.5 -33
q-152 0 -206 31.5t-54 115.5q0 38 18 62.5t60 44.5q-34 33 -27.5 81.5t43.5 70.5q-73 34 -73 133q0 87 52 123t181 36q83 0 131 -14h157zM277 285q54 0 74.5 14t20.5 50q0 37 -20 50t-75 13t-75.5 -13t-20.5 -50q0 -36 20.5 -50t75.5 -14zM402 -27q0 26 -15 33t-66 13
l-124 14q-32 -28 -32 -58q0 -36 22 -46t95 -10t96.5 10.5t23.5 43.5z" />
    <glyph glyph-name="Gcommaaccent" unicode="&#x122;" horiz-adv-x="645" 
d="M445 398h147v-398h-112l-14 70q-79 -83 -199 -83q-116 0 -168 85t-52 275q0 202 68.5 279t240.5 77q125 0 212 -24l-12 -112q-113 5 -195 5q-46 0 -72.5 -7.5t-46.5 -32.5t-27 -69.5t-7 -120.5q0 -129 24 -177t89 -48q61 0 124 35v246zM351 -52q26 0 36.5 -9t10.5 -33
v-51q0 -79 -47 -147l-55 15q13 49 13 103q-37 0 -39 37l1 43q1 24 12 33t37 9h31z" />
    <glyph glyph-name="gcommaaccent" unicode="&#x123;" horiz-adv-x="579" 
d="M278 551q-26 0 -36.5 9t-10.5 33v51q0 79 47 147l55 -15q-13 -49 -13 -103q37 0 39 -37l-1 -43q-1 -24 -12 -33t-37 -9h-31zM566 493l-7 -65l-61 -8q11 -28 11 -71q0 -86 -51.5 -122t-180.5 -36q-44 0 -86 5q-11 -15 -3.5 -35.5t33.5 -23.5l179 -21q76 -9 109.5 -44
t33.5 -103q0 -94 -56.5 -127t-202.5 -33q-152 0 -206 31.5t-54 115.5q0 38 18 62.5t60 44.5q-34 33 -27.5 81.5t43.5 70.5q-73 34 -73 133q0 87 52 123t181 36q83 0 131 -14h157zM277 285q54 0 74.5 14t20.5 50q0 37 -20 50t-75 13t-75.5 -13t-20.5 -50q0 -36 20.5 -50
t75.5 -14zM402 -27q0 26 -15 33t-66 13l-124 14q-32 -28 -32 -58q0 -36 22 -46t95 -10t96.5 10.5t23.5 43.5z" />
    <glyph glyph-name="Hcircumflex" unicode="&#x124;" horiz-adv-x="688" 
d="M339 824l-142 -95l-41 59l134 131h107l132 -135l-41 -55l-141 95h-8zM466 690h152v-690h-152v308h-244v-308h-152v690h152v-264h244v264z" />
    <glyph glyph-name="hcircumflex" unicode="&#x125;" horiz-adv-x="599" 
d="M138 795h-8l-142 -95l-41 59l134 131h107l132 -135l-41 -55zM403 507q67 0 102.5 -35t35.5 -102v-370h-147v324q0 33 -10.5 45.5t-37.5 12.5q-51 0 -137 -45v-337h-148v700h148l1 -171q0 -51 -9 -103q103 81 202 81z" />
    <glyph glyph-name="Hbar" unicode="&#x126;" horiz-adv-x="693" 
d="M681 585v-72h-61v-513h-152v308h-244v-308h-152v513h-59v72h59v105h152v-105h244v105h152v-105h61zM468 426v87h-244v-87h244z" />
    <glyph glyph-name="hbar" unicode="&#x127;" horiz-adv-x="603" 
d="M407 507q67 0 102.5 -35t35.5 -102v-370h-147v324q0 33 -10.5 45.5t-37.5 12.5q-51 0 -137 -45v-337h-148v559h-66v70h66v71h148v-71h125v-70h-124v-30q0 -51 -9 -103q103 81 202 81z" />
    <glyph glyph-name="Itilde" unicode="&#x128;" horiz-adv-x="292" 
d="M53 899q36 -3 86 -23.5t73 -24.5q24 -4 31.5 6t7.5 37h63q11 -68 -13 -106t-68 -35q-38 3 -90 25t-70 25q-24 3 -31 -7t-7 -39h-63q-11 71 14 108t67 34zM222 690v-690h-152v690h152z" />
    <glyph glyph-name="itilde" unicode="&#x129;" horiz-adv-x="278" 
d="M45 721q36 -3 86 -23.5t73 -24.5q24 -4 31.5 6t7.5 37h63q11 -68 -13 -106t-68 -35q-38 3 -90 25t-70 25q-24 3 -31 -7t-7 -39h-63q-11 71 14 108t67 34zM213 493v-493h-148v493h148z" />
    <glyph glyph-name="Imacron" unicode="&#x12a;" horiz-adv-x="292" 
d="M296 871v-95h-300v95h300zM222 690v-690h-152v690h152z" />
    <glyph glyph-name="imacron" unicode="&#x12b;" horiz-adv-x="278" 
d="M288 693v-95h-300v95h300zM213 493v-493h-148v493h148z" />
    <glyph glyph-name="Ibreve" unicode="&#x12c;" horiz-adv-x="292" 
d="M239 901l71 -10q8 -64 -37.5 -107.5t-126.5 -43.5t-127 43.5t-38 107.5l71 10q0 -64 94 -64q47 0 70.5 16t22.5 48zM222 690v-690h-152v690h152z" />
    <glyph glyph-name="ibreve" unicode="&#x12d;" horiz-adv-x="278" 
d="M231 723l71 -10q8 -64 -37.5 -107.5t-126.5 -43.5t-127 43.5t-38 107.5l71 10q0 -64 94 -64q47 0 70.5 16t22.5 48zM213 493v-493h-148v493h148z" />
    <glyph glyph-name="Iogonek" unicode="&#x12e;" horiz-adv-x="292" 
d="M203 0q-43 -60 -60 -100q-14 -30 5.5 -39.5t57.5 1.5l13 -55q-73 -27 -115.5 -19t-57.5 36t-2 65q20 58 97 111h-71v690h152v-690h-19z" />
    <glyph glyph-name="iogonek" unicode="&#x12f;" horiz-adv-x="278" 
d="M115 574q-42 0 -42 42v52q0 41 42 41h46q41 0 41 -41v-52q0 -42 -41 -42h-46zM203 -138l13 -55q-73 -27 -115.5 -19t-57.5 36t-2 65q20 58 97 111h-73v493h148v-493h-13q-43 -60 -60 -100q-14 -30 5.5 -39.5t57.5 1.5z" />
    <glyph glyph-name="Idotaccent" unicode="&#x130;" horiz-adv-x="292" 
d="M169 887q41 0 41 -41v-52q0 -42 -41 -42h-46q-42 0 -42 42v52q0 41 42 41h46zM222 690v-690h-152v690h152z" />
    <glyph glyph-name="dotlessi" unicode="&#x131;" horiz-adv-x="278" 
d="M213 493v-493h-148v493h148z" />
    <glyph glyph-name="IJ" unicode="&#x132;" horiz-adv-x="661" 
d="M222 690v-690h-152v690h152zM594 690v-545q0 -75 -41 -116t-115 -41q-83 0 -126 20l17 102h47q66 0 66 53v527h152z" />
    <glyph glyph-name="ij" unicode="&#x133;" horiz-adv-x="554" 
d="M447 715q43 0 43 -43v-54q0 -43 -43 -43h-65q-43 0 -43 43v54q0 43 43 43h65zM171 711q43 0 43 -43v-54q0 -43 -43 -43h-66q-43 0 -43 43v54q0 43 43 43h66zM212 493v-493h-147v493h147zM489 493v-470q0 -69 -34 -128.5t-93 -91.5l-81 65q61 69 61 155v470h147z" />
    <glyph glyph-name="Jcircumflex" unicode="&#x134;" horiz-adv-x="369" 
d="M281 913l132 -135l-41 -55l-141 95h-8l-142 -95l-41 59l134 131h107zM302 690v-545q0 -75 -41 -116t-115 -41q-83 0 -126 20l17 102h47q66 0 66 53v527h152z" />
    <glyph glyph-name="jcircumflex" unicode="&#x135;" horiz-adv-x="278" 
d="M193 735l132 -135l-41 -55l-141 95h-8l-142 -95l-41 59l134 131h107zM213 493v-470q0 -69 -34 -128.5t-93 -91.5l-81 65q61 69 61 155v470h147z" />
    <glyph glyph-name="Kcommaaccent" unicode="&#x136;" horiz-adv-x="631" 
d="M444 295l182 -295h-170l-182 304h-59q7 -40 7 -66v-238h-152v690h152v-195q0 -44 -7 -82h58l176 277h165l-178 -275q-17 -30 -50 -55v-4q36 -25 58 -61zM346 -52q26 0 36.5 -9t10.5 -33v-51q0 -79 -47 -147l-55 15q13 49 13 103q-37 0 -39 37l1 43q1 24 12 33t37 9h31z
" />
    <glyph glyph-name="kcommaaccent" unicode="&#x137;" horiz-adv-x="557" 
d="M408 220l145 -220h-166l-139 229h-46q7 -46 7 -74v-155h-148v700h148v-289q0 -49 -7 -90h46l122 172h166l-128 -171q-16 -27 -46 -47v-2q25 -17 46 -53zM307 -48q26 0 36.5 -9t10.5 -33v-51q0 -79 -47 -147l-55 15q13 49 13 103q-37 0 -39 37l1 43q1 24 12 33t37 9h31z
" />
    <glyph glyph-name="kgreenlandic" unicode="&#x138;" horiz-adv-x="557" 
d="M387 0l-135 202h-50q7 -45 7 -74v-128h-148v493h148v-109q0 -49 -7 -90h42l126 199h166l-129 -188q-22 -32 -46 -46v-3q13 -8 46 -53l146 -203h-166z" />
    <glyph glyph-name="Lacute" unicode="&#x139;" horiz-adv-x="532" 
d="M254 940l68 -102l-225 -109l-44 63zM220 690v-515q0 -27 12.5 -39t41.5 -12h237l7 -116q-101 -11 -292 -11q-80 0 -119 40t-39 107v546h152z" />
    <glyph glyph-name="lacute" unicode="&#x13a;" horiz-adv-x="327" 
d="M248 948l68 -102l-225 -109l-44 63zM209 700v-539q0 -50 56 -50h40l17 -103q-38 -20 -118 -20q-66 0 -104 35.5t-38 100.5v576h147z" />
    <glyph glyph-name="Lcommaaccent" unicode="&#x13b;" horiz-adv-x="532" 
d="M220 690v-515q0 -27 12.5 -39t41.5 -12h237l7 -116q-101 -11 -292 -11q-80 0 -119 40t-39 107v546h152zM310 -52q26 0 36.5 -9t10.5 -33v-51q0 -79 -47 -147l-55 15q13 49 13 103q-37 0 -39 37l1 43q1 24 12 33t37 9h31z" />
    <glyph glyph-name="lcommaaccent" unicode="&#x13c;" horiz-adv-x="327" 
d="M209 700v-539q0 -50 56 -50h40l17 -103q-38 -20 -118 -20q-66 0 -104 35.5t-38 100.5v576h147zM197 -52q26 0 36.5 -9t10.5 -33v-51q0 -79 -47 -147l-55 15q13 49 13 103q-37 0 -39 37l1 43q1 24 12 33t37 9h31z" />
    <glyph glyph-name="Lcaron" unicode="&#x13d;" horiz-adv-x="532" 
d="M220 690v-515q0 -27 12.5 -39t41.5 -12h237l7 -116q-101 -11 -292 -11q-80 0 -119 40t-39 107v546h152zM404 689q25 0 34 -9t9 -34v-53q1 -80 -43 -150l-52 15q12 47 12 106q-17 0 -26.5 10t-8.5 27l1 45q1 25 10.5 34t33.5 9h30z" />
    <glyph glyph-name="lcaron" unicode="&#x13e;" horiz-adv-x="327" 
d="M327 703q25 0 34 -9t9 -34v-53q1 -80 -43 -150l-52 15q12 47 12 106q-17 0 -26.5 10t-8.5 27l1 45q1 25 10.5 34t33.5 9h30zM209 700v-539q0 -50 56 -50h40l17 -103q-38 -20 -118 -20q-66 0 -104 35.5t-38 100.5v576h147z" />
    <glyph glyph-name="Ldot" unicode="&#x13f;" horiz-adv-x="532" 
d="M220 690v-515q0 -27 12.5 -39t41.5 -12h237l7 -116q-101 -11 -292 -11q-80 0 -119 40t-39 107v546h152zM283 -154q-41 0 -41 41v52q0 42 41 42h46q42 0 42 -42v-52q0 -41 -42 -41h-46z" />
    <glyph glyph-name="ldot" unicode="&#x140;" horiz-adv-x="388" 
d="M209 700v-539q0 -50 56 -50h40l17 -103q-38 -20 -118 -20q-66 0 -104 35.5t-38 100.5v576h147zM305 323q-41 0 -41 41v52q0 42 41 42h46q42 0 42 -42v-52q0 -41 -42 -41h-46z" />
    <glyph glyph-name="Lslash" unicode="&#x141;" horiz-adv-x="536" 
d="M515 124l7 -116q-101 -11 -292 -11q-80 0 -119 40t-39 107v166l-58 -23v82l58 23v298h152v-237l109 43v-82l-109 -43v-196q0 -27 12.5 -39t41.5 -12h237z" />
    <glyph glyph-name="lslash" unicode="&#x142;" horiz-adv-x="358" 
d="M329 111l17 -103q-38 -20 -118 -20q-66 0 -104 35.5t-38 100.5v185l-74 -30v82l74 30v309h147v-250l96 38v-82l-96 -38v-207q0 -50 56 -50h40z" />
    <glyph glyph-name="Nacute" unicode="&#x143;" horiz-adv-x="722" 
d="M484 940l68 -102l-225 -109l-44 63zM652 690v-635q0 -55 -54 -55h-95q-23 0 -36 10.5t-25 34.5l-181 368q-34 73 -42 107h-11q7 -50 7 -110v-410h-145v635q0 55 55 55h93q23 0 36 -10.5t25 -34.5l175 -357q25 -50 50 -111h10q-6 78 -6 116v397h144z" />
    <glyph glyph-name="nacute" unicode="&#x144;" horiz-adv-x="599" 
d="M489 659l-225 -109l-44 63l201 148zM403 507q67 0 102.5 -35t35.5 -102v-370h-147v324q0 33 -10.5 45.5t-37.5 12.5q-50 0 -138 -45l1 -337h-148v493h120l11 -73q106 87 211 87z" />
    <glyph glyph-name="Ncommaaccent" unicode="&#x145;" horiz-adv-x="722" 
d="M652 690v-635q0 -55 -54 -55h-95q-23 0 -36 10.5t-25 34.5l-181 368q-34 73 -42 107h-11q7 -50 7 -110v-410h-145v635q0 55 55 55h93q23 0 36 -10.5t25 -34.5l175 -357q25 -50 50 -111h10q-6 78 -6 116v397h144zM373 -52q26 0 36.5 -9t10.5 -33v-51q0 -79 -47 -147
l-55 15q13 49 13 103q-37 0 -39 37l1 43q1 24 12 33t37 9h31z" />
    <glyph glyph-name="ncommaaccent" unicode="&#x146;" horiz-adv-x="599" 
d="M403 507q67 0 102.5 -35t35.5 -102v-370h-147v324q0 33 -10.5 45.5t-37.5 12.5q-50 0 -138 -45l1 -337h-148v493h120l11 -73q106 87 211 87zM310 -48q26 0 36.5 -9t10.5 -33v-51q0 -79 -47 -147l-55 15q13 49 13 103q-37 0 -39 37l1 43q1 24 12 33t37 9h31z" />
    <glyph glyph-name="Ncaron" unicode="&#x147;" horiz-adv-x="722" 
d="M514 931l42 -59l-153 -131h-61l-153 131l41 59l138 -80h8zM652 690v-635q0 -55 -54 -55h-95q-23 0 -36 10.5t-25 34.5l-181 368q-34 73 -42 107h-11q7 -50 7 -110v-410h-145v635q0 55 55 55h93q23 0 36 -10.5t25 -34.5l175 -357q25 -50 50 -111h10q-6 78 -6 116v397h144z
" />
    <glyph glyph-name="ncaron" unicode="&#x148;" horiz-adv-x="599" 
d="M340 562h-61l-153 131l41 59l138 -80h8l138 80l42 -59zM403 507q67 0 102.5 -35t35.5 -102v-370h-147v324q0 33 -10.5 45.5t-37.5 12.5q-50 0 -138 -45l1 -337h-148v493h120l11 -73q106 87 211 87z" />
    <glyph glyph-name="Eng" unicode="&#x14a;" horiz-adv-x="722" 
d="M652 690v-746q0 -73 -38.5 -114t-102.5 -40q-69 0 -116 19l16 96h42q63 0 63 51v48h-24q-15 0 -36 39l-195 358q-19 35 -44 107h-9q7 -50 7 -107v-401h-145v635q0 55 55 55h79q23 0 36 -10t27 -35l186 -345q22 -40 50 -111h10q-6 57 -6 113v388h145z" />
    <glyph glyph-name="eng" unicode="&#x14b;" horiz-adv-x="599" 
d="M402 507q139 0 139 -137v-416q0 -74 -36 -114t-104 -40q-76 0 -118 19l16 96h39q56 0 56 52v357q0 30 -11 41.5t-39 11.5q-47 0 -136 -41l1 -336h-148v493h115l13 -75q107 89 213 89z" />
    <glyph glyph-name="Omacron" unicode="&#x14c;" horiz-adv-x="684" 
d="M493 871v-95h-300v95h300zM342 703q166 0 231 -76.5t65 -281.5t-65 -281.5t-231 -76.5t-230.5 76.5t-64.5 281.5t64.5 281.5t230.5 76.5zM342 580q-78 0 -106.5 -49t-28.5 -186t28.5 -186t106.5 -49t106.5 49t28.5 186t-28.5 186t-106.5 49z" />
    <glyph glyph-name="omacron" unicode="&#x14d;" 
d="M445 685v-95h-300v95h300zM294 507q138 0 195.5 -59.5t57.5 -201.5t-57.5 -200.5t-195.5 -58.5q-139 0 -196.5 58.5t-57.5 200.5q0 143 57.5 202t196.5 59zM294 396q-59 0 -79 -30t-20 -120q0 -88 20 -118t79 -30q57 0 77.5 30t20.5 118q0 89 -20 119.5t-78 30.5z" />
    <glyph glyph-name="Obreve" unicode="&#x14e;" horiz-adv-x="684" 
d="M436 901l71 -10q8 -64 -37.5 -107.5t-126.5 -43.5t-127 43.5t-38 107.5l71 10q0 -64 94 -64q47 0 70.5 16t22.5 48zM342 703q166 0 231 -76.5t65 -281.5t-65 -281.5t-231 -76.5t-230.5 76.5t-64.5 281.5t64.5 281.5t230.5 76.5zM342 580q-78 0 -106.5 -49t-28.5 -186
t28.5 -186t106.5 -49t106.5 49t28.5 186t-28.5 186t-106.5 49z" />
    <glyph glyph-name="obreve" unicode="&#x14f;" 
d="M388 715l71 -10q8 -64 -37.5 -107.5t-126.5 -43.5t-127 43.5t-38 107.5l71 10q0 -64 94 -64q47 0 70.5 16t22.5 48zM294 507q138 0 195.5 -59.5t57.5 -201.5t-57.5 -200.5t-195.5 -58.5q-139 0 -196.5 58.5t-57.5 200.5q0 143 57.5 202t196.5 59zM294 396q-59 0 -79 -30
t-20 -120q0 -88 20 -118t79 -30q57 0 77.5 30t20.5 118q0 89 -20 119.5t-78 30.5z" />
    <glyph glyph-name="Ohungarumlaut" unicode="&#x150;" horiz-adv-x="684" 
d="M284 953l97 -65l-152 -168l-60 48zM473 953l98 -65l-153 -168l-59 47zM342 703q166 0 231 -76.5t65 -281.5t-65 -281.5t-231 -76.5t-230.5 76.5t-64.5 281.5t64.5 281.5t230.5 76.5zM342 580q-78 0 -106.5 -49t-28.5 -186t28.5 -186t106.5 -49t106.5 49t28.5 186
t-28.5 186t-106.5 49z" />
    <glyph glyph-name="ohungarumlaut" unicode="&#x151;" 
d="M236 767l97 -65l-152 -168l-60 48zM425 767l98 -65l-153 -168l-59 47zM294 507q138 0 195.5 -59.5t57.5 -201.5t-57.5 -200.5t-195.5 -58.5q-139 0 -196.5 58.5t-57.5 200.5q0 143 57.5 202t196.5 59zM294 396q-59 0 -79 -30t-20 -120q0 -88 20 -118t79 -30q57 0 77.5 30
t20.5 118q0 89 -20 119.5t-78 30.5z" />
    <glyph glyph-name="OE" unicode="&#x152;" horiz-adv-x="945" 
d="M651 119h247l7 -112q-94 -10 -323 -10q-42 0 -77 22q-68 -32 -165 -32q-111 0 -173 32t-91 109t-29 217t29 217t91 109t173 32q97 0 174 -29q33 19 74 19q225 0 317 -10l-7 -113h-247q-28 0 -40.5 -12t-12.5 -39v-106h264v-108h-264v-134q0 -28 12.5 -40t40.5 -12z
M208 345q0 -137 27.5 -186t104.5 -49q64 0 106 11q-1 8 -1 23v402q0 8 2 24q-47 10 -107 10q-77 0 -104.5 -48.5t-27.5 -186.5z" />
    <glyph glyph-name="oe" unicode="&#x153;" horiz-adv-x="905" 
d="M661 105q81 0 181 12l14 -93q-77 -37 -213 -37q-117 0 -176 43q-56 -43 -175 -43q-138 0 -195 58.5t-57 200.5q0 143 57 202t195 59q115 0 173 -42q55 41 167 41q237 0 237 -164q0 -80 -38 -111t-133 -31h-155q6 -56 31.5 -75.5t86.5 -19.5zM635 398q-52 1 -72 -22
t-23 -90h132q32 0 43 12t10 46q-2 29 -22.5 41.5t-67.5 12.5zM292 98q54 0 75 25t24 96q-1 9 -1 28t1 27q-3 72 -24 97t-74 25q-58 0 -78 -30t-20 -120q0 -88 20 -118t77 -30z" />
    <glyph glyph-name="Racute" unicode="&#x154;" horiz-adv-x="643" 
d="M494 838l-225 -109l-44 63l201 148zM554 215l60 -215h-161l-52 211q-10 33 -26.5 45.5t-47.5 12.5h-107v-269h-150v690q93 9 263 9q139 0 197 -44t58 -160q0 -76 -30.5 -119t-101.5 -52v-5q79 -18 98 -104zM330 387q60 0 82 20.5t22 77.5t-21.5 77t-82.5 20
q-77 0 -110 -1v-194h110z" />
    <glyph glyph-name="racute" unicode="&#x155;" horiz-adv-x="425" 
d="M404 660l-225 -109l-44 63l201 148zM389 507h26l-15 -137h-40q-52 0 -151 -34v-336h-148v493h115l13 -73q103 87 200 87z" />
    <glyph glyph-name="Rcommaaccent" unicode="&#x156;" horiz-adv-x="643" 
d="M554 215l60 -215h-161l-52 211q-10 33 -26.5 45.5t-47.5 12.5h-107v-269h-150v690q93 9 263 9q139 0 197 -44t58 -160q0 -76 -30.5 -119t-101.5 -52v-5q79 -18 98 -104zM330 387q60 0 82 20.5t22 77.5t-21.5 77t-82.5 20q-77 0 -110 -1v-194h110zM351 -52q26 0 36.5 -9
t10.5 -33v-51q0 -79 -47 -147l-55 15q13 49 13 103q-37 0 -39 37l1 43q1 24 12 33t37 9h31z" />
    <glyph glyph-name="rcommaaccent" unicode="&#x157;" horiz-adv-x="425" 
d="M389 507h26l-15 -137h-40q-52 0 -151 -34v-336h-148v493h115l13 -73q103 87 200 87zM140 -48q26 0 36.5 -9t10.5 -33v-51q0 -79 -47 -147l-55 15q13 49 13 103q-37 0 -39 37l1 43q1 24 12 33t37 9h31z" />
    <glyph glyph-name="Rcaron" unicode="&#x158;" horiz-adv-x="643" 
d="M345 741h-61l-153 131l41 59l138 -80h8l138 80l42 -59zM554 215l60 -215h-161l-52 211q-10 33 -26.5 45.5t-47.5 12.5h-107v-269h-150v690q93 9 263 9q139 0 197 -44t58 -160q0 -76 -30.5 -119t-101.5 -52v-5q79 -18 98 -104zM330 387q60 0 82 20.5t22 77.5t-21.5 77
t-82.5 20q-77 0 -110 -1v-194h110z" />
    <glyph glyph-name="rcaron" unicode="&#x159;" horiz-adv-x="425" 
d="M255 563h-61l-153 131l41 59l138 -80h8l138 80l42 -59zM389 507h26l-15 -137h-40q-52 0 -151 -34v-336h-148v493h115l13 -73q103 87 200 87z" />
    <glyph glyph-name="Sacute" unicode="&#x15a;" horiz-adv-x="582" 
d="M407 940l68 -102l-225 -109l-44 63zM294 703q133 0 227 -27l-10 -104q-87 3 -216 3q-60 0 -80 -10.5t-20 -52.5q0 -34 15 -49t57 -29l131 -45q80 -28 113 -76.5t33 -126.5q0 -116 -56 -157.5t-200 -41.5q-117 0 -237 26l9 110q213 -5 228 -5q61 0 81.5 13t20.5 54
q0 35 -14 49.5t-51 26.5l-139 49q-77 28 -110 76t-33 126q0 114 55.5 152.5t195.5 38.5z" />
    <glyph glyph-name="sacute" unicode="&#x15b;" horiz-adv-x="527" 
d="M380 758l68 -102l-225 -109l-44 63zM247 507q133 -2 228 -19l-10 -95q-126 2 -190 2q-35 0 -48.5 -0.5t-27 -3.5t-16.5 -9.5t-3 -19.5q0 -5 0.5 -9t2.5 -7.5t3.5 -5.5t5.5 -4.5t6.5 -3.5t9 -3.5t10 -3.5t13 -3.5t14.5 -3.5l126 -34q66 -19 94 -50.5t28 -93.5
q0 -88 -51 -119.5t-175 -31.5q-120 0 -221 17l9 96q36 -2 171 -2q77 0 100.5 6.5t23.5 30.5q0 5 -0.5 9t-2.5 7.5t-4 5.5t-6.5 4.5t-7 4t-9.5 4t-11 3.5t-13.5 3.5t-15.5 4.5l-123 33q-68 20 -94 54.5t-26 95.5q0 77 47.5 109t162.5 32z" />
    <glyph glyph-name="Scircumflex" unicode="&#x15c;" horiz-adv-x="582" 
d="M349 913l132 -135l-41 -55l-141 95h-8l-142 -95l-41 59l134 131h107zM294 703q133 0 227 -27l-10 -104q-87 3 -216 3q-60 0 -80 -10.5t-20 -52.5q0 -34 15 -49t57 -29l131 -45q80 -28 113 -76.5t33 -126.5q0 -116 -56 -157.5t-200 -41.5q-117 0 -237 26l9 110
q213 -5 228 -5q61 0 81.5 13t20.5 54q0 35 -14 49.5t-51 26.5l-139 49q-77 28 -110 76t-33 126q0 114 55.5 152.5t195.5 38.5z" />
    <glyph glyph-name="scircumflex" unicode="&#x15d;" horiz-adv-x="527" 
d="M322 731l132 -135l-41 -55l-141 95h-8l-142 -95l-41 59l134 131h107zM247 507q133 -2 228 -19l-10 -95q-126 2 -190 2q-35 0 -48.5 -0.5t-27 -3.5t-16.5 -9.5t-3 -19.5q0 -5 0.5 -9t2.5 -7.5t3.5 -5.5t5.5 -4.5t6.5 -3.5t9 -3.5t10 -3.5t13 -3.5t14.5 -3.5l126 -34
q66 -19 94 -50.5t28 -93.5q0 -88 -51 -119.5t-175 -31.5q-120 0 -221 17l9 96q36 -2 171 -2q77 0 100.5 6.5t23.5 30.5q0 5 -0.5 9t-2.5 7.5t-4 5.5t-6.5 4.5t-7 4t-9.5 4t-11 3.5t-13.5 3.5t-15.5 4.5l-123 33q-68 20 -94 54.5t-26 95.5q0 77 47.5 109t162.5 32z" />
    <glyph glyph-name="Scedilla" unicode="&#x15e;" horiz-adv-x="582" 
d="M294 703q133 0 227 -27l-10 -104q-87 3 -216 3q-60 0 -80 -10.5t-20 -52.5q0 -34 15 -49t57 -29l131 -45q80 -28 113 -76.5t33 -126.5q0 -116 -56 -157.5t-200 -41.5q-117 0 -237 26l9 110q213 -5 228 -5q61 0 81.5 13t20.5 54q0 35 -14 49.5t-51 26.5l-139 49
q-77 28 -110 76t-33 126q0 114 55.5 152.5t195.5 38.5zM237 -50q83 9 114.5 -3t29.5 -62q-3 -73 -59 -109.5t-141 -25.5l19 65q82 -2 86 58q1 13 -10.5 16t-52.5 3z" />
    <glyph glyph-name="scedilla" unicode="&#x15f;" horiz-adv-x="527" 
d="M247 507q133 -2 228 -19l-10 -95q-126 2 -190 2q-35 0 -48.5 -0.5t-27 -3.5t-16.5 -9.5t-3 -19.5q0 -5 0.5 -9t2.5 -7.5t3.5 -5.5t5.5 -4.5t6.5 -3.5t9 -3.5t10 -3.5t13 -3.5t14.5 -3.5l126 -34q66 -19 94 -50.5t28 -93.5q0 -88 -51 -119.5t-175 -31.5q-120 0 -221 17
l9 96q36 -2 171 -2q77 0 100.5 6.5t23.5 30.5q0 5 -0.5 9t-2.5 7.5t-4 5.5t-6.5 4.5t-7 4t-9.5 4t-11 3.5t-13.5 3.5t-15.5 4.5l-123 33q-68 20 -94 54.5t-26 95.5q0 77 47.5 109t162.5 32zM198 -51q83 9 114.5 -3t29.5 -62q-3 -73 -59 -109.5t-141 -25.5l19 65q82 -2 86 58
q1 13 -10.5 16t-52.5 3z" />
    <glyph glyph-name="Scaron" unicode="&#x160;" horiz-adv-x="582" 
d="M437 931l42 -59l-153 -131h-61l-153 131l41 59l138 -80h8zM294 703q133 0 227 -27l-10 -104q-87 3 -216 3q-60 0 -80 -10.5t-20 -52.5q0 -34 15 -49t57 -29l131 -45q80 -28 113 -76.5t33 -126.5q0 -116 -56 -157.5t-200 -41.5q-117 0 -237 26l9 110q213 -5 228 -5
q61 0 81.5 13t20.5 54q0 35 -14 49.5t-51 26.5l-139 49q-77 28 -110 76t-33 126q0 114 55.5 152.5t195.5 38.5z" />
    <glyph glyph-name="scaron" unicode="&#x161;" horiz-adv-x="527" 
d="M410 749l42 -59l-153 -131h-61l-153 131l41 59l138 -80h8zM247 507q133 -2 228 -19l-10 -95q-126 2 -190 2q-35 0 -48.5 -0.5t-27 -3.5t-16.5 -9.5t-3 -19.5q0 -5 0.5 -9t2.5 -7.5t3.5 -5.5t5.5 -4.5t6.5 -3.5t9 -3.5t10 -3.5t13 -3.5t14.5 -3.5l126 -34q66 -19 94 -50.5
t28 -93.5q0 -88 -51 -119.5t-175 -31.5q-120 0 -221 17l9 96q36 -2 171 -2q77 0 100.5 6.5t23.5 30.5q0 5 -0.5 9t-2.5 7.5t-4 5.5t-6.5 4.5t-7 4t-9.5 4t-11 3.5t-13.5 3.5t-15.5 4.5l-123 33q-68 20 -94 54.5t-26 95.5q0 77 47.5 109t162.5 32z" />
    <glyph glyph-name="uni0162" unicode="&#x162;" horiz-adv-x="601" 
d="M583 690v-124h-206v-566h-153v566h-206v124h565zM240 -46q83 9 114.5 -3t29.5 -62q-3 -73 -59 -109.5t-141 -25.5l19 65q82 -2 86 58q1 13 -10.5 16t-52.5 3z" />
    <glyph glyph-name="uni0163" unicode="&#x163;" horiz-adv-x="411" 
d="M390 394h-137v-233q0 -28 12 -39t42 -11h63l16 -103q-57 -20 -139 -20q-67 0 -104 37.5t-37 104.5v264h-87v94l87 5v138h147v-138h137v-99zM202 -49q83 9 114.5 -3t29.5 -62q-3 -73 -59 -109.5t-141 -25.5l19 65q82 -2 86 58q1 13 -10.5 16t-52.5 3z" />
    <glyph glyph-name="Tcaron" unicode="&#x164;" horiz-adv-x="601" 
d="M331 741h-61l-153 131l41 59l138 -80h8l138 80l42 -59zM583 690v-124h-206v-566h-153v566h-206v124h565z" />
    <glyph glyph-name="tcaron" unicode="&#x165;" horiz-adv-x="411" 
d="M330 659q-17 0 -26.5 10t-8.5 27l1 45q1 25 10.5 34t33.5 9h30q25 0 34 -9t9 -34v-53q1 -80 -43 -150l-52 15q12 47 12 106zM253 631v-138h137v-99h-137v-233q0 -28 12 -39t42 -11h63l16 -103q-57 -20 -139 -20q-67 0 -104 37.5t-37 104.5v264h-87v94l87 5v138h147z" />
    <glyph glyph-name="Tbar" unicode="&#x166;" horiz-adv-x="603" 
d="M584 566h-206v-166h127v-73h-127v-327h-153v327h-129v73h129v166h-206v124h565v-124z" />
    <glyph glyph-name="tbar" unicode="&#x167;" horiz-adv-x="411" 
d="M390 394h-137v-89h106v-72h-106v-72q0 -28 12 -39t42 -11h63l16 -103q-57 -20 -139 -20q-67 0 -104 37.5t-37 104.5v103h-60v72h60v89h-87v94l87 5v138h147v-138h137v-99z" />
    <glyph glyph-name="Utilde" unicode="&#x168;" horiz-adv-x="681" 
d="M249 899q36 -3 86 -23.5t73 -24.5q24 -4 31.5 6t7.5 37h63q11 -68 -13 -106t-68 -35q-38 3 -90 25t-70 25q-24 3 -31 -7t-7 -39h-63q-11 71 14 108t67 34zM617 690v-415q0 -158 -60.5 -223t-208.5 -65q-156 0 -219.5 65t-63.5 223v415h152v-415q0 -95 26.5 -130t97.5 -35
q70 0 96.5 35t26.5 130v415h153z" />
    <glyph glyph-name="utilde" unicode="&#x169;" horiz-adv-x="590" 
d="M183 581h-63q-11 71 14 108t67 34q36 -3 86 -23.5t73 -24.5q24 -4 31.5 6t7.5 37h63q11 -68 -13 -106t-68 -35q-38 3 -90 25t-70 25q-24 3 -31 -7t-7 -39zM382 493h147v-493h-117l-11 68q-100 -81 -204 -81q-139 0 -139 137v369h148v-324q-1 -32 11 -45t42 -13
q47 0 123 41v341z" />
    <glyph glyph-name="Umacron" unicode="&#x16a;" horiz-adv-x="681" 
d="M492 871v-95h-300v95h300zM617 690v-415q0 -158 -60.5 -223t-208.5 -65q-156 0 -219.5 65t-63.5 223v415h152v-415q0 -95 26.5 -130t97.5 -35q70 0 96.5 35t26.5 130v415h153z" />
    <glyph glyph-name="umacron" unicode="&#x16b;" horiz-adv-x="590" 
d="M444 695v-95h-300v95h300zM382 493h147v-493h-117l-11 68q-100 -81 -204 -81q-139 0 -139 137v369h148v-324q-1 -32 11 -45t42 -13q47 0 123 41v341z" />
    <glyph glyph-name="Ubreve" unicode="&#x16c;" horiz-adv-x="681" 
d="M435 901l71 -10q8 -64 -37.5 -107.5t-126.5 -43.5t-127 43.5t-38 107.5l71 10q0 -64 94 -64q47 0 70.5 16t22.5 48zM617 690v-415q0 -158 -60.5 -223t-208.5 -65q-156 0 -219.5 65t-63.5 223v415h152v-415q0 -95 26.5 -130t97.5 -35q70 0 96.5 35t26.5 130v415h153z" />
    <glyph glyph-name="ubreve" unicode="&#x16d;" horiz-adv-x="590" 
d="M294 564q-81 0 -127 43.5t-38 107.5l71 10q0 -64 94 -64q47 0 70.5 16t22.5 48l71 -10q8 -64 -37.5 -107.5t-126.5 -43.5zM382 493h147v-493h-117l-11 68q-100 -81 -204 -81q-139 0 -139 137v369h148v-324q-1 -32 11 -45t42 -13q47 0 123 41v341z" />
    <glyph glyph-name="Uring" unicode="&#x16e;" horiz-adv-x="681" 
d="M342 949q48 0 83 -33.5t35 -81.5q0 -49 -34.5 -82t-83.5 -33t-83.5 33t-34.5 82q0 48 34.5 81.5t83.5 33.5zM342 885q-22 0 -36 -14.5t-14 -36.5q0 -24 14 -38t36 -14q21 0 35.5 14.5t14.5 37.5q0 22 -14.5 36.5t-35.5 14.5zM617 690v-415q0 -158 -60.5 -223t-208.5 -65
q-156 0 -219.5 65t-63.5 223v415h152v-415q0 -95 26.5 -130t97.5 -35q70 0 96.5 35t26.5 130v415h153z" />
    <glyph glyph-name="uring" unicode="&#x16f;" horiz-adv-x="590" 
d="M294 543q-49 0 -83.5 33t-34.5 82q0 48 34.5 81.5t83.5 33.5q48 0 83 -33.5t35 -81.5q0 -49 -34.5 -82t-83.5 -33zM294 709q-22 0 -36 -14.5t-14 -36.5q0 -24 14 -38t36 -14q21 0 35.5 14.5t14.5 37.5q0 22 -14.5 36.5t-35.5 14.5zM382 493h147v-493h-117l-11 68
q-100 -81 -204 -81q-139 0 -139 137v369h148v-324q-1 -32 11 -45t42 -13q47 0 123 41v341z" />
    <glyph glyph-name="Uhungarumlaut" unicode="&#x170;" horiz-adv-x="681" 
d="M283 953l97 -65l-152 -168l-60 48zM472 953l98 -65l-153 -168l-59 47zM617 690v-415q0 -158 -60.5 -223t-208.5 -65q-156 0 -219.5 65t-63.5 223v415h152v-415q0 -95 26.5 -130t97.5 -35q70 0 96.5 35t26.5 130v415h153z" />
    <glyph glyph-name="uhungarumlaut" unicode="&#x171;" horiz-adv-x="590" 
d="M332 712l-152 -168l-60 48l115 185zM369 544l-59 47l114 186l98 -65zM382 493h147v-493h-117l-11 68q-100 -81 -204 -81q-139 0 -139 137v369h148v-324q-1 -32 11 -45t42 -13q47 0 123 41v341z" />
    <glyph glyph-name="Uogonek" unicode="&#x172;" horiz-adv-x="681" 
d="M464 690h153v-415q0 -149 -53 -214.5t-181 -72.5q-38 -56 -55 -93q-14 -30 5.5 -39.5t57.5 1.5l13 -55q-73 -27 -115.5 -19t-57.5 36t-2 65q18 54 87 104q-138 6 -194.5 71.5t-56.5 215.5v415h152v-415q0 -95 26.5 -130t97.5 -35q70 0 96.5 35t26.5 130v415z" />
    <glyph glyph-name="uogonek" unicode="&#x173;" horiz-adv-x="590" 
d="M534 -138l13 -55q-73 -27 -115.5 -19t-57.5 36t-2 65q20 58 97 111h-57l-11 68q-100 -81 -204 -81q-139 0 -139 137v369h148v-324q-1 -32 11 -45t42 -13q47 0 123 41v341h147v-493h2q-43 -60 -60 -100q-14 -30 5.5 -39.5t57.5 1.5z" />
    <glyph glyph-name="Wcircumflex" unicode="&#x174;" horiz-adv-x="973" 
d="M541 913l132 -135l-41 -55l-141 95h-8l-142 -95l-41 59l134 131h107zM947 690l-109 -648q-4 -19 -19 -30.5t-36 -11.5h-146q-21 0 -36 12t-18 31l-75 451q-8 44 -12 87h-19q0 -3 -4.5 -37t-7.5 -51l-74 -450q-3 -19 -18.5 -31t-36.5 -12h-146q-20 0 -35.5 11.5
t-19.5 30.5l-109 648h156l67 -479q6 -45 9 -100h20q3 28 15 100l74 432q3 21 17.5 34t36.5 13h132q21 0 35.5 -13t17.5 -34l74 -433q12 -74 14 -99h21q4 57 9 98l68 481h155z" />
    <glyph glyph-name="wcircumflex" unicode="&#x175;" horiz-adv-x="847" 
d="M479 731l132 -135l-41 -55l-141 95h-8l-142 -95l-41 59l134 131h107zM831 493l-121 -454q-10 -39 -51 -39h-116q-20 0 -35 12.5t-18 32.5l-50 279q-1 9 -4.5 38t-6.5 45h-12l-12 -83l-49 -279q-3 -20 -18 -32.5t-36 -12.5h-114q-41 0 -51 39l-121 454h149l67 -320
q10 -54 12 -81h13q2 14 6.5 41t6.5 40l50 276q7 44 51 44h104q20 0 34.5 -12t17.5 -33l49 -275q2 -14 7 -41t7 -40h12l12 81l68 320h149z" />
    <glyph glyph-name="Ycircumflex" unicode="&#x176;" horiz-adv-x="608" 
d="M301 810l-142 -95l-41 59l134 131h107l132 -135l-41 -55l-141 95h-8zM607 690l-226 -461v-229h-153v229l-228 461h159l115 -253q10 -22 26 -87h10q12 54 25 87l115 253h157z" />
    <glyph glyph-name="ycircumflex" unicode="&#x177;" horiz-adv-x="562" 
d="M281 640l-142 -95l-41 59l134 131h107l132 -135l-41 -55l-141 95h-8zM396 493h158l-175 -500q-14 -40 -34.5 -74t-52.5 -65.5t-79.5 -46.5t-105.5 -8l-12 87q60 16 94 41.5t53 68.5l2 4h-28q-37 0 -48 36l-161 457h158l92 -319q9 -35 15 -74h13q9 29 20 74z" />
    <glyph glyph-name="Ydieresis" unicode="&#x178;" horiz-adv-x="608" 
d="M189 754q-32 0 -32 33v58q0 33 32 33h49q32 0 32 -33v-58q0 -33 -32 -33h-49zM371 754q-33 0 -33 33v58q0 33 33 33h48q33 0 33 -33v-58q0 -33 -33 -33h-48zM607 690l-226 -461v-229h-153v229l-228 461h159l115 -253q10 -22 26 -87h10q12 54 25 87l115 253h157z" />
    <glyph glyph-name="Zacute" unicode="&#x179;" horiz-adv-x="583" 
d="M471 838l-225 -109l-44 63l201 148zM209 117h335v-117h-504v117l328 456h-320v117h488v-117z" />
    <glyph glyph-name="zacute" unicode="&#x17a;" horiz-adv-x="525" 
d="M447 660l-225 -109l-44 63l201 148zM209 106h276v-106h-445v106l272 282h-267v105h435v-105z" />
    <glyph glyph-name="Zdotaccent" unicode="&#x17b;" horiz-adv-x="583" 
d="M268 752q-42 0 -42 42v52q0 41 42 41h46q41 0 41 -41v-52q0 -42 -41 -42h-46zM209 117h335v-117h-504v117l328 456h-320v117h488v-117z" />
    <glyph glyph-name="zdotaccent" unicode="&#x17c;" horiz-adv-x="525" 
d="M244 574q-42 0 -42 42v52q0 41 42 41h46q41 0 41 -41v-52q0 -42 -41 -42h-46zM209 106h276v-106h-445v106l272 282h-267v105h435v-105z" />
    <glyph glyph-name="Zcaron" unicode="&#x17d;" horiz-adv-x="583" 
d="M322 741h-61l-153 131l41 59l138 -80h8l138 80l42 -59zM209 117h335v-117h-504v117l328 456h-320v117h488v-117z" />
    <glyph glyph-name="zcaron" unicode="&#x17e;" horiz-adv-x="525" 
d="M298 563h-61l-153 131l41 59l138 -80h8l138 80l42 -59zM209 106h276v-106h-445v106l272 282h-267v105h435v-105z" />
    <glyph glyph-name="uni018F" unicode="&#x18f;" horiz-adv-x="651" 
d="M301 703q173 0 238 -81t65 -278q0 -194 -62 -275t-216 -81q-284 0 -284 229q0 91 45.5 139t130.5 48h233q-4 103 -35 140.5t-122 37.5q-106 0 -217 -16l-14 99q97 38 238 38zM318 110q73 0 101 40.5t32 137.5h-191q-66 0 -66 -74q0 -53 27.5 -78.5t96.5 -25.5z" />
    <glyph glyph-name="florin" unicode="&#x192;" horiz-adv-x="478" 
d="M378 593q-34 0 -48.5 -13t-17.5 -50l-11 -124h118l-9 -100h-118l-29 -316q-13 -153 -170 -153q-79 0 -128 10l21 99h64q34 0 48.5 14t17.5 49l27 297h-96l7 95l98 5l13 144q15 152 173 152q79 0 129 -10l-22 -99h-67z" />
    <glyph glyph-name="Ohorn" unicode="&#x1a0;" horiz-adv-x="696" 
d="M719 721q-1 -55 -33 -93t-83 -50q35 -80 35 -233q0 -205 -65 -281.5t-231 -76.5t-230.5 76.5t-64.5 281.5t64.5 281.5t230.5 76.5q154 0 218 -63q59 17 65 86zM342 110q78 0 106.5 49t28.5 186t-28.5 186t-106.5 49t-106.5 -49t-28.5 -186t28.5 -186t106.5 -49z" />
    <glyph glyph-name="ohorn" unicode="&#x1a1;" horiz-adv-x="613" 
d="M634 543q-1 -55 -32.5 -92.5t-80.5 -49.5q26 -56 26 -155q0 -142 -57.5 -200.5t-195.5 -58.5q-139 0 -196.5 58.5t-57.5 200.5q0 143 57.5 202t196.5 59q122 0 180 -45q60 15 66 86zM294 98q57 0 77.5 30t20.5 118q0 89 -20 119.5t-78 30.5q-59 0 -79 -30t-20 -120
q0 -88 20 -118t79 -30z" />
    <glyph glyph-name="Uhorn" unicode="&#x1af;" horiz-adv-x="737" 
d="M767 721q-1 -65 -44 -105t-106 -43v-298q0 -158 -60.5 -223t-208.5 -65q-156 0 -219.5 65t-63.5 223v415h152v-415q0 -95 26.5 -130t97.5 -35q70 0 96.5 35t26.5 130v415h153v-47q51 20 56 83z" />
    <glyph glyph-name="uhorn" unicode="&#x1b0;" horiz-adv-x="647" 
d="M681 543q-1 -65 -45 -105.5t-107 -42.5v-395h-117l-11 68q-100 -81 -204 -81q-139 0 -139 137v369h148v-324q-1 -32 11 -45t42 -13q47 0 123 41v341h147v-29q53 20 58 84z" />
    <glyph glyph-name="uni01C4" unicode="&#x1c4;" horiz-adv-x="1258" 
d="M997 741h-61l-153 131l41 59l138 -80h8l138 80l42 -59zM338 699q165 0 229.5 -76t64.5 -278t-64.5 -278t-229.5 -76q-126 0 -268 9v690q142 9 268 9zM884 117h335v-117h-504v117l328 456h-320v117h488v-117zM338 111q77 0 105.5 49t28.5 185t-28.5 185.5t-105.5 49.5
q-23 0 -61.5 -0.5t-54.5 -0.5v-467q17 0 55.5 -0.5t60.5 -0.5z" />
    <glyph glyph-name="uni01C5" unicode="&#x1c5;" horiz-adv-x="1205" 
d="M978 563h-61l-153 131l41 59l138 -80h8l138 80l42 -59zM338 699q165 0 229.5 -76t64.5 -278t-64.5 -278t-229.5 -76q-126 0 -268 9v690q142 9 268 9zM338 111q77 0 105.5 49t28.5 185t-28.5 185.5t-105.5 49.5q-23 0 -61.5 -0.5t-54.5 -0.5v-467q17 0 55.5 -0.5
t60.5 -0.5zM889 106h276v-106h-445v106l272 282h-267v105h435v-105z" />
    <glyph glyph-name="uni01C6" unicode="&#x1c6;" horiz-adv-x="1119" 
d="M892 563h-61l-153 131l41 59l138 -80h8l138 80l42 -59zM385 566v134h148v-700h-117l-11 73q-74 -85 -189 -85q-92 0 -133.5 66.5t-41.5 196.5q0 142 46 199t143 57q96 0 160 -44q-5 55 -5 103zM803 106h276v-106h-445v106l272 282h-267v105h435v-105zM193 252
q0 -85 18 -113.5t64 -28.5q31 0 53 8.5t57 31.5v228q-68 19 -105 19q-50 0 -68.5 -28t-18.5 -117z" />
    <glyph glyph-name="uni01C7" unicode="&#x1c7;" horiz-adv-x="901" 
d="M220 690v-515q0 -27 12.5 -39t41.5 -12h237l7 -116q-101 -11 -292 -11q-80 0 -119 40t-39 107v546h152zM834 690v-545q0 -75 -41 -116t-115 -41q-83 0 -126 20l17 102h47q66 0 66 53v527h152z" />
    <glyph glyph-name="uni01C8" unicode="&#x1c8;" horiz-adv-x="810" 
d="M703 715q43 0 43 -43v-54q0 -43 -43 -43h-65q-43 0 -43 43v54q0 43 43 43h65zM220 690v-515q0 -27 12.5 -39t41.5 -12h237l7 -116q-101 -11 -292 -11q-80 0 -119 40t-39 107v546h152zM745 493v-470q0 -69 -34 -128.5t-93 -91.5l-81 65q61 69 61 155v470h147z" />
    <glyph glyph-name="uni01C9" unicode="&#x1c9;" horiz-adv-x="605" 
d="M498 715q43 0 43 -43v-54q0 -43 -43 -43h-65q-43 0 -43 43v54q0 43 43 43h65zM209 700v-539q0 -50 56 -50h40l17 -103q-38 -20 -118 -20q-66 0 -104 35.5t-38 100.5v576h147zM540 493v-470q0 -69 -34 -128.5t-93 -91.5l-81 65q61 69 61 155v470h147z" />
    <glyph glyph-name="uni01CA" unicode="&#x1ca;" horiz-adv-x="1091" 
d="M652 690v-635q0 -55 -54 -55h-95q-23 0 -36 10.5t-25 34.5l-181 368q-34 73 -42 107h-11q7 -50 7 -110v-410h-145v635q0 55 55 55h93q23 0 36 -10.5t25 -34.5l175 -357q25 -50 50 -111h10q-6 78 -6 116v397h144zM1024 690v-545q0 -75 -41 -116t-115 -41q-83 0 -126 20
l17 102h47q66 0 66 53v527h152z" />
    <glyph glyph-name="uni01CB" unicode="&#x1cb;" horiz-adv-x="1000" 
d="M893 715q43 0 43 -43v-54q0 -43 -43 -43h-65q-43 0 -43 43v54q0 43 43 43h65zM652 690v-635q0 -55 -54 -55h-95q-23 0 -36 10.5t-25 34.5l-181 368q-34 73 -42 107h-11q7 -50 7 -110v-410h-145v635q0 55 55 55h93q23 0 36 -10.5t25 -34.5l175 -357q25 -50 50 -111h10
q-6 78 -6 116v397h144zM935 493v-470q0 -69 -34 -128.5t-93 -91.5l-81 65q61 69 61 155v470h147z" />
    <glyph glyph-name="uni01CC" unicode="&#x1cc;" horiz-adv-x="877" 
d="M770 715q43 0 43 -43v-54q0 -43 -43 -43h-65q-43 0 -43 43v54q0 43 43 43h65zM403 507q67 0 102.5 -35t35.5 -102v-370h-147v324q0 33 -10.5 45.5t-37.5 12.5q-50 0 -138 -45l1 -337h-148v493h120l11 -73q106 87 211 87zM665 23v470h147v-470q0 -69 -34 -128.5t-93 -91.5
l-81 65q61 69 61 155z" />
    <glyph glyph-name="Gcaron" unicode="&#x1e6;" horiz-adv-x="645" 
d="M369 747h-61l-153 131l41 59l138 -80h8l138 80l42 -59zM445 398h147v-398h-112l-14 70q-79 -83 -199 -83q-116 0 -168 85t-52 275q0 202 68.5 279t240.5 77q125 0 212 -24l-12 -112q-113 5 -195 5q-46 0 -72.5 -7.5t-46.5 -32.5t-27 -69.5t-7 -120.5q0 -129 24 -177
t89 -48q61 0 124 35v246z" />
    <glyph glyph-name="gcaron" unicode="&#x1e7;" horiz-adv-x="579" 
d="M311 559h-61l-153 131l41 59l138 -80h8l138 80l42 -59zM566 493l-7 -65l-61 -8q11 -28 11 -71q0 -86 -51.5 -122t-180.5 -36q-44 0 -86 5q-11 -15 -3.5 -35.5t33.5 -23.5l179 -21q76 -9 109.5 -44t33.5 -103q0 -94 -56.5 -127t-202.5 -33q-152 0 -206 31.5t-54 115.5
q0 38 18 62.5t60 44.5q-34 33 -27.5 81.5t43.5 70.5q-73 34 -73 133q0 87 52 123t181 36q83 0 131 -14h157zM277 285q54 0 74.5 14t20.5 50q0 37 -20 50t-75 13t-75.5 -13t-20.5 -50q0 -36 20.5 -50t75.5 -14zM402 -27q0 26 -15 33t-66 13l-124 14q-32 -28 -32 -58
q0 -36 22 -46t95 -10t96.5 10.5t23.5 43.5z" />
    <glyph glyph-name="uni01EA" unicode="&#x1ea;" horiz-adv-x="684" 
d="M379 -12q-36 -54 -51 -88q-14 -30 5.5 -39.5t57.5 1.5l13 -55q-73 -27 -115.5 -19t-57.5 36t-2 65q18 52 80 99q-146 6 -204 83.5t-58 273.5q0 205 64.5 281.5t230.5 76.5t231 -76.5t65 -281.5q0 -194 -57.5 -272t-201.5 -85zM207 345q0 -137 28.5 -186t106.5 -49
t106.5 49t28.5 186t-28.5 186t-106.5 49t-106.5 -49t-28.5 -186z" />
    <glyph glyph-name="uni01EB" unicode="&#x1eb;" 
d="M330 -12q-34 -48 -51 -87q-14 -30 5.5 -39.5t57.5 1.5l13 -55q-73 -27 -115.5 -19t-57.5 36t-2 65q17 50 79 98q-119 7 -169 66t-50 192q0 143 57.5 202t196.5 59q138 0 195.5 -59.5t57.5 -201.5q0 -132 -50 -191.5t-167 -66.5zM195 246q0 -88 20 -118t79 -30
q57 0 77.5 30t20.5 118q0 89 -20 119.5t-78 30.5q-59 0 -79 -30t-20 -120z" />
    <glyph glyph-name="Aringacute" unicode="&#x1fa;" horiz-adv-x="650" 
d="M448 982l-206 -96l-41 62l181 134zM208 770q0 48 34.5 81.5t83.5 33.5q48 0 83 -33.5t35 -81.5q0 -49 -34.5 -82t-83.5 -33t-83.5 33t-34.5 82zM376 770q0 22 -14.5 36.5t-35.5 14.5q-22 0 -36 -14.5t-14 -36.5q0 -24 14 -38t36 -14q21 0 35.5 14.5t14.5 37.5zM494 0
l-50 161h-237l-50 -161h-156l199 590q13 40 53 40h144q40 0 53 -40l199 -590h-155zM244 279h163l-54 171q-9 33 -14 65h-27q-1 -5 -6 -29t-9 -36z" />
    <glyph glyph-name="aringacute" unicode="&#x1fb;" horiz-adv-x="567" 
d="M405 863l-205 -96l-42 61l182 135zM169 647q0 48 34.5 81.5t83.5 33.5q48 0 83 -33.5t35 -81.5q0 -49 -34.5 -82t-83.5 -33t-83.5 33t-34.5 82zM337 647q0 22 -14.5 36.5t-35.5 14.5q-22 0 -36 -14.5t-14 -36.5q0 -23 14.5 -37.5t35.5 -14.5t35.5 14.5t14.5 37.5z
M317 507q100 0 147 -40.5t47 -140.5v-326h-117l-15 75q-74 -87 -182 -87q-71 0 -116 37.5t-45 104.5v50q0 59 40 92t111 33h176v22q-1 38 -17.5 51t-63.5 13q-82 0 -208 -8l-14 100q133 24 257 24zM182 150q0 -51 58 -51q60 0 123 48v69h-133q-48 -1 -48 -47v-19z" />
    <glyph glyph-name="AEacute" unicode="&#x1fc;" horiz-adv-x="931" 
d="M750 833l-225 -109l-44 64l202 148zM639 119h245l7 -112q-99 -10 -317 -10q-59 0 -94.5 39t-35.5 100v54h-203l-95 -190h-157l291 558q26 52 58 79.5t86.5 40.5t144.5 13q217 0 322 -8l-7 -112h-245q-23 0 -38 -14.5t-15 -39.5v-104h261v-108h-261v-134q0 -28 12.5 -40
t40.5 -12zM297 304h147v224q0 40 23 67h-11q-19 -16 -40 -53z" />
    <glyph glyph-name="aeacute" unicode="&#x1fd;" horiz-adv-x="875" 
d="M638 663l-225 -109l-44 64l202 148zM631 106q77 0 182 11l14 -92q-77 -37 -214 -37q-169 0 -223 97q-76 -97 -195 -97q-70 0 -114.5 37.5t-44.5 104.5v50q0 58 40 91t110 33h173v23q0 37 -16.5 50.5t-62.5 13.5q-81 0 -207 -8l-13 100q131 24 254 24q90 0 135 -32
q54 32 159 32q122 0 176.5 -42.5t54.5 -129.5q1 -69 -34.5 -103.5t-114.5 -34.5h-178q7 -54 33 -72.5t86 -18.5zM613 399q-58 1 -79.5 -21.5t-24.5 -91.5h140q27 0 36.5 13t9.5 38q0 35 -18 48.5t-64 13.5zM238 99q63 0 128 53q-5 25 -7 64h-130q-47 -1 -47 -47v-19
q0 -51 56 -51z" />
    <glyph glyph-name="Oslashacute" unicode="&#x1fe;" horiz-adv-x="684" 
d="M523 839l-225 -109l-44 64l202 148zM524 667q61 -34 87.5 -110t26.5 -212q0 -205 -65 -281.5t-231 -76.5q-79 0 -129 14l-31 -65l-56 24l30 65q-58 35 -83.5 111t-25.5 209q0 205 64.5 281.5t230.5 76.5q74 0 125 -13l31 65l56 -24zM207 345q0 -116 20 -169l183 391
q-26 13 -68 13q-78 0 -106.5 -49t-28.5 -186zM342 110q78 0 106.5 49t28.5 186q0 123 -22 174l-185 -395q27 -14 72 -14z" />
    <glyph glyph-name="oslashacute" unicode="&#x1ff;" 
d="M480 653l-225 -109l-44 64l202 148zM461 471q86 -55 86 -225q0 -142 -57.5 -200.5t-195.5 -58.5q-34 0 -64 3l-43 -89l-102 50l36 75q-81 55 -81 220q0 143 57.5 202t196.5 59q32 0 57 -3l45 93l102 -51zM294 98q57 0 77.5 30t20.5 118q0 89 -20 119.5t-78 30.5
q-59 0 -79 -30t-20 -120q0 -88 20 -118t79 -30z" />
    <glyph glyph-name="uni0200" unicode="&#x200;" horiz-adv-x="650" 
d="M294 769l-60 -47l-152 168l97 65zM484 770l-61 -48l-152 168l98 65zM494 0l-50 181h-237l-50 -181h-156l199 650q4 18 19 29t34 11h144q43 0 53 -40l199 -650h-155zM239 299h172l-58 211q-12 50 -14 65h-27l-15 -65z" />
    <glyph glyph-name="uni0201" unicode="&#x201;" horiz-adv-x="567" 
d="M255 599l-60 -47l-152 168l97 65zM445 600l-61 -48l-152 168l98 65zM317 507q100 0 147 -40.5t47 -140.5v-326h-117l-15 75q-74 -87 -182 -87q-71 0 -116 37.5t-45 104.5v50q0 59 40 92t111 33h176v22q-1 38 -17.5 51t-63.5 13q-82 0 -208 -8l-14 100q133 24 257 24z
M182 150q0 -51 58 -51q60 0 123 48v69h-133q-48 -1 -48 -47v-19z" />
    <glyph glyph-name="uni0202" unicode="&#x202;" horiz-adv-x="650" 
d="M232 740l-71 10q-8 64 37.5 108t126.5 44t127 -44t38 -108l-70 -10q0 65 -95 65q-93 0 -93 -65zM494 0l-50 181h-237l-50 -181h-156l199 650q4 18 19 29t34 11h144q43 0 53 -40l199 -650h-155zM239 299h172l-58 211q-12 50 -14 65h-27l-15 -65z" />
    <glyph glyph-name="uni0203" unicode="&#x203;" horiz-adv-x="567" 
d="M193 570l-71 10q-8 64 37.5 108t126.5 44t127 -44t38 -108l-70 -10q0 65 -95 65q-93 0 -93 -65zM317 507q100 0 147 -40.5t47 -140.5v-326h-117l-15 75q-74 -87 -182 -87q-71 0 -116 37.5t-45 104.5v50q0 59 40 92t111 33h176v22q-1 38 -17.5 51t-63.5 13q-82 0 -208 -8
l-14 100q133 24 257 24zM182 150q0 -51 58 -51q60 0 123 48v69h-133q-48 -1 -48 -47v-19z" />
    <glyph glyph-name="uni0204" unicode="&#x204;" horiz-adv-x="576" 
d="M283 781l-60 -47l-152 168l97 65zM473 782l-61 -48l-152 168l98 65zM264 119h265l7 -112q-94 -10 -320 -10q-69 0 -110 37.5t-42 101.5v418q1 64 42 101.5t110 37.5q226 0 320 -10l-7 -113h-265q-25 0 -36 -12t-11 -39v-105h275v-110h-275v-133q0 -28 11 -40t36 -12z" />
    <glyph glyph-name="uni0205" unicode="&#x205;" horiz-adv-x="560" 
d="M262 596l-60 -47l-152 168l97 65zM452 597l-61 -48l-152 168l98 65zM314 106q79 0 184 11l14 -92q-77 -37 -215 -37q-139 0 -198 60t-59 198q0 145 57.5 203t193.5 58q123 0 178 -42.5t56 -129.5q0 -69 -35.5 -103.5t-114.5 -34.5h-178q7 -54 32.5 -72.5t84.5 -18.5z
M296 399q-57 1 -78 -21.5t-24 -91.5h140q27 0 36.5 13t9.5 38q0 35 -18 48.5t-66 13.5z" />
    <glyph glyph-name="uni0206" unicode="&#x206;" horiz-adv-x="576" 
d="M221 752l-71 10q-8 64 37.5 108t126.5 44t127 -44t38 -108l-70 -10q0 65 -95 65q-93 0 -93 -65zM264 119h265l7 -112q-94 -10 -320 -10q-69 0 -110 37.5t-42 101.5v418q1 64 42 101.5t110 37.5q226 0 320 -10l-7 -113h-265q-25 0 -36 -12t-11 -39v-105h275v-110h-275
v-133q0 -28 11 -40t36 -12z" />
    <glyph glyph-name="uni0207" unicode="&#x207;" horiz-adv-x="560" 
d="M200 567l-71 10q-8 64 37.5 108t126.5 44t127 -44t38 -108l-70 -10q0 65 -95 65q-93 0 -93 -65zM314 106q79 0 184 11l14 -92q-77 -37 -215 -37q-139 0 -198 60t-59 198q0 145 57.5 203t193.5 58q123 0 178 -42.5t56 -129.5q0 -69 -35.5 -103.5t-114.5 -34.5h-178
q7 -54 32.5 -72.5t84.5 -18.5zM296 399q-57 1 -78 -21.5t-24 -91.5h140q27 0 36.5 13t9.5 38q0 35 -18 48.5t-66 13.5z" />
    <glyph glyph-name="uni0208" unicode="&#x208;" horiz-adv-x="292" 
d="M-1 961l115 -186l-60 -47l-152 168zM189 961l115 -185l-61 -48l-152 168zM222 690v-690h-152v690h152z" />
    <glyph glyph-name="uni0209" unicode="&#x209;" horiz-adv-x="278" 
d="M-9 783l115 -186l-60 -47l-152 168zM181 783l115 -185l-61 -48l-152 168zM213 493v-493h-148v493h148z" />
    <glyph glyph-name="uni020A" unicode="&#x20a;" horiz-adv-x="292" 
d="M52 746l-71 10q-8 64 37.5 108t126.5 44t127 -44t38 -108l-70 -10q0 65 -95 65q-93 0 -93 -65zM222 690v-690h-152v690h152z" />
    <glyph glyph-name="uni020B" unicode="&#x20b;" horiz-adv-x="278" 
d="M44 568l-71 10q-8 64 37.5 108t126.5 44t127 -44t38 -108l-70 -10q0 65 -95 65q-93 0 -93 -65zM213 493v-493h-148v493h148z" />
    <glyph glyph-name="uni020C" unicode="&#x20c;" horiz-adv-x="684" 
d="M196 961l115 -186l-60 -47l-152 168zM386 961l115 -185l-61 -48l-152 168zM342 703q166 0 231 -76.5t65 -281.5t-65 -281.5t-231 -76.5t-230.5 76.5t-64.5 281.5t64.5 281.5t230.5 76.5zM342 580q-78 0 -106.5 -49t-28.5 -186t28.5 -186t106.5 -49t106.5 49t28.5 186
t-28.5 186t-106.5 49z" />
    <glyph glyph-name="uni020D" unicode="&#x20d;" 
d="M148 775l115 -186l-60 -47l-152 168zM338 775l115 -185l-61 -48l-152 168zM294 507q138 0 195.5 -59.5t57.5 -201.5t-57.5 -200.5t-195.5 -58.5q-139 0 -196.5 58.5t-57.5 200.5q0 143 57.5 202t196.5 59zM294 396q-59 0 -79 -30t-20 -120q0 -88 20 -118t79 -30
q57 0 77.5 30t20.5 118q0 89 -20 119.5t-78 30.5z" />
    <glyph glyph-name="uni020E" unicode="&#x20e;" horiz-adv-x="684" 
d="M249 746l-71 10q-8 64 37.5 108t126.5 44t127 -44t38 -108l-70 -10q0 65 -95 65q-93 0 -93 -65zM342 703q166 0 231 -76.5t65 -281.5t-65 -281.5t-231 -76.5t-230.5 76.5t-64.5 281.5t64.5 281.5t230.5 76.5zM342 580q-78 0 -106.5 -49t-28.5 -186t28.5 -186t106.5 -49
t106.5 49t28.5 186t-28.5 186t-106.5 49z" />
    <glyph glyph-name="uni020F" unicode="&#x20f;" 
d="M201 560l-71 10q-8 64 37.5 108t126.5 44t127 -44t38 -108l-70 -10q0 65 -95 65q-93 0 -93 -65zM294 507q138 0 195.5 -59.5t57.5 -201.5t-57.5 -200.5t-195.5 -58.5q-139 0 -196.5 58.5t-57.5 200.5q0 143 57.5 202t196.5 59zM294 396q-59 0 -79 -30t-20 -120
q0 -88 20 -118t79 -30q57 0 77.5 30t20.5 118q0 89 -20 119.5t-78 30.5z" />
    <glyph glyph-name="uni0210" unicode="&#x210;" horiz-adv-x="643" 
d="M282 775l-60 -47l-152 168l97 65zM472 776l-61 -48l-152 168l98 65zM554 215l60 -215h-161l-52 211q-10 33 -26.5 45.5t-47.5 12.5h-107v-269h-150v690q93 9 263 9q139 0 197 -44t58 -160q0 -76 -30.5 -119t-101.5 -52v-5q79 -18 98 -104zM330 387q60 0 82 20.5t22 77.5
t-21.5 77t-82.5 20q-77 0 -110 -1v-194h110z" />
    <glyph glyph-name="uni0211" unicode="&#x211;" horiz-adv-x="425" 
d="M192 597l-60 -47l-152 168l97 65zM382 598l-61 -48l-152 168l98 65zM389 507h26l-15 -137h-40q-52 0 -151 -34v-336h-148v493h115l13 -73q103 87 200 87z" />
    <glyph glyph-name="uni0212" unicode="&#x212;" horiz-adv-x="643" 
d="M220 746l-71 10q-8 64 37.5 108t126.5 44t127 -44t38 -108l-70 -10q0 65 -95 65q-93 0 -93 -65zM554 215l60 -215h-161l-52 211q-10 33 -26.5 45.5t-47.5 12.5h-107v-269h-150v690q93 9 263 9q139 0 197 -44t58 -160q0 -76 -30.5 -119t-101.5 -52v-5q79 -18 98 -104z
M330 387q60 0 82 20.5t22 77.5t-21.5 77t-82.5 20q-77 0 -110 -1v-194h110z" />
    <glyph glyph-name="uni0213" unicode="&#x213;" horiz-adv-x="425" 
d="M223 633q-93 0 -93 -65l-71 10q-8 64 37.5 108t126.5 44t127 -44t38 -108l-70 -10q0 65 -95 65zM389 507h26l-15 -137h-40q-52 0 -151 -34v-336h-148v493h115l13 -73q103 87 200 87z" />
    <glyph glyph-name="uni0214" unicode="&#x214;" horiz-adv-x="681" 
d="M202 965l115 -185l-60 -47l-152 167zM392 965l115 -185l-61 -47l-152 167zM617 690v-415q0 -158 -60.5 -223t-208.5 -65q-156 0 -219.5 65t-63.5 223v415h152v-415q0 -95 26.5 -130t97.5 -35q70 0 96.5 35t26.5 130v415h153z" />
    <glyph glyph-name="uni0215" unicode="&#x215;" horiz-adv-x="590" 
d="M262 599l-60 -47l-152 168l97 65zM452 600l-61 -48l-152 168l98 65zM382 493h147v-493h-117l-11 68q-100 -81 -204 -81q-139 0 -139 137v369h148v-324q-1 -32 11 -45t42 -13q47 0 123 41v341z" />
    <glyph glyph-name="uni0216" unicode="&#x216;" horiz-adv-x="681" 
d="M248 746l-71 10q-8 64 37.5 108t126.5 44t127 -44t38 -108l-70 -10q0 65 -95 65q-93 0 -93 -65zM617 690v-415q0 -158 -60.5 -223t-208.5 -65q-156 0 -219.5 65t-63.5 223v415h152v-415q0 -95 26.5 -130t97.5 -35q70 0 96.5 35t26.5 130v415h153z" />
    <glyph glyph-name="uni0217" unicode="&#x217;" horiz-adv-x="590" 
d="M200 570l-71 10q-8 64 37.5 108t126.5 44t127 -44t38 -108l-70 -10q0 65 -95 65q-93 0 -93 -65zM382 493h147v-493h-117l-11 68q-100 -81 -204 -81q-139 0 -139 137v369h148v-324q-1 -32 11 -45t42 -13q47 0 123 41v341z" />
    <glyph glyph-name="Scommaaccent" unicode="&#x218;" horiz-adv-x="582" 
d="M294 703q133 0 227 -27l-10 -104q-87 3 -216 3q-60 0 -80 -10.5t-20 -52.5q0 -34 15 -49t57 -29l131 -45q80 -28 113 -76.5t33 -126.5q0 -116 -56 -157.5t-200 -41.5q-117 0 -237 26l9 110q213 -5 228 -5q61 0 81.5 13t20.5 54q0 35 -14 49.5t-51 26.5l-139 49
q-77 28 -110 76t-33 126q0 114 55.5 152.5t195.5 38.5zM295 -52q26 0 36.5 -9t10.5 -33v-51q0 -79 -47 -147l-55 15q13 49 13 103q-37 0 -39 37l1 43q1 24 12 33t37 9h31z" />
    <glyph glyph-name="scommaaccent" unicode="&#x219;" horiz-adv-x="527" 
d="M247 507q133 -2 228 -19l-10 -95q-126 2 -190 2q-35 0 -48.5 -0.5t-27 -3.5t-16.5 -9.5t-3 -19.5q0 -5 0.5 -9t2.5 -7.5t3.5 -5.5t5.5 -4.5t6.5 -3.5t9 -3.5t10 -3.5t13 -3.5t14.5 -3.5l126 -34q66 -19 94 -50.5t28 -93.5q0 -88 -51 -119.5t-175 -31.5q-120 0 -221 17
l9 96q36 -2 171 -2q77 0 100.5 6.5t23.5 30.5q0 5 -0.5 9t-2.5 7.5t-4 5.5t-6.5 4.5t-7 4t-9.5 4t-11 3.5t-13.5 3.5t-15.5 4.5l-123 33q-68 20 -94 54.5t-26 95.5q0 77 47.5 109t162.5 32zM278 -48q26 0 36.5 -9t10.5 -33v-51q0 -79 -47 -147l-55 15q13 49 13 103
q-37 0 -39 37l1 43q1 24 12 33t37 9h31z" />
    <glyph glyph-name="uni021A" unicode="&#x21a;" horiz-adv-x="601" 
d="M583 690v-124h-206v-566h-153v566h-206v124h565zM306 -52q26 0 36.5 -9t10.5 -33v-51q0 -79 -47 -147l-55 15q13 49 13 103q-37 0 -39 37l1 43q1 24 12 33t37 9h31z" />
    <glyph glyph-name="uni021B" unicode="&#x21b;" horiz-adv-x="411" 
d="M390 394h-137v-233q0 -28 12 -39t42 -11h63l16 -103q-57 -20 -139 -20q-67 0 -104 37.5t-37 104.5v264h-87v94l87 5v138h147v-138h137v-99zM255 -52q26 0 36.5 -9t10.5 -33v-51q0 -79 -47 -147l-55 15q13 49 13 103q-37 0 -39 37l1 43q1 24 12 33t37 9h31z" />
    <glyph glyph-name="uni022A" unicode="&#x22a;" horiz-adv-x="684" 
d="M200 991h284v-86h-284v86zM282 860q30 0 30 -30v-53q0 -30 -30 -30h-44q-30 0 -30 30v53q0 30 30 30h44zM447 860q31 0 31 -30v-53q0 -30 -31 -30h-43q-31 0 -31 30v53q0 30 31 30h43zM342 703q166 0 231 -76.5t65 -281.5t-65 -281.5t-231 -76.5t-230.5 76.5t-64.5 281.5
t64.5 281.5t230.5 76.5zM342 580q-78 0 -106.5 -49t-28.5 -186t28.5 -186t106.5 -49t106.5 49t28.5 186t-28.5 186t-106.5 49z" />
    <glyph glyph-name="uni022B" unicode="&#x22b;" 
d="M152 805h284v-86h-284v86zM234 674q30 0 30 -30v-53q0 -30 -30 -30h-44q-30 0 -30 30v53q0 30 30 30h44zM399 674q31 0 31 -30v-53q0 -30 -31 -30h-43q-31 0 -31 30v53q0 30 31 30h43zM294 507q138 0 195.5 -59.5t57.5 -201.5t-57.5 -200.5t-195.5 -58.5
q-139 0 -196.5 58.5t-57.5 200.5q0 143 57.5 202t196.5 59zM294 396q-59 0 -79 -30t-20 -120q0 -88 20 -118t79 -30q57 0 77.5 30t20.5 118q0 89 -20 119.5t-78 30.5z" />
    <glyph glyph-name="uni022C" unicode="&#x22c;" horiz-adv-x="684" 
d="M203 940v86h272v-86h-272zM430 749q-38 3 -89.5 25t-70.5 24q-24 4 -31 -6t-7 -39h-63q-11 70 14 107t67 34q36 -3 86 -23t73 -24q24 -4 31.5 5.5t7.5 36.5h63q11 -68 -13 -105.5t-68 -34.5zM342 703q166 0 231 -76.5t65 -281.5t-65 -281.5t-231 -76.5t-230.5 76.5
t-64.5 281.5t64.5 281.5t230.5 76.5zM342 580q-78 0 -106.5 -49t-28.5 -186t28.5 -186t106.5 -49t106.5 49t28.5 186t-28.5 186t-106.5 49z" />
    <glyph glyph-name="uni022D" unicode="&#x22d;" 
d="M155 754v86h272v-86h-272zM382 563q-38 3 -89.5 25t-70.5 24q-24 4 -31 -6t-7 -39h-63q-11 70 14 107t67 34q36 -3 86 -23t73 -24q24 -4 31.5 5.5t7.5 36.5h63q11 -68 -13 -105.5t-68 -34.5zM294 507q138 0 195.5 -59.5t57.5 -201.5t-57.5 -200.5t-195.5 -58.5
q-139 0 -196.5 58.5t-57.5 200.5q0 143 57.5 202t196.5 59zM294 396q-59 0 -79 -30t-20 -120q0 -88 20 -118t79 -30q57 0 77.5 30t20.5 118q0 89 -20 119.5t-78 30.5z" />
    <glyph glyph-name="uni0230" unicode="&#x230;" horiz-adv-x="684" 
d="M206 991h272v-86h-272v86zM362 865q39 0 39 -37v-48q0 -38 -39 -38h-40q-39 0 -39 38v48q0 37 39 37h40zM342 703q166 0 231 -76.5t65 -281.5t-65 -281.5t-231 -76.5t-230.5 76.5t-64.5 281.5t64.5 281.5t230.5 76.5zM342 580q-78 0 -106.5 -49t-28.5 -186t28.5 -186
t106.5 -49t106.5 49t28.5 186t-28.5 186t-106.5 49z" />
    <glyph glyph-name="uni0231" unicode="&#x231;" 
d="M158 805h272v-86h-272v86zM314 679q39 0 39 -37v-48q0 -38 -39 -38h-40q-39 0 -39 38v48q0 37 39 37h40zM294 507q138 0 195.5 -59.5t57.5 -201.5t-57.5 -200.5t-195.5 -58.5q-139 0 -196.5 58.5t-57.5 200.5q0 143 57.5 202t196.5 59zM294 396q-59 0 -79 -30t-20 -120
q0 -88 20 -118t79 -30q57 0 77.5 30t20.5 118q0 89 -20 119.5t-78 30.5z" />
    <glyph glyph-name="uni0232" unicode="&#x232;" horiz-adv-x="608" 
d="M455 863v-95h-300v95h300zM607 690l-226 -461v-229h-153v229l-228 461h159l115 -253q10 -22 26 -87h10q12 54 25 87l115 253h157z" />
    <glyph glyph-name="uni0233" unicode="&#x233;" horiz-adv-x="562" 
d="M435 693v-95h-300v95h300zM396 493h158l-175 -500q-14 -40 -34.5 -74t-52.5 -65.5t-79.5 -46.5t-105.5 -8l-12 87q60 16 94 41.5t53 68.5l2 4h-28q-37 0 -48 36l-161 457h158l92 -319q9 -35 15 -74h13q9 29 20 74z" />
    <glyph glyph-name="uni0237" unicode="&#x237;" horiz-adv-x="278" 
d="M213 493v-470q0 -69 -34 -128.5t-93 -91.5l-81 65q61 69 61 155v470h147z" />
    <glyph glyph-name="uni0259" unicode="&#x259;" horiz-adv-x="560" 
d="M264 507q139 0 198 -60.5t59 -197.5q0 -144 -58 -202.5t-194 -58.5q-123 0 -178 42.5t-55 129.5q-1 69 34.5 103t114.5 34h178q-7 54 -32.5 73t-84.5 19q-84 0 -184 -12l-14 93q78 37 216 37zM264 96q57 -1 78 21.5t24 91.5h-140q-28 0 -37 -13.5t-9 -38.5q0 -35 18 -48
t66 -13z" />
    <glyph glyph-name="uni02B9" unicode="&#x2b9;" horiz-adv-x="278" 
d="M226 754l-68 -221h-91l50 221h109z" />
    <glyph glyph-name="uni02BA" unicode="&#x2ba;" horiz-adv-x="434" 
d="M227 754l-69 -221h-91l51 221h109zM382 754l-68 -221h-91l50 221h109z" />
    <glyph glyph-name="uni02BB" unicode="&#x2bb;" horiz-adv-x="243" 
d="M104 526q-29 0 -40 11t-11 41l-1 64q0 99 52 182l61 -18q-13 -52 -15 -129q21 0 32.5 -12t10.5 -34l-2 -53q-1 -30 -12.5 -41t-39.5 -11h-35z" />
    <glyph glyph-name="uni02BE" unicode="&#x2be;" horiz-adv-x="181" 
d="M76 650q0 22 -14.5 36.5t-35.5 14.5v64q49 0 83.5 -33.5t34.5 -81.5q0 -49 -34.5 -82t-83.5 -33v63q22 0 36 14t14 38z" />
    <glyph glyph-name="uni02BF" unicode="&#x2bf;" horiz-adv-x="181" 
d="M155 701q-22 0 -36 -14.5t-14 -36.5q0 -24 14.5 -38t35.5 -14v-63q-49 0 -83.5 33t-34.5 82q0 48 34.5 81.5t83.5 33.5v-64z" />
    <glyph glyph-name="circumflex" unicode="&#x2c6;" horiz-adv-x="448" 
d="M279 727l132 -135l-41 -55l-141 95h-8l-142 -95l-41 59l134 131h107z" />
    <glyph glyph-name="caron" unicode="&#x2c7;" horiz-adv-x="448" 
d="M367 741l42 -59l-153 -131h-61l-153 131l41 59l138 -80h8z" />
    <glyph glyph-name="uni02C8" unicode="&#x2c8;" horiz-adv-x="191" 
d="M95 647h2v-10h-2v10z" />
    <glyph glyph-name="uni02C9" unicode="&#x2c9;" horiz-adv-x="400" 
d="M350 693v-95h-300v95h300z" />
    <glyph glyph-name="uni02CA" unicode="&#x2ca;" horiz-adv-x="353" 
d="M244 742l68 -102l-225 -109l-44 63z" />
    <glyph glyph-name="uni02CB" unicode="&#x2cb;" horiz-adv-x="353" 
d="M102 744l201 -148l-43 -64l-225 109z" />
    <glyph glyph-name="uni02CC" unicode="&#x2cc;" horiz-adv-x="184" 
d="M91 -111h2v-10h-2v10z" />
    <glyph glyph-name="breve" unicode="&#x2d8;" horiz-adv-x="393" 
d="M290 707l71 -10q8 -64 -37.5 -107.5t-126.5 -43.5t-127 43.5t-38 107.5l71 10q0 -64 94 -64q47 0 70.5 16t22.5 48z" />
    <glyph glyph-name="dotaccent" unicode="&#x2d9;" horiz-adv-x="236" 
d="M141 703q41 0 41 -41v-52q0 -42 -41 -42h-46q-42 0 -42 42v52q0 41 42 41h46z" />
    <glyph glyph-name="ring" unicode="&#x2da;" horiz-adv-x="309" 
d="M155 765q48 0 83 -33.5t35 -81.5q0 -49 -34.5 -82t-83.5 -33t-83.5 33t-34.5 82q0 48 34.5 81.5t83.5 33.5zM155 701q-22 0 -36 -14.5t-14 -36.5q0 -24 14.5 -38t35.5 -14t35.5 14.5t14.5 37.5q0 22 -14.5 36.5t-35.5 14.5z" />
    <glyph glyph-name="ogonek" unicode="&#x2db;" horiz-adv-x="251" 
d="M141 2l59 -2q-43 -60 -60 -100q-14 -30 5.5 -39.5t57.5 1.5l13 -55q-73 -27 -115.5 -19t-57.5 36t-2 65q19 58 100 113z" />
    <glyph glyph-name="tilde" unicode="&#x2dc;" horiz-adv-x="440" 
d="M130 712q36 -3 86 -23.5t73 -24.5q24 -4 31.5 6t7.5 37h63q11 -68 -13 -106t-68 -35q-38 3 -90 25t-70 25q-24 3 -31 -7t-7 -39h-63q-11 71 14 108t67 34z" />
    <glyph glyph-name="hungarumlaut" unicode="&#x2dd;" horiz-adv-x="501" 
d="M157 753l97 -65l-152 -168l-60 48zM346 753l98 -65l-153 -168l-59 47z" />
    <glyph glyph-name="acutecomb" unicode="&#x301;" horiz-adv-x="0" 
d="M-134 744l67 -103l-225 -109l-44 64z" />
    <glyph glyph-name="uni0302" unicode="&#x302;" horiz-adv-x="0" 
d="M-173 723l133 -134l-41 -55l-141 94h-8l-143 -94l-40 58l133 131h107z" />
    <glyph glyph-name="tildecomb" unicode="&#x303;" horiz-adv-x="0" 
d="M-317 712q36 -3 86 -23.5t73 -24.5q24 -4 31.5 6t7.5 37h63q11 -68 -13 -106t-68 -35q-38 3 -90 25t-71 25q-23 3 -30 -7t-7 -39h-64q-11 71 14.5 108t67.5 34z" />
    <glyph glyph-name="uni0304" unicode="&#x304;" horiz-adv-x="0" 
d="M-55 693v-95h-299v95h299z" />
    <glyph glyph-name="uni0306" unicode="&#x306;" horiz-adv-x="0" 
d="M-106 707l70 -10q8 -63 -37.5 -107t-125.5 -44q-81 0 -127 44t-38 107l70 10q0 -64 95 -64q93 0 93 64z" />
    <glyph glyph-name="uni0307" unicode="&#x307;" horiz-adv-x="0" 
d="M-102 703q42 0 42 -41v-52q0 -42 -42 -42h-46q-42 0 -42 42v52q0 41 42 41h46z" />
    <glyph glyph-name="uni0308" unicode="&#x308;" horiz-adv-x="0" 
d="M-284 708q32 0 32 -33v-58q0 -33 -32 -33h-49q-33 0 -33 33v58q0 33 33 33h49zM-103 708q33 0 33 -33v-58q0 -33 -33 -33h-48q-33 0 -33 33v58q0 33 33 33h48z" />
    <glyph glyph-name="hookabovecomb" unicode="&#x309;" horiz-adv-x="0" 
d="M-188 616q27 8 38.5 20.5t11.5 34.5q0 24 -21 31t-47 -4l-16 73q72 25 121.5 -2.5t49.5 -93.5q0 -51 -33.5 -84t-88.5 -42z" />
    <glyph glyph-name="uni030A" unicode="&#x30a;" horiz-adv-x="0" 
d="M-166 759q48 0 83 -34t35 -82t-34.5 -81t-83.5 -33t-83.5 33t-34.5 81t35 82t83 34zM-166 695q-21 0 -35.5 -14.5t-14.5 -37.5t14.5 -37t35.5 -14t35.5 14t14.5 37t-14.5 37.5t-35.5 14.5z" />
    <glyph glyph-name="uni030B" unicode="&#x30b;" horiz-adv-x="0" 
d="M-344 747l97 -65l-152 -168l-60 48zM-155 747l98 -65l-153 -168l-59 47z" />
    <glyph glyph-name="uni030C" unicode="&#x30c;" horiz-adv-x="0" 
d="M-88 741l41 -59l-153 -131h-61l-152 131l40 59l139 -80h8z" />
    <glyph glyph-name="uni030F" unicode="&#x30f;" horiz-adv-x="0" 
d="M-361 765l115 -185l-60 -47l-152 167zM-171 765l115 -185l-61 -47l-152 167z" />
    <glyph glyph-name="uni0311" unicode="&#x311;" horiz-adv-x="0" 
d="M-318 552l-71 10q-8 64 37.5 108t126.5 44t127 -44t38 -108l-70 -10q0 65 -95 65q-93 0 -93 -65z" />
    <glyph glyph-name="uni0312" unicode="&#x312;" horiz-adv-x="0" 
d="M-139 536q-21 0 -29 8t-8 29v46q0 70 37 130l43 -13q-10 -43 -10 -92q32 0 30 -32l-1 -39q-1 -21 -9 -29t-29 -8h-24z" />
    <glyph glyph-name="uni031B" unicode="&#x31b;" horiz-adv-x="0" 
d="M-246 392l-4 64q34 5 54.5 29t23.5 60l94 -5q-1 -69 -50 -110t-118 -38z" />
    <glyph glyph-name="dotbelowcomb" unicode="&#x323;" horiz-adv-x="0" 
d="M-96 -41q42 0 42 -41v-52q0 -41 -42 -41h-45q-42 0 -42 41v52q0 41 42 41h45z" />
    <glyph glyph-name="uni0324" unicode="&#x324;" horiz-adv-x="0" 
d="M-273 -44q33 0 33 -33v-58q0 -33 -33 -33h-49q-32 0 -32 33v58q0 33 32 33h49zM-91 -44q33 0 33 -33v-58q0 -33 -33 -33h-48q-33 0 -33 33v58q0 33 33 33h48z" />
    <glyph glyph-name="uni0327" unicode="&#x327;" horiz-adv-x="0" 
d="M-170 -38q83 9 114.5 -3t29.5 -62q-3 -73 -59 -109.5t-141 -25.5l19 65q82 -2 86 58q1 12 -10.5 15.5t-52.5 3.5z" />
    <glyph glyph-name="uni0328" unicode="&#x328;" horiz-adv-x="0" 
d="M-125 2l59 -2q-42 -57 -61 -100q-13 -30 6 -39.5t57 1.5l13 -55q-73 -27 -115.5 -19.5t-57.5 36t-1 65.5q18 58 100 113z" />
    <glyph glyph-name="uni032E" unicode="&#x32e;" horiz-adv-x="0" 
d="M-112 -41l70 -10q8 -63 -37.5 -107t-125.5 -44q-82 0 -127.5 43.5t-37.5 107.5l70 10q0 -64 95 -64q93 0 93 64z" />
    <glyph glyph-name="uni0331" unicode="&#x331;" horiz-adv-x="0" 
d="M-69 -65v-95h-299v95h299z" />
    <glyph glyph-name="uni0394" unicode="&#x394;" horiz-adv-x="660" 
d="M405 690l235 -637v-53h-621v53l235 637h151zM330 544q-3 -12 -10 -42.5t-12 -47.5l-116 -340h274l-115 341q-5 17 -12.5 51t-8.5 38z" />
    <glyph glyph-name="uni03A9" unicode="&#x3a9;" horiz-adv-x="719" 
d="M360 703q159 0 228.5 -77t69.5 -240q0 -99 -31 -159.5t-107 -116.5q39 13 70 13h84v-123h-277v116q58 47 80.5 102t22.5 149q0 120 -31 167t-110 47t-109.5 -47t-30.5 -169q0 -97 22.5 -147.5t80.5 -101.5v-116h-277v123h83q37 0 71 -13q-76 59 -107.5 120.5t-30.5 158.5
q0 161 69.5 237.5t229.5 76.5z" />
    <glyph glyph-name="uni03BC" unicode="&#x3bc;" horiz-adv-x="618" 
d="M599 88l7 -79q-67 -21 -117 -21q-100 0 -100 89v9q-23 -42 -64.5 -70.5t-96.5 -28.5q-13 0 -20 1v-53l-19 -125h-128v683h147v-305q0 -43 12.5 -57.5t45.5 -14.5q50 0 84.5 50.5t35.5 129.5v197h148v-360q0 -25 5 -35t20 -10h40z" />
    <glyph glyph-name="pi" unicode="&#x3c0;" horiz-adv-x="648" 
d="M627 494v-106h-78v-388h-148v388h-154v-388h-147v388h-79v106h606z" />
    <glyph glyph-name="uni0400" unicode="&#x400;" horiz-adv-x="577" 
d="M390 794l-43 -64l-225 109l67 103zM264 119h266l6 -112q-93 -10 -320 -10q-69 0 -110 37.5t-41 101.5v418q0 64 41.5 101.5t109.5 37.5q227 0 320 -10l-6 -113h-266q-25 0 -36 -12t-11 -39v-105h275v-110h-275v-133q0 -28 11 -40t36 -12z" />
    <glyph glyph-name="uni0401" unicode="&#x401;" horiz-adv-x="577" 
d="M197 762q-33 0 -33 33v58q0 33 33 33h49q32 0 32 -33v-58q0 -33 -32 -33h-49zM379 762q-33 0 -33 33v58q0 33 33 33h48q33 0 33 -33v-58q0 -33 -33 -33h-48zM264 119h266l6 -112q-93 -10 -320 -10q-69 0 -110 37.5t-41 101.5v418q0 64 41.5 101.5t109.5 37.5
q227 0 320 -10l-6 -113h-266q-25 0 -36 -12t-11 -39v-105h275v-110h-275v-133q0 -28 11 -40t36 -12z" />
    <glyph glyph-name="uni0402" unicode="&#x402;" horiz-adv-x="763" 
d="M562 449q83 0 127 -46t44 -162q0 -140 -68.5 -197t-196.5 -54l-14 108q71 9 99 36t28 93q0 61 -18 79.5t-65 18.5q-60 0 -122 -28v-297h-153v566h-205v124h563v-124h-205v-162q86 45 186 45z" />
    <glyph glyph-name="uni0403" unicode="&#x403;" horiz-adv-x="533" 
d="M410 940l68 -102l-225 -109l-44 63zM214 693q216 0 306 -11l-7 -112h-237q-29 0 -41.5 -12.5t-12.5 -42.5v-515h-153v546q0 65 41 106t104 41z" />
    <glyph glyph-name="uni0404" unicode="&#x404;" horiz-adv-x="590" 
d="M544 130l13 -114q-87 -28 -215 -28q-163 0 -229 80t-66 277t66 277t229 80q119 0 210 -23l-13 -114q-108 5 -197 5q-70 0 -100 -34t-36 -123h280v-106h-282q3 -107 33 -147t105 -40q128 0 202 10z" />
    <glyph glyph-name="uni0405" unicode="&#x405;" horiz-adv-x="582" 
d="M294 703q133 0 227 -27l-10 -104q-87 3 -216 3q-60 0 -80 -10.5t-20 -52.5q0 -34 15 -49t57 -29l131 -45q80 -28 113 -76.5t33 -126.5q0 -116 -56 -157.5t-200 -41.5q-117 0 -237 26l9 110q213 -5 228 -5q61 0 81.5 13t20.5 54q0 35 -14 49.5t-51 26.5l-139 49
q-77 28 -110 76t-33 126q0 114 55.5 152.5t195.5 38.5z" />
    <glyph glyph-name="uni0406" unicode="&#x406;" horiz-adv-x="295" 
d="M223 690v-690h-151v690h151z" />
    <glyph glyph-name="uni0407" unicode="&#x407;" horiz-adv-x="292" 
d="M80 886q32 0 32 -33v-58q0 -33 -32 -33h-49q-33 0 -33 33v58q0 33 33 33h49zM261 886q33 0 33 -33v-58q0 -33 -33 -33h-48q-33 0 -33 33v58q0 33 33 33h48zM222 690v-690h-152v690h152z" />
    <glyph glyph-name="uni0408" unicode="&#x408;" horiz-adv-x="370" 
d="M302 690v-545q0 -75 -41 -116t-115 -41q-83 0 -126 20l17 102h47q66 0 66 53v527h152z" />
    <glyph glyph-name="uni0409" unicode="&#x409;" horiz-adv-x="976" 
d="M693 434q141 0 195.5 -47.5t54.5 -173.5t-51 -173.5t-173 -47.5q-173 0 -269 8h-1v580h-85q-48 0 -54 -58q-14 -159 -25 -235.5t-33 -139.5q-31 -89 -83.5 -122t-141.5 -28l-11 104q33 9 55.5 27t40.5 60q22 50 32 121.5t19 199.5q1 22 2 33q9 148 162 148h272v-256h94z
M693 110q60 0 78 20.5t18 86.5q0 65 -18 87.5t-78 22.5h-94v-217h94z" />
    <glyph glyph-name="uni040A" unicode="&#x40a;" horiz-adv-x="976" 
d="M697 427q139 0 192.5 -46.5t53.5 -169.5q0 -125 -50 -172t-169 -47q-178 0 -273 8h-3v316h-224v-316h-152v690h152v-263h224v263h151v-263h98zM697 110q57 0 74.5 20t17.5 83t-17.5 85t-74.5 22h-98v-210h98z" />
    <glyph glyph-name="uni040B" unicode="&#x40b;" horiz-adv-x="786" 
d="M569 453q90 0 132.5 -41t42.5 -127v-285h-153v253q0 41 -16 56t-61 15q-64 0 -138 -25v-299h-153v566h-205v124h563v-124h-205v-156q101 43 193 43z" />
    <glyph glyph-name="uni040C" unicode="&#x40c;" horiz-adv-x="638" 
d="M507 838l-225 -109l-44 63l201 148zM382 358q19 -3 35 -6.5t30.5 -11.5t25.5 -14t22.5 -21.5t19 -24.5t18 -33t16.5 -37.5t17.5 -47.5t17.5 -52.5t20 -62.5q10 -31 15 -47h-159q-56 183 -76 224q-31 63 -78 75q-18 5 -41 5h-49q8 -37 8 -66v-238h-152v690h152v-195
q0 -39 -8 -82h47q71 0 102.5 54t77.5 213q2 7 3 10h155q-56 -176 -71 -209q-35 -78 -88 -103q-25 -11 -60 -16v-4z" />
    <glyph glyph-name="uni040D" unicode="&#x40d;" horiz-adv-x="711" 
d="M238 942l201 -148l-43 -64l-225 109zM639 690v-690h-146v412q0 46 9 93h-7q-15 -46 -39 -91l-233 -414h-151v690h145v-405q0 -43 -8 -96h6q13 38 40 90l233 411h151z" />
    <glyph glyph-name="uni040E" unicode="&#x40e;" horiz-adv-x="592" 
d="M298 740q-80 0 -126.5 46t-38.5 109h99q-4 -82 66 -82q71 0 65 82h99q8 -64 -38 -109.5t-126 -45.5zM434 690h156l-169 -512q-30 -91 -68 -136.5t-106 -51.5t-166 15l17 108q97 -5 123.5 3.5t45.5 57.5l7 22h-36q-67 0 -89 69l-142 425h156l109 -365q3 -12 18 -12h25z
" />
    <glyph glyph-name="uni040F" unicode="&#x40f;" horiz-adv-x="694" 
d="M470 690h153v-690h-214l-6 -151h-104l-7 151h-220v690h152v-580h246v580z" />
    <glyph glyph-name="uni0410" unicode="&#x410;" horiz-adv-x="650" 
d="M494 0l-50 181h-237l-50 -181h-156l199 650q4 18 19 29t34 11h144q43 0 53 -40l199 -650h-155zM239 299h172l-58 211q-12 50 -14 65h-27l-15 -65z" />
    <glyph glyph-name="uni0411" unicode="&#x411;" horiz-adv-x="619" 
d="M329 410q143 0 199 -45.5t56 -164.5q0 -67 -15 -109t-50 -63.5t-78 -29t-113 -7.5q-144 0 -253 9h-4v690q112 7 235 7q100 0 235 -7l-12 -117h-305v-163h105zM329 108q63 0 82.5 19t19.5 79q0 59 -19.5 79.5t-82.5 20.5h-105v-198h105z" />
    <glyph glyph-name="uni0412" unicode="&#x412;" horiz-adv-x="639" 
d="M454 356q77 -7 109.5 -52.5t32.5 -131.5q0 -104 -53 -142t-180 -38q-191 0 -292 8v690q90 8 260 8q137 0 190 -37.5t53 -142.5q0 -75 -28 -113.5t-92 -44.5v-4zM428 497q0 52 -21.5 69t-83.5 17h-103v-175h112q55 0 75.5 18t20.5 71zM336 107q64 0 86 18.5t22 75.5
q0 62 -23 83.5t-88 22.5h-113v-200h116z" />
    <glyph glyph-name="uni0413" unicode="&#x413;" horiz-adv-x="533" 
d="M214 693q216 0 306 -11l-7 -112h-237q-29 0 -41.5 -12.5t-12.5 -42.5v-515h-153v546q0 65 41 106t104 41z" />
    <glyph glyph-name="uni0414" unicode="&#x414;" horiz-adv-x="737" 
d="M624 110h90v-261h-108l-11 151h-458l-12 -151h-108v261h73q69 172 90 436q5 65 48 104.5t113 39.5h283v-580zM233 110h239v470h-89q-30 0 -43.5 -13.5t-15.5 -45.5q-12 -145 -32 -238.5t-59 -172.5z" />
    <glyph glyph-name="uni0415" unicode="&#x415;" horiz-adv-x="577" 
d="M264 119h266l6 -112q-93 -10 -320 -10q-69 0 -110 37.5t-41 101.5v418q0 64 41.5 101.5t109.5 37.5q227 0 320 -10l-6 -113h-266q-25 0 -36 -12t-11 -39v-105h275v-110h-275v-133q0 -28 11 -40t36 -12z" />
    <glyph glyph-name="uni0416" unicode="&#x416;" horiz-adv-x="938" 
d="M685 358q91 -12 127.5 -71t96.5 -256q7 -20 10 -31h-160q-5 17 -15 47q-54 166 -77 205q-36 50 -86 52h-46q8 -37 8 -66v-238h-146v238q0 29 8 66h-49q-55 0 -82 -47.5t-79 -206.5q-10 -32 -16 -50h-160q60 195 82 241q35 77 91 101q25 11 61 16v4q-25 3 -45.5 11
t-35.5 17t-29 29t-23.5 35.5t-22 50t-20 58t-22.5 72.5q-11 36 -17 55h155q54 -170 74 -209q41 -64 89 -68h49q-8 43 -8 82v195h146v-195q0 -44 -7 -82h44q53 0 80 49t74 194q2 7 3.5 11t3.5 11t4 12h155q-55 -176 -71 -212q-34 -77 -88 -101q-24 -11 -56 -15v-4z" />
    <glyph glyph-name="uni0417" unicode="&#x417;" horiz-adv-x="565" 
d="M262 698q134 0 186 -37.5t52 -142.5q0 -75 -28 -113.5t-90 -44.5v-4q75 -7 107 -52.5t32 -131.5q0 -103 -52 -141.5t-176 -38.5q-160 0 -264 30l11 105q120 -19 224 -19q59 0 79.5 18.5t20.5 74.5q0 60 -21.5 81t-82.5 21l-133 2v105l132 2q52 0 71 17.5t19 67.5
q0 51 -20.5 68t-76.5 17q-78 0 -197 -13l-12 110q90 19 219 19z" />
    <glyph glyph-name="uni0418" unicode="&#x418;" horiz-adv-x="711" 
d="M639 690v-690h-146v412q0 46 9 93h-7q-15 -46 -39 -91l-233 -414h-151v690h145v-405q0 -43 -8 -96h6q13 38 40 90l233 411h151z" />
    <glyph glyph-name="uni0419" unicode="&#x419;" horiz-adv-x="711" 
d="M426 895h99q8 -64 -38 -109.5t-126 -45.5t-126.5 46t-38.5 109h99q-4 -82 66 -82q71 0 65 82zM639 690v-690h-146v412q0 46 9 93h-7q-15 -46 -39 -91l-233 -414h-151v690h145v-405q0 -43 -8 -96h6q13 38 40 90l233 411h151z" />
    <glyph glyph-name="uni041A" unicode="&#x41a;" horiz-adv-x="638" 
d="M382 358q19 -3 35 -6.5t30.5 -11.5t25.5 -14t22.5 -21.5t19 -24.5t18 -33t16.5 -37.5t17.5 -47.5t17.5 -52.5t20 -62.5q10 -31 15 -47h-159q-56 183 -76 224q-31 63 -78 75q-18 5 -41 5h-49q8 -37 8 -66v-238h-152v690h152v-195q0 -39 -8 -82h47q71 0 102.5 54t77.5 213
q2 7 3 10h155q-56 -176 -71 -209q-35 -78 -88 -103q-25 -11 -60 -16v-4z" />
    <glyph glyph-name="uni041B" unicode="&#x41b;" horiz-adv-x="678" 
d="M607 690v-690h-153v580h-88q-59 0 -63 -58q-13 -155 -24.5 -236t-34.5 -139q-61 -170 -229 -150l-11 118q39 7 62.5 23t36.5 50q20 53 31 128.5t23 223.5q11 150 162 150h288z" />
    <glyph glyph-name="uni041C" unicode="&#x41c;" horiz-adv-x="914" 
d="M773 690q54 0 57 -57l26 -633h-144l-22 571h-18l-104 -427q-10 -49 -61 -49h-100q-51 0 -63 49l-105 427h-17l-20 -571h-143l25 633q2 57 57 57h147q48 0 60 -49l84 -344q4 -20 10.5 -56t7.5 -41h13q1 5 7.5 41t10.5 56l83 344q11 49 62 49h147z" />
    <glyph glyph-name="uni041D" unicode="&#x41d;" horiz-adv-x="692" 
d="M467 690h153v-690h-153v308h-243v-308h-152v690h152v-264h243v264z" />
    <glyph glyph-name="uni041E" unicode="&#x41e;" horiz-adv-x="684" 
d="M342 703q166 0 231 -76.5t65 -281.5t-65 -281.5t-231 -76.5t-230.5 76.5t-64.5 281.5t64.5 281.5t230.5 76.5zM342 580q-78 0 -106.5 -49t-28.5 -186t28.5 -186t106.5 -49t106.5 49t28.5 186t-28.5 186t-106.5 49z" />
    <glyph glyph-name="uni041F" unicode="&#x41f;" horiz-adv-x="690" 
d="M618 690v-690h-152v580h-242v-580h-152v690h546z" />
    <glyph glyph-name="uni0420" unicode="&#x420;" horiz-adv-x="616" 
d="M334 699q144 0 197.5 -47t53.5 -178t-50.5 -178.5t-180.5 -47.5q-66 0 -130 8v-256h-153v690q93 9 263 9zM330 365q60 1 81 23t21 86t-21 86t-81 22h-106v-217h106z" />
    <glyph glyph-name="uni0421" unicode="&#x421;" horiz-adv-x="586" 
d="M337 702q116 0 207 -23l-13 -114q-81 5 -194 5q-75 0 -102.5 -47.5t-27.5 -177.5t27.5 -177.5t102.5 -47.5q139 0 208 9l13 -113q-90 -28 -221 -28q-160 0 -225 80t-65 277t65 277t225 80z" />
    <glyph glyph-name="uni0422" unicode="&#x422;" horiz-adv-x="601" 
d="M583 690v-124h-206v-566h-153v566h-206v124h565z" />
    <glyph glyph-name="uni0423" unicode="&#x423;" horiz-adv-x="592" 
d="M434 690h156l-169 -512q-30 -91 -68 -136.5t-106 -51.5t-166 15l17 108q97 -5 123.5 3.5t45.5 57.5l7 22h-36q-67 0 -89 69l-142 425h156l109 -365q3 -12 18 -12h25z" />
    <glyph glyph-name="uni0424" unicode="&#x424;" horiz-adv-x="843" 
d="M812 353q-1 -151 -71 -215.5t-243 -73.5v-90h-153v90q-173 9 -243 73.5t-70 215.5q0 156 70 221.5t243 74.5v90h153v-90q173 -9 243 -74.5t71 -221.5zM186 353q0 -94 34 -130t132 -43v353q-98 -7 -132 -44.5t-34 -135.5zM491 180q98 7 132 43.5t34 129.5q0 98 -34 135.5
t-132 44.5v-353z" />
    <glyph glyph-name="uni0425" unicode="&#x425;" horiz-adv-x="641" 
d="M473 0l-147 307h-12l-147 -307h-157l180 354l-166 336h156l133 -285h15l133 285h156l-166 -336l180 -354h-158z" />
    <glyph glyph-name="uni0426" unicode="&#x426;" horiz-adv-x="712" 
d="M607 110h82v-261h-108l-11 151h-498v690h152v-580h230v580h153v-580z" />
    <glyph glyph-name="uni0427" unicode="&#x427;" horiz-adv-x="657" 
d="M433 690h152v-690h-152v286q-107 -52 -211 -52q-89 0 -131.5 40.5t-42.5 126.5v289h152v-256q0 -38 17 -54.5t60 -16.5q77 0 156 31v296z" />
    <glyph glyph-name="uni0428" unicode="&#x428;" horiz-adv-x="971" 
d="M750 690h149v-690h-827v690h149v-580h190v580h149v-580h190v580z" />
    <glyph glyph-name="uni0429" unicode="&#x429;" horiz-adv-x="999" 
d="M894 110h81v-261h-107l-11 151h-785v690h149v-580h188v580h148v-580h189v580h148v-580z" />
    <glyph glyph-name="uni042A" unicode="&#x42a;" horiz-adv-x="763" 
d="M480 434q142 0 196 -48t54 -175q0 -125 -51 -172t-173 -47q-179 0 -275 8h-2v566h-212v124h365v-256h98zM480 110q60 0 78.5 20.5t18.5 85.5t-18.5 88t-78.5 23h-98v-217h98z" />
    <glyph glyph-name="uni042B" unicode="&#x42b;" horiz-adv-x="897" 
d="M324 434q142 0 196.5 -48t54.5 -175q0 -125 -51 -172t-174 -47q-179 0 -274 8h-4v690h152v-256h100zM673 690h152v-690h-152v690zM324 110q61 0 79 20.5t18 85.5t-18.5 88t-78.5 23h-100v-217h100z" />
    <glyph glyph-name="uni042C" unicode="&#x42c;" horiz-adv-x="611" 
d="M326 434q142 0 196.5 -48t54.5 -175q0 -125 -51 -172t-174 -47q-181 0 -276 8h-4v690h152v-256h102zM326 110q61 0 79.5 20.5t18.5 85.5t-18.5 88t-79.5 23h-102v-217h102z" />
    <glyph glyph-name="uni042D" unicode="&#x42d;" horiz-adv-x="590" 
d="M248 702q163 0 229 -80t66 -277t-66 -277t-229 -80q-128 0 -215 28l13 114q74 -10 202 -10q75 0 105 40t33 147h-282v106h280q-6 89 -36 123t-100 34q-89 0 -197 -5l-13 114q91 23 210 23z" />
    <glyph glyph-name="uni042E" unicode="&#x42e;" horiz-adv-x="971" 
d="M629 703q165 0 230 -76.5t65 -281.5t-65 -281.5t-230 -76.5q-148 0 -209.5 68t-66.5 247h-128v-302h-153v690h153v-278h129q8 164 70 227.5t205 63.5zM629 110q77 0 105 49t29 186q-1 137 -29 186t-105 49q-75 0 -101.5 -49t-26.5 -186t26.5 -186t101.5 -49z" />
    <glyph glyph-name="uni042F" unicode="&#x42f;" horiz-adv-x="635" 
d="M304 699q168 0 260 -9v-690h-152v265h-101q-58 0 -71 -59l-51 -206h-160l56 211q20 86 104 102l-1 6q-71 9 -101.5 52.5t-30.5 123.5q0 112 57.5 158t190.5 46zM308 382h104v200h-104q-57 0 -77.5 -20t-21.5 -77q0 -57 21.5 -80t77.5 -23z" />
    <glyph glyph-name="uni0430" unicode="&#x430;" horiz-adv-x="571" 
d="M318 507q100 0 147.5 -40.5t47.5 -140.5v-326h-117l-15 75q-74 -87 -183 -87q-71 0 -115.5 37.5t-44.5 104.5v50q0 59 40 92t111 33h176v22q-1 37 -17.5 50.5t-63.5 13.5q-81 0 -209 -8l-13 100q133 24 256 24zM184 150q0 -51 57 -51q59 0 124 48v69h-133q-48 -1 -48 -47
v-19z" />
    <glyph glyph-name="uni0431" unicode="&#x431;" horiz-adv-x="593" 
d="M499 740l27 -114q-40 -23 -80 -31t-85 -11.5t-76 -12.5q-82 -22 -107 -101q-9 -24 -17 -73h3q29 39 68.5 59.5t110.5 20.5q114 0 161 -54.5t47 -179.5q0 -131 -54.5 -193t-190.5 -62q-51 0 -90 8.5t-65.5 22t-45 38t-29 47.5t-15.5 59.5t-6.5 65.5t-1.5 74q0 81 7 136.5
t26 106t55.5 83.5t93.5 51q37 12 125.5 23t138.5 37zM305 375q-61 0 -80 -28.5t-19 -103.5q0 -85 20 -115t75 -30t75 29.5t20 114.5q0 80 -18.5 106.5t-72.5 26.5z" />
    <glyph glyph-name="uni0432" unicode="&#x432;" horiz-adv-x="570" 
d="M406 252q68 -5 97 -37t29 -93q0 -74 -47 -102t-159 -28q-169 0 -264 6v495q85 6 236 6q122 0 169 -27.5t47 -103.5q0 -53 -25.5 -80.5t-82.5 -31.5v-4zM376 350q0 28 -18 38t-67 10q-18 0 -48 0.5t-42 0.5v-102h97q45 0 61.5 11t16.5 42zM301 95q48 0 66 11.5t18 46.5
q0 33 -19 45.5t-68 12.5h-97v-116h100z" />
    <glyph glyph-name="uni0433" unicode="&#x433;" horiz-adv-x="472" 
d="M187 499q192 0 271 -13l-6 -103h-200q-24 0 -34.5 -10.5t-10.5 -34.5v-338h-147v380q0 119 127 119z" />
    <glyph glyph-name="uni0434" unicode="&#x434;" horiz-adv-x="629" 
d="M527 106h78v-247h-97l-11 141h-368l-11 -141h-97v247h62q44 115 61 267q12 120 141 120h242v-387zM213 106h175v287h-64q-45 0 -50 -47q-19 -150 -61 -240z" />
    <glyph glyph-name="uni0435" unicode="&#x435;" horiz-adv-x="563" 
d="M315 106q79 0 184 11l14 -92q-77 -37 -215 -37q-139 0 -198 60t-59 198q0 144 58 202.5t193 58.5q123 0 178 -42.5t56 -129.5q0 -69 -35.5 -103.5t-114.5 -34.5h-178q7 -54 32.5 -72.5t84.5 -18.5zM297 399q-57 1 -78 -21.5t-24 -91.5h140q28 0 37 13t9 38q0 35 -18 48.5
t-66 13.5z" />
    <glyph glyph-name="uni0436" unicode="&#x436;" horiz-adv-x="822" 
d="M610 256q22 -3 37.5 -6.5t30.5 -11.5t24.5 -14.5t21 -24t18 -30.5t18 -43.5t19 -54.5t22.5 -71h-149q-50 141 -69 173t-60 33h-51q5 -25 5 -43v-163h-130v163q0 18 5 43h-53q-40 -1 -59.5 -33.5t-69.5 -172.5h-149q16 49 23 71t19 54.5t18 44t18 30t21 24t24 14.5
t30.5 12t38.5 6v4q-74 9 -100 43.5t-67 158.5q-6 20 -10 31h145q41 -119 62 -153t64 -34h46q-6 30 -6 59v128h130v-128q0 -29 -6 -59h43q44 0 64 33t62 154h146q-46 -138 -62 -168q-26 -45 -75 -58q-16 -4 -39 -7v-4z" />
    <glyph glyph-name="uni0437" unicode="&#x437;" horiz-adv-x="517" 
d="M217 505q137 0 189 -26t52 -108q0 -57 -24 -84t-81 -31v-4q66 -5 95.5 -36.5t29.5 -92.5q0 -82 -51.5 -108.5t-176.5 -26.5q-129 0 -221 20l10 102q108 -10 200 -10q53 0 70 9.5t17 42.5q0 30 -17.5 39.5t-68.5 10.5l-142 2v93l141 2q44 0 59.5 9.5t15.5 39.5
q0 27 -18 35t-72 8q-92 0 -170 -10l-10 102q73 22 173 22z" />
    <glyph glyph-name="uni0438" unicode="&#x438;" horiz-adv-x="606" 
d="M543 493v-493l-132 -1v258q0 29 5 79h-4q-11 -36 -37 -73l-186 -263h-126v493h131v-263q0 -28 -5 -73h3q13 33 37 67l188 269h126z" />
    <glyph glyph-name="uni0439" unicode="&#x439;" horiz-adv-x="606" 
d="M367 713h99q8 -64 -38 -109.5t-126 -45.5t-126.5 46t-38.5 109h99q-4 -82 66 -82q71 0 65 82zM543 493v-493l-132 -1v258q0 29 5 79h-4q-11 -36 -37 -73l-186 -263h-126v493h131v-263q0 -28 -5 -73h3q13 33 37 67l188 269h126z" />
    <glyph glyph-name="uni043A" unicode="&#x43a;" horiz-adv-x="564" 
d="M351 255q30 -4 49 -8.5t37 -18.5t27.5 -26t24.5 -46.5t24.5 -63.5t29.5 -92h-154q-44 138 -64.5 170.5t-71.5 33.5h-48q5 -25 5 -42v-162h-147v493h147v-126q0 -30 -6 -60h37q57 0 79 32.5t57 153.5h150q-3 -10 -9 -28q-40 -123 -60 -153q-26 -38 -83 -49q-10 -2 -24 -4
v-4z" />
    <glyph glyph-name="uni043B" unicode="&#x43b;" horiz-adv-x="591" 
d="M528 493v-493h-148v390h-64q-25 0 -36.5 -11t-15.5 -38q-21 -166 -36 -224q-30 -142 -201 -122l-15 110q41 7 58.5 16.5t25.5 36.5q19 56 32 210q12 125 137 125h263z" />
    <glyph glyph-name="uni043C" unicode="&#x43c;" horiz-adv-x="783" 
d="M661 493q50 0 52 -51l16 -442h-135l-14 385h-14l-80 -276q-11 -46 -55 -46h-80q-46 0 -57 46l-79 276h-14l-12 -385h-134l15 442q0 51 52 51h132q46 0 55 -46l62 -218q5 -19 14 -73h11q1 5 5.5 32t8.5 41l61 218q9 46 56 46h134z" />
    <glyph glyph-name="uni043D" unicode="&#x43d;" horiz-adv-x="604" 
d="M396 493h145v-493h-145v209h-187v-209h-146v493h146v-181h187v181z" />
    <glyph glyph-name="uni043E" unicode="&#x43e;" horiz-adv-x="589" 
d="M295 507q139 0 196 -59t57 -202q0 -142 -57 -200.5t-196 -58.5t-196.5 58.5t-57.5 200.5q0 143 57.5 202t196.5 59zM295 396q-59 0 -79 -30t-20 -120q0 -88 20 -118t79 -30q58 0 78.5 30t20.5 118q0 89 -20.5 119.5t-78.5 30.5z" />
    <glyph glyph-name="uni043F" unicode="&#x43f;" horiz-adv-x="595" 
d="M532 494v-494h-143v388h-182v-388h-144v494h469z" />
    <glyph glyph-name="uni0440" unicode="&#x440;" horiz-adv-x="603" 
d="M390 506q171 0 171 -264q0 -142 -46 -198.5t-143 -56.5q-99 0 -164 48q3 -57 2 -106v-119h-147v683h120l11 -72q31 37 85.5 61t110.5 24zM322 97q50 0 68.5 28t18.5 117q0 87 -17 117.5t-60 30.5q-52 0 -122 -47v-226q80 -20 112 -20z" />
    <glyph glyph-name="uni0441" unicode="&#x441;" horiz-adv-x="509" 
d="M290 507q112 0 182 -31l-16 -92q-108 2 -141 2q-68 0 -93.5 -29t-25.5 -110t25.5 -110t93.5 -29q88 0 151 9l14 -96q-77 -33 -192 -33q-136 0 -191.5 58.5t-55.5 200.5q0 143 56 201.5t193 58.5z" />
    <glyph glyph-name="uni0442" unicode="&#x442;" horiz-adv-x="513" 
d="M494 493v-114h-164v-379h-146v379h-164v114h474z" />
    <glyph glyph-name="uni0443" unicode="&#x443;" horiz-adv-x="565" 
d="M397 493h158l-175 -500q-39 -122 -135 -171q-74 -42 -202 -20l12 98q91 -3 129 20q39 23 62 80h-28q-38 0 -49 36l-160 457h157l92 -319q12 -46 16 -74h12q16 57 20 74z" />
    <glyph glyph-name="uni0444" unicode="&#x444;" horiz-adv-x="748" 
d="M707 246q0 -128 -61.5 -187t-205.5 -69v-180h-133v180q-144 10 -205.5 69t-61.5 187q0 129 61.5 189t205.5 70v195h133v-195q144 -10 205.5 -70t61.5 -189zM434 96q75 7 103.5 39.5t28.5 110.5q0 79 -28.5 112t-103.5 40v-302zM181 246q0 -78 28.5 -110.5t103.5 -39.5
v302q-75 -7 -103.5 -40t-28.5 -112z" />
    <glyph glyph-name="uni0445" unicode="&#x445;" horiz-adv-x="566" 
d="M403 0l-117 207h-6l-117 -207h-152l152 253l-140 240h151l105 -190h9l105 190h151l-140 -240l151 -253h-152z" />
    <glyph glyph-name="uni0446" unicode="&#x446;" horiz-adv-x="625" 
d="M526 106h75v-247h-98l-12 141h-428v493h146v-387h171v387h146v-387z" />
    <glyph glyph-name="uni0447" unicode="&#x447;" horiz-adv-x="567" 
d="M356 493h147v-493h-147v184q-85 -29 -166 -29q-147 0 -147 113v225h146v-179q0 -26 11.5 -36.5t39.5 -10.5q60 0 116 21v205z" />
    <glyph glyph-name="uni0448" unicode="&#x448;" horiz-adv-x="836" 
d="M631 493h142v-493h-710v493h142v-387h148v387h130v-387h148v387z" />
    <glyph glyph-name="uni0449" unicode="&#x449;" horiz-adv-x="872" 
d="M773 106h74v-247h-97l-12 141h-675v493h142v-387h147v387h131v-387h147v387h143v-387z" />
    <glyph glyph-name="uni044A" unicode="&#x44a;" horiz-adv-x="654" 
d="M399 322q129 0 177 -34.5t48 -129.5q0 -93 -46.5 -128.5t-154.5 -35.5q-152 0 -237 6h-2v384h-165v109h307v-171h73zM399 98q45 0 60.5 13t15.5 53q0 38 -15.5 51.5t-60.5 13.5h-73v-131h73z" />
    <glyph glyph-name="uni044B" unicode="&#x44b;" horiz-adv-x="779" 
d="M279 322q130 0 178 -34.5t48 -129.5q0 -93 -46 -128.5t-154 -35.5q-153 0 -238 6h-4v493h142v-171h74zM568 493h148v-493h-148v493zM279 98q46 0 61.5 12.5t15.5 53.5q0 39 -15.5 52t-61.5 13h-74v-131h74z" />
    <glyph glyph-name="uni044C" unicode="&#x44c;" horiz-adv-x="537" 
d="M281 322q130 0 178 -34.5t48 -129.5q0 -93 -46.5 -128.5t-154.5 -35.5q-154 0 -239 6h-4v493h142v-171h76zM281 98q46 0 61.5 12.5t15.5 53.5q0 39 -15.5 52t-61.5 13h-76v-131h76z" />
    <glyph glyph-name="uni044D" unicode="&#x44d;" horiz-adv-x="534" 
d="M226 504q148 0 207.5 -57.5t59.5 -202.5q0 -142 -60 -199t-207 -57q-117 0 -194 26l12 96q92 -5 182 -5q64 0 88.5 19.5t28.5 80.5h-248v91h247q-7 54 -32 73t-84 18q-59 0 -177 -2l-12 94q75 25 189 25z" />
    <glyph glyph-name="uni044E" unicode="&#x44e;" horiz-adv-x="831" 
d="M540 507q140 0 194.5 -54t54.5 -207q0 -149 -55 -202.5t-194 -53.5q-123 0 -175 45t-59 166h-96v-201h-147v493h147v-188h97q9 116 61 159t172 43zM538 106q58 0 78 28.5t20 113.5q0 86 -20 114.5t-78 28.5t-77 -28.5t-19 -114.5q0 -85 19 -113.5t77 -28.5z" />
    <glyph glyph-name="uni044F" unicode="&#x44f;" horiz-adv-x="564" 
d="M264 503q166 0 238 -7v-496h-144v168h-91q-50 0 -57 -36l-33 -132h-152l42 153q14 49 94 57v5q-108 20 -108 133q0 87 44 121t167 34zM267 265h91v129h-91q-44 0 -57 -11.5t-13 -48.5q0 -42 13 -55.5t57 -13.5z" />
    <glyph glyph-name="uni0450" unicode="&#x450;" horiz-adv-x="563" 
d="M371 612l-43 -64l-225 109l67 103zM315 106q79 0 184 11l14 -92q-77 -37 -215 -37q-139 0 -198 60t-59 198q0 144 58 202.5t193 58.5q123 0 178 -42.5t56 -129.5q0 -69 -35.5 -103.5t-114.5 -34.5h-178q7 -54 32.5 -72.5t84.5 -18.5zM297 399q-57 1 -78 -21.5t-24 -91.5
h140q28 0 37 13t9 38q0 35 -18 48.5t-66 13.5z" />
    <glyph glyph-name="uni0451" unicode="&#x451;" horiz-adv-x="563" 
d="M178 580q-32 0 -32 33v58q0 33 32 33h49q32 0 32 -33v-58q0 -33 -32 -33h-49zM360 580q-33 0 -33 33v58q0 33 33 33h49q32 0 32 -33v-58q0 -33 -32 -33h-49zM315 106q79 0 184 11l14 -92q-77 -37 -215 -37q-139 0 -198 60t-59 198q0 144 58 202.5t193 58.5
q123 0 178 -42.5t56 -129.5q0 -69 -35.5 -103.5t-114.5 -34.5h-178q7 -54 32.5 -72.5t84.5 -18.5zM297 399q-57 1 -78 -21.5t-24 -91.5h140q28 0 37 13t9 38q0 35 -18 48.5t-66 13.5z" />
    <glyph glyph-name="uni0452" unicode="&#x452;" horiz-adv-x="606" 
d="M425 413q138 0 140 -137v-257q0 -69 -33 -128.5t-90 -91.5l-83 65q57 66 57 155v212q0 30 -13 42t-46 12q-51 0 -124 -36v-249h-147v470h-67v82h67v148h148v-148h171v-82h-171v-35q0 -47 -7 -94q97 72 198 72z" />
    <glyph glyph-name="uni0453" unicode="&#x453;" horiz-adv-x="472" 
d="M376 758l68 -102l-225 -109l-44 63zM187 499q192 0 271 -13l-6 -103h-200q-24 0 -34.5 -10.5t-10.5 -34.5v-338h-147v380q0 119 127 119z" />
    <glyph glyph-name="uni0454" unicode="&#x454;" horiz-adv-x="534" 
d="M490 110l12 -96q-77 -26 -194 -26q-147 0 -207 57t-60 199q0 145 59.5 202.5t207.5 57.5q118 0 190 -25l-13 -94q-116 2 -177 2q-59 1 -84 -18t-32 -73h248v-91h-249q5 -61 30 -80.5t87 -19.5q92 0 182 5z" />
    <glyph glyph-name="uni0455" unicode="&#x455;" horiz-adv-x="530" 
d="M248 507q132 -2 229 -19l-10 -95q-128 2 -191 2q-35 0 -48.5 -0.5t-27 -3.5t-16.5 -9.5t-3 -19.5q0 -5 0.5 -9t2.5 -7.5t3.5 -5.5t5.5 -4.5t6.5 -3.5t9 -3.5t10 -3.5t13 -3.5t14.5 -3.5l126 -34q66 -19 94 -50.5t28 -93.5q0 -88 -51 -119.5t-175 -31.5q-120 0 -221 17
l9 96q36 -2 171 -2q77 0 100.5 6.5t23.5 30.5q0 5 -0.5 9t-2.5 7.5t-4 5.5t-6.5 4.5t-7 4t-9.5 4t-11 3.5t-13.5 3.5t-15.5 4.5l-123 33q-67 20 -93 54.5t-26 95.5q0 77 47 109t162 32z" />
    <glyph glyph-name="uni0456" unicode="&#x456;" horiz-adv-x="281" 
d="M173 711q43 0 43 -43v-54q0 -43 -43 -43h-65q-43 0 -43 43v54q0 43 43 43h65zM214 493v-493h-147v493h147z" />
    <glyph glyph-name="uni0457" unicode="&#x457;" horiz-adv-x="282" 
d="M74 704q32 0 32 -33v-58q0 -33 -32 -33h-49q-32 0 -32 33v58q0 33 32 33h49zM256 704q32 0 32 -33v-58q0 -33 -32 -33h-49q-33 0 -33 33v58q0 33 33 33h49zM215 493v-493h-148v493h148z" />
    <glyph glyph-name="uni0458" unicode="&#x458;" horiz-adv-x="282" 
d="M173 715q43 0 43 -43v-54q0 -43 -43 -43h-66q-43 0 -43 43v54q0 43 43 43h66zM215 493v-470q0 -69 -34 -128.5t-93 -91.5l-81 65q60 68 60 155v470h148z" />
    <glyph glyph-name="uni0459" unicode="&#x459;" horiz-adv-x="826" 
d="M574 321q127 0 174.5 -35t47.5 -129q0 -93 -45.5 -128t-152.5 -35q-125 0 -230 6h-2v396h-49q-25 0 -35.5 -9.5t-13.5 -34.5q-20 -173 -43 -240q-23 -70 -74 -98t-120 -18l-10 101q20 4 31.5 7.5t26 16t22.5 32.5q19 46 40 226q12 114 130 114h232v-172h71zM574 96
q46 0 61.5 13t15.5 53q0 39 -15.5 52.5t-61.5 13.5h-71v-132h71z" />
    <glyph glyph-name="uni045A" unicode="&#x45a;" horiz-adv-x="825" 
d="M578 314q125 0 171 -33t46 -124q0 -93 -44.5 -128t-149.5 -35q-151 0 -235 6h-2v219h-166v-219h-135v493h135v-178h166v178h138v-179h76zM578 96q43 0 58 13t15 51q0 37 -14.5 50t-58.5 13h-76v-127h76z" />
    <glyph glyph-name="uni045B" unicode="&#x45b;" horiz-adv-x="606" 
d="M425 413q140 0 140 -137v-276h-149v231q0 31 -12.5 42.5t-46.5 11.5q-51 0 -124 -36v-249h-147v470h-67v82h67v148h148v-148h171v-82h-171v-35q0 -47 -7 -94q97 72 198 72z" />
    <glyph glyph-name="uni045C" unicode="&#x45c;" horiz-adv-x="564" 
d="M473 656l-225 -109l-44 63l201 148zM351 255q30 -4 49 -8.5t37 -18.5t27.5 -26t24.5 -46.5t24.5 -63.5t29.5 -92h-154q-44 138 -64.5 170.5t-71.5 33.5h-48q5 -25 5 -42v-162h-147v493h147v-126q0 -30 -6 -60h37q57 0 79 32.5t57 153.5h150q-3 -10 -9 -28
q-40 -123 -60 -153q-26 -38 -83 -49q-10 -2 -24 -4v-4z" />
    <glyph glyph-name="uni045D" unicode="&#x45d;" horiz-adv-x="606" 
d="M179 760l201 -148l-43 -64l-225 109zM543 493v-493l-132 -1v258q0 29 5 79h-4q-11 -36 -37 -73l-186 -263h-126v493h131v-263q0 -28 -5 -73h3q13 33 37 67l188 269h126z" />
    <glyph glyph-name="uni045E" unicode="&#x45e;" horiz-adv-x="565" 
d="M278 558q-80 0 -126.5 46t-38.5 109h99q-4 -82 66 -82q71 0 65 82h99q8 -64 -38 -109.5t-126 -45.5zM397 493h158l-175 -500q-39 -122 -135 -171q-74 -42 -202 -20l12 98q91 -3 129 20q39 23 62 80h-28q-38 0 -49 36l-160 457h157l92 -319q12 -46 16 -74h12q16 57 20 74z
" />
    <glyph glyph-name="uni045F" unicode="&#x45f;" horiz-adv-x="601" 
d="M392 493h146v-493h-179l-10 -163h-98l-11 163h-177v493h145l2 -387h180z" />
    <glyph glyph-name="uni0462" unicode="&#x462;" horiz-adv-x="639" 
d="M363 434q142 0 197 -48t55 -175q0 -125 -51.5 -172t-174.5 -47q-180 0 -276 8h-4v532h-114v96h114v104h152v-104h226v-96h-226v-98h102zM363 110q62 0 80.5 20.5t18.5 85.5t-19 88t-80 23h-102v-217h102z" />
    <glyph glyph-name="uni0463" unicode="&#x463;" horiz-adv-x="557" 
d="M301 322q130 0 178 -34.5t48 -129.5q0 -93 -46.5 -128.5t-154.5 -35.5q-154 0 -239 6h-4v454h-84v82h84v154h142v-154h166v-82h-166v-132h76zM301 98q46 0 61.5 12.5t15.5 53.5q0 39 -15.5 52t-61.5 13h-76v-131h76z" />
    <glyph glyph-name="uni046A" unicode="&#x46a;" horiz-adv-x="889" 
d="M-6 0q71 197 98 247q41 77 101 101q44 18 122 22v5l-210 250q-18 21 -8 43t38 22h617q27 0 37 -22t-7 -43l-209 -250v-5q59 -3 96.5 -13.5t66.5 -31.5t51.5 -62t44.5 -95t53 -139q6 -19 10 -29h-159q-17 51 -25.5 77.5t-21.5 61.5t-19 50t-17 36.5t-17 28.5t-18 18
t-20 13t-23 6t-28 4h-34q4 -52 4 -66v-229h-146v229q0 23 5 66q-26 0 -41 -0.5t-32.5 -6.5t-26.5 -11.5t-23 -24t-21.5 -34.5t-22 -53.5t-25.5 -70t-31 -94.5h-159zM443 405l152 180h-304z" />
    <glyph glyph-name="uni046B" unicode="&#x46b;" horiz-adv-x="732" 
d="M-5 0q57 151 80 187q31 49 85 64q28 7 76 12v4l-152 165q-17 20 -8 41t35 21h508q26 0 36 -21t-8 -40l-151 -166v-4q58 -6 87.5 -14.5t56 -39t42.5 -69t50 -126.5q3 -9 5 -14h-153q-4 10 -10 28q-18 51 -25.5 71.5t-20 46.5t-18 32.5t-19 15t-25.5 9t-34 0.5q3 -29 3 -47
v-156h-138v156q0 6 1.5 22.5t1.5 24.5q-58 0 -77.5 -24.5t-65.5 -151.5q-6 -17 -10 -27h-152zM366 280l110 120h-221z" />
    <glyph glyph-name="uni0472" unicode="&#x472;" horiz-adv-x="684" 
d="M342 703q166 0 231 -76.5t65 -281.5t-65 -281.5t-231 -76.5t-230.5 76.5t-64.5 281.5t64.5 281.5t230.5 76.5zM342 580q-71 0 -100.5 -39t-33.5 -142h268q-4 103 -33.5 142t-100.5 39zM342 110q72 0 101 40.5t33 148.5h-268q4 -108 33 -148.5t101 -40.5z" />
    <glyph glyph-name="uni0473" unicode="&#x473;" horiz-adv-x="589" 
d="M295 507q139 0 196 -59t57 -202q0 -142 -57 -200.5t-196 -58.5t-196.5 58.5t-57.5 200.5q0 143 57.5 202t196.5 59zM295 396q-54 0 -76 -23t-26 -86h204q-4 63 -26.5 86t-75.5 23zM295 98q55 0 77 24t25 91h-204q3 -67 24.5 -91t77.5 -24z" />
    <glyph glyph-name="uni0474" unicode="&#x474;" horiz-adv-x="674" 
d="M249 0q-20 0 -34.5 11.5t-19.5 30.5l-188 648h157l125 -498q10 -40 17 -77h25q2 14 8.5 41t8.5 36l79 376q29 136 167 136q41 0 82 -7v-113q-18 2 -35 2q-32 0 -49.5 -12.5t-25.5 -44.5l-124 -487q-5 -19 -19.5 -30.5t-34.5 -11.5h-139z" />
    <glyph glyph-name="uni0475" unicode="&#x475;" horiz-adv-x="565" 
d="M206 0q-35 0 -47 37l-152 456h145l94 -334q7 -24 12 -56h21l13 55l58 229q27 116 137 116q45 0 78 -7v-104q-18 2 -29 2q-28 0 -43 -10.5t-22 -36.5l-90 -310q-10 -37 -49 -37h-126z" />
    <glyph glyph-name="uni048A" unicode="&#x48a;" horiz-adv-x="751" 
d="M361 740q-80 0 -126.5 46t-38.5 109h99q-4 -82 66 -82q71 0 65 82h99q8 -64 -38 -109.5t-126 -45.5zM639 110h85v-110l-43 -151h-107l30 151h-111v412q0 46 9 93h-7q-15 -46 -39 -91l-233 -414h-151v690h145v-405q0 -43 -8 -96h6q13 38 40 90l233 411h151v-580z" />
    <glyph glyph-name="uni048B" unicode="&#x48b;" horiz-adv-x="642" 
d="M302 558q-80 0 -126.5 46t-38.5 109h99q-4 -82 66 -82q71 0 65 82h99q8 -64 -38 -109.5t-126 -45.5zM543 100h74v-100l-42 -141h-100l35 141l-99 -1v258q0 29 5 79h-4q-11 -36 -37 -73l-186 -263h-126v493h131v-263q0 -28 -5 -73h3q13 33 37 67l188 269h126v-393z" />
    <glyph glyph-name="uni048C" unicode="&#x48c;" horiz-adv-x="635" 
d="M368 434q142 0 196.5 -48t54.5 -175q0 -125 -51 -172t-174 -47q-181 0 -276 8h-4v507h-118v96h118v87h152v-87h221v-96h-221v-73h102zM368 110q61 0 79.5 20.5t18.5 85.5t-18.5 88t-79.5 23h-102v-217h102z" />
    <glyph glyph-name="uni048D" unicode="&#x48d;" horiz-adv-x="557" 
d="M301 322q130 0 178 -34.5t48 -129.5q0 -93 -46.5 -128.5t-154.5 -35.5q-154 0 -239 6h-4v454h-84v82h84v154h142v-154h166v-82h-166v-132h76zM301 98q46 0 61.5 12.5t15.5 53.5q0 39 -15.5 52t-61.5 13h-76v-131h76z" />
    <glyph glyph-name="uni048E" unicode="&#x48e;" horiz-adv-x="619" 
d="M607 235l-46 -47l-78 77q-47 -17 -131 -17q-66 0 -130 8v-256h-152v690q93 9 262 9q145 0 198.5 -47t53.5 -178q0 -122 -44 -172zM329 362q35 0 52 5l-70 70l46 46l73 -73q8 21 8 64q0 66 -22.5 89t-86.5 23h-107v-224h107z" />
    <glyph glyph-name="uni048F" unicode="&#x48f;" horiz-adv-x="600" 
d="M558 242q0 -171 -71 -224l61 -87l-54 -38l-70 99q-20 -5 -54 -5q-100 0 -165 48q5 -51 3 -106v-119h-147v683h120l11 -72q30 37 85 61t111 24q170 0 170 -264zM320 93q13 0 31 2l-60 86l54 38l57 -81q12 34 12 104q0 87 -19 117.5t-66 30.5q-51 0 -121 -47v-230
q78 -20 112 -20z" />
    <glyph glyph-name="uni0490" unicode="&#x490;" horiz-adv-x="538" 
d="M425 842h100v-166l-7 -106h-242q-29 0 -41.5 -12.5t-12.5 -42.5v-515h-153v546q0 65 41 106t104 41q133 0 197 -4z" />
    <glyph glyph-name="uni0491" unicode="&#x491;" horiz-adv-x="481" 
d="M371 638h96v-152l-7 -103h-207q-25 0 -35.5 -10.5t-10.5 -34.5v-338h-146v380q0 119 126 119q114 0 171 -3z" />
    <glyph glyph-name="uni0492" unicode="&#x492;" horiz-adv-x="557" 
d="M312 570q-29 0 -41.5 -12.5t-12.5 -42.5v-150h203v-96h-203v-269h-153v269h-113v96h113v181q0 65 41 106t104 41q216 0 306 -11l-7 -112h-237z" />
    <glyph glyph-name="uni0493" unicode="&#x493;" horiz-adv-x="483" 
d="M198 499q192 0 271 -13l-6 -103h-200q-24 0 -34.5 -10.5t-10.5 -34.5v-338h-147v380q0 119 127 119z" />
    <glyph glyph-name="uni0494" unicode="&#x494;" horiz-adv-x="607" 
d="M389 445q45 0 77.5 -13t58.5 -43.5t39.5 -87t13.5 -139.5q0 -93 -21.5 -159t-61.5 -102.5t-83 -54.5t-100 -27l-21 105q77 25 105.5 71.5t28.5 165.5q0 100 -19 130t-71 30q-56 0 -115 -27v-294h-152v546q0 65 41 106t104 41q215 0 305 -11l-7 -112h-237
q-29 0 -41.5 -12.5t-12.5 -42.5v-114q79 44 169 44z" />
    <glyph glyph-name="uni0495" unicode="&#x495;" horiz-adv-x="554" 
d="M358 290q171 0 171 -208q0 -76 -20.5 -131t-58.5 -86.5t-80 -48t-97 -24.5l-22 101q72 18 100.5 59.5t28.5 120.5q0 61 -17 82t-57 21q-50 0 -99 -27v-149h-147v380q0 119 127 119q184 0 259 -13l-7 -99h-187q-24 0 -34.5 -10.5t-10.5 -34.5v-93q68 41 151 41z" />
    <glyph glyph-name="uni0496" unicode="&#x496;" horiz-adv-x="952" 
d="M879 110h73v-261h-108l-11 151h-80q-5 17 -15 47q-54 166 -77 205q-36 50 -86 52h-46q8 -37 8 -66v-238h-146v238q0 29 8 66h-49q-55 0 -82 -47.5t-79 -206.5q-10 -32 -16 -50h-160q60 195 82 241q35 77 91 101q25 11 61 16v4q-25 3 -45.5 11t-35.5 17t-29 29t-23.5 35.5
t-22 50t-20 58t-22.5 72.5q-11 36 -17 55h155q54 -170 74 -209q41 -64 89 -68h49q-8 43 -8 82v195h146v-195q0 -44 -7 -82h44q53 0 80 49t74 194q2 7 3.5 11t3.5 11t4 12h155q-55 -176 -71 -212q-34 -77 -88 -101q-24 -11 -56 -15v-4q82 -11 119.5 -61t80.5 -187z" />
    <glyph glyph-name="uni0497" unicode="&#x497;" horiz-adv-x="850" 
d="M766 106h79v-247h-97l-12 141h-84q-50 141 -69 173t-60 33h-51q5 -25 5 -43v-163h-130v163q0 18 5 43h-53q-40 -1 -59.5 -33.5t-69.5 -172.5h-149q16 49 23 71t19 54.5t18 44t18 30t21 24t24 14.5t30.5 12t38.5 6v4q-74 9 -100 43.5t-67 158.5q-6 20 -10 31h145
q41 -119 62 -153t64 -34h46q-6 30 -6 59v128h130v-128q0 -29 -6 -59h43q44 0 64 33t62 154h146q-46 -138 -62 -168q-26 -45 -75 -58q-16 -4 -39 -7v-4q68 -10 97 -37.5t59 -112.5z" />
    <glyph glyph-name="uni0498" unicode="&#x498;" horiz-adv-x="565" 
d="M262 698q134 0 186 -37.5t52 -142.5q0 -75 -28 -113.5t-90 -44.5v-4q75 -7 107 -52.5t32 -131.5q0 -103 -52 -141.5t-176 -38.5q-160 0 -264 30l11 105q120 -19 224 -19q59 0 79.5 18.5t20.5 74.5q0 60 -21.5 81t-82.5 21l-133 2v105l132 2q52 0 71 17.5t19 67.5
q0 51 -20.5 68t-76.5 17q-78 0 -197 -13l-12 110q90 19 219 19zM227 -38q83 9 114.5 -3t29.5 -62q-3 -73 -59 -109.5t-141 -25.5l19 65q82 -2 86 58q1 13 -10.5 16t-52.5 3z" />
    <glyph glyph-name="uni0499" unicode="&#x499;" horiz-adv-x="517" 
d="M478 123q0 -71 -38.5 -99.5t-125.5 -33.5l-8 -153h-99l-10 152q-96 3 -168 19l10 102q108 -10 200 -10q53 0 70 9.5t17 42.5q0 30 -17.5 39.5t-68.5 10.5l-142 2v93l141 2q44 0 59.5 9.5t15.5 39.5q0 27 -18 35t-72 8q-92 0 -170 -10l-10 102q73 22 173 22q137 0 189 -26
t52 -108q0 -57 -24 -84t-81 -31v-4q66 -5 95.5 -36.5t29.5 -92.5z" />
    <glyph glyph-name="uni049A" unicode="&#x49a;" horiz-adv-x="652" 
d="M582 110h74v-261h-104l-12 151h-82q-56 183 -76 224q-31 63 -78 75q-18 5 -41 5h-49q8 -37 8 -66v-238h-152v690h152v-195q0 -39 -8 -82h47q71 0 102.5 54t77.5 213q2 7 3 10h155q-56 -176 -71 -209q-35 -78 -88 -103q-25 -11 -60 -16v-4q43 -6 71.5 -20t52 -46t39.5 -71
t39 -111z" />
    <glyph glyph-name="uni049B" unicode="&#x49b;" horiz-adv-x="589" 
d="M508 106h76v-247h-97l-12 141h-86q-44 138 -64.5 170.5t-71.5 33.5h-48q5 -25 5 -42v-162h-147v493h147v-126q0 -30 -6 -60h37q57 0 79 32.5t57 153.5h150q-3 -10 -9 -28q-40 -123 -60 -153q-26 -38 -83 -49q-10 -2 -24 -4v-4q69 -9 98 -36t59 -113z" />
    <glyph glyph-name="uni049C" unicode="&#x49c;" horiz-adv-x="639" 
d="M395 358q19 -3 35 -6.5t30.5 -11.5t25.5 -14t22.5 -21.5t19 -24.5t18 -33t16.5 -37.5t17.5 -47.5t17.5 -52.5t20 -62.5q10 -31 15 -47h-159q-57 183 -77 224q-25 53 -60 69v-127h-74v138h-52q7 -40 7 -66v-238h-147v690h147v-195q0 -39 -8 -82h53v140h74v-126
q27 14 48.5 53t34.5 78t40 132h154q-56 -176 -71 -211q-34 -77 -88 -102q-25 -11 -59 -15v-4z" />
    <glyph glyph-name="uni049D" unicode="&#x49d;" horiz-adv-x="577" 
d="M365 255q83 -11 111 -50.5t80 -204.5h-154q-35 112 -52 148.5t-43 47.5v-89h-60v97h-42q5 -25 5 -42v-162h-147v493h147v-126q0 -30 -6 -60h43v101h60v-90q26 13 42 49t42 126h149q-46 -139 -61 -167q-24 -44 -69 -58q-18 -5 -45 -9v-4z" />
    <glyph glyph-name="uni049E" unicode="&#x49e;" horiz-adv-x="675" 
d="M431 358q19 -3 35 -6.5t30.5 -11.5t25.5 -14t22.5 -21.5t19 -24.5t18 -33t16.5 -37.5t17.5 -47.5t17.5 -52.5t20 -62.5q10 -31 15 -47h-159q-56 183 -76 224q-31 63 -78 75q-18 5 -41 5h-49q8 -37 8 -66v-238h-152v517h-126v96h126v77h152v-77h118v-96h-118v-22
q0 -39 -8 -82h47q71 0 102.5 54t77.5 213q2 7 3 10h155q-56 -176 -71 -209q-35 -78 -88 -103q-25 -11 -60 -16v-4z" />
    <glyph glyph-name="uni049F" unicode="&#x49f;" horiz-adv-x="564" 
d="M351 255q30 -4 49 -8.5t37 -18.5t27.5 -26t24.5 -46.5t24.5 -63.5t29.5 -92h-154q-44 138 -64.5 170.5t-71.5 33.5h-48q5 -25 5 -42v-162h-147v536h-66v81h66v73h147v-73h168v-81h-168v-169q0 -30 -6 -60h37q57 0 79 32.5t57 153.5h150q-3 -10 -9 -28q-40 -123 -60 -153
q-26 -38 -83 -49q-10 -2 -24 -4v-4z" />
    <glyph glyph-name="uni04A0" unicode="&#x4a0;" horiz-adv-x="757" 
d="M513 358q19 -3 35 -6.5t30.5 -11.5t25.5 -14t22.5 -21.5t19 -24.5t18 -33t16.5 -37.5t17.5 -47.5t17.5 -52.5t20 -62.5q10 -31 15 -47h-159q-56 183 -76 224q-31 63 -78 75q-18 5 -41 5h-49q8 -37 8 -66v-238h-152v690h152v-195q0 -39 -8 -82h47q69 0 106 60
q26 44 71 196q1 4 3 11l3 10h155q-56 -176 -71 -209q-35 -78 -88 -103q-25 -11 -60 -16v-4zM156 627v3h33v-3h-33z" />
    <glyph glyph-name="uni04A1" unicode="&#x4a1;" horiz-adv-x="662" 
d="M449 255q30 -4 49 -8.5t37 -18.5t27.5 -26t24.5 -46.5t24.5 -63.5t29.5 -92h-154q-44 138 -64.5 170.5t-71.5 33.5h-48q5 -25 5 -42v-162h-147v384h-165v109h312v-126q0 -30 -6 -60h37q57 0 79 32.5t57 153.5h150q-3 -10 -9 -28q-40 -123 -60 -153q-26 -38 -83 -49
q-10 -2 -24 -4v-4z" />
    <glyph glyph-name="uni04A2" unicode="&#x4a2;" horiz-adv-x="708" 
d="M620 110h82v-261h-108l-11 151h-116v308h-243v-308h-152v690h152v-264h243v264h153v-580z" />
    <glyph glyph-name="uni04A3" unicode="&#x4a3;" horiz-adv-x="623" 
d="M541 106h73v-247h-97l-12 141h-109v209h-187v-209h-146v493h146v-181h187v181h145v-387z" />
    <glyph glyph-name="uni04A4" unicode="&#x4a4;" horiz-adv-x="869" 
d="M590 693q188 0 266 -11l-7 -112h-197q-29 0 -41.5 -12.5t-12.5 -42.5v-515h-153v308h-223v-308h-152v690h152v-264h223v120q0 65 41 106t104 41z" />
    <glyph glyph-name="uni04A5" unicode="&#x4a5;" horiz-adv-x="761" 
d="M512 499q166 0 235 -13l-6 -103h-164q-24 0 -34.5 -10.5t-10.5 -34.5v-338h-147v209h-176v-209h-146v493h146v-181h176v68q0 119 127 119z" />
    <glyph glyph-name="uni04A6" unicode="&#x4a6;" horiz-adv-x="1004" 
d="M786 449q45 0 77.5 -13t58.5 -44t39.5 -88.5t13.5 -141.5q0 -91 -21.5 -156t-61.5 -101t-83 -54t-100 -26l-21 105q78 25 106.5 70t28.5 161q0 102 -19.5 133t-71.5 31q-56 0 -115 -28v-297h-153v580h-242v-580h-152v690h547v-285q79 44 169 44z" />
    <glyph glyph-name="uni04A7" unicode="&#x4a7;" horiz-adv-x="895" 
d="M692 379q177 0 177 -239q0 -299 -254 -336l-21 99q72 24 101 74t29 162q0 68 -19.5 95t-62.5 27q-54 0 -110 -33v-228h-143v388h-182v-388h-144v494h469v-164q74 49 160 49z" />
    <glyph glyph-name="uni04A8" unicode="&#x4a8;" horiz-adv-x="900" 
d="M891 14q-52 -26 -151 -26q-90 0 -165 38q-87 -38 -194 -38q-159 0 -246.5 90t-87.5 277q0 186 74.5 266.5t226.5 80.5v-117q-75 0 -108.5 -51.5t-33.5 -183.5q0 -244 212 -244q30 0 51 4q-96 117 -96 319q0 138 54 204.5t164 66.5q232 0 232 -254q0 -217 -129 -341
q20 -5 48 -5q70 0 136 7zM599 578q-40 0 -57 -36.5t-17 -113.5q0 -175 64 -258q82 82 82 267q0 72 -16.5 106.5t-55.5 34.5z" />
    <glyph glyph-name="uni04A9" unicode="&#x4a9;" horiz-adv-x="737" 
d="M744 26q-43 -35 -140 -35q-74 0 -135 33q-77 -33 -164 -33q-135 0 -200 67t-65 205q0 130 60 187t181 57v-98q-96 0 -96 -146q0 -90 36 -131t114 -41q24 0 45 3q-77 90 -77 219q0 98 47 146t133 48q94 0 144.5 -49t50.5 -145q0 -132 -108 -226q16 -4 37 -4q74 0 120 12z
M436 309q0 -109 49 -169q61 54 61 169q0 52 -12.5 74.5t-41.5 22.5q-30 0 -43 -23.5t-13 -73.5z" />
    <glyph glyph-name="uni04AA" unicode="&#x4aa;" horiz-adv-x="586" 
d="M558 16q-75 -23 -159 -27l-5 -140h-108l-5 142q-128 12 -181 93.5t-53 260.5q0 197 65 277t225 80q116 0 207 -23l-13 -114q-81 5 -194 5q-75 0 -102.5 -47.5t-27.5 -177.5t27.5 -177.5t102.5 -47.5q139 0 208 9z" />
    <glyph glyph-name="uni04AB" unicode="&#x4ab;" horiz-adv-x="507" 
d="M478 21q-58 -24 -141 -31l-9 -153h-99l-9 155q-98 13 -139 72t-41 183q0 143 56 201.5t193 58.5q112 0 182 -31l-16 -92q-108 2 -141 2q-68 0 -93.5 -29t-25.5 -110t25.5 -110t93.5 -29q87 0 151 9z" />
    <glyph glyph-name="uni04AC" unicode="&#x4ac;" horiz-adv-x="601" 
d="M583 690v-124h-206v-566h-153v566h-206v124h565zM397 -55h9l6 -34h-21z" />
    <glyph glyph-name="uni04AD" unicode="&#x4ad;" horiz-adv-x="515" 
d="M501 388h-170v-282h74v-247h-97l-12 141h-113v388h-169v105h487v-105z" />
    <glyph glyph-name="uni04AE" unicode="&#x4ae;" horiz-adv-x="608" 
d="M607 690l-226 -461v-229h-153v229l-228 461h159l115 -253q10 -22 26 -87h10q12 54 25 87l115 253h157z" />
    <glyph glyph-name="uni04AF" unicode="&#x4af;" horiz-adv-x="620" 
d="M612 493l-226 -456v-227h-151v225l-228 458h159l113 -248q9 -21 26 -88h10q17 67 26 88l113 248h158z" />
    <glyph glyph-name="uni04B0" unicode="&#x4b0;" horiz-adv-x="578" 
d="M610 690l-197 -401h110v-86h-139v-203h-153v203h-142v86h112l-198 401h159l115 -253q10 -22 26 -87h10q12 54 25 87l115 253h157z" />
    <glyph glyph-name="uni04B1" unicode="&#x4b1;" horiz-adv-x="620" 
d="M612 493l-198 -400h112v-81h-140v-202h-151v202h-141v81h112l-199 400h159l113 -248q9 -21 26 -88h10q17 67 26 88l113 248h158z" />
    <glyph glyph-name="uni04B2" unicode="&#x4b2;" horiz-adv-x="705" 
d="M575 110h132v-261h-107l-12 151h-115l-147 307h-12l-147 -307h-157l180 354l-166 336h156l133 -285h15l133 285h156l-166 -336z" />
    <glyph glyph-name="uni04B3" unicode="&#x4b3;" horiz-adv-x="567" 
d="M490 106h73v-247h-97l-12 141h-52l-117 207h-6l-117 -207h-152l152 253l-141 240h151l105 -190h10l105 190h151l-141 -240z" />
    <glyph glyph-name="uni04B4" unicode="&#x4b4;" horiz-adv-x="832" 
d="M744 110h81v-261h-107l-12 151h-514v566h-174v124h501v-124h-174v-456h246v580h153v-580z" />
    <glyph glyph-name="uni04B5" unicode="&#x4b5;" horiz-adv-x="750" 
d="M669 110h72v-251h-100l-12 141h-468v388h-147v105h430v-105h-135v-278h212v383h148v-383z" />
    <glyph glyph-name="uni04B6" unicode="&#x4b6;" horiz-adv-x="677" 
d="M585 102h86v-102h-1l-12 -151h-108v151h-118v283q-107 -49 -208 -49q-91 0 -133.5 40.5t-42.5 126.5v289h153v-256q-1 -38 16.5 -55t61.5 -17q75 0 153 31v297h153v-588z" />
    <glyph glyph-name="uni04B7" unicode="&#x4b7;" horiz-adv-x="590" 
d="M500 106h76v-247h-98l-12 141h-112v184q-85 -29 -165 -29q-146 0 -146 113v225h146v-179q0 -26 11.5 -36.5t38.5 -10.5q59 0 115 21v205h148z" />
    <glyph glyph-name="uni04B8" unicode="&#x4b8;" horiz-adv-x="655" 
d="M437 690h148v-690h-148v287q-34 -17 -81 -31v-136h-74v119q-37 -5 -60 -5q-89 0 -131.5 40.5t-42.5 126.5v289h150v-256q0 -38 17.5 -54.5t60.5 -16.5h6v156h74v-149q32 7 81 24v296z" />
    <glyph glyph-name="uni04B9" unicode="&#x4b9;" horiz-adv-x="570" 
d="M362 493h147v-493h-147v184q-28 -9 -57 -15v-91h-60v81q-27 -4 -56 -4q-146 0 -146 113v225h144v-179q0 -26 11.5 -36.5t40.5 -10.5h6v119h60v-113q27 4 57 16v204z" />
    <glyph glyph-name="uni04BA" unicode="&#x4ba;" horiz-adv-x="638" 
d="M432 456q91 0 133.5 -40.5t42.5 -126.5v-289h-152v256q0 40 -17.5 56t-62.5 16q-78 0 -154 -31v-297h-152v690h152v-283q107 49 210 49z" />
    <glyph glyph-name="uni04BB" unicode="&#x4bb;" horiz-adv-x="599" 
d="M403 507q67 0 102.5 -35t35.5 -102v-370h-147v324q0 33 -10.5 45.5t-37.5 12.5q-51 0 -137 -45v-337h-148v700h148l1 -171q0 -51 -9 -103q103 81 202 81z" />
    <glyph glyph-name="uni04BC" unicode="&#x4bc;" horiz-adv-x="745" 
d="M508 120q92 0 169 10l12 -112q-81 -30 -209 -30q-163 0 -229 70.5t-72 235.5h-3q-107 0 -151 47.5t-31 148.5h111q-8 -47 8.5 -69t60.5 -22h5q7 173 73 238.5t219 65.5q128 0 187.5 -51t59.5 -167q0 -106 -51.5 -148.5t-169.5 -42.5h-157q3 -60 12 -94.5t31.5 -52.5
t49 -22.5t75.5 -4.5zM463 577q-65 0 -92 -37.5t-31 -140.5h129q53 0 76 18t23 64q0 51 -24.5 73.5t-80.5 22.5z" />
    <glyph glyph-name="uni04BD" unicode="&#x4bd;" horiz-adv-x="668" 
d="M422 106q79 0 184 11l14 -92q-78 -37 -215 -37q-127 0 -186.5 49t-68.5 160q-89 3 -125.5 46.5t-22.5 141.5l97 -1q-7 -52 5 -73t45 -24q7 121 65.5 170.5t184.5 49.5q123 0 178 -42.5t55 -129.5q1 -69 -34.5 -103.5t-114.5 -34.5h-178q7 -54 32.5 -72.5t84.5 -18.5z
M404 399q-57 1 -78 -21.5t-24 -91.5h140q27 0 36.5 13t9.5 38q0 35 -18 48.5t-66 13.5z" />
    <glyph glyph-name="uni04BE" unicode="&#x4be;" horiz-adv-x="741" 
d="M677 130l12 -112q-65 -25 -173 -29l-5 -140h-104l-6 144q-118 15 -167.5 86t-54.5 215h-3q-107 0 -151 47.5t-31 148.5h111q-8 -47 8.5 -69t60.5 -22h5q7 173 73 238.5t219 65.5q128 0 187.5 -51t59.5 -167q0 -106 -51.5 -148.5t-169.5 -42.5h-157q3 -60 12 -94.5
t31.5 -52.5t49 -22.5t75.5 -4.5q92 0 169 10zM463 577q-65 0 -92 -37.5t-31 -140.5h129q53 0 76 18t23 64q0 51 -24.5 73.5t-80.5 22.5z" />
    <glyph glyph-name="uni04BF" unicode="&#x4bf;" horiz-adv-x="668" 
d="M606 117l14 -92q-64 -30 -164 -35l-8 -153h-99l-10 155q-92 11 -136.5 60.5t-52.5 144.5q-89 3 -125.5 46.5t-22.5 141.5l97 -1q-7 -52 5 -73t45 -24q7 121 65.5 170.5t184.5 49.5q123 0 178 -42.5t55 -129.5q1 -69 -34.5 -103.5t-114.5 -34.5h-178q7 -54 32.5 -72.5
t84.5 -18.5q79 0 184 11zM404 399q-57 1 -78 -21.5t-24 -91.5h140q27 0 36.5 13t9.5 38q0 35 -18 48.5t-66 13.5z" />
    <glyph glyph-name="uni04C0" unicode="&#x4c0;" horiz-adv-x="294" 
d="M223 690v-690h-152v690h152z" />
    <glyph glyph-name="uni04C1" unicode="&#x4c1;" horiz-adv-x="938" 
d="M469 740q-80 0 -126.5 46t-38.5 109h99q-4 -82 66 -82q71 0 65 82h99q8 -64 -38 -109.5t-126 -45.5zM685 358q91 -12 127.5 -71t96.5 -256q7 -20 10 -31h-160q-5 17 -15 47q-54 166 -77 205q-36 50 -86 52h-46q8 -37 8 -66v-238h-146v238q0 29 8 66h-49q-55 0 -82 -47.5
t-79 -206.5q-10 -32 -16 -50h-160q60 195 82 241q35 77 91 101q25 11 61 16v4q-25 3 -45.5 11t-35.5 17t-29 29t-23.5 35.5t-22 50t-20 58t-22.5 72.5q-11 36 -17 55h155q54 -170 74 -209q41 -64 89 -68h49q-8 43 -8 82v195h146v-195q0 -44 -7 -82h44q53 0 80 49t74 194
q2 7 3.5 11t3.5 11t4 12h155q-55 -176 -71 -212q-34 -77 -88 -101q-24 -11 -56 -15v-4z" />
    <glyph glyph-name="uni04C2" unicode="&#x4c2;" horiz-adv-x="822" 
d="M413 558q-80 0 -126.5 46t-38.5 109h99q-4 -82 66 -82q71 0 65 82h99q8 -64 -38 -109.5t-126 -45.5zM610 256q22 -3 37.5 -6.5t30.5 -11.5t24.5 -14.5t21 -24t18 -30.5t18 -43.5t19 -54.5t22.5 -71h-149q-50 141 -69 173t-60 33h-51q5 -25 5 -43v-163h-130v163q0 18 5 43
h-53q-40 -1 -59.5 -33.5t-69.5 -172.5h-149q16 49 23 71t19 54.5t18 44t18 30t21 24t24 14.5t30.5 12t38.5 6v4q-74 9 -100 43.5t-67 158.5q-6 20 -10 31h145q41 -119 62 -153t64 -34h46q-6 30 -6 59v128h130v-128q0 -29 -6 -59h43q44 0 64 33t62 154h146q-46 -138 -62 -168
q-26 -45 -75 -58q-16 -4 -39 -7v-4z" />
    <glyph glyph-name="uni04C3" unicode="&#x4c3;" horiz-adv-x="628" 
d="M380 358q71 -3 121.5 -42.5t72 -95.5t21.5 -123q0 -140 -67.5 -209.5t-210.5 -63.5v100q35 1 59.5 12t36.5 24.5t18 40t7 43t1 49.5q0 114 -45 162t-131 48h-51q10 -42 10 -65v-238h-152v690h152v-195q0 -39 -8 -82h48q22 0 40 6t31 14t26 28.5t21.5 36t20.5 51t19 59.5
t22 75q1 5 2 7h155q-56 -176 -72 -213q-35 -76 -90 -100q-24 -11 -57 -15v-4z" />
    <glyph glyph-name="uni04C4" unicode="&#x4c4;" horiz-adv-x="569" 
d="M351 255q186 -33 186 -207q0 -108 -67 -166.5t-195 -57.5v94q38 2 62.5 13.5t35.5 32.5t14.5 41.5t3.5 50.5q0 72 -40 109.5t-103 38.5h-43q5 -25 5 -42v-162h-147v493h147v-126q0 -30 -6 -60h37q57 0 79 32.5t57 153.5h150q-3 -10 -9 -28q-40 -123 -60 -153
q-26 -38 -83 -49q-10 -2 -24 -4v-4z" />
    <glyph glyph-name="uni04C5" unicode="&#x4c5;" horiz-adv-x="681" 
d="M593 110h82v-110l-43 -151h-107l30 151h-115v580h-88q-59 0 -63 -58q-13 -155 -24.5 -236t-34.5 -139q-61 -170 -229 -150l-11 118q39 7 62.5 23t36.5 50q20 53 31 128.5t23 223.5q11 150 162 150h288v-580z" />
    <glyph glyph-name="uni04C6" unicode="&#x4c6;" horiz-adv-x="617" 
d="M528 108h83v-108l-43 -143h-104l31 143h-115v390h-64q-25 0 -36.5 -11t-15.5 -38q-21 -166 -36 -224q-30 -142 -201 -122l-15 110q41 7 58.5 16.5t25.5 36.5q19 56 32 210q12 125 137 125h263v-385z" />
    <glyph glyph-name="uni04C7" unicode="&#x4c7;" horiz-adv-x="689" 
d="M465 690h153v-633q0 -137 -80 -197.5t-199 -36.5v100q72 0 99 35t27 108v242h-243v-308h-152v690h152v-264h243v264z" />
    <glyph glyph-name="uni04C8" unicode="&#x4c8;" horiz-adv-x="604" 
d="M396 493h145v-461q0 -120 -70.5 -172.5t-176.5 -36.5v94q58 0 80 27.5t22 87.5v177h-187v-209h-146v493h146v-181h187v181z" />
    <glyph glyph-name="uni04C9" unicode="&#x4c9;" horiz-adv-x="707" 
d="M618 110h83v-110l-43 -151h-107l30 151h-116v308h-243v-308h-152v690h152v-264h243v264h153v-580z" />
    <glyph glyph-name="uni04CA" unicode="&#x4ca;" horiz-adv-x="630" 
d="M541 110h82v-110l-42 -147h-108l30 147h-107v209h-187v-209h-146v493h146v-181h187v181h145v-383z" />
    <glyph glyph-name="uni04CB" unicode="&#x4cb;" horiz-adv-x="638" 
d="M415 690h152v-690h-187l-11 -151h-108v261h154v176q-107 -52 -211 -52q-89 0 -131.5 40.5t-42.5 126.5v289h152v-256q0 -38 17 -54.5t60 -16.5q77 0 156 31v296z" />
    <glyph glyph-name="uni04CC" unicode="&#x4cc;" horiz-adv-x="567" 
d="M356 493h147v-493h-113l-11 -141h-98v235h75v90q-85 -29 -166 -29q-147 0 -147 113v225h146v-179q0 -26 11.5 -36.5t39.5 -10.5q60 0 116 21v205z" />
    <glyph glyph-name="uni04CD" unicode="&#x4cd;" horiz-adv-x="938" 
d="M849 110h98v-110l-43 -151h-107l30 151h-117l-22 571h-18l-104 -427q-10 -49 -61 -49h-100q-51 0 -63 49l-105 427h-17l-20 -571h-143l25 633q2 57 57 57h147q48 0 60 -49l84 -344q4 -20 10.5 -56t7.5 -41h13q1 5 7.5 41t10.5 56l83 344q11 49 62 49h147q54 0 57 -57z
" />
    <glyph glyph-name="uni04CE" unicode="&#x4ce;" horiz-adv-x="803" 
d="M725 110h83v-110l-43 -147h-108l31 147h-94l-14 385h-14l-80 -276q-11 -46 -55 -46h-80q-46 0 -57 46l-79 276h-14l-12 -385h-134l15 442q0 51 52 51h132q46 0 55 -46l62 -218q5 -19 14 -73h11q1 5 5.5 32t8.5 41l61 218q9 46 56 46h134q50 0 52 -51z" />
    <glyph glyph-name="uni04CF" unicode="&#x4cf;" horiz-adv-x="278" 
d="M213 690v-690h-148v690h148z" />
    <glyph glyph-name="uni04D0" unicode="&#x4d0;" horiz-adv-x="650" 
d="M327 739q-80 0 -126.5 46t-38.5 109h99q-4 -82 66 -82q71 0 65 82h99q8 -64 -38 -109.5t-126 -45.5zM494 0l-50 181h-237l-50 -181h-156l199 650q4 18 19 29t34 11h144q43 0 53 -40l199 -650h-155zM239 299h172l-58 211q-12 50 -14 65h-27l-15 -65z" />
    <glyph glyph-name="uni04D1" unicode="&#x4d1;" horiz-adv-x="571" 
d="M281 561q-80 0 -126.5 46t-38.5 109h99q-4 -82 66 -82q71 0 65 82h99q8 -64 -38 -109.5t-126 -45.5zM318 507q100 0 147.5 -40.5t47.5 -140.5v-326h-117l-15 75q-74 -87 -183 -87q-71 0 -115.5 37.5t-44.5 104.5v50q0 59 40 92t111 33h176v22q-1 37 -17.5 50.5
t-63.5 13.5q-81 0 -209 -8l-13 100q133 24 256 24zM184 150q0 -51 57 -51q59 0 124 48v69h-133q-48 -1 -48 -47v-19z" />
    <glyph glyph-name="uni04D2" unicode="&#x4d2;" horiz-adv-x="650" 
d="M212 761q-33 0 -33 33v58q0 33 33 33h49q32 0 32 -33v-58q0 -33 -32 -33h-49zM394 761q-33 0 -33 33v58q0 33 33 33h48q33 0 33 -33v-58q0 -33 -33 -33h-48zM494 0l-50 181h-237l-50 -181h-156l199 650q4 18 19 29t34 11h144q43 0 53 -40l199 -650h-155zM239 299h172
l-58 211q-12 50 -14 65h-27l-15 -65z" />
    <glyph glyph-name="uni04D3" unicode="&#x4d3;" horiz-adv-x="571" 
d="M165 583q-32 0 -32 33v58q0 33 32 33h49q32 0 32 -33v-58q0 -33 -32 -33h-49zM347 583q-33 0 -33 33v58q0 33 33 33h48q33 0 33 -33v-58q0 -33 -33 -33h-48zM318 507q100 0 147.5 -40.5t47.5 -140.5v-326h-117l-15 75q-74 -87 -183 -87q-71 0 -115.5 37.5t-44.5 104.5v50
q0 59 40 92t111 33h176v22q-1 37 -17.5 50.5t-63.5 13.5q-81 0 -209 -8l-13 100q133 24 256 24zM184 150q0 -51 57 -51q59 0 124 48v69h-133q-48 -1 -48 -47v-19z" />
    <glyph glyph-name="uni04D4" unicode="&#x4d4;" horiz-adv-x="931" 
d="M639 119h245l7 -112q-99 -10 -317 -10q-59 0 -94.5 39t-35.5 100v54h-203l-95 -190h-157l291 558q26 52 58 79.5t86.5 40.5t144.5 13q217 0 322 -8l-7 -112h-245q-23 0 -38 -14.5t-15 -39.5v-104h261v-108h-261v-134q0 -28 12.5 -40t40.5 -12zM297 304h147v224
q0 40 23 67h-11q-19 -16 -40 -53z" />
    <glyph glyph-name="uni04D5" unicode="&#x4d5;" horiz-adv-x="875" 
d="M631 106q77 0 182 11l14 -92q-77 -37 -214 -37q-169 0 -223 97q-76 -97 -195 -97q-70 0 -114.5 37.5t-44.5 104.5v50q0 58 40 91t110 33h173v23q0 37 -16.5 50.5t-62.5 13.5q-81 0 -207 -8l-13 100q131 24 254 24q90 0 135 -32q54 32 159 32q122 0 176.5 -42.5
t54.5 -129.5q1 -69 -34.5 -103.5t-114.5 -34.5h-178q7 -54 33 -72.5t86 -18.5zM613 399q-58 1 -79.5 -21.5t-24.5 -91.5h140q27 0 36.5 13t9.5 38q0 35 -18 48.5t-64 13.5zM238 99q63 0 128 53q-5 25 -7 64h-130q-47 -1 -47 -47v-19q0 -51 56 -51z" />
    <glyph glyph-name="uni04D6" unicode="&#x4d6;" horiz-adv-x="577" 
d="M312 740q-80 0 -126.5 46t-38.5 109h99q-4 -82 66 -82q71 0 65 82h99q8 -64 -38 -109.5t-126 -45.5zM264 119h266l6 -112q-93 -10 -320 -10q-69 0 -110 37.5t-41 101.5v418q0 64 41.5 101.5t109.5 37.5q227 0 320 -10l-6 -113h-266q-25 0 -36 -12t-11 -39v-105h275v-110
h-275v-133q0 -28 11 -40t36 -12z" />
    <glyph glyph-name="uni04D7" unicode="&#x4d7;" horiz-adv-x="563" 
d="M293 558q-80 0 -126.5 46t-38.5 109h99q-4 -82 66 -82q71 0 65 82h99q8 -64 -38 -109.5t-126 -45.5zM315 106q79 0 184 11l14 -92q-77 -37 -215 -37q-139 0 -198 60t-59 198q0 144 58 202.5t193 58.5q123 0 178 -42.5t56 -129.5q0 -69 -35.5 -103.5t-114.5 -34.5h-178
q7 -54 32.5 -72.5t84.5 -18.5zM297 399q-57 1 -78 -21.5t-24 -91.5h140q28 0 37 13t9 38q0 35 -18 48.5t-66 13.5z" />
    <glyph glyph-name="uni04D8" unicode="&#x4d8;" horiz-adv-x="609" 
d="M266 703q90 0 148.5 -20t92.5 -65t47.5 -109t13.5 -162q0 -141 -29.5 -218.5t-91 -109t-172.5 -31.5q-128 0 -187.5 51t-59.5 167t51 160.5t170 44.5h156q-3 55 -13 87t-32.5 48t-48 20.5t-73.5 4.5q-92 0 -169 -10l-12 112q81 30 209 30zM283 114q67 0 93.5 40t29.5 152
h-129q-54 0 -76.5 -20.5t-22.5 -75.5q0 -51 24.5 -73.5t80.5 -22.5z" />
    <glyph glyph-name="uni04D9" unicode="&#x4d9;" horiz-adv-x="561" 
d="M264 507q139 0 198 -60.5t59 -197.5q0 -144 -58 -202.5t-193 -58.5q-123 0 -178 42.5t-56 129.5q0 72 37 107.5t119 35.5h171q-7 51 -33 68.5t-83 17.5q-83 0 -184 -12l-14 93q77 37 215 37zM265 96q58 -1 79 22.5t23 96.5h-134q-31 0 -41.5 -15t-10.5 -43q0 -35 18 -48
t66 -13z" />
    <glyph glyph-name="uni04DA" unicode="&#x4da;" horiz-adv-x="609" 
d="M180 764q-33 0 -33 33v58q0 33 33 33h49q32 0 32 -33v-58q0 -33 -32 -33h-49zM362 764q-33 0 -33 33v58q0 33 33 33h48q33 0 33 -33v-58q0 -33 -33 -33h-48zM266 703q90 0 148.5 -20t92.5 -65t47.5 -109t13.5 -162q0 -141 -29.5 -218.5t-91 -109t-172.5 -31.5
q-128 0 -187.5 51t-59.5 167t51 160.5t170 44.5h156q-3 55 -13 87t-32.5 48t-48 20.5t-73.5 4.5q-92 0 -169 -10l-12 112q81 30 209 30zM283 114q67 0 93.5 40t29.5 152h-129q-54 0 -76.5 -20.5t-22.5 -75.5q0 -51 24.5 -73.5t80.5 -22.5z" />
    <glyph glyph-name="uni04DB" unicode="&#x4db;" horiz-adv-x="561" 
d="M169 580q-33 0 -33 33v58q0 33 33 33h49q32 0 32 -33v-58q0 -33 -32 -33h-49zM351 580q-33 0 -33 33v58q0 33 33 33h48q33 0 33 -33v-58q0 -33 -33 -33h-48zM264 507q139 0 198 -60.5t59 -197.5q0 -144 -58 -202.5t-193 -58.5q-123 0 -178 42.5t-56 129.5q0 72 37 107.5
t119 35.5h171q-7 51 -33 68.5t-83 17.5q-83 0 -184 -12l-14 93q77 37 215 37zM265 96q58 -1 79 22.5t23 96.5h-134q-31 0 -41.5 -15t-10.5 -43q0 -35 18 -48t66 -13z" />
    <glyph glyph-name="uni04DC" unicode="&#x4dc;" horiz-adv-x="938" 
d="M353 762q-32 0 -32 33v58q0 33 32 33h49q32 0 32 -33v-58q0 -33 -32 -33h-49zM535 762q-33 0 -33 33v58q0 33 33 33h48q33 0 33 -33v-58q0 -33 -33 -33h-48zM685 358q91 -12 127.5 -71t96.5 -256q7 -20 10 -31h-160q-5 17 -15 47q-54 166 -77 205q-36 50 -86 52h-46
q8 -37 8 -66v-238h-146v238q0 29 8 66h-49q-55 0 -82 -47.5t-79 -206.5q-10 -32 -16 -50h-160q60 195 82 241q35 77 91 101q25 11 61 16v4q-25 3 -45.5 11t-35.5 17t-29 29t-23.5 35.5t-22 50t-20 58t-22.5 72.5q-11 36 -17 55h155q54 -170 74 -209q41 -64 89 -68h49
q-8 43 -8 82v195h146v-195q0 -44 -7 -82h44q53 0 80 49t74 194q2 7 3.5 11t3.5 11t4 12h155q-55 -176 -71 -212q-34 -77 -88 -101q-24 -11 -56 -15v-4z" />
    <glyph glyph-name="uni04DD" unicode="&#x4dd;" horiz-adv-x="822" 
d="M297 580q-32 0 -32 33v58q0 33 32 33h49q32 0 32 -33v-58q0 -33 -32 -33h-49zM479 580q-33 0 -33 33v58q0 33 33 33h48q33 0 33 -33v-58q0 -33 -33 -33h-48zM610 256q22 -3 37.5 -6.5t30.5 -11.5t24.5 -14.5t21 -24t18 -30.5t18 -43.5t19 -54.5t22.5 -71h-149
q-50 141 -69 173t-60 33h-51q5 -25 5 -43v-163h-130v163q0 18 5 43h-53q-40 -1 -59.5 -33.5t-69.5 -172.5h-149q16 49 23 71t19 54.5t18 44t18 30t21 24t24 14.5t30.5 12t38.5 6v4q-74 9 -100 43.5t-67 158.5q-6 20 -10 31h145q41 -119 62 -153t64 -34h46q-6 30 -6 59v128
h130v-128q0 -29 -6 -59h43q44 0 64 33t62 154h146q-46 -138 -62 -168q-26 -45 -75 -58q-16 -4 -39 -7v-4z" />
    <glyph glyph-name="uni04DE" unicode="&#x4de;" horiz-adv-x="565" 
d="M203 886q32 0 32 -33v-58q0 -33 -32 -33h-49q-32 0 -32 33v58q0 33 32 33h49zM384 886q33 0 33 -33v-58q0 -33 -33 -33h-48q-33 0 -33 33v58q0 33 33 33h48zM262 698q134 0 186 -37.5t52 -142.5q0 -75 -28 -113.5t-90 -44.5v-4q75 -7 107 -52.5t32 -131.5
q0 -103 -52 -141.5t-176 -38.5q-160 0 -264 30l11 105q120 -19 224 -19q59 0 79.5 18.5t20.5 74.5q0 60 -21.5 81t-82.5 21l-133 2v105l132 2q52 0 71 17.5t19 67.5q0 51 -20.5 68t-76.5 17q-78 0 -197 -13l-12 110q90 19 219 19z" />
    <glyph glyph-name="uni04DF" unicode="&#x4df;" horiz-adv-x="517" 
d="M185 704q32 0 32 -33v-58q0 -33 -32 -33h-49q-32 0 -32 33v58q0 33 32 33h49zM366 704q33 0 33 -33v-58q0 -33 -33 -33h-48q-33 0 -33 33v58q0 33 33 33h48zM217 505q137 0 189 -26t52 -108q0 -57 -24 -84t-81 -31v-4q66 -5 95.5 -36.5t29.5 -92.5q0 -82 -51.5 -108.5
t-176.5 -26.5q-129 0 -221 20l10 102q108 -10 200 -10q53 0 70 9.5t17 42.5q0 30 -17.5 39.5t-68.5 10.5l-142 2v93l141 2q44 0 59.5 9.5t15.5 39.5q0 27 -18 35t-72 8q-92 0 -170 -10l-10 102q73 22 173 22z" />
    <glyph glyph-name="uni04E0" unicode="&#x4e0;" horiz-adv-x="523" 
d="M269 393q117 0 173 -41.5t56 -151.5q0 -113 -55.5 -161.5t-196.5 -48.5q-127 0 -231 22l7 109q130 -11 200 -11t96.5 22.5t26.5 75.5q0 59 -21.5 80.5t-84.5 21.5h-145v79l209 188h-274v113h425q14 0 14 -14v-83l-226 -200h27z" />
    <glyph glyph-name="uni04E1" unicode="&#x4e1;" horiz-adv-x="505" 
d="M267 198q107 0 158 -41.5t51 -152.5q0 -113 -52.5 -162t-182.5 -49q-121 0 -219 23l7 108q128 -11 184 -11q62 0 86.5 22.5t24.5 75.5q0 57 -19 77.5t-75 20.5h-134v85l189 187h-248v112h396q14 0 14 -14v-83l-210 -198h30z" />
    <glyph glyph-name="uni04E2" unicode="&#x4e2;" horiz-adv-x="711" 
d="M511 871v-95h-300v95h300zM639 690v-690h-146v412q0 46 9 93h-7q-15 -46 -39 -91l-233 -414h-151v690h145v-405q0 -43 -8 -96h6q13 38 40 90l233 411h151z" />
    <glyph glyph-name="uni04E3" unicode="&#x4e3;" horiz-adv-x="606" 
d="M452 689v-95h-300v95h300zM543 493v-493l-132 -1v258q0 29 5 79h-4q-11 -36 -37 -73l-186 -263h-126v493h131v-263q0 -28 -5 -73h3q13 33 37 67l188 269h126z" />
    <glyph glyph-name="uni04E4" unicode="&#x4e4;" horiz-adv-x="711" 
d="M294 886q32 0 32 -33v-58q0 -33 -32 -33h-49q-32 0 -32 33v58q0 33 32 33h49zM475 886q33 0 33 -33v-58q0 -33 -33 -33h-48q-33 0 -33 33v58q0 33 33 33h48zM639 690v-690h-146v412q0 46 9 93h-7q-15 -46 -39 -91l-233 -414h-151v690h145v-405q0 -43 -8 -96h6
q13 38 40 90l233 411h151z" />
    <glyph glyph-name="uni04E5" unicode="&#x4e5;" horiz-adv-x="606" 
d="M235 704q32 0 32 -33v-58q0 -33 -32 -33h-49q-32 0 -32 33v58q0 33 32 33h49zM416 704q33 0 33 -33v-58q0 -33 -33 -33h-48q-33 0 -33 33v58q0 33 33 33h48zM543 493v-493l-132 -1v258q0 29 5 79h-4q-11 -36 -37 -73l-186 -263h-126v493h131v-263q0 -28 -5 -73h3
q13 33 37 67l188 269h126z" />
    <glyph glyph-name="uni04E6" unicode="&#x4e6;" horiz-adv-x="684" 
d="M276 886q32 0 32 -33v-58q0 -33 -32 -33h-49q-33 0 -33 33v58q0 33 33 33h49zM457 886q33 0 33 -33v-58q0 -33 -33 -33h-48q-33 0 -33 33v58q0 33 33 33h48zM342 703q166 0 231 -76.5t65 -281.5t-65 -281.5t-231 -76.5t-230.5 76.5t-64.5 281.5t64.5 281.5t230.5 76.5z
M342 580q-78 0 -106.5 -49t-28.5 -186t28.5 -186t106.5 -49t106.5 49t28.5 186t-28.5 186t-106.5 49z" />
    <glyph glyph-name="uni04E7" unicode="&#x4e7;" horiz-adv-x="589" 
d="M227 704q32 0 32 -33v-58q0 -33 -32 -33h-49q-32 0 -32 33v58q0 33 32 33h49zM408 704q33 0 33 -33v-58q0 -33 -33 -33h-48q-33 0 -33 33v58q0 33 33 33h48zM295 507q139 0 196 -59t57 -202q0 -142 -57 -200.5t-196 -58.5t-196.5 58.5t-57.5 200.5q0 143 57.5 202
t196.5 59zM295 396q-59 0 -79 -30t-20 -120q0 -88 20 -118t79 -30q58 0 78.5 30t20.5 118q0 89 -20.5 119.5t-78.5 30.5z" />
    <glyph glyph-name="uni04E8" unicode="&#x4e8;" horiz-adv-x="678" 
d="M335 703q166 0 231 -76.5t65 -281.5t-65 -281.5t-231 -76.5t-230.5 76.5t-64.5 281.5t64.5 281.5t230.5 76.5zM335 580q-72 0 -101 -41t-33 -150h268q-4 109 -33 150t-101 41zM335 110q71 0 100.5 40.5t33.5 147.5h-268q4 -107 33.5 -147.5t100.5 -40.5z" />
    <glyph glyph-name="uni04E9" unicode="&#x4e9;" 
d="M294 507q138 0 195.5 -59.5t57.5 -201.5t-57.5 -200.5t-195.5 -58.5q-139 0 -196.5 58.5t-57.5 200.5q0 143 57.5 202t196.5 59zM294 396q-51 0 -72.5 -22t-25.5 -84h195q-4 62 -25 84t-72 22zM294 98q53 0 74 25t23 94h-195q2 -70 23 -94.5t75 -24.5z" />
    <glyph glyph-name="uni04EA" unicode="&#x4ea;" horiz-adv-x="678" 
d="M220 762q-33 0 -33 33v58q0 33 33 33h49q32 0 32 -33v-58q0 -33 -32 -33h-49zM402 762q-33 0 -33 33v58q0 33 33 33h48q33 0 33 -33v-58q0 -33 -33 -33h-48zM335 703q166 0 231 -76.5t65 -281.5t-65 -281.5t-231 -76.5t-230.5 76.5t-64.5 281.5t64.5 281.5t230.5 76.5z
M335 580q-72 0 -101 -41t-33 -150h268q-4 109 -33 150t-101 41zM335 110q71 0 100.5 40.5t33.5 147.5h-268q4 -107 33.5 -147.5t100.5 -40.5z" />
    <glyph glyph-name="uni04EB" unicode="&#x4eb;" 
d="M176 580q-33 0 -33 33v58q0 33 33 33h49q32 0 32 -33v-58q0 -33 -32 -33h-49zM358 580q-33 0 -33 33v58q0 33 33 33h48q33 0 33 -33v-58q0 -33 -33 -33h-48zM294 507q138 0 195.5 -59.5t57.5 -201.5t-57.5 -200.5t-195.5 -58.5q-139 0 -196.5 58.5t-57.5 200.5
q0 143 57.5 202t196.5 59zM294 396q-51 0 -72.5 -22t-25.5 -84h195q-4 62 -25 84t-72 22zM294 98q53 0 74 25t23 94h-195q2 -70 23 -94.5t75 -24.5z" />
    <glyph glyph-name="uni04EC" unicode="&#x4ec;" horiz-adv-x="590" 
d="M133 762q-33 0 -33 33v58q0 33 33 33h49q32 0 32 -33v-58q0 -33 -32 -33h-49zM315 762q-33 0 -33 33v58q0 33 33 33h48q33 0 33 -33v-58q0 -33 -33 -33h-48zM248 702q163 0 229 -80t66 -277t-66 -277t-229 -80q-128 0 -215 28l13 114q74 -10 202 -10q75 0 105 40t33 147
h-282v106h280q-6 89 -36 123t-100 34q-89 0 -197 -5l-13 114q91 23 210 23z" />
    <glyph glyph-name="uni04ED" unicode="&#x4ed;" horiz-adv-x="534" 
d="M150 580q-32 0 -32 33v58q0 33 32 33h49q32 0 32 -33v-58q0 -33 -32 -33h-49zM332 580q-33 0 -33 33v58q0 33 33 33h48q33 0 33 -33v-58q0 -33 -33 -33h-48zM226 504q148 0 207.5 -57.5t59.5 -202.5q0 -142 -60 -199t-207 -57q-117 0 -194 26l12 96q92 -5 182 -5
q64 0 88.5 19.5t28.5 80.5h-248v91h247q-7 54 -32 73t-84 18q-59 0 -177 -2l-12 94q75 25 189 25z" />
    <glyph glyph-name="uni04EE" unicode="&#x4ee;" horiz-adv-x="592" 
d="M448 871v-95h-300v95h300zM434 690h156l-169 -512q-30 -91 -68 -136.5t-106 -51.5t-166 15l17 108q97 -5 123.5 3.5t45.5 57.5l7 22h-36q-67 0 -89 69l-142 425h156l109 -365q3 -12 18 -12h25z" />
    <glyph glyph-name="uni04EF" unicode="&#x4ef;" horiz-adv-x="565" 
d="M428 689v-95h-300v95h300zM397 493h158l-175 -500q-39 -122 -135 -171q-74 -42 -202 -20l12 98q91 -3 129 20q39 23 62 80h-28q-38 0 -49 36l-160 457h157l92 -319q12 -46 16 -74h12q16 57 20 74z" />
    <glyph glyph-name="uni04F0" unicode="&#x4f0;" horiz-adv-x="592" 
d="M183 762q-33 0 -33 33v58q0 33 33 33h49q32 0 32 -33v-58q0 -33 -32 -33h-49zM365 762q-33 0 -33 33v58q0 33 33 33h48q33 0 33 -33v-58q0 -33 -33 -33h-48zM434 690h156l-169 -512q-30 -91 -68 -136.5t-106 -51.5t-166 15l17 108q97 -5 123.5 3.5t45.5 57.5l7 22h-36
q-67 0 -89 69l-142 425h156l109 -365q3 -12 18 -12h25z" />
    <glyph glyph-name="uni04F1" unicode="&#x4f1;" horiz-adv-x="565" 
d="M162 580q-32 0 -32 33v58q0 33 32 33h49q32 0 32 -33v-58q0 -33 -32 -33h-49zM344 580q-33 0 -33 33v58q0 33 33 33h48q33 0 33 -33v-58q0 -33 -33 -33h-48zM397 493h158l-175 -500q-39 -122 -135 -171q-74 -42 -202 -20l12 98q91 -3 129 20q39 23 62 80h-28
q-38 0 -49 36l-160 457h157l92 -319q12 -46 16 -74h12q16 57 20 74z" />
    <glyph glyph-name="uni04F2" unicode="&#x4f2;" horiz-adv-x="592" 
d="M336 888l-152 -168l-60 48l115 185zM373 720l-59 47l114 186l98 -65zM434 690h156l-169 -512q-30 -91 -68 -136.5t-106 -51.5t-166 15l17 108q97 -5 123.5 3.5t45.5 57.5l7 22h-36q-67 0 -89 69l-142 425h156l109 -365q3 -12 18 -12h25z" />
    <glyph glyph-name="uni04F3" unicode="&#x4f3;" horiz-adv-x="565" 
d="M316 706l-152 -168l-60 48l115 185zM353 538l-59 47l114 186l98 -65zM397 493h158l-175 -500q-39 -122 -135 -171q-74 -42 -202 -20l12 98q91 -3 129 20q39 23 62 80h-28q-38 0 -49 36l-160 457h157l92 -319q12 -46 16 -74h12q16 57 20 74z" />
    <glyph glyph-name="uni04F4" unicode="&#x4f4;" horiz-adv-x="657" 
d="M214 762q-33 0 -33 33v58q0 33 33 33h49q32 0 32 -33v-58q0 -33 -32 -33h-49zM396 762q-33 0 -33 33v58q0 33 33 33h48q33 0 33 -33v-58q0 -33 -33 -33h-48zM433 690h152v-690h-152v286q-107 -52 -211 -52q-89 0 -131.5 40.5t-42.5 126.5v289h152v-256q0 -38 17 -54.5
t60 -16.5q77 0 156 31v296z" />
    <glyph glyph-name="uni04F5" unicode="&#x4f5;" horiz-adv-x="567" 
d="M162 580q-32 0 -32 33v58q0 33 32 33h49q32 0 32 -33v-58q0 -33 -32 -33h-49zM344 580q-33 0 -33 33v58q0 33 33 33h48q33 0 33 -33v-58q0 -33 -33 -33h-48zM356 493h147v-493h-147v184q-85 -29 -166 -29q-147 0 -147 113v225h146v-179q0 -26 11.5 -36.5t39.5 -10.5
q60 0 116 21v205z" />
    <glyph glyph-name="uni04F6" unicode="&#x4f6;" horiz-adv-x="508" 
d="M274 570q-29 0 -41.5 -12.5t-12.5 -42.5v-405h82v-261h-107l-12 151h-116v546q0 65 41 106t104 41q216 0 306 -11l-7 -112h-237z" />
    <glyph glyph-name="uni04F7" unicode="&#x4f7;" horiz-adv-x="472" 
d="M252 383q-24 0 -34.5 -10.5t-10.5 -34.5v-232h73v-247h-97l-12 141h-111v380q0 119 127 119q192 0 271 -13l-6 -103h-200z" />
    <glyph glyph-name="uni04F8" unicode="&#x4f8;" horiz-adv-x="897" 
d="M333 762q-33 0 -33 33v58q0 33 33 33h49q32 0 32 -33v-58q0 -33 -32 -33h-49zM563 886q33 0 33 -33v-58q0 -33 -33 -33h-48q-33 0 -33 33v58q0 33 33 33h48zM324 434q142 0 196.5 -48t54.5 -175q0 -125 -51 -172t-174 -47q-179 0 -274 8h-4v690h152v-256h100zM673 690
h152v-690h-152v690zM324 110q61 0 79 20.5t18 85.5t-18.5 88t-78.5 23h-100v-217h100z" />
    <glyph glyph-name="uni04F9" unicode="&#x4f9;" horiz-adv-x="779" 
d="M271 580q-32 0 -32 33v58q0 33 32 33h49q32 0 32 -33v-58q0 -33 -32 -33h-49zM501 704q33 0 33 -33v-58q0 -33 -33 -33h-48q-33 0 -33 33v58q0 33 33 33h48zM279 322q130 0 178 -34.5t48 -129.5q0 -93 -46 -128.5t-154 -35.5q-153 0 -238 6h-4v493h142v-171h74zM568 493
h148v-493h-148v493zM279 98q46 0 61.5 12.5t15.5 53.5q0 39 -15.5 52t-61.5 13h-74v-131h74z" />
    <glyph glyph-name="uni04FA" unicode="&#x4fa;" horiz-adv-x="557" 
d="M312 570q-29 0 -41.5 -12.5t-12.5 -42.5v-150h203v-96h-203v-156h77v-136q0 -79 -56.5 -123.5t-150.5 -37.5v103q90 0 90 67v14h-113v269h-113v96h113v181q0 65 41 106t104 41q216 0 306 -11l-7 -112h-237z" />
    <glyph glyph-name="uni04FB" unicode="&#x4fb;" horiz-adv-x="483" 
d="M263 383q-24 0 -34.5 -10.5t-10.5 -34.5v-256h56v-98q0 -78 -53.5 -120t-143.5 -36v93q88 0 88 69v10h-94v380q0 119 127 119q192 0 271 -13l-6 -103h-200z" />
    <glyph glyph-name="uni04FC" unicode="&#x4fc;" horiz-adv-x="648" 
d="M617 690l-161 -327q13 -21 45 -72.5t44.5 -74t31.5 -60t26 -67t7 -59.5q0 -41 -11.5 -75.5t-39.5 -67t-84 -50t-136 -15.5v100q71 1 95.5 32.5t24.5 78.5q0 48 -32.5 113t-94.5 161h-18l-147 -307h-157l180 354l-166 336h156l133 -285h12l136 285h156z" />
    <glyph glyph-name="uni04FD" unicode="&#x4fd;" horiz-adv-x="532" 
d="M528 493l-134 -235q9 -13 30 -43.5t28.5 -41.5t22.5 -34.5t20.5 -35.5t13.5 -30.5t10.5 -33.5t2.5 -31q0 -194 -236 -178v82q57 1 78 27.5t21 73.5q0 24 -16 59t-34.5 63.5t-53.5 78.5h-13l-119 -214h-142l149 252l-137 241h141l108 -201h8l111 201h141z" />
    <glyph glyph-name="uni04FE" unicode="&#x4fe;" horiz-adv-x="624" 
d="M465 0l-146 306h-13l-147 -306h-157l156 307h-28v95h28l-142 288h156l133 -285h15l133 285h156l-142 -288h20v-95h-20l156 -307h-158z" />
    <glyph glyph-name="uni04FF" unicode="&#x4ff;" horiz-adv-x="571" 
d="M405 0l-117 207h-6l-117 -207h-152l129 215h-90v82h87l-114 196h151l105 -190h9l105 190h151l-114 -196h88v-82h-91l128 -215h-152z" />
    <glyph glyph-name="uni0510" unicode="&#x510;" horiz-adv-x="565" 
d="M303 698q129 0 219 -19l-12 -110q-119 13 -197 13q-56 0 -76.5 -17t-20.5 -68q0 -50 19 -67.5t71 -17.5l132 -2v-105l-133 -2q-61 0 -82.5 -21t-21.5 -81q0 -56 20.5 -74.5t79.5 -18.5q104 0 224 19l11 -105q-104 -30 -264 -30q-124 0 -176 38.5t-52 141.5q0 86 32 131.5
t107 52.5v4q-62 6 -90 44.5t-28 113.5q0 105 52 142.5t186 37.5z" />
    <glyph glyph-name="uni0511" unicode="&#x511;" horiz-adv-x="517" 
d="M300 505q100 0 173 -22l-10 -102q-78 10 -170 10q-54 0 -72 -8t-18 -35q0 -30 15.5 -39.5t59.5 -9.5l141 -2v-93l-142 -2q-51 -1 -68.5 -10.5t-17.5 -39.5q0 -33 17 -42.5t70 -9.5q92 0 200 10l10 -102q-92 -20 -221 -20q-125 0 -176.5 26.5t-51.5 108.5q0 61 29.5 92.5
t95.5 36.5v4q-57 4 -81 31t-24 84q0 82 52 108t189 26z" />
    <glyph glyph-name="uni0512" unicode="&#x512;" horiz-adv-x="663" 
d="M592 690v-633q0 -137 -80 -197.5t-199 -36.5v100q72 0 99 35t27 108v514h-87q-59 0 -63 -58q-13 -151 -25 -233.5t-34 -141.5q-61 -170 -229 -150l-11 118q39 7 62 23t36 50q35 89 54 352q12 150 162 150h288z" />
    <glyph glyph-name="uni0513" unicode="&#x513;" horiz-adv-x="589" 
d="M527 493v-461q0 -120 -70.5 -172.5t-176.5 -36.5v94q58 0 80 27.5t22 87.5v358h-66q-25 0 -36.5 -11t-15.5 -38q-21 -166 -36 -224q-30 -142 -201 -122l-15 110q41 7 58.5 16.5t25.5 36.5q19 56 32 210q12 125 137 125h262z" />
    <glyph glyph-name="uni051A" unicode="&#x51a;" horiz-adv-x="686" 
d="M343 703q166 0 230.5 -76.5t64.5 -281.5t-64.5 -281.5t-230.5 -76.5t-231 76.5t-65 281.5t65 281.5t231 76.5zM343 580q-78 0 -106.5 -49t-28.5 -186t28.5 -186t106.5 -49t106.5 49t28.5 186t-28.5 186t-106.5 49zM293 -35q120 -42 300 -68l-43 -136q-150 37 -293 123z
" />
    <glyph glyph-name="uni051B" unicode="&#x51b;" horiz-adv-x="591" 
d="M284 507q59 0 132.5 -10t115.5 -29v-658h-147l-1 144q0 65 12 112q-85 -79 -179 -79q-92 0 -134.5 63t-42.5 194q0 132 52 197.5t192 65.5zM192 240q0 -73 16.5 -101.5t65.5 -28.5t111 37v240q-49 12 -101 10q-53 -2 -72.5 -34t-19.5 -123z" />
    <glyph glyph-name="uni051C" unicode="&#x51c;" horiz-adv-x="973" 
d="M947 690l-109 -648q-4 -19 -19 -30.5t-36 -11.5h-146q-21 0 -36 12t-18 31l-75 451q-8 44 -12 87h-19q0 -3 -4.5 -37t-7.5 -51l-74 -450q-3 -19 -18.5 -31t-36.5 -12h-146q-20 0 -35.5 11.5t-19.5 30.5l-109 648h156l67 -479q6 -45 9 -100h20q3 28 15 100l74 432
q3 21 17.5 34t36.5 13h132q21 0 35.5 -13t17.5 -34l74 -433q12 -74 14 -99h21q4 57 9 98l68 481h155z" />
    <glyph glyph-name="uni051D" unicode="&#x51d;" horiz-adv-x="847" 
d="M831 493l-121 -454q-10 -39 -51 -39h-116q-20 0 -35 12.5t-18 32.5l-50 279q-1 9 -4.5 38t-6.5 45h-12l-12 -83l-49 -279q-3 -20 -18 -32.5t-36 -12.5h-114q-41 0 -51 39l-121 454h149l67 -320q10 -54 12 -81h13q2 14 6.5 41t6.5 40l50 276q7 44 51 44h104q20 0 34.5 -12
t17.5 -33l49 -275q2 -14 7 -41t7 -40h12l12 81l68 320h149z" />
    <glyph glyph-name="uni0524" unicode="&#x524;" horiz-adv-x="705" 
d="M616 110h83v-261h-107l-12 151h-116v580h-242v-580h-152v690h546v-580z" />
    <glyph glyph-name="uni0525" unicode="&#x525;" horiz-adv-x="613" 
d="M532 106h74v-247h-98l-12 141h-107v388h-182v-388h-144v494h469v-388z" />
    <glyph glyph-name="uni0526" unicode="&#x526;" horiz-adv-x="687" 
d="M608 110h84v-261h-108l-11 151h-117v256q0 40 -17.5 56t-62.5 16q-78 0 -154 -31v-297h-152v690h152v-283q107 49 210 49q91 0 133.5 -40.5t42.5 -126.5v-179z" />
    <glyph glyph-name="uni0527" unicode="&#x527;" horiz-adv-x="626" 
d="M541 106h76v-247h-98l-12 141h-113v324q0 33 -10.5 45.5t-37.5 12.5q-51 0 -137 -45v-337h-148v700h148l1 -171q0 -51 -9 -103q103 81 202 81q67 0 102.5 -35t35.5 -102v-264z" />
    <glyph glyph-name="uni0528" unicode="&#x528;" horiz-adv-x="768" 
d="M544 690h153v-690h-153v308h-242v-298q0 -74 -41 -115.5t-115 -41.5q-83 0 -126 20l17 102h47q65 0 65 54v661h153v-264h242v264z" />
    <glyph glyph-name="uni0529" unicode="&#x529;" horiz-adv-x="613" 
d="M397 493h146v-493h-146v209h-187v-177q0 -120 -70 -172.5t-176 -36.5v94q58 0 79.5 27.5t21.5 87.5v461h145v-181h187v181z" />
    <glyph glyph-name="uni052E" unicode="&#x52e;" horiz-adv-x="712" 
d="M607 110h81v-261h-107l-12 151h-115v580h-88q-59 0 -63 -58q-13 -155 -24.5 -236t-34.5 -139q-61 -170 -229 -150l-11 118q39 7 62.5 23t36.5 50q20 53 31 128.5t23 223.5q11 150 162 150h288v-580z" />
    <glyph glyph-name="uni052F" unicode="&#x52f;" horiz-adv-x="599" 
d="M528 3h-12v-3h-136v390h-64q-25 0 -36.5 -11t-15.5 -38q-21 -166 -36 -224q-30 -142 -201 -122l-15 110q41 7 58.5 16.5t25.5 36.5q19 56 32 210q12 125 137 125h263v-490zM563 -35h-47v35h12v3h29z" />
    <glyph glyph-name="uni1E08" unicode="&#x1e08;" horiz-adv-x="586" 
d="M447 942l67 -103l-225 -109l-44 64zM337 702q116 0 207 -23l-13 -114q-81 5 -194 5q-75 0 -102.5 -47.5t-27.5 -177.5t27.5 -177.5t102.5 -47.5q139 0 208 9l13 -113q-90 -28 -221 -28q-160 0 -225 80t-65 277t65 277t225 80zM266 -58q83 9 114.5 -3t29.5 -62
q-3 -73 -59 -109.5t-141 -25.5l19 65q82 -2 86 58q1 12 -10.5 15.5t-52.5 3.5z" />
    <glyph glyph-name="uni1E09" unicode="&#x1e09;" horiz-adv-x="507" 
d="M394 764l67 -103l-225 -109l-44 64zM289 507q112 0 182 -31l-16 -92q-108 2 -141 2q-68 0 -93.5 -29t-25.5 -110t25.5 -110t93.5 -29q87 0 151 9l13 -96q-76 -33 -191 -33q-136 0 -191.5 58.5t-55.5 200.5q0 143 56 201.5t193 58.5zM219 -52q83 9 114.5 -3t29.5 -62
q-3 -73 -59 -109.5t-141 -25.5l19 65q82 -2 86 58q1 12 -10.5 15.5t-52.5 3.5z" />
    <glyph glyph-name="uni1E0C" unicode="&#x1e0c;" horiz-adv-x="680" 
d="M338 699q165 0 229.5 -76t64.5 -278t-64.5 -278t-229.5 -76q-126 0 -268 9v690q142 9 268 9zM338 111q77 0 105.5 49t28.5 185t-28.5 185.5t-105.5 49.5q-23 0 -61.5 -0.5t-54.5 -0.5v-467q17 0 55.5 -0.5t60.5 -0.5zM352 -53q42 0 42 -41v-52q0 -41 -42 -41h-45
q-42 0 -42 41v52q0 41 42 41h45z" />
    <glyph glyph-name="uni1E0D" unicode="&#x1e0d;" horiz-adv-x="594" 
d="M385 700h148v-700h-117l-11 73q-74 -85 -189 -85q-92 0 -133.5 66.5t-41.5 196.5q0 142 46 199t143 57q96 0 160 -44q-5 55 -5 103v134zM193 252q0 -85 18 -113.5t64 -28.5q31 0 53 8.5t57 31.5v228q-68 19 -105 19q-50 0 -68.5 -28t-18.5 -117zM330 -55q42 0 42 -41v-52
q0 -41 -42 -41h-45q-42 0 -42 41v52q0 41 42 41h45z" />
    <glyph glyph-name="uni1E0E" unicode="&#x1e0e;" horiz-adv-x="680" 
d="M338 699q165 0 229.5 -76t64.5 -278t-64.5 -278t-229.5 -76q-126 0 -268 9v690q142 9 268 9zM338 111q77 0 105.5 49t28.5 185t-28.5 185.5t-105.5 49.5q-23 0 -61.5 -0.5t-54.5 -0.5v-467q17 0 55.5 -0.5t60.5 -0.5zM178 -172v95h299v-95h-299z" />
    <glyph glyph-name="uni1E0F" unicode="&#x1e0f;" horiz-adv-x="594" 
d="M385 700h148v-700h-117l-11 73q-74 -85 -189 -85q-92 0 -133.5 66.5t-41.5 196.5q0 142 46 199t143 57q96 0 160 -44q-5 55 -5 103v134zM193 252q0 -85 18 -113.5t64 -28.5q31 0 53 8.5t57 31.5v228q-68 19 -105 19q-50 0 -68.5 -28t-18.5 -117zM156 -174v95h299v-95
h-299z" />
    <glyph glyph-name="uni1E14" unicode="&#x1e14;" horiz-adv-x="576" 
d="M401 942l-45 -55l-164 93l72 89zM465 856v-95h-300v95h300zM264 119h265l7 -112q-94 -10 -320 -10q-69 0 -110 37.5t-42 101.5v418q1 64 42 101.5t110 37.5q226 0 320 -10l-7 -113h-265q-25 0 -36 -12t-11 -39v-105h275v-110h-275v-133q0 -28 11 -40t36 -12z" />
    <glyph glyph-name="uni1E15" unicode="&#x1e15;" horiz-adv-x="560" 
d="M380 757l-45 -55l-164 93l72 89zM444 671v-95h-300v95h300zM314 106q79 0 184 11l14 -92q-77 -37 -215 -37q-139 0 -198 60t-59 198q0 145 57.5 203t193.5 58q123 0 178 -42.5t56 -129.5q0 -69 -35.5 -103.5t-114.5 -34.5h-178q7 -54 32.5 -72.5t84.5 -18.5zM296 399
q-57 1 -78 -21.5t-24 -91.5h140q27 0 36.5 13t9.5 38q0 35 -18 48.5t-66 13.5z" />
    <glyph glyph-name="uni1E16" unicode="&#x1e16;" horiz-adv-x="576" 
d="M438 980l-164 -93l-45 55l137 127zM465 856v-95h-300v95h300zM264 119h265l7 -112q-94 -10 -320 -10q-69 0 -110 37.5t-42 101.5v418q1 64 42 101.5t110 37.5q226 0 320 -10l-7 -113h-265q-25 0 -36 -12t-11 -39v-105h275v-110h-275v-133q0 -28 11 -40t36 -12z" />
    <glyph glyph-name="uni1E17" unicode="&#x1e17;" horiz-adv-x="560" 
d="M417 795l-164 -93l-45 55l137 127zM444 671v-95h-300v95h300zM314 106q79 0 184 11l14 -92q-77 -37 -215 -37q-139 0 -198 60t-59 198q0 145 57.5 203t193.5 58q123 0 178 -42.5t56 -129.5q0 -69 -35.5 -103.5t-114.5 -34.5h-178q7 -54 32.5 -72.5t84.5 -18.5zM296 399
q-57 1 -78 -21.5t-24 -91.5h140q27 0 36.5 13t9.5 38q0 35 -18 48.5t-66 13.5z" />
    <glyph glyph-name="uni1E1C" unicode="&#x1e1c;" horiz-adv-x="576" 
d="M315 745q-81 0 -127 44t-38 107l70 10q0 -64 95 -64q93 0 93 64l70 -10q8 -63 -37.5 -107t-125.5 -44zM264 119h265l7 -112q-94 -10 -320 -10q-69 0 -110 37.5t-42 101.5v418q1 64 42 101.5t110 37.5q226 0 320 -10l-7 -113h-265q-25 0 -36 -12t-11 -39v-105h275v-110
h-275v-133q0 -28 11 -40t36 -12zM251 -38q83 9 114.5 -3t29.5 -62q-3 -73 -59 -109.5t-141 -25.5l19 65q82 -2 86 58q1 12 -10.5 15.5t-52.5 3.5z" />
    <glyph glyph-name="uni1E1D" unicode="&#x1e1d;" horiz-adv-x="560" 
d="M295 561q-81 0 -127 44t-38 107l70 10q0 -64 95 -64q93 0 93 64l70 -10q8 -63 -37.5 -107t-125.5 -44zM314 106q79 0 184 11l14 -92q-77 -37 -215 -37q-139 0 -198 60t-59 198q0 145 57.5 203t193.5 58q123 0 178 -42.5t56 -129.5q0 -69 -35.5 -103.5t-114.5 -34.5h-178
q7 -54 32.5 -72.5t84.5 -18.5zM296 399q-57 1 -78 -21.5t-24 -91.5h140q27 0 36.5 13t9.5 38q0 35 -18 48.5t-66 13.5zM232 -50q83 9 114.5 -3t29.5 -62q-3 -73 -59 -109.5t-141 -25.5l19 65q82 -2 86 58q1 12 -10.5 15.5t-52.5 3.5z" />
    <glyph glyph-name="uni1E20" unicode="&#x1e20;" horiz-adv-x="645" 
d="M488 877v-95h-299v95h299zM445 398h147v-398h-112l-14 70q-79 -83 -199 -83q-116 0 -168 85t-52 275q0 202 68.5 279t240.5 77q125 0 212 -24l-12 -112q-113 5 -195 5q-46 0 -72.5 -7.5t-46.5 -32.5t-27 -69.5t-7 -120.5q0 -129 24 -177t89 -48q61 0 124 35v246z" />
    </font>
</defs>
</svg>
