<?xml version="1.0" standalone="no"?>
<!DOCTYPE svg PUBLIC "-//W3C//DTD SVG 1.1//EN" "http://www.w3.org/Graphics/SVG/1.1/DTD/svg11.dtd" >
<svg xmlns="http://www.w3.org/2000/svg" xmlns:xlink="http://www.w3.org/1999/xlink" version="1.1">
<metadata>
Created by FontForge 20170731 at Wed Dec 13 19:44:06 2017
 By Aleksey,,,
Copyright (c) 2013, Natanael Gama (www.ndiscovered.com . info(at)ndiscovered.com), with Reserved Font Name Exo. This Font Software is licensed under the SIL Open Font License, Version 1.1.
</metadata>
<defs>
<font id="Exo2-MediumItalic" horiz-adv-x="667" >
  <font-face 
    font-family="Exo 2 Medium"
    font-weight="500"
    font-style="italic"
    font-stretch="normal"
    units-per-em="1000"
    panose-1="0 0 6 0 0 0 0 0 0 0"
    ascent="800"
    descent="-200"
    x-height="488"
    cap-height="690"
    bbox="-407.414 -279 1227 1061"
    underline-thickness="50"
    underline-position="-200"
    slope="-8"
    unicode-range="U+0020-FB02"
  />
<missing-glyph horiz-adv-x="618" 
d="M582 649h-1l-86 -608l-6 -41h-430l98 690h430zM454 41l86 608h-348l-86 -608h348z" />
    <glyph glyph-name="fi" unicode="fi" horiz-adv-x="614" 
d="M566 488l-69 -488h-97l58 413h-230l-66 -469q-20 -143 -159 -143q-54 0 -121 8l15 72h75q47 0 67 15.5t27 62.5l64 454h-87l9 70l88 5l11 75q12 78 49.5 116t112.5 38q80 0 121 -7l-7 -72h-83q-46 0 -68 -20.5t-29 -69.5l-8 -60h327zM566 696q14 0 21 -8t5 -22l-7 -56
q-4 -27 -30 -27h-46q-14 0 -21.5 8.5t-5.5 22.5l8 56q3 26 30 26h46z" />
    <glyph glyph-name="fl" unicode="fl" horiz-adv-x="674" 
d="M626 66l4 -63q-27 -12 -92 -12q-59 0 -88.5 31.5t-22.5 86.5l74 530h-157q-46 1 -68 -20t-29 -71l-8 -60h140l-10 -75h-141l-66 -469q-20 -143 -159 -143q-54 0 -121 8l15 72h75q47 0 67 15.5t27 62.5l64 454h-87l9 70l88 5l11 75q12 78 49.5 116.5t112.5 37.5
q213 0 292 -12l-79 -578q-7 -61 52 -61h48z" />
    <glyph glyph-name="f_f" unicode="ff" horiz-adv-x="721" 
d="M683 638q-47 0 -68 -15.5t-28 -62.5l-10 -72h151l-10 -75h-151l-64 -456q-20 -143 -159 -143q-54 0 -121 8l15 72h75q47 0 67 15.5t27 62.5l62 441h-240l-67 -469q-20 -143 -159 -143q-54 0 -121 8l15 72h75q47 0 67 15.5t27 62.5l65 454h-89l9 70l91 5l11 76
q21 142 160 142q87 0 142 -7l-15 -72h-96q-47 0 -68 -15.5t-28 -62.5l-9 -61h241l12 87q20 142 160 142q96 0 143 -7l-16 -72h-96z" />
    <glyph glyph-name="f_f_i" unicode="ffi" horiz-adv-x="952" 
d="M903 488l-69 -488h-97l58 413h-228l-64 -456q-20 -143 -159 -143q-54 0 -121 8l15 72h75q47 0 67 15.5t27 62.5l62 441h-240l-67 -469q-20 -143 -159 -143q-54 0 -121 8l15 72h75q47 0 67 15.5t27 62.5l65 454h-89l9 70l91 5l11 76q21 142 160 142q87 0 142 -7l-15 -72
h-96q-47 0 -68 -15.5t-28 -62.5l-9 -61h241l12 87q20 142 160 142q96 0 143 -7l-16 -72h-96q-47 0 -68 -15.5t-28 -62.5l-10 -72h326zM903 696q32 0 27 -30l-7 -56q-4 -27 -31 -27h-45q-32 0 -27 31l8 56q3 26 30 26h45z" />
    <glyph glyph-name="f_f_l" unicode="ffl" horiz-adv-x="1013" 
d="M963 66l4 -63q-27 -12 -92 -12q-59 0 -88.5 31.5t-22.5 86.5l74 530h-157q-46 1 -68 -20t-29 -71l-9 -60h143l-10 -75h-143l-65 -456q-20 -143 -159 -143q-54 0 -121 8l16 72h74q47 0 67.5 15.5t27.5 62.5l62 441h-238l-67 -469q-20 -143 -159 -143q-54 0 -121 8l15 72
h75q47 0 67 15.5t27 62.5l65 454h-89l9 70l91 5l11 76q21 142 160 142q87 0 142 -7l-15 -72h-96q-47 0 -68 -15.5t-28 -62.5l-9 -61h238l11 75q11 78 49 116.5t113 37.5q213 0 292 -12l-79 -578q-7 -61 52 -61h48z" />
    <glyph glyph-name=".notdef" horiz-adv-x="618" 
d="M582 649h-1l-86 -608l-6 -41h-430l98 690h430zM454 41l86 608h-348l-86 -608h348z" />
    <glyph glyph-name=".null" horiz-adv-x="0" 
 />
    <glyph glyph-name="nonmarkingreturn" horiz-adv-x="333" 
 />
    <glyph glyph-name="space" unicode=" " horiz-adv-x="222" 
 />
    <glyph glyph-name="exclam" unicode="!" horiz-adv-x="275" 
d="M242 695l-43 -299l-34 -183h-77l16 183l42 299h96zM124 124q38 0 32 -37l-7 -53q-3 -34 -37 -34h-25q-38 0 -34 37l9 54q3 33 37 33h25z" />
    <glyph glyph-name="quotedbl" unicode="&#x22;" horiz-adv-x="356" 
d="M199 690l-37 -216h-66l25 216h78zM346 690l-36 -216h-67l25 216h78z" />
    <glyph glyph-name="numbersign" unicode="#" horiz-adv-x="686" 
d="M655 444h-110l-55 -173h111l-21 -61h-109l-66 -210h-76l66 210h-175l-66 -210h-76l66 210h-116l20 61h115l55 173h-116l21 61h114l58 185h76l-58 -185h175l58 185h76l-58 -185h112zM414 271l55 173h-175l-55 -173h175z" />
    <glyph glyph-name="dollar" unicode="$" horiz-adv-x="565" 
d="M531 608q-94 4 -149 5l-50 -227l53 -19q76 -27 100.5 -71.5t13.5 -124.5q-15 -111 -71 -147t-188 -36h-3l-25 -113h-46l25 114q-83 4 -165 19l13 74l172 -5l51 232l-63 22q-71 26 -96.5 72.5t-15.5 122.5q8 57 27 93t53 53.5t71 23.5t96 6h21l21 96h46l-21 -98
q77 -3 141 -20zM289 401l47 212h-2q-34 0 -49.5 -0.5t-36.5 -5t-30 -14.5t-18 -29t-13 -48q-6 -49 6.5 -67t59.5 -35zM399 181q6 49 -7 67.5t-58 34.5l-29 10l-48 -216q76 2 105 22t37 82z" />
    <glyph glyph-name="percent" unicode="%" horiz-adv-x="897" 
d="M255 703q93 0 124.5 -48t15.5 -161q-16 -111 -57 -156t-129 -45q-91 0 -122 48t-16 161q16 111 56.5 156t127.5 45zM761 690l-538 -690h-75l538 690h75zM258 643q-57 0 -79.5 -31.5t-34.5 -117.5q-11 -81 1.5 -111t60.5 -30q59 0 81.5 31.5t34.5 117.5q12 80 -1 110.5
t-63 30.5zM700 399q93 0 124.5 -48t15.5 -160q-16 -111 -57 -156t-129 -45q-91 0 -122 48t-15 160q15 111 55.5 156t127.5 45zM703 339q-57 0 -79.5 -31.5t-34.5 -116.5q-11 -81 2 -111.5t61 -30.5q58 0 80.5 31.5t34.5 117.5q12 80 -1 110.5t-63 30.5z" />
    <glyph glyph-name="ampersand" unicode="&#x26;" horiz-adv-x="747" 
d="M723 395l-11 -76h-100q-17 -111 -61 -180q-93 -149 -313 -150q-116 -1 -162 43.5t-34 146.5q20 168 166 177l1 5q-120 9 -95 164q18 106 79 141t185 35q85 0 172 -22l-17 -74q-59 13 -151 13q-89 0 -124 -21.5t-46 -92.5q-10 -64 13.5 -86.5t96.5 -22.5h209q3 65 2 125
h88q2 -76 -2 -125h104zM470 176q40 54 53 143h-211q-80 0 -116 -27.5t-48 -102.5q-10 -65 11.5 -89t89.5 -24q150 0 221 100z" />
    <glyph glyph-name="quotesingle" unicode="'" horiz-adv-x="209" 
d="M199 690l-37 -216h-66l25 216h78z" />
    <glyph glyph-name="parenleft" unicode="(" horiz-adv-x="357" 
d="M384 791l11 -47q-104 -47 -164 -152.5t-84 -282.5q-24 -168 4.5 -274.5t117.5 -155.5l-13 -43q-257 101 -203 480q27 194 107 309t224 166z" />
    <glyph glyph-name="parenright" unicode=")" horiz-adv-x="357" 
d="M107 789q131 -51 181.5 -169t22.5 -312q-28 -193 -107.5 -308t-224.5 -166l-11 47q200 96 249 436q24 171 -5 277t-118 152z" />
    <glyph glyph-name="asterisk" unicode="*" horiz-adv-x="448" 
d="M309 691l-33 -162l85 -129l-48 -34l-59 124l-93 -123l-44 34l120 128l14 162h58zM107 603l117 -46l-4 -25l-14 -16l-122 34zM423 603l11 -58l-127 -29l-10 16l1 25z" />
    <glyph glyph-name="plus" unicode="+" horiz-adv-x="547" 
d="M500 335l-10 -72h-184l-24 -174h-74l24 174h-184l11 72h183l25 175h74l-25 -175h184z" />
    <glyph glyph-name="comma" unicode="," horiz-adv-x="231" 
d="M108 124q37 0 31 -37l-9 -64q-8 -70 -59 -159l-47 16q25 78 33 122q-15 -1 -23 7.5t-6 23.5l8 58q4 20 13 26.5t31 6.5h28z" />
    <glyph glyph-name="hyphen" unicode="-" horiz-adv-x="440" 
d="M371 290l-10 -74h-303l10 74h303z" />
    <glyph glyph-name="period" unicode="." horiz-adv-x="229" 
d="M105 124q37 0 33 -37l-7 -53q-4 -34 -38 -34h-32q-39 0 -33 37l8 54q4 33 37 33h32z" />
    <glyph glyph-name="slash" unicode="/" horiz-adv-x="529" 
d="M558 690l-499 -757h-82l499 757h82z" />
    <glyph glyph-name="zero" unicode="0" horiz-adv-x="605" 
d="M267 -13q-107 0 -158.5 56t-51.5 174q0 72 7.5 136t27.5 130t52 113t85.5 77t122.5 30q108 0 159 -55.5t51 -172.5q0 -488 -295 -488zM272 74q45 0 79 17.5t54.5 52t33.5 70t18.5 87t7 86.5t1.5 85q0 77 -29 110.5t-92 33.5q-51 0 -88 -27.5t-56.5 -66.5t-31 -97.5
t-14 -104t-2.5 -102.5q0 -77 29 -110.5t90 -33.5z" />
    <glyph glyph-name="one" unicode="1" horiz-adv-x="399" 
d="M347 690l-97 -690h-100l74 535q6 41 13 63l-172 -53l-2 75l183 70h101z" />
    <glyph glyph-name="two" unicode="2" horiz-adv-x="558" 
d="M323 702q97 0 148.5 -27t51.5 -101t-39 -137t-115 -135l-217 -209q44 4 105 4h225l-13 -97h-457l9 65q5 30 17 42l224 216q74 70 116.5 127.5t42.5 111.5q0 32 -25 42t-83 10q-93 0 -203 -15l-1 78q115 25 214 25z" />
    <glyph glyph-name="three" unicode="3" horiz-adv-x="551" 
d="M310 703q105 0 151.5 -34.5t46.5 -104.5q0 -75 -33 -135t-90 -65l-2 -4q101 -17 101 -124q0 -117 -70 -181.5t-199 -67.5q-95 -2 -203 18l13 78q14 -1 65.5 -4.5t60 -3.5t58.5 1q85 6 130 47.5t45 114.5q0 82 -114 85l-129 3l10 75h125q137 1 137 150q0 37 -26.5 50.5
t-99.5 13.5q-71 0 -171 -8l-1 78q111 18 195 18z" />
    <glyph glyph-name="four" unicode="4" horiz-adv-x="614" 
d="M567 245l-10 -71l-91 -10l-23 -164h-95l23 164h-257q-54 0 -76 39.5t5 82.5l245 404h100l-243 -407q-23 -38 15 -38h222l28 200l34 112h77l-44 -312h90z" />
    <glyph glyph-name="five" unicode="5" horiz-adv-x="535" 
d="M519 690l-17 -86h-286l-34 -172l74 -7q108 -9 162 -50t54 -126q0 -118 -66.5 -186t-186.5 -75q-99 -5 -205 25l17 81q89 -22 166 -17q178 11 178 169q0 51 -38.5 72t-132.5 26l-75 7q-19 1 -30.5 15t-7.5 34l56 290h372z" />
    <glyph glyph-name="six" unicode="6" horiz-adv-x="571" 
d="M351 451q164 0 164 -139q0 -324 -261 -324q-134 0 -173.5 74.5t-12.5 269.5q16 116 40 189t63 113t85 54t118 14q100 0 155 -15l-18 -73q-45 3 -141 3q-87 0 -130 -49t-68 -194q42 42 82.5 59.5t96.5 17.5zM267 74q154 0 154 210q0 46 -19 66t-74 20q-82 0 -168 -80
q-20 -122 -0.5 -169t107.5 -47z" />
    <glyph glyph-name="seven" unicode="7" horiz-adv-x="512" 
d="M483 690q32 0 43 -18.5t-3 -47.5l-301 -624h-100l268 554q13 28 30 53l-339 -2l8 85h394z" />
    <glyph glyph-name="eight" unicode="8" horiz-adv-x="605" 
d="M353 701q130 -1 172.5 -44t28.5 -143q-20 -144 -120 -155l-1 -4q113 -12 88 -187q-13 -97 -66.5 -137.5t-190.5 -41.5q-127 -1 -178.5 44.5t-38.5 142.5q12 84 43.5 130.5t95.5 52.5l1 4q-94 11 -75 159q14 97 64.5 138t176.5 41zM345 620q-81 0 -108.5 -23.5
t-36.5 -91.5q-9 -66 14 -86.5t107 -20.5q78 0 105.5 23t35.5 91q10 64 -12 86t-105 22zM304 318q-87 -1 -118 -24.5t-42 -103.5q-9 -68 16 -91.5t115 -23.5q83 0 115 26.5t40 96.5q11 74 -12.5 97t-113.5 23z" />
    <glyph glyph-name="nine" unicode="9" horiz-adv-x="570" 
d="M334 702q134 0 173.5 -76t8.5 -277q-17 -113 -41 -183t-62.5 -109.5t-86 -54t-121.5 -14.5q-82 0 -160 16l14 73q66 -5 141 -3q103 3 144.5 51.5t68.5 190.5q-40 -43 -79 -60.5t-90 -17.5q-55 0 -91.5 17t-53.5 48t-23 73t1 90q15 128 77 182t180 54zM264 318
q45 1 81 19.5t83 65.5q20 124 0 169t-101 45q-79 0 -112.5 -35.5t-44.5 -121.5q-9 -77 11 -110t83 -32z" />
    <glyph glyph-name="colon" unicode=":" horiz-adv-x="241" 
d="M148 442q37 0 33 -37l-7 -53q-4 -34 -38 -34h-32q-39 0 -33 37l8 54q4 33 37 33h32zM104 124q37 0 33 -37l-7 -53q-4 -34 -38 -34h-32q-39 0 -33 37l8 54q4 33 37 33h32z" />
    <glyph glyph-name="semicolon" unicode=";" horiz-adv-x="245" 
d="M156 442q37 0 33 -37l-7 -53q-4 -34 -38 -34h-32q-39 0 -33 37l8 54q4 33 37 33h32zM116 124q37 0 31 -37l-9 -64q-8 -70 -59 -159l-47 16q25 78 33 122q-15 -1 -23 7.5t-6 23.5l8 58q4 20 13 26.5t31 6.5h28z" />
    <glyph glyph-name="less" unicode="&#x3c;" horiz-adv-x="524" 
d="M487 507l-10 -80l-345 -131l307 -133l-11 -74l-384 171l11 76z" />
    <glyph glyph-name="equal" unicode="=" horiz-adv-x="585" 
d="M533 435l-10 -72h-442l10 72h442zM504 224l-10 -72h-442l10 72h442z" />
    <glyph glyph-name="greater" unicode="&#x3e;" horiz-adv-x="525" 
d="M97 509l385 -173l-11 -76l-433 -170l11 81l344 132l-306 132z" />
    <glyph glyph-name="question" unicode="?" horiz-adv-x="500" 
d="M309 712q100 0 149 -40t38 -119q-5 -41 -28 -75.5t-52.5 -60.5t-60 -53.5t-55 -66.5t-33.5 -86h-82q6 50 28 93t50 72.5t55.5 55.5t48.5 54t25 57q7 51 -16.5 69t-88.5 18q-99 0 -201 -9v70q7 1 32 5.5t32 5.5t29 4t37 3.5t39.5 1.5t53.5 1zM224 124q38 0 32 -37l-7 -53
q-4 -34 -37 -34h-25q-38 0 -34 37l9 54q3 33 37 33h25z" />
    <glyph glyph-name="at" unicode="@" horiz-adv-x="778" 
d="M433 648q71 1 116 -3t82 -17t55.5 -35t28.5 -60.5t8.5 -89.5t-12.5 -126q-16 -132 -41.5 -201t-66.5 -96.5t-112 -27.5q-108 0 -118 98q-82 -102 -191 -102q-85 0 -117 56.5t-11 185.5q12 72 31.5 117t51 68t65.5 30.5t88 7.5q83 0 225 -26l-47 -307q-6 -46 31 -46
q55 0 78.5 52.5t42.5 198.5q5 38 8.5 64.5t4 51.5t0 41t-7 30.5t-11.5 22.5t-20.5 15t-26.5 10t-36.5 5t-45 2h-55.5h-322l8 72q152 7 317 9zM203 70q46 0 85.5 25t91.5 83l32 195q-86 2 -89 2q-52 0 -79.5 -4.5t-48 -22.5t-29.5 -45t-18 -80q-15 -94 -3.5 -123.5
t58.5 -29.5z" />
    <glyph glyph-name="A" unicode="A" horiz-adv-x="623" 
d="M477 0l-34 208h-276l-93 -208h-106l310 665q10 25 39 25h102q13 0 22.5 -8.5t10.5 -20.5l125 -661h-100zM206 296h222l-43 259q-4 20 -8 60h-30l-26 -60z" />
    <glyph glyph-name="B" unicode="B" horiz-adv-x="620" 
d="M575 514q-11 -75 -43 -112t-95 -43l-1 -5q138 -11 112 -186q-16 -104 -68 -140t-172 -36q-175 0 -266 8l97 690q81 8 226 8q127 0 176 -40t34 -144zM334 396q72 0 103.5 24t41.5 90q9 63 -16 83t-103 20h-134l-30 -217h138zM451 193q10 74 -15.5 99.5t-106.5 26.5h-144
l-34 -241q39 -1 142 -1q82 0 115 23.5t43 92.5z" />
    <glyph glyph-name="C" unicode="C" horiz-adv-x="568" 
d="M383 702q107 0 191 -21l-16 -76q-79 8 -177 8q-67 0 -105.5 -22t-64.5 -81t-41 -169q-22 -150 5 -206.5t120 -57.5q112 -1 199 11l5 -77q-83 -23 -206 -23q-149 0 -202 85.5t-25 275.5q27 196 97 274.5t220 78.5z" />
    <glyph glyph-name="D" unicode="D" horiz-adv-x="663" 
d="M364 699q164 0 220 -79t28 -279q-11 -77 -25.5 -132t-36 -94t-46.5 -63t-62 -38t-76 -18.5t-95 -4.5q-96 0 -229 9l97 690q122 9 225 9zM508 349q10 68 11 112.5t-6.5 75.5t-27.5 46.5t-48.5 22t-74.5 6.5q-38 0 -134 -2l-75 -530q86 -2 117 -2q81 0 124 20t70 77t44 174
z" />
    <glyph glyph-name="E" unicode="E" horiz-adv-x="560" 
d="M279 606q-32 0 -47.5 -14.5t-19.5 -50.5l-19 -140h291l-10 -77h-292l-24 -178q-4 -34 7.5 -48t44.5 -14h267l-2 -78q-86 -8 -277 -8q-80 0 -115.5 38.5t-26.5 106.5l59 427q8 58 47 90t105 32q207 0 297 -8l-13 -78h-272z" />
    <glyph glyph-name="F" unicode="F" horiz-adv-x="539" 
d="M291 606q-38 0 -54 -13.5t-21 -51.5l-21 -152h282l-11 -77h-282l-44 -312h-100l78 565q20 127 153 127q201 0 288 -9l-15 -77h-253z" />
    <glyph glyph-name="G" unicode="G" horiz-adv-x="624" 
d="M409 614q-62 0 -99.5 -10t-67 -40.5t-45.5 -83t-27 -139.5q-17 -148 4.5 -207t93.5 -59q49 0 88 23t93 77l31 225h96l-56 -400h-72v93q-90 -106 -215 -106q-105 0 -146.5 87t-21.5 275q14 108 40.5 178.5t70 108.5t95.5 52.5t126 14.5q113 0 198 -22l-15 -75
q-84 8 -171 8z" />
    <glyph glyph-name="H" unicode="H" horiz-adv-x="668" 
d="M541 690h100l-97 -690h-100l46 324h-301l-46 -324h-101l97 690h101l-39 -279h301z" />
    <glyph glyph-name="I" unicode="I" horiz-adv-x="267" 
d="M240 690l-97 -690h-101l97 690h101z" />
    <glyph glyph-name="J" unicode="J" horiz-adv-x="342" 
d="M318 690l-76 -541q-11 -78 -50.5 -118.5t-102.5 -39.5q-61 0 -99 14l19 71h46q76 0 87 72l75 542h101z" />
    <glyph glyph-name="K" unicode="K" horiz-adv-x="599" 
d="M343 356q19 -24 35 -55l165 -301h-113l-171 319h-79q0 -41 -4 -73l-34 -246h-100l97 690h100l-31 -213q-6 -42 -16 -77h75l239 290h121l-234 -284q-23 -28 -49 -46z" />
    <glyph glyph-name="L" unicode="L" horiz-adv-x="511" 
d="M237 690l-76 -544q-8 -62 52 -62h246l-2 -78q-86 -8 -265 -8q-70 0 -105 38.5t-25 112.5l74 541h101z" />
    <glyph glyph-name="M" unicode="M" horiz-adv-x="880" 
d="M794 690q20 0 30 -11.5t8 -31.5l-63 -647h-99l63 607h-19l-209 -493q-13 -32 -46 -32h-87q-35 0 -40 36l-77 489h-20l-106 -607h-100l118 651q6 39 44 39h107q32 0 37 -36l65 -404q4 -23 11 -94h18q8 20 21.5 53.5t15.5 38.5l173 409q13 32 46 32z" />
    <glyph glyph-name="N" unicode="N" horiz-adv-x="706" 
d="M679 690l-92 -653q-6 -37 -40 -37h-87q-28 0 -39 33l-161 470q-19 54 -27 94h-15q-1 -42 -8 -94l-68 -503h-100l91 653q6 37 42 37h85q27 0 40 -33l155 -457q31 -99 32 -104h17q3 57 10 104l66 490h99z" />
    <glyph glyph-name="O" unicode="O" 
d="M387 703q147 0 202 -82.5t27 -279.5q-27 -199 -97.5 -276.5t-219.5 -77.5q-147 0 -203.5 81.5t-29.5 280.5q26 196 97 275t224 79zM382 614q-100 0 -144.5 -57.5t-67.5 -215.5q-21 -152 6.5 -208.5t124.5 -56.5q98 0 143.5 58.5t67.5 214.5q22 155 -5.5 210t-124.5 55z
" />
    <glyph glyph-name="P" unicode="P" horiz-adv-x="590" 
d="M376 699q123 0 169.5 -51t29.5 -171q-10 -68 -27 -109.5t-47.5 -65t-70.5 -32t-103 -8.5q-70 0 -147 9l-38 -271h-100l97 690q86 9 237 9zM476 485q11 76 -12 102t-92 26q-105 0 -144 -1l-37 -264h132q79 0 110 28t43 109z" />
    <glyph glyph-name="Q" unicode="Q" 
d="M387 703q147 0 202 -82.5t27 -279.5q-27 -199 -97.5 -276.5t-219.5 -77.5q-147 0 -203.5 81.5t-29.5 280.5q26 196 97 275t224 79zM382 614q-100 0 -144.5 -57.5t-67.5 -215.5q-21 -152 6.5 -208.5t124.5 -56.5q98 0 143.5 58.5t67.5 214.5q22 155 -5.5 210t-124.5 55z
M241 -42q114 -53 266 -77l-40 -99q-144 35 -264 116z" />
    <glyph glyph-name="R" unicode="R" horiz-adv-x="621" 
d="M580 495q-11 -79 -47 -121t-107 -51l-1 -6q60 -17 75 -101l44 -216h-102l-41 217q-7 37 -24 52t-50 15q-110 0 -147 1l-40 -285h-98l97 690q86 9 237 9q114 0 166.5 -45.5t37.5 -158.5zM330 370q73 1 106 28t43 99q10 67 -12.5 91.5t-93.5 24.5q-31 0 -80.5 -0.5
t-66.5 -0.5l-34 -242h138z" />
    <glyph glyph-name="S" unicode="S" horiz-adv-x="562" 
d="M332 702q120 0 207 -22l-11 -72q-103 5 -196 5q-34 0 -49.5 -0.5t-36.5 -5t-30.5 -14.5t-18 -29t-12.5 -48q-6 -49 6.5 -67t59.5 -35l132 -47q76 -27 100.5 -71.5t13.5 -124.5q-15 -110 -71.5 -146.5t-188.5 -36.5q-109 0 -213 20l13 74q156 -5 199 -5q88 1 120 19.5
t41 84.5q6 49 -7 67.5t-58 34.5l-135 48q-71 26 -97 73t-15 122q8 57 27 93t52.5 53.5t71 23.5t96.5 6z" />
    <glyph glyph-name="T" unicode="T" horiz-adv-x="576" 
d="M612 690l-12 -89h-220l-84 -601h-100l84 601h-217l13 89h536z" />
    <glyph glyph-name="U" unicode="U" horiz-adv-x="664" 
d="M642 690l-61 -426q-21 -151 -86 -214t-196 -63q-135 0 -190 66t-34 216l58 421h101l-60 -426q-15 -106 11.5 -147t110.5 -41q87 0 129 43t57 150l59 421h101z" />
    <glyph glyph-name="V" unicode="V" horiz-adv-x="609" 
d="M650 690l-300 -664q-11 -26 -38 -26h-97q-13 0 -22 9t-11 21l-115 660h101l81 -539q9 -73 9 -76h26q14 43 30 80l230 535h106z" />
    <glyph glyph-name="W" unicode="W" horiz-adv-x="946" 
d="M973 690l-226 -663q-11 -27 -41 -27h-109q-14 0 -24 9t-11 23l-31 507q-1 13 -3 38.5t-2 38.5h-21l-25 -81l-170 -507q-9 -28 -40 -28h-108q-15 0 -25.5 9t-11.5 22l-42 659h102l24 -528q1 -14 1.5 -43.5t0.5 -44.5h23q4 14 29 92l166 493q10 31 41 31h105q14 0 23.5 -10
t10.5 -25l36 -494q4 -58 3 -87h24q11 38 27 90l169 526h105z" />
    <glyph glyph-name="X" unicode="X" horiz-adv-x="613" 
d="M636 690l-225 -333l140 -357h-102l-121 320h-25l-208 -320h-116l242 357l-129 333h102l109 -294h26l197 294h110z" />
    <glyph glyph-name="Y" unicode="Y" horiz-adv-x="571" 
d="M617 690l-291 -450l-34 -240h-101l35 242l-163 448h101l99 -285q14 -44 18 -80h9q13 41 40 83l178 282h109z" />
    <glyph glyph-name="Z" unicode="Z" horiz-adv-x="564" 
d="M569 690l-13 -85l-429 -520h364l-12 -85h-474l12 85l429 520h-351l13 85h461z" />
    <glyph glyph-name="bracketleft" unicode="[" horiz-adv-x="328" 
d="M357 768l-9 -63h-94q-7 0 -13 -5.5t-8 -12.5l-109 -775q-2 -14 11 -14h100l-9 -63h-144q-26 0 -41 15t-11 45l115 817q4 26 21 41t43 15h148z" />
    <glyph glyph-name="backslash" unicode="\" horiz-adv-x="513" 
d="M152 690l289 -757h-74l-289 757h74z" />
    <glyph glyph-name="bracketright" unicode="]" horiz-adv-x="328" 
d="M247 768q26 0 41.5 -17.5t11.5 -42.5l-115 -817q-4 -26 -21.5 -41t-42.5 -15h-148l9 63h93q7 0 13.5 5.5t8.5 12.5l109 775q2 14 -11 14h-100l9 63h143z" />
    <glyph glyph-name="asciicircum" unicode="^" horiz-adv-x="432" 
d="M302 605l122 -213l-41 -23l-116 172h-8l-171 -172l-37 23l180 213h71z" />
    <glyph glyph-name="underscore" unicode="_" horiz-adv-x="439" 
d="M405 0l-11 -73h-439l11 73h439z" />
    <glyph glyph-name="grave" unicode="`" horiz-adv-x="321" 
d="M124 726l177 -147l-34 -44l-195 122z" />
    <glyph glyph-name="a" unicode="a" horiz-adv-x="574" 
d="M289 501q119 0 239 -26l-68 -475h-76l5 91q-91 -103 -211 -103q-89 0 -120 58t-11 204q11 81 31 132.5t53 76.5t68 33.5t90 8.5zM198 72q46 0 90 25.5t100 78.5l34 242q-92 2 -103 2q-52 0 -79 -5t-47.5 -25.5t-30 -52.5t-18.5 -94q-14 -109 -3.5 -140t57.5 -31z" />
    <glyph glyph-name="b" unicode="b" horiz-adv-x="575" 
d="M384 500q58 0 89 -21.5t44 -80t-4 -160.5q-11 -82 -31 -133.5t-52 -76.5t-65 -33t-85 -8q-122 0 -246 36l95 677h96l-27 -202q-13 -79 -26 -113q47 48 104.5 81.5t107.5 33.5zM415 245q14 109 3 140t-57 31q-72 0 -190 -106l-34 -240q72 -3 107 -3q95 0 125 30.5
t46 147.5z" />
    <glyph glyph-name="c" unicode="c" horiz-adv-x="486" 
d="M307 501q98 0 160 -26l-15 -60q-60 4 -130 4q-88 0 -126.5 -35.5t-51.5 -142.5t11.5 -139.5t107.5 -32.5q85 0 147 11l7 -66q-75 -26 -172 -26q-129 0 -175 60t-26 200q19 140 78 196.5t185 56.5z" />
    <glyph glyph-name="d" unicode="d" horiz-adv-x="574" 
d="M461 700h97l-98 -700h-76l5 102q-104 -114 -221 -114q-77 0 -109 59.5t-12 202.5q12 81 31.5 132.5t51 76.5t64.5 33.5t84 8.5q70 0 159 -12q0 33 7 92zM196 72q45 0 88.5 25t104.5 82l32 241q-45 1 -105 1q-50 0 -76.5 -5t-47 -25t-29.5 -53t-18 -95q-14 -104 -4 -137.5
t55 -33.5z" />
    <glyph glyph-name="e" unicode="e" horiz-adv-x="539" 
d="M315 501q114 0 155 -40t30 -118q-12 -71 -56 -102.5t-135 -38.5l-169 -15q0 -69 30 -93.5t93 -24.5q68 0 180 12l6 -65q-71 -28 -201 -28q-125 0 -173 65.5t-30 203.5q19 141 77.5 192.5t192.5 51.5zM403 351q6 47 -15.5 58t-87.5 11q-76 0 -107.5 -31.5t-46.5 -129.5
l163 15q46 3 67 19.5t27 57.5z" />
    <glyph glyph-name="f" unicode="f" horiz-adv-x="382" 
d="M344 638q-47 0 -67.5 -15.5t-27.5 -62.5l-10 -72h150l-10 -75h-151l-66 -469q-20 -143 -159 -143q-54 0 -121 8l15 72h75q47 0 67 15.5t27 62.5l64 454h-87l9 70l89 5l12 87q20 142 160 142q97 0 143 -7l-16 -72h-96z" />
    <glyph glyph-name="g" unicode="g" horiz-adv-x="576" 
d="M528 475h2l-66 -463q-26 -218 -289 -221q-102 0 -162 19l10 64q79 -2 155 -1q165 2 188 119q17 85 42 122q-41 -56 -101.5 -91t-131.5 -35q-82 0 -115 58t-12 204q12 82 32 133.5t52 76.5t64.5 33t83.5 8q128 0 248 -26zM199 72q46 0 90.5 25.5t99.5 79.5l35 241
q-92 2 -106 2q-95 0 -125.5 -30.5t-46.5 -146.5q-14 -107 -3.5 -139t56.5 -32z" />
    <glyph glyph-name="h" unicode="h" horiz-adv-x="580" 
d="M404 501q62 0 94 -35.5t22 -101.5l-52 -364h-96l47 340q6 46 -3.5 62.5t-41.5 16.5q-42 0 -86 -25t-117 -83l-42 -311h-97l99 700h96l-25 -192q-9 -61 -23 -120q127 113 225 113z" />
    <glyph glyph-name="i" unicode="i" horiz-adv-x="251" 
d="M203 696q14 0 21 -8t5 -22l-7 -56q-4 -27 -30 -27h-46q-30 0 -27 31l9 56q2 26 29 26h46zM201 488l-68 -488h-96l68 488h96z" />
    <glyph glyph-name="j" unicode="j" horiz-adv-x="251" 
d="M203 696q14 0 21 -8t5 -22l-7 -56q-4 -27 -30 -27h-46q-30 0 -27 31l9 56q2 26 29 26h46zM201 488l-70 -496q-7 -60 -39.5 -111.5t-82.5 -83.5l-53 45q67 68 79 155l70 491h96z" />
    <glyph glyph-name="k" unicode="k" horiz-adv-x="527" 
d="M343 270q16 -24 30 -57l95 -213h-104l-94 225q-45 -24 -116 -56l-25 -169h-96l98 700h97l-44 -328q-6 -54 -32 -120q216 104 254 236h99q-41 -131 -162 -218z" />
    <glyph glyph-name="l" unicode="l" horiz-adv-x="298" 
d="M228 700l-79 -561q-5 -33 7 -46.5t46 -13.5h46l4 -76q-27 -12 -93 -12q-58 0 -87.5 34t-21.5 96l82 579h96z" />
    <glyph glyph-name="m" unicode="m" horiz-adv-x="872" 
d="M698 501q64 0 93.5 -36.5t20.5 -100.5l-51 -364h-97l48 340q6 44 -7 61.5t-45 17.5q-35 0 -69.5 -22t-104.5 -87l-43 -310h-93l47 340q6 42 -5 60.5t-47 18.5t-70.5 -22t-103.5 -84l-43 -313h-96l69 488h74l-5 -104q114 117 211 117q56 0 85.5 -29t29.5 -81q57 58 105 84
t97 26z" />
    <glyph glyph-name="n" unicode="n" horiz-adv-x="580" 
d="M404 501q62 0 94 -35.5t22 -101.5l-52 -364h-96l47 340q6 46 -3.5 62.5t-41.5 16.5q-41 0 -85.5 -25t-117.5 -82l-42 -312h-97l69 488h77l-5 -105q132 118 231 118z" />
    <glyph glyph-name="o" unicode="o" horiz-adv-x="566" 
d="M307 501q126 0 174 -60.5t28 -200.5q-19 -138 -79 -195.5t-183 -57.5q-125 0 -173.5 60.5t-29.5 199.5q19 138 78.5 196t184.5 58zM307 419q-77 0 -112.5 -37t-50.5 -142q-14 -101 7.5 -136.5t95.5 -35.5q78 0 113 38.5t49 140.5q15 101 -6.5 136.5t-95.5 35.5z" />
    <glyph glyph-name="p" unicode="p" horiz-adv-x="577" 
d="M387 500q88 0 118 -56t10 -206q-11 -82 -31 -133t-52 -76.5t-66 -33.5t-87 -8q-69 0 -154 13q0 -47 -7 -93l-17 -107h-97l98 688h76l-5 -103q48 48 106.5 81.5t107.5 33.5zM417 245q14 109 3.5 140t-55.5 31q-33 0 -85 -28.5t-107 -78.5l-32 -241q46 -1 102 -1q52 0 79 5
t47.5 25t29.5 53t18 95z" />
    <glyph glyph-name="q" unicode="q" horiz-adv-x="571" 
d="M524 465h1l-96 -665h-96l28 187q12 73 29 115q-104 -114 -221 -114q-77 0 -109.5 58.5t-12.5 203.5q11 81 31 132.5t51 76.5t64 33.5t82 8.5q131 0 249 -36zM198 72q45 0 86 24t104 82l33 240q-70 3 -108 3q-39 0 -62.5 -4t-43 -13.5t-30 -30.5t-18 -51t-14.5 -79
q-14 -105 -4 -138t57 -33z" />
    <glyph glyph-name="r" unicode="r" horiz-adv-x="401" 
d="M390 501h26l-24 -91h-27q-38 0 -79 -22.5t-115 -76.5l-42 -311h-97l69 488h74l-6 -112q125 125 221 125z" />
    <glyph glyph-name="s" unicode="s" horiz-adv-x="508" 
d="M264 501q113 -2 209 -17l-12 -69q-127 4 -194 5q-66 0 -88.5 -7t-26.5 -36q-3 -25 9.5 -37t48.5 -28l132 -60q60 -28 82 -57.5t15 -83.5q-4 -33 -17 -55.5t-30.5 -35.5t-48 -20t-60 -9t-75.5 -2q-48 0 -75.5 1.5t-61 6t-52.5 6.5l11 72q56 -5 153 -5q92 0 124 10t37 40
q1 5 1 10t-0.5 8.5t-3 7t-4 6t-5.5 5.5t-7 5t-9 5t-9.5 4.5t-11 5t-12.5 5.5l-131 60q-55 26 -78 58.5t-16 83.5q8 67 57 93t149 24z" />
    <glyph glyph-name="t" unicode="t" horiz-adv-x="385" 
d="M225 413l-39 -274q-5 -35 6.5 -47.5t46.5 -12.5h73l4 -75q-44 -13 -114 -13q-65 0 -93.5 36t-19.5 103l41 283h-90l9 70l91 5l21 143h95l-20 -143h150l-10 -75h-151z" />
    <glyph glyph-name="u" unicode="u" horiz-adv-x="569" 
d="M427 488h96l-68 -488h-75l6 102q-119 -115 -222 -115q-66 0 -96 36.5t-21 99.5l51 365h97l-49 -340q-6 -43 6 -60.5t46 -17.5q41 0 81 24.5t106 84.5z" />
    <glyph glyph-name="v" unicode="v" horiz-adv-x="536" 
d="M523 488q-27 -141 -87 -280q-42 -98 -81 -151q-21 -30 -43 -43.5t-61 -13.5h-83q-27 0 -32 26l-94 462h101l71 -412h15q20 0 32 6t25 24q29 38 70 141q44 106 67 241h100z" />
    <glyph glyph-name="w" unicode="w" horiz-adv-x="857" 
d="M143 488l65 -412h14q29 0 49 38q23 43 49 133q23 84 43 217q3 24 27 24h106q21 0 24 -22l45 -390h12q21 0 41 32q40 62 67 139q38 104 58 241h101q-32 -152 -85 -280q-46 -108 -83 -155q-40 -53 -92 -53h-64q-12 0 -20 7.5t-10 18.5l-42 399h-13q-8 -90 -37 -202
q-27 -90 -61 -152q-39 -71 -119 -71h-55q-26 0 -31 26l-90 462h101z" />
    <glyph glyph-name="x" unicode="x" horiz-adv-x="531" 
d="M528 488l-181 -236l123 -252h-97l-103 216h-21l-163 -216h-108l196 253l-114 235h97l90 -197h27l149 197h105z" />
    <glyph glyph-name="y" unicode="y" horiz-adv-x="545" 
d="M430 488h101q-54 -238 -141 -403q-78 -148 -154.5 -210t-182.5 -80l-18 69q64 15 112 45t93 91h-46q-23 0 -39 12.5t-20 34.5l-94 441h102l74 -395q3 -17 20 -17h50q2 4 6 11.5t7 14t6 12.5q88 183 124 374z" />
    <glyph glyph-name="z" unicode="z" horiz-adv-x="508" 
d="M474 409h1l-348 -330h305l-11 -79h-415l10 79l348 330h-297l11 79h407z" />
    <glyph glyph-name="braceleft" unicode="{" horiz-adv-x="322" 
d="M345 768l-3 -61q-50 0 -73 -19t-30 -64l-24 -173q-8 -64 -29.5 -89t-78.5 -35q52 -17 68.5 -43t8.5 -79l-32 -231q-7 -45 8.5 -61.5t65.5 -16.5l-4 -61q-92 -7 -132.5 28.5t-29.5 107.5l35 253q5 35 -5 46t-48 25l9 68q30 8 40 13t18.5 19.5t12.5 45.5l27 195
q10 74 55.5 107t140.5 25z" />
    <glyph glyph-name="bar" unicode="|" horiz-adv-x="247" 
d="M227 781l-134 -950h-69l133 950h70z" />
    <glyph glyph-name="braceright" unicode="}" horiz-adv-x="323" 
d="M105 768q94 9 133.5 -28.5t29.5 -107.5l-27 -196q-6 -43 1.5 -53t47.5 -22l-9 -68q-23 -8 -31 -11.5t-19.5 -11.5t-16 -20t-7.5 -31l-36 -252q-10 -74 -54.5 -107t-141.5 -25l4 61q50 0 72.5 18.5t28.5 63.5l33 231q8 54 30 78t82 42q-51 10 -67.5 37t-6.5 89l25 173
q6 45 -9 62t-65 17z" />
    <glyph glyph-name="asciitilde" unicode="~" horiz-adv-x="520" 
d="M153 351q38 -2 106.5 -28t90.5 -29q27 -3 39 10t17 44l48 -4q0 -61 -25 -92.5t-63 -28.5q-44 2 -111.5 28t-86.5 28q-27 3 -39 -10t-16 -46l-50 4q1 63 26.5 94.5t63.5 29.5z" />
    <glyph glyph-name="uni00A0" unicode="&#xa0;" horiz-adv-x="222" 
 />
    <glyph glyph-name="exclamdown" unicode="&#xa1;" horiz-adv-x="260" 
d="M170 496q38 0 31 -38l-7 -53q-4 -34 -37 -34h-25q-37 0 -33 37l7 54q6 34 39 34h25zM167 283l-16 -183l-41 -294h-96l41 294l36 183h76z" />
    <glyph glyph-name="cent" unicode="&#xa2;" horiz-adv-x="505" 
d="M467 518q-24 1 -107 4l-78 -350q76 0 142 11l7 -66q-75 -26 -170 -26l-21 -91h-46l22 93q-104 9 -140.5 69.5t-17.5 188.5q20 140 79 196.5t184 56.5h14l21 86h46l-22 -89q64 -7 101 -23zM159 344q-11 -94 5.5 -129t72.5 -41l77 348q-75 -4 -109 -41t-46 -137z" />
    <glyph glyph-name="sterling" unicode="&#xa3;" horiz-adv-x="570" 
d="M369 615q-60 0 -86.5 -21t-30.5 -78l-9 -123h205l-11 -58h-199l-5 -70q-6 -69 -28 -110t-70 -75q21 6 67 6h291l-12 -86h-464l12 86q94 42 106 182l6 67h-79l8 58h75l11 129q5 57 20.5 93.5t44.5 55t62 25t84 6.5q83 0 186 -10l-12 -80q-75 3 -172 3z" />
    <glyph glyph-name="currency" unicode="&#xa4;" horiz-adv-x="595" 
d="M502 348q-9 -71 -49 -119l69 -77l-45 -41l-68 78q-54 -34 -125 -34q-72 0 -118 37l-77 -69l-40 46l78 69q-26 50 -19 118q11 74 51 122l-67 76l45 42l67 -79q51 33 121 33q73 0 119 -37l77 70l40 -46l-78 -69q28 -51 19 -120zM285 210q66 -1 109 39t50 108
q7 63 -25.5 100.5t-94.5 37.5q-66 0 -108 -39.5t-50 -107.5q-7 -63 25 -100.5t94 -37.5z" />
    <glyph glyph-name="yen" unicode="&#xa5;" horiz-adv-x="618" 
d="M640 690l-237 -364h131l-8 -57h-160l-17 -27l-4 -29h173l-8 -57h-173l-22 -156h-101l22 156h-170l7 57h171l5 33l-9 23h-158l7 57h130l-134 364h102l98 -281q15 -41 19 -80h9q13 41 40 83l177 278h110z" />
    <glyph glyph-name="brokenbar" unicode="&#xa6;" horiz-adv-x="248" 
d="M227 781l-56 -400h-70l56 400h70zM150 231l-56 -400h-70l56 400h70z" />
    <glyph glyph-name="section" unicode="&#xa7;" horiz-adv-x="545" 
d="M312 703q128 -2 220 -12l-12 -76q-67 5 -182 6q-72 1 -101.5 -9t-35.5 -47q-5 -30 7.5 -48.5t39.5 -35.5l148 -90q65 -40 76 -97.5t-22 -139.5h-70q15 63 6 101.5t-51 64.5l-155 97q-48 30 -69 64.5t-12 93.5q11 76 60.5 102t152.5 26zM88 380h70q-15 -62 -6.5 -98
t50.5 -62l156 -97q47 -28 68.5 -63t13.5 -96q-12 -80 -62.5 -104.5t-152.5 -24.5q-128 2 -219 12l12 76q91 -6 183 -7q34 0 53.5 1.5t39.5 7t30 18t13 32.5q5 30 -7 49t-40 36l-145 87q-66 38 -78 94t21 139z" />
    <glyph glyph-name="dieresis" unicode="&#xa8;" horiz-adv-x="413" 
d="M202 697q16 0 21.5 -6t3.5 -21l-9 -54q-3 -26 -29 -26h-32q-27 0 -24 25l9 55q4 27 31 27h29zM370 697q16 0 21 -6t3 -21l-9 -54q-1 -26 -28 -26h-32q-27 0 -24 25l8 55q4 27 32 27h29z" />
    <glyph glyph-name="copyright" unicode="&#xa9;" horiz-adv-x="830" 
d="M460 703q161 0 251.5 -101t70.5 -261q-20 -155 -129.5 -254.5t-270.5 -99.5q-162 0 -250.5 102.5t-68.5 259.5q20 153 128 253.5t269 100.5zM464 654q-140 0 -236 -88t-113 -225t58 -221t208 -84q139 0 235.5 88t113.5 225q17 133 -56.5 219t-209.5 86zM463 565
q64 0 125 -14l-10 -54q-63 3 -108 3q-85 0 -117 -29t-46 -128q-12 -86 7.5 -117.5t84.5 -31.5q94 0 143 6l4 -55q-61 -16 -135 -16q-118 0 -156.5 48.5t-21.5 173.5q16 122 66.5 168t163.5 46z" />
    <glyph glyph-name="ordfeminine" unicode="&#xaa;" horiz-adv-x="447" 
d="M241 609q91 0 174 -19l-44 -318h-60l2 53q-60 -60 -140 -60q-59 0 -84 40t-12 136q7 56 22 91.5t38.5 51t46 20.5t57.5 5zM151 436q-8 -70 -1 -88t38 -18q53 0 127 63l22 154q-33 1 -70 1q-66 0 -86.5 -18.5t-29.5 -93.5z" />
    <glyph glyph-name="guillemotleft" unicode="&#xab;" horiz-adv-x="482" 
d="M223 460l39 -35l-148 -174l106 -181l-48 -32l-137 207l2 22zM409 460l39 -35l-148 -174l106 -181l-48 -32l-137 207l2 22z" />
    <glyph glyph-name="logicalnot" unicode="&#xac;" horiz-adv-x="586" 
d="M75 334h442l-28 -201h-74l18 128h-368z" />
    <glyph glyph-name="uni00AD" unicode="&#xad;" horiz-adv-x="440" 
d="M370 290l-10 -74h-303l10 74h303z" />
    <glyph glyph-name="registered" unicode="&#xae;" horiz-adv-x="550" 
d="M320 702q97 0 155.5 -59.5t46.5 -166.5q-10 -102 -74.5 -160.5t-163.5 -58.5q-104 0 -160.5 63t-45.5 164q11 100 76.5 159t165.5 59zM491 484q7 89 -39.5 138.5t-132.5 49.5q-90 0 -144.5 -53t-63.5 -139q-9 -92 39 -142.5t134 -50.5q89 0 144 53t63 144zM328 611
q48 0 72.5 -15t18.5 -63q-3 -26 -16 -40.5t-42 -21.5l-1 -2q15 -6 25 -37l19 -78h-46l-18 79q-7 25 -33 25h-66l-14 -104h-44l35 254q36 3 110 3zM375 536q3 26 -7.5 33.5t-42.5 7.5h-67l-12 -87h61q35 1 49.5 9.5t18.5 36.5z" />
    <glyph glyph-name="macron" unicode="&#xaf;" horiz-adv-x="400" 
d="M402 677l-10 -71h-283l10 71h283z" />
    <glyph glyph-name="degree" unicode="&#xb0;" horiz-adv-x="360" 
d="M227 703q61 0 94.5 -38t28.5 -94q-6 -56 -44.5 -90.5t-95.5 -34.5q-61 0 -93.5 39t-27.5 94t43 89.5t95 34.5zM225 646q-32 0 -52.5 -19t-23.5 -50q-3 -33 15 -53t50 -20t52 19t23 51q2 32 -14.5 52t-49.5 20z" />
    <glyph glyph-name="plusminus" unicode="&#xb1;" horiz-adv-x="583" 
d="M343 397h184l-10 -72h-184l-19 -131h-73l18 131h-184l10 72h184l18 131h75zM38 65l10 72h443l-10 -72h-443z" />
    <glyph glyph-name="uni00B2" unicode="&#xb2;" horiz-adv-x="424" 
d="M278 777q73 0 106 -16t33 -61q0 -73 -102 -160l-134 -116q24 3 65 3l150 -1l-11 -67h-312l6 42q3 19 17 32l138 118q97 83 97 130q0 19 -16 25.5t-51 6.5q-53 0 -133 -7l4 57q73 14 143 14z" />
    <glyph glyph-name="uni00B3" unicode="&#xb3;" horiz-adv-x="411" 
d="M271 778q73 0 105 -16.5t32 -55.5q0 -51 -23 -86t-68 -41v-2q72 -11 72 -76q0 -80 -41 -115t-124 -35q-60 0 -152 12l13 56q78 -5 127 -5q52 0 76.5 19t24.5 65q0 47 -73 47h-85l8 56h85q83 2 83 77q0 22 -17 30t-60 8q-68 0 -121 -5l4 55q71 12 134 12z" />
    <glyph glyph-name="acute" unicode="&#xb4;" horiz-adv-x="321" 
d="M297 727l45 -75l-213 -117l-28 45z" />
    <glyph glyph-name="uni00B5" unicode="&#xb5;" horiz-adv-x="585" 
d="M496 63h40l-1 -59q-54 -14 -87 -14q-83 0 -72 86l3 22q-29 -48 -78.5 -79.5t-106.5 -31.5q-33 0 -57 12l-10 -69l-31 -127h-83l47 330q0 1 0.5 4t0.5 4l48 347h97l-48 -340q-5 -36 9 -52.5t50 -16.5q32 0 65.5 16.5t68.5 63.5t50 116l30 213h97l-52 -376
q-4 -26 -0.5 -37.5t20.5 -11.5z" />
    <glyph glyph-name="paragraph" unicode="&#xb6;" horiz-adv-x="589" 
d="M392 702q92 0 159 -17l-96 -685h-73l89 637q-47 3 -86 3l-120 -850h-73l58 411q-118 12 -164 72.5t-29 182.5q19 137 95 191.5t240 54.5z" />
    <glyph glyph-name="periodcentered" unicode="&#xb7;" horiz-adv-x="239" 
d="M137 320q37 0 33 -37l-7 -53q-4 -34 -38 -34h-32q-39 0 -33 37l8 54q4 33 37 33h32z" />
    <glyph glyph-name="cedilla" unicode="&#xb8;" horiz-adv-x="236" 
d="M44 -42q67 6 93.5 -8t17.5 -61q-10 -64 -62 -97t-125 -23l18 51q38 -2 66.5 18t33.5 51q3 14 -6.5 18.5t-46.5 5.5z" />
    <glyph glyph-name="uni00B9" unicode="&#xb9;" horiz-adv-x="297" 
d="M293 771l-58 -412h-75l43 304q4 26 9 40l-112 -27l-2 53l120 42h75z" />
    <glyph glyph-name="ordmasculine" unicode="&#xba;" horiz-adv-x="440" 
d="M257 609q92 0 126 -40.5t20 -136.5q-13 -92 -54 -129.5t-129 -37.5q-90 0 -124.5 40t-21.5 135q13 94 53.5 131.5t129.5 37.5zM257 549q-56 0 -77 -24t-32 -93q-8 -64 7 -85.5t67 -21.5q51 0 74 24.5t33 90.5q8 65 -6.5 87t-65.5 22z" />
    <glyph glyph-name="guillemotright" unicode="&#xbb;" horiz-adv-x="484" 
d="M61 35l-39 35l148 174l-106 181l48 32l137 -207l-2 -22zM247 35l-39 35l148 174l-106 181l48 32l137 -207l-2 -22z" />
    <glyph glyph-name="onequarter" unicode="&#xbc;" horiz-adv-x="863" 
d="M187 583q4 26 9 42l-113 -30l-1 53l121 42h75l-58 -414h-76zM632 690h70l-538 -690h-70zM809 153l-8 -52l-54 -6l-13 -95h-70l13 94h-187q-28 0 -40 19t5 51l159 250h74l-151 -242q-10 -19 11 -19h137l15 115l23 66h58l-25 -181h53z" />
    <glyph glyph-name="onehalf" unicode="&#xbd;" horiz-adv-x="882" 
d="M278 690l-58 -414h-76l43 307q4 26 9 42l-113 -30l-1 53l121 42h75zM694 690l-538 -690h-70l538 690h70zM682 421q83 0 118 -20.5t26 -80.5q-9 -61 -97 -138l-144 -117q25 3 67 3l155 -1l-9 -67h-316l7 44q2 21 13 32l140 118q93 77 102 126q4 23 -11.5 30t-53.5 7
q-68 0 -137 -7l-1 57q71 14 141 14z" />
    <glyph glyph-name="threequarters" unicode="&#xbe;" horiz-adv-x="958" 
d="M368 384q-8 -63 -45 -90.5t-119 -27.5q-65 0 -151 11l6 56q65 -4 125 -4q55 0 79.5 16.5t29.5 56.5q4 29 -9.5 44t-61.5 15h-88l8 56l83 1q46 0 64 18.5t22 47.5q4 30 -10.5 39.5t-62.5 9.5q-74 0 -124 -3l-1 55q69 10 134 10q86 0 116.5 -22t22.5 -78q-6 -44 -24.5 -69
t-61.5 -31l-6 -3q46 -7 62.5 -33t11.5 -75zM734 690h70l-538 -690h-70zM902 153l-8 -52l-54 -6l-13 -95h-71l13 94h-185q-28 0 -40 19t5 51l159 250h74l-151 -242q-10 -19 11 -19h135l15 115l23 66h59l-25 -181h53z" />
    <glyph glyph-name="questiondown" unicode="&#xbf;" horiz-adv-x="493" 
d="M296 501q38 0 34 -37l-8 -54q-4 -34 -38 -34h-24q-38 0 -32 38l7 54q5 33 37 33h24zM297 287q-6 -51 -28 -93.5t-49.5 -71.5t-55 -54.5t-48.5 -53.5t-26 -57q-8 -45 17 -65.5t88 -20.5q111 0 201 9v-69q-7 -1 -24.5 -4.5t-24 -4.5t-22 -3.5t-24 -3.5t-24.5 -2.5t-30 -2
t-33 -1t-41 -0.5q-101 0 -148.5 43.5t-37.5 115.5q5 40 28 75t53 61.5t60 54t55 65.5t33 83h81z" />
    <glyph glyph-name="Agrave" unicode="&#xc0;" horiz-adv-x="623" 
d="M432 770l-34 -44l-195 122l52 69zM477 0l-34 208h-276l-93 -208h-106l310 665q10 25 39 25h102q13 0 22.5 -8.5t10.5 -20.5l125 -661h-100zM206 296h222l-43 259q-4 20 -8 60h-30l-26 -60z" />
    <glyph glyph-name="Aacute" unicode="&#xc1;" horiz-adv-x="623" 
d="M554 843l-213 -117l-28 45l196 147zM477 0l-34 208h-276l-93 -208h-106l310 665q10 25 39 25h102q13 0 22.5 -8.5t10.5 -20.5l125 -661h-100zM206 296h222l-43 259q-4 20 -8 60h-30l-26 -60z" />
    <glyph glyph-name="Acircumflex" unicode="&#xc2;" horiz-adv-x="623" 
d="M392 827l-149 -98l-27 41l147 129h69l124 -135l-35 -38l-120 101h-9zM477 0l-34 208h-276l-93 -208h-106l310 665q10 25 39 25h102q13 0 22.5 -8.5t10.5 -20.5l125 -661h-100zM206 296h222l-43 259q-4 20 -8 60h-30l-26 -60z" />
    <glyph glyph-name="Atilde" unicode="&#xc3;" horiz-adv-x="623" 
d="M324 816q-28 3 -41.5 -10.5t-17.5 -44.5l-44 4q2 60 27.5 90.5t62.5 27.5q34 -3 76.5 -26.5t66.5 -26.5q29 -4 42.5 8.5t17.5 41.5l44 -4q-1 -58 -26 -88t-64 -27t-83 27.5t-61 27.5zM477 0l-34 208h-276l-93 -208h-106l310 665q10 25 39 25h102q13 0 22.5 -8.5
t10.5 -20.5l125 -661h-100zM206 296h222l-43 259q-4 20 -8 60h-30l-26 -60z" />
    <glyph glyph-name="Adieresis" unicode="&#xc4;" horiz-adv-x="623" 
d="M282 765q-27 0 -24 25l9 55q4 27 31 27h29q16 0 21.5 -6t3.5 -21l-9 -54q-3 -26 -29 -26h-32zM450 765q-27 0 -24 25l8 55q4 27 32 27h29q16 0 21 -6t3 -21l-9 -54q-1 -26 -28 -26h-32zM477 0l-34 208h-276l-93 -208h-106l310 665q10 25 39 25h102q13 0 22.5 -8.5
t10.5 -20.5l125 -661h-100zM206 296h222l-43 259q-4 20 -8 60h-30l-26 -60z" />
    <glyph glyph-name="Aring" unicode="&#xc5;" horiz-adv-x="623" 
d="M383 714q-45 0 -74 27t-29 71q0 50 32.5 82.5t82.5 32.5q46 0 75 -27t29 -71q0 -49 -32.5 -82t-83.5 -33zM394 879q-28 0 -44.5 -17.5t-16.5 -44.5q0 -25 13.5 -39.5t39.5 -14.5q25 0 42 18t17 44q0 25 -13.5 39.5t-37.5 14.5zM477 0l-34 208h-276l-93 -208h-106l310 665
q10 25 39 25h102q13 0 22.5 -8.5t10.5 -20.5l125 -661h-100zM206 296h222l-43 259q-4 20 -8 60h-30l-26 -60z" />
    <glyph glyph-name="AE" unicode="&#xc6;" horiz-adv-x="913" 
d="M652 606q-63 0 -73 -66l-19 -138h278l-10 -79h-279l-24 -176q-5 -35 7 -49t45 -14h256l-5 -78q-102 -8 -269 -8q-68 0 -103.5 38.5t-25.5 106.5l10 72h-227l-151 -215h-107l413 579q46 66 98.5 89t150.5 23q196 0 302 -7l-14 -78h-253zM274 301l178 -1l36 254q5 47 38 70
h-5q-32 -19 -64 -63z" />
    <glyph glyph-name="Ccedilla" unicode="&#xc7;" horiz-adv-x="568" 
d="M383 702q107 0 191 -21l-16 -76q-79 8 -177 8q-67 0 -105.5 -22t-64.5 -81t-41 -169q-22 -150 5 -206.5t120 -57.5q112 -1 199 11l5 -77q-83 -23 -206 -23q-149 0 -202 85.5t-25 275.5q27 196 97 274.5t220 78.5zM223 -54q67 6 93.5 -8t17.5 -61q-10 -64 -62 -97
t-125 -23l18 51q38 -2 66.5 18t33.5 51q3 14 -6.5 18.5t-46.5 5.5z" />
    <glyph glyph-name="Egrave" unicode="&#xc8;" horiz-adv-x="560" 
d="M428 790l-34 -44l-195 122l52 69zM279 606q-32 0 -47.5 -14.5t-19.5 -50.5l-19 -140h291l-10 -77h-292l-24 -178q-4 -34 7.5 -48t44.5 -14h267l-2 -78q-86 -8 -277 -8q-80 0 -115.5 38.5t-26.5 106.5l59 427q8 58 47 90t105 32q207 0 297 -8l-13 -78h-272z" />
    <glyph glyph-name="Eacute" unicode="&#xc9;" horiz-adv-x="560" 
d="M550 863l-213 -117l-28 45l196 147zM279 606q-32 0 -47.5 -14.5t-19.5 -50.5l-19 -140h291l-10 -77h-292l-24 -178q-4 -34 7.5 -48t44.5 -14h267l-2 -78q-86 -8 -277 -8q-80 0 -115.5 38.5t-26.5 106.5l59 427q8 58 47 90t105 32q207 0 297 -8l-13 -78h-272z" />
    <glyph glyph-name="Ecircumflex" unicode="&#xca;" horiz-adv-x="560" 
d="M388 847l-149 -98l-27 41l147 129h69l124 -135l-35 -38l-120 101h-9zM279 606q-32 0 -47.5 -14.5t-19.5 -50.5l-19 -140h291l-10 -77h-292l-24 -178q-4 -34 7.5 -48t44.5 -14h267l-2 -78q-86 -8 -277 -8q-80 0 -115.5 38.5t-26.5 106.5l59 427q8 58 47 90t105 32
q207 0 297 -8l-13 -78h-272z" />
    <glyph glyph-name="Edieresis" unicode="&#xcb;" horiz-adv-x="560" 
d="M278 785q-27 0 -24 25l9 55q4 27 31 27h29q16 0 21.5 -6t3.5 -21l-9 -54q-3 -26 -29 -26h-32zM446 785q-27 0 -24 25l8 55q4 27 32 27h29q16 0 21 -6t3 -21l-9 -54q-1 -26 -28 -26h-32zM279 606q-32 0 -47.5 -14.5t-19.5 -50.5l-19 -140h291l-10 -77h-292l-24 -178
q-4 -34 7.5 -48t44.5 -14h267l-2 -78q-86 -8 -277 -8q-80 0 -115.5 38.5t-26.5 106.5l59 427q8 58 47 90t105 32q207 0 297 -8l-13 -78h-272z" />
    <glyph glyph-name="Igrave" unicode="&#xcc;" horiz-adv-x="267" 
d="M73 917l177 -147l-34 -44l-195 122zM240 690l-97 -690h-101l97 690h101z" />
    <glyph glyph-name="Iacute" unicode="&#xcd;" horiz-adv-x="267" 
d="M327 918l45 -75l-213 -117l-28 45zM240 690l-97 -690h-101l97 690h101z" />
    <glyph glyph-name="Icircumflex" unicode="&#xce;" horiz-adv-x="267" 
d="M250 899l124 -135l-35 -38l-120 101h-9l-149 -98l-27 41l147 129h69zM240 690l-97 -690h-101l97 690h101z" />
    <glyph glyph-name="Idieresis" unicode="&#xcf;" horiz-adv-x="267" 
d="M145 872q16 0 21.5 -6t3.5 -21l-9 -54q-3 -26 -29 -26h-32q-27 0 -24 25l9 55q4 27 31 27h29zM313 872q16 0 21 -6t3 -21l-9 -54q-1 -26 -28 -26h-32q-27 0 -24 25l8 55q4 27 32 27h29zM240 690l-97 -690h-101l97 690h101z" />
    <glyph glyph-name="Eth" unicode="&#xd0;" horiz-adv-x="663" 
d="M364 699q164 0 220 -79t28 -279q-11 -77 -25.5 -132t-36 -94t-46.5 -63t-62 -38t-76 -18.5t-95 -4.5q-96 0 -229 9l48 338h-63l7 55h63l42 297q122 9 225 9zM508 349q10 68 11 112.5t-6.5 75.5t-27.5 46.5t-48.5 22t-74.5 6.5q-38 0 -134 -2l-31 -217h149l-7 -55h-149
l-37 -258q86 -2 117 -2q81 0 124 20t70 77t44 174z" />
    <glyph glyph-name="Ntilde" unicode="&#xd1;" horiz-adv-x="706" 
d="M356 883q34 -3 76.5 -26.5t66.5 -26.5q29 -4 42.5 8.5t17.5 41.5l44 -4q-1 -58 -26 -88t-64 -27t-83 27.5t-61 27.5q-28 3 -41.5 -10.5t-17.5 -44.5l-44 4q2 60 27.5 90.5t62.5 27.5zM679 690l-92 -653q-6 -37 -40 -37h-87q-28 0 -39 33l-161 470q-19 54 -27 94h-15
q-1 -42 -8 -94l-68 -503h-100l91 653q6 37 42 37h85q27 0 40 -33l155 -457q31 -99 32 -104h17q3 57 10 104l66 490h99z" />
    <glyph glyph-name="Ograve" unicode="&#xd2;" 
d="M269 917l177 -147l-34 -44l-195 122zM387 703q147 0 202 -82.5t27 -279.5q-27 -199 -97.5 -276.5t-219.5 -77.5q-147 0 -203.5 81.5t-29.5 280.5q26 196 97 275t224 79zM382 614q-100 0 -144.5 -57.5t-67.5 -215.5q-21 -152 6.5 -208.5t124.5 -56.5q98 0 143.5 58.5
t67.5 214.5q22 155 -5.5 210t-124.5 55z" />
    <glyph glyph-name="Oacute" unicode="&#xd3;" 
d="M523 918l45 -75l-213 -117l-28 45zM387 703q147 0 202 -82.5t27 -279.5q-27 -199 -97.5 -276.5t-219.5 -77.5q-147 0 -203.5 81.5t-29.5 280.5q26 196 97 275t224 79zM382 614q-100 0 -144.5 -57.5t-67.5 -215.5q-21 -152 6.5 -208.5t124.5 -56.5q98 0 143.5 58.5
t67.5 214.5q22 155 -5.5 210t-124.5 55z" />
    <glyph glyph-name="Ocircumflex" unicode="&#xd4;" 
d="M446 899l124 -135l-35 -38l-120 101h-9l-149 -98l-27 41l147 129h69zM387 703q147 0 202 -82.5t27 -279.5q-27 -199 -97.5 -276.5t-219.5 -77.5q-147 0 -203.5 81.5t-29.5 280.5q26 196 97 275t224 79zM382 614q-100 0 -144.5 -57.5t-67.5 -215.5q-21 -152 6.5 -208.5
t124.5 -56.5q98 0 143.5 58.5t67.5 214.5q22 155 -5.5 210t-124.5 55z" />
    <glyph glyph-name="Otilde" unicode="&#xd5;" 
d="M325 883q34 -3 76.5 -26.5t66.5 -26.5q29 -4 42.5 8.5t17.5 41.5l44 -4q-1 -58 -26 -88t-64 -27t-83 27.5t-61 27.5q-28 3 -41.5 -10.5t-17.5 -44.5l-44 4q2 60 27.5 90.5t62.5 27.5zM387 703q147 0 202 -82.5t27 -279.5q-27 -199 -97.5 -276.5t-219.5 -77.5
q-147 0 -203.5 81.5t-29.5 280.5q26 196 97 275t224 79zM382 614q-100 0 -144.5 -57.5t-67.5 -215.5q-21 -152 6.5 -208.5t124.5 -56.5q98 0 143.5 58.5t67.5 214.5q22 155 -5.5 210t-124.5 55z" />
    <glyph glyph-name="Odieresis" unicode="&#xd6;" 
d="M341 872q16 0 21.5 -6t3.5 -21l-9 -54q-3 -26 -29 -26h-32q-27 0 -24 25l9 55q4 27 31 27h29zM509 872q16 0 21 -6t3 -21l-9 -54q-1 -26 -28 -26h-32q-27 0 -24 25l8 55q4 27 32 27h29zM387 703q147 0 202 -82.5t27 -279.5q-27 -199 -97.5 -276.5t-219.5 -77.5
q-147 0 -203.5 81.5t-29.5 280.5q26 196 97 275t224 79zM382 614q-100 0 -144.5 -57.5t-67.5 -215.5q-21 -152 6.5 -208.5t124.5 -56.5q98 0 143.5 58.5t67.5 214.5q22 155 -5.5 210t-124.5 55z" />
    <glyph glyph-name="multiply" unicode="&#xd7;" horiz-adv-x="524" 
d="M487 419l-170 -135l124 -130l-52 -53l-131 136l-175 -139l-43 62l165 131l-126 131l54 53l131 -137l180 143z" />
    <glyph glyph-name="Oslash" unicode="&#xd8;" 
d="M560 654q89 -79 56 -313q-27 -199 -97.5 -276.5t-219.5 -77.5q-80 0 -131 22l-43 -70l-45 27l43 71q-89 77 -57 312q26 196 97 275t224 79q75 0 128 -21l44 73l46 -27zM170 341q-23 -157 9 -213l286 472q-29 14 -83 14q-100 0 -144.5 -57.5t-67.5 -215.5zM512 349
q22 158 -7 214l-287 -472q31 -15 83 -15q98 0 143.5 58.5t67.5 214.5z" />
    <glyph glyph-name="Ugrave" unicode="&#xd9;" horiz-adv-x="664" 
d="M269 917l177 -147l-34 -44l-195 122zM642 690l-61 -426q-21 -151 -86 -214t-196 -63q-135 0 -190 66t-34 216l58 421h101l-60 -426q-15 -106 11.5 -147t110.5 -41q87 0 129 43t57 150l59 421h101z" />
    <glyph glyph-name="Uacute" unicode="&#xda;" horiz-adv-x="664" 
d="M523 918l45 -75l-213 -117l-28 45zM642 690l-61 -426q-21 -151 -86 -214t-196 -63q-135 0 -190 66t-34 216l58 421h101l-60 -426q-15 -106 11.5 -147t110.5 -41q87 0 129 43t57 150l59 421h101z" />
    <glyph glyph-name="Ucircumflex" unicode="&#xdb;" horiz-adv-x="664" 
d="M446 899l124 -135l-35 -38l-120 101h-9l-149 -98l-27 41l147 129h69zM642 690l-61 -426q-21 -151 -86 -214t-196 -63q-135 0 -190 66t-34 216l58 421h101l-60 -426q-15 -106 11.5 -147t110.5 -41q87 0 129 43t57 150l59 421h101z" />
    <glyph glyph-name="Udieresis" unicode="&#xdc;" horiz-adv-x="664" 
d="M341 872q16 0 21.5 -6t3.5 -21l-9 -54q-3 -26 -29 -26h-32q-27 0 -24 25l9 55q4 27 31 27h29zM509 872q16 0 21 -6t3 -21l-9 -54q-1 -26 -28 -26h-32q-27 0 -24 25l8 55q4 27 32 27h29zM642 690l-61 -426q-21 -151 -86 -214t-196 -63q-135 0 -190 66t-34 216l58 421h101
l-60 -426q-15 -106 11.5 -147t110.5 -41q87 0 129 43t57 150l59 421h101z" />
    <glyph glyph-name="Yacute" unicode="&#xdd;" horiz-adv-x="571" 
d="M511 843l-213 -117l-28 45l196 147zM617 690l-291 -450l-34 -240h-101l35 242l-163 448h101l99 -285q14 -44 18 -80h9q13 41 40 83l178 282h109z" />
    <glyph glyph-name="Thorn" unicode="&#xde;" horiz-adv-x="591" 
d="M357 570q120 0 168.5 -49.5t30.5 -175.5t-71 -171.5t-168 -45.5q-79 0 -156 9l-19 -137h-100l97 690h100l-17 -122q37 2 135 2zM457 352q10 80 -10.5 106t-92.5 26q-105 0 -144 -1l-38 -269h133q76 1 108 29t44 109z" />
    <glyph glyph-name="germandbls" unicode="&#xdf;" horiz-adv-x="677" 
d="M552 247q44 -29 60 -56.5t10 -78.5q-10 -73 -56 -98t-140 -25q-73 0 -160 11l12 74q64 -4 129 -4q61 0 87 10.5t30 44.5q3 25 -7.5 38t-39.5 32l-96 61q-74 48 -64 114q3 22 12.5 39.5t30 34t36.5 26.5t49 29q41 25 58 44t20 43q4 30 -19 44t-100 14q-84 0 -117 -22.5
t-42 -88.5l-83 -589q-11 -73 -51 -108t-114 -35q-50 0 -115 8l15 72h75q47 0 67 15.5t27 62.5l65 454h-89l10 69l90 6l8 59q6 45 20.5 77t34 51t50.5 30t63.5 14.5t78.5 3.5q132 0 181.5 -31t38.5 -107q-6 -39 -27.5 -69t-74.5 -62q-8 -5 -28 -16t-28.5 -16.5t-21 -15
t-19 -19t-8.5 -20.5q-2 -12 4.5 -23t15 -17.5t30.5 -20.5z" />
    <glyph glyph-name="agrave" unicode="&#xe0;" horiz-adv-x="574" 
d="M378 591l-34 -44l-195 122l52 69zM289 501q119 0 239 -26l-68 -475h-76l5 91q-91 -103 -211 -103q-89 0 -120 58t-11 204q11 81 31 132.5t53 76.5t68 33.5t90 8.5zM198 72q46 0 90 25.5t100 78.5l34 242q-92 2 -103 2q-52 0 -79 -5t-47.5 -25.5t-30 -52.5t-18.5 -94
q-14 -109 -3.5 -140t57.5 -31z" />
    <glyph glyph-name="aacute" unicode="&#xe1;" horiz-adv-x="574" 
d="M500 664l-213 -117l-28 45l196 147zM289 501q119 0 239 -26l-68 -475h-76l5 91q-91 -103 -211 -103q-89 0 -120 58t-11 204q11 81 31 132.5t53 76.5t68 33.5t90 8.5zM198 72q46 0 90 25.5t100 78.5l34 242q-92 2 -103 2q-52 0 -79 -5t-47.5 -25.5t-30 -52.5t-18.5 -94
q-14 -109 -3.5 -140t57.5 -31z" />
    <glyph glyph-name="acircumflex" unicode="&#xe2;" horiz-adv-x="574" 
d="M338 648l-149 -98l-27 41l147 129h69l124 -135l-35 -38l-120 101h-9zM289 501q119 0 239 -26l-68 -475h-76l5 91q-91 -103 -211 -103q-89 0 -120 58t-11 204q11 81 31 132.5t53 76.5t68 33.5t90 8.5zM198 72q46 0 90 25.5t100 78.5l34 242q-92 2 -103 2q-52 0 -79 -5
t-47.5 -25.5t-30 -52.5t-18.5 -94q-14 -109 -3.5 -140t57.5 -31z" />
    <glyph glyph-name="atilde" unicode="&#xe3;" horiz-adv-x="574" 
d="M270 637q-28 3 -41.5 -10.5t-17.5 -44.5l-44 4q2 60 27.5 90.5t62.5 27.5q34 -3 76.5 -26.5t66.5 -26.5q29 -4 42.5 8.5t17.5 41.5l44 -4q-1 -58 -26 -88t-64 -27t-83 27.5t-61 27.5zM289 501q119 0 239 -26l-68 -475h-76l5 91q-91 -103 -211 -103q-89 0 -120 58t-11 204
q11 81 31 132.5t53 76.5t68 33.5t90 8.5zM198 72q46 0 90 25.5t100 78.5l34 242q-92 2 -103 2q-52 0 -79 -5t-47.5 -25.5t-30 -52.5t-18.5 -94q-14 -109 -3.5 -140t57.5 -31z" />
    <glyph glyph-name="adieresis" unicode="&#xe4;" horiz-adv-x="574" 
d="M228 586q-27 0 -24 25l9 55q4 27 31 27h29q16 0 21.5 -6t3.5 -21l-9 -54q-3 -26 -29 -26h-32zM396 586q-27 0 -24 25l8 55q4 27 32 27h29q16 0 21 -6t3 -21l-9 -54q-1 -26 -28 -26h-32zM289 501q119 0 239 -26l-68 -475h-76l5 91q-91 -103 -211 -103q-89 0 -120 58
t-11 204q11 81 31 132.5t53 76.5t68 33.5t90 8.5zM198 72q46 0 90 25.5t100 78.5l34 242q-92 2 -103 2q-52 0 -79 -5t-47.5 -25.5t-30 -52.5t-18.5 -94q-14 -109 -3.5 -140t57.5 -31z" />
    <glyph glyph-name="aring" unicode="&#xe5;" horiz-adv-x="574" 
d="M329 535q-45 0 -74 27t-29 71q0 50 32.5 82.5t82.5 32.5q46 0 75 -27t29 -71q0 -49 -32.5 -82t-83.5 -33zM340 700q-28 0 -44.5 -17.5t-16.5 -44.5q0 -25 13.5 -39.5t39.5 -14.5q25 0 42 18t17 44q0 25 -13.5 39.5t-37.5 14.5zM289 501q119 0 239 -26l-68 -475h-76l5 91
q-91 -103 -211 -103q-89 0 -120 58t-11 204q11 81 31 132.5t53 76.5t68 33.5t90 8.5zM198 72q46 0 90 25.5t100 78.5l34 242q-92 2 -103 2q-52 0 -79 -5t-47.5 -25.5t-30 -52.5t-18.5 -94q-14 -109 -3.5 -140t57.5 -31z" />
    <glyph glyph-name="ae" unicode="&#xe6;" horiz-adv-x="874" 
d="M651 501q114 0 154.5 -40t29.5 -118q-11 -71 -55 -102.5t-135 -38.5l-170 -15q0 -69 30 -93.5t93 -24.5q68 0 176 12l6 -65q-68 -28 -197 -28q-156 0 -194 105q-89 -105 -213 -105q-88 0 -119 59t-10 203q11 82 31 133t53 76.5t67.5 33.5t89.5 8q103 0 216 -22
q52 22 147 22zM196 72q45 0 87 23t93 72q-2 46 5 90q15 106 49 160q-24 0 -62.5 1.5t-49.5 1.5q-95 0 -125 -30.5t-46 -146.5q-15 -108 -5 -139.5t54 -31.5zM739 351q6 47 -15.5 58t-87.5 11q-76 0 -108 -31.5t-47 -129.5l163 15q46 3 67 19.5t28 57.5z" />
    <glyph glyph-name="ccedilla" unicode="&#xe7;" horiz-adv-x="486" 
d="M307 501q98 0 160 -26l-15 -60q-60 4 -130 4q-88 0 -126.5 -35.5t-51.5 -142.5t11.5 -139.5t107.5 -32.5q85 0 147 11l7 -66q-75 -26 -172 -26q-129 0 -175 60t-26 200q19 140 78 196.5t185 56.5zM177 -54q67 6 93.5 -8t17.5 -61q-10 -64 -62 -97t-125 -23l18 51
q38 -2 66.5 18t33.5 51q3 14 -6.5 18.5t-46.5 5.5z" />
    <glyph glyph-name="egrave" unicode="&#xe8;" horiz-adv-x="539" 
d="M373 591l-34 -44l-195 122l52 69zM315 501q114 0 155 -40t30 -118q-12 -71 -56 -102.5t-135 -38.5l-169 -15q0 -69 30 -93.5t93 -24.5q68 0 180 12l6 -65q-71 -28 -201 -28q-125 0 -173 65.5t-30 203.5q19 141 77.5 192.5t192.5 51.5zM403 351q6 47 -15.5 58t-87.5 11
q-76 0 -107.5 -31.5t-46.5 -129.5l163 15q46 3 67 19.5t27 57.5z" />
    <glyph glyph-name="eacute" unicode="&#xe9;" horiz-adv-x="539" 
d="M495 664l-213 -117l-28 45l196 147zM315 501q114 0 155 -40t30 -118q-12 -71 -56 -102.5t-135 -38.5l-169 -15q0 -69 30 -93.5t93 -24.5q68 0 180 12l6 -65q-71 -28 -201 -28q-125 0 -173 65.5t-30 203.5q19 141 77.5 192.5t192.5 51.5zM403 351q6 47 -15.5 58t-87.5 11
q-76 0 -107.5 -31.5t-46.5 -129.5l163 15q46 3 67 19.5t27 57.5z" />
    <glyph glyph-name="ecircumflex" unicode="&#xea;" horiz-adv-x="539" 
d="M333 648l-149 -98l-27 41l147 129h69l124 -135l-35 -38l-120 101h-9zM315 501q114 0 155 -40t30 -118q-12 -71 -56 -102.5t-135 -38.5l-169 -15q0 -69 30 -93.5t93 -24.5q68 0 180 12l6 -65q-71 -28 -201 -28q-125 0 -173 65.5t-30 203.5q19 141 77.5 192.5t192.5 51.5z
M403 351q6 47 -15.5 58t-87.5 11q-76 0 -107.5 -31.5t-46.5 -129.5l163 15q46 3 67 19.5t27 57.5z" />
    <glyph glyph-name="edieresis" unicode="&#xeb;" horiz-adv-x="539" 
d="M223 586q-27 0 -24 25l9 55q4 27 31 27h29q16 0 21.5 -6t3.5 -21l-9 -54q-3 -26 -29 -26h-32zM391 586q-27 0 -24 25l8 55q4 27 32 27h29q16 0 21 -6t3 -21l-9 -54q-1 -26 -28 -26h-32zM315 501q114 0 155 -40t30 -118q-12 -71 -56 -102.5t-135 -38.5l-169 -15
q0 -69 30 -93.5t93 -24.5q68 0 180 12l6 -65q-71 -28 -201 -28q-125 0 -173 65.5t-30 203.5q19 141 77.5 192.5t192.5 51.5zM403 351q6 47 -15.5 58t-87.5 11q-76 0 -107.5 -31.5t-46.5 -129.5l163 15q46 3 67 19.5t27 57.5z" />
    <glyph glyph-name="igrave" unicode="&#xec;" horiz-adv-x="252" 
d="M41 738l177 -147l-34 -44l-195 122zM202 488l-69 -488h-97l69 488h97z" />
    <glyph glyph-name="iacute" unicode="&#xed;" horiz-adv-x="252" 
d="M295 739l45 -75l-213 -117l-28 45zM202 488l-69 -488h-97l69 488h97z" />
    <glyph glyph-name="icircumflex" unicode="&#xee;" horiz-adv-x="252" 
d="M218 720l124 -135l-35 -38l-120 101h-9l-149 -98l-27 41l147 129h69zM202 488l-69 -488h-97l69 488h97z" />
    <glyph glyph-name="idieresis" unicode="&#xef;" horiz-adv-x="252" 
d="M113 693q16 0 21.5 -6t3.5 -21l-9 -54q-3 -26 -29 -26h-32q-27 0 -24 25l9 55q4 27 31 27h29zM281 693q16 0 21 -6t3 -21l-9 -54q-1 -26 -28 -26h-32q-27 0 -24 25l8 55q4 27 32 27h29zM202 488l-69 -488h-97l69 488h97z" />
    <glyph glyph-name="eth" unicode="&#xf0;" horiz-adv-x="557" 
d="M423 622q105 -103 74 -342q-19 -148 -78.5 -220.5t-187.5 -72.5q-115 0 -160.5 57.5t-29.5 177.5q29 227 225 227q88 0 139 -50q-1 118 -52 173l-86 -60l-26 37l74 53q-52 28 -148 26l15 70q125 5 203 -45l83 59l27 -39zM236 68q76 0 111.5 51t50.5 172q2 15 4 43
q-48 33 -113 33q-69 0 -102.5 -37t-45.5 -115q-11 -80 11 -113.5t84 -33.5z" />
    <glyph glyph-name="ntilde" unicode="&#xf1;" horiz-adv-x="580" 
d="M278 637q-28 3 -41.5 -10.5t-17.5 -44.5l-44 4q2 60 27.5 90.5t62.5 27.5q34 -3 76.5 -26.5t66.5 -26.5q29 -4 42.5 8.5t17.5 41.5l44 -4q-1 -58 -26 -88t-64 -27t-83 27.5t-61 27.5zM404 501q62 0 94 -35.5t22 -101.5l-52 -364h-96l47 340q6 46 -3.5 62.5t-41.5 16.5
q-41 0 -85.5 -25t-117.5 -82l-42 -312h-97l69 488h77l-5 -105q132 118 231 118z" />
    <glyph glyph-name="ograve" unicode="&#xf2;" horiz-adv-x="566" 
d="M196 738l177 -147l-34 -44l-195 122zM307 501q126 0 174 -60.5t28 -200.5q-19 -138 -79 -195.5t-183 -57.5q-125 0 -173.5 60.5t-29.5 199.5q19 138 78.5 196t184.5 58zM307 419q-77 0 -112.5 -37t-50.5 -142q-14 -101 7.5 -136.5t95.5 -35.5q78 0 113 38.5t49 140.5
q15 101 -6.5 136.5t-95.5 35.5z" />
    <glyph glyph-name="oacute" unicode="&#xf3;" horiz-adv-x="566" 
d="M450 739l45 -75l-213 -117l-28 45zM307 501q126 0 174 -60.5t28 -200.5q-19 -138 -79 -195.5t-183 -57.5q-125 0 -173.5 60.5t-29.5 199.5q19 138 78.5 196t184.5 58zM307 419q-77 0 -112.5 -37t-50.5 -142q-14 -101 7.5 -136.5t95.5 -35.5q78 0 113 38.5t49 140.5
q15 101 -6.5 136.5t-95.5 35.5z" />
    <glyph glyph-name="ocircumflex" unicode="&#xf4;" horiz-adv-x="566" 
d="M373 720l124 -135l-35 -38l-120 101h-9l-149 -98l-27 41l147 129h69zM307 501q126 0 174 -60.5t28 -200.5q-19 -138 -79 -195.5t-183 -57.5q-125 0 -173.5 60.5t-29.5 199.5q19 138 78.5 196t184.5 58zM307 419q-77 0 -112.5 -37t-50.5 -142q-14 -101 7.5 -136.5
t95.5 -35.5q78 0 113 38.5t49 140.5q15 101 -6.5 136.5t-95.5 35.5z" />
    <glyph glyph-name="otilde" unicode="&#xf5;" horiz-adv-x="566" 
d="M252 704q34 -3 76.5 -26.5t66.5 -26.5q29 -4 42.5 8.5t17.5 41.5l44 -4q-1 -58 -26 -88t-64 -27t-83 27.5t-61 27.5q-28 3 -41.5 -10.5t-17.5 -44.5l-44 4q2 60 27.5 90.5t62.5 27.5zM307 501q126 0 174 -60.5t28 -200.5q-19 -138 -79 -195.5t-183 -57.5
q-125 0 -173.5 60.5t-29.5 199.5q19 138 78.5 196t184.5 58zM307 419q-77 0 -112.5 -37t-50.5 -142q-14 -101 7.5 -136.5t95.5 -35.5q78 0 113 38.5t49 140.5q15 101 -6.5 136.5t-95.5 35.5z" />
    <glyph glyph-name="odieresis" unicode="&#xf6;" horiz-adv-x="566" 
d="M268 693q16 0 21.5 -6t3.5 -21l-9 -54q-3 -26 -29 -26h-32q-27 0 -24 25l9 55q4 27 31 27h29zM436 693q16 0 21 -6t3 -21l-9 -54q-1 -26 -28 -26h-32q-27 0 -24 25l8 55q4 27 32 27h29zM307 501q126 0 174 -60.5t28 -200.5q-19 -138 -79 -195.5t-183 -57.5
q-125 0 -173.5 60.5t-29.5 199.5q19 138 78.5 196t184.5 58zM307 419q-77 0 -112.5 -37t-50.5 -142q-14 -101 7.5 -136.5t95.5 -35.5q78 0 113 38.5t49 140.5q15 101 -6.5 136.5t-95.5 35.5z" />
    <glyph glyph-name="divide" unicode="&#xf7;" horiz-adv-x="563" 
d="M324 529q38 0 32 -37l-6 -47q-4 -32 -37 -32h-25q-39 0 -33 36l6 46q4 34 38 34h25zM508 331l-10 -72h-443l11 72h442zM273 176q40 0 34 -38l-7 -46q-4 -33 -38 -33h-25q-37 0 -31 38l6 45q4 34 36 34h25z" />
    <glyph glyph-name="oslash" unicode="&#xf8;" horiz-adv-x="566" 
d="M448 470q86 -54 61 -230q-19 -138 -79 -195.5t-183 -57.5q-49 0 -87 9l-45 -74l-41 24l41 67q-96 53 -71 234q19 138 78.5 196t184.5 58q54 0 96 -11l47 78l42 -25zM144 240q-16 -116 18 -149l195 323q-17 5 -50 5q-77 0 -112.5 -37t-50.5 -142zM409 247q16 107 -10 142
l-193 -318q18 -3 41 -3q78 0 113 38.5t49 140.5z" />
    <glyph glyph-name="ugrave" unicode="&#xf9;" horiz-adv-x="569" 
d="M379 595l-34 -44l-195 122l52 69zM427 488h96l-68 -488h-75l6 102q-119 -115 -222 -115q-66 0 -96 36.5t-21 99.5l51 365h97l-49 -340q-6 -43 6 -60.5t46 -17.5q41 0 81 24.5t106 84.5z" />
    <glyph glyph-name="uacute" unicode="&#xfa;" horiz-adv-x="569" 
d="M501 668l-213 -117l-28 45l196 147zM427 488h96l-68 -488h-75l6 102q-119 -115 -222 -115q-66 0 -96 36.5t-21 99.5l51 365h97l-49 -340q-6 -43 6 -60.5t46 -17.5q41 0 81 24.5t106 84.5z" />
    <glyph glyph-name="ucircumflex" unicode="&#xfb;" horiz-adv-x="569" 
d="M339 652l-149 -98l-27 41l147 129h69l124 -135l-35 -38l-120 101h-9zM427 488h96l-68 -488h-75l6 102q-119 -115 -222 -115q-66 0 -96 36.5t-21 99.5l51 365h97l-49 -340q-6 -43 6 -60.5t46 -17.5q41 0 81 24.5t106 84.5z" />
    <glyph glyph-name="udieresis" unicode="&#xfc;" horiz-adv-x="569" 
d="M229 590q-27 0 -24 25l9 55q4 27 31 27h29q16 0 21.5 -6t3.5 -21l-9 -54q-3 -26 -29 -26h-32zM397 590q-27 0 -24 25l8 55q4 27 32 27h29q16 0 21 -6t3 -21l-9 -54q-1 -26 -28 -26h-32zM427 488h96l-68 -488h-75l6 102q-119 -115 -222 -115q-66 0 -96 36.5t-21 99.5
l51 365h97l-49 -340q-6 -43 6 -60.5t46 -17.5q41 0 81 24.5t106 84.5z" />
    <glyph glyph-name="yacute" unicode="&#xfd;" horiz-adv-x="545" 
d="M469 664l-213 -117l-28 45l196 147zM430 488h101q-54 -238 -141 -403q-78 -148 -154.5 -210t-182.5 -80l-18 69q64 15 112 45t93 91h-46q-23 0 -39 12.5t-20 34.5l-94 441h102l74 -395q3 -17 20 -17h50q2 4 6 11.5t7 14t6 12.5q88 183 124 374z" />
    <glyph glyph-name="thorn" unicode="&#xfe;" horiz-adv-x="574" 
d="M386 500q83 0 116 -57.5t12 -204.5q-11 -82 -31 -133t-52 -76.5t-66 -33.5t-87 -8q-63 0 -150 12q-3 -31 -9 -68l-18 -130h-96l126 899h96l-24 -173q-9 -69 -21 -112l2 -6q89 91 202 91zM414 245q15 109 5 140t-55 31q-47 0 -91.5 -26t-100.5 -80l-33 -240q92 -2 103 -2
q96 0 126 30t46 147z" />
    <glyph glyph-name="ydieresis" unicode="&#xff;" horiz-adv-x="545" 
d="M197 586q-27 0 -24 25l9 55q4 27 31 27h29q16 0 21.5 -6t3.5 -21l-9 -54q-3 -26 -29 -26h-32zM365 586q-27 0 -24 25l8 55q4 27 32 27h29q16 0 21 -6t3 -21l-9 -54q-1 -26 -28 -26h-32zM430 488h101q-54 -238 -141 -403q-78 -148 -154.5 -210t-182.5 -80l-18 69
q64 15 112 45t93 91h-46q-23 0 -39 12.5t-20 34.5l-94 441h102l74 -395q3 -17 20 -17h50q2 4 6 11.5t7 14t6 12.5q88 183 124 374z" />
    <glyph glyph-name="Amacron" unicode="&#x100;" horiz-adv-x="623" 
d="M535 853l-10 -71h-283l10 71h283zM477 0l-34 208h-276l-93 -208h-106l310 665q10 25 39 25h102q13 0 22.5 -8.5t10.5 -20.5l125 -661h-100zM206 296h222l-43 259q-4 20 -8 60h-30l-26 -60z" />
    <glyph glyph-name="amacron" unicode="&#x101;" horiz-adv-x="574" 
d="M481 674l-10 -71h-283l10 71h283zM289 501q119 0 239 -26l-68 -475h-76l5 91q-91 -103 -211 -103q-89 0 -120 58t-11 204q11 81 31 132.5t53 76.5t68 33.5t90 8.5zM198 72q46 0 90 25.5t100 78.5l34 242q-92 2 -103 2q-52 0 -79 -5t-47.5 -25.5t-30 -52.5t-18.5 -94
q-14 -109 -3.5 -140t57.5 -31z" />
    <glyph glyph-name="Abreve" unicode="&#x102;" horiz-adv-x="623" 
d="M383 744q-76 0 -114 38.5t-25 98.5l49 3q-4 -33 19.5 -51t69.5 -18q51 0 82.5 19.5t36.5 53.5l48 -11q-5 -60 -50 -96.5t-116 -36.5zM477 0l-34 208h-276l-93 -208h-106l310 665q10 25 39 25h102q13 0 22.5 -8.5t10.5 -20.5l125 -661h-100zM206 296h222l-43 259
q-4 20 -8 60h-30l-26 -60z" />
    <glyph glyph-name="abreve" unicode="&#x103;" horiz-adv-x="574" 
d="M329 565q-76 0 -114 38.5t-25 98.5l49 3q-4 -33 19.5 -51t69.5 -18q51 0 82.5 19.5t36.5 53.5l48 -11q-5 -60 -50 -96.5t-116 -36.5zM289 501q119 0 239 -26l-68 -475h-76l5 91q-91 -103 -211 -103q-89 0 -120 58t-11 204q11 81 31 132.5t53 76.5t68 33.5t90 8.5zM198 72
q46 0 90 25.5t100 78.5l34 242q-92 2 -103 2q-52 0 -79 -5t-47.5 -25.5t-30 -52.5t-18.5 -94q-14 -109 -3.5 -140t57.5 -31z" />
    <glyph glyph-name="Aogonek" unicode="&#x104;" horiz-adv-x="623" 
d="M492 -115q-19 -33 -1 -43t65 6l12 -42q-40 -15 -71.5 -18.5t-50 4t-28.5 21.5t-8.5 33.5t12.5 41.5q30 57 106 112h-51l-34 208h-276l-93 -208h-106l310 665q10 25 39 25h102q13 0 22.5 -8.5t10.5 -20.5l125 -661q-48 -51 -85 -115zM206 296h222l-43 259q-4 20 -8 60h-30
l-26 -60z" />
    <glyph glyph-name="aogonek" unicode="&#x105;" horiz-adv-x="574" 
d="M460 0q-48 -51 -85 -115q-19 -33 -1 -43t65 6l12 -42q-40 -15 -71.5 -18.5t-50 4t-28.5 21.5t-8.5 33.5t12.5 41.5q30 57 106 112h-27l5 91q-91 -103 -211 -103q-89 0 -120 58t-11 204q11 81 31 132.5t53 76.5t68 33.5t90 8.5q119 0 239 -26zM198 72q46 0 90 25.5
t100 78.5l34 242q-92 2 -103 2q-52 0 -79 -5t-47.5 -25.5t-30 -52.5t-18.5 -94q-14 -109 -3.5 -140t57.5 -31z" />
    <glyph glyph-name="Cacute" unicode="&#x106;" horiz-adv-x="568" 
d="M513 918l45 -75l-213 -117l-28 45zM383 702q107 0 191 -21l-16 -76q-79 8 -177 8q-67 0 -105.5 -22t-64.5 -81t-41 -169q-22 -150 5 -206.5t120 -57.5q112 -1 199 11l5 -77q-83 -23 -206 -23q-149 0 -202 85.5t-25 275.5q27 196 97 274.5t220 78.5z" />
    <glyph glyph-name="cacute" unicode="&#x107;" horiz-adv-x="486" 
d="M432 739l45 -75l-213 -117l-28 45zM307 501q98 0 160 -26l-15 -60q-60 4 -130 4q-88 0 -126.5 -35.5t-51.5 -142.5t11.5 -139.5t107.5 -32.5q85 0 147 11l7 -66q-75 -26 -172 -26q-129 0 -175 60t-26 200q19 140 78 196.5t185 56.5z" />
    <glyph glyph-name="Ccircumflex" unicode="&#x108;" horiz-adv-x="568" 
d="M436 899l124 -135l-35 -38l-120 101h-9l-149 -98l-27 41l147 129h69zM383 702q107 0 191 -21l-16 -76q-79 8 -177 8q-67 0 -105.5 -22t-64.5 -81t-41 -169q-22 -150 5 -206.5t120 -57.5q112 -1 199 11l5 -77q-83 -23 -206 -23q-149 0 -202 85.5t-25 275.5
q27 196 97 274.5t220 78.5z" />
    <glyph glyph-name="ccircumflex" unicode="&#x109;" horiz-adv-x="486" 
d="M355 720l124 -135l-35 -38l-120 101h-9l-149 -98l-27 41l147 129h69zM307 501q98 0 160 -26l-15 -60q-60 4 -130 4q-88 0 -126.5 -35.5t-51.5 -142.5t11.5 -139.5t107.5 -32.5q85 0 147 11l7 -66q-75 -26 -172 -26q-129 0 -175 60t-26 200q19 140 78 196.5t185 56.5z" />
    <glyph glyph-name="Cdotaccent" unicode="&#x10a;" horiz-adv-x="568" 
d="M412 868q14 0 22 -8.5t6 -21.5l-8 -56q-4 -27 -30 -27h-31q-14 0 -21 8.5t-5 22.5l7 55q4 27 29 27h31zM383 702q107 0 191 -21l-16 -76q-79 8 -177 8q-67 0 -105.5 -22t-64.5 -81t-41 -169q-22 -150 5 -206.5t120 -57.5q112 -1 199 11l5 -77q-83 -23 -206 -23
q-149 0 -202 85.5t-25 275.5q27 196 97 274.5t220 78.5z" />
    <glyph glyph-name="cdotaccent" unicode="&#x10b;" horiz-adv-x="486" 
d="M331 689q14 0 22 -8.5t6 -21.5l-8 -56q-5 -27 -30 -27h-31q-14 0 -21 8.5t-5 22.5l7 55q4 27 29 27h31zM307 501q98 0 160 -26l-15 -60q-60 4 -130 4q-88 0 -126.5 -35.5t-51.5 -142.5t11.5 -139.5t107.5 -32.5q85 0 147 11l7 -66q-75 -26 -172 -26q-129 0 -175 60
t-26 200q19 140 78 196.5t185 56.5z" />
    <glyph glyph-name="Ccaron" unicode="&#x10c;" horiz-adv-x="568" 
d="M539 913l30 -41l-149 -129h-70l-117 135l39 35l112 -99h8zM383 702q107 0 191 -21l-16 -76q-79 8 -177 8q-67 0 -105.5 -22t-64.5 -81t-41 -169q-22 -150 5 -206.5t120 -57.5q112 -1 199 11l5 -77q-83 -23 -206 -23q-149 0 -202 85.5t-25 275.5q27 196 97 274.5t220 78.5
z" />
    <glyph glyph-name="ccaron" unicode="&#x10d;" horiz-adv-x="486" 
d="M458 734l30 -41l-149 -129h-70l-117 135l39 35l112 -99h8zM307 501q98 0 160 -26l-15 -60q-60 4 -130 4q-88 0 -126.5 -35.5t-51.5 -142.5t11.5 -139.5t107.5 -32.5q85 0 147 11l7 -66q-75 -26 -172 -26q-129 0 -175 60t-26 200q19 140 78 196.5t185 56.5z" />
    <glyph glyph-name="Dcaron" unicode="&#x10e;" horiz-adv-x="663" 
d="M416 743h-70l-117 135l39 35l112 -99h8l147 99l30 -41zM364 699q164 0 220 -79t28 -279q-11 -77 -25.5 -132t-36 -94t-46.5 -63t-62 -38t-76 -18.5t-95 -4.5q-96 0 -229 9l97 690q122 9 225 9zM508 349q10 68 11 112.5t-6.5 75.5t-27.5 46.5t-48.5 22t-74.5 6.5
q-38 0 -134 -2l-75 -530q86 -2 117 -2q81 0 124 20t70 77t44 174z" />
    <glyph glyph-name="dcaron" unicode="&#x10f;" horiz-adv-x="574" 
d="M444 581l17 119h97l-98 -700h-76l5 102q-104 -114 -221 -114q-77 0 -109 59.5t-12 202.5q12 81 31.5 132.5t51 76.5t64.5 33.5t84 8.5q70 0 159 -12q0 33 7 92zM677 699q16 0 22 -7t4 -25l-8 -58q-8 -59 -53 -137l-40 13q26 66 32 107q-13 -1 -20 6t-5 19l8 54
q3 17 10 22.5t26 5.5h24zM196 72q45 0 88.5 25t104.5 82l32 241q-45 1 -105 1q-50 0 -76.5 -5t-47 -25t-29.5 -53t-18 -95q-14 -104 -4 -137.5t55 -33.5z" />
    <glyph glyph-name="Dcroat" unicode="&#x110;" horiz-adv-x="663" 
d="M364 699q164 0 220 -79t28 -279q-11 -77 -25.5 -132t-36 -94t-46.5 -63t-62 -38t-76 -18.5t-95 -4.5q-96 0 -229 9l48 338h-63l7 55h63l42 297q122 9 225 9zM508 349q10 68 11 112.5t-6.5 75.5t-27.5 46.5t-48.5 22t-74.5 6.5q-38 0 -134 -2l-31 -217h149l-7 -55h-149
l-37 -258q86 -2 117 -2q81 0 124 20t70 77t44 174z" />
    <glyph glyph-name="dcroat" unicode="&#x111;" horiz-adv-x="574" 
d="M620 627l-7 -54h-73l-80 -573h-76l5 102q-104 -114 -221 -114q-77 0 -109 59.5t-12 202.5q12 81 31.5 132.5t51 76.5t64.5 33.5t84 8.5q70 0 159 -12q0 37 6 84h-143l7 54h144l10 73h97l-10 -73h72zM196 72q45 0 88.5 25t104.5 82l32 241q-45 1 -105 1q-50 0 -76.5 -5
t-47 -25t-29.5 -53t-18 -95q-14 -104 -4 -137.5t55 -33.5z" />
    <glyph glyph-name="Emacron" unicode="&#x112;" horiz-adv-x="560" 
d="M531 873l-10 -71h-283l10 71h283zM279 606q-32 0 -47.5 -14.5t-19.5 -50.5l-19 -140h291l-10 -77h-292l-24 -178q-4 -34 7.5 -48t44.5 -14h267l-2 -78q-86 -8 -277 -8q-80 0 -115.5 38.5t-26.5 106.5l59 427q8 58 47 90t105 32q207 0 297 -8l-13 -78h-272z" />
    <glyph glyph-name="emacron" unicode="&#x113;" horiz-adv-x="539" 
d="M476 674l-10 -71h-283l10 71h283zM315 501q114 0 155 -40t30 -118q-12 -71 -56 -102.5t-135 -38.5l-169 -15q0 -69 30 -93.5t93 -24.5q68 0 180 12l6 -65q-71 -28 -201 -28q-125 0 -173 65.5t-30 203.5q19 141 77.5 192.5t192.5 51.5zM403 351q6 47 -15.5 58t-87.5 11
q-76 0 -107.5 -31.5t-46.5 -129.5l163 15q46 3 67 19.5t27 57.5z" />
    <glyph glyph-name="Ebreve" unicode="&#x114;" horiz-adv-x="560" 
d="M379 764q-76 0 -114 38.5t-25 98.5l49 3q-4 -33 19.5 -51t69.5 -18q51 0 82.5 19.5t36.5 53.5l48 -11q-5 -60 -50 -96.5t-116 -36.5zM279 606q-32 0 -47.5 -14.5t-19.5 -50.5l-19 -140h291l-10 -77h-292l-24 -178q-4 -34 7.5 -48t44.5 -14h267l-2 -78q-86 -8 -277 -8
q-80 0 -115.5 38.5t-26.5 106.5l59 427q8 58 47 90t105 32q207 0 297 -8l-13 -78h-272z" />
    <glyph glyph-name="ebreve" unicode="&#x115;" horiz-adv-x="539" 
d="M324 565q-76 0 -114 38.5t-25 98.5l49 3q-4 -33 19.5 -51t69.5 -18q51 0 82.5 19.5t36.5 53.5l48 -11q-5 -60 -50 -96.5t-116 -36.5zM315 501q114 0 155 -40t30 -118q-12 -71 -56 -102.5t-135 -38.5l-169 -15q0 -69 30 -93.5t93 -24.5q68 0 180 12l6 -65
q-71 -28 -201 -28q-125 0 -173 65.5t-30 203.5q19 141 77.5 192.5t192.5 51.5zM403 351q6 47 -15.5 58t-87.5 11q-76 0 -107.5 -31.5t-46.5 -129.5l163 15q46 3 67 19.5t27 57.5z" />
    <glyph glyph-name="Edotaccent" unicode="&#x116;" horiz-adv-x="560" 
d="M363 775q-14 0 -21 8.5t-5 22.5l7 55q4 27 29 27h31q14 0 22 -8.5t6 -21.5l-8 -56q-4 -27 -30 -27h-31zM279 606q-32 0 -47.5 -14.5t-19.5 -50.5l-19 -140h291l-10 -77h-292l-24 -178q-4 -34 7.5 -48t44.5 -14h267l-2 -78q-86 -8 -277 -8q-80 0 -115.5 38.5t-26.5 106.5
l59 427q8 58 47 90t105 32q207 0 297 -8l-13 -78h-272z" />
    <glyph glyph-name="edotaccent" unicode="&#x117;" horiz-adv-x="539" 
d="M308 576q-14 0 -21 8.5t-5 22.5l7 55q4 27 29 27h31q14 0 22 -8.5t6 -21.5l-8 -56q-5 -27 -30 -27h-31zM315 501q114 0 155 -40t30 -118q-12 -71 -56 -102.5t-135 -38.5l-169 -15q0 -69 30 -93.5t93 -24.5q68 0 180 12l6 -65q-71 -28 -201 -28q-125 0 -173 65.5
t-30 203.5q19 141 77.5 192.5t192.5 51.5zM403 351q6 47 -15.5 58t-87.5 11q-76 0 -107.5 -31.5t-46.5 -129.5l163 15q46 3 67 19.5t27 57.5z" />
    <glyph glyph-name="Eogonek" unicode="&#x118;" horiz-adv-x="560" 
d="M279 606q-32 0 -47.5 -14.5t-19.5 -50.5l-19 -140h291l-10 -77h-292l-24 -178q-4 -34 7.5 -48t44.5 -14h267l-2 -78q-48 -51 -85 -115q-19 -33 -1 -43t65 6l12 -42q-40 -15 -71.5 -18.5t-50 4t-28.5 21.5t-8.5 33.5t12.5 41.5q28 54 100 108q-72 -4 -222 -4
q-80 0 -115.5 38.5t-26.5 106.5l59 427q8 58 47 90t105 32q207 0 297 -8l-13 -78h-272z" />
    <glyph glyph-name="eogonek" unicode="&#x119;" horiz-adv-x="539" 
d="M315 501q114 0 155 -40t30 -118q-12 -71 -56 -102.5t-135 -38.5l-169 -15q0 -69 30 -93.5t93 -24.5q68 0 180 12l6 -65l-7 -3q-43 -44 -81 -110q-19 -33 -1 -43t65 6l12 -42q-40 -15 -71.5 -18.5t-50 4t-28.5 21.5t-8.5 33.5t12.5 41.5q23 44 78 91q-54 -9 -121 -9
q-125 0 -173 65.5t-30 203.5q19 141 77.5 192.5t192.5 51.5zM403 351q6 47 -15.5 58t-87.5 11q-76 0 -107.5 -31.5t-46.5 -129.5l163 15q46 3 67 19.5t27 57.5z" />
    <glyph glyph-name="Ecaron" unicode="&#x11a;" horiz-adv-x="560" 
d="M412 763h-70l-117 135l39 35l112 -99h8l147 99l30 -41zM279 606q-32 0 -47.5 -14.5t-19.5 -50.5l-19 -140h291l-10 -77h-292l-24 -178q-4 -34 7.5 -48t44.5 -14h267l-2 -78q-86 -8 -277 -8q-80 0 -115.5 38.5t-26.5 106.5l59 427q8 58 47 90t105 32q207 0 297 -8l-13 -78
h-272z" />
    <glyph glyph-name="ecaron" unicode="&#x11b;" horiz-adv-x="539" 
d="M357 564h-70l-117 135l39 35l112 -99h8l147 99l30 -41zM315 501q114 0 155 -40t30 -118q-12 -71 -56 -102.5t-135 -38.5l-169 -15q0 -69 30 -93.5t93 -24.5q68 0 180 12l6 -65q-71 -28 -201 -28q-125 0 -173 65.5t-30 203.5q19 141 77.5 192.5t192.5 51.5zM403 351
q6 47 -15.5 58t-87.5 11q-76 0 -107.5 -31.5t-46.5 -129.5l163 15q46 3 67 19.5t27 57.5z" />
    <glyph glyph-name="Gcircumflex" unicode="&#x11c;" horiz-adv-x="624" 
d="M404 827l-149 -98l-27 41l147 129h69l124 -135l-35 -38l-120 101h-9zM409 614q-62 0 -99.5 -10t-67 -40.5t-45.5 -83t-27 -139.5q-17 -148 4.5 -207t93.5 -59q49 0 88 23t93 77l31 225h96l-56 -400h-72v93q-90 -106 -215 -106q-105 0 -146.5 87t-21.5 275
q14 108 40.5 178.5t70 108.5t95.5 52.5t126 14.5q113 0 198 -22l-15 -75q-84 8 -171 8z" />
    <glyph glyph-name="gcircumflex" unicode="&#x11d;" horiz-adv-x="576" 
d="M348 648l-149 -98l-27 41l147 129h69l124 -135l-35 -38l-120 101h-9zM528 475h2l-66 -463q-26 -218 -289 -221q-102 0 -162 19l10 64q79 -2 155 -1q165 2 188 119q17 85 42 122q-41 -56 -101.5 -91t-131.5 -35q-82 0 -115 58t-12 204q12 82 32 133.5t52 76.5t64.5 33
t83.5 8q128 0 248 -26zM199 72q46 0 90.5 25.5t99.5 79.5l35 241q-92 2 -106 2q-95 0 -125.5 -30.5t-46.5 -146.5q-14 -107 -3.5 -139t56.5 -32z" />
    <glyph glyph-name="Gbreve" unicode="&#x11e;" horiz-adv-x="624" 
d="M395 744q-76 0 -114 38.5t-25 98.5l49 3q-4 -33 19.5 -51t69.5 -18q51 0 82.5 19.5t36.5 53.5l48 -11q-5 -60 -50 -96.5t-116 -36.5zM409 614q-62 0 -99.5 -10t-67 -40.5t-45.5 -83t-27 -139.5q-17 -148 4.5 -207t93.5 -59q49 0 88 23t93 77l31 225h96l-56 -400h-72v93
q-90 -106 -215 -106q-105 0 -146.5 87t-21.5 275q14 108 40.5 178.5t70 108.5t95.5 52.5t126 14.5q113 0 198 -22l-15 -75q-84 8 -171 8z" />
    <glyph glyph-name="gbreve" unicode="&#x11f;" horiz-adv-x="576" 
d="M339 565q-76 0 -114 38.5t-25 98.5l49 3q-4 -33 19.5 -51t69.5 -18q51 0 82.5 19.5t36.5 53.5l48 -11q-5 -60 -50 -96.5t-116 -36.5zM528 475h2l-66 -463q-26 -218 -289 -221q-102 0 -162 19l10 64q79 -2 155 -1q165 2 188 119q17 85 42 122q-41 -56 -101.5 -91
t-131.5 -35q-82 0 -115 58t-12 204q12 82 32 133.5t52 76.5t64.5 33t83.5 8q128 0 248 -26zM199 72q46 0 90.5 25.5t99.5 79.5l35 241q-92 2 -106 2q-95 0 -125.5 -30.5t-46.5 -146.5q-14 -107 -3.5 -139t56.5 -32z" />
    <glyph glyph-name="Gdotaccent" unicode="&#x120;" horiz-adv-x="624" 
d="M379 755q-14 0 -21 8.5t-5 22.5l7 55q4 27 29 27h31q14 0 22 -8.5t6 -21.5l-8 -56q-4 -27 -30 -27h-31zM409 614q-62 0 -99.5 -10t-67 -40.5t-45.5 -83t-27 -139.5q-17 -148 4.5 -207t93.5 -59q49 0 88 23t93 77l31 225h96l-56 -400h-72v93q-90 -106 -215 -106
q-105 0 -146.5 87t-21.5 275q14 108 40.5 178.5t70 108.5t95.5 52.5t126 14.5q113 0 198 -22l-15 -75q-84 8 -171 8z" />
    <glyph glyph-name="gdotaccent" unicode="&#x121;" horiz-adv-x="576" 
d="M323 576q-14 0 -21 8.5t-5 22.5l7 55q4 27 29 27h31q14 0 22 -8.5t6 -21.5l-8 -56q-4 -27 -30 -27h-31zM528 475h2l-66 -463q-26 -218 -289 -221q-102 0 -162 19l10 64q79 -2 155 -1q165 2 188 119q17 85 42 122q-41 -56 -101.5 -91t-131.5 -35q-82 0 -115 58t-12 204
q12 82 32 133.5t52 76.5t64.5 33t83.5 8q128 0 248 -26zM199 72q46 0 90.5 25.5t99.5 79.5l35 241q-92 2 -106 2q-95 0 -125.5 -30.5t-46.5 -146.5q-14 -107 -3.5 -139t56.5 -32z" />
    <glyph glyph-name="Gcommaaccent" unicode="&#x122;" horiz-adv-x="624" 
d="M409 614q-62 0 -99.5 -10t-67 -40.5t-45.5 -83t-27 -139.5q-17 -148 4.5 -207t93.5 -59q49 0 88 23t93 77l31 225h96l-56 -400h-72v93q-90 -106 -215 -106q-105 0 -146.5 87t-21.5 275q14 108 40.5 178.5t70 108.5t95.5 52.5t126 14.5q113 0 198 -22l-15 -75
q-84 8 -171 8zM304 -58q34 0 28 -31l-8 -54q-7 -59 -53 -135l-43 13q23 66 30 104q-14 -1 -21 6t-6 20l8 49q3 17 11 22.5t29 5.5h25z" />
    <glyph glyph-name="gcommaaccent" unicode="&#x123;" horiz-adv-x="576" 
d="M311 556q-34 0 -28 31l8 54q7 59 53 135l43 -13q-23 -66 -30 -104q14 1 21 -6t6 -20l-8 -49q-3 -17 -11 -22.5t-29 -5.5h-25zM528 475h2l-66 -463q-26 -218 -289 -221q-102 0 -162 19l10 64q79 -2 155 -1q165 2 188 119q17 85 42 122q-41 -56 -101.5 -91t-131.5 -35
q-82 0 -115 58t-12 204q12 82 32 133.5t52 76.5t64.5 33t83.5 8q128 0 248 -26zM199 72q46 0 90.5 25.5t99.5 79.5l35 241q-92 2 -106 2q-95 0 -125.5 -30.5t-46.5 -146.5q-14 -107 -3.5 -139t56.5 -32z" />
    <glyph glyph-name="Hcircumflex" unicode="&#x124;" horiz-adv-x="668" 
d="M396 827l-149 -98l-27 41l147 129h69l124 -135l-35 -38l-120 101h-9zM541 690h100l-97 -690h-100l46 324h-301l-46 -324h-101l97 690h101l-39 -279h301z" />
    <glyph glyph-name="hcircumflex" unicode="&#x125;" horiz-adv-x="580" 
d="M196 814l-149 -98l-27 41l147 129h69l124 -135l-35 -38l-120 101h-9zM404 501q62 0 94 -35.5t22 -101.5l-52 -364h-96l47 340q6 46 -3.5 62.5t-41.5 16.5q-42 0 -86 -25t-117 -83l-42 -311h-97l99 700h96l-25 -192q-9 -61 -23 -120q127 113 225 113z" />
    <glyph glyph-name="Hbar" unicode="&#x126;" horiz-adv-x="668" 
d="M696 570l-6 -52h-73l-73 -518h-100l46 324h-301l-46 -324h-101l73 518h-65l7 52h65l17 120h101l-17 -120h301l17 120h100l-17 -120h72zM502 411l15 107h-301l-15 -107h301z" />
    <glyph glyph-name="hbar" unicode="&#x127;" horiz-adv-x="580" 
d="M404 501q62 0 94 -35.5t22 -101.5l-52 -364h-96l47 340q6 46 -3.5 62.5t-41.5 16.5q-42 0 -86 -25t-117 -83l-42 -311h-97l81 573h-69l7 54h70l10 73h96l-10 -73h145l-7 -54h-145l-8 -65q-9 -61 -23 -120q127 113 225 113z" />
    <glyph glyph-name="Itilde" unicode="&#x128;" horiz-adv-x="267" 
d="M129 883q34 -3 76.5 -26.5t66.5 -26.5q29 -4 42.5 8.5t17.5 41.5l44 -4q-1 -58 -26 -88t-64 -27t-83 27.5t-61 27.5q-28 3 -41.5 -10.5t-17.5 -44.5l-44 4q2 60 27.5 90.5t62.5 27.5zM240 690l-97 -690h-101l97 690h101z" />
    <glyph glyph-name="itilde" unicode="&#x129;" horiz-adv-x="252" 
d="M97 704q34 -3 76.5 -26.5t66.5 -26.5q29 -4 42.5 8.5t17.5 41.5l44 -4q-1 -58 -26 -88t-64 -27t-83 27.5t-61 27.5q-28 3 -41.5 -10.5t-17.5 -44.5l-44 4q2 60 27.5 90.5t62.5 27.5zM202 488l-69 -488h-97l69 488h97z" />
    <glyph glyph-name="Imacron" unicode="&#x12a;" horiz-adv-x="267" 
d="M353 853l-10 -71h-283l10 71h283zM240 690l-97 -690h-101l97 690h101z" />
    <glyph glyph-name="imacron" unicode="&#x12b;" horiz-adv-x="252" 
d="M321 674l-10 -71h-283l10 71h283zM202 488l-69 -488h-97l69 488h97z" />
    <glyph glyph-name="Ibreve" unicode="&#x12c;" horiz-adv-x="267" 
d="M319 888l48 -11q-5 -60 -50 -96.5t-116 -36.5q-76 0 -114 38.5t-25 98.5l49 3q-4 -33 19.5 -51t69.5 -18q51 0 82.5 19.5t36.5 53.5zM240 690l-97 -690h-101l97 690h101z" />
    <glyph glyph-name="ibreve" unicode="&#x12d;" horiz-adv-x="252" 
d="M287 709l48 -11q-5 -60 -50 -96.5t-116 -36.5q-76 0 -114 38.5t-25 98.5l49 3q-4 -33 19.5 -51t69.5 -18q51 0 82.5 19.5t36.5 53.5zM202 488l-69 -488h-97l69 488h97z" />
    <glyph glyph-name="Iogonek" unicode="&#x12e;" horiz-adv-x="267" 
d="M139 690h101l-97 -690h-12q-48 -51 -85 -115q-19 -33 -1 -43t65 6l12 -42q-40 -15 -71.5 -18.5t-50 4t-28.5 21.5t-8.5 33.5t12.5 41.5q30 57 106 112h-40z" />
    <glyph glyph-name="iogonek" unicode="&#x12f;" horiz-adv-x="252" 
d="M194 689q14 0 22 -8.5t6 -21.5l-8 -56q-4 -27 -30 -27h-31q-14 0 -21 8.5t-5 22.5l7 55q4 27 29 27h31zM36 0l69 488h97l-69 -488h-8q-48 -51 -85 -115q-19 -33 -1 -43t65 6l12 -42q-40 -15 -71.5 -18.5t-50 4t-28.5 21.5t-8.5 33.5t12.5 41.5q30 57 106 112h-40z" />
    <glyph glyph-name="Idotaccent" unicode="&#x130;" horiz-adv-x="267" 
d="M226 868q14 0 22 -8.5t6 -21.5l-8 -56q-4 -27 -30 -27h-31q-14 0 -21 8.5t-5 22.5l7 55q4 27 29 27h31zM240 690l-97 -690h-101l97 690h101z" />
    <glyph glyph-name="dotlessi" unicode="&#x131;" horiz-adv-x="252" 
d="M202 488l-69 -488h-97l69 488h97z" />
    <glyph glyph-name="IJ" unicode="&#x132;" horiz-adv-x="609" 
d="M240 690l-97 -690h-101l97 690h101zM585 690l-76 -541q-11 -78 -50.5 -118.5t-102.5 -39.5q-60 0 -99 14l19 71h46q76 0 87 72l75 542h101z" />
    <glyph glyph-name="ij" unicode="&#x133;" horiz-adv-x="502" 
d="M203 696q14 0 21 -8t5 -22l-7 -56q-4 -27 -30 -27h-46q-30 0 -27 31l9 56q2 26 29 26h46zM454 696q14 0 21 -8t5 -22l-7 -56q-4 -27 -30 -27h-46q-30 0 -27 31l9 56q2 26 29 26h46zM201 488l-68 -488h-96l68 488h96zM452 488l-70 -496q-7 -60 -39.5 -111.5t-82.5 -83.5
l-53 45q67 68 79 155l70 491h96z" />
    <glyph glyph-name="Jcircumflex" unicode="&#x134;" horiz-adv-x="342" 
d="M323 899l124 -135l-35 -38l-120 101h-9l-149 -98l-27 41l147 129h69zM318 690l-76 -541q-11 -78 -50.5 -118.5t-102.5 -39.5q-61 0 -99 14l19 71h46q76 0 87 72l75 542h101z" />
    <glyph glyph-name="jcircumflex" unicode="&#x135;" horiz-adv-x="251" 
d="M210 720l124 -135l-35 -38l-120 101h-9l-149 -98l-27 41l147 129h69zM201 488l-70 -496q-7 -60 -39.5 -111.5t-82.5 -83.5l-53 45q67 68 79 155l70 491h96z" />
    <glyph glyph-name="Kcommaaccent" unicode="&#x136;" horiz-adv-x="599" 
d="M343 356q19 -24 35 -55l165 -301h-113l-171 319h-79q0 -41 -4 -73l-34 -246h-100l97 690h100l-31 -213q-6 -42 -16 -77h75l239 290h121l-234 -284q-23 -28 -49 -46zM288 -58q34 0 28 -31l-8 -54q-7 -59 -53 -135l-43 13q23 66 30 104q-14 -1 -21 6t-6 20l8 49
q3 17 11 22.5t29 5.5h25z" />
    <glyph glyph-name="kcommaaccent" unicode="&#x137;" horiz-adv-x="527" 
d="M343 270q16 -24 30 -57l95 -213h-104l-94 225q-45 -24 -116 -56l-25 -169h-96l98 700h97l-44 -328q-6 -54 -32 -120q216 104 254 236h99q-41 -131 -162 -218zM263 -58q34 0 28 -31l-8 -54q-7 -59 -53 -135l-43 13q23 66 30 104q-14 -1 -21 6t-6 20l8 49q3 17 11 22.5
t29 5.5h25z" />
    <glyph glyph-name="kgreenlandic" unicode="&#x138;" horiz-adv-x="527" 
d="M342 264q14 -21 31 -59l91 -205h-104l-91 218q-56 -30 -116 -57l-24 -161h-96l70 488h97l-17 -124q-6 -51 -31 -119q93 46 164 109t93 134h99q-42 -135 -166 -224z" />
    <glyph glyph-name="Lacute" unicode="&#x139;" horiz-adv-x="511" 
d="M327 918l45 -75l-213 -117l-28 45zM237 690l-76 -544q-8 -62 52 -62h246l-2 -78q-86 -8 -265 -8q-70 0 -105 38.5t-25 112.5l74 541h101z" />
    <glyph glyph-name="lacute" unicode="&#x13a;" horiz-adv-x="298" 
d="M323 939l45 -75l-213 -117l-28 45zM228 700l-79 -561q-5 -33 7 -46.5t46 -13.5h46l4 -76q-27 -12 -93 -12q-58 0 -87.5 34t-21.5 96l82 579h96z" />
    <glyph glyph-name="Lcommaaccent" unicode="&#x13b;" horiz-adv-x="511" 
d="M237 690l-76 -544q-8 -62 52 -62h246l-2 -78q-86 -8 -265 -8q-70 0 -105 38.5t-25 112.5l74 541h101zM278 -59q34 0 28 -31l-8 -54q-7 -59 -53 -135l-43 13q23 66 30 104q-14 -1 -21 6t-6 20l8 49q3 17 11 22.5t29 5.5h25z" />
    <glyph glyph-name="lcommaaccent" unicode="&#x13c;" horiz-adv-x="298" 
d="M228 700l-79 -561q-5 -33 7 -46.5t46 -13.5h46l4 -76q-27 -12 -93 -12q-58 0 -87.5 34t-21.5 96l82 579h96zM153 -59q34 0 28 -31l-8 -54q-7 -59 -53 -135l-43 13q23 66 30 104q-14 -1 -21 6t-6 20l8 49q3 17 11 22.5t29 5.5h25z" />
    <glyph glyph-name="Lcaron" unicode="&#x13d;" horiz-adv-x="511" 
d="M237 690l-76 -544q-8 -62 52 -62h246l-2 -78q-86 -8 -265 -8q-70 0 -105 38.5t-25 112.5l74 541h101zM404 690q16 0 22 -7t4 -25l-8 -58q-8 -59 -53 -137l-40 13q26 66 32 107q-13 -1 -20 6t-5 19l8 54q3 17 10 22.5t26 5.5h24z" />
    <glyph glyph-name="lcaron" unicode="&#x13e;" horiz-adv-x="298" 
d="M228 700l-79 -561q-5 -33 7 -46.5t46 -13.5h46l4 -76q-27 -12 -93 -12q-58 0 -87.5 34t-21.5 96l82 579h96zM345 699q34 0 28 -31l-8 -54q-7 -59 -53 -135l-43 13q23 66 30 104q-14 -1 -21 6t-6 20l8 49q3 17 11 22.5t29 5.5h25z" />
    <glyph glyph-name="Ldot" unicode="&#x13f;" horiz-adv-x="511" 
d="M237 690l-76 -544q-8 -62 52 -62h246l-2 -78q-86 -8 -265 -8q-70 0 -105 38.5t-25 112.5l74 541h101zM236 -135q-14 0 -22 8.5t-6 21.5l8 56q4 27 30 27h31q14 0 21 -8.5t5 -22.5l-7 -55q-4 -27 -29 -27h-31z" />
    <glyph glyph-name="ldot" unicode="&#x140;" horiz-adv-x="343" 
d="M228 700l-79 -561q-5 -33 7 -46.5t46 -13.5h46l4 -76q-27 -12 -93 -12q-58 0 -87.5 34t-21.5 96l82 579h96zM289 317q-14 0 -22 8.5t-6 21.5l8 56q5 27 30 27h31q14 0 21 -8.5t5 -22.5l-7 -55q-4 -27 -29 -27h-31z" />
    <glyph glyph-name="Lslash" unicode="&#x141;" horiz-adv-x="510" 
d="M212 84h246l-2 -78q-86 -8 -265 -8q-70 0 -105 38.5t-25 112.5l24 179l-65 -26l6 60l68 27l41 301h101l-36 -260l124 49l-6 -60l-127 -50l-31 -223q-8 -62 52 -62z" />
    <glyph glyph-name="lslash" unicode="&#x142;" horiz-adv-x="301" 
d="M181 368l-32 -229q-5 -33 7 -46.5t46 -13.5h46l4 -76q-27 -12 -93 -12q-58 0 -87.5 34t-21.5 96l29 207l-67 -26l8 60l68 27l44 311h96l-38 -272l129 51l-9 -60z" />
    <glyph glyph-name="Nacute" unicode="&#x143;" horiz-adv-x="706" 
d="M554 918l45 -75l-213 -117l-28 45zM679 690l-92 -653q-6 -37 -40 -37h-87q-28 0 -39 33l-161 470q-19 54 -27 94h-15q-1 -42 -8 -94l-68 -503h-100l91 653q6 37 42 37h85q27 0 40 -33l155 -457q31 -99 32 -104h17q3 57 10 104l66 490h99z" />
    <glyph glyph-name="nacute" unicode="&#x144;" horiz-adv-x="580" 
d="M508 664l-213 -117l-28 45l196 147zM404 501q62 0 94 -35.5t22 -101.5l-52 -364h-96l47 340q6 46 -3.5 62.5t-41.5 16.5q-41 0 -85.5 -25t-117.5 -82l-42 -312h-97l69 488h77l-5 -105q132 118 231 118z" />
    <glyph glyph-name="Ncommaaccent" unicode="&#x145;" horiz-adv-x="706" 
d="M679 690l-92 -653q-6 -37 -40 -37h-87q-28 0 -39 33l-161 470q-19 54 -27 94h-15q-1 -42 -8 -94l-68 -503h-100l91 653q6 37 42 37h85q27 0 40 -33l155 -457q31 -99 32 -104h17q3 57 10 104l66 490h99zM340 -58q34 0 28 -31l-8 -54q-7 -59 -53 -135l-43 13q23 66 30 104
q-14 -1 -21 6t-6 20l8 49q3 17 11 22.5t29 5.5h25z" />
    <glyph glyph-name="ncommaaccent" unicode="&#x146;" horiz-adv-x="580" 
d="M404 501q62 0 94 -35.5t22 -101.5l-52 -364h-96l47 340q6 46 -3.5 62.5t-41.5 16.5q-41 0 -85.5 -25t-117.5 -82l-42 -312h-97l69 488h77l-5 -105q132 118 231 118zM267 -58q34 0 28 -31l-8 -54q-7 -59 -53 -135l-43 13q23 66 30 104q-14 -1 -21 6t-6 20l8 49
q3 17 11 22.5t29 5.5h25z" />
    <glyph glyph-name="Ncaron" unicode="&#x147;" horiz-adv-x="706" 
d="M580 913l30 -41l-149 -129h-70l-117 135l39 35l112 -99h8zM679 690l-92 -653q-6 -37 -40 -37h-87q-28 0 -39 33l-161 470q-19 54 -27 94h-15q-1 -42 -8 -94l-68 -503h-100l91 653q6 37 42 37h85q27 0 40 -33l155 -457q31 -99 32 -104h17q3 57 10 104l66 490h99z" />
    <glyph glyph-name="ncaron" unicode="&#x148;" horiz-adv-x="580" 
d="M370 564h-70l-117 135l39 35l112 -99h8l147 99l30 -41zM404 501q62 0 94 -35.5t22 -101.5l-52 -364h-96l47 340q6 46 -3.5 62.5t-41.5 16.5q-41 0 -85.5 -25t-117.5 -82l-42 -312h-97l69 488h77l-5 -105q132 118 231 118z" />
    <glyph glyph-name="Eng" unicode="&#x14a;" horiz-adv-x="706" 
d="M679 690l-108 -767q-10 -67 -50 -103t-100 -35q-55 0 -95 15l17 62h46q80 0 90 73l10 66l-28 -1q-5 0 -9 2t-7.5 7.5t-4.5 8.5t-5 11l-176 456q-17 43 -25 96h-15q-1 -42 -10 -98l-67 -483h-100l91 653q6 37 42 37h73q27 0 40 -33l166 -440q23 -62 35 -104h14
q1 47 10 108l66 469h100z" />
    <glyph glyph-name="eng" unicode="&#x14b;" horiz-adv-x="580" 
d="M401 501q67 0 97.5 -35.5t21.5 -101.5l-58 -413q-21 -155 -145 -155q-52 0 -91 15l17 61h39q36 0 56 16.5t26 57.5l55 394q6 40 -4 56t-44 16q-39 0 -84.5 -25t-114.5 -76l-43 -311h-97l69 488h74l-3 -106q128 119 229 119z" />
    <glyph glyph-name="Omacron" unicode="&#x14c;" 
d="M549 853l-10 -71h-283l10 71h283zM387 703q147 0 202 -82.5t27 -279.5q-27 -199 -97.5 -276.5t-219.5 -77.5q-147 0 -203.5 81.5t-29.5 280.5q26 196 97 275t224 79zM382 614q-100 0 -144.5 -57.5t-67.5 -215.5q-21 -152 6.5 -208.5t124.5 -56.5q98 0 143.5 58.5
t67.5 214.5q22 155 -5.5 210t-124.5 55z" />
    <glyph glyph-name="omacron" unicode="&#x14d;" horiz-adv-x="566" 
d="M476 674l-10 -71h-283l10 71h283zM307 501q126 0 174 -60.5t28 -200.5q-19 -138 -79 -195.5t-183 -57.5q-125 0 -173.5 60.5t-29.5 199.5q19 138 78.5 196t184.5 58zM307 419q-77 0 -112.5 -37t-50.5 -142q-14 -101 7.5 -136.5t95.5 -35.5q78 0 113 38.5t49 140.5
q15 101 -6.5 136.5t-95.5 35.5z" />
    <glyph glyph-name="Obreve" unicode="&#x14e;" 
d="M515 888l48 -11q-5 -60 -50 -96.5t-116 -36.5q-76 0 -114 38.5t-25 98.5l49 3q-4 -33 19.5 -51t69.5 -18q51 0 82.5 19.5t36.5 53.5zM387 703q147 0 202 -82.5t27 -279.5q-27 -199 -97.5 -276.5t-219.5 -77.5q-147 0 -203.5 81.5t-29.5 280.5q26 196 97 275t224 79z
M382 614q-100 0 -144.5 -57.5t-67.5 -215.5q-21 -152 6.5 -208.5t124.5 -56.5q98 0 143.5 58.5t67.5 214.5q22 155 -5.5 210t-124.5 55z" />
    <glyph glyph-name="obreve" unicode="&#x14f;" horiz-adv-x="566" 
d="M442 709l48 -11q-5 -60 -50 -96.5t-116 -36.5q-76 0 -114 38.5t-25 98.5l49 3q-4 -33 19.5 -51t69.5 -18q51 0 82.5 19.5t36.5 53.5zM307 501q126 0 174 -60.5t28 -200.5q-19 -138 -79 -195.5t-183 -57.5q-125 0 -173.5 60.5t-29.5 199.5q19 138 78.5 196t184.5 58z
M307 419q-77 0 -112.5 -37t-50.5 -142q-14 -101 7.5 -136.5t95.5 -35.5q78 0 113 38.5t49 140.5q15 101 -6.5 136.5t-95.5 35.5z" />
    <glyph glyph-name="Ohungarumlaut" unicode="&#x150;" 
d="M394 923l59 -43l-158 -160l-40 32zM563 923l59 -43l-159 -160l-39 32zM387 703q147 0 202 -82.5t27 -279.5q-27 -199 -97.5 -276.5t-219.5 -77.5q-147 0 -203.5 81.5t-29.5 280.5q26 196 97 275t224 79zM382 614q-100 0 -144.5 -57.5t-67.5 -215.5q-21 -152 6.5 -208.5
t124.5 -56.5q98 0 143.5 58.5t67.5 214.5q22 155 -5.5 210t-124.5 55z" />
    <glyph glyph-name="ohungarumlaut" unicode="&#x151;" horiz-adv-x="566" 
d="M321 744l59 -43l-158 -160l-40 32zM490 744l59 -43l-159 -160l-39 32zM307 501q126 0 174 -60.5t28 -200.5q-19 -138 -79 -195.5t-183 -57.5q-125 0 -173.5 60.5t-29.5 199.5q19 138 78.5 196t184.5 58zM307 419q-77 0 -112.5 -37t-50.5 -142q-14 -101 7.5 -136.5
t95.5 -35.5q78 0 113 38.5t49 140.5q15 101 -6.5 136.5t-95.5 35.5z" />
    <glyph glyph-name="OE" unicode="&#x152;" horiz-adv-x="925" 
d="M646 606q-32 0 -47.5 -14.5t-19.5 -50.5l-19 -139h289l-10 -79h-290l-24 -177q-4 -34 7.5 -48t45.5 -14h264l-2 -78q-85 -8 -274 -8q-63 0 -99 24q-77 -35 -170 -35q-157 0 -208.5 79.5t-22.5 282.5q28 201 97.5 277.5t222.5 76.5q91 0 164 -30q35 19 84 19q206 0 295 -8
l-13 -78h-270zM170 341q-22 -151 5.5 -208t123.5 -57q62 0 124 16q-3 26 1 51l59 427q4 22 8 32q-51 12 -106 12q-100 0 -146.5 -59t-68.5 -214z" />
    <glyph glyph-name="oe" unicode="&#x153;" horiz-adv-x="903" 
d="M680 501q114 0 155 -40t30 -118q-12 -71 -56 -102.5t-134 -38.5l-170 -15q0 -69 30 -93.5t94 -24.5q68 0 174 12l7 -65q-68 -28 -197 -28q-125 0 -174 66q-60 -67 -192 -67q-125 0 -174 60.5t-30 199.5q20 139 79.5 196.5t184.5 57.5q124 0 173 -59q58 59 200 59zM247 68
q77 0 112.5 38.5t49.5 140.5q15 101 -6.5 136.5t-95.5 35.5q-77 0 -112.5 -37t-50.5 -142q-14 -100 7.5 -136t95.5 -36zM769 351q2 20 -1 33t-8.5 20t-22.5 10.5t-30 4t-42 0.5q-76 0 -107 -30.5t-46 -126.5q0 -2 -1 -3l163 15q46 3 67 19.5t28 57.5z" />
    <glyph glyph-name="Racute" unicode="&#x154;" horiz-adv-x="621" 
d="M553 843l-213 -117l-28 45l196 147zM580 495q-11 -79 -47 -121t-107 -51l-1 -6q60 -17 75 -101l44 -216h-102l-41 217q-7 37 -24 52t-50 15q-110 0 -147 1l-40 -285h-98l97 690q86 9 237 9q114 0 166.5 -45.5t37.5 -158.5zM330 370q73 1 106 28t43 99q10 67 -12.5 91.5
t-93.5 24.5q-31 0 -80.5 -0.5t-66.5 -0.5l-34 -242h138z" />
    <glyph glyph-name="racute" unicode="&#x155;" horiz-adv-x="401" 
d="M446 664l-213 -117l-28 45l196 147zM169 376q125 125 221 125h26l-24 -91h-27q-38 0 -79 -22.5t-115 -76.5l-42 -311h-97l69 488h74z" />
    <glyph glyph-name="Rcommaaccent" unicode="&#x156;" horiz-adv-x="621" 
d="M580 495q-11 -79 -47 -121t-107 -51l-1 -6q60 -17 75 -101l44 -216h-102l-41 217q-7 37 -24 52t-50 15q-110 0 -147 1l-40 -285h-98l97 690q86 9 237 9q114 0 166.5 -45.5t37.5 -158.5zM330 370q73 1 106 28t43 99q10 67 -12.5 91.5t-93.5 24.5q-31 0 -80.5 -0.5
t-66.5 -0.5l-34 -242h138zM320 -58q34 0 28 -31l-8 -54q-7 -59 -53 -135l-43 13q23 66 30 104q-14 -1 -21 6t-6 20l8 49q3 17 11 22.5t29 5.5h25z" />
    <glyph glyph-name="rcommaaccent" unicode="&#x157;" horiz-adv-x="401" 
d="M390 501h26l-24 -91h-27q-38 0 -79 -22.5t-115 -76.5l-42 -311h-97l69 488h74l-6 -112q125 125 221 125zM83 -58q34 0 28 -31l-8 -54q-7 -59 -53 -135l-43 13q23 66 30 104q-14 -1 -21 6t-6 20l8 49q3 17 11 22.5t29 5.5h25z" />
    <glyph glyph-name="Rcaron" unicode="&#x158;" horiz-adv-x="621" 
d="M415 743h-70l-117 135l39 35l112 -99h8l147 99l30 -41zM580 495q-11 -79 -47 -121t-107 -51l-1 -6q60 -17 75 -101l44 -216h-102l-41 217q-7 37 -24 52t-50 15q-110 0 -147 1l-40 -285h-98l97 690q86 9 237 9q114 0 166.5 -45.5t37.5 -158.5zM330 370q73 1 106 28t43 99
q10 67 -12.5 91.5t-93.5 24.5q-31 0 -80.5 -0.5t-66.5 -0.5l-34 -242h138z" />
    <glyph glyph-name="rcaron" unicode="&#x159;" horiz-adv-x="401" 
d="M308 564h-70l-117 135l39 35l112 -99h8l147 99l30 -41zM169 376q125 125 221 125h26l-24 -91h-27q-38 0 -79 -22.5t-115 -76.5l-42 -311h-97l69 488h74z" />
    <glyph glyph-name="Sacute" unicode="&#x15a;" horiz-adv-x="562" 
d="M468 918l45 -75l-213 -117l-28 45zM332 702q120 0 207 -22l-11 -72q-103 5 -196 5q-34 0 -49.5 -0.5t-36.5 -5t-30.5 -14.5t-18 -29t-12.5 -48q-6 -49 6.5 -67t59.5 -35l132 -47q76 -27 100.5 -71.5t13.5 -124.5q-15 -110 -71.5 -146.5t-188.5 -36.5q-109 0 -213 20
l13 74q156 -5 199 -5q88 1 120 19.5t41 84.5q6 49 -7 67.5t-58 34.5l-135 48q-71 26 -97 73t-15 122q8 57 27 93t52.5 53.5t71 23.5t96.5 6z" />
    <glyph glyph-name="sacute" unicode="&#x15b;" horiz-adv-x="508" 
d="M427 739l45 -75l-213 -117l-28 45zM264 501q113 -2 209 -17l-12 -69q-127 4 -194 5q-66 0 -88.5 -7t-26.5 -36q-3 -25 9.5 -37t48.5 -28l132 -60q60 -28 82 -57.5t15 -83.5q-4 -33 -17 -55.5t-30.5 -35.5t-48 -20t-60 -9t-75.5 -2q-48 0 -75.5 1.5t-61 6t-52.5 6.5l11 72
q56 -5 153 -5q92 0 124 10t37 40q1 5 1 10t-0.5 8.5t-3 7t-4 6t-5.5 5.5t-7 5t-9 5t-9.5 4.5t-11 5t-12.5 5.5l-131 60q-55 26 -78 58.5t-16 83.5q8 67 57 93t149 24z" />
    <glyph glyph-name="Scircumflex" unicode="&#x15c;" horiz-adv-x="562" 
d="M391 899l124 -135l-35 -38l-120 101h-9l-149 -98l-27 41l147 129h69zM332 702q120 0 207 -22l-11 -72q-103 5 -196 5q-34 0 -49.5 -0.5t-36.5 -5t-30.5 -14.5t-18 -29t-12.5 -48q-6 -49 6.5 -67t59.5 -35l132 -47q76 -27 100.5 -71.5t13.5 -124.5q-15 -110 -71.5 -146.5
t-188.5 -36.5q-109 0 -213 20l13 74q156 -5 199 -5q88 1 120 19.5t41 84.5q6 49 -7 67.5t-58 34.5l-135 48q-71 26 -97 73t-15 122q8 57 27 93t52.5 53.5t71 23.5t96.5 6z" />
    <glyph glyph-name="scircumflex" unicode="&#x15d;" horiz-adv-x="508" 
d="M350 720l124 -135l-35 -38l-120 101h-9l-149 -98l-27 41l147 129h69zM264 501q113 -2 209 -17l-12 -69q-127 4 -194 5q-66 0 -88.5 -7t-26.5 -36q-3 -25 9.5 -37t48.5 -28l132 -60q60 -28 82 -57.5t15 -83.5q-4 -33 -17 -55.5t-30.5 -35.5t-48 -20t-60 -9t-75.5 -2
q-48 0 -75.5 1.5t-61 6t-52.5 6.5l11 72q56 -5 153 -5q92 0 124 10t37 40q1 5 1 10t-0.5 8.5t-3 7t-4 6t-5.5 5.5t-7 5t-9 5t-9.5 4.5t-11 5t-12.5 5.5l-131 60q-55 26 -78 58.5t-16 83.5q8 67 57 93t149 24z" />
    <glyph glyph-name="Scedilla" unicode="&#x15e;" horiz-adv-x="562" 
d="M332 702q120 0 207 -22l-11 -72q-103 5 -196 5q-34 0 -49.5 -0.5t-36.5 -5t-30.5 -14.5t-18 -29t-12.5 -48q-6 -49 6.5 -67t59.5 -35l132 -47q76 -27 100.5 -71.5t13.5 -124.5q-15 -110 -71.5 -146.5t-188.5 -36.5q-109 0 -213 20l13 74q156 -5 199 -5q88 1 120 19.5
t41 84.5q6 49 -7 67.5t-58 34.5l-135 48q-71 26 -97 73t-15 122q8 57 27 93t52.5 53.5t71 23.5t96.5 6zM186 -42q67 6 93.5 -8t17.5 -61q-10 -64 -62 -97t-125 -23l18 51q38 -2 66.5 18t33.5 51q3 14 -6.5 18.5t-46.5 5.5z" />
    <glyph glyph-name="scedilla" unicode="&#x15f;" horiz-adv-x="508" 
d="M264 501q113 -2 209 -17l-12 -69q-127 4 -194 5q-66 0 -88.5 -7t-26.5 -36q-3 -25 9.5 -37t48.5 -28l132 -60q60 -28 82 -57.5t15 -83.5q-4 -33 -17 -55.5t-30.5 -35.5t-48 -20t-60 -9t-75.5 -2q-48 0 -75.5 1.5t-61 6t-52.5 6.5l11 72q56 -5 153 -5q92 0 124 10t37 40
q1 5 1 10t-0.5 8.5t-3 7t-4 6t-5.5 5.5t-7 5t-9 5t-9.5 4.5t-11 5t-12.5 5.5l-131 60q-55 26 -78 58.5t-16 83.5q8 67 57 93t149 24zM154 -53q67 6 93.5 -8t17.5 -61q-10 -64 -62 -97t-125 -23l18 51q38 -2 66.5 18t33.5 51q3 14 -6.5 18.5t-46.5 5.5z" />
    <glyph glyph-name="Scaron" unicode="&#x160;" horiz-adv-x="562" 
d="M494 913l30 -41l-149 -129h-70l-117 135l39 35l112 -99h8zM332 702q120 0 207 -22l-11 -72q-103 5 -196 5q-34 0 -49.5 -0.5t-36.5 -5t-30.5 -14.5t-18 -29t-12.5 -48q-6 -49 6.5 -67t59.5 -35l132 -47q76 -27 100.5 -71.5t13.5 -124.5q-15 -110 -71.5 -146.5
t-188.5 -36.5q-109 0 -213 20l13 74q156 -5 199 -5q88 1 120 19.5t41 84.5q6 49 -7 67.5t-58 34.5l-135 48q-71 26 -97 73t-15 122q8 57 27 93t52.5 53.5t71 23.5t96.5 6z" />
    <glyph glyph-name="scaron" unicode="&#x161;" horiz-adv-x="508" 
d="M453 734l30 -41l-149 -129h-70l-117 135l39 35l112 -99h8zM264 501q113 -2 209 -17l-12 -69q-127 4 -194 5q-66 0 -88.5 -7t-26.5 -36q-3 -25 9.5 -37t48.5 -28l132 -60q60 -28 82 -57.5t15 -83.5q-4 -33 -17 -55.5t-30.5 -35.5t-48 -20t-60 -9t-75.5 -2q-48 0 -75.5 1.5
t-61 6t-52.5 6.5l11 72q56 -5 153 -5q92 0 124 10t37 40q1 5 1 10t-0.5 8.5t-3 7t-4 6t-5.5 5.5t-7 5t-9 5t-9.5 4.5t-11 5t-12.5 5.5l-131 60q-55 26 -78 58.5t-16 83.5q8 67 57 93t149 24z" />
    <glyph glyph-name="uni0162" unicode="&#x162;" horiz-adv-x="576" 
d="M612 690l-12 -89h-220l-84 -601h-100l84 601h-217l13 89h536zM188 -42q67 6 93.5 -8t17.5 -61q-10 -64 -62 -97t-125 -23l18 51q38 -2 66.5 18t33.5 51q3 14 -6.5 18.5t-46.5 5.5z" />
    <glyph glyph-name="uni0163" unicode="&#x163;" horiz-adv-x="385" 
d="M225 413l-39 -274q-5 -35 6.5 -47.5t46.5 -12.5h73l4 -75q-44 -13 -114 -13q-65 0 -93.5 36t-19.5 103l41 283h-90l9 70l91 5l21 143h95l-20 -143h150l-10 -75h-151zM141 -51q67 6 93.5 -8t17.5 -61q-10 -64 -62 -97t-125 -23l18 51q38 -2 66.5 18t33.5 51
q3 14 -6.5 18.5t-46.5 5.5z" />
    <glyph glyph-name="Tcaron" unicode="&#x164;" horiz-adv-x="576" 
d="M389 743h-70l-117 135l39 35l112 -99h8l147 99l30 -41zM612 690l-12 -89h-220l-84 -601h-100l84 601h-217l13 89h536z" />
    <glyph glyph-name="tcaron" unicode="&#x165;" horiz-adv-x="385" 
d="M380 775q16 0 22 -7t4 -25l-8 -58q-8 -59 -53 -137l-40 13q26 66 32 107q-13 -1 -20 6t-5 19l8 54q3 17 10 22.5t26 5.5h24zM256 631l-20 -143h150l-10 -75h-151l-39 -274q-5 -35 6.5 -47.5t46.5 -12.5h73l4 -75q-44 -13 -114 -13q-65 0 -93.5 36t-19.5 103l41 283h-90
l9 70l91 5l21 143h95z" />
    <glyph glyph-name="Tbar" unicode="&#x166;" horiz-adv-x="576" 
d="M600 601h-220l-28 -206h143l-8 -54h-143l-48 -341h-100l48 341h-133l8 54h133l28 206h-217l13 89h536z" />
    <glyph glyph-name="tbar" unicode="&#x167;" horiz-adv-x="385" 
d="M376 413h-151l-15 -105h128l-7 -55h-129l-16 -114q-5 -35 6.5 -47.5t46.5 -12.5h73l4 -75q-44 -13 -114 -13q-65 0 -93.5 36t-19.5 103l18 123h-65l7 55h66l15 105h-90l9 70l91 5l21 143h95l-20 -143h150z" />
    <glyph glyph-name="Utilde" unicode="&#x168;" horiz-adv-x="664" 
d="M325 883q34 -3 76.5 -26.5t66.5 -26.5q29 -4 42.5 8.5t17.5 41.5l44 -4q-1 -58 -26 -88t-64 -27t-83 27.5t-61 27.5q-28 3 -41.5 -10.5t-17.5 -44.5l-44 4q2 60 27.5 90.5t62.5 27.5zM642 690l-61 -426q-21 -151 -86 -214t-196 -63q-135 0 -190 66t-34 216l58 421h101
l-60 -426q-15 -106 11.5 -147t110.5 -41q87 0 129 43t57 150l59 421h101z" />
    <glyph glyph-name="utilde" unicode="&#x169;" horiz-adv-x="569" 
d="M271 641q-28 3 -41.5 -10.5t-17.5 -44.5l-44 4q2 60 27.5 90.5t62.5 27.5q34 -3 76.5 -26.5t66.5 -26.5q29 -4 42.5 8.5t17.5 41.5l44 -4q-1 -58 -26 -88t-64 -27t-83 27.5t-61 27.5zM427 488h96l-68 -488h-75l6 102q-119 -115 -222 -115q-66 0 -96 36.5t-21 99.5l51 365
h97l-49 -340q-6 -43 6 -60.5t46 -17.5q41 0 81 24.5t106 84.5z" />
    <glyph glyph-name="Umacron" unicode="&#x16a;" horiz-adv-x="664" 
d="M549 853l-10 -71h-283l10 71h283zM642 690l-61 -426q-21 -151 -86 -214t-196 -63q-135 0 -190 66t-34 216l58 421h101l-60 -426q-15 -106 11.5 -147t110.5 -41q87 0 129 43t57 150l59 421h101z" />
    <glyph glyph-name="umacron" unicode="&#x16b;" horiz-adv-x="569" 
d="M482 678l-10 -71h-283l10 71h283zM427 488h96l-68 -488h-75l6 102q-119 -115 -222 -115q-66 0 -96 36.5t-21 99.5l51 365h97l-49 -340q-6 -43 6 -60.5t46 -17.5q41 0 81 24.5t106 84.5z" />
    <glyph glyph-name="Ubreve" unicode="&#x16c;" horiz-adv-x="664" 
d="M515 888l48 -11q-5 -60 -50 -96.5t-116 -36.5q-76 0 -114 38.5t-25 98.5l49 3q-4 -33 19.5 -51t69.5 -18q51 0 82.5 19.5t36.5 53.5zM642 690l-61 -426q-21 -151 -86 -214t-196 -63q-135 0 -190 66t-34 216l58 421h101l-60 -426q-15 -106 11.5 -147t110.5 -41
q87 0 129 43t57 150l59 421h101z" />
    <glyph glyph-name="ubreve" unicode="&#x16d;" horiz-adv-x="569" 
d="M330 569q-76 0 -114 38.5t-25 98.5l49 3q-4 -33 19.5 -51t69.5 -18q51 0 82.5 19.5t36.5 53.5l48 -11q-5 -60 -50 -96.5t-116 -36.5zM427 488h96l-68 -488h-75l6 102q-119 -115 -222 -115q-66 0 -96 36.5t-21 99.5l51 365h97l-49 -340q-6 -43 6 -60.5t46 -17.5
q41 0 81 24.5t106 84.5z" />
    <glyph glyph-name="Uring" unicode="&#x16e;" horiz-adv-x="664" 
d="M409 927q46 0 75 -27t29 -71q0 -49 -32.5 -82t-83.5 -33q-45 0 -74 27t-29 71q0 50 32.5 82.5t82.5 32.5zM408 879q-28 0 -44.5 -17.5t-16.5 -44.5q0 -25 13.5 -39.5t39.5 -14.5q25 0 42 18t17 44q0 25 -13.5 39.5t-37.5 14.5zM642 690l-61 -426q-21 -151 -86 -214
t-196 -63q-135 0 -190 66t-34 216l58 421h101l-60 -426q-15 -106 11.5 -147t110.5 -41q87 0 129 43t57 150l59 421h101z" />
    <glyph glyph-name="uring" unicode="&#x16f;" horiz-adv-x="569" 
d="M330 539q-45 0 -74 27t-29 71q0 50 32.5 82.5t82.5 32.5q46 0 75 -27t29 -71q0 -49 -32.5 -82t-83.5 -33zM341 704q-28 0 -44.5 -17.5t-16.5 -44.5q0 -25 13.5 -39.5t39.5 -14.5q25 0 42 18t17 44q0 25 -13.5 39.5t-37.5 14.5zM427 488h96l-68 -488h-75l6 102
q-119 -115 -222 -115q-66 0 -96 36.5t-21 99.5l51 365h97l-49 -340q-6 -43 6 -60.5t46 -17.5q41 0 81 24.5t106 84.5z" />
    <glyph glyph-name="Uhungarumlaut" unicode="&#x170;" horiz-adv-x="664" 
d="M394 923l59 -43l-158 -160l-40 32zM563 923l59 -43l-159 -160l-39 32zM642 690l-61 -426q-21 -151 -86 -214t-196 -63q-135 0 -190 66t-34 216l58 421h101l-60 -426q-15 -106 11.5 -147t110.5 -41q87 0 129 43t57 150l59 421h101z" />
    <glyph glyph-name="uhungarumlaut" unicode="&#x171;" horiz-adv-x="569" 
d="M386 705l-158 -160l-40 32l139 171zM396 545l-39 32l139 171l59 -43zM385 179l42 309h96l-68 -488h-75l6 102q-119 -115 -222 -115q-66 0 -96 36.5t-21 99.5l51 365h97l-49 -340q-6 -43 6 -60.5t46 -17.5q41 0 81 24.5t106 84.5z" />
    <glyph glyph-name="Uogonek" unicode="&#x172;" horiz-adv-x="664" 
d="M541 690h101l-61 -426q-19 -143 -78 -206.5t-176 -69.5q-46 -49 -82 -112q-19 -33 -1 -43t65 6l12 -42q-40 -15 -71.5 -18.5t-50 4t-28.5 21.5t-8.5 33.5t12.5 41.5q28 55 101 108q-123 5 -172.5 72t-28.5 210l58 421h101l-60 -426q-15 -106 11.5 -147t110.5 -41
q87 0 129 43t57 150z" />
    <glyph glyph-name="uogonek" unicode="&#x173;" horiz-adv-x="569" 
d="M455 0q-48 -51 -85 -115q-19 -33 -1 -43t65 6l12 -42q-40 -15 -71.5 -18.5t-50 4t-28.5 21.5t-8.5 33.5t12.5 41.5q30 57 106 112h-26l6 102q-119 -115 -222 -115q-66 0 -96 36.5t-21 99.5l51 365h97l-49 -340q-6 -43 6 -60.5t46 -17.5q41 0 81 24.5t106 84.5l42 309h96z
" />
    <glyph glyph-name="Wcircumflex" unicode="&#x174;" horiz-adv-x="946" 
d="M589 898l124 -135l-35 -38l-120 101h-9l-149 -98l-27 41l147 129h69zM973 690l-226 -663q-11 -27 -41 -27h-109q-14 0 -24 9t-11 23l-31 507q-1 13 -3 38.5t-2 38.5h-21l-25 -81l-170 -507q-9 -28 -40 -28h-108q-15 0 -25.5 9t-11.5 22l-42 659h102l24 -528
q1 -14 1.5 -43.5t0.5 -44.5h23q4 14 29 92l166 493q10 31 41 31h105q14 0 23.5 -10t10.5 -25l36 -494q4 -58 3 -87h24q11 38 27 90l169 526h105z" />
    <glyph glyph-name="wcircumflex" unicode="&#x175;" horiz-adv-x="857" 
d="M515 720l124 -135l-35 -38l-120 101h-9l-149 -98l-27 41l147 129h69zM143 488l65 -412h14q29 0 49 38q23 43 49 133q23 84 43 217q3 24 27 24h106q21 0 24 -22l45 -390h12q21 0 41 32q40 62 67 139q38 104 58 241h101q-32 -152 -85 -280q-46 -108 -83 -155
q-40 -53 -92 -53h-64q-12 0 -20 7.5t-10 18.5l-42 399h-13q-8 -90 -37 -202q-27 -90 -61 -152q-39 -71 -119 -71h-55q-26 0 -31 26l-90 462h101z" />
    <glyph glyph-name="Ycircumflex" unicode="&#x176;" horiz-adv-x="571" 
d="M349 827l-149 -98l-27 41l147 129h69l124 -135l-35 -38l-120 101h-9zM617 690l-291 -450l-34 -240h-101l35 242l-163 448h101l99 -285q14 -44 18 -80h9q13 41 40 83l178 282h109z" />
    <glyph glyph-name="ycircumflex" unicode="&#x177;" horiz-adv-x="545" 
d="M307 648l-149 -98l-27 41l147 129h69l124 -135l-35 -38l-120 101h-9zM430 488h101q-54 -238 -141 -403q-78 -148 -154.5 -210t-182.5 -80l-18 69q64 15 112 45t93 91h-46q-23 0 -39 12.5t-20 34.5l-94 441h102l74 -395q3 -17 20 -17h50q2 4 6 11.5t7 14t6 12.5
q88 183 124 374z" />
    <glyph glyph-name="Ydieresis" unicode="&#x178;" horiz-adv-x="571" 
d="M239 765q-27 0 -24 25l9 55q4 27 31 27h29q16 0 21.5 -6t3.5 -21l-9 -54q-3 -26 -29 -26h-32zM407 765q-27 0 -24 25l8 55q4 27 32 27h29q16 0 21 -6t3 -21l-9 -54q-1 -26 -28 -26h-32zM617 690l-291 -450l-34 -240h-101l35 242l-163 448h101l99 -285q14 -44 18 -80h9
q13 41 40 83l178 282h109z" />
    <glyph glyph-name="Zacute" unicode="&#x179;" horiz-adv-x="564" 
d="M513 843l-213 -117l-28 45l196 147zM569 690l-13 -85l-429 -520h364l-12 -85h-474l12 85l429 520h-351l13 85h461z" />
    <glyph glyph-name="zacute" unicode="&#x17a;" horiz-adv-x="508" 
d="M462 664l-213 -117l-28 45l196 147zM474 409h1l-348 -330h305l-11 -79h-415l10 79l348 330h-297l11 79h407z" />
    <glyph glyph-name="Zdotaccent" unicode="&#x17b;" horiz-adv-x="564" 
d="M326 755q-14 0 -21 8.5t-5 22.5l7 55q4 27 29 27h31q14 0 22 -8.5t6 -21.5l-8 -56q-5 -27 -30 -27h-31zM569 690l-13 -85l-429 -520h364l-12 -85h-474l12 85l429 520h-351l13 85h461z" />
    <glyph glyph-name="zdotaccent" unicode="&#x17c;" horiz-adv-x="508" 
d="M275 576q-14 0 -21 8.5t-5 22.5l7 55q4 27 29 27h31q14 0 22 -8.5t6 -21.5l-8 -56q-4 -27 -30 -27h-31zM474 409h1l-348 -330h305l-11 -79h-415l10 79l348 330h-297l11 79h407z" />
    <glyph glyph-name="Zcaron" unicode="&#x17d;" horiz-adv-x="564" 
d="M375 743h-70l-117 135l39 35l112 -99h8l147 99l30 -41zM569 690l-13 -85l-429 -520h364l-12 -85h-474l12 85l429 520h-351l13 85h461z" />
    <glyph glyph-name="zcaron" unicode="&#x17e;" horiz-adv-x="508" 
d="M324 564h-70l-117 135l39 35l112 -99h8l147 99l30 -41zM474 409h1l-348 -330h305l-11 -79h-415l10 79l348 330h-297l11 79h407z" />
    <glyph glyph-name="uni018F" unicode="&#x18f;" horiz-adv-x="643" 
d="M364 703q146 0 201 -82.5t28 -279.5q-28 -200 -98 -277t-220 -77q-132 0 -185.5 60.5t-36.5 165.5q15 96 72.5 137.5t172.5 53.5l200 20q8 108 -23.5 149t-116.5 41q-83 0 -216 -17l-11 65q102 41 233 41zM278 76q96 0 141.5 56.5t68.5 205.5l-198 -22q-65 -8 -96 -34.5
t-38 -84.5q-9 -66 25 -93.5t97 -27.5z" />
    <glyph glyph-name="florin" unicode="&#x192;" horiz-adv-x="444" 
d="M397 620q-44 0 -66 -16t-32 -61l-33 -142h137l-17 -76h-138l-77 -332q-17 -71 -56 -106.5t-112 -35.5q-67 0 -108 7l19 73h65q42 0 64.5 18t32.5 59l74 317h-98l14 67l102 9l37 157q33 143 172 143q64 0 109 -8l-19 -73h-70z" />
    <glyph glyph-name="Ohorn" unicode="&#x1a0;" horiz-adv-x="677" 
d="M759 711q-12 -53 -54 -90t-95 -45q27 -83 6 -235q-27 -199 -97.5 -276.5t-219.5 -77.5q-147 0 -203.5 81.5t-29.5 280.5q26 196 97 275t224 79q147 0 200 -80q40 4 68 32t38 68zM512 349q22 155 -5.5 210t-124.5 55q-100 0 -144.5 -57.5t-67.5 -215.5
q-21 -152 6.5 -208.5t124.5 -56.5q98 0 143.5 58.5t67.5 214.5z" />
    <glyph glyph-name="ohorn" unicode="&#x1a1;" horiz-adv-x="589" 
d="M646 522q-12 -50 -50.5 -86t-89.5 -47q16 -58 3 -149q-19 -138 -79 -195.5t-183 -57.5q-125 0 -173.5 60.5t-29.5 199.5q19 138 78.5 196t184.5 58q131 0 178 -66q36 8 60.5 35t34.5 64zM409 247q15 101 -6.5 136.5t-95.5 35.5q-77 0 -112.5 -37t-50.5 -142
q-14 -101 7.5 -136.5t95.5 -35.5q78 0 113 38.5t49 140.5z" />
    <glyph glyph-name="Uhorn" unicode="&#x1af;" horiz-adv-x="709" 
d="M797 716q-13 -58 -62.5 -96.5t-108.5 -40.5l-45 -315q-21 -151 -86 -214t-196 -63q-135 0 -190 66t-34 216l58 421h101l-60 -426q-15 -106 11.5 -147t110.5 -41q87 0 129 43t57 150l59 421h101l-9 -61q37 7 62.5 34t35.5 65z" />
    <glyph glyph-name="uhorn" unicode="&#x1b0;" horiz-adv-x="603" 
d="M673 536q-13 -56 -59 -94t-103 -43l-56 -399h-75l6 102q-119 -115 -222 -115q-66 0 -96 36.5t-21 99.5l51 365h97l-49 -340q-6 -43 6 -60.5t46 -17.5q41 0 81 24.5t106 84.5l42 309h96l-5 -37q68 18 89 97z" />
    <glyph glyph-name="uni01C4" unicode="&#x1c4;" horiz-adv-x="1222" 
d="M1033 743h-70l-117 135l39 35l112 -99h8l147 99l30 -41zM364 699q164 0 220 -79t28 -279q-11 -77 -25.5 -132t-36 -94t-46.5 -63t-62 -38t-76 -18.5t-95 -4.5q-96 0 -229 9l97 690q122 9 225 9zM1227 690l-13 -85l-429 -520h364l-12 -85h-474l12 85l429 520h-351l13 85
h461zM508 349q10 68 11 112.5t-6.5 75.5t-27.5 46.5t-48.5 22t-74.5 6.5q-38 0 -134 -2l-75 -530q86 -2 117 -2q81 0 124 20t70 77t44 174z" />
    <glyph glyph-name="uni01C5" unicode="&#x1c5;" horiz-adv-x="1171" 
d="M987 564h-70l-117 135l39 35l112 -99h8l147 99l30 -41zM364 699q164 0 220 -79t28 -279q-11 -77 -25.5 -132t-36 -94t-46.5 -63t-62 -38t-76 -18.5t-95 -4.5q-96 0 -229 9l97 690q122 9 225 9zM508 349q10 68 11 112.5t-6.5 75.5t-27.5 46.5t-48.5 22t-74.5 6.5
q-38 0 -134 -2l-75 -530q86 -2 117 -2q81 0 124 20t70 77t44 174zM1137 409h1l-348 -330h305l-11 -79h-415l10 79l348 330h-297l11 79h407z" />
    <glyph glyph-name="uni01C6" unicode="&#x1c6;" horiz-adv-x="1082" 
d="M898 564h-70l-117 135l39 35l112 -99h8l147 99l30 -41zM444 581l17 119h97l-98 -700h-76l5 102q-104 -114 -221 -114q-77 0 -109 59.5t-12 202.5q12 81 31.5 132.5t51 76.5t64.5 33.5t84 8.5q70 0 159 -12q0 33 7 92zM1048 409h1l-348 -330h305l-11 -79h-415l10 79
l348 330h-297l11 79h407zM196 72q45 0 88.5 25t104.5 82l32 241q-45 1 -105 1q-50 0 -76.5 -5t-47 -25t-29.5 -53t-18 -95q-14 -104 -4 -137.5t55 -33.5z" />
    <glyph glyph-name="uni01C7" unicode="&#x1c7;" horiz-adv-x="853" 
d="M237 690l-76 -544q-8 -62 52 -62h246l-2 -78q-86 -8 -265 -8q-70 0 -105 38.5t-25 112.5l74 541h101zM829 690l-76 -541q-11 -78 -50.5 -118.5t-102.5 -39.5q-60 0 -99 14l19 71h46q76 0 87 72l75 542h101z" />
    <glyph glyph-name="uni01C8" unicode="&#x1c8;" horiz-adv-x="762" 
d="M714 696q14 0 21 -8t5 -22l-7 -56q-4 -27 -30 -27h-46q-30 0 -27 31l9 56q2 26 29 26h46zM237 690l-76 -544q-8 -62 52 -62h246l-2 -78q-86 -8 -265 -8q-70 0 -105 38.5t-25 112.5l74 541h101zM712 488l-70 -496q-7 -60 -39.5 -111.5t-82.5 -83.5l-53 45q67 68 79 155
l70 491h96z" />
    <glyph glyph-name="uni01C9" unicode="&#x1c9;" horiz-adv-x="549" 
d="M228 700l-79 -561q-5 -33 7 -46.5t46 -13.5h46l4 -76q-27 -12 -93 -12q-58 0 -87.5 34t-21.5 96l82 579h96zM501 696q14 0 21 -8t5 -22l-7 -56q-4 -27 -30 -27h-46q-30 0 -27 31l9 56q2 26 29 26h46zM499 488l-70 -496q-7 -60 -39.5 -111.5t-82.5 -83.5l-53 45
q67 68 79 155l70 491h96z" />
    <glyph glyph-name="uni01CA" unicode="&#x1ca;" horiz-adv-x="1048" 
d="M679 690l-92 -653q-6 -37 -40 -37h-87q-28 0 -39 33l-161 470q-19 54 -27 94h-15q-1 -42 -8 -94l-68 -503h-100l91 653q6 37 42 37h85q27 0 40 -33l155 -457q31 -99 32 -104h17q3 57 10 104l66 490h99zM1024 690l-76 -541q-11 -78 -50.5 -118.5t-102.5 -39.5
q-60 0 -99 14l19 71h46q76 0 87 72l75 542h101z" />
    <glyph glyph-name="uni01CB" unicode="&#x1cb;" horiz-adv-x="957" 
d="M909 696q14 0 21 -8t5 -22l-7 -56q-4 -27 -30 -27h-46q-30 0 -27 31l9 56q2 26 29 26h46zM679 690l-92 -653q-6 -37 -40 -37h-87q-28 0 -39 33l-161 470q-19 54 -27 94h-15q-1 -42 -8 -94l-68 -503h-100l91 653q6 37 42 37h85q27 0 40 -33l155 -457q31 -99 32 -104h17
q3 57 10 104l66 490h99zM907 488l-70 -496q-7 -60 -39.5 -111.5t-82.5 -83.5l-53 45q67 68 79 155l70 491h96z" />
    <glyph glyph-name="uni01CC" unicode="&#x1cc;" horiz-adv-x="831" 
d="M783 696q14 0 21 -8t5 -22l-7 -56q-4 -27 -30 -27h-46q-30 0 -27 31l9 56q2 26 29 26h46zM404 501q62 0 94 -35.5t22 -101.5l-52 -364h-96l47 340q6 46 -3.5 62.5t-41.5 16.5q-41 0 -85.5 -25t-117.5 -82l-42 -312h-97l69 488h77l-5 -105q132 118 231 118zM615 -3l70 491
h96l-70 -496q-7 -60 -39.5 -111.5t-82.5 -83.5l-53 45q67 68 79 155z" />
    <glyph glyph-name="Gcaron" unicode="&#x1e6;" horiz-adv-x="624" 
d="M428 743h-70l-117 135l39 35l112 -99h8l147 99l30 -41zM409 614q-62 0 -99.5 -10t-67 -40.5t-45.5 -83t-27 -139.5q-17 -148 4.5 -207t93.5 -59q49 0 88 23t93 77l31 225h96l-56 -400h-72v93q-90 -106 -215 -106q-105 0 -146.5 87t-21.5 275q14 108 40.5 178.5t70 108.5
t95.5 52.5t126 14.5q113 0 198 -22l-15 -75q-84 8 -171 8z" />
    <glyph glyph-name="gcaron" unicode="&#x1e7;" horiz-adv-x="576" 
d="M372 564h-70l-117 135l39 35l112 -99h8l147 99l30 -41zM528 475h2l-66 -463q-26 -218 -289 -221q-102 0 -162 19l10 64q79 -2 155 -1q165 2 188 119q17 85 42 122q-41 -56 -101.5 -91t-131.5 -35q-82 0 -115 58t-12 204q12 82 32 133.5t52 76.5t64.5 33t83.5 8
q128 0 248 -26zM199 72q46 0 90.5 25.5t99.5 79.5l35 241q-92 2 -106 2q-95 0 -125.5 -30.5t-46.5 -146.5q-14 -107 -3.5 -139t56.5 -32z" />
    <glyph glyph-name="uni01EA" unicode="&#x1ea;" 
d="M387 703q147 0 202 -82.5t27 -279.5q-26 -195 -94.5 -273t-210.5 -81q-37 -42 -70 -98q-19 -33 -1 -43t65 6l12 -42q-40 -15 -71.5 -18.5t-50 4t-28.5 21.5t-8.5 33.5t12.5 41.5q26 50 86 97q-123 10 -169.5 93t-21.5 267q26 196 97 275t224 79zM512 349q22 155 -5.5 210
t-124.5 55q-100 0 -144.5 -57.5t-67.5 -215.5q-21 -152 6.5 -208.5t124.5 -56.5q98 0 143.5 58.5t67.5 214.5z" />
    <glyph glyph-name="uni01EB" unicode="&#x1eb;" horiz-adv-x="566" 
d="M307 501q126 0 174 -60.5t28 -200.5q-18 -130 -72 -188.5t-162 -63.5q-43 -50 -74 -103q-19 -33 -1 -43t65 6l12 -42q-40 -15 -71.5 -18.5t-50 4t-28.5 21.5t-8.5 33.5t12.5 41.5q26 50 89 100q-109 5 -152 66.5t-24 192.5q19 138 78.5 196t184.5 58zM409 247
q15 101 -6.5 136.5t-95.5 35.5q-77 0 -112.5 -37t-50.5 -142q-14 -101 7.5 -136.5t95.5 -35.5q78 0 113 38.5t49 140.5z" />
    <glyph glyph-name="Aringacute" unicode="&#x1fa;" horiz-adv-x="623" 
d="M486 959l-161 -69l-24 42l145 98zM363 659q-45 0 -74 27t-29 71q0 49 32.5 82t82.5 33q46 0 75 -27t29 -71q0 -50 -32.5 -82.5t-83.5 -32.5zM374 823q-28 0 -44.5 -17.5t-16.5 -44.5q0 -25 13.5 -39.5t39.5 -14.5q25 0 42 18t17 45q0 24 -13.5 38.5t-37.5 14.5zM477 0
l-34 158h-294l-75 -158h-106l297 605q14 25 39 25h102q26 0 33 -29l138 -601h-100zM190 246h235l-53 249q-3 13 -8 60h-30l-26 -60z" />
    <glyph glyph-name="aringacute" unicode="&#x1fb;" horiz-adv-x="574" 
d="M483 847l-204 -75l-24 47l189 107zM329 534q-45 0 -74 27t-29 71q0 50 32.5 82.5t82.5 32.5q46 0 75 -27t29 -71q0 -49 -32.5 -82t-83.5 -33zM340 699q-28 0 -44.5 -17.5t-16.5 -44.5q0 -25 13.5 -39.5t39.5 -14.5q25 0 42 18t17 44q0 25 -13.5 39.5t-37.5 14.5zM289 501
q119 0 239 -26l-68 -475h-76l5 91q-91 -103 -211 -103q-89 0 -120 58t-11 204q11 81 31 132.5t53 76.5t68 33.5t90 8.5zM198 72q46 0 90 25.5t100 78.5l34 242q-92 2 -103 2q-52 0 -79 -5t-47.5 -25.5t-30 -52.5t-18.5 -94q-14 -109 -3.5 -140t57.5 -31z" />
    <glyph glyph-name="AEacute" unicode="&#x1fc;" horiz-adv-x="913" 
d="M762 843l-213 -117l-28 45l196 147zM652 606q-63 0 -73 -66l-19 -138h278l-10 -79h-279l-24 -176q-5 -35 7 -49t45 -14h256l-5 -78q-102 -8 -269 -8q-68 0 -103.5 38.5t-25.5 106.5l10 72h-227l-151 -215h-107l413 579q46 66 98.5 89t150.5 23q196 0 302 -7l-14 -78h-253
zM274 301l178 -1l36 254q5 47 38 70h-5q-32 -19 -64 -63z" />
    <glyph glyph-name="aeacute" unicode="&#x1fd;" horiz-adv-x="874" 
d="M688 664l-213 -117l-28 45l196 147zM651 501q114 0 154.5 -40t29.5 -118q-11 -71 -55 -102.5t-135 -38.5l-170 -15q0 -69 30 -93.5t93 -24.5q68 0 176 12l6 -65q-68 -28 -197 -28q-156 0 -194 105q-89 -105 -213 -105q-88 0 -119 59t-10 203q11 82 31 133t53 76.5
t67.5 33.5t89.5 8q103 0 216 -22q52 22 147 22zM196 72q45 0 87 23t93 72q-2 46 5 90q15 106 49 160q-24 0 -62.5 1.5t-49.5 1.5q-95 0 -125 -30.5t-46 -146.5q-15 -108 -5 -139.5t54 -31.5zM739 351q6 47 -15.5 58t-87.5 11q-76 0 -108 -31.5t-47 -129.5l163 15
q46 3 67 19.5t28 57.5z" />
    <glyph glyph-name="Oslashacute" unicode="&#x1fe;" 
d="M568 843l-213 -117l-28 45l196 147zM560 654q89 -79 56 -313q-27 -199 -97.5 -276.5t-219.5 -77.5q-80 0 -131 22l-43 -70l-45 27l43 71q-89 77 -57 312q26 196 97 275t224 79q75 0 128 -21l44 73l46 -27zM170 341q-23 -157 9 -213l286 472q-29 14 -83 14
q-100 0 -144.5 -57.5t-67.5 -215.5zM512 349q22 158 -7 214l-287 -472q31 -15 83 -15q98 0 143.5 58.5t67.5 214.5z" />
    <glyph glyph-name="oslashacute" unicode="&#x1ff;" horiz-adv-x="566" 
d="M495 664l-213 -117l-28 45l196 147zM448 470q86 -54 61 -230q-19 -138 -79 -195.5t-183 -57.5q-49 0 -87 9l-45 -74l-41 24l41 67q-96 53 -71 234q19 138 78.5 196t184.5 58q54 0 96 -11l47 78l42 -25zM144 240q-16 -116 18 -149l195 323q-17 5 -50 5q-77 0 -112.5 -37
t-50.5 -142zM409 247q16 107 -10 142l-193 -318q18 -3 41 -3q78 0 113 38.5t49 140.5z" />
    <glyph glyph-name="uni0200" unicode="&#x200;" horiz-adv-x="623" 
d="M344 752l-40 -32l-158 160l59 43zM513 752l-40 -32l-158 160l59 43zM477 0l-34 208h-276l-93 -208h-106l310 665q10 25 39 25h102q13 0 22.5 -8.5t10.5 -20.5l125 -661h-100zM206 296h222l-43 259q-4 20 -8 60h-30l-26 -60z" />
    <glyph glyph-name="uni0201" unicode="&#x201;" horiz-adv-x="574" 
d="M290 573l-40 -32l-158 160l59 43zM459 573l-40 -32l-158 160l59 43zM289 501q119 0 239 -26l-68 -475h-76l5 91q-91 -103 -211 -103q-89 0 -120 58t-11 204q11 81 31 132.5t53 76.5t68 33.5t90 8.5zM198 72q46 0 90 25.5t100 78.5l34 242q-92 2 -103 2q-52 0 -79 -5
t-47.5 -25.5t-30 -52.5t-18.5 -94q-14 -109 -3.5 -140t57.5 -31z" />
    <glyph glyph-name="uni0202" unicode="&#x202;" horiz-adv-x="623" 
d="M389 817q-51 0 -82 -19.5t-36 -53.5l-48 11q5 60 50 96.5t116 36.5q76 0 114 -38.5t25 -98.5l-49 -3q4 33 -20 51t-70 18zM477 0l-34 208h-276l-93 -208h-106l310 665q10 25 39 25h102q13 0 22.5 -8.5t10.5 -20.5l125 -661h-100zM206 296h222l-43 259q-4 20 -8 60h-30
l-26 -60z" />
    <glyph glyph-name="uni0203" unicode="&#x203;" horiz-adv-x="574" 
d="M335 638q-51 0 -82 -19.5t-36 -53.5l-48 11q5 60 50 96.5t116 36.5q76 0 114 -38.5t25 -98.5l-49 -3q4 33 -20 51t-70 18zM289 501q119 0 239 -26l-68 -475h-76l5 91q-91 -103 -211 -103q-89 0 -120 58t-11 204q11 81 31 132.5t53 76.5t68 33.5t90 8.5zM198 72
q46 0 90 25.5t100 78.5l34 242q-92 2 -103 2q-52 0 -79 -5t-47.5 -25.5t-30 -52.5t-18.5 -94q-14 -109 -3.5 -140t57.5 -31z" />
    <glyph glyph-name="uni0204" unicode="&#x204;" horiz-adv-x="560" 
d="M340 772l-40 -32l-158 160l59 43zM509 772l-40 -32l-158 160l59 43zM279 606q-32 0 -47.5 -14.5t-19.5 -50.5l-19 -140h291l-10 -77h-292l-24 -178q-4 -34 7.5 -48t44.5 -14h267l-2 -78q-86 -8 -277 -8q-80 0 -115.5 38.5t-26.5 106.5l59 427q8 58 47 90t105 32
q207 0 297 -8l-13 -78h-272z" />
    <glyph glyph-name="uni0205" unicode="&#x205;" horiz-adv-x="539" 
d="M285 573l-40 -32l-158 160l59 43zM454 573l-40 -32l-158 160l59 43zM315 501q114 0 155 -40t30 -118q-12 -71 -56 -102.5t-135 -38.5l-169 -15q0 -69 30 -93.5t93 -24.5q68 0 180 12l6 -65q-71 -28 -201 -28q-125 0 -173 65.5t-30 203.5q19 141 77.5 192.5t192.5 51.5z
M403 351q6 47 -15.5 58t-87.5 11q-76 0 -107.5 -31.5t-46.5 -129.5l163 15q46 3 67 19.5t27 57.5z" />
    <glyph glyph-name="uni0206" unicode="&#x206;" horiz-adv-x="560" 
d="M385 837q-51 0 -82 -19.5t-36 -53.5l-48 11q5 60 50 96.5t116 36.5q76 0 114 -38.5t25 -98.5l-49 -3q4 33 -20 51t-70 18zM279 606q-32 0 -47.5 -14.5t-19.5 -50.5l-19 -140h291l-10 -77h-292l-24 -178q-4 -34 7.5 -48t44.5 -14h267l-2 -78q-86 -8 -277 -8
q-80 0 -115.5 38.5t-26.5 106.5l59 427q8 58 47 90t105 32q207 0 297 -8l-13 -78h-272z" />
    <glyph glyph-name="uni0207" unicode="&#x207;" horiz-adv-x="539" 
d="M330 638q-51 0 -82 -19.5t-36 -53.5l-48 11q5 60 50 96.5t116 36.5q76 0 114 -38.5t25 -98.5l-49 -3q4 33 -20 51t-70 18zM315 501q114 0 155 -40t30 -118q-12 -71 -56 -102.5t-135 -38.5l-169 -15q0 -69 30 -93.5t93 -24.5q68 0 180 12l6 -65q-71 -28 -201 -28
q-125 0 -173 65.5t-30 203.5q19 141 77.5 192.5t192.5 51.5zM403 351q6 47 -15.5 58t-87.5 11q-76 0 -107.5 -31.5t-46.5 -129.5l163 15q46 3 67 19.5t27 57.5z" />
    <glyph glyph-name="uni0208" unicode="&#x208;" horiz-adv-x="267" 
d="M23 923l139 -171l-40 -32l-158 160zM192 923l139 -171l-40 -32l-158 160zM240 690l-97 -690h-101l97 690h101z" />
    <glyph glyph-name="uni0209" unicode="&#x209;" horiz-adv-x="252" 
d="M-9 744l139 -171l-40 -32l-158 160zM160 744l139 -171l-40 -32l-158 160zM202 488l-69 -488h-97l69 488h97z" />
    <glyph glyph-name="uni020A" unicode="&#x20a;" horiz-adv-x="267" 
d="M89 744l-48 11q5 60 50 96.5t116 36.5q76 0 114 -38.5t25 -98.5l-49 -3q4 33 -20 51t-70 18q-51 0 -82 -19.5t-36 -53.5zM240 690l-97 -690h-101l97 690h101z" />
    <glyph glyph-name="uni020B" unicode="&#x20b;" horiz-adv-x="252" 
d="M57 565l-48 11q5 60 50 96.5t116 36.5q76 0 114 -38.5t25 -98.5l-49 -3q4 33 -20 51t-70 18q-51 0 -82 -19.5t-36 -53.5zM202 488l-69 -488h-97l69 488h97z" />
    <glyph glyph-name="uni020C" unicode="&#x20c;" 
d="M219 923l139 -171l-40 -32l-158 160zM388 923l139 -171l-40 -32l-158 160zM387 703q147 0 202 -82.5t27 -279.5q-27 -199 -97.5 -276.5t-219.5 -77.5q-147 0 -203.5 81.5t-29.5 280.5q26 196 97 275t224 79zM382 614q-100 0 -144.5 -57.5t-67.5 -215.5
q-21 -152 6.5 -208.5t124.5 -56.5q98 0 143.5 58.5t67.5 214.5q22 155 -5.5 210t-124.5 55z" />
    <glyph glyph-name="uni020D" unicode="&#x20d;" horiz-adv-x="566" 
d="M146 744l139 -171l-40 -32l-158 160zM315 744l139 -171l-40 -32l-158 160zM307 501q126 0 174 -60.5t28 -200.5q-19 -138 -79 -195.5t-183 -57.5q-125 0 -173.5 60.5t-29.5 199.5q19 138 78.5 196t184.5 58zM307 419q-77 0 -112.5 -37t-50.5 -142q-14 -101 7.5 -136.5
t95.5 -35.5q78 0 113 38.5t49 140.5q15 101 -6.5 136.5t-95.5 35.5z" />
    <glyph glyph-name="uni020E" unicode="&#x20e;" 
d="M285 744l-48 11q5 60 50 96.5t116 36.5q76 0 114 -38.5t25 -98.5l-49 -3q4 33 -20 51t-70 18q-51 0 -82 -19.5t-36 -53.5zM387 703q147 0 202 -82.5t27 -279.5q-27 -199 -97.5 -276.5t-219.5 -77.5q-147 0 -203.5 81.5t-29.5 280.5q26 196 97 275t224 79zM382 614
q-100 0 -144.5 -57.5t-67.5 -215.5q-21 -152 6.5 -208.5t124.5 -56.5q98 0 143.5 58.5t67.5 214.5q22 155 -5.5 210t-124.5 55z" />
    <glyph glyph-name="uni020F" unicode="&#x20f;" horiz-adv-x="566" 
d="M212 565l-48 11q5 60 50 96.5t116 36.5q76 0 114 -38.5t25 -98.5l-49 -3q4 33 -20 51t-70 18q-51 0 -82 -19.5t-36 -53.5zM307 501q126 0 174 -60.5t28 -200.5q-19 -138 -79 -195.5t-183 -57.5q-125 0 -173.5 60.5t-29.5 199.5q19 138 78.5 196t184.5 58zM307 419
q-77 0 -112.5 -37t-50.5 -142q-14 -101 7.5 -136.5t95.5 -35.5q78 0 113 38.5t49 140.5q15 101 -6.5 136.5t-95.5 35.5z" />
    <glyph glyph-name="uni0210" unicode="&#x210;" horiz-adv-x="621" 
d="M343 752l-40 -32l-158 160l59 43zM512 752l-40 -32l-158 160l59 43zM580 495q-11 -79 -47 -121t-107 -51l-1 -6q60 -17 75 -101l44 -216h-102l-41 217q-7 37 -24 52t-50 15q-110 0 -147 1l-40 -285h-98l97 690q86 9 237 9q114 0 166.5 -45.5t37.5 -158.5zM330 370
q73 1 106 28t43 99q10 67 -12.5 91.5t-93.5 24.5q-31 0 -80.5 -0.5t-66.5 -0.5l-34 -242h138z" />
    <glyph glyph-name="uni0211" unicode="&#x211;" horiz-adv-x="401" 
d="M236 573l-40 -32l-158 160l59 43zM405 573l-40 -32l-158 160l59 43zM390 501h26l-24 -91h-27q-38 0 -79 -22.5t-115 -76.5l-42 -311h-97l69 488h74l-6 -112q125 125 221 125z" />
    <glyph glyph-name="uni0212" unicode="&#x212;" horiz-adv-x="621" 
d="M388 817q-51 0 -82 -19.5t-36 -53.5l-48 11q5 60 50 96.5t116 36.5q76 0 114 -38.5t25 -98.5l-49 -3q4 33 -20 51t-70 18zM580 495q-11 -79 -47 -121t-107 -51l-1 -6q60 -17 75 -101l44 -216h-102l-41 217q-7 37 -24 52t-50 15q-110 0 -147 1l-40 -285h-98l97 690
q86 9 237 9q114 0 166.5 -45.5t37.5 -158.5zM330 370q73 1 106 28t43 99q10 67 -12.5 91.5t-93.5 24.5q-31 0 -80.5 -0.5t-66.5 -0.5l-34 -242h138z" />
    <glyph glyph-name="uni0213" unicode="&#x213;" horiz-adv-x="401" 
d="M281 709q76 0 114 -38.5t25 -98.5l-49 -3q4 33 -20 51t-70 18q-51 0 -82 -19.5t-36 -53.5l-48 11q5 60 50 96.5t116 36.5zM169 376q125 125 221 125h26l-24 -91h-27q-38 0 -79 -22.5t-115 -76.5l-42 -311h-97l69 488h74z" />
    <glyph glyph-name="uni0214" unicode="&#x214;" horiz-adv-x="664" 
d="M219 923l139 -171l-40 -32l-158 160zM388 923l139 -171l-40 -32l-158 160zM642 690l-61 -426q-21 -151 -86 -214t-196 -63q-135 0 -190 66t-34 216l58 421h101l-60 -426q-15 -106 11.5 -147t110.5 -41q87 0 129 43t57 150l59 421h101z" />
    <glyph glyph-name="uni0215" unicode="&#x215;" horiz-adv-x="569" 
d="M291 577l-40 -32l-158 160l59 43zM460 577l-40 -32l-158 160l59 43zM427 488h96l-68 -488h-75l6 102q-119 -115 -222 -115q-66 0 -96 36.5t-21 99.5l51 365h97l-49 -340q-6 -43 6 -60.5t46 -17.5q41 0 81 24.5t106 84.5z" />
    <glyph glyph-name="uni0216" unicode="&#x216;" horiz-adv-x="664" 
d="M285 744l-48 11q5 60 50 96.5t116 36.5q76 0 114 -38.5t25 -98.5l-49 -3q4 33 -20 51t-70 18q-51 0 -82 -19.5t-36 -53.5zM642 690l-61 -426q-21 -151 -86 -214t-196 -63q-135 0 -190 66t-34 216l58 421h101l-60 -426q-15 -106 11.5 -147t110.5 -41q87 0 129 43t57 150
l59 421h101z" />
    <glyph glyph-name="uni0217" unicode="&#x217;" horiz-adv-x="569" 
d="M336 642q-51 0 -82 -19.5t-36 -53.5l-48 11q5 60 50 96.5t116 36.5q76 0 114 -38.5t25 -98.5l-49 -3q4 33 -20 51t-70 18zM427 488h96l-68 -488h-75l6 102q-119 -115 -222 -115q-66 0 -96 36.5t-21 99.5l51 365h97l-49 -340q-6 -43 6 -60.5t46 -17.5q41 0 81 24.5
t106 84.5z" />
    <glyph glyph-name="Scommaaccent" unicode="&#x218;" horiz-adv-x="562" 
d="M332 702q120 0 207 -22l-11 -72q-103 5 -196 5q-34 0 -49.5 -0.5t-36.5 -5t-30.5 -14.5t-18 -29t-12.5 -48q-6 -49 6.5 -67t59.5 -35l132 -47q76 -27 100.5 -71.5t13.5 -124.5q-15 -110 -71.5 -146.5t-188.5 -36.5q-109 0 -213 20l13 74q156 -5 199 -5q88 1 120 19.5
t41 84.5q6 49 -7 67.5t-58 34.5l-135 48q-71 26 -97 73t-15 122q8 57 27 93t52.5 53.5t71 23.5t96.5 6zM272 -58q34 0 28 -31l-8 -54q-7 -59 -53 -135l-43 13q23 66 30 104q-14 -1 -21 6t-6 20l8 49q3 17 11 22.5t29 5.5h25z" />
    <glyph glyph-name="scommaaccent" unicode="&#x219;" horiz-adv-x="508" 
d="M264 501q113 -2 209 -17l-12 -69q-127 4 -194 5q-66 0 -88.5 -7t-26.5 -36q-3 -25 9.5 -37t48.5 -28l132 -60q60 -28 82 -57.5t15 -83.5q-4 -33 -17 -55.5t-30.5 -35.5t-48 -20t-60 -9t-75.5 -2q-48 0 -75.5 1.5t-61 6t-52.5 6.5l11 72q56 -5 153 -5q92 0 124 10t37 40
q1 5 1 10t-0.5 8.5t-3 7t-4 6t-5.5 5.5t-7 5t-9 5t-9.5 4.5t-11 5t-12.5 5.5l-131 60q-55 26 -78 58.5t-16 83.5q8 67 57 93t149 24zM225 -58q34 0 28 -31l-8 -54q-7 -59 -53 -135l-43 13q23 66 30 104q-14 -1 -21 6t-6 20l8 49q3 17 11 22.5t29 5.5h25z" />
    <glyph glyph-name="uni021A" unicode="&#x21a;" horiz-adv-x="576" 
d="M612 690l-12 -89h-220l-84 -601h-100l84 601h-217l13 89h536zM255 -58q34 0 28 -31l-8 -54q-7 -59 -53 -135l-43 13q23 66 30 104q-14 -1 -21 6t-6 20l8 49q3 17 11 22.5t29 5.5h25z" />
    <glyph glyph-name="uni021B" unicode="&#x21b;" horiz-adv-x="385" 
d="M225 413l-39 -274q-5 -35 6.5 -47.5t46.5 -12.5h73l4 -75q-44 -13 -114 -13q-65 0 -93.5 36t-19.5 103l41 283h-90l9 70l91 5l21 143h95l-20 -143h150l-10 -75h-151zM199 -58q34 0 28 -31l-8 -54q-7 -59 -53 -135l-43 13q23 66 30 104q-14 -1 -21 6t-6 20l8 49
q3 17 11 22.5t29 5.5h25z" />
    <glyph glyph-name="uni022A" unicode="&#x22a;" 
d="M548 962l-9 -64h-257l9 64h257zM340 849q15 0 19.5 -5.5t2.5 -18.5l-8 -50q-3 -24 -25 -24h-30q-26 0 -22 23l8 51q4 24 28 24h27zM492 849q15 0 20 -5.5t3 -18.5l-8 -50q-5 -24 -27 -24h-29q-26 0 -22 23l8 51q4 24 29 24h26zM387 703q147 0 202 -82.5t27 -279.5
q-27 -199 -97.5 -276.5t-219.5 -77.5q-147 0 -203.5 81.5t-29.5 280.5q26 196 97 275t224 79zM382 614q-100 0 -144.5 -57.5t-67.5 -215.5q-21 -152 6.5 -208.5t124.5 -56.5q98 0 143.5 58.5t67.5 214.5q22 155 -5.5 210t-124.5 55z" />
    <glyph glyph-name="uni022B" unicode="&#x22b;" horiz-adv-x="566" 
d="M475 783l-9 -64h-257l9 64h257zM267 670q15 0 19.5 -5.5t2.5 -18.5l-8 -50q-3 -24 -25 -24h-30q-26 0 -22 23l8 51q4 24 28 24h27zM419 670q15 0 20 -5.5t3 -18.5l-8 -50q-4 -24 -27 -24h-29q-26 0 -22 23l8 51q4 24 29 24h26zM307 501q126 0 174 -60.5t28 -200.5
q-19 -138 -79 -195.5t-183 -57.5q-125 0 -173.5 60.5t-29.5 199.5q19 138 78.5 196t184.5 58zM307 419q-77 0 -112.5 -37t-50.5 -142q-14 -101 7.5 -136.5t95.5 -35.5q78 0 113 38.5t49 140.5q15 101 -6.5 136.5t-95.5 35.5z" />
    <glyph glyph-name="uni022C" unicode="&#x22c;" 
d="M550 981l-9 -64h-257l9 64h257zM322 863q34 -3 76.5 -26.5t66.5 -26.5q29 -4 42.5 8.5t17.5 41.5l44 -4q-1 -58 -26 -88t-64 -27t-82.5 28t-61.5 27q-28 3 -41.5 -10.5t-17.5 -44.5l-44 4q2 60 27.5 90.5t62.5 27.5zM387 703q147 0 202 -82.5t27 -279.5
q-27 -199 -97.5 -276.5t-219.5 -77.5q-147 0 -203.5 81.5t-29.5 280.5q26 196 97 275t224 79zM382 614q-100 0 -144.5 -57.5t-67.5 -215.5q-21 -152 6.5 -208.5t124.5 -56.5q98 0 143.5 58.5t67.5 214.5q22 155 -5.5 210t-124.5 55z" />
    <glyph glyph-name="uni022D" unicode="&#x22d;" horiz-adv-x="566" 
d="M477 802l-9 -64h-257l9 64h257zM249 684q34 -3 76.5 -26.5t66.5 -26.5q29 -4 42.5 8.5t17.5 41.5l44 -4q-1 -58 -26 -88t-64 -27t-82.5 28t-61.5 27q-28 3 -41.5 -10.5t-17.5 -44.5l-44 4q2 60 27.5 90.5t62.5 27.5zM307 501q126 0 174 -60.5t28 -200.5
q-19 -138 -79 -195.5t-183 -57.5q-125 0 -173.5 60.5t-29.5 199.5q19 138 78.5 196t184.5 58zM307 419q-77 0 -112.5 -37t-50.5 -142q-14 -101 7.5 -136.5t95.5 -35.5q78 0 113 38.5t49 140.5q15 101 -6.5 136.5t-95.5 35.5z" />
    <glyph glyph-name="uni0230" unicode="&#x230;" 
d="M552 971l-9 -64h-257l9 64h257zM417 849q12 0 19 -7.5t5 -19.5l-7 -51q-3 -25 -26 -25h-28q-27 0 -24 28l6 50q3 25 27 25h28zM387 703q147 0 202 -82.5t27 -279.5q-27 -199 -97.5 -276.5t-219.5 -77.5q-147 0 -203.5 81.5t-29.5 280.5q26 196 97 275t224 79zM382 614
q-100 0 -144.5 -57.5t-67.5 -215.5q-21 -152 6.5 -208.5t124.5 -56.5q98 0 143.5 58.5t67.5 214.5q22 155 -5.5 210t-124.5 55z" />
    <glyph glyph-name="uni0231" unicode="&#x231;" horiz-adv-x="566" 
d="M479 792l-9 -64h-257l9 64h257zM344 670q12 0 19 -7.5t5 -19.5l-7 -51q-3 -25 -26 -25h-28q-27 0 -24 28l6 50q3 25 27 25h28zM307 501q126 0 174 -60.5t28 -200.5q-19 -138 -79 -195.5t-183 -57.5q-125 0 -173.5 60.5t-29.5 199.5q19 138 78.5 196t184.5 58zM307 419
q-77 0 -112.5 -37t-50.5 -142q-14 -101 7.5 -136.5t95.5 -35.5q78 0 113 38.5t49 140.5q15 101 -6.5 136.5t-95.5 35.5z" />
    <glyph glyph-name="uni0232" unicode="&#x232;" horiz-adv-x="571" 
d="M492 853l-10 -71h-283l10 71h283zM617 690l-291 -450l-34 -240h-101l35 242l-163 448h101l99 -285q14 -44 18 -80h9q13 41 40 83l178 282h109z" />
    <glyph glyph-name="uni0233" unicode="&#x233;" horiz-adv-x="545" 
d="M450 674l-10 -71h-283l10 71h283zM430 488h101q-54 -238 -141 -403q-78 -148 -154.5 -210t-182.5 -80l-18 69q64 15 112 45t93 91h-46q-23 0 -39 12.5t-20 34.5l-94 441h102l74 -395q3 -17 20 -17h50q2 4 6 11.5t7 14t6 12.5q88 183 124 374z" />
    <glyph glyph-name="uni0237" unicode="&#x237;" horiz-adv-x="251" 
d="M201 488l-70 -496q-7 -60 -39.5 -111.5t-82.5 -83.5l-53 45q67 68 79 155l70 491h96z" />
    <glyph glyph-name="uni0259" unicode="&#x259;" horiz-adv-x="539" 
d="M291 501q125 0 173 -65.5t30 -203.5q-19 -141 -77.5 -192.5t-192.5 -51.5q-114 0 -155 40t-30 118q12 71 56 102.5t135 37.5l169 15q1 70 -29 94.5t-94 24.5q-76 0 -180 -13l-6 65q70 29 201 29zM239 69q77 0 108 31t46 130l-163 -15q-46 -3 -67 -19.5t-27 -58.5
q-3 -25 0.5 -39t19.5 -20t32 -7.5t51 -1.5z" />
    <glyph glyph-name="uni02B9" unicode="&#x2b9;" horiz-adv-x="272" 
d="M280 756l-106 -216h-62l90 216h78z" />
    <glyph glyph-name="uni02BA" unicode="&#x2ba;" horiz-adv-x="407" 
d="M280 756l-106 -216h-62l90 216h78zM415 756l-106 -216h-61l89 216h78z" />
    <glyph glyph-name="uni02BB" unicode="&#x2bb;" horiz-adv-x="231" 
d="M139 517q-19 0 -26 8.5t-5 28.5l8 64q10 73 60 159l47 -16q-27 -84 -33 -122q15 1 23 -7.5t6 -23.5l-8 -58q-3 -19 -12 -26t-32 -7h-28z" />
    <glyph glyph-name="uni02BE" unicode="&#x2be;" horiz-adv-x="181" 
d="M79 579q29 0 45.5 17.5t16.5 45.5q0 49 -46 54l7 47q41 -2 66.5 -29t25.5 -68q0 -50 -33.5 -83t-87.5 -32z" />
    <glyph glyph-name="uni02BF" unicode="&#x2bf;" horiz-adv-x="181" 
d="M212 695q-29 0 -45 -17.5t-16 -44.5q0 -51 45 -54l-7 -48q-41 3 -66.5 29.5t-25.5 67.5q0 50 33.5 83t87.5 32z" />
    <glyph glyph-name="circumflex" unicode="&#x2c6;" horiz-adv-x="425" 
d="M312 714l124 -135l-35 -38l-120 101h-9l-149 -98l-27 41l147 129h69z" />
    <glyph glyph-name="caron" unicode="&#x2c7;" horiz-adv-x="425" 
d="M413 728l30 -41l-149 -129h-70l-117 135l39 35l112 -99h8z" />
    <glyph glyph-name="uni02C8" unicode="&#x2c8;" horiz-adv-x="215" 
d="M137 701h74l-24 -130h-73z" />
    <glyph glyph-name="uni02C9" unicode="&#x2c9;" horiz-adv-x="400" 
d="M402 677l-10 -71h-283l10 71h283z" />
    <glyph glyph-name="uni02CA" unicode="&#x2ca;" horiz-adv-x="321" 
d="M297 727l45 -75l-213 -117l-28 45z" />
    <glyph glyph-name="uni02CB" unicode="&#x2cb;" horiz-adv-x="321" 
d="M124 726l177 -147l-34 -44l-195 122z" />
    <glyph glyph-name="uni02CC" unicode="&#x2cc;" horiz-adv-x="214" 
d="M31 -49h74l-23 -129h-74z" />
    <glyph glyph-name="breve" unicode="&#x2d8;" horiz-adv-x="378" 
d="M357 700l48 -11q-5 -60 -50 -96.5t-116 -36.5q-76 0 -114 38.5t-25 98.5l49 3q-4 -33 19.5 -51t69.5 -18q51 0 82.5 19.5t36.5 53.5z" />
    <glyph glyph-name="dotaccent" unicode="&#x2d9;" horiz-adv-x="223" 
d="M186 687q14 0 22 -8.5t6 -21.5l-8 -56q-4 -27 -30 -27h-31q-14 0 -21 8.5t-5 22.5l7 55q4 27 29 27h31z" />
    <glyph glyph-name="ring" unicode="&#x2da;" horiz-adv-x="302" 
d="M212 743q46 0 75 -27t29 -71q0 -49 -32.5 -82t-83.5 -33q-45 0 -74 27t-29 71q0 50 32.5 82.5t82.5 32.5zM211 695q-28 0 -44.5 -17.5t-16.5 -44.5q0 -25 13.5 -39.5t39.5 -14.5q25 0 42 18t17 44q0 25 -13.5 39.5t-37.5 14.5z" />
    <glyph glyph-name="ogonek" unicode="&#x2db;" horiz-adv-x="251" 
d="M105 3l45 -3q-48 -51 -85 -115q-19 -33 -1 -43t65 6l12 -42q-40 -15 -71.5 -18.5t-50 4t-28.5 21.5t-8.5 33.5t12.5 41.5q30 58 110 115z" />
    <glyph glyph-name="tilde" unicode="&#x2dc;" horiz-adv-x="423" 
d="M189 702q34 -3 76.5 -26.5t66.5 -26.5q29 -4 42.5 8.5t17.5 41.5l44 -4q-1 -58 -26 -88t-64 -27t-83 27.5t-61 27.5q-28 3 -41.5 -10.5t-17.5 -44.5l-44 4q2 60 27.5 90.5t62.5 27.5z" />
    <glyph glyph-name="hungarumlaut" unicode="&#x2dd;" horiz-adv-x="463" 
d="M238 732l59 -43l-158 -160l-40 32zM407 732l59 -43l-159 -160l-39 32z" />
    <glyph glyph-name="acutecomb" unicode="&#x301;" horiz-adv-x="0" 
d="M-29 727l45 -75l-213 -117l-28 45z" />
    <glyph glyph-name="uni0302" unicode="&#x302;" horiz-adv-x="0" 
d="M-121 714l125 -135l-36 -38l-120 101h-8l-149 -98l-28 41l148 129h68z" />
    <glyph glyph-name="tildecomb" unicode="&#x303;" horiz-adv-x="0" 
d="M-237 702q34 -3 77 -26.5t67 -26.5q28 -4 41.5 8.5t17.5 41.5l44 -4q-1 -58 -26 -88t-63 -27q-40 3 -84 27.5t-61 27.5q-28 3 -41.5 -10.5t-17.5 -44.5l-44 4q2 60 27.5 90.5t62.5 27.5z" />
    <glyph glyph-name="uni0304" unicode="&#x304;" horiz-adv-x="0" 
d="M-13 677l-10 -71h-283l10 71h283z" />
    <glyph glyph-name="uni0306" unicode="&#x306;" horiz-adv-x="0" 
d="M-26 700l49 -11q-5 -60 -50 -96.5t-116 -36.5q-76 0 -114 38.5t-25 98.5l49 3q-4 -33 19.5 -51t69.5 -18q52 0 83 19.5t35 53.5z" />
    <glyph glyph-name="uni0307" unicode="&#x307;" horiz-adv-x="0" 
d="M-45 687q14 0 22 -8t6 -22l-8 -56q-5 -27 -30 -27h-31q-14 0 -21 8.5t-6 22.5l8 55q3 27 29 27h31z" />
    <glyph glyph-name="uni0308" unicode="&#x308;" horiz-adv-x="0" 
d="M-215 697q16 0 21.5 -6t3.5 -21l-9 -54q-3 -26 -29 -26h-32q-27 0 -24 25l9 55q3 27 31 27h29zM-48 697q16 0 21.5 -6t3.5 -21l-9 -54q-3 -26 -29 -26h-32q-27 0 -24 25l9 55q4 27 31 27h29z" />
    <glyph glyph-name="hookabovecomb" unicode="&#x309;" horiz-adv-x="0" 
d="M-134 597q73 14 73 76q0 46 -64 25l-2 55q59 18 96 -0.5t37 -67.5q0 -52 -37 -89.5t-100 -46.5z" />
    <glyph glyph-name="uni030A" unicode="&#x30a;" horiz-adv-x="0" 
d="M-98 743q46 0 75 -27t29 -71q0 -49 -32.5 -82t-83.5 -33q-45 0 -73.5 27t-28.5 71q0 50 32 82.5t82 32.5zM-99 695q-28 0 -44 -17.5t-16 -44.5q0 -25 13.5 -39.5t38.5 -14.5q26 0 43 18t17 44q0 25 -13.5 39.5t-38.5 14.5z" />
    <glyph glyph-name="uni030B" unicode="&#x30b;" horiz-adv-x="0" 
d="M-228 732l60 -43l-159 -160l-40 32zM-59 732l59 -43l-158 -160l-39 32z" />
    <glyph glyph-name="uni030C" unicode="&#x30c;" horiz-adv-x="0" 
d="M-15 728l29 -41l-149 -129h-70l-117 135l39 35l113 -99h8z" />
    <glyph glyph-name="uni030F" unicode="&#x30f;" horiz-adv-x="0" 
d="M-319 732l138 -171l-39 -32l-159 160zM-151 732l140 -171l-41 -32l-158 160z" />
    <glyph glyph-name="uni0311" unicode="&#x311;" horiz-adv-x="0" 
d="M-252 556l-48 11q5 60 50 96.5t116 36.5q76 0 114 -38.5t25 -98.5l-49 -3q4 33 -20 51t-70 18q-51 0 -82 -19.5t-36 -53.5z" />
    <glyph glyph-name="uni0312" unicode="&#x312;" horiz-adv-x="0" 
d="M-107 524q-26 0 -23 29l6 48q9 62 46 124l36 -12q-18 -46 -27 -96q12 1 18.5 -6t4.5 -17l-7 -44q-2 -15 -8.5 -20.5t-23.5 -5.5h-22z" />
    <glyph glyph-name="uni031B" unicode="&#x31b;" horiz-adv-x="0" 
d="M-215 402l4 48q42 3 71.5 31t40.5 70l66 -12q-14 -61 -67 -100t-115 -37z" />
    <glyph glyph-name="dotbelowcomb" unicode="&#x323;" horiz-adv-x="0" 
d="M-157 -49q14 0 21.5 -8.5t5.5 -22.5l-8 -55q-3 -27 -29 -27h-31q-14 0 -21 8.5t-6 21.5l7 56q4 27 30 27h31z" />
    <glyph glyph-name="uni0324" unicode="&#x324;" horiz-adv-x="0" 
d="M-320 -51q28 0 25 -27l-9 -55q-4 -26 -29 -26h-32q-28 0 -24 25l9 56q3 27 31 27h29zM-153 -51q29 0 25 -27l-9 -55q-4 -26 -29 -26h-32q-27 0 -24 25l9 56q5 27 31 27h29z" />
    <glyph glyph-name="uni0327" unicode="&#x327;" horiz-adv-x="0" 
d="M-196 -42q66 6 92.5 -8t18.5 -61q-10 -64 -62.5 -97t-125.5 -23l18 51q38 -1 66.5 18t34.5 51q2 14 -7.5 18.5t-46.5 5.5z" />
    <glyph glyph-name="uni0328" unicode="&#x328;" horiz-adv-x="0" 
d="M-151 3l45 -3q-46 -47 -85 -115q-28 -46 16 -46q18 0 48 9l12 -42q-40 -15 -71.5 -18.5t-50 4t-28.5 21.5t-9 33.5t12 41.5q30 57 111 115z" />
    <glyph glyph-name="uni032E" unicode="&#x32e;" horiz-adv-x="0" 
d="M-129 -39l48 -11q-5 -60 -50 -96.5t-116 -36.5q-76 0 -114 38.5t-25 98.5l49 4q-4 -33 20 -51.5t70 -18.5q51 0 82 19.5t36 53.5z" />
    <glyph glyph-name="uni0331" unicode="&#x331;" horiz-adv-x="0" 
d="M-110 -76l-10 -71h-283l10 71h283z" />
    <glyph glyph-name="uni0394" unicode="&#x394;" horiz-adv-x="631" 
d="M423 690l150 -650l-6 -40h-582l5 40l333 650h100zM361 593q-17 -49 -33 -80l-213 -432h350l-93 434q-6 31 -11 78z" />
    <glyph glyph-name="uni03A9" unicode="&#x3a9;" horiz-adv-x="715" 
d="M410 703q291 0 244 -332q-16 -107 -57 -171.5t-127 -119.5q32 8 65 8h101l-11 -88h-255l9 85q79 52 117 115.5t52 165.5q19 134 -13 191.5t-129 57.5q-100 0 -149.5 -60t-69.5 -199q-15 -104 4.5 -161t82.5 -112l-10 -83h-254l11 88h96q33 0 67 -7q-61 60 -87 131
t-12 168q22 164 99.5 243.5t225.5 79.5z" />
    <glyph glyph-name="uni03BC" unicode="&#x3bc;" horiz-adv-x="595" 
d="M506 63h40l-1 -59q-54 -14 -87 -14q-83 0 -72 86l3 22q-28 -47 -80 -79t-110 -32q-33 0 -62 13l-10 -70l-31 -127h-83l47 330q0 1 0.5 4t0.5 4l48 347h97l-48 -340q-4 -37 11 -53t53 -16q53 0 110 48t79 148l30 213h97l-52 -376q-4 -26 -0.5 -37.5t20.5 -11.5z" />
    <glyph glyph-name="pi" unicode="&#x3c0;" horiz-adv-x="640" 
d="M642 488l-11 -78h-90l-58 -410h-96l57 410h-215l-57 -410h-97l57 410h-90l11 78h589z" />
    <glyph glyph-name="uni0400" unicode="&#x400;" horiz-adv-x="560" 
d="M418 770l-34 -44l-195 122l52 69zM279 606q-32 0 -47.5 -14.5t-19.5 -50.5l-19 -140h291l-10 -77h-292l-24 -178q-4 -34 7.5 -48t44.5 -14h267l-2 -78q-86 -8 -277 -8q-80 0 -115.5 38.5t-26.5 106.5l59 427q8 58 47 90t105 32q207 0 297 -8l-13 -78h-272z" />
    <glyph glyph-name="uni0401" unicode="&#x401;" horiz-adv-x="560" 
d="M278 785q-27 0 -24 25l9 55q4 27 31 27h29q16 0 21.5 -6t3.5 -21l-9 -54q-3 -26 -29 -26h-32zM446 785q-27 0 -24 25l8 55q4 27 32 27h29q16 0 21 -6t3 -21l-9 -54q-1 -26 -28 -26h-32zM279 606q-32 0 -47.5 -14.5t-19.5 -50.5l-19 -140h291l-10 -77h-292l-24 -178
q-4 -34 7.5 -48t44.5 -14h267l-2 -78q-86 -8 -277 -8q-80 0 -115.5 38.5t-26.5 106.5l59 427q8 58 47 90t105 32q207 0 297 -8l-13 -78h-272z" />
    <glyph glyph-name="uni0402" unicode="&#x402;" horiz-adv-x="748" 
d="M556 444q80 0 120.5 -47t23.5 -167q-20 -133 -92 -186t-196 -49l-4 73q95 8 136 40.5t56 119.5q4 44 4 69.5t-13.5 39t-27.5 17.5t-36 4q-50 0 -90.5 -15t-98.5 -52l-41 -291h-100l84 601h-217l13 89h536l-12 -89h-220l-31 -224q97 67 206 67z" />
    <glyph glyph-name="uni0403" unicode="&#x403;" horiz-adv-x="516" 
d="M487 918l45 -75l-213 -117l-28 45zM262 692q201 0 289 -9l-14 -77h-246q-40 0 -55 -14t-21 -57l-75 -535h-100l78 558q9 65 47.5 99.5t96.5 34.5z" />
    <glyph glyph-name="uni0404" unicode="&#x404;" horiz-adv-x="574" 
d="M411 612q-58 0 -94 -8t-64.5 -31t-46 -64t-29.5 -108h289l-10 -77h-291q-15 -93 -4 -146.5t42.5 -74.5t97.5 -25q80 -4 194 10l5 -77q-95 -28 -201 -23q-157 7 -208 87.5t-26 273.5q27 202 103 277.5t235 75.5q101 0 179 -21l-16 -77q-79 8 -155 8z" />
    <glyph glyph-name="uni0405" unicode="&#x405;" horiz-adv-x="562" 
d="M332 702q120 0 207 -22l-11 -72q-103 5 -196 5q-34 0 -49.5 -0.5t-36.5 -5t-30.5 -14.5t-18 -29t-12.5 -48q-6 -49 6.5 -67t59.5 -35l132 -47q76 -27 100.5 -71.5t13.5 -124.5q-15 -110 -71.5 -146.5t-188.5 -36.5q-109 0 -213 20l13 74q156 -5 199 -5q88 1 120 19.5
t41 84.5q6 49 -7 67.5t-58 34.5l-135 48q-71 26 -97 73t-15 122q8 57 27 93t52.5 53.5t71 23.5t96.5 6z" />
    <glyph glyph-name="uni0406" unicode="&#x406;" horiz-adv-x="266" 
d="M240 690l-97 -690h-101l97 690h101z" />
    <glyph glyph-name="uni0407" unicode="&#x407;" horiz-adv-x="267" 
d="M145 872q16 0 21.5 -6t3.5 -21l-9 -54q-3 -26 -29 -26h-32q-27 0 -24 25l9 55q4 27 31 27h29zM313 872q16 0 21 -6t3 -21l-9 -54q-1 -26 -28 -26h-32q-27 0 -24 25l8 55q4 27 32 27h29zM240 690l-97 -690h-101l97 690h101z" />
    <glyph glyph-name="uni0408" unicode="&#x408;" horiz-adv-x="342" 
d="M318 690l-76 -541q-11 -78 -50.5 -118.5t-102.5 -39.5q-61 0 -99 14l19 71h46q76 0 87 72l75 542h101z" />
    <glyph glyph-name="uni0409" unicode="&#x409;" horiz-adv-x="974" 
d="M716 417q127 0 173.5 -49t29.5 -170q-16 -118 -69 -162t-169 -44q-165 0 -253 8h-1l86 609h-105q-38 0 -56.5 -15.5t-27.5 -56.5q-6 -28 -20.5 -92.5t-20 -85.5t-17 -65t-19.5 -65t-20.5 -49t-27.5 -51q-38 -60 -86.5 -91.5t-117.5 -39.5l-4 88q77 16 117 76
q10 16 18.5 32.5t15 30.5t14.5 38.5t12.5 40t13 50.5t13 55.5t15.5 70t18 79.5q15 67 52 99t101 32h242l-38 -273h131zM819 207q11 74 -9.5 101t-99.5 27h-137l-36 -255q36 -1 124 -1q85 0 116 25.5t42 102.5z" />
    <glyph glyph-name="uni040A" unicode="&#x40a;" horiz-adv-x="976" 
d="M719 417q127 0 173 -49t29 -170q-16 -119 -68.5 -162.5t-169.5 -43.5q-166 0 -254 8l47 334h-285l-47 -334h-101l97 690h101l-39 -274h285l39 274h99l-38 -273h132zM821 207q11 74 -9.5 101t-99.5 27h-137l-36 -255q36 -1 129 -1q82 0 112 25.5t41 102.5z" />
    <glyph glyph-name="uni040B" unicode="&#x40b;" horiz-adv-x="767" 
d="M571 444q166 0 144 -160l-40 -284h-100l38 268q7 50 -9.5 69t-67.5 19t-95 -15.5t-105 -54.5l-40 -286h-100l84 601h-217l13 89h536l-12 -89h-220l-31 -227q116 70 222 70z" />
    <glyph glyph-name="uni040C" unicode="&#x40c;" horiz-adv-x="601" 
d="M546 843l-213 -117l-28 45l196 147zM343 356q35 -5 60.5 -20.5t42.5 -39t30.5 -63t23.5 -82.5t24 -107q6 -29 9 -44h-101q-36 172 -47 206q-28 85 -81 105q-21 8 -49 8h-74q1 -29 -5 -73l-34 -246h-100l97 690h100l-31 -213q-6 -43 -16 -77h66q40 0 71 16t63.5 61.5
t49.5 77.5t57 113l11 22h103q-20 -42 -26.5 -56t-23.5 -49.5t-24.5 -48t-23 -40t-24.5 -38t-24.5 -30t-27.5 -27.5t-28 -19t-32.5 -15.5t-34.5 -6.5z" />
    <glyph glyph-name="uni040D" unicode="&#x40d;" horiz-adv-x="692" 
d="M286 917l177 -147l-34 -44l-195 122zM665 690l-97 -690h-96l65 465q7 45 20 102h-5q-34 -61 -46 -78l-354 -489h-110l97 690h97l-65 -465q-8 -52 -22 -102h5q18 34 50 80l352 487h109z" />
    <glyph glyph-name="uni040E" unicode="&#x40e;" horiz-adv-x="568" 
d="M349 744q-76 0 -114 38.5t-25 98.5l49 3q-4 -33 19.5 -51t69.5 -18q51 0 82.5 19.5t36.5 53.5l48 -11q-5 -60 -50 -96.5t-116 -36.5zM505 690h107l-255 -520q-40 -83 -81.5 -127.5t-100.5 -49.5q-62 -5 -131 16l16 72q36 -2 56 -3t40 2.5t29 7.5t22 18t20.5 26.5
t23.5 40.5l16 27h-33q-56 0 -67 51l-95 439h100l79 -393q3 -13 17 -13h41z" />
    <glyph glyph-name="uni040F" unicode="&#x40f;" horiz-adv-x="676" 
d="M547 690h101l-97 -690h-207l-25 -151h-70l17 151h-223l97 690h101l-86 -609h307z" />
    <glyph glyph-name="uni0410" unicode="&#x410;" horiz-adv-x="623" 
d="M477 0l-34 208h-276l-93 -208h-106l310 665q10 25 39 25h102q13 0 22.5 -8.5t10.5 -20.5l125 -661h-100zM206 296h222l-43 259q-4 20 -8 60h-30l-26 -60z" />
    <glyph glyph-name="uni0411" unicode="&#x411;" horiz-adv-x="597" 
d="M548 606l-321 -1l-29 -208h134q129 0 175 -45.5t30 -160.5q-17 -116 -69.5 -158t-169.5 -42q-154 0 -256 9l97 690q108 6 217 6q105 0 213 -6zM327 319h-140l-34 -241q36 -1 131 -1q82 0 112 24.5t41 99.5q9 72 -10.5 95t-99.5 23z" />
    <glyph glyph-name="uni0412" unicode="&#x412;" horiz-adv-x="620" 
d="M575 514q-11 -75 -43 -112t-95 -43l-1 -5q138 -11 112 -186q-16 -104 -68 -140t-172 -36q-175 0 -266 8l97 690q81 8 226 8q127 0 176 -40t34 -144zM334 396q72 0 103.5 24t41.5 90q9 63 -16 83t-103 20h-134l-30 -217h138zM451 193q10 74 -15.5 99.5t-106.5 26.5h-144
l-34 -241q39 -1 142 -1q82 0 115 23.5t43 92.5z" />
    <glyph glyph-name="uni0413" unicode="&#x413;" horiz-adv-x="516" 
d="M262 692q201 0 289 -9l-14 -77h-246q-40 0 -55 -14t-21 -57l-75 -535h-100l78 558q9 65 47.5 99.5t96.5 34.5z" />
    <glyph glyph-name="uni0414" unicode="&#x414;" horiz-adv-x="697" 
d="M553 81h86l-10 -74l-22 -158h-78l12 151h-473l-32 -151h-78l22 153l11 79h65q110 181 169 478q11 63 51.5 97t103.5 34h259zM166 81h288l74 528h-125q-69 0 -83 -72q-54 -285 -154 -456z" />
    <glyph glyph-name="uni0415" unicode="&#x415;" horiz-adv-x="560" 
d="M279 606q-32 0 -47.5 -14.5t-19.5 -50.5l-19 -140h291l-10 -77h-292l-24 -178q-4 -34 7.5 -48t44.5 -14h267l-2 -78q-86 -8 -277 -8q-80 0 -115.5 38.5t-26.5 106.5l59 427q8 58 47 90t105 32q207 0 297 -8l-13 -78h-272z" />
    <glyph glyph-name="uni0416" unicode="&#x416;" horiz-adv-x="906" 
d="M653 356q41 -5 68.5 -26.5t46 -66t31.5 -96t31 -136.5q4 -20 6 -31h-99q-5 23 -14 64q-10 47 -15 68.5t-14 55t-15.5 48.5t-18 35t-23.5 27.5t-28.5 14t-37.5 6.5h-71q2 -37 -3 -73l-34 -246h-96l35 250q7 38 16 69h-67q-24 0 -44.5 -7t-39.5 -24t-34.5 -35.5t-35 -53
t-35.5 -65t-42 -82.5l-26 -52h-106q4 8 11 24q86 182 125 237q61 86 142 98q5 1 9 1l1 4q-27 4 -48 15t-37.5 35.5t-27.5 45.5t-22.5 66t-18 73.5t-18.5 90.5h98q2 -10 6 -29q10 -51 15.5 -75t16 -61t20 -54.5t24 -36.5t32.5 -26.5t42 -7.5h72q0 45 5 80l29 210h96l-31 -213
q-4 -39 -15 -77h60q36 0 65 16.5t60.5 63t50.5 81.5t59 117q1 3 2 4t2 3.5t2 4.5h102q-78 -169 -106 -214q-60 -95 -137 -113q-10 -2 -20 -3z" />
    <glyph glyph-name="uni0417" unicode="&#x417;" horiz-adv-x="549" 
d="M297 698q119 0 170 -41t37 -143q-11 -75 -42.5 -112t-94.5 -43l-1 -5q135 -13 110 -186q-14 -102 -64.5 -139t-172.5 -37q-145 0 -240 24l12 72q110 -14 211 -14q78 0 111.5 24.5t43.5 94.5q10 73 -15.5 99t-103.5 26h-121l10 79h117q69 0 100 24t40 89q10 66 -13 86.5
t-100 20.5q-72 0 -185 -12l-3 77q84 16 194 16z" />
    <glyph glyph-name="uni0418" unicode="&#x418;" horiz-adv-x="692" 
d="M665 690l-97 -690h-96l65 465q7 45 20 102h-5q-34 -61 -46 -78l-354 -489h-110l97 690h97l-65 -465q-8 -52 -22 -102h5q18 34 50 80l352 487h109z" />
    <glyph glyph-name="uni0419" unicode="&#x419;" horiz-adv-x="692" 
d="M531 888l49 -11q-5 -60 -50 -96.5t-116 -36.5q-76 0 -114 38.5t-25 98.5l49 3q-4 -33 19.5 -51t69.5 -18q52 0 83 19.5t35 53.5zM665 690l-97 -690h-96l65 465q7 45 20 102h-5q-34 -61 -46 -78l-354 -489h-110l97 690h97l-65 -465q-8 -52 -22 -102h5q18 34 50 80l352 487
h109z" />
    <glyph glyph-name="uni041A" unicode="&#x41a;" horiz-adv-x="601" 
d="M343 356q35 -5 60.5 -20.5t42.5 -39t30.5 -63t23.5 -82.5t24 -107q6 -29 9 -44h-101q-36 172 -47 206q-28 85 -81 105q-21 8 -49 8h-74q1 -29 -5 -73l-34 -246h-100l97 690h100l-31 -213q-6 -43 -16 -77h66q40 0 71 16t63.5 61.5t49.5 77.5t57 113l11 22h103
q-20 -42 -26.5 -56t-23.5 -49.5t-24.5 -48t-23 -40t-24.5 -38t-24.5 -30t-27.5 -27.5t-28 -19t-32.5 -15.5t-34.5 -6.5z" />
    <glyph glyph-name="uni041B" unicode="&#x41b;" horiz-adv-x="654" 
d="M626 690l-97 -690h-100l86 609h-124q-39 0 -57.5 -16t-26.5 -56q-32 -140 -45 -191.5t-33 -111.5t-46 -105q-77 -134 -203 -131l-4 82q36 10 63 27.5t52 57.5q35 55 56.5 127.5t64.5 270.5q28 127 159 127h255z" />
    <glyph glyph-name="uni041C" unicode="&#x41c;" horiz-adv-x="880" 
d="M794 690q20 0 30 -11.5t8 -31.5l-63 -647h-99l63 607h-19l-209 -493q-13 -32 -46 -32h-87q-35 0 -40 36l-77 489h-20l-106 -607h-100l118 651q6 39 44 39h107q32 0 37 -36l65 -404q4 -23 11 -94h18q8 20 21.5 53.5t15.5 38.5l173 409q13 32 46 32z" />
    <glyph glyph-name="uni041D" unicode="&#x41d;" horiz-adv-x="668" 
d="M541 690h100l-97 -690h-100l46 324h-301l-46 -324h-101l97 690h101l-39 -279h301z" />
    <glyph glyph-name="uni041E" unicode="&#x41e;" 
d="M387 703q147 0 202 -82.5t27 -279.5q-27 -199 -97.5 -276.5t-219.5 -77.5q-147 0 -203.5 81.5t-29.5 280.5q26 196 97 275t224 79zM382 614q-100 0 -144.5 -57.5t-67.5 -215.5q-21 -152 6.5 -208.5t124.5 -56.5q98 0 143.5 58.5t67.5 214.5q22 155 -5.5 210t-124.5 55z
" />
    <glyph glyph-name="uni041F" unicode="&#x41f;" horiz-adv-x="670" 
d="M643 690l-97 -690h-101l86 609h-302l-86 -609h-101l97 690h504z" />
    <glyph glyph-name="uni0420" unicode="&#x420;" horiz-adv-x="590" 
d="M376 699q123 0 169.5 -51t29.5 -171q-10 -68 -27 -109.5t-47.5 -65t-70.5 -32t-103 -8.5q-70 0 -147 9l-38 -271h-100l97 690q86 9 237 9zM476 485q11 76 -12 102t-92 26q-105 0 -144 -1l-37 -264h132q79 0 110 28t43 109z" />
    <glyph glyph-name="uni0421" unicode="&#x421;" horiz-adv-x="568" 
d="M383 702q107 0 191 -21l-16 -76q-79 8 -177 8q-67 0 -105.5 -22t-64.5 -81t-41 -169q-22 -150 5 -206.5t120 -57.5q112 -1 199 11l5 -77q-83 -23 -206 -23q-149 0 -202 85.5t-25 275.5q27 196 97 274.5t220 78.5z" />
    <glyph glyph-name="uni0422" unicode="&#x422;" horiz-adv-x="576" 
d="M612 690l-12 -89h-220l-84 -601h-100l84 601h-217l13 89h536z" />
    <glyph glyph-name="uni0423" unicode="&#x423;" horiz-adv-x="568" 
d="M505 690h107l-255 -520q-40 -83 -81.5 -127.5t-100.5 -49.5q-62 -5 -131 16l16 72q36 -2 56 -3t40 2.5t29 7.5t22 18t20.5 26.5t23.5 40.5l16 27h-33q-56 0 -67 51l-95 439h100l79 -393q3 -13 17 -13h41z" />
    <glyph glyph-name="uni0424" unicode="&#x424;" horiz-adv-x="819" 
d="M512 640q168 -8 231 -74.5t41 -218.5t-101 -215.5t-254 -69.5l-13 -97h-100l13 97q-170 8 -232 74t-40 219q21 153 100 216.5t254 68.5l13 97h101zM683 355q15 111 -24.5 154t-163.5 47l-58 -410q123 6 176 51.5t70 157.5zM158 347q-15 -112 24 -154.5t163 -46.5l58 410
q-124 -6 -176.5 -51t-68.5 -158z" />
    <glyph glyph-name="uni0425" unicode="&#x425;" horiz-adv-x="613" 
d="M636 690l-225 -333l140 -357h-102l-121 320h-25l-208 -320h-116l242 357l-129 333h102l109 -294h26l197 294h110z" />
    <glyph glyph-name="uni0426" unicode="&#x426;" horiz-adv-x="691" 
d="M635 690l-86 -609h85l-11 -81l-21 -151h-78l13 151h-494l97 690h101l-86 -609h294l86 609h100z" />
    <glyph glyph-name="uni0427" unicode="&#x427;" horiz-adv-x="626" 
d="M499 690h100l-97 -690h-100l46 324q-61 -37 -124.5 -56.5t-110.5 -19.5q-83 0 -118 39.5t-24 121.5l40 281h100l-36 -265q-8 -48 8.5 -68t65.5 -20q52 0 99 16.5t111 53.5z" />
    <glyph glyph-name="uni0428" unicode="&#x428;" horiz-adv-x="933" 
d="M808 690h98l-97 -690h-767l97 690h98l-86 -609h237l86 609h97l-86 -609h237z" />
    <glyph glyph-name="uni0429" unicode="&#x429;" horiz-adv-x="958" 
d="M901 690l-86 -609h85l-11 -81l-21 -151h-78l12 151h-759l97 690h98l-86 -609h234l86 609h98l-86 -609h233l86 609h98z" />
    <glyph glyph-name="uni042A" unicode="&#x42a;" horiz-adv-x="741" 
d="M484 417q126 0 172.5 -49t30.5 -170q-16 -118 -69 -162t-169 -44q-166 0 -255 8l84 601h-216l12 89h317l-38 -273h131zM587 207q11 74 -9.5 101t-99.5 27h-137l-36 -255q36 -1 129 -1q82 0 112 25.5t41 102.5z" />
    <glyph glyph-name="uni042B" unicode="&#x42b;" horiz-adv-x="853" 
d="M335 417q126 0 172.5 -49t30.5 -170q-16 -118 -69 -162t-170 -44q-167 0 -257 8l97 690h101l-38 -273h133zM725 690h101l-97 -690h-101zM438 207q10 74 -10.5 101t-98.5 27h-139l-36 -255q36 -1 130 -1q82 0 112.5 25.5t41.5 102.5z" />
    <glyph glyph-name="uni042C" unicode="&#x42c;" horiz-adv-x="592" 
d="M335 417q126 0 172.5 -49t30.5 -170q-16 -118 -69 -162t-170 -44q-167 0 -257 8l98 690h101l-39 -273h133zM438 207q10 74 -10.5 101t-98.5 27h-138l-37 -255q36 -1 130 -1q82 0 112.5 25.5t41.5 102.5z" />
    <glyph glyph-name="uni042D" unicode="&#x42d;" horiz-adv-x="578" 
d="M274 702q164 0 221 -79.5t30 -281.5q-25 -194 -97.5 -271t-225.5 -82q-112 -4 -200 25l15 75q91 -14 186 -10q100 5 147 58t69 189h-293l10 77h294q7 40 4 71t-6 53.5t-15 37.5t-23.5 24.5t-32.5 15t-41.5 7t-49.5 1.5q-82 0 -165 -8l-4 78q78 20 177 20z" />
    <glyph glyph-name="uni042E" unicode="&#x42e;" horiz-adv-x="930" 
d="M648 703q145 0 202.5 -82t29.5 -280q-29 -201 -99 -277.5t-222 -76.5q-140 0 -191 74.5t-29 256.5h-150l-45 -318h-101l97 690h101l-41 -291h151q30 170 97.5 237t199.5 67zM775 349q21 151 -6 208t-121 57q-95 0 -140.5 -59.5t-67.5 -213.5q-21 -151 4.5 -208t116.5 -57
q99 0 145.5 59.5t68.5 213.5z" />
    <glyph glyph-name="uni042F" unicode="&#x42f;" horiz-adv-x="613" 
d="M341 699q144 0 245 -9l-97 -690h-101l39 277q-15 0 -60 -0.5t-76 -0.5q-36 0 -59.5 -16t-39.5 -55l-85 -205h-109l91 214q46 94 112 98l1 4q-44 8 -70.5 39t-34 71.5t-0.5 86.5q14 102 72 144t172 42zM297 362h142l35 250q-37 1 -132 1q-70 0 -102 -24.5t-42 -88.5
q-10 -68 12.5 -103t86.5 -35z" />
    <glyph glyph-name="uni0430" unicode="&#x430;" horiz-adv-x="578" 
d="M291 501q118 0 238 -26l-67 -475h-76l4 90q-90 -102 -211 -102q-89 0 -120 58t-10 204q11 81 31 132.5t53 76.5t68 33.5t90 8.5zM199 72q47 0 91.5 25t98.5 78l35 243q-92 2 -103 2q-52 0 -79.5 -5t-48 -25.5t-29.5 -52.5t-18 -94q-14 -109 -4 -140t57 -31z" />
    <glyph glyph-name="uni0431" unicode="&#x431;" horiz-adv-x="574" 
d="M541 726l9 -86q-55 -21 -127.5 -29.5t-95.5 -14.5q-39 -10 -66 -24.5t-44 -37t-26 -41.5t-20 -51q-2 -6 -6.5 -21.5t-8.5 -28t-6 -20.5h2q28 46 70.5 73.5t120.5 27.5q111 0 147 -61t23 -176q-15 -131 -74 -189.5t-179 -58.5q-48 0 -83.5 9t-58 23.5t-36.5 39.5t-20 48.5
t-6 60.5t3 65t9 72q10 70 20 115t26.5 90t39.5 73t58 51t83 38q35 10 113.5 21.5t132.5 31.5zM318 391q-83 0 -115.5 -36.5t-43.5 -120.5q-12 -92 10 -128.5t93 -36.5q68 0 102 37t48 135q13 89 -6.5 119.5t-87.5 30.5z" />
    <glyph glyph-name="uni0432" unicode="&#x432;" horiz-adv-x="544" 
d="M487 363q-18 -88 -129 -100l-1 -3q70 -5 96.5 -39.5t16.5 -103.5q-11 -72 -60.5 -101t-165.5 -29q-45 0 -77 4t-58 15.5t-40.5 30t-22.5 48t-7 70t9 95.5q12 80 31 129.5t51.5 76.5t72.5 36t104 9q30 0 53 -2t52.5 -10t46.5 -21.5t26 -40.5t2 -64zM268 293q69 7 94.5 23
t31.5 45q9 36 -14 49t-87 13q-72 0 -99.5 -25t-43.5 -117zM376 145q6 48 -17.5 67t-94.5 12l-125 -13q-4 -34 -5 -57t3.5 -39.5t11 -26t20 -14.5t27.5 -6.5t37 -1.5q74 0 105 16t38 63z" />
    <glyph glyph-name="uni0433" unicode="&#x433;" horiz-adv-x="520" 
d="M276 501q32 0 62 0.5t56.5 -6.5t45.5 -18.5t28.5 -35t5.5 -57.5q-12 -95 -124 -141q-2 -1 -23 -9l-141 -56q-34 -15 -48.5 -27.5t-16.5 -32.5q-3 -30 16.5 -39t64.5 -8q123 3 238 39l3 -79q-112 -44 -239 -44q-93 0 -140 32t-39 101q6 50 37.5 81.5t95.5 56.5l129 50
q51 18 71.5 34t22.5 40q2 25 -20 33t-92 5q-78 -4 -193 -28l-2 77q90 27 202 32z" />
    <glyph glyph-name="uni0434" unicode="&#x434;" horiz-adv-x="567" 
d="M163 712q51 -6 92 -16t82 -26.5t69.5 -39.5t54 -55.5t36.5 -74.5t16 -97t-7 -123q-21 -149 -79.5 -221t-187.5 -72q-114 0 -159.5 57.5t-29.5 177.5q29 227 225 227q88 0 140 -51q-1 54 -15 94t-34.5 64t-58.5 41.5t-71 25.5t-88 18zM245 68q76 0 110.5 50.5t51.5 172.5
q4 31 5 43q-50 33 -115 33q-69 0 -102.5 -37t-44.5 -115q-12 -80 10.5 -113.5t84.5 -33.5z" />
    <glyph glyph-name="uni0435" unicode="&#x435;" horiz-adv-x="539" 
d="M315 501q114 0 155 -40t30 -118q-12 -71 -56 -102.5t-135 -38.5l-169 -15q0 -69 30 -93.5t93 -24.5q68 0 180 12l6 -65q-71 -28 -201 -28q-125 0 -173 65.5t-30 203.5q19 141 77.5 192.5t192.5 51.5zM403 351q6 47 -15.5 58t-87.5 11q-76 0 -107.5 -31.5t-46.5 -129.5
l163 15q46 3 67 19.5t27 57.5z" />
    <glyph glyph-name="uni0436" unicode="&#x436;" horiz-adv-x="757" 
d="M531 252q64 -8 89 -51t58 -173q4 -18 7 -28h-92q-34 134 -48 164q-24 49 -74 53h-10h-53q1 -24 -2 -48l-23 -169h-87l25 173q2 14 10 44h-50q-53 -1 -87 -42t-102 -167q-3 -5 -4 -8h-99q7 13 20 38q29 56 42.5 80.5t34.5 56t37.5 44t39.5 23t52 13.5l1 3q-28 4 -48 15.5
t-33 26t-24.5 47.5t-18 59.5t-18.5 81.5h92q26 -113 48.5 -155.5t75.5 -42.5h53q-1 28 3 58l19 140h87l-21 -144q-5 -34 -12 -54h42q53 0 88.5 42.5t95.5 155.5h96q-21 -41 -27.5 -54t-23 -44t-24 -41t-22 -30t-24 -27t-24.5 -17.5t-30.5 -14.5t-33.5 -6z" />
    <glyph glyph-name="uni0437" unicode="&#x437;" horiz-adv-x="500" 
d="M232 497q122 0 171.5 -28t38.5 -107q-8 -54 -34.5 -80t-84.5 -31l-1 -2q63 -5 87.5 -37t15.5 -95q-11 -78 -58.5 -102t-166.5 -24q-125 0 -201 16l12 73q96 -8 184 -8q78 0 103.5 13.5t31.5 59.5q5 40 -16.5 53.5t-89.5 14.5l-123 2l8 69h118q63 0 89 15.5t32 57.5
q5 38 -15.5 48.5t-99.5 10.5t-157 -8l-3 72q63 17 159 17z" />
    <glyph glyph-name="uni0438" unicode="&#x438;" horiz-adv-x="573" 
d="M429 488h96l-68 -488h-75l6 102q-119 -115 -222 -115q-67 0 -97 36t-21 100l51 365h98l-49 -340q-6 -43 5.5 -60.5t45.5 -17.5q41 0 80.5 24.5t106.5 84.5z" />
    <glyph glyph-name="uni0439" unicode="&#x439;" horiz-adv-x="573" 
d="M323 564q-74 0 -110.5 40.5t-23.5 100.5h73q-12 -88 69 -88q77 0 91 88h72q-3 -60 -50.5 -100.5t-120.5 -40.5zM429 488h96l-68 -488h-75l6 102q-119 -115 -222 -115q-67 0 -97 36t-21 100l51 365h98l-49 -340q-6 -43 5.5 -60.5t45.5 -17.5q41 0 80.5 24.5t106.5 84.5z
" />
    <glyph glyph-name="uni043A" unicode="&#x43a;" horiz-adv-x="536" 
d="M304 252q70 -7 96 -49.5t57 -169.5q5 -22 8 -33h-96q-3 12 -9 33q-28 113 -47 142q-26 40 -87 41h-70q2 -25 -2 -48l-24 -168h-96l69 488h96l-20 -143q-3 -17 -13 -54h59q64 0 100 42t92 155h103q-65 -131 -104 -178t-111 -56z" />
    <glyph glyph-name="uni043B" unicode="&#x43b;" horiz-adv-x="567" 
d="M520 488l-69 -488h-97l58 413h-93q-30 0 -46 -14t-25 -49q-32 -136 -80 -248q-25 -60 -67.5 -84.5t-107.5 -22.5l-7 79q49 9 64 21q18 13 32 43q30 66 77 236q15 59 46.5 86.5t89.5 27.5h225z" />
    <glyph glyph-name="uni043C" unicode="&#x43c;" horiz-adv-x="750" 
d="M654 488q17 0 26.5 -10.5t7.5 -27.5l-44 -450h-88l39 415h-15l-158 -331q-13 -29 -39 -29h-76q-28 0 -35 33l-67 327h-17l-75 -415h-89l82 454q6 34 39 34h97q27 0 34 -33l53 -260q10 -56 12 -77h16q18 50 29 72l130 269q13 29 40 29h98z" />
    <glyph glyph-name="uni043D" unicode="&#x43d;" horiz-adv-x="582" 
d="M439 488h96l-69 -488h-96l31 222h-240l-31 -222h-96l69 488h95l-27 -192h241z" />
    <glyph glyph-name="uni043E" unicode="&#x43e;" horiz-adv-x="569" 
d="M309 501q126 0 173.5 -60.5t28.5 -200.5q-19 -138 -79 -195.5t-184 -57.5t-173 60.5t-30 199.5q19 138 78.5 196t185.5 58zM309 419q-77 0 -112.5 -37t-50.5 -142q-14 -100 7 -136t95 -36q78 0 113.5 38.5t49.5 140.5q14 101 -7 136.5t-95 35.5z" />
    <glyph glyph-name="uni043F" unicode="&#x43f;" horiz-adv-x="584" 
d="M406 501q62 0 94 -35.5t22 -101.5l-52 -364h-96l47 340q6 46 -3.5 62.5t-41.5 16.5q-41 0 -85 -24.5t-118 -81.5l-42 -313h-97l69 488h77l-6 -105q133 118 232 118z" />
    <glyph glyph-name="uni0440" unicode="&#x440;" horiz-adv-x="580" 
d="M389 500q58 0 89 -22t43 -80.5t-4 -159.5q-11 -82 -31 -133t-52 -76.5t-66 -33.5t-87 -8q-69 0 -154 13q0 -35 -7 -93l-18 -107h-97l98 688h77l-6 -105q47 49 106 83t109 34zM419 245q14 109 3.5 140t-56.5 31q-33 0 -84.5 -28.5t-106.5 -78.5l-33 -241q46 -1 103 -1
q52 0 79 5t47.5 25t29.5 53t18 95z" />
    <glyph glyph-name="uni0441" unicode="&#x441;" horiz-adv-x="490" 
d="M309 501q98 0 160 -26l-15 -60q-60 4 -130 4q-88 0 -126.5 -35.5t-51.5 -142.5t11.5 -139.5t107.5 -32.5q85 0 147 11l6 -66q-75 -26 -171 -26q-129 0 -175.5 60t-26.5 200t79 196.5t185 56.5z" />
    <glyph glyph-name="uni0442" unicode="&#x442;" horiz-adv-x="875" 
d="M700 501q64 0 93 -36.5t20 -100.5l-51 -364h-96l48 340q6 44 -7 61.5t-45 17.5q-35 0 -70.5 -22.5t-102.5 -85.5l-44 -311h-94l48 340q5 42 -6 60.5t-46 18.5q-36 0 -71.5 -22t-101.5 -83l-44 -314h-96l69 488h74l-5 -104q113 117 211 117q55 0 85 -29t30 -80
q108 109 202 109z" />
    <glyph glyph-name="uni0443" unicode="&#x443;" horiz-adv-x="547" 
d="M432 488h100q-45 -213 -138 -404q-47 -98 -98 -163t-98.5 -92t-97.5 -36.5t-96 2.5l9 79q64 -12 120.5 16t112.5 110h-50q-23 0 -39 12.5t-20 34.5l-94 441h102l74 -395q3 -17 20 -17h52l18 37q90 181 123 375z" />
    <glyph glyph-name="uni0444" unicode="&#x444;" horiz-adv-x="720" 
d="M435 500q140 -8 192.5 -69t34.5 -191q-17 -130 -85.5 -187.5t-214.5 -63.5l-26 -188h-89l25 188q-141 8 -193.5 68.5t-34.5 189.5q18 131 87 189t214 64l28 200h89zM569 247q13 92 -19.5 129.5t-130.5 41.5l-50 -348q98 6 142.5 45.5t57.5 131.5zM137 240
q-13 -92 20 -128.5t131 -41.5l49 348q-97 -6 -141.5 -46t-58.5 -132z" />
    <glyph glyph-name="uni0445" unicode="&#x445;" horiz-adv-x="531" 
d="M528 488l-181 -236l123 -252h-97l-103 216h-21l-163 -216h-108l196 253l-114 235h97l90 -197h27l149 197h105z" />
    <glyph glyph-name="uni0446" unicode="&#x446;" horiz-adv-x="600" 
d="M487 72h53l-10 -72l-22 -149h-82l31 149q-36 2 -56.5 25.5t-16.5 67.5v6q-118 -112 -220 -112q-66 0 -96 36.5t-21 99.5l51 365h97l-49 -340q-6 -43 6 -60.5t46 -17.5q41 0 81 24t106 83l42 311h96l-54 -394q-2 -22 18 -22z" />
    <glyph glyph-name="uni0447" unicode="&#x447;" horiz-adv-x="540" 
d="M395 488h98l-69 -488h-97l30 214q-101 -48 -184 -48q-70 -1 -101 27t-23 83l30 212h97l-25 -183q-6 -36 5 -48t49 -12q74 0 163 52z" />
    <glyph glyph-name="uni0448" unicode="&#x448;" horiz-adv-x="855" 
d="M711 488h96l-69 -488h-74l5 103q-107 -116 -203 -116q-55 0 -84.5 29t-28.5 80q-103 -109 -194 -109q-63 0 -92 36.5t-20 99.5l51 365h96l-48 -340q-6 -39 7.5 -55.5t47.5 -16.5q35 0 62 18.5t100 83.5l43 310h93l-47 -340q-6 -38 5.5 -55t47.5 -17t65 19t98 79z" />
    <glyph glyph-name="uni0449" unicode="&#x449;" horiz-adv-x="883" 
d="M771 72h52l-10 -72l-21 -149h-82l35 149q-38 1 -59.5 24.5t-17.5 68.5l1 10q-107 -116 -203 -116q-55 0 -84.5 29t-28.5 80q-103 -109 -194 -109q-63 0 -92 36.5t-20 99.5l51 365h96l-48 -340q-6 -39 7.5 -55.5t47.5 -16.5q35 0 62 18.5t100 83.5l43 310h93l-47 -340
q-6 -38 5.5 -55t47.5 -17q37 0 65.5 19t98.5 81l42 312h96l-54 -394q-2 -22 18 -22z" />
    <glyph glyph-name="uni044A" unicode="&#x44a;" horiz-adv-x="630" 
d="M389 304q115 0 155 -35t26 -124t-58 -120.5t-142 -31.5q-20 0 -33.5 0.5t-34 2t-35 4.5t-31.5 9.5t-28.5 14.5t-22 21t-14.5 29.5t-4 38.5t7 49l68 249h-204l10 77h306l-52 -197q47 13 87 13zM473 156q8 45 -10 61.5t-78 16.5q-50 0 -101 -14l-20 -74q-10 -45 15 -61
t75 -16q60 0 85 17.5t34 69.5z" />
    <glyph glyph-name="uni044B" unicode="&#x44b;" horiz-adv-x="724" 
d="M271 304q115 0 154 -34.5t27 -124.5q-12 -88 -56.5 -120t-143.5 -32q-22 0 -33 0.5t-34 1.5t-36.5 5t-33 10t-30.5 17t-21.5 25t-14 35t-0.5 47l51 354h93l-29 -203q57 19 107 19zM579 488h97l-68 -488h-98zM355 156q7 45 -11 61.5t-78 16.5q-52 0 -111 -16l-12 -85
q-6 -39 18 -51.5t75 -12.5q61 0 86.5 18t32.5 69z" />
    <glyph glyph-name="uni044C" unicode="&#x44c;" horiz-adv-x="512" 
d="M271 304q115 0 154 -34.5t27 -124.5q-13 -89 -57.5 -120.5t-151.5 -31.5q-109 0 -157 33t-36 115l50 347h93l-29 -203q57 19 107 19zM355 156q7 45 -11 61.5t-78 16.5q-52 0 -111 -16l-12 -85q-6 -39 18 -51.5t75 -12.5q61 0 86.5 18t32.5 69z" />
    <glyph glyph-name="uni044D" unicode="&#x44d;" horiz-adv-x="509" 
d="M220 495q142 0 194.5 -55.5t33.5 -201.5q-18 -142 -80.5 -196.5t-201.5 -52.5q-97 1 -164 22l13 67q74 -6 141 -6q95 -3 134.5 25.5t55.5 116.5h-246l10 69h245q7 84 -23 107.5t-117 23.5q-75 0 -143 -5l-4 68q58 18 152 18z" />
    <glyph glyph-name="uni044E" unicode="&#x44e;" horiz-adv-x="799" 
d="M537 501q127 0 174.5 -57t27.5 -203q-20 -144 -77.5 -197t-185.5 -53q-118 0 -163 49t-33 174h-119l-30 -214h-96l68 488h97l-28 -199h119q23 121 78.5 166.5t167.5 45.5zM639 249q14 99 -8 134.5t-97 35.5q-76 0 -110.5 -38t-47.5 -139q-14 -99 6.5 -134.5t92.5 -35.5
q79 0 115 38.5t49 138.5z" />
    <glyph glyph-name="uni044F" unicode="&#x44f;" horiz-adv-x="540" 
d="M492 487h1l-69 -487h-95l25 178h-113q-77 0 -95 -49l-47 -130l-98 1l50 143q14 36 44 53t63 15l1 4q-106 20 -90 136q9 88 62 115.5t173 27.5q103 0 188 -7zM239 250h125l24 165q-34 1 -121 1q-58 0 -79 -15t-27 -62q-6 -49 10 -69t68 -20z" />
    <glyph glyph-name="uni0450" unicode="&#x450;" horiz-adv-x="539" 
d="M363 591l-34 -44l-195 122l52 69zM315 501q114 0 155 -40t30 -118q-12 -71 -56 -102.5t-135 -38.5l-169 -15q0 -69 30 -93.5t93 -24.5q68 0 180 12l6 -65q-71 -28 -201 -28q-125 0 -173 65.5t-30 203.5q19 141 77.5 192.5t192.5 51.5zM403 351q6 47 -15.5 58t-87.5 11
q-76 0 -107.5 -31.5t-46.5 -129.5l163 15q46 3 67 19.5t27 57.5z" />
    <glyph glyph-name="uni0451" unicode="&#x451;" horiz-adv-x="539" 
d="M223 586q-27 0 -24 25l9 55q4 27 31 27h29q16 0 21.5 -6t3.5 -21l-9 -54q-3 -26 -29 -26h-32zM391 586q-27 0 -24 25l8 55q4 27 32 27h29q16 0 21 -6t3 -21l-9 -54q-1 -26 -28 -26h-32zM315 501q114 0 155 -40t30 -118q-12 -71 -56 -102.5t-135 -38.5l-169 -15
q0 -69 30 -93.5t93 -24.5q68 0 180 12l6 -65q-71 -28 -201 -28q-125 0 -173 65.5t-30 203.5q19 141 77.5 192.5t192.5 51.5zM403 351q6 47 -15.5 58t-87.5 11q-76 0 -107.5 -31.5t-46.5 -129.5l163 15q46 3 67 19.5t27 57.5z" />
    <glyph glyph-name="uni0452" unicode="&#x452;" horiz-adv-x="598" 
d="M407 404q68 0 98.5 -35t21.5 -101l-39 -276q-9 -60 -41.5 -111.5t-81.5 -83.5l-52 45q67 70 79 155l35 247q5 42 -8.5 58t-55.5 16q-38 0 -78.5 -19.5t-103.5 -63.5l-31 -235h-98l68 484h-67l7 64h70l21 152h97l-21 -152h185l-8 -64h-186l-10 -75q-9 -61 -19 -96
q118 91 218 91z" />
    <glyph glyph-name="uni0453" unicode="&#x453;" horiz-adv-x="520" 
d="M401 739l45 -75l-213 -117l-28 45zM276 501q32 0 62 0.5t56.5 -6.5t45.5 -18.5t28.5 -35t5.5 -57.5q-12 -95 -124 -141q-2 -1 -23 -9l-141 -56q-34 -15 -48.5 -27.5t-16.5 -32.5q-3 -30 16.5 -39t64.5 -8q123 3 238 39l3 -79q-112 -44 -239 -44q-93 0 -140 32t-39 101
q6 50 37.5 81.5t95.5 56.5l129 50q51 18 71.5 34t22.5 40q2 25 -20 33t-92 5q-78 -4 -193 -28l-2 77q90 27 202 32z" />
    <glyph glyph-name="uni0454" unicode="&#x454;" horiz-adv-x="506" 
d="M329 414q-88 0 -125 -25.5t-54 -105.5h247l-9 -69h-248q-1 -30 -2.5 -52t6.5 -37.5t16.5 -25t28 -15.5t39.5 -8.5t53 -3.5q47 -2 146 6l6 -68q-79 -21 -173 -21q-126 0 -180 58t-35 199q20 143 82.5 196t199.5 53q100 0 157 -20l-13 -66q-82 5 -142 5z" />
    <glyph glyph-name="uni0455" unicode="&#x455;" horiz-adv-x="511" 
d="M266 501q114 -2 208 -17l-11 -69q-126 4 -195 5q-65 0 -88 -7t-27 -36q-3 -25 10 -37t48 -28l133 -60q60 -28 82 -57.5t15 -83.5q-4 -33 -17 -55.5t-30.5 -35.5t-48 -20t-60 -9t-75.5 -2q-48 0 -75.5 1.5t-61 6t-52.5 6.5l11 72q55 -5 152 -5q93 0 125 10t37 40q1 5 1 10
t-0.5 8.5t-3 7t-4 6t-5.5 5.5t-7 5t-9 5t-9.5 4.5t-11 5t-12.5 5.5l-131 60q-55 26 -78 58.5t-16 83.5q8 67 57 93t149 24z" />
    <glyph glyph-name="uni0456" unicode="&#x456;" horiz-adv-x="255" 
d="M205 696q14 0 21 -8t5 -22l-7 -56q-4 -27 -30 -27h-46q-14 0 -21.5 8.5t-5.5 22.5l8 56q3 26 30 26h46zM203 488l-68 -488h-96l68 488h96z" />
    <glyph glyph-name="uni0457" unicode="&#x457;" horiz-adv-x="252" 
d="M113 693q16 0 21.5 -6t3.5 -21l-9 -54q-3 -26 -29 -26h-32q-27 0 -24 25l9 55q4 27 31 27h29zM281 693q16 0 21 -6t3 -21l-9 -54q-1 -26 -28 -26h-32q-27 0 -24 25l8 55q4 27 32 27h29zM202 488l-69 -488h-97l69 488h97z" />
    <glyph glyph-name="uni0458" unicode="&#x458;" horiz-adv-x="255" 
d="M205 696q14 0 21 -8t5 -22l-7 -56q-4 -27 -30 -27h-46q-14 0 -21.5 8.5t-5.5 22.5l8 56q3 26 30 26h46zM203 488l-70 -496q-8 -60 -40.5 -111.5t-82.5 -83.5l-52 45q67 70 79 155l70 491h96z" />
    <glyph glyph-name="uni0459" unicode="&#x459;" horiz-adv-x="806" 
d="M582 304q105 0 140 -37.5t24 -121.5q-13 -90 -57 -120t-142 -32q-102 -2 -155 27t-45 114l40 281h-75q-53 0 -66 -51q-27 -119 -43 -170t-44 -97q-59 -100 -169 -100l-4 76q53 7 90 56q25 33 39 76t39 149q2 8 2.5 12t2.5 10.5t3 12.5q24 99 121 99h202l-29 -205
q59 21 126 21zM649 156q7 45 -10.5 61.5t-70.5 16.5q-57 0 -122 -19l-12 -82q-5 -38 18.5 -51t75.5 -13q64 0 89 17.5t32 69.5z" />
    <glyph glyph-name="uni045A" unicode="&#x45a;" horiz-adv-x="815" 
d="M575 304q114 0 153 -34.5t26 -124.5q-12 -88 -56 -120t-142 -32q-24 0 -37 0.5t-39 3t-41.5 7.5t-35 15t-29.5 24.5t-16 38t-3 52.5l14 100h-213l-33 -234h-89l69 488h89l-26 -184h213l27 184h91l-29 -204q60 20 107 20zM658 156q6 45 -11.5 61.5t-75.5 16.5
q-54 0 -113 -17l-12 -84q-5 -39 18.5 -51.5t75.5 -12.5q60 0 85.5 17.5t32.5 69.5z" />
    <glyph glyph-name="uni045B" unicode="&#x45b;" horiz-adv-x="580" 
d="M407 404q68 0 98.5 -35t21.5 -101l-38 -268h-97l35 244q5 42 -8.5 58t-55.5 16q-38 0 -78.5 -19.5t-102.5 -63.5l-32 -235h-98l68 484h-67l7 64h70l21 152h97l-21 -152h185l-8 -64h-186l-13 -94q-7 -46 -16 -77q118 91 218 91z" />
    <glyph glyph-name="uni045C" unicode="&#x45c;" horiz-adv-x="536" 
d="M491 664l-213 -117l-28 45l196 147zM304 252q70 -7 96 -49.5t57 -169.5q5 -22 8 -33h-96q-3 12 -9 33q-28 113 -47 142q-26 40 -87 41h-70q2 -25 -2 -48l-24 -168h-96l69 488h96l-20 -143q-3 -17 -13 -54h59q64 0 100 42t92 155h103q-65 -131 -104 -178t-111 -56z" />
    <glyph glyph-name="uni045D" unicode="&#x45d;" horiz-adv-x="573" 
d="M377 591l-34 -44l-195 122l52 69zM429 488h96l-68 -488h-75l6 102q-119 -115 -222 -115q-67 0 -97 36t-21 100l51 365h98l-49 -340q-6 -43 5.5 -60.5t45.5 -17.5q41 0 80.5 24.5t106.5 84.5z" />
    <glyph glyph-name="uni045E" unicode="&#x45e;" horiz-adv-x="547" 
d="M295 564q-74 0 -110.5 40.5t-23.5 100.5h73q-12 -88 69 -88q77 0 91 88h72q-3 -60 -50.5 -100.5t-120.5 -40.5zM432 488h100q-45 -213 -138 -404q-47 -98 -98 -163t-98.5 -92t-97.5 -36.5t-96 2.5l9 79q64 -12 120.5 16t112.5 110h-50q-23 0 -39 12.5t-20 34.5l-94 441
h102l74 -395q3 -17 20 -17h52l18 37q90 181 123 375z" />
    <glyph glyph-name="uni045F" unicode="&#x45f;" horiz-adv-x="573" 
d="M429 488h96l-68 -488h-75l6 102q-119 -115 -222 -115q-66 0 -96 36.5t-21 99.5l51 365h97l-49 -340q-6 -43 6 -60.5t46 -17.5q41 0 81 24.5t106 84.5zM194 -231l37 190h64l-18 -190h-83z" />
    <glyph glyph-name="uni0462" unicode="&#x462;" horiz-adv-x="629" 
d="M370 417q127 0 173 -49t29 -170q-16 -119 -68.5 -162.5t-169.5 -43.5q-167 0 -257 8l77 542h-110l11 73h110l16 114h100l-16 -114h242l-11 -73h-241l-18 -125h133zM472 207q11 74 -9.5 101t-99.5 27h-138l-36 -255q36 -1 130 -1q82 0 112 25.5t41 102.5z" />
    <glyph glyph-name="uni0463" unicode="&#x463;" horiz-adv-x="511" 
d="M271 304q115 0 154 -34.5t27 -124.5q-12 -88 -56.5 -120t-143.5 -32q-118 0 -166 33.5t-37 107.5l41 290h-81l8 64h82l29 202h94l-29 -202h178l-9 -64h-178l-19 -139q55 19 106 19zM355 156q7 45 -11 61.5t-78 16.5q-52 0 -111 -16l-12 -85q-6 -39 18 -51.5t75 -12.5
q61 0 86.5 18t32.5 69z" />
    <glyph glyph-name="uni046A" unicode="&#x46a;" horiz-adv-x="862" 
d="M-45 0q36 74 57 116t47.5 88.5t47 69t47 45.5t56 32t65 14.5t83.5 5.5v5l-244 314h726l-327 -314v-5q51 0 87 -6t65 -28t46.5 -42.5t36.5 -73t30.5 -93.5t33.5 -128h-105q-17 80 -28 124t-27 83.5t-28 55t-37 27.5t-49 14t-69 2q0 -37 -6 -71l-32 -235h-96l33 235
q2 17 14 71q-44 0 -68 -2t-52.5 -13.5t-45.5 -28t-43.5 -55t-50.5 -83.5t-63 -124h-104zM441 412l211 202h-371z" />
    <glyph glyph-name="uni046B" unicode="&#x46b;" horiz-adv-x="687" 
d="M-33 0q80 147 110 184q45 56 112 70q29 6 73 8v3l-192 224h611l-251 -224l-1 -3q48 -2 77 -9.5t50.5 -23.5t36 -45t27.5 -69.5t29 -101.5q2 -9 3 -13h-103q-14 56 -22.5 84.5t-20 56.5t-20 38.5t-25.5 19.5t-33 10t-46 1q-1 -27 -5 -51l-21 -159h-93l22 159q1 4 10 51
q-30 0 -47 -1t-36.5 -10.5t-30.5 -19.5t-30.5 -38.5t-35.5 -56.5t-46 -84h-102zM349 288l151 132h-265z" />
    <glyph glyph-name="uni0472" unicode="&#x472;" 
d="M387 703q147 0 202 -82.5t27 -279.5q-27 -199 -97.5 -276.5t-219.5 -77.5q-147 0 -203.5 81.5t-29.5 280.5q26 196 97 275t224 79zM382 614q-93 0 -137.5 -48.5t-67.5 -178.5h340q16 131 -14 179t-121 48zM301 76q92 0 137 51t68 184h-340q-16 -133 13.5 -184t121.5 -51z
" />
    <glyph glyph-name="uni0473" unicode="&#x473;" horiz-adv-x="569" 
d="M315 501q127 0 172 -58.5t25 -199.5q-20 -140 -81 -198t-188 -58t-172 58t-25 198t81 199t188 59zM304 419q-70 0 -103 -30.5t-49 -111.5h263q7 81 -17.5 111.5t-93.5 30.5zM254 68q71 0 104.5 32.5t48.5 119.5h-263q-10 -87 14 -119.5t96 -32.5z" />
    <glyph glyph-name="uni0474" unicode="&#x474;" horiz-adv-x="653" 
d="M212 0q-30 0 -34 28l-111 662h103l79 -537q5 -24 9 -76h27q4 12 14 36.5t16 39.5l171 441q41 110 166 110q23 0 51 -5l-10 -73q-14 2 -29 2q-34 0 -52.5 -12t-32.5 -45l-228 -543q-12 -28 -41 -28h-98z" />
    <glyph glyph-name="uni0475" unicode="&#x475;" horiz-adv-x="544" 
d="M177 0q-24 0 -29 25l-105 464h101l69 -366q4 -18 8 -54h22q4 10 11.5 27t11.5 27l124 284q42 92 138 92q29 0 49 -5l-10 -70q-10 2 -22 2q-29 0 -46 -10t-29 -37l-164 -354q-12 -25 -38 -25h-91z" />
    <glyph glyph-name="uni048A" unicode="&#x48a;" horiz-adv-x="692" 
d="M417 744q-76 0 -114 38.5t-25 98.5l49 3q-4 -33 19.5 -51t69.5 -18q52 0 83 19.5t35 53.5l49 -11q-5 -60 -50 -96.5t-116 -36.5zM578 69l88 9l-20 -78l-62 -129h-55l54 129l-104 -20l2 20h-9l65 465q7 45 20 102h-5q-34 -61 -46 -78l-354 -489h-110l97 690h97l-65 -465
q-8 -52 -22 -102h5q18 34 50 80l352 487h109z" />
    <glyph glyph-name="uni048B" unicode="&#x48b;" horiz-adv-x="573" 
d="M324 564q-74 0 -110.5 40.5t-23.5 100.5h73q-12 -88 69 -88q77 0 91 88h72q-3 -60 -50.5 -100.5t-120.5 -40.5zM466 66l68 9l-17 -75l-61 -123h-57l52 123l-65 -19l2 19h-6l6 102q-119 -115 -222 -115q-67 0 -97 36t-21 100l51 365h98l-49 -340q-6 -43 5.5 -60.5
t45.5 -17.5q41 0 80.5 24.5t106.5 84.5l43 309h96z" />
    <glyph glyph-name="uni048C" unicode="&#x48c;" horiz-adv-x="630" 
d="M377 417q126 0 172.5 -49t30.5 -170q-16 -118 -69 -162t-170 -44q-167 0 -257 8l72 509h-111l11 74h111l15 107h101l-15 -107h240l-11 -74h-240l-13 -92h133zM480 207q10 74 -10.5 101t-98.5 27h-138l-37 -255q36 -1 130 -1q82 0 112.5 25.5t41.5 102.5z" />
    <glyph glyph-name="uni048D" unicode="&#x48d;" horiz-adv-x="511" 
d="M271 304q115 0 154 -34.5t27 -124.5q-12 -88 -56.5 -120t-143.5 -32q-118 0 -166 33.5t-37 107.5l41 290h-81l8 64h82l29 202h94l-29 -202h178l-9 -64h-178l-19 -139q55 19 106 19zM355 156q7 45 -11 61.5t-78 16.5q-52 0 -111 -16l-12 -85q-6 -39 18 -51.5t75 -12.5
q61 0 86.5 18t32.5 69z" />
    <glyph glyph-name="uni048E" unicode="&#x48e;" horiz-adv-x="583" 
d="M588 243l-39 -39l-80 79q-46 -21 -142 -21q-70 0 -147 9l-38 -271h-100l97 690q86 9 237 9q123 0 169.5 -51t29.5 -171q-16 -114 -60 -162zM323 348q48 0 73 8l-79 78l38 40l88 -87q22 28 33 98q11 76 -12 102t-92 26q-105 0 -144 -1l-37 -264h132z" />
    <glyph glyph-name="uni048F" unicode="&#x48f;" horiz-adv-x="617" 
d="M515 238q-21 -150 -76 -203l73 -104l-45 -32l-74 105q-40 -17 -114 -17q-69 0 -154 13q0 -47 -7 -93l-17 -107h-97l98 688h76l-5 -103q48 48 106.5 81.5t107.5 33.5q88 0 118 -56t10 -206zM323 198l60 -84q20 33 34 131q14 109 3.5 140t-55.5 31q-33 0 -85 -28.5
t-107 -78.5l-32 -241q46 -1 102 -1q69 0 97 11l-62 88z" />
    <glyph glyph-name="uni0490" unicode="&#x490;" horiz-adv-x="522" 
d="M513 841h68l-26 -166l-12 -69h-251q-38 0 -54.5 -14t-22.5 -57l-75 -535h-100l78 558q9 65 47 99.5t97 34.5q149 0 219 -7z" />
    <glyph glyph-name="uni0491" unicode="&#x491;" horiz-adv-x="457" 
d="M418 633h66l-23 -151l-11 -68h-206q-58 0 -67 -60l-49 -354h-96l54 384q15 107 120 107q121 0 182 -4z" />
    <glyph glyph-name="uni0492" unicode="&#x492;" horiz-adv-x="536" 
d="M328 606q-40 0 -55 -14t-21 -57l-24 -171h203l-10 -72h-203l-41 -292h-100l41 292h-120l10 72h120l27 194q9 65 47.5 99.5t96.5 34.5q201 0 289 -9l-14 -77h-246z" />
    <glyph glyph-name="uni0493" unicode="&#x493;" horiz-adv-x="467" 
d="M250 414q-57 0 -64 -57l-15 -104h157l-8 -63h-158l-27 -190h-96l27 190h-79l7 63h81l18 130q15 108 127 108q181 0 259 -9l-12 -68h-217z" />
    <glyph glyph-name="uni0494" unicode="&#x494;" horiz-adv-x="583" 
d="M391 444q32 0 55 -6.5t46 -24t33.5 -49t15.5 -81.5t-7 -122q-11 -76 -33 -133.5t-48.5 -92.5t-63.5 -59t-71.5 -35t-78.5 -18l-10 70q47 10 76.5 23.5t56.5 42t44 77.5t28 125q7 52 7 87.5t-5 57.5t-18.5 33.5t-29.5 15t-42 3.5q-72 0 -162 -47l-44 -311h-100l78 556
q8 60 50.5 98t99.5 38q193 0 279 -9l-15 -77h-242q-36 0 -52.5 -15t-21.5 -54l-21 -147q97 54 196 54z" />
    <glyph glyph-name="uni0495" unicode="&#x495;" horiz-adv-x="537" 
d="M355 290q74 0 113.5 -44.5t23.5 -164.5q-11 -77 -37.5 -131.5t-67 -86t-83 -47.5t-98.5 -24l-9 70q91 16 136.5 65t60.5 151q8 56 -1 85.5t-27 37.5t-51 8q-66 0 -141 -40l-24 -169h-96l54 383q15 108 126 108q161 0 232 -9l-14 -68h-188q-56 0 -63 -57l-17 -117
q84 50 171 50z" />
    <glyph glyph-name="uni0496" unicode="&#x496;" horiz-adv-x="961" 
d="M927 81l-10 -74l-22 -158h-69l12 151h-110q-5 23 -14 64q-10 47 -15 68.5t-14 55t-15.5 48.5t-18 35t-23.5 27.5t-28.5 14t-37.5 6.5h-71q2 -37 -3 -73l-34 -246h-96l35 250q7 38 16 69h-67q-24 0 -44.5 -7t-39.5 -24t-34.5 -35.5t-35 -53t-35.5 -65t-42 -82.5l-26 -52
h-106q4 8 11 24q86 182 125 237q61 86 142 98q5 1 9 1l1 4q-27 4 -48 15t-37.5 35.5t-27.5 45.5t-22.5 66t-18 73.5t-18.5 90.5h98q2 -10 6 -29q10 -51 15.5 -75t16 -61t20 -54.5t24 -36.5t32.5 -26.5t42 -7.5h72q0 45 5 80l29 210h96l-31 -213q-4 -39 -15 -77h60
q36 0 65 16.5t60.5 63t50.5 81.5t59 117q1 3 2 4t2 3.5t2 4.5h102q-78 -169 -106 -214q-60 -95 -137 -113q-10 -2 -20 -3l-1 -4q30 -4 53 -17.5t39 -34t29.5 -57t23 -72.5t21.5 -94h117z" />
    <glyph glyph-name="uni0497" unicode="&#x497;" horiz-adv-x="820" 
d="M531 252q58 -7 83.5 -43t50.5 -131h76l-31 -222h-64l11 144h-64q-34 134 -48 164q-24 49 -74 53h-10h-53q1 -24 -2 -48l-23 -169h-87l25 173q2 14 10 44h-50q-53 -1 -87 -42t-102 -167q-3 -5 -4 -8h-99q7 13 20 38q29 56 42.5 80.5t34.5 56t37.5 44t39.5 23t52 13.5l1 3
q-28 4 -48 15.5t-33 26t-24.5 47.5t-18 59.5t-18.5 81.5h92q26 -113 48.5 -155.5t75.5 -42.5h53q-1 28 3 58l19 140h87l-21 -144q-5 -34 -12 -54h42q53 0 88.5 42.5t95.5 155.5h96q-21 -41 -27.5 -54t-23 -44t-24 -41t-22 -30t-24 -27t-24.5 -17.5t-30.5 -14.5t-33.5 -6z
" />
    <glyph glyph-name="uni0498" unicode="&#x498;" horiz-adv-x="549" 
d="M297 698q119 0 170 -41t37 -143q-11 -75 -42.5 -112t-94.5 -43l-1 -5q135 -13 110 -186q-14 -102 -64.5 -139t-172.5 -37q-145 0 -240 24l12 72q110 -14 211 -14q78 0 111.5 24.5t43.5 94.5q10 73 -15.5 99t-103.5 26h-121l10 79h117q69 0 100 24t40 89q10 66 -13 86.5
t-100 20.5q-72 0 -185 -12l-3 77q84 16 194 16zM182 -42q67 6 93.5 -8t17.5 -61q-10 -64 -62 -97t-125 -23l18 51q38 -2 66.5 18t33.5 51q3 14 -6.5 18.5t-46.5 5.5z" />
    <glyph glyph-name="uni0499" unicode="&#x499;" horiz-adv-x="500" 
d="M232 497q122 0 171.5 -28t38.5 -107q-8 -54 -34.5 -80t-84.5 -31l-1 -2q63 -5 87.5 -37t15.5 -95q-11 -78 -58.5 -102t-166.5 -24q-125 0 -201 16l12 73q96 -8 184 -8q78 0 103.5 13.5t31.5 59.5q5 40 -16.5 53.5t-89.5 14.5l-123 2l8 69h118q63 0 89 15.5t32 57.5
q5 38 -15.5 48.5t-99.5 10.5t-157 -8l-3 72q63 17 159 17zM158 -42q67 6 93.5 -8t17.5 -61q-10 -64 -62 -97t-125 -23l18 51q38 -2 66.5 18t33.5 51q3 14 -6.5 18.5t-46.5 5.5z" />
    <glyph glyph-name="uni049A" unicode="&#x49a;" horiz-adv-x="632" 
d="M343 356q33 -4 57.5 -18.5t41 -34.5t30.5 -57t23 -72t21 -95h81l-14 -99l-16 -111h-75l9 111h-60l3 20h-12q-36 172 -47 206q-28 85 -81 105q-21 8 -49 8h-74q1 -29 -5 -73l-34 -246h-100l97 690h100l-31 -213q-6 -43 -16 -77h66q40 0 71 16t63.5 61.5t49.5 77.5t57 113
l11 22h103q-20 -42 -26.5 -56t-23.5 -49.5t-24.5 -48t-23 -40t-24.5 -38t-24.5 -30t-27.5 -27.5t-28 -19t-32.5 -15.5t-34.5 -6.5z" />
    <glyph glyph-name="uni049B" unicode="&#x49b;" horiz-adv-x="536" 
d="M445 78h93l-31 -222h-64l11 144h-85q-3 12 -9 33q-28 113 -47 142q-26 40 -87 41h-70q2 -25 -2 -48l-24 -168h-96l69 488h96l-20 -143q-3 -17 -13 -54h59q64 0 100 42t92 155h103q-65 -131 -104 -178t-111 -56l-1 -2q64 -6 90.5 -42.5t50.5 -131.5z" />
    <glyph glyph-name="uni049C" unicode="&#x49c;" horiz-adv-x="602" 
d="M344 358q19 -2 35.5 -7.5t29.5 -12.5t24.5 -21.5t19.5 -25t16.5 -33.5t14 -38t13 -46.5t11.5 -50.5t13 -59.5t14 -63.5h-105q-36 173 -50 213q-26 75 -73 96l-20 -143h-64l21 153h-63q0 -40 -4 -71l-34 -248h-100l96 690h100l-30 -212q-6 -40 -18 -78h65l21 153h64
l-20 -140q22 10 44 31t36.5 40t37.5 61t34 64.5t39 80.5h101q-3 -7 -10 -20q-77 -164 -116 -217q-61 -82 -143 -91v-4z" />
    <glyph glyph-name="uni049D" unicode="&#x49d;" horiz-adv-x="540" 
d="M312 253q21 -2 36.5 -6.5t29 -14t23 -17.5t19 -27.5t15 -32t13.5 -43.5t12.5 -50t13.5 -62h-101q-10 44 -15 62.5t-13.5 48t-14.5 41.5t-16 27t-21.5 22t-26.5 11l-13 -95h-55l14 99h-47q0 -24 -3 -45l-23 -171h-96l68 488h96l-20 -141q-5 -30 -13 -56h48l15 105h55
l-14 -99q43 12 73.5 54t76.5 137h100q-22 -44 -31.5 -61.5t-26.5 -48.5t-27 -43t-26 -30.5t-30 -25.5t-33 -14t-41 -10z" />
    <glyph glyph-name="uni049E" unicode="&#x49e;" horiz-adv-x="651" 
d="M399 356q35 -5 60.5 -20.5t42.5 -39t30.5 -63t23.5 -82.5t24 -107q6 -29 9 -44h-101q-36 172 -47 206q-28 85 -81 105q-21 8 -49 8h-74q1 -29 -5 -73l-34 -246h-100l77 550h-128l10 72h128l10 68h100l-10 -68h140l-11 -72h-139l-11 -73q-6 -43 -16 -77h66q40 0 71 16
t63.5 61.5t49.5 77.5t57 113q2 5 3.5 7.5t3.5 6.5l4 8h103q-20 -42 -26.5 -56t-23.5 -49.5t-24.5 -48t-23 -40t-24.5 -38t-24.5 -30t-27.5 -27.5t-28 -19t-32.5 -15.5t-34.5 -6.5z" />
    <glyph glyph-name="uni049F" unicode="&#x49f;" horiz-adv-x="541" 
d="M298 253q27 -3 46.5 -9.5t35 -23t25 -31t20.5 -49t17 -60t18 -80.5h-101q-11 49 -17 71.5t-16 53.5t-18 43t-22 25.5t-30.5 18t-39.5 4.5h-66q1 -22 -2 -45l-23 -171h-96l75 541h-72l7 64h74l12 85h96l-12 -85h177l-7 -64h-179l-27 -194q-5 -30 -13 -56h61q64 0 100.5 42
t92.5 155h99q-66 -132 -104 -178t-111 -55v-2z" />
    <glyph glyph-name="uni04A0" unicode="&#x4a0;" horiz-adv-x="732" 
d="M480 356q35 -5 60.5 -20.5t42.5 -39t30.5 -63t23.5 -82.5t24 -107q6 -29 9 -44h-101q-36 172 -47 206q-28 85 -81 105q-21 8 -49 8h-74q1 -29 -5 -73l-34 -246h-100l85 604h-193l12 83h193v3h100l-31 -213q-6 -43 -16 -77h66q40 0 71 16t63.5 61.5t49.5 77.5t57 113
q2 5 3.5 7.5t3.5 6.5l4 8h103q-20 -42 -26.5 -56t-23.5 -49.5t-24.5 -48t-23 -40t-24.5 -38t-24.5 -30t-27.5 -27.5t-28 -19t-32.5 -15.5t-34.5 -6.5z" />
    <glyph glyph-name="uni04A1" unicode="&#x4a1;" horiz-adv-x="633" 
d="M405 253q27 -3 46.5 -9.5t35 -23t25 -31t20.5 -49t17 -60t18 -80.5h-102q-30 132 -53.5 173.5t-87.5 42.5h-67q1 -22 -2 -45l-24 -171h-96l57 412h-168l10 76h265l-19 -141q-5 -30 -13 -56h61q64 0 101 42.5t92 154.5h99q-66 -132 -104 -178t-110 -55z" />
    <glyph glyph-name="uni04A2" unicode="&#x4a2;" horiz-adv-x="690" 
d="M558 79h86l-12 -88l-17 -122h-80l9 111h-88l3 20h-12l46 324h-301l-46 -324h-101l97 690h101l-39 -279h301l39 279h100z" />
    <glyph glyph-name="uni04A3" unicode="&#x4a3;" horiz-adv-x="582" 
d="M477 78h71l-30 -222h-64l11 144h-95l31 222h-240l-31 -222h-96l69 488h95l-27 -192h241l27 192h96z" />
    <glyph glyph-name="uni04A4" unicode="&#x4a4;" horiz-adv-x="861" 
d="M651 692q171 0 245 -9l-15 -77h-209q-36 0 -52.5 -15t-21.5 -54l-76 -537h-99l46 325h-281l-46 -325h-100l97 690h100l-39 -279h281l20 145q9 61 51 98.5t99 37.5z" />
    <glyph glyph-name="uni04A5" unicode="&#x4a5;" horiz-adv-x="763" 
d="M548 491q159 0 227 -9l-12 -68h-185q-57 0 -64 -57l-51 -357h-96l31 222h-230l-31 -222h-95l69 488h95l-27 -192h230l12 87q15 108 127 108z" />
    <glyph glyph-name="uni04A6" unicode="&#x4a6;" horiz-adv-x="989" 
d="M796 444q26 0 46.5 -4t41 -15.5t33 -31.5t22 -51.5t8.5 -76t-8 -104.5q-13 -91 -41 -154.5t-70.5 -98.5t-84 -51.5t-98.5 -24.5l-9 70q63 13 98.5 33.5t63 74.5t41.5 151q7 52 7.5 87.5t-5 57.5t-18.5 33.5t-29 15t-42 3.5q-74 0 -162 -47l-44 -311h-101l86 609h-303
l-86 -609h-100l97 690h504l-42 -300q96 54 195 54z" />
    <glyph glyph-name="uni04A7" unicode="&#x4a7;" horiz-adv-x="864" 
d="M685 356q75 0 116 -53t24 -178q-40 -297 -293 -333l-9 69q90 17 138 75t67 189q12 83 -10.5 115t-77.5 32q-61 0 -137 -41l-33 -231h-96l47 340q6 46 -3.5 62.5t-41.5 16.5q-41 0 -85 -24.5t-118 -81.5l-42 -313h-97l69 488h77l-6 -105q133 118 232 118q62 0 94 -35.5
t22 -101.5l-8 -54q84 46 171 46z" />
    <glyph glyph-name="uni04A8" unicode="&#x4a8;" horiz-adv-x="860" 
d="M805 17q-56 -29 -149 -29q-84 0 -149 33q-84 -33 -174 -33q-148 0 -219.5 91t-45.5 290q23 182 103.5 258.5t217.5 76.5l-11 -85q-29 0 -53 -5.5t-50.5 -23t-45.5 -47t-35 -80.5t-23 -120q-3 -27 -4 -47.5t1 -50t8 -51.5t21 -46t36.5 -39.5t57 -25.5t80.5 -10q29 0 64 5
q-95 113 -60 342q21 142 80 211t165 69q105 0 145.5 -67t22.5 -201q-31 -235 -182 -353q32 -7 72 -7q73 0 126 10zM478 411q-34 -221 53 -296q120 79 151 304q13 99 -4.5 145t-69.5 46q-54 0 -84.5 -49t-45.5 -150z" />
    <glyph glyph-name="uni04A9" unicode="&#x4a9;" horiz-adv-x="692" 
d="M663 27q-50 -36 -146 -36q-61 0 -113 29q-70 -29 -146 -29q-128 0 -179.5 66t-32.5 205q18 128 79.5 183.5t176.5 55.5l-10 -72q-64 0 -100.5 -40.5t-47.5 -126.5q-15 -106 20 -152.5t125 -46.5q28 0 55 6q-76 88 -56 227q28 205 201 205q171 0 143 -205
q-19 -140 -145 -231q20 -6 41 -6q81 0 129 17zM382 295q-18 -129 44 -194q96 60 115 195q10 73 -5 102t-57 29q-41 0 -64 -31t-33 -101z" />
    <glyph glyph-name="uni04AA" unicode="&#x4aa;" horiz-adv-x="568" 
d="M381 613q-67 0 -105.5 -22t-64.5 -81t-41 -169q-22 -150 5 -206.5t120 -57.5q112 -1 199 11l5 -77q-75 -20 -168 -23l-24 -139h-68l15 141q-125 10 -169.5 96t-18.5 263q27 196 97 274.5t220 78.5q107 0 191 -21l-16 -76q-79 8 -177 8z" />
    <glyph glyph-name="uni04AB" unicode="&#x4ab;" horiz-adv-x="486" 
d="M322 419q-88 0 -126.5 -35.5t-51.5 -142.5t11.5 -139.5t107.5 -32.5q85 0 147 11l7 -66q-65 -23 -151 -26l-28 -153h-65l14 156q-95 13 -128 73.5t-15 183.5q19 140 78 196.5t185 56.5q98 0 160 -26l-15 -60q-60 4 -130 4z" />
    <glyph glyph-name="uni04AC" unicode="&#x4ac;" horiz-adv-x="576" 
d="M600 601h-220l-73 -522h86l-12 -88l-17 -122h-80l9 111h-88l3 20h-12l84 601h-217l13 89h536z" />
    <glyph glyph-name="uni04AD" unicode="&#x4ad;" horiz-adv-x="872" 
d="M772 78h71l-31 -222h-64l11 144h-95l48 340q6 44 -7 61.5t-45 17.5q-35 0 -69.5 -22t-104.5 -87l-43 -310h-93l47 340q6 42 -5 60.5t-47 18.5t-70.5 -22t-103.5 -84l-43 -313h-96l69 488h74l-5 -104q114 117 211 117q56 0 85.5 -29t29.5 -81q57 58 105 84t97 26
q64 0 93.5 -36.5t20.5 -100.5z" />
    <glyph glyph-name="uni04AE" unicode="&#x4ae;" horiz-adv-x="571" 
d="M617 690l-291 -450l-34 -240h-101l35 242l-163 448h101l99 -285q14 -44 18 -80h9q13 41 40 83l178 282h109z" />
    <glyph glyph-name="uni04AF" unicode="&#x4af;" horiz-adv-x="584" 
d="M595 488l-292 -452l-33 -238h-101l35 242l-164 448h102l99 -285q14 -43 18 -80h9q13 41 40 83l178 282h109z" />
    <glyph glyph-name="uni04B0" unicode="&#x4b0;" horiz-adv-x="582" 
d="M625 690l-266 -412h128l-11 -73h-147l-29 -205h-100l29 205h-148l11 73h129l-151 412h104l98 -285q11 -34 18 -80l9 4q28 59 40 79l179 282h107z" />
    <glyph glyph-name="uni04B1" unicode="&#x4b1;" horiz-adv-x="584" 
d="M595 488l-265 -410h128l-8 -63h-150l-30 -217h-101l31 217h-145l8 63h127l-150 410h102l99 -285q14 -43 18 -80h9q13 41 40 83l178 282h109z" />
    <glyph glyph-name="uni04B2" unicode="&#x4b2;" horiz-adv-x="672" 
d="M646 79l-14 -99l-16 -111h-79l9 111h-88l3 20h-12l-121 320h-25l-208 -320h-116l242 357l-129 333h102l109 -294h26l197 294h110l-225 -333l109 -278h126z" />
    <glyph glyph-name="uni04B3" unicode="&#x4b3;" horiz-adv-x="531" 
d="M347 252l85 -174h87l-31 -222h-64l12 144h-63l-103 216h-21l-163 -216h-108l196 253l-114 235h97l90 -197h27l149 197h105z" />
    <glyph glyph-name="uni04B4" unicode="&#x4b4;" horiz-adv-x="825" 
d="M683 81h85l-10 -74l-22 -158h-69l12 151h-512l84 601h-188l13 89h501l-13 -89h-212l-73 -520h303l86 609h101z" />
    <glyph glyph-name="uni04B5" unicode="&#x4b5;" horiz-adv-x="719" 
d="M644 140l-18 -133h51l-21 -152h-68l10 145h-438l57 413h-164l10 75h421l-10 -75h-111l-38 -273h207l48 348h98l-48 -348h14z" />
    <glyph glyph-name="uni04B6" unicode="&#x4b6;" horiz-adv-x="666" 
d="M609 690l-87 -621h85l-9 -69l-22 -151h-77l12 151h-99l45 319q-125 -71 -245 -71q-79 0 -115.5 40t-24.5 121l40 281h100l-36 -265q-8 -49 9 -69.5t71 -20.5q93 0 213 71l40 284h100z" />
    <glyph glyph-name="uni04B7" unicode="&#x4b7;" horiz-adv-x="566" 
d="M503 78l-10 -73l-21 -149h-90l35 144h-90l30 214q-101 -48 -184 -48q-70 -1 -101 27t-23 83l30 212h97l-25 -183q-6 -36 5 -48t49 -12q75 0 164 52l27 191h97l-60 -410h70z" />
    <glyph glyph-name="uni04B8" unicode="&#x4b8;" horiz-adv-x="626" 
d="M499 690h100l-97 -690h-100l46 324q-56 -35 -119 -55l-21 -149h-64l19 132q-24 -4 -50 -4q-83 0 -118 39.5t-24 121.5l40 281h100l-36 -265q-8 -48 8.5 -68t65.5 -20q18 0 26 1l25 173h63l-23 -160q45 14 119 56z" />
    <glyph glyph-name="uni04B9" unicode="&#x4b9;" horiz-adv-x="540" 
d="M397 488h97l-68 -488h-97l28 199q-37 -11 -82 -21l-14 -99h-55l13 90q-28 -3 -51 -3q-126 0 -111 108l30 214h95l-25 -181q-4 -34 8 -48t46 -14h18l19 134h55l-18 -127q37 6 82 24z" />
    <glyph glyph-name="uni04BA" unicode="&#x4ba;" horiz-adv-x="636" 
d="M439 442q79 0 116 -40.5t24 -120.5l-39 -281h-101l38 265q7 49 -10 69.5t-71 20.5q-92 0 -213 -71l-40 -284h-101l97 690h101l-45 -319q128 71 244 71z" />
    <glyph glyph-name="uni04BB" unicode="&#x4bb;" horiz-adv-x="580" 
d="M404 501q62 0 94 -35.5t22 -101.5l-52 -364h-96l47 340q6 46 -3.5 62.5t-41.5 16.5q-42 0 -86 -25t-117 -83l-42 -311h-97l99 700h96l-25 -192q-9 -61 -23 -120q127 113 225 113z" />
    <glyph glyph-name="uni04BC" unicode="&#x4bc;" horiz-adv-x="726" 
d="M502 703q119 0 170.5 -53t35.5 -166q-13 -97 -64.5 -137t-158.5 -40h-209q-3 -51 -5 -87.5t8 -62t21.5 -41.5t35 -24.5t48.5 -11.5t63 -3q85 0 168 11l-3 -74q-73 -26 -198 -26q-82 0 -133.5 18t-79 57t-33.5 99.5t3 144.5h-11q-88 0 -120 42.5t-8 137.5h80
q-30 -100 57 -100h13q31 179 100.5 247.5t219.5 68.5zM604 488q10 68 -19 97.5t-101 29.5q-87 0 -131 -48.5t-66 -179.5h184q63 0 94 22.5t39 78.5z" />
    <glyph glyph-name="uni04BD" unicode="&#x4bd;" horiz-adv-x="632" 
d="M401 501q111 0 156.5 -41t34.5 -123q-21 -140 -139 -140h-219q-4 -76 25 -102t103 -26q66 0 172 12v-64q-69 -29 -196 -29q-117 0 -164.5 48t-40.5 161q-80 4 -107 46t-3 131l70 -2q-13 -56 -2.5 -76.5t51.5 -22.5q23 126 83.5 177t175.5 51zM495 337q5 45 -17 63.5
t-84 18.5q-72 0 -104 -30.5t-47 -116.5h194q47 0 58 65z" />
    <glyph glyph-name="uni04BE" unicode="&#x4be;" horiz-adv-x="727" 
d="M502 703q119 0 170.5 -53t35.5 -166q-13 -97 -64.5 -137t-158.5 -40h-209q-3 -51 -5 -87.5t8 -62t21.5 -41.5t35 -24.5t48.5 -11.5t63 -3q85 0 168 11l-3 -74q-62 -23 -177 -26l-23 -139h-69l14 141q-124 12 -164 85.5t-22 231.5h-11q-88 0 -120 42.5t-8 137.5h80
q-30 -100 57 -100h13q31 179 100.5 247.5t219.5 68.5zM604 488q10 68 -19 97.5t-101 29.5q-87 0 -131 -48.5t-66 -179.5h184q63 0 94 22.5t39 78.5z" />
    <glyph glyph-name="uni04BF" unicode="&#x4bf;" horiz-adv-x="632" 
d="M401 501q111 0 156.5 -41t34.5 -123q-21 -140 -139 -140h-219q-4 -76 25 -102t103 -26q66 0 172 12v-64q-54 -22 -153 -28l-29 -154h-65l15 154q-96 7 -136 55.5t-33 152.5q-80 4 -107 46t-3 131l70 -2q-13 -56 -2.5 -76.5t51.5 -22.5q23 126 83.5 177t175.5 51zM495 337
q5 45 -17 63.5t-84 18.5q-72 0 -104 -30.5t-47 -116.5h194q47 0 58 65z" />
    <glyph glyph-name="uni04C0" unicode="&#x4c0;" horiz-adv-x="268" 
d="M241 690l-97 -690h-101l97 690h101z" />
    <glyph glyph-name="uni04C1" unicode="&#x4c1;" horiz-adv-x="906" 
d="M521 743q-74 0 -110.5 40.5t-23.5 100.5h73q-12 -88 69 -88q77 0 91 88h72q-3 -60 -50.5 -100.5t-120.5 -40.5zM653 356q41 -5 68.5 -26.5t46 -66t31.5 -96t31 -136.5q4 -20 6 -31h-99q-5 23 -14 64q-10 47 -15 68.5t-14 55t-15.5 48.5t-18 35t-23.5 27.5t-28.5 14
t-37.5 6.5h-71q2 -37 -3 -73l-34 -246h-96l35 250q7 38 16 69h-67q-24 0 -44.5 -7t-39.5 -24t-34.5 -35.5t-35 -53t-35.5 -65t-42 -82.5l-26 -52h-106q4 8 11 24q86 182 125 237q61 86 142 98q5 1 9 1l1 4q-27 4 -48 15t-37.5 35.5t-27.5 45.5t-22.5 66t-18 73.5t-18.5 90.5
h98q2 -10 6 -29q10 -51 15.5 -75t16 -61t20 -54.5t24 -36.5t32.5 -26.5t42 -7.5h72q0 45 5 80l29 210h96l-31 -213q-4 -39 -15 -77h60q36 0 65 16.5t60.5 63t50.5 81.5t59 117q1 3 2 4t2 3.5t2 4.5h102q-78 -169 -106 -214q-60 -95 -137 -113q-10 -2 -20 -3z" />
    <glyph glyph-name="uni04C2" unicode="&#x4c2;" horiz-adv-x="757" 
d="M418 564q-74 0 -110.5 40.5t-23.5 100.5h73q-12 -88 69 -88q77 0 91 88h72q-3 -60 -50.5 -100.5t-120.5 -40.5zM531 252q64 -8 89 -51t58 -173q4 -18 7 -28h-92q-34 134 -48 164q-24 49 -74 53h-10h-53q1 -24 -2 -48l-23 -169h-87l25 173q2 14 10 44h-50q-53 -1 -87 -42
t-102 -167q-3 -5 -4 -8h-99q7 13 20 38q29 56 42.5 80.5t34.5 56t37.5 44t39.5 23t52 13.5l1 3q-28 4 -48 15.5t-33 26t-24.5 47.5t-18 59.5t-18.5 81.5h92q26 -113 48.5 -155.5t75.5 -42.5h53q-1 28 3 58l19 140h87l-21 -144q-5 -34 -12 -54h42q53 0 88.5 42.5t95.5 155.5
h96q-21 -41 -27.5 -54t-23 -44t-24 -41t-22 -30t-24 -27t-24.5 -17.5t-30.5 -14.5t-33.5 -6z" />
    <glyph glyph-name="uni04C3" unicode="&#x4c3;" horiz-adv-x="593" 
d="M343 358q70 -2 114 -44t57.5 -98t5.5 -115q-20 -136 -87 -204.5t-201 -65.5l11 74q49 1 81.5 16t50 44t25 56.5t13.5 70.5q16 114 -28 169.5t-137 55.5h-70q0 -55 -2 -69l-34 -248h-100l97 690h100l-31 -212q-5 -37 -17 -78h69q24 0 46.5 8.5t39 18t36.5 35t32 41.5
t33 56t30.5 60t34.5 71h101q-82 -171 -117 -222q-64 -94 -148 -105q-2 -1 -5 -1v-4z" />
    <glyph glyph-name="uni04C4" unicode="&#x4c4;" horiz-adv-x="545" 
d="M324 253q192 -21 166 -206q-14 -97 -81.5 -154t-186.5 -61l10 71q82 6 114.5 42t41.5 102q12 80 -30 124t-115 45h-67q1 -22 -2 -45l-23 -171h-97l68 488h97l-20 -141q-2 -22 -13 -56h61q64 0 101 42.5t92 154.5h99q-23 -45 -31.5 -61.5t-26 -48.5t-26.5 -43t-25.5 -30
t-30.5 -26t-33 -14t-41 -10z" />
    <glyph glyph-name="uni04C5" unicode="&#x4c5;" horiz-adv-x="660" 
d="M616 690l-87 -621l82 9l-20 -78l-62 -129h-55l54 129l-104 -20l2 20h-7l86 609h-124q-39 0 -57.5 -16t-26.5 -56q-32 -140 -45 -191.5t-33 -111.5t-46 -105q-77 -134 -203 -131l-4 82q36 10 63 27.5t52 57.5q35 55 56.5 127.5t64.5 270.5q28 127 159 127h255z" />
    <glyph glyph-name="uni04C6" unicode="&#x4c6;" horiz-adv-x="586" 
d="M460 67l68 8l-16 -75l-61 -123h-57l52 123l-88 -19l2 19h-6l58 413h-93q-30 0 -46 -14t-25 -49q-32 -136 -80 -248q-25 -60 -67.5 -84.5t-107.5 -22.5l-7 79q49 9 64 21q18 13 32 43q30 66 77 236q15 59 46.5 86.5t89.5 27.5h225z" />
    <glyph glyph-name="uni04C7" unicode="&#x4c7;" horiz-adv-x="666" 
d="M541 690h100l-90 -641q-16 -121 -88 -179t-182 -41l10 74q81 0 114.5 32.5t45.5 113.5l39 276h-302l-46 -325h-100l97 690h100l-39 -279h302z" />
    <glyph glyph-name="uni04C8" unicode="&#x4c8;" horiz-adv-x="586" 
d="M460 488h95l-63 -447q-16 -117 -83 -172.5t-168 -39.5l9 66q74 0 105 32.5t42 113.5l26 181h-242l-31 -222h-96l69 488h96l-27 -192h241z" />
    <glyph glyph-name="uni04C9" unicode="&#x4c9;" horiz-adv-x="687" 
d="M641 690l-87 -621l83 9l-20 -78l-62 -129h-55l54 129l-104 -20l2 20h-8l46 324h-301l-46 -324h-101l97 690h101l-39 -279h301l39 279h100z" />
    <glyph glyph-name="uni04CA" unicode="&#x4ca;" horiz-adv-x="582" 
d="M475 67l69 8l-17 -75l-61 -123h-57l52 123l-88 -19l2 19h-5l31 222h-240l-31 -222h-96l69 488h95l-27 -192h241l27 192h96z" />
    <glyph glyph-name="uni04CB" unicode="&#x4cb;" horiz-adv-x="617" 
d="M585 690l-97 -690h-13l-3 -20l-116 12l-37 -123l-66 2l30 129l-12 1l14 78l113 -11l36 256q-61 -37 -124.5 -56.5t-110.5 -19.5q-83 0 -118 39.5t-24 121.5l40 281h100l-36 -265q-8 -48 8.5 -68t65.5 -20q52 0 99 16.5t111 53.5l40 283h100z" />
    <glyph glyph-name="uni04CC" unicode="&#x4cc;" horiz-adv-x="537" 
d="M395 488h98l-69 -488h-57l-9 -144h-64v222h44l19 136q-101 -48 -184 -48q-70 -1 -101 27t-23 83l30 212h97l-25 -183q-6 -36 5 -48t49 -12q74 0 163 52z" />
    <glyph glyph-name="uni04CD" unicode="&#x4cd;" horiz-adv-x="901" 
d="M776 69l81 -10l-14 -79l-56 -111h-75l54 131h-96l63 607h-19l-209 -493q-13 -32 -46 -32h-87q-35 0 -40 36l-77 489h-20l-106 -607h-100l118 651q6 39 44 39h107q32 0 37 -36l65 -404q4 -23 11 -94h18q8 20 21.5 53.5t15.5 38.5l173 409q13 32 46 32l109 1q20 0 30 -11.5
t8 -31.5z" />
    <glyph glyph-name="uni04CE" unicode="&#x4ce;" horiz-adv-x="750" 
d="M650 66l78 9l-16 -75l-62 -123h-57l53 123l-88 -19l2 19h-4l39 415h-15l-158 -331q-13 -29 -39 -29h-76q-28 0 -35 33l-67 327h-17l-75 -415h-89l82 454q6 34 39 34h97q27 0 34 -33l53 -260q10 -56 12 -77h16q18 50 29 72l130 269q13 29 40 29h98q17 0 26.5 -10.5
t7.5 -27.5z" />
    <glyph glyph-name="uni04CF" unicode="&#x4cf;" horiz-adv-x="245" 
d="M226 690l-97 -690h-95l97 690h95z" />
    <glyph glyph-name="uni04D0" unicode="&#x4d0;" horiz-adv-x="623" 
d="M373 743q-74 0 -110.5 40.5t-23.5 100.5h73q-12 -88 69 -88q77 0 91 88h72q-3 -60 -50.5 -100.5t-120.5 -40.5zM477 0l-34 208h-276l-93 -208h-106l310 665q10 25 39 25h102q13 0 22.5 -8.5t10.5 -20.5l125 -661h-100zM206 296h222l-43 259q-4 20 -8 60h-30l-26 -60z" />
    <glyph glyph-name="uni04D1" unicode="&#x4d1;" horiz-adv-x="578" 
d="M321 564q-74 0 -110.5 40.5t-23.5 100.5h73q-12 -88 69 -88q77 0 91 88h72q-3 -60 -50.5 -100.5t-120.5 -40.5zM291 501q118 0 238 -26l-67 -475h-76l4 90q-90 -102 -211 -102q-89 0 -120 58t-10 204q11 81 31 132.5t53 76.5t68 33.5t90 8.5zM199 72q47 0 91.5 25
t98.5 78l35 243q-92 2 -103 2q-52 0 -79.5 -5t-48 -25.5t-29.5 -52.5t-18 -94q-14 -109 -4 -140t57 -31z" />
    <glyph glyph-name="uni04D2" unicode="&#x4d2;" horiz-adv-x="623" 
d="M277 765q-27 0 -24 25l9 55q4 27 31 27h29q16 0 21.5 -6t3.5 -21l-9 -54q-3 -26 -29 -26h-32zM445 765q-27 0 -24 25l8 55q4 27 32 27h29q16 0 21 -6t3 -21l-9 -54q-1 -26 -28 -26h-32zM477 0l-34 208h-276l-93 -208h-106l310 665q10 25 39 25h102q13 0 22.5 -8.5
t10.5 -20.5l125 -661h-100zM206 296h222l-43 259q-4 20 -8 60h-30l-26 -60z" />
    <glyph glyph-name="uni04D3" unicode="&#x4d3;" horiz-adv-x="578" 
d="M225 586q-27 0 -24 25l9 55q4 27 31 27h29q16 0 21.5 -6t3.5 -21l-9 -54q-3 -26 -29 -26h-32zM393 586q-27 0 -24 25l8 55q4 27 32 27h29q16 0 21 -6t3 -21l-9 -54q-1 -26 -28 -26h-32zM291 501q118 0 238 -26l-67 -475h-76l4 90q-90 -102 -211 -102q-89 0 -120 58
t-10 204q11 81 31 132.5t53 76.5t68 33.5t90 8.5zM199 72q47 0 91.5 25t98.5 78l35 243q-92 2 -103 2q-52 0 -79.5 -5t-48 -25.5t-29.5 -52.5t-18 -94q-14 -109 -4 -140t57 -31z" />
    <glyph glyph-name="uni04D4" unicode="&#x4d4;" horiz-adv-x="913" 
d="M652 606q-63 0 -73 -66l-19 -138h278l-10 -79h-279l-24 -176q-5 -35 7 -49t45 -14h256l-5 -78q-102 -8 -269 -8q-68 0 -103.5 38.5t-25.5 106.5l10 72h-227l-151 -215h-107l413 579q46 66 98.5 89t150.5 23q196 0 302 -7l-14 -78h-253zM274 301l178 -1l36 254q5 47 38 70
h-5q-32 -19 -64 -63z" />
    <glyph glyph-name="uni04D5" unicode="&#x4d5;" horiz-adv-x="874" 
d="M651 501q114 0 154.5 -40t29.5 -118q-11 -71 -55 -102.5t-135 -38.5l-170 -15q0 -69 30 -93.5t93 -24.5q68 0 176 12l6 -65q-68 -28 -197 -28q-156 0 -194 105q-89 -105 -213 -105q-88 0 -119 59t-10 203q11 82 31 133t53 76.5t67.5 33.5t89.5 8q103 0 216 -22
q52 22 147 22zM196 72q45 0 87 23t93 72q-2 46 5 90q15 106 49 160q-24 0 -62.5 1.5t-49.5 1.5q-95 0 -125 -30.5t-46 -146.5q-15 -108 -5 -139.5t54 -31.5zM739 351q6 47 -15.5 58t-87.5 11q-76 0 -108 -31.5t-47 -129.5l163 15q46 3 67 19.5t28 57.5z" />
    <glyph glyph-name="uni04D6" unicode="&#x4d6;" horiz-adv-x="560" 
d="M364 743q-74 0 -110.5 40.5t-23.5 100.5h73q-12 -88 69 -88q77 0 91 88h72q-3 -60 -50.5 -100.5t-120.5 -40.5zM279 606q-32 0 -47.5 -14.5t-19.5 -50.5l-19 -140h291l-10 -77h-292l-24 -178q-4 -34 7.5 -48t44.5 -14h267l-2 -78q-86 -8 -277 -8q-80 0 -115.5 38.5
t-26.5 106.5l59 427q8 58 47 90t105 32q207 0 297 -8l-13 -78h-272z" />
    <glyph glyph-name="uni04D7" unicode="&#x4d7;" horiz-adv-x="539" 
d="M309 564q-74 0 -110.5 40.5t-23.5 100.5h73q-12 -88 69 -88q77 0 91 88h72q-3 -60 -50.5 -100.5t-120.5 -40.5zM315 501q114 0 155 -40t30 -118q-12 -71 -56 -102.5t-135 -38.5l-169 -15q0 -69 30 -93.5t93 -24.5q68 0 180 12l6 -65q-71 -28 -201 -28q-125 0 -173 65.5
t-30 203.5q19 141 77.5 192.5t192.5 51.5zM403 351q6 47 -15.5 58t-87.5 11q-76 0 -107.5 -31.5t-46.5 -129.5l163 15q46 3 67 19.5t27 57.5z" />
    <glyph glyph-name="uni04D8" unicode="&#x4d8;" horiz-adv-x="609" 
d="M313 703q115 0 172.5 -36.5t71.5 -116.5t-5 -206q-29 -204 -98.5 -280t-227.5 -76q-119 0 -170.5 54.5t-35.5 169.5q14 104 66.5 147.5t159.5 43.5h207q6 69 0 111t-29.5 64t-55.5 29t-87 7q-86 0 -168 -12l3 75q73 26 197 26zM244 75q90 0 133.5 52.5t65.5 195.5h-184
q-64 0 -94.5 -25.5t-40.5 -90.5q-10 -70 19 -101t101 -31z" />
    <glyph glyph-name="uni04D9" unicode="&#x4d9;" horiz-adv-x="542" 
d="M287 501q128 0 173.5 -58.5t26.5 -199.5q-20 -141 -81 -198t-182 -57q-111 0 -156.5 41t-34.5 124q22 148 150 148h208q1 70 -28 94t-101 24q-79 0 -172 -12v64q70 30 197 30zM231 69q74 0 106 33t46 125h-184q-58 0 -69 -75q-5 -45 17.5 -64t83.5 -19z" />
    <glyph glyph-name="uni04DA" unicode="&#x4da;" horiz-adv-x="609" 
d="M265 768q-27 0 -24 25l9 55q3 27 31 27h29q16 0 21.5 -6t3.5 -21l-9 -54q-3 -26 -29 -26h-32zM432 768q-27 0 -24 25l9 55q4 27 31 27h29q16 0 21.5 -6t3.5 -21l-9 -54q-3 -26 -29 -26h-32zM313 703q115 0 172.5 -36.5t71.5 -116.5t-5 -206q-29 -204 -98.5 -280
t-227.5 -76q-119 0 -170.5 54.5t-35.5 169.5q14 104 66.5 147.5t159.5 43.5h207q6 69 0 111t-29.5 64t-55.5 29t-87 7q-86 0 -168 -12l3 75q73 26 197 26zM244 75q90 0 133.5 52.5t65.5 195.5h-184q-64 0 -94.5 -25.5t-40.5 -90.5q-10 -70 19 -101t101 -31z" />
    <glyph glyph-name="uni04DB" unicode="&#x4db;" horiz-adv-x="542" 
d="M213 586q-27 0 -24 25l9 55q3 27 31 27h29q16 0 21.5 -6t3.5 -21l-9 -54q-3 -26 -29 -26h-32zM380 586q-27 0 -24 25l9 55q4 27 31 27h29q16 0 21.5 -6t3.5 -21l-9 -54q-3 -26 -29 -26h-32zM287 501q128 0 173.5 -58.5t26.5 -199.5q-20 -141 -81 -198t-182 -57
q-111 0 -156.5 41t-34.5 124q22 148 150 148h208q1 70 -28 94t-101 24q-79 0 -172 -12v64q70 30 197 30zM231 69q74 0 106 33t46 125h-184q-58 0 -69 -75q-5 -45 17.5 -64t83.5 -19z" />
    <glyph glyph-name="uni04DC" unicode="&#x4dc;" horiz-adv-x="906" 
d="M425 765q-27 0 -24 25l9 55q4 27 31 27h29q16 0 21.5 -6t3.5 -21l-9 -54q-3 -26 -29 -26h-32zM593 765q-27 0 -24 25l8 55q4 27 32 27h29q16 0 21 -6t3 -21l-9 -54q-1 -26 -28 -26h-32zM653 356q41 -5 68.5 -26.5t46 -66t31.5 -96t31 -136.5q4 -20 6 -31h-99
q-5 23 -14 64q-10 47 -15 68.5t-14 55t-15.5 48.5t-18 35t-23.5 27.5t-28.5 14t-37.5 6.5h-71q2 -37 -3 -73l-34 -246h-96l35 250q7 38 16 69h-67q-24 0 -44.5 -7t-39.5 -24t-34.5 -35.5t-35 -53t-35.5 -65t-42 -82.5l-26 -52h-106q4 8 11 24q86 182 125 237q61 86 142 98
q5 1 9 1l1 4q-27 4 -48 15t-37.5 35.5t-27.5 45.5t-22.5 66t-18 73.5t-18.5 90.5h98q2 -10 6 -29q10 -51 15.5 -75t16 -61t20 -54.5t24 -36.5t32.5 -26.5t42 -7.5h72q0 45 5 80l29 210h96l-31 -213q-4 -39 -15 -77h60q36 0 65 16.5t60.5 63t50.5 81.5t59 117q1 3 2 4t2 3.5
t2 4.5h102q-78 -169 -106 -214q-60 -95 -137 -113q-10 -2 -20 -3z" />
    <glyph glyph-name="uni04DD" unicode="&#x4dd;" horiz-adv-x="757" 
d="M322 586q-27 0 -24 25l9 55q4 27 31 27h29q16 0 21.5 -6t3.5 -21l-9 -54q-3 -26 -29 -26h-32zM490 586q-27 0 -24 25l8 55q4 27 32 27h29q16 0 21 -6t3 -21l-9 -54q-1 -26 -28 -26h-32zM531 252q64 -8 89 -51t58 -173q4 -18 7 -28h-92q-34 134 -48 164q-24 49 -74 53h-10
h-53q1 -24 -2 -48l-23 -169h-87l25 173q2 14 10 44h-50q-53 -1 -87 -42t-102 -167q-3 -5 -4 -8h-99q7 13 20 38q29 56 42.5 80.5t34.5 56t37.5 44t39.5 23t52 13.5l1 3q-28 4 -48 15.5t-33 26t-24.5 47.5t-18 59.5t-18.5 81.5h92q26 -113 48.5 -155.5t75.5 -42.5h53
q-1 28 3 58l19 140h87l-21 -144q-5 -34 -12 -54h42q53 0 88.5 42.5t95.5 155.5h96q-21 -41 -27.5 -54t-23 -44t-24 -41t-22 -30t-24 -27t-24.5 -17.5t-30.5 -14.5t-33.5 -6z" />
    <glyph glyph-name="uni04DE" unicode="&#x4de;" horiz-adv-x="549" 
d="M255 872q16 0 21.5 -6t3.5 -21l-9 -54q-3 -26 -29 -26h-32q-27 0 -24 25l9 55q4 27 31 27h29zM423 872q16 0 21 -6t3 -21l-9 -54q-1 -26 -28 -26h-32q-27 0 -24 25l8 55q4 27 32 27h29zM297 698q119 0 170 -41t37 -143q-11 -75 -42.5 -112t-94.5 -43l-1 -5
q135 -13 110 -186q-14 -102 -64.5 -139t-172.5 -37q-145 0 -240 24l12 72q110 -14 211 -14q78 0 111.5 24.5t43.5 94.5q10 73 -15.5 99t-103.5 26h-121l10 79h117q69 0 100 24t40 89q10 66 -13 86.5t-100 20.5q-72 0 -185 -12l-3 77q84 16 194 16z" />
    <glyph glyph-name="uni04DF" unicode="&#x4df;" horiz-adv-x="500" 
d="M230 687q16 0 21.5 -6t3.5 -21l-9 -54q-3 -26 -29 -26h-32q-27 0 -24 25l9 55q4 27 31 27h29zM398 687q16 0 21 -6t3 -21l-9 -54q-1 -26 -28 -26h-32q-27 0 -24 25l8 55q4 27 32 27h29zM232 497q122 0 171.5 -28t38.5 -107q-8 -54 -34.5 -80t-84.5 -31l-1 -2
q63 -5 87.5 -37t15.5 -95q-11 -78 -58.5 -102t-166.5 -24q-125 0 -201 16l12 73q96 -8 184 -8q78 0 103.5 13.5t31.5 59.5q5 40 -16.5 53.5t-89.5 14.5l-123 2l8 69h118q63 0 89 15.5t32 57.5q5 38 -15.5 48.5t-99.5 10.5t-157 -8l-3 72q63 17 159 17z" />
    <glyph glyph-name="uni04E0" unicode="&#x4e0;" horiz-adv-x="540" 
d="M527 680l-8 -57l-274 -226h28q125 0 176.5 -43t36.5 -154q-16 -111 -76 -159.5t-200 -48.5q-124 0 -209 24l19 72q100 -14 201 -14q79 0 116 31t46 92q11 74 -14.5 102.5t-105.5 28.5h-137l9 64l264 219h-303l11 79h411q9 0 9 -10z" />
    <glyph glyph-name="uni04E1" unicode="&#x4e1;" horiz-adv-x="492" 
d="M454 488q10 0 8 -10l-8 -57l-256 -226h29q114 0 161 -43t31 -155q-15 -109 -72 -158t-185 -49q-116 0 -197 23l18 73q100 -14 186 -14q72 0 106 31t43 92q10 74 -12.5 102.5t-93.5 28.5h-128l9 64l245 218h-278l11 80h383z" />
    <glyph glyph-name="uni04E2" unicode="&#x4e2;" horiz-adv-x="692" 
d="M566 853l-10 -71h-283l10 71h283zM665 690l-97 -690h-96l65 465q7 45 20 102h-5q-34 -61 -46 -78l-354 -489h-110l97 690h97l-65 -465q-8 -52 -22 -102h5q18 34 50 80l352 487h109z" />
    <glyph glyph-name="uni04E3" unicode="&#x4e3;" horiz-adv-x="573" 
d="M480 674l-10 -71h-283l10 71h283zM429 488h96l-68 -488h-75l6 102q-119 -115 -222 -115q-67 0 -97 36t-21 100l51 365h98l-49 -340q-6 -43 5.5 -60.5t45.5 -17.5q41 0 80.5 24.5t106.5 84.5z" />
    <glyph glyph-name="uni04E4" unicode="&#x4e4;" horiz-adv-x="692" 
d="M358 872q16 0 21.5 -6t3.5 -21l-9 -54q-3 -26 -29 -26h-32q-27 0 -24 25l9 55q4 27 31 27h29zM526 872q16 0 21 -6t3 -21l-9 -54q-1 -26 -28 -26h-32q-27 0 -24 25l8 55q4 27 32 27h29zM665 690l-97 -690h-96l65 465q7 45 20 102h-5q-34 -61 -46 -78l-354 -489h-110
l97 690h97l-65 -465q-8 -52 -22 -102h5q18 34 50 80l352 487h109z" />
    <glyph glyph-name="uni04E5" unicode="&#x4e5;" horiz-adv-x="573" 
d="M227 586q-27 0 -24 25l9 55q4 27 31 27h29q16 0 21.5 -6t3.5 -21l-9 -54q-3 -26 -29 -26h-32zM395 586q-27 0 -24 25l8 55q4 27 32 27h29q16 0 21 -6t3 -21l-9 -54q-1 -26 -28 -26h-32zM429 488h96l-68 -488h-75l6 102q-119 -115 -222 -115q-67 0 -97 36t-21 100l51 365
h98l-49 -340q-6 -43 5.5 -60.5t45.5 -17.5q41 0 80.5 24.5t106.5 84.5z" />
    <glyph glyph-name="uni04E6" unicode="&#x4e6;" 
d="M341 872q16 0 21.5 -6t3.5 -21l-9 -54q-3 -26 -29 -26h-32q-27 0 -24 25l9 55q4 27 31 27h29zM509 872q16 0 21 -6t3 -21l-9 -54q-1 -26 -28 -26h-32q-27 0 -24 25l8 55q4 27 32 27h29zM387 703q147 0 202 -82.5t27 -279.5q-27 -199 -97.5 -276.5t-219.5 -77.5
q-147 0 -203.5 81.5t-29.5 280.5q26 196 97 275t224 79zM382 614q-100 0 -144.5 -57.5t-67.5 -215.5q-21 -152 6.5 -208.5t124.5 -56.5q98 0 143.5 58.5t67.5 214.5q22 155 -5.5 210t-124.5 55z" />
    <glyph glyph-name="uni04E7" unicode="&#x4e7;" horiz-adv-x="569" 
d="M273 693q16 0 21.5 -6t3.5 -21l-9 -54q-3 -26 -29 -26h-32q-27 0 -24 25l9 55q4 27 31 27h29zM441 693q16 0 21 -6t3 -21l-9 -54q-1 -26 -28 -26h-32q-27 0 -24 25l8 55q4 27 32 27h29zM309 501q126 0 173.5 -60.5t28.5 -200.5q-19 -138 -79 -195.5t-184 -57.5t-173 60.5
t-30 199.5q19 138 78.5 196t185.5 58zM309 419q-77 0 -112.5 -37t-50.5 -142q-14 -100 7 -136t95 -36q78 0 113.5 38.5t49.5 140.5q14 101 -7 136.5t-95 35.5z" />
    <glyph glyph-name="uni04E8" unicode="&#x4e8;" 
d="M387 703q147 0 202 -82.5t27 -279.5q-27 -199 -97.5 -276.5t-219.5 -77.5q-147 0 -203.5 81.5t-29.5 280.5q26 196 97 275t224 79zM382 614q-96 0 -140 -50.5t-67 -188.5h341q17 139 -12 189t-122 50zM301 76q91 0 136 50t68 180h-339q-15 -130 14 -180t121 -50z" />
    <glyph glyph-name="uni04E9" unicode="&#x4e9;" horiz-adv-x="570" 
d="M307 501q126 0 174 -60.5t28 -200.5q-19 -138 -79 -195.5t-183 -57.5q-125 0 -173.5 60.5t-29.5 199.5q19 138 78.5 196t184.5 58zM307 419q-69 0 -103.5 -29t-51.5 -107h261q8 78 -15 107t-91 29zM247 68q73 0 107.5 33.5t50.5 119.5h-263q-10 -89 12 -121t93 -32z" />
    <glyph glyph-name="uni04EA" unicode="&#x4ea;" 
d="M299 765q-27 0 -24 25l9 55q3 27 31 27h29q16 0 21.5 -6t3.5 -21l-9 -54q-3 -26 -29 -26h-32zM466 765q-27 0 -24 25l9 55q4 27 31 27h29q16 0 21.5 -6t3.5 -21l-9 -54q-3 -26 -29 -26h-32zM387 703q147 0 202 -82.5t27 -279.5q-27 -199 -97.5 -276.5t-219.5 -77.5
q-147 0 -203.5 81.5t-29.5 280.5q26 196 97 275t224 79zM382 614q-96 0 -140 -50.5t-67 -188.5h341q17 139 -12 189t-122 50zM301 76q91 0 136 50t68 180h-339q-15 -130 14 -180t121 -50z" />
    <glyph glyph-name="uni04EB" unicode="&#x4eb;" horiz-adv-x="570" 
d="M236 586q-27 0 -24 25l9 55q3 27 31 27h29q16 0 21.5 -6t3.5 -21l-9 -54q-3 -26 -29 -26h-32zM403 586q-27 0 -24 25l9 55q4 27 31 27h29q16 0 21.5 -6t3.5 -21l-9 -54q-3 -26 -29 -26h-32zM307 501q126 0 174 -60.5t28 -200.5q-19 -138 -79 -195.5t-183 -57.5
q-125 0 -173.5 60.5t-29.5 199.5q19 138 78.5 196t184.5 58zM307 419q-69 0 -103.5 -29t-51.5 -107h261q8 78 -15 107t-91 29zM247 68q73 0 107.5 33.5t50.5 119.5h-263q-10 -89 12 -121t93 -32z" />
    <glyph glyph-name="uni04EC" unicode="&#x4ec;" horiz-adv-x="578" 
d="M208 765q-27 0 -24 25l9 55q4 27 31 27h29q16 0 21.5 -6t3.5 -21l-9 -54q-3 -26 -29 -26h-32zM376 765q-27 0 -24 25l8 55q4 27 32 27h29q16 0 21 -6t3 -21l-9 -54q-1 -26 -28 -26h-32zM274 702q164 0 221 -79.5t30 -281.5q-25 -194 -97.5 -271t-225.5 -82
q-112 -4 -200 25l15 75q91 -14 186 -10q100 5 147 58t69 189h-293l10 77h294q7 40 4 71t-6 53.5t-15 37.5t-23.5 24.5t-32.5 15t-41.5 7t-49.5 1.5q-82 0 -165 -8l-4 78q78 20 177 20z" />
    </font>
</defs>
</svg>
