<?xml version="1.0" standalone="no"?>
<!DOCTYPE svg PUBLIC "-//W3C//DTD SVG 1.1//EN" "http://www.w3.org/Graphics/SVG/1.1/DTD/svg11.dtd" >
<svg xmlns="http://www.w3.org/2000/svg" xmlns:xlink="http://www.w3.org/1999/xlink" version="1.1">
<metadata>
Created by FontForge 20170731 at Wed Dec 13 19:44:09 2017
 By Aleksey,,,
Copyright (c) 2013, Natanael Gama (www.ndiscovered.com . info(at)ndiscovered.com), with Reserved Font Name Exo. This Font Software is licensed under the SIL Open Font License, Version 1.1.
</metadata>
<defs>
<font id="Exo2-BlackItalic" horiz-adv-x="700" >
  <font-face 
    font-family="Exo 2 Black"
    font-weight="900"
    font-style="italic"
    font-stretch="normal"
    units-per-em="1000"
    panose-1="0 0 10 0 0 0 0 0 0 0"
    ascent="800"
    descent="-200"
    x-height="500"
    cap-height="690"
    bbox="-481 -311 1388 1142"
    underline-thickness="50"
    underline-position="-200"
    slope="-8"
    unicode-range="U+0020-FB02"
  />
<missing-glyph horiz-adv-x="556" 
d="M550 649h-1l-86 -608l-6 -41h-430l98 690h430zM422 41l86 608h-348l-86 -608h348z" />
    <glyph glyph-name="fi" unicode="fi" horiz-adv-x="721" 
d="M670 739q32 0 47 -17.5t11 -48.5l-7 -51q-5 -32 -19 -45t-44 -13h-88q-32 0 -47.5 17.5t-11.5 48.5l8 51q4 32 18.5 45t45.5 13h87zM703 500l-70 -500h-210l52 374h-165l-61 -406q-24 -159 -190 -159q-51 0 -154 15l32 125h49q30 0 43 12t18 44l55 369h-81l16 121l84 5
l10 65q11 76 55.5 117.5t134.5 41.5q99 0 163 -15l-31 -125h-59q-30 0 -43 -12t-18 -44l-4 -28h374z" />
    <glyph glyph-name="fl" unicode="fl" horiz-adv-x="762" 
d="M719 146l10 -136q-41 -24 -137 -24q-79 0 -119.5 39t-31.5 105l65 457h-119q-53 0 -61 -59l-4 -28h110l-18 -126h-109l-57 -406q-22 -159 -189 -159q-51 0 -154 15l31 125h49q30 0 43 12t18 44l51 369h-82l15 121l85 5l9 65q22 159 190 159q284 0 412 -25l-68 -521
q-3 -20 2.5 -26t26.5 -6h32z" />
    <glyph glyph-name="f_f" unicode="ff" horiz-adv-x="808" 
d="M779 584q-30 0 -43 -12t-18 -44l-4 -28h117l-17 -126h-120l-60 -391q-24 -159 -190 -159q-50 0 -155 15l32 125h49q32 0 46 12.5t18 43.5l53 354h-176l-61 -406q-24 -159 -190 -159q-50 0 -155 15l32 125h49q32 0 46 12.5t18 43.5l54 369h-82l15 121l85 5l8 55
q24 159 190 159q100 0 165 -15l-32 -125h-60q-30 0 -43 -12t-18 -44l-3 -18h177l10 65q24 159 190 159q112 0 185 -15l-32 -125h-80z" />
    <glyph glyph-name="f_f_i" unicode="ffi" horiz-adv-x="1101" 
d="M1050 739q32 0 47 -17.5t11 -48.5l-7 -51q-5 -32 -19 -45t-44 -13h-88q-32 0 -47.5 17.5t-11.5 48.5l8 51q4 32 18.5 45t45.5 13h87zM1084 500l-70 -500h-210l52 374h-162l-60 -391q-24 -159 -190 -159q-50 0 -155 15l32 125h49q32 0 46 12.5t18 43.5l53 354h-176
l-61 -406q-24 -159 -190 -159q-50 0 -155 15l32 125h49q32 0 46 12.5t18 43.5l54 369h-82l15 121l85 5l8 55q24 159 190 159q100 0 165 -15l-32 -125h-60q-30 0 -43 -12t-18 -44l-3 -18h177l10 65q24 159 190 159q95 0 155 -15l-32 -125h-50q-30 0 -43 -12t-18 -44l-4 -28
h370z" />
    <glyph glyph-name="f_f_l" unicode="ffl" horiz-adv-x="1151" 
d="M1108 146l10 -136q-41 -24 -137 -24q-79 0 -119.5 39t-31.5 105l65 457h-119q-53 0 -61 -59l-4 -28h110l-17 -126h-111l-56 -391q-22 -159 -189 -159q-50 0 -154 15l31 125h49q30 0 43 12t18 44l51 354h-175l-61 -406q-24 -159 -190 -159q-50 0 -155 15l32 125h49
q32 0 46 12.5t18 43.5l54 369h-82l15 121l85 5l8 55q24 159 190 159q100 0 165 -15l-32 -125h-60q-30 0 -43 -12t-18 -44l-3 -18h175l9 65q22 159 190 159q284 0 412 -25l-68 -521q-3 -20 2.5 -26t26.5 -6h32z" />
    <glyph glyph-name=".notdef" horiz-adv-x="556" 
d="M550 649h-1l-86 -608l-6 -41h-430l98 690h430zM422 41l86 608h-348l-86 -608h348z" />
    <glyph glyph-name=".null" horiz-adv-x="0" 
 />
    <glyph glyph-name="nonmarkingreturn" horiz-adv-x="333" 
 />
    <glyph glyph-name="space" unicode=" " horiz-adv-x="210" 
 />
    <glyph glyph-name="exclam" unicode="!" horiz-adv-x="328" 
d="M324 695l-32 -234l-55 -234h-164l11 234l32 234h208zM164 185q36 0 55 -19.5t14 -56.5l-6 -41q-5 -36 -23.5 -52t-56.5 -16h-40q-78 0 -69 76l5 41q10 68 81 68h40z" />
    <glyph glyph-name="quotedbl" unicode="&#x22;" horiz-adv-x="394" 
d="M235 690l-44 -228h-120l20 228h144zM414 690l-44 -228h-120l20 228h144z" />
    <glyph glyph-name="numbersign" unicode="#" horiz-adv-x="743" 
d="M713 404h-111l-31 -100h110l-42 -122h-107l-57 -182h-157l57 182h-94l-57 -182h-157l57 182h-118l42 122h115l31 100h-114l41 122h111l52 164h157l-52 -164h94l52 164h157l-52 -164h114zM414 304l31 100h-94l-31 -100h94z" />
    <glyph glyph-name="dollar" unicode="$" horiz-adv-x="583" 
d="M332 532q-31 0 -44 -6t-16 -22q-5 -23 41 -45l110 -55q80 -41 105.5 -88.5t16.5 -126.5q-13 -114 -69.5 -157.5t-191.5 -45.5l-23 -94h-155l25 104q-69 8 -131 25l21 151q185 -5 233 -5q40 0 56 6.5t20 22.5q3 13 -3.5 21.5t-25.5 17.5l-121 62q-80 42 -105 92t-17 120
q12 104 72 147t185 48l24 87h156l-26 -95q69 -10 120 -28l-20 -138q-118 2 -237 2z" />
    <glyph glyph-name="percent" unicode="%" horiz-adv-x="919" 
d="M247 704q102 0 142 -47.5t23 -166.5q-16 -115 -58.5 -156.5t-140.5 -41.5q-101 0 -140.5 47.5t-22.5 166.5q16 115 58 156.5t139 41.5zM769 690l-477 -690h-130l477 690h130zM243 595q-19 0 -26 -17t-16 -88q-8 -60 -5.5 -74.5t22.5 -14.5q21 0 28 17t15 88
q6 60 3.5 74.5t-21.5 14.5zM718 398q102 0 142 -47.5t23 -166.5q-16 -115 -58.5 -156.5t-140.5 -41.5q-101 0 -140.5 47.5t-22.5 166.5q16 115 58 156.5t139 41.5zM714 289q-19 0 -26 -17t-16 -88q-8 -60 -5.5 -74.5t22.5 -14.5q21 0 28 17t15 88q6 60 3.5 74.5t-21.5 14.5z
" />
    <glyph glyph-name="ampersand" unicode="&#x26;" horiz-adv-x="759" 
d="M762 419l-19 -131h-76q-10 -53 -32 -101q-90 -201 -370 -201q-142 0 -201.5 49t-47.5 149q9 74 48 120.5t110 50.5l1 6q-50 4 -75.5 54t-14.5 113q8 45 27 77.5t43 51.5t60.5 29.5t72.5 14t85 3.5q101 0 171 -24l-33 -139q-78 12 -131 12q-44 0 -61 -12t-22 -53
q-5 -40 6 -54.5t42 -14.5h166q4 48 5 83h172q0 -42 -3 -83h77zM472 247q7 14 16 41h-162q-35 0 -54 -16t-24 -59q-4 -35 12.5 -49t55.5 -14q53 0 91.5 20.5t64.5 76.5z" />
    <glyph glyph-name="quotesingle" unicode="'" horiz-adv-x="215" 
d="M235 690l-44 -228h-120l20 228h144z" />
    <glyph glyph-name="parenleft" unicode="(" horiz-adv-x="373" 
d="M404 791l25 -91q-152 -58 -199 -395q-25 -142 -7.5 -244.5t87.5 -135.5l-26 -85q-159 43 -221.5 160.5t-33.5 319.5t118 315.5t257 155.5z" />
    <glyph glyph-name="parenright" unicode=")" horiz-adv-x="373" 
d="M95 786q158 -42 220.5 -160t34.5 -322q-29 -201 -118.5 -314.5t-256.5 -155.5l-25 91q152 63 199 396q25 146 8 247.5t-87 131.5z" />
    <glyph glyph-name="asterisk" unicode="*" horiz-adv-x="457" 
d="M343 692l-42 -175l95 -129l-94 -66l-47 119l-80 -119l-85 66l132 128l7 176h114zM100 624l108 -52l-3 -49l-31 -29l-118 23zM444 623l22 -107l-122 -26l-25 32l11 49z" />
    <glyph glyph-name="plus" unicode="+" horiz-adv-x="520" 
d="M508 381l-23 -155h-158l-22 -158h-153l22 158h-158l23 155h158l22 158h153l-22 -158h158z" />
    <glyph glyph-name="comma" unicode="," horiz-adv-x="257" 
d="M129 185q40 0 56 -17.5t11 -58.5l-9 -64q-8 -53 -33 -112.5t-57 -97.5l-85 32q16 36 43 137q-32 -1 -44 14.5t-8 49.5l7 46q6 40 25 55.5t58 15.5h36z" />
    <glyph glyph-name="hyphen" unicode="-" horiz-adv-x="382" 
d="M341 318l-18 -122h-291l18 122h291z" />
    <glyph glyph-name="period" unicode="." horiz-adv-x="255" 
d="M129 185q36 0 55 -19.5t14 -56.5l-6 -41q-5 -36 -23.5 -52t-56.5 -16h-40q-78 0 -69 76l5 41q10 68 81 68h40z" />
    <glyph glyph-name="slash" unicode="/" horiz-adv-x="597" 
d="M635 690l-501 -769h-169l501 769h169z" />
    <glyph glyph-name="zero" unicode="0" horiz-adv-x="656" 
d="M301 -13q-131 0 -199.5 50t-67.5 174q1 67 4.5 118t12.5 104.5t24 92t40.5 73.5t60 57t83 34.5t110.5 12.5q131 0 199 -49.5t68 -172.5q0 -64 -3 -115t-12 -104t-24.5 -92t-41 -75t-60 -59t-83.5 -36t-111 -13zM321 147q58 0 78.5 76.5t24.5 232.5q1 47 -17 67t-60 20
q-30 0 -50 -22t-30 -68t-14.5 -95.5t-6.5 -126.5q-2 -44 16 -64t59 -20z" />
    <glyph glyph-name="one" unicode="1" horiz-adv-x="469" 
d="M453 690l-97 -690h-216l64 436q7 53 19 89l-162 -35l-18 129l201 71h209z" />
    <glyph glyph-name="two" unicode="2" horiz-adv-x="590" 
d="M330 702q128 0 186 -31.5t58 -116.5q0 -71 -29 -122.5t-93 -105.5l-185 -159q43 15 96 15h182l-24 -182h-532l16 112q8 57 35 86l165 141q13 12 43.5 39t43.5 39t31.5 31t25.5 32.5t7 24.5q0 18 -46 18q-131 0 -228 -2l4 160q119 21 244 21z" />
    <glyph glyph-name="three" unicode="3" horiz-adv-x="571" 
d="M321 704q119 0 175 -32.5t56 -113.5q0 -80 -35 -131t-103 -59l-1 -4q116 -15 116 -124q0 -133 -78 -193.5t-228 -60.5q-96 0 -229 20l14 151q76 -5 185 -5q126 0 126 105q0 34 -55 34h-145l17 130h141q42 0 56.5 17.5t14.5 63.5q0 20 -11.5 28.5t-46.5 8.5h-199v147
q116 18 230 18z" />
    <glyph glyph-name="four" unicode="4" horiz-adv-x="653" 
d="M564 278h69l-16 -118l-69 -20h-3l-20 -140h-197l19 140h-267q-51 0 -71.5 33t-0.5 74l230 443h205l-196 -391q-7 -11 -6 -16t12 -5h113l23 170l49 106h165z" />
    <glyph glyph-name="five" unicode="5" horiz-adv-x="559" 
d="M564 690l-28 -155h-264l-18 -79l83 -10q54 -8 93 -26.5t59 -45t29 -53.5t9 -58q0 -127 -79 -197.5t-221 -77.5q-72 -4 -237 18l27 161q111 -10 171 -6q59 3 91.5 23.5t32.5 68.5q0 19 -16.5 26.5t-61.5 13.5l-112 17q-32 5 -49 27.5t-11 52.5l59 300h443z" />
    <glyph glyph-name="six" unicode="6" horiz-adv-x="604" 
d="M401 455q89 0 133.5 -39t42.5 -104q-6 -169 -69.5 -246.5t-223.5 -77.5q-65 0 -109 9.5t-78 33.5t-48 64t-18 100.5t10 143.5q16 114 45 186.5t76.5 111t102 52t136.5 13.5q101 0 173 -22l-26 -129h-168q-57 0 -81 -26t-39 -107q58 37 141 37zM371 267q2 19 -14.5 32.5
t-46.5 13.5q-32 0 -69 -24q-15 -103 -11 -122q5 -24 40 -27q7 -1 17 -1q27 0 44 11t25 34.5t10.5 38.5t4.5 44z" />
    <glyph glyph-name="seven" unicode="7" horiz-adv-x="548" 
d="M505 690q56 0 75.5 -29.5t-2.5 -75.5l-293 -585h-213l222 442q18 38 52 77h-292l13 171h438z" />
    <glyph glyph-name="eight" unicode="8" horiz-adv-x="634" 
d="M356 704q154 0 210 -47t41 -147q-21 -136 -133 -150l-1 -4q129 -14 104 -192q-9 -67 -35.5 -104t-85.5 -56t-162 -19q-168 0 -228.5 47t-49.5 148q8 73 44.5 122t110.5 54l1 4q-108 18 -89 166q12 96 71.5 137t201.5 41zM356 564q-43 0 -59.5 -15.5t-23.5 -67.5
q-4 -35 6.5 -46t53.5 -11t58 13.5t22 59.5q6 42 -5 54.5t-52 12.5zM313 292q-45 0 -64 -16t-25 -72q-5 -40 8.5 -53.5t61.5 -13.5q44 0 62 15.5t25 67.5q6 45 -7 58.5t-61 13.5z" />
    <glyph glyph-name="nine" unicode="9" horiz-adv-x="605" 
d="M345 700q67 0 111.5 -10.5t75.5 -35t43 -65.5t14 -102.5t-12 -145.5q-28 -207 -101 -281t-239 -74q-117 0 -219 23l14 131h194q62 0 91 28.5t43 101.5q-56 -38 -135 -38q-49 0 -85 14.5t-54 38t-29 53.5t-10 61.5t4 60.5q10 70 25 111.5t47 73t85 43.5t137 12zM249 469
q-6 -59 2 -77t40 -18q48 0 86 21q13 108 7 129q-7 22 -42 25h-17q-41 0 -56 -15t-20 -65z" />
    <glyph glyph-name="colon" unicode=":" horiz-adv-x="275" 
d="M162 462q36 0 55 -19.5t14 -56.5l-6 -41q-5 -36 -23.5 -52t-56.5 -16h-40q-78 0 -69 76l5 41q10 68 81 68h40zM123 186q36 0 55 -19.5t14 -56.5l-6 -41q-5 -36 -23.5 -52t-56.5 -16h-40q-78 0 -69 76l5 41q10 68 81 68h40z" />
    <glyph glyph-name="semicolon" unicode=";" horiz-adv-x="273" 
d="M177 462q36 0 55 -19.5t14 -56.5l-6 -41q-5 -36 -23.5 -52t-56.5 -16h-40q-78 0 -69 76l5 41q10 68 81 68h40zM138 185q40 0 56 -17.5t11 -58.5l-9 -64q-8 -53 -33 -112.5t-57 -97.5l-85 32q16 36 43 137q-32 -1 -44 14.5t-8 49.5l7 46q6 40 25 55.5t58 15.5h36z" />
    <glyph glyph-name="less" unicode="&#x3c;" horiz-adv-x="503" 
d="M494 542l-22 -168l-268 -69l246 -77l-21 -162l-413 157l22 161z" />
    <glyph glyph-name="equal" unicode="=" horiz-adv-x="571" 
d="M552 483l-22 -154h-478l22 154h478zM523 271l-24 -154h-478l24 154h478z" />
    <glyph glyph-name="greater" unicode="&#x3e;" horiz-adv-x="500" 
d="M77 541l410 -157l-22 -161l-453 -159l23 167l265 79l-242 79z" />
    <glyph glyph-name="question" unicode="?" horiz-adv-x="540" 
d="M337 712q120 0 173.5 -40.5t42.5 -122.5q-6 -39 -26.5 -71.5t-48.5 -57t-57 -49.5t-55.5 -62t-39.5 -81h-164q4 53 27 102.5t47.5 79t50.5 59t32 42.5q9 23 2.5 29t-34.5 6h-213l1 139q8 2 29.5 6t29 5t25.5 4.5t28.5 4.5t29 2.5t34.5 2.5t38.5 1.5t47.5 0.5zM257 185
q37 0 56 -19.5t14 -56.5l-6 -41q-5 -36 -23.5 -52t-55.5 -16h-41q-78 0 -70 76l6 41q9 68 80 68h40z" />
    <glyph glyph-name="at" unicode="@" horiz-adv-x="822" 
d="M427 655q89 1 146 -3t104.5 -17.5t71 -35.5t37.5 -61t13 -90.5t-12 -127.5q-8 -53 -14 -86.5t-15 -71t-19.5 -59t-26 -44t-35.5 -34.5t-47.5 -22t-61.5 -13.5t-78 -3.5q-133 0 -170 91q-60 -89 -150 -89q-86 0 -123.5 60.5t-17.5 182.5q12 72 33 118t54.5 68.5t69 30
t88.5 7.5q100 0 266 -28l-44 -271q-6 -35 21 -35q40 0 52 27t32 141q5 25 7 39q6 37 9.5 61t2 45.5t-4 33.5t-15.5 22t-23.5 14.5t-38 7t-49 3t-64.5 0.5h-347l9 130q149 8 340 10zM242 139q38 0 75 66l21 123h-44q-22 0 -33.5 -4.5t-24.5 -28t-22 -71.5q-8 -61 -2.5 -73
t30.5 -12z" />
    <glyph glyph-name="A" unicode="A" horiz-adv-x="678" 
d="M430 0l-12 146h-188l-54 -146h-225l266 638q20 52 76 52h196q26 0 46 -17.5t23 -42.5l89 -630h-217zM289 304h117l-12 149q-3 26 -1 77h-28q-7 -41 -20 -75z" />
    <glyph glyph-name="B" unicode="B" horiz-adv-x="657" 
d="M629 510q-10 -74 -41 -108.5t-101 -40.5l-1 -6q153 -13 128 -191q-14 -100 -73 -136t-193 -36q-225 0 -337 8l97 690q98 8 283 8q142 0 197 -40.5t41 -147.5zM422 495q5 30 -3.5 41.5t-34.5 11.5h-84l-18 -125h67q38 0 52 13.5t21 58.5zM397 224q6 42 -4 55t-48 13h-81
l-21 -150h63q48 0 66 15.5t25 66.5z" />
    <glyph glyph-name="C" unicode="C" horiz-adv-x="603" 
d="M391 702q128 0 227 -28l-25 -157q-146 2 -213 2q-38 0 -57 -11.5t-32 -50t-24 -120.5q-15 -102 -6 -134t63 -32q136 0 221 8l8 -159q-103 -32 -239 -32q-175 0 -238 81.5t-35 283.5q15 106 38.5 172t65.5 106.5t99.5 55.5t146.5 15z" />
    <glyph glyph-name="D" unicode="D" 
d="M389 700q117 0 183.5 -31t94 -111.5t7.5 -220.5q-15 -106 -38.5 -171t-65.5 -105.5t-100 -55.5t-149 -15q-157 0 -310 10l97 690q128 10 281 10zM446 353q16 116 4.5 153t-68.5 37h-78l-55 -395q23 -1 69 -1q55 0 83.5 41.5t44.5 164.5z" />
    <glyph glyph-name="E" unicode="E" horiz-adv-x="587" 
d="M343 528q-26 0 -37 -9t-14 -31l-9 -63h249l-18 -144h-251l-11 -80q-6 -39 37 -39h240l-4 -154q-89 -12 -338 -12q-84 0 -125 52t-30 136l50 357q10 71 56 112t121 41q248 0 348 -14l-24 -152h-240z" />
    <glyph glyph-name="F" unicode="F" horiz-adv-x="567" 
d="M349 528q-27 0 -39 -9t-15 -31l-11 -77h241l-18 -144h-243l-37 -267h-218l76 541q10 71 57.5 112t118.5 41q243 0 342 -15l-24 -151h-230z" />
    <glyph glyph-name="G" unicode="G" horiz-adv-x="670" 
d="M414 202l27 195h207l-56 -397h-159l-8 80q-92 -94 -202 -94q-233 0 -181 367q15 107 42 175t74.5 107.5t108.5 54t153 14.5q134 0 231 -30l-24 -155q-150 2 -222 2q-65 0 -92.5 -38t-44.5 -146q-16 -102 -5 -134t61 -32q47 0 90 31z" />
    <glyph glyph-name="H" unicode="H" horiz-adv-x="705" 
d="M491 690h217l-97 -690h-217l41 289h-165l-41 -289h-217l97 690h217l-35 -247h165z" />
    <glyph glyph-name="I" unicode="I" horiz-adv-x="322" 
d="M325 690l-97 -690h-216l97 690h216z" />
    <glyph glyph-name="J" unicode="J" horiz-adv-x="395" 
d="M400 690l-78 -567q-10 -66 -58.5 -101.5t-125.5 -35.5q-42 0 -91 7.5t-71 20.5l34 134h37q59 0 64 39l73 503h216z" />
    <glyph glyph-name="K" unicode="K" horiz-adv-x="668" 
d="M459 339q14 -6 30 -26.5t25 -43.5l120 -269h-234l-107 288h-31q4 -32 -1 -67l-31 -221h-218l97 690h218l-27 -191q-5 -38 -16 -71h33l168 262h240l-193 -288q-27 -42 -72 -59z" />
    <glyph glyph-name="L" unicode="L" horiz-adv-x="552" 
d="M323 690l-71 -478q-2 -23 5.5 -31.5t30.5 -8.5h228l-4 -163q-100 -13 -331 -13q-75 0 -117.5 45.5t-32.5 115.5l74 533h218z" />
    <glyph glyph-name="M" unicode="M" horiz-adv-x="947" 
d="M857 690q37 0 56 -21t15 -58l-62 -611h-195l54 528h-14l-116 -356q-18 -62 -87 -62h-110q-35 0 -55.5 18.5t-21.5 51.5l-19 348h-16l-91 -528h-195l111 619q7 37 25 54t54 17h184q34 0 54 -19t21 -52l12 -274q3 -46 -2 -103h10q8 38 25 101l84 284q17 63 86 63h193z" />
    <glyph glyph-name="N" unicode="N" horiz-adv-x="730" 
d="M734 690l-87 -619q-5 -37 -24 -54t-55 -17h-72q-31 0 -45.5 15t-31.5 52l-118 237q-19 37 -35 114h-7q2 -72 -6 -128l-43 -290h-199l87 619q5 37 24 54t55 17h72q16 0 27.5 -4t20.5 -15.5t14 -19.5t14 -28l116 -225q26 -54 42 -119h8q-5 60 2 117l42 294h199z" />
    <glyph glyph-name="O" unicode="O" 
d="M389 704q71 0 121 -10.5t89 -36t57.5 -67.5t25.5 -104.5t-7 -148.5q-14 -107 -40 -175t-70 -107t-101 -54t-142 -15q-123 0 -188.5 32.5t-89 112.5t-3.5 222q15 106 40 173.5t68.5 107t99.5 55t140 15.5zM387 543q-54 0 -76.5 -38.5t-42.5 -167.5q-18 -119 -6.5 -154.5
t65.5 -35.5q56 0 78 38.5t42 167.5q17 118 5.5 154t-65.5 36z" />
    <glyph glyph-name="P" unicode="P" horiz-adv-x="638" 
d="M386 700q161 0 219 -52t40 -191q-18 -131 -76.5 -178t-196.5 -47q-48 0 -111 7l-34 -239h-216l97 690q100 10 278 10zM431 473q6 43 -4 58.5t-46 15.5h-77l-23 -162h72q41 0 55.5 15t22.5 73z" />
    <glyph glyph-name="Q" unicode="Q" 
d="M389 704q71 0 121 -10.5t89 -36t57.5 -67.5t25.5 -104.5t-7 -148.5q-14 -107 -40 -175t-70 -107t-101 -54t-142 -15q-123 0 -188.5 32.5t-89 112.5t-3.5 222q15 106 40 173.5t68.5 107t99.5 55t140 15.5zM387 543q-54 0 -76.5 -38.5t-42.5 -167.5q-18 -119 -6.5 -154.5
t65.5 -35.5q56 0 78 38.5t42 167.5q17 118 5.5 154t-65.5 36zM241 -27q107 -42 319 -74l-78 -175q-189 56 -301 146z" />
    <glyph glyph-name="R" unicode="R" horiz-adv-x="669" 
d="M656 482q-9 -67 -43.5 -107.5t-112.5 -48.5l-1 -7q82 -12 91 -111l26 -208h-224l-18 209q-1 28 -9 35.5t-31 7.5h-76l-35 -252h-212l97 690q100 10 279 10q151 0 218 -49.5t51 -168.5zM440 484q5 36 -6.5 49.5t-48.5 13.5h-85l-20 -142h75q44 0 61 15t24 64z" />
    <glyph glyph-name="S" unicode="S" horiz-adv-x="602" 
d="M357 704q140 0 247 -36l-19 -138q-122 2 -242 2q-35 0 -49.5 -6t-18.5 -22q-2 -12 6.5 -21.5t37.5 -23.5l116 -55q82 -39 108.5 -87t17.5 -128q-13 -118 -75 -160.5t-213 -42.5q-133 0 -269 35l20 151q193 -5 238 -5t63 6.5t22 22.5q3 12 -4 20t-29 19l-126 62
q-82 40 -108.5 91t-18.5 121q13 111 81.5 153t214.5 42z" />
    <glyph glyph-name="T" unicode="T" horiz-adv-x="618" 
d="M664 690l-23 -162h-191l-74 -528h-217l74 528h-190l23 162h598z" />
    <glyph glyph-name="U" unicode="U" 
d="M710 690l-59 -409q-23 -166 -94 -230.5t-235 -64.5q-161 0 -229.5 71t-47.5 232l58 401h216l-58 -409q-13 -79 -0.5 -106.5t66.5 -27.5q55 0 75 27.5t34 114.5l57 401h217z" />
    <glyph glyph-name="V" unicode="V" horiz-adv-x="665" 
d="M723 690l-257 -636q-21 -54 -76 -54h-189q-27 0 -46.5 17.5t-22.5 44.5l-78 628h218l24 -441q2 -31 0 -90h26q7 40 23 86l150 445h228z" />
    <glyph glyph-name="W" unicode="W" horiz-adv-x="995" 
d="M1030 690l-174 -636q-14 -54 -76 -54h-182q-28 0 -49 18t-20 44l7 369q1 24 5 105h-18q-7 -50 -20 -102l-99 -380q-14 -54 -76 -54h-187q-28 0 -49 18t-20 44l2 628h213l-27 -427q-1 -20 -4 -60.5t-4 -54.5h17q13 70 28 124l96 358q16 60 77 60h151q29 0 48 -19.5
t19 -48.5v-360q0 -42 -2 -114h18q6 59 21 121l92 421h213z" />
    <glyph glyph-name="X" unicode="X" horiz-adv-x="672" 
d="M720 690l-204 -338l117 -352h-213l-75 284l-161 -284h-230l218 352l-104 338h209l71 -268l151 268h221z" />
    <glyph glyph-name="Y" unicode="Y" horiz-adv-x="649" 
d="M715 690l-295 -481l-29 -209h-218l31 221l-158 469h216l53 -221q9 -40 7 -101h15q5 48 30 99l117 223h231z" />
    <glyph glyph-name="Z" unicode="Z" horiz-adv-x="598" 
d="M615 690l-21 -152l-333 -386h288l-21 -152h-539l20 152l334 386h-268l21 152h519z" />
    <glyph glyph-name="bracketleft" unicode="[" horiz-adv-x="364" 
d="M407 768l-18 -128h-54q-16 0 -23 -5.5t-9 -20.5l-89 -628q-3 -23 19 -23h61l-18 -128h-171q-107 0 -93 105l103 731q7 45 35.5 71t73.5 26h183z" />
    <glyph glyph-name="backslash" unicode="\" horiz-adv-x="581" 
d="M226 690l290 -769h-156l-290 769h156z" />
    <glyph glyph-name="bracketright" unicode="]" horiz-adv-x="364" 
d="M263 768q45 0 71.5 -30t20.5 -75l-103 -731q-6 -45 -34.5 -71t-73.5 -26h-183l18 128h54q15 0 22 5.5t9 20.5l89 628q3 23 -18 23h-61l18 128h171z" />
    <glyph glyph-name="asciicircum" unicode="^" horiz-adv-x="497" 
d="M376 653l113 -239l-83 -42l-111 157h-8l-157 -157l-78 42l172 239h152z" />
    <glyph glyph-name="underscore" unicode="_" horiz-adv-x="451" 
d="M416 0l-17 -122h-451l17 122h451z" />
    <glyph glyph-name="grave" unicode="`" horiz-adv-x="392" 
d="M167 747l235 -150l-67 -86l-248 106z" />
    <glyph glyph-name="a" unicode="a" horiz-adv-x="613" 
d="M354 514q52 0 133 -10.5t110 -21.5l-68 -482h-162l-2 97q-67 -100 -195 -109q-70 -5 -107.5 28.5t-43.5 96.5t6 151q9 58 24 100.5t38.5 69.5t47.5 43.5t62.5 24.5t71.5 10t85 2zM260 149q42 3 93 77l21 151h-46q-37 0 -58 -20.5t-31 -86.5q-14 -95 -6 -111q5 -12 27 -10
z" />
    <glyph glyph-name="b" unicode="b" horiz-adv-x="616" 
d="M439 514q184 0 144 -266q-7 -44 -17 -78t-31.5 -69.5t-52 -59t-80 -38.5t-112.5 -15q-69 0 -157 11t-127 31l94 670h211l-16 -123q-8 -73 -33 -136q78 73 177 73zM370 263q8 53 3.5 70.5t-28.5 17.5q-37 0 -85 -30l-28 -190q29 -3 48 -2q40 2 59 29.5t31 104.5z" />
    <glyph glyph-name="c" unicode="c" horiz-adv-x="536" 
d="M303 514q138 0 229 -39l-28 -128h-176q-44 0 -62 -20t-26 -74q-9 -61 3.5 -80t58.5 -19q105 0 168 7l15 -133q-84 -40 -220 -40q-137 0 -200.5 64.5t-43.5 206.5q19 137 81.5 196t200.5 59z" />
    <glyph glyph-name="d" unicode="d" horiz-adv-x="617" 
d="M421 700h210l-99 -700h-166l-4 80q-96 -92 -187 -92q-185 0 -151 276q18 141 72 195.5t140 54.5q94 0 160 -13q0 60 7 104zM238 270q-10 -54 -6 -82t32 -26q38 2 84 35l26 190h-47q-45 0 -62 -21.5t-27 -95.5z" />
    <glyph glyph-name="e" unicode="e" horiz-adv-x="590" 
d="M326 514q150 0 206 -46t42 -140q-9 -65 -57.5 -90.5t-155.5 -33.5l-125 -9q1 -28 16.5 -37t54.5 -9q109 0 205 11l14 -128q-95 -44 -237 -44q-84 0 -140 17t-86 52t-39.5 82.5t-2.5 114.5q8 79 31 131t63.5 79.5t90 38.5t120.5 11zM374 349q2 17 -7.5 24t-38.5 6
q-37 -1 -53 -17t-26 -65l57 6q36 3 50.5 11.5t17.5 34.5z" />
    <glyph glyph-name="f" unicode="f" horiz-adv-x="423" 
d="M394 584q-30 0 -43 -12t-18 -44l-4 -28h117l-17 -126h-119l-60 -406q-24 -159 -190 -159q-50 0 -155 15l32 125h49q31 0 45 12t19 44l53 369h-81l15 121l85 5l9 65q24 159 190 159q111 0 185 -15l-32 -125h-80z" />
    <glyph glyph-name="g" unicode="g" horiz-adv-x="618" 
d="M299 514q93 0 178 -10t125 -22l-55 -392q-10 -76 -33.5 -131t-52.5 -86t-70.5 -49t-78 -23t-84.5 -5q-148 0 -223 35l10 113h126q154 0 195 64q13 19 22.5 54t16.5 49q-68 -107 -202 -113q-103 -5 -135.5 64t-11.5 202q8 50 19.5 88.5t25 65t33.5 44.5t38 28t46.5 15.5
t51.5 7t59 1.5zM263 149q47 9 95 78l21 150h-48q-47 0 -63.5 -21t-27.5 -86q-7 -39 -9 -63t1 -38t10 -18.5t21 -1.5z" />
    <glyph glyph-name="h" unicode="h" horiz-adv-x="619" 
d="M451 514q76 0 112 -37.5t26 -106.5l-52 -370h-210l44 311q3 16 -1 21t-18 5q-45 0 -98 -41l-41 -296h-210l98 700h210l-21 -153q-8 -59 -29 -119q99 86 190 86z" />
    <glyph glyph-name="i" unicode="i" horiz-adv-x="304" 
d="M250 729q67 0 60 -66l-7 -51q-7 -58 -69 -58h-82q-66 0 -59 66l7 51q6 58 69 58h81zM285 500l-69 -500h-209l69 500h209z" />
    <glyph glyph-name="j" unicode="j" horiz-adv-x="306" 
d="M250 729q68 0 59 -66l-7 -51q-7 -58 -71 -58h-79q-67 0 -60 66l7 51q7 58 72 58h79zM289 500l-65 -446q-10 -80 -58.5 -148t-123.5 -98l-115 97q77 72 89 157l63 438h210z" />
    <glyph glyph-name="k" unicode="k" horiz-adv-x="609" 
d="M433 258q37 -26 56 -69l91 -189h-215l-85 185q-22 -9 -45 -15q0 -13 -2 -31l-20 -139h-210l98 700h210l-38 -272q-10 -61 -43 -122q59 32 102 84.5t56 109.5h216q-34 -152 -171 -242z" />
    <glyph glyph-name="l" unicode="l" horiz-adv-x="360" 
d="M311 700l-75 -522q-4 -19 4 -25.5t35 -6.5h40l12 -136q-43 -24 -143 -24q-84 0 -127.5 39t-35.5 105l81 570h209z" />
    <glyph glyph-name="m" unicode="m" horiz-adv-x="884" 
d="M721 514q74 0 109 -38t25 -106l-52 -370h-208l43 311q4 26 -19 26q-29 0 -72 -30l-43 -307h-201l43 311q5 26 -19 26q-30 0 -73 -28l-42 -309h-209l70 500h163l6 -71q88 85 182 85q104 0 127 -72q81 72 170 72z" />
    <glyph glyph-name="n" unicode="n" horiz-adv-x="619" 
d="M460 514q65 0 102.5 -37.5t27.5 -106.5l-52 -370h-211l43 302q3 21 -2.5 29t-24.5 6q-41 -4 -88 -40l-42 -297h-210l69 500h164l5 -88q48 48 106 75t113 27z" />
    <glyph glyph-name="o" unicode="o" horiz-adv-x="615" 
d="M327 514q153 0 214.5 -63t40.5 -210q-20 -141 -87.5 -197t-216.5 -56q-152 0 -215 62.5t-42 206.5q20 143 87.5 200t218.5 57zM323 372q-40 0 -55.5 -24.5t-27.5 -106.5q-10 -69 -1.5 -90t47.5 -21q38 0 52.5 23.5t26.5 103.5q11 71 3 93t-45 22z" />
    <glyph glyph-name="p" unicode="p" horiz-adv-x="615" 
d="M440 512q86 0 121.5 -70t18.5 -206q-10 -75 -30.5 -126t-52 -77t-67 -36.5t-83.5 -10.5q-67 0 -138 13q0 -47 -7 -93l-14 -86h-210l94 680h167v-88q96 100 201 100zM365 230q7 50 7 75t-6.5 35.5t-22.5 10.5q-42 0 -89 -47l-23 -191h46q48 0 62.5 21t25.5 96z" />
    <glyph glyph-name="q" unicode="q" horiz-adv-x="617" 
d="M313 514q72 0 160 -11t127 -31l-93 -652h-210l14 105q9 71 25 127q-80 -64 -153 -64q-101 0 -140.5 63.5t-19.5 202.5q6 42 13.5 72t21 62t34.5 53t50.5 38.5t72.5 26t98 8.5zM237 259q-9 -51 -4 -74t34 -23t81 35l26 174q-20 2 -49 2q-41 -3 -59.5 -25t-28.5 -89z" />
    <glyph glyph-name="r" unicode="r" horiz-adv-x="452" 
d="M443 514h36l-43 -192h-47q-51 0 -133 -13l-42 -309h-211l70 500h164l7 -68q99 82 199 82z" />
    <glyph glyph-name="s" unicode="s" horiz-adv-x="548" 
d="M278 514q148 0 252 -23l-17 -121h-191q-56 0 -71 -1.5t-16 -8.5q-2 -8 8.5 -13.5t40.5 -13.5l109 -29q129 -35 114 -158q-11 -93 -71.5 -125t-182.5 -32q-133 0 -256 22l17 121h168q76 0 99 3t25 13q1 7 -9 12t-45 15l-105 30q-131 37 -111 171q10 70 63.5 104t178.5 34z
" />
    <glyph glyph-name="t" unicode="t" horiz-adv-x="439" 
d="M317 374l-28 -196q-3 -20 2.5 -26t28.5 -6h59l11 -136q-61 -24 -167 -24q-77 0 -118.5 39t-31.5 105l36 244h-86l15 121l90 5l19 131h207l-19 -131h120l-17 -126h-121z" />
    <glyph glyph-name="u" unicode="u" horiz-adv-x="613" 
d="M390 500h208l-69 -500h-164l-4 85q-102 -99 -204 -99q-78 0 -113.5 37.5t-25.5 106.5l51 370h211l-45 -311q-4 -27 23 -27q39 0 89 37z" />
    <glyph glyph-name="v" unicode="v" horiz-adv-x="607" 
d="M613 500q-15 -110 -49 -214q-33 -102 -77 -182q-36 -64 -77.5 -84t-117.5 -20h-148q-24 0 -40.5 15t-18.5 38l-53 447h230l-3 -374h9q20 0 29 11.5t26 52.5q19 48 36 128q14 69 25 182h229z" />
    <glyph glyph-name="w" unicode="w" horiz-adv-x="925" 
d="M254 501l-8 -371h6q26 0 42 66q9 37 18 91q4 24 12 79.5t12 81.5q3 20 18 36t44 16h172q24 0 40 -15t17 -38l3 -317h7q4 0 7.5 1t6.5 3.5t5 5t4 8t3.5 9t3 11t2.5 12l3 13.5t3 15q6 26 20 114q12 79 19 178h208q-13 -116 -34 -206q-24 -104 -49 -166q-29 -72 -73.5 -100
t-146.5 -28h-77q-25 0 -42 16.5t-17 39.5l2 320h-12q-6 -52 -19 -123q-13 -72 -23 -111q-11 -40 -26.5 -67t-31.5 -42t-42.5 -22.5t-47 -9t-57.5 -1.5h-110q-24 0 -40.5 16t-18.5 40l-16 445h213z" />
    <glyph glyph-name="x" unicode="x" horiz-adv-x="604" 
d="M627 500l-169 -245l106 -255h-197l-71 186l-125 -186h-216l181 255l-97 245h194l65 -175l119 175h210z" />
    <glyph glyph-name="y" unicode="y" horiz-adv-x="622" 
d="M404 500h225q-17 -123 -76 -277t-98 -215q-145 -227 -389 -214l-13 113q13 5 39.5 13.5t40 13.5t33.5 14t36 22t31 30h-79q-24 0 -41.5 15t-20.5 38l-62 447h230l8 -358q0 -16 16 -16h24q63 140 96 374z" />
    <glyph glyph-name="z" unicode="z" horiz-adv-x="538" 
d="M514 365h1l-257 -230h228l-18 -135h-478l17 135h-1l258 230h-217l18 135h466z" />
    <glyph glyph-name="braceleft" unicode="{" horiz-adv-x="366" 
d="M396 767l-16 -127q-35 0 -48.5 -7.5t-16.5 -34.5l-18 -125q-8 -69 -36 -103t-100 -44q115 -33 99 -147l-24 -174q-3 -21 9 -31.5t45 -10.5l-6 -129q-138 -21 -200.5 23.5t-50.5 127.5l31 222q1 8 1 14.5t-0.5 11t-3.5 8t-5 6t-7 5l-8 4t-10.5 4t-11.5 4.5l16 130
q19 6 25.5 8.5t16 9.5t13 18.5t6.5 30.5l23 165q11 83 79 122.5t198 18.5z" />
    <glyph glyph-name="bar" unicode="|" horiz-adv-x="276" 
d="M280 781l-134 -950h-146l134 950h146z" />
    <glyph glyph-name="braceright" unicode="}" horiz-adv-x="365" 
d="M88 769q138 21 200.5 -23.5t51.5 -127.5l-24 -165q-2 -11 -2.5 -19t1.5 -14t2.5 -9t6.5 -6.5t8 -4.5t11.5 -4t13.5 -4l-17 -130q-19 -7 -25.5 -10t-17 -10t-15 -17t-6.5 -26l-31 -222q-12 -83 -80 -122.5t-197 -18.5l16 127q25 0 35.5 1.5t18.5 10t10 27.5l26 185
q9 58 38.5 91.5t101.5 51.5q-62 9 -83.5 46.5t-11.5 104.5l19 125q3 20 -9 27t-47 7z" />
    <glyph glyph-name="asciitilde" unicode="~" horiz-adv-x="500" 
d="M131 376q21 0 63 -9t89 -22t49 -13q25 -5 34.5 5.5t13.5 37.5l84 -8q3 -82 -22.5 -123.5t-72.5 -41.5q-23 0 -65.5 9.5t-86 21t-51.5 13.5q-24 5 -33.5 -5.5t-13.5 -37.5l-84 8q-4 84 24 124.5t72 40.5z" />
    <glyph glyph-name="uni00A0" unicode="&#xa0;" horiz-adv-x="210" 
 />
    <glyph glyph-name="exclamdown" unicode="&#xa1;" horiz-adv-x="312" 
d="M202 520q36 0 55 -19.5t14 -56.5l-6 -41q-5 -36 -23.5 -52t-56.5 -16h-40q-78 0 -69 76l5 41q10 68 81 68h40zM238 293l-11 -234l-32 -234h-208l32 234l55 234h164z" />
    <glyph glyph-name="cent" unicode="&#xa2;" horiz-adv-x="538" 
d="M337 444q-41 0 -57.5 -20t-24.5 -74q-9 -61 3 -80t54 -19q103 0 165 7l14 -133q-68 -34 -179 -39l-23 -86h-155l26 100q-152 49 -124 256q18 133 76 192t182 63l21 79h156l-24 -91q53 -10 92 -27l-29 -128h-173z" />
    <glyph glyph-name="sterling" unicode="&#xa3;" horiz-adv-x="596" 
d="M393 538q-30 0 -42.5 -9t-13.5 -34l-3 -81h147l-19 -100h-131l-1 -14q-1 -40 -16.5 -69.5t-31.5 -43t-46 -33.5q35 13 82 13h232l-22 -167h-529l18 169q95 43 100 139v6h-75l12 100h69l5 99q9 112 61.5 151t172.5 39q107 0 236 -10l-19 -155h-186z" />
    <glyph glyph-name="currency" unicode="&#xa4;" horiz-adv-x="570" 
d="M499 344q-8 -54 -36 -95l63 -68l-92 -83l-63 69q-48 -24 -97 -24q-57 0 -103 27l-67 -61l-83 91l72 65q-17 46 -10 95q7 50 38 97l-62 68l93 83l63 -70q44 23 94 23q57 0 101 -26l73 67l83 -91l-77 -70q17 -46 10 -97zM200 355q-6 -42 18.5 -68t62.5 -26q40 0 68 24.5
t34 65.5q6 42 -17.5 68t-62.5 26q-44 0 -70.5 -24t-32.5 -66z" />
    <glyph glyph-name="yen" unicode="&#xa5;" horiz-adv-x="705" 
d="M741 690l-203 -332h74l-14 -100h-122l-18 -30h136l-14 -100h-144l-18 -128h-218l18 128h-143l12 100h142l-10 30h-126l12 100h80l-111 332h216l53 -221q8 -40 6 -101h15q5 48 30 99l116 223h231z" />
    <glyph glyph-name="brokenbar" unicode="&#xa6;" horiz-adv-x="279" 
d="M282 781l-57 -400h-146l57 400h146zM204 231l-56 -400h-146l56 400h146z" />
    <glyph glyph-name="section" unicode="&#xa7;" horiz-adv-x="540" 
d="M314 704q126 0 230 -12l-22 -142q-29 2 -156 1q-40 0 -56 -6t-17 -23q-2 -23 35 -44l83 -48q82 -43 94 -105t-37 -152l-145 8q7 52 -2 69t-54 47l-122 82q-27 20 -42.5 36.5t-28 51t-6.5 78.5q6 49 28 82t58 49t73 22t87 6zM61 334l145 -8q-7 -53 2 -70t54 -46l122 -76
q1 -1 10.5 -7t13 -8.5t12.5 -10t13.5 -14t11.5 -17t10 -21.5t6 -25.5t2.5 -32t-3.5 -37.5q-13 -92 -70 -125t-173 -33q-137 0 -232 13l22 141q18 0 63 -1t71 -1q50 0 70.5 5.5t24.5 24.5q4 21 -24 37l-94 55q-82 43 -94 105t37 152z" />
    <glyph glyph-name="dieresis" unicode="&#xa8;" horiz-adv-x="436" 
d="M228 720q34 0 30 -33l-11 -76q-4 -32 -35 -32h-81q-35 0 -30 33l11 73q3 19 11.5 27t27.5 8h77zM417 720q35 0 30 -33l-11 -75q-3 -18 -10.5 -25.5t-24.5 -7.5h-81q-34 0 -30 33l11 74q5 34 36 34h80z" />
    <glyph glyph-name="copyright" unicode="&#xa9;" horiz-adv-x="787" 
d="M430 704q168 0 259.5 -100t74.5 -267q-17 -161 -121 -256t-269 -95q-167 0 -260.5 97.5t-75.5 269.5q18 163 124 257t268 94zM433 611q-126 0 -205 -72.5t-90 -201.5q-10 -120 49 -189t182 -69q124 0 203.5 71.5t91.5 202.5q11 121 -49 189.5t-182 68.5zM432 541
q70 0 132 -17l-15 -108h-132q-24 0 -34 -13t-14 -55q-5 -45 1 -57.5t30 -14.5q54 -3 126 3l9 -109q-61 -20 -136 -20q-115 0 -157.5 46t-28.5 158q13 106 61.5 146.5t157.5 40.5z" />
    <glyph glyph-name="ordfeminine" unicode="&#xaa;" horiz-adv-x="449" 
d="M281 618q112 1 164 -21l-45 -317h-116l-2 64q-40 -66 -123 -72q-76 -5 -98.5 41.5t-8.5 140.5q7 46 21.5 76.5t32 48t47.5 26.5t56.5 11t71.5 2zM220 382q25 2 53 45l15 98h-27q-20 0 -33 -13.5t-20 -54.5q-8 -47 -6 -61.5t18 -13.5z" />
    <glyph glyph-name="guillemotleft" unicode="&#xab;" horiz-adv-x="554" 
d="M183 470l113 -70l-88 -149l62 -154l-110 -72l-142 202l3 45zM417 470l113 -70l-88 -149l62 -154l-110 -72l-142 202l3 45z" />
    <glyph glyph-name="logicalnot" unicode="&#xac;" horiz-adv-x="569" 
d="M54 387h480l-36 -249h-166l14 95h-315z" />
    <glyph glyph-name="uni00AD" unicode="&#xad;" horiz-adv-x="384" 
d="M341 318l-18 -122h-291l18 122h291z" />
    <glyph glyph-name="registered" unicode="&#xae;" horiz-adv-x="494" 
d="M303 704q93 0 149 -65t42 -165q-15 -97 -81.5 -156t-168.5 -59q-94 0 -150 65t-42 166q15 97 81.5 155.5t169.5 58.5zM439 490q9 72 -32 117.5t-108 45.5q-81 0 -131 -48t-61 -131q-9 -73 32.5 -118.5t108.5 -45.5q81 0 131 48.5t60 131.5zM281 594q60 0 86 -16t20 -51
q-5 -40 -50 -45l-1 -2q30 -2 34 -38l6 -59h-88l-1 61q0 10 -10 10h-21l-10 -71h-85l29 208q30 3 91 3zM302 519q3 16 -12 16h-23l-4 -30h19q18 0 20 14z" />
    <glyph glyph-name="macron" unicode="&#xaf;" horiz-adv-x="400" 
d="M425 713l-17 -123h-320l17 123h320z" />
    <glyph glyph-name="degree" unicode="&#xb0;" horiz-adv-x="332" 
d="M210 698q61 0 103 -40.5t34 -103.5q-8 -59 -48.5 -94t-104.5 -35q-63 0 -103 40.5t-31 104.5q8 58 47 93t103 35zM206 610q-45 0 -50 -46q-3 -24 9 -37.5t35 -13.5q46 0 51 47q2 22 -10 36t-35 14z" />
    <glyph glyph-name="plusminus" unicode="&#xb1;" horiz-adv-x="555" 
d="M379 465h159l-23 -154h-158l-15 -107h-152l15 107h-158l22 154h158l15 108h153zM5 19l23 155h468l-22 -155h-469z" />
    <glyph glyph-name="uni00B2" unicode="&#xb2;" horiz-adv-x="431" 
d="M276 781q91 0 130.5 -19t39.5 -74q0 -67 -80 -127l-102 -75q32 9 58 8l108 -3l-19 -131h-359l12 79q5 43 31 64l83 63q91 69 91 79q0 5 -29 5q-78 0 -139 2l13 117q73 12 162 12z" />
    <glyph glyph-name="uni00B3" unicode="&#xb3;" horiz-adv-x="411" 
d="M278 783q83 0 120 -16t37 -56q0 -63 -23 -94.5t-73 -35.5v-2q41 -5 60 -21.5t19 -48.5q0 -90 -46 -124t-146 -34q-85 0 -178 12l20 113q32 -1 125 -1q28 0 38 1t17.5 8t7.5 23q0 9 -7.5 11.5t-30.5 3.5l-87 3l13 93l88 4q26 1 33.5 5t7.5 21q0 7 -7 9.5t-30 2.5
q-62 0 -132 2l12 109q86 12 162 12z" />
    <glyph glyph-name="acute" unicode="&#xb4;" horiz-adv-x="392" 
d="M337 753l66 -146l-266 -96l-47 86z" />
    <glyph glyph-name="uni00B5" unicode="&#xb5;" horiz-adv-x="644" 
d="M582 117h40l-7 -102q-80 -28 -161 -28q-108 0 -108 94v1q-51 -74 -119 -91l-8 -56l-43 -115h-183l56 394l39 286h211l-44 -304q-4 -34 22 -34q29 0 57.5 36t41.5 122l24 180h211l-48 -338q-4 -24 0 -34.5t19 -10.5z" />
    <glyph glyph-name="paragraph" unicode="&#xb6;" horiz-adv-x="595" 
d="M576 685l-16 -117l-80 -568h-125l81 578q-12 1 -32 1l-111 -789h-125l58 412q-110 13 -156 81t-30 175q20 135 97 189.5t245 54.5q113 0 194 -17z" />
    <glyph glyph-name="periodcentered" unicode="&#xb7;" horiz-adv-x="262" 
d="M155 351q36 0 55 -19.5t14 -56.5l-6 -41q-5 -36 -23.5 -52t-56.5 -16h-40q-78 0 -69 76l5 41q10 68 81 68h40z" />
    <glyph glyph-name="cedilla" unicode="&#xb8;" horiz-adv-x="263" 
d="M26 -33q81 15 131.5 0t40.5 -73q-14 -80 -83 -115.5t-165 -22.5l21 77q89 0 99 46q0 3 0.5 5.5t-2 4.5t-6 3t-11 1.5t-18 1t-25.5 0.5z" />
    <glyph glyph-name="uni00B9" unicode="&#xb9;" horiz-adv-x="321" 
d="M348 774l-58 -414h-160l32 231q5 34 15 60l-99 -14l-4 98l114 39h160z" />
    <glyph glyph-name="ordmasculine" unicode="&#xba;" horiz-adv-x="434" 
d="M251 623q106 0 148 -43.5t28 -143.5q-13 -94 -57 -130.5t-144 -36.5q-105 0 -148 42.5t-30 140.5q13 94 59.5 132.5t143.5 38.5zM249 521q-20 0 -29 -17t-16 -68q-6 -28 -1.5 -47t24.5 -19t28.5 16.5t15.5 65.5q5 46 0.5 57.5t-22.5 11.5z" />
    <glyph glyph-name="guillemotright" unicode="&#xbb;" horiz-adv-x="555" 
d="M125 27l-113 70l88 149l-62 154l110 72l142 -202l-3 -45zM359 27l-113 70l88 149l-62 154l110 72l142 -202l-3 -45z" />
    <glyph glyph-name="onequarter" unicode="&#xbc;" horiz-adv-x="957" 
d="M119 276l33 235q6 38 14 60l-90 -18l-6 98l107 39h160l-59 -414h-159zM611 690h133l-483 -690h-133zM870 176h45l-11 -86l-47 -13h-1l-11 -77h-140l11 77h-170q-34 0 -46.5 27t2.5 52l133 258h143l-108 -224q-6 -14 7 -14h52l12 86l34 69h117z" />
    <glyph glyph-name="onehalf" unicode="&#xbd;" horiz-adv-x="945" 
d="M337 690l-59 -414h-160l33 235q6 38 14 60l-90 -18l-5 98l106 39h161zM742 690l-482 -690h-133l483 690h132zM729 421q96 0 143 -25.5t34 -100.5q-9 -49 -70 -92l-110 -76q29 8 56 7l110 -3l-18 -131h-354l12 83q7 46 25 63l83 63q77 54 89 66q9 8 6 14.5t-14 6.5
q-81 0 -144 2v112q66 11 152 11z" />
    <glyph glyph-name="threequarters" unicode="&#xbe;" horiz-adv-x="1006" 
d="M388 383q-7 -56 -48.5 -86t-138.5 -30q-69 0 -166 13l8 112q36 -1 135 -1q48 0 52 31q2 11 -2 15t-17 4l-100 2l13 93l98 -1q14 0 19.5 6t5.5 21q0 14 -21 14q-71 0 -134 2l-2 110q77 11 155 11q96 0 131 -23.5t27 -81.5q-11 -89 -94 -97l-1 -3q92 -11 80 -111zM680 690
h133l-482 -690h-132zM923 178h45l-11 -86l-46 -13h-2l-11 -77h-139l11 77h-169q-34 0 -47 27t2 52l133 258h143l-109 -224q-6 -14 7 -14h53l12 84l33 71h117z" />
    <glyph glyph-name="questiondown" unicode="&#xbf;" horiz-adv-x="535" 
d="M330 518q36 0 55 -19.5t14 -56.5l-6 -41q-4 -36 -22.5 -52t-56.5 -16h-41q-78 0 -69 76l5 41q10 68 80 68h41zM365 290q-5 -59 -27.5 -110t-46.5 -78.5t-51 -55t-34 -39.5q-20 -35 35 -35h213l-2 -139q-7 -1 -33 -6t-33 -6.5t-28.5 -5t-34.5 -4t-35 -2.5t-45.5 -2.5
t-52.5 -0.5q-120 0 -173.5 40.5t-42.5 122.5q5 39 26.5 70.5t49.5 55.5t57.5 48.5t55.5 62t38 84.5h164z" />
    <glyph glyph-name="Agrave" unicode="&#xc0;" horiz-adv-x="678" 
d="M509 806l-67 -86l-248 106l80 130zM430 0l-12 146h-188l-54 -146h-225l266 638q20 52 76 52h196q26 0 46 -17.5t23 -42.5l89 -630h-217zM289 304h117l-12 149q-3 26 -1 77h-28q-7 -41 -20 -75z" />
    <glyph glyph-name="Aacute" unicode="&#xc1;" horiz-adv-x="678" 
d="M620 816l-266 -96l-47 86l247 156zM430 0l-12 146h-188l-54 -146h-225l266 638q20 52 76 52h196q26 0 46 -17.5t23 -42.5l89 -630h-217zM289 304h117l-12 149q-3 26 -1 77h-28q-7 -41 -20 -75z" />
    <glyph glyph-name="Acircumflex" unicode="&#xc2;" horiz-adv-x="678" 
d="M400 813l-164 -94l-48 72l150 136h141l131 -140l-55 -68l-147 94h-8zM430 0l-12 146h-188l-54 -146h-225l266 638q20 52 76 52h196q26 0 46 -17.5t23 -42.5l89 -630h-217zM289 304h117l-12 149q-3 26 -1 77h-28q-7 -41 -20 -75z" />
    <glyph glyph-name="Atilde" unicode="&#xc3;" horiz-adv-x="678" 
d="M295 747l-85 8q-2 82 24.5 123.5t73.5 41.5q30 0 94.5 -22t65.5 -22q24 -6 34 5t13 38l85 -8q4 -83 -22 -124t-73 -41q-31 0 -94 21.5t-70 22.5q-24 5 -33 -5.5t-13 -37.5zM430 0l-12 146h-188l-54 -146h-225l266 638q20 52 76 52h196q26 0 46 -17.5t23 -42.5l89 -630
h-217zM289 304h117l-12 149q-3 26 -1 77h-28q-7 -41 -20 -75z" />
    <glyph glyph-name="Adieresis" unicode="&#xc4;" horiz-adv-x="678" 
d="M267 763q-35 0 -30 33l11 73q3 19 11.5 27t27.5 8h77q34 0 30 -33l-11 -76q-4 -32 -35 -32h-81zM456 763q-34 0 -30 33l11 74q5 34 36 34h80q35 0 30 -33l-11 -75q-3 -18 -10.5 -25.5t-24.5 -7.5h-81zM430 0l-12 146h-188l-54 -146h-225l266 638q20 52 76 52h196
q26 0 46 -17.5t23 -42.5l89 -630h-217zM289 304h117l-12 149q-3 26 -1 77h-28q-7 -41 -20 -75z" />
    <glyph glyph-name="Aring" unicode="&#xc5;" horiz-adv-x="678" 
d="M408 717q-52 0 -88 31t-36 80q0 57 38 94t96 37q53 0 88.5 -31t35.5 -80q0 -58 -37.5 -94.5t-96.5 -36.5zM414 884q-21 0 -33.5 -13t-12.5 -35q0 -19 12.5 -31.5t30.5 -12.5q22 0 34.5 13t12.5 36q0 19 -12 31t-32 12zM430 0l-12 146h-188l-54 -146h-225l266 638
q20 52 76 52h196q26 0 46 -17.5t23 -42.5l89 -630h-217zM289 304h117l-12 149q-3 26 -1 77h-28q-7 -41 -20 -75z" />
    <glyph glyph-name="AE" unicode="&#xc6;" horiz-adv-x="956" 
d="M721 531q-25 0 -35.5 -8.5t-13.5 -31.5l-10 -71h238l-16 -134h-242l-13 -87q-5 -40 36 -40h232l-3 -151q-97 -12 -335 -12q-72 0 -109 45t-27 115h-169l-87 -156h-225l315 538q35 59 73.5 90.5t108 47.5t184.5 16q234 0 354 -11l-26 -150h-230zM454 512l-111 -198h102
l26 188q5 29 21 62h-11l-12.5 -25t-14.5 -27z" />
    <glyph glyph-name="Ccedilla" unicode="&#xc7;" horiz-adv-x="603" 
d="M391 702q128 0 227 -28l-25 -157q-146 2 -213 2q-38 0 -57 -11.5t-32 -50t-24 -120.5q-15 -102 -6 -134t63 -32q136 0 221 8l8 -159q-103 -32 -239 -32q-175 0 -238 81.5t-35 283.5q15 106 38.5 172t65.5 106.5t99.5 55.5t146.5 15zM200 -57q81 15 131.5 0t40.5 -73
q-14 -80 -83 -115.5t-165 -22.5l21 77q89 0 99 46q0 3 0.5 5.5t-2 4.5t-6 3t-11 1.5t-18 1t-25.5 0.5z" />
    <glyph glyph-name="Egrave" unicode="&#xc8;" horiz-adv-x="587" 
d="M491 806l-67 -86l-248 106l80 130zM343 528q-26 0 -37 -9t-14 -31l-9 -63h249l-18 -144h-251l-11 -80q-6 -39 37 -39h240l-4 -154q-89 -12 -338 -12q-84 0 -125 52t-30 136l50 357q10 71 56 112t121 41q248 0 348 -14l-24 -152h-240z" />
    <glyph glyph-name="Eacute" unicode="&#xc9;" horiz-adv-x="587" 
d="M602 816l-266 -96l-47 86l247 156zM343 528q-26 0 -37 -9t-14 -31l-9 -63h249l-18 -144h-251l-11 -80q-6 -39 37 -39h240l-4 -154q-89 -12 -338 -12q-84 0 -125 52t-30 136l50 357q10 71 56 112t121 41q248 0 348 -14l-24 -152h-240z" />
    <glyph glyph-name="Ecircumflex" unicode="&#xca;" horiz-adv-x="587" 
d="M382 813l-164 -94l-48 72l150 136h141l131 -140l-55 -68l-147 94h-8zM343 528q-26 0 -37 -9t-14 -31l-9 -63h249l-18 -144h-251l-11 -80q-6 -39 37 -39h240l-4 -154q-89 -12 -338 -12q-84 0 -125 52t-30 136l50 357q10 71 56 112t121 41q248 0 348 -14l-24 -152h-240z
" />
    <glyph glyph-name="Edieresis" unicode="&#xcb;" horiz-adv-x="587" 
d="M249 763q-35 0 -30 33l11 73q3 19 11.5 27t27.5 8h77q34 0 30 -33l-11 -76q-4 -32 -35 -32h-81zM438 763q-34 0 -30 33l11 74q5 34 36 34h80q35 0 30 -33l-11 -75q-3 -18 -10.5 -25.5t-24.5 -7.5h-81zM343 528q-26 0 -37 -9t-14 -31l-9 -63h249l-18 -144h-251l-11 -80
q-6 -39 37 -39h240l-4 -154q-89 -12 -338 -12q-84 0 -125 52t-30 136l50 357q10 71 56 112t121 41q248 0 348 -14l-24 -152h-240z" />
    <glyph glyph-name="Igrave" unicode="&#xcc;" horiz-adv-x="322" 
d="M101 956l235 -150l-67 -86l-248 106zM325 690l-97 -690h-216l97 690h216z" />
    <glyph glyph-name="Iacute" unicode="&#xcd;" horiz-adv-x="322" 
d="M381 962l66 -146l-266 -96l-47 86zM325 690l-97 -690h-216l97 690h216z" />
    <glyph glyph-name="Icircumflex" unicode="&#xce;" horiz-adv-x="322" 
d="M306 927l131 -140l-55 -68l-147 94h-8l-164 -94l-48 72l150 136h141zM325 690l-97 -690h-216l97 690h216z" />
    <glyph glyph-name="Idieresis" unicode="&#xcf;" horiz-adv-x="322" 
d="M191 904q35 0 30 -33l-11 -76q-4 -32 -35 -32h-81q-34 0 -30 33l11 73q3 19 11.5 27t27.5 8h77zM380 904q34 0 30 -33l-11 -75q-3 -18 -10.5 -25.5t-24.5 -7.5h-81q-35 0 -30 33l11 74q5 34 36 34h80zM325 690l-97 -690h-216l97 690h216z" />
    <glyph glyph-name="Eth" unicode="&#xd0;" 
d="M389 700q117 0 183.5 -31t94 -111.5t7.5 -220.5q-15 -106 -38.5 -171t-65.5 -105.5t-100 -55.5t-149 -15q-157 0 -310 10l44 313h-47l14 100h47l39 277q128 10 281 10zM446 353q16 116 4.5 153t-68.5 37h-78l-18 -130h87l-14 -100h-87l-23 -165q23 -1 69 -1
q55 0 83.5 41.5t44.5 164.5z" />
    <glyph glyph-name="Ntilde" unicode="&#xd1;" horiz-adv-x="730" 
d="M333 920q30 0 94.5 -22t65.5 -22q24 -6 34 5t13 38l85 -8q4 -83 -22 -124t-73 -41q-31 0 -94 21.5t-70 22.5q-24 5 -33 -5.5t-13 -37.5l-85 8q-2 82 24.5 123.5t73.5 41.5zM734 690l-87 -619q-5 -37 -24 -54t-55 -17h-72q-31 0 -45.5 15t-31.5 52l-118 237
q-19 37 -35 114h-7q2 -72 -6 -128l-43 -290h-199l87 619q5 37 24 54t55 17h72q16 0 27.5 -4t20.5 -15.5t14 -19.5t14 -28l116 -225q26 -54 42 -119h8q-5 60 2 117l42 294h199z" />
    <glyph glyph-name="Ograve" unicode="&#xd2;" 
d="M288 956l235 -150l-67 -86l-248 106zM389 704q71 0 121 -10.5t89 -36t57.5 -67.5t25.5 -104.5t-7 -148.5q-14 -107 -40 -175t-70 -107t-101 -54t-142 -15q-123 0 -188.5 32.5t-89 112.5t-3.5 222q15 106 40 173.5t68.5 107t99.5 55t140 15.5zM387 543q-54 0 -76.5 -38.5
t-42.5 -167.5q-18 -119 -6.5 -154.5t65.5 -35.5q56 0 78 38.5t42 167.5q17 118 5.5 154t-65.5 36z" />
    <glyph glyph-name="Oacute" unicode="&#xd3;" 
d="M568 962l66 -146l-266 -96l-47 86zM389 704q71 0 121 -10.5t89 -36t57.5 -67.5t25.5 -104.5t-7 -148.5q-14 -107 -40 -175t-70 -107t-101 -54t-142 -15q-123 0 -188.5 32.5t-89 112.5t-3.5 222q15 106 40 173.5t68.5 107t99.5 55t140 15.5zM387 543q-54 0 -76.5 -38.5
t-42.5 -167.5q-18 -119 -6.5 -154.5t65.5 -35.5q56 0 78 38.5t42 167.5q17 118 5.5 154t-65.5 36z" />
    <glyph glyph-name="Ocircumflex" unicode="&#xd4;" 
d="M493 927l131 -140l-55 -68l-147 94h-8l-164 -94l-48 72l150 136h141zM389 704q71 0 121 -10.5t89 -36t57.5 -67.5t25.5 -104.5t-7 -148.5q-14 -107 -40 -175t-70 -107t-101 -54t-142 -15q-123 0 -188.5 32.5t-89 112.5t-3.5 222q15 106 40 173.5t68.5 107t99.5 55
t140 15.5zM387 543q-54 0 -76.5 -38.5t-42.5 -167.5q-18 -119 -6.5 -154.5t65.5 -35.5q56 0 78 38.5t42 167.5q17 118 5.5 154t-65.5 36z" />
    <glyph glyph-name="Otilde" unicode="&#xd5;" 
d="M322 920q30 0 94.5 -22t65.5 -22q24 -6 34 5t13 38l85 -8q4 -83 -22 -124t-73 -41q-31 0 -94 21.5t-70 22.5q-24 5 -33 -5.5t-13 -37.5l-85 8q-2 82 24.5 123.5t73.5 41.5zM389 704q71 0 121 -10.5t89 -36t57.5 -67.5t25.5 -104.5t-7 -148.5q-14 -107 -40 -175t-70 -107
t-101 -54t-142 -15q-123 0 -188.5 32.5t-89 112.5t-3.5 222q15 106 40 173.5t68.5 107t99.5 55t140 15.5zM387 543q-54 0 -76.5 -38.5t-42.5 -167.5q-18 -119 -6.5 -154.5t65.5 -35.5q56 0 78 38.5t42 167.5q17 118 5.5 154t-65.5 36z" />
    <glyph glyph-name="Odieresis" unicode="&#xd6;" 
d="M378 904q34 0 30 -33l-11 -76q-4 -32 -35 -32h-81q-35 0 -30 33l11 73q3 19 11.5 27t27.5 8h77zM567 904q35 0 30 -33l-11 -75q-3 -18 -10.5 -25.5t-24.5 -7.5h-81q-34 0 -30 33l11 74q5 34 36 34h80zM389 704q71 0 121 -10.5t89 -36t57.5 -67.5t25.5 -104.5t-7 -148.5
q-14 -107 -40 -175t-70 -107t-101 -54t-142 -15q-123 0 -188.5 32.5t-89 112.5t-3.5 222q15 106 40 173.5t68.5 107t99.5 55t140 15.5zM387 543q-54 0 -76.5 -38.5t-42.5 -167.5q-18 -119 -6.5 -154.5t65.5 -35.5q56 0 78 38.5t42 167.5q17 118 5.5 154t-65.5 36z" />
    <glyph glyph-name="multiply" unicode="&#xd7;" horiz-adv-x="526" 
d="M513 400l-134 -106l109 -106l-111 -125l-129 129l-161 -127l-77 125l135 106l-103 103l110 115l121 -118l163 128z" />
    <glyph glyph-name="Oslash" unicode="&#xd8;" 
d="M691 735l-62 -104q74 -81 46 -294q-14 -107 -40 -175t-70 -107t-101 -54t-142 -15q-47 0 -79 4l-62 -101l-150 77l54 88q-75 79 -44 299q15 106 40 173.5t68.5 107t99.5 55t140 15.5q53 0 85 -5l67 112zM447 353q17 118 5.5 154t-65.5 36t-76.5 -38.5t-42.5 -167.5
q-18 -119 -6.5 -154.5t65.5 -35.5q56 0 78 38.5t42 167.5z" />
    <glyph glyph-name="Ugrave" unicode="&#xd9;" 
d="M288 956l235 -150l-67 -86l-248 106zM710 690l-59 -409q-23 -166 -94 -230.5t-235 -64.5q-161 0 -229.5 71t-47.5 232l58 401h216l-58 -409q-13 -79 -0.5 -106.5t66.5 -27.5q55 0 75 27.5t34 114.5l57 401h217z" />
    <glyph glyph-name="Uacute" unicode="&#xda;" 
d="M568 962l66 -146l-266 -96l-47 86zM710 690l-59 -409q-23 -166 -94 -230.5t-235 -64.5q-161 0 -229.5 71t-47.5 232l58 401h216l-58 -409q-13 -79 -0.5 -106.5t66.5 -27.5q55 0 75 27.5t34 114.5l57 401h217z" />
    <glyph glyph-name="Ucircumflex" unicode="&#xdb;" 
d="M493 927l131 -140l-55 -68l-147 94h-8l-164 -94l-48 72l150 136h141zM710 690l-59 -409q-23 -166 -94 -230.5t-235 -64.5q-161 0 -229.5 71t-47.5 232l58 401h216l-58 -409q-13 -79 -0.5 -106.5t66.5 -27.5q55 0 75 27.5t34 114.5l57 401h217z" />
    <glyph glyph-name="Udieresis" unicode="&#xdc;" 
d="M378 904q34 0 30 -33l-11 -76q-4 -32 -35 -32h-81q-35 0 -30 33l11 73q3 19 11.5 27t27.5 8h77zM567 904q35 0 30 -33l-11 -75q-3 -18 -10.5 -25.5t-24.5 -7.5h-81q-34 0 -30 33l11 74q5 34 36 34h80zM710 690l-59 -409q-23 -166 -94 -230.5t-235 -64.5q-161 0 -229.5 71
t-47.5 232l58 401h216l-58 -409q-13 -79 -0.5 -106.5t66.5 -27.5q55 0 75 27.5t34 114.5l57 401h217z" />
    <glyph glyph-name="Yacute" unicode="&#xdd;" horiz-adv-x="649" 
d="M605 816l-266 -96l-47 86l247 156zM715 690l-295 -481l-29 -209h-218l31 221l-158 469h216l53 -221q9 -40 7 -101h15q5 48 30 99l117 223h231z" />
    <glyph glyph-name="Thorn" unicode="&#xde;" horiz-adv-x="636" 
d="M367 578q160 0 218.5 -52.5t40.5 -190.5q-18 -131 -76 -178t-195 -47q-47 0 -110 7l-16 -117h-217l97 690h217l-16 -112h57zM411 351q6 43 -3 58.5t-44 15.5h-75l-23 -162h70q39 0 53 15t22 73z" />
    <glyph glyph-name="germandbls" unicode="&#xdf;" horiz-adv-x="731" 
d="M640 273q75 -77 62 -150q-12 -71 -59 -102.5t-161 -31.5q-57 0 -173 11l18 128h110q29 0 43.5 5.5t14.5 23.5q0 11 -11.5 26t-49.5 51l-26 20q-34 31 -47.5 58t-8.5 66q3 28 16.5 48t53.5 65q46 50 49 77q3 22 -6.5 28t-39.5 6q-50 0 -68.5 -13t-23.5 -52l-79 -569
q-12 -75 -55.5 -117t-135.5 -42q-49 0 -152 15l31 125h49q30 0 43 12t18 44l52 369h-83l15 121l85 5l10 70q13 97 75.5 134.5t206.5 37.5q109 0 167.5 -19.5t75.5 -56t6 -100.5t-54 -112q-7 -9 -20 -22t-19 -20t-11.5 -16.5t-6.5 -17.5q-1 -9 4.5 -19t12.5 -17.5t26 -25.5z
" />
    <glyph glyph-name="agrave" unicode="&#xe0;" horiz-adv-x="613" 
d="M466 618l-67 -86l-248 106l80 130zM354 514q52 0 133 -10.5t110 -21.5l-68 -482h-162l-2 97q-67 -100 -195 -109q-70 -5 -107.5 28.5t-43.5 96.5t6 151q9 58 24 100.5t38.5 69.5t47.5 43.5t62.5 24.5t71.5 10t85 2zM260 149q42 3 93 77l21 151h-46q-37 0 -58 -20.5
t-31 -86.5q-14 -95 -6 -111q5 -12 27 -10z" />
    <glyph glyph-name="aacute" unicode="&#xe1;" horiz-adv-x="613" 
d="M577 628l-266 -96l-47 86l247 156zM354 514q52 0 133 -10.5t110 -21.5l-68 -482h-162l-2 97q-67 -100 -195 -109q-70 -5 -107.5 28.5t-43.5 96.5t6 151q9 58 24 100.5t38.5 69.5t47.5 43.5t62.5 24.5t71.5 10t85 2zM260 149q42 3 93 77l21 151h-46q-37 0 -58 -20.5
t-31 -86.5q-14 -95 -6 -111q5 -12 27 -10z" />
    <glyph glyph-name="acircumflex" unicode="&#xe2;" horiz-adv-x="613" 
d="M357 625l-164 -94l-48 72l150 136h141l131 -140l-55 -68l-147 94h-8zM354 514q52 0 133 -10.5t110 -21.5l-68 -482h-162l-2 97q-67 -100 -195 -109q-70 -5 -107.5 28.5t-43.5 96.5t6 151q9 58 24 100.5t38.5 69.5t47.5 43.5t62.5 24.5t71.5 10t85 2zM260 149q42 3 93 77
l21 151h-46q-37 0 -58 -20.5t-31 -86.5q-14 -95 -6 -111q5 -12 27 -10z" />
    <glyph glyph-name="atilde" unicode="&#xe3;" horiz-adv-x="613" 
d="M252 559l-85 8q-2 82 24.5 123.5t73.5 41.5q30 0 94.5 -22t65.5 -22q24 -6 34 5t13 38l85 -8q4 -83 -22 -124t-73 -41q-31 0 -94 21.5t-70 22.5q-24 5 -33 -5.5t-13 -37.5zM354 514q52 0 133 -10.5t110 -21.5l-68 -482h-162l-2 97q-67 -100 -195 -109q-70 -5 -107.5 28.5
t-43.5 96.5t6 151q9 58 24 100.5t38.5 69.5t47.5 43.5t62.5 24.5t71.5 10t85 2zM260 149q42 3 93 77l21 151h-46q-37 0 -58 -20.5t-31 -86.5q-14 -95 -6 -111q5 -12 27 -10z" />
    <glyph glyph-name="adieresis" unicode="&#xe4;" horiz-adv-x="613" 
d="M224 575q-34 0 -30 33l11 73q3 19 11.5 27t27.5 8h77q35 0 30 -33l-11 -76q-4 -32 -35 -32h-81zM413 575q-35 0 -30 33l11 74q5 34 36 34h80q34 0 30 -33l-11 -75q-3 -18 -10.5 -25.5t-24.5 -7.5h-81zM354 514q52 0 133 -10.5t110 -21.5l-68 -482h-162l-2 97
q-67 -100 -195 -109q-70 -5 -107.5 28.5t-43.5 96.5t6 151q9 58 24 100.5t38.5 69.5t47.5 43.5t62.5 24.5t71.5 10t85 2zM260 149q42 3 93 77l21 151h-46q-37 0 -58 -20.5t-31 -86.5q-14 -95 -6 -111q5 -12 27 -10z" />
    <glyph glyph-name="aring" unicode="&#xe5;" horiz-adv-x="613" 
d="M365 529q-52 0 -88 31t-36 80q0 57 38 94t96 37q53 0 88.5 -31t35.5 -80q0 -58 -37.5 -94.5t-96.5 -36.5zM371 696q-21 0 -33.5 -13t-12.5 -35q0 -19 12.5 -31.5t30.5 -12.5q22 0 34.5 13t12.5 36q0 19 -12 31t-32 12zM354 514q52 0 133 -10.5t110 -21.5l-68 -482h-162
l-2 97q-67 -100 -195 -109q-70 -5 -107.5 28.5t-43.5 96.5t6 151q9 58 24 100.5t38.5 69.5t47.5 43.5t62.5 24.5t71.5 10t85 2zM260 149q42 3 93 77l21 151h-46q-37 0 -58 -20.5t-31 -86.5q-14 -95 -6 -111q5 -12 27 -10z" />
    <glyph glyph-name="ae" unicode="&#xe6;" horiz-adv-x="916" 
d="M655 514q148 0 203.5 -46t41.5 -140q-9 -65 -57 -90.5t-153 -33.5l-128 -10q1 -28 17 -36.5t58 -8.5q107 0 201 11l13 -128q-93 -44 -233 -44q-206 0 -252 117q-64 -108 -197 -117q-102 -7 -133 64.5t-11 211.5q8 58 21 100t33 69.5t40 43.5t53 24t60.5 10.5t72.5 2.5
q112 1 214 -15q53 15 136 15zM700 349q2 17 -7 24t-36 6q-40 -1 -56 -17t-26 -65l59 6q35 3 49.5 11.5t16.5 34.5zM260 149q19 1 45 24t47 56q0 7 2 25q7 70 28 123h-56q-40 0 -58.5 -19.5t-28.5 -87.5q-14 -95 -6 -111q5 -12 27 -10z" />
    <glyph glyph-name="ccedilla" unicode="&#xe7;" horiz-adv-x="536" 
d="M303 514q138 0 229 -39l-28 -128h-176q-44 0 -62 -20t-26 -74q-9 -61 3.5 -80t58.5 -19q105 0 168 7l15 -133q-84 -40 -220 -40q-137 0 -200.5 64.5t-43.5 206.5q19 137 81.5 196t200.5 59zM158 -45q81 15 131.5 0t40.5 -73q-14 -80 -83 -115.5t-165 -22.5l21 77
q89 0 99 46q0 3 0.5 5.5t-2 4.5t-6 3t-11 1.5t-18 1t-25.5 0.5z" />
    <glyph glyph-name="egrave" unicode="&#xe8;" horiz-adv-x="590" 
d="M457 618l-67 -86l-248 106l80 130zM326 514q150 0 206 -46t42 -140q-9 -65 -57.5 -90.5t-155.5 -33.5l-125 -9q1 -28 16.5 -37t54.5 -9q109 0 205 11l14 -128q-95 -44 -237 -44q-84 0 -140 17t-86 52t-39.5 82.5t-2.5 114.5q8 79 31 131t63.5 79.5t90 38.5t120.5 11z
M374 349q2 17 -7.5 24t-38.5 6q-37 -1 -53 -17t-26 -65l57 6q36 3 50.5 11.5t17.5 34.5z" />
    <glyph glyph-name="eacute" unicode="&#xe9;" horiz-adv-x="590" 
d="M568 628l-266 -96l-47 86l247 156zM326 514q150 0 206 -46t42 -140q-9 -65 -57.5 -90.5t-155.5 -33.5l-125 -9q1 -28 16.5 -37t54.5 -9q109 0 205 11l14 -128q-95 -44 -237 -44q-84 0 -140 17t-86 52t-39.5 82.5t-2.5 114.5q8 79 31 131t63.5 79.5t90 38.5t120.5 11z
M374 349q2 17 -7.5 24t-38.5 6q-37 -1 -53 -17t-26 -65l57 6q36 3 50.5 11.5t17.5 34.5z" />
    <glyph glyph-name="ecircumflex" unicode="&#xea;" horiz-adv-x="590" 
d="M348 625l-164 -94l-48 72l150 136h141l131 -140l-55 -68l-147 94h-8zM326 514q150 0 206 -46t42 -140q-9 -65 -57.5 -90.5t-155.5 -33.5l-125 -9q1 -28 16.5 -37t54.5 -9q109 0 205 11l14 -128q-95 -44 -237 -44q-84 0 -140 17t-86 52t-39.5 82.5t-2.5 114.5q8 79 31 131
t63.5 79.5t90 38.5t120.5 11zM374 349q2 17 -7.5 24t-38.5 6q-37 -1 -53 -17t-26 -65l57 6q36 3 50.5 11.5t17.5 34.5z" />
    <glyph glyph-name="edieresis" unicode="&#xeb;" horiz-adv-x="590" 
d="M215 575q-35 0 -30 33l11 73q3 19 11.5 27t27.5 8h77q34 0 30 -33l-11 -76q-4 -32 -35 -32h-81zM404 575q-34 0 -30 33l11 74q5 34 36 34h80q35 0 30 -33l-11 -75q-3 -18 -10.5 -25.5t-24.5 -7.5h-81zM326 514q150 0 206 -46t42 -140q-9 -65 -57.5 -90.5t-155.5 -33.5
l-125 -9q1 -28 16.5 -37t54.5 -9q109 0 205 11l14 -128q-95 -44 -237 -44q-84 0 -140 17t-86 52t-39.5 82.5t-2.5 114.5q8 79 31 131t63.5 79.5t90 38.5t120.5 11zM374 349q2 17 -7.5 24t-38.5 6q-37 -1 -53 -17t-26 -65l57 6q36 3 50.5 11.5t17.5 34.5z" />
    <glyph glyph-name="igrave" unicode="&#xec;" horiz-adv-x="306" 
d="M64 768l235 -150l-67 -86l-248 106zM288 500l-70 -500h-211l70 500h211z" />
    <glyph glyph-name="iacute" unicode="&#xed;" horiz-adv-x="306" 
d="M344 774l66 -146l-266 -96l-47 86zM288 500l-70 -500h-211l70 500h211z" />
    <glyph glyph-name="icircumflex" unicode="&#xee;" horiz-adv-x="306" 
d="M269 739l131 -140l-55 -68l-147 94h-8l-164 -94l-48 72l150 136h141zM288 500l-70 -500h-211l70 500h211z" />
    <glyph glyph-name="idieresis" unicode="&#xef;" horiz-adv-x="306" 
d="M154 716q34 0 30 -33l-11 -76q-4 -32 -35 -32h-81q-35 0 -30 33l11 73q3 19 11.5 27t27.5 8h77zM343 716q35 0 30 -33l-11 -75q-3 -18 -10.5 -25.5t-24.5 -7.5h-81q-34 0 -30 33l11 74q5 34 36 34h80zM288 500l-70 -500h-211l70 500h211z" />
    <glyph glyph-name="eth" unicode="&#xf0;" horiz-adv-x="603" 
d="M622 633l-79 -68q53 -100 30 -282q-20 -164 -93.5 -230.5t-218.5 -66.5q-129 0 -194 58.5t-49 177.5q16 122 75 176.5t164 54.5q68 0 111 -25q2 85 -39 116.5t-154 23.5l23 130q145 9 233 -30l88 78zM276 130q36 0 50.5 33t28.5 135q1 3 1 8t1 7q-21 8 -42 8
q-37 0 -52.5 -22.5t-24.5 -78.5q-10 -52 -3 -71t41 -19z" />
    <glyph glyph-name="ntilde" unicode="&#xf1;" horiz-adv-x="619" 
d="M244 559l-85 8q-2 82 24.5 123.5t73.5 41.5q30 0 94.5 -22t65.5 -22q24 -6 34 5t13 38l85 -8q4 -83 -22 -124t-73 -41q-31 0 -94 21.5t-70 22.5q-24 5 -33 -5.5t-13 -37.5zM460 514q65 0 102.5 -37.5t27.5 -106.5l-52 -370h-211l43 302q3 21 -2.5 29t-24.5 6
q-41 -4 -88 -40l-42 -297h-210l69 500h164l5 -88q48 48 106 75t113 27z" />
    <glyph glyph-name="ograve" unicode="&#xf2;" horiz-adv-x="615" 
d="M222 768l235 -150l-67 -86l-248 106zM327 514q153 0 214.5 -63t40.5 -210q-20 -141 -87.5 -197t-216.5 -56q-152 0 -215 62.5t-42 206.5q20 143 87.5 200t218.5 57zM323 372q-40 0 -55.5 -24.5t-27.5 -106.5q-10 -69 -1.5 -90t47.5 -21q38 0 52.5 23.5t26.5 103.5
q11 71 3 93t-45 22z" />
    <glyph glyph-name="oacute" unicode="&#xf3;" horiz-adv-x="615" 
d="M502 774l66 -146l-266 -96l-47 86zM327 514q153 0 214.5 -63t40.5 -210q-20 -141 -87.5 -197t-216.5 -56q-152 0 -215 62.5t-42 206.5q20 143 87.5 200t218.5 57zM323 372q-40 0 -55.5 -24.5t-27.5 -106.5q-10 -69 -1.5 -90t47.5 -21q38 0 52.5 23.5t26.5 103.5
q11 71 3 93t-45 22z" />
    <glyph glyph-name="ocircumflex" unicode="&#xf4;" horiz-adv-x="615" 
d="M427 739l131 -140l-55 -68l-147 94h-8l-164 -94l-48 72l150 136h141zM327 514q153 0 214.5 -63t40.5 -210q-20 -141 -87.5 -197t-216.5 -56q-152 0 -215 62.5t-42 206.5q20 143 87.5 200t218.5 57zM323 372q-40 0 -55.5 -24.5t-27.5 -106.5q-10 -69 -1.5 -90t47.5 -21
q38 0 52.5 23.5t26.5 103.5q11 71 3 93t-45 22z" />
    <glyph glyph-name="otilde" unicode="&#xf5;" horiz-adv-x="615" 
d="M256 732q30 0 94.5 -22t65.5 -22q24 -6 34 5t13 38l85 -8q4 -83 -22 -124t-73 -41q-31 0 -94 21.5t-70 22.5q-24 5 -33 -5.5t-13 -37.5l-85 8q-2 82 24.5 123.5t73.5 41.5zM327 514q153 0 214.5 -63t40.5 -210q-20 -141 -87.5 -197t-216.5 -56q-152 0 -215 62.5
t-42 206.5q20 143 87.5 200t218.5 57zM323 372q-40 0 -55.5 -24.5t-27.5 -106.5q-10 -69 -1.5 -90t47.5 -21q38 0 52.5 23.5t26.5 103.5q11 71 3 93t-45 22z" />
    <glyph glyph-name="odieresis" unicode="&#xf6;" horiz-adv-x="615" 
d="M312 716q34 0 30 -33l-11 -76q-4 -32 -35 -32h-81q-35 0 -30 33l11 73q3 19 11.5 27t27.5 8h77zM501 716q35 0 30 -33l-11 -75q-3 -18 -10.5 -25.5t-24.5 -7.5h-81q-34 0 -30 33l11 74q5 34 36 34h80zM327 514q153 0 214.5 -63t40.5 -210q-20 -141 -87.5 -197t-216.5 -56
q-152 0 -215 62.5t-42 206.5q20 143 87.5 200t218.5 57zM323 372q-40 0 -55.5 -24.5t-27.5 -106.5q-10 -69 -1.5 -90t47.5 -21q38 0 52.5 23.5t26.5 103.5q11 71 3 93t-45 22z" />
    <glyph glyph-name="divide" unicode="&#xf7;" horiz-adv-x="528" 
d="M324 582q48 0 65 -18t10 -64l-1 -14q-7 -48 -26.5 -65t-66.5 -17h-46q-49 0 -66 18.5t-10 65.5l2 14q7 47 28 63.5t70 16.5h41zM514 369l-23 -154h-477l23 154h477zM264 176q48 0 65.5 -18t10.5 -65l-2 -14q-6 -48 -25 -64.5t-67 -16.5h-46q-50 0 -66.5 18.5t-9.5 65.5
l2 14q6 47 27.5 63.5t70.5 16.5h40z" />
    <glyph glyph-name="oslash" unicode="&#xf8;" horiz-adv-x="615" 
d="M528 463q76 -61 54 -222q-20 -141 -87.5 -197t-216.5 -56q-27 0 -40 1l-59 -95l-130 71l40 64q-91 61 -68 228q20 143 87.5 200t218.5 57q22 0 56 -2l62 99l130 -72zM365 257q11 71 3 93t-45 22q-40 0 -55.5 -24.5t-27.5 -106.5q-10 -69 -1.5 -90t47.5 -21
q38 0 52.5 23.5t26.5 103.5z" />
    <glyph glyph-name="ugrave" unicode="&#xf9;" horiz-adv-x="613" 
d="M454 629l-67 -86l-248 106l80 130zM390 500h208l-69 -500h-164l-4 85q-102 -99 -204 -99q-78 0 -113.5 37.5t-25.5 106.5l51 370h211l-45 -311q-4 -27 23 -27q39 0 89 37z" />
    <glyph glyph-name="uacute" unicode="&#xfa;" horiz-adv-x="613" 
d="M565 639l-266 -96l-47 86l247 156zM390 500h208l-69 -500h-164l-4 85q-102 -99 -204 -99q-78 0 -113.5 37.5t-25.5 106.5l51 370h211l-45 -311q-4 -27 23 -27q39 0 89 37z" />
    <glyph glyph-name="ucircumflex" unicode="&#xfb;" horiz-adv-x="613" 
d="M345 636l-164 -94l-48 72l150 136h141l131 -140l-55 -68l-147 94h-8zM390 500h208l-69 -500h-164l-4 85q-102 -99 -204 -99q-78 0 -113.5 37.5t-25.5 106.5l51 370h211l-45 -311q-4 -27 23 -27q39 0 89 37z" />
    <glyph glyph-name="udieresis" unicode="&#xfc;" horiz-adv-x="613" 
d="M212 586q-34 0 -30 33l11 73q3 19 11.5 27t27.5 8h77q35 0 30 -33l-11 -76q-4 -32 -35 -32h-81zM401 586q-35 0 -30 33l11 74q5 34 36 34h80q34 0 30 -33l-11 -75q-3 -18 -10.5 -25.5t-24.5 -7.5h-81zM390 500h208l-69 -500h-164l-4 85q-102 -99 -204 -99
q-78 0 -113.5 37.5t-25.5 106.5l51 370h211l-45 -311q-4 -27 23 -27q39 0 89 37z" />
    <glyph glyph-name="yacute" unicode="&#xfd;" horiz-adv-x="622" 
d="M560 628l-266 -96l-47 86l247 156zM404 500h225q-17 -123 -76 -277t-98 -215q-145 -227 -389 -214l-13 113q13 5 39.5 13.5t40 13.5t33.5 14t36 22t31 30h-79q-24 0 -41.5 15t-20.5 38l-62 447h230l8 -358q0 -16 16 -16h24q63 140 96 374z" />
    <glyph glyph-name="thorn" unicode="&#xfe;" horiz-adv-x="616" 
d="M429 512q98 0 133 -67.5t19 -208.5q-15 -130 -71.5 -190t-140.5 -60q-92 0 -158 13q-4 -58 -9 -84l-14 -95h-210l123 880h210l-14 -104q-10 -75 -27 -143l3 -7q69 66 156 66zM366 230q10 62 6.5 91.5t-31.5 29.5q-50 0 -90 -73l-21 -165h48q45 0 62 21.5t26 95.5z" />
    <glyph glyph-name="ydieresis" unicode="&#xff;" horiz-adv-x="622" 
d="M207 575q-35 0 -30 33l11 73q3 19 11.5 27t27.5 8h77q34 0 30 -33l-11 -76q-4 -32 -35 -32h-81zM396 575q-34 0 -30 33l11 74q5 34 36 34h80q35 0 30 -33l-11 -75q-3 -18 -10.5 -25.5t-24.5 -7.5h-81zM404 500h225q-17 -123 -76 -277t-98 -215q-145 -227 -389 -214
l-13 113q13 5 39.5 13.5t40 13.5t33.5 14t36 22t31 30h-79q-24 0 -41.5 15t-20.5 38l-62 447h230l8 -358q0 -16 16 -16h24q63 140 96 374z" />
    <glyph glyph-name="Amacron" unicode="&#x100;" horiz-adv-x="678" 
d="M577 895l-17 -123h-320l17 123h320zM430 0l-12 146h-188l-54 -146h-225l266 638q20 52 76 52h196q26 0 46 -17.5t23 -42.5l89 -630h-217zM289 304h117l-12 149q-3 26 -1 77h-28q-7 -41 -20 -75z" />
    <glyph glyph-name="amacron" unicode="&#x101;" horiz-adv-x="613" 
d="M534 707l-17 -123h-320l17 123h320zM354 514q52 0 133 -10.5t110 -21.5l-68 -482h-162l-2 97q-67 -100 -195 -109q-70 -5 -107.5 28.5t-43.5 96.5t6 151q9 58 24 100.5t38.5 69.5t47.5 43.5t62.5 24.5t71.5 10t85 2zM260 149q42 3 93 77l21 151h-46q-37 0 -58 -20.5
t-31 -86.5q-14 -95 -6 -111q5 -12 27 -10z" />
    <glyph glyph-name="Abreve" unicode="&#x102;" horiz-adv-x="678" 
d="M405 737q-91 0 -137.5 53.5t-24.5 122.5l98 5q-5 -31 12 -43t61 -12q85 0 91 57l94 -15q2 -70 -51 -119t-143 -49zM430 0l-12 146h-188l-54 -146h-225l266 638q20 52 76 52h196q26 0 46 -17.5t23 -42.5l89 -630h-217zM289 304h117l-12 149q-3 26 -1 77h-28
q-7 -41 -20 -75z" />
    <glyph glyph-name="abreve" unicode="&#x103;" horiz-adv-x="613" 
d="M362 549q-91 0 -137.5 53.5t-24.5 122.5l98 5q-5 -31 12 -43t61 -12q85 0 91 57l94 -15q2 -70 -51 -119t-143 -49zM354 514q52 0 133 -10.5t110 -21.5l-68 -482h-162l-2 97q-67 -100 -195 -109q-70 -5 -107.5 28.5t-43.5 96.5t6 151q9 58 24 100.5t38.5 69.5t47.5 43.5
t62.5 24.5t71.5 10t85 2zM260 149q42 3 93 77l21 151h-46q-37 0 -58 -20.5t-31 -86.5q-14 -95 -6 -111q5 -12 27 -10z" />
    <glyph glyph-name="Aogonek" unicode="&#x104;" horiz-adv-x="678" 
d="M591 -91q-5 -17 2 -22.5t30 -1.5l15 -74q-49 -18 -89.5 -21t-63.5 7t-38 27t-13.5 39t10.5 44q25 48 103 93h-117l-12 146h-188l-54 -146h-225l266 638q20 52 76 52h196q26 0 46 -17.5t23 -42.5l89 -630h1q-42 -45 -57 -91zM289 304h117l-12 149q-3 26 -1 77h-28
q-7 -41 -20 -75z" />
    <glyph glyph-name="aogonek" unicode="&#x105;" horiz-adv-x="613" 
d="M529 0q-42 -45 -57 -91q-5 -17 2 -22.5t30 -1.5l15 -74q-49 -18 -89.5 -21t-63.5 7t-38 27t-13.5 39t10.5 44q25 48 103 93h-61l-2 97q-67 -100 -195 -109q-70 -5 -107.5 28.5t-43.5 96.5t6 151q9 58 24 100.5t38.5 69.5t47.5 43.5t62.5 24.5t71.5 10t85 2t133 -10.5
t110 -21.5zM260 149q42 3 93 77l21 151h-46q-37 0 -58 -20.5t-31 -86.5q-14 -95 -6 -111q5 -12 27 -10z" />
    <glyph glyph-name="Cacute" unicode="&#x106;" horiz-adv-x="603" 
d="M560 963l66 -146l-266 -96l-47 86zM391 702q128 0 227 -28l-25 -157q-146 2 -213 2q-38 0 -57 -11.5t-32 -50t-24 -120.5q-15 -102 -6 -134t63 -32q136 0 221 8l8 -159q-103 -32 -239 -32q-175 0 -238 81.5t-35 283.5q15 106 38.5 172t65.5 106.5t99.5 55.5t146.5 15z
" />
    <glyph glyph-name="cacute" unicode="&#x107;" horiz-adv-x="536" 
d="M481 774l66 -146l-266 -96l-47 86zM303 514q138 0 229 -39l-28 -128h-176q-44 0 -62 -20t-26 -74q-9 -61 3.5 -80t58.5 -19q105 0 168 7l15 -133q-84 -40 -220 -40q-137 0 -200.5 64.5t-43.5 206.5q19 137 81.5 196t200.5 59z" />
    <glyph glyph-name="Ccircumflex" unicode="&#x108;" horiz-adv-x="603" 
d="M485 928l131 -140l-55 -68l-147 94h-8l-164 -94l-48 72l150 136h141zM391 702q128 0 227 -28l-25 -157q-146 2 -213 2q-38 0 -57 -11.5t-32 -50t-24 -120.5q-15 -102 -6 -134t63 -32q136 0 221 8l8 -159q-103 -32 -239 -32q-175 0 -238 81.5t-35 283.5q15 106 38.5 172
t65.5 106.5t99.5 55.5t146.5 15z" />
    <glyph glyph-name="ccircumflex" unicode="&#x109;" horiz-adv-x="536" 
d="M406 739l131 -140l-55 -68l-147 94h-8l-164 -94l-48 72l150 136h141zM303 514q138 0 229 -39l-28 -128h-176q-44 0 -62 -20t-26 -74q-9 -61 3.5 -80t58.5 -19q105 0 168 7l15 -133q-84 -40 -220 -40q-137 0 -200.5 64.5t-43.5 206.5q19 137 81.5 196t200.5 59z" />
    <glyph glyph-name="Cdotaccent" unicode="&#x10a;" horiz-adv-x="603" 
d="M452 914q28 0 44 -15t13 -44l-5 -49q-6 -53 -60 -53h-63q-65 0 -56 61l6 47q8 53 62 53h59zM391 702q128 0 227 -28l-25 -157q-146 2 -213 2q-38 0 -57 -11.5t-32 -50t-24 -120.5q-15 -102 -6 -134t63 -32q136 0 221 8l8 -159q-103 -32 -239 -32q-175 0 -238 81.5
t-35 283.5q15 106 38.5 172t65.5 106.5t99.5 55.5t146.5 15z" />
    <glyph glyph-name="cdotaccent" unicode="&#x10b;" horiz-adv-x="536" 
d="M373 725q28 0 44 -15t13 -44l-5 -49q-6 -53 -60 -53h-63q-65 0 -56 61l6 47q8 53 62 53h59zM303 514q138 0 229 -39l-28 -128h-176q-44 0 -62 -20t-26 -74q-9 -61 3.5 -80t58.5 -19q105 0 168 7l15 -133q-84 -40 -220 -40q-137 0 -200.5 64.5t-43.5 206.5
q19 137 81.5 196t200.5 59z" />
    <glyph glyph-name="Ccaron" unicode="&#x10c;" horiz-adv-x="603" 
d="M586 944l40 -75l-179 -131h-82l-163 144l58 66l147 -81h8zM391 702q128 0 227 -28l-25 -157q-146 2 -213 2q-38 0 -57 -11.5t-32 -50t-24 -120.5q-15 -102 -6 -134t63 -32q136 0 221 8l8 -159q-103 -32 -239 -32q-175 0 -238 81.5t-35 283.5q15 106 38.5 172t65.5 106.5
t99.5 55.5t146.5 15z" />
    <glyph glyph-name="ccaron" unicode="&#x10d;" horiz-adv-x="536" 
d="M507 755l40 -75l-179 -131h-82l-163 144l58 66l147 -81h8zM303 514q138 0 229 -39l-28 -128h-176q-44 0 -62 -20t-26 -74q-9 -61 3.5 -80t58.5 -19q105 0 168 7l15 -133q-84 -40 -220 -40q-137 0 -200.5 64.5t-43.5 206.5q19 137 81.5 196t200.5 59z" />
    <glyph glyph-name="Dcaron" unicode="&#x10e;" 
d="M441 737h-82l-163 144l58 66l147 -81h8l171 77l40 -75zM389 700q117 0 183.5 -31t94 -111.5t7.5 -220.5q-15 -106 -38.5 -171t-65.5 -105.5t-100 -55.5t-149 -15q-157 0 -310 10l97 690q128 10 281 10zM446 353q16 116 4.5 153t-68.5 37h-78l-55 -395q23 -1 69 -1
q55 0 83.5 41.5t44.5 164.5z" />
    <glyph glyph-name="dcaron" unicode="&#x10f;" horiz-adv-x="617" 
d="M403 605l18 95h210l-99 -700h-166l-4 80q-96 -92 -187 -92q-185 0 -151 276q18 141 72 195.5t140 54.5q94 0 160 -13q0 60 7 104zM772 699q34 0 47.5 -15t8.5 -49l-7 -48q-13 -93 -72 -170l-71 27q23 52 33 109q-27 -1 -38 12.5t-6 40.5l6 34q6 33 21.5 46t47.5 13h30z
M238 270q-10 -54 -6 -82t32 -26q38 2 84 35l26 190h-47q-45 0 -62 -21.5t-27 -95.5z" />
    <glyph glyph-name="Dcroat" unicode="&#x110;" 
d="M389 700q117 0 183.5 -31t94 -111.5t7.5 -220.5q-15 -106 -38.5 -171t-65.5 -105.5t-100 -55.5t-149 -15q-157 0 -310 10l44 313h-47l14 100h47l39 277q128 10 281 10zM446 353q16 116 4.5 153t-68.5 37h-78l-18 -130h87l-14 -100h-87l-23 -165q23 -1 69 -1
q55 0 83.5 41.5t44.5 164.5z" />
    <glyph glyph-name="dcroat" unicode="&#x111;" horiz-adv-x="622" 
d="M685 631l-12 -84h-64l-77 -547h-166l-4 80q-96 -92 -187 -92q-185 0 -151 276q18 141 72 195.5t140 54.5q94 0 160 -13q0 30 1 46h-95l12 84h94l13 69h210l-10 -69h64zM238 270q-10 -54 -6 -82t32 -26q38 2 84 35l26 190h-47q-45 0 -62 -21.5t-27 -95.5z" />
    <glyph glyph-name="Emacron" unicode="&#x112;" horiz-adv-x="587" 
d="M559 895l-17 -123h-320l17 123h320zM343 528q-26 0 -37 -9t-14 -31l-9 -63h249l-18 -144h-251l-11 -80q-6 -39 37 -39h240l-4 -154q-89 -12 -338 -12q-84 0 -125 52t-30 136l50 357q10 71 56 112t121 41q248 0 348 -14l-24 -152h-240z" />
    <glyph glyph-name="emacron" unicode="&#x113;" horiz-adv-x="590" 
d="M525 707l-17 -123h-320l17 123h320zM326 514q150 0 206 -46t42 -140q-9 -65 -57.5 -90.5t-155.5 -33.5l-125 -9q1 -28 16.5 -37t54.5 -9q109 0 205 11l14 -128q-95 -44 -237 -44q-84 0 -140 17t-86 52t-39.5 82.5t-2.5 114.5q8 79 31 131t63.5 79.5t90 38.5t120.5 11z
M374 349q2 17 -7.5 24t-38.5 6q-37 -1 -53 -17t-26 -65l57 6q36 3 50.5 11.5t17.5 34.5z" />
    <glyph glyph-name="Ebreve" unicode="&#x114;" horiz-adv-x="587" 
d="M387 737q-91 0 -137.5 53.5t-24.5 122.5l98 5q-5 -31 12 -43t61 -12q85 0 91 57l94 -15q2 -70 -51 -119t-143 -49zM343 528q-26 0 -37 -9t-14 -31l-9 -63h249l-18 -144h-251l-11 -80q-6 -39 37 -39h240l-4 -154q-89 -12 -338 -12q-84 0 -125 52t-30 136l50 357
q10 71 56 112t121 41q248 0 348 -14l-24 -152h-240z" />
    <glyph glyph-name="ebreve" unicode="&#x115;" horiz-adv-x="590" 
d="M353 549q-91 0 -137.5 53.5t-24.5 122.5l98 5q-5 -31 12 -43t61 -12q85 0 91 57l94 -15q2 -70 -51 -119t-143 -49zM326 514q150 0 206 -46t42 -140q-9 -65 -57.5 -90.5t-155.5 -33.5l-125 -9q1 -28 16.5 -37t54.5 -9q109 0 205 11l14 -128q-95 -44 -237 -44
q-84 0 -140 17t-86 52t-39.5 82.5t-2.5 114.5q8 79 31 131t63.5 79.5t90 38.5t120.5 11zM374 349q2 17 -7.5 24t-38.5 6q-37 -1 -53 -17t-26 -65l57 6q36 3 50.5 11.5t17.5 34.5z" />
    <glyph glyph-name="Edotaccent" unicode="&#x116;" horiz-adv-x="587" 
d="M357 752q-65 0 -56 61l6 47q8 53 62 53h59q28 0 44 -15t13 -44l-5 -49q-6 -53 -60 -53h-63zM343 528q-26 0 -37 -9t-14 -31l-9 -63h249l-18 -144h-251l-11 -80q-6 -39 37 -39h240l-4 -154q-89 -12 -338 -12q-84 0 -125 52t-30 136l50 357q10 71 56 112t121 41
q248 0 348 -14l-24 -152h-240z" />
    <glyph glyph-name="edotaccent" unicode="&#x117;" horiz-adv-x="590" 
d="M323 564q-65 0 -56 61l6 47q8 53 62 53h59q28 0 44 -15t13 -44l-5 -49q-6 -53 -60 -53h-63zM326 514q150 0 206 -46t42 -140q-9 -65 -57.5 -90.5t-155.5 -33.5l-125 -9q1 -28 16.5 -37t54.5 -9q109 0 205 11l14 -128q-95 -44 -237 -44q-84 0 -140 17t-86 52t-39.5 82.5
t-2.5 114.5q8 79 31 131t63.5 79.5t90 38.5t120.5 11zM374 349q2 17 -7.5 24t-38.5 6q-37 -1 -53 -17t-26 -65l57 6q36 3 50.5 11.5t17.5 34.5z" />
    <glyph glyph-name="Eogonek" unicode="&#x118;" horiz-adv-x="587" 
d="M343 528q-26 0 -37 -9t-14 -31l-9 -63h249l-18 -144h-251l-11 -80q-6 -39 37 -39h240l-4 -154q-42 -45 -57 -91q-5 -17 2 -22.5t30 -1.5l15 -74q-49 -18 -89.5 -21t-63.5 7t-38 27t-13.5 39t10.5 44q21 42 87 84q-73 -3 -221 -3q-84 0 -125 52t-30 136l50 357
q10 71 56 112t121 41q248 0 348 -14l-24 -152h-240z" />
    <glyph glyph-name="eogonek" unicode="&#x119;" horiz-adv-x="590" 
d="M326 514q150 0 206 -46t42 -140q-9 -65 -57.5 -90.5t-155.5 -33.5l-125 -9q1 -28 16.5 -37t54.5 -9q109 0 205 11l14 -128l-3 -2q-38 -40 -55 -88q-5 -17 2 -22.5t30 -1.5l15 -74q-49 -18 -89.5 -21t-63.5 7t-38 27t-13.5 39t10.5 44q14 27 43 51q-37 -3 -75 -3
q-84 0 -140 17t-86 52t-39.5 82.5t-2.5 114.5q8 79 31 131t63.5 79.5t90 38.5t120.5 11zM374 349q2 17 -7.5 24t-38.5 6q-37 -1 -53 -17t-26 -65l57 6q36 3 50.5 11.5t17.5 34.5z" />
    <glyph glyph-name="Ecaron" unicode="&#x11a;" horiz-adv-x="587" 
d="M423 737h-82l-163 144l58 66l147 -81h8l171 77l40 -75zM343 528q-26 0 -37 -9t-14 -31l-9 -63h249l-18 -144h-251l-11 -80q-6 -39 37 -39h240l-4 -154q-89 -12 -338 -12q-84 0 -125 52t-30 136l50 357q10 71 56 112t121 41q248 0 348 -14l-24 -152h-240z" />
    <glyph glyph-name="ecaron" unicode="&#x11b;" horiz-adv-x="590" 
d="M389 549h-82l-163 144l58 66l147 -81h8l171 77l40 -75zM326 514q150 0 206 -46t42 -140q-9 -65 -57.5 -90.5t-155.5 -33.5l-125 -9q1 -28 16.5 -37t54.5 -9q109 0 205 11l14 -128q-95 -44 -237 -44q-84 0 -140 17t-86 52t-39.5 82.5t-2.5 114.5q8 79 31 131t63.5 79.5
t90 38.5t120.5 11zM374 349q2 17 -7.5 24t-38.5 6q-37 -1 -53 -17t-26 -65l57 6q36 3 50.5 11.5t17.5 34.5z" />
    <glyph glyph-name="Gcircumflex" unicode="&#x11c;" horiz-adv-x="670" 
d="M415 813l-164 -94l-48 72l150 136h141l131 -140l-55 -68l-147 94h-8zM414 202l27 195h207l-56 -397h-159l-8 80q-92 -94 -202 -94q-233 0 -181 367q15 107 42 175t74.5 107.5t108.5 54t153 14.5q134 0 231 -30l-24 -155q-150 2 -222 2q-65 0 -92.5 -38t-44.5 -146
q-16 -102 -5 -134t61 -32q47 0 90 31z" />
    <glyph glyph-name="gcircumflex" unicode="&#x11d;" horiz-adv-x="618" 
d="M367 631l-164 -94l-48 72l150 136h141l131 -140l-55 -68l-147 94h-8zM299 514q93 0 178 -10t125 -22l-55 -392q-10 -76 -33.5 -131t-52.5 -86t-70.5 -49t-78 -23t-84.5 -5q-148 0 -223 35l10 113h126q154 0 195 64q13 19 22.5 54t16.5 49q-68 -107 -202 -113
q-103 -5 -135.5 64t-11.5 202q8 50 19.5 88.5t25 65t33.5 44.5t38 28t46.5 15.5t51.5 7t59 1.5zM263 149q47 9 95 78l21 150h-48q-47 0 -63.5 -21t-27.5 -86q-7 -39 -9 -63t1 -38t10 -18.5t21 -1.5z" />
    <glyph glyph-name="Gbreve" unicode="&#x11e;" horiz-adv-x="670" 
d="M420 737q-91 0 -137.5 53.5t-24.5 122.5l98 5q-5 -31 12 -43t61 -12q85 0 91 57l94 -15q2 -70 -51 -119t-143 -49zM414 202l27 195h207l-56 -397h-159l-8 80q-92 -94 -202 -94q-233 0 -181 367q15 107 42 175t74.5 107.5t108.5 54t153 14.5q134 0 231 -30l-24 -155
q-150 2 -222 2q-65 0 -92.5 -38t-44.5 -146q-16 -102 -5 -134t61 -32q47 0 90 31z" />
    <glyph glyph-name="gbreve" unicode="&#x11f;" horiz-adv-x="618" 
d="M372 555q-91 0 -137.5 53.5t-24.5 122.5l98 5q-5 -31 12 -43t61 -12q85 0 91 57l94 -15q2 -70 -51 -119t-143 -49zM299 514q93 0 178 -10t125 -22l-55 -392q-10 -76 -33.5 -131t-52.5 -86t-70.5 -49t-78 -23t-84.5 -5q-148 0 -223 35l10 113h126q154 0 195 64
q13 19 22.5 54t16.5 49q-68 -107 -202 -113q-103 -5 -135.5 64t-11.5 202q8 50 19.5 88.5t25 65t33.5 44.5t38 28t46.5 15.5t51.5 7t59 1.5zM263 149q47 9 95 78l21 150h-48q-47 0 -63.5 -21t-27.5 -86q-7 -39 -9 -63t1 -38t10 -18.5t21 -1.5z" />
    <glyph glyph-name="Gdotaccent" unicode="&#x120;" horiz-adv-x="670" 
d="M390 752q-65 0 -56 61l6 47q8 53 62 53h59q28 0 44 -15t13 -44l-5 -49q-6 -53 -60 -53h-63zM414 202l27 195h207l-56 -397h-159l-8 80q-92 -94 -202 -94q-233 0 -181 367q15 107 42 175t74.5 107.5t108.5 54t153 14.5q134 0 231 -30l-24 -155q-150 2 -222 2
q-65 0 -92.5 -38t-44.5 -146q-16 -102 -5 -134t61 -32q47 0 90 31z" />
    <glyph glyph-name="gdotaccent" unicode="&#x121;" horiz-adv-x="618" 
d="M342 570q-65 0 -56 61l6 47q8 53 62 53h59q28 0 44 -15t13 -44l-5 -49q-6 -53 -60 -53h-63zM299 514q93 0 178 -10t125 -22l-55 -392q-10 -76 -33.5 -131t-52.5 -86t-70.5 -49t-78 -23t-84.5 -5q-148 0 -223 35l10 113h126q154 0 195 64q13 19 22.5 54t16.5 49
q-68 -107 -202 -113q-103 -5 -135.5 64t-11.5 202q8 50 19.5 88.5t25 65t33.5 44.5t38 28t46.5 15.5t51.5 7t59 1.5zM263 149q47 9 95 78l21 150h-48q-47 0 -63.5 -21t-27.5 -86q-7 -39 -9 -63t1 -38t10 -18.5t21 -1.5z" />
    <glyph glyph-name="Gcommaaccent" unicode="&#x122;" horiz-adv-x="670" 
d="M414 202l27 195h207l-56 -397h-159l-8 80q-92 -94 -202 -94q-233 0 -181 367q15 107 42 175t74.5 107.5t108.5 54t153 14.5q134 0 231 -30l-24 -155q-150 2 -222 2q-65 0 -92.5 -38t-44.5 -146q-16 -102 -5 -134t61 -32q47 0 90 31zM339 -48q37 0 51.5 -13.5t9.5 -43.5
l-8 -48q-7 -40 -30 -85t-52 -73l-77 24q15 28 39 103q-29 -1 -40 11t-7 37l6 35q5 30 22.5 41.5t53.5 11.5h32z" />
    <glyph glyph-name="gcommaaccent" unicode="&#x123;" horiz-adv-x="618" 
d="M341 548q-37 0 -51.5 13.5t-9.5 43.5l8 48q7 40 30 85t52 73l77 -24q-15 -28 -39 -103q29 1 40 -11t7 -37l-6 -35q-5 -30 -22.5 -41.5t-53.5 -11.5h-32zM299 514q93 0 178 -10t125 -22l-55 -392q-10 -76 -33.5 -131t-52.5 -86t-70.5 -49t-78 -23t-84.5 -5q-148 0 -223 35
l10 113h126q154 0 195 64q13 19 22.5 54t16.5 49q-68 -107 -202 -113q-103 -5 -135.5 64t-11.5 202q8 50 19.5 88.5t25 65t33.5 44.5t38 28t46.5 15.5t51.5 7t59 1.5zM263 149q47 9 95 78l21 150h-48q-47 0 -63.5 -21t-27.5 -86q-7 -39 -9 -63t1 -38t10 -18.5t21 -1.5z" />
    <glyph glyph-name="Hcircumflex" unicode="&#x124;" horiz-adv-x="705" 
d="M411 813l-164 -94l-48 72l150 136h141l131 -140l-55 -68l-147 94h-8zM491 690h217l-97 -690h-217l41 289h-165l-41 -289h-217l97 690h217l-35 -247h165z" />
    <glyph glyph-name="hcircumflex" unicode="&#x125;" horiz-adv-x="619" 
d="M210 798l-164 -94l-48 72l150 136h141l131 -140l-55 -68l-147 94h-8zM451 514q76 0 112 -37.5t26 -106.5l-52 -370h-210l44 311q3 16 -1 21t-18 5q-45 0 -98 -41l-41 -296h-210l98 700h210l-21 -153q-8 -59 -29 -119q99 86 190 86z" />
    <glyph glyph-name="Hbar" unicode="&#x126;" horiz-adv-x="705" 
d="M748 601l-14 -92h-51l-72 -509h-217l41 289h-165l-41 -289h-217l72 509h-53l14 92h51l13 89h217l-13 -89h165l13 89h217l-13 -89h53zM456 443l10 66h-165l-10 -66h165z" />
    <glyph glyph-name="hbar" unicode="&#x127;" horiz-adv-x="615" 
d="M447 514q76 0 112 -37.5t26 -106.5l-52 -370h-210l44 311q3 16 -1 21t-18 5q-45 0 -98 -41l-41 -296h-210l77 547h-50l12 84h49l10 69h210l-9 -69h111l-12 -84h-111q-8 -59 -29 -119q99 86 190 86z" />
    <glyph glyph-name="Itilde" unicode="&#x128;" horiz-adv-x="322" 
d="M135 920q30 0 94.5 -22t65.5 -22q24 -6 34 5t13 38l85 -8q4 -83 -22 -124t-73 -41q-31 0 -94 21.5t-70 22.5q-24 5 -33 -5.5t-13 -37.5l-85 8q-2 82 24.5 123.5t73.5 41.5zM325 690l-97 -690h-216l97 690h216z" />
    <glyph glyph-name="itilde" unicode="&#x129;" horiz-adv-x="306" 
d="M98 732q30 0 94.5 -22t65.5 -22q24 -6 34 5t13 38l85 -8q4 -83 -22 -124t-73 -41q-31 0 -94 21.5t-70 22.5q-24 5 -33 -5.5t-13 -37.5l-85 8q-2 82 24.5 123.5t73.5 41.5zM288 500l-70 -500h-211l70 500h211z" />
    <glyph glyph-name="Imacron" unicode="&#x12a;" horiz-adv-x="322" 
d="M404 895l-17 -123h-320l17 123h320zM325 690l-97 -690h-216l97 690h216z" />
    <glyph glyph-name="imacron" unicode="&#x12b;" horiz-adv-x="306" 
d="M367 707l-17 -123h-320l17 123h320zM288 500l-70 -500h-211l70 500h211z" />
    <glyph glyph-name="Ibreve" unicode="&#x12c;" horiz-adv-x="322" 
d="M332 920l94 -15q2 -70 -51 -119t-143 -49q-91 0 -137.5 53.5t-24.5 122.5l98 5q-5 -31 12 -43t61 -12q85 0 91 57zM325 690l-97 -690h-216l97 690h216z" />
    <glyph glyph-name="ibreve" unicode="&#x12d;" horiz-adv-x="306" 
d="M295 732l94 -15q2 -70 -51 -119t-143 -49q-91 0 -137.5 53.5t-24.5 122.5l98 5q-5 -31 12 -43t61 -12q85 0 91 57zM288 500l-70 -500h-211l70 500h211z" />
    <glyph glyph-name="Iogonek" unicode="&#x12e;" horiz-adv-x="322" 
d="M109 690h216l-97 -690h-29q-42 -45 -57 -91q-5 -17 2 -22.5t30 -1.5l15 -74q-49 -18 -89.5 -21t-63.5 7t-38 27t-13.5 39t10.5 44q25 48 103 93h-86z" />
    <glyph glyph-name="iogonek" unicode="&#x12f;" horiz-adv-x="306" 
d="M236 725q28 0 44 -15t13 -44l-5 -49q-6 -53 -60 -53h-63q-65 0 -56 61l6 47q8 53 62 53h59zM7 0l70 500h211l-70 -500h-20q-42 -45 -57 -91q-5 -17 2 -22.5t30 -1.5l15 -74q-49 -18 -89.5 -21t-63.5 7t-38 27t-13.5 39t10.5 44q25 48 103 93h-90z" />
    <glyph glyph-name="Idotaccent" unicode="&#x130;" horiz-adv-x="322" 
d="M273 913q28 0 44 -15t13 -44l-5 -49q-6 -53 -60 -53h-63q-65 0 -56 61l6 47q8 53 62 53h59zM325 690l-97 -690h-216l97 690h216z" />
    <glyph glyph-name="dotlessi" unicode="&#x131;" horiz-adv-x="306" 
d="M288 500l-70 -500h-211l70 500h211z" />
    <glyph glyph-name="IJ" unicode="&#x132;" horiz-adv-x="717" 
d="M325 690l-97 -690h-216l97 690h216zM722 690l-78 -567q-10 -66 -58.5 -101.5t-125.5 -35.5q-42 0 -91 7.5t-71 20.5l34 134h37q59 0 64 39l73 503h216z" />
    <glyph glyph-name="ij" unicode="&#x133;" horiz-adv-x="610" 
d="M250 729q67 0 60 -66l-7 -51q-7 -58 -69 -58h-82q-66 0 -59 66l7 51q6 58 69 58h81zM554 729q68 0 59 -66l-7 -51q-7 -58 -71 -58h-79q-67 0 -60 66l7 51q7 58 72 58h79zM285 500l-69 -500h-209l69 500h209zM593 500l-65 -446q-10 -80 -58.5 -148t-123.5 -98l-115 97
q77 72 89 157l63 438h210z" />
    <glyph glyph-name="Jcircumflex" unicode="&#x134;" horiz-adv-x="395" 
d="M375 927l131 -140l-55 -68l-147 94h-8l-164 -94l-48 72l150 136h141zM400 690l-78 -567q-10 -66 -58.5 -101.5t-125.5 -35.5q-42 0 -91 7.5t-71 20.5l34 134h37q59 0 64 39l73 503h216z" />
    <glyph glyph-name="jcircumflex" unicode="&#x135;" horiz-adv-x="306" 
d="M275 739l131 -140l-55 -68l-147 94h-8l-164 -94l-48 72l150 136h141zM289 500l-65 -446q-10 -80 -58.5 -148t-123.5 -98l-115 97q77 72 89 157l63 438h210z" />
    <glyph glyph-name="Kcommaaccent" unicode="&#x136;" horiz-adv-x="668" 
d="M459 339q14 -6 30 -26.5t25 -43.5l120 -269h-234l-107 288h-31q4 -32 -1 -67l-31 -221h-218l97 690h218l-27 -191q-5 -38 -16 -71h33l168 262h240l-193 -288q-27 -42 -72 -59zM324 -48q37 0 51.5 -13.5t9.5 -43.5l-8 -48q-7 -40 -30 -85t-52 -73l-77 24q15 28 39 103
q-29 -1 -40 11t-7 37l6 35q5 30 22.5 41.5t53.5 11.5h32z" />
    <glyph glyph-name="kcommaaccent" unicode="&#x137;" horiz-adv-x="609" 
d="M433 258q37 -26 56 -69l91 -189h-215l-85 185q-22 -9 -45 -15q0 -13 -2 -31l-20 -139h-210l98 700h210l-38 -272q-10 -61 -43 -122q59 32 102 84.5t56 109.5h216q-34 -152 -171 -242zM296 -38q37 0 51.5 -13.5t9.5 -43.5l-8 -48q-7 -40 -30 -85t-52 -73l-77 24
q15 28 39 103q-29 -1 -40 11t-7 37l6 35q5 30 22.5 41.5t53.5 11.5h32z" />
    <glyph glyph-name="kgreenlandic" unicode="&#x138;" horiz-adv-x="609" 
d="M429 248q37 -24 59 -70l87 -178h-215l-81 174l-44 -15q-1 -11 -3 -31l-19 -128h-210l70 500h210l-11 -83q-8 -57 -43 -122q61 34 105.5 88t58.5 117h216q-36 -156 -180 -252z" />
    <glyph glyph-name="Lacute" unicode="&#x139;" horiz-adv-x="552" 
d="M381 962l66 -146l-266 -96l-47 86zM323 690l-71 -478q-2 -23 5.5 -31.5t30.5 -8.5h228l-4 -163q-100 -13 -331 -13q-75 0 -117.5 45.5t-32.5 115.5l74 533h218z" />
    <glyph glyph-name="lacute" unicode="&#x13a;" horiz-adv-x="360" 
d="M375 967l66 -146l-266 -96l-47 86zM311 700l-75 -522q-4 -19 4 -25.5t35 -6.5h40l12 -136q-43 -24 -143 -24q-84 0 -127.5 39t-35.5 105l81 570h209z" />
    <glyph glyph-name="Lcommaaccent" unicode="&#x13b;" horiz-adv-x="552" 
d="M323 690l-71 -478q-2 -23 5.5 -31.5t30.5 -8.5h228l-4 -163q-100 -13 -331 -13q-75 0 -117.5 45.5t-32.5 115.5l74 533h218zM273 -48q37 0 51.5 -13.5t9.5 -43.5l-8 -48q-7 -40 -30 -85t-52 -73l-77 24q15 28 39 103q-29 -1 -40 11t-7 37l6 35q5 30 22.5 41.5t53.5 11.5
h32z" />
    <glyph glyph-name="lcommaaccent" unicode="&#x13c;" horiz-adv-x="360" 
d="M311 700l-75 -522q-4 -19 4 -25.5t35 -6.5h40l12 -136q-43 -24 -143 -24q-84 0 -127.5 39t-35.5 105l81 570h209zM173 -43q37 0 51.5 -13.5t9.5 -43.5l-8 -48q-7 -40 -30 -85t-52 -73l-77 24q15 28 39 103q-29 -1 -40 11t-7 37l6 35q5 30 22.5 41.5t53.5 11.5h32z" />
    <glyph glyph-name="Lcaron" unicode="&#x13d;" horiz-adv-x="552" 
d="M323 690l-71 -478q-2 -23 5.5 -31.5t30.5 -8.5h228l-4 -163q-100 -13 -331 -13q-75 0 -117.5 45.5t-32.5 115.5l74 533h218zM476 689q34 0 47.5 -15t8.5 -49l-7 -48q-13 -93 -72 -170l-71 27q23 52 33 109q-27 -1 -38 12.5t-6 40.5l6 34q6 33 21.5 46t47.5 13h30z" />
    <glyph glyph-name="lcaron" unicode="&#x13e;" horiz-adv-x="360" 
d="M311 700l-75 -522q-4 -19 4 -25.5t35 -6.5h40l12 -136q-43 -24 -143 -24q-84 0 -127.5 39t-35.5 105l81 570h209zM443 699q37 0 51.5 -13.5t9.5 -43.5l-8 -48q-7 -40 -30 -85t-52 -73l-77 24q15 28 39 103q-29 -1 -40 11t-7 37l6 35q5 30 22.5 41.5t53.5 11.5h32z" />
    <glyph glyph-name="Ldot" unicode="&#x13f;" horiz-adv-x="552" 
d="M323 690l-71 -478q-2 -23 5.5 -31.5t30.5 -8.5h228l-4 -163q-100 -13 -331 -13q-75 0 -117.5 45.5t-32.5 115.5l74 533h218zM231 -178q-28 0 -44 15t-13 44l5 49q6 53 60 53h63q65 0 56 -61l-6 -47q-8 -53 -62 -53h-59z" />
    <glyph glyph-name="ldot" unicode="&#x140;" horiz-adv-x="504" 
d="M311 700l-75 -522q-4 -19 4 -25.5t35 -6.5h40l12 -136q-43 -24 -143 -24q-84 0 -127.5 39t-35.5 105l81 570h209zM383 291q-28 0 -44 15t-13 44l5 49q6 53 60 53h63q65 0 56 -61l-6 -47q-8 -53 -62 -53h-59z" />
    <glyph glyph-name="Lslash" unicode="&#x141;" horiz-adv-x="556" 
d="M292 172h228l-4 -163q-100 -13 -331 -13q-75 0 -117.5 45.5t-32.5 115.5l18 130l-49 -18l14 104l50 18l41 299h218l-32 -215l104 38l-15 -104l-104 -38l-24 -159q-2 -23 5.5 -31.5t30.5 -8.5z" />
    <glyph glyph-name="lslash" unicode="&#x142;" horiz-adv-x="376" 
d="M276 371l-28 -193q-4 -19 4 -25.5t35 -6.5h40l12 -136q-43 -24 -143 -24q-84 0 -127.5 39t-35.5 105l23 160l-56 -21l14 104l56 21l44 306h209l-32 -225l104 38l-15 -104z" />
    <glyph glyph-name="Nacute" unicode="&#x143;" horiz-adv-x="730" 
d="M579 962l66 -146l-266 -96l-47 86zM734 690l-87 -619q-5 -37 -24 -54t-55 -17h-72q-31 0 -45.5 15t-31.5 52l-118 237q-19 37 -35 114h-7q2 -72 -6 -128l-43 -290h-199l87 619q5 37 24 54t55 17h72q16 0 27.5 -4t20.5 -15.5t14 -19.5t14 -28l116 -225q26 -54 42 -119h8
q-5 60 2 117l42 294h199z" />
    <glyph glyph-name="nacute" unicode="&#x144;" horiz-adv-x="619" 
d="M569 628l-266 -96l-47 86l247 156zM460 514q65 0 102.5 -37.5t27.5 -106.5l-52 -370h-211l43 302q3 21 -2.5 29t-24.5 6q-41 -4 -88 -40l-42 -297h-210l69 500h164l5 -88q48 48 106 75t113 27z" />
    <glyph glyph-name="Ncommaaccent" unicode="&#x145;" horiz-adv-x="730" 
d="M734 690l-87 -619q-5 -37 -24 -54t-55 -17h-72q-31 0 -45.5 15t-31.5 52l-118 237q-19 37 -35 114h-7q2 -72 -6 -128l-43 -290h-199l87 619q5 37 24 54t55 17h72q16 0 27.5 -4t20.5 -15.5t14 -19.5t14 -28l116 -225q26 -54 42 -119h8q-5 60 2 117l42 294h199zM361 -48
q37 0 51.5 -13.5t9.5 -43.5l-8 -48q-7 -40 -30 -85t-52 -73l-77 24q15 28 39 103q-29 -1 -40 11t-7 37l6 35q5 30 22.5 41.5t53.5 11.5h32z" />
    <glyph glyph-name="ncommaaccent" unicode="&#x146;" horiz-adv-x="619" 
d="M460 514q65 0 102.5 -37.5t27.5 -106.5l-52 -370h-211l43 302q3 21 -2.5 29t-24.5 6q-41 -4 -88 -40l-42 -297h-210l69 500h164l5 -88q48 48 106 75t113 27zM275 -38q37 0 51.5 -13.5t9.5 -43.5l-8 -48q-7 -40 -30 -85t-52 -73l-77 24q15 28 39 103q-29 -1 -40 11t-7 37
l6 35q5 30 22.5 41.5t53.5 11.5h32z" />
    <glyph glyph-name="Ncaron" unicode="&#x147;" horiz-adv-x="730" 
d="M605 943l40 -75l-179 -131h-82l-163 144l58 66l147 -81h8zM734 690l-87 -619q-5 -37 -24 -54t-55 -17h-72q-31 0 -45.5 15t-31.5 52l-118 237q-19 37 -35 114h-7q2 -72 -6 -128l-43 -290h-199l87 619q5 37 24 54t55 17h72q16 0 27.5 -4t20.5 -15.5t14 -19.5t14 -28
l116 -225q26 -54 42 -119h8q-5 60 2 117l42 294h199z" />
    <glyph glyph-name="ncaron" unicode="&#x148;" horiz-adv-x="619" 
d="M390 549h-82l-163 144l58 66l147 -81h8l171 77l40 -75zM460 514q65 0 102.5 -37.5t27.5 -106.5l-52 -370h-211l43 302q3 21 -2.5 29t-24.5 6q-41 -4 -88 -40l-42 -297h-210l69 500h164l5 -88q48 48 106 75t113 27z" />
    <glyph glyph-name="Eng" unicode="&#x14a;" horiz-adv-x="735" 
d="M739 690l-103 -727q-11 -80 -52.5 -123.5t-102.5 -43.5q-87 0 -148 28l37 134h30q44 0 51 31l5 24h-3q-4 0 -7.5 3.5t-7 10t-6.5 13t-6.5 15t-5.5 12.5l-119 236q-17 38 -33 115h-6q0 -69 -8 -125l-43 -293h-200l87 619q5 37 24 54t55 17h82q31 0 46.5 -16t28.5 -51
l110 -226q29 -66 40 -118h6q-2 56 8 129l41 282h200z" />
    <glyph glyph-name="eng" unicode="&#x14b;" horiz-adv-x="619" 
d="M451 514q76 0 112 -37.5t27 -106.5l-57 -398q-11 -81 -54.5 -124t-113.5 -43q-39 0 -86.5 7.5t-69.5 20.5l36 134h30q19 0 34 8.5t17 22.5l45 313q3 16 -3.5 22t-23.5 4q-42 -4 -89 -40l-42 -297h-210l69 500h164l6 -86q107 100 209 100z" />
    <glyph glyph-name="Omacron" unicode="&#x14c;" 
d="M591 895l-17 -123h-320l17 123h320zM389 704q71 0 121 -10.5t89 -36t57.5 -67.5t25.5 -104.5t-7 -148.5q-14 -107 -40 -175t-70 -107t-101 -54t-142 -15q-123 0 -188.5 32.5t-89 112.5t-3.5 222q15 106 40 173.5t68.5 107t99.5 55t140 15.5zM387 543q-54 0 -76.5 -38.5
t-42.5 -167.5q-18 -119 -6.5 -154.5t65.5 -35.5q56 0 78 38.5t42 167.5q17 118 5.5 154t-65.5 36z" />
    <glyph glyph-name="omacron" unicode="&#x14d;" horiz-adv-x="615" 
d="M525 707l-17 -123h-320l17 123h320zM327 514q153 0 214.5 -63t40.5 -210q-20 -141 -87.5 -197t-216.5 -56q-152 0 -215 62.5t-42 206.5q20 143 87.5 200t218.5 57zM323 372q-40 0 -55.5 -24.5t-27.5 -106.5q-10 -69 -1.5 -90t47.5 -21q38 0 52.5 23.5t26.5 103.5
q11 71 3 93t-45 22z" />
    <glyph glyph-name="Obreve" unicode="&#x14e;" 
d="M519 920l94 -15q2 -70 -51 -119t-143 -49q-91 0 -137.5 53.5t-24.5 122.5l98 5q-5 -31 12 -43t61 -12q85 0 91 57zM389 704q71 0 121 -10.5t89 -36t57.5 -67.5t25.5 -104.5t-7 -148.5q-14 -107 -40 -175t-70 -107t-101 -54t-142 -15q-123 0 -188.5 32.5t-89 112.5
t-3.5 222q15 106 40 173.5t68.5 107t99.5 55t140 15.5zM387 543q-54 0 -76.5 -38.5t-42.5 -167.5q-18 -119 -6.5 -154.5t65.5 -35.5q56 0 78 38.5t42 167.5q17 118 5.5 154t-65.5 36z" />
    <glyph glyph-name="obreve" unicode="&#x14f;" horiz-adv-x="615" 
d="M453 732l94 -15q2 -70 -51 -119t-143 -49q-91 0 -137.5 53.5t-24.5 122.5l98 5q-5 -31 12 -43t61 -12q85 0 91 57zM327 514q153 0 214.5 -63t40.5 -210q-20 -141 -87.5 -197t-216.5 -56q-152 0 -215 62.5t-42 206.5q20 143 87.5 200t218.5 57zM323 372q-40 0 -55.5 -24.5
t-27.5 -106.5q-10 -69 -1.5 -90t47.5 -21q38 0 52.5 23.5t26.5 103.5q11 71 3 93t-45 22z" />
    <glyph glyph-name="Ohungarumlaut" unicode="&#x150;" 
d="M362 968l121 -84l-183 -161l-85 52zM577 968l121 -84l-184 -161l-84 51zM389 704q71 0 121 -10.5t89 -36t57.5 -67.5t25.5 -104.5t-7 -148.5q-14 -107 -40 -175t-70 -107t-101 -54t-142 -15q-123 0 -188.5 32.5t-89 112.5t-3.5 222q15 106 40 173.5t68.5 107t99.5 55
t140 15.5zM387 543q-54 0 -76.5 -38.5t-42.5 -167.5q-18 -119 -6.5 -154.5t65.5 -35.5q56 0 78 38.5t42 167.5q17 118 5.5 154t-65.5 36z" />
    <glyph glyph-name="ohungarumlaut" unicode="&#x151;" horiz-adv-x="615" 
d="M296 780l121 -84l-183 -161l-85 52zM511 780l121 -84l-184 -161l-84 51zM327 514q153 0 214.5 -63t40.5 -210q-20 -141 -87.5 -197t-216.5 -56q-152 0 -215 62.5t-42 206.5q20 143 87.5 200t218.5 57zM323 372q-40 0 -55.5 -24.5t-27.5 -106.5q-10 -69 -1.5 -90t47.5 -21
q38 0 52.5 23.5t26.5 103.5q11 71 3 93t-45 22z" />
    <glyph glyph-name="OE" unicode="&#x152;" horiz-adv-x="975" 
d="M737 528q-17 0 -32.5 -12t-17.5 -28l-10 -68h243l-17 -134h-245l-13 -92q-5 -32 28 -32h244l-4 -154q-90 -12 -344 -12q-50 0 -86 22q-74 -32 -167 -32q-123 0 -187 32t-86 111.5t-2 223.5q15 106 39.5 173t67.5 107t100 55.5t145 15.5q101 0 177 -26q34 16 72 16
q252 0 353 -14l-25 -152h-233zM314 147q76 0 110 15l53 375q-25 6 -83 6q-56 0 -82.5 -42t-43.5 -164q-17 -117 -8.5 -153.5t54.5 -36.5z" />
    <glyph glyph-name="oe" unicode="&#x153;" horiz-adv-x="910" 
d="M649 514q148 0 203.5 -46t41.5 -140q-9 -64 -57 -90t-152 -34l-122 -9q1 -28 15.5 -37t52.5 -9q107 0 201 11l13 -128q-93 -44 -233 -44q-103 0 -169 45q-72 -45 -173 -45q-148 0 -209 62.5t-40 206.5q20 143 86 200t212 57q93 0 157 -40q72 40 173 40zM694 349
q2 17 -7 24t-36 6q-35 -1 -49.5 -17t-24.5 -64l51 5q35 3 49.5 11.5t16.5 34.5zM279 130q33 0 46 23.5t24 103.5q11 71 4.5 93t-39.5 22q-36 0 -50 -24t-25 -107q-10 -69 -3 -90t43 -21z" />
    <glyph glyph-name="Racute" unicode="&#x154;" horiz-adv-x="669" 
d="M615 816l-266 -96l-47 86l247 156zM656 482q-9 -67 -43.5 -107.5t-112.5 -48.5l-1 -7q82 -12 91 -111l26 -208h-224l-18 209q-1 28 -9 35.5t-31 7.5h-76l-35 -252h-212l97 690q100 10 279 10q151 0 218 -49.5t51 -168.5zM440 484q5 36 -6.5 49.5t-48.5 13.5h-85l-20 -142
h75q44 0 61 15t24 64z" />
    <glyph glyph-name="racute" unicode="&#x155;" horiz-adv-x="452" 
d="M507 628l-266 -96l-47 86l247 156zM244 432q99 82 199 82h36l-43 -192h-47q-51 0 -133 -13l-42 -309h-211l70 500h164z" />
    <glyph glyph-name="Rcommaaccent" unicode="&#x156;" horiz-adv-x="669" 
d="M656 482q-9 -67 -43.5 -107.5t-112.5 -48.5l-1 -7q82 -12 91 -111l26 -208h-224l-18 209q-1 28 -9 35.5t-31 7.5h-76l-35 -252h-212l97 690q100 10 279 10q151 0 218 -49.5t51 -168.5zM440 484q5 36 -6.5 49.5t-48.5 13.5h-85l-20 -142h75q44 0 61 15t24 64zM323 -48
q37 0 51.5 -13.5t9.5 -43.5l-8 -48q-7 -40 -30 -85t-52 -73l-77 24q15 28 39 103q-29 -1 -40 11t-7 37l6 35q5 30 22.5 41.5t53.5 11.5h32z" />
    <glyph glyph-name="rcommaaccent" unicode="&#x157;" horiz-adv-x="452" 
d="M443 514h36l-43 -192h-47q-51 0 -133 -13l-42 -309h-211l70 500h164l7 -68q99 82 199 82zM114 -38q37 0 51.5 -13.5t9.5 -43.5l-8 -48q-7 -40 -30 -85t-52 -73l-77 24q15 28 39 103q-29 -1 -40 11t-7 37l6 35q5 30 22.5 41.5t53.5 11.5h32z" />
    <glyph glyph-name="Rcaron" unicode="&#x158;" horiz-adv-x="669" 
d="M436 737h-82l-163 144l58 66l147 -81h8l171 77l40 -75zM656 482q-9 -67 -43.5 -107.5t-112.5 -48.5l-1 -7q82 -12 91 -111l26 -208h-224l-18 209q-1 28 -9 35.5t-31 7.5h-76l-35 -252h-212l97 690q100 10 279 10q151 0 218 -49.5t51 -168.5zM440 484q5 36 -6.5 49.5
t-48.5 13.5h-85l-20 -142h75q44 0 61 15t24 64z" />
    <glyph glyph-name="rcaron" unicode="&#x159;" horiz-adv-x="452" 
d="M328 549h-82l-163 144l58 66l147 -81h8l171 77l40 -75zM244 432q99 82 199 82h36l-43 -192h-47q-51 0 -133 -13l-42 -309h-211l70 500h164z" />
    <glyph glyph-name="Sacute" unicode="&#x15a;" horiz-adv-x="602" 
d="M519 962l66 -146l-266 -96l-47 86zM357 704q140 0 247 -36l-19 -138q-122 2 -242 2q-35 0 -49.5 -6t-18.5 -22q-2 -12 6.5 -21.5t37.5 -23.5l116 -55q82 -39 108.5 -87t17.5 -128q-13 -118 -75 -160.5t-213 -42.5q-133 0 -269 35l20 151q193 -5 238 -5t63 6.5t22 22.5
q3 12 -4 20t-29 19l-126 62q-82 40 -108.5 91t-18.5 121q13 111 81.5 153t214.5 42z" />
    <glyph glyph-name="sacute" unicode="&#x15b;" horiz-adv-x="548" 
d="M469 774l66 -146l-266 -96l-47 86zM278 514q148 0 252 -23l-17 -121h-191q-56 0 -71 -1.5t-16 -8.5q-2 -8 8.5 -13.5t40.5 -13.5l109 -29q129 -35 114 -158q-11 -93 -71.5 -125t-182.5 -32q-133 0 -256 22l17 121h168q76 0 99 3t25 13q1 7 -9 12t-45 15l-105 30
q-131 37 -111 171q10 70 63.5 104t178.5 34z" />
    <glyph glyph-name="Scircumflex" unicode="&#x15c;" horiz-adv-x="602" 
d="M444 927l131 -140l-55 -68l-147 94h-8l-164 -94l-48 72l150 136h141zM357 704q140 0 247 -36l-19 -138q-122 2 -242 2q-35 0 -49.5 -6t-18.5 -22q-2 -12 6.5 -21.5t37.5 -23.5l116 -55q82 -39 108.5 -87t17.5 -128q-13 -118 -75 -160.5t-213 -42.5q-133 0 -269 35l20 151
q193 -5 238 -5t63 6.5t22 22.5q3 12 -4 20t-29 19l-126 62q-82 40 -108.5 91t-18.5 121q13 111 81.5 153t214.5 42z" />
    <glyph glyph-name="scircumflex" unicode="&#x15d;" horiz-adv-x="548" 
d="M394 739l131 -140l-55 -68l-147 94h-8l-164 -94l-48 72l150 136h141zM278 514q148 0 252 -23l-17 -121h-191q-56 0 -71 -1.5t-16 -8.5q-2 -8 8.5 -13.5t40.5 -13.5l109 -29q129 -35 114 -158q-11 -93 -71.5 -125t-182.5 -32q-133 0 -256 22l17 121h168q76 0 99 3t25 13
q1 7 -9 12t-45 15l-105 30q-131 37 -111 171q10 70 63.5 104t178.5 34z" />
    <glyph glyph-name="Scedilla" unicode="&#x15e;" horiz-adv-x="602" 
d="M357 704q140 0 247 -36l-19 -138q-122 2 -242 2q-35 0 -49.5 -6t-18.5 -22q-2 -12 6.5 -21.5t37.5 -23.5l116 -55q82 -39 108.5 -87t17.5 -128q-13 -118 -75 -160.5t-213 -42.5q-133 0 -269 35l20 151q193 -5 238 -5t63 6.5t22 22.5q3 12 -4 20t-29 19l-126 62
q-82 40 -108.5 91t-18.5 121q13 111 81.5 153t214.5 42zM175 -53q81 15 131.5 0t40.5 -73q-14 -80 -83 -115.5t-165 -22.5l21 77q89 0 99 46q0 3 0.5 5.5t-2 4.5t-6 3t-11 1.5t-18 1t-25.5 0.5z" />
    <glyph glyph-name="scedilla" unicode="&#x15f;" horiz-adv-x="548" 
d="M278 514q148 0 252 -23l-17 -121h-191q-56 0 -71 -1.5t-16 -8.5q-2 -8 8.5 -13.5t40.5 -13.5l109 -29q129 -35 114 -158q-11 -93 -71.5 -125t-182.5 -32q-133 0 -256 22l17 121h168q76 0 99 3t25 13q1 7 -9 12t-45 15l-105 30q-131 37 -111 171q10 70 63.5 104t178.5 34z
M146 -49q81 15 131.5 0t40.5 -73q-14 -80 -83 -115.5t-165 -22.5l21 77q89 0 99 46q0 3 0.5 5.5t-2 4.5t-6 3t-11 1.5t-18 1t-25.5 0.5z" />
    <glyph glyph-name="Scaron" unicode="&#x160;" horiz-adv-x="602" 
d="M545 943l40 -75l-179 -131h-82l-163 144l58 66l147 -81h8zM357 704q140 0 247 -36l-19 -138q-122 2 -242 2q-35 0 -49.5 -6t-18.5 -22q-2 -12 6.5 -21.5t37.5 -23.5l116 -55q82 -39 108.5 -87t17.5 -128q-13 -118 -75 -160.5t-213 -42.5q-133 0 -269 35l20 151
q193 -5 238 -5t63 6.5t22 22.5q3 12 -4 20t-29 19l-126 62q-82 40 -108.5 91t-18.5 121q13 111 81.5 153t214.5 42z" />
    <glyph glyph-name="scaron" unicode="&#x161;" horiz-adv-x="548" 
d="M495 755l40 -75l-179 -131h-82l-163 144l58 66l147 -81h8zM278 514q148 0 252 -23l-17 -121h-191q-56 0 -71 -1.5t-16 -8.5q-2 -8 8.5 -13.5t40.5 -13.5l109 -29q129 -35 114 -158q-11 -93 -71.5 -125t-182.5 -32q-133 0 -256 22l17 121h168q76 0 99 3t25 13q1 7 -9 12
t-45 15l-105 30q-131 37 -111 171q10 70 63.5 104t178.5 34z" />
    <glyph glyph-name="uni0162" unicode="&#x162;" horiz-adv-x="618" 
d="M664 690l-23 -162h-191l-74 -528h-217l74 528h-190l23 162h598zM184 -43q81 15 131.5 0t40.5 -73q-14 -80 -83 -115.5t-165 -22.5l21 77q89 0 99 46q0 3 0.5 5.5t-2 4.5t-6 3t-11 1.5t-18 1t-25.5 0.5z" />
    <glyph glyph-name="uni0163" unicode="&#x163;" horiz-adv-x="439" 
d="M317 374l-28 -196q-3 -20 2.5 -26t28.5 -6h59l11 -136q-61 -24 -167 -24q-77 0 -118.5 39t-31.5 105l36 244h-86l15 121l90 5l19 131h207l-19 -131h120l-17 -126h-121zM140 -52q81 15 131.5 0t40.5 -73q-14 -80 -83 -115.5t-165 -22.5l21 77q89 0 99 46q0 3 0.5 5.5
t-2 4.5t-6 3t-11 1.5t-18 1t-25.5 0.5z" />
    <glyph glyph-name="Tcaron" unicode="&#x164;" horiz-adv-x="618" 
d="M411 737h-82l-163 144l58 66l147 -81h8l171 77l40 -75zM664 690l-23 -162h-191l-74 -528h-217l74 528h-190l23 162h598z" />
    <glyph glyph-name="tcaron" unicode="&#x165;" horiz-adv-x="439" 
d="M481 817q34 0 47.5 -15t8.5 -49l-7 -48q-13 -93 -72 -170l-71 27q23 52 33 109q-27 -1 -38 12.5t-6 40.5l6 34q6 33 21.5 46t47.5 13h30zM354 631l-19 -131h120l-17 -126h-121l-28 -196q-3 -20 2.5 -26t28.5 -6h59l11 -136q-61 -24 -167 -24q-77 0 -118.5 39t-31.5 105
l36 244h-86l15 121l90 5l19 131h207z" />
    <glyph glyph-name="Tbar" unicode="&#x166;" horiz-adv-x="618" 
d="M641 528h-191l-20 -147h120l-13 -94h-121l-40 -287h-217l40 287h-112l13 94h113l20 147h-190l23 162h598z" />
    <glyph glyph-name="tbar" unicode="&#x167;" horiz-adv-x="439" 
d="M438 374h-121l-8 -58h79l-13 -94h-80l-6 -44q-3 -20 2.5 -26t28.5 -6h59l11 -136q-61 -24 -167 -24q-77 0 -118.5 39t-31.5 105l14 92h-55l13 94h55l9 58h-86l15 121l90 5l19 131h207l-19 -131h120z" />
    <glyph glyph-name="Utilde" unicode="&#x168;" 
d="M322 920q30 0 94.5 -22t65.5 -22q24 -6 34 5t13 38l85 -8q4 -83 -22 -124t-73 -41q-31 0 -94 21.5t-70 22.5q-24 5 -33 -5.5t-13 -37.5l-85 8q-2 82 24.5 123.5t73.5 41.5zM710 690l-59 -409q-23 -166 -94 -230.5t-235 -64.5q-161 0 -229.5 71t-47.5 232l58 401h216
l-58 -409q-13 -79 -0.5 -106.5t66.5 -27.5q55 0 75 27.5t34 114.5l57 401h217z" />
    <glyph glyph-name="utilde" unicode="&#x169;" horiz-adv-x="613" 
d="M240 570l-85 8q-2 82 24.5 123.5t73.5 41.5q30 0 94.5 -22t65.5 -22q24 -6 34 5t13 38l85 -8q4 -83 -22 -124t-73 -41q-31 0 -94 21.5t-70 22.5q-24 5 -33 -5.5t-13 -37.5zM390 500h208l-69 -500h-164l-4 85q-102 -99 -204 -99q-78 0 -113.5 37.5t-25.5 106.5l51 370h211
l-45 -311q-4 -27 23 -27q39 0 89 37z" />
    <glyph glyph-name="Umacron" unicode="&#x16a;" 
d="M591 895l-17 -123h-320l17 123h320zM710 690l-59 -409q-23 -166 -94 -230.5t-235 -64.5q-161 0 -229.5 71t-47.5 232l58 401h216l-58 -409q-13 -79 -0.5 -106.5t66.5 -27.5q55 0 75 27.5t34 114.5l57 401h217z" />
    <glyph glyph-name="umacron" unicode="&#x16b;" horiz-adv-x="613" 
d="M522 718l-17 -123h-320l17 123h320zM390 500h208l-69 -500h-164l-4 85q-102 -99 -204 -99q-78 0 -113.5 37.5t-25.5 106.5l51 370h211l-45 -311q-4 -27 23 -27q39 0 89 37z" />
    <glyph glyph-name="Ubreve" unicode="&#x16c;" 
d="M519 920l94 -15q2 -70 -51 -119t-143 -49q-91 0 -137.5 53.5t-24.5 122.5l98 5q-5 -31 12 -43t61 -12q85 0 91 57zM710 690l-59 -409q-23 -166 -94 -230.5t-235 -64.5q-161 0 -229.5 71t-47.5 232l58 401h216l-58 -409q-13 -79 -0.5 -106.5t66.5 -27.5q55 0 75 27.5
t34 114.5l57 401h217z" />
    <glyph glyph-name="ubreve" unicode="&#x16d;" horiz-adv-x="613" 
d="M350 560q-91 0 -137.5 53.5t-24.5 122.5l98 5q-5 -31 12 -43t61 -12q85 0 91 57l94 -15q2 -70 -51 -119t-143 -49zM390 500h208l-69 -500h-164l-4 85q-102 -99 -204 -99q-78 0 -113.5 37.5t-25.5 106.5l51 370h211l-45 -311q-4 -27 23 -27q39 0 89 37z" />
    <glyph glyph-name="Uring" unicode="&#x16e;" 
d="M432 959q53 0 88.5 -31t35.5 -80q0 -58 -37.5 -94.5t-96.5 -36.5q-52 0 -88 31t-36 80q0 57 38 94t96 37zM428 884q-21 0 -33.5 -13t-12.5 -35q0 -19 12.5 -31.5t30.5 -12.5q22 0 34.5 13t12.5 36q0 19 -12 31t-32 12zM710 690l-59 -409q-23 -166 -94 -230.5t-235 -64.5
q-161 0 -229.5 71t-47.5 232l58 401h216l-58 -409q-13 -79 -0.5 -106.5t66.5 -27.5q55 0 75 27.5t34 114.5l57 401h217z" />
    <glyph glyph-name="uring" unicode="&#x16f;" horiz-adv-x="613" 
d="M353 540q-52 0 -88 31t-36 80q0 57 38 94t96 37q53 0 88.5 -31t35.5 -80q0 -58 -37.5 -94.5t-96.5 -36.5zM359 707q-21 0 -33.5 -13t-12.5 -35q0 -19 12.5 -31.5t30.5 -12.5q22 0 34.5 13t12.5 36q0 19 -12 31t-32 12zM390 500h208l-69 -500h-164l-4 85
q-102 -99 -204 -99q-78 0 -113.5 37.5t-25.5 106.5l51 370h211l-45 -311q-4 -27 23 -27q39 0 89 37z" />
    <glyph glyph-name="Uhungarumlaut" unicode="&#x170;" 
d="M362 968l121 -84l-183 -161l-85 52zM577 968l121 -84l-184 -161l-84 51zM710 690l-59 -409q-23 -166 -94 -230.5t-235 -64.5q-161 0 -229.5 71t-47.5 232l58 401h216l-58 -409q-13 -79 -0.5 -106.5t66.5 -27.5q55 0 75 27.5t34 114.5l57 401h217z" />
    <glyph glyph-name="uhungarumlaut" unicode="&#x171;" horiz-adv-x="613" 
d="M414 707l-183 -161l-85 52l147 193zM445 546l-84 51l147 194l121 -84zM347 199l43 301h208l-69 -500h-164l-4 85q-102 -99 -204 -99q-78 0 -113.5 37.5t-25.5 106.5l51 370h211l-45 -311q-4 -27 23 -27q39 0 89 37z" />
    <glyph glyph-name="Uogonek" unicode="&#x172;" 
d="M493 690h217l-59 -409q-23 -159 -88 -224.5t-213 -70.5q-39 -42 -53 -86q-5 -17 2 -22.5t30 -1.5l15 -74q-49 -18 -89.5 -21t-63.5 7t-38 27t-13.5 39t10.5 44q25 47 101 92q-122 14 -173 85.5t-33 213.5l58 401h216l-58 -409q-13 -79 -0.5 -106.5t66.5 -27.5
q55 0 75 27.5t34 114.5z" />
    <glyph glyph-name="uogonek" unicode="&#x173;" horiz-adv-x="613" 
d="M529 0q-42 -45 -57 -91q-5 -17 2 -22.5t30 -1.5l15 -74q-49 -18 -89.5 -21t-63.5 7t-38 27t-13.5 39t10.5 44q25 48 103 93h-63l-4 85q-102 -99 -204 -99q-78 0 -113.5 37.5t-25.5 106.5l51 370h211l-45 -311q-4 -27 23 -27q39 0 89 37l43 301h208z" />
    <glyph glyph-name="Wcircumflex" unicode="&#x174;" horiz-adv-x="995" 
d="M635 927l131 -140l-55 -68l-147 94h-8l-164 -94l-48 72l150 136h141zM1030 690l-174 -636q-14 -54 -76 -54h-182q-28 0 -49 18t-20 44l7 369q1 24 5 105h-18q-7 -50 -20 -102l-99 -380q-14 -54 -76 -54h-187q-28 0 -49 18t-20 44l2 628h213l-27 -427q-1 -20 -4 -60.5
t-4 -54.5h17q13 70 28 124l96 358q16 60 77 60h151q29 0 48 -19.5t19 -48.5v-360q0 -42 -2 -114h18q6 59 21 121l92 421h213z" />
    <glyph glyph-name="wcircumflex" unicode="&#x175;" horiz-adv-x="925" 
d="M572 738l131 -140l-55 -68l-147 94h-8l-164 -94l-48 72l150 136h141zM254 501l-8 -371h6q26 0 42 66q9 37 18 91q4 24 12 79.5t12 81.5q3 20 18 36t44 16h172q24 0 40 -15t17 -38l3 -317h7q4 0 7.5 1t6.5 3.5t5 5t4 8t3.5 9t3 11t2.5 12l3 13.5t3 15q6 26 20 114
q12 79 19 178h208q-13 -116 -34 -206q-24 -104 -49 -166q-29 -72 -73.5 -100t-146.5 -28h-77q-25 0 -42 16.5t-17 39.5l2 320h-12q-6 -52 -19 -123q-13 -72 -23 -111q-11 -40 -26.5 -67t-31.5 -42t-42.5 -22.5t-47 -9t-57.5 -1.5h-110q-24 0 -40.5 16t-18.5 40l-16 445h213z
" />
    <glyph glyph-name="Ycircumflex" unicode="&#x176;" horiz-adv-x="649" 
d="M385 813l-164 -94l-48 72l150 136h141l131 -140l-55 -68l-147 94h-8zM715 690l-295 -481l-29 -209h-218l31 221l-158 469h216l53 -221q9 -40 7 -101h15q5 48 30 99l117 223h231z" />
    <glyph glyph-name="ycircumflex" unicode="&#x177;" horiz-adv-x="622" 
d="M340 625l-164 -94l-48 72l150 136h141l131 -140l-55 -68l-147 94h-8zM404 500h225q-17 -123 -76 -277t-98 -215q-145 -227 -389 -214l-13 113q13 5 39.5 13.5t40 13.5t33.5 14t36 22t31 30h-79q-24 0 -41.5 15t-20.5 38l-62 447h230l8 -358q0 -16 16 -16h24
q63 140 96 374z" />
    <glyph glyph-name="Ydieresis" unicode="&#x178;" horiz-adv-x="649" 
d="M252 763q-34 0 -30 33l11 73q3 19 11.5 27t27.5 8h77q35 0 30 -33l-11 -76q-4 -32 -35 -32h-81zM441 763q-35 0 -30 33l11 74q5 34 36 34h80q34 0 30 -33l-11 -75q-3 -18 -10.5 -25.5t-24.5 -7.5h-81zM715 690l-295 -481l-29 -209h-218l31 221l-158 469h216l53 -221
q9 -40 7 -101h15q5 48 30 99l117 223h231z" />
    <glyph glyph-name="Zacute" unicode="&#x179;" horiz-adv-x="598" 
d="M577 816l-266 -96l-47 86l247 156zM615 690l-21 -152l-333 -386h288l-21 -152h-539l20 152l334 386h-268l21 152h519z" />
    <glyph glyph-name="zacute" unicode="&#x17a;" horiz-adv-x="538" 
d="M531 628l-266 -96l-47 86l247 156zM65 500h466l-17 -135h1l-257 -230h228l-18 -135h-478l17 135h-1l258 230h-217z" />
    <glyph glyph-name="Zdotaccent" unicode="&#x17b;" horiz-adv-x="598" 
d="M332 752q-65 0 -56 61l6 47q8 53 62 53h59q28 0 44 -15t13 -44l-5 -49q-6 -53 -60 -53h-63zM615 690l-21 -152l-333 -386h288l-21 -152h-539l20 152l334 386h-268l21 152h519z" />
    <glyph glyph-name="zdotaccent" unicode="&#x17c;" horiz-adv-x="538" 
d="M286 564q-65 0 -56 61l6 47q8 53 62 53h59q28 0 44 -15t13 -44l-5 -49q-6 -53 -60 -53h-63zM514 365h1l-257 -230h228l-18 -135h-478l17 135h-1l258 230h-217l18 135h466z" />
    <glyph glyph-name="Zcaron" unicode="&#x17d;" horiz-adv-x="598" 
d="M398 737h-82l-163 144l58 66l147 -81h8l171 77l40 -75zM615 690l-21 -152l-333 -386h288l-21 -152h-539l20 152l334 386h-268l21 152h519z" />
    <glyph glyph-name="zcaron" unicode="&#x17e;" horiz-adv-x="538" 
d="M352 549h-82l-163 144l58 66l147 -81h8l171 77l40 -75zM65 500h466l-17 -135h1l-257 -230h228l-18 -135h-478l17 135h-1l258 230h-217z" />
    <glyph glyph-name="uni018F" unicode="&#x18f;" horiz-adv-x="689" 
d="M378 704q71 0 121 -10.5t89 -36t57.5 -67.5t25.5 -104.5t-7 -148.5q-14 -107 -40 -175t-71 -107t-102.5 -54t-145.5 -15q-167 0 -230 67.5t-44 188.5q13 86 66 124t146 45l204 16q6 70 -15.5 93t-89.5 23q-97 0 -230 -15l-19 116q127 60 285 60zM304 147q58 0 82.5 30
t41.5 123l-122 -12q-38 -4 -55.5 -21t-21.5 -55q-3 -32 15.5 -48.5t59.5 -16.5z" />
    <glyph glyph-name="florin" unicode="&#x192;" horiz-adv-x="501" 
d="M446 564q-46 0 -59 -56l-22 -98h93l-27 -126h-94l-69 -305q-37 -159 -203 -159q-99 0 -159 15l42 125h56q48 0 59 56l60 268h-89l24 111l93 14l31 136q39 159 204 159q98 0 159 -15l-43 -125h-56z" />
    <glyph glyph-name="Ohorn" unicode="&#x1a0;" horiz-adv-x="746" 
d="M845 700q-13 -68 -59 -110.5t-112 -50.5q18 -76 1 -202q-14 -107 -40 -175t-70 -107t-101 -54t-142 -15q-123 0 -188.5 32.5t-89 112.5t-3.5 222q15 106 40 173.5t68.5 107t99.5 55t140 15.5q182 0 247 -81q32 6 55.5 33t31.5 60zM447 353q17 118 5.5 154t-65.5 36
t-76.5 -38.5t-42.5 -167.5q-18 -119 -6.5 -154.5t65.5 -35.5q56 0 78 38.5t42 167.5z" />
    <glyph glyph-name="ohorn" unicode="&#x1a1;" horiz-adv-x="668" 
d="M738 523q-13 -64 -54 -105t-101 -53q9 -54 -1 -124q-20 -141 -87.5 -197t-216.5 -56q-152 0 -215 62.5t-42 206.5q20 143 87.5 200t218.5 57q155 0 215 -64q27 10 47 35t27 54zM365 257q11 71 3 93t-45 22q-40 0 -55.5 -24.5t-27.5 -106.5q-10 -69 -1.5 -90t47.5 -21
q38 0 52.5 23.5t26.5 103.5z" />
    <glyph glyph-name="Uhorn" unicode="&#x1af;" horiz-adv-x="801" 
d="M793 738l122 -16q-16 -82 -77.5 -125.5t-146.5 -36.5l-40 -279q-23 -166 -94 -230.5t-235 -64.5q-161 0 -229.5 71t-47.5 232l58 401h216l-58 -409q-13 -79 -0.5 -106.5t66.5 -27.5q55 0 75 27.5t34 114.5l57 401h217l-6 -45q33 5 57 32t32 61z" />
    <glyph glyph-name="uhorn" unicode="&#x1b0;" horiz-adv-x="712" 
d="M673 560l122 -16q-16 -79 -74 -122.5t-139 -40.5l-53 -381h-164l-4 85q-102 -99 -204 -99q-78 0 -113.5 37.5t-25.5 106.5l51 370h211l-45 -311q-4 -27 23 -27q39 0 89 37l43 301h208l-4 -31q29 9 50.5 34.5t28.5 56.5z" />
    <glyph glyph-name="uni01C4" unicode="&#x1c4;" horiz-adv-x="1292" 
d="M1092 737h-82l-163 144l58 66l147 -81h8l171 77l40 -75zM389 700q117 0 183.5 -31t94 -111.5t7.5 -220.5q-15 -106 -38.5 -171t-65.5 -105.5t-100 -55.5t-149 -15q-157 0 -310 10l97 690q128 10 281 10zM1309 690l-21 -152l-333 -386h288l-21 -152h-539l20 152l334 386
h-268l21 152h519zM446 353q16 116 4.5 153t-68.5 37h-78l-55 -395q23 -1 69 -1q55 0 83.5 41.5t44.5 164.5z" />
    <glyph glyph-name="uni01C5" unicode="&#x1c5;" horiz-adv-x="1238" 
d="M1052 549h-82l-163 144l58 66l147 -81h8l171 77l40 -75zM389 700q117 0 183.5 -31t94 -111.5t7.5 -220.5q-15 -106 -38.5 -171t-65.5 -105.5t-100 -55.5t-149 -15q-157 0 -310 10l97 690q128 10 281 10zM446 353q16 116 4.5 153t-68.5 37h-78l-55 -395q23 -1 69 -1
q55 0 83.5 41.5t44.5 164.5zM765 500h466l-17 -135h1l-257 -230h228l-18 -135h-478l17 135h-1l258 230h-217z" />
    <glyph glyph-name="uni01C6" unicode="&#x1c6;" horiz-adv-x="1155" 
d="M969 549h-82l-163 144l58 66l147 -81h8l171 77l40 -75zM421 700h210l-99 -700h-166l-4 80q-96 -92 -187 -92q-185 0 -151 276q18 141 72 195.5t140 54.5q94 0 160 -13q0 60 7 104zM682 500h466l-17 -135h1l-257 -230h228l-18 -135h-478l17 135h-1l258 230h-217zM238 270
q-10 -54 -6 -82t32 -26q38 2 84 35l26 190h-47q-45 0 -62 -21.5t-27 -95.5z" />
    <glyph glyph-name="uni01C7" unicode="&#x1c7;" horiz-adv-x="947" 
d="M323 690l-71 -478q-2 -23 5.5 -31.5t30.5 -8.5h228l-4 -163q-100 -13 -331 -13q-75 0 -117.5 45.5t-32.5 115.5l74 533h218zM952 690l-78 -567q-10 -66 -58.5 -101.5t-125.5 -35.5q-42 0 -91 7.5t-71 20.5l34 134h37q59 0 64 39l73 503h216z" />
    <glyph glyph-name="uni01C8" unicode="&#x1c8;" horiz-adv-x="858" 
d="M802 729q68 0 59 -66l-7 -51q-7 -58 -71 -58h-79q-67 0 -60 66l7 51q7 58 72 58h79zM323 690l-71 -478q-2 -23 5.5 -31.5t30.5 -8.5h228l-4 -163q-100 -13 -331 -13q-75 0 -117.5 45.5t-32.5 115.5l74 533h218zM841 500l-65 -446q-10 -80 -58.5 -148t-123.5 -98l-115 97
q77 72 89 157l63 438h210z" />
    <glyph glyph-name="uni01C9" unicode="&#x1c9;" horiz-adv-x="666" 
d="M610 729q68 0 59 -66l-7 -51q-7 -58 -71 -58h-79q-67 0 -60 66l7 51q7 58 72 58h79zM311 700l-75 -522q-4 -19 4 -25.5t35 -6.5h40l12 -136q-43 -24 -143 -24q-84 0 -127.5 39t-35.5 105l81 570h209zM649 500l-65 -446q-10 -80 -58.5 -148t-123.5 -98l-115 97
q77 72 89 157l63 438h210z" />
    <glyph glyph-name="uni01CA" unicode="&#x1ca;" horiz-adv-x="1125" 
d="M734 690l-87 -619q-5 -37 -24 -54t-55 -17h-72q-31 0 -45.5 15t-31.5 52l-118 237q-19 37 -35 114h-7q2 -72 -6 -128l-43 -290h-199l87 619q5 37 24 54t55 17h72q16 0 27.5 -4t20.5 -15.5t14 -19.5t14 -28l116 -225q26 -54 42 -119h8q-5 60 2 117l42 294h199zM1130 690
l-78 -567q-10 -66 -58.5 -101.5t-125.5 -35.5q-42 0 -91 7.5t-71 20.5l34 134h37q59 0 64 39l73 503h216z" />
    <glyph glyph-name="uni01CB" unicode="&#x1cb;" horiz-adv-x="1036" 
d="M980 729q68 0 59 -66l-7 -51q-7 -58 -71 -58h-79q-67 0 -60 66l7 51q7 58 72 58h79zM734 690l-87 -619q-5 -37 -24 -54t-55 -17h-72q-31 0 -45.5 15t-31.5 52l-118 237q-19 37 -35 114h-7q2 -72 -6 -128l-43 -290h-199l87 619q5 37 24 54t55 17h72q16 0 27.5 -4
t20.5 -15.5t14 -19.5t14 -28l116 -225q26 -54 42 -119h8q-5 60 2 117l42 294h199zM1019 500l-65 -446q-10 -80 -58.5 -148t-123.5 -98l-115 97q77 72 89 157l63 438h210z" />
    <glyph glyph-name="uni01CC" unicode="&#x1cc;" horiz-adv-x="925" 
d="M869 729q68 0 59 -66l-7 -51q-7 -58 -71 -58h-79q-67 0 -60 66l7 51q7 58 72 58h79zM460 514q65 0 102.5 -37.5t27.5 -106.5l-52 -370h-211l43 302q3 21 -2.5 29t-24.5 6q-41 -4 -88 -40l-42 -297h-210l69 500h164l5 -88q48 48 106 75t113 27zM635 62l63 438h210
l-65 -446q-10 -80 -58.5 -148t-123.5 -98l-115 97q77 72 89 157z" />
    <glyph glyph-name="Gcaron" unicode="&#x1e6;" horiz-adv-x="670" 
d="M456 737h-82l-163 144l58 66l147 -81h8l171 77l40 -75zM414 202l27 195h207l-56 -397h-159l-8 80q-92 -94 -202 -94q-233 0 -181 367q15 107 42 175t74.5 107.5t108.5 54t153 14.5q134 0 231 -30l-24 -155q-150 2 -222 2q-65 0 -92.5 -38t-44.5 -146q-16 -102 -5 -134
t61 -32q47 0 90 31z" />
    <glyph glyph-name="gcaron" unicode="&#x1e7;" horiz-adv-x="618" 
d="M408 555h-82l-163 144l58 66l147 -81h8l171 77l40 -75zM299 514q93 0 178 -10t125 -22l-55 -392q-10 -76 -33.5 -131t-52.5 -86t-70.5 -49t-78 -23t-84.5 -5q-148 0 -223 35l10 113h126q154 0 195 64q13 19 22.5 54t16.5 49q-68 -107 -202 -113q-103 -5 -135.5 64
t-11.5 202q8 50 19.5 88.5t25 65t33.5 44.5t38 28t46.5 15.5t51.5 7t59 1.5zM263 149q47 9 95 78l21 150h-48q-47 0 -63.5 -21t-27.5 -86q-7 -39 -9 -63t1 -38t10 -18.5t21 -1.5z" />
    <glyph glyph-name="uni01EA" unicode="&#x1ea;" 
d="M389 704q71 0 121 -10.5t89 -36t57.5 -67.5t25.5 -104.5t-7 -148.5q-14 -106 -39.5 -174t-69 -107t-99 -54.5t-139.5 -15.5q-33 -40 -47 -79q-5 -17 2 -22.5t30 -1.5l15 -74q-49 -18 -89.5 -21t-63.5 7t-38 27t-13.5 39t10.5 44q23 44 92 87q-124 17 -167 99t-18 262
q15 106 40 173.5t68.5 107t99.5 55t140 15.5zM447 353q17 118 5.5 154t-65.5 36t-76.5 -38.5t-42.5 -167.5q-18 -119 -6.5 -154.5t65.5 -35.5q56 0 78 38.5t42 167.5z" />
    <glyph glyph-name="uni01EB" unicode="&#x1eb;" horiz-adv-x="615" 
d="M327 514q153 0 214.5 -63t40.5 -210q-20 -136 -82.5 -192.5t-199.5 -60.5q-33 -40 -47 -79q-5 -17 2 -22.5t30 -1.5l15 -74q-49 -18 -89.5 -21t-63.5 7t-38 27t-13.5 39t10.5 44q23 44 91 86q-107 14 -150.5 77.5t-25.5 186.5q20 143 87.5 200t218.5 57zM365 257
q11 71 3 93t-45 22q-40 0 -55.5 -24.5t-27.5 -106.5q-10 -69 -1.5 -90t47.5 -21q38 0 52.5 23.5t26.5 103.5z" />
    <glyph glyph-name="Aringacute" unicode="&#x1fa;" horiz-adv-x="678" 
d="M530 990l-198 -73l-45 77l180 128zM388 660q-52 0 -88 31t-36 80q0 57 38 94t96 37q53 0 88.5 -31t35.5 -80q0 -58 -37.5 -94.5t-96.5 -36.5zM394 827q-21 0 -33.5 -13t-12.5 -35q0 -19 12.5 -31.5t30.5 -12.5q22 0 34.5 13t12.5 36q0 19 -12 31t-32 12zM430 0l-12 96
h-204l-38 -96h-225l254 578q23 52 76 52h196q26 0 45 -17t24 -43l101 -570h-217zM277 254h122l-17 139q-3 26 -1 77h-28q-9 -47 -20 -75z" />
    <glyph glyph-name="aringacute" unicode="&#x1fb;" horiz-adv-x="613" 
d="M550 865l-266 -96l-47 86l247 156zM241 640q0 57 38 94t96 37q53 0 88.5 -31t35.5 -80q0 -58 -37.5 -94.5t-96.5 -36.5q-52 0 -88 31t-36 80zM415 653q0 19 -12 31t-32 12q-21 0 -33.5 -13t-12.5 -35q0 -19 12.5 -31.5t30.5 -12.5q22 0 34.5 13t12.5 36zM354 514
q52 0 133 -10.5t110 -21.5l-68 -482h-162l-2 97q-67 -100 -195 -109q-70 -5 -107.5 28.5t-43.5 96.5t6 151q9 58 24 100.5t38.5 69.5t47.5 43.5t62.5 24.5t71.5 10t85 2zM260 149q42 3 93 77l21 151h-46q-37 0 -58 -20.5t-31 -86.5q-14 -95 -6 -111q5 -12 27 -10z" />
    <glyph glyph-name="AEacute" unicode="&#x1fc;" horiz-adv-x="956" 
d="M820 816l-266 -96l-47 86l247 156zM721 531q-25 0 -35.5 -8.5t-13.5 -31.5l-10 -71h238l-16 -134h-242l-13 -87q-5 -40 36 -40h232l-3 -151q-97 -12 -335 -12q-72 0 -109 45t-27 115h-169l-87 -156h-225l315 538q35 59 73.5 90.5t108 47.5t184.5 16q234 0 354 -11
l-26 -150h-230zM454 512l-111 -198h102l26 188q5 29 21 62h-11l-12.5 -25t-14.5 -27z" />
    <glyph glyph-name="aeacute" unicode="&#x1fd;" horiz-adv-x="916" 
d="M747 628l-266 -96l-47 86l247 156zM655 514q148 0 203.5 -46t41.5 -140q-9 -65 -57 -90.5t-153 -33.5l-128 -10q1 -28 17 -36.5t58 -8.5q107 0 201 11l13 -128q-93 -44 -233 -44q-206 0 -252 117q-64 -108 -197 -117q-102 -7 -133 64.5t-11 211.5q8 58 21 100t33 69.5
t40 43.5t53 24t60.5 10.5t72.5 2.5q112 1 214 -15q53 15 136 15zM700 349q2 17 -7 24t-36 6q-40 -1 -56 -17t-26 -65l59 6q35 3 49.5 11.5t16.5 34.5zM260 149q19 1 45 24t47 56q0 7 2 25q7 70 28 123h-56q-40 0 -58.5 -19.5t-28.5 -87.5q-14 -95 -6 -111q5 -12 27 -10z" />
    <glyph glyph-name="Oslashacute" unicode="&#x1fe;" 
d="M691 735l-62 -104q74 -81 46 -294q-14 -107 -40 -175t-70 -107t-101 -54t-142 -15q-47 0 -79 4l-62 -101l-150 77l54 88q-75 79 -44 299q15 106 40 173.5t68.5 107t99.5 55t140 15.5q53 0 85 -5l44 74l-147 -53l-47 86l247 156l66 -146l-62 -22zM447 353q17 118 5.5 154
t-65.5 36t-76.5 -38.5t-42.5 -167.5q-18 -119 -6.5 -154.5t65.5 -35.5q56 0 78 38.5t42 167.5z" />
    <glyph glyph-name="oslashacute" unicode="&#x1ff;" horiz-adv-x="615" 
d="M528 463q76 -61 54 -222q-20 -141 -87.5 -197t-216.5 -56q-27 0 -40 1l-59 -95l-130 71l40 64q-91 61 -68 228q20 143 87.5 200t218.5 57q22 0 56 -2l40 64l-121 -44l-47 86l247 156l66 -146l-93 -34l100 -55zM365 257q11 71 3 93t-45 22q-40 0 -55.5 -24.5t-27.5 -106.5
q-10 -69 -1.5 -90t47.5 -21q38 0 52.5 23.5t26.5 103.5z" />
    <glyph glyph-name="uni0200" unicode="&#x200;" horiz-adv-x="678" 
d="M380 774l-84 -51l-184 161l121 84zM595 775l-85 -52l-183 161l121 84zM430 0l-12 146h-188l-54 -146h-225l266 638q20 52 76 52h196q26 0 46 -17.5t23 -42.5l89 -630h-217zM289 304h117l-12 149q-3 26 -1 77h-28q-7 -41 -20 -75z" />
    <glyph glyph-name="uni0201" unicode="&#x201;" horiz-adv-x="613" 
d="M337 586l-84 -51l-184 161l121 84zM552 587l-85 -52l-183 161l121 84zM354 514q52 0 133 -10.5t110 -21.5l-68 -482h-162l-2 97q-67 -100 -195 -109q-70 -5 -107.5 28.5t-43.5 96.5t6 151q9 58 24 100.5t38.5 69.5t47.5 43.5t62.5 24.5t71.5 10t85 2zM260 149q42 3 93 77
l21 151h-46q-37 0 -58 -20.5t-31 -86.5q-14 -95 -6 -111q5 -12 27 -10z" />
    <glyph glyph-name="uni0202" unicode="&#x202;" horiz-adv-x="678" 
d="M313 737l-94 15q-2 70 51 119t143 49q91 0 137.5 -53.5t24.5 -122.5l-98 -5q5 31 -12 43t-61 12q-85 0 -91 -57zM430 0l-12 146h-188l-54 -146h-225l266 638q20 52 76 52h196q26 0 46 -17.5t23 -42.5l89 -630h-217zM289 304h117l-12 149q-3 26 -1 77h-28q-7 -41 -20 -75z
" />
    <glyph glyph-name="uni0203" unicode="&#x203;" horiz-adv-x="613" 
d="M270 549l-94 15q-2 70 51 119t143 49q91 0 137.5 -53.5t24.5 -122.5l-98 -5q5 31 -12 43t-61 12q-85 0 -91 -57zM354 514q52 0 133 -10.5t110 -21.5l-68 -482h-162l-2 97q-67 -100 -195 -109q-70 -5 -107.5 28.5t-43.5 96.5t6 151q9 58 24 100.5t38.5 69.5t47.5 43.5
t62.5 24.5t71.5 10t85 2zM260 149q42 3 93 77l21 151h-46q-37 0 -58 -20.5t-31 -86.5q-14 -95 -6 -111q5 -12 27 -10z" />
    <glyph glyph-name="uni0204" unicode="&#x204;" horiz-adv-x="587" 
d="M362 774l-84 -51l-184 161l121 84zM577 775l-85 -52l-183 161l121 84zM343 528q-26 0 -37 -9t-14 -31l-9 -63h249l-18 -144h-251l-11 -80q-6 -39 37 -39h240l-4 -154q-89 -12 -338 -12q-84 0 -125 52t-30 136l50 357q10 71 56 112t121 41q248 0 348 -14l-24 -152h-240z
" />
    <glyph glyph-name="uni0205" unicode="&#x205;" horiz-adv-x="590" 
d="M328 586l-84 -51l-184 161l121 84zM543 587l-85 -52l-183 161l121 84zM326 514q150 0 206 -46t42 -140q-9 -65 -57.5 -90.5t-155.5 -33.5l-125 -9q1 -28 16.5 -37t54.5 -9q109 0 205 11l14 -128q-95 -44 -237 -44q-84 0 -140 17t-86 52t-39.5 82.5t-2.5 114.5
q8 79 31 131t63.5 79.5t90 38.5t120.5 11zM374 349q2 17 -7.5 24t-38.5 6q-37 -1 -53 -17t-26 -65l57 6q36 3 50.5 11.5t17.5 34.5z" />
    <glyph glyph-name="uni0206" unicode="&#x206;" horiz-adv-x="587" 
d="M295 737l-94 15q-2 70 51 119t143 49q91 0 137.5 -53.5t24.5 -122.5l-98 -5q5 31 -12 43t-61 12q-85 0 -91 -57zM343 528q-26 0 -37 -9t-14 -31l-9 -63h249l-18 -144h-251l-11 -80q-6 -39 37 -39h240l-4 -154q-89 -12 -338 -12q-84 0 -125 52t-30 136l50 357
q10 71 56 112t121 41q248 0 348 -14l-24 -152h-240z" />
    <glyph glyph-name="uni0207" unicode="&#x207;" horiz-adv-x="590" 
d="M261 549l-94 15q-2 70 51 119t143 49q91 0 137.5 -53.5t24.5 -122.5l-98 -5q5 31 -12 43t-61 12q-85 0 -91 -57zM326 514q150 0 206 -46t42 -140q-9 -65 -57.5 -90.5t-155.5 -33.5l-125 -9q1 -28 16.5 -37t54.5 -9q109 0 205 11l14 -128q-95 -44 -237 -44q-84 0 -140 17
t-86 52t-39.5 82.5t-2.5 114.5q8 79 31 131t63.5 79.5t90 38.5t120.5 11zM374 349q2 17 -7.5 24t-38.5 6q-37 -1 -53 -17t-26 -65l57 6q36 3 50.5 11.5t17.5 34.5z" />
    <glyph glyph-name="uni0208" unicode="&#x208;" horiz-adv-x="322" 
d="M60 968l147 -194l-84 -51l-184 161zM275 968l147 -193l-85 -52l-183 161zM325 690l-97 -690h-216l97 690h216z" />
    <glyph glyph-name="uni0209" unicode="&#x209;" horiz-adv-x="306" 
d="M23 780l147 -194l-84 -51l-184 161zM238 780l147 -193l-85 -52l-183 161zM288 500l-70 -500h-211l70 500h211z" />
    <glyph glyph-name="uni020A" unicode="&#x20a;" horiz-adv-x="322" 
d="M140 737l-94 15q-2 70 51 119t143 49q91 0 137.5 -53.5t24.5 -122.5l-98 -5q5 31 -12 43t-61 12q-85 0 -91 -57zM325 690l-97 -690h-216l97 690h216z" />
    <glyph glyph-name="uni020B" unicode="&#x20b;" horiz-adv-x="306" 
d="M103 549l-94 15q-2 70 51 119t143 49q91 0 137.5 -53.5t24.5 -122.5l-98 -5q5 31 -12 43t-61 12q-85 0 -91 -57zM288 500l-70 -500h-211l70 500h211z" />
    <glyph glyph-name="uni020C" unicode="&#x20c;" 
d="M247 968l147 -194l-84 -51l-184 161zM462 968l147 -193l-85 -52l-183 161zM389 704q71 0 121 -10.5t89 -36t57.5 -67.5t25.5 -104.5t-7 -148.5q-14 -107 -40 -175t-70 -107t-101 -54t-142 -15q-123 0 -188.5 32.5t-89 112.5t-3.5 222q15 106 40 173.5t68.5 107t99.5 55
t140 15.5zM387 543q-54 0 -76.5 -38.5t-42.5 -167.5q-18 -119 -6.5 -154.5t65.5 -35.5q56 0 78 38.5t42 167.5q17 118 5.5 154t-65.5 36z" />
    <glyph glyph-name="uni020D" unicode="&#x20d;" horiz-adv-x="615" 
d="M181 780l147 -194l-84 -51l-184 161zM396 780l147 -193l-85 -52l-183 161zM327 514q153 0 214.5 -63t40.5 -210q-20 -141 -87.5 -197t-216.5 -56q-152 0 -215 62.5t-42 206.5q20 143 87.5 200t218.5 57zM323 372q-40 0 -55.5 -24.5t-27.5 -106.5q-10 -69 -1.5 -90
t47.5 -21q38 0 52.5 23.5t26.5 103.5q11 71 3 93t-45 22z" />
    <glyph glyph-name="uni020E" unicode="&#x20e;" 
d="M327 737l-94 15q-2 70 51 119t143 49q91 0 137.5 -53.5t24.5 -122.5l-98 -5q5 31 -12 43t-61 12q-85 0 -91 -57zM389 704q71 0 121 -10.5t89 -36t57.5 -67.5t25.5 -104.5t-7 -148.5q-14 -107 -40 -175t-70 -107t-101 -54t-142 -15q-123 0 -188.5 32.5t-89 112.5t-3.5 222
q15 106 40 173.5t68.5 107t99.5 55t140 15.5zM387 543q-54 0 -76.5 -38.5t-42.5 -167.5q-18 -119 -6.5 -154.5t65.5 -35.5q56 0 78 38.5t42 167.5q17 118 5.5 154t-65.5 36z" />
    <glyph glyph-name="uni020F" unicode="&#x20f;" horiz-adv-x="615" 
d="M261 549l-94 15q-2 70 51 119t143 49q91 0 137.5 -53.5t24.5 -122.5l-98 -5q5 31 -12 43t-61 12q-85 0 -91 -57zM327 514q153 0 214.5 -63t40.5 -210q-20 -141 -87.5 -197t-216.5 -56q-152 0 -215 62.5t-42 206.5q20 143 87.5 200t218.5 57zM323 372q-40 0 -55.5 -24.5
t-27.5 -106.5q-10 -69 -1.5 -90t47.5 -21q38 0 52.5 23.5t26.5 103.5q11 71 3 93t-45 22z" />
    <glyph glyph-name="uni0210" unicode="&#x210;" horiz-adv-x="669" 
d="M375 774l-84 -51l-184 161l121 84zM590 775l-85 -52l-183 161l121 84zM656 482q-9 -67 -43.5 -107.5t-112.5 -48.5l-1 -7q82 -12 91 -111l26 -208h-224l-18 209q-1 28 -9 35.5t-31 7.5h-76l-35 -252h-212l97 690q100 10 279 10q151 0 218 -49.5t51 -168.5zM440 484
q5 36 -6.5 49.5t-48.5 13.5h-85l-20 -142h75q44 0 61 15t24 64z" />
    <glyph glyph-name="uni0211" unicode="&#x211;" horiz-adv-x="452" 
d="M267 586l-84 -51l-184 161l121 84zM482 587l-85 -52l-183 161l121 84zM244 432q99 82 199 82h36l-43 -192h-47q-51 0 -133 -13l-42 -309h-211l70 500h164z" />
    <glyph glyph-name="uni0212" unicode="&#x212;" horiz-adv-x="669" 
d="M308 737l-94 15q-2 70 51 119t143 49q91 0 137.5 -53.5t24.5 -122.5l-98 -5q5 31 -12 43t-61 12q-85 0 -91 -57zM656 482q-9 -67 -43.5 -107.5t-112.5 -48.5l-1 -7q82 -12 91 -111l26 -208h-224l-18 209q-1 28 -9 35.5t-31 7.5h-76l-35 -252h-212l97 690q100 10 279 10
q151 0 218 -49.5t51 -168.5zM440 484q5 36 -6.5 49.5t-48.5 13.5h-85l-20 -142h75q44 0 61 15t24 64z" />
    <glyph glyph-name="uni0213" unicode="&#x213;" horiz-adv-x="452" 
d="M200 549l-94 15q-2 70 51 119t143 49q91 0 137.5 -53.5t24.5 -122.5l-98 -5q5 31 -12 43t-61 12q-85 0 -91 -57zM443 514h36l-43 -192h-47q-51 0 -133 -13l-42 -309h-211l70 500h164l7 -68q99 82 199 82z" />
    <glyph glyph-name="uni0214" unicode="&#x214;" 
d="M247 968l147 -194l-84 -51l-184 161zM462 968l147 -193l-85 -52l-183 161zM710 690l-59 -409q-23 -166 -94 -230.5t-235 -64.5q-161 0 -229.5 71t-47.5 232l58 401h216l-58 -409q-13 -79 -0.5 -106.5t66.5 -27.5q55 0 75 27.5t34 114.5l57 401h217z" />
    <glyph glyph-name="uni0215" unicode="&#x215;" horiz-adv-x="613" 
d="M325 597l-84 -51l-184 161l121 84zM540 598l-85 -52l-183 161l121 84zM390 500h208l-69 -500h-164l-4 85q-102 -99 -204 -99q-78 0 -113.5 37.5t-25.5 106.5l51 370h211l-45 -311q-4 -27 23 -27q39 0 89 37z" />
    <glyph glyph-name="uni0216" unicode="&#x216;" 
d="M327 737l-94 15q-2 70 51 119t143 49q91 0 137.5 -53.5t24.5 -122.5l-98 -5q5 31 -12 43t-61 12q-85 0 -91 -57zM710 690l-59 -409q-23 -166 -94 -230.5t-235 -64.5q-161 0 -229.5 71t-47.5 232l58 401h216l-58 -409q-13 -79 -0.5 -106.5t66.5 -27.5q55 0 75 27.5
t34 114.5l57 401h217z" />
    <glyph glyph-name="uni0217" unicode="&#x217;" horiz-adv-x="613" 
d="M258 560l-94 15q-2 70 51 119t143 49q91 0 137.5 -53.5t24.5 -122.5l-98 -5q5 31 -12 43t-61 12q-85 0 -91 -57zM390 500h208l-69 -500h-164l-4 85q-102 -99 -204 -99q-78 0 -113.5 37.5t-25.5 106.5l51 370h211l-45 -311q-4 -27 23 -27q39 0 89 37z" />
    <glyph glyph-name="Scommaaccent" unicode="&#x218;" horiz-adv-x="602" 
d="M357 704q140 0 247 -36l-19 -138q-122 2 -242 2q-35 0 -49.5 -6t-18.5 -22q-2 -12 6.5 -21.5t37.5 -23.5l116 -55q82 -39 108.5 -87t17.5 -128q-13 -118 -75 -160.5t-213 -42.5q-133 0 -269 35l20 151q193 -5 238 -5t63 6.5t22 22.5q3 12 -4 20t-29 19l-126 62
q-82 40 -108.5 91t-18.5 121q13 111 81.5 153t214.5 42zM279 -48q37 0 51.5 -13.5t9.5 -43.5l-8 -48q-7 -40 -30 -85t-52 -73l-77 24q15 28 39 103q-29 -1 -40 11t-7 37l6 35q5 30 22.5 41.5t53.5 11.5h32z" />
    <glyph glyph-name="scommaaccent" unicode="&#x219;" horiz-adv-x="548" 
d="M278 514q148 0 252 -23l-17 -121h-191q-56 0 -71 -1.5t-16 -8.5q-2 -8 8.5 -13.5t40.5 -13.5l109 -29q129 -35 114 -158q-11 -93 -71.5 -125t-182.5 -32q-133 0 -256 22l17 121h168q76 0 99 3t25 13q1 7 -9 12t-45 15l-105 30q-131 37 -111 171q10 70 63.5 104t178.5 34z
M245 -43q37 0 51.5 -13.5t9.5 -43.5l-8 -48q-7 -40 -30 -85t-52 -73l-77 24q15 28 39 103q-29 -1 -40 11t-7 37l6 35q5 30 22.5 41.5t53.5 11.5h32z" />
    <glyph glyph-name="uni021A" unicode="&#x21a;" horiz-adv-x="618" 
d="M664 690l-23 -162h-191l-74 -528h-217l74 528h-190l23 162h598zM265 -38q37 0 51.5 -13.5t9.5 -43.5l-8 -48q-7 -40 -30 -85t-52 -73l-77 24q15 28 39 103q-29 -1 -40 11t-7 37l6 35q5 30 22.5 41.5t53.5 11.5h32z" />
    <glyph glyph-name="uni021B" unicode="&#x21b;" horiz-adv-x="439" 
d="M317 374l-28 -196q-3 -20 2.5 -26t28.5 -6h59l11 -136q-61 -24 -167 -24q-77 0 -118.5 39t-31.5 105l36 244h-86l15 121l90 5l19 131h207l-19 -131h120l-17 -126h-121zM212 -43q37 0 51.5 -13.5t9.5 -43.5l-8 -48q-7 -40 -30 -85t-52 -73l-77 24q15 28 39 103
q-29 -1 -40 11t-7 37l6 35q5 30 22.5 41.5t53.5 11.5h32z" />
    <glyph glyph-name="uni022A" unicode="&#x22a;" 
d="M592 1034l-16 -111h-291l16 111h291zM376 879q32 0 27 -30l-10 -69q-4 -30 -31 -30h-74q-32 0 -27 30l10 67q4 32 35 32h70zM548 879q32 0 27 -30l-10 -69q-4 -30 -32 -30h-73q-32 0 -27 30l10 68q4 31 32 31h73zM389 704q71 0 121 -10.5t89 -36t57.5 -67.5t25.5 -104.5
t-7 -148.5q-14 -107 -40 -175t-70 -107t-101 -54t-142 -15q-123 0 -188.5 32.5t-89 112.5t-3.5 222q15 106 40 173.5t68.5 107t99.5 55t140 15.5zM387 543q-54 0 -76.5 -38.5t-42.5 -167.5q-18 -119 -6.5 -154.5t65.5 -35.5q56 0 78 38.5t42 167.5q17 118 5.5 154t-65.5 36z
" />
    <glyph glyph-name="uni022B" unicode="&#x22b;" horiz-adv-x="615" 
d="M526 846l-16 -111h-291l16 111h291zM310 691q32 0 27 -30l-10 -69q-4 -30 -31 -30h-74q-32 0 -27 30l10 67q4 32 35 32h70zM482 691q32 0 27 -30l-10 -69q-4 -30 -32 -30h-73q-32 0 -27 30l10 68q4 31 32 31h73zM327 514q153 0 214.5 -63t40.5 -210q-20 -141 -87.5 -197
t-216.5 -56q-152 0 -215 62.5t-42 206.5q20 143 87.5 200t218.5 57zM323 372q-40 0 -55.5 -24.5t-27.5 -106.5q-10 -69 -1.5 -90t47.5 -21q38 0 52.5 23.5t26.5 103.5q11 71 3 93t-45 22z" />
    <glyph glyph-name="uni022C" unicode="&#x22c;" 
d="M589 1060l-16 -111h-291l16 111h291zM319 900q30 0 94.5 -22t65.5 -22q24 -6 34 5t13 38l85 -8q4 -83 -22 -124t-73 -41q-31 0 -94 21.5t-70 22.5q-24 5 -33 -5.5t-13 -37.5l-85 8q-2 82 24.5 123.5t73.5 41.5zM389 704q71 0 121 -10.5t89 -36t57.5 -67.5t25.5 -104.5
t-7 -148.5q-14 -107 -40 -175t-70 -107t-101 -54t-142 -15q-123 0 -188.5 32.5t-89 112.5t-3.5 222q15 106 40 173.5t68.5 107t99.5 55t140 15.5zM387 543q-54 0 -76.5 -38.5t-42.5 -167.5q-18 -119 -6.5 -154.5t65.5 -35.5q56 0 78 38.5t42 167.5q17 118 5.5 154t-65.5 36z
" />
    <glyph glyph-name="uni022D" unicode="&#x22d;" horiz-adv-x="615" 
d="M523 872l-16 -111h-291l16 111h291zM253 712q30 0 94.5 -22t65.5 -22q24 -6 34 5t13 38l85 -8q4 -83 -22 -124t-73 -41q-31 0 -94 21.5t-70 22.5q-24 5 -33 -5.5t-13 -37.5l-85 8q-2 82 24.5 123.5t73.5 41.5zM327 514q153 0 214.5 -63t40.5 -210q-20 -141 -87.5 -197
t-216.5 -56q-152 0 -215 62.5t-42 206.5q20 143 87.5 200t218.5 57zM323 372q-40 0 -55.5 -24.5t-27.5 -106.5q-10 -69 -1.5 -90t47.5 -21q38 0 52.5 23.5t26.5 103.5q11 71 3 93t-45 22z" />
    <glyph glyph-name="uni0230" unicode="&#x230;" 
d="M598 1043l-16 -111h-291l16 111h291zM455 891q26 0 40.5 -14t11.5 -40l-5 -44q-6 -49 -54 -49h-58q-59 0 -51 56l6 43q6 48 56 48h54zM389 704q71 0 121 -10.5t89 -36t57.5 -67.5t25.5 -104.5t-7 -148.5q-14 -107 -40 -175t-70 -107t-101 -54t-142 -15
q-123 0 -188.5 32.5t-89 112.5t-3.5 222q15 106 40 173.5t68.5 107t99.5 55t140 15.5zM387 543q-54 0 -76.5 -38.5t-42.5 -167.5q-18 -119 -6.5 -154.5t65.5 -35.5q56 0 78 38.5t42 167.5q17 118 5.5 154t-65.5 36z" />
    <glyph glyph-name="uni0231" unicode="&#x231;" horiz-adv-x="615" 
d="M532 855l-16 -111h-291l16 111h291zM389 703q26 0 40.5 -14t11.5 -40l-5 -44q-6 -49 -54 -49h-58q-59 0 -51 56l6 43q6 48 56 48h54zM327 514q153 0 214.5 -63t40.5 -210q-20 -141 -87.5 -197t-216.5 -56q-152 0 -215 62.5t-42 206.5q20 143 87.5 200t218.5 57zM323 372
q-40 0 -55.5 -24.5t-27.5 -106.5q-10 -69 -1.5 -90t47.5 -21q38 0 52.5 23.5t26.5 103.5q11 71 3 93t-45 22z" />
    <glyph glyph-name="uni0232" unicode="&#x232;" horiz-adv-x="649" 
d="M562 895l-17 -123h-320l17 123h320zM715 690l-295 -481l-29 -209h-218l31 221l-158 469h216l53 -221q9 -40 7 -101h15q5 48 30 99l117 223h231z" />
    <glyph glyph-name="uni0233" unicode="&#x233;" horiz-adv-x="622" 
d="M517 707l-17 -123h-320l17 123h320zM404 500h225q-17 -123 -76 -277t-98 -215q-145 -227 -389 -214l-13 113q13 5 39.5 13.5t40 13.5t33.5 14t36 22t31 30h-79q-24 0 -41.5 15t-20.5 38l-62 447h230l8 -358q0 -16 16 -16h24q63 140 96 374z" />
    <glyph glyph-name="uni0237" unicode="&#x237;" horiz-adv-x="306" 
d="M289 500l-65 -446q-10 -80 -58.5 -148t-123.5 -98l-115 97q77 72 89 157l63 438h210z" />
    <glyph glyph-name="uni0259" unicode="&#x259;" horiz-adv-x="590" 
d="M301 514q84 0 140 -17t86 -52t39.5 -82.5t2.5 -114.5q-8 -79 -31 -131t-63.5 -79.5t-90 -38.5t-120.5 -11q-150 0 -206 46t-42 140q9 65 57.5 90.5t155.5 33.5l125 9q-1 28 -16.5 37t-54.5 9q-109 0 -205 -11l-14 128q95 44 237 44zM262 123q37 1 53 17t26 65l-57 -6
q-36 -3 -50.5 -11.5t-17.5 -34.5q-2 -17 7.5 -24t38.5 -6z" />
    <glyph glyph-name="uni02B9" unicode="&#x2b9;" horiz-adv-x="300" 
d="M321 750l-113 -228h-120l89 228h144z" />
    <glyph glyph-name="uni02BA" unicode="&#x2ba;" horiz-adv-x="479" 
d="M321 750l-113 -228h-120l89 228h144zM500 750l-113 -228h-120l89 228h144z" />
    <glyph glyph-name="uni02BB" unicode="&#x2bb;" horiz-adv-x="257" 
d="M150 474q-40 0 -56.5 17.5t-10.5 58.5l9 64q8 53 33 112.5t57 97.5l85 -32q-16 -36 -43 -137q33 1 45 -15t7 -49l-7 -46q-6 -40 -25 -55.5t-58 -15.5h-36z" />
    <glyph glyph-name="uni02BE" unicode="&#x2be;" horiz-adv-x="175" 
d="M72 610q21 0 33.5 13t12.5 35q0 36 -34 43l11 75q46 -5 76.5 -35.5t30.5 -74.5q0 -58 -39.5 -95t-102.5 -36z" />
    <glyph glyph-name="uni02BF" unicode="&#x2bf;" horiz-adv-x="175" 
d="M217 701q-21 0 -33.5 -13t-12.5 -35q0 -36 34 -43l-11 -75q-46 5 -76.5 35.5t-30.5 74.5q0 58 39.5 95t102.5 36z" />
    <glyph glyph-name="circumflex" unicode="&#x2c6;" horiz-adv-x="477" 
d="M363 742l131 -140l-55 -68l-147 94h-8l-164 -94l-48 72l150 136h141z" />
    <glyph glyph-name="caron" unicode="&#x2c7;" horiz-adv-x="477" 
d="M463 753l40 -75l-179 -131h-82l-163 144l58 66l147 -81h8z" />
    <glyph glyph-name="uni02C8" unicode="&#x2c8;" horiz-adv-x="199" 
d="M201 559l-122 1l32 183h122z" />
    <glyph glyph-name="uni02C9" unicode="&#x2c9;" horiz-adv-x="400" 
d="M425 713l-17 -123h-320l17 123h320z" />
    <glyph glyph-name="uni02CA" unicode="&#x2ca;" horiz-adv-x="392" 
d="M337 753l66 -146l-266 -96l-47 86z" />
    <glyph glyph-name="uni02CB" unicode="&#x2cb;" horiz-adv-x="392" 
d="M167 747l235 -150l-67 -86l-248 106z" />
    <glyph glyph-name="uni02CC" unicode="&#x2cc;" horiz-adv-x="187" 
d="M86 -211l-122 1l32 183h122z" />
    <glyph glyph-name="breve" unicode="&#x2d8;" horiz-adv-x="411" 
d="M352 717l94 -15q2 -70 -51 -119t-143 -49q-91 0 -137.5 53.5t-24.5 122.5l98 5q-5 -31 12 -43t61 -12q85 0 91 57z" />
    <glyph glyph-name="dotaccent" unicode="&#x2d9;" horiz-adv-x="251" 
d="M215 724q28 0 44 -15t13 -44l-5 -49q-6 -53 -60 -53h-63q-65 0 -56 61l6 47q8 53 62 53h59z" />
    <glyph glyph-name="ring" unicode="&#x2da;" horiz-adv-x="318" 
d="M221 776q53 0 88.5 -31t35.5 -80q0 -58 -37.5 -94.5t-96.5 -36.5q-52 0 -88 31t-36 80q0 57 38 94t96 37zM217 701q-21 0 -33.5 -13t-12.5 -35q0 -19 12.5 -31.5t30.5 -12.5q22 0 34.5 13t12.5 36q0 19 -12 31t-32 12z" />
    <glyph glyph-name="ogonek" unicode="&#x2db;" horiz-adv-x="250" 
d="M99 8l87 -8q-42 -45 -57 -91q-5 -17 2 -22.5t30 -1.5l15 -74q-49 -18 -89.5 -21t-63.5 7t-38 27t-13.5 39t10.5 44q27 52 117 101z" />
    <glyph glyph-name="tilde" unicode="&#x2dc;" horiz-adv-x="460" 
d="M187 724q30 0 94.5 -22t65.5 -22q24 -6 34 5t13 38l85 -8q4 -83 -22 -124t-73 -41q-31 0 -94 21.5t-70 22.5q-24 5 -33 -5.5t-13 -37.5l-85 8q-2 82 24.5 123.5t73.5 41.5z" />
    <glyph glyph-name="hungarumlaut" unicode="&#x2dd;" horiz-adv-x="547" 
d="M231 756l121 -84l-183 -161l-85 52zM446 756l121 -84l-184 -161l-84 51z" />
    <glyph glyph-name="acutecomb" unicode="&#x301;" horiz-adv-x="0" 
d="M-64 753l66 -146l-266 -96l-47 86z" />
    <glyph glyph-name="uni0302" unicode="&#x302;" horiz-adv-x="0" 
d="M-119 742l131 -140l-55 -68l-147 94h-8l-164 -94l-48 72l150 136h141z" />
    <glyph glyph-name="tildecomb" unicode="&#x303;" horiz-adv-x="0" 
d="M-273 724q30 0 94.5 -22t65.5 -22q24 -6 34 5t13 38l85 -8q4 -83 -22 -124t-73 -41q-31 0 -94 21.5t-70 22.5q-24 5 -33 -5.5t-13 -37.5l-85 8q-2 82 24.5 123.5t73.5 41.5z" />
    <glyph glyph-name="uni0304" unicode="&#x304;" horiz-adv-x="0" 
d="M25 713l-17 -123h-320l17 123h320z" />
    <glyph glyph-name="uni0306" unicode="&#x306;" horiz-adv-x="0" 
d="M-101 717l94 -15q2 -70 -51 -119t-143 -49q-91 0 -137.5 53.5t-24.5 122.5l98 5q-5 -31 12 -43t61 -12q85 0 91 57z" />
    <glyph glyph-name="uni0307" unicode="&#x307;" horiz-adv-x="0" 
d="M-60 724q28 0 44 -15t13 -44l-5 -49q-6 -53 -60 -53h-63q-65 0 -56 61l6 47q8 53 62 53h59z" />
    <glyph glyph-name="uni0308" unicode="&#x308;" horiz-adv-x="0" 
d="M-212 720q34 0 30 -33l-11 -76q-4 -32 -35 -32h-81q-35 0 -30 33l11 73q3 19 11.5 27t27.5 8h77zM-23 720q35 0 30 -33l-11 -75q-3 -18 -10.5 -25.5t-24.5 -7.5h-81q-34 0 -30 33l11 74q5 34 36 34h80z" />
    <glyph glyph-name="hookabovecomb" unicode="&#x309;" horiz-adv-x="0" 
d="M-174 604q64 10 64 56q0 17 -15.5 20.5t-36.5 -6.5l-5 93q82 26 127.5 4.5t45.5 -81.5q0 -74 -47.5 -121.5t-126.5 -51.5z" />
    <glyph glyph-name="uni030A" unicode="&#x30a;" horiz-adv-x="0" 
d="M-139 776q53 0 88.5 -31t35.5 -80q0 -58 -37.5 -94.5t-96.5 -36.5q-52 0 -88 31t-36 80q0 57 38 94t96 37zM-143 701q-21 0 -33.5 -13t-12.5 -35q0 -19 12.5 -31.5t30.5 -12.5q22 0 34.5 13t12.5 36q0 19 -12 31t-32 12z" />
    <glyph glyph-name="uni030B" unicode="&#x30b;" horiz-adv-x="0" 
d="M-329 756l121 -84l-183 -161l-85 52zM-114 756l121 -84l-184 -161l-84 51z" />
    <glyph glyph-name="uni030C" unicode="&#x30c;" horiz-adv-x="0" 
d="M-14 753l40 -75l-179 -131h-82l-163 144l58 66l147 -81h8z" />
    <glyph glyph-name="uni030F" unicode="&#x30f;" horiz-adv-x="0" 
d="M-360 756l147 -194l-84 -51l-184 161zM-145 756l147 -193l-85 -52l-183 161z" />
    <glyph glyph-name="uni0311" unicode="&#x311;" horiz-adv-x="0" 
d="M-242 534l-94 15q-2 70 51 119t143 49q91 0 137.5 -53.5t24.5 -122.5l-98 -5q5 31 -12 43t-61 12q-85 0 -91 -57z" />
    <glyph glyph-name="uni0312" unicode="&#x312;" horiz-adv-x="0" 
d="M-156 498q-31 0 -43 13.5t-8 44.5l6 39q13 87 61 149l65 -24q-16 -40 -26 -94q49 0 40 -49l-5 -26q-6 -30 -20 -41.5t-43 -11.5h-27z" />
    <glyph glyph-name="uni031B" unicode="&#x31b;" horiz-adv-x="0" 
d="M-251 379l11 83q37 1 64 29t36 65l122 -16q-16 -84 -80.5 -127.5t-152.5 -33.5z" />
    <glyph glyph-name="dotbelowcomb" unicode="&#x323;" horiz-adv-x="0" 
d="M-165 -27q28 0 44 -15t13 -44l-5 -49q-6 -53 -60 -53h-63q-64 0 -56 61l6 47q6 53 62 53h59z" />
    <glyph glyph-name="uni0324" unicode="&#x324;" horiz-adv-x="0" 
d="M-319 -37q35 0 30 -33l-11 -76q-4 -32 -35 -32h-81q-34 0 -30 33l11 73q3 19 11.5 27t27.5 8h77zM-130 -37q34 0 30 -33l-11 -75q-3 -18 -10.5 -25.5t-24.5 -7.5h-81q-35 0 -30 33l11 74q5 34 36 34h80z" />
    <glyph glyph-name="uni0327" unicode="&#x327;" horiz-adv-x="0" 
d="M-243 -33q81 15 131.5 0t40.5 -73q-14 -80 -83 -115.5t-165 -22.5l21 77q89 0 99 46q0 3 0.5 5.5t-2 4.5t-6 3t-11 1.5t-18 1t-25.5 0.5z" />
    <glyph glyph-name="uni0328" unicode="&#x328;" horiz-adv-x="0" 
d="M-156 8l87 -8q-42 -45 -57 -91q-5 -17 2 -22.5t30 -1.5l15 -74q-49 -18 -89.5 -21t-63.5 7t-38 27t-13.5 39t10.5 44q27 52 117 101z" />
    <glyph glyph-name="uni032E" unicode="&#x32e;" horiz-adv-x="0" 
d="M-168 -41l94 -15q2 -70 -51 -119t-143 -49q-91 0 -137.5 53.5t-24.5 122.5l98 5q-5 -31 12 -43t61 -12q85 0 91 57z" />
    <glyph glyph-name="uni0331" unicode="&#x331;" horiz-adv-x="0" 
d="M-82 -49l-17 -123h-320l17 123h320z" />
    <glyph glyph-name="uni0394" unicode="&#x394;" horiz-adv-x="708" 
d="M518 690l140 -622l-7 -68h-670l7 68l316 622h214zM388 485q-20 -73 -31 -97l-114 -236h191l-40 235q-6 47 -6 98z" />
    <glyph glyph-name="uni03A9" unicode="&#x3a9;" horiz-adv-x="719" 
d="M407 704q165 0 235.5 -76t48.5 -235q-12 -87 -46.5 -136t-121.5 -115q37 20 81 20h60l-22 -162h-305l18 148q51 44 73 90t35 132q15 108 1.5 141t-67.5 33q-57 0 -80 -31.5t-37 -129.5q-13 -80 -5.5 -134t41.5 -101l-16 -148h-305l23 162h62q40 0 77 -18
q-66 68 -88 122.5t-10 146.5q19 149 100 220t248 71z" />
    <glyph glyph-name="uni03BC" unicode="&#x3bc;" horiz-adv-x="649" 
d="M587 117h40l-7 -102q-80 -28 -161 -28q-108 0 -108 94v1q-53 -75 -124 -91l-8 -56l-43 -115h-183l56 394l39 286h211l-44 -304q-4 -34 22 -34q30 0 60.5 36t43.5 122l24 180h211l-48 -338q-4 -24 0 -34.5t19 -10.5z" />
    <glyph glyph-name="pi" unicode="&#x3c0;" horiz-adv-x="658" 
d="M673 501l-19 -136h-64l-51 -365h-210l51 365h-81l-51 -365h-210l51 365h-64l19 136h629z" />
    <glyph glyph-name="uni0400" unicode="&#x400;" horiz-adv-x="590" 
d="M465 803l-67 -86l-248 106l80 130zM346 528q-26 0 -37 -9t-14 -31l-9 -63h249l-18 -144h-251l-11 -80q-6 -39 37 -39h240l-4 -154q-89 -12 -338 -12q-84 0 -125 52t-30 136l50 357q10 71 56 112t121 41q248 0 348 -14l-24 -152h-240z" />
    <glyph glyph-name="uni0401" unicode="&#x401;" horiz-adv-x="587" 
d="M249 763q-35 0 -30 33l11 73q3 19 11.5 27t27.5 8h77q34 0 30 -33l-11 -76q-4 -32 -35 -32h-81zM438 763q-34 0 -30 33l11 74q5 34 36 34h80q35 0 30 -33l-11 -75q-3 -18 -10.5 -25.5t-24.5 -7.5h-81zM343 528q-26 0 -37 -9t-14 -31l-9 -63h249l-18 -144h-251l-11 -80
q-6 -39 37 -39h240l-4 -154q-89 -12 -338 -12q-84 0 -125 52t-30 136l50 357q10 71 56 112t121 41q248 0 348 -14l-24 -152h-240z" />
    <glyph glyph-name="uni0402" unicode="&#x402;" horiz-adv-x="775" 
d="M607 454q89 0 127 -51.5t19 -170.5q-22 -137 -98.5 -192.5t-206.5 -55.5l-12 151q46 10 69.5 35t31.5 69q6 29 -5.5 38.5t-38.5 9.5q-44 0 -80 -21l-37 -266h-218l74 528h-189l22 162h598l-22 -162h-191l-16 -119q80 45 173 45z" />
    <glyph glyph-name="uni0403" unicode="&#x403;" horiz-adv-x="543" 
d="M513 962l66 -146l-266 -96l-47 86zM255 694q242 0 334 -15l-24 -151h-215q-25 0 -36.5 -8.5t-14.5 -31.5l-69 -488h-217l76 541q10 69 55.5 111t110.5 42z" />
    <glyph glyph-name="uni0404" unicode="&#x404;" horiz-adv-x="604" 
d="M385 519q-53 0 -75.5 -19.5t-34.5 -74.5h266l-16 -144h-270q-5 -66 11 -88t69 -22q140 0 205 8l8 -159q-93 -32 -233 -32q-177 0 -240 82.5t-35 282.5q27 194 106 271.5t248 77.5q133 0 230 -28l-25 -157q-148 2 -214 2z" />
    <glyph glyph-name="uni0405" unicode="&#x405;" horiz-adv-x="602" 
d="M357 704q140 0 247 -36l-19 -138q-122 2 -242 2q-35 0 -49.5 -6t-18.5 -22q-2 -12 6.5 -21.5t37.5 -23.5l116 -55q82 -39 108.5 -87t17.5 -128q-13 -118 -75 -160.5t-213 -42.5q-133 0 -269 35l20 151q193 -5 238 -5t63 6.5t22 22.5q3 12 -4 20t-29 19l-126 62
q-82 40 -108.5 91t-18.5 121q13 111 81.5 153t214.5 42z" />
    <glyph glyph-name="uni0406" unicode="&#x406;" horiz-adv-x="329" 
d="M328 690l-97 -690h-215l97 690h215z" />
    <glyph glyph-name="uni0407" unicode="&#x407;" horiz-adv-x="322" 
d="M191 904q35 0 30 -33l-11 -76q-4 -32 -35 -32h-81q-34 0 -30 33l11 73q3 19 11.5 27t27.5 8h77zM380 904q34 0 30 -33l-11 -75q-3 -18 -10.5 -25.5t-24.5 -7.5h-81q-35 0 -30 33l11 74q5 34 36 34h80zM325 690l-97 -690h-216l97 690h216z" />
    <glyph glyph-name="uni0408" unicode="&#x408;" horiz-adv-x="399" 
d="M400 690l-78 -567q-10 -66 -58.5 -101.5t-125.5 -35.5q-42 0 -91 7.5t-71 20.5l34 134h37q59 0 64 39l73 503h216z" />
    <glyph glyph-name="uni0409" unicode="&#x409;" horiz-adv-x="996" 
d="M720 453q155 0 209.5 -51.5t35.5 -186.5q-19 -132 -70.5 -177.5t-182.5 -45.5q-210 0 -315 8l77 548h-26q-27 0 -40 -11.5t-20 -42.5q-50 -237 -93 -338q-31 -75 -78.5 -116.5t-102 -47.5t-117.5 4l-8 168q3 0 15 1.5l16 2t14.5 3t15 5l13.5 7.5t14 11t11.5 15t11.5 21
q39 80 88 315q30 145 183 145h337l-33 -237h45zM750 229q9 55 1.5 74t-47.5 19h-48l-25 -180h39q25 0 34 1t20.5 9t16.5 26t9 51z" />
    <glyph glyph-name="uni040A" unicode="&#x40a;" horiz-adv-x="976" 
d="M712 437q67 0 111 -9.5t77 -35t43.5 -73t0.5 -120.5q-16 -121 -66 -164t-174 -43q-216 0 -320 8h-1l41 295h-149l-41 -295h-218l97 690h218l-36 -253h149l36 253h213l-36 -253h55zM730 218q8 42 0.5 60t-44.5 18h-48l-22 -154h46q35 0 48.5 12.5t19.5 63.5z" />
    <glyph glyph-name="uni040B" unicode="&#x40b;" horiz-adv-x="798" 
d="M619 464q93 0 127.5 -44.5t23.5 -139.5l-39 -280h-217l34 241q4 29 -6 37.5t-42 8.5q-49 0 -86 -17l-38 -270h-218l74 528h-189l22 162h598l-22 -162h-191l-14 -104q86 40 183 40z" />
    <glyph glyph-name="uni040C" unicode="&#x40c;" horiz-adv-x="676" 
d="M629 816l-266 -96l-47 86l247 156zM448 355q35 -6 56 -12t39 -22t27 -33.5t19 -58t16.5 -82t17.5 -118.5q3 -19 4 -29h-222q-25 201 -30 224q-12 49 -38 59q-14 5 -44 5h-29q5 -36 0 -67l-31 -221h-217l97 690h217l-26 -178q-4 -35 -18 -84h20q61 0 89 44t88 218h225
q-76 -189 -89 -216q-34 -67 -79 -90q-31 -15 -91 -23z" />
    <glyph glyph-name="uni040D" unicode="&#x40d;" horiz-adv-x="735" 
d="M297 956l235 -150l-67 -86l-248 106zM734 690l-97 -690h-206l45 309q9 57 29 117h-7q-33 -73 -56 -106l-217 -320h-209l97 690h208l-41 -293q-6 -45 -33 -131h8q30 69 60 113l213 311h206z" />
    <glyph glyph-name="uni040E" unicode="&#x40e;" horiz-adv-x="622" 
d="M376 737q-91 0 -137.5 53.5t-24.5 122.5l98 5q-5 -31 12 -43t61 -12q85 0 91 57l94 -15q2 -70 -51 -119t-143 -49zM455 690h227l-219 -507q-45 -103 -88 -146.5t-119 -50.5q-74 -8 -219 15l32 147q40 -1 69 -1t49 2.5t33 10t20 20.5l6 12h-34q-85 0 -97 98l-68 400h217
l31 -329q1 -17 15 -17h7z" />
    <glyph glyph-name="uni040F" unicode="&#x40f;" horiz-adv-x="717" 
d="M498 690h218l-97 -690h-216l-29 -151h-148l13 151h-223l97 690h218l-77 -548h167z" />
    <glyph glyph-name="uni0410" unicode="&#x410;" horiz-adv-x="678" 
d="M430 0l-12 146h-188l-54 -146h-225l266 638q20 52 76 52h196q26 0 46 -17.5t23 -42.5l89 -630h-217zM289 304h117l-12 149q-3 26 -1 77h-28q-7 -41 -20 -75z" />
    <glyph glyph-name="uni0411" unicode="&#x411;" horiz-adv-x="643" 
d="M351 423q158 0 217.5 -49.5t41.5 -173.5q-17 -120 -74.5 -164t-188.5 -44q-221 0 -332 8l97 690q116 8 264 8q117 0 256 -8l-38 -155h-286l-16 -112h59zM396 224q5 43 -5.5 55.5t-53.5 12.5h-64l-21 -150h53q51 0 67.5 14t23.5 68z" />
    <glyph glyph-name="uni0412" unicode="&#x412;" horiz-adv-x="661" 
d="M633 510q-10 -74 -41 -108.5t-101 -40.5l-1 -6q153 -13 128 -191q-14 -100 -73 -136t-193 -36q-225 0 -337 8l97 690q98 8 283 8q142 0 197 -40.5t41 -147.5zM426 495q5 30 -3.5 41.5t-34.5 11.5h-84l-18 -125h67q38 0 52 13.5t21 58.5zM401 224q6 42 -4 55t-48 13h-81
l-21 -150h63q48 0 66 15.5t25 66.5z" />
    <glyph glyph-name="uni0413" unicode="&#x413;" horiz-adv-x="543" 
d="M255 694q242 0 334 -15l-24 -151h-215q-25 0 -36.5 -8.5t-14.5 -31.5l-69 -488h-217l76 541q10 69 55.5 111t110.5 42z" />
    <glyph glyph-name="uni0414" unicode="&#x414;" horiz-adv-x="790" 
d="M757 142l-17 -135l-22 -158h-157l6 151h-423l-35 -151h-159l21 151l18 142h72q74 151 143 403q40 145 193 145h342l-77 -548h95zM296 142h150l58 406h-31q-27 0 -42 -12t-23 -44q-56 -231 -112 -350z" />
    <glyph glyph-name="uni0415" unicode="&#x415;" horiz-adv-x="590" 
d="M346 528q-26 0 -37 -9t-14 -31l-9 -63h249l-18 -144h-251l-11 -80q-6 -39 37 -39h240l-4 -154q-89 -12 -338 -12q-84 0 -125 52t-30 136l50 357q10 71 56 112t121 41q248 0 348 -14l-24 -152h-240z" />
    <glyph glyph-name="uni0416" unicode="&#x416;" horiz-adv-x="961" 
d="M743 356q28 -5 45.5 -9.5t32.5 -18.5t22.5 -26t16.5 -46t14 -61.5t16 -90.5q11 -65 18 -104h-219q-9 58 -20 142q-14 102 -23 124t-41 22h-23q3 -34 -3 -67l-31 -221h-208l32 229q5 30 16 59h-19q-16 0 -26.5 -5t-23 -18t-28 -45t-35.5 -77t-54 -122q-1 -3 -2 -5l-2.5 -5
t-2.5 -5.5t-2 -5.5h-230q30 72 45 107.5t35.5 79.5t30 61.5t27 41.5t27.5 30.5t30 16.5t36.5 13t44.5 8l1 6q-81 17 -101 55t-42 189q-7 52 -12 82h216q6 -41 14 -106q13 -103 23 -129.5t41 -26.5h34q-5 48 1 92l24 170h207l-26 -178q-8 -52 -18 -84h8q12 0 21 1.5t17.5 7
t14.5 10.5t14.5 18.5t14 25t15.5 35t18 43t22.5 55t27.5 66.5h224q-14 -34 -33.5 -80t-28 -67t-22.5 -51t-21 -42t-20.5 -30t-23.5 -24t-27 -14.5t-35 -12.5t-43 -7z" />
    <glyph glyph-name="uni0417" unicode="&#x417;" horiz-adv-x="583" 
d="M327 698q144 0 197 -40.5t38 -147.5q-10 -74 -41 -108.5t-99 -40.5l-1 -6q139 -13 114 -191q-14 -100 -70 -136t-181 -36q-172 0 -295 39l23 139q135 -22 225 -22q41 0 59 16.5t24 59.5q6 40 -4.5 52.5t-46.5 12.5h-150l17 137h140q39 0 51.5 14t18.5 55q4 29 -7 38
t-43 9q-84 0 -208 -15l-9 149q110 22 248 22z" />
    <glyph glyph-name="uni0418" unicode="&#x418;" horiz-adv-x="735" 
d="M734 690l-97 -690h-206l45 309q9 57 29 117h-7q-33 -73 -56 -106l-217 -320h-209l97 690h208l-41 -293q-6 -45 -33 -131h8q30 69 60 113l213 311h206z" />
    <glyph glyph-name="uni0419" unicode="&#x419;" horiz-adv-x="735" 
d="M528 920l94 -15q2 -70 -51 -119t-143 -49q-91 0 -137.5 53.5t-24.5 122.5l98 5q-5 -31 12 -43t61 -12q85 0 91 57zM734 690l-97 -690h-206l45 309q9 57 29 117h-7q-33 -73 -56 -106l-217 -320h-209l97 690h208l-41 -293q-6 -45 -33 -131h8q30 69 60 113l213 311h206z" />
    <glyph glyph-name="uni041A" unicode="&#x41a;" horiz-adv-x="676" 
d="M448 355q35 -6 56 -12t39 -22t27 -33.5t19 -58t16.5 -82t17.5 -118.5q3 -19 4 -29h-222q-25 201 -30 224q-12 49 -38 59q-14 5 -44 5h-29q5 -36 0 -67l-31 -221h-217l97 690h217l-26 -178q-4 -35 -18 -84h20q61 0 89 44t88 218h225q-76 -189 -89 -216q-34 -67 -79 -90
q-31 -15 -91 -23z" />
    <glyph glyph-name="uni041B" unicode="&#x41b;" horiz-adv-x="711" 
d="M710 690l-97 -690h-217l77 548h-29q-31 0 -45 -11.5t-21 -42.5q-55 -251 -97 -338q-53 -111 -125 -145t-174 -15l-8 168q1 0 19 2t21.5 3t18 5.5t20.5 10.5t16 17.5t17 27.5q39 81 89 315q32 145 186 145h349z" />
    <glyph glyph-name="uni041C" unicode="&#x41c;" horiz-adv-x="954" 
d="M860 690q37 0 56 -21t15 -58l-62 -611h-195l54 528h-14l-116 -356q-18 -62 -87 -62h-110q-35 0 -55.5 18.5t-21.5 51.5l-19 348h-16l-91 -528h-195l111 619q7 37 25 54t54 17h184q34 0 54 -19t21 -52l12 -274q3 -46 -2 -103h10q8 38 25 101l84 284q17 63 86 63h193z" />
    <glyph glyph-name="uni041D" unicode="&#x41d;" horiz-adv-x="713" 
d="M495 690h217l-97 -690h-217l41 289h-165l-41 -289h-217l97 690h217l-35 -247h165z" />
    <glyph glyph-name="uni041E" unicode="&#x41e;" 
d="M389 704q71 0 121 -10.5t89 -36t57.5 -67.5t25.5 -104.5t-7 -148.5q-14 -107 -40 -175t-70 -107t-101 -54t-142 -15q-123 0 -188.5 32.5t-89 112.5t-3.5 222q15 106 40 173.5t68.5 107t99.5 55t140 15.5zM387 543q-54 0 -76.5 -38.5t-42.5 -167.5q-18 -119 -6.5 -154.5
t65.5 -35.5q56 0 78 38.5t42 167.5q17 118 5.5 154t-65.5 36z" />
    <glyph glyph-name="uni041F" unicode="&#x41f;" horiz-adv-x="714" 
d="M713 690l-97 -690h-218l77 548h-164l-77 -548h-218l97 690h600z" />
    <glyph glyph-name="uni0420" unicode="&#x420;" horiz-adv-x="642" 
d="M390 700q161 0 219 -52t40 -191q-18 -131 -76.5 -178t-196.5 -47q-48 0 -111 7l-34 -239h-216l97 690q100 10 278 10zM435 473q6 43 -4 58.5t-46 15.5h-77l-23 -162h72q41 0 55.5 15t22.5 73z" />
    <glyph glyph-name="uni0421" unicode="&#x421;" horiz-adv-x="603" 
d="M391 702q128 0 227 -28l-25 -157q-146 2 -213 2q-38 0 -57 -11.5t-32 -50t-24 -120.5q-15 -102 -6 -134t63 -32q136 0 221 8l8 -159q-103 -32 -239 -32q-175 0 -238 81.5t-35 283.5q15 106 38.5 172t65.5 106.5t99.5 55.5t146.5 15z" />
    <glyph glyph-name="uni0422" unicode="&#x422;" horiz-adv-x="618" 
d="M664 690l-23 -162h-191l-74 -528h-217l74 528h-190l23 162h598z" />
    <glyph glyph-name="uni0423" unicode="&#x423;" horiz-adv-x="622" 
d="M455 690h227l-219 -507q-45 -103 -88 -146.5t-119 -50.5q-74 -8 -219 15l32 147q40 -1 69 -1t49 2.5t33 10t20 20.5l6 12h-34q-85 0 -97 98l-68 400h217l31 -329q1 -17 15 -17h7z" />
    <glyph glyph-name="uni0424" unicode="&#x424;" horiz-adv-x="876" 
d="M596 630q167 -14 228.5 -80.5t41.5 -212.5q-20 -147 -97.5 -208t-254.5 -71l-10 -72h-218l10 74q-168 14 -229.5 80t-41.5 213t98 208t255 71l10 72h218zM645 353q9 68 -6.5 94t-73.5 33l-40 -269q67 7 89 35.5t31 106.5zM246 337q-9 -71 5.5 -96t75.5 -31l40 269
q-68 -7 -90 -35t-31 -107z" />
    <glyph glyph-name="uni0425" unicode="&#x425;" horiz-adv-x="672" 
d="M720 690l-204 -338l117 -352h-213l-75 284l-161 -284h-230l218 352l-104 338h209l71 -268l151 268h221z" />
    <glyph glyph-name="uni0426" unicode="&#x426;" horiz-adv-x="753" 
d="M625 142h95l-20 -142l-21 -151h-157l6 151h-512l97 690h218l-77 -548h154l77 548h217z" />
    <glyph glyph-name="uni0427" unicode="&#x427;" horiz-adv-x="690" 
d="M472 690h217l-97 -690h-217l36 258q-100 -42 -180 -42q-105 0 -149.5 45.5t-32.5 138.5l41 290h218l-36 -251q-4 -29 7.5 -38t40.5 -9q64 0 113 17z" />
    <glyph glyph-name="uni0428" unicode="&#x428;" horiz-adv-x="1015" 
d="M803 690h211l-97 -690h-901l97 690h211l-77 -548h134l77 548h211l-77 -548h134z" />
    <glyph glyph-name="uni0429" unicode="&#x429;" horiz-adv-x="1066" 
d="M939 142h94l-20 -142l-21 -151h-157l6 151h-825l97 690h212l-77 -548h134l77 548h211l-77 -548h134l77 548h212z" />
    <glyph glyph-name="uni042A" unicode="&#x42a;" horiz-adv-x="786" 
d="M507 453q157 0 212 -51.5t36 -186.5q-19 -132 -71 -177.5t-185 -45.5q-217 0 -323 8l74 528h-209l22 162h427l-33 -237h50zM540 229q9 55 1.5 74t-50.5 19h-53l-25 -180h44q26 0 35.5 1t21.5 9t17 26t9 51z" />
    <glyph glyph-name="uni042B" unicode="&#x42b;" horiz-adv-x="951" 
d="M346 453q156 0 211 -51.5t36 -186.5q-19 -132 -70.5 -177.5t-183.5 -45.5q-218 0 -323 8l97 690h217l-33 -237h49zM733 690h217l-97 -690h-217zM378 229q9 55 1.5 74t-49.5 19h-52l-25 -180h43q26 0 35 1t21 9t17 26t9 51z" />
    <glyph glyph-name="uni042C" unicode="&#x42c;" horiz-adv-x="631" 
d="M350 453q158 0 213.5 -51.5t36.5 -186.5q-19 -132 -71.5 -177.5t-186.5 -45.5q-220 0 -326 8l98 690h217l-34 -237h53zM385 229q9 55 1 74t-52 19h-55l-26 -180h46q27 0 37 1t22.5 9t17.5 26t9 51z" />
    <glyph glyph-name="uni042D" unicode="&#x42d;" horiz-adv-x="602" 
d="M301 702q173 0 238 -83.5t38 -281.5q-26 -194 -101.5 -271.5t-239.5 -77.5q-152 0 -245 34l25 157q71 -8 210 -8q54 0 78.5 23t38.5 87h-264l16 144h270q4 55 -10.5 74.5t-55.5 19.5q-77 0 -215 -2l-8 159q96 26 225 26z" />
    <glyph glyph-name="uni042E" unicode="&#x42e;" horiz-adv-x="1017" 
d="M715 704q166 0 235 -85t42 -282q-15 -106 -39.5 -173t-67.5 -107t-101 -55.5t-146 -15.5q-155 0 -216.5 64.5t-48.5 234.5h-99l-40 -285h-218l97 690h218l-37 -263h99q32 160 103 218.5t219 58.5zM765 353q16 118 5.5 154t-62.5 36q-57 0 -78 -37.5t-39 -168.5
q-16 -118 -4.5 -154t61.5 -36q56 0 78 38.5t39 167.5z" />
    <glyph glyph-name="uni042F" unicode="&#x42f;" horiz-adv-x="675" 
d="M375 700q199 0 299 -10l-97 -690h-218l35 252h-43q-30 0 -46 -11.5t-26 -39.5l-71 -201h-236l84 216q33 91 136 104l1 5q-73 10 -101 63t-17 130q15 108 84 145t216 37zM348 405h68l20 142h-70q-39 0 -54.5 -12.5t-21.5 -51.5q-7 -48 5 -63t53 -15z" />
    <glyph glyph-name="uni0430" unicode="&#x430;" horiz-adv-x="616" 
d="M354 514q52 0 133 -10.5t110 -21.5l-68 -482h-162l-2 97q-67 -100 -195 -109q-70 -5 -107.5 28.5t-43.5 96.5t6 151q9 58 24 100.5t38.5 69.5t47.5 43.5t62.5 24.5t71.5 10t85 2zM260 149q42 3 93 77l21 151h-46q-37 0 -58 -20.5t-31 -86.5q-14 -95 -6 -111q5 -12 27 -10
z" />
    <glyph glyph-name="uni0431" unicode="&#x431;" horiz-adv-x="612" 
d="M375 482q130 0 175 -56.5t27 -186.5q-18 -132 -84 -191.5t-202 -59.5q-60 0 -105 9.5t-74.5 24t-47.5 40.5t-26.5 50.5t-9.5 64t2 70.5t10 79q11 79 24.5 132.5t38 103.5t63.5 81.5t96 48.5q63 19 175 27t147 13l18 -164q-64 -14 -145.5 -16t-118.5 -12q-63 -16 -91 -46
q-26 -27 -38 -65q65 53 166 53zM359 257q7 49 7 68.5t-7 28t-28 8.5q-42 0 -60 -24t-28 -97q-11 -72 -6 -91.5t36 -19.5q39 0 57 25.5t29 101.5z" />
    <glyph glyph-name="uni0432" unicode="&#x432;" horiz-adv-x="599" 
d="M569 365q-5 -42 -40 -71.5t-106 -33.5l-1 -5q159 -9 137 -139q-12 -76 -73 -103t-189 -27q-176 0 -236 68t-39 219q19 136 93.5 191.5t232.5 49.5q123 -5 176 -42.5t45 -106.5zM374 341q5 21 -6 29t-45 8q-43 0 -59.5 -18.5t-22.5 -54.5l64 4q33 2 49 8.5t20 23.5z
M356 165q4 25 -8.5 34t-48.5 7l-73 -4q-5 -48 5.5 -64t50.5 -16t55 8t19 35z" />
    <glyph glyph-name="uni0433" unicode="&#x433;" horiz-adv-x="552" 
d="M310 514q109 0 169 -34.5t57 -113.5q-4 -126 -166 -162l-111 -25q-36 -8 -47 -13.5t-11 -13.5q0 -12 18.5 -15t77.5 1q121 8 184 17l17 -125q-43 -14 -67 -20.5t-71.5 -13.5t-101.5 -7q-138 0 -202 39.5t-55 127.5q6 63 43.5 97t104.5 50l118 28q6 1 15.5 3.5t14.5 3.5
t12 3t11 3.5t7.5 4t4.5 5t1 6.5q-1 9 -16 10.5t-56 -0.5q-48 -1 -198 -16l-4 117q107 43 251 43z" />
    <glyph glyph-name="uni0434" unicode="&#x434;" horiz-adv-x="606" 
d="M146 729q249 -20 353 -135t78 -311q-22 -165 -95 -231t-218 -66q-129 0 -193.5 58.5t-48.5 177.5q16 122 75 176.5t164 54.5q62 0 104 -22q-10 65 -66 104.5t-181 62.5zM280 130q35 0 48.5 31.5t30.5 136.5q2 10 2 15q-21 8 -42 8q-37 0 -52.5 -22.5t-24.5 -78.5
q-10 -52 -3 -71t41 -19z" />
    <glyph glyph-name="uni0435" unicode="&#x435;" horiz-adv-x="590" 
d="M326 514q150 0 206 -46t42 -140q-9 -65 -57.5 -90.5t-155.5 -33.5l-125 -9q1 -28 16.5 -37t54.5 -9q109 0 205 11l14 -128q-95 -44 -237 -44q-84 0 -140 17t-86 52t-39.5 82.5t-2.5 114.5q8 79 31 131t63.5 79.5t90 38.5t120.5 11zM374 349q2 17 -7.5 24t-38.5 6
q-37 -1 -53 -17t-26 -65l57 6q36 3 50.5 11.5t17.5 34.5z" />
    <glyph glyph-name="uni0436" unicode="&#x436;" horiz-adv-x="853" 
d="M648 257q62 -13 76 -22q29 -18 50 -91q11 -42 32 -144h-200q-33 156 -40 173q-16 20 -35 21h-30q3 -23 0 -44l-18 -150h-184l21 151q4 24 10 43h-25q-15 0 -24 -4.5t-24 -26.5t-31.5 -56.5t-49.5 -106.5h-213q79 167 95 191q26 42 63 54q17 5 81 14l1 6q-68 9 -85 21
q-24 17 -38 84q-3 16 -24 130h199q23 -138 30 -156q9 -19 32 -20h10h24q-5 32 1 69l15 107h183l-17 -110q-4 -29 -14 -66h6q41 0 57 22t74 154h210q-76 -157 -95 -184q-27 -40 -67 -48q-17 -3 -55 -5z" />
    <glyph glyph-name="uni0437" unicode="&#x437;" horiz-adv-x="532" 
d="M264 514q142 0 195.5 -28.5t41.5 -117.5q-7 -50 -34 -76.5t-90 -31.5l-1 -5q127 -9 109 -138q-5 -36 -18.5 -60t-32 -38t-50 -21.5t-63 -9.5t-81.5 -2q-151 0 -255 25l20 133q115 -12 209 -12q37 0 50.5 5.5t14.5 26.5q2 18 -7.5 24t-31.5 6l-171 1l14 115l162 1
q43 0 49 28q2 18 -6.5 22t-42.5 4q-67 0 -187 -10l-7 135q91 24 213 24z" />
    <glyph glyph-name="uni0438" unicode="&#x438;" horiz-adv-x="618" 
d="M392 500h208l-69 -500h-164l-4 85q-102 -99 -204 -99q-78 0 -113.5 37.5t-25.5 106.5l51 370h211l-45 -311q-4 -27 23 -27q39 0 89 37z" />
    <glyph glyph-name="uni0439" unicode="&#x439;" horiz-adv-x="618" 
d="M347 549q-89 0 -133 53t-22 120h127q-10 -46 -0.5 -61.5t41.5 -15.5q31 0 46 16.5t16 60.5h127q3 -67 -55 -120t-147 -53zM392 500h208l-69 -500h-164l-4 85q-102 -99 -204 -99q-78 0 -113.5 37.5t-25.5 106.5l51 370h211l-45 -311q-4 -27 23 -27q39 0 89 37z" />
    <glyph glyph-name="uni043A" unicode="&#x43a;" horiz-adv-x="592" 
d="M395 254q65 -11 77 -17q25 -13 39 -68q7 -29 30 -169h-213q-19 140 -27 165.5t-36 25.5h-30q5 -24 2 -43l-22 -148h-209l70 500h209l-16 -113q-6 -38 -14 -62h10q41 0 57 23.5t62 151.5h219q-8 -19 -22 -52q-22 -53 -31 -73.5t-24 -47t-21 -32.5t-25 -16t-32 -11.5
t-45 -6.5q-5 -1 -7 -1z" />
    <glyph glyph-name="uni043B" unicode="&#x43b;" horiz-adv-x="625" 
d="M607 500l-70 -500h-209l50 364h-17q-21 0 -30.5 -9t-16.5 -34q-26 -90 -54 -197q-16 -62 -60 -96.5t-97.5 -37.5t-111.5 6l-10 157q17 1 26 2t23 4.5t23 12.5t14 24q26 76 50 182q14 63 52.5 92.5t108.5 29.5h329z" />
    <glyph glyph-name="uni043C" unicode="&#x43c;" horiz-adv-x="822" 
d="M723 500q74 0 67 -75l-49 -425h-190l39 348h-10l-72 -215q-18 -60 -82 -60h-80q-33 0 -52.5 18t-20.5 50l-18 207h-9l-57 -348h-190l70 421q5 42 24 60.5t58 18.5h165q69 0 72 -69l6 -147q0 -19 -4 -85h10q13 70 17 84l49 156q16 61 81 61h176z" />
    <glyph glyph-name="uni043D" unicode="&#x43d;" horiz-adv-x="626" 
d="M402 500h206l-70 -500h-206l27 195h-119l-27 -195h-207l70 500h207l-24 -170h119z" />
    <glyph glyph-name="uni043E" unicode="&#x43e;" horiz-adv-x="615" 
d="M327 514q153 0 214.5 -63t40.5 -210q-20 -141 -87.5 -197t-216.5 -56q-152 0 -215 62.5t-42 206.5q20 143 87.5 200t218.5 57zM323 372q-40 0 -55.5 -24.5t-27.5 -106.5q-10 -69 -1.5 -90t47.5 -21q38 0 52.5 23.5t26.5 103.5q11 71 3 93t-45 22z" />
    <glyph glyph-name="uni043F" unicode="&#x43f;" horiz-adv-x="625" 
d="M463 514q65 0 102.5 -37.5t27.5 -106.5l-52 -370h-211l43 302q3 21 -2.5 29t-24.5 6q-41 -4 -88 -40l-42 -297h-210l69 500h164l5 -88q48 48 106 75t113 27z" />
    <glyph glyph-name="uni0440" unicode="&#x440;" horiz-adv-x="618" 
d="M443 512q86 0 121.5 -70t18.5 -206q-10 -75 -30.5 -126t-52 -77t-67 -36.5t-83.5 -10.5q-67 0 -138 13q0 -47 -7 -93l-14 -86h-210l94 680h167v-88q96 100 201 100zM368 230q7 50 7 75t-6.5 35.5t-22.5 10.5q-42 0 -89 -47l-23 -191h46q48 0 62.5 21t25.5 96z" />
    <glyph glyph-name="uni0441" unicode="&#x441;" horiz-adv-x="536" 
d="M303 514q138 0 229 -39l-28 -128h-176q-44 0 -62 -20t-26 -74q-9 -61 3.5 -80t58.5 -19q105 0 168 7l15 -133q-84 -40 -220 -40q-137 0 -200.5 64.5t-43.5 206.5q19 137 81.5 196t200.5 59z" />
    <glyph glyph-name="uni0442" unicode="&#x442;" horiz-adv-x="890" 
d="M724 514q74 0 109 -38t25 -106l-52 -370h-208l43 311q4 26 -19 26q-29 0 -72 -30l-43 -307h-201l43 311q5 26 -19 26q-30 0 -73 -28l-42 -309h-209l70 500h163l6 -71q88 85 182 85q104 0 127 -72q81 72 170 72z" />
    <glyph glyph-name="uni0443" unicode="&#x443;" horiz-adv-x="621" 
d="M403 500h225q-31 -163 -65 -262.5t-112 -226.5q-18 -29 -33.5 -51t-41 -51.5t-51 -49.5t-62.5 -39.5t-76.5 -28.5t-91 -9t-108.5 12l15 133q138 -21 223 73h-72q-24 0 -41.5 15t-20.5 38l-61 447h230l7 -358q0 -16 16 -16h22q37 75 58 157.5t40 216.5z" />
    <glyph glyph-name="uni0444" unicode="&#x444;" horiz-adv-x="779" 
d="M513 509q139 -15 195 -78.5t38 -189.5t-88 -183.5t-219 -67.5l-23 -170h-185l23 173q-141 14 -196 76t-37 188q18 128 88 186.5t220 68.5l25 188h185zM219 251q-8 -62 5 -89.5t59 -36.5l36 252q-50 -8 -71 -35t-29 -91zM548 249q8 63 -5 90.5t-59 36.5l-36 -251
q50 8 71 35t29 89z" />
    <glyph glyph-name="uni0445" unicode="&#x445;" horiz-adv-x="604" 
d="M627 500l-169 -245l106 -255h-197l-71 186l-125 -186h-216l181 255l-97 245h194l65 -175l119 175h210z" />
    <glyph glyph-name="uni0446" unicode="&#x446;" horiz-adv-x="660" 
d="M568 118h57l-17 -118l-22 -149h-172l49 149h-13q-35 0 -60.5 24t-29.5 61q-102 -99 -204 -99q-77 0 -113 37.5t-26 106.5l52 370h211l-45 -311q-4 -27 23 -27q39 0 88 37l43 301h209l-51 -359q-1 -10 5 -16.5t16 -6.5z" />
    <glyph glyph-name="uni0447" unicode="&#x447;" horiz-adv-x="605" 
d="M378 500h209l-70 -500h-209l23 163q-62 -22 -135 -22q-97 0 -138.5 34t-29.5 116l33 209h208l-24 -177q-6 -32 30 -32q33 0 76 14z" />
    <glyph glyph-name="uni0448" unicode="&#x448;" horiz-adv-x="887" 
d="M660 500h209l-70 -500h-163l-6 72q-87 -86 -184 -86q-101 0 -124 73q-80 -73 -171 -73q-74 0 -109 38t-25 106l52 370h209l-44 -311q-4 -26 19 -26q30 0 74 32l43 305h197l-43 -311q-5 -26 19 -26q31 0 75 30z" />
    <glyph glyph-name="uni0449" unicode="&#x449;" horiz-adv-x="929" 
d="M838 118h56l-17 -118l-21 -149h-172l48 149h-14q-32 0 -56 20.5t-30 54.5q-89 -89 -185 -89q-102 0 -125 73q-80 -73 -171 -73q-74 0 -109 38t-25 106l52 370h209l-43 -311q-5 -26 18 -26q30 0 74 32l43 305h197l-43 -311q-4 -26 19 -26q31 0 73 29l43 308h209l-50 -359
q-1 -10 4.5 -16.5t15.5 -6.5z" />
    <glyph glyph-name="uni044A" unicode="&#x44a;" horiz-adv-x="662" 
d="M456 343q111 -3 148 -38.5t23 -143.5q-13 -100 -70.5 -136t-180.5 -36q-35 0 -65 3t-62 10.5t-52.5 21.5t-38 35.5t-18 52t8.5 71.5l47 167h-178l20 150h395l-42 -163q28 6 65 6zM420 176q7 34 2.5 42.5t-27.5 8.5q-20 0 -33 -3l-17 -64q-10 -32 30 -32q23 0 31 9.5
t14 38.5z" />
    <glyph glyph-name="uni044B" unicode="&#x44b;" horiz-adv-x="829" 
d="M336 343q111 -3 148 -38.5t23 -143.5q-13 -100 -70.5 -136t-180.5 -36q-59 0 -99 6t-75 23.5t-49.5 53t-8.5 90.5l47 338h202l-24 -169q43 12 87 12zM600 500h211l-70 -500h-211zM301 176q5 34 1 42.5t-27 8.5q-24 0 -41 -4l-9 -63q-3 -17 6 -24.5t27 -7.5q21 0 30 10.5
t13 37.5z" />
    <glyph glyph-name="uni044C" unicode="&#x44c;" horiz-adv-x="547" 
d="M337 343q112 0 150.5 -36.5t24.5 -145.5q-13 -100 -70.5 -136.5t-182.5 -36.5q-59 0 -99.5 6t-76 23.5t-50.5 53.5t-9 91l47 338h202l-24 -169q43 12 88 12zM306 176q5 34 0.5 42.5t-28.5 8.5q-27 0 -45 -5l-9 -62q-2 -17 7 -24.5t29 -7.5q23 0 32 10t14 38z" />
    <glyph glyph-name="uni044D" unicode="&#x44d;" horiz-adv-x="561" 
d="M281 514q146 0 204 -64t42 -210q-16 -148 -86 -201t-223 -53q-141 0 -230 35l21 127q85 -4 184 -4q63 0 84.5 8t30.5 41h-248l14 120h248q0 29 -12.5 37t-51.5 8q-109 -1 -202 -1l-10 127q97 30 235 30z" />
    <glyph glyph-name="uni044E" unicode="&#x44e;" horiz-adv-x="869" 
d="M593 514q50 0 86.5 -5t68 -17t49.5 -32t31.5 -50.5t13 -72t-6.5 -97.5q-21 -150 -83 -200.5t-208 -50.5q-129 0 -182 42t-49 156h-71l-26 -187h-210l70 500h210l-25 -177h70q25 113 83 152t179 39zM617 249q9 72 2 91t-39 19q-35 0 -48 -20t-23 -88q-9 -72 -1.5 -89.5
t41.5 -17.5t46.5 19.5t21.5 85.5z" />
    <glyph glyph-name="uni044F" unicode="&#x44f;" horiz-adv-x="593" 
d="M352 514q160 0 225 -8l-71 -506h-204l22 157h-41q-44 0 -53 -33l-38 -124h-216l49 155q20 65 109 65l1 6q-111 31 -93 141q16 95 78 121t232 26zM286 280h55l13 90h-62q-26 0 -35.5 -7.5t-13.5 -31.5q-5 -28 3.5 -39.5t39.5 -11.5z" />
    <glyph glyph-name="uni0450" unicode="&#x450;" horiz-adv-x="590" 
d="M441 618l-67 -86l-248 106l80 130zM326 514q150 0 206 -46t42 -140q-9 -65 -57.5 -90.5t-155.5 -33.5l-125 -9q1 -28 16.5 -37t54.5 -9q109 0 205 11l14 -128q-95 -44 -237 -44q-84 0 -140 17t-86 52t-39.5 82.5t-2.5 114.5q8 79 31 131t63.5 79.5t90 38.5t120.5 11z
M374 349q2 17 -7.5 24t-38.5 6q-37 -1 -53 -17t-26 -65l57 6q36 3 50.5 11.5t17.5 34.5z" />
    <glyph glyph-name="uni0451" unicode="&#x451;" horiz-adv-x="590" 
d="M215 575q-35 0 -30 33l11 73q3 19 11.5 27t27.5 8h77q34 0 30 -33l-11 -76q-4 -32 -35 -32h-81zM404 575q-34 0 -30 33l11 74q5 34 36 34h80q35 0 30 -33l-11 -75q-3 -18 -10.5 -25.5t-24.5 -7.5h-81zM326 514q150 0 206 -46t42 -140q-9 -65 -57.5 -90.5t-155.5 -33.5
l-125 -9q1 -28 16.5 -37t54.5 -9q109 0 205 11l14 -128q-95 -44 -237 -44q-84 0 -140 17t-86 52t-39.5 82.5t-2.5 114.5q8 79 31 131t63.5 79.5t90 38.5t120.5 11zM374 349q2 17 -7.5 24t-38.5 6q-37 -1 -53 -17t-26 -65l57 6q36 3 50.5 11.5t17.5 34.5z" />
    <glyph glyph-name="uni0452" unicode="&#x452;" horiz-adv-x="650" 
d="M463 424q77 0 113 -37.5t26 -106.5l-33 -226q-11 -81 -58.5 -148.5t-121.5 -97.5l-114 97q74 71 86 157l23 159q2 16 -5 21t-25 5q-39 0 -88 -34l-28 -213h-211l64 457h-60l12 100h62l20 143h211l-21 -143h169l-13 -100h-170l-1 -7q-8 -60 -23 -107q95 81 186 81z" />
    <glyph glyph-name="uni0453" unicode="&#x453;" horiz-adv-x="552" 
d="M452 774l66 -146l-266 -96l-47 86zM310 514q109 0 169 -34.5t57 -113.5q-4 -126 -166 -162l-111 -25q-36 -8 -47 -13.5t-11 -13.5q0 -12 18.5 -15t77.5 1q121 8 184 17l17 -125q-43 -14 -67 -20.5t-71.5 -13.5t-101.5 -7q-138 0 -202 39.5t-55 127.5q6 63 43.5 97
t104.5 50l118 28q6 1 15.5 3.5t14.5 3.5t12 3t11 3.5t7.5 4t4.5 5t1 6.5q-1 9 -16 10.5t-56 -0.5q-48 -1 -198 -16l-4 117q107 43 251 43z" />
    <glyph glyph-name="uni0454" unicode="&#x454;" horiz-adv-x="561" 
d="M325 356q-40 0 -57.5 -8t-26.5 -35h249l-14 -120h-249q2 -28 18 -38.5t51 -10.5q121 0 201 4l10 -131q-81 -31 -207 -31q-170 0 -231 67.5t-48 202.5q8 82 33.5 135.5t68.5 79t87 34.5t107 9q149 0 240 -32l-22 -126h-210z" />
    <glyph glyph-name="uni0455" unicode="&#x455;" horiz-adv-x="548" 
d="M278 514q148 0 252 -23l-17 -121h-191q-56 0 -71 -1.5t-16 -8.5q-2 -8 8.5 -13.5t40.5 -13.5l109 -29q129 -35 114 -158q-11 -93 -71.5 -125t-182.5 -32q-133 0 -256 22l17 121h168q76 0 99 3t25 13q1 7 -9 12t-45 15l-105 30q-131 37 -111 171q10 70 63.5 104t178.5 34z
" />
    <glyph glyph-name="uni0456" unicode="&#x456;" horiz-adv-x="310" 
d="M253 729q67 0 60 -66l-7 -51q-7 -58 -69 -58h-82q-66 0 -59 66l7 51q6 58 69 58h81zM288 500l-69 -500h-209l69 500h209z" />
    <glyph glyph-name="uni0457" unicode="&#x457;" horiz-adv-x="306" 
d="M154 716q34 0 30 -33l-11 -76q-4 -32 -35 -32h-81q-35 0 -30 33l11 73q3 19 11.5 27t27.5 8h77zM343 716q35 0 30 -33l-11 -75q-3 -18 -10.5 -25.5t-24.5 -7.5h-81q-34 0 -30 33l11 74q5 34 36 34h80zM288 500l-70 -500h-211l70 500h211z" />
    <glyph glyph-name="uni0458" unicode="&#x458;" horiz-adv-x="311" 
d="M252 729q68 0 59 -66l-7 -51q-7 -58 -71 -58h-79q-67 0 -60 66l7 51q7 58 72 58h79zM291 500l-65 -446q-10 -80 -58.5 -148t-123.5 -98l-115 97q77 72 89 157l63 438h210z" />
    <glyph glyph-name="uni0459" unicode="&#x459;" horiz-adv-x="842" 
d="M639 343q109 -3 145 -38.5t22 -143.5q-13 -96 -70.5 -131.5t-179.5 -35.5q-58 0 -97 6t-73 23t-47.5 51.5t-7.5 87.5l30 214h-13q-21 0 -30.5 -7t-14.5 -27q-47 -184 -64 -223q-20 -46 -48.5 -75t-60 -39.5t-69 -12.5t-74.5 5l-9 143q63 5 86 46q24 41 60 203
q13 56 48.5 83.5t99.5 27.5h303l-24 -169q43 12 88 12zM599 176q5 34 1 42.5t-24 8.5q-24 0 -40 -4l-9 -63q-4 -32 32 -32q20 0 28 10t12 38z" />
    <glyph glyph-name="uni045A" unicode="&#x45a;" horiz-adv-x="839" 
d="M635 343q110 -3 146.5 -38.5t22.5 -143.5q-13 -96 -70.5 -131.5t-179.5 -35.5q-58 0 -97 6t-73 23t-48 51.5t-8 87.5l5 39h-109l-28 -201h-190l70 500h190l-24 -175h109l24 175h197l-24 -169q43 12 87 12zM597 176q5 34 1 42.5t-25 8.5q-24 0 -40 -4l-9 -63
q-4 -32 32 -32q21 0 29 10t12 38z" />
    <glyph glyph-name="uni045B" unicode="&#x45b;" horiz-adv-x="632" 
d="M462 424q78 0 114 -37.5t26 -106.5l-39 -280h-211l32 215q2 18 -4.5 25t-25.5 7q-39 0 -88 -34l-28 -213h-211l64 457h-60l12 100h62l20 143h211l-21 -143h169l-13 -100h-170l-1 -7q-8 -60 -25 -108q96 82 187 82z" />
    <glyph glyph-name="uni045C" unicode="&#x45c;" horiz-adv-x="592" 
d="M568 628l-266 -96l-47 86l247 156zM395 254q65 -11 77 -17q25 -13 39 -68q7 -29 30 -169h-213q-19 140 -27 165.5t-36 25.5h-30q5 -24 2 -43l-22 -148h-209l70 500h209l-16 -113q-6 -38 -14 -62h10q41 0 57 23.5t62 151.5h219q-8 -19 -22 -52q-22 -53 -31 -73.5t-24 -47
t-21 -32.5t-25 -16t-32 -11.5t-45 -6.5q-5 -1 -7 -1z" />
    <glyph glyph-name="uni045D" unicode="&#x45d;" horiz-adv-x="618" 
d="M457 618l-67 -86l-248 106l80 130zM392 500h208l-69 -500h-164l-4 85q-102 -99 -204 -99q-78 0 -113.5 37.5t-25.5 106.5l51 370h211l-45 -311q-4 -27 23 -27q39 0 89 37z" />
    <glyph glyph-name="uni045E" unicode="&#x45e;" horiz-adv-x="621" 
d="M340 549q-89 0 -133 53t-22 120h127q-10 -46 -0.5 -61.5t41.5 -15.5q31 0 46 16.5t16 60.5h127q3 -67 -55 -120t-147 -53zM403 500h225q-31 -163 -65 -262.5t-112 -226.5q-18 -29 -33.5 -51t-41 -51.5t-51 -49.5t-62.5 -39.5t-76.5 -28.5t-91 -9t-108.5 12l15 133
q138 -21 223 73h-72q-24 0 -41.5 15t-20.5 38l-61 447h230l7 -358q0 -16 16 -16h22q37 75 58 157.5t40 216.5z" />
    <glyph glyph-name="uni045F" unicode="&#x45f;" horiz-adv-x="618" 
d="M392 500h208l-69 -500h-164l-4 85q-102 -99 -204 -99q-78 0 -113.5 37.5t-25.5 106.5l51 370h211l-45 -311q-4 -27 23 -27q39 0 89 37zM169 -251l44 212h131l-17 -212h-158z" />
    <glyph glyph-name="uni0462" unicode="&#x462;" horiz-adv-x="678" 
d="M397 453q158 0 213.5 -51.5t36.5 -186.5q-19 -132 -71.5 -177.5t-186.5 -45.5q-220 0 -326 8l73 522h-117l16 120h118l13 92h217l-13 -92h206l-16 -120h-207l-9 -69h53zM432 229q9 55 1 74t-52 19h-56l-25 -180h46q27 0 37 1t22.5 9t17.5 26t9 51z" />
    <glyph glyph-name="uni0463" unicode="&#x463;" horiz-adv-x="566" 
d="M356 343q112 0 150.5 -36.5t24.5 -145.5q-13 -100 -70.5 -136.5t-182.5 -36.5q-59 0 -100 6.5t-77 23.5t-51 53.5t-7 90.5l34 238h-79l16 100h77l27 190h202l-28 -190h163l-16 -100h-161l-10 -69q43 12 88 12zM325 176q5 34 0.5 42.5t-28.5 8.5q-27 0 -45 -5l-9 -62
q-2 -17 7 -24.5t29 -7.5q23 0 32 10t14 38z" />
    <glyph glyph-name="uni046A" unicode="&#x46a;" horiz-adv-x="924" 
d="M-63 0q97 207 118 243q44 76 94 100q40 19 120 24l1 6l-197 317h874l-285 -317l-1 -6q41 -4 67 -11t49 -25.5t36.5 -39.5t27.5 -66.5t24.5 -93.5t25.5 -131h-227q-6 40 -15 103q-19 135 -32 160t-64 25q-5 -61 -5 -63l-31 -225h-207l31 225q3 23 14 63q-28 0 -41.5 -4
t-29 -22.5t-32 -55.5t-44.5 -102q-27 -64 -44 -104h-227zM465 385l151 167h-253z" />
    <glyph glyph-name="uni046B" unicode="&#x46b;" horiz-adv-x="799" 
d="M-44 0q79 158 102 190q31 44 81 59q22 6 76 16l1 4l-161 231h761l-226 -231l-1 -4q30 -6 44.5 -8.5t33 -10.5t26 -12.5t19 -20t15.5 -27.5t13 -41t14 -53.5t15 -72.5l1.5 -6t1 -6t1.5 -7h-214q-5 26 -9 52t-6.5 42.5l-5 33t-4.5 25.5t-3.5 18t-5 13t-6 8t-8 5t-11 1.5
t-14.5 0.5q-1 -11 -2 -25.5t-1 -18.5l-22 -155h-193l22 155q1 10 10 44q-10 0 -15.5 -0.5t-12 -3t-10 -5.5t-9.5 -12t-10 -17t-12 -25.5t-15 -34t-19.5 -45t-25.5 -56.5h-215zM402 265l113 113h-194z" />
    <glyph glyph-name="uni0472" unicode="&#x472;" 
d="M389 704q71 0 121 -10.5t89 -36t57.5 -67.5t25.5 -104.5t-7 -148.5q-14 -107 -40 -175t-70 -107t-101 -54t-142 -15q-123 0 -188.5 32.5t-89 112.5t-3.5 222q15 106 40 173.5t68.5 107t99.5 55t140 15.5zM387 543q-47 0 -68.5 -26t-37.5 -106h174q8 79 -6.5 105.5
t-61.5 26.5zM327 147q49 0 71 27.5t38 112.5h-175q-10 -84 4 -112t62 -28z" />
    <glyph glyph-name="uni0473" unicode="&#x473;" horiz-adv-x="611" 
d="M343 514q153 0 207.5 -59.5t34.5 -205.5q-20 -144 -91.5 -202.5t-224.5 -58.5q-154 0 -208.5 58.5t-34.5 202.5q20 146 91.5 205.5t225.5 59.5zM323 372q-36 0 -52 -14.5t-26 -57.5h135q2 43 -10 57.5t-47 14.5zM289 130q36 0 52.5 15.5t26.5 62.5h-137q-4 -47 8.5 -62.5
t49.5 -15.5z" />
    <glyph glyph-name="uni0474" unicode="&#x474;" horiz-adv-x="717" 
d="M199 0q-28 0 -46 16t-20 42l-79 632h223l25 -449q2 -25 2 -79h24q4 12 12 39t12 40l85 290q10 35 24 62t37 54t59.5 42t84.5 15q74 0 123 -10l-23 -163q-18 3 -40 3q-33 0 -53.5 -14.5t-33.5 -50.5l-144 -411q-9 -26 -31.5 -42t-50.5 -16h-190z" />
    <glyph glyph-name="uni0475" unicode="&#x475;" horiz-adv-x="582" 
d="M158 0q-51 0 -58 50l-68 447h194l22 -298q2 -18 2 -58h19q10 32 18 57l51 165q44 144 171 144q63 0 107 -9l-20 -143q-13 3 -33 3q-52 0 -70 -51l-99 -257q-8 -22 -28 -36t-44 -14h-164z" />
    <glyph glyph-name="uni048A" unicode="&#x48a;" horiz-adv-x="774" 
d="M433 722q-91 0 -137.5 53.5t-24.5 122.5l98 5q-5 -31 12 -43t61 -12q85 0 91 57l94 -15q2 -70 -51 -119t-143 -49zM657 142h90l-20 -142l-52 -151h-157l36 151h-123l45 309q9 57 29 117h-7q-33 -73 -56 -106l-217 -320h-209l97 690h208l-41 -293q-6 -45 -33 -131h8
q30 69 60 113l213 311h206z" />
    <glyph glyph-name="uni048B" unicode="&#x48b;" horiz-adv-x="639" 
d="M347 549q-89 0 -133 53t-22 120h127q-10 -46 -0.5 -61.5t41.5 -15.5q31 0 46 16.5t16 60.5h127q3 -67 -55 -120t-147 -53zM551 142h71l-20 -142l-50 -141h-147l34 141h-72l-4 85q-102 -99 -204 -99q-78 0 -113.5 37.5t-25.5 106.5l51 370h211l-45 -311q-4 -27 23 -27
q39 0 89 37l43 301h208z" />
    <glyph glyph-name="uni048C" unicode="&#x48c;" horiz-adv-x="677" 
d="M396 453q158 0 213.5 -51.5t36.5 -186.5q-19 -132 -71.5 -177.5t-186.5 -45.5q-220 0 -326 8l72 507h-117l16 120h118l9 63h217l-9 -63h206l-16 -120h-207l-8 -54h53zM431 229q9 55 1 74t-52 19h-55l-26 -180h46q27 0 37 1t22.5 9t17.5 26t9 51z" />
    <glyph glyph-name="uni048D" unicode="&#x48d;" horiz-adv-x="566" 
d="M356 343q112 0 150.5 -36.5t24.5 -145.5q-13 -100 -70.5 -136.5t-182.5 -36.5q-59 0 -100 6.5t-77 23.5t-51 53.5t-7 90.5l34 238h-79l16 100h77l27 190h202l-28 -190h163l-16 -100h-161l-10 -69q43 12 88 12zM325 176q5 34 0.5 42.5t-28.5 8.5q-27 0 -45 -5l-9 -62
q-2 -17 7 -24.5t29 -7.5q23 0 32 10t14 38z" />
    <glyph glyph-name="uni048E" unicode="&#x48e;" horiz-adv-x="641" 
d="M645 457q-18 -131 -77 -179l48 -48l-42 -43l-62 62q-52 -17 -140 -17q-48 0 -111 7l-34 -239h-216l97 690q100 10 278 10q161 0 219 -52t40 -191zM377 467l44 -43q5 16 10 49q6 43 -4 58.5t-46 15.5h-77l-23 -162h72q14 0 21 1l-39 38z" />
    <glyph glyph-name="uni048F" unicode="&#x48f;" horiz-adv-x="619" 
d="M580 236q-20 -162 -100 -217l61 -87l-61 -43l-72 102q-24 -5 -61 -5q-67 0 -138 13q0 -47 -7 -93l-14 -86h-210l94 680h167v-88q96 100 201 100q86 0 122 -70.5t18 -205.5zM324 240l35 -49q3 17 6 39q7 50 7 75t-6.5 35.5t-22.5 10.5q-42 0 -89 -47l-23 -191h46
q29 0 41 5l-55 79z" />
    <glyph glyph-name="uni0490" unicode="&#x490;" horiz-adv-x="559" 
d="M485 843h145l-25 -164l-24 -151h-231q-18 0 -33 -12t-18 -28l-69 -488h-217l76 541q10 69 55.5 111t109.5 42q133 0 198 -2z" />
    <glyph glyph-name="uni0491" unicode="&#x491;" horiz-adv-x="489" 
d="M385 641h145l-23 -151l-24 -145h-184q-38 0 -43 -34l-44 -311h-209l53 380q10 69 45 98.5t106 29.5q99 0 147 -2z" />
    <glyph glyph-name="uni0492" unicode="&#x492;" horiz-adv-x="589" 
d="M385 528q-25 0 -36.5 -8.5t-14.5 -31.5l-16 -115h201l-14 -120h-204l-36 -253h-217l36 253h-108l14 120h110l24 168q10 69 55.5 111t110.5 42q242 0 334 -15l-24 -151h-215z" />
    <glyph glyph-name="uni0493" unicode="&#x493;" horiz-adv-x="502" 
d="M328 345q-34 0 -38 -30l-9 -64h108l-12 -100h-110l-22 -151h-208l21 151h-70l12 100h72l18 125q10 69 50 100.5t115 31.5q203 0 276 -17l-30 -146h-173z" />
    <glyph glyph-name="uni0494" unicode="&#x494;" horiz-adv-x="628" 
d="M435 444q103 0 141 -66t17 -212q-13 -90 -41 -153t-71 -98.5t-90 -53t-111 -24.5l-31 133q68 29 91 68t35 124q9 67 0 91t-44 24q-31 0 -68 -10l-37 -267h-217l75 537q10 70 61 113.5t122 43.5q244 0 338 -14l-31 -152h-232q-19 0 -32 -10t-15 -26l-12 -83q78 35 152 35z
" />
    <glyph glyph-name="uni0495" unicode="&#x495;" horiz-adv-x="582" 
d="M386 289q182 0 152 -209q-10 -73 -40 -128t-74 -88t-93 -50.5t-106 -23.5l-1 140q50 20 71 50.5t28 81.5q6 40 -2.5 57.5t-39.5 17.5q-25 0 -52 -11l-18 -126h-208l53 376q10 69 49.5 100.5t114.5 31.5q214 0 292 -17l-29 -136h-188q-34 0 -38 -30l-9 -67q64 31 138 31z
" />
    <glyph glyph-name="uni0496" unicode="&#x496;" horiz-adv-x="1038" 
d="M994 7v-3l-1 -4l-22 -151h-157l7 151h-132q-9 58 -20 142q-14 102 -23 124t-41 22h-23q3 -34 -3 -67l-31 -221h-208l32 229q5 30 16 59h-19q-16 0 -26.5 -5t-23 -18t-28 -45t-35.5 -77t-54 -122q-1 -3 -2 -5l-2.5 -5t-2.5 -5.5t-2 -5.5h-230q30 72 45 107.5t35.5 79.5
t30 61.5t27 41.5t27.5 30.5t30 16.5t36.5 13t44.5 8l1 6q-81 17 -101 55t-42 189q-7 52 -12 82h216q6 -41 14 -106q13 -103 23 -129.5t41 -26.5h34q-5 48 1 92l24 170h207l-26 -178q-8 -52 -18 -84h8q12 0 21 1.5t17.5 7t14.5 10.5t14.5 18.5t14 25t15.5 35t18 43t22.5 55
t27.5 66.5h224q-14 -34 -33.5 -80t-28 -67t-22.5 -51t-21 -42t-20.5 -30t-23.5 -24t-27 -14.5t-35 -12.5t-43 -7l-1 -6q74 -12 96 -47t44 -167h130z" />
    <glyph glyph-name="uni0497" unicode="&#x497;" horiz-adv-x="904" 
d="M776 136h121l-38 -272h-139l5 136h-119q-33 156 -40 173q-16 20 -35 21h-30q3 -23 0 -44l-18 -150h-184l21 151q4 24 10 43h-25q-15 0 -24 -4.5t-24 -26.5t-31.5 -56.5t-49.5 -106.5h-213q79 167 95 191q26 42 63 54q17 5 81 14l1 6q-68 9 -85 21q-24 17 -38 84
q-3 16 -24 130h199q23 -138 30 -156q9 -19 32 -20h10h24q-5 32 1 69l15 107h183l-17 -110q-4 -29 -14 -66h6q41 0 57 22t74 154h210q-76 -157 -95 -184q-27 -40 -67 -48q-17 -3 -55 -5l-1 -6q61 -13 76 -22q29 -18 50 -90q1 -4 2 -9z" />
    <glyph glyph-name="uni0498" unicode="&#x498;" horiz-adv-x="583" 
d="M327 698q144 0 197 -40.5t38 -147.5q-10 -74 -41 -108.5t-99 -40.5l-1 -6q139 -13 114 -191q-14 -100 -70 -136t-181 -36q-172 0 -295 39l23 139q135 -22 225 -22q41 0 59 16.5t24 59.5q6 40 -4.5 52.5t-46.5 12.5h-150l17 137h140q39 0 51.5 14t18.5 55q4 29 -7 38
t-43 9q-84 0 -208 -15l-9 149q110 22 248 22zM178 -33q81 15 131.5 0t40.5 -73q-14 -80 -83 -115.5t-165 -22.5l21 77q89 0 99 46q0 3 0.5 5.5t-2 4.5t-6 3t-11 1.5t-18 1t-25.5 0.5z" />
    <glyph glyph-name="uni0499" unicode="&#x499;" horiz-adv-x="532" 
d="M264 514q142 0 195.5 -28.5t41.5 -117.5q-7 -50 -34 -76.5t-90 -31.5l-1 -5q127 -9 109 -138q-5 -36 -18.5 -60t-32 -38t-50 -21.5t-63 -9.5t-81.5 -2q-151 0 -255 25l20 133q115 -12 209 -12q37 0 50.5 5.5t14.5 26.5q2 18 -7.5 24t-31.5 6l-171 1l14 115l162 1
q43 0 49 28q2 18 -6.5 22t-42.5 4q-67 0 -187 -10l-7 135q91 24 213 24zM152 -33q81 15 131.5 0t40.5 -73q-14 -80 -83 -115.5t-165 -22.5l21 77q89 0 99 46q0 3 0.5 5.5t-2 4.5t-6 3t-11 1.5t-18 1t-25.5 0.5z" />
    <glyph glyph-name="uni049A" unicode="&#x49a;" horiz-adv-x="682" 
d="M602 142h69l-19 -135v-3l-1 -4l-22 -151h-157l7 151h-78q-25 201 -30 224q-12 49 -38 59q-14 5 -44 5h-29q5 -36 0 -67l-31 -221h-217l97 690h217l-26 -178q-4 -35 -18 -84h20q61 0 89 44t88 218h225q-76 -189 -89 -216q-34 -67 -79 -90q-31 -15 -91 -23l-1 -6
q59 -10 86 -27t42.5 -57t29.5 -129z" />
    <glyph glyph-name="uni049B" unicode="&#x49b;" horiz-adv-x="619" 
d="M395 254q7 -1 23.5 -3.5t20.5 -3.5l16 -4t14.5 -5.5t10.5 -6.5t10.5 -10t7.5 -13.5t7.5 -18t6 -23.5t6.5 -30h73l-38 -272h-139l5 136h-91q-19 140 -27 165.5t-36 25.5h-30q5 -24 2 -43l-22 -148h-209l70 500h209l-16 -113q-6 -38 -14 -62h10q41 0 57 23.5t62 151.5h219
q-8 -19 -22 -52q-22 -53 -31 -73.5t-24 -47t-21 -32.5t-25 -16t-32 -11.5t-45 -6.5q-5 -1 -7 -1z" />
    <glyph glyph-name="uni049C" unicode="&#x49c;" horiz-adv-x="709" 
d="M484 357q99 -15 124 -62.5t55 -254.5q4 -26 6 -40h-226q-25 198 -37 234q-11 35 -31 46l-16 -114h-80l17 122h-48q5 -34 0 -63l-31 -225h-204l96 690h204l-24 -174q-7 -48 -22 -88h49l17 125h80l-16 -114q29 16 51.5 62t67.5 164q6 16 9 25h220q-13 -30 -31.5 -73
t-26.5 -62t-21.5 -48.5t-21 -41t-19 -30.5t-20.5 -25.5t-22 -17t-27.5 -14t-31.5 -8t-39 -7.5z" />
    <glyph glyph-name="uni049D" unicode="&#x49d;" horiz-adv-x="629" 
d="M445 257q69 -11 82 -18q28 -14 41 -71q9 -36 27 -168h-218q-15 123 -22 154t-27 36l-14 -103h-60l15 104h-27q2 -24 -1 -39l-21 -152h-209l70 500h209l-15 -109q-5 -30 -17 -66h29l14 99h60l-13 -95q20 7 34 34.5t44 108.5q6 18 10 28h212q-69 -159 -76 -172
q-22 -40 -52 -51q-15 -5 -74 -14z" />
    <glyph glyph-name="uni049E" unicode="&#x49e;" horiz-adv-x="701" 
d="M481 355q35 -6 56 -12t39 -22t27 -33.5t19 -58t16.5 -82t17.5 -118.5q3 -19 4 -29h-222q-25 201 -30 224q-12 49 -38 59q-14 5 -44 5h-29q5 -36 0 -67l-31 -221h-217l74 525h-105l16 120h106l6 45h217l-7 -45h96l-16 -120h-97l-2 -13q-4 -35 -18 -84h20q61 0 89 44
t88 218h225q-76 -189 -89 -216q-34 -67 -79 -90q-31 -15 -91 -23z" />
    <glyph glyph-name="uni049F" unicode="&#x49f;" horiz-adv-x="594" 
d="M389 257q7 -1 19 -3q73 -11 89 -41t40 -202q1 -2 1 -3.5t0.5 -3.5t0.5 -4h-218q-16 130 -22.5 159t-24.5 32h-46q2 -22 0 -39l-21 -152h-209l74 532h-62l14 100h62l8 58h209l-8 -58h152l-14 -100h-152l-20 -141q-3 -28 -16 -66h18q41 0 54.5 21.5t62.5 153.5h212
q-12 -27 -30 -70q-17 -40 -24 -56.5t-19.5 -39.5t-16 -29t-18 -16.5t-21 -12t-28 -6t-36.5 -6.5q-7 0 -10 -1v-6z" />
    <glyph glyph-name="uni04A0" unicode="&#x4a0;" horiz-adv-x="795" 
d="M575 355q35 -6 56 -12t39 -22t27 -33.5t19 -58t16.5 -82t17.5 -118.5q3 -19 4 -29h-222q-25 201 -30 224q-12 49 -38 59q-14 5 -44 5h-29q5 -36 0 -67l-31 -221h-217l74 528h-211l22 162h429l-26 -178q-4 -35 -18 -84h20q61 0 89 44t88 218h225q-76 -189 -89 -216
q-34 -67 -79 -90q-31 -15 -91 -23z" />
    <glyph glyph-name="uni04A1" unicode="&#x4a1;" 
d="M508 257q69 -11 82 -18q28 -14 41 -71q9 -36 27 -168h-218q-15 127 -22 157.5t-24 33.5h-46q2 -24 -1 -39l-21 -152h-209l49 350h-162l21 150h371l-15 -109q-5 -30 -17 -66h19q38 0 51 18t50 117q3 8 5 13l5 12.5t5 14.5h212q-69 -159 -76 -172q-22 -40 -52 -51
q-15 -5 -74 -14z" />
    <glyph glyph-name="uni04A2" unicode="&#x4a2;" horiz-adv-x="733" 
d="M631 142h77l-19 -135v-3l-1 -4l-22 -151h-157l7 151h-122l41 289h-165l-41 -289h-217l97 690h217l-35 -247h165l35 247h217z" />
    <glyph glyph-name="uni04A3" unicode="&#x4a3;" horiz-adv-x="659" 
d="M557 136h74l-38 -272h-139l5 136h-127l27 195h-119l-27 -195h-207l70 500h207l-24 -170h119l24 170h206z" />
    <glyph glyph-name="uni04A4" unicode="&#x4a4;" horiz-adv-x="889" 
d="M642 694q212 0 293 -14l-32 -152h-187q-19 0 -32 -10t-15 -26l-69 -492h-217l41 290h-154l-41 -290h-217l97 690h217l-35 -248h155l13 95q10 70 61 113.5t122 43.5z" />
    <glyph glyph-name="uni04A5" unicode="&#x4a5;" horiz-adv-x="757" 
d="M547 508q174 0 238 -17l-30 -146h-135q-34 0 -38 -30l-45 -315h-208l27 195h-111l-28 -195h-207l71 500h207l-24 -170h112l6 46q10 69 50 100.5t115 31.5z" />
    <glyph glyph-name="uni04A6" unicode="&#x4a6;" horiz-adv-x="1018" 
d="M827 454q103 0 140.5 -68.5t15.5 -219.5q-43 -311 -345 -346l1 150q68 29 91 67.5t35 124.5q10 74 1 99.5t-44 25.5q-33 0 -68 -11l-39 -276h-217l77 548h-169l-77 -548h-217l97 690h603l-38 -272q77 36 153 36z" />
    <glyph glyph-name="uni04A7" unicode="&#x4a7;" horiz-adv-x="915" 
d="M737 408q95 0 130 -63t17 -189q-43 -303 -314 -336l-1 135q58 30 78 69.5t32 127.5q8 54 0.5 76.5t-35.5 22.5q-37 0 -73 -15l-33 -236h-211l43 302q3 21 -2.5 29t-24.5 6q-41 -4 -88 -40l-42 -297h-210l69 500h164l5 -88q48 48 106 75t113 27q65 0 102.5 -37.5
t27.5 -106.5l-1 -8q67 46 148 46z" />
    <glyph glyph-name="uni04A8" unicode="&#x4a8;" horiz-adv-x="988" 
d="M930 458q-26 -189 -175 -322q24 -7 53 -7q61 0 116 4l2 -124q-45 -21 -143 -21q-109 0 -193 46q-114 -46 -247 -46q-350 0 -298 388q25 172 123.5 248t266.5 76l-21 -152q-58 0 -92 -43t-49 -145q-30 -217 141 -217q26 0 56 5q-73 117 -49 286q20 141 88 203.5t183 62.5
q271 0 238 -242zM630 448q-17 -119 9 -198q66 82 84 208q6 47 -0.5 66t-32.5 19q-28 0 -40.5 -21.5t-19.5 -73.5z" />
    <glyph glyph-name="uni04A9" unicode="&#x4a9;" horiz-adv-x="789" 
d="M767 25q-44 -34 -130 -34q-94 0 -163 37q-95 -37 -199 -37q-148 0 -212 75.5t-38 219.5q21 119 91 174t209 55l-19 -129q-28 0 -50.5 -32t-31.5 -91q-12 -81 19 -111t99 -30q19 0 28 1q-58 94 -37 216q16 90 69.5 133.5t149.5 43.5q101 0 154.5 -45.5t41.5 -131.5
q-16 -118 -124 -217q18 -3 40 -3q54 0 94 9zM510 328q-15 -87 8 -137q40 50 50 137q6 55 -20 55q-29 0 -38 -55z" />
    <glyph glyph-name="uni04AA" unicode="&#x4aa;" horiz-adv-x="603" 
d="M380 519q-38 0 -57 -11.5t-32 -50t-24 -120.5q-15 -102 -6 -134t63 -32q136 0 221 8l8 -159q-72 -22 -149 -29l-27 -142h-157l13 144q-127 17 -172 100t-20 260q15 106 38.5 172t65.5 106.5t99.5 55.5t146.5 15q128 0 227 -28l-25 -157q-146 2 -213 2z" />
    <glyph glyph-name="uni04AB" unicode="&#x4ab;" horiz-adv-x="536" 
d="M328 347q-44 0 -62 -20t-26 -74q-9 -61 3.5 -80t58.5 -19q105 0 168 7l15 -133q-62 -29 -157 -38l-33 -152h-141l11 161q-174 41 -144 260q19 137 81.5 196t200.5 59t229 -39l-28 -128h-176z" />
    <glyph glyph-name="uni04AC" unicode="&#x4ac;" horiz-adv-x="618" 
d="M641 528h-191l-54 -386h76l-19 -135v-3l-1 -4l-22 -151h-157l7 151h-121l74 528h-190l23 162h598z" />
    <glyph glyph-name="uni04AD" unicode="&#x4ad;" horiz-adv-x="924" 
d="M822 136h74l-38 -272h-139l5 136h-129l43 311q4 26 -19 26q-29 0 -72 -30l-43 -307h-201l43 311q5 26 -19 26q-30 0 -73 -28l-42 -309h-209l70 500h163l6 -71q88 85 182 85q104 0 127 -72q81 72 170 72q74 0 109 -38t25 -106z" />
    <glyph glyph-name="uni04AE" unicode="&#x4ae;" horiz-adv-x="649" 
d="M715 690l-295 -481l-29 -209h-218l31 221l-158 469h216l53 -221q9 -40 7 -101h15q5 48 30 99l117 223h231z" />
    <glyph glyph-name="uni04AF" unicode="&#x4af;" horiz-adv-x="651" 
d="M687 500l-295 -480l-27 -200h-218l29 210l-158 470h216l53 -221q9 -40 7 -101h15q5 48 30 99l117 223h231z" />
    <glyph glyph-name="uni04B0" unicode="&#x4b0;" horiz-adv-x="656" 
d="M721 690l-241 -388h89l-15 -120h-134l-26 -182h-217l25 182h-132l15 120h94l-132 388h216l55 -221q8 -36 8 -101h14q7 50 31 99l120 223h230z" />
    <glyph glyph-name="uni04B1" unicode="&#x4b1;" horiz-adv-x="653" 
d="M687 500l-248 -403h95l-12 -100h-133l-24 -177h-218l24 177h-130l12 100h101l-136 403h216l53 -221q9 -40 7 -101h15q5 48 30 99l117 223h231z" />
    <glyph glyph-name="uni04B2" unicode="&#x4b2;" horiz-adv-x="747" 
d="M717 7v-3l-1 -4l-22 -151h-157l7 151h-124l-75 284l-161 -284h-230l218 352l-104 338h209l71 -268l151 268h221l-204 -338l70 -210h150z" />
    <glyph glyph-name="uni04B3" unicode="&#x4b3;" horiz-adv-x="663" 
d="M507 136h130l-38 -272h-139l5 136h-98l-71 186l-125 -186h-216l181 255l-97 245h194l65 -175l119 175h210l-169 -245z" />
    <glyph glyph-name="uni04B4" unicode="&#x4b4;" horiz-adv-x="869" 
d="M760 142h76l-19 -135l-22 -158h-157l6 151h-517l74 528h-158l23 162h502l-23 -162h-127l-54 -386h179l77 548h217z" />
    <glyph glyph-name="uni04B5" unicode="&#x4b5;" horiz-adv-x="808" 
d="M781 142l-19 -137l-20 -141h-139l5 136h-501l51 359h-128l20 141h440l-20 -141h-101l-31 -217h154l51 358h211l-51 -358h78z" />
    <glyph glyph-name="uni04B6" unicode="&#x4b6;" horiz-adv-x="739" 
d="M612 142h94l-19 -142l-22 -151h-156l16 151h-150l38 269q-99 -43 -210 -43q-93 0 -128.5 44.5t-24.5 139.5l40 280h217l-34 -241q-5 -29 5.5 -37.5t43.5 -8.5q65 0 112 17l38 270h217z" />
    <glyph glyph-name="uni04B7" unicode="&#x4b7;" horiz-adv-x="643" 
d="M613 136l-17 -131h1l-21 -141h-173l47 136h-143l23 163q-62 -22 -135 -22q-97 0 -138 34t-29 116l32 209h207l-24 -177q-2 -17 5 -24.5t27 -7.5q32 0 75 14l27 195h209l-51 -364h78z" />
    <glyph glyph-name="uni04B8" unicode="&#x4b8;" horiz-adv-x="690" 
d="M472 690h217l-97 -690h-217l36 258q-27 -11 -45 -16l-13 -95h-80l10 74q-32 -5 -52 -5q-105 0 -149.5 45.5t-32.5 138.5l41 290h218l-36 -251q-4 -25 5 -35t30 -12l20 142h80l-19 -137q20 3 45 12z" />
    <glyph glyph-name="uni04B9" unicode="&#x4b9;" horiz-adv-x="623" 
d="M400 500h209l-70 -500h-209l23 168q-11 -4 -35 -10l-10 -71h-60l8 59q-38 -5 -70 -5q-88 0 -125 29t-29 90l34 240h204l-25 -179q-2 -15 5 -22t26 -8l19 133h60l-18 -127q6 1 36 8z" />
    <glyph glyph-name="uni04BA" unicode="&#x4ba;" horiz-adv-x="686" 
d="M498 464q93 0 128.5 -44.5t23.5 -139.5l-39 -280h-217l34 241q5 29 -5.5 38.5t-43.5 7.5q-66 -4 -107 -16l-38 -271h-218l97 690h218l-38 -267q100 41 205 41z" />
    <glyph glyph-name="uni04BB" unicode="&#x4bb;" horiz-adv-x="619" 
d="M451 514q76 0 112 -37.5t26 -106.5l-52 -370h-210l44 311q3 16 -1 21t-18 5q-45 0 -98 -41l-41 -296h-210l98 700h210l-21 -153q-8 -59 -29 -119q99 86 190 86z" />
    <glyph glyph-name="uni04BC" unicode="&#x4bc;" horiz-adv-x="762" 
d="M532 703q143 0 196.5 -47.5t36.5 -164.5q-16 -117 -78.5 -162.5t-195.5 -45.5h-103q-6 -75 16 -93t98 -18q101 0 179 10l-3 -159q-101 -35 -241 -35q-169 0 -230 68.5t-47 226.5q-127 2 -169 56t-9 166h148q-16 -51 -4 -70.5t53 -21.5q35 166 117 228t236 62zM563 473
q4 30 -9.5 44t-51.5 14q-42 0 -62.5 -24.5t-33.5 -93.5h75q40 0 58.5 14t23.5 46z" />
    <glyph glyph-name="uni04BD" unicode="&#x4bd;" horiz-adv-x="732" 
d="M482 514q138 0 192.5 -44t42.5 -134q-9 -71 -56.5 -101.5t-156.5 -30.5h-125q2 -31 19 -43t57 -12q98 0 204 11l2 -126q-98 -46 -252 -46q-140 0 -199.5 53.5t-53.5 162.5q-99 2 -133 45t-2 151h128q-31 -89 22 -96q27 114 99 162t212 48zM517 341q3 23 -7.5 30.5
t-40.5 7.5q-40 1 -55.5 -13t-24.5 -63h70q34 0 44 6.5t14 31.5z" />
    <glyph glyph-name="uni04BE" unicode="&#x4be;" horiz-adv-x="762" 
d="M532 703q143 0 196.5 -47.5t36.5 -164.5q-16 -117 -78.5 -162.5t-195.5 -45.5h-103q-6 -75 16 -93t98 -18q101 0 179 10l-3 -159q-77 -26 -185 -33l-27 -141h-148l13 147q-105 20 -144 88.5t-27 198.5q-127 2 -169 56t-9 166h148q-16 -51 -4 -70.5t53 -21.5
q35 166 117 228t236 62zM563 473q4 30 -9.5 44t-51.5 14q-42 0 -62.5 -24.5t-33.5 -93.5h75q40 0 58.5 14t23.5 46z" />
    <glyph glyph-name="uni04BF" unicode="&#x4bf;" horiz-adv-x="732" 
d="M482 514q138 0 192.5 -44t42.5 -134q-9 -71 -56.5 -101.5t-156.5 -30.5h-125q2 -31 19 -43t57 -12q98 0 204 11l2 -126q-75 -35 -174 -43l-33 -153h-141l10 156q-93 15 -132.5 67t-34.5 143q-99 2 -133 45t-2 151h128q-31 -89 22 -96q27 114 99 162t212 48zM517 341
q3 23 -7.5 30.5t-40.5 7.5q-40 1 -55.5 -13t-24.5 -63h70q34 0 44 6.5t14 31.5z" />
    <glyph glyph-name="uni04C0" unicode="&#x4c0;" horiz-adv-x="330" 
d="M329 690l-97 -690h-216l97 690h216z" />
    <glyph glyph-name="uni04C1" unicode="&#x4c1;" horiz-adv-x="961" 
d="M549 734q-89 0 -133 53t-22 120h127q-10 -47 -0.5 -62t41.5 -15q31 0 46 16.5t16 60.5h127q3 -67 -55 -120t-147 -53zM743 356q28 -5 45.5 -9.5t32.5 -18.5t22.5 -26t16.5 -46t14 -61.5t16 -90.5q11 -65 18 -104h-219q-9 58 -20 142q-14 102 -23 124t-41 22h-23
q3 -34 -3 -67l-31 -221h-208l32 229q5 30 16 59h-19q-16 0 -26.5 -5t-23 -18t-28 -45t-35.5 -77t-54 -122q-1 -3 -2 -5l-2.5 -5t-2.5 -5.5t-2 -5.5h-230q30 72 45 107.5t35.5 79.5t30 61.5t27 41.5t27.5 30.5t30 16.5t36.5 13t44.5 8l1 6q-81 17 -101 55t-42 189
q-7 52 -12 82h216q6 -41 14 -106q13 -103 23 -129.5t41 -26.5h34q-5 48 1 92l24 170h207l-26 -178q-8 -52 -18 -84h8q12 0 21 1.5t17.5 7t14.5 10.5t14.5 18.5t14 25t15.5 35t18 43t22.5 55t27.5 66.5h224q-14 -34 -33.5 -80t-28 -67t-22.5 -51t-21 -42t-20.5 -30t-23.5 -24
t-27 -14.5t-35 -12.5t-43 -7z" />
    <glyph glyph-name="uni04C2" unicode="&#x4c2;" horiz-adv-x="853" 
d="M469 549q-89 0 -133 53t-22 120h127q-10 -46 -0.5 -61.5t41.5 -15.5q31 0 46 16.5t16 60.5h127q3 -67 -55 -120t-147 -53zM648 257q62 -13 76 -22q29 -18 50 -91q11 -42 32 -144h-200q-33 156 -40 173q-16 20 -35 21h-30q3 -23 0 -44l-18 -150h-184l21 151q4 24 10 43
h-25q-15 0 -24 -4.5t-24 -26.5t-31.5 -56.5t-49.5 -106.5h-213q79 167 95 191q26 42 63 54q17 5 81 14l1 6q-68 9 -85 21q-24 17 -38 84q-3 16 -24 130h199q23 -138 30 -156q9 -19 32 -20h10h24q-5 32 1 69l15 107h183l-17 -110q-4 -29 -14 -66h6q41 0 57 22t74 154h210
q-76 -157 -95 -184q-27 -40 -67 -48q-17 -3 -55 -5z" />
    <glyph glyph-name="uni04C3" unicode="&#x4c3;" horiz-adv-x="666" 
d="M447 357q112 -7 157.5 -77.5t28.5 -190.5q-20 -144 -112 -213.5t-243 -57.5l18 127q35 0 58.5 12t36 37t17.5 46t10 55q16 112 -17.5 152.5t-115.5 40.5h-24q5 -34 0 -63l-32 -225h-217l97 690h217l-24 -174q-7 -48 -22 -88h22q62 0 89 38.5t86 195.5q7 18 11 28h220
q-13 -30 -34.5 -79.5t-29 -67.5t-23 -50.5t-22.5 -42.5t-21.5 -29t-24.5 -24t-27.5 -14.5t-35.5 -13t-43 -6.5v-6z" />
    <glyph glyph-name="uni04C4" unicode="&#x4c4;" horiz-adv-x="600" 
d="M415 257q167 -44 144 -208q-18 -124 -102 -183t-223 -48l17 117q26 0 45.5 8.5t30.5 20t18.5 32t10.5 35.5t6 38q9 63 -17.5 92.5t-78.5 29.5h-12q2 -22 0 -39l-21 -152h-209l70 500h209l-15 -109q-5 -30 -17 -66h18q41 0 54.5 21.5t62.5 153.5h212q-69 -159 -76 -172
q-22 -40 -52 -51q-15 -5 -74 -14z" />
    <glyph glyph-name="uni04C5" unicode="&#x4c5;" horiz-adv-x="708" 
d="M692 690l-77 -548h77l-20 -142l-52 -151h-157l36 151h-121l77 548h-29q-31 0 -45 -11.5t-21 -42.5q-55 -251 -97 -338q-53 -111 -125 -145t-174 -15l-8 168q1 0 19 2t21.5 3t18 5.5t20.5 10.5t16 17.5t17 27.5q39 81 89 315q32 145 186 145h349z" />
    <glyph glyph-name="uni04C6" unicode="&#x4c6;" horiz-adv-x="656" 
d="M557 142h72l-20 -142l-50 -141h-147l34 141h-118l50 364h-17q-21 0 -30.5 -9t-16.5 -34q-26 -90 -54 -197q-16 -62 -60 -96.5t-97.5 -37.5t-111.5 6l-10 157q17 1 26 2t23 4.5t23 12.5t14 24q26 76 50 182q14 63 52.5 92.5t108.5 29.5h329z" />
    <glyph glyph-name="uni04C7" unicode="&#x4c7;" horiz-adv-x="714" 
d="M500 690h217l-87 -621q-9 -66 -36 -117.5t-64.5 -81t-83 -47t-92 -16.5t-92.5 11l18 127q114 0 136 146l28 199h-174l-41 -290h-217l97 690h217l-35 -248h174z" />
    <glyph glyph-name="uni04C8" unicode="&#x4c8;" horiz-adv-x="630" 
d="M406 500h206l-67 -480q-7 -53 -29.5 -93t-53.5 -62t-68.5 -35.5t-75.5 -14t-75 2.5l18 127q66 0 78 75l24 175h-123l-27 -195h-207l70 500h207l-24 -170h123z" />
    <glyph glyph-name="uni04C9" unicode="&#x4c9;" horiz-adv-x="734" 
d="M708 690l-77 -548h76l-20 -142l-52 -151h-157l36 151h-120l41 289h-165l-41 -289h-217l97 690h217l-35 -247h165l35 247h217z" />
    <glyph glyph-name="uni04CA" unicode="&#x4ca;" horiz-adv-x="656" 
d="M558 142h71l-20 -142l-50 -141h-147l34 141h-114l27 195h-119l-27 -195h-207l70 500h207l-24 -170h119l24 170h206z" />
    <glyph glyph-name="uni04CB" unicode="&#x4cb;" horiz-adv-x="668" 
d="M450 690h217l-97 -690h-247l-37 -151h-157l23 155l19 138h202l16 116q-100 -42 -180 -42q-105 0 -149.5 45.5t-32.5 138.5l41 290h218l-36 -251q-4 -29 7.5 -38t40.5 -9q64 0 113 17z" />
    <glyph glyph-name="uni04CC" unicode="&#x4cc;" horiz-adv-x="605" 
d="M378 500h209l-70 -500h-94l-14 -136h-139v242h53l8 57q-62 -22 -135 -22q-97 0 -138.5 34t-29.5 116l33 209h208l-24 -177q-6 -32 30 -32q33 0 76 14z" />
    <glyph glyph-name="uni04CD" unicode="&#x4cd;" horiz-adv-x="988" 
d="M880 142h105l-20 -142l-52 -151h-157l36 151h-121l54 528h-14l-116 -356q-18 -62 -87 -62h-110q-35 0 -55.5 18.5t-21.5 51.5l-19 348h-16l-91 -528h-195l111 619q7 37 25 54t54 17h184q34 0 54 -19t21 -52l12 -274q3 -46 -2 -103h10q8 38 25 101l84 284q17 63 86 63h193
q37 0 56 -21t15 -58z" />
    <glyph glyph-name="uni04CE" unicode="&#x4ce;" horiz-adv-x="854" 
d="M757 142h70l-20 -142l-50 -141h-147l34 141h-93l39 348h-10l-72 -215q-18 -60 -82 -60h-80q-33 0 -52.5 18t-20.5 50l-18 207h-9l-57 -348h-190l70 421q5 42 24 60.5t58 18.5h165q69 0 72 -69l6 -147q0 -19 -4 -85h10q13 70 17 84l49 156q16 61 81 61h176q74 0 67 -75z
" />
    <glyph glyph-name="uni04CF" unicode="&#x4cf;" horiz-adv-x="300" 
d="M309 690l-98 -690h-205l98 690h205z" />
    <glyph glyph-name="uni04D0" unicode="&#x4d0;" horiz-adv-x="678" 
d="M394 734q-89 0 -133 53t-22 120h127q-10 -47 -0.5 -62t41.5 -15q31 0 46 16.5t16 60.5h127q3 -67 -55 -120t-147 -53zM430 0l-12 146h-188l-54 -146h-225l266 638q20 52 76 52h196q26 0 46 -17.5t23 -42.5l89 -630h-217zM289 304h117l-12 149q-3 26 -1 77h-28
q-7 -41 -20 -75z" />
    <glyph glyph-name="uni04D1" unicode="&#x4d1;" horiz-adv-x="616" 
d="M344 549q-89 0 -133 53t-22 120h127q-10 -46 -0.5 -61.5t41.5 -15.5q31 0 46 16.5t16 60.5h127q3 -67 -55 -120t-147 -53zM354 514q52 0 133 -10.5t110 -21.5l-68 -482h-162l-2 97q-67 -100 -195 -109q-70 -5 -107.5 28.5t-43.5 96.5t6 151q9 58 24 100.5t38.5 69.5
t47.5 43.5t62.5 24.5t71.5 10t85 2zM260 149q42 3 93 77l21 151h-46q-37 0 -58 -20.5t-31 -86.5q-14 -95 -6 -111q5 -12 27 -10z" />
    <glyph glyph-name="uni04D2" unicode="&#x4d2;" horiz-adv-x="678" 
d="M262 760q-34 0 -30 33l11 73q3 19 11.5 27t27.5 8h77q35 0 30 -33l-11 -76q-4 -32 -35 -32h-81zM451 760q-35 0 -30 33l11 74q5 34 36 34h80q34 0 30 -33l-11 -75q-3 -18 -10.5 -25.5t-24.5 -7.5h-81zM430 0l-12 146h-188l-54 -146h-225l266 638q20 52 76 52h196
q26 0 46 -17.5t23 -42.5l89 -630h-217zM289 304h117l-12 149q-3 26 -1 77h-28q-7 -41 -20 -75z" />
    <glyph glyph-name="uni04D3" unicode="&#x4d3;" horiz-adv-x="616" 
d="M212 575q-34 0 -30 33l11 73q3 19 11.5 27t27.5 8h77q35 0 30 -33l-11 -76q-4 -32 -35 -32h-81zM401 575q-35 0 -30 33l11 74q5 34 36 34h80q34 0 30 -33l-11 -75q-3 -18 -10.5 -25.5t-24.5 -7.5h-81zM354 514q52 0 133 -10.5t110 -21.5l-68 -482h-162l-2 97
q-67 -100 -195 -109q-70 -5 -107.5 28.5t-43.5 96.5t6 151q9 58 24 100.5t38.5 69.5t47.5 43.5t62.5 24.5t71.5 10t85 2zM260 149q42 3 93 77l21 151h-46q-37 0 -58 -20.5t-31 -86.5q-14 -95 -6 -111q5 -12 27 -10z" />
    <glyph glyph-name="uni04D4" unicode="&#x4d4;" horiz-adv-x="956" 
d="M721 531q-25 0 -35.5 -8.5t-13.5 -31.5l-10 -71h238l-16 -134h-242l-13 -87q-5 -40 36 -40h232l-3 -151q-97 -12 -335 -12q-72 0 -109 45t-27 115h-169l-87 -156h-225l315 538q35 59 73.5 90.5t108 47.5t184.5 16q234 0 354 -11l-26 -150h-230zM454 512l-111 -198h102
l26 188q5 29 21 62h-11l-12.5 -25t-14.5 -27z" />
    <glyph glyph-name="uni04D5" unicode="&#x4d5;" horiz-adv-x="916" 
d="M655 514q148 0 203.5 -46t41.5 -140q-9 -65 -57 -90.5t-153 -33.5l-128 -10q1 -28 17 -36.5t58 -8.5q107 0 201 11l13 -128q-93 -44 -233 -44q-206 0 -252 117q-64 -108 -197 -117q-102 -7 -133 64.5t-11 211.5q8 58 21 100t33 69.5t40 43.5t53 24t60.5 10.5t72.5 2.5
q112 1 214 -15q53 15 136 15zM700 349q2 17 -7 24t-36 6q-40 -1 -56 -17t-26 -65l59 6q35 3 49.5 11.5t16.5 34.5zM260 149q19 1 45 24t47 56q0 7 2 25q7 70 28 123h-56q-40 0 -58.5 -19.5t-28.5 -87.5q-14 -95 -6 -111q5 -12 27 -10z" />
    <glyph glyph-name="uni04D6" unicode="&#x4d6;" horiz-adv-x="590" 
d="M355 734q-89 0 -133 53t-22 120h127q-10 -47 -0.5 -62t41.5 -15q31 0 46 16.5t16 60.5h127q3 -67 -55 -120t-147 -53zM346 528q-26 0 -37 -9t-14 -31l-9 -63h249l-18 -144h-251l-11 -80q-6 -39 37 -39h240l-4 -154q-89 -12 -338 -12q-84 0 -125 52t-30 136l50 357
q10 71 56 112t121 41q248 0 348 -14l-24 -152h-240z" />
    <glyph glyph-name="uni04D7" unicode="&#x4d7;" horiz-adv-x="590" 
d="M331 549q-89 0 -133 53t-22 120h127q-10 -46 -0.5 -61.5t41.5 -15.5q31 0 46 16.5t16 60.5h127q3 -67 -55 -120t-147 -53zM326 514q150 0 206 -46t42 -140q-9 -65 -57.5 -90.5t-155.5 -33.5l-125 -9q1 -28 16.5 -37t54.5 -9q109 0 205 11l14 -128q-95 -44 -237 -44
q-84 0 -140 17t-86 52t-39.5 82.5t-2.5 114.5q8 79 31 131t63.5 79.5t90 38.5t120.5 11zM374 349q2 17 -7.5 24t-38.5 6q-37 -1 -53 -17t-26 -65l57 6q36 3 50.5 11.5t17.5 34.5z" />
    <glyph glyph-name="uni04D8" unicode="&#x4d8;" horiz-adv-x="643" 
d="M346 703q124 0 189 -36.5t82.5 -114.5t-0.5 -200q-15 -109 -43.5 -180t-74.5 -111.5t-104.5 -56.5t-143.5 -16q-143 0 -196.5 47.5t-36.5 164.5q17 123 79.5 170.5t195.5 47.5h103q4 67 -18.5 84t-96.5 17q-101 0 -179 -10l3 159q101 35 241 35zM281 160q44 0 64.5 26
t33.5 102h-76q-40 0 -59 -16t-24 -54q-4 -30 9.5 -44t51.5 -14z" />
    <glyph glyph-name="uni04D9" unicode="&#x4d9;" horiz-adv-x="599" 
d="M319 514q153 0 210.5 -63.5t38.5 -194.5q-21 -147 -93.5 -207.5t-228.5 -60.5q-138 0 -192.5 44t-42.5 134q9 71 56.5 101.5t156.5 30.5h125q-2 31 -19 43t-57 12q-98 0 -204 -11l-2 126q98 46 252 46zM259 123q40 -1 55.5 13t24.5 63h-70q-34 0 -44 -6.5t-14 -31.5
q-3 -23 7.5 -30.5t40.5 -7.5z" />
    <glyph glyph-name="uni04DA" unicode="&#x4da;" horiz-adv-x="643" 
d="M257 763q-35 0 -30 33l11 73q3 19 11.5 27t27.5 8h77q34 0 30 -33l-11 -76q-4 -32 -35 -32h-81zM446 763q-34 0 -30 33l11 74q5 34 36 34h80q35 0 30 -33l-11 -75q-3 -18 -10.5 -25.5t-24.5 -7.5h-81zM346 703q124 0 189 -36.5t82.5 -114.5t-0.5 -200
q-15 -109 -43.5 -180t-74.5 -111.5t-104.5 -56.5t-143.5 -16q-143 0 -196.5 47.5t-36.5 164.5q17 123 79.5 170.5t195.5 47.5h103q4 67 -18.5 84t-96.5 17q-101 0 -179 -10l3 159q101 35 241 35zM281 160q44 0 64.5 26t33.5 102h-76q-40 0 -59 -16t-24 -54q-4 -30 9.5 -44
t51.5 -14z" />
    <glyph glyph-name="uni04DB" unicode="&#x4db;" horiz-adv-x="599" 
d="M221 575q-35 0 -30 33l11 73q3 19 11.5 27t27.5 8h77q34 0 30 -33l-11 -76q-4 -32 -35 -32h-81zM410 575q-34 0 -30 33l11 74q5 34 36 34h80q35 0 30 -33l-11 -75q-3 -18 -10.5 -25.5t-24.5 -7.5h-81zM319 514q153 0 210.5 -63.5t38.5 -194.5q-21 -147 -93.5 -207.5
t-228.5 -60.5q-138 0 -192.5 44t-42.5 134q9 71 56.5 101.5t156.5 30.5h125q-2 31 -19 43t-57 12q-98 0 -204 -11l-2 126q98 46 252 46zM259 123q40 -1 55.5 13t24.5 63h-70q-34 0 -44 -6.5t-14 -31.5q-3 -23 7.5 -30.5t40.5 -7.5z" />
    <glyph glyph-name="uni04DC" unicode="&#x4dc;" horiz-adv-x="961" 
d="M417 760q-35 0 -30 33l11 73q3 19 11.5 27t27.5 8h77q34 0 30 -33l-11 -76q-4 -32 -35 -32h-81zM606 760q-34 0 -30 33l11 74q5 34 36 34h80q35 0 30 -33l-11 -75q-3 -18 -10.5 -25.5t-24.5 -7.5h-81zM743 356q28 -5 45.5 -9.5t32.5 -18.5t22.5 -26t16.5 -46t14 -61.5
t16 -90.5q11 -65 18 -104h-219q-9 58 -20 142q-14 102 -23 124t-41 22h-23q3 -34 -3 -67l-31 -221h-208l32 229q5 30 16 59h-19q-16 0 -26.5 -5t-23 -18t-28 -45t-35.5 -77t-54 -122q-1 -3 -2 -5l-2.5 -5t-2.5 -5.5t-2 -5.5h-230q30 72 45 107.5t35.5 79.5t30 61.5t27 41.5
t27.5 30.5t30 16.5t36.5 13t44.5 8l1 6q-81 17 -101 55t-42 189q-7 52 -12 82h216q6 -41 14 -106q13 -103 23 -129.5t41 -26.5h34q-5 48 1 92l24 170h207l-26 -178q-8 -52 -18 -84h8q12 0 21 1.5t17.5 7t14.5 10.5t14.5 18.5t14 25t15.5 35t18 43t22.5 55t27.5 66.5h224
q-14 -34 -33.5 -80t-28 -67t-22.5 -51t-21 -42t-20.5 -30t-23.5 -24t-27 -14.5t-35 -12.5t-43 -7z" />
    <glyph glyph-name="uni04DD" unicode="&#x4dd;" horiz-adv-x="853" 
d="M337 575q-35 0 -30 33l11 73q3 19 11.5 27t27.5 8h77q34 0 30 -33l-11 -76q-4 -32 -35 -32h-81zM526 575q-34 0 -30 33l11 74q5 34 36 34h80q35 0 30 -33l-11 -75q-3 -18 -10.5 -25.5t-24.5 -7.5h-81zM648 257q62 -13 76 -22q29 -18 50 -91q11 -42 32 -144h-200
q-33 156 -40 173q-16 20 -35 21h-30q3 -23 0 -44l-18 -150h-184l21 151q4 24 10 43h-25q-15 0 -24 -4.5t-24 -26.5t-31.5 -56.5t-49.5 -106.5h-213q79 167 95 191q26 42 63 54q17 5 81 14l1 6q-68 9 -85 21q-24 17 -38 84q-3 16 -24 130h199q23 -138 30 -156q9 -19 32 -20
h10h24q-5 32 1 69l15 107h183l-17 -110q-4 -29 -14 -66h6q41 0 57 22t74 154h210q-76 -157 -95 -184q-27 -40 -67 -48q-17 -3 -55 -5z" />
    <glyph glyph-name="uni04DE" unicode="&#x4de;" horiz-adv-x="583" 
d="M291 901q35 0 30 -33l-11 -76q-4 -32 -35 -32h-81q-34 0 -30 33l11 73q3 19 11.5 27t27.5 8h77zM480 901q34 0 30 -33l-11 -75q-3 -18 -10.5 -25.5t-24.5 -7.5h-81q-35 0 -30 33l11 74q5 34 36 34h80zM327 698q144 0 197 -40.5t38 -147.5q-10 -74 -41 -108.5t-99 -40.5
l-1 -6q139 -13 114 -191q-14 -100 -70 -136t-181 -36q-172 0 -295 39l23 139q135 -22 225 -22q41 0 59 16.5t24 59.5q6 40 -4.5 52.5t-46.5 12.5h-150l17 137h140q39 0 51.5 14t18.5 55q4 29 -7 38t-43 9q-84 0 -208 -15l-9 149q110 22 248 22z" />
    <glyph glyph-name="uni04DF" unicode="&#x4df;" horiz-adv-x="532" 
d="M255 722q35 0 30 -33l-11 -76q-4 -32 -35 -32h-81q-34 0 -30 33l11 73q3 19 11.5 27t27.5 8h77zM444 722q34 0 30 -33l-11 -75q-3 -18 -10.5 -25.5t-24.5 -7.5h-81q-35 0 -30 33l11 74q5 34 36 34h80zM264 514q142 0 195.5 -28.5t41.5 -117.5q-7 -50 -34 -76.5t-90 -31.5
l-1 -5q127 -9 109 -138q-5 -36 -18.5 -60t-32 -38t-50 -21.5t-63 -9.5t-81.5 -2q-151 0 -255 25l20 133q115 -12 209 -12q37 0 50.5 5.5t14.5 26.5q2 18 -7.5 24t-31.5 6l-171 1l14 115l162 1q43 0 49 28q2 18 -6.5 22t-42.5 4q-67 0 -187 -10l-7 135q91 24 213 24z" />
    <glyph glyph-name="uni04E0" unicode="&#x4e0;" horiz-adv-x="554" 
d="M536 690q8 0 13.5 -6t4.5 -14l-17 -115l-233 -169h32q106 0 153.5 -39.5t32.5 -145.5q-17 -116 -81.5 -165.5t-205.5 -49.5q-118 0 -256 19l28 152q115 -5 191 -5q64 0 85 12.5t28 59.5q5 41 -8 55t-59 14h-143l13 93l205 153h-246l21 151h442z" />
    <glyph glyph-name="uni04E1" unicode="&#x4e1;" horiz-adv-x="510" 
d="M478 500q8 0 13.5 -6t4.5 -14l-17 -115l-218 -163h36q95 0 137.5 -41t27.5 -150q-17 -116 -78 -165.5t-191 -49.5q-113 0 -244 19l27 152q114 -5 175 -5q57 0 75.5 12.5t25.5 59.5q5 35 -6 47t-50 12h-133l15 108l179 148h-214l21 151h414z" />
    <glyph glyph-name="uni04E2" unicode="&#x4e2;" horiz-adv-x="735" 
d="M600 895l-17 -123h-320l17 123h320zM734 690l-97 -690h-206l45 309q9 57 29 117h-7q-33 -73 -56 -106l-217 -320h-209l97 690h208l-41 -293q-6 -45 -33 -131h8q30 69 60 113l213 311h206z" />
    <glyph glyph-name="uni04E3" unicode="&#x4e3;" horiz-adv-x="618" 
d="M525 707l-17 -123h-320l17 123h320zM392 500h208l-69 -500h-164l-4 85q-102 -99 -204 -99q-78 0 -113.5 37.5t-25.5 106.5l51 370h211l-45 -311q-4 -27 23 -27q39 0 89 37z" />
    <glyph glyph-name="uni04E4" unicode="&#x4e4;" horiz-adv-x="735" 
d="M387 904q35 0 30 -33l-11 -76q-4 -32 -35 -32h-81q-34 0 -30 33l11 73q3 19 11.5 27t27.5 8h77zM576 904q34 0 30 -33l-11 -75q-3 -18 -10.5 -25.5t-24.5 -7.5h-81q-35 0 -30 33l11 74q5 34 36 34h80zM734 690l-97 -690h-206l45 309q9 57 29 117h-7q-33 -73 -56 -106
l-217 -320h-209l97 690h208l-41 -293q-6 -45 -33 -131h8q30 69 60 113l213 311h206z" />
    <glyph glyph-name="uni04E5" unicode="&#x4e5;" horiz-adv-x="618" 
d="M215 575q-35 0 -30 33l11 73q3 19 11.5 27t27.5 8h77q34 0 30 -33l-11 -76q-4 -32 -35 -32h-81zM404 575q-34 0 -30 33l11 74q5 34 36 34h80q35 0 30 -33l-11 -75q-3 -18 -10.5 -25.5t-24.5 -7.5h-81zM392 500h208l-69 -500h-164l-4 85q-102 -99 -204 -99
q-78 0 -113.5 37.5t-25.5 106.5l51 370h211l-45 -311q-4 -27 23 -27q39 0 89 37z" />
    <glyph glyph-name="uni04E6" unicode="&#x4e6;" 
d="M368 901q34 0 30 -33l-11 -76q-4 -32 -35 -32h-81q-35 0 -30 33l11 73q3 19 11.5 27t27.5 8h77zM557 901q35 0 30 -33l-11 -75q-3 -18 -10.5 -25.5t-24.5 -7.5h-81q-34 0 -30 33l11 74q5 34 36 34h80zM389 704q71 0 121 -10.5t89 -36t57.5 -67.5t25.5 -104.5t-7 -148.5
q-14 -107 -40 -175t-70 -107t-101 -54t-142 -15q-123 0 -188.5 32.5t-89 112.5t-3.5 222q15 106 40 173.5t68.5 107t99.5 55t140 15.5zM387 543q-54 0 -76.5 -38.5t-42.5 -167.5q-18 -119 -6.5 -154.5t65.5 -35.5q56 0 78 38.5t42 167.5q17 118 5.5 154t-65.5 36z" />
    <glyph glyph-name="uni04E7" unicode="&#x4e7;" horiz-adv-x="615" 
d="M302 716q34 0 30 -33l-11 -76q-4 -32 -35 -32h-81q-35 0 -30 33l11 73q3 19 11.5 27t27.5 8h77zM491 716q35 0 30 -33l-11 -75q-3 -18 -10.5 -25.5t-24.5 -7.5h-81q-34 0 -30 33l11 74q5 34 36 34h80zM327 514q153 0 214.5 -63t40.5 -210q-20 -141 -87.5 -197t-216.5 -56
q-152 0 -215 62.5t-42 206.5q20 143 87.5 200t218.5 57zM323 372q-40 0 -55.5 -24.5t-27.5 -106.5q-10 -69 -1.5 -90t47.5 -21q38 0 52.5 23.5t26.5 103.5q11 71 3 93t-45 22z" />
    <glyph glyph-name="uni04E8" unicode="&#x4e8;" 
d="M389 704q71 0 121 -10.5t89 -36t57.5 -67.5t25.5 -104.5t-7 -148.5q-14 -107 -40 -175t-70 -107t-101 -54t-142 -15q-123 0 -188.5 32.5t-89 112.5t-3.5 222q15 106 40 173.5t68.5 107t99.5 55t140 15.5zM387 543q-47 0 -69 -27t-38 -109h174q10 81 -4.5 108.5
t-62.5 27.5zM327 147q49 0 71.5 28.5t38.5 115.5h-176q-11 -86 3 -115t63 -29z" />
    <glyph glyph-name="uni04E9" unicode="&#x4e9;" horiz-adv-x="611" 
d="M327 514q153 0 214.5 -63t40.5 -210q-20 -141 -87.5 -197t-216.5 -56q-152 0 -215 62.5t-42 206.5q20 143 87.5 200t218.5 57zM323 372q-33 0 -48.5 -15t-25.5 -61h121q4 46 -6 61t-41 15zM286 130q33 0 47.5 17t24.5 69h-121q-6 -53 3.5 -69.5t45.5 -16.5z" />
    <glyph glyph-name="uni04EA" unicode="&#x4ea;" 
d="M302 763q-34 0 -30 33l11 73q3 19 11.5 27t27.5 8h77q35 0 30 -33l-11 -76q-4 -32 -35 -32h-81zM491 763q-35 0 -30 33l11 74q5 34 36 34h80q34 0 30 -33l-11 -75q-3 -18 -10.5 -25.5t-24.5 -7.5h-81zM389 704q71 0 121 -10.5t89 -36t57.5 -67.5t25.5 -104.5t-7 -148.5
q-14 -107 -40 -175t-70 -107t-101 -54t-142 -15q-123 0 -188.5 32.5t-89 112.5t-3.5 222q15 106 40 173.5t68.5 107t99.5 55t140 15.5zM387 543q-47 0 -69 -27t-38 -109h174q10 81 -4.5 108.5t-62.5 27.5zM327 147q49 0 71.5 28.5t38.5 115.5h-176q-11 -86 3 -115t63 -29z
" />
    <glyph glyph-name="uni04EB" unicode="&#x4eb;" horiz-adv-x="611" 
d="M213 575q-35 0 -30 33l11 73q3 19 11.5 27t27.5 8h77q34 0 30 -33l-11 -76q-4 -32 -35 -32h-81zM402 575q-34 0 -30 33l11 74q5 34 36 34h80q35 0 30 -33l-11 -75q-3 -18 -10.5 -25.5t-24.5 -7.5h-81zM327 514q153 0 214.5 -63t40.5 -210q-20 -141 -87.5 -197t-216.5 -56
q-152 0 -215 62.5t-42 206.5q20 143 87.5 200t218.5 57zM323 372q-33 0 -48.5 -15t-25.5 -61h121q4 46 -6 61t-41 15zM286 130q33 0 47.5 17t24.5 69h-121q-6 -53 3.5 -69.5t45.5 -16.5z" />
    <glyph glyph-name="uni04EC" unicode="&#x4ec;" horiz-adv-x="602" 
d="M210 760q-34 0 -30 33l11 73q3 19 11.5 27t27.5 8h77q35 0 30 -33l-11 -76q-4 -32 -35 -32h-81zM399 760q-35 0 -30 33l11 74q5 34 36 34h80q34 0 30 -33l-11 -75q-3 -18 -10.5 -25.5t-24.5 -7.5h-81zM301 702q173 0 238 -83.5t38 -281.5q-26 -194 -101.5 -271.5
t-239.5 -77.5q-152 0 -245 34l25 157q71 -8 210 -8q54 0 78.5 23t38.5 87h-264l16 144h270q4 55 -10.5 74.5t-55.5 19.5q-77 0 -215 -2l-8 159q96 26 225 26z" />
    <glyph glyph-name="uni04ED" unicode="&#x4ed;" horiz-adv-x="561" 
d="M169 575q-35 0 -30 33l11 73q3 19 11.5 27t27.5 8h77q34 0 30 -33l-11 -76q-4 -32 -35 -32h-81zM358 575q-34 0 -30 33l11 74q5 34 36 34h80q35 0 30 -33l-11 -75q-3 -18 -10.5 -25.5t-24.5 -7.5h-81zM281 514q146 0 204 -64t42 -210q-16 -148 -86 -201t-223 -53
q-141 0 -230 35l21 127q85 -4 184 -4q63 0 84.5 8t30.5 41h-248l14 120h248q0 29 -12.5 37t-51.5 8q-109 -1 -202 -1l-10 127q97 30 235 30z" />
    <glyph glyph-name="uni04EE" unicode="&#x4ee;" horiz-adv-x="622" 
d="M548 895l-17 -123h-320l17 123h320zM455 690h227l-219 -507q-45 -103 -88 -146.5t-119 -50.5q-74 -8 -219 15l32 147q40 -1 69 -1t49 2.5t33 10t20 20.5l6 12h-34q-85 0 -97 98l-68 400h217l31 -329q1 -17 15 -17h7z" />
    <glyph glyph-name="uni04EF" unicode="&#x4ef;" horiz-adv-x="621" 
d="M518 707l-17 -123h-320l17 123h320zM403 500h225q-31 -163 -65 -262.5t-112 -226.5q-18 -29 -33.5 -51t-41 -51.5t-51 -49.5t-62.5 -39.5t-76.5 -28.5t-91 -9t-108.5 12l15 133q138 -21 223 73h-72q-24 0 -41.5 15t-20.5 38l-61 447h230l7 -358q0 -16 16 -16h22
q37 75 58 157.5t40 216.5z" />
    <glyph glyph-name="uni04F0" unicode="&#x4f0;" horiz-adv-x="622" 
d="M238 763q-34 0 -30 33l11 73q3 19 11.5 27t27.5 8h77q35 0 30 -33l-11 -76q-4 -32 -35 -32h-81zM427 763q-35 0 -30 33l11 74q5 34 36 34h80q34 0 30 -33l-11 -75q-3 -18 -10.5 -25.5t-24.5 -7.5h-81zM455 690h227l-219 -507q-45 -103 -88 -146.5t-119 -50.5
q-74 -8 -219 15l32 147q40 -1 69 -1t49 2.5t33 10t20 20.5l6 12h-34q-85 0 -97 98l-68 400h217l31 -329q1 -17 15 -17h7z" />
    </font>
</defs>
</svg>
